<svg width="26" height="26" xmlns="http://www.w3.org/2000/svg"><g fill-rule="nonzero" fill="none"><circle fill="#FF8400" cx="13" cy="13" r="13"/><path d="M14.758 17.274a8.07 8.07 0 0 0 2.522-1.06c.594-.38.774-1.175.4-1.78a1.262 1.262 0 0 0-1.756-.406 5.452 5.452 0 0 1-5.848 0 1.262 1.262 0 0 0-1.755.407c-.375.602-.195 1.4.398 1.78.785.499 1.637.855 2.523 1.059l-2.426 2.461a1.301 1.301 0 0 0 0 1.824c.25.251.574.378.898.378.327 0 .651-.127.901-.378l2.386-2.42 2.386 2.42a1.259 1.259 0 0 0 1.8 0 1.301 1.301 0 0 0 0-1.824l-2.429-2.461zm-1.757-9.817c.993 0 1.799.817 1.799 1.823 0 1.005-.806 1.822-1.799 1.822-.99 0-1.799-.817-1.799-1.822 0-1.006.809-1.823 1.799-1.823zm0 6.224c2.395 0 4.343-1.975 4.343-4.4 0-2.431-1.948-4.406-4.343-4.406S8.658 6.85 8.658 9.278c0 2.429 1.948 4.403 4.343 4.403z" fill="#FFF"/></g></svg>