<svg width="26" height="26" xmlns="http://www.w3.org/2000/svg"><g fill-rule="nonzero" fill="none"><circle fill="#7D3DAF" cx="12.878" cy="12.878" r="12.878"/><g fill="#FFF"><path d="M20.13 8.942l-.005-.018c-.369-1.481-2.033-3.071-3.561-3.402l-.018-.004a19.931 19.931 0 0 0-7.45 0l-.017.004c-1.528.33-3.192 1.92-3.561 3.402l-.005.018a14.376 14.376 0 0 0 0 6.237l.005.018c.353 1.418 1.894 2.935 3.365 3.352v1.654c0 .599.735.893 1.152.46l1.688-1.74a19.8 19.8 0 0 0 4.823-.32l.018-.004c1.528-.33 3.192-1.92 3.561-3.402l.005-.018c.456-2.07.456-4.168 0-6.237zm-1.336 5.937c-.246.966-1.51 2.168-2.514 2.39a18.577 18.577 0 0 1-3.962.318.094.094 0 0 0-.07.028l-1.233 1.256-1.31 1.336a.154.154 0 0 1-.264-.105v-2.74a.095.095 0 0 0-.078-.093c-1.004-.222-2.268-1.424-2.514-2.39-.411-1.87-.411-3.766 0-5.637.246-.966 1.51-2.168 2.513-2.39a18.563 18.563 0 0 1 6.918 0c1.005.222 2.268 1.424 2.514 2.39.411 1.87.411 3.767 0 5.637z"/><path d="M15.006 16.144c-.155-.047-.302-.078-.439-.135-1.415-.583-2.718-1.335-3.75-2.488-.586-.656-1.046-1.396-1.434-2.18-.184-.371-.34-.757-.497-1.14-.145-.35.068-.712.291-.975.21-.248.48-.437.773-.576.228-.11.453-.047.62.146.36.415.691.851.96 1.333.164.296.12.658-.18.86-.072.049-.138.106-.206.161a.674.674 0 0 0-.156.163.444.444 0 0 0-.03.393c.369 1.005.99 1.787 2.009 2.208.163.067.327.146.514.124.315-.037.417-.38.637-.558a.604.604 0 0 1 .723-.032c.233.146.458.303.681.461.22.155.439.307.641.485.195.17.262.393.152.624-.2.424-.493.776-.914 1-.12.064-.261.085-.395.126-.155-.047.134-.041 0 0zM12.825 8.166c1.852.051 3.373 1.271 3.699 3.088.055.31.075.627.1.941.01.132-.065.258-.21.26-.148.001-.214-.122-.224-.254-.02-.262-.032-.524-.069-.784-.191-1.37-1.291-2.502-2.664-2.745-.206-.037-.418-.047-.627-.068-.132-.014-.306-.022-.335-.185-.025-.137.092-.246.223-.253.036-.002.072 0 .107 0 1.852.051-.035 0 0 0z"/><path d="M15.64 11.787c-.004.023-.005.077-.019.128-.05.184-.331.208-.396.021a.552.552 0 0 1-.022-.177c0-.39-.086-.779-.284-1.118a2.088 2.088 0 0 0-.878-.817 2.54 2.54 0 0 0-.7-.214c-.105-.017-.212-.028-.318-.042-.128-.018-.197-.1-.19-.225.005-.118.091-.203.22-.195.426.024.836.115 1.214.313.768.404 1.207 1.042 1.335 1.893.006.039.015.077.018.116.007.095.012.191.02.317-.004.023-.008-.126 0 0z"/><path d="M14.488 11.743c-.155.002-.238-.083-.254-.224-.011-.098-.02-.198-.044-.293a.826.826 0 0 0-.307-.479.804.804 0 0 0-.25-.12c-.114-.032-.232-.023-.345-.05-.123-.03-.191-.13-.172-.245a.222.222 0 0 1 .235-.177c.718.051 1.23.42 1.304 1.259.005.06.011.122-.002.178-.023.097-.095.146-.165.15-.155.003.07-.004 0 0z"/></g></g></svg>