<?xml version="1.0" encoding="UTF-8"?>
<svg width="26px" height="26px" viewBox="0 0 26 26" version="1.1" xmlns="http://www.w3.org/2000/svg" xmlns:xlink="http://www.w3.org/1999/xlink">
    <!-- Generator: Sketch 52.4 (67378) - http://www.bohemiancoding.com/sketch -->
    <title>viber (1)</title>
    <desc>Created with Sketch.</desc>
    <g id="Plans" stroke="none" stroke-width="1" fill="none" fill-rule="evenodd">
        <g id="5-product-plans" transform="translate(-187.000000, -768.000000)" fill-rule="nonzero">
            <g id="soc" transform="translate(123.000000, 768.000000)">
                <g id="social">
                    <g id="viber-(1)" transform="translate(64.000000, 0.000000)">
                        <circle id="Oval-3" fill="#7D3DAF" cx="12.8784328" cy="12.8784328" r="12.8784328"></circle>
                        <g id="Group" transform="translate(5.121212, 5.121212)" fill="#FFFFFF">
                            <path d="M15.008498,3.82113661 L15.0039346,3.80301288 C14.6348017,2.32139801 12.9706613,0.731544196 11.4424104,0.400786136 L11.4251707,0.397262078 C8.95329853,-0.0709342628 6.44694689,-0.0709342628 3.97558176,0.397262078 L3.95783498,0.400786136 C2.43009121,0.731544196 0.765950795,2.32139801 0.396310831,3.80301288 L0.392254425,3.82113661 C-0.0640912091,5.89026237 -0.0640912091,7.98858747 0.392254425,10.0577132 L0.396310831,10.075837 C0.750181518,11.4942202 2.29039874,13.0110253 3.76160636,13.4281731 L3.76160636,15.0820641 C3.76160636,15.6806506 4.49632283,15.9746578 4.91413261,15.5427089 L6.60185089,13.8008675 C6.96789079,13.8212063 7.33413351,13.8325336 7.70037624,13.8325336 C8.94467867,13.8325336 10.1894881,13.7157363 11.4251707,13.4816381 L11.4424104,13.478114 C12.9706613,13.147356 14.6348017,11.5575022 15.0039346,10.0758873 L15.008498,10.0577636 C15.4648437,7.98858747 15.4648437,5.89026237 15.008498,3.82113661 Z M13.6729265,9.75766483 C13.4264998,10.7242637 12.1629295,11.9259677 11.1589691,12.1479833 C9.84464296,12.3961274 8.51992229,12.5022016 7.19651995,12.4658031 C7.17020402,12.4650983 7.14490219,12.4752173 7.12654695,12.4939452 C6.93873537,12.6853519 5.89426163,13.7499196 5.89426163,13.7499196 L4.58353555,15.0855378 C4.48770297,15.1847149 4.31936214,15.1172543 4.31936214,14.9803195 L4.31936214,12.2405151 C4.31936214,12.1952561 4.28680948,12.1567935 4.2420369,12.148084 C4.24178338,12.1480337 4.24152985,12.1479833 4.24127633,12.147933 C3.23731593,11.9259173 1.97425263,10.7242134 1.72731893,9.75761448 C1.31660786,7.88734631 1.31660786,5.99140285 1.72731893,4.12113467 C1.97425263,3.15453577 3.23731593,1.95283183 4.24127633,1.73081615 C6.53669487,1.29735696 8.86405761,1.29735696 11.1589691,1.73081615 C12.1634365,1.95283183 13.4264998,3.15453577 13.6729265,4.12113467 C14.0840939,5.99145319 14.0840939,7.88739665 13.6729265,9.75766483 Z" id="Shape"></path>
                            <path d="M9.88429433,11.0223487 C9.72994809,10.9758312 9.58285269,10.9445677 9.44625323,10.8882835 C8.03077048,10.3052028 6.72805581,9.55296737 5.69615692,8.3998451 C5.10934713,7.7441185 4.65006061,7.0038145 4.26181188,6.22036596 C4.07770177,5.84882951 3.92254425,5.46274373 3.76439514,5.07917514 C3.62018992,4.72938716 3.83259346,4.36802014 4.05625353,4.10447091 C4.26612181,3.85713235 4.53617702,3.66784006 4.82864386,3.52833769 C5.05691809,3.41944428 5.28209931,3.48222287 5.44881758,3.6743344 C5.80922922,4.08966986 6.14028263,4.52625036 6.40836034,5.00768709 C6.57320252,5.30380869 6.5279736,5.66577984 6.22921932,5.86730564 C6.15660966,5.91629006 6.09043954,5.97378255 6.02279898,6.02911027 C5.96347405,6.07759125 5.90764776,6.12657566 5.8669823,6.19222384 C5.79264866,6.31234389 5.78909931,6.45401104 5.8369649,6.58460258 C6.20538794,7.58986543 6.82637294,8.37155194 7.84544344,8.79257624 C8.00851095,8.8599361 8.17228833,8.93837158 8.36015062,8.9166231 C8.67477558,8.88012392 8.77664206,8.53748475 8.99710771,8.35846258 C9.21260426,8.18351825 9.4879835,8.18120244 9.72011131,8.32704812 C9.95228983,8.47294414 10.1773696,8.62956337 10.4010804,8.78784393 C10.6206841,8.94320457 10.8393243,9.09519218 11.0418911,9.27230129 C11.2366493,9.442614 11.3037321,9.66603931 11.194057,9.8971672 C10.9932649,10.320457 10.7011023,10.6726111 10.2796418,10.8973957 C10.160637,10.9607784 10.0185107,10.9813186 9.88429433,11.0223487 C9.72994809,10.9757808 10.0185107,10.9813186 9.88429433,11.0223487 Z" id="Shape"></path>
                            <path d="M7.70422982,3.04433343 C9.55572547,3.09583503 11.0764212,4.31581373 11.4023027,6.13322103 C11.4578248,6.44288508 11.4775998,6.75949656 11.5022931,7.07379224 C11.5126877,7.20599477 11.4372892,7.33160228 11.2935911,7.33331397 C11.1451773,7.335076 11.0783987,7.2117843 11.0687648,7.0796321 C11.0496997,6.81804628 11.0364656,6.55530255 11.0001608,6.2958815 C10.8084956,4.92648272 9.70870267,3.79354826 8.33586289,3.55043857 C8.12929043,3.51383871 7.91785029,3.50422306 7.70859046,3.48242424 C7.57630093,3.46863007 7.4030417,3.46067577 7.37373417,3.29741117 C7.34914221,3.16052667 7.46551035,3.05153258 7.59678578,3.0445348 C7.63248215,3.0425714 7.66838134,3.0441824 7.70422982,3.04433343 C9.55572547,3.09583503 7.66838134,3.0441824 7.70422982,3.04433343 Z" id="Shape"></path>
                            <path d="M10.5179556,6.66585729 C10.5149133,6.68881402 10.5132907,6.74278246 10.4997525,6.79362959 C10.4506193,6.97818956 10.1688005,7.00129732 10.103898,6.81502566 C10.0846808,6.75974828 10.0817906,6.69686901 10.0816892,6.63736277 C10.08103,6.24800465 9.99579478,5.85904928 9.798045,5.52028657 C9.59476838,5.17210959 9.28419982,4.87941137 8.91993459,4.70230226 C8.69967177,4.59522122 8.46145935,4.52866686 8.22005251,4.48899603 C8.11453525,4.4716778 8.00790249,4.46115597 7.90187819,4.44650595 C7.77339154,4.42878497 7.70478758,4.34747991 7.71087219,4.22177171 C7.71655116,4.10396747 7.80325683,4.01923904 7.93255476,4.02648853 C8.35746325,4.05045213 8.76787009,4.14162455 9.14562286,4.34023042 C9.91380468,4.74413786 10.3526064,5.38169039 10.4806874,6.23300223 C10.4864677,6.2715655 10.4957975,6.30977636 10.4987384,6.34849066 C10.5059892,6.44409333 10.5105527,6.53979669 10.5179556,6.66585729 C10.5149133,6.68881402 10.5105527,6.53979669 10.5179556,6.66585729 Z" id="Shape"></path>
                            <path d="M9.36634203,6.62135347 C9.21143804,6.62412237 9.12853525,6.53899119 9.11256316,6.39797851 C9.10145875,6.29965728 9.09268677,6.20002711 9.06905821,6.10437409 C9.02251095,5.91598799 8.92165857,5.74139607 8.762039,5.62595798 C8.68669127,5.57143576 8.60130393,5.53171459 8.51186019,5.50608965 C8.39823012,5.47351728 8.28023942,5.48247846 8.16686289,5.45489012 C8.04375098,5.42493562 7.97565407,5.32595992 7.9950234,5.21127699 C8.01261806,5.10691451 8.11489019,5.02545842 8.22973717,5.03371478 C8.94756886,5.08516604 9.46060276,5.45363152 9.53382088,6.2926595 C9.5389928,6.35186368 9.54507741,6.41444089 9.53184338,6.47107755 C9.50917822,6.5680395 9.43687279,6.61662116 9.36634203,6.62135347 C9.21143804,6.62412237 9.43687279,6.61662116 9.36634203,6.62135347 Z" id="Shape"></path>
                        </g>
                    </g>
                </g>
            </g>
        </g>
    </g>
</svg>