<svg width="26" height="26" xmlns="http://www.w3.org/2000/svg"><g fill-rule="nonzero" fill="none"><circle fill="#4C75A3" cx="12.858" cy="12.858" r="12.858"/><path d="M12.544 18.005h1.003s.303-.032.458-.195c.142-.15.138-.432.138-.432s-.02-1.318.605-1.513c.616-.19 1.407 1.275 2.245 1.838.633.426 1.115.333 1.115.333l2.241-.03s1.172-.072.617-.974c-.046-.074-.324-.668-1.667-1.889-1.405-1.278-1.217-1.07.476-3.28 1.03-1.347 1.443-2.168 1.314-2.52-.123-.335-.88-.247-.88-.247l-2.524.015s-.187-.025-.326.057c-.136.08-.223.265-.223.265s-.4 1.041-.932 1.927c-1.123 1.869-1.573 1.968-1.756 1.852-.428-.271-.32-1.087-.32-1.667 0-1.81.28-2.566-.547-2.762-.274-.064-.476-.107-1.178-.114-.9-.01-1.662.002-2.094.21-.287.137-.508.444-.373.462.167.021.544.1.744.366.26.345.25 1.119.25 1.119s.149 2.132-.347 2.397c-.34.181-.807-.19-1.808-1.885-.514-.869-.901-1.829-.901-1.829s-.075-.18-.208-.275c-.162-.117-.388-.153-.388-.153l-2.398.015s-.36.01-.492.163c-.118.137-.01.419-.01.419s1.878 4.302 4.004 6.47c1.95 1.988 4.162 1.857 4.162 1.857" fill="#FFF"/></g></svg>