<?xml version="1.0" encoding="UTF-8"?>
<svg width="26px" height="26px" viewBox="0 0 26 26" version="1.1" xmlns="http://www.w3.org/2000/svg" xmlns:xlink="http://www.w3.org/1999/xlink">
    <!-- Generator: Sketch 52.4 (67378) - http://www.bohemiancoding.com/sketch -->
    <title>WhatsApp_Logo_2</title>
    <desc>Created with Sketch.</desc>
    <g id="Plans" stroke="none" stroke-width="1" fill="none" fill-rule="evenodd">
        <g id="5-product-plans" transform="translate(-155.000000, -768.000000)">
            <g id="soc" transform="translate(123.000000, 768.000000)">
                <g id="social">
                    <g id="WhatsApp_Logo_2" transform="translate(32.000000, 0.000000)">
                        <g id="background_1_" fill="#25D366" fill-rule="nonzero">
                            <circle id="Oval-2" cx="13" cy="13" r="13"></circle>
                        </g>
                        <g id="WhatsApp_Logo" transform="translate(5.500000, 4.500000)" fill="#FFFFFF">
                            <g id="WA_Logo">
                                <path d="M13.2340476,2.33554502 C11.78,0.841706161 9.84988095,0.018957346 7.79059524,0.0151658768 C3.54654762,0.0151658768 0.095952381,3.56398104 0.0922619048,7.92037915 C0.0922619048,9.31563981 0.446547619,10.6729858 1.11821429,11.8748815 L0.0258333333,15.9734597 L4.1075,14.8739336 C5.23309524,15.5033175 6.49892857,15.8369668 7.78690476,15.8369668 L7.79059524,15.8369668 C7.79059524,15.8369668 7.79059524,15.8369668 7.79059524,15.8369668 C12.0309524,15.8369668 15.4852381,12.2881517 15.4889286,7.92796209 C15.4889286,5.81611374 14.6880952,3.82938389 13.2340476,2.33554502 Z M7.79059524,14.5023697 C6.63916667,14.5023697 5.51357143,14.1838863 4.53190476,13.5848341 L4.29940476,13.4407583 L1.87845238,14.092891 L2.52428571,11.6663507 L2.37297619,11.4161137 C1.73083333,10.3696682 1.395,9.16018957 1.395,7.92037915 C1.395,4.2957346 4.26619048,1.34976303 7.79428571,1.34976303 C9.50297619,1.34976303 11.1083333,2.03601896 12.3188095,3.27582938 C13.5255952,4.51943128 14.189881,6.16872038 14.189881,7.92417062 C14.1861905,11.5526066 11.315,14.5023697 7.79059524,14.5023697 Z M11.3002381,9.57725118 C11.1083333,9.47867299 10.1635714,9.00094787 9.98642857,8.93270142 C9.80928571,8.86824645 9.68011905,8.83412322 9.55464286,9.03127962 C9.42547619,9.22843602 9.05642857,9.67582938 8.94571429,9.80473934 C8.835,9.93744076 8.72059524,9.95260664 8.52869048,9.85402844 C8.33678571,9.75545024 7.71678571,9.54691943 6.98238095,8.87203791 C6.41035714,8.34881517 6.02654762,7.70047393 5.91214286,7.50331754 C5.80142857,7.30616114 5.90107143,7.2 5.99702381,7.1014218 C6.08190476,7.01421801 6.18892857,6.87014218 6.28488095,6.7563981 C6.38083333,6.64265403 6.41404762,6.55924171 6.47678571,6.42654028 C6.53952381,6.29383886 6.51,6.18009479 6.46202381,6.08151659 C6.41404762,5.98293839 6.0302381,5.00853081 5.86785714,4.61421801 C5.71285714,4.22748815 5.55416667,4.28056872 5.43607143,4.27677725 C5.32535714,4.26919431 5.19619048,4.26919431 5.06702381,4.26919431 C4.93785714,4.26919431 4.73119048,4.31848341 4.55404762,4.51563981 C4.37690476,4.71279621 3.88238095,5.19052133 3.88238095,6.16492891 C3.88238095,7.13933649 4.5725,8.07582938 4.66845238,8.20853081 C4.76440476,8.34123223 6.02285714,10.335545 7.95297619,11.1924171 C8.41059524,11.3971564 8.76857143,11.5184834 9.04904762,11.6094787 C9.51035714,11.7611374 9.92738095,11.7383886 10.2595238,11.6890995 C10.6285714,11.6322275 11.3961905,11.2113744 11.5585714,10.7488152 C11.7172619,10.2862559 11.7172619,9.89194313 11.6692857,9.80853081 C11.6213095,9.72511848 11.4921429,9.67582938 11.3002381,9.57725118 Z" id="Shape"></path>
                            </g>
                        </g>
                    </g>
                </g>
            </g>
        </g>
    </g>
</svg>