<svg width="26" height="26" xmlns="http://www.w3.org/2000/svg"><g fill="none" fill-rule="evenodd"><circle fill="#F5F5F5" fill-rule="nonzero" cx="13" cy="13" r="13"/><path fill="#000" fill-rule="nonzero" d="M6.143 19.782h3.434v2.073H6.143zM16.423 19.782h3.434v2.073h-3.434z"/><path d="M5.055 7.407h.533v3.527c-.588 0-1.066-.49-1.066-1.095V7.954a.54.54 0 0 1 .533-.547zM20.945 7.407h-.533v3.527c.588 0 1.066-.49 1.066-1.095V7.954a.54.54 0 0 0-.533-.547z" fill="#0061DC" fill-rule="nonzero"/><path d="M6.143 5.898c0-.996 4.413-1.376 6.857-1.376 2.412 0 6.857.38 6.857 1.376v13.99H6.143V5.899z" fill="#007AFF" fill-rule="nonzero"/><path d="M6.91 6.973c1.317-.38 3.35-.57 6.1-.57 2.752 0 4.785.19 6.1.57.14.04.235.169.235.317v7.736c0 .182-.145.33-.322.33H6.998a.326.326 0 0 1-.322-.33V7.29a.33.33 0 0 1 .235-.317z" fill="#FFF" fill-rule="nonzero" opacity=".981"/><path d="M11.106 18.777h3.81c.629 0 1.153.483 1.209 1.112H9.897a1.215 1.215 0 0 1 1.209-1.112z" fill="#0061DC" fill-rule="nonzero"/><g transform="translate(16.509 16.47)"><ellipse fill="#000" fill-rule="nonzero" cx="1.13" cy="1.165" rx="1.13" ry="1.165"/><ellipse fill="#F3F3F3" fill-rule="nonzero" cx="1.13" cy="1.165" rx="1.13" ry="1.165"/><ellipse cx="1.13" cy="1.165" rx="1.077" ry="1.111"/></g><g transform="translate(7.252 16.47)"><ellipse fill="#000" fill-rule="nonzero" cx="1.13" cy="1.165" rx="1.13" ry="1.165"/><ellipse fill="#F3F3F3" fill-rule="nonzero" cx="1.13" cy="1.165" rx="1.13" ry="1.165"/><ellipse cx="1.13" cy="1.165" rx="1.077" ry="1.111"/></g></g></svg>