<svg width="26" height="26" xmlns="http://www.w3.org/2000/svg" xmlns:xlink="http://www.w3.org/1999/xlink"><defs><path id="a" d="M17.333 6.067V0H0v12.133h17.333z"/></defs><g fill="none" fill-rule="evenodd"><circle fill="red" fill-rule="nonzero" cx="12.858" cy="12.858" r="12.858"/><g transform="translate(4.333 6.933)"><mask id="b" fill="#fff"><use xlink:href="#a"/></mask><path d="M6.894 8.627V3.506l4.53 2.56-4.53 2.561zM16.97 1.895A2.17 2.17 0 0 0 15.44.362C14.087 0 8.667 0 8.667 0s-5.42 0-6.772.362A2.17 2.17 0 0 0 .362 1.895C0 3.246 0 6.067 0 6.067s0 2.82.362 4.172c.2.745.787 1.333 1.533 1.532 1.351.362 6.772.362 6.772.362s5.42 0 6.772-.362a2.171 2.171 0 0 0 1.532-1.532c.362-1.352.362-4.172.362-4.172s0-2.82-.362-4.172z" fill="#FFF" mask="url(#b)"/></g></g></svg>