<svg width="165" height="47" xmlns="http://www.w3.org/2000/svg">
  <defs>
    <linearGradient x1="91.5002342%" y1="4.96324633%" x2="-38.3362662%" y2="71.9038086%" id="a">
      <stop stop-color="#00A0FF" offset="0%"/>
      <stop stop-color="#00A1FF" offset=".657%"/>
      <stop stop-color="#00BEFF" offset="26.01%"/>
      <stop stop-color="#00D2FF" offset="51.22%"/>
      <stop stop-color="#00DFFF" offset="76.04%"/>
      <stop stop-color="#00E3FF" offset="100%"/>
    </linearGradient>
    <linearGradient x1="107.58974%" y1="50.0000956%" x2="-130.463078%" y2="50.0000956%" id="b">
      <stop stop-color="#FFE000" offset="0%"/>
      <stop stop-color="#FFBD00" offset="40.87%"/>
      <stop stop-color="orange" offset="77.54%"/>
      <stop stop-color="#FF9C00" offset="100%"/>
    </linearGradient>
    <linearGradient x1="86.2466603%" y1="17.8462133%" x2="-50.1406989%" y2="194.809902%" id="c">
      <stop stop-color="#FF3A44" offset="0%"/>
      <stop stop-color="#C31162" offset="100%"/>
    </linearGradient>
    <linearGradient x1="-18.8060963%" y1="-54.1525272%" x2="42.0966128%" y2="24.8685249%" id="d">
      <stop stop-color="#32A071" offset="0%"/>
      <stop stop-color="#2DA771" offset="6.85%"/>
      <stop stop-color="#15CF74" offset="47.62%"/>
      <stop stop-color="#06E775" offset="80.09%"/>
      <stop stop-color="#00F076" offset="100%"/>
    </linearGradient>
  </defs>
  <g fill-rule="nonzero" fill="none">
    <path d="M158.253077 47H6.08665951C2.73899879 47 0 44.35625 0 41.125V5.875C0 2.64375 2.73899879 0 6.08665951 0H158.253077c3.34766 0 6.086649 2.64375 6.086649 5.875v35.25c0 3.23125-2.738989 5.875-6.086649 5.875z" fill="#000"/>
    <path d="M83.9615591 25.0653c-2.8985394 0-5.2609179 2.18558-5.2609179 5.19823 0 2.99298 2.3623785 5.19835 5.2609179 5.19835 2.8984184 0 5.2609179-2.20538 5.2609179-5.19835 0-3.01265-2.3624995-5.19823-5.2609179-5.19823zm0 8.34875c-1.5881469 0-2.9580546-1.29959-2.9580546-3.15052 0-1.87061 1.3699077-3.1504 2.9580546-3.1504 1.5881468 0 2.9579336 1.27979 2.9579336 3.1504 0 1.85094-1.3697868 3.15052-2.9579336 3.15052zM72.4849498 25.0653c-2.8985394 0-5.2609179 2.18558-5.2609179 5.19823 0 2.99298 2.3623785 5.19835 5.2609179 5.19835 2.8984184 0 5.260807-2.20538 5.260807-5.19835 0-3.01265-2.3623785-5.19823-5.260807-5.19823zm0 8.34875c-1.5882679 0-2.9580546-1.29959-2.9580546-3.15052 0-1.87061 1.3697968-3.1504 2.9580546-3.1504 1.5881468 0 2.9579336 1.27979 2.9579336 3.1504.0000101 1.85094-1.3697767 3.15052-2.9579336 3.15052zM58.8329059 26.6603v2.20526h5.3205642c-.1589659 1.24056-.5757133 2.14622-1.2110729 2.7764-.7742316.76792-1.9853045 1.61456-4.1094913 1.61456-3.2756133 0-5.8365102-2.61886-5.8365102-5.86777s2.5608969-5.86777 5.8365102-5.86777c1.7669445 0 3.0573844.68921 4.0102926 1.5752l1.5683051-1.55552c-1.3301133-1.26011-3.0969367-2.22506-5.5785977-2.22506-4.4866862 0-8.258656 3.62316-8.258656 8.07314 0 4.45011 3.7719698 8.07314 8.258656 8.07314 2.4220248 0 4.2484945-.7876 5.6777964-2.26441 1.4691064-1.45713 1.9257894-3.50485 1.9257894-5.15888 0-.51199-.0396734-.9845-.1192824-1.3783h-7.4843034v.00001zm55.8319621 1.71295c-.43672-1.16172-1.766834-3.30795-4.4866864-3.30795-2.6999001 0-4.9431172 2.10687-4.9431172 5.19823 0 2.91427 2.2233854 5.19835 5.2012818 5.19835 2.4020618 0 3.7918018-1.45713 4.3673938-2.30376l-1.786665-1.1814c-.595555.86631-1.4094605 1.43733-2.5807288 1.43733-1.1713894 0-2.0051463-.53167-2.5411862-1.5752l7.008031-2.87479-.238323-.59081zm-7.146782 1.73286c-.0596362-2.00848 1.5683152-3.03233 2.7394525-3.03233.9133558 0 1.6875875.45283 1.9456215 1.10269l-4.685074 1.92964zm-5.6977591 5.04069h2.3028633V19.86707h-2.3028633V35.1468zm-3.7719698-8.91978h-.0793569c-.5161981-.61038-1.5087899-1.16172-2.7595463-1.16172-2.6204121 0-5.0225951 2.28409-5.0225951 5.21791 0 2.91427 2.402183 5.17868 5.0225951 5.17868 1.2507463 0 2.2433482-.55134 2.7595463-1.1814h.0793569v.74824c0 1.9888-1.0719487 3.05201-2.7992197 3.05201-1.4093493 0-2.2830216-1.00418-2.6402639-1.85093l-2.0051463.82708c.5757133 1.3783 2.104345 3.07169 4.6454102 3.07169 2.700021 0 4.9830426-1.5752 4.9830426-5.41493v-9.33338h-2.1838229v.84675zm-2.6402639 7.18703c-1.5881468 0-2.918371-1.31927-2.918371-3.13084 0-1.83113 1.3302343-3.17008 2.918371-3.17008 1.5683152 0 2.7990988 1.33894 2.7990988 3.17008 0 1.81158-1.2307836 3.13084-2.7990988 3.13084zm30.0439238-13.54674h-5.509727V35.1468h2.299042v-5.78893h3.210674c2.548819 0 5.05378-1.83003 5.05378-4.74528 0-2.91525-2.504951-4.74528-5.053769-4.74528zm.059394 7.36414h-3.270068v-5.23759h3.270068c1.719134 0 2.695343 1.41179 2.695343 2.61873 0 1.18421-.976209 2.61886-2.695343 2.61886zm14.210143-2.19426c-1.664781 0-3.389108.72734-4.102585 2.33921l2.041372.84529c.435974-.84529 1.248538-1.12053 2.100756-1.12053 1.189134 0 2.39812.70767 2.417961 1.9657v.1573c-.416263-.23589-1.308053-.58972-2.39812-.58972-2.199853 0-4.43937 1.19912-4.43937 3.44007 0 2.04429 1.803432 3.36135 3.824962 3.36135 1.545882 0 2.39812-.68799 2.933292-1.49392h.079246v1.17945h2.219676v-5.85787c.00001-2.71273-2.041372-4.22633-4.67719-4.22633zm-.277502 8.37393c-.75316 0-1.803553-.37339-1.803553-1.29739 0-1.17932 1.308054-1.63155 2.437793-1.63155 1.01071 0 1.486358.21633 2.100776.51113-.178434 1.41535-1.407131 2.41781-2.735016 2.41781zm13.040841-8.03978l-2.635948 6.62444h-.079347l-2.734896-6.62444h-2.477345l4.102464 9.25858-2.338595 5.1502h2.397999l6.32228-14.40878h-2.556612zm-20.710727 9.77546h2.298921V19.86731h-2.298921V35.1468z" fill="#FFF"/>
    <path d="M.7604594.69312c-.35834126.3762-.57029918.9603-.57029918 1.7171v27.03079c0 .75741.21194784 1.3409.57029918 1.7171l.09118334.08812L16.1182084 16.10424v-.35726L.85164274.60439.7604594.69312z" fill="url(#a)" transform="translate(12.09863 7)"/>
    <path d="M21.206741 21.15373l-5.0885225-5.04949v-.35726l5.0897627-5.04827.1147252.0649 6.0292414 3.3979c1.7222199.97045 1.7222199 2.55836 0 3.52941l-6.0292414 3.3979-.1159654.06491z" fill="url(#b)" transform="translate(12.09863 7)"/>
    <path d="M21.3226963 21.08822l-5.2044879-5.16254L.7604594 31.15811c.56782904.59608 1.50484778.6699 2.56077589.07504L21.3226963 21.08822" fill="url(#c)" transform="translate(12.09863 7)"/>
    <path d="M21.3226963 10.76301L3.32123529.61808C2.26530718.02322 1.32828844.09705.76045939.69312L16.1182185 15.92568l5.2044778-5.16267z" fill="url(#d)" transform="translate(12.09863 7)"/>
    <g fill="#000">
      <path d="M33.3066011 27.97456L15.41986529 38.05459c-1.00059704.56381-1.89510926.52629-2.46896745.01308l-.09179836.09105.09118334.08812.00061502-.00061c.57386827.51321 1.46837041.55134 2.46896745-.01308L33.4213263 28.08822l-.1147252-.11366z" opacity=".2"/>
      <path d="M12.8590894 37.98016c-.35834126-.37632-.57029918-.96042-.57029918-1.7171v.17857c0 .7568.21194783 1.34078.57029918 1.7171l.09179835-.09105-.09179835-.08752z" opacity=".12"/>
    </g>
    <path d="M39.4505678 24.51175l-6.1439667 3.4628.1147252.11367 6.0292415-3.3979c.8608578-.48522 1.2917909-1.12469 1.2917909-1.76416-.0725918.57824-.510784 1.1456-1.2917909 1.58559z" fill="#000" opacity=".12"/>
    <path d="M15.41986529 7.79726L39.4505678 21.33948c.7810169.44 1.2192092 1.00687 1.2917915 1.5862.0006144-.63947-.4304296-1.27954-1.2917915-1.76477L15.41986529 7.61869c-1.72221984-.97057-3.13107507-.16439-3.13107507 1.79214v.17857c0-1.95641 1.40885523-2.76259 3.13107507-1.79214z" fill="#FFF" opacity=".25"/>
    <g fill="#FFF">
      <path d="M51.8953601 15.92528h-.90855672v-2.45752h.72321578c.64015869-.5467.95303935-1.48182.93985184-2.8061V7.03557h4.93622093v6.43219h.8256206v2.45752h-.90855671V14.3689H51.8953601v1.55638zm1.70398115-5.26362c.01441753 1.16013-.22020515 2.09587-.70164998 2.8061h3.73771047V7.93671h-3.03606049v2.72495zM65.8209741 13.42119c-.7269159.74128-1.6306634 1.11125-2.7112425 1.11125-1.0807001 0-1.9844476-.36997-2.71012339-1.11125-.72679496-.74054-1.08907836-1.64707-1.08907836-2.71896s.3622834-1.97841 1.08907836-2.71896c.72568589-.74128 1.62943339-1.11186 2.71012339-1.11186 1.0745398 0 1.9759483.37241 2.7063123 1.11662.729255.74421 1.0938876 1.6489 1.0938876 2.71419 0 1.0719-.3633924 1.97842-1.0889574 2.71897zm-4.7197058-.61405c.5474932.54963 1.216618.82414 2.0084734.82414.7917343 0 1.4620892-.27451 2.0083524-.82414.5476244-.54963.8219205-1.25156.8219205-2.10491 0-.85336-.2742961-1.55528-.8219205-2.10491-.5462632-.54963-1.2166181-.82414-2.0083524-.82414-.7918554 0-1.4609802.27451-2.0084734.82414-.5463843.54963-.82069045 1.25156-.82069045 2.10491 0 .85336.27429615 1.55528.82069045 2.10491zM71.6922377 14.53243c-1.0878383 0-1.9999742-.3652-2.7364984-1.09572-.7376333-.73052-1.1047259-1.6423-1.1047259-2.73448s.3670926-2.00396 1.1047259-2.73448c.7365242-.73052 1.6486601-1.09633 2.7364984-1.09633 1.1143443 0 2.0204309.3993 2.7160416 1.19839l-.6618555.63556c-.5017806-.62187-1.187783-.93219-2.0541962-.93219-.8062729 0-1.4862361.26974-2.0397685.80923-.5547726.53949-.8315389 1.24618-.8315389 2.11982 0 .87364.2767663 1.58094.8315389 2.11982.5535324.53949 1.2334956.80923 2.0397685.80923.8880999 0 1.645081-.35457 2.2719312-1.06468l.6607465.65523c-.3381265.40284-.7605602.72209-1.2708401.95724-.5090398.23579-1.0636813.35336-1.6618275.35336zM78.4672488 14.3689h-.9505793V7.93671H75.451645v-.90114h5.0806383v.90114h-2.0650345zM87.05529 7.03557l-2.7978587 6.18628c-.3863193.87377-.9596936 1.31059-1.7238229 1.31059-.2274744 0-.4718365-.05427-.7341852-.16353l.2479312-.87071c.1588348.08898.323719.1331.4958624.1331.2202051 0 .3909974-.04241.5113889-.12772.1204015-.08531.2322836-.24115.3357975-.46616l.2682669-.58422-2.4885672-5.41763 1.1155743.00001 1.8273267 4.2097h.0409136l1.7858082-4.2097 1.1155643-.00001zM88.1310699 14.3689V7.03557h5.3491472v7.33333h-.9507003V7.93671H89.08052v6.43219zM95.1733498 14.3689V7.03557h.9494602v3.14392h3.6967969V7.03557h.9507003v7.33333h-.9507003v-3.30856H96.12281v3.30856zM108.510436 13.42119c-.7267949.74128-1.6305424 1.11125-2.7112324 1.11125-1.0805791 0-1.9843266-.36997-2.7100024-1.11125-.726795-.74054-1.0890784-1.64707-1.0890784-2.71896s.3622834-1.97841 1.0890784-2.71896c.7256758-.74128 1.6294233-1.11186 2.7100024-1.11186 1.0746608 0 1.9759382.37241 2.7064232 1.11662.729255.74421 1.0938876 1.6489 1.0938876 2.71419 0 1.0719-.3634025 1.97842-1.0890784 2.71897zm-4.7197159-.61405c.5476142.54963 1.2166181.82414 2.0084734.82414.7918453 0 1.4620791-.27451 2.0084734-.82414.5475034-.54963.8219205-1.25156.8219205-2.10491 0-.85336-.2744272-1.55528-.8219205-2.10491-.5463842-.54963-1.216618-.82414-2.0084734-.82414-.7918553 0-1.4608592.27451-2.0084734.82414-.5462632.54963-.8206904 1.25156-.8206904 2.10491 0 .85336.2744272 1.55528.8206904 2.10491zM113.4841123 14.3689V7.03557h2.6738981c.5787884 0 1.079339.18981 1.5030027.56809.4235227.37962.6353596.8558.6353596 1.42878 0 .34846-.0914354.65584-.2743062.92204-.1817517.26669-.4248837.46787-.728146.60451v.04058c.3646326.12296.6643257.33477.8989484.63494.2335137.30079.351435.64937.351435 1.045 0 .60097-.2226652 1.09927-.6666547 1.49502-.4441105.39624-.9688079.59437-1.5752114.59437h-2.8183255zm.9494602-4.18941h1.7244379c.3585933 0 .6461979-.11697.862834-.35334.216505-.23516.324828-.49292.324828-.77281 0-.27989-.1046229-.53656-.3152096-.76804-.2093668-.23222-.486254-.34858-.8302988-.34858h-1.7665915v2.24277zm0 3.28827h1.9108778c.3646325 0 .6607465-.1265.8880999-.37962.2274744-.25178.3405966-.52873.3405966-.82952 0-.30018-.1167013-.57469-.351324-.82414-.2335137-.24884-.540345-.37412-.9193951-.37412h-1.8688552v2.4074z"/>
    </g>
  </g>
</svg>
