<?xml version="1.0" encoding="UTF-8"?>
<svg width="56px" height="56px" viewBox="0 0 56 56" version="1.1" xmlns="http://www.w3.org/2000/svg" xmlns:xlink="http://www.w3.org/1999/xlink">
    <!-- Generator: Sketch 53 (72520) - https://sketchapp.com -->
    <title>24x7</title>
    <desc>Created with Sketch.</desc>
    <g id="Page-1" stroke="none" stroke-width="1" fill="none" fill-rule="evenodd" stroke-linecap="round" stroke-linejoin="round">
        <g id="1396_open" transform="translate(-171.000000, -2436.000000)">
            <g id="5-copy" transform="translate(170.000000, 2435.000000)">
                <g id="24x7" transform="translate(0.218182, 0.290909)">
                    <path d="M56.781818,28.709091 C56.781818,44.1732365 44.2449453,56.709091 28.781818,56.709091 C13.3176725,56.709091 0.781818,44.1732365 0.781818,28.709091 C0.781818,13.2449455 13.3176725,0.709091 28.781818,0.709091 C44.2449453,0.709091 56.781818,13.2449455 56.781818,28.709091" id="Fill-144" fill="#8348FC"></path>
                    <path d="M16.5636364,32.2727273 C14.8327273,32.2727273 14.7309091,35.0218182 16.5636364,35.0218182 L20.6363636,35.0218182 C18.6,35.0218182 18.6,37.5672727 20.6363636,37.5672727 L25.7272727,37.5672727 C27.2545455,37.5672727 28.68,38.0763636 32.3454545,38.0763636 C34.5854545,38.0763636 37.64,36.8545455 38.8618182,36.2436364 C40.0836364,35.7345455 41.5090909,35.2254545 44.0545455,35.2254545" id="Shape" stroke="#FFFFFF" stroke-width="2"></path>
                    <path d="M44.0545455,27.4872727 C44.0545455,27.4872727 40.8981818,27.5890909 39.3709091,26.2654545" id="Shape" stroke="#FFFFFF" stroke-width="2"></path>
                    <path d="M40.4909091,30.9490909 C40.6945455,29.5236364 40.4909091,27.8945455 39.3709091,26.2654546 C38.5563636,25.1454546 37.4363636,24.0254546 35.8072727,22.8036364 C34.4836364,21.7854546 32.04,20.8690909 30.0036364,18.12 C29.5963636,17.6109091 28.8836364,17.4072727 28.3745455,17.8145455 C27.7636364,18.3236364 28.2727273,19.9527273 28.5781818,20.36 C29.0872727,21.1745455 30.2072727,22.1927273 31.1236364,23.3127273 C32.5490909,24.9418182 31.3272727,26.6727273 29.3927273,26.6727273 L16.5636364,26.6727273 C14.7309091,26.6727273 14.7309091,29.4218182 16.5636364,29.4218182" id="Shape" stroke="#FFFFFF" stroke-width="2"></path>
                    <path d="M25.7272727,32.2727273 L15.0363636,32.2727273 C13.2036364,32.2727273 13.1018182,29.4218182 15.0363636,29.4218182 L25.2181818,29.4218182" id="Shape" stroke="#FFFFFF" stroke-width="2"></path>
                    <path d="M17.0727273,35.1236364 L26.2363636,35.1236364" id="Shape" stroke="#FFFFFF" stroke-width="2"></path>
                </g>
            </g>
        </g>
    </g>
</svg>