<?xml version="1.0" encoding="UTF-8"?>
<svg width="56px" height="56px" viewBox="0 0 56 56" version="1.1" xmlns="http://www.w3.org/2000/svg" xmlns:xlink="http://www.w3.org/1999/xlink">
    <!-- Generator: Sketch 53 (72520) - https://sketchapp.com -->
    <title>Group 9</title>
    <desc>Created with Sketch.</desc>
    <g id="Page-1" stroke="none" stroke-width="1" fill="none" fill-rule="evenodd">
        <g id="1396_open" transform="translate(-168.000000, -1571.000000)">
            <g id="1-copy" transform="translate(168.000000, 1571.000000)">
                <g id="Group-9">
                    <g id="2-copy" fill="#8348FC">
                        <g id="017-C">
                            <path d="M55.2529,27.5673 C55.2529,42.7553 42.9399,55.0673 27.7529,55.0673 C12.5649,55.0673 0.2529,42.7553 0.2529,27.5673 C0.2529,12.3793 12.5649,0.0673 27.7529,0.0673 C42.9399,0.0673 55.2529,12.3793 55.2529,27.5673" id="Fill-177"></path>
                        </g>
                    </g>
                    <g id="Group-31-Copy" transform="translate(11.000000, 11.000000)" stroke="#FFFFFF" stroke-linejoin="round">
                        <path d="M17.00051,34 C26.3891405,34 34,26.3889758 34,17 C34,7.61102419 26.3891405,0 17.00051,0 C7.61085946,0 0,7.61102419 0,17 C0,26.3889758 7.61085946,34 17.00051,34 Z" id="Stroke-53" stroke-width="2"></path>
                        <path d="M17.166,33.236 C22.228,33.236 26.332,25.796 26.332,16.618 C26.332,7.44 22.228,-5.68434189e-14 17.166,-5.68434189e-14 C12.104,-5.68434189e-14 8,7.44 8,16.618 C8,25.796 12.104,33.236 17.166,33.236 Z" id="Stroke-55"></path>
                        <path d="M17,-5.68434189e-14 L17,33.236" id="Stroke-57"></path>
                        <path d="M0,17 L34.319,17" id="Stroke-59"></path>
                        <path d="M3,8 L30.963,8" id="Stroke-61"></path>
                        <path d="M2.5,25 L31.5,25" id="Stroke-63"></path>
                    </g>
                </g>
            </g>
        </g>
    </g>
</svg>