<?xml version="1.0" encoding="UTF-8"?>
<svg width="55px" height="55px" viewBox="0 0 55 55" version="1.1" xmlns="http://www.w3.org/2000/svg" xmlns:xlink="http://www.w3.org/1999/xlink">
    <!-- Generator: Sketch 53 (72520) - https://sketchapp.com -->
    <title>Group 16</title>
    <desc>Created with Sketch.</desc>
    <g id="Page-1" stroke="none" stroke-width="1" fill="none" fill-rule="evenodd">
        <g id="1396_open" transform="translate(-171.000000, -1647.000000)">
            <g id="1-copy" transform="translate(168.000000, 1571.000000)">
                <g id="1" transform="translate(3.000000, 76.000000)">
                    <g id="Group-7">
                        <g id="Group-16">
                            <g id="Group-14">
                                <path d="M55,27.5 C55,42.688 42.687,55 27.5,55 C12.312,55 0,42.688 0,27.5 C0,12.312 12.312,0 27.5,0 C42.687,0 55,12.312 55,27.5" id="Fill-37" fill="#FFFFFF"></path>
                                <polygon id="Fill-242" fill="#FF3C22" points="14.5024 14.2236 14.5024 41.4616 41.4774 14.2236 30.6874 14.2236 22.5294 22.5136 22.5294 14.2236"></polygon>
                            </g>
                            <polygon id="Fill-243" fill="#000000" points="33.2534 28.3027 28.5164 33.1067 34.1084 38.6987 31.7404 41.0677 41.1484 41.0677 41.1484 31.5277 38.7804 33.8957"></polygon>
                        </g>
                    </g>
                </g>
            </g>
        </g>
    </g>
</svg>