<?xml version="1.0" encoding="UTF-8"?>
<svg width="56px" height="56px" viewBox="0 0 56 56" version="1.1" xmlns="http://www.w3.org/2000/svg" xmlns:xlink="http://www.w3.org/1999/xlink">
    <!-- Generator: Sketch 53 (72520) - https://sketchapp.com -->
    <title>114-C</title>
    <desc>Created with Sketch.</desc>
    <g id="Page-1" stroke="none" stroke-width="1" fill="none" fill-rule="evenodd">
        <g id="1396_open" transform="translate(-957.000000, -2250.000000)">
            <g id="2" transform="translate(957.000000, 2099.000000)">
                <g id="4" transform="translate(0.000000, 151.000000)">
                    <g id="114-C">
                        <path d="M55.3755,28.3798 C55.3755,43.5678 43.0635,55.8798 27.8755,55.8798 C12.6875,55.8798 0.3755,43.5678 0.3755,28.3798 C0.3755,13.1918 12.6875,0.8798 27.8755,0.8798 C43.0635,0.8798 55.3755,13.1918 55.3755,28.3798" id="Fill-141" fill="#8348FC"></path>
                        <path d="M23.5771,23.9999 L43.6921,23.9999 C45.4011,23.9999 46.7861,25.3849 46.7861,27.0939 L46.7861,39.4729 C46.7861,41.1819 45.4011,42.5669 43.6921,42.5669 L23.5771,42.5669 C21.8681,42.5669 20.4821,41.1819 20.4821,39.4729 L20.4821,27.0939 C20.4821,25.3849 21.8681,23.9999 23.5771,23.9999 Z" id="Stroke-145" stroke="#FFFFFF" stroke-width="2" stroke-linejoin="round"></path>
                        <path d="M18.397,37.1767 C16.688,37.1767 15.302,35.7907 15.302,34.0817 L15.302,21.7027 C15.302,19.9937 16.688,18.6097 18.397,18.6097 L38.512,18.6097 C40.221,18.6097 41.606,19.9937 41.606,21.7027" id="Stroke-146" stroke="#FFFFFF" stroke-width="2" stroke-linejoin="round"></path>
                        <path d="M13.4785,32.3857 C11.7695,32.3857 10.3835,30.9997 10.3835,29.2907 L10.3835,16.9127 C10.3835,15.2037 11.7695,13.8187 13.4785,13.8187 L33.5935,13.8187 C35.3025,13.8187 36.6875,15.2037 36.6875,16.9127" id="Stroke-147" stroke="#FFFFFF" stroke-width="2" stroke-linejoin="round"></path>
                    </g>
                </g>
            </g>
        </g>
    </g>
</svg>