<?xml version="1.0" encoding="UTF-8"?>
<svg width="56px" height="56px" viewBox="0 0 56 56" version="1.1" xmlns="http://www.w3.org/2000/svg" xmlns:xlink="http://www.w3.org/1999/xlink">
    <!-- Generator: Sketch 53 (72520) - https://sketchapp.com -->
    <title>Group 17</title>
    <desc>Created with Sketch.</desc>
    <g id="Page-1" stroke="none" stroke-width="1" fill="none" fill-rule="evenodd">
        <g id="1396_open" transform="translate(-168.000000, -1872.000000)">
            <g id="1-copy" transform="translate(168.000000, 1571.000000)">
                <g id="4" transform="translate(0.000000, 301.500000)">
                    <g id="Group-17" transform="translate(0.117700, 0.031200)">
                        <path d="M55,27.5 C55,42.688 42.687,55 27.5,55 C12.312,55 0,42.688 0,27.5 C0,12.312 12.312,1.13686838e-13 27.5,1.13686838e-13 C42.687,1.13686838e-13 55,12.312 55,27.5" id="Fill-203" fill="#FFFFFF"></path>
                        <polygon id="Path-3" fill="#FF3F00" points="11.8823 37.8550816 11.8823 16.3171342 31.0644108 8.9688 41.8823 12.1661091 41.8823 42.0821988 31.0644108 45.0550205 11.8823 37.8550816 31.0644108 40.5657109 31.0644108 14.6473061 18.4706746 17.7519191 18.4706746 35.4242114"></polygon>
                    </g>
                </g>
            </g>
        </g>
    </g>
</svg>