<?xml version="1.0" encoding="UTF-8"?>
<svg width="56px" height="56px" viewBox="0 0 56 56" version="1.1" xmlns="http://www.w3.org/2000/svg" xmlns:xlink="http://www.w3.org/1999/xlink">
    <!-- Generator: Sketch 53 (72520) - https://sketchapp.com -->
    <title>111-C</title>
    <desc>Created with Sketch.</desc>
    <g id="Page-1" stroke="none" stroke-width="1" fill="none" fill-rule="evenodd">
        <g id="1396_open" transform="translate(-957.000000, -2174.000000)">
            <g id="2" transform="translate(957.000000, 2099.000000)">
                <g transform="translate(0.000000, 75.000000)" id="111-C">
                    <g>
                        <path d="M55.3755,27.9399 C55.3755,43.1279 43.0635,55.4399 27.8755,55.4399 C12.6875,55.4399 0.3755,43.1279 0.3755,27.9399 C0.3755,12.7519 12.6875,0.4399 27.8755,0.4399 C43.0635,0.4399 55.3755,12.7519 55.3755,27.9399" id="Fill-186" fill="#8348FC"></path>
                        <path d="M16.438,15.5053 L39.313,15.5053 C41.257,15.5053 42.833,17.0813 42.833,19.0243 L42.833,33.1013 C42.833,35.0453 41.257,36.6203 39.313,36.6203 L16.438,36.6203 C14.494,36.6203 12.919,35.0453 12.919,33.1013 L12.919,19.0243 C12.919,17.0813 14.494,15.5053 16.438,15.5053 Z" id="Stroke-187" stroke="#FFFFFF" stroke-width="2" stroke-linejoin="round"></path>
                        <path d="M35.897,40.8129 L19.854,40.8129" id="Stroke-188" stroke="#FFFFFF" stroke-width="2" stroke-linejoin="round"></path>
                        <polygon id="Fill-189" fill="#FFFFFF" points="25.889 40.813 29.861 40.813 29.861 36.621 25.889 36.621"></polygon>
                        <polygon id="Fill-190" fill="#FFFFFF" points="20.7144 30.5971 26.9694 26.1411 20.7144 21.6841"></polygon>
                        <path d="M31.6938,22.3359 L31.6938,29.9459" id="Stroke-191" stroke="#FFFFFF" stroke-linecap="square" stroke-linejoin="round"></path>
                        <path d="M35.396,22.3359 L35.396,29.9459" id="Stroke-192" stroke="#FFFFFF" stroke-linecap="square" stroke-linejoin="round"></path>
                    </g>
                </g>
            </g>
        </g>
    </g>
</svg>