<?xml version="1.0" encoding="UTF-8"?>
<svg width="56px" height="56px" viewBox="0 0 56 56" version="1.1" xmlns="http://www.w3.org/2000/svg" xmlns:xlink="http://www.w3.org/1999/xlink">
    <!-- Generator: Sketch 53 (72520) - https://sketchapp.com -->
    <title>019-C</title>
    <desc>Created with Sketch.</desc>
    <g id="Page-1" stroke="none" stroke-width="1" fill="none" fill-rule="evenodd">
        <g id="1396_open" transform="translate(-168.000000, -1796.000000)">
            <g id="1-copy" transform="translate(168.000000, 1571.000000)">
                <g id="3" transform="translate(0.000000, 225.500000)">
                    <g id="019-C">
                        <path d="M55.2529,27.6396 C55.2529,42.8276 42.9399,55.1396 27.7529,55.1396 C12.5649,55.1396 0.2529,42.8276 0.2529,27.6396 C0.2529,12.4516 12.5649,0.1396 27.7529,0.1396 C42.9399,0.1396 55.2529,12.4516 55.2529,27.6396" id="Fill-179" fill="#8348FC"></path>
                        <g id="Group-6" transform="translate(16.000000, 11.000000)" stroke="#FFFFFF" stroke-linejoin="round">
                            <path d="M23.2695,13.6083 C22.3395,22.0483 14.3995,31.9923 11.8955,34.9973 C9.2485,31.9923 1.1655,22.0483 0.2355,13.6083 C0.1645,13.1073 0.1645,12.6783 0.1645,12.1773 C0.1645,5.7393 5.3145,0.5173 11.7525,0.5173 C18.1905,0.5173 23.3415,5.7393 23.3415,12.1063 C23.3415,12.6063 23.3415,13.1073 23.2695,13.6083 Z" id="Stroke-222" stroke-width="2"></path>
                            <path d="M17.6348,12.3056 C17.6348,8.9826 14.9408,6.2876 11.6178,6.2876 C8.2948,6.2876 5.5998,8.9826 5.5998,12.3056 C5.5998,15.6286 8.2948,18.3226 11.6178,18.3226 C14.9408,18.3226 17.6348,15.6286 17.6348,12.3056 Z" id="Stroke-223"></path>
                        </g>
                    </g>
                </g>
            </g>
        </g>
    </g>
</svg>