<?xml version="1.0" encoding="UTF-8"?>
<svg width="56px" height="56px" viewBox="0 0 56 56" version="1.1" xmlns="http://www.w3.org/2000/svg" xmlns:xlink="http://www.w3.org/1999/xlink">
    <!-- Generator: Sketch 53 (72520) - https://sketchapp.com -->
    <title>Group 21</title>
    <desc>Created with Sketch.</desc>
    <g id="Page-1" stroke="none" stroke-width="1" fill="none" fill-rule="evenodd">
        <g id="1396_open" transform="translate(-171.000000, -2285.000000)">
            <g id="018-C" transform="translate(171.000000, 2285.000000)">
                <g id="Group-21" transform="translate(0.252900, 0.103400)">
                    <path d="M55,27.5 C55,42.688 42.687,55 27.5,55 C12.312,55 0,42.688 0,27.5 C0,12.312 12.312,0 27.5,0 C42.687,0 55,12.312 55,27.5" id="Fill-178" fill="#8348FC"></path>
                    <path d="M42.147,37.5694 L12.762,37.5694 C11.387,37.5694 10.272,36.4554 10.272,35.0794 L10.272,30.0924 C10.272,28.7174 11.387,27.6024 12.762,27.6024 L42.147,27.6024 C43.522,27.6024 44.637,28.7174 44.637,30.0924 L44.637,35.0794 C44.637,36.4554 43.522,37.5694 42.147,37.5694 Z" id="Stroke-218" stroke="#FFFFFF" stroke-width="2" stroke-linejoin="round"></path>
                    <path d="M37.041,27.5 L39.968,11.938" id="Stroke-220" stroke="#FFFFFF" stroke-width="2" stroke-linejoin="round"></path>
                    <path d="M17.8682,27.5 L14.9412,11.938" id="Stroke-221" stroke="#FFFFFF" stroke-width="2" stroke-linejoin="round"></path>
                </g>
            </g>
        </g>
    </g>
</svg>