<?xml version="1.0" encoding="UTF-8"?>
<svg width="56px" height="56px" viewBox="0 0 56 56" version="1.1" xmlns="http://www.w3.org/2000/svg" xmlns:xlink="http://www.w3.org/1999/xlink">
    <!-- Generator: Sketch 53 (72520) - https://sketchapp.com -->
    <title>110-C</title>
    <desc>Created with Sketch.</desc>
    <g id="Page-1" stroke="none" stroke-width="1" fill="none" fill-rule="evenodd">
        <g id="1396_open" transform="translate(-171.000000, -2099.000000)">
            <g id="3" transform="translate(171.000000, 2099.000000)">
                <g id="110-C">
                    <path d="M55.3755,27.9399 C55.3755,43.1279 43.0635,55.4399 27.8755,55.4399 C12.6875,55.4399 0.3755,43.1279 0.3755,27.9399 C0.3755,12.7519 12.6875,0.4399 27.8755,0.4399 C43.0635,0.4399 55.3755,12.7519 55.3755,27.9399" id="Fill-186" fill="#8348FC"></path>
                    <path d="M28.978,12 L40.957,12 C42.611,12 43.934,13.324 43.934,14.978 L43.934,41.449 C43.934,43.103 42.611,44.427 40.957,44.427 L28.978,44.427 C27.324,44.427 26,43.103 26,41.449 L26,14.978 C26,13.324 27.324,12 28.978,12 Z" id="Stroke-238" stroke="#FFFFFF" stroke-width="2" stroke-linejoin="round"></path>
                    <path d="M26,18 L44,18" id="Stroke-239" stroke="#FFFFFF" stroke-linejoin="round"></path>
                    <path d="M26,38 L44,38" id="Stroke-240" stroke="#FFFFFF" stroke-linejoin="round"></path>
                    <path d="M35.5,40.5267456 C35.5,41.0673744 35.0132707,41.4993875 34.4726419,41.4993875 C33.9328297,41.4993875 33.5,41.0134749 33.5,40.4728461 C33.5,39.9322172 33.9328297,39.5002042 34.4726419,39.5002042 C35.0679869,39.5002042 35.5,39.9322172 35.5,40.5267456" id="Fill-241" fill="#FFFFFF"></path>
                    <path d="M11.438,17.8521211 L26.0042173,17.8521211 L26.0042173,37.6203 L11.438,37.6203 C9.494,37.6203 7.919,36.0453 7.919,34.1013 L7.919,21.3711211 C7.919,19.4281211 9.494,17.8521211 11.438,17.8521211 Z" id="Stroke-187" stroke="#FFFFFF" stroke-width="2" stroke-linejoin="round"></path>
                    <polygon id="Fill-190" fill="#FFFFFF" points="32 31.913 38.255 27.457 32 23"></polygon>
                </g>
            </g>
        </g>
    </g>
</svg>