<?xml version="1.0" encoding="UTF-8"?>
<svg width="56px" height="55px" viewBox="0 0 56 55" version="1.1" xmlns="http://www.w3.org/2000/svg" xmlns:xlink="http://www.w3.org/1999/xlink">
    <!-- Generator: Sketch 53 (72520) - https://sketchapp.com -->
    <title>1</title>
    <desc>Created with Sketch.</desc>
    <g id="Page-1" stroke="none" stroke-width="1" fill="none" fill-rule="evenodd">
        <g id="1396_open" transform="translate(-957.000000, -2099.000000)">
            <g id="2" transform="translate(957.000000, 2099.000000)">
                <g id="1" transform="translate(0.000000, -0.000000)">
                    <g id="135-C">
                        <path d="M27.8755,55.0029 C12.6875,55.0029 0.3755,42.6909 0.3755,27.5029 C0.3755,12.3149 12.6875,0.0029 27.8755,0.0029 C43.0635,0.0029 55.3755,12.3149 55.3755,27.5029 C55.3755,42.6909 43.0635,55.0029 27.8755,55.0029 Z" id="Fill-159" fill="#8348FC"></path>
                        <g id="Paket-filmy-serialy-Copy" transform="translate(12.000000, 9.000000)">
                            <path d="M31,18 L31,30.9904306 C31,32.0669856 30.1608392,33 29.1118881,33 L2.88811189,33 C1.83916084,33 1,32.138756 1,30.9904306 L1,18 L31,18 Z" id="Shape" stroke="#FFFFFF" stroke-width="2"></path>
                            <g id="Group" fill="#FFFFFF">
                                <path d="M31.373913,5.56521739 L30.7478261,2.36521739 C30.6086957,1.25217391 29.6347826,0.556521739 28.5217391,0.695652174 L25.1130435,1.25217391 L29.6347826,5.91304348 L31.373913,5.56521739 Z" id="Shape"></path>
                                <path d="M0.27826087,10.573913 L0.27826087,7.30434783 C0.27826087,6.4 0.695652174,5.49565217 1.46086957,5.14782609 L6.53913043,10.573913 L2.7826087,15.5826087 L0.27826087,15.5826087 L0.27826087,10.573913 Z" id="Shape"></path>
                                <polygon id="Shape" points="21.2173913 1.87826087 25.8782609 6.74782609 20.1043478 7.93043478 15.2347826 2.92173913"></polygon>
                                <polygon id="Shape" points="11.2695652 3.54782609 5.42608696 4.45217391 10.6434783 9.87826087 16.2782609 8.69565217"></polygon>
                                <polygon id="Shape" points="10.4347826 10.573913 16.2782609 10.573913 12.5913043 15.5826087 6.67826087 15.5826087"></polygon>
                                <polygon id="Shape" points="20.173913 10.573913 26.1565217 10.573913 22.4 15.5826087 16.4869565 15.5826087"></polygon>
                                <polygon id="Shape" points="30.0521739 10.573913 31.0956522 10.573913 31.0956522 15.5826087 26.2956522 15.5826087"></polygon>
                            </g>
                        </g>
                    </g>
                </g>
            </g>
        </g>
    </g>
</svg>