<svg xmlns="http://www.w3.org/2000/svg" viewBox="0 0 402.39 163.36" fill="#fff"><path d="M67,16.92A3.69,3.69,0,0,0,64.1,16L3.25,23.49A3.69,3.69,0,0,0,0,27.16V92a3.7,3.7,0,0,0,3.7,3.7,3.4,3.4,0,0,0,.45,0l23.31-2.86a3.71,3.71,0,0,0,3.25-3.67V48l6.83-.84V87.39a3.7,3.7,0,0,0,4.15,3.67L65,88.2a3.7,3.7,0,0,0,3.25-3.67V19.69A3.67,3.67,0,0,0,67,16.92Z"/><path d="M136.66,8.36a3.7,3.7,0,0,0-2.9-.9l-29.29,3.6C85.75,13.36,75,23.83,75,39.8c0,5.39,1.49,10,4.29,13.37a14.69,14.69,0,0,0,6,4.31l-14.56,24a3.69,3.69,0,0,0,3.16,5.62,3.4,3.4,0,0,0,.45,0l26.12-3.21a3.69,3.69,0,0,0,2.86-2l4.32-8.69v5.65a3.7,3.7,0,0,0,4.15,3.67l22.85-2.8A3.71,3.71,0,0,0,137.91,76V11.13A3.67,3.67,0,0,0,136.66,8.36Z"/><path d="M143.06,33.74a3.69,3.69,0,0,0,2.9.9l8.82-1.08V73a3.69,3.69,0,0,0,3.7,3.69l.45,0,23.3-2.86a3.71,3.71,0,0,0,3.25-3.68V29.79l9.72-1.2a3.7,3.7,0,0,0,3.25-3.67V3.7A3.7,3.7,0,0,0,194.3,0l-49.24,6a3.71,3.71,0,0,0-3.25,3.68V31A3.67,3.67,0,0,0,143.06,33.74Z"/><path d="M136.65,84.57a3.69,3.69,0,0,0-2.9-.9l-23.3,2.87a3.69,3.69,0,0,0-3.25,3.67v18.31l-6.84.84V92a3.71,3.71,0,0,0-1.25-2.77,3.66,3.66,0,0,0-2.9-.91L72.9,91.14a3.71,3.71,0,0,0-3.25,3.68v64.84a3.7,3.7,0,0,0,3.7,3.7l.45,0,23.31-2.86a3.71,3.71,0,0,0,3.25-3.67V137.22l6.84-.84v18.67a3.7,3.7,0,0,0,4.15,3.67l23.3-2.86a3.7,3.7,0,0,0,3.25-3.67V87.35A3.71,3.71,0,0,0,136.65,84.57Z"/><path d="M212.71,75.24a3.67,3.67,0,0,0-2.9-.9L187,77.14A3.7,3.7,0,0,0,184.17,79L171.7,101.56V83.2a3.75,3.75,0,0,0-1.25-2.78,3.7,3.7,0,0,0-2.9-.9l-22.49,2.77A3.69,3.69,0,0,0,141.81,86V150.8a3.7,3.7,0,0,0,3.7,3.7,3.4,3.4,0,0,0,.45,0l23-2.83a3.67,3.67,0,0,0,2.79-1.88l12.29-22.23v18.08a3.7,3.7,0,0,0,4.15,3.67l22.49-2.76a3.7,3.7,0,0,0,3.25-3.67V78A3.71,3.71,0,0,0,212.71,75.24Z"/><path d="M290.34,110.63a3.69,3.69,0,0,0-3.32-1.34l-.92.11V69.15A3.7,3.7,0,0,0,282,65.48l-23.3,2.86A3.7,3.7,0,0,0,255.4,72v41.16l-6.84.84V73.76a3.7,3.7,0,0,0-4.15-3.67L221.1,73a3.7,3.7,0,0,0-3.25,3.67v64.84a3.7,3.7,0,0,0,4.15,3.67L255.47,141v8.84a3.7,3.7,0,0,0,3.7,3.7l.46,0,16.33-2a3.69,3.69,0,0,0,3-2.47l12-34.89A3.72,3.72,0,0,0,290.34,110.63Z"/><path d="M344.26,60.71a3.7,3.7,0,0,0-3.93-2.4L314.4,61.49a3.72,3.72,0,0,0-3,2.48l-23.13,67.68a3.69,3.69,0,0,0,3.51,4.89l.45,0,25-3.08a3.69,3.69,0,0,0,3.15-2.81l1.41-5.91,11.83-1.45,1.26,4.78a3.69,3.69,0,0,0,4,2.73l25-3.07a3.7,3.7,0,0,0,3-4.94Z"/><path d="M398.3,109.89a3.66,3.66,0,0,0-2.9-.9l-22.51,2.76a3.69,3.69,0,0,0-3.24,3.67v20.42a3.69,3.69,0,0,0,3.7,3.7,3.4,3.4,0,0,0,.45,0l22.5-2.76a3.7,3.7,0,0,0,3.25-3.67V112.66A3.71,3.71,0,0,0,398.3,109.89Z"/><path d="M401.26,52.22a3.67,3.67,0,0,0-3-1l-28.18,3.46a3.7,3.7,0,0,0-3.24,4l4.26,45.56a3.72,3.72,0,0,0,3.68,3.36,3.55,3.55,0,0,0,.46,0l19.66-2.41a3.7,3.7,0,0,0,3.23-3.34l4.26-46.61A3.69,3.69,0,0,0,401.26,52.22Z"/></svg>
