<svg xmlns="http://www.w3.org/2000/svg" viewBox="0 0 176.66 47.9" fill="#fff"><polygon points="175.29 19.91 160.77 28.67 160.77 0.19 175.29 0.19 175.29 19.91"/><path d="M139.9,0V23.85h-8.06V0H63.56L49.84,22V0H35.08L24.92,13.32,14.76,0H0V47.27H14.67V22L24.92,35.26h0L35.17,22V47.27H49.84l6.27-10h16l0,10.08H86.63V13.66h8V47.29h14.67V13.65h8V37.28H139.9v10h14.52V0ZM72.12,23.87h-7.6l7.6-12.11Z"/><path d="M167.9,47.9a8.73,8.73,0,0,1-8.56-8.82,8.66,8.66,0,0,1,17.31.24A8.59,8.59,0,0,1,167.9,47.9ZM167.65,35h-4.17v1.15h1.44V43.7h1.3V36.14h1.44Zm4.94,5.33a.9.9,0,0,0-.3-.72l-.7-.45.68-.43a.87.87,0,0,0,.28-.69V35.78q0-.8-.77-.8h-3.46V43.7h3.48a.7.7,0,0,0,.8-.8Zm-2-1.68h-1V36.08h1.63v2.11Zm-1,4V39.69h1l.64.42V42.6Z"/></svg>
