<svg xmlns="http://www.w3.org/2000/svg" viewBox="0 0 567.26 562.15" fill="#fff"><path d="M212.53,284.73l26.34,22.2v43.64H212.53Zm87.59,25.43,6-5V286.56l-28,23.6Zm-22-278.44-4.82-5.06L212.76.06,260.5,50.29ZM538,350.57h29.24V156A400.89,400.89,0,0,0,538,202.58Zm0-348.9V126.09c8.38-11.62,22.23-28.3,29.24-35.58V19.22ZM434.82,135.82c-24,14.56-28.8,18.18-37.53,23.83V350.57H516.84V250.1c-5.77,16.32-11.78,36.09-15.63,49.33-5.87,20-10.79,25.24-25.06,25.24-11.14,0-18.28-3.7-23.44-17.31-2.81-7.37-22.3-58.5-26-68.18-9.29-24.55-14.74-43.23-14.74-54,0-19,13.31-25.93,26-25.93,17.12,0,20.15,16.2,22.5,31.56,1.19,7.94,3.77,29.44,5,41,.57,5.29,1.07,11.21,7.05,11.21,5.45,0,7.35-7.74,11.5-18.51,10.25-26.53,24.47-52.66,32.82-66.74V0H337.76L260.34,81,183.61,0H0V350.57H191.26V239.38l69.09,57.9,66.94-56.14V350.57h29.19c-.27-5.77,0-78.41,0-138.54,0-18-3.79-22.32-9.56-22.32-6.48,0-17.57,8.92-29.62,17.52C297.91,221,287.48,231.93,275,231.93c-7.39,0-11.62-3.26-16.32-9.25-.89-1.11-3.38-6.07-3.38-10,0-4.45,1.8-9.55,8.6-13.66,7.37-4.46,15.54-3.61,33-14.16,20.75-12.53,40.24-23.67,44.23-26.19,7.14-3.73,5.43-9.51,5.43-14.86,0-11.64,10.43-15.68,19.38-15.68a31.79,31.79,0,0,1,15.22,3.78c3.2-1.81,11.53-6.53,27.17-16.1,10.29-6.29,15.82-18.59,28.07-18.59,5.14,0,9.65,1,13.88,4.36,6.07,5,7.17,7.74,7.17,12C457.46,123.15,442.6,131.11,434.82,135.82Z"/><rect fill="#273a64" class="cls-2" y="372.5" width="567.24" height="189.65"/><path d="M196.69,416.74h27.46l-5.31,33.38a32.43,32.43,0,0,1-1.21,4.85,27,27,0,0,1,5-.3h30.65l6.07-37.93h27.31L270.58,517.93H243.26l5.46-35a32.12,32.12,0,0,1,1.22-4.85,27.08,27.08,0,0,1-5,.3H214.29l-6.37,39.59H180.61Z"/><path d="M306.24,416.74h35.5c31.71,0,44.91,18.66,44.91,45.82,0,22.3-11.83,42.17-29.74,50.52-7.28,3.33-15.17,4.85-25.19,4.85H290.16Zm15.93,73.42a23,23,0,0,1-1.06,4.86,18.61,18.61,0,0,1,4.09-.3H329c10.17,0,16.54-2,21.09-6.52,5.91-5.77,9.4-15.93,9.4-27.3,0-14-7.59-21.4-21.54-21.4h-7.58Z"/></svg>
