<svg fill="#fff" xmlns="http://www.w3.org/2000/svg" viewBox="0 0 298.52 368.11"><path d="M280.49,231.85a17.5,17.5,0,1,0-12.38-5.13,17.45,17.45,0,0,0,12.38,5.13m-65.61,0a17.5,17.5,0,1,0-12.38-5.13A17.45,17.45,0,0,0,214.87,231.85Zm-65.61,0a17.5,17.5,0,1,0-12.38-5.13A17.45,17.45,0,0,0,149.26,231.85Zm-65.61,0a17.5,17.5,0,1,0-12.38-5.13A17.45,17.45,0,0,0,83.65,231.85Zm-65.61,0a17.5,17.5,0,1,0-12.38-5.13A17.45,17.45,0,0,0,18,231.85Zm262.46-65.61a17.5,17.5,0,1,0-12.38-5.13A17.45,17.45,0,0,0,280.49,166.24Zm-65.61,0a17.5,17.5,0,1,0-12.38-5.13A17.45,17.45,0,0,0,214.87,166.24Zm-65.61,0a17.5,17.5,0,1,0-12.38-5.13A17.45,17.45,0,0,0,149.26,166.24Zm-65.61,0a17.5,17.5,0,1,0-12.38-5.13A17.45,17.45,0,0,0,83.65,166.24Zm-65.61,0a17.5,17.5,0,1,0-12.38-5.13A17.45,17.45,0,0,0,18,166.24Zm262.46-65.61a17.5,17.5,0,1,0-12.38-5.13A17.45,17.45,0,0,0,280.49,100.62Zm-65.61,0A17.5,17.5,0,1,0,202.5,95.5,17.45,17.45,0,0,0,214.88,100.62Zm-131.23,0A17.5,17.5,0,1,0,71.27,95.5,17.45,17.45,0,0,0,83.65,100.62Zm-65.61,0A17.5,17.5,0,1,0,5.65,95.5,17.45,17.45,0,0,0,18,100.62ZM280.49,35a17.5,17.5,0,1,0-12.38-5.13A17.45,17.45,0,0,0,280.49,35ZM18,35A17.5,17.5,0,1,0,5.66,29.88,17.45,17.45,0,0,0,18,35Z"/><path d="M84,367.9a6.57,6.57,0,0,1-6.57-6.57v-44L57.7,333.5,35.57,351.21A6.57,6.57,0,0,1,27.37,341l7.24-5.8-21.48-17.7v43.87a6.57,6.57,0,1,1-13.13,0V303.55a6.57,6.57,0,0,1,10.74-5.07l34.35,28.29,4.36-3.49,30.44-24.82a6.57,6.57,0,0,1,10.71,5.09v57.79A6.57,6.57,0,0,1,84,367.9Z"/><path d="M290.08,338.11l-8.54-5.67.94-.62s1.91-1.31,8.79-5.88a15.54,15.54,0,0,0,6.29-17.55c-2.12-7-8.56-11.41-16.79-11.41H214a6.57,6.57,0,0,0,0,13.13h66.81c1.34,0,3.67.27,4.22,2.08a2.49,2.49,0,0,1-1,2.82c-6.94,4.61-8.86,5.93-8.86,5.93l-5.47,3.63-9.27-6.15a6.57,6.57,0,1,0-7.26,10.94l30,19.89c1.22.71,2.59,1.88,2.18,3.38a3.09,3.09,0,0,1-3.07,2.15H214a6.57,6.57,0,1,0,0,13.13h68.27A16.24,16.24,0,0,0,298,356.07C299.88,349.08,296.66,342,290.08,338.11Z"/><path d="M139.46,368.11a6.56,6.56,0,0,1-6.57-6.56V349.75a6.57,6.57,0,0,1,2.9-5.46l46.05-30.94a1.9,1.9,0,0,0,.51-2.6,1.91,1.91,0,0,0-2.62-.53l-32.58,21.89a6.57,6.57,0,0,1-7.46-.09l-32.45-23a6.57,6.57,0,1,1,7.59-10.72l28.75,20.36,28.83-19.36a15,15,0,0,1,16.75,24.93l-43.15,29v8.29a6.57,6.57,0,0,1-6.56,6.57Z"/></svg>
