<svg xmlns="http://www.w3.org/2000/svg" viewBox="0 0 90.15 119.67" fill="#fff"><path d="M90.15,45.07A45.08,45.08,0,1,0,45.07,90.15,45.08,45.08,0,0,0,90.15,45.07Zm-88.84,0A43.77,43.77,0,1,1,45.07,88.84,43.77,43.77,0,0,1,1.31,45.07Z"/><path d="M85.47,45.08a40.39,40.39,0,1,0-40.4,40.39A40.39,40.39,0,0,0,85.47,45.08ZM16.74,62.42A33.22,33.22,0,0,1,68.68,21.7,27.83,27.83,0,0,0,64,24.61a30.84,30.84,0,0,0-10.4-1.71,43.63,43.63,0,0,0-5.26.33c-1.16.14-2.14.34-4.18.76-8.8,1.79-21.86,11.44-21.86,21.1,0,5.26,3.82,7.61,7.61,7.61,4.29,0,7.52-2.57,10.22-5a1.55,1.55,0,0,0,.52-1.35,1,1,0,0,0-.69-.78,1.37,1.37,0,0,0-.48-.09,2.31,2.31,0,0,0-1.5.78c-2.85,2.59-5.47,3.8-8.23,3.8-2.19,0-4.79-.87-4.79-5,0-3,1.55-6.34,4.37-9.47a28.13,28.13,0,0,1,15-9,26,26,0,0,1,7.42-.86h1a26.24,26.24,0,0,1,7.82,1.14c-6,4.48-11.24,11.75-14,16.83l-.93,1.74c-4.24,8-10.64,20-19.9,20-.32,0-.61,0-.88,0h0a1.73,1.73,0,0,1-.86-.52,1.07,1.07,0,0,1-.06-.87,3.82,3.82,0,0,0,.46-1.82,3.85,3.85,0,0,0-7.71,0C16.73,62.31,16.74,62.37,16.74,62.42Zm3.53,4.74A11.51,11.51,0,0,0,24.9,68c11,0,20.62-10.08,25.55-18.71C51.78,47,53,44.75,54.16,42.61c3.29-6.09,6.15-11.37,9.65-14.29A7.9,7.9,0,0,1,68,35.12a14.16,14.16,0,0,1-3.92,10,9,9,0,0,1-6.42,2.93,10.29,10.29,0,0,1-3.72-.92,2.15,2.15,0,0,0-.79-.24,1,1,0,0,0-1.07,1c0,1.12,3.1,2.75,5.71,3a12.87,12.87,0,0,0,1.3.06,15.06,15.06,0,0,0,10.56-4.49,13.05,13.05,0,0,0,3.8-9.64A13.37,13.37,0,0,0,66.87,26l3.53-2.41A33.21,33.21,0,0,1,20.27,67.17Z"/><path d="M22.42,104.06a2.76,2.76,0,0,0,1.89-.6A1.89,1.89,0,0,0,25,102a2,2,0,0,0-.69-1.52,2.16,2.16,0,0,0-.79-.43,4,4,0,0,0-1.15-.14H18.69v1H19a.78.78,0,0,1,.33,0,.25.25,0,0,1,.13.15,1.31,1.31,0,0,1,0,.42v3.81a1.26,1.26,0,0,1,0,.4.29.29,0,0,1-.15.14,1.2,1.2,0,0,1-.41,0h-.24v1h3.38v-1h-.35a.78.78,0,0,1-.31,0,.28.28,0,0,1-.14-.14.87.87,0,0,1,0-.31v-1.3Zm-1.18-3H22a1.32,1.32,0,0,1,.81.21.9.9,0,0,1,.37.75,1,1,0,0,1-.16.55.91.91,0,0,1-.4.34,2.12,2.12,0,0,1-.8.11h-.58Z"/><path d="M31.22,101.31a.71.71,0,0,1,.66-.47h.25v-1H29.32v1h.35c.22,0,.33.05.33.15a1.2,1.2,0,0,1-.13.37L29,103.13l-1.11-1.72a.8.8,0,0,1-.15-.38c0-.13.08-.19.26-.19h.41v-1H25v1a1.23,1.23,0,0,1,.5.07,1.22,1.22,0,0,1,.35.4l2.33,3.47-.14.3a1.94,1.94,0,0,1-.29.5.4.4,0,0,1-.29.12.36.36,0,0,1-.26-.15.86.86,0,0,0-.67-.35.66.66,0,0,0-.47.22.77.77,0,0,0-.22.56.86.86,0,0,0,.38.74,1.53,1.53,0,0,0,.92.27A2,2,0,0,0,29,105.7Z"/><path d="M35.18,101.14a1.66,1.66,0,0,1,.9-.27,1.81,1.81,0,0,1,1.22.51,4.54,4.54,0,0,1,.87,1.26l.92-.27-.68-2.49h-.71l-.16.3a3.49,3.49,0,0,0-1.73-.42,3.45,3.45,0,0,0-1.76.46,3.31,3.31,0,0,0-1.25,1.27,3.63,3.63,0,0,0-.46,1.81,3.7,3.7,0,0,0,.47,1.84,3.45,3.45,0,0,0,1.26,1.31,3.4,3.4,0,0,0,1.77.47A3.82,3.82,0,0,0,38,106.3a5.64,5.64,0,0,0,1.36-1.42l-.77-.57a3.93,3.93,0,0,1-1.16,1.11,2.11,2.11,0,0,1-1.12.33,1.75,1.75,0,0,1-1.48-.77,3,3,0,0,1-.56-1.83,2.86,2.86,0,0,1,.25-1.22A1.83,1.83,0,0,1,35.18,101.14Z"/><path d="M43.37,106.92a3.82,3.82,0,0,0,2.14-.62,5.61,5.61,0,0,0,1.36-1.42l-.77-.57a3.78,3.78,0,0,1-1.15,1.11,2.1,2.1,0,0,1-1.12.33,1.74,1.74,0,0,1-1.48-.77,3,3,0,0,1-.56-1.83,2.86,2.86,0,0,1,.25-1.22,1.81,1.81,0,0,1,.67-.79,1.64,1.64,0,0,1,.9-.27,1.78,1.78,0,0,1,1.22.51,4.49,4.49,0,0,1,.87,1.26l.92-.27-.68-2.49h-.71l-.16.3a3.47,3.47,0,0,0-1.73-.42,3.44,3.44,0,0,0-1.76.46,3.3,3.3,0,0,0-1.25,1.27,3.64,3.64,0,0,0-.46,1.81,3.74,3.74,0,0,0,.47,1.84,3.45,3.45,0,0,0,1.26,1.31A3.4,3.4,0,0,0,43.37,106.92Z"/><path d="M54.58,105.76a1.54,1.54,0,0,1-.38-.41l-2-2.7,1.67-1.45a2.86,2.86,0,0,1,.32-.24.71.71,0,0,1,.21-.1,1.29,1.29,0,0,1,.3,0h.11v-1H51.68v1H52a.8.8,0,0,1,.29,0,.12.12,0,0,1,.06.1.16.16,0,0,1,0,.08,1.43,1.43,0,0,1-.17.18l-2.16,2V101.4A.88.88,0,0,1,50,101a.36.36,0,0,1,.17-.16,1.41,1.41,0,0,1,.39,0h.22v-1H47.4v1h.28a.81.81,0,0,1,.36.05.29.29,0,0,1,.15.16,1.22,1.22,0,0,1,0,.41v3.78a1.13,1.13,0,0,1,0,.4.29.29,0,0,1-.14.15,1.11,1.11,0,0,1-.4,0H47.4v1h3.38v-1H50.5a1.09,1.09,0,0,1-.37,0,.29.29,0,0,1-.14-.14.9.9,0,0,1-.05-.36v-.7l1.05-.9,1.22,1.73a.87.87,0,0,1,.16.28s0,.07-.08.09a1.88,1.88,0,0,1-.46,0h-.14v1h3.49v-1H55A.91.91,0,0,1,54.58,105.76Z"/><path d="M58.9,105.85h-.24a1.29,1.29,0,0,1-.44,0,.22.22,0,0,1-.13-.14,1.87,1.87,0,0,1,0-.45l2.52-2.33v2.33a.87.87,0,0,1-.1.52c-.07.08-.24.11-.51.11h-.22v1h3.38v-1h-.19c-.29,0-.47,0-.54-.1a.87.87,0,0,1-.1-.53v-3.75a.89.89,0,0,1,.09-.51c.06-.07.21-.11.46-.11h.28v-1H59.74v1H60a1,1,0,0,1,.46.07c.08,0,.11.21.11.49l-2.52,2.36v-2.3c0-.28,0-.45.1-.52a.66.66,0,0,1,.43-.1h.31v-1H55.52v1h.31a.57.57,0,0,1,.42.11,1,1,0,0,1,.1.55v3.76a.74.74,0,0,1-.1.47c-.06.08-.23.11-.5.11h-.23v1H58.9Z"/><path d="M69.09,97.33a.79.79,0,0,0-.23.17,2.33,2.33,0,0,0-.18.33.87.87,0,0,1-1,.62,1.26,1.26,0,0,1-.68-.13,1.34,1.34,0,0,1-.35-.5,1.54,1.54,0,0,0-.18-.33.86.86,0,0,0-.23-.17.72.72,0,0,0-.33-.09.78.78,0,0,0-.51.2.65.65,0,0,0-.22.51,1.16,1.16,0,0,0,.63.93,4.4,4.4,0,0,0,3.76,0,1.17,1.17,0,0,0,.64-.93.64.64,0,0,0-.23-.52.76.76,0,0,0-.51-.2A.73.73,0,0,0,69.09,97.33Z"/><path d="M66.56,105.8a.22.22,0,0,1-.13-.14,1.76,1.76,0,0,1,0-.45l2.52-2.33v2.33a.86.86,0,0,1-.1.52c-.07.08-.24.11-.51.11h-.22v1h3.38v-1h-.2a.86.86,0,0,1-.54-.1.89.89,0,0,1-.1-.53v-3.75a.87.87,0,0,1,.1-.51c.06-.07.21-.11.46-.11h.28v-1H68.07v1h.26a1,1,0,0,1,.46.07c.07,0,.11.21.11.49l-2.52,2.36v-2.3a.85.85,0,0,1,.1-.52.63.63,0,0,1,.43-.1h.31v-1H63.84v1h.31c.22,0,.36,0,.43.11a1,1,0,0,1,.1.55v3.76a.74.74,0,0,1-.1.47c-.06.08-.23.11-.5.11h-.23v1h3.39v-1H67A1.26,1.26,0,0,1,66.56,105.8Z"/><path d="M27.32,109.71a3.32,3.32,0,0,0-1.22-.66,6.26,6.26,0,0,0-1.78-.21H18.69v1.47h.52a1.3,1.3,0,0,1,.51.07.43.43,0,0,1,.2.23,2.18,2.18,0,0,1,.06.65v5.86a1.69,1.69,0,0,1-.07.61.44.44,0,0,1-.22.22,1.85,1.85,0,0,1-.63.07h-.36v1.47H23.9V118h-.54a1.19,1.19,0,0,1-.48-.07.45.45,0,0,1-.21-.21,1.22,1.22,0,0,1-.05-.47v-2h1.82a4.24,4.24,0,0,0,2.9-.92A2.93,2.93,0,0,0,28.38,112a3.07,3.07,0,0,0-.28-1.29A3,3,0,0,0,27.32,109.71Zm-2,3.19a1.44,1.44,0,0,1-.63.53,3.22,3.22,0,0,1-1.22.17h-.91v-3H23.8a2,2,0,0,1,1.24.32,1.37,1.37,0,0,1,.57,1.16A1.51,1.51,0,0,1,25.37,112.9Z"/><path d="M34.71,108.64a5.71,5.71,0,0,0-4.17,1.55,5.31,5.31,0,0,0-1.59,4,5.24,5.24,0,0,0,1.81,4.19,5.73,5.73,0,0,0,3.87,1.3,6.32,6.32,0,0,0,3-.69,4.93,4.93,0,0,0,2-1.94,5.71,5.71,0,0,0,.72-2.89,5.33,5.33,0,0,0-1.57-4A5.61,5.61,0,0,0,34.71,108.64Zm1.87,8.43a2.49,2.49,0,0,1-3.84,0,4.48,4.48,0,0,1-.84-2.87,4.65,4.65,0,0,1,.9-3,2.34,2.34,0,0,1,1.93-.91,2.31,2.31,0,0,1,1.34.43,2.91,2.91,0,0,1,1,1.29,5.59,5.59,0,0,1,.36,2.14A4.53,4.53,0,0,1,36.58,117.07Z"/><path d="M48.2,115.32l-1.85-6.49H41.52v1.47h.58a1,1,0,0,1,.44.08.47.47,0,0,1,.21.25,1.65,1.65,0,0,1,.05.53v6a1.52,1.52,0,0,1-.07.58.46.46,0,0,1-.22.23,1.45,1.45,0,0,1-.56.08h-.43v1.47h4.37V118h-.51a1.28,1.28,0,0,1-.48-.07.51.51,0,0,1-.23-.19.62.62,0,0,1-.08-.34v-6.48l2.52,8.55h1.47l2.6-8.83v6.56a1.26,1.26,0,0,1-.07.52.44.44,0,0,1-.23.21,1.64,1.64,0,0,1-.58.07h-.4v1.47H55V118h-.6a.9.9,0,0,1-.44-.1.39.39,0,0,1-.19-.22,1.52,1.52,0,0,1,0-.49v-6.05a1,1,0,0,1,.17-.67.77.77,0,0,1,.59-.18H55v-1.47H50.11Z"/><path d="M65.67,117.06l-3.2-8.23H60.08l-3.29,8.39a1.94,1.94,0,0,1-.26.51.73.73,0,0,1-.3.21,1.77,1.77,0,0,1-.58.07v1.47h4.12V118a4.36,4.36,0,0,1-.72,0,.54.54,0,0,1-.29-.14.35.35,0,0,1-.09-.22,1.89,1.89,0,0,1,.12-.45l.4-1.08h3.24l.32,1a2.37,2.37,0,0,1,.14.56.32.32,0,0,1-.17.27,1.15,1.15,0,0,1-.59.11h-.3v1.47h5V118a1.28,1.28,0,0,1-.74-.15A2.15,2.15,0,0,1,65.67,117.06Zm-5.91-2.49,1.09-2.92,1,2.92Z"/><path d="M73.94,110.3h.41a1.77,1.77,0,0,1,.64.07.4.4,0,0,1,.2.25,1.76,1.76,0,0,1,0,.5v2H71.36v-1.85a2.08,2.08,0,0,1,.06-.65.44.44,0,0,1,.21-.23,1.24,1.24,0,0,1,.54-.08h.48v-1.47h-5.2v1.47h.48a1.29,1.29,0,0,1,.53.08.48.48,0,0,1,.21.24,2.47,2.47,0,0,1,.06.71v5.79a1.79,1.79,0,0,1-.06.6.46.46,0,0,1-.24.21,1.73,1.73,0,0,1-.62.08h-.35v1.47h5.2V118h-.36a2.2,2.2,0,0,1-.65-.06.42.42,0,0,1-.23-.25,2.81,2.81,0,0,1,0-.66v-2.26h3.88V117a2.17,2.17,0,0,1-.06.68.44.44,0,0,1-.24.22,1.8,1.8,0,0,1-.65.08h-.35v1.47h5.22V118h-.3a2.09,2.09,0,0,1-.68-.07.41.41,0,0,1-.22-.22,1.93,1.93,0,0,1-.08-.69v-5.78a2.25,2.25,0,0,1,.06-.67.42.42,0,0,1,.2-.22,1.63,1.63,0,0,1,.59-.07h.44v-1.47H73.94Z"/></svg>
