<svg xmlns="http://www.w3.org/2000/svg" viewBox="0 0 369.26 425.92" fill="#fff"><defs>  <style>.a{fill:#273a64;}</style></defs><rect class="a" x="0.22" y="315.89" width="369.04" height="110.03"/><path d="M118.78,416.79v-3.46h1a3.36,3.36,0,0,0,1.88-.41,4.44,4.44,0,0,0,1.17-2.14l6.78-20.39h7.86l6.5,20.51a4.62,4.62,0,0,0,1,2,2.5,2.5,0,0,0,1.66.47H148v3.46H133.42v-3.46h1.11a5.89,5.89,0,0,0,1.91-.2.74.74,0,0,0,.49-.74,3.68,3.68,0,0,0-.13-.56c0-.13-.06-.22-.08-.29l-1-3.25h-7.59l-1,3c-.05.18-.1.37-.13.56a2.6,2.6,0,0,0-.06.5.75.75,0,0,0,.4.74,4.65,4.65,0,0,0,1.73.2h1.29v3.46Zm15.84-11.94L132,396.51l-2.71,8.34Z"/><path d="M36.56,406.57h4.17q-.15,5.46-3.12,8.24T29,417.59q-6.43,0-10.24-3.81T14.9,403.57a15.67,15.67,0,0,1,1-5.71,13,13,0,0,1,3-4.54,12.59,12.59,0,0,1,4.32-2.83,15,15,0,0,1,5.41-.9,12.37,12.37,0,0,1,7.69,2.56l.79-2.1h3.62v10.77H36.87a8.68,8.68,0,0,0-2-5.42,6,6,0,0,0-4.66-1.94,5.65,5.65,0,0,0-5,2.64q-1.78,2.65-1.78,7.43T25.24,411a5.68,5.68,0,0,0,5,2.63,5.64,5.64,0,0,0,4.43-1.88,8.42,8.42,0,0,0,1.88-5.2"/><path d="M65.39,416.8v-3.46h1.46a3.29,3.29,0,0,0,2-.38q.43-.39.43-1.91V396.12q0-1.54-.43-1.91a3.36,3.36,0,0,0-2-.38H65.39v-3.46H79.85v3.46H79.1a3.32,3.32,0,0,0-2,.39,2.74,2.74,0,0,0-.43,1.89v5.16H85.2v-5.16q0-1.5-.44-1.89a3.33,3.33,0,0,0-2-.39H82v-3.46H96.47v3.46H95a3.33,3.33,0,0,0-2,.39,2.7,2.7,0,0,0-.44,1.89V411a2.7,2.7,0,0,0,.44,1.89,3.32,3.32,0,0,0,2,.39h1.46v3.46H82v-3.46h.75a3.32,3.32,0,0,0,2-.39q.44-.39.44-1.89v-6.19H76.66V411a2.74,2.74,0,0,0,.43,1.89,3.31,3.31,0,0,0,2,.39h.75v3.46Z"/><path d="M174.12,396.12a2.7,2.7,0,0,0-.44-1.89,3.33,3.33,0,0,0-2-.39h-1.38v-3.46h12.64l10.14,18.43V396.12a2.7,2.7,0,0,0-.44-1.89,3.33,3.33,0,0,0-2-.39h-1.5v-3.46h12.06v3.46H200a3.33,3.33,0,0,0-2,.39q-.44.39-.44,1.89V416.8h-8.12l-10.83-19.66V411a2.7,2.7,0,0,0,.44,1.89,3.33,3.33,0,0,0,2,.39h1.5v3.46H170.29v-3.46h1.38a3.33,3.33,0,0,0,2-.39,2.7,2.7,0,0,0,.44-1.89Z"/><path d="M228.4,396.12a2.7,2.7,0,0,0-.44-1.89,3.33,3.33,0,0,0-2-.39h-1.38v-3.46h12.64l10.14,18.43V396.12a2.7,2.7,0,0,0-.44-1.89,3.33,3.33,0,0,0-2-.39h-1.5v-3.46h12.06v3.46h-1.23a3.33,3.33,0,0,0-2,.39q-.44.39-.44,1.89V416.8h-8.12l-10.83-19.66V411a2.7,2.7,0,0,0,.44,1.89,3.33,3.33,0,0,0,2,.39h1.5v3.46H224.57v-3.46H226a3.33,3.33,0,0,0,2-.39,2.7,2.7,0,0,0,.44-1.89Z"/><path d="M278.85,416.8v-3.46h1.46a3.29,3.29,0,0,0,2-.38q.43-.39.43-1.91V396.12q0-1.54-.43-1.91a3.36,3.36,0,0,0-2-.38h-1.46v-3.46H305v10.08h-3.46a17.69,17.69,0,0,0-.77-3.49,4.73,4.73,0,0,0-1.17-1.86,4.13,4.13,0,0,0-1.88-1,19.77,19.77,0,0,0-4.14-.29h-3.42v7.52h.65a3.92,3.92,0,0,0,2.93-.83q.74-.83.74-3.35h3.31v12.06l-3.31,0q-.06-2.75-.73-3.58t-2.94-.83h-.65v8.52h3.54q4.35,0,5.88-1.5t2-5.94H305V416.8Z"/><path d="M330.38,390.37h15.37v3.46h-1.65a3.31,3.31,0,0,0-2,.39,2.74,2.74,0,0,0-.43,1.89v17.22h2.08a19.92,19.92,0,0,0,4.15-.29,4.15,4.15,0,0,0,1.88-1,5,5,0,0,0,1.28-2.16,17.52,17.52,0,0,0,.64-3.9h3.46V416.8H330.38v-3.46h1.46a3.29,3.29,0,0,0,2-.38q.43-.39.43-1.91V396.12q0-1.54-.43-1.91a3.36,3.36,0,0,0-2-.38h-1.46Z"/><path d="M136.12,381.38c-12.32,0-23.77-3.63-31.4-10.35a25.06,25.06,0,0,1-8.54-19.09,25.43,25.43,0,0,1,8.54-19c7.09-6.34,19.61-10.31,31.4-10.31,13,0,23.49,3.23,31.47,10.33a25.17,25.17,0,0,1,8.42,19A26.23,26.23,0,0,1,167.59,371c-7.44,6.77-19.12,10.35-31.47,10.35v-7.76A23.94,23.94,0,0,0,153,367.28c4.21-4.11,6.17-9.16,6.17-15.33A21.12,21.12,0,0,0,153,336.58c-4.18-4-10.39-6.32-16.85-6.32s-12.69,2.25-16.87,6.32a22.22,22.22,0,0,0,0,30.7c4.19,4.09,10.38,6.35,16.87,6.35Z"/><path d="M46,322.63a52.58,52.58,0,0,0-20.45,4c-5.87,2.57-10.68,6.73-10.68,13.62A14,14,0,0,0,18.81,350c1.71,1.55,4.46,4.18,11.66,5.73,3.22.69,10.1,1.75,17,2.45s13.49,1.37,16.22,2c2.17.54,5.81,1.28,5.81,5.28S65.62,370.72,65,371s-5.26,2.33-13.53,2.33a58.47,58.47,0,0,1-16.11-2.74A19.49,19.49,0,0,1,26,364.46,10.44,10.44,0,0,1,24,358.65H16.56v20.57h8.32v-2.78a1.18,1.18,0,0,1,1.8-1,66.63,66.63,0,0,0,12.17,3.86,53,53,0,0,0,12.62,1.54,55.17,55.17,0,0,0,16.92-2.34,29.81,29.81,0,0,0,10-4.88,13.45,13.45,0,0,0,5.38-10.82,15,15,0,0,0-4.35-10.64,18.92,18.92,0,0,0-5.39-3.59,39.91,39.91,0,0,0-6.62-2.27c-4.29-1-14-2.31-18.61-2.78-4.86-.5-13.29-1.19-16.66-2.21-1-.31-3.1-1.28-3.1-3.65,0-1.69,1-3.11,2.84-4.27,3-1.84,9-3,15.3-3A45,45,0,0,1,65,333.81a19.45,19.45,0,0,1,4.22,2.47,12.41,12.41,0,0,1,4.16,6.83h6.72V325.2h-7.5v2.08c0,.68-.71,1.55-2,.82A57.9,57.9,0,0,0,46,322.63"/><path d="M210.37,325.89,247,358.28l-.38-21.81c0-2.86-.58-4.05-3.73-4.05H236v-6.53h31.28v6.53h-6.71c-3.22,0-3.42,1-3.46,4.05l.57,41.68H246.94l-42.13-36.9v26.18c0,2.85.17,4.19,3.16,4.19h7.51v6.52H184.77v-6.52h7.18c2.68,0,2.58-2.51,2.58-4.34V336.72c0-2-.29-4.3-4.5-4.3h-5.82v-6.54Z"/><path d="M303,371.61a14.36,14.36,0,0,0,1.85-.12,2.27,2.27,0,0,0,1.44-1.25,6.9,6.9,0,0,0,.14-1.41s0-10,0-10.31,0-.35-.44-.91-19.16-21.38-20-22.3a7.87,7.87,0,0,0-5.76-2.9h-6.5v-6.53h36.68v6.52H306c-1,0-1.7.95-.83,2,0,0,12.34,14.48,12.46,14.64s.22.19.37,0,12.65-14.55,12.75-14.67a1.25,1.25,0,0,0-1.09-2h-4.54v-6.53h30.06v6.53h-6.72c-2.44,0-3.43.44-5.26,2.47l-20.24,22.66a1.38,1.38,0,0,0-.25,1v10.31a6.77,6.77,0,0,0,.15,1.42,2.25,2.25,0,0,0,1.44,1.25,14.07,14.07,0,0,0,1.83.12H333v6.52H296.49V371.6Z"/><polygon class="cls-4" points="147.92 378.36 148.05 378.17 147.92 377.78 147.92 378.36"/><rect x="0.14" width="368.84" height="305.22"/><path class="a" d="M292.07,85c.18-16.92-6.68-30.85-18.67-37.3s-29.18-10.9-45.45-11c-36.77-.31-53.14,10.12-53.29,28.48-.41,46.7,109.55,48,194.37,84.56V85.15Z"/><path class="a" d="M14.84,261.29H169.9v44H302.77a27.62,27.62,0,0,0,2.79-11.92C306.24,216.43,13,266.79,14.69,72.77,14.94,44.87,21.41,20.62,33,0H.14V305.25h14.7Z"/><polygon class="cls-5" fill="#fec214" points="147.91 378.41 148.04 378.22 147.91 377.83 147.91 378.41"/>
</svg>
