<?xml version="1.0" encoding="UTF-8"?>
<svg width="77px" height="56px" viewBox="0 0 77 56" version="1.1" xmlns="http://www.w3.org/2000/svg" xmlns:xlink="http://www.w3.org/1999/xlink">
    <!-- Generator: Sketch 59.1 (86144) - https://sketch.com -->
    <title>AA_BasicLogo</title>
    <desc>Created with Sketch.</desc>
    <g id="Design" stroke="none" stroke-width="1" fill="none" fill-rule="evenodd">
        <g id="RTRU_5560_1460_Warface_close_final_2" transform="translate(-1031.000000, -895.000000)" fill="#FFFFFF" fill-rule="nonzero">
            <g id="header_fix" transform="translate(0.000000, 895.000000)">
                <g id="Group-4">
                    <g id="games" transform="translate(837.500000, 0.000000)">
                        <g id="AA_BasicLogo" transform="translate(193.000000, 0.000000)">
                            <path d="M36.8667781,49.2153701 C36.8667781,49.2153701 37.0050304,46.7922729 34.5661983,46.8067918 C33.5186914,46.8130142 32.8393394,47.2029498 32.402835,47.6447386 L32.402835,43.4964874 L32.1092432,43.2802598 C31.2854253,43.4913021 30.0732584,43.4913021 30.0732584,43.4913021 L30.0732584,43.6287129 L31.0814126,43.9315353 L31.0814126,53.1183559 L29.9753945,53.4605867 L29.9753945,53.5684412 L33.4405038,53.5684412 L33.4405038,53.4605867 L32.4049062,53.1173189 L32.4049062,48.213049 C32.7280127,47.8397064 33.2986269,47.4062141 34.2172019,47.3071746 C35.8472324,47.1303554 35.5484625,49.774347 35.5484625,49.774347 L35.5484625,53.1183559 L34.4388198,53.4605867 L34.4388198,53.5684412 L37.903929,53.5684412 L37.903929,53.4605867 L36.8683315,53.1173189 L36.8667781,49.2153701 Z M44.578355,49.5633047 C46.2249551,49.5581194 47.2481254,49.1572946 47.2481254,47.8988189 C47.2481254,46.7336789 46.1804244,46.3338912 46.1804244,46.3338912 C44.5685168,45.6006878 43.0855412,46.0860332 43.0855412,46.0860332 C40.2578422,47.1360593 40.5638613,49.8547194 40.5638613,49.8547194 C40.7062559,51.9998837 42.0059308,53.5793304 44.1273523,53.5695241 C45.244762,53.5642929 46.335764,53.0416133 46.930197,52.0621075 L46.8023007,51.9267708 C46.3223665,52.6398798 45.5239982,53.0722712 44.6653452,53.0841329 C42.9804281,53.0929479 41.8402352,51.3066073 42.0276783,49.345003 C42.0276783,49.345003 43.8156375,49.5653788 44.578355,49.5633047 Z M43.1450881,46.7300492 C43.7262886,46.3012863 44.492653,46.2181262 45.152076,46.512266 C45.270652,46.5641191 45.9629489,47.0271677 45.7454734,48.0082291 C45.5279979,48.9892905 44.26198,49.0084761 44.26198,49.0084761 C44.26198,49.0084761 42.7396516,49.0603293 42.0577107,48.9389929 C42.0577107,48.9389929 42.1861248,47.4233257 43.1450881,46.7300492 Z M10.6759992,53.3869552 C9.73153427,52.7403466 9.08273242,52.4535987 7.91820302,50.6107381 C6.75367361,48.7678776 5.74344824,45.2931987 5.74344824,45.2931987 C5.74344824,45.2931987 5.19613495,43.3964109 5.17024502,43.3124088 C5.14435508,43.2284067 5.12674992,43.307742 5.12674992,43.307742 C5.10241338,43.4041888 4.99212224,43.9600545 4.99212224,43.9600545 C4.81244607,44.893411 4.16675102,46.9784257 3.96636291,47.5379211 C3.76597479,48.0974165 3.25076502,49.3009278 3.25076502,49.3009278 C2.86293375,49.2832978 2.28921273,49.4331533 1.95626813,49.5601935 C1.54461812,49.7157529 1.24222364,49.997834 1.13245031,50.1492452 C1.02267697,50.3006564 1.10448917,50.2233952 1.10448917,50.2233952 L1.32714264,50.0460574 C2.07950423,49.5425635 3.05555489,49.7053823 3.05555489,49.7053823 C3.05555489,49.7053823 2.83134803,50.1046515 2.5936784,50.4370301 C2.39329028,50.7185927 1.7605402,51.6063184 1.34681899,52.0278844 C0.933097786,52.4494505 0.690250169,52.7242721 0.571156455,52.8902021 C0.452062741,53.0561322 0.451544942,53.5497741 0.813486273,53.5497741 C1.1754276,53.5497741 1.51924598,53.1100594 1.97231989,52.5127113 C2.4253938,51.9153631 3.54953491,49.8262001 3.54953491,49.8262001 C3.54953491,49.8262001 3.7204085,49.8365708 4.24442084,49.989019 C5.04441992,50.2218396 5.43846477,50.5075504 6.14784907,50.9939328 C6.85723337,51.4803153 7.75302522,52.8300525 8.55457769,53.2962122 C9.35613017,53.7623719 10.2664204,53.5072545 10.5310155,53.4678461 C10.7956107,53.4284377 10.6759992,53.3869552 10.6759992,53.3869552 Z M3.75199422,49.3242617 C3.75199422,49.3242617 4.65503525,47.3450274 4.96467891,45.918029 C4.96467891,45.918029 5.71186252,49.1432943 6.23898165,50.1321337 C6.23898165,50.1321337 5.4260376,49.5316743 3.75199422,49.3242617 Z M74.9177376,53.0841329 C73.2323026,53.0929479 72.0921098,51.3066073 72.2800707,49.345003 C72.2800707,49.345003 74.0680298,49.5653788 74.8307474,49.5633047 C76.4768297,49.5581194 77.5,49.1572946 77.5,47.8988189 C77.5,46.7336789 76.432299,46.3338912 76.432299,46.3338912 C74.8209092,45.6006878 73.3379336,46.0860332 73.3379336,46.0860332 C70.5102346,47.1360593 70.8162536,49.8547194 70.8162536,49.8547194 C70.9581305,51.9998837 72.2583232,53.5793304 74.3792269,53.5695241 C75.4966366,53.5642929 76.5876386,53.0416133 77.1820716,52.0621075 L77.0541753,51.9267708 C76.5744678,52.6398661 75.7762526,53.0722794 74.9177376,53.0841329 L74.9177376,53.0841329 Z M73.3969626,46.7300492 C73.9781632,46.3012863 74.7445276,46.2181262 75.4039506,46.512266 C75.5230443,46.5641191 76.2148235,47.0271677 75.997348,48.0082291 C75.7798725,48.9892905 74.5143724,49.0084761 74.5143724,49.0084761 C74.5143724,49.0084761 72.9915262,49.0603293 72.3095853,48.9389929 C72.3095853,48.9389929 72.4379994,47.4233257 73.3969626,46.7300492 Z M59.1668172,53.3869552 C58.2218345,52.7403466 57.5735504,52.4535987 56.409021,50.6107381 C55.2444916,48.7678776 54.2342662,45.2931987 54.2342662,45.2931987 C54.2342662,45.2931987 53.686953,43.3964109 53.661063,43.3124088 C53.6351731,43.2284067 53.6170501,43.307742 53.6170501,43.307742 C53.5927136,43.4041888 53.4829402,43.9600545 53.4829402,43.9600545 C53.3032641,44.893411 52.657569,46.9784257 52.4571809,47.5379211 C52.2567928,48.0974165 51.741583,49.3009278 51.741583,49.3009278 C51.353234,49.2832978 50.7800307,49.4331533 50.4470861,49.5601935 C50.0328471,49.7157529 49.7330416,49.997834 49.6232683,50.1492452 C49.513495,50.3006564 49.5953072,50.2233952 49.5953072,50.2233952 L49.8179606,50.0460574 C50.5703222,49.5425635 51.5463729,49.7053823 51.5463729,49.7053823 C51.5463729,49.7053823 51.322166,50.1046515 51.0844964,50.4370301 C50.8841083,50.7185927 50.2508404,51.6063184 49.8371192,52.0278844 C49.423398,52.4494505 49.1805504,52.7258277 49.0604211,52.8891651 C48.9402918,53.0525025 48.9408096,53.548737 49.3027509,53.548737 C49.6646922,53.548737 50.0079928,53.1090224 50.4615845,52.5116742 C50.9151762,51.9143261 52.0387995,49.8251631 52.0387995,49.8251631 C52.0387995,49.8251631 52.2096731,49.8355337 52.7336854,49.9879819 C53.5336845,50.2208025 53.9277294,50.5065133 54.6371137,50.9928958 C55.346498,51.4792782 56.2422898,52.8290154 57.0438423,53.2951752 C57.8453948,53.7613349 58.7525782,53.5062174 59.0197624,53.466809 C59.2869465,53.4274007 59.1668172,53.3869552 59.1668172,53.3869552 Z M52.2412588,49.3242617 C52.2412588,49.3242617 53.1448177,47.3450274 53.4544613,45.918029 C53.4544613,45.918029 54.2016449,49.1432943 54.7287641,50.1321337 C54.7287641,50.1321337 53.91582,49.5316743 52.2412588,49.3242617 Z M15.1321753,48.2975696 L15.1321753,46.1793688 L14.8380656,45.9636598 C14.0649921,46.1892209 12.6260293,46.1793688 12.6260293,46.1793688 L12.6260293,46.3167797 L13.6341835,46.6206391 L13.6341835,53.1183559 L12.4696541,53.4605867 L12.4696541,53.5684412 L16.2283553,53.5684412 L16.2283553,53.4605867 L15.1321753,53.1173189 L15.1321753,48.9887719 C16.0057018,47.9765987 16.9532735,47.5498473 17.6129491,47.3704355 C18.109932,47.2371839 18.4560415,46.7868813 18.4574789,46.2716674 C16.3805881,46.5604894 15.1321753,48.2975696 15.1321753,48.2975696 L15.1321753,48.2975696 Z M64.7709532,45.9558818 C62.6433181,45.6846899 61.2768471,47.494883 61.0459089,48.3411262 C60.8149706,49.1873695 60.7015727,50.4774756 61.5341931,51.4004614 C62.522671,52.4966368 63.7001453,52.6967899 64.2547078,52.6967899 C64.8092703,52.6967899 65.3747065,52.6895305 66.0260973,52.4717473 L66.0260973,52.5821945 C66.0260973,53.8857824 65.8557416,55.1795182 64.2536722,55.5456014 C63.2874597,55.7664958 62.4532859,55.390042 61.8552284,54.8248428 L61.7397592,54.9679574 C62.4729623,55.7219021 63.1823466,55.9749454 64.1816982,55.9987978 C66.3833785,56.050651 67.3780699,54.41624 67.3780699,52.8046445 L67.3780699,48.4930559 C67.3782516,48.3886969 67.3464415,48.2867969 67.2869373,48.2011227 C67.0622127,47.8770406 66.2720518,46.9447212 65.0914706,46.8690156 C65.0914706,46.8690156 66.0235083,47.5057721 66.0235083,48.2239381 L66.0235083,51.8951404 C65.9256444,52.0014393 65.4896578,52.3986344 64.5560667,52.2456676 C63.4837054,52.0698855 62.159694,51.4559443 62.481247,48.8409905 C62.8028001,46.2260367 65.0386551,46.4324122 65.0386551,46.4324122 C65.0386551,46.4324122 66.245644,46.3940408 67.4422769,47.6768875 L67.5422121,47.5965151 C67.5422121,47.5965151 66.6847374,46.2011472 64.7709532,45.9558818 L64.7709532,45.9558818 Z M25.0293807,46.4744132 C25.905837,46.479549 26.7277728,46.9012019 27.244006,47.6105155 L27.3765625,47.4777715 C26.8069839,46.5926384 25.8045255,46.0927741 24.7445914,46.0144759 C24.5374719,45.999957 24.4711937,45.9978458 24.4711937,45.9978458 C22.7961147,45.9906234 21.6150157,47.0510201 21.0827186,48.4868335 C20.7373468,49.4201901 20.7306155,50.4619196 21.1080908,51.3812758 C21.6522973,52.705605 22.8225224,53.5757006 24.4711937,53.5684863 C24.4711937,53.5684863 24.5395431,53.5684863 24.7445914,53.5523667 C25.8045255,53.4740685 26.8090551,52.9742042 27.3765625,52.0890711 L27.244006,51.9563271 C26.727718,52.6655097 25.9057648,53.0869791 25.0293807,53.0919108 C23.6867286,53.0986518 22.8711955,52.1984813 22.5128788,50.93845 C22.2985,50.1830419 22.2985,49.3827637 22.5128788,48.6273555 C22.8691243,47.3678428 23.6867286,46.4676723 25.0293807,46.4738947 L25.0293807,46.4744132 Z M53.087342,31.8518279 C53.3597041,31.5510797 53.6201569,31.2394423 53.8723249,30.9184714 C54.0732308,30.6638725 54.2694766,30.4046068 54.4584731,30.1406743 C56.7762106,26.9094937 58.0206613,23.030275 58.015765,19.0518805 C58.015765,8.62628826 49.6558896,0.161263263 39.2864517,0.00725943951 C39.1911768,0.00725943951 39.0964196,0 39.000109,0 C38.9788793,0 38.9581673,0 38.9374554,0 C38.8069701,0 38.678556,0.00674090812 38.5480707,0.00985209648 C38.4445109,0.0124447534 38.3378444,0.0207412557 38.2327313,0.0254080383 C28.0875002,0.430381057 19.9844566,8.78858859 19.9844566,19.0503249 C19.9800061,23.2331271 21.3564385,27.3000862 23.8995439,30.6182417 C23.9699645,30.7100218 24.0377961,30.8033574 24.1097702,30.8941004 C24.341744,31.1865521 24.5804492,31.4733 24.8289926,31.7512328 C25.1804054,32.1446253 25.5478699,32.5229804 25.9313862,32.886298 C32.8276196,39.4331159 43.4932443,39.8712059 50.9017134,33.9119531 C51.6830648,33.2827489 52.4138552,32.593055 53.087342,31.8492353 L53.087342,31.8518279 Z M56.1144067,19.0544731 C56.1191291,22.8669299 54.8493377,26.5712562 52.5074074,29.5770307 C51.350645,28.3278886 50.0903228,26.6794773 48.589742,24.3071961 C44.4287112,17.7249586 40.8160293,5.30146497 40.8160293,5.30146497 C40.8160293,5.30146497 40.3370654,3.64216451 39.841532,1.92634413 C48.9024924,2.36605875 56.1144067,9.86505976 56.1144067,19.0518805 L56.1144067,19.0544731 Z M42.5884544,22.5960425 C42.5884544,22.5960425 39.6830856,20.4482855 33.6999209,19.704193 C33.6999209,19.704193 36.9278784,12.6309062 38.0344143,7.53166849 C38.0344143,7.53374262 40.7052203,19.0591399 42.5884544,22.5934499 L42.5884544,22.5960425 Z M25.2297689,29.2332444 C23.0525449,26.2869302 21.8799246,22.7171862 21.8852882,19.0518805 C21.8852882,9.97758107 28.919085,2.55791536 37.8200456,1.95019657 C36.9397878,5.63747331 35.0912462,11.571028 34.4636741,13.3226271 C33.7470406,15.3226027 31.9078194,19.6212279 31.9078194,19.6212279 C30.5211544,19.5584856 28.4711891,20.0930915 27.2854299,20.5431767 C25.8138459,21.1042277 24.7331999,22.1081045 24.3412262,22.6494513 C23.9492525,23.190798 24.241291,22.9149393 24.241291,22.9149393 L25.0371477,22.2797384 C27.7260767,20.48199 31.2134513,21.0622267 31.2134513,21.0622267 C31.2134513,21.0622267 30.4124166,22.4887065 29.5632267,23.6782176 C28.8662695,24.6556492 26.7086021,27.6817984 25.2297689,29.2316888 L25.2297689,29.2332444 Z M39.000109,36.1986952 C34.5638564,36.2036747 30.3003792,34.4767489 27.1150741,31.3846311 C27.1891194,31.2876658 27.2631646,31.1901818 27.3387632,31.0901053 C28.9485995,28.9682748 32.9755205,21.488978 32.9755205,21.488978 C32.9755205,21.488978 33.5860052,21.5263123 35.4609545,22.0707702 C38.3202392,22.9004205 39.7281341,23.9193347 42.262759,25.6610816 C44.3500058,27.0927468 46.8789349,30.6083896 49.3094823,32.7379981 C46.3429477,34.988646 42.7218572,36.2041835 39.000109,36.1986952 L39.000109,36.1986952 Z" id="Shape"></path>
                        </g>
                    </g>
                </g>
            </g>
        </g>
    </g>
</svg>