<?xml version="1.0" encoding="UTF-8"?>
<svg width="112px" height="50px" viewBox="0 0 112 50" version="1.1" xmlns="http://www.w3.org/2000/svg" xmlns:xlink="http://www.w3.org/1999/xlink">
    <!-- Generator: Sketch 59.1 (86144) - https://sketch.com -->
    <title>cf_vertical_white</title>
    <desc>Created with Sketch.</desc>
    <g id="Design" stroke="none" stroke-width="1" fill="none" fill-rule="evenodd">
        <g id="RTRU_5560_1460_Warface_close_final_2" transform="translate(-1198.000000, -901.000000)" fill="#FFFFFF" fill-rule="nonzero">
            <g id="header_fix" transform="translate(0.000000, 895.000000)">
                <g id="Group-4">
                    <g id="games" transform="translate(837.500000, 0.000000)">
                        <g id="cf_vertical_white" transform="translate(361.000000, 6.000000)">
                            <g id="Group" transform="translate(108.000000, 46.000000)">
                                <path d="M1.93125,2.88 L1.8975,2.88 C1.8975,2.88 1.8975,2.88 1.875,2.85777778 L1.5375,2.08444444 L1.28625,2.08444444 L1.28625,2.85333333 C1.28625,2.87555556 1.28625,2.88444444 1.25625,2.88444444 L1.0575,2.88444444 C1.0575,2.88444444 1.035,2.88444444 1.035,2.85333333 L1.035,0.942222222 C1.035,0.942222222 1.035,0.942222222 1.035,0.942222222 L1.035,0.942222222 L1.5,0.942222222 C1.63506734,0.93721905 1.76747575,0.987436168 1.875,1.08444444 C1.97917473,1.19751224 2.03202916,1.36236038 2.0175,1.52888889 C2.02019212,1.64228447 1.99686266,1.75441951 1.95,1.85333333 C1.90175575,1.93998522 1.83428198,2.00918909 1.755,2.05333333 L2.13,2.88444444 C2.13,2.91111111 2.13,2.92 2.10375,2.92 L1.93125,2.88 Z M1.28625,1.18222222 L1.28625,1.80888889 L1.46625,1.80888889 C1.54848072,1.81283639 1.62971804,1.78643668 1.69875,1.73333333 C1.75980194,1.67181169 1.79194273,1.57906402 1.785,1.48444444 C1.79318775,1.40328817 1.77004582,1.32208528 1.72201452,1.26343428 C1.67398323,1.20478327 1.60618946,1.17494458 1.5375,1.18222222 L1.28625,1.18222222 Z" id="Shape"></path>
                                <path d="M1.5,0.222222222 C0.719207435,0.222222222 0.08625,0.972393997 0.08625,1.89777778 C0.08625,2.82316156 0.719207435,3.57333333 1.5,3.57333333 C2.28079257,3.57333333 2.91375,2.82316156 2.91375,1.89777778 C2.91375,0.972393997 2.28079257,0.222222222 1.5,0.222222222 L1.5,0.222222222 Z M1.5,3.28889599 C1.02306661,3.29068621 0.592321301,2.95133055 0.409105571,2.42944551 C0.225889842,1.90756047 0.326393175,1.30623083 0.663637718,0.906533591 C1.00088226,0.506836356 1.50825415,0.387721294 1.94859465,0.604865862 C2.38893515,0.82201043 2.67526649,1.33252338 2.67375599,1.89777778 C2.67375599,2.66606723 2.14824423,3.28889599 1.5,3.28889599 Z" id="Shape"></path>
                            </g>
                            <path d="M76.2121928,11.1473877 L82,0 L81.1993596,0.432506607 C81.1582052,0.455072169 77.2447944,2.55366945 75.9802315,3.15917869 C74.7156686,3.76468794 71.7862225,3.61801179 71.756292,3.61801179 L58.6355164,3.61801179 C58.4072964,3.61801179 54.9615495,3.44500915 53.3976818,7.68733482 C53.3976818,7.68733482 48.5339782,21.8359423 48.2458973,22.6144542 L42.1363374,16.698516 L43.5168809,13.8590161 L49.6152169,13.8590161 C49.6152169,13.8590161 51.7066094,7.95059972 51.7215747,7.90170766 L51.8300727,7.5444196 L30.0257155,7.5444196 C29.9770785,7.5444196 25.9813589,7.71366131 26,12.3922545 L26,19.0867046 L28.9482181,15.6567392 C29.1165965,15.4211723 29.3790318,15.2714044 29.6665497,15.2467981 C30.3586921,15.1828624 31.0882477,15.818459 31.1181781,15.8447855 L52.1443428,37 L57.3821774,21.5801992 L69.1934944,21.5801992 L71.8124117,14.9195975 L59.5895505,14.9195975 L60.8765613,11.1586705 C61.2619163,11.1436268 76.2121928,11.1473877 76.2121928,11.1473877 Z" id="Path"></path>
                            <g id="Group" transform="translate(0.000000, 41.000000)">
                                <path d="M9.35204861,8 L10.8356597,6.85217391 L11.7515625,4.96695652 L8.32638889,4.96695652 C8.32638889,4.96695652 7.71326389,6.20173913 7.56944444,6.49391304 L4.06100694,6.49391304 C4.28809028,6.00695652 6.08961806,2.11826087 6.2334375,1.80173913 L9.76458333,1.80173913 C9.57534722,2.20869565 9.12875,3.19304348 9.12875,3.19304348 L12.535,3.19304348 L13.2919444,1.50608696 L12.8680556,0.285217391 L4.48111111,0.285217391 L3.02777778,1.4226087 L0,8 L9.35204861,8 Z" id="Path"></path>
                                <path d="M23.6696528,8 C23.6696528,8 22.7802431,5.47478261 22.5796528,4.90086957 L23.1322222,4.90086957 L24.6234028,3.75304348 L25.6604167,1.51304348 L25.20625,0.292173913 L15.8958333,0.292173913 L12.3381944,8 L15.7444444,8 L18.6132639,1.80173913 L22.1141319,1.80173913 L21.3761111,3.40173913 L18.7078819,3.40173913 L20.0590278,8 L23.6696528,8 Z" id="Path"></path>
                                <path d="M29.2029167,0.285217391 L27.7420139,1.4226087 L25.2630208,6.77913043 L25.6944792,8 L34.0625,8 L35.5423264,6.8626087 L38.0213194,1.50608696 L37.5709375,0.292173913 L29.2029167,0.285217391 Z M34.5015278,1.79478261 C34.2744444,2.28173913 32.4767014,6.16695652 32.3253125,6.48695652 L28.7828125,6.48695652 C29.0098958,6 30.8076389,2.11130435 30.9552431,1.79478261 L34.5015278,1.79478261 Z" id="Shape"></path>
                                <path d="M37.0902778,8 L46.46125,8 L47.9410764,6.8626087 L49.5457986,3.38434783 L42.6046181,3.38434783 L43.3388542,1.79478261 L50.1929861,1.79478261 L50.9802083,0.285217391 L41.5865278,0.285217391 L40.1180556,1.42608696 L38.5133333,4.90434783 L45.4280208,4.90434783 C45.2501389,5.28347826 44.8073264,6.24 44.6710764,6.4973913 L37.8320833,6.4973913 L37.0902778,8 Z" id="Path"></path>
                                <path d="M49.4398264,8 L58.8145833,8 L60.290625,6.8626087 L61.8991319,3.38434783 L54.9579514,3.38434783 L55.6959722,1.79478261 L62.5501042,1.79478261 L63.3335417,0.285217391 L53.9436458,0.285217391 L52.4827431,1.42608696 L50.8780208,4.90434783 L57.7889236,4.90434783 C57.6148264,5.28347826 57.1720139,6.24 57.0509028,6.4973913 L50.2119097,6.4973913 L49.4398264,8 Z" id="Path"></path>
                                <path d="M94.2395833,8 L93.1533681,4.90086957 L93.7059375,4.90086957 L95.1971181,3.75304348 L96.2341319,1.51304348 L95.7799653,0.292173913 L86.4846875,0.292173913 L82.9156944,8 L86.3219444,8 C86.3219444,8 89.0507292,2.08695652 89.1907639,1.80521739 L92.6954167,1.80521739 C92.5175347,2.18086957 92.0747222,3.15130435 91.9384722,3.40521739 L89.2626736,3.40521739 L90.6289583,8 L94.2395833,8 Z" id="Path"></path>
                                <path d="M61.6417708,8 L65.0480208,8 C65.0480208,8 66.3083333,5.27652174 66.4559375,4.95304348 L72.1632986,4.95304348 L72.8596875,3.44695652 L67.1598958,3.44695652 C67.3339931,3.07130435 67.7768056,2.10782609 67.8941319,1.8573913 L74.8050347,1.8573913 L75.5430556,0.292173913 L65.2183333,0.292173913 L61.6417708,8 Z" id="Path"></path>
                                <path d="M76.7617361,1.79478261 L78.7222222,1.79478261 C78.4951389,2.28173913 76.6973958,6.17043478 76.5497917,6.48695652 L74.6574306,6.48695652 L73.9572569,8 L81.205,8 L81.9013889,6.49391304 L79.9825347,6.49391304 C80.2096181,6.00695652 82.0111458,2.11826087 82.1549653,1.80173913 L83.9451389,1.80173913 L84.6453125,0.292173913 L77.4543403,0.292173913 L76.7617361,1.79478261 Z" id="Path"></path>
                                <path d="M108.277118,1.79478261 L108.973507,0.285217391 L98.6487847,0.285217391 L95.0797917,8 L105.404514,8 L106.104687,6.49391304 L99.19,6.49391304 C99.3678819,6.11478261 99.8106944,5.15478261 99.9280208,4.90086957 L105.684583,4.90086957 L106.380972,3.39130435 L100.62441,3.39130435 C100.802292,3.01565217 101.245104,2.05565217 101.362431,1.80173913 L108.277118,1.79478261 Z" id="Path"></path>
                            </g>
                        </g>
                    </g>
                </g>
            </g>
        </g>
    </g>
</svg>