<svg width="165" height="47" xmlns="http://www.w3.org/2000/svg">
  <g fill-rule="nonzero" fill="none">
    <path d="M164.339726 42.28868c0 2.60292-2.115637 4.71132-4.732379 4.71132H4.73854948C2.12302729 47 0 44.89159 0 42.28868V4.71747C0 2.11579 2.12302729 0 4.73854948 0H159.606127c2.617992 0 4.732369 2.11579 4.732369 4.71747l.00123 37.57121z" fill="#000"/>
    <g fill="#FFF">
      <path d="M36.0161898 23.08443c-.0357213-3.93782 3.250791-5.85358 3.4010761-5.94277-1.8612936-2.6916-4.7462321-3.05935-5.7600267-3.08868-2.4230028-.25291-4.7733331 1.43804-6.0076252 1.43804-1.258923 0-3.1596379-1.41361-5.20816792-1.37207-2.63611003.04032-5.1022343 1.55411-6.45478049 3.90483-2.79132537 4.79307-.70953425 11.83666 1.96476712 15.71095 1.3377657 1.89743 2.90095913 4.01601 4.94701896 3.94148 2.00171833-.08186 2.74944393-1.26577 5.16505643-1.26577 2.3934418 0 3.0955858 1.26577 5.182297 1.21812 2.1483033-.03421 3.5008495-1.90599 4.7918137-3.82053 1.5459428-2.17478 2.166784-4.31657 2.1914249-4.42653-.0505118-.01709-4.1722025-1.57732-4.2128539-6.29707zM32.0743351 11.50434c1.0766167-1.33541 1.8132519-3.15221 1.6087649-4.99588-1.5582632.06842-3.5070098 1.06906-4.6292081 2.37515-.9928539 1.15092-1.8797642 3.03736-1.6506464 4.81139 1.7504298.12951 3.5476713-.87602 4.6710896-2.19066z"/>
    </g>
    <g fill="#FFF">
      <path d="M64.9850898 37.40376h-2.7974755L60.655222 32.6278h-5.3264219l-1.45971989 4.77596h-2.72357305l5.27715025-16.25953h3.25942137l5.30301102 16.25953zm-4.79180357-6.77969l-1.38580734-4.24571c-.14658499-.43373-.42128438-1.45515-.82655825-3.06302h-.04927167c-.16136548.69153-.42128438 1.71295-.7785166 3.06302l-1.36116647 4.24571h4.40132033zM78.5561434 31.39746c0 1.99395-.5432385 3.57006-1.6297056 4.72709-.9731432 1.02997-2.1815746 1.54434-3.6240438 1.54434-1.5570232 0-2.6755314-.55469-3.3567347-1.66407h-.0492717v6.17612h-2.6262597V29.53912c0-1.25355-.0332612-2.54009-.0973133-3.85962h2.3096789l.146585 1.85834h.0492716c.8758199-1.40017 2.2049754-2.09903 3.9886562-2.09903 1.3944277 0 2.5585074.54614 3.4897692 1.63964.933732 1.09471 1.3993679 2.53398 1.3993679 4.31901zm-2.6755314.0953c0-1.14115-.2586888-2.08192-.7785166-2.82232-.5678693-.77217-1.3303754-1.15825-2.286268-1.15825-.6479422 0-1.2367623.21503-1.7627402.63899-.527228.42763-.8721398.98598-1.0335053 1.67751-.0813028.32255-.1219542.58646-.1219542.79416v1.95486c0 .85281.263609 1.57244.7908371 2.16012.5272179.58768 1.2121113.88091 2.0546801.88091.9891537 0 1.75905-.37875 2.3096789-1.13382.5518588-.75629.8277882-1.75327.8277882-2.99216zM92.1518278 31.39746c0 1.99395-.5432386 3.57006-1.6309356 4.72709-.9719233 1.02997-2.1803345 1.54434-3.6228139 1.54434-1.5570332 0-2.6755314-.55469-3.3555046-1.66407h-.0492717v6.17612h-2.6262597V29.53912c0-1.25355-.0332612-2.54009-.0973133-3.85962h2.3096789l.146585 1.85834h.0492716c.8745999-1.40017 2.2037453-2.09903 3.9886563-2.09903 1.3931975 0 2.5572773.54614 3.4910093 1.63964.9300418 1.09471 1.3968977 2.53398 1.3968977 4.31901zm-2.6755314.0953c0-1.14115-.2599088-2.08192-.7797466-2.82232-.5678694-.77217-1.3279154-1.15825-2.2850481-1.15825-.6491722 0-1.2367522.21503-1.7639803.63899-.527228.42763-.8709098.98598-1.0322753 1.67751-.0800627.32255-.1219542.58646-.1219542.79416v1.95486c0 .85281.263609 1.57244.7883669 2.16012.5272281.58646 1.2121215.88091 2.0571503.88091.9891537 0 1.7590501-.37875 2.3096789-1.13382.5518891-.75629.8278084-1.75327.8278084-2.99216zM107.3525871 32.84405c0 1.38306-.4841066 2.50833-1.4560198 3.37702-1.0679965.94933-2.5548072 1.42338-4.4653825 1.42338-1.7639803 0-3.1781186-.33721-4.2485752-1.01286l.6085309-2.17111c1.1529893.69153 2.4180725 1.03852 3.7964896 1.03852.9891538 0 1.7590501-.22236 2.312139-.66465.5506288-.44229.8253282-1.03608.8253282-1.77648 0-.65977-.2266578-1.21568-.6812033-1.66652-.4520754-.45084-1.2071912-.86991-2.2616272-1.25722-2.870158-1.06173-4.304007-2.61707-4.304007-4.66234 0-1.33663.5025771-2.43258 1.5089815-3.28538 1.0027143-.85403 2.34048-1.28043 4.0132971-1.28043 1.4917409 0 2.7309633.2578 3.720117.77217l-.6565624 2.12346c-.9238715-.49849-1.9684673-.74773-3.1374672-.74773-.9238715 0-1.6457161.22603-2.1630838.67565-.437305.40197-.6565624.8919-.6565624 1.47225 0 .64266.2500585 1.17414.7526457 1.59199.437305.38608 1.2318321.80394 2.3848114 1.25477 1.4104381.56324 2.4464136 1.22179 3.1128364 1.97685.6639526.75262.995314 1.69462.995314 2.81866zM116.0357437 27.63436h-2.8947889v5.6923c0 1.44782.5099775 2.17112 1.5324024 2.17112.469316 0 .8585894-.04032 1.1665399-.12096l.0726724 1.97807c-.5173677.19182-1.1985709.28834-2.0423697.28834-1.0372055 0-1.8477432-.314-2.4328531-.94078-.5826498-.628-.8758198-1.68118-.8758198-3.16076v-5.90978h-1.7245589v-1.95486h1.7245589v-2.14668l2.5794481-.77217v2.91885h2.8947888c-.0000101 0-.0000101 1.95731-.0000201 1.95731zM129.0968198 31.44511c0 1.80213-.5198277 3.28172-1.5570332 4.43875-1.0876971 1.19124-2.5314064 1.78503-4.3310978 1.78503-1.7344193 0-3.1152965-.57058-4.1451016-1.71172-1.0298052-1.14115-1.5447027-2.58163-1.5447027-4.31779 0-1.81679.5296881-3.30493 1.5927544-4.46196 1.0606062-1.15825 2.4919952-1.73738 4.2916966-1.73738 1.7344093 0 3.130077.57057 4.183293 1.71294 1.0076041 1.10815 1.5101913 2.53886 1.5101913 4.29213zm-2.7248131.0843c0-1.08128-.232818-2.00862-.7046041-2.78201-.5506187-.93589-1.3377657-1.40261-2.3577205-1.40261-1.0556761 0-1.8575935.46794-2.4082324 1.40261-.4717961.77461-.704604 1.71661-.704604 2.83088 0 1.08128.232828 2.00862.704604 2.78078.5678795.93589 1.3611766 1.40261 2.3848215 1.40261 1.0027143 0 1.7898411-.4765 2.3577206-1.42705.4841166-.78804.7280149-1.72515.7280149-2.80521zM137.6333914 27.97035c-.2599189-.04765-.5370783-.07209-.8277882-.07209-.9238716 0-1.638326.34576-2.1409131 1.03852-.4372949.61089-.6565624 1.38306-.6565624 2.31528v6.15169h-2.6250197l.0246409-8.03202c0-1.3513-.0332611-2.58164-.0985534-3.69102h2.2875082l.0960933 2.2432h.0726725c.2771493-.77095.7144543-1.39161 1.3131147-1.85711.58512-.41907 1.2170415-.628 1.8982549-.628.2426683 0 .4619257.01711.6565523.04765v2.4839zM149.3788626 30.98694c0 .46672-.0308011.86014-.0960934 1.18147h-7.8787691c.0308011 1.15825.4114341 2.04405 1.1431391 2.65494.6639627.54614 1.522542.81982 2.576988.81982 1.1665399 0 2.2308362-.18449 3.1879588-.55469l.4114341 1.80824c-1.1184982.48383-2.4390233.72452-3.9628055.72452-1.8329525 0-3.2717317-.53514-4.3187774-1.60421-1.0445857-1.06906-1.5681236-2.50466-1.5681236-4.30557 0-1.76793.4865666-3.24018 1.4609499-4.41431 1.0199548-1.25356 2.3983619-1.88033 4.1328013-1.88033 1.7036182 0 2.9933322.62678 3.8691621 1.88033.6935338.99575 1.0421357 2.22731 1.0421357 3.68979zm-2.5042955-.67565c.0172506-.77217-.1539853-1.43926-.5099673-2.00251-.4545556-.72452-1.1529995-1.08617-2.0928816-1.08617-.8585793 0-1.5570231.3531-2.0904013 1.06173-.4373151.56324-.6972138 1.23889-.7772866 2.02572h5.4705469v.00123h-.0000101z"/>
    </g>
    <g fill="#FFF">
      <path d="M52.39457964 7.79866c.27961951-.16616.59497031-.30545.94973239-.42029.35353205-.11485.76989633-.17227 1.24907265-.17227.77235639 0 1.38087716.18205 1.82680242.54492.44592526.36287.66888285.85281.66888285 1.46981 0 .48994-.14904505.90046-.44715529 1.23278-.29811025.33232-.67996318.55347-1.14190904.66343v.03543c.25498871.04032.49642696.10874.72308471.2077.22788778.09897.4274446.23092.59744044.39708.17122586.16616.30672044.3592.40650389.58157.09854334.22114.14904504.4655.14904504.73552 0 .44229-.08993315.81371-.26976921 1.11427-.17984613.30056-.41389413.54492-.70460405.73552-.28947989.18938-.61468099.32622-.97314323.40808-.35846225.08186-.7169245.12462-1.07538674.12462-.38309305 0-.76126598-.04032-1.13574883-.11851-.37447276-.07819-.72061457-.20893-1.03966553-.39097l.32274104-.98354c.20694707.10263.47424614.2016.80068734.29689.32643113.0953.65656241.14173.99162389.14173.5493988 0 .97437326-.12218 1.27248351-.36654.29810016-.24558.44838532-.57302.44838532-.98354 0-.27735-.06036209-.50338-.17984614-.68176-.12071408-.17838-.27592943-.31767-.46686597-.42152-.19092647-.10263-.40404384-.17349-.63932187-.21259-.23527802-.0391-.468096-.05987-.69845391-.05987h-.53830839v-.97376h.53830839c.24636843 0 .47548624-.03054.6873635-.0953.21064723-.06231.39418345-.1515.54938871-.26635.15521535-.11485.27715946-.25169.36462247-.4093.08623299-.15761.13057447-.33599.13057447-.53392 0-.35554-.12811442-.63411-.38310313-.8357-.25498871-.20159-.59744044-.303-1.02734509-.303-.29441009 0-.5900502.04765-.8844502.14173-.2944.0953-.55801906.19793-.78959693.30789l-.28206948-.91024zM62.6569402 15.32486l-.0948533-.66343h-.0357212c-.3892633.52903-.9546625.79416-1.69622792.79416-.26360899 0-.50135715-.04398-.71692449-.13073-.21556734-.08675-.40280373-.20526-.56171924-.35554-.16013545-.15028-.28208964-.32744-.37078268-.53392-.08746301-.20526-.13057447-.43129-.13057447-.67565 0-.71841.2944-1.25844.8844502-1.61765.59005019-.35921 1.42522871-.53881 2.5092357-.53881V11.497c0-.75873-.4015737-1.13748-1.20473116-1.13748-.57279956 0-1.07784679.14295-1.51392175.4264l-.26237896-.84059c.53337819-.3311 1.19734093-.49727 1.99186807-.49727 1.5188519 0 2.2788778.79416 2.2788778 2.38248v2.12102c0 .59257.028331 1.05074.0837628 1.37451H62.65692v-.00121h.0000202zm-.1786161-2.86753c-.7206146 0-1.25769295.09041-1.60999498.27246-.35230202.18205-.52845808.47894-.52845808.88946 0 .30056.08253282.52537.24882849.67565.16629568.15028.37694291.22481.63070159.22481.16629567 0 .32397108-.02932.47548628-.08919.1502851-.05865.2820896-.1405.3966435-.24314.1157939-.10263.2081771-.22725.2808596-.37387.0714424-.14662.1059336-.30178.1059336-.46795v-.88823zM69.9592096 9.56536v1.0544h-2.4143825v4.7051H66.255103v-5.7595h3.7041066zM77.3427918 12.37425c0 .45817-.0640522.87724-.1909365 1.256-.1281145.37998-.3042604.70375-.5321482.97132-.2266578.26879-.497657.47894-.8117778.628-.3153407.15028-.6627226.22603-1.0458156.22603-.7649662 0-1.314365-.27246-1.6494164-.81738h-.0246408v3.03369h-1.2909541v-6.21034c0-.30789-.0036901-.61822-.0123104-.931-.0073902-.31156-.0197107-.63411-.0344912-.96643h1.1345188l.0726725.91267h.0246409c.4299046-.68664 1.0827769-1.03119 1.9598369-1.03119.3412116 0 .6590225.07086.9497324.21259.2907099.14295.5432385.3421.7588059.59868.2155673.25657.3843331.56446.5075073.92489.1231842.36043.1847763.75751.1847763 1.19247zm-1.3131248.04765c0-.28468-.0344912-.54736-.1022435-.78805-.0677523-.24069-.1675358-.44595-.2981103-.61578-.1305644-.16983-.2907099-.30422-.4779463-.40319-.1872364-.09896-.3966435-.14784-.6282314-.14784-.1823062 0-.3621523.04032-.5383084.11851-.176146.07819-.3288912.18571-.4594757.32011-.1318045.1344-.2365081.29689-.3165809.48627-.0800626.18938-.1207241.39097-.1207241.60478v.96032c0 .21259.0332611.41052.1022435.59257.0677422.18205.1625955.33966.2857797.47405.1231842.1344.2710093.23947.4422251.314.1712259.07575.3597024.1124.5666394.1124.4865766 0 .8647495-.18327 1.1357589-.55103.2710093-.36774.408974-.86134.408974-1.47712zM84.2755186 9.56536l-1.4708103 3.99402c-.3498319.94811-.6910536 1.72394-1.0211849 2.32872-.3313512.60478-.646702 1.04463-.9497424 1.32197-.4459152.39464-.9201714.63655-1.4227586.72207l-.3104206-1.07762c.3338314-.08675.6528622-.25657.9558926-.50949.3018104-.25291.5444686-.56813.7292449-.9481.0640522-.12584.0948533-.21259.0948533-.26024 0-.04765-.0246308-.13806-.0714424-.27246l-2.1039619-5.29767h1.4215185l1.1000276 3.21208c.0566619.15028.1120938.32011.1675257.50949.056672.18938.115794.39952.1798562.628h.0246308c.0394113-.12707.0837628-.2859.1305845-.48016.0480417-.19304.1120939-.41663.1909265-.66954l.9805335-3.19986h1.3747169l.0000101-.00121zM86.510065 11.95884h.5962104c.437305 0 .7772765-.07819 1.0150146-.23703.2377482-.15883.3584723-.35187.3584723-.58157 0-.23703-.1010135-.4264-.3055005-.56813-.2020168-.14173-.4841065-.21381-.8425586-.21381-.2315981 0-.464406.03788-.6972239.1124-.2352881.07575-.4520754.16861-.6516323.27857l-.3338415-.82837c.3338315-.18082.6664228-.30545.9990141-.37265.3301212-.0672.6614926-.10141.996544-.10141.2648391 0 .5296882.02566.7957673.07697.264839.05131.5025872.13806.7095241.26024.2069471.12218.378173.28223.5075174.48016.1318146.19793.1971069.44229.1971069.73552 0 .18205-.0357212.3421-.1083937.48016-.0702124.13806-.1663057.26024-.2857898.36654-.118254.10629-.2525286.19426-.3991036.26024-.146595.0672-.2981001.11729-.4471552.14906v.03543c.1897065.02444.3757128.07209.555559.14295.178606.07086.3387515.16372.4841065.27857.1416548.11485.2574588.25291.3461418.41419.086233.1625.1293444.34577.1293444.55103 0 .33966-.0813028.62433-.2500585.85281-.1663057.2297-.380633.41052-.6405418.54492-.2574588.1344-.5432386.23092-.8536592.29079-.3104105.05865-.6134509.08919-.9066209.08919-.3584723 0-.7144644-.03788-1.0630764-.1124-.351072-.07575-.6664127-.19182-.9460322-.34943l.3362915-.84181c.2069471.11118.4422251.20404.7095242.27857.267299.07453.5395485.1124.8179379.1124.437305 0 .7748165-.0843 1.0100945-.25413.232818-.16983.351072-.3812.351072-.63411 0-.16616-.0381813-.30545-.118254-.42029-.0800627-.11485-.1921666-.2077-.3338315-.27857-.1441148-.07086-.3104105-.12096-.5025771-.14784-.1897065-.0281-.3991136-.04154-.6208412-.04154h-.6085308v-.80762h-.0000202zM93.4033604 9.56536v2.03794c0 .46672-.0073802.8858-.0246308 1.256-.0172507.37142-.0357212.76239-.0603722 1.17291l.0246409.02321c.1515152-.30056.3005703-.59379.4471452-.88335.149045-.28834.2981001-.58279.4496153-.88335l1.433849-2.7258h1.6715972v5.7595h-1.2195016v-2.03794c0-.4264.0123103-.85281.030791-1.27921.0197107-.42763.0406514-.85769.0652923-1.29265h-.0603621c-.1342747.35554-.2697793.66343-.4065039.92489-.1342746.26024-.2697793.52903-.4040539.80638-.2475884.47405-.4927369.94811-.7366251 1.42216-.2426683.47405-.5001272.96032-.7698964 1.45759h-1.6715971V9.56536h1.2306122zM104.1572278 9.56536v1.0544h-1.7676805v4.7051h-1.2687833v-4.7051h-1.75658v-1.0544zM110.7401227 12.17265c0 .10996-.0049302.21503-.0123205.314-.0073801.09896-.0197107.18816-.0357212.26635h-3.8716322c.0172506.54492.1897065.96643.5198277 1.2621.3301313.29567.7674363.44473 1.3082047.44473.5654093 0 1.0877072-.09041 1.5656535-.27246l.2020169.88946c-.5506188.23703-1.198571.35554-1.9487465.35554-.4520754 0-.8585894-.06964-1.2170516-.2077-.3584623-.13806-.6614927-.33355-.909081-.58646-.2451284-.25291-.4360649-.55714-.5678694-.91267-.1293545-.35554-.1946266-.75384-.1946266-1.19613 0-.44229.0652822-.85158.1946266-1.22667.1318045-.37509.3178108-.70131.5555489-.97743.2402082-.27735.5296881-.4936.8659796-.65243.3387617-.15761.7169245-.23703 1.1308187-.23703.3658424 0 .6972138.06476.999004.19549.2981002.12951.5530889.31522.7625061.55714.2118672.24069.3732428.53026.4841065.86502.1133138.33477.1687558.70863.1687558 1.11915zm-1.2318322-.3311c0-.45084-.1083936-.81615-.3276712-1.09594-.2192675-.27979-.5358483-.42151-.9497425-.42151-.3757027 0-.6922836.14173-.9546625.4264-.262379.28467-.4138942.64755-.4545456 1.09105h2.6866218zM115.9396703 9.61301c.2315879-.0391.5247579-.07086.8832201-.0953.3584623-.02444.7243148-.03543 1.1000176-.03543.2377481 0 .5075173.01466.8056175.04154.2981002.02688.58512.09041.8536592.18938.2722292.09896.497657.2468.6811932.44473.1835463.19793.2771594.4655.2771594.80516 0 .17472-.0332611.3311-.0960832.46795-.0652923.13806-.1490552.25902-.2574589.36165-.1083936.10263-.2315879.18816-.3707827.25413-.1391947.0672-.2833197.11729-.4360649.14784l.0123205.03543c.4212844.07086.7649661.22114 1.0273451.45084.2623789.2297.3941935.54492.3941935.94811 0 .40319-.1133339.7233-.3338314.96032-.2241977.23703-.4976671.41541-.8253283.53392-.3276712.11851-.6713429.19426-1.0347353.22603-.3609223.03054-.6861234.04765-.9719132.04765-.320281 0-.6331617-.00733-.9386521-.02444-.3079605-.01588-.5629492-.03177-.7698963-.04765V9.61301h.0000202zm1.2416723 2.2994h.6565624c.1995669 0 .3892634-.01344.5678795-.04154.1798461-.02688.3362915-.07086.471786-.12951.1367347-.05987.2402083-.13806.317821-.23703.0751325-.09896.1133238-.2187.1133238-.36165 0-.26024-.1083936-.45206-.3301313-.57424-.2192675-.12218-.5629492-.18327-1.0322652-.18327-.1342746 0-.2525286.00366-.353532.01222-.0985535.00733-.2352881.01955-.4114341.03543l-.0000101 1.47959zm0 2.54743c.1589054.01588.2931801.02688.3991136.03543.1083937.00855.232818.01222.3781629.01222.176146 0 .3535321-.011.5370784-.03543.1823061-.02321.351072-.06842.502577-.13562.1515152-.06598.2722394-.15639.3633925-.27124.0911531-.11363.1391947-.26513.1391947-.45328 0-.32988-.1490551-.55713-.4422352-.68298-.29563-.12584-.6922836-.18816-1.1961109-.18816h-.6811932v1.71905h.0000202v.00001z"/>
    </g>
  </g>
</svg>
