<svg viewBox="0 0 43 48" class="rt-icon" xmlns="http://www.w3.org/2000/svg">
  <g stroke="#FF4F12" fill="none" fill-rule="evenodd" stroke-linejoin="round">
    <path d="M38.800434 20H41v24.7173343C41 46.0082211 40.0009181 47 38.7005258 47H5.20115182C4.00066772 47 3 46.0082211 3 44.8180864V20h2.29947417M18.8518533 20H1v-9h41v9H24.1481467" stroke-width="1.5"/>
    <path d="M19 47h5V11h-5z"/>
    <path d="M30.7068741 5C25.853437 5 21 10.9988625 21 10.9988625h9.2219921C35.0754292 11.0955194 35.2693819 5 30.7068741 5zM11.2931259 5C16.1450237 5 21 10.9988625 21 10.9988625h-9.2219921C6.92457083 11.0955194 6.73061806 5 11.2931259 5zM26 1s-5 1.79987314-5 10M19.906728 0C18.1620272 4.06719527 18.9753602 8.64399946 22 12"/>
  </g>
</svg>
