<svg viewBox="0 0 37 14" class="rt-icon" xmlns="http://www.w3.org/2000/svg">
  <g stroke="#FFF" stroke-width="1.5" fill="none" fill-rule="evenodd" stroke-linejoin="round">
    <path d="M29.1353 13.0614c-4.235-.489-9.203-4.398-10.751-5.702 1.548-1.303 6.435-5.376 10.751-5.783.245 0 .489-.081.733-.081 3.177-.081 5.865 2.443 5.947 5.701.081 3.177-2.445 5.865-5.702 5.947-.326-.082-.652-.082-.978-.082z"/>
    <path d="M7.7144 13.0614c4.235-.489 9.204-4.398 10.751-5.702-1.547-1.303-6.435-5.376-10.751-5.783-.245 0-.489-.081-.733-.081-3.177 0-5.784 2.607-5.784 5.783 0 3.177 2.607 5.783 5.784 5.783h.733z"/>
  </g>
</svg>
