<svg viewBox="0 0 24 40" class="rt-icon" xmlns="http://www.w3.org/2000/svg" xmlns:xlink="http://www.w3.org/1999/xlink">
  <defs>
    <linearGradient x1="52.458618%" y1="71.0031767%" x2="29.7848651%" y2="22.6635568%" id="b">
      <stop stop-color="#F05223" offset="0%"/>
      <stop stop-color="#BA341C" offset="100%"/>
    </linearGradient>
    <linearGradient x1="75.221027%" y1="86.4122836%" x2="-25.8533839%" y2="35.1093425%" id="c">
      <stop stop-color="#F05223" offset="0%"/>
      <stop stop-color="#BA341C" offset="100%"/>
    </linearGradient>
    <path d="M18 40c-6.6665205-6.6668136-9.99985381-10.0001469-10-10l-6.58578644 6.5857864c-.78104858.7810486-.78104858 2.0473786 0 2.8284272C1.78928632 39.7892863 2.29799415 40 2.82842712 40H18z" id="a"/>
  </defs>
  <g fill="none" fill-rule="evenodd">
    <use fill="url(#b)" xlink:href="#a"/>
    <use fill-opacity=".3" fill="url(#c)" xlink:href="#a"/>
    <path d="M24 14L9.98517937 0 2.04658326 7.95037908C.73607345 9.26283403 0 11.0417379 0 12.8964545v24.1162523C0 38.6625433 1.33745673 40 2.98729323 40c-1.14259241 0-2.06884656-.9262542-2.06884656-2.0688466 0-.5494993.21860702-1.0764242.60759885-1.4645413C12.6528504 25.3648611 20.1441634 17.8759853 24 14z" fill="#7800FF"/>
  </g>
</svg>
