<svg viewBox="0 0 34 41" class="svg-icon" xmlns="http://www.w3.org/2000/svg">
  <g fill="none" fill-rule="evenodd">
    <path d="M15.9263 29.7133c.817.669 1.858 1.041 2.899.967 1.115-.223 2.156-.744 3.048-1.487l2.676-2.082c.521-.371 1.19-.297 1.636.149l5.427 5.947c.371.446.296 1.115-.15 1.487-1.635 1.412-3.493 3.27-5.649 4.163-1.784.743-4.015.372-5.873-.149-1.264-.371-2.528-.892-3.717-1.561-1.635-.892-3.196-2.007-4.609-3.271-2.676-2.453-5.054-5.204-6.988-8.251-.966-1.636-1.784-3.346-2.453-5.055-.445-1.264-.743-2.602-.892-3.94-.222-1.933-.222-4.163.892-5.798 1.264-1.933 3.42-3.42 5.13-4.832.445-.372 1.115-.372 1.486.074v.074l4.907 6.393c.372.521.297 1.19-.149 1.636l-2.527 2.304c-.893.744-1.562 1.636-1.933 2.751-.298 1.041-.149 2.155.445 3.047 1.934 2.602 4.015 5.13 6.394 7.434zM23.8403.996h7.406c1.023 0 1.841.818 1.841 1.841v16.368c0 1.023-.818 1.841-1.841 1.841h-7.406c-1.023 0-1.842-.818-1.842-1.841V2.837c0-1.023.819-1.841 1.842-1.841z" stroke="#FFF" stroke-width="1.5" stroke-linejoin="round"/>
    <path d="M28.7671 18.0585c0 .662-.595 1.191-1.257 1.191-.662 0-1.191-.595-1.191-1.257 0-.662.529-1.191 1.191-1.191.728 0 1.257.529 1.257 1.257" fill="#FFF"/>
  </g>
</svg>
