<?xml version="1.0" encoding="UTF-8"?>
<svg width="19px" height="22px" viewBox="0 0 19 22" version="1.1" xmlns="http://www.w3.org/2000/svg" xmlns:xlink="http://www.w3.org/1999/xlink">
    <!-- Generator: Sketch 52 (66869) - http://www.bohemiancoding.com/sketch -->
    <title>other_gift_1_1 copy</title>
    <desc>Created with Sketch.</desc>
    <g id="Page-1" stroke="none" stroke-width="1" fill="none" fill-rule="evenodd" stroke-linejoin="round">
        <g id="DSGN-981(1460)" transform="translate(-189.000000, -1490.000000)" stroke="#FF4F12">
            <g id="1" transform="translate(87.000000, 1179.000000)">
                <g id="eset">
                    <g id="other_gift_1_1-copy" transform="translate(103.000000, 312.000000)">
                        <g id="Stroke-413">
                            <path d="M15.6733507,8.5106383 L16.5853659,8.5106383 L16.5853659,19.0286529 C16.5853659,19.5779664 16.1711124,20 15.6319253,20 L1.741941,20 C1.2441793,20 0.829268293,19.5779664 0.829268293,19.0715261 L0.829268293,8.5106383 L1.7827088,8.5106383" stroke-width="1.5"></path>
                            <polyline id="Stroke-415" stroke-width="1.5" points="7.40198794 8.5106383 0 8.5106383 0 4.68085106 17 4.68085106 17 8.5106383 9.59801206 8.5106383"></polyline>
                            <polygon id="Stroke-417" stroke-width="1" points="7.46341463 20 9.53658537 20 9.53658537 4.68085106 7.46341463 4.68085106"></polygon>
                            <path d="M12.3174844,2.12765957 C10.3050836,2.12765957 8.29268293,4.68036703 8.29268293,4.68036703 L12.1164358,4.68036703 C14.1288365,4.72149761 14.2092559,2.12765957 12.3174844,2.12765957 Z" id="Stroke-419" stroke-width="1"></path>
                            <path d="M4.26788149,2.12765957 C6.27964396,2.12765957 8.29268293,4.68036703 8.29268293,4.68036703 L4.46893009,4.68036703 C2.45652937,4.72149761 2.37610993,2.12765957 4.26788149,2.12765957 Z" id="Stroke-420" stroke-width="1"></path>
                            <path d="M10.3658537,0.425531915 C10.3658537,0.425531915 8.29268293,1.19143538 8.29268293,4.68085106" id="Stroke-421" stroke-width="1"></path>
                            <path d="M7.83937501,0 C7.1159625,1.73072139 7.45319814,3.67829764 8.70731707,5.10638298" id="Stroke-422" stroke-width="1"></path>
                        </g>
                    </g>
                </g>
            </g>
        </g>
    </g>
</svg>