<svg width="55" height="55" xmlns="http://www.w3.org/2000/svg">
  <defs>
    <linearGradient x1="50%" y1="0%" x2="50%" y2="100%" id="a">
      <stop stop-color="#5C79BB" offset="0%"/>
      <stop stop-color="#6E84B4" offset="100%"/>
    </linearGradient>
  </defs>
  <g fill="none" fill-rule="evenodd">
    <path d="M55 27.5C55 42.688 42.687 55 27.5 55 12.312 55 0 42.688 0 27.5S12.312 0 27.5 0C42.687 0 55 12.312 55 27.5" fill="#EFEFEF"/>
    <path d="M37.6479821 15.7309926l-7.6457399 17.8214773h-4.5179373l-7.9237668-17.9646217C14.0852018 18.4507362 12 22.8166402 12 27.4688331 12 36.0574968 18.9506726 43 27.5 43S43 36.0574968 43 27.4688331c0-4.5090485-1.9461883-8.8033804-5.3520179-11.7378405zm-10.0089686 9.3759579l-4.3789238-12.5251346c2.780269-.7872941 5.7690583-.7872941 8.6188341.0715722l-4.2399103 12.4535624z" fill="url(#a)" fill-rule="nonzero"/>
  </g>
</svg>
