<svg xmlns="http://www.w3.org/2000/svg" viewBox="0 0 374.76 374.75" fill="#fff"><path class="cls-1"        d="M168.92.91A187.72,187.72,0,1,1,86.51,29.54,187.07,187.07,0,0,1,168.92.91Zm2.06,4c-46.88,4-91.64,27.15-122.23,62.83A182.95,182.95,0,1,0,171,4.9Zm-4.85,80.69q0,23.7,0,47.4h52.63q-14.7,27.15-29.44,54.29c7.8,0,15.77-.3,23.35,1.9,12.15,3.17,23.47,11.7,27.62,23.87,4,11.16.6,25-9.22,32-10.46,7.67-24.63,7.57-36.59,3.92-11.56-3.52-20.57-12.69-26.09-23.2-8,14.9-16.15,29.76-24.21,44.65,15.9,14.6,36.18,24.73,57.74,27.14,21.83,2.54,44.72-3.06,62.42-16.22a74.85,74.85,0,0,0,27.15-38.9c4.76-16.52,4.53-34.92-2.81-50.66-6.29-13.71-17.59-24.54-30.43-32.16q20.07-37,40.17-74-66.15,0-132.3,0ZM42.74,147.52q0,8.82,0,17.63c6.17,0,12.35,0,18.53,0q0,25.2,0,50.4H81.08q0-25.2,0-50.4H98.55q0,25.22,0,50.41c9.75,0,19.5,0,29.25,0,7.43.24,15.47-.55,21.49-5.36,9.91-7.58,9.75-24.88-.72-31.92,6.14-6,6.6-16.34,1.95-23.31-4.23-5.88-12-7.33-18.82-7.44q-44.49-.07-89,0Zm75.64,16.78q0,4.13,0,8.25c4.36-.15,8.76.33,13.09-.28,3.6-.55,4-7,.24-7.57-4.39-.8-8.89-.26-13.32-.4Zm0,23.73q0,5.37,0,10.75c4.84-.13,9.72.31,14.54-.26,5.36-.45,5.07-9.56,0-10.2C128.08,187.66,123.2,188.16,118.37,188Z"/></svg>
