<svg xmlns="http://www.w3.org/2000/svg" viewBox="0 0 488.46 252.26" fill="#fff"><path d="M362.48,252.26c-69.39,0-125.91-56.47-126-125.89A126.17,126.17,0,0,1,362.25,0h.35A126.1,126.1,0,0,1,488.46,126,126.15,126.15,0,0,1,362.69,252.26ZM362.59,3h-.34A123.17,123.17,0,0,0,239.48,126.36c.09,67.76,55.27,122.89,123,122.89h.2A123.15,123.15,0,0,0,485.46,126,123.1,123.1,0,0,0,362.59,3Z"/><polygon points="0 79.76 43.39 79.76 43.39 213.96 80.87 213.96 80.87 79.76 124.03 79.76 124.03 45.59 0 45.59 0 79.76"/><path d="M268.62,141.23a47.72,47.72,0,0,0-7.51-10,36.85,36.85,0,0,0-6.87-5.51,34.9,34.9,0,0,0,12.41-13.55,43.22,43.22,0,0,0,5.13-19.67,53.08,53.08,0,0,0-3-17.69,42.68,42.68,0,0,0-9.19-15.13A43.2,43.2,0,0,0,244,49.34c-6.2-2.48-13.65-3.74-22.15-3.74h-76V214h79.08a52.42,52.42,0,0,0,21.41-4.12,45.44,45.44,0,0,0,15.55-11.15,48.18,48.18,0,0,0,9.5-16.22,58.75,58.75,0,0,0,3.22-19.53,41.75,41.75,0,0,0-1.51-10.71A48,48,0,0,0,268.62,141.23Zm-85.28,2.07h32.12c6.33,0,11.11,1.66,14.61,5.06s5.17,7.79,5.17,13.42-1.58,10-4.83,13.2-8.16,4.81-14.72,4.81H183.34Zm45.22-36.9c-3.31,2.76-8.12,4.16-14.28,4.16H183.34V79.76H213.8c6.92,0,12,1.38,15.05,4.11s4.5,6.58,4.5,11.88A13,13,0,0,1,228.56,106.4Z"/><path d="M424.89,177.77a55.79,55.79,0,0,0,2.87-18.24V45.59H390.28V154.27a29.94,29.94,0,0,1-2.36,12.6,23.73,23.73,0,0,1-6.19,8.28,25,25,0,0,1-8.81,4.75,34.68,34.68,0,0,1-20.5,0,25,25,0,0,1-8.81-4.75,23.67,23.67,0,0,1-6.19-8.28,29.9,29.9,0,0,1-2.36-12.6V45.59H297.57V160.25c0,9.23,1.85,17.4,5.5,24.29a52.71,52.71,0,0,0,14.53,17.29,62.83,62.83,0,0,0,20.82,10.38,86,86,0,0,0,24.13,3.42,83.37,83.37,0,0,0,24.15-3.55,67.23,67.23,0,0,0,13.52-5.73l20.27,23.37a100.44,100.44,0,0,0,15.69-10.67,114.6,114.6,0,0,0,13.47-12.83Z"/></svg>
