<svg xmlns="http://www.w3.org/2000/svg" width="81" height="76"><g fill="none"><path d="M23.493 35.36c1.98-1.947 2.707-3.257 2.707-5.02 0-2.157-1.52-3.527-3.803-3.527-2.157 0-3.83 1.37-3.83 3.65 0 .517.09.974.24 1.37l-3.04.547c-.274-.7-.364-1.46-.364-2.223 0-3.194 2.737-6.204 7.024-6.204 4.41 0 6.936 2.557 6.936 5.964 0 2.646-.883 4.653-3.71 7.423l-5.41 5.353h9.184v2.98h-14.11V43.33l8.176-7.97zm7.487 3.437L41.413 24.38H44.7v14.417h2.28l.003 2.98h-2.28v3.893h-3.286v-3.893H30.983l-.003-2.98zm3.437 0h6.996v-9.704l-6.996 9.704zm25.96 6.873h-3.224l8.177-18.31H54.593v-2.98h14.054v2.797z" fill="#313A49"/><g fill="#7B939B"><path d="M59.547 66.103h-15.9l7.95-13.193 7.95 13.193zm-10-3.333h4.1l-2.05-3.4-2.05 3.4z"/><path d="M49.933 64.436h3.333V75.62h-3.333z"/></g><g fill="#313A49"><path d="M31.983 75.617l-7.95-13.194h15.9l-7.95 13.194zm-2.053-9.86l2.05 3.4 2.05-3.4h-4.1z"/><path d="M30.317 52.286h3.333V64.09h-3.333z"/></g><path fill="#273A64" d="M51.983 34.1a1.47 1.47 0 1 0 0-2.94 1.47 1.47 0 0 0 0 2.94m0 7.793a1.47 1.47 0 1 0 0-2.94 1.47 1.47 0 0 0 0 2.94"/><path fill="#7B939B" d="M60.427 12.25C56.453 4.203 49.007.18 40.073.18c-10.756 0-21.216 4.987-23.79 15.44 0 0-15.97 3.553-15.97 20.587 0 9.196 6.667 19.413 16.667 19.413h6.667v-3.333H16.98c-7.857 0-13.333-8.474-13.333-16.08 0-14.07 12.826-17.21 13.36-17.334l2.02-.45.493-2.006C21.863 6.893 32.057 3.513 40.073 3.513c7.947 0 14.114 3.627 17.364 10.214l.833 1.686 1.873.16c.687.06 16.84 1.654 16.84 20.047 0 5.01-1.3 16.667-13.333 16.667h-3.333v3.333h3.333c11.667 0 16.667-9.14 16.667-20 0-21.667-19.89-23.37-19.89-23.37z"/></g></svg>