<svg xmlns="http://www.w3.org/2000/svg" width="89" height="77"><g fill="none"><path fill="#7B939B" d="M66.215 56.582a1.604 1.604 0 1 0-.001-3.208 1.604 1.604 0 0 0 0 3.208"/><path fill="#313A49" d="M28.065 51.138a1.604 1.604 0 1 0 0-3.208 1.604 1.604 0 0 0 0 3.208"/><path d="M66.215 36.295a1.604 1.604 0 1 0-.001-3.208 1.604 1.604 0 0 0 0 3.208m2.571-5.248l2.12-2.81a17.088 17.088 0 0 0-4.694-.67c-1.633 0-3.2.24-4.695.67l2.12 2.81c.837-.16 1.691-.272 2.575-.272.887 0 1.738.112 2.574.272zm3.785-5.014l1.972-2.611c-2.477-1.364-5.302-2.167-8.327-2.167-3.026 0-5.855.803-8.328 2.167l1.971 2.61c1.917-.981 4.062-1.57 6.36-1.57 2.291 0 4.437.589 6.353 1.57zm3.917-5.186l1.928-2.552c-3.571-2.175-7.713-3.502-12.2-3.502-4.488 0-8.63 1.327-12.2 3.502l1.927 2.552C58.967 19.07 62.458 18 66.215 18c3.756 0 7.243 1.07 10.272 2.847z" fill="#7B939B"/><path fill="#7B939B" d="M84.825.455H47.604a3.208 3.208 0 0 0-3.208 3.207v31.327h3.637V4.091h36.363v43.614H60.76v3.637h23.636v7.273H60.76v3.636h24.065a3.208 3.208 0 0 0 3.208-3.207V3.665a3.209 3.209 0 0 0-3.208-3.21z"/><g fill="#313A49"><path d="M55.298 73.6V43.895a3.21 3.21 0 0 0-3.207-3.211H3.967a3.21 3.21 0 0 0-3.207 3.21V73.6a3.208 3.208 0 0 0 3.207 3.207h48.12a3.209 3.209 0 0 0 3.211-3.207zm-50.934-.43V44.325l47.298.003v28.848H4.364v-.004zm16.32-35.472l-2.571-2.57c5.298-5.303 14.538-5.299 19.836 0l-2.57 2.57c-3.92-3.923-10.764-3.927-14.695 0z"/><path d="M2.007 54.836h52.044v3.636H2.007z"/></g></g></svg>