<svg xmlns="http://www.w3.org/2000/svg" width="80" height="75"><g fill="none" fill-rule="evenodd"><g fill="#FFF" fill-rule="nonzero"><path d="M27.707 41.836h-3.81V30.331h-4.019v-3.81h4.02v-9.523c0-1.051.852-1.905 1.904-1.905h6.4c5.535 0 8.838 2.85 8.838 7.62 0 4.769-3.333 7.618-8.914 7.618h-4.42v11.505zm0-15.314h4.419c4.525 0 5.104-2.034 5.104-3.81 0-1.04 0-3.81-5.028-3.81h-4.495v7.62z"/><path d="M19.878 33.768H33.42v3.81H19.878z"/><path d="M33.897 54.008c0-.572.046-1.132.084-1.692a24.108 24.108 0 0 1-5.036.534c-13.345 0-24.202-10.858-24.202-24.2 0-13.34 10.857-24.198 24.202-24.198 13.34 0 24.202 10.857 24.202 24.198 0 .469-.046.926-.073 1.387a24.938 24.938 0 0 1 3.836-.537c.008-.286.042-.564.042-.85 0-15.47-12.54-28.007-28.011-28.007-15.47 0-28 12.537-28 28.004 0 15.47 12.54 28.007 28.011 28.007 1.73 0 3.418-.179 5.06-.48a23.926 23.926 0 0 1-.115-2.167z"/><path d="M58.484 36.85c9.459 0 17.158 7.695 17.158 17.158 0 9.462-7.7 17.158-17.158 17.158-9.46 0-17.158-7.696-17.158-17.158 0-9.463 7.699-17.158 17.158-17.158zm0-3.81c-11.581 0-20.968 9.387-20.968 20.968 0 11.58 9.387 20.967 20.968 20.967 11.58 0 20.967-9.386 20.967-20.967S70.065 33.04 58.484 33.04z"/><path d="M56.579 44.621h3.81v18.77h-3.81z"/><path d="M49.101 52.099h18.77v3.81h-18.77z"/></g><path d="M0-2h80v80H0z"/></g></svg>