<svg xmlns="http://www.w3.org/2000/svg" width="78" height="62"><g fill="none" fill-rule="evenodd" transform="translate(-1 -10)"><circle cx="40.117" cy="55.174" r="1.411" fill="#FFF" fill-rule="nonzero"/><path fill="#FFF" fill-rule="nonzero" d="M75.714 10.483H59.218v3.2h16.099v35.091h-70.4v-35.09h15.897v-3.2H4.504a2.784 2.784 0 0 0-2.784 2.783v45.549a2.79 2.79 0 0 0 2.79 2.79h71.217a2.794 2.794 0 0 0 2.793-2.793V13.286a2.805 2.805 0 0 0-2.806-2.803zm-.394 47.891H4.92v-6.393h70.4v6.393z"/><path fill="#FFF" fill-rule="nonzero" d="M48.018 23.245h3.2v16.038h-3.2z"/><path fill="#FFF" fill-rule="nonzero" d="M49.618 10.586l-7.632 12.662H57.25l-7.632-12.662zm-1.972 9.459l1.968-3.264 1.968 3.264h-3.936zm-18.771-9.562h3.2v16.355h-3.2zm3.2 16.355h-9.232l7.632 12.666 7.632-12.666h-6.032zm-3.568 3.2h3.936l-1.968 3.264-1.968-3.264zM27.32 67.974v3.2h25.6v-3.2h-6.4v-6.368h-3.238v6.368h-6.34v-6.368H33.72v6.368z"/><path d="M0 0h80v80H0z"/></g></svg>