<svg xmlns="http://www.w3.org/2000/svg" width="77" height="66"><g fill="none" fill-rule="evenodd"><g fill="#FFF" fill-rule="nonzero"><path d="M69.786 61.773c-9.392-2.957-20.15-4.55-31.252-4.55-11.219 0-22.076 1.625-31.539 4.643v3.324c9.367-3.116 20.269-4.764 31.536-4.764 11.152 0 21.955 1.616 31.251 4.672v-3.325h.004zM20.8.291a1.6 1.6 0 1 0 .027 3.201 1.6 1.6 0 0 0-.027-3.2"/><path d="M73.61 13.085H54.384v3.2H73.6l.006 38.403-70.406.006-.006-38.41H16v-3.2H3.194A3.19 3.19 0 0 0 0 16.276v38.42a3.194 3.194 0 0 0 3.194 3.193H73.61a3.194 3.194 0 0 0 3.193-3.194v-38.42a3.196 3.196 0 0 0-3.193-3.19z"/><path d="M51.213 21.091V19.13c0-6.807-5.536-12.343-12.343-12.343H19.213v3.2H38.87c5.04 0 9.143 4.103 9.143 9.143v15.865c-2.279-2.624-5.562-4.304-9.143-4.304H20.8v3.2h18.067c4.957 0 9.143 4.397 9.143 9.6v.007a3.194 3.194 0 0 0 3.193 3.193l.003.003H65.6v-25.6H51.213v-.003zm11.187 22.4H51.213v-19.2H62.4v19.2z"/><path d="M19.213 6.787h3.2v46.304h-3.2z"/></g><path d="M-1-8h80v80H-1z"/></g></svg>