<svg xmlns="http://www.w3.org/2000/svg" width="77" height="78"><g fill="none" fill-rule="evenodd"><path fill="#FFF" fill-rule="nonzero" d="M38.163 9.813c-6.054 0-10.979 4.925-10.979 10.979v4.688h2.742v-4.691c0-4.541 3.693-8.234 8.234-8.234 4.54 0 8.234 3.693 8.234 8.234v4.691h2.742v-4.691c.003-6.051-4.918-10.976-10.973-10.976z"/><path fill="#FFF" fill-rule="nonzero" d="M47.763 27.944l.007 17.168-19.207.006-.006-17.174h19.206m.01-3.2H28.56a3.194 3.194 0 0 0-3.194 3.19v17.184a3.194 3.194 0 0 0 3.194 3.194h19.213a3.194 3.194 0 0 0 3.193-3.194V27.934a3.194 3.194 0 0 0-3.193-3.19"/><path fill="#FFF" fill-rule="nonzero" d="M38.163 33.886a1.6 1.6 0 0 0-1.6 1.6v3.204a1.6 1.6 0 0 0 3.2 0v-3.204c0-.883-.713-1.6-1.6-1.6z"/><path fill="#FFF" fill-rule="nonzero" d="M38.166 77.09l-.65-.288C2.126 61.074.315 15.234.299 14.77L.25 13.122H1.9c6.295 0 11.412-5.12 11.412-11.412V.11h49.706v1.6c0 6.292 5.12 11.412 11.41 11.412h1.652l-.051 1.648c-.016.464-1.824 46.304-37.216 62.028l-.647.292zM3.6 16.222c.653 7.908 5.206 43.821 34.566 57.357C67.562 60.027 72.09 24.126 72.733 16.222 66 15.438 60.646 10.06 59.907 3.31H16.426c-.74 6.75-6.093 12.128-12.826 12.912z"/><path d="M-2-1h80v80H-2z"/></g></svg>