<svg xmlns="http://www.w3.org/2000/svg" width="54" height="77"><g fill="none" fill-rule="evenodd"><g fill="#FFF" fill-rule="nonzero"><path d="M26.743 32.25a6.052 6.052 0 0 1-6.046-6.047 6.052 6.052 0 0 1 6.046-6.046 6.052 6.052 0 0 1 6.047 6.046 6.052 6.052 0 0 1-6.047 6.047zm0-8.76a2.716 2.716 0 0 0-2.713 2.713 2.716 2.716 0 0 0 2.713 2.714 2.716 2.716 0 0 0 2.714-2.714 2.711 2.711 0 0 0-2.714-2.713zm-1.537 25.853h3.333v26.753h-3.333zm28.377 4.57c0-6.686-5.133-12.2-11.666-12.803v3.353c4.69.587 8.333 4.6 8.333 9.45v16.59l-8.333-2.413v3.473l11.666 3.38v-21.03z"/><path d="M27.88 1.353l-.873-.55-.884.54c-.583.357-14.296 8.917-14.296 21.164v49.056l3.333-.973V22.507c0-8.747 8.95-15.714 11.83-17.73 2.84 2.02 11.593 8.963 11.593 17.73v48.086l3.334.967V22.507c0-12.237-13.46-20.797-14.037-21.154z"/><path d="M3.583 70.497V53.91c0-4.82 3.597-8.813 8.247-9.44v-3.353C5.34 41.757.25 47.25.25 53.91v21.033l11.58-3.38V68.09l-8.247 2.407z"/></g><path d="M-14-2h80v80h-80z"/></g></svg>