<svg xmlns="http://www.w3.org/2000/svg" width="77" height="78"><g fill="none" fill-rule="evenodd"><g fill="#FFF" fill-rule="nonzero"><path d="M24.996 19.153H41.56v3.333H24.996zm-.066 6.657h9.96v3.333h-9.96z"/><path d="M21.59 15.36h31.293v3.79h3.334v-3.8a3.325 3.325 0 0 0-3.327-3.323h-31.3a3.327 3.327 0 0 0-3.327 3.323v26.663a3.327 3.327 0 0 0 3.327 3.327h17.72v-3.33l-17.717.003-.003-26.653z"/><path d="M51.553 46.46c-6.556 0-11.886-5.333-11.886-11.89 0-6.553 5.333-11.887 11.886-11.887 6.554 0 11.89 5.334 11.89 11.887 0 6.557-5.336 11.89-11.89 11.89zm0-20.447c-4.716 0-8.553 3.837-8.553 8.554 0 4.72 3.837 8.556 8.553 8.556 4.72 0 8.557-3.836 8.557-8.556 0-4.714-3.837-8.554-8.557-8.554z"/><path d="M51.56 32.667a1.794 1.794 0 1 1-.001 3.587 1.794 1.794 0 0 1 .001-3.587zm0-3.334a5.126 5.126 0 1 0 0 10.253 5.126 5.126 0 0 0 0-10.253z"/><path d="M74.523 13.613c-6.206 0-11.256-5.05-11.256-11.256V.69H13.743v1.667c0 6.206-5.05 11.256-11.256 11.256H.767L.82 15.33c.017.46 1.813 46.04 37.007 61.677l.676.3.677-.3c6.283-2.794 11.487-6.547 15.82-10.82l-2.577-2.11c-3.866 3.75-8.46 7.053-13.92 9.576C9.503 60.257 4.927 24.827 4.26 16.84c6.663-.81 11.957-6.137 12.72-12.817h43.047c.763 6.68 6.056 12.007 12.723 12.817-.39 4.727-2.193 19.057-9.58 32.753l-.053 6.627c12.19-18.657 13.06-40.57 13.073-40.887l.053-1.716h-1.72v-.004z"/><path d="M56.553 43.977l-.006 15.11-5-3.727-5 3.727.006-15.04-3.333-2.594-.007 24.3 8.334-6.663 8.333 6.663.007-24.723h-.124z"/></g><path d="M-1-1h80v80H-1z"/></g></svg>