<svg xmlns="http://www.w3.org/2000/svg" width="62" height="80"><g fill="none" fill-rule="evenodd"><path fill="#FFF" fill-rule="nonzero" d="M32.902 69.327V2.705a1.819 1.819 0 0 0-3.637 0v66.622h3.637z"/><path fill="#FFF" fill-rule="nonzero" d="M31.084 61.764c-8.88 0-15.837-13.371-15.837-30.44 0-17.07 6.957-30.44 15.837-30.44 8.88 0 15.836 13.37 15.836 30.44 0 17.069-6.956 30.44-15.836 30.44zm0-57.24c-6.615 0-12.2 12.272-12.2 26.803s5.585 26.804 12.2 26.804c6.614 0 12.2-12.273 12.2-26.804 0-14.53-5.586-26.803-12.2-26.803z"/><path fill="#FFF" fill-rule="nonzero" d="M59.705 33.142H2.465a1.819 1.819 0 0 1 0-3.637h57.24a1.819 1.819 0 0 1 0 3.637zm-4.68 14.028H6.065a1.819 1.819 0 0 1 0-3.635h48.96a1.819 1.819 0 0 1 0 3.636zm0-25.52H6.065a1.819 1.819 0 0 1 0-3.635h48.96a1.819 1.819 0 0 1 0 3.636zM31.084 79.953a6.603 6.603 0 0 1-6.597-6.597 6.603 6.603 0 0 1 6.597-6.596c3.64 0 6.596 2.96 6.596 6.596a6.603 6.603 0 0 1-6.596 6.597zm0-9.56a2.963 2.963 0 0 0-2.96 2.96 2.963 2.963 0 0 0 2.96 2.96 2.963 2.963 0 0 0 2.96-2.96 2.963 2.963 0 0 0-2.96-2.96zm-25.454.051a2.914 2.914 0 0 0-2.914 2.912A2.914 2.914 0 0 0 5.63 76.27a2.912 2.912 0 1 0 0-5.825m10.828-.001a2.914 2.914 0 0 0-2.913 2.912 2.914 2.914 0 0 0 2.913 2.913 2.912 2.912 0 1 0 0-5.825m29.215 0a2.914 2.914 0 0 0-2.913 2.912 2.914 2.914 0 0 0 2.913 2.913 2.914 2.914 0 0 0 2.912-2.913 2.914 2.914 0 0 0-2.912-2.912m10.825 0a2.914 2.914 0 0 0-2.913 2.912 2.914 2.914 0 0 0 2.913 2.913 2.912 2.912 0 1 0 0-5.825"/><path fill="#FFF" fill-rule="nonzero" d="M31.084 61.764C14.302 61.764.647 48.109.647 31.324.647 14.538 14.302.884 31.084.884c16.785 0 30.44 13.654 30.44 30.44 0 16.785-13.655 30.44-30.44 30.44zm0-57.24c-14.775 0-26.8 12.025-26.8 26.803s12.025 26.804 26.8 26.804c14.778 0 26.803-12.026 26.803-26.804 0-14.778-12.022-26.803-26.803-26.803z"/><path d="M-9 0h80v80H-9z"/></g></svg>