<svg xmlns="http://www.w3.org/2000/svg" width="76" height="67"><g fill="none" fill-rule="evenodd"><path fill="#FFF" fill-rule="nonzero" d="M31.69 6.931c15.253 0 27.66 12.408 27.66 27.661 0 15.254-12.411 27.661-27.66 27.661-15.25 0-27.661-12.407-27.661-27.66 0-15.254 12.407-27.662 27.66-27.662zm0-3.81C14.31 3.122.219 17.214.219 34.593c0 17.383 14.091 31.47 31.47 31.47 17.383 0 31.471-14.09 31.471-31.47 0-17.379-14.088-31.47-31.47-31.47zm36.46.938a3.81 3.81 0 0 1 3.806 3.806 3.81 3.81 0 0 1-3.806 3.805 3.81 3.81 0 0 1-3.805-3.805 3.81 3.81 0 0 1 3.805-3.806zm0-3.81a7.615 7.615 0 1 0 0 15.231 7.615 7.615 0 0 0 0-15.23z"/><path d="M-2-6h80v80H-2z"/></g></svg>