<svg xmlns="http://www.w3.org/2000/svg" width="98" height="75"><g fill="none"><g fill="#313A49"><path d="M44.157 31.423c0-7.037-5.726-12.762-12.762-12.762-7.033 0-12.758 5.725-12.758 12.762 0 7.036 5.725 12.758 12.758 12.758 7.04 0 12.762-5.725 12.762-12.758zm-12.762 9.28c-5.117 0-9.28-4.164-9.28-9.28 0-5.12 4.163-9.284 9.28-9.284 5.12 0 9.283 4.164 9.283 9.284 0 5.116-4.163 9.28-9.283 9.28z"/><path d="M39.763 49.823c-1.158.532-2.344.99-3.582 1.294l-1.113.27-1.169 6.992c-.07.4-.41.692-.817.692H29.59a.825.825 0 0 1-.814-.695L27.6 51.388l-1.11-.271a20.145 20.145 0 0 1-6.584-2.919l-.943-.643-6.017 3.777a.827.827 0 0 1-1.064-.15l-2.313-2.605A.832.832 0 0 1 9.54 47.5l4.435-5.496-.546-1.015a20.046 20.046 0 0 1-1.795-4.72l-.272-1.11-7.019-1.168a.83.83 0 0 1-.692-.821v-3.492c0-.41.289-.755.692-.821l7.016-1.173.275-1.11c.497-2 1.287-3.898 2.351-5.648l.595-.98-4.06-5.68a.839.839 0 0 1 .091-1.072l2.466-2.466a.83.83 0 0 1 1.075-.087l5.673 4.045.977-.595a20.182 20.182 0 0 1 5.69-2.365l1.107-.275 1.176-6.998a.825.825 0 0 1 .81-.685h3.492c.407 0 .752.292.818.696l1.161 6.984 1.113.275a20.086 20.086 0 0 1 6.766 3.054l.942.657 5.959-3.746a.836.836 0 0 1 1.067.153l2.313 2.605c.272.31.286.762.032 1.082l-4.446 5.506.526 1.012c.445.852.807 1.764 1.13 2.7a6.917 6.917 0 0 1 3.214-1.25c-.24-.681-.46-1.377-.758-2.024l3.033-3.756a4.3 4.3 0 0 0-.132-5.576l-2.32-2.612c-1.413-1.58-3.743-1.91-5.513-.783L43.95 11.28a23.394 23.394 0 0 0-5.84-2.637l-.793-4.747a4.29 4.29 0 0 0-4.25-3.607H29.59a4.276 4.276 0 0 0-4.247 3.603l-.797 4.758A23.405 23.405 0 0 0 20 10.54l-3.83-2.731a4.289 4.289 0 0 0-5.55.459l-2.47 2.47a4.302 4.302 0 0 0-.456 5.55l2.74 3.837a23.712 23.712 0 0 0-1.867 4.501l-4.786.8a4.29 4.29 0 0 0-3.604 4.25v3.486a4.299 4.299 0 0 0 3.6 4.254l4.786.796a23.957 23.957 0 0 0 1.277 3.374l-2.998 3.722a4.296 4.296 0 0 0 .125 5.575l2.316 2.61a4.295 4.295 0 0 0 5.517.785l4.115-2.584a23.391 23.391 0 0 0 5.631 2.497l.797 4.741a4.277 4.277 0 0 0 4.25 3.614h3.492a4.293 4.293 0 0 0 4.25-3.6l.797-4.758c.97-.289 1.91-.661 2.835-1.071a6.728 6.728 0 0 1-1.204-3.294z"/></g><path fill="#7B939B" d="M93.729 42.257l-3.952-.657c-.257-.863-.57-1.7-.935-2.504l2.535-3.148a3.958 3.958 0 0 0-.118-5.134l-2.014-2.264a3.956 3.956 0 0 0-5.075-.72l-3.373 2.118a20.552 20.552 0 0 0-4.856-2.188l-.661-3.976a3.95 3.95 0 0 0-3.913-3.321h-3.026a3.944 3.944 0 0 0-3.913 3.314l-.665 3.983a20.552 20.552 0 0 0-3.718 1.544l-3.203-2.285a3.95 3.95 0 0 0-5.113.424l-2.136 2.14a3.959 3.959 0 0 0-.424 5.113l2.292 3.21a20.36 20.36 0 0 0-1.524 3.68l-4.007.668a3.95 3.95 0 0 0-3.321 3.913v3.026a3.95 3.95 0 0 0 3.318 3.913l4.007.668c.282.932.623 1.83 1.016 2.689l-2.515 3.116a3.958 3.958 0 0 0 .118 5.134l2.007 2.257a3.952 3.952 0 0 0 5.082.724l3.443-2.164a20.675 20.675 0 0 0 4.678 2.073l.665 3.973A3.941 3.941 0 0 0 68.34 74.9h3.026a3.947 3.947 0 0 0 3.913-3.318l.66-3.98a20.694 20.694 0 0 0 3.66-1.513l3.37 2.404a3.939 3.939 0 0 0 5.117-.421l2.14-2.14a3.947 3.947 0 0 0 .42-5.109l-2.4-3.363a20.777 20.777 0 0 0 1.534-3.698l3.948-.66a3.946 3.946 0 0 0 3.321-3.913v-3.03a3.954 3.954 0 0 0-3.321-3.903zm-.157 6.936a.49.49 0 0 1-.41.484l-6.178 1.033-.271 1.113a17.348 17.348 0 0 1-2.014 4.848l-.595.981 3.719 5.207a.487.487 0 0 1-.056.626l-2.14 2.14a.49.49 0 0 1-.629.052l-5.207-3.719-.977.588a17.26 17.26 0 0 1-4.817 1.99l-1.114.274-1.033 6.213a.49.49 0 0 1-.483.407h-3.026a.49.49 0 0 1-.484-.41l-1.04-6.206-1.11-.271a17.202 17.202 0 0 1-5.63-2.501l-.943-.644-5.346 3.36a.497.497 0 0 1-.63-.09l-2.007-2.258a.49.49 0 0 1-.017-.636l3.944-4.884-.546-1.015a17.206 17.206 0 0 1-1.53-4.038l-.272-1.114-6.236-1.04a.496.496 0 0 1-.41-.483v-3.026c0-.237.177-.442.41-.484l6.236-1.04.272-1.11a17.281 17.281 0 0 1 2.007-4.834l.594-.98L52 32.677a.487.487 0 0 1 .052-.633l2.136-2.139a.491.491 0 0 1 .636-.052l5.04 3.596.978-.594a17.292 17.292 0 0 1 4.866-2.025l1.11-.274 1.04-6.216c.038-.23.243-.4.483-.4h3.026c.24 0 .442.17.483.41l1.033 6.209 1.114.275a17.158 17.158 0 0 1 5.787 2.608l.943.661 5.294-3.328a.49.49 0 0 1 .63.09l2.006 2.257c.16.181.17.45.014.637l-3.944 4.894.525 1.009a17.4 17.4 0 0 1 1.45 3.881l.272 1.113 6.18 1.03h.004a.49.49 0 0 1 .407.483v3.023h.007z"/><path fill="#7B939B" d="M69.91 36.386c-6.227 0-11.294 5.068-11.294 11.297 0 6.23 5.067 11.294 11.294 11.294 6.226 0 11.293-5.067 11.293-11.294 0-6.226-5.067-11.297-11.293-11.297zm0 19.113c-4.31 0-7.816-3.506-7.816-7.816 0-4.31 3.506-7.819 7.816-7.819 4.31 0 7.815 3.506 7.815 7.82 0 4.313-3.506 7.815-7.815 7.815z"/></g></svg>