<svg xmlns="http://www.w3.org/2000/svg" xmlns:xlink="http://www.w3.org/1999/xlink" width="153" height="538" viewBox="0 0 153 538">
    <defs>
        <path id="a" d="M0 0h153v538H0z"/>
        <path id="c" d="M.875.673h1281v1902H.875z"/>
    </defs>
    <g fill="none" fill-rule="evenodd">
        <mask id="b" fill="#fff">
            <use xlink:href="#a"/>
        </mask>
        <use fill="#F8F8F8" xlink:href="#a"/>
        <g mask="url(#b)">
            <g transform="rotate(154 546.969 444.995)">
                <mask id="d" fill="#fff">
                    <use xlink:href="#c"/>
                </mask>
                <g mask="url(#d)">
                    <path fill="#3BBC9E" d="M871.603 699.207l76.12 1.678-.007-.289c1.67.124 3.323.322 5.022.354 50.614 1 93.348-39.472 95.45-90.403l4.287-103.92c16.51-400.12 75.067-1818.836 75.067-1818.836L109.33-347.543 66.78 683.329l804.823 15.878z"/>
                    <path fill="#57D9B7" fill-rule="nonzero" d="M-121.387 1663.309c165.565 3.086 211.332-61.943 327.275-171.834 116.248-110.178 793.15-751.747 793.289-751.88 29.783-28.227 46.083-65.424 47.656-103.018.509-12.082 1.122-26.315 1.122-26.315-2.153 50.853-44.843 91.316-95.35 90.375-.95-.017-1.87-.145-2.811-.193-.685.022-1.384.12-2.068.126l-.01.008h-.12c-.132 0-30.38-.54-75.767-1.446l-1077.623-20.08-1394.71-25.985-41.915 982.238 1521.032 28.004z"/>
                </g>
            </g>
        </g>
    </g>
</svg>
