<svg xmlns="http://www.w3.org/2000/svg" xmlns:xlink="http://www.w3.org/1999/xlink" width="600" height="500"><defs><path id="a" d="M0 0h600v500H0z"/><linearGradient id="c" x1="-.022%" x2="99.983%" y1="49.992%" y2="49.992%"><stop offset="0%" stop-color="#BDBFE0"/><stop offset="100%" stop-color="#BDBFE0"/></linearGradient><linearGradient id="d" x1="99.723%" x2=".145%" y1="49.892%" y2="49.892%"><stop offset="39.62%" stop-color="#BDBFE0"/><stop offset="60.76%" stop-color="#D1D3EA"/></linearGradient><linearGradient id="e" x1=".011%" x2="100.025%" y1="50.024%" y2="50.024%"><stop offset="0%" stop-color="#F7F7FC"/><stop offset="100%" stop-color="#F2F3FA"/></linearGradient><linearGradient id="f" x1=".028%" x2="99.927%" y1="49.939%" y2="49.939%"><stop offset="0%" stop-color="#BDBFE0"/><stop offset="100%" stop-color="#BDBFE0"/></linearGradient><linearGradient id="g" x1="99.732%" x2=".137%" y1="49.92%" y2="49.92%"><stop offset="39.62%" stop-color="#BDBFE0"/><stop offset="60.76%" stop-color="#D1D3EA"/></linearGradient><linearGradient id="h" x1=".15%" x2="100.029%" y1="50.204%" y2="50.204%"><stop offset="0%" stop-color="#F7F7FC"/><stop offset="100%" stop-color="#F2F3FA"/></linearGradient><linearGradient id="i" x1="62.006%" x2="48.349%" y1="82.423%" y2="45.523%"><stop offset="0%" stop-color="#FF5A70"/><stop offset="100%" stop-color="#FFAE6C"/></linearGradient><linearGradient id="j" x1=".103%" x2="99.932%" y1="51.22%" y2="51.22%"><stop offset="0%" stop-color="#BDBFE0"/><stop offset="100%" stop-color="#BDBFE0"/></linearGradient><linearGradient id="k" x1="49.13%" x2="46.179%" y1="47.56%" y2="95.617%"><stop offset="0%" stop-color="#BDBFE0"/><stop offset="100%" stop-color="#FFF"/></linearGradient><linearGradient id="l" x1="49.645%" x2="48.492%" y1="28.923%" y2="59.758%"><stop offset="0%" stop-color="#BDBFE0"/><stop offset="100%" stop-color="#FFF"/></linearGradient><linearGradient id="m" x1=".14%" x2="99.969%" y1="50.852%" y2="50.852%"><stop offset="0%" stop-color="#BDBFE0"/><stop offset="100%" stop-color="#BDBFE0"/></linearGradient><linearGradient id="n" x1="42.076%" x2="52.163%" y1="19.156%" y2="91.173%"><stop offset="0%" stop-color="#BDBFE0"/><stop offset="100%" stop-color="#FFF"/></linearGradient><linearGradient id="o" x1="30.978%" x2="51.482%" y1="69.244%" y2="48.484%"><stop offset="0%" stop-color="#FFF"/><stop offset="16.12%" stop-color="#D2D3E1"/><stop offset="36.47%" stop-color="#A1A2BF"/><stop offset="55.7%" stop-color="#797BA5"/><stop offset="73.27%" stop-color="#5D6092"/><stop offset="88.6%" stop-color="#4C4F86"/><stop offset="100%" stop-color="#464982"/></linearGradient><linearGradient id="p" x1="-3.583%" x2="113.642%" y1="49.902%" y2="49.902%"><stop offset="0%" stop-color="#7549F6"/><stop offset="67.58%" stop-color="#6600F9"/></linearGradient><linearGradient id="q" x1="38.036%" x2="67.084%" y1="62.198%" y2="39.037%"><stop offset="33.23%" stop-color="#EBB381"/><stop offset="100%" stop-color="#A36BAA"/></linearGradient><linearGradient id="r" x1="13.636%" x2="83.709%" y1="43.167%" y2="56.692%"><stop offset="33.23%" stop-color="#EBB381"/><stop offset="100%" stop-color="#A36BAA"/></linearGradient><linearGradient id="s" x1="40.691%" x2="57.689%" y1="41.647%" y2="58.628%"><stop offset="0%" stop-color="#545A97"/><stop offset="15.35%" stop-color="#444C90"/><stop offset="33.01%" stop-color="#3A438B"/><stop offset="55.03%" stop-color="#37408A"/><stop offset="72.8%" stop-color="#3C448C"/><stop offset="92.49%" stop-color="#495092"/><stop offset="100%" stop-color="#505695"/></linearGradient><linearGradient id="t" x1="-.83%" x2="99.228%" y1="50.277%" y2="50.263%"><stop offset="0%" stop-color="#889BD0"/><stop offset="55.56%" stop-color="#C1D6FC"/><stop offset="100%" stop-color="#FCF6FF"/></linearGradient><linearGradient id="u" x1="69.402%" x2="28.976%" y1="61.721%" y2="38.407%"><stop offset="0%" stop-color="#D2DEFD"/><stop offset="100%" stop-color="#FFF"/></linearGradient><linearGradient id="v" x1="16.173%" x2="64.582%" y1="61.977%" y2="35.898%"><stop offset="0%" stop-color="#5C5FCE"/><stop offset="15.35%" stop-color="#4C51C6"/><stop offset="33.01%" stop-color="#4248C2"/><stop offset="55.03%" stop-color="#3F45C0"/><stop offset="72.8%" stop-color="#4449C2"/><stop offset="92.49%" stop-color="#5154C9"/><stop offset="100%" stop-color="#585ACC"/></linearGradient><linearGradient id="w" x1="64.58%" x2="16.158%" y1="61.691%" y2="35.616%"><stop offset="0%" stop-color="#DBE3FD"/><stop offset="1.706%" stop-color="#DDE4FD"/><stop offset="20.99%" stop-color="#E9E9FD"/><stop offset="46.26%" stop-color="#F1ECFD"/><stop offset="100%" stop-color="#F3EDFD"/></linearGradient></defs><g fill="none" fill-rule="evenodd"><mask id="b" fill="#fff"><use xlink:href="#a"/></mask><use xlink:href="#a"/><g mask="url(#b)"><g fill-rule="nonzero"><path fill="url(#c)" fill-opacity=".25" d="M200.782 115.69h-47.675l140.877 81.368c6.442 3.65 6.442 12.882 0 16.532l-140.877 81.368h47.675c4.724 0 9.234-1.288 13.314-3.65l130.784-75.572c8.16-4.723 8.16-16.53 0-21.254l-130.784-75.571c-4.08-1.933-8.59-3.22-13.314-3.22z" transform="translate(219 61)"/><path fill="#9395B2" d="M524.764 268.614c-.215-3.66-3.016-7.534-8.187-10.547l-126.471-72.97c-9.911-5.812-25.208-6.458-33.827-1.292l-131.426 75.768c-4.094 2.368-6.033 5.597-5.817 9.041.215 3.66 3.016 7.534 8.187 10.547l126.471 72.97c9.91 5.812 25.208 6.458 33.826 1.292l131.427-75.768c4.309-2.368 6.032-5.597 5.817-9.041z"/><path fill="url(#d)" d="M305.764 103.105V90.621l-51.278 24.969-83.38-48.001c-9.911-5.812-25.208-6.458-33.827-1.292l-85.75 49.508L.036 90.836v12.484c.215 3.66 3.016 7.534 8.187 10.548l126.471 72.97c5.17 3.014 11.85 4.52 18.098 4.736 5.817.215 11.635-.861 15.728-3.444l131.427-75.769c4.309-2.583 6.032-5.812 5.817-9.256z" transform="translate(219 163.14)"/><path fill="#FFF" d="M524.764 253.762c-.215-3.66-3.016-7.534-8.187-10.548l-126.471-72.97c-9.911-5.812-25.208-6.457-33.827-1.291L224.853 244.72c-4.094 2.368-6.033 5.597-5.817 9.04.215 3.66 3.016 7.534 8.187 10.548l126.471 72.97c9.91 5.812 25.208 6.458 33.826 1.292l131.427-75.769c4.309-2.368 6.032-5.596 5.817-9.04z"/><path fill="url(#e)" d="M305.764 89.114c-.215-3.66-3.016-7.534-8.187-10.547L171.106 5.597c-9.911-5.812-25.208-6.458-33.827-1.292L5.853 80.074C1.759 82.44-.18 85.67.036 89.114c.215 3.66 3.016 7.534 8.187 10.547l126.471 72.97c9.91 5.812 25.208 6.458 33.826 1.292l131.427-75.768c4.309-2.368 6.032-5.597 5.817-9.04z" transform="translate(219 163.14)"/><g fill="#FFF" opacity=".2"><path d="M277.208 251.179c.862.43.862 1.291 0 1.722-.862.43-2.154.43-3.016 0-.862-.43-.862-1.292 0-1.722.862-.43 2.154-.43 3.016 0zm15.944-9.256c.861.43.861 1.291 0 1.722-.862.43-2.155.43-3.017 0-.861-.43-.861-1.292 0-1.722.862-.43 2.155-.43 3.017 0zm15.728-9.256c.862.43.862 1.292 0 1.722-.862.43-2.155.43-3.017 0-.861-.43-.861-1.291 0-1.722.862-.43 2.37-.43 3.017 0zm15.943-9.041c.862.431.862 1.292 0 1.722-.862.431-2.154.431-3.016 0-.862-.43-.862-1.291 0-1.722.862-.43 2.154-.43 3.016 0zm-31.671 36.594c.861.43.861 1.29 0 1.721-.862.43-2.155.43-3.017 0-.861-.43-.861-1.291 0-1.722.862-.43 2.155-.43 3.017 0zm15.728-9.041c.862.43.862 1.291 0 1.722-.862.43-2.155.43-3.017 0-.861-.43-.861-1.292 0-1.722.862-.43 2.37-.43 3.017 0zm15.943-9.256c.862.43.862 1.291 0 1.722-.862.43-2.154.43-3.016 0-.862-.43-.862-1.292 0-1.722.862-.43 2.154-.43 3.016 0zm15.944-9.256c.862.43.862 1.292 0 1.722-.862.43-2.155.43-3.016 0-.862-.43-.862-1.291 0-1.722.861-.43 2.154-.43 3.016 0zm-31.887 36.808c.862.43.862 1.292 0 1.722-.862.43-2.155.43-3.017 0-.861-.43-.861-1.291 0-1.722.862-.43 2.37-.43 3.017 0zm15.943-9.255c.862.43.862 1.29 0 1.721-.862.43-2.154.43-3.016 0-.862-.43-.862-1.291 0-1.722.862-.43 2.154-.43 3.016 0zm15.944-9.041c.862.43.862 1.291 0 1.722-.862.43-2.155.43-3.016 0-.862-.43-.862-1.292 0-1.722.861-.43 2.154-.43 3.016 0zm15.943-9.256c.862.43.862 1.291 0 1.722-.861.43-2.154.43-3.016 0-.862-.43-.862-1.292 0-1.722.862-.43 2.155-.43 3.016 0zm-31.887 36.807c.862.431.862 1.292 0 1.723-.862.43-2.154.43-3.016 0-.862-.43-.862-1.292 0-1.722.862-.646 2.154-.646 3.016 0zm15.944-9.255c.862.43.862 1.292 0 1.722-.862.43-2.155.43-3.016 0-.862-.43-.862-1.291 0-1.722.861-.43 2.154-.43 3.016 0zm15.943-9.255c.862.43.862 1.29 0 1.721-.861.43-2.154.43-3.016 0-.862-.43-.862-1.291 0-1.722.862-.43 2.155-.43 3.016 0zm15.944-9.041c.862.43.862 1.291 0 1.722-.862.43-2.155.43-3.016 0-.862-.43-.862-1.292 0-1.722.861-.43 2.154-.43 3.016 0zm-31.887 36.592c.862.43.862 1.292 0 1.722-.862.43-2.155.43-3.016 0-.862-.43-.862-1.291 0-1.722.861-.43 2.154-.43 3.016 0zm15.943-9.041c.862.431.862 1.292 0 1.723-.861.43-2.154.43-3.016 0-.862-.43-.862-1.292 0-1.722.862-.646 2.155-.646 3.016 0zm15.944-9.255c.862.43.862 1.292 0 1.722-.862.43-2.155.43-3.016 0-.862-.43-.862-1.291 0-1.722.861-.43 2.154-.43 3.016 0zm15.943-9.255c.862.43.862 1.29 0 1.721-.861.43-2.154.43-3.016 0-.862-.43-.862-1.291 0-1.722.862-.43 2.155-.43 3.016 0z"/><path d="M388.597 260.22c.862.43.862 1.29 0 1.721-.861.43-2.154.43-3.016 0-.862-.43-.862-1.291 0-1.722.862-.43 2.155-.43 3.016 0zm-47.83-45.85c.862.431.862 1.292 0 1.723-.862.43-2.155.43-3.016 0-.862-.43-.862-1.292 0-1.722.861-.43 2.154-.43 3.016 0zm15.943-9.04c.862.43.862 1.292 0 1.722-.861.43-2.154.43-3.016 0-.862-.43-.862-1.291 0-1.722.862-.646 2.155-.646 3.016 0zm15.944-9.256c.862.43.862 1.292 0 1.722-.862.43-2.155.43-3.016 0-.862-.43-.862-1.291 0-1.722.861-.43 2.154-.43 3.016 0zm-15.944 27.552c.862.431.862 1.292 0 1.722-.861.431-2.154.431-3.016 0-.862-.43-.862-1.291 0-1.722.862-.43 2.155-.43 3.016 0zm15.944-9.256c.862.431.862 1.292 0 1.723-.862.43-2.155.43-3.016 0-.862-.43-.862-1.292 0-1.722.861-.43 2.154-.43 3.016 0zm15.943-9.04c.862.43.862 1.292 0 1.722-.861.43-2.154.43-3.016 0-.862-.43-.862-1.291 0-1.722.862-.646 2.155-.646 3.016 0zm-15.943 27.337c.862.43.862 1.292 0 1.722-.862.43-2.155.43-3.016 0-.862-.43-.862-1.291 0-1.722.861-.43 2.154-.43 3.016 0zm15.943-9.041c.862.431.862 1.292 0 1.722-.861.431-2.154.431-3.016 0-.862-.43-.862-1.291 0-1.722.862-.43 2.155-.43 3.016 0zm15.944-9.256c.862.431.862 1.292 0 1.723-.862.43-2.154.43-3.016 0-.862-.43-.862-1.292 0-1.722.862-.43 2.154-.43 3.016 0zm-15.944 27.553c.862.43.862 1.291 0 1.722-.861.43-2.154.43-3.016 0-.862-.43-.862-1.292 0-1.722.862-.43 2.155-.43 3.016 0zm15.944-9.256c.862.43.862 1.292 0 1.722-.862.43-2.154.43-3.016 0-.862-.43-.862-1.291 0-1.722.862-.43 2.154-.43 3.016 0zm15.729-9.041c.861.431.861 1.292 0 1.722-.863.431-2.155.431-3.017 0-.862-.43-.862-1.291 0-1.722.862-.43 2.37-.43 3.016 0zm-15.729 27.553c.862.43.862 1.291 0 1.722-.862.43-2.154.43-3.016 0-.862-.43-.862-1.292 0-1.722.862-.43 2.154-.43 3.016 0zm15.729-9.256c.861.43.861 1.291 0 1.722-.863.43-2.155.43-3.017 0-.862-.43-.862-1.292 0-1.722.862-.43 2.37-.43 3.016 0zm15.943-9.256c.862.43.862 1.292 0 1.722-.862.43-2.155.43-3.017 0-.861-.43-.861-1.291 0-1.722.862-.43 2.155-.43 3.017 0zm-79.503 64.36c.862.43.862 1.292 0 1.722-.861.43-2.154.43-3.016 0-.862-.43-.862-1.291 0-1.722.862-.43 2.155-.43 3.016 0zm15.944-9.256c.862.43.862 1.292 0 1.722-.862.43-2.155.43-3.016 0-.862-.43-.862-1.291 0-1.722.861-.43 2.154-.43 3.016 0zm15.943-9.041c.862.431.862 1.292 0 1.723-.861.43-2.154.43-3.016 0-.862-.43-.862-1.292 0-1.722.862-.646 2.155-.646 3.016 0zm15.944-9.255c.862.43.862 1.292 0 1.722-.862.43-2.154.43-3.016 0-.862-.43-.862-1.291 0-1.722.862-.43 2.154-.43 3.016 0zm-31.887 36.808c.862.43.862 1.292 0 1.722-.862.43-2.155.43-3.016 0-.862-.43-.862-1.291 0-1.722.861-.646 2.154-.646 3.016 0zm15.943-9.256c.862.43.862 1.292 0 1.722-.861.43-2.154.43-3.016 0-.862-.43-.862-1.291 0-1.722.862-.43 2.155-.43 3.016 0zm15.944-9.256c.862.43.862 1.292 0 1.722-.862.43-2.154.43-3.016 0-.862-.43-.862-1.291 0-1.722.862-.43 2.154-.43 3.016 0zm15.729-9.041c.861.431.861 1.292 0 1.723-.863.43-2.155.43-3.017 0-.862-.43-.862-1.292 0-1.722.862-.43 2.37-.646 3.016 0zm0-18.51c.861.43.861 1.29 0 1.721-.863.43-2.155.43-3.017 0-.862-.43-.862-1.291 0-1.722.862-.43 2.37-.43 3.016 0zm15.943-9.041c.862.43.862 1.291 0 1.722-.862.43-2.155.43-3.017 0-.861-.43-.861-1.292 0-1.722.862-.43 2.155-.43 3.017 0zm15.943-9.256c.862.43.862 1.291 0 1.722-.862.43-2.154.43-3.016 0-.862-.43-.862-1.292 0-1.722.862-.43 2.154-.43 3.016 0zm-15.943 27.552c.862.43.862 1.292 0 1.722-.862.43-2.155.43-3.017 0-.861-.43-.861-1.291 0-1.722.862-.43 2.155-.43 3.017 0zm15.943-9.255c.862.43.862 1.29 0 1.721-.862.43-2.154.43-3.016 0-.862-.43-.862-1.291 0-1.722.862-.43 2.154-.43 3.016 0zm15.944-9.041c.862.43.862 1.291 0 1.722-.862.43-2.155.43-3.017 0-.861-.43-.861-1.292 0-1.722.862-.43 2.155-.43 3.017 0z"/></g><path fill="url(#f)" d="M104.257 52.2H86.806l51.278 29.61c2.37 1.296 2.37 4.754 0 6.051L55.996 135.41h17.452c1.723 0 3.447-.432 4.74-1.297l78.424-45.386c3.017-1.73 3.017-6.052 0-7.78l-47.615-27.449c-1.508-.864-3.016-1.297-4.74-1.297z" transform="translate(273.16 142.296)"/><path fill="#9395B2" d="M415.337 227.78c0-1.297-1.077-2.81-3.016-3.89l-45.891-26.584c-3.663-2.162-9.05-2.378-12.281-.433l-78.425 45.387c-1.508.865-2.155 1.945-2.155 3.242s1.078 2.81 3.017 3.89l45.891 26.584c3.663 2.161 9.05 2.377 12.281.432l78.425-45.387c1.723-.864 2.37-2.16 2.154-3.241z"/><path fill="url(#g)" d="M142.177 83.539V34.046L.625 51.984v49.493c0 1.297 1.077 2.81 3.016 3.89l45.891 26.584c1.94 1.08 4.31 1.729 6.464 1.729 2.155 0 4.094-.432 5.602-1.297l78.425-45.386c1.508-1.081 2.37-2.162 2.154-3.458z" transform="translate(273.16 142.296)"/><path fill="#FFF" d="M415.337 176.341c0-1.296-1.077-2.81-3.016-3.89l-45.891-26.583c-3.663-2.162-9.05-2.378-12.281-.433l-78.425 45.387c-1.508.864-2.155 1.945-2.155 3.242s1.078 2.81 3.017 3.89l45.891 26.584c3.663 2.16 9.05 2.377 12.281.432l78.425-45.387c1.723-.864 2.37-1.945 2.154-3.242z"/><path fill="url(#h)" d="M142.177 32.317c0-1.297-1.077-2.81-3.016-3.89L93.269 1.842C89.607-.318 84.22-.535 80.99 1.41L2.564 46.797C1.056 47.662.409 48.742.409 50.04s1.077 2.81 3.017 3.89l45.89 26.584c3.664 2.161 9.05 2.377 12.282.432l78.425-45.386c1.723-.649 2.37-1.946 2.154-3.242z" transform="translate(273.16 142.296)"/><path fill="#BDBFE0" d="M347.685 208.977c-1.508 0-2.8-.433-4.309-1.081l-7.756-4.539c-1.077-.648-1.724-1.729-1.724-3.025 0-1.297.647-2.378 1.724-3.026l34.903-20.316a8.345 8.345 0 0 1 8.403 0l7.756 4.539c1.077.648 1.724 1.729 1.724 3.025 0 1.297-.647 2.378-1.724 3.026l-34.903 20.1c-1.293.864-2.801 1.297-4.094 1.297zm27.147-31.987c-1.293 0-2.585.432-3.662 1.08l-34.904 20.316c-.862.433-1.293 1.297-1.293 2.162 0 .864.431 1.729 1.293 2.16l7.756 4.54c2.37 1.296 5.171 1.296 7.326 0l34.903-20.316c.862-.433 1.293-1.297 1.293-2.162 0-.864-.431-1.729-1.293-2.16l-7.756-4.54c-1.077-.864-2.37-1.08-3.663-1.08z"/><g><path fill="url(#i)" d="M66.438 93.435L1.71 132.015V58.088l64.73-38.363z" transform="translate(295.033 61)"/><path fill="#7800FF" d="M302.51 93.011l53.193-31.035c3.204-1.94 5.768-.862 5.768 2.586v63.795c0 3.233-2.564 7.328-5.768 9.267L302.51 168.66c-3.205 1.94-5.768.862-5.768-2.586v-63.795c0-3.233 2.563-7.328 5.768-9.268z" opacity=".8"/><path fill="#FC8118" d="M341.603 136.978l9.614-5.82v-25.647l-9.614 5.82z"/><path fill="#39BB9D" d="M329.854 143.66l9.827-5.604V102.71l-9.827 5.819z"/><path fill="#FC8118" d="M318.318 150.556l9.613-5.82V102.71l-9.613 5.819z"/><path fill="#39BB9D" d="M306.569 157.237l9.826-5.603V95.382l-9.826 5.603z"/><path fill="#FFF" d="M341.603 121.03l9.614-5.604v-4.095l-9.614 5.819zm-11.749 12.5l9.827-5.604v-4.095l-9.827 5.82zm-11.536-11.854l9.613-5.604v-4.095l-9.613 5.82zm-11.749-12.07l9.826-5.819v-3.88l-9.826 5.604z"/><path fill="#FF5A70" d="M296.742 193.876c-.214 0-.641-.215-.641-.43-.214-.432 0-.863.213-1.078l64.943-38.58c.427-.215.855 0 1.068.216.214.431 0 .862-.213 1.078l-64.943 38.579c-.214.215-.427.215-.427.215z"/></g><g><path fill="url(#j)" fill-opacity=".25" d="M19.256 108.514c-7.96 0-14.628 3.425-14.628 7.492 0 4.066 6.453 7.49 14.628 7.49h80.691L73.818 108.3H19.256v.214z" transform="translate(422.1 121.45)"/><path fill="#273964" d="M442.647 229.537c1.076.856.646 2.997.216 3.853-.86 1.498-2.152.642-3.012 1.07-2.151 1.498-6.884 2.782-7.745 2.14-.86-.642-1.72-2.782 3.442-4.709 2.367-.856 3.442-2.14 3.442-2.14l3.657-.214z"/><path fill="#FFF" d="M442.647 227.61c.216 1.285.216 2.141.43 2.57 0 .213 0 .641-.214.855-.646.642-2.152 1.499-3.658.642 0 0-.86-.428-.43-1.712s.646-2.782.646-2.782l3.226.428z"/><path fill="#273964" d="M451.898 236.814c1.075.856.86 2.997.215 3.853-.646.642-1.721.214-2.151.856-1.937 3.21-5.163 2.782-6.239 2.568-1.72-.214-1.72-1.712 1.076-4.28 2.796-2.569 3.226-3.21 3.226-3.21l3.873.213z"/><path fill="url(#k)" d="M28.506 37.028c3.227 8.133-.215 9.845-2.581 19.905-2.152 8.989-.86 27.182-4.948 50.94-.215 1.498-4.733 1.712-4.733-.857 0-4.709-2.581-21.403-2.796-31.463-.216-6.849 0-28.038 0-28.038l15.058-10.487z" transform="translate(422.1 121.45)"/><path fill="#FFF" d="M451.898 235.102c.215 1.284.215 2.14.43 2.568 0 .214 0 .642-.215.856-.646.643-2.151 1.499-3.657.643 0 0-.86-.429-.43-1.713s.645-2.782.645-2.782l3.227.428z"/><path fill="#F5D5D5" d="M433.612 153.77c-4.087 3.21-5.808 4.28-5.808 4.28l-4.087-2.14 5.808-8.133 1.936-1.499 2.582 3.639-.43 3.853z"/><path fill="url(#l)" d="M38.402 42.592c3.226 8.134.86 18.193-1.506 28.253-4.088 17.336-5.593 31.677-6.454 43.448 0 1.499-4.733 2.569-5.163 0-.43-3.21-1.936-24.185-2.581-31.462-1.076-11.772.645-29.965.645-29.965l15.059-10.274z" transform="translate(422.1 121.45)"/><path fill="#900246" d="M437.27 139.215l-.216 15.839s-2.366-1.927-3.442-1.498c0 0 .43-5.565-4.087-5.993 0 .214 6.239-7.491 7.744-8.348z"/><path fill="#900246" d="M462.869 169.608c-1.29 7.063-9.896 10.916-21.082 4.709-11.186-6.207-5.808-8.562-5.593-14.34.215-5.78 3.657-8.99 1.075-17.765-2.581-8.561 10.541-2.997 16.995 2.354 6.454 5.565 9.896 18.621 8.605 25.042z"/><path fill="#FC8118" d="M456.415 144.994c5.163 6.635 6.454 26.968 5.378 33.39-1.075 5.564-6.023 5.35-13.768 3.638.216-1.07.861-7.705.861-9.846.215-9.631-2.151-17.764-.86-29.322 0 0 5.162-.856.215-3.21-4.948-2.355-7.315-2.355-7.96-.429-.645 1.927-.215 16.909-.645 27.183-.215 3.638-1.721 8.989-1.721 10.701-6.884-4.709-2.797-11.772-2.582-16.908.215-5.78 1.506-8.776 1.291-17.765-.215-9.418 14.413-4.067 19.791 2.568z"/><path fill="#F5D5D5" d="M445.66 133.222c2.365 4.71 1.505 5.565 3.441 7.278.645.642-1.72 1.926-3.657 2.14l-3.442 4.28.215-5.778s-1.075-.428-.86-1.499c.215-1.07 1.075-1.712.215-2.996-.215-.856 4.087-3.425 4.087-3.425z"/><path fill="#F5D5D5" d="M446.735 133.222c-.86 3.211-3.872 3.853-6.239 3.853-2.366 0-5.378-8.133-3.872-10.916 1.506-2.782 7.099-4.494 9.035-1.498 2.151 2.783 1.076 8.561 1.076 8.561z"/><path fill="#FFF" d="M434.903 160.405l3.872-.857c.215 0 .43-.214.215-.428 0-.214-.215-.428-.43-.214l-3.657.857c-.215 0-.43.214-.215.428-.215 0 0 .214.215.214z"/><path fill="#900246" d="M454.264 144.78c3.872 1.07 4.518 7.705 5.808 13.27 1.291 5.565-4.302 4.28-6.238 2.14-2.151-1.926-4.948-16.908.43-15.41z"/><path fill="#F5D5D5" d="M434.473 159.12c1.506-.214 1.506.428 2.796 2.14 2.797 1.07 9.25 3.64 12.262 4.71 0 0 1.936-15.625 2.797-17.98l5.808 9.846c-2.151 8.776-4.302 12.414-6.023 14.126-1.506 1.285-12.477-5.35-16.995-8.133 0 0-1.29.214-3.657-1.498-2.151-1.712 1.506-2.783 3.012-3.21z"/><path fill="#FC8118" d="M447.38 133.437c-1.076 2.14 1.506 1.498 1.721 2.782.215 1.284-3.227.856-4.087-1.07-.43-1.07-1.291-.856 0-1.927 1.29-1.07-.43-2.14-1.506-1.498-1.076.642-1.721-.428-1.721-1.284-.215-.856-3.012.214-4.948 0-1.936-.214-4.087-1.498-3.227-3.638 1.076-2.14 1.721-.643 2.152-1.285.645-.642-1.291-1.284.215-2.14 1.506-.856 2.366.856 3.011 0 .646-.856 2.367-.642 3.227-1.284.86-.642 1.936.856 2.367.642.43-.214 2.581.214 2.796 3.424.43 2.997.645 1.927.86 3.425.216 1.498-.86 3.853-.86 3.853z"/><path fill="#FF5A70" d="M434.043 161.26l-11.187-8.989 6.454 11.558 10.971 9.632z"/><path fill="#F5D5D5" d="M424.362 155.054c-2.796 3.852-1.506 5.565-.86 6.849.86 1.07 9.035 6.207 10.11 8.133 1.076 2.14 4.088 1.498 4.948 1.07 1.076-.428 1.506-2.354.86-3.852-.86-1.713-3.441 0-3.441 0l-9.68-8.134-1.937-4.066z"/><path fill="#900246" d="M451.037 156.338c1.721-1.498 6.454.856 6.884 3.425l1.076-1.285-3.227-8.99-3.012-2.781-1.506 1.07-.215 8.561z"/></g><g><path fill="url(#m)" fill-opacity=".25" d="M43.864 121.902c-7.995 0-14.693 3.44-14.693 7.525 0 4.084 6.482 7.524 14.693 7.524h74.547l-16.37-15.264H43.864v.215z" transform="translate(351.276 125.62)"/><path fill="#F5D5D5" d="M370.29 134.004c-1.728-2.364-3.024-2.58-3.888-3.654-.865-1.075-.217-1.29.432-.86.648.43 1.08.645 1.08.43 0-.215 0-.86-1.945-1.935-1.944-1.075-2.593-2.58-1.512-2.15 1.08.43 1.728 1.29 3.025 1.29 1.296-.215 1.945-.86 3.025.645.864 1.505 1.729 4.3 1.729 4.3l-1.945 1.934zm-11.451 52.674c-1.945 1.72-2.377 1.505-3.89 2.365-1.512.86-3.24.86-3.24 1.29 0 .43 2.376 0 2.808 0 .216 0 .648 1.505 1.729 1.72 1.728.215 1.945-1.72 3.025-2.58 1.08-.645-.432-2.795-.432-2.795z"/><path fill="#FFAE6C" d="M385.2 156.579c3.458-2.795 12.75.215 15.126 6.235 0 0-3.457-7.525-5.834-11.395-2.593-3.655-13.181-9.03-13.83-10.105-.647-1.075-5.833-8.17-8.21-10.32-1.729-1.504-3.674 1.936-3.025 2.795 3.025 5.375 7.562 12.255 7.562 12.255l8.211 10.535z"/><path fill="#898EC6" d="M381.96 256.121c-.865 1.505 3.889 3.44 6.05 3.87 1.296.215 3.025 2.15 4.321 1.72 3.241-.86 1.729-3.44 1.297-4.515-.865-1.72-2.377-1.505-2.377-1.505s-3.458.215-4.538 0c-.864-.215-3.673-1.505-4.754.43zm12.316-7.525c-.865 1.505 3.89 3.44 6.05 3.87 1.296.215 3.025 2.15 4.322 1.72 3.24-.86 1.728-3.44 1.296-4.515-.864-1.72-2.377-1.505-2.377-1.505s-3.457.215-4.537 0-3.674-1.505-4.754.43z"/><path fill="#285390" d="M404.864 187.968c2.593 13.975-1.297 31.82-1.297 35.474 0 5.805.864 19.35 1.297 24.94 0 .86-3.242 1.934-3.458 1.074-3.24-9.244-8.21-25.369-7.778-27.949.432-4.3-2.377-34.184-2.377-34.184l4.321-6.235c0 .215 7.13-4.085 9.292 6.88z"/><path fill="#285390" d="M382.824 183.883c-3.674 12.9 1.296 31.39 2.16 45.794.216 3.44 1.945 19.78 3.89 26.874.216 1.075 4.754 2.795 4.754 0-.217-6.235.432-21.07.864-25.8 1.296-16.124 5.834-42.353 5.834-42.353l-17.502-4.515z"/><path fill="url(#n)" d="M54.02 58.908c-6.05-8.814-1.297-11.18-5.186-23.219-3.457-10.75-8.427-9.675-14.045-7.955-1.08.43-10.372 4.3-7.78 10.535 1.73 3.87 1.513 8.385.65 15.265-1.297 11.18-.217 17.63 2.376 18.919 8.643 4.3 29.819-5.16 23.985-13.545z" transform="translate(351.276 125.62)"/><path fill="#FFAE6C" d="M381.96 156.579c3.889-.86.215 30.53-2.378 16.124 0 0-2.16 6.02-6.266 9.46-3.89 3.225-7.779 4.3-13.18 7.31-1.513.86-2.594-1.935-1.73-2.58 3.026-2.795 6.267-6.235 10.805-10.105 1.512-1.29 9.075-19.35 12.748-20.21z"/><path fill="#F5D5D5" d="M390.17 139.38c-7.346 3.01-8.21 5.374-7.779 6.88.216 1.504 1.945 1.72 2.377 3.44.432 1.719.432 2.579-.216 4.299-.432 1.29 2.161 1.075 3.89 0 1.728-1.075 2.16-1.29 1.512-4.085-.648-2.795 2.161-3.225 2.377-6.665.216-3.655-2.16-3.87-2.16-3.87z"/><path fill="#101828" d="M389.306 138.95c-1.729.43-.648 5.804-.864 6.02 0 0 1.728 0 .864 1.29-.864 1.074-1.729.214-1.729.214s-.216 1.505.865 2.15c1.08.645 1.296.43 1.296.43s2.593.215 4.538-1.72c2.377-2.795-1.08-9.46-4.97-8.385z"/><path fill="#101828" d="M394.06 144.54c-.865.214-.432 1.72-.216 1.934.216.215 2.809 1.505 2.809 4.085s-1.945 2.365-2.161 6.45c-.216 4.085 11.02 7.095 9.723 10.535-1.296 3.44-5.618 1.075-6.266 4.514-.216 1.505.216 3.225 6.699 1.935 6.482-1.29 7.13-7.524 2.593-13.33-4.322-5.804-1.945-8.814-3.242-11.824-.648-2.795-6.266-5.375-9.94-4.3z"/></g></g><g transform="translate(41 250.497)"><path fill="url(#o)" d="M3.862 78.147l94.56 54.598c5.219 3.022 11.69 3.022 17.013 0l52.29-30.216c3.862-2.188 3.862-7.815 0-10.003L73.06 37.927c-5.218-3.021-11.69-3.021-17.012 0L3.758 68.144C0 70.332 0 75.96 3.861 78.147z" transform="translate(0 22.923)"/><path fill="url(#p)" d="M106.877 99.611L.939 38.448v13.233c0 1.98.94 3.96 2.923 5.002l94.56 54.598c2.61 1.563 5.532 2.292 8.455 2.292 2.922 0 5.844-.729 8.454-2.292l52.29-30.217c1.983-1.146 2.922-3.021 2.922-5.001V62.83l-63.666 36.781z" transform="translate(0 22.923)"/><path fill="#F7F8FB" d="M3.966 66.373l94.56 54.598c5.22 3.022 11.69 3.022 17.013 0l52.29-30.216c3.862-2.189 3.862-7.815 0-10.003L73.27 26.153c-5.219-3.022-11.69-3.022-17.013 0L3.966 56.37c-3.862 2.188-3.862 7.71 0 10.003z"/><g transform="translate(1.044)"><path fill="#3A548C" d="M49.785 146.812l10.437-2.397c3.862-.937 6.367-5.001 3.967-11.774l1.043 3.022c-1.252-3.96-5.636-5.94-9.498-4.272l-12.837 11.461c1.148 3.23 1.252 5.523 6.888 3.96z"/><path fill="#DD5414" d="M48.95 144.52l10.437-2.397a6.935 6.935 0 0 0 5.01-8.752c-1.252-3.96-5.636-5.94-9.498-4.272 0 0-6.784 4.584-8.871 6.356-5.74 5-3.862 10.628 2.922 9.065z"/><path fill="#D5C1A3" d="M56.674 137.851c-1.983 0-3.862-1.354-4.28-3.334l-3.548-14.067c-.626-2.396.835-4.793 3.235-5.418 2.401-.625 4.802.834 5.428 3.23l3.548 14.067c.627 2.396-.835 4.793-3.235 5.418-.418 0-.73.104-1.148.104z"/><path fill="#3A548D" d="M55.421 124.097l-1.983.521c-3.444.834-6.993-1.25-7.828-4.689l-1.148-4.793c-.835-3.438 1.253-6.98 4.697-7.814l1.983-.521c3.444-.834 6.993 1.25 7.828 4.689l1.148 4.793c.835 3.542-1.252 6.98-4.697 7.814z"/><path fill="#3A548C" d="M8.767 159.94l9.916-4.48c3.653-1.667 5.114-6.043 3.235-9.586-1.983-3.647-6.68-4.793-10.124-2.292l-8.872 6.356c-5.531 4.168-.417 12.816 5.845 10.003z"/><path fill="#DD5414" d="M9.915 158.794l9.916-4.48c3.653-1.667 5.114-6.043 3.235-9.586-1.983-3.647-6.68-4.793-10.124-2.292l-8.872 6.356c-5.531 4.167-.521 12.92 5.845 10.002z"/><path fill="#D5C1A3" d="M16.804 151.5c-.835 0-1.566-.208-2.296-.624-2.088-1.25-2.818-3.96-1.566-6.148l6.993-11.67c1.252-2.084 3.966-2.813 6.158-1.563 2.087 1.25 2.818 3.96 1.565 6.148l-6.992 11.67c-.835 1.354-2.297 2.188-3.862 2.188z"/><path fill="url(#q)" d="M6.262 1.25c-.104 0-.104 0 0 0-.835-.104-1.67.209-2.4 1.147-1.566 1.875-2.088 5.105-1.357 7.397.417 1.25 1.148 1.876 1.983 1.98l.835.104-1.148-1.146-.105-.104-.417-.73-.417-1.562.208-3.022 1.461-2.71.627-.416.417-.312 1.044-.417-.73-.209z" transform="translate(75.148 3.126)"/><path fill="#CBD9D9" d="M80.47 15.004l-2.922-.52c-.835-.105-1.565-.73-1.983-1.98-.835-2.293-.209-5.523 1.357-7.398.73-.938 1.67-1.25 2.4-1.147l3.132.521-1.984 10.524z"/><path fill="#FFF" d="M79.949 5.73c-1.566 1.876-2.088 5.106-1.357 7.399.835 2.292 2.713 2.605 4.279.729 1.566-1.875 2.087-5.106 1.357-7.398-.835-2.292-2.714-2.605-4.28-.73z"/><path fill="#DD5414" d="M87.672.625c6.784-1.459 13.151 3.334 15.865 7.815 2.296 3.855.73 5.73 3.444 9.482 3.34 4.48 6.575 3.021 9.393 6.98 3.236 4.585-.104 7.92 3.131 13.65 2.714 4.69 5.95 4.064 7.41 8.024 1.566 4.48-.312 10.94-4.905 13.65-6.575 3.959-15.655-1.564-18.473-7.399-1.88-3.96.521-5.314-.627-11.357-1.356-7.085-11.898-5.21-19.413-7.71-3.966-1.355-.417-10.524-3.027-12.712-3.026-2.605-3.757-7.294-2.922-10.941 1.148-5.106 5.74-8.544 10.124-9.482z"/><path fill="#EEBF8F" d="M63.875 74.292c-.626 0-1.252-.209-1.878-.521-1.67-1.042-2.192-3.23-1.148-4.898 3.13-5.001 5.427-8.44 7.514-11.565 4.593-6.877 7.62-11.358 14.3-25.737.834-1.771 2.922-2.5 4.696-1.667 1.774.834 2.505 2.918 1.67 4.689-6.993 14.9-10.333 19.797-14.82 26.674-1.984 3.022-4.28 6.46-7.307 11.357-.626 1.147-1.879 1.668-3.027 1.668z"/><path fill="#6600F9" d="M84.541 102.841c10.646-2.292 17.534-6.251 24.423-16.463 7.932-11.774 11.69-69.186-20.04-62.1-22.752 5.105 11.481 39.281-20.665 46.367-16.595 3.75 0 35.739 16.282 32.196z"/><path fill="#3A548D" d="M20.144 142.123l-1.67-1.042c-3.027-1.875-3.862-5.939-1.983-8.857l2.713-4.167c1.88-3.022 5.95-3.856 8.872-1.98l1.67 1.042c3.027 1.875 3.862 5.939 1.983 8.857l-2.714 4.167c-1.878 3.022-5.845 3.96-8.871 1.98z"/><path fill="#464982" d="M46.445 114.303c0-.104 0-.104 0 0 0-.104 0-.104 0 0zm-.208-.625c0-.105-.105-.105-.105-.209 0 .104.105.209.105.209zm.521 1.042c.314.416.627.833 1.044 1.146-.417-.313-.835-.73-1.044-1.146zm21.814-39.49h-1.044c-6.262-.313-14.716-.73-20.039 5.834-5.01 6.148-5.427 16.255-1.357 32.093 0 .104.105.208.105.312l9.497-8.335c-2.4-11.879-.626-15.838.418-17.089 1.774-2.188 6.471-1.98 10.855-1.77h1.043a5.657 5.657 0 0 0 5.845-5.315c.104-2.917-2.296-5.522-5.323-5.73z"/><path fill="#313D63" d="M68.572 75.23h-1.044c-6.262-.313-14.716-.73-20.039 5.834-5.01 6.148-5.427 16.255-1.357 32.093 0 .104.105.208.105.312l9.497-8.335c-2.4-11.879-.626-15.838.418-17.089 1.774-2.188 6.471-1.98 10.855-1.77h1.043a5.657 5.657 0 0 0 5.845-5.315c.104-2.917-2.296-5.522-5.323-5.73zm-20.77 40.636c1.044.937 2.296 1.354 3.653 1.354.418 0 .94-.104 1.357-.208 3.027-.73 4.801-3.751 3.966-6.773a98.161 98.161 0 0 0-.626-2.605c-3.653 2.605-6.68 5.21-8.35 8.232z"/><path fill="#464982" d="M46.758 114.72c0-.105-.104-.105-.104-.209 0 .104 0 .104.104.209z"/><path fill="#CBD9D9" d="M55.63 105.134c.209.833.313 1.667.522 2.604l-.522-2.604zm-9.185 9.065c-.104-.209-.208-.313-.208-.521.104.208.104.416.208.52zm.209.312c0-.104-.104-.208-.104-.312 0 .104 0 .208.104.312z"/><path fill="#464982" d="M46.132 113.47c0 .103.105.103.105.208.104.208.104.312.208.52 0 .105.105.209.105.313 0 .104.104.104.104.209v.104c.209.417.626.833 1.044 1.146 1.67-3.126 4.8-5.73 8.454-8.127-.209-.938-.418-1.772-.522-2.605l-9.498 8.231z"/><path fill="#132146" d="M46.132 113.47c0 .103.105.103.105.208.104.208.104.312.208.52 0 .105.105.209.105.313 0 .104.104.104.104.209v.104c.209.417.626.833 1.044 1.146 1.67-3.126 4.8-5.73 8.454-8.127-.209-.938-.418-1.772-.522-2.605l-9.498 8.231z"/><ellipse cx="74.743" cy="87.636" fill="#132146" rx="7.093" ry="14.179" transform="rotate(-35.62 74.743 87.636)"/><path fill="#570CBF" d="M72.12 76.584l-.521-1.146c9.602-4.48 14.716-8.023 17.012-11.879 2.192-3.75 1.984-8.023 1.67-13.858-.208-3.23-.417-6.772-.313-11.044h1.253c-.105 4.272.104 7.814.313 10.94.313 6.044.626 10.524-1.774 14.588-2.505 4.167-7.828 7.814-17.64 12.399z"/><path fill="#EEBF8F" d="M99.049 34.072c3.548-1.875 4.279-4.48 1.356-6.46-2.922-1.98-8.245-2.292-11.898-.73-3.653 1.563-3.235 3.856-1.879 7.086 3.758 9.377 5.636 3.75 12.42.104z"/><path fill="#E79D70" d="M92.89 32.926c-1.565 0-3.026-1.042-3.444-2.605l-3.13-11.878c-.523-1.876.626-3.856 2.504-4.377 1.879-.52 3.862.626 4.384 2.501l3.131 11.878c.522 1.876-.626 3.856-2.505 4.377-.313 0-.626.104-.94.104z"/><ellipse cx="89.133" cy="13.129" fill="#EEBF8F" rx="10.646" ry="10.628"/><path fill="#DD5414" d="M78.487 10.42c.94 2.292 5.532 2.813 8.35 2.5 3.027-.312 4.488-.312 6.367 0 4.592.625 4.592 7.294 7.306 6.981 1.565-.208 2.505-2.917 2.818-4.48.94-4.897-2.505-10.315-6.993-12.816-1.044-.625-5.95-3.126-11.063-1.042-4.28 1.667-7.933 6.252-6.785 8.857z"/><path fill="#464982" d="M79.114 89.296c-.835-2.918-3.966-4.585-6.889-3.751-4.592 1.354-9.185 3.334-13.777 5.835 0 0 5.532 2.5 6.262 5.73.627 2.814 3.967 1.668 4.697 1.355.104 0 .104 0 .209-.104 2.296-.938 4.28-1.667 5.845-2.084 2.818-.938 4.488-4.064 3.653-6.981z"/><path fill="#132146" d="M79.114 89.296c-.835-2.918-3.966-4.585-6.889-3.751-4.592 1.354-9.185 3.334-13.777 5.835 0 0 5.532 2.5 6.262 5.73.627 2.814 3.967 1.668 4.697 1.355.104 0 .104 0 .209-.104 2.296-.938 4.28-1.667 5.845-2.084 2.818-.938 4.488-4.064 3.653-6.981z"/><path fill="#313D63" d="M64.71 97.006c-.73-3.23-6.262-5.73-6.262-5.73-4.07 2.188-8.14 4.897-11.898 7.918-9.602 7.503-18.057 17.193-25.258 28.654-1.67 2.605-.835 6.044 1.774 7.71.94.522 1.983.834 2.923.834a5.51 5.51 0 0 0 4.696-2.605c13.464-21.672 29.016-31.258 38.722-35.426-.835.417-4.07 1.459-4.697-1.355z"/><path fill="#570CBF" d="M100.614 77.73l-10.02 5.21c6.785 4.168 5.323 10.524 5.323 10.524l9.707-6.877c.209-3.335-1.461-6.773-5.01-8.857z"/><path fill="#7549F6" d="M90.595 82.94s5.01 6.147 5.322 10.524c0 0 1.462-6.252-5.322-10.524z"/><path fill="#76AAAA" d="M84.854 81.69v-1.042h-.209l-.104.208c-.104-.104-.209-.313-.418-.313L56.57 64.601c-1.043-.625-2.191-.625-3.235 0l-19.309 11.15 29.746 17.192c.94.52 2.087.52 3.027 0l17.22-10.003c.418-.209.626-.73.73-1.146l.105-.104z"/><path fill="#CBD9D9" d="M84.123 79.397L56.57 63.56c-1.043-.625-2.191-.625-3.235 0l-19.31 11.15 31.312 18.025 18.786-10.836c.94-.521.94-1.98 0-2.5zm1.044-66.373s8.037.313 8.767 3.96c.731 3.647-.208 6.356-3.653 6.773 2.088 0 5.323-1.667 6.993-3.751 0 0 .94-7.607.21-8.128-.732-.52-12.317 1.146-12.317 1.146z"/><path fill="#570CBF" d="M103.223 50.64s1.88 21.88-16.386 22.297l-8.558 5.106s9.81 3.021 19.517 1.146c19.83-3.855 11.272-35.948 11.272-35.948l-5.845 7.398z"/><path fill="#8BD7B6" d="M72.434 74.708l-4.697 2.71a1.604 1.604 0 0 1-1.67 0l-6.993-4.064c-.417-.209-.417-.834 0-1.042l4.697-2.71a1.604 1.604 0 0 1 1.67 0l6.993 4.064c.417.209.417.834 0 1.042z"/><path fill="#76AAAA" d="M50.307 69.603l-1.565.938-2.192-1.25 1.67-.939zm2.713 1.563l-1.565.937-2.192-1.25 1.566-.938zm2.61 1.563l-1.566.833-2.191-1.25 1.565-.834z"/><path fill="#73BA9D" d="M58.344 74.187l-1.67.938-2.088-1.25 1.566-.938zm2.609 1.563l-1.566.938-2.191-1.25 1.565-.938zm2.609 1.563l-1.565.834-2.088-1.25 1.566-.834zm2.714 1.459l-1.566.938-2.191-1.25 1.565-.938z"/><path fill="#73BA9D" d="M71.599 81.898l-1.566.938-5.323-3.126 1.566-.938zm2.609 1.459l-1.565.937-2.192-1.25 1.565-.938zm2.609 1.563l-1.565.937-2.088-1.25 1.566-.938z"/><path fill="#76AAAA" d="M45.923 72l-1.565.937-2.088-1.25 1.566-.938zm2.714 1.562l-1.565.938-2.192-1.25 1.565-.938zm2.609 1.563l-1.565.834-2.192-1.146 1.566-.938zm2.714 1.459l-1.67.938-2.087-1.25 1.565-.938zm2.61 1.563l-1.566.938-2.192-1.25 1.566-.938zm2.609 1.563l-1.566.833-2.087-1.146 1.565-.938z"/><path fill="#73BA9D" d="M61.892 81.169l-1.565.937-2.192-1.25 1.566-.938zm2.61 1.562l-1.566.938-2.192-1.25 1.67-.938zm2.713 1.563l-1.565.938-2.192-1.25 1.565-.938zm2.61 1.459l-1.566.938-2.192-1.25 1.566-.834zm2.818 1.667l-1.67.834-2.192-1.25 1.565-.938z"/><path fill="#76AAAA" d="M43.21 73.666l-1.566.834-2.192-1.25 1.566-.834zm2.61 1.459l-1.566.938-2.192-1.25 1.67-.938zm2.713 1.563l-1.566.938-2.192-1.25 1.566-.938zm2.609 1.563l-1.565.834-2.192-1.25L48.95 77zm2.714 1.459l-1.67.938-2.088-1.25 1.566-.939zm2.609 1.563l-1.566.937-2.191-1.25 1.565-.938zm2.609 1.563l-1.565.833-2.088-1.25 1.566-.834zm2.714 1.458l-1.566.938-2.191-1.25 1.565-.938z"/><path fill="#73BA9D" d="M64.397 85.857l-1.565.938-2.192-1.25 1.67-.938zm2.713 1.563l-1.565.834-2.191-1.25 1.565-.834zm2.715 1.563l-1.566.938-2.296-1.355 1.565-.937z"/><path fill="#76AAAA" d="M48.846 71.27l-1.566.833-2.818-1.562 1.566-.938zm2.714 1.459l-1.566.937-2.192-1.25 1.566-.938zm2.609 1.563l-1.566.937-2.192-1.25 1.67-.938zm2.714 1.563l-1.566.937-2.192-1.25 1.566-.938z"/><path fill="#73BA9D" d="M59.492 77.313l-1.566.938-2.192-1.25 1.566-.834zm2.713 1.563l-1.67.938-2.087-1.25 1.566-.938zm2.61 1.564l-1.566.937-2.192-1.25 1.566-.938zm2.609 1.458l-1.566.938-2.087-1.25 1.566-.834zm2.714 1.562l-1.566.939-2.192-1.25 1.566-.939zm2.609 1.564l-1.566.938-2.191-1.25 1.67-.939zm1.983 1.146l-1.566.938-1.46-.938 1.565-.834z"/><path fill="#E08C79" d="M102.075 40.949c-2.191 2.917-2.818 6.877-1.565 8.752 1.357 1.98 4.175 1.147 6.367-1.77 2.191-2.918 2.818-6.878 1.565-8.753-1.252-1.876-4.28-1.147-6.367 1.771z"/><path stroke="#FFF" d="M88.403 20.527s3.34 1.98 6.366-.626"/><path fill="url(#r)" d="M9.707 2.292c-.627-.52-1.566-.625-2.714-.208-2.296.833-4.384 3.438-4.801 5.73-.209 1.251.104 2.189.835 2.71l.626.52-.417-1.562v-.938l.417-1.563 1.67-2.605 2.61-1.667h1.355l1.148.208-.73-.625z" transform="translate(92.89 11.462)"/><path fill="#CBD9D9" d="M103.328 14.379l-2.4-1.98c-.627-.52-1.566-.625-2.61-.208-2.296.833-4.384 3.438-4.801 5.73-.209 1.251.104 2.189.835 2.71l2.296 1.875 6.68-8.127z"/><path fill="#FFF" d="M100.719 14.17c-2.297.834-4.384 3.44-4.802 5.731-.417 2.397 1.044 3.647 3.34 2.814 2.297-.834 4.384-3.439 4.801-5.731.418-2.397-1.148-3.647-3.34-2.813z"/><path fill="#EEBF8F" d="M109.068 43.241c-.417-1.875-2.296-3.126-4.279-2.709-1.879.417-3.131 2.292-2.714 4.272 2.714 12.191 2.401 19.797-.939 23.34-3.131 3.334-9.602 4.064-21.814 2.5 0 0-2.296-.52-3.757-1.145-1.461-.73-3.235-2.501-3.862-2.397-.626.208-.626 1.042.209 1.771.835.73 1.67 1.25 1.67 1.25s-6.054-.52-9.707 1.46c-2.818 1.458-.73 3.855 2.401 4.793 1.044.312 10.333 1.146 10.333 1.146 5.218.729 9.393 1.042 13.046 1.042 1.461 0 2.923-.105 4.175-.209 5.532-.52 9.707-2.292 12.525-5.418 2.713-2.917 4.175-6.773 4.488-11.878.417-4.69-.21-10.524-1.775-17.818z"/><path fill="#FFF" d="M105.207 98.048c-2.401 0-4.175-1.667-6.471-3.855-3.236-3.126-7.62-7.294-16.804-10.211-.105 0-.105-.104-.105-.209 0-.104.105-.104.21-.104 9.184 2.918 13.672 7.19 16.907 10.211 3.027 2.814 4.801 4.585 8.246 3.439l.626-.209c3.653-1.146 6.053-1.875 6.575-3.542.418-1.146-.313-2.813-2.192-5.418-4.07-5.419-2.713-14.484-1.252-24.07.94-5.939 1.879-12.086 1.357-17.088-.626-6.772-4.384-10.836-7.932-14.795-3.236-3.543-6.158-6.877-6.158-11.67 0-.105.104-.209.208-.209.105 0 .21.104.21.209 0 4.688 2.922 8.023 6.157 11.461 3.444 3.855 7.306 8.127 7.932 15.004.522 5.106-.417 11.253-1.357 17.193-1.356 9.169-2.818 18.546 1.149 23.86 1.983 2.605 2.609 4.377 2.191 5.627-.521 1.771-3.026 2.5-6.784 3.751l-.626.208a5.316 5.316 0 0 1-2.087.417z"/><path fill="#FFF" d="M82.558 84.19s-.104 0 0 0l-.94-.312c-.104 0-.208-.209-.208-.313 0-.104.209-.208.313-.208l.835.208c.104 0 .209.208.209.313 0 .312-.105.312-.21.312z"/><path fill="#457A88" d="M79.218 5.314s.626-.834 1.357-1.146c0 0 1.774-2.5 3.653-2.397h-1.774l-2.088 1.355-1.148 1.771v.417z"/><path fill="#76AAAA" d="M86.42 1.98c-.105-.104-.313-.104-.418-.209-.104 0-.104 0-.209-.104-.104 0-.104 0-.208-.104-.105 0-.209 0-.209-.104h-.209c-.104 0-.209 0-.313-.104h-1.879c-.835.104-1.565.312-2.087.729-.94.625-1.67 1.771-1.879 3.126h.418c.94-2.813 3.548-3.96 7.201-2.5C91.43 4.584 95.813 9.69 97.17 14.9l.313.104C96.126 9.69 91.325 3.855 86.42 1.98z"/><path fill="#FFF" d="M82.871 1.459h1.879c.104 0 .208 0 .313.104h.209c.104 0 .104 0 .208.104.105 0 .105 0 .21.104.103 0 .103 0 .208.105.104 0 .313.104.417.208 5.01 1.875 9.707 7.71 10.96 13.129.521-.626 1.252-1.355 2.087-1.772C98.005 8.127 93.412 2.501 88.507.73c-2.192-.833-4.175-.729-5.532 0L80.68 2.19c.626-.418 1.357-.626 2.192-.73z"/><g><path fill="#76AAAA" d="M24.632 55.328l9.393 19.38 31.312 18.026-9.08-19.589c-.418-.833-.94-1.458-1.775-1.875L25.989 54.807c-1.149-.73-1.462.313-1.357.521z"/><path fill="#8BD7B6" d="M54.064 71.478L25.258 54.807a.46.46 0 0 0-.626.625l9.393 20.214s0 .104.105.104l29.85 17.193c.417.208.94-.209.73-.626l-8.767-18.755a5.149 5.149 0 0 0-1.879-2.084z"/></g></g><path fill="url(#s)" d="M99.675 110.24c-.418.208-.418.624 0 .833l6.68 3.855c.417.208 1.043.208 1.356 0l15.134-8.752c.418-.209.418-.626 0-.834l-6.68-3.855c-.417-.209-1.043-.209-1.356 0l-15.134 8.752z" opacity=".8"/><path fill="url(#t)" d="M99.362 109.093v.834c0 .208.104.312.313.416l6.68 3.856c.417.208 1.043.208 1.356 0l15.134-8.753c.21-.104.313-.312.313-.417v-.833l-6.992-3.439c-.418-.208-1.044-.208-1.357 0l-15.447 8.336z"/><path fill="url(#u)" d="M99.675 108.78c-.418.209-.418.626 0 .834l6.68 3.855c.417.209 1.043.209 1.356 0l15.134-8.752c.418-.209.418-.625 0-.834l-6.68-3.855c-.417-.208-1.043-.208-1.356 0l-15.134 8.752z"/><path fill="#303D63" d="M101.554 108.155l7.306 4.168 12.837-7.398-7.306-4.168z"/><path fill="#FFF" d="M99.675 109.301l6.68 3.856c.417.208 1.043.208 1.356 0l15.134-8.753c.105-.104.21-.104.21-.208.103.208 0 .417-.314.52l-15.134 8.753c-.417.209-1.044.209-1.357 0l-6.68-3.855c-.313-.208-.313-.417-.208-.625.104.104.104.208.313.312z" opacity=".3"/><path fill="#40418A" d="M117.94 102.112c0 .104-.104.104 0 0l1.148.73h.104s.105-.105 0-.105l-1.148-.625h-.104z"/><path fill="#FFF" d="M106.355 113.47c.417.208 1.043.208 1.356 0l15.134-8.753c.418-.209.418-.625 0-.834l-6.68-3.855c-.417-.208-1.043-.208-1.356 0l-8.454 13.441z" opacity=".2"/><path fill="url(#v)" d="M102.91 110.552c-.104 0-.104.104 0 .208l.731.417h.313l.73-.417c.105 0 .105-.104 0-.208l-.73-.417h-.313l-.73.417z" opacity=".6"/><path fill="url(#w)" d="M102.91 110.448c-.104 0-.104.104 0 .208l.731.417h.313l.73-.417c.105 0 .105-.104 0-.208l-.73-.417h-.313l-.73.417z"/><ellipse cx="89.029" cy="21.152" fill="#CBD9D9" rx="1.252" ry="1.25"/><ellipse cx="89.029" cy="20.631" fill="#FFF" rx="1.252" ry="1.25"/></g><path fill="#A1470F" fill-rule="nonzero" d="M171.882 161.617c1.044-.52 2.192-.625 3.444-.416 10.124 1.667 21.605 10.42 29.537 21.985 1.462 2.188.835 5.21-1.565 6.46h-.105l-5.218 3.022v-3.439c-.418-.312-.73-.625-1.044-.937-3.131-4.377-6.784-7.71-10.854-10.003-3.132-1.876-6.054-2.71-8.559-2.71-3.131 0-6.054-1.666-7.62-4.376-.208-.416-.417-.729-.625-1.146-.522-.833-.73-1.667-.835-2.5-.835-.521-1.67-1.25-2.61-2.397l5.219-3.022c.313-.208.626-.416.835-.52zm1.879 26.466l2.713 1.98v.834c0 5.939 4.28 13.128 9.498 16.15.522.312.94.52 1.461.73l-.313 3.333 5.636-3.23c.105 0 .105-.104.209-.104.209-.104.418-.208.522-.417 1.252-1.042 2.087-2.917 2.087-5.418 0-3.23-1.357-6.98-3.34-10.107-1.67-2.5-3.757-4.689-6.157-6.043-2.505-1.459-4.802-1.667-6.472-.938-.104.104-.313.104-.417.209l-5.427 3.021zm-22.231-45.638l3.34.313c-.21 1.25 0 2.71.73 3.96l1.461 2.396c1.879 3.126 5.532 4.689 9.185 4.168 5.95-.834 12.629.833 20.04 5.21 8.766 5.105 16.49 12.607 23.065 22.506.418.625.94 1.146 1.566 1.563v3.334l5.323-3.126h.104c2.296-1.25 3.027-4.168 1.67-6.356-7.619-11.67-16.49-21.047-26.615-28.028-11.69-8.023-22.23-11.358-31.52-10.212-.94.105-1.774.417-2.4.938l-5.95 3.334zm-9.08-22.818c-.731 1.77-.627 3.855.521 5.73.313.521.626 1.042.94 1.46 1.982 3.23 5.844 4.896 9.497 4.063 9.602-2.293 20.561.104 32.877 7.19 13.986 8.127 26.093 20.422 36.635 36.468l.313 4.584 5.427-3.125c2.714-1.46 3.549-4.898 1.879-7.398-11.377-17.505-24.632-31.363-39.766-41.262-16.177-10.42-30.58-14.275-43.314-11.878a9.583 9.583 0 0 0-2.4.938l-4.906 2.813 2.296.417z"/><g fill="#F3C4AE"><path d="M145.058 116.397c.731-.417 1.462-.834 2.401-.938 12.733-2.397 27.241 1.458 43.419 11.982 13.777 8.961 25.884 21.152 36.53 36.469.208 1.98-.731 4.063-2.714 5.105l-3.966 2.293c-.522-.834-1.148-1.563-1.67-2.397l-.104-1.354c-10.438-16.15-22.65-28.342-36.635-36.469-12.316-7.19-23.275-9.482-32.877-7.19-2.61.626-5.219 0-7.306-1.562 0-.938.104-1.772.418-2.605l-2.401-.521 4.905-2.813z"/><path d="M157.374 139.007a5.274 5.274 0 0 1 2.4-.938c9.394-1.146 19.831 2.084 31.521 10.211 8.663 5.94 16.49 13.754 23.275 23.236 0 1.667-.835 3.23-2.296 4.064h-.105l-4.8 2.709c-.21-.313-.418-.521-.627-.834v-2.188a5.586 5.586 0 0 1-1.565-1.563c-6.68-9.794-14.404-17.4-23.067-22.506-7.41-4.376-14.09-6.043-20.039-5.21-2.714.417-5.323-.312-7.306-1.98 0-.52 0-.937.104-1.458l-1.46-.105c-.105-.208-.314-.416-.418-.625l-.209-.312 4.592-2.501zm16.386 49.076l5.324-3.126c.104-.104.313-.104.417-.208 1.67-.73 3.966-.521 6.471.938 2.296 1.354 4.488 3.542 6.158 6.043 1.044 1.667 1.983 3.439 2.505 5.21-.209.312-.522.625-.835.938-.209.104-.417.312-.522.416-.104 0-.104.105-.209.105l-5.636 3.23.313-3.335a9.55 9.55 0 0 1-1.46-.729c-3.863-2.292-11.064-4.793-12.525-9.482z"/><path d="M166.455 164.743l4.592-2.709c.209-.208.522-.312.835-.52 1.044-.417 2.192-.626 3.444-.417 8.872 1.458 18.683 8.335 26.302 17.609-.105 1.458-.835 2.917-2.296 3.646h-.105l-4.696 2.71-.627-.626v-2.396c-.417-.313-.73-.625-1.043-.938-3.131-4.376-6.784-7.71-10.855-10.003-3.131-1.875-6.054-2.709-8.558-2.709-2.714-.104-5.323-1.354-6.993-3.647z"/><path d="M179.397 175.58c.208-.104.313-.209.522-.313 1.67-.73 3.966-.52 6.47.938 2.297 1.354 4.489 3.543 6.159 6.043.417.521.73 1.146 1.043 1.772-2.296-2.397-4.696-4.377-7.306-5.835-2.505-1.355-4.8-2.293-6.888-2.605z"/></g><path d="M182.006 199.44c1.461 1.772 3.131 3.335 4.905 4.377.522.312.94.52 1.462.73l-.313 3.333 5.636-3.23c.104 0 .104-.104.208-.104.21-.104.418-.208.522-.417.418-.312.73-.729 1.044-1.25-.209 1.98-.835 3.543-1.983 4.48-.209.105-.418.313-.522.417-.104 0-.104.104-.209.104l-5.636 3.23.313-3.334a9.55 9.55 0 0 1-1.46-.73c-2.088-1.25-4.071-3.125-5.637-5.313.626-.73 1.253-1.459 1.67-2.292zm-.209-26.778a19.628 19.628 0 0 1 5.428 2.293c4.07 2.396 7.619 5.73 10.854 10.002.313.417.626.73 1.044.938v3.439l5.219-3.022h.104a6.7 6.7 0 0 0 1.357-1.042 4.208 4.208 0 0 1-2.296 4.272h-.105l-5.218 3.022v-3.439c-.418-.312-.731-.625-1.044-.938-3.131-4.376-6.784-7.71-10.855-10.002a21.92 21.92 0 0 0-3.13-1.563c-.418-1.355-.94-2.605-1.358-3.96zm-7.723-22.402c4.07.625 8.454 2.292 13.15 5.106 8.768 5.105 16.491 12.607 23.067 22.506.417.625.94 1.146 1.565 1.563v3.334l5.323-3.126h.105c.521-.312.939-.625 1.356-1.146.21 1.772-.626 3.439-2.296 4.376h-.104L210.917 186v-3.334a5.586 5.586 0 0 1-1.566-1.563c-6.68-9.794-14.403-17.4-23.066-22.506-3.966-2.293-7.723-3.855-11.376-4.689-.313-1.25-.626-2.5-.835-3.647zm-6.576-22.923c6.158.938 12.734 3.543 19.727 7.606 13.985 8.128 26.092 20.423 36.634 36.469l.313 4.585 5.427-3.126c.731-.417 1.357-.938 1.775-1.563.104 1.875-.94 3.855-2.714 4.793l-5.427 3.126-.313-4.585c-10.437-16.15-22.649-28.341-36.635-36.469-6.053-3.542-11.69-5.835-17.117-7.085-.417-1.25-1.043-2.5-1.67-3.75z" fill="#E57D4C"/><g fill="#DD5414"><path d="M171.151 193.918c0 5.94 4.28 13.129 9.498 16.15 3.027 1.772 5.74 1.772 7.515.209 1.252-1.042 2.087-2.918 2.087-5.418 0-3.23-1.356-6.981-3.34-10.107-1.67-2.501-3.757-4.69-6.157-6.044-2.505-1.458-4.802-1.667-6.471-.937-.105.104-.314.104-.418.208-1.774 1.042-2.714 3.126-2.714 5.94zm-7.201-20.839c.208.417.417.73.626 1.146 1.566 2.71 4.488 4.272 7.62 4.376 2.608 0 5.426.938 8.558 2.71 4.07 2.396 7.619 5.73 10.75 10.002 1.461 1.98 4.07 2.501 6.262 1.355h.104c2.297-1.25 3.027-4.272 1.566-6.46-7.932-11.566-19.413-20.318-29.537-21.986-4.801-.729-8.454 4.48-5.95 8.857z"/><path d="M210.917 185.79c2.4-1.25 3.131-4.167 1.67-6.355-7.62-11.67-16.49-21.048-26.615-28.029-11.69-8.023-22.231-11.357-31.52-10.21-4.07.52-6.262 5.105-4.175 8.647l1.461 2.397c1.879 3.126 5.532 4.689 9.185 4.168 5.95-.834 12.629.833 20.04 5.21 8.767 5.105 16.49 12.607 23.065 22.506 1.566 2.188 4.488 2.917 6.889 1.667z"/><path d="M137.648 128.483c.313.521.626 1.042.94 1.459 1.982 3.23 5.844 4.897 9.497 4.064 9.602-2.293 20.561.104 32.877 7.19 13.986 8.126 26.198 20.421 36.635 36.572 1.252 1.875 3.653 2.5 5.636 1.459h.104c2.714-1.46 3.549-4.898 1.879-7.398-11.377-17.505-24.632-31.363-39.766-41.262-16.177-10.524-30.58-14.379-43.418-11.982-4.488.833-6.68 5.939-4.384 9.898z"/></g></g></g></svg>
