<svg xmlns="http://www.w3.org/2000/svg" xmlns:xlink="http://www.w3.org/1999/xlink" width="374" height="530">
  <defs>
    <path id="a" d="M0 0h374v553H0z"/>
    <path id="c" d="M.537.382h785.597V1079.59H.537z"/>
  </defs>
  <g fill="none" fill-rule="evenodd">
    <mask id="b" fill="#fff">
      <use xlink:href="#a"/>
    </mask>
    <g mask="url(#b)">
      <g transform="scale(1 -1) rotate(-67 -216.885 405.032)">
        <mask id="d" fill="#fff">
          <use xlink:href="#c"/>
        </mask>
        <g mask="url(#d)">
          <path fill="#3BBC9E" d="M632.464 456.942l43.979-.47.001-.174c.963.043 1.916.13 2.897.116 29.245-.382 54.74-25.597 56.946-56.323l4.5-62.694c17.326-241.389 78.772-1097.29 78.772-1097.29L212.084-158.89l-44.649 621.917 465.029-6.084z"/>
          <path fill="#57D9B7" fill-rule="nonzero" d="M39.193 1056.198c95.667-1.36 123.394-41.43 192.568-109.893L705.05 477.88c17.769-17.586 27.917-40.314 29.557-62.994.53-7.29 1.16-15.876 1.16-15.876-2.233 30.68-27.703 55.888-56.887 56.304-.55.008-1.078-.051-1.622-.062-.396.027-.802.099-1.198.116l-.006.005-.07.003c-.075.002-17.553.265-43.778.602L9.53 464.835-796.367 476.3l-43.336 592.604 878.896-12.707z"/>
        </g>
      </g>
    </g>
  </g>
</svg>
