<svg width="46" height="59" xmlns="http://www.w3.org/2000/svg"><g fill-rule="nonzero" fill="none"><path d="M42.496 59H3.512C1.577 59 0 57.443 0 55.527V10.74c0-.696.21-1.371.61-1.95L5.6 1.52A3.521 3.521 0 0 1 8.489 0h.019a3.52 3.52 0 0 1 2.882 1.489l3.694 5.254c.24.34.57.363.722.37.14 0 .486-.039.715-.378L20.1 1.52A3.521 3.521 0 0 1 22.989 0h.019a3.52 3.52 0 0 1 2.882 1.489l3.591 5.246c.232.34.58.378.717.378h.003a.863.863 0 0 0 .717-.37l3.694-5.254c.66-.939 1.664-1.5 2.904-1.489a3.523 3.523 0 0 1 2.884 1.52l4.997 7.273c.393.576.604 1.249.604 1.95v44.786C46.005 57.443 44.431 59 42.496 59zM8.506 2.605h-.005a.864.864 0 0 0-.717.38l-4.992 7.27a.836.836 0 0 0-.155.485v44.787c0 .477.393.866.875.866h38.981a.87.87 0 0 0 .873-.866V10.74a.858.858 0 0 0-.15-.485l-5-7.272a.863.863 0 0 0-.715-.378c-.029.008-.485.031-.722.373l-3.694 5.254a3.52 3.52 0 0 1-2.882 1.489h-.019A3.516 3.516 0 0 1 27.3 8.2l-3.66-5.325a.872.872 0 0 0-.632-.268H23a.864.864 0 0 0-.717.38l-3.578 5.213a3.513 3.513 0 0 1-2.885 1.52c-1.173-.05-2.244-.548-2.903-1.489L9.224 2.978a.863.863 0 0 0-.717-.373z" fill="#FFBE08"/><g fill="#BC104B"><path d="M20.828 45.22h-2.55V32.926H13.75v-2.643h4.527V20c0-.73.572-1.322 1.276-1.322h6.27c5.129 0 8.07 2.596 8.07 7.124s-2.967 7.124-8.14 7.124h-4.925V45.22zm0-14.937h4.925c5.589 0 5.589-3.373 5.589-4.48 0-1.108 0-4.481-5.52-4.481h-4.994v8.96z"/><path d="M13.75 37.642h13.269v2.643h-13.27z"/></g></g></svg>