<svg width="64" height="64" xmlns="http://www.w3.org/2000/svg"><g fill-rule="nonzero" fill="none"><path d="M8 31.653c0-2.32 1.296-4.04 3.224-4.941-1.624-.875-2.645-2.43-2.645-4.315 0-2.92 2.618-4.941 6.088-4.941 3.472 0 6.09 2.021 6.09 4.941 0 1.886-1.021 3.44-2.645 4.315 1.928.901 3.221 2.621 3.221 4.941 0 3.414-2.725 5.68-6.666 5.68-3.939 0-6.667-2.266-6.667-5.68zm10.47-.189c0-2.021-1.707-3.47-3.803-3.47-2.094 0-3.8 1.449-3.8 3.47s1.65 3.467 3.8 3.467c2.149 0 3.802-1.446 3.802-3.467zm-3.803-5.816c1.762 0 3.28-1.147 3.28-3.003s-1.598-3.005-3.28-3.005c-1.68 0-3.278 1.147-3.278 3.003s1.515 3.005 3.278 3.005zM28.997 37.333a5.674 5.674 0 0 1-5.666-5.669v-8.539a5.676 5.676 0 0 1 5.666-5.669 5.678 5.678 0 0 1 5.67 5.67v8.538a5.677 5.677 0 0 1-5.67 5.67zm0-17.21c-1.656 0-3 1.346-3 3.002v8.539a3.005 3.005 0 0 0 3 3.003A3.006 3.006 0 0 0 32 31.664v-8.539a3.006 3.006 0 0 0-3.003-3.002zM42.33 37.333a5.677 5.677 0 0 1-5.669-5.669v-8.539a5.677 5.677 0 0 1 5.67-5.669A5.677 5.677 0 0 1 48 23.126v8.538a5.677 5.677 0 0 1-5.67 5.67zm0-17.21a3.006 3.006 0 0 0-3.002 3.002v8.539a3.006 3.006 0 0 0 3.003 3.003 3.006 3.006 0 0 0 3.002-3.003v-8.539a3.006 3.006 0 0 0-3.002-3.002z" fill="#FF4F12"/><path d="M64 13.379V1.352C64 .605 63.395 0 62.648 0h-6.63v2.704h5.278v7.973h-5.277v2.704h5.277L64 13.38z" fill="#70F"/><path d="M61.296 42.648h-5.277v2.704h6.629c.747 0 1.352-.605 1.352-1.352V32h-2.704v10.648z" fill="#FFBE08"/><path d="M61.296 32.005h-5.277v2.704h6.629c.747 0 1.352-.605 1.352-1.352V21.35h-2.704v10.656z" fill="#BC104B"/><path d="M61.296 21.36h-5.277v2.704h6.629c.747 0 1.352-.605 1.352-1.352v-9.333h-2.704v7.981z" fill="#FF4F12"/><g fill="#65BBDF"><path d="M14.667 0v2.704h38.648v58.595H9.357V64h45.31c.746 0 1.352-.605 1.352-1.352V0H14.667zM0 14.949h2.704v39.677H0z"/><path d="M2.704 61.296v-6.67H0v8.022C0 63.395.605 64 1.352 64h8.005v-2.704H2.704zM2.704 2.704v12.248H0v-13.6C0 .605.605 0 1.352 0h13.317v2.704H2.704z"/></g></g></svg>