<svg width="63" height="42" xmlns="http://www.w3.org/2000/svg"><g fill-rule="nonzero" fill="none"><g fill="#FF4F12"><path d="M2 2.896l43.916-.006v4.876h2v-5.13c0-.952-.772-1.724-1.724-1.724L1.72.918c-.948 0-1.716.77-1.716 1.718V22.11H2V2.896zM30.142 30.234l-21.346.002L0 37.004v2.478l9.396-7.254 20.746-.004z"/></g><path d="M46.462 19.39a6.503 6.503 0 0 0-6.494 6.496 6.501 6.501 0 0 0 6.494 6.494 6.502 6.502 0 0 0 6.494-6.494c0-3.58-2.914-6.496-6.494-6.496zm0 10.99a4.5 4.5 0 0 1-4.494-4.494 4.5 4.5 0 0 1 4.494-4.496 4.5 4.5 0 0 1 4.494 4.496 4.498 4.498 0 0 1-4.494 4.494z" fill="#57D9B7"/><path d="M60.204 22.764l-2.27-.378c-.148-.494-.33-.976-.54-1.44l1.46-1.81c.706-.87.676-2.11-.068-2.952l-1.158-1.302a2.277 2.277 0 0 0-2.918-.414l-1.94 1.218a11.795 11.795 0 0 0-2.794-1.258l-.378-2.286a2.273 2.273 0 0 0-2.252-1.91h-1.738a2.268 2.268 0 0 0-2.25 1.906l-.382 2.29c-.738.226-1.456.524-2.14.89l-1.84-1.314a2.274 2.274 0 0 0-2.94.244l-1.228 1.23a2.276 2.276 0 0 0-.244 2.94l1.318 1.846a11.8 11.8 0 0 0-.878 2.116l-2.302.386a2.27 2.27 0 0 0-1.91 2.25v1.738a2.27 2.27 0 0 0 1.908 2.25l2.302.384c.164.538.36 1.054.586 1.546l-1.446 1.79c-.706.87-.676 2.11.068 2.952l1.154 1.298a2.274 2.274 0 0 0 2.922.416l1.98-1.244c.834.504 1.736.904 2.69 1.192l.382 2.284a2.266 2.266 0 0 0 2.25 1.912h1.738c1.124 0 2.07-.802 2.252-1.908l.38-2.288a11.88 11.88 0 0 0 2.102-.87l1.94 1.384c.914.656 2.148.55 2.942-.242l1.228-1.228a2.263 2.263 0 0 0 .242-2.938l-1.378-1.936c.362-.68.658-1.392.882-2.126l2.272-.378a2.272 2.272 0 0 0 1.906-2.25v-1.74a2.273 2.273 0 0 0-1.91-2.25zm-.09 3.99a.28.28 0 0 1-.234.278l-3.552.592-.156.64a9.975 9.975 0 0 1-1.158 2.788l-.342.562 2.138 2.998a.275.275 0 0 1-.034.356L55.548 36.2a.283.283 0 0 1-.364.03l-2.994-2.138-.562.338a9.902 9.902 0 0 1-2.768 1.144l-.64.158-.594 3.572a.284.284 0 0 1-.28.234h-1.738a.281.281 0 0 1-.278-.236l-.598-3.568-.638-.156a9.878 9.878 0 0 1-3.238-1.436l-.542-.372-3.074 1.93a.287.287 0 0 1-.362-.052l-1.154-1.298a.282.282 0 0 1-.01-.366l2.268-2.808-.314-.584a10.057 10.057 0 0 1-.882-2.324l-.158-.638-3.582-.598a.281.281 0 0 1-.236-.278v-1.738c0-.136.102-.256.236-.278l3.582-.598.158-.636a9.964 9.964 0 0 1 1.156-2.782l.342-.564-2.072-2.902a.28.28 0 0 1 .03-.364l1.228-1.23a.28.28 0 0 1 .364-.03l2.896 2.07.564-.342a9.947 9.947 0 0 1 2.798-1.164l.64-.156.598-3.576a.28.28 0 0 1 .278-.23h1.738c.138 0 .256.098.28.236l.592 3.57.64.158a9.858 9.858 0 0 1 3.33 1.5l.542.38 3.044-1.914a.279.279 0 0 1 .362.052l1.154 1.298a.282.282 0 0 1 .01.366l-2.272 2.814.302.58c.362.696.642 1.446.836 2.232l.156.64 3.552.592h.002a.28.28 0 0 1 .234.278v1.738h.004z" fill="#65BBDF"/></g></svg>