<svg width="53" height="64" xmlns="http://www.w3.org/2000/svg"><g fill-rule="nonzero" fill="none"><path d="M26.98 15.059c-6.583 0-11.921 5.13-11.921 11.459 0 4.23 2.414 7.886 5.96 9.871V32.88c-1.814-1.573-2.98-3.83-2.98-6.36 0-4.738 4.012-8.594 8.941-8.594 4.93 0 8.942 3.856 8.942 8.594 0 2.53-1.166 4.784-2.98 6.36v3.512c3.549-1.985 5.96-5.64 5.96-9.869 0-6.336-5.338-11.464-11.922-11.464z" fill="#BC104B"/><path d="M29.015 23.73a3.687 3.687 0 0 0-2.662-1.142c-.964 0-1.927.381-2.662 1.143-1.47 1.523-1.47 3.993 0 5.517.373.386.807.672 1.27.863V64h2.784V30.11c.462-.19.897-.473 1.27-.862 1.47-1.524 1.47-3.994 0-5.517z" fill="#273A64"/><path d="M26.353 7.53c-10.396 0-18.824 8.352-18.824 18.655 0 8.29 5.462 15.307 13.008 17.737v-3.07c-5.903-2.308-10.1-8.006-10.1-14.667 0-8.698 7.14-15.773 15.916-15.773s15.915 7.075 15.915 15.773c0 6.66-4.193 12.359-10.099 14.667v3.07c7.546-2.43 13.007-9.448 13.007-17.737 0-10.303-8.427-18.656-18.823-18.656z" fill="#FF4F12"/><path d="M26.353 0C11.799 0 0 11.668 0 26.06c0 12.396 8.762 22.75 20.49 25.391v-2.994C10.41 45.874 2.931 36.827 2.931 26.06c0-6.186 2.436-12 6.86-16.375 4.423-4.374 10.306-6.786 16.562-6.786 12.913 0 23.422 10.39 23.422 23.161 0 10.766-7.478 19.814-17.56 22.397v2.994c11.729-2.638 20.49-12.992 20.49-25.39C52.706 11.667 40.908 0 26.354 0z" fill="#BC104B"/></g></svg>