<svg xmlns="http://www.w3.org/2000/svg" xmlns:xlink="http://www.w3.org/1999/xlink" viewBox="0 0 285 190">
  <defs>
    <style>
      .cls-22{mix-blend-mode:multiply}.cls-11{fill:#3a548c}.cls-12{fill:#dd5414}.cls-13{fill:#d5c1a3}.cls-14{fill:#3a548d}.cls-16,.cls-22{fill:#cbd9d9}.cls-17{fill:#fff}.cls-18{fill:#eebf8f}.cls-20{fill:#464982}.cls-21{fill:#313d63}.cls-23{fill:#132146}.cls-24{fill:#570cbf}.cls-27{fill:#76aaaa}.cls-28{fill:#8bd7b6}.cls-29{fill:#73ba9d}
    </style>
    <filter id="luminosity-noclip" x="67.92" y="-6953.07" width="162.5" height="32766" filterUnits="userSpaceOnUse" color-interpolation-filters="sRGB">
      <feFlood flood-color="#fff" result="bg"/>
      <feBlend in="SourceGraphic" in2="bg"/>
    </filter>
    <linearGradient id="_ÂÁ_Ï_ÌÌ_È_ËÂÌÚ_585" x1="118.27" y1="171.47" x2="151.6" y2="113.74" gradientUnits="userSpaceOnUse">
      <stop offset="0"/>
      <stop offset=".23" stop-color="#1a1a1a"/>
      <stop offset=".53" stop-color="#363636"/>
      <stop offset=".8" stop-color="#474747"/>
      <stop offset="1" stop-color="#4d4d4d"/>
    </linearGradient>
    <filter id="luminosity-noclip-2" x="162.18" y="-6953.07" width="22.82" height="32766" filterUnits="userSpaceOnUse" color-interpolation-filters="sRGB">
      <feFlood flood-color="#fff" result="bg"/>
      <feBlend in="SourceGraphic" in2="bg"/>
    </filter>
    <linearGradient id="linear-gradient" x1="-5288.89" y1="617.26" x2="-5294.78" y2="627.44" gradientTransform="matrix(-.66 0 0 .66 -3313.84 -291.24)" gradientUnits="userSpaceOnUse">
      <stop offset="0" stop-color="#999"/>
      <stop offset=".04" stop-color="#ababab"/>
      <stop offset=".13" stop-color="#c9c9c9"/>
      <stop offset=".22" stop-color="#e1e1e1"/>
      <stop offset=".31" stop-color="#f2f2f2"/>
      <stop offset=".42" stop-color="#fcfcfc"/>
      <stop offset=".55" stop-color="#fff"/>
      <stop offset=".63" stop-color="#fafafa"/>
      <stop offset=".72" stop-color="#ededed"/>
      <stop offset=".82" stop-color="#d7d7d7"/>
      <stop offset=".92" stop-color="#b8b8b8"/>
      <stop offset="1" stop-color="#999"/>
    </linearGradient>
    <filter id="luminosity-noclip-3" x="67.92" y="70.27" width="162.5" height="95.35" filterUnits="userSpaceOnUse" color-interpolation-filters="sRGB">
      <feFlood flood-color="#fff" result="bg"/>
      <feBlend in="SourceGraphic" in2="bg"/>
    </filter>
    <mask id="mask-3" x="67.92" y="70.27" width="162.5" height="95.35" maskUnits="userSpaceOnUse">
      <g mask="url(#mask)" filter="url(#luminosity-noclip-3)">
        <path d="M70.7 111.06l90.61 52.38a16.25 16.25 0 0 0 16.27 0l50.06-29a5.57 5.57 0 0 0 0-9.64L137 72.45a16.27 16.27 0 0 0-16.28 0l-50.06 29a5.58 5.58 0 0 0 .04 9.61z" style="mix-blend-mode:multiply" fill="url(#_ÂÁ_Ï_ÌÌ_È_ËÂÌÚ_585)"/>
      </g>
    </mask>
    <linearGradient id="_ÂÁ_Ï_ÌÌ_È_ËÂÌÚ_377" x1="118.27" y1="171.47" x2="151.6" y2="113.74" gradientUnits="userSpaceOnUse">
      <stop offset="0" stop-color="#fff"/>
      <stop offset=".16" stop-color="#d2d3e1"/>
      <stop offset=".36" stop-color="#a1a2bf"/>
      <stop offset=".56" stop-color="#797ba5"/>
      <stop offset=".73" stop-color="#5d6092"/>
      <stop offset=".89" stop-color="#4c4f86"/>
      <stop offset="1" stop-color="#464982"/>
    </linearGradient>
    <linearGradient id="linear-gradient-2" x1="62.08" y1="108.93" x2="252.57" y2="108.93" gradientUnits="userSpaceOnUse">
      <stop offset="0" stop-color="#7549f6"/>
      <stop offset=".68" stop-color="#6600f9"/>
    </linearGradient>
    <linearGradient id="_ÂÁ_Ï_ÌÌ_È_ËÂÌÚ_342" x1="500.15" y1="1502.83" x2="507.12" y2="1502.83" gradientTransform="rotate(-19.85 -3903.201 1788.204)" gradientUnits="userSpaceOnUse">
      <stop offset=".33" stop-color="#ebb381"/>
      <stop offset="1" stop-color="#a36baa"/>
    </linearGradient>
    <linearGradient id="_ÂÁ_Ï_ÌÌ_È_ËÂÌÚ_342-2" x1="-209.83" y1="-620.41" x2="-202.86" y2="-620.41" gradientTransform="rotate(9.89 -3787.58 1839.492)" xlink:href="#_ÂÁ_Ï_ÌÌ_È_ËÂÌÚ_342"/>
    <filter id="luminosity-noclip-4" x="162.18" y="111.35" width="22.82" height="13.17" filterUnits="userSpaceOnUse" color-interpolation-filters="sRGB">
      <feFlood flood-color="#fff" result="bg"/>
      <feBlend in="SourceGraphic" in2="bg"/>
    </filter>
    <mask id="mask-4" x="162.18" y="111.35" width="22.82" height="13.17" maskUnits="userSpaceOnUse">
      <g mask="url(#mask-2)" filter="url(#luminosity-noclip-4)">
        <path d="M162.46 119.89a.41.41 0 0 0 0 .77l6.41 3.7a1.5 1.5 0 0 0 1.34 0l14.51-8.36a.41.41 0 0 0 0-.77l-6.41-3.7a1.5 1.5 0 0 0-1.34 0z" style="mix-blend-mode:multiply" fill="url(#linear-gradient)"/>
      </g>
    </mask>
    <linearGradient id="linear-gradient-3" x1="-5288.89" y1="617.26" x2="-5294.78" y2="627.44" gradientTransform="matrix(-.66 0 0 .66 -3313.84 -291.24)" gradientUnits="userSpaceOnUse">
      <stop offset="0" stop-color="#545a97"/>
      <stop offset=".15" stop-color="#444c90"/>
      <stop offset=".33" stop-color="#3a438b"/>
      <stop offset=".55" stop-color="#37408a"/>
      <stop offset=".73" stop-color="#3c448c"/>
      <stop offset=".92" stop-color="#495092"/>
      <stop offset="1" stop-color="#505695"/>
    </linearGradient>
    <linearGradient id="linear-gradient-4" x1="-5274.53" y1="621.37" x2="-5309.15" y2="621.37" gradientTransform="matrix(-.66 0 0 .66 -3313.84 -291.24)" gradientUnits="userSpaceOnUse">
      <stop offset="0" stop-color="#889bd0"/>
      <stop offset=".56" stop-color="#c1d6fc"/>
      <stop offset="1" stop-color="#fcf6ff"/>
    </linearGradient>
    <linearGradient id="linear-gradient-5" x1="-5298.83" y1="627.17" x2="-5284.84" y2="613.19" gradientTransform="matrix(-.66 0 0 .66 -3313.84 -291.24)" gradientUnits="userSpaceOnUse">
      <stop offset="0" stop-color="#d2defd"/>
      <stop offset="1" stop-color="#fff"/>
    </linearGradient>
    <linearGradient id="linear-gradient-6" x1="-5280.32" y1="626.46" x2="-5281.67" y2="625.1" gradientTransform="matrix(-.66 0 0 .66 -3313.84 -291.24)" gradientUnits="userSpaceOnUse">
      <stop offset="0" stop-color="#5c5fce"/>
      <stop offset=".15" stop-color="#4c51c6"/>
      <stop offset=".33" stop-color="#4248c2"/>
      <stop offset=".55" stop-color="#3f45c0"/>
      <stop offset=".73" stop-color="#4449c2"/>
      <stop offset=".92" stop-color="#5154c9"/>
      <stop offset="1" stop-color="#585acc"/>
    </linearGradient>
    <linearGradient id="linear-gradient-7" x1="-5281.67" y1="626.29" x2="-5280.32" y2="624.93" gradientTransform="matrix(-.66 0 0 .66 -3313.84 -291.24)" gradientUnits="userSpaceOnUse">
      <stop offset="0" stop-color="#dbe3fd"/>
      <stop offset=".02" stop-color="#dde4fd"/>
      <stop offset=".21" stop-color="#e9e9fd"/>
      <stop offset=".46" stop-color="#f1ecfd"/>
      <stop offset="1" stop-color="#f3edfd"/>
    </linearGradient>
  </defs>
  <g style="isolation:isolate">
    <g id="Слой_2" data-name="Слой 2">
      <g id="Layer_8" data-name="Layer 8">
        <path fill="none" d="M0 0h285v190H0z"/>
        <g mask="url(#mask-3)">
          <path d="M70.7 111.06l90.61 52.38a16.25 16.25 0 0 0 16.27 0l50.06-29a5.57 5.57 0 0 0 0-9.64L137 72.45a16.27 16.27 0 0 0-16.28 0l-50.06 29a5.58 5.58 0 0 0 .04 9.61z" fill="url(#_ÂÁ_Ï_ÌÌ_È_ËÂÌÚ_377)"/>
        </g>
        <path d="M169.44 131.6L67.92 72.91v12.66a5.53 5.53 0 0 0 2.78 4.82l90.61 52.38a16.2 16.2 0 0 0 16.27 0l50.06-29a5.51 5.51 0 0 0 2.78-4.83V96.33z" fill="url(#linear-gradient-2)"/>
        <path d="M70.84 77.73l90.6 52.38a16.27 16.27 0 0 0 16.28 0l50.06-29a5.58 5.58 0 0 0 0-9.65l-90.6-52.38a16.22 16.22 0 0 0-16.28 0l-50.06 29a5.57 5.57 0 0 0 0 9.65z" fill="#f7f8fb"/>
        <path class="cls-11" d="M115.73 154.93l10-2.34c3.74-.87 6.09-4.79 3.78-11.27l1 2.85a6.59 6.59 0 0 0-9.07-4l-12.34 11c1.14 3.05 1.17 5.29 6.63 3.76z"/>
        <path class="cls-12" d="M114.93 152.71l10-2.34a6.64 6.64 0 0 0 4.81-8.42 6.61 6.61 0 0 0-9.07-4.06s-6.55 4.42-8.53 6.15c-5.52 4.81-3.76 10.2 2.79 8.67z"/>
        <path class="cls-13" d="M122.35 146.32a4.26 4.26 0 0 1-4.14-3.23l-3.42-13.54a4.27 4.27 0 1 1 8.29-2.09l3.41 13.54a4.27 4.27 0 0 1-3.1 5.19 4.17 4.17 0 0 1-1.04.13z"/>
        <rect class="cls-14" x="110.96" y="116.49" width="14.29" height="17.15" rx="6.18" ry="6.18" transform="rotate(-13.7 118.105 125.065)"/>
        <path class="cls-11" d="M76.44 167.53l9.48-4.28a6.62 6.62 0 0 0 3.08-9.17 6.57 6.57 0 0 0-9.65-2.22L70.9 158c-5.4 3.92-.54 12.29 5.54 9.53z"/>
        <path class="cls-12" d="M77.51 166.47l9.49-4.29a6.62 6.62 0 0 0 3.08-9.18 6.58 6.58 0 0 0-9.65-2.22L72 156.93c-5.43 3.92-.57 12.29 5.51 9.54z"/>
        <path class="cls-13" d="M84.13 159.42a4.29 4.29 0 0 1-3.66-6.48l6.74-11.21a4.27 4.27 0 0 1 7.32 4.41l-6.74 11.21a4.28 4.28 0 0 1-3.66 2.07z"/>
        <path d="M146 18.24a2.55 2.55 0 0 0-2.28 1.1 8 8 0 0 0-1.27 7.09 2.45 2.45 0 0 0 1.95 1.86l.79.14-1.19-1.08-.08-.1-.38-.69-.37-1.49.17-2.94 1.43-2.64.64-.42.45-.3 1-.36z" fill="url(#_ÂÁ_Ï_ÌÌ_È_ËÂÌÚ_342)"/>
        <path class="cls-16" d="M145.1 28.43l-2.82-.5a2.45 2.45 0 0 1-1.95-1.86A8 8 0 0 1 141.6 19a2.54 2.54 0 0 1 2.28-1.11l3 .53z"/>
        <path class="cls-17" d="M144.59 19.51a8 8 0 0 0-1.27 7.09c.78 2.16 2.61 2.49 4.09.74a8 8 0 0 0 1.27-7.09c-.78-2.16-2.61-2.49-4.09-.74z"/>
        <path class="cls-12" d="M152 14.63c6.52-1.36 12.62 3.22 15.15 7.54 2.2 3.74.7 5.52 3.3 9.06 3.16 4.32 6.26 2.88 9 6.71 3.14 4.43-.13 7.63 3 13.12 2.59 4.54 5.7 3.88 7.08 7.75 1.53 4.27-.33 10.51-4.69 13.12-6.26 3.76-15.05-1.49-17.68-7.12-1.77-3.79.49-5.08-.57-10.91-1.25-6.85-11.45-5-18.56-7.4-3.8-1.29-.45-10.09-2.91-12.22-2.86-2.47-3.61-7-2.79-10.5a12.71 12.71 0 0 1 9.67-9.15z"/>
        <path class="cls-18" d="M129.19 85.39a3.41 3.41 0 0 1-2.91-5.21c2.95-4.79 5.18-8.13 7.15-11.08 4.38-6.55 7.27-10.88 13.75-24.72a3.42 3.42 0 0 1 6.19 2.9c-6.7 14.3-9.87 19-14.25 25.61-1.94 2.9-4.13 6.19-7 10.88a3.39 3.39 0 0 1-2.93 1.62z"/>
        <path d="M149 112.79c10.19-2.19 16.77-6 23.39-15.76 7.6-11.27 11.15-66.42-19.22-59.59-21.8 4.91 11 37.66-19.78 44.48-15.9 3.53.03 34.23 15.61 30.87z" fill="#6600f9"/>
        <rect class="cls-14" x="83.93" y="134.16" width="14.29" height="17.15" rx="6.18" ry="6.18" transform="rotate(32.41 91.08 142.755)"/>
        <path class="cls-20" d="M112.53 123.71zM112.3 123.18a1.43 1.43 0 0 1-.08-.22 1.43 1.43 0 0 0 .08.22zM112.8 124.18a5.36 5.36 0 0 0 1 1.11 5.67 5.67 0 0 1-1-1.11zM133.66 86.29l-1-.05c-6-.29-14.11-.69-19.24 5.61-4.79 5.87-5.21 15.65-1.33 30.77a3.37 3.37 0 0 0 .1.34l9.09-8c-2.3-11.38-.55-15.22.41-16.39 1.72-2.12 6.15-1.9 10.44-1.69h1a5.34 5.34 0 1 0 .48-10.67z"/>
        <path class="cls-21" d="M133.66 86.29l-1-.05c-6-.29-14.11-.69-19.24 5.61-4.79 5.87-5.21 15.65-1.33 30.77a3.37 3.37 0 0 0 .1.34l9.09-8c-2.3-11.38-.55-15.22.41-16.39 1.72-2.12 6.15-1.9 10.44-1.69h1a5.34 5.34 0 1 0 .48-10.67zM113.75 125.29a5.36 5.36 0 0 0 3.54 1.35 5.58 5.58 0 0 0 1.33-.17 5.34 5.34 0 0 0 3.85-6.5c-.23-.87-.43-1.71-.62-2.51-3.52 2.35-6.47 4.87-8.1 7.83z"/>
        <path class="cls-20" d="M112.77 124.13l-.11-.17z"/>
        <path class="cls-22" d="M112.8 124.18v-.05zM113.75 125.29zM121.32 115c.16.79.34 1.61.53 2.47zM112.22 122.96zM112.51 123.68a4.4 4.4 0 0 1-.21-.5 4.4 4.4 0 0 0 .21.5zM112.66 124c0-.08-.09-.17-.13-.25z"/>
        <path class="cls-20" d="M112.22 123a1.43 1.43 0 0 0 .08.22 4.4 4.4 0 0 0 .21.5c0 .08.08.17.13.25l.11.17v.05a5.67 5.67 0 0 0 1 1.11c1.63-3 4.58-5.48 8.11-7.8-.19-.86-.37-1.68-.53-2.47z"/>
        <path class="cls-23" d="M112.22 123a1.43 1.43 0 0 0 .08.22 4.4 4.4 0 0 0 .21.5c0 .08.08.17.13.25l.11.17v.05a5.67 5.67 0 0 0 1 1.11c1.63-3 4.58-5.48 8.11-7.8-.19-.86-.37-1.68-.53-2.47z"/>
        <ellipse class="cls-23" cx="139.63" cy="98.15" rx="6.8" ry="13.63" transform="rotate(-35.62 139.62 98.15)"/>
        <path class="cls-24" d="M137.1 87.55l-.52-1.11c9.21-4.26 14.08-7.68 16.31-11.44s1.91-7.69 1.58-13.32c-.18-3-.38-6.51-.27-10.64h1.22c-.11 4.08.09 7.51.27 10.54.35 5.85.59 10.07-1.75 14s-7.4 7.6-16.84 11.97z"/>
        <path class="cls-18" d="M162.93 46.77c3.37-1.79 4.07-4.3 1.28-6.21s-7.89-2.22-11.39-.7-3.12 3.71-1.82 6.84c3.63 8.91 5.41 3.54 11.93.07z"/>
        <path d="M157 45.61a3.4 3.4 0 0 1-3.3-2.54l-3-11.42a3.42 3.42 0 0 1 6.61-1.75l3 11.42a3.43 3.43 0 0 1-2.44 4.18 3.7 3.7 0 0 1-.87.11z" fill="#e79d70"/>
        <ellipse class="cls-18" cx="153.43" cy="26.67" rx="10.21" ry="10.24"/>
        <path class="cls-12" d="M143.16 24.07c.93 2.2 5.29 2.69 8 2.4a22.14 22.14 0 0 1 6.06 0c4.4.59 4.42 7 7 6.69 1.5-.16 2.42-2.85 2.7-4.28.92-4.7-2.36-9.89-6.68-12.34-1-.57-5.67-3.05-10.59-1-4.02 1.63-7.55 6.02-6.49 8.53z"/>
        <path class="cls-20" d="M143.8 99.77a5.34 5.34 0 0 0-6.63-3.61 68.18 68.18 0 0 0-13.2 5.55s5.26 2.39 6 5.48c.64 2.7 3.76 1.61 4.52 1.3l.16-.07a50.65 50.65 0 0 1 5.56-2 5.34 5.34 0 0 0 3.59-6.65z"/>
        <path class="cls-23" d="M143.8 99.77a5.34 5.34 0 0 0-6.63-3.61 68.18 68.18 0 0 0-13.2 5.55s5.26 2.39 6 5.48c.64 2.7 3.76 1.61 4.52 1.3l.16-.07a50.65 50.65 0 0 1 5.56-2 5.34 5.34 0 0 0 3.59-6.65z"/>
        <path class="cls-21" d="M130 107.19c-.72-3.09-6-5.47-6-5.48a83.88 83.88 0 0 0-11.44 7.58 105.87 105.87 0 0 0-24.22 27.51 5.34 5.34 0 0 0 9.06 5.65c12.95-20.77 27.82-30 37.07-34-.76.35-3.88 1.44-4.47-1.26z"/>
        <path class="cls-24" d="M164.38 88.63l-9.57 5c6.48 4 5.05 10.08 5.05 10.08l9.26-6.59a9.07 9.07 0 0 0-4.74-8.49z"/>
        <path d="M154.81 93.67s4.81 5.85 5.05 10.08c0 0 1.43-6.04-5.05-10.08z" fill="#7549f6"/>
        <path class="cls-27" d="M149.26 92.41v-1h-.2l-.09.24a1.35 1.35 0 0 0-.4-.35L122.19 76a3.07 3.07 0 0 0-3.1 0l-18.51 10.72 28.55 16.48a2.91 2.91 0 0 0 2.91 0l16.54-9.55a1.36 1.36 0 0 0 .68-1.09v-.15z"/>
        <path class="cls-16" d="M148.58 90.25L122.19 75a3.07 3.07 0 0 0-3.1 0l-18.51 10.7 30 17.32 18-10.39a1.38 1.38 0 0 0 0-2.38z"/>
        <path class="cls-22" d="M149.65 26.54s7.69.33 8.35 3.8-.18 6.14-3.48 6.52c2 0 5.09-1.6 6.73-3.6 0 0 .92-7.31.2-7.8s-11.8 1.08-11.8 1.08z"/>
        <path class="cls-24" d="M166.89 62.7s1.75 21-15.73 21.36L143 89s9.4 2.83 18.7 1c19-3.67 10.78-34.48 10.78-34.48z"/>
        <path class="cls-28" d="M137.37 85.78l-4.45 2.57a1.6 1.6 0 0 1-1.61 0l-6.73-3.88a.59.59 0 0 1 0-1l4.42-2.58a1.6 1.6 0 0 1 1.61 0l6.72 3.88a.58.58 0 0 1 .04 1.01z"/>
        <path class="cls-27" d="M116.23 80.88l-1.51.88-2.07-1.2 1.51-.87 2.07 1.19zM118.77 82.35l-1.51.87-2.07-1.19 1.51-.87 2.07 1.19zM121.31 83.82l-1.51.87-2.07-1.19 1.51-.88 2.07 1.2z"/>
        <path class="cls-29" d="M123.86 85.29l-1.51.87-2.07-1.2 1.5-.87 2.08 1.2zM126.4 86.75l-1.51.88-2.07-1.2 1.51-.87 2.07 1.19zM128.94 88.22l-1.51.87-2.07-1.19 1.51-.87 2.07 1.19zM131.48 89.69l-1.51.87-2.07-1.2 1.51-.87 2.07 1.2z"/>
        <path class="cls-29" d="M136.59 92.64l-1.51.87-5.11-2.95 1.51-.87 5.11 2.95zM139.11 94.09l-1.51.87-2.07-1.19 1.51-.87 2.07 1.19zM141.65 95.56l-1.51.87-2.07-1.2 1.51-.87 2.07 1.2z"/>
        <path class="cls-27" d="M112.03 83.19l-1.51.87-2.07-1.19 1.51-.87 2.07 1.19zM114.57 84.66l-1.51.87-2.07-1.2 1.51-.87 2.07 1.2zM117.11 86.13l-1.5.87-2.08-1.2 1.52-.87 2.06 1.2zM119.66 87.59l-1.51.88-2.07-1.2 1.51-.87 2.07 1.19zM122.2 89.06l-1.51.87-2.07-1.19 1.51-.87 2.07 1.19zM124.74 90.53l-1.51.87-2.07-1.2 1.51-.87 2.07 1.2z"/>
        <path class="cls-29" d="M127.28 92l-1.51.87-2.07-1.2 1.51-.87 2.07 1.2zM129.82 93.46l-1.51.87-2.07-1.19 1.51-.87 2.07 1.19zM132.37 94.93l-1.51.87-2.08-1.19 1.51-.87 2.08 1.19zM134.91 96.4l-1.51.87-2.07-1.19 1.51-.88 2.07 1.2zM137.55 97.92l-1.51.88-2.17-1.26 1.51-.87 2.17 1.25z"/>
        <path class="cls-27" d="M109.39 84.72l-1.51.87-2.07-1.2 1.51-.87 2.07 1.2zM111.93 86.19l-1.51.87-2.07-1.2 1.51-.87 2.07 1.2zM114.47 87.65l-1.51.87-2.07-1.19 1.51-.87 2.07 1.19zM117.01 89.12l-1.51.87-2.07-1.19 1.51-.88 2.07 1.2zM119.56 90.59l-1.51.87-2.08-1.2 1.51-.87 2.08 1.2zM122.1 92.06l-1.51.87-2.07-1.2 1.51-.87 2.07 1.2zM124.64 93.52l-1.51.87-2.07-1.19 1.51-.87 2.07 1.19zM127.18 94.99l-1.51.87-2.07-1.19 1.51-.88 2.07 1.2z"/>
        <path class="cls-29" d="M129.72 96.46l-1.51.87-2.07-1.2 1.51-.87 2.07 1.2zM132.26 97.92l-1.51.88-2.07-1.2 1.51-.87 2.07 1.19zM134.91 99.45l-1.51.87-2.17-1.25 1.51-.87 2.17 1.25z"/>
        <path class="cls-27" d="M114.85 82.43l-1.51.87-2.74-1.58 1.51-.87 2.74 1.58zM117.39 83.9l-1.51.87-2.07-1.2 1.51-.87 2.07 1.2zM119.93 85.36l-1.51.87-2.07-1.19 1.51-.87 2.07 1.19zM122.47 86.83l-1.51.87-2.07-1.19 1.51-.87 2.07 1.19z"/>
        <path class="cls-29" d="M125.01 88.3l-1.51.87-2.07-1.2 1.51-.87 2.07 1.2zM127.56 89.77l-1.51.87-2.08-1.2 1.51-.87 2.08 1.2zM130.1 91.23l-1.51.88-2.07-1.2 1.51-.87 2.07 1.19zM132.64 92.7l-1.51.87-2.07-1.19 1.51-.87 2.07 1.19zM135.18 94.17l-1.51.87-2.07-1.2 1.51-.87 2.07 1.2zM137.72 95.64l-1.51.87-2.07-1.2 1.51-.87 2.07 1.2zM139.62 96.73l-1.51.87-1.43-.82 1.51-.87 1.43.82z"/>
        <path d="M165.76 53.36c-2.09 2.8-2.74 6.57-1.47 8.42s4 1.08 6.08-1.72 2.74-6.56 1.47-8.41-4-1.09-6.08 1.71z" fill="#e08c79"/>
        <path d="M152.71 33.78a5.46 5.46 0 0 0 6.13-.64" stroke="#fff" stroke-miterlimit="10" fill="none"/>
        <path d="M166.3 27.23a2.54 2.54 0 0 0-2.53-.17 7.93 7.93 0 0 0-4.62 5.53 2.43 2.43 0 0 0 .77 2.57l.62.52-.41-1.48v-.92l.42-1.47 1.61-2.47 2.54-1.59h1.3l1.06.19z" fill="url(#_ÂÁ_Ï_ÌÌ_È_ËÂÌÚ_342-2)"/>
        <path class="cls-16" d="M167 27.83l-2.3-1.93a2.54 2.54 0 0 0-2.53-.17 7.94 7.94 0 0 0-4.62 5.52 2.44 2.44 0 0 0 .77 2.58l2.2 1.84z"/>
        <path class="cls-17" d="M164.49 27.65a8 8 0 0 0-4.62 5.53c-.4 2.26 1 3.46 3.19 2.67a8 8 0 0 0 4.62-5.53c.39-2.26-1.04-3.46-3.19-2.67z"/>
        <path class="cls-18" d="M172.48 55.56a3.42 3.42 0 1 0-6.67 1.44c2.57 11.67 2.28 19-.87 22.41-2.95 3.18-9.24 3.92-20.88 2.41a19.29 19.29 0 0 1-3.6-1.11c-1.37-.67-3.06-2.45-3.67-2.27s-.58 1 .18 1.68a8.9 8.9 0 0 0 1.57 1.19s-5.78-.54-9.33 1.36c-2.68 1.42-.67 3.67 2.34 4.63 1 .33 9.93 1.07 9.93 1.07a90.9 90.9 0 0 0 12.46 1c1.44 0 2.77-.06 4-.18 5.34-.53 9.27-2.22 12-5.18 2.56-2.76 4-6.48 4.33-11.38.34-4.47-.27-10.08-1.79-17.07z"/>
        <path class="cls-17" d="M168.83 108.12c-2.33 0-4-1.57-6.23-3.73a37.34 37.34 0 0 0-16.11-9.75.14.14 0 0 1-.09-.19.15.15 0 0 1 .19-.1 37.6 37.6 0 0 1 16.22 9.82c2.85 2.72 4.57 4.37 7.87 3.33l.56-.18c3.51-1.1 5.84-1.83 6.33-3.36.36-1.14-.28-2.73-2.1-5.16-3.9-5.2-2.57-13.91-1.16-23.13.86-5.68 1.75-11.56 1.28-16.43-.63-6.46-4.15-10.39-7.56-14.18-3.05-3.41-5.94-6.63-5.94-11.25a.15.15 0 0 1 .16-.15.15.15 0 0 1 .15.15c0 4.5 2.85 7.68 5.86 11 3.28 3.66 7 7.8 7.63 14.36.48 4.91-.42 10.8-1.28 16.5-1.34 8.76-2.71 17.81 1.1 22.91 1.89 2.51 2.55 4.19 2.15 5.43-.54 1.68-2.92 2.43-6.53 3.56l-.56.18a6.57 6.57 0 0 1-1.94.37z"/>
        <path class="cls-17" d="M147.09 94.9H147l-.84-.24a.23.23 0 0 1-.16-.29.22.22 0 0 1 .28-.15l.84.24a.24.24 0 0 1 .16.29.22.22 0 0 1-.19.15z"/>
        <path d="M143.9 19.18a4 4 0 0 1 1.27-1.08s1.72-2.35 3.46-2.31h-1.74l-2 1.26-1.05 1.68z" fill="#457a88"/>
        <path class="cls-27" d="M150.79 16l-.42-.15-.19-.06-.22-.06-.23-.06-.17-.05H148.79a1.73 1.73 0 0 0-.32 0h-1.1a4.34 4.34 0 0 0-2.05.72 4.61 4.61 0 0 0-1.83 3h.42c.9-2.71 3.35-3.8 6.89-2.44 4.58 1.75 8.81 6.67 10.15 11.73l.31.12c-1.15-5.4-5.72-10.95-10.47-12.75z"/>
        <path class="cls-17" d="M147.37 15.43h1.1a1.73 1.73 0 0 1 .32 0h.77l.17.05.23.06.22.06.19.06.42.15c4.75 1.82 9.32 7.37 10.46 12.61a7.16 7.16 0 0 1 2-1.69c-1.27-5.12-5.73-10.45-10.37-12.23a6 6 0 0 0-5.28 0l-2.21 1.4a4.34 4.34 0 0 1 2.05-.72z"/>
        <path class="cls-27" d="M91.55 67.1l9 18.6 30 17.32-8.72-18.81a4 4 0 0 0-1.68-1.83L92.88 66.61c-1.08-.61-1.38.39-1.33.49z"/>
        <path class="cls-28" d="M119.82 82.7l-27.6-16a.45.45 0 0 0-.63.57l9 19.42a.14.14 0 0 0 .07.08l28.62 16.52a.48.48 0 0 0 .68-.62l-8.4-18.07a4.32 4.32 0 0 0-1.74-1.9z"/>
        <g mask="url(#mask-4)">
          <path d="M162.46 119.89a.41.41 0 0 0 0 .77l6.41 3.7a1.5 1.5 0 0 0 1.34 0l14.51-8.36a.41.41 0 0 0 0-.77l-6.41-3.7a1.5 1.5 0 0 0-1.34 0z" opacity=".8" fill="url(#linear-gradient-3)"/>
        </g>
        <path d="M162.18 118.8v.77a.49.49 0 0 0 .28.44l6.41 3.7a1.44 1.44 0 0 0 1.34 0l14.51-8.38a.47.47 0 0 0 .28-.4v-.77l-6.69-3.3a1.5 1.5 0 0 0-1.34 0z" fill="url(#linear-gradient-4)"/>
        <path d="M162.46 118.46a.41.41 0 0 0 0 .77l6.41 3.7a1.5 1.5 0 0 0 1.34 0l14.51-8.38a.41.41 0 0 0 0-.77l-6.41-3.7a1.5 1.5 0 0 0-1.34 0z" fill="url(#linear-gradient-5)"/>
        <path fill="#303d63" d="M164.35 117.81l6.99 4.03 12.25-7.07-6.99-4.04-12.25 7.08z"/>
        <path d="M162.48 118.94l6.41 3.69a1.44 1.44 0 0 0 1.34 0l14.51-8.37a.61.61 0 0 0 .26-.26c.08.18 0 .37-.25.51l-14.51 8.38a1.5 1.5 0 0 1-1.34 0l-6.41-3.7c-.26-.15-.34-.36-.23-.55a.61.61 0 0 0 .22.3z" opacity=".3" fill="#fff"/>
        <path d="M180 112.1s-.05.06 0 .08l1.11.64a.13.13 0 0 0 .13 0s.05-.06 0-.08l-1.11-.64a.15.15 0 0 0-.13 0z" fill="#40418a"/>
        <path d="M168.87 122.93a1.5 1.5 0 0 0 1.34 0l14.51-8.38a.41.41 0 0 0 0-.77l-6.41-3.7a1.5 1.5 0 0 0-1.34 0z" opacity=".2" fill="#fff"/>
        <path d="M165.63 120.12a.08.08 0 0 0 0 .15l.69.39a.26.26 0 0 0 .27 0l.67-.39a.08.08 0 0 0 0-.15l-.69-.4a.32.32 0 0 0-.27 0z" opacity=".6" fill="url(#linear-gradient-6)"/>
        <path d="M165.63 120a.08.08 0 0 0 0 .15l.69.39a.26.26 0 0 0 .27 0l.67-.39a.08.08 0 0 0 0-.15l-.69-.4a.32.32 0 0 0-.27 0z" fill="url(#linear-gradient-7)"/>
        <circle class="cls-16" cx="152.29" cy="34.39" r="1.22"/>
        <circle class="cls-17" cx="152.29" cy="33.86" r="1.22"/>
        <circle class="cls-17" cx="87.53" cy="49.23" r="12.83"/>
        <text transform="translate(83.76 53.03)" font-size="12" font-family="BasisGrotesquePro-Bold,Basis Grotesque Pro" font-weight="700">
          4
        </text>
      </g>
    </g>
  </g>
</svg>
