<svg xmlns="http://www.w3.org/2000/svg" viewBox="0 0 285 190">
  <defs>
    <style>
      .cls-5{fill:none;stroke:#d94f23;stroke-miterlimit:10;stroke-width:3px}.cls-18{fill:#fff}.cls-19{fill:#f6f6f9;fill-rule:evenodd}
    </style>
    <filter id="luminosity-noclip" x="73.67" y="-6952.91" width="129.96" height="32766" filterUnits="userSpaceOnUse" color-interpolation-filters="sRGB">
      <feFlood flood-color="#fff" result="bg"/>
      <feBlend in="SourceGraphic" in2="bg"/>
    </filter>
    <linearGradient id="linear-gradient" x1="149.69" y1="104.41" x2="127.61" y2="142.64" gradientUnits="userSpaceOnUse">
      <stop offset="0" stop-color="#999"/>
      <stop offset=".04" stop-color="#ababab"/>
      <stop offset=".13" stop-color="#c9c9c9"/>
      <stop offset=".22" stop-color="#e1e1e1"/>
      <stop offset=".31" stop-color="#f2f2f2"/>
      <stop offset=".42" stop-color="#fcfcfc"/>
      <stop offset=".55" stop-color="#fff"/>
      <stop offset=".63" stop-color="#fafafa"/>
      <stop offset=".72" stop-color="#ededed"/>
      <stop offset=".82" stop-color="#d7d7d7"/>
      <stop offset=".92" stop-color="#b8b8b8"/>
      <stop offset="1" stop-color="#999"/>
    </linearGradient>
    <filter id="luminosity-noclip-2" x="73.67" y="86.01" width="129.96" height="75.03" filterUnits="userSpaceOnUse" color-interpolation-filters="sRGB">
      <feFlood flood-color="#fff" result="bg"/>
      <feBlend in="SourceGraphic" in2="bg"/>
    </filter>
    <mask id="mask-2" x="73.67" y="86.01" width="129.96" height="75.03" maskUnits="userSpaceOnUse">
      <g mask="url(#mask)" filter="url(#luminosity-noclip-2)">
        <path d="M202.05 134.64c2.11 1.22 2.11 3.19 0 4.41l-36.51 21.08a8.43 8.43 0 0 1-7.64 0l-82.65-47.72c-2.11-1.22-2.11-3.19 0-4.41l36.51-21.08a8.43 8.43 0 0 1 7.64 0z" style="mix-blend-mode:multiply" fill="url(#linear-gradient)"/>
      </g>
    </mask>
    <linearGradient id="linear-gradient-2" x1="149.69" y1="104.41" x2="127.61" y2="142.64" gradientUnits="userSpaceOnUse">
      <stop offset="0" stop-color="#545a97"/>
      <stop offset=".15" stop-color="#444c90"/>
      <stop offset=".33" stop-color="#3a438b"/>
      <stop offset=".55" stop-color="#37408a"/>
      <stop offset=".73" stop-color="#3c448c"/>
      <stop offset=".92" stop-color="#495092"/>
      <stop offset="1" stop-color="#505695"/>
    </linearGradient>
    <linearGradient id="linear-gradient-3" x1="203.61" y1="119.84" x2="73.67" y2="119.84" gradientUnits="userSpaceOnUse">
      <stop offset="0" stop-color="#889bd0"/>
      <stop offset=".56" stop-color="#c1d6fc"/>
      <stop offset="1" stop-color="#fcf6ff"/>
    </linearGradient>
    <linearGradient id="linear-gradient-4" x1="112.4" y1="141.63" x2="164.9" y2="89.13" gradientUnits="userSpaceOnUse">
      <stop offset="0" stop-color="#d2defd"/>
      <stop offset="1" stop-color="#fff"/>
    </linearGradient>
    <linearGradient id="linear-gradient-5" x1="181.89" y1="138.94" x2="176.79" y2="133.84" gradientUnits="userSpaceOnUse">
      <stop offset="0" stop-color="#5c5fce"/>
      <stop offset=".15" stop-color="#4c51c6"/>
      <stop offset=".33" stop-color="#4248c2"/>
      <stop offset=".55" stop-color="#3f45c0"/>
      <stop offset=".73" stop-color="#4449c2"/>
      <stop offset=".92" stop-color="#5154c9"/>
      <stop offset="1" stop-color="#585acc"/>
    </linearGradient>
    <linearGradient id="linear-gradient-6" x1="176.78" y1="138.31" x2="181.89" y2="133.21" gradientUnits="userSpaceOnUse">
      <stop offset="0" stop-color="#dbe3fd"/>
      <stop offset=".02" stop-color="#dde4fd"/>
      <stop offset=".21" stop-color="#e9e9fd"/>
      <stop offset=".46" stop-color="#f1ecfd"/>
      <stop offset="1" stop-color="#f3edfd"/>
    </linearGradient>
  </defs>
  <g id="Слой_2" data-name="Слой 2">
    <g id="Layer_8" data-name="Layer 8">
      <path fill="none" d="M0 0h285v190H0z"/>
      <path d="M191.81 99.5c26 15 26 39.4 0 54.42s-68.24 15-94.27 0-26-39.39 0-54.42 68.24-15.03 94.27 0z" fill="#6600f8"/>
      <path class="cls-5" d="M183.14 104.5c21.24 12.27 21.24 32.15 0 44.42s-55.69 12.26-76.93 0-21.24-32.15 0-44.42 55.69-12.26 76.93 0z"/>
      <path class="cls-5" d="M170.81 111.57c14.43 8.33 14.43 21.84 0 30.17s-37.83 8.34-52.27 0-14.43-21.84 0-30.17 37.84-8.33 52.27 0z"/>
      <g mask="url(#mask-2)">
        <path d="M202.05 134.64c2.11 1.22 2.11 3.19 0 4.41l-36.51 21.08a8.43 8.43 0 0 1-7.64 0l-82.65-47.72c-2.11-1.22-2.11-3.19 0-4.41l36.51-21.08a8.43 8.43 0 0 1 7.64 0z" opacity=".8" fill="url(#linear-gradient-2)"/>
      </g>
      <path d="M203.61 128.42v4.43a2.77 2.77 0 0 1-1.56 2.51l-36.51 21.08a8.43 8.43 0 0 1-7.64 0l-82.65-47.72a2.71 2.71 0 0 1-1.58-2.29V102l38.09-18.81a8.43 8.43 0 0 1 7.64 0z" fill="url(#linear-gradient-3)"/>
      <path d="M202.05 126.5c2.11 1.21 2.11 3.19 0 4.41L165.54 152a8.43 8.43 0 0 1-7.64 0l-82.65-47.73c-2.11-1.22-2.11-3.19 0-4.41l36.51-21.08a8.43 8.43 0 0 1 7.64 0z" fill="url(#linear-gradient-4)"/>
      <path fill="#313d62" d="M191.27 122.78l-39.81 22.98-69.76-40.27 39.81-22.99 69.76 40.28z"/>
      <path d="M201.93 129.21l-36.51 21.08a8.43 8.43 0 0 1-7.64 0l-82.65-47.71a3.43 3.43 0 0 1-1.31-1.24c-.42 1 .06 2.14 1.43 2.93L157.9 152a8.43 8.43 0 0 0 7.64 0l36.51-21.08c1.49-.86 1.93-2.1 1.31-3.18a3.19 3.19 0 0 1-1.43 1.47z" opacity=".3" fill="#fff"/>
      <path d="M102.13 90.28c.25.15.31.35.14.45L96 94.38a.92.92 0 0 1-.78-.08l-.22-.09c-.25-.15-.32-.35-.14-.45l6.32-3.65a.9.9 0 0 1 .77.08z" fill="#40418a"/>
      <path d="M165.54 152a8.43 8.43 0 0 1-7.64 0l-82.65-47.73c-2.11-1.22-2.11-3.19 0-4.41l36.51-21.08a8.43 8.43 0 0 1 7.64 0z" opacity=".2" fill="#fff"/>
      <path d="M184 136c.42.24.42.63 0 .88l-3.9 2.23a1.65 1.65 0 0 1-1.53 0l-3.81-2.23c-.42-.25-.42-.64 0-.88l3.9-2.24a1.69 1.69 0 0 1 1.52 0z" opacity=".6" fill="url(#linear-gradient-5)"/>
      <path d="M184 135.32a.46.46 0 0 1 0 .88l-3.9 2.24a1.72 1.72 0 0 1-1.53 0l-3.81-2.24c-.42-.24-.42-.63 0-.88l3.9-2.23a1.63 1.63 0 0 1 1.52 0z" fill="url(#linear-gradient-6)"/>
      <path d="M169 40.26l-44.15-25.49a2.88 2.88 0 0 0-2.91-.29l-2.84 1.65a2.88 2.88 0 0 1 2.91.29l44.16 25.49a9 9 0 0 1 4.09 7.09l-.08 26.55a2.88 2.88 0 0 1-1.18 2.62l2.84-1.65a2.88 2.88 0 0 0 1.16-2.63l.08-26.55a9 9 0 0 0-4.08-7.08z" fill="#f7f7fa"/>
      <path d="M166.17 41.91a9 9 0 0 1 4.09 7.09l-.08 26.55c0 2.6-1.85 3.65-4.11 2.34l-19.5-11.33-3.44 2-3.42-5.92-17.8-10.2a9 9 0 0 1-4.08-7.08l.07-26.55c0-2.6 1.85-3.65 4.11-2.34z" fill="#dd501e"/>
      <path class="cls-18" d="M147.41 43.72v2.06l-7.87-5.2v-2.06c0-2.91 1.76-4.11 3.94-2.67a8.85 8.85 0 0 1 2.78 3.38 10.46 10.46 0 0 1 1.15 4.49zM139.54 42.2l7.87 5.2v2.17c0 2.91-1.76 4.1-3.93 2.66s-3.94-4.95-3.94-7.87zM138.16 41.65c0 .79-.47 1.12-1.06.74a2.83 2.83 0 0 1-1-2.14c0-.79.47-1.12 1-.74a2.81 2.81 0 0 1 1.06 2.14zM150.9 50.07c0 .79-.47 1.12-1.05.74a2.84 2.84 0 0 1-1.06-2.14c0-.79.48-1.12 1.06-.73a2.81 2.81 0 0 1 1.05 2.13zM144.35 60.4l-1.75-1.15v-5.92l1.75 1.15v5.92z"/>
      <path class="cls-18" d="M145.9 60.55v1.64l-4.85-3.21v-1.63l4.85 3.2zM143.48 55a14.58 14.58 0 0 1-5.16-6 18.76 18.76 0 0 1-1.76-8.41l1.08.84a16.43 16.43 0 0 0 1.48 7.12 12.25 12.25 0 0 0 4.36 5z"/>
      <path class="cls-18" d="M143.48 55v-1.47c1.9 1.25 3.37 1.49 4.36.71 1.67-1.32 1.47-5.13 1.47-5.17l1.08.6c0 .18.24 4.51-1.75 6.09-1.21.95-2.94.69-5.16-.76z"/>
      <path class="cls-19" d="M141.27 94.89l2.14 1.45v-3.79l-2.14-1.45v3.79zM141.27 101.69l2.14 1.44v-3.79l-2.14-1.44v3.79zM141.27 108.46l2.14 1.45v-3.79l-2.14-1.45v3.79zM141.27 74.48l2.14 1.44v-3.79l-2.14-1.44v3.79zM141.27 81.27l2.14 1.45v-3.79l-2.14-1.45v3.79zM141.27 88.05l2.14 1.44V85.7l-2.14-1.44v3.79z"/>
      <path d="M139.15 112.34c0-1.45 1.18-1.83 2.62-.85a6.12 6.12 0 0 1 2.63 4.39" fill="#f6f6f9"/>
      <circle class="cls-18" cx="73.26" cy="91.33" r="12.83"/>
      <text transform="translate(70.06 95.13)" font-size="12" font-family="BasisGrotesquePro-Bold,Basis Grotesque Pro" font-weight="700">
        2
      </text>
    </g>
  </g>
</svg>
