<svg width="51" height="58" xmlns="http://www.w3.org/2000/svg"><g fill="none" fill-rule="evenodd"><path d="M-10-1h60v60h-60z"/><path d="M17.75 53.837a1.103 1.103 0 1 0 0-2.205 1.103 1.103 0 0 0 0 2.206" fill="#70F"/><path d="M32.788 40.235v7.5H2.748v-45h30.037v2.5h2.5V2.44A2.205 2.205 0 0 0 33.08.235H2.455A2.208 2.208 0 0 0 .248 2.44v53.09c0 1.218.99 2.205 2.207 2.205h30.628a2.205 2.205 0 0 0 2.205-2.205V40.235h-2.5zm0 15H2.748v-5h30.04v5z" fill="#70F" fill-rule="nonzero"/><path d="M48.295 7.735H19.737c-1.087 0-1.964.88-1.964 1.965l-.006 35.535 10.688-7.5h19.8c1.133 0 2.012-1.263 2.012-2.373V9.707c0-1.09-.882-1.972-1.972-1.972zM27.767 35.233l-7.51 5.25V10.235h27.51l.008 25-20.008-.002z" fill="#BC104B" fill-rule="nonzero"/><path d="M41.1 23.883c-.495-.968-.5-1.998-.5-2.015v-2.79c0-3.498-2.833-6.343-6.31-6.343-3.477 0-6.31 2.845-6.31 6.343v2.807c0 .017-.008 1.73-1.075 2.813-.615.622-1.47.924-2.613.924v2.5H44.29v-2.5c-1.55-.002-2.593-.572-3.19-1.74zM29.355 25.62c1.132-1.713 1.122-3.67 1.122-3.75v-2.793c0-2.12 1.71-3.842 3.81-3.842s3.81 1.723 3.81 3.843v2.774c0 .096-.01 2.055 1.123 3.765h-9.865v.003z" fill="#FF4F12" fill-rule="nonzero"/><path d="M36.313 28.133a2.026 2.026 0 0 1-4.05 0h-2.5a4.53 4.53 0 0 0 4.524 4.524 4.53 4.53 0 0 0 4.526-4.524h-2.5z" fill="#FF4F12"/></g></svg>