<svg xmlns="http://www.w3.org/2000/svg" xmlns:xlink="http://www.w3.org/1999/xlink" viewBox="0 0 285 190"><defs><style>.cls-1{fill:#e3e8ec;}.cls-2{fill:#eebc2e;}.cls-3{fill:#313c63;}.cls-4{fill:url(#ÅÂÁ_Ï_ÌÌ_È_ËÂÌÚ_104);}.cls-5{fill:#a1174b;}.cls-6{fill:url(#çÓ_È_Ó·_ÁÂ_ËÂÌÚ_1);}.cls-7{fill:url(#çÓ_È_Ó·_ÁÂ_ËÂÌÚ_1-2);}</style><linearGradient id="ÅÂÁ_Ï_ÌÌ_È_ËÂÌÚ_104" x1="87.07" y1="105.68" x2="219.89" y2="105.68" gradientUnits="userSpaceOnUse"><stop offset="0.4" stop-color="#bcc0e5"/><stop offset="0.61" stop-color="#d0d3f5"/></linearGradient><linearGradient id="çÓ_È_Ó·_ÁÂ_ËÂÌÚ_1" x1="167.34" y1="115.93" x2="179" y2="115.93" gradientUnits="userSpaceOnUse"><stop offset="0" stop-color="#f7f8ff"/><stop offset="1" stop-color="#f2f3fa"/></linearGradient><linearGradient id="çÓ_È_Ó·_ÁÂ_ËÂÌÚ_1-2" x1="180.03" y1="108.95" x2="191.69" y2="108.95" xlink:href="#çÓ_È_Ó·_ÁÂ_ËÂÌÚ_1"/></defs><title>Ресурс 27</title><g id="Слой_2" data-name="Слой 2"><g id="Layer_14" data-name="Layer 14"><rect class="cls-1" width="285" height="190"/><path class="cls-2" d="M139.59,83.54a4.26,4.26,0,0,0,2.06.51c7.32.11,14.21,1.81,19.39,4.8s8.08,6.91,8.3,11.09c0,1,1.44,1.72,3.11,1.69s3-.83,2.92-1.79c-.27-5.08-3.84-9.86-10.07-13.45s-14.62-5.69-23.5-5.82c-1.67,0-3.05.74-3.09,1.7A1.47,1.47,0,0,0,139.59,83.54Z"/><path class="cls-2" d="M138.82,89.32a4.3,4.3,0,0,0,2.13.51,26.48,26.48,0,0,1,13,3.11c3.47,2,5.39,4.67,5.39,7.51,0,1,1.35,1.74,3,1.74s3-.78,3-1.74c0-3.77-2.54-7.31-7.15-10A35.12,35.12,0,0,0,141,86.35c-1.66,0-3,.78-3,1.74A1.51,1.51,0,0,0,138.82,89.32Z"/><path class="cls-2" d="M138.06,95.18a4.3,4.3,0,0,0,2.33.51,12.16,12.16,0,0,1,6.4,1.39c1.69,1,2.56,2.32,2.4,3.69-.11,1,1.15,1.79,2.81,1.86s3.1-.66,3.21-1.62c.28-2.38-1.23-4.71-4.15-6.4A21.09,21.09,0,0,0,140,92.22c-1.67.06-2.92.89-2.81,1.85A1.56,1.56,0,0,0,138.06,95.18Z"/><path class="cls-2" d="M138.3,98.91c-1.47.85-1.47,2.22,0,3.07a5.85,5.85,0,0,0,5.31,0c1.47-.85,1.47-2.22,0-3.07A5.91,5.91,0,0,0,138.3,98.91Z"/><path class="cls-3" d="M207.29,77.69c25.2,13.84,10.5,42.48-25.43,60.3-29.76,14.77-64.85,17-82.71,7.23s-16.23-30.46,7-48.8C134.24,74.27,182.09,63.85,207.29,77.69Z"/><path class="cls-4" d="M207.29,72.07c25.2,13.84,10.5,42.48-25.43,60.3-29.76,14.77-64.85,17-82.71,7.23s-16.23-30.46,7-48.8C134.24,68.65,182.09,58.23,207.29,72.07Z"/><rect class="cls-5" x="99.94" y="56.48" width="5.7" height="64.93" rx="2.85"/><rect class="cls-5" x="150.48" y="33.07" width="5.7" height="50.88" rx="2.85"/><path class="cls-5" d="M207.29,69.26c25.2,13.84,10.5,42.48-25.43,60.3-29.76,14.77-64.85,17-82.71,7.23s-16.23-30.46,7-48.8C134.24,65.84,182.09,55.42,207.29,69.26Z"/><ellipse class="cls-6" cx="173.17" cy="115.93" rx="5.83" ry="3.89"/><ellipse class="cls-7" cx="185.86" cy="108.95" rx="5.83" ry="3.89"/></g></g></svg>