<svg xmlns="http://www.w3.org/2000/svg" xmlns:xlink="http://www.w3.org/1999/xlink" viewBox="0 0 285 190"><defs><style>.cls-1{isolation:isolate;}.cls-2{fill:#e3e8ec;}.cls-3{fill:url(#çÓ_È_Ó·_ÁÂ_ËÂÌÚ_1);}.cls-4{fill:#313c63;}.cls-5{fill:url(#ÅÂÁ_Ï_ÌÌ_È_ËÂÌÚ_104);}.cls-6{fill:#a1174b;}.cls-7{fill:#eebc2e;}.cls-8{fill:#efbd2e;}.cls-9{fill:#a5e6c0;}.cls-10{fill:url(#çÓ_È_Ó·_ÁÂ_ËÂÌÚ_1-2);}.cls-11{mix-blend-mode:multiply;}.cls-12{fill:url(#ÅÂÁ_Ï_ÌÌ_È_ËÂÌÚ_26);}.cls-13{fill:url(#ÅÂÁ_Ï_ÌÌ_È_ËÂÌÚ_26-2);}.cls-14{fill:url(#ÅÂÁ_Ï_ÌÌ_È_ËÂÌÚ_26-3);}.cls-15{fill:url(#ÅÂÁ_Ï_ÌÌ_È_ËÂÌÚ_26-4);}.cls-16{fill:url(#ÅÂÁ_Ï_ÌÌ_È_ËÂÌÚ_26-5);}.cls-17{fill:url(#ÅÂÁ_Ï_ÌÌ_È_ËÂÌÚ_26-6);}.cls-18{fill:url(#ÅÂÁ_Ï_ÌÌ_È_ËÂÌÚ_26-7);}.cls-19{fill:url(#ÅÂÁ_Ï_ÌÌ_È_ËÂÌÚ_26-8);}.cls-20{fill:url(#ÅÂÁ_Ï_ÌÌ_È_ËÂÌÚ_26-9);}.cls-21{fill:url(#ÅÂÁ_Ï_ÌÌ_È_ËÂÌÚ_26-10);}.cls-22{fill:url(#ÅÂÁ_Ï_ÌÌ_È_ËÂÌÚ_26-11);}.cls-23{fill:url(#ÅÂÁ_Ï_ÌÌ_È_ËÂÌÚ_26-12);}.cls-24{fill:url(#ÅÂÁ_Ï_ÌÌ_È_ËÂÌÚ_26-13);}.cls-25{fill:url(#ÅÂÁ_Ï_ÌÌ_È_ËÂÌÚ_26-14);}.cls-26{fill:url(#ÅÂÁ_Ï_ÌÌ_È_ËÂÌÚ_26-15);}.cls-27{fill:url(#ÅÂÁ_Ï_ÌÌ_È_ËÂÌÚ_26-16);}.cls-28{fill:url(#ÅÂÁ_Ï_ÌÌ_È_ËÂÌÚ_26-17);}.cls-29{fill:url(#ÅÂÁ_Ï_ÌÌ_È_ËÂÌÚ_26-18);}.cls-30{fill:url(#ÅÂÁ_Ï_ÌÌ_È_ËÂÌÚ_26-19);}.cls-31{fill:url(#ÅÂÁ_Ï_ÌÌ_È_ËÂÌÚ_26-20);}.cls-32{fill:url(#ÅÂÁ_Ï_ÌÌ_È_ËÂÌÚ_26-21);}.cls-33{fill:url(#ÅÂÁ_Ï_ÌÌ_È_ËÂÌÚ_26-22);}.cls-34{fill:url(#ÅÂÁ_Ï_ÌÌ_È_ËÂÌÚ_26-23);}.cls-35{fill:url(#ÅÂÁ_Ï_ÌÌ_È_ËÂÌÚ_26-24);}.cls-36{fill:url(#ÅÂÁ_Ï_ÌÌ_È_ËÂÌÚ_26-25);}.cls-37{fill:url(#ÅÂÁ_Ï_ÌÌ_È_ËÂÌÚ_26-26);}.cls-38{fill:url(#ÅÂÁ_Ï_ÌÌ_È_ËÂÌÚ_26-27);}.cls-39{fill:url(#ÅÂÁ_Ï_ÌÌ_È_ËÂÌÚ_26-28);}.cls-40{fill:url(#ÅÂÁ_Ï_ÌÌ_È_ËÂÌÚ_26-29);}.cls-41{fill:url(#ÅÂÁ_Ï_ÌÌ_È_ËÂÌÚ_26-30);}.cls-42{fill:url(#ÅÂÁ_Ï_ÌÌ_È_ËÂÌÚ_26-31);}.cls-43{fill:url(#ÅÂÁ_Ï_ÌÌ_È_ËÂÌÚ_26-32);}.cls-44{fill:url(#ÅÂÁ_Ï_ÌÌ_È_ËÂÌÚ_26-33);}.cls-45{fill:url(#ÅÂÁ_Ï_ÌÌ_È_ËÂÌÚ_26-34);}.cls-46{fill:url(#ÅÂÁ_Ï_ÌÌ_È_ËÂÌÚ_26-35);}.cls-47{fill:url(#ÅÂÁ_Ï_ÌÌ_È_ËÂÌÚ_26-36);}.cls-48{fill:url(#ÅÂÁ_Ï_ÌÌ_È_ËÂÌÚ_26-37);}.cls-49{fill:url(#ÅÂÁ_Ï_ÌÌ_È_ËÂÌÚ_26-38);}.cls-50{fill:url(#ÅÂÁ_Ï_ÌÌ_È_ËÂÌÚ_26-39);}.cls-51{fill:url(#ÅÂÁ_Ï_ÌÌ_È_ËÂÌÚ_26-40);}.cls-52{fill:url(#ÅÂÁ_Ï_ÌÌ_È_ËÂÌÚ_26-41);}.cls-53{fill:url(#ÅÂÁ_Ï_ÌÌ_È_ËÂÌÚ_26-42);}.cls-54{fill:url(#ÅÂÁ_Ï_ÌÌ_È_ËÂÌÚ_26-43);}.cls-55{fill:url(#ÅÂÁ_Ï_ÌÌ_È_ËÂÌÚ_26-44);}.cls-56{fill:url(#ÅÂÁ_Ï_ÌÌ_È_ËÂÌÚ_26-45);}.cls-57{fill:url(#ÅÂÁ_Ï_ÌÌ_È_ËÂÌÚ_26-46);}.cls-58{fill:url(#ÅÂÁ_Ï_ÌÌ_È_ËÂÌÚ_26-47);}.cls-59{fill:url(#ÅÂÁ_Ï_ÌÌ_È_ËÂÌÚ_26-48);}.cls-60{fill:url(#ÅÂÁ_Ï_ÌÌ_È_ËÂÌÚ_26-49);}.cls-61{fill:url(#ÅÂÁ_Ï_ÌÌ_È_ËÂÌÚ_26-50);}.cls-62{fill:url(#ÅÂÁ_Ï_ÌÌ_È_ËÂÌÚ_26-51);}.cls-63{fill:url(#ÅÂÁ_Ï_ÌÌ_È_ËÂÌÚ_26-52);}.cls-64{fill:url(#ÅÂÁ_Ï_ÌÌ_È_ËÂÌÚ_26-53);}.cls-65{fill:url(#ÅÂÁ_Ï_ÌÌ_È_ËÂÌÚ_26-54);}.cls-66{fill:url(#ÅÂÁ_Ï_ÌÌ_È_ËÂÌÚ_26-55);}.cls-67{fill:url(#ÅÂÁ_Ï_ÌÌ_È_ËÂÌÚ_26-56);}.cls-68{fill:url(#ÅÂÁ_Ï_ÌÌ_È_ËÂÌÚ_26-57);}.cls-69{fill:url(#ÅÂÁ_Ï_ÌÌ_È_ËÂÌÚ_26-58);}.cls-70{fill:url(#ÅÂÁ_Ï_ÌÌ_È_ËÂÌÚ_26-59);}.cls-71{fill:url(#ÅÂÁ_Ï_ÌÌ_È_ËÂÌÚ_26-60);}.cls-72{fill:url(#ÅÂÁ_Ï_ÌÌ_È_ËÂÌÚ_26-61);}.cls-73{fill:url(#ÅÂÁ_Ï_ÌÌ_È_ËÂÌÚ_26-62);}.cls-74{fill:url(#ÅÂÁ_Ï_ÌÌ_È_ËÂÌÚ_26-63);}.cls-75{fill:url(#ÅÂÁ_Ï_ÌÌ_È_ËÂÌÚ_26-64);}.cls-76{fill:url(#ÅÂÁ_Ï_ÌÌ_È_ËÂÌÚ_26-65);}.cls-77{fill:url(#ÅÂÁ_Ï_ÌÌ_È_ËÂÌÚ_26-66);}.cls-78{fill:url(#ÅÂÁ_Ï_ÌÌ_È_ËÂÌÚ_26-67);}.cls-79{fill:url(#ÅÂÁ_Ï_ÌÌ_È_ËÂÌÚ_26-68);}.cls-80{fill:url(#ÅÂÁ_Ï_ÌÌ_È_ËÂÌÚ_26-69);}.cls-81{fill:url(#ÅÂÁ_Ï_ÌÌ_È_ËÂÌÚ_26-70);}.cls-82{fill:url(#ÅÂÁ_Ï_ÌÌ_È_ËÂÌÚ_26-71);}.cls-83{fill:url(#ÅÂÁ_Ï_ÌÌ_È_ËÂÌÚ_26-72);}.cls-84{fill:url(#ÅÂÁ_Ï_ÌÌ_È_ËÂÌÚ_26-73);}.cls-85{fill:url(#ÅÂÁ_Ï_ÌÌ_È_ËÂÌÚ_26-74);}.cls-86{fill:url(#ÅÂÁ_Ï_ÌÌ_È_ËÂÌÚ_26-75);}.cls-87{fill:url(#ÅÂÁ_Ï_ÌÌ_È_ËÂÌÚ_26-76);}.cls-88{fill:url(#ÅÂÁ_Ï_ÌÌ_È_ËÂÌÚ_26-77);}.cls-89{fill:url(#ÅÂÁ_Ï_ÌÌ_È_ËÂÌÚ_26-78);}</style><linearGradient id="çÓ_È_Ó·_ÁÂ_ËÂÌÚ_1" x1="50.68" y1="131.59" x2="217.46" y2="131.59" gradientUnits="userSpaceOnUse"><stop offset="0" stop-color="#f7f8ff"/><stop offset="1" stop-color="#f2f3fa"/></linearGradient><linearGradient id="ÅÂÁ_Ï_ÌÌ_È_ËÂÌÚ_104" x1="113.36" y1="76.73" x2="217.66" y2="76.73" gradientUnits="userSpaceOnUse"><stop offset="0.4" stop-color="#bcc0e5"/><stop offset="0.61" stop-color="#d0d3f5"/></linearGradient><linearGradient id="çÓ_È_Ó·_ÁÂ_ËÂÌÚ_1-2" x1="155.39" y1="73.11" x2="174.49" y2="73.11" xlink:href="#çÓ_È_Ó·_ÁÂ_ËÂÌÚ_1"/><linearGradient id="ÅÂÁ_Ï_ÌÌ_È_ËÂÌÚ_26" x1="102.83" y1="97.02" x2="113.78" y2="97.02" gradientUnits="userSpaceOnUse"><stop offset="0" stop-color="#bcc0e5"/><stop offset="1" stop-color="#bcc0e5"/></linearGradient><linearGradient id="ÅÂÁ_Ï_ÌÌ_È_ËÂÌÚ_26-2" x1="109.9" y1="101.1" x2="120.84" y2="101.1" xlink:href="#ÅÂÁ_Ï_ÌÌ_È_ËÂÌÚ_26"/><linearGradient id="ÅÂÁ_Ï_ÌÌ_È_ËÂÌÚ_26-3" x1="94.41" y1="101.91" x2="105.36" y2="101.91" xlink:href="#ÅÂÁ_Ï_ÌÌ_È_ËÂÌÚ_26"/><linearGradient id="ÅÂÁ_Ï_ÌÌ_È_ËÂÌÚ_26-4" x1="116.96" y1="105.18" x2="127.91" y2="105.18" xlink:href="#ÅÂÁ_Ï_ÌÌ_È_ËÂÌÚ_26"/><linearGradient id="ÅÂÁ_Ï_ÌÌ_È_ËÂÌÚ_26-5" x1="82.76" y1="108.68" x2="93.71" y2="108.68" xlink:href="#ÅÂÁ_Ï_ÌÌ_È_ËÂÌÚ_26"/><linearGradient id="ÅÂÁ_Ï_ÌÌ_È_ËÂÌÚ_26-6" x1="95.65" y1="109.37" x2="106.6" y2="109.37" xlink:href="#ÅÂÁ_Ï_ÌÌ_È_ËÂÌÚ_26"/><linearGradient id="ÅÂÁ_Ï_ÌÌ_È_ËÂÌÚ_26-7" x1="108.54" y1="110.07" x2="119.49" y2="110.07" xlink:href="#ÅÂÁ_Ï_ÌÌ_È_ËÂÌÚ_26"/><linearGradient id="ÅÂÁ_Ï_ÌÌ_È_ËÂÌÚ_26-8" x1="115.61" y1="114.15" x2="126.56" y2="114.15" xlink:href="#ÅÂÁ_Ï_ÌÌ_È_ËÂÌÚ_26"/><linearGradient id="ÅÂÁ_Ï_ÌÌ_È_ËÂÌÚ_26-9" x1="138.16" y1="117.41" x2="149.1" y2="117.41" xlink:href="#ÅÂÁ_Ï_ÌÌ_È_ËÂÌÚ_26"/><linearGradient id="ÅÂÁ_Ï_ÌÌ_È_ËÂÌÚ_26-10" x1="109.78" y1="117.53" x2="120.73" y2="117.53" xlink:href="#ÅÂÁ_Ï_ÌÌ_È_ËÂÌÚ_26"/><linearGradient id="ÅÂÁ_Ï_ÌÌ_È_ËÂÌÚ_26-11" x1="103.96" y1="120.92" x2="114.91" y2="120.92" xlink:href="#ÅÂÁ_Ï_ÌÌ_È_ËÂÌÚ_26"/><linearGradient id="ÅÂÁ_Ï_ÌÌ_È_ËÂÌÚ_26-12" x1="145.22" y1="121.49" x2="156.17" y2="121.49" xlink:href="#ÅÂÁ_Ï_ÌÌ_È_ËÂÌÚ_26"/><linearGradient id="ÅÂÁ_Ï_ÌÌ_È_ËÂÌÚ_26-13" x1="129.74" y1="122.3" x2="140.69" y2="122.3" xlink:href="#ÅÂÁ_Ï_ÌÌ_È_ËÂÌÚ_26"/><linearGradient id="ÅÂÁ_Ï_ÌÌ_È_ËÂÌÚ_26-14" x1="111.03" y1="125" x2="121.98" y2="125" xlink:href="#ÅÂÁ_Ï_ÌÌ_È_ËÂÌÚ_26"/><linearGradient id="ÅÂÁ_Ï_ÌÌ_È_ËÂÌÚ_26-15" x1="152.29" y1="125.57" x2="163.24" y2="125.57" xlink:href="#ÅÂÁ_Ï_ÌÌ_È_ËÂÌÚ_26"/><linearGradient id="ÅÂÁ_Ï_ÌÌ_È_ËÂÌÚ_26-16" x1="123.91" y1="125.69" x2="134.87" y2="125.69" xlink:href="#ÅÂÁ_Ï_ÌÌ_È_ËÂÌÚ_26"/><linearGradient id="ÅÂÁ_Ï_ÌÌ_È_ËÂÌÚ_26-17" x1="136.81" y1="126.38" x2="147.75" y2="126.38" xlink:href="#ÅÂÁ_Ï_ÌÌ_È_ËÂÌÚ_26"/><linearGradient id="ÅÂÁ_Ï_ÌÌ_È_ËÂÌÚ_26-18" x1="105.2" y1="128.38" x2="116.15" y2="128.38" xlink:href="#ÅÂÁ_Ï_ÌÌ_È_ËÂÌÚ_26"/><linearGradient id="ÅÂÁ_Ï_ÌÌ_È_ËÂÌÚ_26-19" x1="118.09" y1="129.07" x2="129.04" y2="129.07" xlink:href="#ÅÂÁ_Ï_ÌÌ_È_ËÂÌÚ_26"/><linearGradient id="ÅÂÁ_Ï_ÌÌ_È_ËÂÌÚ_26-20" x1="159.35" y1="129.65" x2="170.3" y2="129.65" xlink:href="#ÅÂÁ_Ï_ÌÌ_È_ËÂÌÚ_26"/><linearGradient id="ÅÂÁ_Ï_ÌÌ_È_ËÂÌÚ_26-21" x1="130.98" y1="129.77" x2="141.93" y2="129.77" xlink:href="#ÅÂÁ_Ï_ÌÌ_È_ËÂÌÚ_26"/><linearGradient id="ÅÂÁ_Ï_ÌÌ_È_ËÂÌÚ_26-22" x1="143.87" y1="130.46" x2="154.82" y2="130.46" xlink:href="#ÅÂÁ_Ï_ÌÌ_È_ËÂÌÚ_26"/><linearGradient id="ÅÂÁ_Ï_ÌÌ_È_ËÂÌÚ_26-23" x1="125.16" y1="133.15" x2="136.11" y2="133.15" xlink:href="#ÅÂÁ_Ï_ÌÌ_È_ËÂÌÚ_26"/><linearGradient id="ÅÂÁ_Ï_ÌÌ_È_ËÂÌÚ_26-24" x1="166.42" y1="133.73" x2="177.37" y2="133.73" xlink:href="#ÅÂÁ_Ï_ÌÌ_È_ËÂÌÚ_26"/><linearGradient id="ÅÂÁ_Ï_ÌÌ_È_ËÂÌÚ_26-25" x1="138.05" y1="133.85" x2="149" y2="133.85" xlink:href="#ÅÂÁ_Ï_ÌÌ_È_ËÂÌÚ_26"/><linearGradient id="ÅÂÁ_Ï_ÌÌ_È_ËÂÌÚ_26-26" x1="150.94" y1="134.54" x2="161.89" y2="134.54" xlink:href="#ÅÂÁ_Ï_ÌÌ_È_ËÂÌÚ_26"/><linearGradient id="ÅÂÁ_Ï_ÌÌ_È_ËÂÌÚ_26-27" x1="106.44" y1="135.84" x2="117.39" y2="135.84" xlink:href="#ÅÂÁ_Ï_ÌÌ_È_ËÂÌÚ_26"/><linearGradient id="ÅÂÁ_Ï_ÌÌ_È_ËÂÌÚ_26-28" x1="132.22" y1="137.23" x2="143.17" y2="137.23" xlink:href="#ÅÂÁ_Ï_ÌÌ_È_ËÂÌÚ_26"/><linearGradient id="ÅÂÁ_Ï_ÌÌ_È_ËÂÌÚ_26-29" x1="173.49" y1="137.81" x2="184.43" y2="137.81" xlink:href="#ÅÂÁ_Ï_ÌÌ_È_ËÂÌÚ_26"/><linearGradient id="ÅÂÁ_Ï_ÌÌ_È_ËÂÌÚ_26-30" x1="145.11" y1="137.93" x2="156.06" y2="137.93" xlink:href="#ÅÂÁ_Ï_ÌÌ_È_ËÂÌÚ_26"/><linearGradient id="ÅÂÁ_Ï_ÌÌ_È_ËÂÌÚ_26-31" x1="139.29" y1="141.31" x2="150.24" y2="141.31" xlink:href="#ÅÂÁ_Ï_ÌÌ_È_ËÂÌÚ_26"/><linearGradient id="ÅÂÁ_Ï_ÌÌ_È_ËÂÌÚ_26-32" x1="180.55" y1="141.89" x2="191.5" y2="141.89" xlink:href="#ÅÂÁ_Ï_ÌÌ_È_ËÂÌÚ_26"/><linearGradient id="ÅÂÁ_Ï_ÌÌ_È_ËÂÌÚ_26-33" x1="165.07" y1="142.7" x2="176.02" y2="142.7" xlink:href="#ÅÂÁ_Ï_ÌÌ_È_ËÂÌÚ_26"/><linearGradient id="ÅÂÁ_Ï_ÌÌ_È_ËÂÌÚ_26-34" x1="126.4" y1="142.66" x2="144.41" y2="142.66" xlink:href="#ÅÂÁ_Ï_ÌÌ_È_ËÂÌÚ_26"/><linearGradient id="ÅÂÁ_Ï_ÌÌ_È_ËÂÌÚ_26-35" x1="187.62" y1="145.97" x2="198.56" y2="145.97" xlink:href="#ÅÂÁ_Ï_ÌÌ_È_ËÂÌÚ_26"/><linearGradient id="ÅÂÁ_Ï_ÌÌ_È_ËÂÌÚ_26-36" x1="159.24" y1="146.09" x2="170.19" y2="146.09" xlink:href="#ÅÂÁ_Ï_ÌÌ_È_ËÂÌÚ_26"/><linearGradient id="ÅÂÁ_Ï_ÌÌ_È_ËÂÌÚ_26-37" x1="172.14" y1="146.78" x2="183.08" y2="146.78" xlink:href="#ÅÂÁ_Ï_ÌÌ_È_ËÂÌÚ_26"/><linearGradient id="ÅÂÁ_Ï_ÌÌ_È_ËÂÌÚ_26-38" x1="113.51" y1="144" x2="138.59" y2="144" xlink:href="#ÅÂÁ_Ï_ÌÌ_È_ËÂÌÚ_26"/><linearGradient id="ÅÂÁ_Ï_ÌÌ_È_ËÂÌÚ_26-39" x1="153.42" y1="149.47" x2="164.37" y2="149.47" xlink:href="#ÅÂÁ_Ï_ÌÌ_È_ËÂÌÚ_26"/><linearGradient id="ÅÂÁ_Ï_ÌÌ_È_ËÂÌÚ_26-40" x1="166.31" y1="150.16" x2="177.26" y2="150.16" xlink:href="#ÅÂÁ_Ï_ÌÌ_È_ËÂÌÚ_26"/><linearGradient id="ÅÂÁ_Ï_ÌÌ_È_ËÂÌÚ_26-41" x1="179.2" y1="150.86" x2="190.15" y2="150.86" xlink:href="#ÅÂÁ_Ï_ÌÌ_È_ËÂÌÚ_26"/><linearGradient id="ÅÂÁ_Ï_ÌÌ_È_ËÂÌÚ_26-42" x1="121.82" y1="151.47" x2="132.76" y2="151.47" xlink:href="#ÅÂÁ_Ï_ÌÌ_È_ËÂÌÚ_26"/><linearGradient id="ÅÂÁ_Ï_ÌÌ_È_ËÂÌÚ_26-43" x1="147.6" y1="152.85" x2="158.54" y2="152.85" xlink:href="#ÅÂÁ_Ï_ÌÌ_È_ËÂÌÚ_26"/><linearGradient id="ÅÂÁ_Ï_ÌÌ_È_ËÂÌÚ_26-44" x1="160.49" y1="153.55" x2="171.43" y2="153.55" xlink:href="#ÅÂÁ_Ï_ÌÌ_È_ËÂÌÚ_26"/><linearGradient id="ÅÂÁ_Ï_ÌÌ_È_ËÂÌÚ_26-45" x1="173.37" y1="154.24" x2="184.33" y2="154.24" xlink:href="#ÅÂÁ_Ï_ÌÌ_È_ËÂÌÚ_26"/><linearGradient id="ÅÂÁ_Ï_ÌÌ_È_ËÂÌÚ_26-46" x1="141.77" y1="156.24" x2="152.72" y2="156.24" xlink:href="#ÅÂÁ_Ï_ÌÌ_È_ËÂÌÚ_26"/><linearGradient id="ÅÂÁ_Ï_ÌÌ_È_ËÂÌÚ_26-47" x1="154.66" y1="156.93" x2="165.61" y2="156.93" xlink:href="#ÅÂÁ_Ï_ÌÌ_È_ËÂÌÚ_26"/><linearGradient id="ÅÂÁ_Ï_ÌÌ_È_ËÂÌÚ_26-48" x1="167.55" y1="157.63" x2="178.5" y2="157.63" xlink:href="#ÅÂÁ_Ï_ÌÌ_È_ËÂÌÚ_26"/><linearGradient id="ÅÂÁ_Ï_ÌÌ_È_ËÂÌÚ_26-49" x1="135.95" y1="159.63" x2="146.89" y2="159.63" xlink:href="#ÅÂÁ_Ï_ÌÌ_È_ËÂÌÚ_26"/><linearGradient id="ÅÂÁ_Ï_ÌÌ_È_ËÂÌÚ_26-50" x1="148.84" y1="160.32" x2="159.78" y2="160.32" xlink:href="#ÅÂÁ_Ï_ÌÌ_È_ËÂÌÚ_26"/><linearGradient id="ÅÂÁ_Ï_ÌÌ_È_ËÂÌÚ_26-51" x1="161.73" y1="161.01" x2="172.68" y2="161.01" xlink:href="#ÅÂÁ_Ï_ÌÌ_È_ËÂÌÚ_26"/><linearGradient id="ÅÂÁ_Ï_ÌÌ_È_ËÂÌÚ_26-52" x1="143.01" y1="163.7" x2="153.96" y2="163.7" xlink:href="#ÅÂÁ_Ï_ÌÌ_È_ËÂÌÚ_26"/><linearGradient id="ÅÂÁ_Ï_ÌÌ_È_ËÂÌÚ_26-53" x1="155.9" y1="164.4" x2="166.85" y2="164.4" xlink:href="#ÅÂÁ_Ï_ÌÌ_È_ËÂÌÚ_26"/><linearGradient id="ÅÂÁ_Ï_ÌÌ_È_ËÂÌÚ_26-54" x1="150.08" y1="167.78" x2="161.03" y2="167.78" xlink:href="#ÅÂÁ_Ï_ÌÌ_È_ËÂÌÚ_26"/><linearGradient id="ÅÂÁ_Ï_ÌÌ_È_ËÂÌÚ_26-55" x1="88.59" y1="105.29" x2="99.54" y2="105.29" xlink:href="#ÅÂÁ_Ï_ÌÌ_È_ËÂÌÚ_26"/><linearGradient id="ÅÂÁ_Ï_ÌÌ_È_ËÂÌÚ_26-56" x1="101.48" y1="105.99" x2="112.43" y2="105.99" xlink:href="#ÅÂÁ_Ï_ÌÌ_È_ËÂÌÚ_26"/><linearGradient id="ÅÂÁ_Ï_ÌÌ_È_ËÂÌÚ_26-57" x1="124.03" y1="109.25" x2="134.97" y2="109.25" xlink:href="#ÅÂÁ_Ï_ÌÌ_È_ËÂÌÚ_26"/><linearGradient id="ÅÂÁ_Ï_ÌÌ_È_ËÂÌÚ_26-58" x1="89.83" y1="112.76" x2="100.78" y2="112.76" xlink:href="#ÅÂÁ_Ï_ÌÌ_È_ËÂÌÚ_26"/><linearGradient id="ÅÂÁ_Ï_ÌÌ_È_ËÂÌÚ_26-59" x1="131.09" y1="113.33" x2="142.04" y2="113.33" xlink:href="#ÅÂÁ_Ï_ÌÌ_È_ËÂÌÚ_26"/><linearGradient id="ÅÂÁ_Ï_ÌÌ_È_ËÂÌÚ_26-60" x1="102.72" y1="113.45" x2="113.67" y2="113.45" xlink:href="#ÅÂÁ_Ï_ÌÌ_È_ËÂÌÚ_26"/><linearGradient id="ÅÂÁ_Ï_ÌÌ_È_ËÂÌÚ_26-61" x1="71.12" y1="115.45" x2="82.06" y2="115.45" xlink:href="#ÅÂÁ_Ï_ÌÌ_È_ËÂÌÚ_26"/><linearGradient id="ÅÂÁ_Ï_ÌÌ_È_ËÂÌÚ_26-62" x1="76.94" y1="114.1" x2="94.95" y2="114.1" xlink:href="#ÅÂÁ_Ï_ÌÌ_È_ËÂÌÚ_26"/><linearGradient id="ÅÂÁ_Ï_ÌÌ_È_ËÂÌÚ_26-63" x1="96.89" y1="116.84" x2="107.84" y2="116.84" xlink:href="#ÅÂÁ_Ï_ÌÌ_È_ËÂÌÚ_26"/><linearGradient id="ÅÂÁ_Ï_ÌÌ_È_ËÂÌÚ_26-64" x1="122.68" y1="118.23" x2="133.62" y2="118.23" xlink:href="#ÅÂÁ_Ï_ÌÌ_È_ËÂÌÚ_26"/><linearGradient id="ÅÂÁ_Ï_ÌÌ_È_ËÂÌÚ_26-65" x1="65.29" y1="118.83" x2="76.24" y2="118.83" xlink:href="#ÅÂÁ_Ï_ÌÌ_È_ËÂÌÚ_26"/><linearGradient id="ÅÂÁ_Ï_ÌÌ_È_ËÂÌÚ_26-66" x1="78.18" y1="119.53" x2="89.13" y2="119.53" xlink:href="#ÅÂÁ_Ï_ÌÌ_È_ËÂÌÚ_26"/><linearGradient id="ÅÂÁ_Ï_ÌÌ_È_ËÂÌÚ_26-67" x1="91.07" y1="120.22" x2="102.02" y2="120.22" xlink:href="#ÅÂÁ_Ï_ÌÌ_È_ËÂÌÚ_26"/><linearGradient id="ÅÂÁ_Ï_ÌÌ_È_ËÂÌÚ_26-68" x1="116.85" y1="121.61" x2="127.8" y2="121.61" xlink:href="#ÅÂÁ_Ï_ÌÌ_È_ËÂÌÚ_26"/><linearGradient id="ÅÂÁ_Ï_ÌÌ_È_ËÂÌÚ_26-69" x1="72.36" y1="122.91" x2="83.3" y2="122.91" xlink:href="#ÅÂÁ_Ï_ÌÌ_È_ËÂÌÚ_26"/><linearGradient id="ÅÂÁ_Ï_ÌÌ_È_ËÂÌÚ_26-70" x1="85.25" y1="123.61" x2="96.19" y2="123.61" xlink:href="#ÅÂÁ_Ï_ÌÌ_È_ËÂÌÚ_26"/><linearGradient id="ÅÂÁ_Ï_ÌÌ_È_ËÂÌÚ_26-71" x1="98.14" y1="124.3" x2="109.08" y2="124.3" xlink:href="#ÅÂÁ_Ï_ÌÌ_È_ËÂÌÚ_26"/><linearGradient id="ÅÂÁ_Ï_ÌÌ_È_ËÂÌÚ_26-72" x1="92.31" y1="127.68" x2="103.26" y2="127.68" xlink:href="#ÅÂÁ_Ï_ÌÌ_È_ËÂÌÚ_26"/><linearGradient id="ÅÂÁ_Ï_ÌÌ_È_ËÂÌÚ_26-73" x1="99.38" y1="131.76" x2="110.33" y2="131.76" xlink:href="#ÅÂÁ_Ï_ÌÌ_È_ËÂÌÚ_26"/><linearGradient id="ÅÂÁ_Ï_ÌÌ_È_ËÂÌÚ_26-74" x1="112.27" y1="132.46" x2="123.22" y2="132.46" xlink:href="#ÅÂÁ_Ï_ÌÌ_È_ËÂÌÚ_26"/><linearGradient id="ÅÂÁ_Ï_ÌÌ_È_ËÂÌÚ_26-75" x1="119.33" y1="136.54" x2="130.28" y2="136.54" xlink:href="#ÅÂÁ_Ï_ÌÌ_È_ËÂÌÚ_26"/><linearGradient id="ÅÂÁ_Ï_ÌÌ_È_ËÂÌÚ_26-76" x1="79.42" y1="135.15" x2="118.63" y2="135.15" xlink:href="#ÅÂÁ_Ï_ÌÌ_È_ËÂÌÚ_26"/><linearGradient id="ÅÂÁ_Ï_ÌÌ_È_ËÂÌÚ_26-77" x1="114.75" y1="147.39" x2="125.7" y2="147.39" xlink:href="#ÅÂÁ_Ï_ÌÌ_È_ËÂÌÚ_26"/><linearGradient id="ÅÂÁ_Ï_ÌÌ_È_ËÂÌÚ_26-78" x1="164.53" y1="41.57" x2="166.71" y2="41.57" xlink:href="#ÅÂÁ_Ï_ÌÌ_È_ËÂÌÚ_26"/></defs><title>Ресурс 28</title><g class="cls-1"><g id="Слой_2" data-name="Слой 2"><g id="Layer_11" data-name="Layer 11"><rect class="cls-2" width="285" height="190"/><path class="cls-3" d="M113.36,83.32l104.1,60.1-61.31,35.63a7.35,7.35,0,0,1-6.68,0l-97.4-56.23c-1.85-1.07-1.86-2.8,0-3.87Zm.43,63.16,4.84-2.82L84.27,123.82l-4.85,2.82,34.37,19.84Zm20,4.77,4.85-2.82-20.23-11.68-4.85,2.82,20.23,11.68Zm5.83-3.38,4.84-2.82-13.16-7.6-4.85,2.82,13.17,7.6ZM90.11,119.31,95,116.49l-13.16-7.6-4.85,2.82,13.17,7.6Zm25.77,2.51L111,124.64l6.1,3.53,4.85-2.82-6.1-3.53Zm20,4.78L131,129.42l6.1,3.52,4.85-2.82-6.1-3.52ZM130,130l-4.85,2.82,6.1,3.52,4.85-2.81L130,130Zm-8.31-11.54-4.85,2.82,6.1,3.52L127.8,122l-6.1-3.52Zm29.51,22.66,4.85-2.82-6.1-3.52-4.85,2.82,6.1,3.52Zm-5.82,3.38,4.85-2.82-6.1-3.52L139.29,141l6.1,3.52Zm-16.63-22-4.85,2.82,6.11,3.52,4.85-2.82-6.11-3.52Zm-5.82,3.38-4.85,2.82,6.1,3.52,4.85-2.81-6.1-3.53Zm56.54,31.51,4.85-2.81-6.11-3.53-4.85,2.82,6.11,3.52Zm-70.67-39.67L104,120.56l6.1,3.53,4.85-2.82-6.1-3.53Zm64.84,43.06L178.5,158l-6.1-3.52-4.85,2.82,6.1,3.52Zm-59-46.44-4.85,2.82,6.1,3.52,4.85-2.82-6.1-3.52Zm-18.7,1.57,4.85-2.82-6.1-3.52-4.85,2.81,6.1,3.53Zm63.59,36.71,4.85-2.82-6.1-3.52-4.85,2.82,6.1,3.52Zm5.82-3.38,4.85-2.82-6.1-3.52-4.85,2.81,6.1,3.53Zm-63.59-36.72,4.85-2.82-6.1-3.52L95.65,109l6.1,3.52Zm64.83,44.18,4.85-2.82-6.09-3.52-4.85,2.82,6.09,3.52Zm5.83-3.39,4.85-2.81-6.1-3.52-4.85,2.81,6.1,3.52Zm-84.8-47.82-4.85,2.82,6.1,3.52L93.71,109l-6.1-3.52Zm20,4.77-4.85,2.82,6.1,3.52,4.85-2.82-6.1-3.52Zm-14.13-8.16-4.85,2.82,6.1,3.52,4.85-2.82-6.1-3.52Zm8.31,11.55-4.86,2.82L103,120l4.85-2.82-6.09-3.52Zm35.32,20.39-4.85,2.82,6.1,3.52,4.85-2.82-6.1-3.52Zm5.83-3.38-4.85,2.82,6.1,3.52L149,134.2l-6.1-3.52Zm-15.38-15.62-4.84,2.81,6.1,3.53,4.84-2.82-6.1-3.52Zm14.13,8.16L136.81,126l6.1,3.52,4.84-2.81-6.1-3.52ZM157,137.71l4.85-2.81-6.11-3.53-4.84,2.82,6.1,3.52Zm-22.45-18.58L129.74,122l6.1,3.52,4.85-2.81-6.1-3.53ZM120.46,111l-4.85,2.81,6.1,3.53,4.85-2.82-6.1-3.52ZM185.3,154l4.85-2.82-6.1-3.52-4.85,2.82,6.1,3.52ZM104.23,128.6l-4.85,2.81,6.1,3.52,4.85-2.81-6.1-3.52Zm31.71-18.44L131.09,113l6.1,3.52,4.85-2.81-6.1-3.53Zm-11.76,23.21-4.85,2.82,6.11,3.52,4.84-2.82-6.1-3.52Zm25.89-15.05-4.85,2.82,6.11,3.52,4.84-2.81-6.1-3.53Zm-40,6.89L105.2,128l6.11,3.52,4.84-2.82-6.1-3.52Zm-2.47-16,4.85-2.82-6.11-3.52-4.84,2.81,6.1,3.53Zm63.59,36.71,4.85-2.82-6.1-3.52-4.85,2.82,6.1,3.52Zm-43.25,8.77,4.84-2.82-6.1-3.52-4.84,2.81,6.1,3.53Zm37.54-21.82L170.3,130l-6.1-3.52-4.85,2.82,6.11,3.52ZM162,167.57l4.85-2.82-6.1-3.52-4.85,2.82,6.1,3.52Zm-50.71-34.9-4.85,2.82,6.1,3.52,4.85-2.81-6.1-3.53Zm-14.13-8.16-4.85,2.82,6.1,3.52,4.85-2.81-6.1-3.53Zm70.67,39.67,4.85-2.81-6.11-3.53-4.84,2.82,6.1,3.52ZM103,121.13,98.14,124l6.1,3.52,4.84-2.82-6.1-3.52Zm25.89-15L124,108.9l6.1,3.52,4.84-2.81-6.1-3.53ZM143,114.24l-4.84,2.82,6.1,3.52,4.84-2.81-6.1-3.53Zm-25.89,15-4.84,2.81,6.1,3.53,4.85-2.82-6.11-3.52ZM156.18,171l4.85-2.81-6.11-3.53-4.84,2.82,6.1,3.52Zm37.54-21.81,4.84-2.82-6.1-3.52-4.84,2.82,6.1,3.52ZM84.28,122.7l4.85-2.82L83,116.36l-4.85,2.81,6.1,3.53Zm63.59,36.71,4.85-2.82-6.1-3.52-4.85,2.82,6.1,3.52Zm-5.82,3.38,4.84-2.81-6.1-3.52L136,159.27l6.1,3.52ZM116,104.27l4.84-2.82-6.1-3.52-4.84,2.81,6.1,3.53ZM78.46,126.08l4.84-2.82-6.1-3.52-4.84,2.82,6.1,3.52ZM153.7,156l4.84-2.81-6.1-3.52-4.84,2.81,6.1,3.52Zm25.89-15,4.84-2.82-6.1-3.52-4.84,2.82,6.1,3.52Zm-1.36,9,4.85-2.82-6.1-3.52-4.84,2.82,6.09,3.52Zm-64.84-43-4.85,2.81,6.1,3.53,4.85-2.82-6.1-3.52Zm35.33,20.4-4.85,2.81,6.1,3.52,4.85-2.81-6.1-3.52ZM99.26,98.74l-4.85,2.82,6.1,3.52,4.85-2.82-6.1-3.52Zm55.68,64.75,4.84-2.82-6.09-3.52L148.84,160l6.1,3.52Zm5.82-3.39,4.85-2.81-6.1-3.52-4.85,2.81,6.1,3.52Zm-11.65,6.77,4.85-2.81-6.1-3.52L143,163.35l6.1,3.52Zm37.54-21.81,4.85-2.82-6.1-3.52-4.85,2.82,6.1,3.52ZM77.21,118.62l4.85-2.82L76,112.28l-4.84,2.82,6.09,3.52Zm12.89,1.82-4.85,2.81,6.1,3.52L96.19,124l-6.09-3.52Zm5.82-3.39-4.85,2.82,6.1,3.52,4.85-2.82-6.1-3.52Zm-24.53,5,4.85-2.82-6.1-3.52-4.85,2.82,6.1,3.52Zm50.42-20L117,104.82l6.1,3.52,4.85-2.81-6.1-3.52Zm50.71,34.89,4.85-2.82-6.1-3.52-4.85,2.82,6.1,3.52Zm-15.38-14.5-4.85,2.82,6.1,3.52,4.85-2.82-6.1-3.52Zm-36.29,28.16,4.85-2.82-6.1-3.52L114.75,147l6.1,3.52ZM107.68,93.85l-4.85,2.81,6.1,3.53,4.85-2.82-6.1-3.52Z"/><path class="cls-4" d="M156.15,179.05a7.35,7.35,0,0,1-6.68,0h0l-97.4-56.23a2.35,2.35,0,0,1-1.39-1.95v3.81a2.37,2.37,0,0,0,1.4,2l97.39,56.23h0a7.4,7.4,0,0,0,6.69,0l61.31-35.62v-3.82Z"/><g class="cls-1"><path class="cls-5" d="M214.32,66.72a7.38,7.38,0,0,1,3.34,5.8l-.2,70.9-104.1-60.1.2-70.91c0-2.13,1.51-3,3.37-1.92ZM214,135.63l.17-63.4-97-56-.18,63.39,97.06,56ZM165.62,40.48c-.52-.3-1-.06-1,.54a2.11,2.11,0,0,0,.94,1.64c.53.3.95.06.95-.54a2.06,2.06,0,0,0-.94-1.64Z"/><polygon class="cls-6" points="214.13 72.23 213.96 135.63 116.9 79.59 117.08 16.2 214.13 72.23"/><path class="cls-4" d="M216.34,65.55,119,9.32a2.35,2.35,0,0,0-2.39-.23l-2,1.17a2.35,2.35,0,0,1,2.39.23l97.39,56.23a7.38,7.38,0,0,1,3.34,5.8l-.2,70.9,2-1.17.2-70.91A7.36,7.36,0,0,0,216.34,65.55Z"/></g><polygon class="cls-7" points="189.67 112.15 140.41 83.71 140.41 43.5 189.67 71.94 189.67 112.15"/><path class="cls-4" d="M188.34,68.34l-46.6-26.9c-.73-.42-1.33,0-1.33,1v1.07L189.67,72V70.89A3.2,3.2,0,0,0,188.34,68.34Z"/><path class="cls-6" d="M144.44,44.53c0,.36-.25.51-.56.33a1.25,1.25,0,0,1-.56-1c0-.36.25-.51.56-.33A1.25,1.25,0,0,1,144.44,44.53Z"/><path class="cls-8" d="M146.25,45.58c0,.36-.25.5-.56.32a1.23,1.23,0,0,1-.56-1c0-.36.25-.5.56-.32A1.23,1.23,0,0,1,146.25,45.58Z"/><path class="cls-9" d="M148.06,46.63c0,.35-.25.5-.56.32a1.25,1.25,0,0,1-.56-1c0-.36.25-.51.56-.33A1.25,1.25,0,0,1,148.06,46.63Z"/><polygon class="cls-10" points="174.49 79.79 155.38 68.77 155.38 66.42 174.49 77.45 174.49 79.79"/><g class="cls-11"><polygon class="cls-12" points="113.78 97.37 108.93 100.19 102.83 96.67 107.68 93.85 113.78 97.37"/><polygon class="cls-13" points="120.84 101.45 116 104.27 109.89 100.74 114.74 97.93 120.84 101.45"/><polygon class="cls-14" points="105.36 102.26 100.51 105.08 94.41 101.56 99.26 98.74 105.36 102.26"/><polygon class="cls-15" points="127.91 105.53 123.06 108.34 116.96 104.82 121.81 102.01 127.91 105.53"/><polygon class="cls-16" points="93.71 109.03 88.86 111.85 82.76 108.33 87.61 105.51 93.71 109.03"/><polygon class="cls-17" points="106.6 109.72 101.75 112.54 95.65 109.02 100.5 106.2 106.6 109.72"/><polygon class="cls-18" points="119.49 110.42 114.64 113.23 108.55 109.72 113.39 106.9 119.49 110.42"/><polygon class="cls-19" points="126.56 114.5 121.71 117.32 115.61 113.79 120.45 110.98 126.56 114.5"/><polygon class="cls-20" points="149.1 117.77 144.26 120.58 138.16 117.06 143 114.24 149.1 117.77"/><polygon class="cls-21" points="120.73 117.88 115.88 120.7 109.78 117.18 114.63 114.36 120.73 117.88"/><polygon class="cls-22" points="114.91 121.27 110.06 124.09 103.96 120.56 108.81 117.75 114.91 121.27"/><polygon class="cls-23" points="156.17 121.85 151.32 124.66 145.22 121.14 150.07 118.32 156.17 121.85"/><polygon class="cls-24" points="140.69 122.66 135.84 125.47 129.74 121.95 134.59 119.14 140.69 122.66"/><polygon class="cls-25" points="121.98 125.35 117.13 128.17 111.03 124.64 115.88 121.83 121.98 125.35"/><polygon class="cls-26" points="163.24 125.92 158.39 128.74 152.29 125.22 157.14 122.4 163.24 125.92"/><polygon class="cls-27" points="134.87 126.04 130.01 128.86 123.91 125.34 128.76 122.52 134.87 126.04"/><polygon class="cls-28" points="147.75 126.74 142.91 129.55 136.81 126.03 141.65 123.22 147.75 126.74"/><polygon class="cls-29" points="116.15 128.73 111.31 131.55 105.2 128.03 110.05 125.21 116.15 128.73"/><polygon class="cls-30" points="129.04 129.43 124.19 132.24 118.09 128.72 122.94 125.9 129.04 129.43"/><polygon class="cls-31" points="170.3 130 165.46 132.82 159.35 129.3 164.2 126.48 170.3 130"/><polygon class="cls-32" points="141.93 130.12 137.08 132.94 130.98 129.42 135.83 126.6 141.93 130.12"/><polygon class="cls-33" points="154.82 130.82 149.97 133.63 143.87 130.11 148.72 127.3 154.82 130.82"/><polygon class="cls-34" points="136.11 133.51 131.26 136.32 125.16 132.8 130.01 129.98 136.11 133.51"/><polygon class="cls-35" points="177.37 134.08 172.52 136.9 166.42 133.38 171.27 130.56 177.37 134.08"/><polygon class="cls-36" points="149 134.2 144.15 137.02 138.05 133.5 142.9 130.68 149 134.2"/><polygon class="cls-37" points="161.88 134.9 157.04 137.71 150.94 134.19 155.78 131.37 161.88 134.9"/><polygon class="cls-38" points="117.39 136.2 112.54 139.01 106.44 135.49 111.29 132.67 117.39 136.2"/><polygon class="cls-39" points="143.17 137.58 138.32 140.4 132.22 136.88 137.07 134.06 143.17 137.58"/><polygon class="cls-40" points="184.43 138.16 179.59 140.98 173.49 137.46 178.33 134.64 184.43 138.16"/><polygon class="cls-41" points="156.06 138.28 151.21 141.1 145.11 137.57 149.96 134.76 156.06 138.28"/><polygon class="cls-42" points="150.24 141.66 145.39 144.48 139.29 140.96 144.14 138.14 150.24 141.66"/><polygon class="cls-43" points="191.5 142.24 186.65 145.06 180.55 141.54 185.4 138.72 191.5 142.24"/><polygon class="cls-44" points="176.02 143.05 171.17 145.87 165.07 142.35 169.91 139.53 176.02 143.05"/><polygon class="cls-45" points="144.41 145.05 139.57 147.87 126.4 140.26 131.25 137.45 144.41 145.05"/><polygon class="cls-46" points="198.56 146.32 193.72 149.14 187.62 145.62 192.46 142.8 198.56 146.32"/><polygon class="cls-47" points="170.19 146.44 165.34 149.26 159.24 145.73 164.09 142.91 170.19 146.44"/><polygon class="cls-48" points="183.08 147.13 178.23 149.95 172.14 146.43 176.98 143.61 183.08 147.13"/><polygon class="cls-49" points="138.59 148.44 133.74 151.25 113.51 139.57 118.36 136.75 138.59 148.44"/><polygon class="cls-50" points="164.37 149.82 159.52 152.64 153.42 149.12 158.27 146.3 164.37 149.82"/><polygon class="cls-51" points="177.26 150.52 172.41 153.33 166.31 149.81 171.16 147 177.26 150.52"/><polygon class="cls-52" points="190.15 151.21 185.3 154.03 179.2 150.51 184.05 147.69 190.15 151.21"/><polygon class="cls-53" points="132.76 151.82 127.92 154.64 121.82 151.11 126.66 148.3 132.76 151.82"/><polygon class="cls-54" points="158.54 153.21 153.7 156.02 147.6 152.5 152.44 149.69 158.54 153.21"/><polygon class="cls-55" points="171.43 153.9 166.58 156.72 160.49 153.2 165.34 150.38 171.43 153.9"/><polygon class="cls-56" points="184.33 154.6 179.47 157.41 173.37 153.89 178.22 151.07 184.33 154.6"/><polygon class="cls-57" points="152.72 156.59 147.87 159.41 141.77 155.89 146.62 153.07 152.72 156.59"/><polygon class="cls-58" points="165.61 157.29 160.76 160.1 154.66 156.58 159.51 153.77 165.61 157.29"/><polygon class="cls-59" points="178.5 157.98 173.65 160.8 167.55 157.28 172.4 154.46 178.5 157.98"/><polygon class="cls-60" points="146.9 159.98 142.05 162.79 135.95 159.27 140.79 156.46 146.9 159.98"/><polygon class="cls-61" points="159.78 160.67 154.94 163.49 148.84 159.97 153.69 157.15 159.78 160.67"/><polygon class="cls-62" points="172.68 161.37 167.83 164.18 161.73 160.66 166.57 157.84 172.68 161.37"/><polygon class="cls-63" points="153.96 164.06 149.11 166.87 143.01 163.35 147.86 160.54 153.96 164.06"/><polygon class="cls-64" points="166.85 164.75 162 167.57 155.9 164.05 160.75 161.23 166.85 164.75"/><polygon class="cls-65" points="161.03 168.14 156.18 170.95 150.08 167.43 154.92 164.61 161.03 168.14"/><polygon class="cls-66" points="99.54 105.64 94.69 108.46 88.59 104.94 93.44 102.12 99.54 105.64"/><polygon class="cls-67" points="112.43 106.34 107.58 109.16 101.48 105.64 106.33 102.82 112.43 106.34"/><polygon class="cls-68" points="134.97 109.61 130.13 112.42 124.03 108.9 128.87 106.08 134.97 109.61"/><polygon class="cls-69" points="100.78 113.11 95.93 115.93 89.83 112.41 94.68 109.59 100.78 113.11"/><polygon class="cls-70" points="142.04 113.69 137.19 116.5 131.09 112.98 135.94 110.17 142.04 113.69"/><polygon class="cls-71" points="113.67 113.8 108.82 116.62 102.72 113.1 107.57 110.28 113.67 113.8"/><polygon class="cls-72" points="82.06 115.8 77.22 118.61 71.12 115.09 75.96 112.28 82.06 115.8"/><polygon class="cls-73" points="94.95 116.49 90.11 119.31 76.94 111.71 81.79 108.89 94.95 116.49"/><polygon class="cls-74" points="107.84 117.19 102.99 120.01 96.89 116.48 101.75 113.67 107.84 117.19"/><polygon class="cls-75" points="133.62 118.58 128.78 121.4 122.68 117.87 127.52 115.06 133.62 118.58"/><polygon class="cls-76" points="76.24 119.18 71.39 122 65.29 118.48 70.14 115.66 76.24 119.18"/><polygon class="cls-77" points="89.13 119.88 84.28 122.7 78.18 119.17 83.03 116.36 89.13 119.88"/><polygon class="cls-78" points="102.02 120.57 97.17 123.39 91.07 119.87 95.92 117.05 102.02 120.57"/><polygon class="cls-79" points="127.8 121.96 122.95 124.78 116.85 121.26 121.7 118.44 127.8 121.96"/><polygon class="cls-80" points="83.3 123.26 78.46 126.08 72.36 122.56 77.2 119.74 83.3 123.26"/><polygon class="cls-81" points="96.19 123.96 91.35 126.77 85.25 123.25 90.09 120.44 96.19 123.96"/><polygon class="cls-82" points="109.08 124.65 104.24 127.47 98.14 123.95 102.98 121.13 109.08 124.65"/><polygon class="cls-83" points="103.26 128.04 98.41 130.85 92.31 127.33 97.16 124.52 103.26 128.04"/><polygon class="cls-84" points="110.33 132.12 105.48 134.93 99.38 131.41 104.23 128.59 110.33 132.12"/><polygon class="cls-85" points="123.22 132.81 118.37 135.63 112.27 132.1 117.11 129.29 123.22 132.81"/><polygon class="cls-86" points="130.28 136.89 125.44 139.71 119.33 136.19 124.18 133.37 130.28 136.89"/><polygon class="cls-87" points="118.63 143.66 113.79 146.48 79.42 126.64 84.27 123.82 118.63 143.66"/><polygon class="cls-88" points="125.7 147.74 120.85 150.56 114.75 147.04 119.6 144.22 125.7 147.74"/></g><path class="cls-89" d="M165.61,42.82c.6.35,1.09.07,1.1-.62a2.43,2.43,0,0,0-1.09-1.89c-.6-.34-1.09-.06-1.09.63A2.37,2.37,0,0,0,165.61,42.82Z"/></g></g></g></svg>