<svg xmlns="http://www.w3.org/2000/svg" xmlns:xlink="http://www.w3.org/1999/xlink" viewBox="0 0 285 190"><defs><style>.cls-1{mask:url(#mask);filter:url(#luminosity-noclip-3);}.cls-2,.cls-22,.cls-4{mix-blend-mode:multiply;}.cls-2{fill:url(#_ÂÁ_Ï_ÌÌ_È_ËÂÌÚ_585);}.cls-3{mask:url(#mask-2);filter:url(#luminosity-noclip-4);}.cls-4{fill:url(#linear-gradient);}.cls-5{isolation:isolate;}.cls-6{fill:#e3e8ec;}.cls-7{mask:url(#mask-3);}.cls-8{fill:url(#_ÂÁ_Ï_ÌÌ_È_ËÂÌÚ_377);}.cls-9{fill:url(#linear-gradient-2);}.cls-10{fill:#f7f8fb;}.cls-11{fill:#3a548c;}.cls-12{fill:#dd5414;}.cls-13{fill:#d5c1a3;}.cls-14{fill:#3a548d;}.cls-15{fill:url(#_ÂÁ_Ï_ÌÌ_È_ËÂÌÚ_342);}.cls-16,.cls-22{fill:#cbd9d9;}.cls-17,.cls-39,.cls-41{fill:#fff;}.cls-18{fill:#eebf8f;}.cls-19{fill:#6600f9;}.cls-20{fill:#464982;}.cls-21{fill:#313d63;}.cls-23{fill:#132146;}.cls-24{fill:#570cbf;}.cls-25{fill:#e79d70;}.cls-26{fill:#7549f6;}.cls-27{fill:#76aaaa;}.cls-28{fill:#8bd7b6;}.cls-29{fill:#73ba9d;}.cls-30{fill:#e08c79;}.cls-31{fill:none;stroke:#fff;stroke-miterlimit:10;}.cls-32{fill:url(#_ÂÁ_Ï_ÌÌ_È_ËÂÌÚ_342-2);}.cls-33{fill:#457a88;}.cls-34{mask:url(#mask-4);}.cls-35{opacity:0.8;fill:url(#linear-gradient-3);}.cls-36{fill:url(#linear-gradient-4);}.cls-37{fill:url(#linear-gradient-5);}.cls-38{fill:#303d63;}.cls-39{opacity:0.3;}.cls-40{fill:#40418a;}.cls-41{opacity:0.2;}.cls-42{opacity:0.6;fill:url(#linear-gradient-6);}.cls-43{fill:url(#linear-gradient-7);}.cls-44{font-size:12px;font-family:BasisGrotesquePro-Bold, Basis Grotesque Pro;font-weight:700;}.cls-45{filter:url(#luminosity-noclip-2);}.cls-46{filter:url(#luminosity-noclip);}</style><filter id="luminosity-noclip" x="67.92" y="-7241.87" width="162.5" height="32766" filterUnits="userSpaceOnUse" color-interpolation-filters="sRGB"><feFlood flood-color="#fff" result="bg"/><feBlend in="SourceGraphic" in2="bg"/></filter><mask id="mask" x="67.92" y="-7241.87" width="162.5" height="32766" maskUnits="userSpaceOnUse"><g class="cls-46"/></mask><linearGradient id="_ÂÁ_Ï_ÌÌ_È_ËÂÌÚ_585" x1="118.27" y1="171.47" x2="151.6" y2="113.74" gradientUnits="userSpaceOnUse"><stop offset="0"/><stop offset="0.23" stop-color="#1a1a1a"/><stop offset="0.53" stop-color="#363636"/><stop offset="0.8" stop-color="#474747"/><stop offset="1" stop-color="#4d4d4d"/></linearGradient><filter id="luminosity-noclip-2" x="162.18" y="-7241.87" width="22.82" height="32766" filterUnits="userSpaceOnUse" color-interpolation-filters="sRGB"><feFlood flood-color="#fff" result="bg"/><feBlend in="SourceGraphic" in2="bg"/></filter><mask id="mask-2" x="162.18" y="-7241.87" width="22.82" height="32766" maskUnits="userSpaceOnUse"><g class="cls-45"/></mask><linearGradient id="linear-gradient" x1="-5288.87" y1="467.66" x2="-5294.76" y2="477.85" gradientTransform="matrix(-0.66, 0, 0, 0.66, -3313.84, -192.69)" gradientUnits="userSpaceOnUse"><stop offset="0" stop-color="#999"/><stop offset="0.04" stop-color="#ababab"/><stop offset="0.13" stop-color="#c9c9c9"/><stop offset="0.22" stop-color="#e1e1e1"/><stop offset="0.31" stop-color="#f2f2f2"/><stop offset="0.42" stop-color="#fcfcfc"/><stop offset="0.55" stop-color="#fff"/><stop offset="0.63" stop-color="#fafafa"/><stop offset="0.72" stop-color="#ededed"/><stop offset="0.82" stop-color="#d7d7d7"/><stop offset="0.92" stop-color="#b8b8b8"/><stop offset="1" stop-color="#999"/></linearGradient><filter id="luminosity-noclip-3" x="67.92" y="70.27" width="162.5" height="95.35" filterUnits="userSpaceOnUse" color-interpolation-filters="sRGB"><feFlood flood-color="#fff" result="bg"/><feBlend in="SourceGraphic" in2="bg"/></filter><mask id="mask-3" x="67.92" y="70.27" width="162.5" height="95.35" maskUnits="userSpaceOnUse"><g class="cls-1"><path class="cls-2" d="M70.7,111.06l90.61,52.38a16.25,16.25,0,0,0,16.27,0l50.06-29a5.57,5.57,0,0,0,0-9.64L137,72.45a16.27,16.27,0,0,0-16.28,0l-50.06,29A5.58,5.58,0,0,0,70.7,111.06Z"/></g></mask><linearGradient id="_ÂÁ_Ï_ÌÌ_È_ËÂÌÚ_377" x1="118.27" y1="171.47" x2="151.6" y2="113.74" gradientUnits="userSpaceOnUse"><stop offset="0" stop-color="#fff"/><stop offset="0.16" stop-color="#d2d3e1"/><stop offset="0.36" stop-color="#a1a2bf"/><stop offset="0.56" stop-color="#797ba5"/><stop offset="0.73" stop-color="#5d6092"/><stop offset="0.89" stop-color="#4c4f86"/><stop offset="1" stop-color="#464982"/></linearGradient><linearGradient id="linear-gradient-2" x1="62.08" y1="108.93" x2="252.57" y2="108.93" gradientUnits="userSpaceOnUse"><stop offset="0" stop-color="#7549f6"/><stop offset="0.68" stop-color="#6600f9"/></linearGradient><linearGradient id="_ÂÁ_Ï_ÌÌ_È_ËÂÌÚ_342" x1="598.22" y1="1520" x2="605.19" y2="1520" gradientTransform="translate(-937.19 -1201.96) rotate(-19.85)" gradientUnits="userSpaceOnUse"><stop offset="0.33" stop-color="#ebb381"/><stop offset="1" stop-color="#a36baa"/></linearGradient><linearGradient id="_ÂÁ_Ï_ÌÌ_È_ËÂÌÚ_342-2" x1="-259.42" y1="-616.11" x2="-252.45" y2="-616.11" gradientTransform="translate(309.25 682.15) rotate(9.89)" xlink:href="#_ÂÁ_Ï_ÌÌ_È_ËÂÌÚ_342"/><filter id="luminosity-noclip-4" x="162.18" y="111.35" width="22.82" height="13.17" filterUnits="userSpaceOnUse" color-interpolation-filters="sRGB"><feFlood flood-color="#fff" result="bg"/><feBlend in="SourceGraphic" in2="bg"/></filter><mask id="mask-4" x="162.18" y="111.35" width="22.82" height="13.17" maskUnits="userSpaceOnUse"><g class="cls-3"><path class="cls-4" d="M162.46,119.89a.41.41,0,0,0,0,.77l6.41,3.7a1.5,1.5,0,0,0,1.34,0L184.72,116a.41.41,0,0,0,0-.77l-6.41-3.7a1.5,1.5,0,0,0-1.34,0Z"/></g></mask><linearGradient id="linear-gradient-3" x1="-5288.87" y1="467.66" x2="-5294.76" y2="477.85" gradientTransform="matrix(-0.66, 0, 0, 0.66, -3313.84, -192.69)" gradientUnits="userSpaceOnUse"><stop offset="0" stop-color="#545a97"/><stop offset="0.15" stop-color="#444c90"/><stop offset="0.33" stop-color="#3a438b"/><stop offset="0.55" stop-color="#37408a"/><stop offset="0.73" stop-color="#3c448c"/><stop offset="0.92" stop-color="#495092"/><stop offset="1" stop-color="#505695"/></linearGradient><linearGradient id="linear-gradient-4" x1="-5274.51" y1="471.77" x2="-5309.13" y2="471.77" gradientTransform="matrix(-0.66, 0, 0, 0.66, -3313.84, -192.69)" gradientUnits="userSpaceOnUse"><stop offset="0" stop-color="#889bd0"/><stop offset="0.56" stop-color="#c1d6fc"/><stop offset="1" stop-color="#fcf6ff"/></linearGradient><linearGradient id="linear-gradient-5" x1="-5298.81" y1="477.58" x2="-5284.82" y2="463.59" gradientTransform="matrix(-0.66, 0, 0, 0.66, -3313.84, -192.69)" gradientUnits="userSpaceOnUse"><stop offset="0" stop-color="#d2defd"/><stop offset="1" stop-color="#fff"/></linearGradient><linearGradient id="linear-gradient-6" x1="-5280.3" y1="476.86" x2="-5281.66" y2="475.5" gradientTransform="matrix(-0.66, 0, 0, 0.66, -3313.84, -192.69)" gradientUnits="userSpaceOnUse"><stop offset="0" stop-color="#5c5fce"/><stop offset="0.15" stop-color="#4c51c6"/><stop offset="0.33" stop-color="#4248c2"/><stop offset="0.55" stop-color="#3f45c0"/><stop offset="0.73" stop-color="#4449c2"/><stop offset="0.92" stop-color="#5154c9"/><stop offset="1" stop-color="#585acc"/></linearGradient><linearGradient id="linear-gradient-7" x1="-5281.66" y1="476.69" x2="-5280.3" y2="475.33" gradientTransform="matrix(-0.66, 0, 0, 0.66, -3313.84, -192.69)" gradientUnits="userSpaceOnUse"><stop offset="0" stop-color="#dbe3fd"/><stop offset="0.02" stop-color="#dde4fd"/><stop offset="0.21" stop-color="#e9e9fd"/><stop offset="0.46" stop-color="#f1ecfd"/><stop offset="1" stop-color="#f3edfd"/></linearGradient></defs><title>Ресурс 25</title><g class="cls-5"><g id="Слой_2" data-name="Слой 2"><g id="Layer_8" data-name="Layer 8"><rect class="cls-6" width="285" height="190"/><g class="cls-7"><path class="cls-8" d="M70.7,111.06l90.61,52.38a16.25,16.25,0,0,0,16.27,0l50.06-29a5.57,5.57,0,0,0,0-9.64L137,72.45a16.27,16.27,0,0,0-16.28,0l-50.06,29A5.58,5.58,0,0,0,70.7,111.06Z"/></g><path class="cls-9" d="M169.44,131.6,67.92,72.91V85.57a5.53,5.53,0,0,0,2.78,4.82l90.61,52.38a16.2,16.2,0,0,0,16.27,0l50.06-29a5.51,5.51,0,0,0,2.78-4.83V96.33Z"/><path class="cls-10" d="M70.84,77.73l90.6,52.38a16.27,16.27,0,0,0,16.28,0l50.06-29a5.58,5.58,0,0,0,0-9.65l-90.6-52.38a16.22,16.22,0,0,0-16.28,0L70.84,68.08A5.57,5.57,0,0,0,70.84,77.73Z"/><path class="cls-11" d="M115.73,154.93l10-2.34c3.74-.87,6.09-4.79,3.78-11.27l1,2.85a6.59,6.59,0,0,0-9.07-4l-12.34,11C110.24,154.22,110.27,156.46,115.73,154.93Z"/><path class="cls-12" d="M114.93,152.71l10-2.34a6.64,6.64,0,0,0,4.81-8.42h0a6.61,6.61,0,0,0-9.07-4.06s-6.55,4.42-8.53,6.15C106.62,148.85,108.38,154.24,114.93,152.71Z"/><path class="cls-13" d="M122.35,146.32a4.26,4.26,0,0,1-4.14-3.23l-3.42-13.54a4.27,4.27,0,1,1,8.29-2.09L126.49,141a4.27,4.27,0,0,1-3.1,5.19A4.17,4.17,0,0,1,122.35,146.32Z"/><rect class="cls-14" x="110.96" y="116.49" width="14.29" height="17.15" rx="6.18" ry="6.18" transform="translate(-26.26 31.53) rotate(-13.7)"/><path class="cls-11" d="M76.44,167.53l9.48-4.28A6.62,6.62,0,0,0,89,154.08h0a6.57,6.57,0,0,0-9.65-2.22L70.9,158C65.5,161.92,70.36,170.29,76.44,167.53Z"/><path class="cls-12" d="M77.51,166.47,87,162.18A6.62,6.62,0,0,0,90.08,153h0a6.58,6.58,0,0,0-9.65-2.22L72,156.93C66.57,160.85,71.43,169.22,77.51,166.47Z"/><path class="cls-13" d="M84.13,159.42a4.29,4.29,0,0,1-3.66-6.48l6.74-11.21a4.27,4.27,0,0,1,7.32,4.41l-6.74,11.21A4.28,4.28,0,0,1,84.13,159.42Z"/><path class="cls-15" d="M146,18.24h0a2.55,2.55,0,0,0-2.28,1.1,8,8,0,0,0-1.27,7.09,2.45,2.45,0,0,0,1.95,1.86l.79.14L144,27.35l-.08-.1-.38-.69-.37-1.49.17-2.94,1.43-2.64.64-.42.45-.3,1-.36Z"/><path class="cls-16" d="M145.1,28.43l-2.82-.5a2.45,2.45,0,0,1-1.95-1.86A8,8,0,0,1,141.6,19a2.54,2.54,0,0,1,2.28-1.11h0l3,.53Z"/><path class="cls-17" d="M144.59,19.51a8,8,0,0,0-1.27,7.09c.78,2.16,2.61,2.49,4.09.74a8,8,0,0,0,1.27-7.09C147.9,18.09,146.07,17.76,144.59,19.51Z"/><path class="cls-12" d="M152,14.63c6.52-1.36,12.62,3.22,15.15,7.54,2.2,3.74.7,5.52,3.3,9.06,3.16,4.32,6.26,2.88,9,6.71,3.14,4.43-.13,7.63,3,13.12,2.59,4.54,5.7,3.88,7.08,7.75,1.53,4.27-.33,10.51-4.69,13.12-6.26,3.76-15.05-1.49-17.68-7.12-1.77-3.79.49-5.08-.57-10.91-1.25-6.85-11.45-5-18.56-7.4-3.8-1.29-.45-10.09-2.91-12.22-2.86-2.47-3.61-7-2.79-10.5A12.71,12.71,0,0,1,152,14.63Z"/><path class="cls-18" d="M129.19,85.39a3.41,3.41,0,0,1-2.91-5.21c2.95-4.79,5.18-8.13,7.15-11.08,4.38-6.55,7.27-10.88,13.75-24.72a3.42,3.42,0,0,1,6.19,2.9c-6.7,14.3-9.87,19-14.25,25.61-1.94,2.9-4.13,6.19-7,10.88A3.39,3.39,0,0,1,129.19,85.39Z"/><path class="cls-19" d="M149,112.79c10.19-2.19,16.77-6,23.39-15.76,7.6-11.27,11.15-66.42-19.22-59.59-21.8,4.91,11,37.66-19.78,44.48C117.49,85.45,133.42,116.15,149,112.79Z"/><rect class="cls-14" x="83.93" y="134.16" width="14.29" height="17.15" rx="6.18" ry="6.18" transform="translate(90.7 -26.58) rotate(32.41)"/><path class="cls-20" d="M112.53,123.71l0,0Z"/><path class="cls-20" d="M112.3,123.18a1.43,1.43,0,0,1-.08-.22A1.43,1.43,0,0,0,112.3,123.18Z"/><path class="cls-20" d="M112.8,124.18a5.36,5.36,0,0,0,1,1.11A5.67,5.67,0,0,1,112.8,124.18Z"/><path class="cls-20" d="M133.66,86.29l-1-.05c-6-.29-14.11-.69-19.24,5.61-4.79,5.87-5.21,15.65-1.33,30.77a3.37,3.37,0,0,0,.1.34l9.09-8v0c-2.3-11.38-.55-15.22.41-16.39,1.72-2.12,6.15-1.9,10.44-1.69l1,0a5.34,5.34,0,1,0,.48-10.67Z"/><path class="cls-21" d="M133.66,86.29l-1-.05c-6-.29-14.11-.69-19.24,5.61-4.79,5.87-5.21,15.65-1.33,30.77a3.37,3.37,0,0,0,.1.34l9.09-8v0c-2.3-11.38-.55-15.22.41-16.39,1.72-2.12,6.15-1.9,10.44-1.69l1,0a5.34,5.34,0,1,0,.48-10.67Z"/><path class="cls-21" d="M113.75,125.29a5.36,5.36,0,0,0,3.54,1.35,5.58,5.58,0,0,0,1.33-.17,5.34,5.34,0,0,0,3.85-6.5c-.23-.87-.43-1.71-.62-2.51v0C118.33,119.81,115.38,122.33,113.75,125.29Z"/><path class="cls-20" d="M112.77,124.13l-.11-.17Z"/><path class="cls-22" d="M112.8,124.18l0-.05Z"/><polygon class="cls-22" points="113.75 125.29 113.75 125.29 113.75 125.29 113.75 125.29"/><path class="cls-22" d="M121.32,115c.16.79.34,1.61.53,2.47Z"/><polygon class="cls-22" points="112.22 122.96 112.22 122.96 112.22 122.96 112.22 122.96"/><path class="cls-22" d="M112.51,123.68a4.4,4.4,0,0,1-.21-.5A4.4,4.4,0,0,0,112.51,123.68Z"/><path class="cls-22" d="M112.66,124c0-.08-.09-.17-.13-.25Z"/><path class="cls-20" d="M112.22,123h0a1.43,1.43,0,0,0,.08.22,4.4,4.4,0,0,0,.21.5l0,0c0,.08.08.17.13.25l.11.17,0,.05a5.67,5.67,0,0,0,1,1.11h0c1.63-3,4.58-5.48,8.11-7.8v0c-.19-.86-.37-1.68-.53-2.47v0Z"/><path class="cls-23" d="M112.22,123h0a1.43,1.43,0,0,0,.08.22,4.4,4.4,0,0,0,.21.5l0,0c0,.08.08.17.13.25l.11.17,0,.05a5.67,5.67,0,0,0,1,1.11h0c1.63-3,4.58-5.48,8.11-7.8v0c-.19-.86-.37-1.68-.53-2.47v0Z"/><ellipse class="cls-23" cx="139.63" cy="98.15" rx="6.8" ry="13.63" transform="translate(-31.04 99.68) rotate(-35.62)"/><path class="cls-24" d="M137.1,87.55l-.52-1.11c9.21-4.26,14.08-7.68,16.31-11.44s1.91-7.69,1.58-13.32c-.18-3-.38-6.51-.27-10.64l1.22,0c-.11,4.08.09,7.51.27,10.54.35,5.85.59,10.07-1.75,14S146.54,83.18,137.1,87.55Z"/><path class="cls-18" d="M162.93,46.77c3.37-1.79,4.07-4.3,1.28-6.21s-7.89-2.22-11.39-.7S149.7,43.57,151,46.7C154.63,55.61,156.41,50.24,162.93,46.77Z"/><path class="cls-25" d="M157,45.61a3.4,3.4,0,0,1-3.3-2.54l-3-11.42a3.42,3.42,0,0,1,6.61-1.75l3,11.42a3.43,3.43,0,0,1-2.44,4.18A3.7,3.7,0,0,1,157,45.61Z"/><ellipse class="cls-18" cx="153.43" cy="26.67" rx="10.21" ry="10.24"/><path class="cls-12" d="M143.16,24.07c.93,2.2,5.29,2.69,8,2.4a22.14,22.14,0,0,1,6.06,0c4.4.59,4.42,7,7,6.69,1.5-.16,2.42-2.85,2.7-4.28.92-4.7-2.36-9.89-6.68-12.34-1-.57-5.67-3.05-10.59-1C145.63,17.17,142.1,21.56,143.16,24.07Z"/><path class="cls-20" d="M143.8,99.77a5.34,5.34,0,0,0-6.63-3.61,68.18,68.18,0,0,0-13.2,5.55s5.26,2.39,6,5.48c.64,2.7,3.76,1.61,4.52,1.3l.16-.07h0a50.65,50.65,0,0,1,5.56-2A5.34,5.34,0,0,0,143.8,99.77Z"/><path class="cls-23" d="M143.8,99.77a5.34,5.34,0,0,0-6.63-3.61,68.18,68.18,0,0,0-13.2,5.55s5.26,2.39,6,5.48c.64,2.7,3.76,1.61,4.52,1.3l.16-.07h0a50.65,50.65,0,0,1,5.56-2A5.34,5.34,0,0,0,143.8,99.77Z"/><path class="cls-21" d="M130,107.19c-.72-3.09-6-5.47-6-5.48a83.88,83.88,0,0,0-11.44,7.58A105.87,105.87,0,0,0,88.34,136.8a5.34,5.34,0,0,0,9.06,5.65c12.95-20.77,27.82-30,37.07-34C133.71,108.8,130.59,109.89,130,107.19Z"/><path class="cls-24" d="M164.38,88.63l-9.57,5c6.48,4,5.05,10.08,5.05,10.08l9.26-6.59A9.07,9.07,0,0,0,164.38,88.63Z"/><path class="cls-26" d="M154.81,93.67s4.81,5.85,5.05,10.08C159.86,103.75,161.29,97.71,154.81,93.67Z"/><path class="cls-27" d="M149.26,92.41v-1h-.2l-.09.24a1.35,1.35,0,0,0-.4-.35L122.19,76a3.07,3.07,0,0,0-3.1,0L100.58,86.72l28.55,16.48a2.91,2.91,0,0,0,2.91,0l16.54-9.55a1.36,1.36,0,0,0,.68-1.09h0v-.15Z"/><path class="cls-16" d="M148.58,90.25,122.19,75a3.07,3.07,0,0,0-3.1,0L100.58,85.7l30,17.32,18-10.39A1.38,1.38,0,0,0,148.58,90.25Z"/><path class="cls-22" d="M149.65,26.54s7.69.33,8.35,3.8-.18,6.14-3.48,6.52c2,0,5.09-1.6,6.73-3.6,0,0,.92-7.31.2-7.8S149.65,26.54,149.65,26.54Z"/><path class="cls-24" d="M166.89,62.7s1.75,21-15.73,21.36L143,89S152.4,91.83,161.7,90c19-3.67,10.78-34.48,10.78-34.48Z"/><path class="cls-28" d="M137.37,85.78l-4.45,2.57a1.6,1.6,0,0,1-1.61,0l-6.73-3.88a.59.59,0,0,1,0-1L129,80.89a1.6,1.6,0,0,1,1.61,0l6.72,3.88A.58.58,0,0,1,137.37,85.78Z"/><polygon class="cls-27" points="116.23 80.88 114.72 81.76 112.65 80.56 114.16 79.69 116.23 80.88"/><polygon class="cls-27" points="118.77 82.35 117.26 83.22 115.19 82.03 116.7 81.16 118.77 82.35"/><polygon class="cls-27" points="121.31 83.82 119.8 84.69 117.73 83.5 119.24 82.62 121.31 83.82"/><polygon class="cls-29" points="123.86 85.29 122.35 86.16 120.28 84.96 121.78 84.09 123.86 85.29"/><polygon class="cls-29" points="126.4 86.75 124.89 87.63 122.82 86.43 124.33 85.56 126.4 86.75"/><polygon class="cls-29" points="128.94 88.22 127.43 89.09 125.36 87.9 126.87 87.03 128.94 88.22"/><polygon class="cls-29" points="131.48 89.69 129.97 90.56 127.9 89.36 129.41 88.49 131.48 89.69"/><polygon class="cls-29" points="136.59 92.64 135.08 93.51 129.97 90.56 131.48 89.69 136.59 92.64"/><polygon class="cls-29" points="139.11 94.09 137.6 94.96 135.53 93.77 137.04 92.9 139.11 94.09"/><polygon class="cls-29" points="141.65 95.56 140.14 96.43 138.07 95.23 139.58 94.36 141.65 95.56"/><polygon class="cls-27" points="112.03 83.19 110.52 84.06 108.45 82.87 109.96 82 112.03 83.19"/><polygon class="cls-27" points="114.57 84.66 113.06 85.53 110.99 84.33 112.5 83.46 114.57 84.66"/><polygon class="cls-27" points="117.11 86.13 115.61 87 113.53 85.8 115.05 84.93 117.11 86.13"/><polygon class="cls-27" points="119.66 87.59 118.15 88.47 116.08 87.27 117.59 86.4 119.66 87.59"/><polygon class="cls-27" points="122.2 89.06 120.69 89.93 118.62 88.74 120.13 87.87 122.2 89.06"/><polygon class="cls-27" points="124.74 90.53 123.23 91.4 121.16 90.2 122.67 89.33 124.74 90.53"/><polygon class="cls-29" points="127.28 92 125.77 92.87 123.7 91.67 125.21 90.8 127.28 92"/><polygon class="cls-29" points="129.82 93.46 128.31 94.33 126.24 93.14 127.75 92.27 129.82 93.46"/><polygon class="cls-29" points="132.37 94.93 130.86 95.8 128.78 94.61 130.29 93.74 132.37 94.93"/><polygon class="cls-29" points="134.91 96.4 133.4 97.27 131.33 96.08 132.84 95.2 134.91 96.4"/><polygon class="cls-29" points="137.55 97.92 136.04 98.8 133.87 97.54 135.38 96.67 137.55 97.92"/><polygon class="cls-27" points="109.39 84.72 107.88 85.59 105.81 84.39 107.32 83.52 109.39 84.72"/><polygon class="cls-27" points="111.93 86.19 110.42 87.06 108.35 85.86 109.86 84.99 111.93 86.19"/><polygon class="cls-27" points="114.47 87.65 112.96 88.52 110.89 87.33 112.4 86.46 114.47 87.65"/><polygon class="cls-27" points="117.01 89.12 115.5 89.99 113.43 88.8 114.94 87.92 117.01 89.12"/><polygon class="cls-27" points="119.56 90.59 118.05 91.46 115.97 90.26 117.48 89.39 119.56 90.59"/><polygon class="cls-27" points="122.1 92.06 120.59 92.93 118.52 91.73 120.03 90.86 122.1 92.06"/><polygon class="cls-27" points="124.64 93.52 123.13 94.39 121.06 93.2 122.57 92.33 124.64 93.52"/><polygon class="cls-27" points="127.18 94.99 125.67 95.86 123.6 94.67 125.11 93.79 127.18 94.99"/><polygon class="cls-29" points="129.72 96.46 128.21 97.33 126.14 96.13 127.65 95.26 129.72 96.46"/><polygon class="cls-29" points="132.26 97.92 130.75 98.8 128.68 97.6 130.19 96.73 132.26 97.92"/><polygon class="cls-29" points="134.91 99.45 133.4 100.32 131.23 99.07 132.74 98.2 134.91 99.45"/><polygon class="cls-27" points="114.85 82.43 113.34 83.3 110.6 81.72 112.11 80.85 114.85 82.43"/><polygon class="cls-27" points="117.39 83.9 115.88 84.77 113.81 83.57 115.32 82.7 117.39 83.9"/><polygon class="cls-27" points="119.93 85.36 118.42 86.23 116.35 85.04 117.86 84.17 119.93 85.36"/><polygon class="cls-27" points="122.47 86.83 120.96 87.7 118.89 86.51 120.4 85.64 122.47 86.83"/><polygon class="cls-29" points="125.01 88.3 123.5 89.17 121.43 87.97 122.94 87.1 125.01 88.3"/><polygon class="cls-29" points="127.56 89.77 126.05 90.64 123.97 89.44 125.48 88.57 127.56 89.77"/><polygon class="cls-29" points="130.1 91.23 128.59 92.11 126.52 90.91 128.03 90.04 130.1 91.23"/><polygon class="cls-29" points="132.64 92.7 131.13 93.57 129.06 92.38 130.57 91.51 132.64 92.7"/><polygon class="cls-29" points="135.18 94.17 133.67 95.04 131.6 93.84 133.11 92.97 135.18 94.17"/><polygon class="cls-29" points="137.72 95.64 136.21 96.51 134.14 95.31 135.65 94.44 137.72 95.64"/><polygon class="cls-29" points="139.62 96.73 138.11 97.6 136.68 96.78 138.19 95.91 139.62 96.73"/><path class="cls-30" d="M165.76,53.36c-2.09,2.8-2.74,6.57-1.47,8.42s4,1.08,6.08-1.72,2.74-6.56,1.47-8.41S167.84,50.56,165.76,53.36Z"/><path class="cls-31" d="M152.71,33.78a5.46,5.46,0,0,0,6.13-.64"/><path class="cls-32" d="M166.3,27.23l0,0h0a2.54,2.54,0,0,0-2.53-.17,7.93,7.93,0,0,0-4.62,5.53,2.43,2.43,0,0,0,.77,2.57l.62.52-.41-1.48,0-.13,0-.79.42-1.47,1.61-2.47,2.54-1.59.77,0,.53,0,1.06.19Z"/><path class="cls-16" d="M167,27.83l-2.3-1.93h0a2.54,2.54,0,0,0-2.53-.17,7.94,7.94,0,0,0-4.62,5.52,2.44,2.44,0,0,0,.77,2.58l2.2,1.84Z"/><path class="cls-17" d="M164.49,27.65a8,8,0,0,0-4.62,5.53c-.4,2.26,1,3.46,3.19,2.67a8,8,0,0,0,4.62-5.53C168.07,28.06,166.64,26.86,164.49,27.65Z"/><path class="cls-18" d="M172.48,55.56A3.42,3.42,0,1,0,165.81,57c2.57,11.67,2.28,19-.87,22.41-2.95,3.18-9.24,3.92-20.88,2.41a19.29,19.29,0,0,1-3.6-1.11c-1.37-.67-3.06-2.45-3.67-2.27s-.58,1,.18,1.68a8.9,8.9,0,0,0,1.57,1.19s-5.78-.54-9.33,1.36c-2.68,1.42-.67,3.67,2.34,4.63,1,.33,9.93,1.07,9.93,1.07a90.9,90.9,0,0,0,12.46,1c1.44,0,2.77-.06,4-.18,5.34-.53,9.27-2.22,12-5.18,2.56-2.76,4-6.48,4.33-11.38C174.61,68.16,174,62.55,172.48,55.56Z"/><path class="cls-17" d="M168.83,108.12c-2.33,0-4-1.57-6.23-3.73a37.34,37.34,0,0,0-16.11-9.75.14.14,0,0,1-.09-.19.15.15,0,0,1,.19-.1,37.6,37.6,0,0,1,16.22,9.82c2.85,2.72,4.57,4.37,7.87,3.33l.56-.18c3.51-1.1,5.84-1.83,6.33-3.36.36-1.14-.28-2.73-2.1-5.16-3.9-5.2-2.57-13.91-1.16-23.13.86-5.68,1.75-11.56,1.28-16.43-.63-6.46-4.15-10.39-7.56-14.18-3.05-3.41-5.94-6.63-5.94-11.25a.15.15,0,0,1,.16-.15.15.15,0,0,1,.15.15c0,4.5,2.85,7.68,5.86,11,3.28,3.66,7,7.8,7.63,14.36.48,4.91-.42,10.8-1.28,16.5-1.34,8.76-2.71,17.81,1.1,22.91,1.89,2.51,2.55,4.19,2.15,5.43-.54,1.68-2.92,2.43-6.53,3.56l-.56.18A6.57,6.57,0,0,1,168.83,108.12Z"/><path class="cls-17" d="M147.09,94.9H147l-.84-.24a.23.23,0,0,1-.16-.29.22.22,0,0,1,.28-.15l.84.24a.24.24,0,0,1,.16.29A.22.22,0,0,1,147.09,94.9Z"/><path class="cls-33" d="M143.9,19.18a4,4,0,0,1,1.27-1.08s1.72-2.35,3.46-2.31l-1.74,0-2,1.26-1.05,1.68Z"/><path class="cls-27" d="M150.79,16l-.42-.15-.19-.06-.22-.06-.23-.06-.17-.05-.27,0-.12,0-.29,0h-.09a1.73,1.73,0,0,0-.32,0h-.06l-.32,0h-.39l-.33,0h0a4.34,4.34,0,0,0-2.05.72,4.61,4.61,0,0,0-1.83,3l.42,0c.9-2.71,3.35-3.8,6.89-2.44,4.58,1.75,8.81,6.67,10.15,11.73l.31.12C160.11,23.35,155.54,17.8,150.79,16Z"/><path class="cls-17" d="M147.37,15.43l.33,0h.39l.32,0h.06a1.73,1.73,0,0,1,.32,0h.09l.29,0,.12,0,.27,0,.17.05.23.06.22.06.19.06.42.15c4.75,1.82,9.32,7.37,10.46,12.61a7.16,7.16,0,0,1,2-1.69c-1.27-5.12-5.73-10.45-10.37-12.23a6,6,0,0,0-5.28,0h0l0,0,0,0-2.21,1.4h0a4.34,4.34,0,0,1,2.05-.72Z"/><path class="cls-27" d="M91.55,67.1l9,18.6,30,17.32-8.72-18.81a4,4,0,0,0-1.68-1.83L92.88,66.61C91.8,66,91.5,67,91.55,67.1Z"/><path class="cls-28" d="M119.82,82.7l-27.6-16a.45.45,0,0,0-.63.57l9,19.42a.14.14,0,0,0,.07.08l28.62,16.52a.48.48,0,0,0,.68-.62L121.56,84.6A4.32,4.32,0,0,0,119.82,82.7Z"/><g class="cls-34"><path class="cls-35" d="M162.46,119.89a.41.41,0,0,0,0,.77l6.41,3.7a1.5,1.5,0,0,0,1.34,0L184.72,116a.41.41,0,0,0,0-.77l-6.41-3.7a1.5,1.5,0,0,0-1.34,0Z"/></g><path class="cls-36" d="M162.18,118.8v.77a.49.49,0,0,0,.28.44l6.41,3.7a1.44,1.44,0,0,0,1.34,0l14.51-8.38a.47.47,0,0,0,.28-.4v-.77l-6.69-3.3a1.5,1.5,0,0,0-1.34,0Z"/><path class="cls-37" d="M162.46,118.46a.41.41,0,0,0,0,.77l6.41,3.7a1.5,1.5,0,0,0,1.34,0l14.51-8.38a.41.41,0,0,0,0-.77l-6.41-3.7a1.5,1.5,0,0,0-1.34,0Z"/><polygon class="cls-38" points="164.35 117.81 171.34 121.84 183.59 114.77 176.6 110.73 164.35 117.81"/><path class="cls-39" d="M162.48,118.94l6.41,3.69a1.44,1.44,0,0,0,1.34,0l14.51-8.37A.61.61,0,0,0,185,114c.08.18,0,.37-.25.51l-14.51,8.38a1.5,1.5,0,0,1-1.34,0l-6.41-3.7c-.26-.15-.34-.36-.23-.55A.61.61,0,0,0,162.48,118.94Z"/><path class="cls-40" d="M180,112.1s-.05.06,0,.08l1.11.64a.13.13,0,0,0,.13,0h0s.05-.06,0-.08l-1.11-.64a.15.15,0,0,0-.13,0Z"/><path class="cls-41" d="M168.87,122.93a1.5,1.5,0,0,0,1.34,0l14.51-8.38a.41.41,0,0,0,0-.77l-6.41-3.7a1.5,1.5,0,0,0-1.34,0Z"/><path class="cls-42" d="M165.63,120.12a.08.08,0,0,0,0,.15l.69.39a.26.26,0,0,0,.27,0l.67-.39a.08.08,0,0,0,0-.15l-.69-.4a.32.32,0,0,0-.27,0Z"/><path class="cls-43" d="M165.63,120a.08.08,0,0,0,0,.15l.69.39a.26.26,0,0,0,.27,0l.67-.39a.08.08,0,0,0,0-.15l-.69-.4a.32.32,0,0,0-.27,0Z"/><circle class="cls-16" cx="152.29" cy="34.39" r="1.22"/><circle class="cls-17" cx="152.29" cy="33.86" r="1.22"/><circle class="cls-17" cx="87.53" cy="49.23" r="12.83"/><text class="cls-44" transform="translate(83.76 53.03)">4</text></g></g></g></svg>