<svg xmlns="http://www.w3.org/2000/svg" xmlns:xlink="http://www.w3.org/1999/xlink" viewBox="0 0 285 190"><defs><style>.cls-1{mask:url(#mask);filter:url(#luminosity-noclip-2);}.cls-2{mix-blend-mode:multiply;fill:url(#linear-gradient);}.cls-3{fill:#e3e8ec;}.cls-4{fill:#6600f8;}.cls-5{fill:none;stroke:#d94f23;stroke-miterlimit:10;stroke-width:3px;}.cls-6{mask:url(#mask-2);}.cls-7{opacity:0.8;fill:url(#linear-gradient-2);}.cls-8{fill:url(#linear-gradient-3);}.cls-9{fill:url(#linear-gradient-4);}.cls-10{fill:#313d62;}.cls-11,.cls-13,.cls-18{fill:#fff;}.cls-11{opacity:0.3;}.cls-12{fill:#40418a;}.cls-13{opacity:0.2;}.cls-14{opacity:0.6;fill:url(#linear-gradient-5);}.cls-15{fill:url(#linear-gradient-6);}.cls-16{fill:#f7f7fa;}.cls-17{fill:#dd501e;}.cls-19,.cls-20{fill:#f6f6f9;}.cls-19{fill-rule:evenodd;}.cls-21{font-size:12px;font-family:BasisGrotesquePro-Bold, Basis Grotesque Pro;font-weight:700;}.cls-22{filter:url(#luminosity-noclip);}</style><filter id="luminosity-noclip" x="73.67" y="-7241.71" width="129.96" height="32766" filterUnits="userSpaceOnUse" color-interpolation-filters="sRGB"><feFlood flood-color="#fff" result="bg"/><feBlend in="SourceGraphic" in2="bg"/></filter><mask id="mask" x="73.67" y="-7241.71" width="129.96" height="32766" maskUnits="userSpaceOnUse"><g class="cls-22"/></mask><linearGradient id="linear-gradient" x1="149.69" y1="104.41" x2="127.61" y2="142.64" gradientUnits="userSpaceOnUse"><stop offset="0" stop-color="#999"/><stop offset="0.04" stop-color="#ababab"/><stop offset="0.13" stop-color="#c9c9c9"/><stop offset="0.22" stop-color="#e1e1e1"/><stop offset="0.31" stop-color="#f2f2f2"/><stop offset="0.42" stop-color="#fcfcfc"/><stop offset="0.55" stop-color="#fff"/><stop offset="0.63" stop-color="#fafafa"/><stop offset="0.72" stop-color="#ededed"/><stop offset="0.82" stop-color="#d7d7d7"/><stop offset="0.92" stop-color="#b8b8b8"/><stop offset="1" stop-color="#999"/></linearGradient><filter id="luminosity-noclip-2" x="73.67" y="86.01" width="129.96" height="75.03" filterUnits="userSpaceOnUse" color-interpolation-filters="sRGB"><feFlood flood-color="#fff" result="bg"/><feBlend in="SourceGraphic" in2="bg"/></filter><mask id="mask-2" x="73.67" y="86.01" width="129.96" height="75.03" maskUnits="userSpaceOnUse"><g class="cls-1"><path class="cls-2" d="M202.05,134.64c2.11,1.22,2.11,3.19,0,4.41l-36.51,21.08a8.43,8.43,0,0,1-7.64,0L75.25,112.41c-2.11-1.22-2.11-3.19,0-4.41l36.51-21.08a8.43,8.43,0,0,1,7.64,0Z"/></g></mask><linearGradient id="linear-gradient-2" x1="149.69" y1="104.41" x2="127.61" y2="142.64" gradientUnits="userSpaceOnUse"><stop offset="0" stop-color="#545a97"/><stop offset="0.15" stop-color="#444c90"/><stop offset="0.33" stop-color="#3a438b"/><stop offset="0.55" stop-color="#37408a"/><stop offset="0.73" stop-color="#3c448c"/><stop offset="0.92" stop-color="#495092"/><stop offset="1" stop-color="#505695"/></linearGradient><linearGradient id="linear-gradient-3" x1="203.61" y1="119.84" x2="73.67" y2="119.84" gradientUnits="userSpaceOnUse"><stop offset="0" stop-color="#889bd0"/><stop offset="0.56" stop-color="#c1d6fc"/><stop offset="1" stop-color="#fcf6ff"/></linearGradient><linearGradient id="linear-gradient-4" x1="112.4" y1="141.63" x2="164.9" y2="89.13" gradientUnits="userSpaceOnUse"><stop offset="0" stop-color="#d2defd"/><stop offset="1" stop-color="#fff"/></linearGradient><linearGradient id="linear-gradient-5" x1="181.89" y1="138.94" x2="176.79" y2="133.84" gradientUnits="userSpaceOnUse"><stop offset="0" stop-color="#5c5fce"/><stop offset="0.15" stop-color="#4c51c6"/><stop offset="0.33" stop-color="#4248c2"/><stop offset="0.55" stop-color="#3f45c0"/><stop offset="0.73" stop-color="#4449c2"/><stop offset="0.92" stop-color="#5154c9"/><stop offset="1" stop-color="#585acc"/></linearGradient><linearGradient id="linear-gradient-6" x1="176.78" y1="138.31" x2="181.89" y2="133.21" gradientUnits="userSpaceOnUse"><stop offset="0" stop-color="#dbe3fd"/><stop offset="0.02" stop-color="#dde4fd"/><stop offset="0.21" stop-color="#e9e9fd"/><stop offset="0.46" stop-color="#f1ecfd"/><stop offset="1" stop-color="#f3edfd"/></linearGradient></defs><title>Ресурс 24</title><g id="Слой_2" data-name="Слой 2"><g id="Layer_8" data-name="Layer 8"><rect class="cls-3" width="285" height="190"/><path class="cls-4" d="M191.81,99.5c26,15,26,39.4,0,54.42s-68.24,15-94.27,0-26-39.39,0-54.42S165.78,84.47,191.81,99.5Z"/><path class="cls-5" d="M183.14,104.5c21.24,12.27,21.24,32.15,0,44.42s-55.69,12.26-76.93,0-21.24-32.15,0-44.42S161.9,92.24,183.14,104.5Z"/><path class="cls-5" d="M170.81,111.57c14.43,8.33,14.43,21.84,0,30.17s-37.83,8.34-52.27,0-14.43-21.84,0-30.17S156.38,103.24,170.81,111.57Z"/><g class="cls-6"><path class="cls-7" d="M202.05,134.64c2.11,1.22,2.11,3.19,0,4.41l-36.51,21.08a8.43,8.43,0,0,1-7.64,0L75.25,112.41c-2.11-1.22-2.11-3.19,0-4.41l36.51-21.08a8.43,8.43,0,0,1,7.64,0Z"/></g><path class="cls-8" d="M203.61,128.42v4.43a2.77,2.77,0,0,1-1.56,2.51l-36.51,21.08a8.43,8.43,0,0,1-7.64,0L75.25,108.72a2.71,2.71,0,0,1-1.58-2.29V102l38.09-18.81a8.43,8.43,0,0,1,7.64,0Z"/><path class="cls-9" d="M202.05,126.5c2.11,1.21,2.11,3.19,0,4.41L165.54,152a8.43,8.43,0,0,1-7.64,0L75.25,104.27c-2.11-1.22-2.11-3.19,0-4.41l36.51-21.08a8.43,8.43,0,0,1,7.64,0Z"/><polygon class="cls-10" points="191.27 122.78 151.46 145.76 81.7 105.49 121.51 82.5 191.27 122.78"/><path class="cls-11" d="M201.93,129.21l-36.51,21.08a8.43,8.43,0,0,1-7.64,0L75.13,102.58a3.43,3.43,0,0,1-1.31-1.24c-.42,1,.06,2.14,1.43,2.93L157.9,152a8.43,8.43,0,0,0,7.64,0l36.51-21.08c1.49-.86,1.93-2.1,1.31-3.18A3.19,3.19,0,0,1,201.93,129.21Z"/><path class="cls-12" d="M102.13,90.28c.25.15.31.35.14.45L96,94.38a.92.92,0,0,1-.78-.08L95,94.21c-.25-.15-.32-.35-.14-.45l6.32-3.65a.9.9,0,0,1,.77.08Z"/><path class="cls-13" d="M165.54,152a8.43,8.43,0,0,1-7.64,0L75.25,104.27c-2.11-1.22-2.11-3.19,0-4.41l36.51-21.08a8.43,8.43,0,0,1,7.64,0Z"/><path class="cls-14" d="M184,136c.42.24.42.63,0,.88l-3.9,2.23a1.65,1.65,0,0,1-1.53,0l-3.81-2.23c-.42-.25-.42-.64,0-.88l3.9-2.24a1.69,1.69,0,0,1,1.52,0Z"/><path class="cls-15" d="M184,135.32a.46.46,0,0,1,0,.88l-3.9,2.24a1.72,1.72,0,0,1-1.53,0l-3.81-2.24c-.42-.24-.42-.63,0-.88l3.9-2.23a1.63,1.63,0,0,1,1.52,0Z"/><path class="cls-16" d="M169,40.26,124.85,14.77a2.88,2.88,0,0,0-2.91-.29l-2.84,1.65a2.88,2.88,0,0,1,2.91.29l44.16,25.49A9,9,0,0,1,170.26,49l-.08,26.55A2.88,2.88,0,0,1,169,78.17l2.84-1.65A2.88,2.88,0,0,0,173,73.89l.08-26.55A9,9,0,0,0,169,40.26Z"/><path class="cls-17" d="M166.17,41.91A9,9,0,0,1,170.26,49l-.08,26.55c0,2.6-1.85,3.65-4.11,2.34l-19.5-11.33-3.44,2-3.42-5.92-17.8-10.2a9,9,0,0,1-4.08-7.08l.07-26.55c0-2.6,1.85-3.65,4.11-2.34Z"/><path class="cls-18" d="M147.41,43.72v2.06l-7.87-5.2V38.52c0-2.91,1.76-4.11,3.94-2.67a8.85,8.85,0,0,1,2.78,3.38A10.46,10.46,0,0,1,147.41,43.72Z"/><path class="cls-18" d="M139.54,42.2l7.87,5.2v2.17c0,2.91-1.76,4.1-3.93,2.66s-3.94-4.95-3.94-7.87Z"/><path class="cls-18" d="M138.16,41.65c0,.79-.47,1.12-1.06.74a2.83,2.83,0,0,1-1-2.14c0-.79.47-1.12,1-.74A2.81,2.81,0,0,1,138.16,41.65Z"/><path class="cls-18" d="M150.9,50.07c0,.79-.47,1.12-1.05.74a2.84,2.84,0,0,1-1.06-2.14c0-.79.48-1.12,1.06-.73A2.81,2.81,0,0,1,150.9,50.07Z"/><polygon class="cls-18" points="144.35 60.4 142.6 59.25 142.6 53.33 144.35 54.48 144.35 60.4"/><polygon class="cls-18" points="145.9 60.55 145.9 62.19 141.05 58.98 141.05 57.35 145.9 60.55"/><path class="cls-18" d="M143.48,55a14.58,14.58,0,0,1-5.16-6,18.76,18.76,0,0,1-1.76-8.41l1.08.84a16.43,16.43,0,0,0,1.48,7.12,12.25,12.25,0,0,0,4.36,5Z"/><path class="cls-18" d="M143.48,55V53.53c1.9,1.25,3.37,1.49,4.36.71,1.67-1.32,1.47-5.13,1.47-5.17l1.08.6c0,.18.24,4.51-1.75,6.09C147.43,56.71,145.7,56.45,143.48,55Z"/><polygon class="cls-19" points="141.27 94.89 143.41 96.34 143.41 92.55 141.27 91.1 141.27 94.89"/><polygon class="cls-19" points="141.27 101.69 143.41 103.13 143.41 99.34 141.27 97.9 141.27 101.69"/><polygon class="cls-19" points="141.27 108.46 143.41 109.91 143.41 106.12 141.27 104.67 141.27 108.46"/><polygon class="cls-19" points="141.27 74.48 143.41 75.92 143.41 72.13 141.27 70.69 141.27 74.48"/><polygon class="cls-19" points="141.27 81.27 143.41 82.72 143.41 78.93 141.27 77.48 141.27 81.27"/><polygon class="cls-19" points="141.27 88.05 143.41 89.49 143.41 85.7 141.27 84.26 141.27 88.05"/><path class="cls-20" d="M139.15,112.34c0-1.45,1.18-1.83,2.62-.85a6.12,6.12,0,0,1,2.63,4.39"/><circle class="cls-18" cx="73.26" cy="91.33" r="12.83"/><text class="cls-21" transform="translate(70.06 95.13)">2</text></g></g></svg>