<svg xmlns="http://www.w3.org/2000/svg" xmlns:xlink="http://www.w3.org/1999/xlink" viewBox="0 0 285 190"><defs><style>.cls-1{mask:url(#mask);filter:url(#luminosity-noclip-2);}.cls-2{mix-blend-mode:multiply;fill:url(#linear-gradient);}.cls-3{fill:#e3e8ec;}.cls-4{fill:#6600f8;}.cls-5{mask:url(#mask-2);}.cls-6{opacity:0.8;fill:url(#linear-gradient-2);}.cls-7{fill:url(#linear-gradient-3);}.cls-8{fill:url(#linear-gradient-4);}.cls-9{fill:#313d62;}.cls-10,.cls-12,.cls-19,.cls-20{fill:#fff;}.cls-10{opacity:0.3;}.cls-11{fill:#40418a;}.cls-12{opacity:0.2;}.cls-13{opacity:0.6;fill:url(#linear-gradient-5);}.cls-14{fill:url(#linear-gradient-6);}.cls-15{fill:#f7f7fa;}.cls-16{fill:#eab93b;}.cls-17,.cls-18{fill:#f6f6f9;}.cls-17,.cls-19{fill-rule:evenodd;}.cls-21{font-size:12px;font-family:BasisGrotesquePro-Bold, Basis Grotesque Pro;font-weight:700;}.cls-22{filter:url(#luminosity-noclip);}</style><filter id="luminosity-noclip" x="77.31" y="-7241.73" width="129.96" height="32766" filterUnits="userSpaceOnUse" color-interpolation-filters="sRGB"><feFlood flood-color="#fff" result="bg"/><feBlend in="SourceGraphic" in2="bg"/></filter><mask id="mask" x="77.31" y="-7241.73" width="129.96" height="32766" maskUnits="userSpaceOnUse"><g class="cls-22"/></mask><linearGradient id="linear-gradient" x1="153.33" y1="104.42" x2="131.26" y2="142.66" gradientUnits="userSpaceOnUse"><stop offset="0" stop-color="#999"/><stop offset="0.04" stop-color="#ababab"/><stop offset="0.13" stop-color="#c9c9c9"/><stop offset="0.22" stop-color="#e1e1e1"/><stop offset="0.31" stop-color="#f2f2f2"/><stop offset="0.42" stop-color="#fcfcfc"/><stop offset="0.55" stop-color="#fff"/><stop offset="0.63" stop-color="#fafafa"/><stop offset="0.72" stop-color="#ededed"/><stop offset="0.82" stop-color="#d7d7d7"/><stop offset="0.92" stop-color="#b8b8b8"/><stop offset="1" stop-color="#999"/></linearGradient><filter id="luminosity-noclip-2" x="77.31" y="86.02" width="129.96" height="75.03" filterUnits="userSpaceOnUse" color-interpolation-filters="sRGB"><feFlood flood-color="#fff" result="bg"/><feBlend in="SourceGraphic" in2="bg"/></filter><mask id="mask-2" x="77.31" y="86.02" width="129.96" height="75.03" maskUnits="userSpaceOnUse"><g class="cls-1"><path class="cls-2" d="M205.69,134.65c2.11,1.22,2.11,3.2,0,4.41l-36.51,21.08a8.43,8.43,0,0,1-7.64,0L78.89,112.43c-2.11-1.22-2.11-3.2,0-4.41l36.52-21.08a8.43,8.43,0,0,1,7.64,0Z"/></g></mask><linearGradient id="linear-gradient-2" x1="153.33" y1="104.42" x2="131.26" y2="142.66" gradientUnits="userSpaceOnUse"><stop offset="0" stop-color="#545a97"/><stop offset="0.15" stop-color="#444c90"/><stop offset="0.33" stop-color="#3a438b"/><stop offset="0.55" stop-color="#37408a"/><stop offset="0.73" stop-color="#3c448c"/><stop offset="0.92" stop-color="#495092"/><stop offset="1" stop-color="#505695"/></linearGradient><linearGradient id="linear-gradient-3" x1="207.25" y1="119.85" x2="77.31" y2="119.85" gradientUnits="userSpaceOnUse"><stop offset="0" stop-color="#889bd0"/><stop offset="0.56" stop-color="#c1d6fc"/><stop offset="1" stop-color="#fcf6ff"/></linearGradient><linearGradient id="linear-gradient-4" x1="116.04" y1="141.65" x2="168.54" y2="89.15" gradientUnits="userSpaceOnUse"><stop offset="0" stop-color="#d2defd"/><stop offset="1" stop-color="#fff"/></linearGradient><linearGradient id="linear-gradient-5" x1="185.53" y1="138.95" x2="180.43" y2="133.85" gradientUnits="userSpaceOnUse"><stop offset="0" stop-color="#5c5fce"/><stop offset="0.15" stop-color="#4c51c6"/><stop offset="0.33" stop-color="#4248c2"/><stop offset="0.55" stop-color="#3f45c0"/><stop offset="0.73" stop-color="#4449c2"/><stop offset="0.92" stop-color="#5154c9"/><stop offset="1" stop-color="#585acc"/></linearGradient><linearGradient id="linear-gradient-6" x1="180.43" y1="138.33" x2="185.53" y2="133.23" gradientUnits="userSpaceOnUse"><stop offset="0" stop-color="#dbe3fd"/><stop offset="0.02" stop-color="#dde4fd"/><stop offset="0.21" stop-color="#e9e9fd"/><stop offset="0.46" stop-color="#f1ecfd"/><stop offset="1" stop-color="#f3edfd"/></linearGradient></defs><title>Ресурс 26</title><g id="Слой_2" data-name="Слой 2"><g id="Layer_8" data-name="Layer 8"><rect class="cls-3" width="285" height="190"/><path class="cls-4" d="M195.45,99.51c26,15,26,39.4,0,54.43s-68.23,15-94.26,0-26-39.39,0-54.42S169.42,84.49,195.45,99.51Z"/><g class="cls-5"><path class="cls-6" d="M205.69,134.65c2.11,1.22,2.11,3.2,0,4.41l-36.51,21.08a8.43,8.43,0,0,1-7.64,0L78.89,112.43c-2.11-1.22-2.11-3.2,0-4.41l36.52-21.08a8.43,8.43,0,0,1,7.64,0Z"/></g><path class="cls-7" d="M207.25,128.43v4.44a2.74,2.74,0,0,1-1.56,2.5l-36.51,21.09a8.49,8.49,0,0,1-7.64,0L78.89,108.74a2.73,2.73,0,0,1-1.58-2.29v-4.39l38.1-18.81a8.43,8.43,0,0,1,7.64,0Z"/><path class="cls-8" d="M205.69,126.51c2.11,1.22,2.11,3.19,0,4.41L169.18,152a8.43,8.43,0,0,1-7.64,0L78.89,104.29c-2.11-1.22-2.11-3.2,0-4.41l36.52-21.09a8.49,8.49,0,0,1,7.64,0Z"/><polygon class="cls-9" points="194.91 122.8 155.1 145.78 85.34 105.5 125.15 82.52 194.91 122.8"/><path class="cls-10" d="M205.57,129.23l-36.51,21.08a8.43,8.43,0,0,1-7.64,0L78.77,102.59a3.41,3.41,0,0,1-1.31-1.23c-.42,1,.06,2.13,1.43,2.93L161.54,152a8.43,8.43,0,0,0,7.64,0l36.51-21.08c1.49-.86,1.93-2.09,1.32-3.17A3.22,3.22,0,0,1,205.57,129.23Z"/><path class="cls-11" d="M105.77,90.3c.25.14.32.34.14.44l-6.32,3.65a.87.87,0,0,1-.77-.08l-.15-.09c-.26-.14-.32-.34-.15-.44l6.32-3.65a.89.89,0,0,1,.78.08Z"/><path class="cls-12" d="M169.18,152a8.43,8.43,0,0,1-7.64,0L78.89,104.29c-2.11-1.22-2.11-3.2,0-4.41l36.52-21.09a8.49,8.49,0,0,1,7.64,0Z"/><path class="cls-13" d="M187.6,136c.42.25.42.64,0,.88l-3.9,2.24a1.69,1.69,0,0,1-1.52,0l-3.82-2.24c-.42-.24-.42-.63,0-.88l3.9-2.23a1.63,1.63,0,0,1,1.52,0Z"/><path class="cls-14" d="M187.6,135.34c.42.24.42.63,0,.88l-3.9,2.23a1.63,1.63,0,0,1-1.52,0l-3.82-2.23a.46.46,0,0,1,0-.88l3.9-2.24a1.69,1.69,0,0,1,1.52,0Z"/><path class="cls-15" d="M172.66,40.28,128.5,14.78a2.9,2.9,0,0,0-2.92-.29l-2.84,1.66a2.87,2.87,0,0,1,2.92.28l44.16,25.5A9,9,0,0,1,173.9,49l-.07,26.56a2.88,2.88,0,0,1-1.2,2.63l2.84-1.65a2.88,2.88,0,0,0,1.2-2.63l.07-26.56A9,9,0,0,0,172.66,40.28Z"/><path class="cls-16" d="M169.82,41.93A9,9,0,0,1,173.9,49l-.07,26.56c0,2.6-1.85,3.65-4.12,2.34l-19.5-11.33-3.44,2-3.42-5.93-17.8-10.2a9,9,0,0,1-4.08-7.07l.08-26.56c0-2.6,1.84-3.65,4.11-2.34Z"/><polygon class="cls-17" points="144.91 94.91 147.06 96.35 147.06 92.56 144.91 91.12 144.91 94.91"/><polygon class="cls-17" points="144.91 101.7 147.06 103.15 147.06 99.36 144.91 97.92 144.91 101.7"/><polygon class="cls-17" points="144.91 108.48 147.06 109.92 147.06 106.13 144.91 104.69 144.91 108.48"/><polygon class="cls-17" points="144.91 74.49 147.06 75.94 147.06 72.15 144.91 70.7 144.91 74.49"/><polygon class="cls-17" points="144.91 81.29 147.06 82.73 147.06 78.94 144.91 77.5 144.91 81.29"/><polygon class="cls-17" points="144.91 88.06 147.06 89.51 147.06 85.72 144.91 84.27 144.91 88.06"/><path class="cls-18" d="M142.79,112.36c0-1.45,1.18-1.83,2.63-.86a6.15,6.15,0,0,1,2.62,4.4"/><path class="cls-19" d="M140.12,46.57l14,8.25v2.4l-14-8.26Z"/><path class="cls-19" d="M140.12,41.32l14,8.25V52l-14-8.26Z"/><path class="cls-19" d="M143.38,38.33l1.7,1.75V56.71L143.38,55"/><path class="cls-19" d="M149.32,41l1.7,1.75V59.33l-1.7-1.75Z"/><circle class="cls-20" cx="77.31" cy="136.01" r="12.83"/><text class="cls-21" transform="translate(73.83 139.81)">3</text></g></g></svg>