<svg xmlns="http://www.w3.org/2000/svg" xmlns:xlink="http://www.w3.org/1999/xlink" viewBox="0 0 285 190"><defs><style>.cls-1{fill:#e3e8ec;}.cls-2{fill:url(#çÓ_È_Ó·_ÁÂ_ËÂÌÚ_1);}.cls-3{fill:#313c63;}.cls-4{fill:url(#ÅÂÁ_Ï_ÌÌ_È_ËÂÌÚ_26);}.cls-5{fill:url(#ÅÂÁ_Ï_ÌÌ_È_ËÂÌÚ_26-2);}.cls-6{fill:#a1174b;}.cls-7{fill:#efbd2e;}.cls-8{fill:#eebd2e;}.cls-9{fill:#001228;}</style><linearGradient id="çÓ_È_Ó·_ÁÂ_ËÂÌÚ_1" x1="62.76" y1="95.31" x2="229.03" y2="95.31" gradientUnits="userSpaceOnUse"><stop offset="0" stop-color="#f7f8ff"/><stop offset="1" stop-color="#f2f3fa"/></linearGradient><linearGradient id="ÅÂÁ_Ï_ÌÌ_È_ËÂÌÚ_26" x1="91.21" y1="122.25" x2="107.84" y2="122.25" gradientUnits="userSpaceOnUse"><stop offset="0" stop-color="#bcc0e5"/><stop offset="1" stop-color="#bcc0e5"/></linearGradient><linearGradient id="ÅÂÁ_Ï_ÌÌ_È_ËÂÌÚ_26-2" x1="193.69" y1="64.08" x2="205.56" y2="64.08" xlink:href="#ÅÂÁ_Ï_ÌÌ_È_ËÂÌÚ_26"/></defs><title>Ресурс 29</title><g id="Слой_2" data-name="Слой 2"><g id="Layer_10" data-name="Layer 10"><rect class="cls-1" width="285" height="190"/><path class="cls-2" d="M226.73,73.53c3.05,1.76,3.07,4.62,0,6.38L119.58,142.2a12.16,12.16,0,0,1-11,0l-43.5-25.11c-3.06-1.77-3.07-4.62,0-6.39L172.21,48.41a12.14,12.14,0,0,1,11,0ZM93.67,125.65a12.9,12.9,0,0,0,11.76,0c3.24-1.88,3.22-4.93,0-6.81a13,13,0,0,0-11.76,0c-3.23,1.89-3.22,4.93,0,6.81ZM195.59,60.84a1.73,1.73,0,0,0-1.58,0c-.43.25-.43.65,0,.91l9.65,5.57a1.74,1.74,0,0,0,1.57,0,.48.48,0,0,0,0-.91l-9.65-5.57Z"/><path class="cls-3" d="M226.76,79.91,119.58,142.2a12.16,12.16,0,0,1-11,0l-43.5-25.11c-1.54-.89-2.31-2.06-2.3-3.22l0,5.38a3.9,3.9,0,0,0,2.3,3.22l43.5,25.11a12.1,12.1,0,0,0,11,0h0L226.75,85.29A3.86,3.86,0,0,0,229,82.12l0-5.38A3.88,3.88,0,0,1,226.76,79.91Z"/><path class="cls-4" d="M105.39,118.84c3.26,1.88,3.27,4.93,0,6.81a12.9,12.9,0,0,1-11.76,0c-3.26-1.88-3.27-4.92,0-6.81A13,13,0,0,1,105.39,118.84Z"/><path class="cls-5" d="M205.24,66.41a.48.48,0,0,1,0,.91,1.74,1.74,0,0,1-1.57,0L194,61.75c-.44-.26-.44-.66,0-.91a1.73,1.73,0,0,1,1.58,0Z"/><polygon class="cls-6" points="167.5 50.93 82.92 100.08 137.86 131.58 222.44 82.43 167.5 50.93"/><path class="cls-7" d="M172.45,78.47c9.08,5.24,9.13,13.74.11,19s-23.7,5.24-32.78,0-9.13-13.74-.1-19S163.37,73.22,172.45,78.47Z"/><path class="cls-6" d="M167.77,81.19c6.47,3.74,6.51,9.8.07,13.54s-16.9,3.74-23.38,0-6.51-9.8-.07-13.54S161.29,77.45,167.77,81.19Z"/><path class="cls-8" d="M161.47,84.84c3,1.72,3,4.51,0,6.23a11.84,11.84,0,0,1-10.75,0c-3-1.72-3-4.51,0-6.23A11.84,11.84,0,0,1,161.47,84.84Z"/><path class="cls-9" d="M91.4,136.16l-11.79-6.81a2.12,2.12,0,0,1-.89-1.69h0c0-.65.4-1,.89-.67L91.4,133.8a2.12,2.12,0,0,1,.89,1.69h0C92.29,136.14,91.89,136.44,91.4,136.16Z"/></g></g></svg>