<svg xmlns="http://www.w3.org/2000/svg" xmlns:xlink="http://www.w3.org/1999/xlink" viewBox="0 0 285 190"><defs><style>.cls-1{mask:url(#mask);filter:url(#luminosity-noclip-2);}.cls-2{mix-blend-mode:multiply;fill:url(#linear-gradient);}.cls-3{fill:#e3e8ec;}.cls-4{fill:#dd5414;}.cls-5{fill:#6600f8;}.cls-6{mask:url(#mask-2);}.cls-7{opacity:0.8;fill:url(#linear-gradient-2);}.cls-8{fill:url(#linear-gradient-3);}.cls-9{fill:url(#linear-gradient-4);}.cls-10{fill:#313d62;}.cls-11,.cls-13,.cls-16,.cls-18{fill:#fff;}.cls-11{opacity:0.3;}.cls-12{fill:#40418a;}.cls-13{opacity:0.2;}.cls-14{opacity:0.6;fill:url(#linear-gradient-5);}.cls-15{fill:url(#linear-gradient-6);}.cls-16{fill-rule:evenodd;}.cls-17{fill:#87d7b6;}.cls-19{font-size:11.9px;font-family:BasisGrotesquePro-Bold, Basis Grotesque Pro;font-weight:700;}.cls-20{filter:url(#luminosity-noclip);}</style><filter id="luminosity-noclip" x="86.37" y="-7240.91" width="130.63" height="32766" filterUnits="userSpaceOnUse" color-interpolation-filters="sRGB"><feFlood flood-color="#fff" result="bg"/><feBlend in="SourceGraphic" in2="bg"/></filter><mask id="mask" x="86.37" y="-7240.91" width="130.63" height="32766" maskUnits="userSpaceOnUse"><g class="cls-20"/></mask><linearGradient id="linear-gradient" x1="162.78" y1="83.04" x2="140.59" y2="121.47" gradientUnits="userSpaceOnUse"><stop offset="0" stop-color="#999"/><stop offset="0.04" stop-color="#ababab"/><stop offset="0.13" stop-color="#c9c9c9"/><stop offset="0.22" stop-color="#e1e1e1"/><stop offset="0.31" stop-color="#f2f2f2"/><stop offset="0.42" stop-color="#fcfcfc"/><stop offset="0.55" stop-color="#fff"/><stop offset="0.63" stop-color="#fafafa"/><stop offset="0.72" stop-color="#ededed"/><stop offset="0.82" stop-color="#d7d7d7"/><stop offset="0.92" stop-color="#b8b8b8"/><stop offset="1" stop-color="#999"/></linearGradient><filter id="luminosity-noclip-2" x="86.37" y="64.55" width="130.63" height="75.42" filterUnits="userSpaceOnUse" color-interpolation-filters="sRGB"><feFlood flood-color="#fff" result="bg"/><feBlend in="SourceGraphic" in2="bg"/></filter><mask id="mask-2" x="86.37" y="64.55" width="130.63" height="75.42" maskUnits="userSpaceOnUse"><g class="cls-1"><path class="cls-2" d="M215.41,113.43c2.12,1.22,2.12,3.21,0,4.43l-36.7,21.19a8.52,8.52,0,0,1-7.68,0L88,91.09c-2.12-1.23-2.12-3.21,0-4.44l36.7-21.18a8.45,8.45,0,0,1,7.68,0Z"/></g></mask><linearGradient id="linear-gradient-2" x1="162.78" y1="83.04" x2="140.59" y2="121.47" gradientUnits="userSpaceOnUse"><stop offset="0" stop-color="#545a97"/><stop offset="0.15" stop-color="#444c90"/><stop offset="0.33" stop-color="#3a438b"/><stop offset="0.55" stop-color="#37408a"/><stop offset="0.73" stop-color="#3c448c"/><stop offset="0.92" stop-color="#495092"/><stop offset="1" stop-color="#505695"/></linearGradient><linearGradient id="linear-gradient-3" x1="216.97" y1="98.55" x2="86.37" y2="98.55" gradientUnits="userSpaceOnUse"><stop offset="0" stop-color="#889bd0"/><stop offset="0.56" stop-color="#c1d6fc"/><stop offset="1" stop-color="#fcf6ff"/></linearGradient><linearGradient id="linear-gradient-4" x1="125.3" y1="120.46" x2="178.07" y2="67.69" gradientUnits="userSpaceOnUse"><stop offset="0" stop-color="#d2defd"/><stop offset="1" stop-color="#fff"/></linearGradient><linearGradient id="linear-gradient-5" x1="195.14" y1="117.75" x2="190.01" y2="112.62" gradientUnits="userSpaceOnUse"><stop offset="0" stop-color="#5c5fce"/><stop offset="0.15" stop-color="#4c51c6"/><stop offset="0.33" stop-color="#4248c2"/><stop offset="0.55" stop-color="#3f45c0"/><stop offset="0.73" stop-color="#4449c2"/><stop offset="0.92" stop-color="#5154c9"/><stop offset="1" stop-color="#585acc"/></linearGradient><linearGradient id="linear-gradient-6" x1="190.01" y1="117.12" x2="195.14" y2="111.99" gradientUnits="userSpaceOnUse"><stop offset="0" stop-color="#dbe3fd"/><stop offset="0.02" stop-color="#dde4fd"/><stop offset="0.21" stop-color="#e9e9fd"/><stop offset="0.46" stop-color="#f1ecfd"/><stop offset="1" stop-color="#f3edfd"/></linearGradient></defs><title>Ресурс 23</title><g id="Слой_2" data-name="Слой 2"><g id="Layer_8" data-name="Layer 8"><rect class="cls-3" width="285" height="190"/><path class="cls-4" d="M199,75.53c20.27,11.71,20.27,30.68,0,42.38s-53.13,11.7-73.4,0-20.27-30.67,0-42.38S178.74,63.83,199,75.53Z"/><path class="cls-5" d="M169.68,73.67c23.8,13.74,23.8,36,0,49.76s-62.38,13.74-86.18,0-23.8-36,0-49.76S145.88,59.93,169.68,73.67Z"/><g class="cls-6"><path class="cls-7" d="M215.41,113.43c2.12,1.22,2.12,3.21,0,4.43l-36.7,21.19a8.52,8.52,0,0,1-7.68,0L88,91.09c-2.12-1.23-2.12-3.21,0-4.44l36.7-21.18a8.45,8.45,0,0,1,7.68,0Z"/></g><path class="cls-8" d="M217,107.18v4.45a2.78,2.78,0,0,1-1.56,2.52l-36.7,21.19a8.52,8.52,0,0,1-7.68,0L88,87.38a2.72,2.72,0,0,1-1.59-2.3V80.66l38.29-18.9a8.45,8.45,0,0,1,7.68,0Z"/><path class="cls-9" d="M215.41,105.24c2.12,1.23,2.12,3.21,0,4.44l-36.7,21.19a8.52,8.52,0,0,1-7.68,0L88,82.9c-2.12-1.22-2.12-3.2,0-4.43l36.7-21.19a8.52,8.52,0,0,1,7.68,0Z"/><polygon class="cls-10" points="204.57 101.51 164.56 124.61 94.44 84.13 134.45 61.02 204.57 101.51"/><path class="cls-11" d="M215.29,108l-36.7,21.18a8.45,8.45,0,0,1-7.68,0l-83.07-48A3.32,3.32,0,0,1,86.52,80c-.42,1,.06,2.15,1.44,2.94l83.07,48a8.52,8.52,0,0,0,7.68,0l36.7-21.19c1.49-.87,1.93-2.11,1.32-3.19A3.34,3.34,0,0,1,215.29,108Z"/><path class="cls-12" d="M115,68.84c.26.15.32.35.15.45L108.76,73a.87.87,0,0,1-.77-.08l-.16-.09c-.25-.15-.32-.35-.14-.45L114,68.67a.9.9,0,0,1,.78.09Z"/><path class="cls-13" d="M178.71,130.87a8.52,8.52,0,0,1-7.68,0L88,82.9c-2.12-1.22-2.12-3.2,0-4.43l36.7-21.19a8.52,8.52,0,0,1,7.68,0Z"/><path class="cls-14" d="M197.22,114.74a.47.47,0,0,1,0,.89l-3.92,2.25a1.72,1.72,0,0,1-1.53,0l-3.84-2.25a.47.47,0,0,1,0-.89l3.92-2.24a1.67,1.67,0,0,1,1.54,0Z"/><path class="cls-15" d="M197.22,114.11a.47.47,0,0,1,0,.89l-3.92,2.25a1.72,1.72,0,0,1-1.53,0L187.93,115a.46.46,0,0,1,0-.88l3.92-2.25a1.67,1.67,0,0,1,1.54,0Z"/><path class="cls-16" d="M140.67,83.62c4.82-3.58,13.59-2.79,19.8,1.92,6.46,4.89,7.76,12.14,2.65,16s-14.51,2.73-20.67-2.48C136.52,94.08,135.83,87.23,140.67,83.62Z"/><path class="cls-17" d="M160,93.92a.69.69,0,0,1,0,.61l-1.35,2.32a.94.94,0,0,1-.26.32,1.24,1.24,0,0,1-.35.23l-.08,0-.18,0a5.19,5.19,0,0,1-.87.14,6,6,0,0,1-1.54-.06,11.81,11.81,0,0,1-2.2-.54,14.92,14.92,0,0,1-2.79-1.32,16.29,16.29,0,0,1-2.08-1.4A13.85,13.85,0,0,1,146.77,93a9.49,9.49,0,0,1-.94-1.19,7.58,7.58,0,0,1-.53-1,3.48,3.48,0,0,1-.24-.67,2,2,0,0,0-.06-.28,1.6,1.6,0,0,1,0-.43,1,1,0,0,1,.15-.38l1.33-2.34a.65.65,0,0,1,.39-.31.52.52,0,0,1,.35,0,1,1,0,0,1,.3.19L149.75,89a.7.7,0,0,1,.2.46.88.88,0,0,1-.12.51l-.49.86a.25.25,0,0,0,0,.1.4.4,0,0,0,0,.11,2.73,2.73,0,0,0,.43.6,6.25,6.25,0,0,0,.72.67,8.19,8.19,0,0,0,1.27.84,9.18,9.18,0,0,0,1.36.69,7.21,7.21,0,0,0,.94.31,2.07,2.07,0,0,0,.54.06h.18l.09,0a.17.17,0,0,0,.07-.08l.57-1a.9.9,0,0,1,.52-.38.74.74,0,0,1,.39,0h0l3.07.87A.74.74,0,0,1,160,93.92Z"/><circle class="cls-18" cx="68" cy="89.42" r="12.83"/><text class="cls-19" transform="translate(64.8 92.44) scale(1.01 1)">1</text></g></g></svg>