<?xml version="1.0" encoding="UTF-8"?>
<svg width="53px" height="54px" viewBox="0 0 53 54" version="1.1" xmlns="http://www.w3.org/2000/svg" xmlns:xlink="http://www.w3.org/1999/xlink">
    <!-- Generator: Sketch 52.4 (67378) - http://www.bohemiancoding.com/sketch -->
    <title>077W</title>
    <desc>Created with Sketch.</desc>
    <g id="main" stroke="none" stroke-width="1" fill="none" fill-rule="evenodd">
        <g id="Kategories_Touch" transform="translate(-152.000000, -1550.000000)" fill-rule="nonzero">
            <g id="4" transform="translate(128.000000, 1505.000000)">
                <g id="077W" transform="translate(20.000000, 40.000000)">
                    <polygon id="Rectangle-10" points="0 0 47 0 60 0 60 60 0 60"></polygon>
                    <path d="M30.3672802,58.5312088 L29.9155495,58.3309341 C5.30401099,47.3937088 4.04673077,15.5166484 4.0356044,15.1939835 L4,14.047967 L5.14824176,14.047967 C9.52535714,14.047967 13.0835714,10.4875275 13.0835714,6.11263736 L13.0835714,5 L47.6487637,5 L47.6487637,6.11263736 C47.6487637,10.4875275 51.2092033,14.047967 55.5840934,14.047967 L56.7323352,14.047967 L56.6967308,15.1939835 C56.6856044,15.5166484 55.4283242,47.3937088 30.8167857,58.3287088 L30.3672802,58.5312088 Z M6.32986264,16.2042582 C6.78381868,21.7029121 9.95038462,46.6771703 30.3672802,56.0923077 C50.8064286,46.6682692 53.9551923,21.7029121 54.4046978,16.2042582 C49.7227198,15.6590659 45.9998352,11.9183791 45.4857967,7.22527473 L15.2487637,7.22527473 C14.7347253,11.9183791 11.0140659,15.6590659 6.32986264,16.2042582 Z" id="Shape" fill="#FFFFFF"></path>
                    <path d="M37.8678566,26.9329121 L31.1542028,35.9586264 L22.1818951,24 C20.8890105,25.1638187 20.6887357,26.5590659 21.4253017,27.5426374 L31.1542028,40.5137637 L38.62445,30.4733242 C39.3610159,29.4897527 39.1629665,28.0967308 37.8678566,26.9329121 Z" id="Shape" fill="#FFFFFF"></path>
                </g>
            </g>
        </g>
    </g>
</svg>