<svg width="26" height="26" xmlns="http://www.w3.org/2000/svg"><g fill="none" fill-rule="evenodd"><circle cx="13" cy="13" r="13" fill="#25D366" fill-rule="nonzero"/><path d="M18.734 6.836c-1.454-1.494-3.384-2.317-5.443-2.32-4.244 0-7.695 3.548-7.699 7.904 0 1.396.355 2.753 1.026 3.955l-1.092 4.098 4.082-1.1a7.54 7.54 0 0 0 3.679.964h.004c4.24 0 7.694-3.549 7.698-7.909 0-2.112-.8-4.099-2.255-5.592zm-5.443 12.166a6.252 6.252 0 0 1-3.26-.917L9.8 17.94l-2.42.652.645-2.427-.151-.25a6.676 6.676 0 0 1-.978-3.496c0-3.624 2.871-6.57 6.4-6.57 1.708 0 3.313.686 4.524 1.926a6.631 6.631 0 0 1 1.87 4.648c-.003 3.629-2.874 6.578-6.398 6.578zm3.51-4.925c-.193-.098-1.137-.576-1.315-.644-.177-.065-.306-.099-.431.098-.13.197-.499.645-.61.774-.11.132-.224.148-.416.049-.192-.099-.812-.307-1.547-.982-.572-.523-.955-1.172-1.07-1.369-.11-.197-.01-.303.085-.402.085-.087.192-.23.288-.345.096-.113.129-.197.192-.33.063-.132.033-.246-.015-.344-.048-.1-.432-1.073-.594-1.468-.155-.387-.314-.333-.432-.337-.11-.008-.24-.008-.369-.008a.7.7 0 0 0-.513.247c-.177.197-.672.675-.672 1.649s.69 1.91.786 2.044c.096.132 1.355 2.127 3.285 2.983.458.205.816.326 1.096.417.461.152.878.13 1.21.08.37-.057 1.137-.478 1.3-.94.158-.463.158-.857.11-.94-.048-.084-.177-.133-.369-.232z" fill="#FFF"/></g></svg>