<svg width="49" height="62" xmlns="http://www.w3.org/2000/svg"><g fill-rule="nonzero" fill="none"><path fill="#70F" d="M.38 30.531h20.535v3.048H.38zM48.884 33.576H28.176V30.53h20.708z"/><path d="M24.633 30.415a1.64 1.64 0 1 1-.001 3.278 1.64 1.64 0 0 1 .001-3.278zm0-3.048a4.687 4.687 0 1 0 0 9.375 4.687 4.687 0 1 0 0-9.374z" fill="#70F"/><path fill="#65BBDF" d="M.38 43.066h12.373v3.048H.38zM48.885 46.112H18.576v-3.048h30.309z"/><path fill="#7B939B" d="M.38 55.6h20.535v3.048H.38zM48.884 58.648H28.175V55.6h20.709z"/><path d="M24.633 55.485a1.64 1.64 0 1 1-.001 3.278 1.64 1.64 0 0 1 .001-3.278zm0-3.048a4.687 4.687 0 1 0 0 9.374 4.685 4.685 0 0 0 4.687-4.687 4.69 4.69 0 0 0-4.687-4.687z" fill="#7B939B"/><path d="M15.374 42.95c.903 0 1.64.734 1.64 1.64a1.64 1.64 0 1 1-1.64-1.64zm0-3.048a4.687 4.687 0 1 0 0 9.375 4.687 4.687 0 1 0 0-9.374z" fill="#65BBDF"/><g fill="#FFBE08"><path d="M46.756 11.029c-11.343-14.32-33-14.345-44.361 0a1.601 1.601 0 0 0 .262 2.252 1.6 1.6 0 0 0 2.252-.262c10.06-12.702 29.257-12.72 39.33 0a1.606 1.606 0 0 0 2.255.262c.695-.548.813-1.56.262-2.252z"/><path d="M9.736 16.832a1.601 1.601 0 0 0 .262 2.252c.296.234.647.347.997.347.472 0 .942-.207 1.259-.61 6.305-7.957 18.328-7.972 24.649 0 .551.696 1.56.811 2.255.263.695-.552.81-1.56.262-2.255-7.598-9.58-22.08-9.594-29.684.003z"/><path d="M17.075 22.631a1.607 1.607 0 0 0 .262 2.255 1.607 1.607 0 0 0 2.255-.262c2.545-3.215 7.421-3.221 9.97 0a1.604 1.604 0 1 0 2.516-1.993c-3.83-4.836-11.169-4.845-15.003 0z"/></g></g></svg>