<?xml version="1.0" encoding="UTF-8"?>
<svg width="56px" height="23px" viewBox="0 0 56 23" version="1.1" xmlns="http://www.w3.org/2000/svg" xmlns:xlink="http://www.w3.org/1999/xlink">
    <!-- Generator: Sketch 52 (66869) - http://www.bohemiancoding.com/sketch -->
    <title>Logo</title>
    <desc>Created with Sketch.</desc>
    <g id="Page-1" stroke="none" stroke-width="1" fill="none" fill-rule="evenodd">
        <g id="Ads-with-Nav-1460-Copy" transform="translate(-1149.000000, -450.000000)" fill="#FFFFFF">
            <path d="M1149.752,467 L1149.752,450.2 L1152.92,450.2 L1152.92,464.072 L1161.344,464.072 L1161.344,467 L1149.752,467 Z M1173.224,456.44 C1174.52001,457.544006 1175.168,459.07999 1175.168,461.048 C1175.168,463.01601 1174.52401,464.555994 1173.236,465.668 C1171.94799,466.780006 1170.42401,467.336 1168.664,467.336 C1166.90399,467.336 1165.38001,466.780006 1164.092,465.668 C1162.80399,464.555994 1162.16,463.01601 1162.16,461.048 C1162.16,459.07999 1162.80399,457.540006 1164.092,456.428 C1165.38001,455.315994 1166.90399,454.76 1168.664,454.76 C1170.42401,454.76 1171.94399,455.319994 1173.224,456.44 Z M1166.24,463.568 C1166.928,464.192003 1167.736,464.504 1168.664,464.504 C1169.592,464.504 1170.396,464.188003 1171.076,463.556 C1171.756,462.923997 1172.096,462.088005 1172.096,461.048 C1172.096,460.007995 1171.756,459.172003 1171.076,458.54 C1170.396,457.907997 1169.592,457.592 1168.664,457.592 C1167.736,457.592 1166.932,457.907997 1166.252,458.54 C1165.572,459.172003 1165.232,460.007995 1165.232,461.048 C1165.232,462.088005 1165.568,462.927997 1166.24,463.568 Z M1177.664,466.784 L1180.544,467.672 C1180.448,467.944001 1180.4,468.215999 1180.4,468.488 C1180.4,468.888002 1180.632,469.211999 1181.096,469.46 C1181.56,469.708001 1182.208,469.832 1183.04,469.832 C1184.99201,469.832 1185.968,468.744011 1185.968,466.568 L1185.968,465.032 C1185.248,466.216006 1184.12001,466.808 1182.584,466.808 C1180.98399,466.808 1179.62801,466.240006 1178.516,465.104 C1177.40399,463.967994 1176.848,462.528009 1176.848,460.784 C1176.848,459.039991 1177.41599,457.600006 1178.552,456.464 C1179.68801,455.327994 1181.03999,454.76 1182.608,454.76 C1184.11201,454.76 1185.232,455.303995 1185.968,456.392 L1185.968,455.096 L1188.992,455.096 L1188.992,466.184 C1188.992,468.15201 1188.45601,469.651995 1187.384,470.684 C1186.31199,471.716005 1184.86401,472.232 1183.04,472.232 C1181.26399,472.232 1179.86801,471.868004 1178.852,471.14 C1177.83599,470.411996 1177.328,469.416006 1177.328,468.152 C1177.328,467.639997 1177.44,467.184002 1177.664,466.784 Z M1182.92,457.4 C1182.04,457.4 1181.296,457.699997 1180.688,458.3 C1180.08,458.900003 1179.776,459.727995 1179.776,460.784 C1179.776,461.840005 1180.08,462.667997 1180.688,463.268 C1181.296,463.868003 1182.04,464.168 1182.92,464.168 C1183.816,464.168 1184.576,463.864003 1185.2,463.256 C1185.824,462.647997 1186.136,461.824005 1186.136,460.784 C1186.136,459.743995 1185.824,458.920003 1185.2,458.312 C1184.576,457.703997 1183.816,457.4 1182.92,457.4 Z M1202.24,456.44 C1203.53601,457.544006 1204.184,459.07999 1204.184,461.048 C1204.184,463.01601 1203.54001,464.555994 1202.252,465.668 C1200.96399,466.780006 1199.44001,467.336 1197.68,467.336 C1195.91999,467.336 1194.39601,466.780006 1193.108,465.668 C1191.81999,464.555994 1191.176,463.01601 1191.176,461.048 C1191.176,459.07999 1191.81999,457.540006 1193.108,456.428 C1194.39601,455.315994 1195.91999,454.76 1197.68,454.76 C1199.44001,454.76 1200.95999,455.319994 1202.24,456.44 Z M1195.256,463.568 C1195.944,464.192003 1196.752,464.504 1197.68,464.504 C1198.608,464.504 1199.412,464.188003 1200.092,463.556 C1200.772,462.923997 1201.112,462.088005 1201.112,461.048 C1201.112,460.007995 1200.772,459.172003 1200.092,458.54 C1199.412,457.907997 1198.608,457.592 1197.68,457.592 C1196.752,457.592 1195.948,457.907997 1195.268,458.54 C1194.588,459.172003 1194.248,460.007995 1194.248,461.048 C1194.248,462.088005 1194.584,462.927997 1195.256,463.568 Z" id="Logo"></path>
        </g>
    </g>
</svg>