<svg xmlns="http://www.w3.org/2000/svg" width="56" height="56" viewBox="0 0 56 56">
    <g fill="none" fill-rule="evenodd">
        <path fill="#E3E8EC" d="M55.448 28.379c0 15.188-12.313 27.5-27.5 27.5-15.188 0-27.5-12.312-27.5-27.5S12.76.879 27.948.879c15.187 0 27.5 12.312 27.5 27.5"/>
        <path stroke="#FFF" stroke-linejoin="round" stroke-width="2" d="M27.948 10.375L12.493 24.662h3.434v17.72h24.041v-17.72h3.435l-4.602-4.26V10.376h-5.702v4.739zM27.982 22.807v6.457"/>
        <path stroke="#FFF" stroke-linejoin="round" stroke-width="2" d="M25.043 25.317c-2.705 1.523-3.761 4.917-2.395 7.755 1.422 2.954 4.978 4.158 7.933 2.735 2.954-1.422 4.157-4.978 2.735-7.932a6.007 6.007 0 0 0-2.384-2.546"/>
    </g>
</svg>
