<svg xmlns="http://www.w3.org/2000/svg" width="58" height="58" viewBox="0 0 58 58">
    <g fill="none" fill-rule="evenodd" stroke-width="2" opacity=".7">
        <path stroke="#979799" d="M56.448 29.379c0 15.188-12.313 27.5-27.5 27.5-15.188 0-27.5-12.312-27.5-27.5s12.312-27.5 27.5-27.5c15.187 0 27.5 12.312 27.5 27.5"/>
        <path stroke="#000" stroke-linejoin="round" d="M28.948 11.375L13.493 25.662h3.434v17.72h24.041v-17.72h3.435l-4.602-4.26V11.376h-5.702v4.739zM28.982 23.807v6.457"/>
        <path stroke="#000" stroke-linejoin="round" d="M26.043 26.317c-2.705 1.523-3.761 4.917-2.395 7.755 1.422 2.954 4.978 4.158 7.933 2.735 2.954-1.422 4.157-4.978 2.735-7.932a6.007 6.007 0 0 0-2.384-2.546"/>
    </g>
</svg>
