<?xml version="1.0" encoding="UTF-8"?>
<svg width="56px" height="56px" viewBox="0 0 56 56" version="1.1" xmlns="http://www.w3.org/2000/svg" xmlns:xlink="http://www.w3.org/1999/xlink">
    <!-- Generator: Sketch 53 (72520) - https://sketchapp.com -->
    <title>004-C</title>
    <desc>Created with Sketch.</desc>
    <g id="icons" stroke="none" stroke-width="1" fill="none" fill-rule="evenodd">
        <g id="icons_B2C_table" transform="translate(-65.000000, -599.000000)">
            <g id="004-C" transform="translate(65.000000, 599.000000)">
                <path d="M56,28 C56,43.4641455 43.4631273,56 28,56 C12.5358545,56 0,43.4641455 0,28 C0,12.5358545 12.5358545,0 28,0 C43.4631273,0 56,12.5358545 56,28" id="Fill-3" fill="#4897DF"></path>
                <g id="Group-26" transform="translate(14.000000, 11.000000)">
                    <path d="M27.6380741,13.8952593 C27.6380741,21.5641481 21.4117037,27.7148148 13.8185185,27.7148148 C12.5958519,27.7148148 11.4115556,27.5561481 10.2842963,27.2585185 C9.3717037,27.0179259 8.49748148,26.6871111 7.67096296,26.2754074 C3.11318519,24.0063704 -7.99360578e-14,19.2971852 -7.99360578e-14,13.8952593 C-7.99360578e-14,6.22637037 6.14962963,-5.5067062e-14 13.8185185,-5.5067062e-14 C21.4874074,-5.5067062e-14 27.6380741,6.22637037 27.6380741,13.8952593" id="Stroke-180" stroke="#FFFFFF" stroke-width="2" stroke-linejoin="round"></path>
                    <path d="M21.775607,25.9259259 L23.7490884,30.0263704 C24.0529403,30.5573333 24.2053847,31.2407407 24.129681,31.8484444 C23.9772366,33.5948148 22.3822736,34.9616296 20.6369403,34.8091852 L7.57649585,34.8091852 C6.89308845,34.8859259 6.28538474,34.7334815 5.67871808,34.3539259 C4.16049585,33.3666667 3.70419956,31.4688889 4.61575511,29.9496296 L6.51353289,26.1540741" id="Stroke-182" stroke="#FFFFFF" stroke-width="2" stroke-linejoin="round"></path>
                    <path d="M19.5595556,16.52 C19.5595556,19.937037 16.8259259,22.6706667 13.4088889,22.6706667 C9.99185185,22.6706667 7.25925926,19.937037 7.25925926,16.52 C7.25925926,13.104 9.99185185,10.3703704 13.4088889,10.3703704 C16.8259259,10.3703704 19.5595556,13.104 19.5595556,16.52" id="Stroke-183" stroke="#FFFFFF" stroke-linejoin="round"></path>
                    <path d="M13.6588148,6.57792593 C12.9754074,6.57792593 12.4444444,6.04592593 12.4444444,5.36355556 C12.4444444,4.67911111 12.9754074,4.14814815 13.6588148,4.14814815 C14.3422222,4.14814815 14.8731852,4.67911111 14.8731852,5.36355556 C14.8731852,5.97022222 14.3422222,6.57792593 13.6588148,6.57792593" id="Fill-184" fill="#FFFFFF"></path>
                    <path d="M13.3062222,18.3151111 C14.3546667,18.3151111 15.205037,17.4657778 15.205037,16.4162963 C15.205037,15.3688889 14.3546667,14.5185185 13.3062222,14.5185185 C12.2577778,14.5185185 11.4074074,15.3688889 11.4074074,16.4162963 C11.4074074,17.4657778 12.2577778,18.3151111 13.3062222,18.3151111 Z" id="Stroke-185" stroke="#FFFFFF" stroke-linejoin="round"></path>
                </g>
            </g>
        </g>
    </g>
</svg>