<svg xmlns="http://www.w3.org/2000/svg" width="56" height="56" viewBox="0 0 56 56">
    <g fill="none" fill-rule="evenodd">
        <path fill="#FF4F12" d="M56 28c0 15.464-12.537 28-28 28C12.536 56 0 43.464 0 28S12.536 0 28 0c15.463 0 28 12.536 28 28"/>
        <path stroke="#FFF" stroke-linejoin="round" stroke-width="2" d="M34.517 21.463c3.99 3.7 6.239 7.328 6.239 11.318 0 5.151-3.119 9.867-7.835 11.898 1.596-1.886 4.498-9.359-.726-14.583-1.233 3.483-3.918 11.536-3.918 11.536s-4.063-2.684-4.861-3.41c-.725 1.741-.29 5.442.29 6.747C18.628 43.083 15 38.077 15 32.854c0-3.338.799-6.603 2.322-9.578.29 3.556 2.83 6.458 6.312 7.183-3.773-4.062-3.482-11.245.943-16.179 1.669-1.886 4.861-3.845 6.893-4.28-1.669 4.135-.653 8.053 3.047 11.463z"/>
    </g>
</svg>
