<?xml version="1.0" encoding="UTF-8"?>
<svg width="56px" height="56px" viewBox="0 0 56 56" version="1.1" xmlns="http://www.w3.org/2000/svg" xmlns:xlink="http://www.w3.org/1999/xlink">
    <!-- Generator: Sketch 52.6 (67491) - http://www.bohemiancoding.com/sketch -->
    <title>054-C</title>
    <desc>Created with Sketch.</desc>
    <g id="icons" stroke="none" stroke-width="1" fill="none" fill-rule="evenodd">
        <g id="icons_DSGN-1385" transform="translate(-1038.000000, -1079.000000)">
            <g id="054-C" transform="translate(1038.000000, 1079.000000)">
                <path d="M55.3032,27.5971 C55.3032,42.7851 42.9912,55.0971 27.8032,55.0971 C12.6152,55.0971 0.3032,42.7851 0.3032,27.5971 C0.3032,12.4091 12.6152,0.0971 27.8032,0.0971 C42.9912,0.0971 55.3032,12.4091 55.3032,27.5971" id="Fill-229" fill="#FFBFC3"></path>
                <path d="M41.6651581,37.8701294 L36.109269,32.1127154 C35.907141,31.904718 35.6237629,31.7865678 35.3270181,31.7865678 C35.0302734,31.7865678 34.7468953,31.904718 34.5447672,32.1127154 L33.316061,33.3694098 L32.1636719,34.5018961 C32.0313393,34.6487313 31.8800346,34.7788547 31.7134007,34.8891333 C30.4312724,36.131215 30.1107404,36.1531341 30.1107404,36.1531341 C28.9184356,36.6245367 27.5492117,36.3970571 26.5925194,35.5686251 C25.4172352,34.5238152 24.3030046,33.4278607 23.2116693,32.3026808 C22.1203339,31.1775009 21.0595254,30.0450146 20.0597707,28.824852 C19.387175,27.9974067 19.1327858,26.9268829 19.3652845,25.9023068 C19.4889267,25.4173738 19.7063649,24.9589075 20.0063486,24.5506297 C20.2859813,24.2327289 20.5410472,23.895744 20.7695202,23.5423516 C20.8786662,23.3759632 21.0066339,23.2215977 21.151106,23.0820507 L23.5245696,20.6563382 C23.9602411,20.1989089 23.9602411,19.4990613 23.5245696,19.041632 L17.9610488,13.3134434 C17.762238,13.1133011 17.4863726,13 17.1978772,13 C16.9093818,13 16.6335165,13.1133011 16.4347057,13.3134434 C14.8473088,14.8989241 12.8172724,16.4332604 11.6954101,18.4278975 C10.7414457,20.108361 10.9322386,22.2929635 11.3061926,24.1122479 C11.5675117,25.4074345 11.9823058,26.6698546 12.5425306,27.8750248 C13.3534851,29.5329132 14.3270848,31.1133134 15.4502143,32.5949353 C16.5228357,34.040442 17.6902955,35.4192506 18.9455402,36.7230304 C20.1833976,38.0251599 21.5118018,39.2456707 22.9216641,40.3762119 C24.3365198,41.528929 25.8708517,42.5400362 27.5006936,43.3937399 C28.9302973,44.1239893 30.4783796,44.6180176 32.079723,44.8550125 C33.3991157,45.1104712 34.7656123,45.0272883 36.0405835,44.6139025 C36.9861571,44.1502104 37.8285528,43.51495 38.5208912,42.7434736 C39.2840628,42.0128373 39.9938123,41.3260391 40.726457,40.6100156 L41.6651581,39.6967202 C42.111614,39.1628694 42.111614,38.4039802 41.6651581,37.8701294 Z" id="Shape" stroke="#FFFFFF" stroke-width="2"></path>
                <path d="M36.0181818,13.1183369 C38.1688855,12.6618911 40.3741223,13.546656 41.7389692,15.4135789 C43.1038162,17.2805018 43.4015242,19.8194212 42.5112784,22" id="Shape" stroke="#FFFFFF" stroke-width="2"></path>
                <path d="M39,24.8796613 C36.5467295,25.3400863 34.029089,24.458446 32.4680847,22.5922816 C30.9070803,20.7261172 30.5618365,18.1852093 31.5723638,16" id="Shape" stroke="#FFFFFF" stroke-width="2"></path>
                <polyline id="Path-6" stroke="#FFFFFF" stroke-width="2" fill-rule="nonzero" points="27.0181818 18.7236328 30.9781428 16 34.528924 18.7236328"></polyline>
                <polyline id="Path-6-Copy" stroke="#FFFFFF" stroke-width="2" fill-rule="nonzero" transform="translate(42.773553, 20.361816) scale(1, -1) translate(-42.773553, -20.361816) " points="39.0181818 21.7236328 42.9781428 19 46.528924 21.7236328"></polyline>
            </g>
        </g>
    </g>
</svg>