<?xml version="1.0" encoding="UTF-8"?>
<svg width="56px" height="56px" viewBox="0 0 56 56" version="1.1" xmlns="http://www.w3.org/2000/svg" xmlns:xlink="http://www.w3.org/1999/xlink">
    <!-- Generator: Sketch 52.6 (67491) - http://www.bohemiancoding.com/sketch -->
    <title>057-C</title>
    <desc>Created with Sketch.</desc>
    <g id="icons" stroke="none" stroke-width="1" fill="none" fill-rule="evenodd">
        <g id="icons_DSGN-1385" transform="translate(-97.000000, -392.000000)">
            <g id="057-C" transform="translate(97.000000, 392.000000)">
                <path d="M55.2476,28.1708 C55.2476,43.3588 42.9346,55.6708 27.7476,55.6708 C12.5596,55.6708 0.2476,43.3588 0.2476,28.1708 C0.2476,12.9828 12.5596,0.6708 27.7476,0.6708 C42.9346,0.6708 55.2476,12.9828 55.2476,28.1708" id="Fill-73" fill="#FFA307"></path>
                <path d="M25.7671,31.4457 L23.6671,29.1657 C23.5891,29.0827 23.4811,29.0347 23.3681,29.0347 C23.2531,29.0347 23.1451,29.0827 23.0671,29.1657 L22.5971,29.6657 L22.1581,30.1257 C22.1071,30.1827 22.0501,30.2337 21.9871,30.2757 C21.4971,30.7657 21.3771,30.7757 21.3771,30.7757 C20.9261,30.9607 20.4101,30.8707 20.0471,30.5457 C19.5971,30.1357 19.1771,29.6957 18.7671,29.2457 C18.3571,28.7957 17.9471,28.3357 17.5671,27.8557 C17.3161,27.5287 17.2201,27.1087 17.3071,26.7057 C17.3551,26.5107 17.4401,26.3277 17.5571,26.1657 C17.6591,26.0387 17.7521,25.9047 17.8371,25.7657 C17.8801,25.6997 17.9301,25.6397 17.9871,25.5857 L18.8871,24.5857 C19.0501,24.4037 19.0501,24.1277 18.8871,23.9457 L16.7671,21.7057 C16.6921,21.6227 16.5841,21.5757 16.4721,21.5757 C16.3601,21.5757 16.2531,21.6227 16.1771,21.7057 C15.4931,22.2917 14.8881,22.9637 14.3771,23.7057 C14.0761,24.4207 14.0231,25.2167 14.2271,25.9657 C14.3151,26.4877 14.4621,26.9977 14.6671,27.4857 C14.9741,28.1427 15.3421,28.7687 15.7671,29.3557 C16.1751,29.9297 16.6201,30.4777 17.0971,30.9957 C17.5871,31.5107 18.1121,31.9917 18.6671,32.4357 C19.1911,32.8987 19.7611,33.3077 20.3681,33.6557 C20.9131,33.9477 21.5051,34.1437 22.1181,34.2357 C22.6171,34.3387 23.1341,34.3077 23.6181,34.1457 C23.9751,33.9627 24.2941,33.7107 24.5571,33.4057 L25.3971,32.5557 L25.7471,32.1957 C25.9321,31.9827 25.9411,31.6687 25.7671,31.4457 Z" id="Stroke-401" stroke="#FFFFFF" stroke-linejoin="round"></path>
                <path d="M20.0171,38.4555 C25.8051,38.4555 30.4971,33.7635 30.4971,27.9755 C30.4971,22.1875 25.8051,17.4955 20.0171,17.4955 C14.2291,17.4955 9.5381,22.1875 9.5381,27.9755 C9.5381,33.7635 14.2291,38.4555 20.0171,38.4555 Z" id="Stroke-403" stroke="#FFFFFF" stroke-width="2" stroke-linejoin="round"></path>
                <path d="M23.4175,18.0859 L38.7975,18.0859" id="Stroke-405" stroke="#FFFFFF" stroke-linejoin="round"></path>
                <path d="M22.5474,38.2255 L38.7974,38.2255" id="Stroke-407" stroke="#FFFFFF" stroke-linejoin="round"></path>
                <path d="M30.7171556,41.0056694 C30.7171556,41.557758 30.2692664,42.0056472 29.7180181,42.0056472 C29.1650892,42.0056472 28.7172,41.557758 28.7172,41.0056694 C28.7172,40.4535808 29.1650892,40.0056916 29.7180181,40.0056916 C29.9827182,40.0031706 30.239015,40.1082103 30.4264058,40.2956011 C30.6146369,40.4838322 30.7196766,40.7401291 30.7171556,41.0056694" id="Fill-409" fill="#FFFFFF"></path>
                <path d="M35.8374,12.1557 L23.9774,12.1557 C22.3204,12.1557 20.9774,13.4987 20.9774,15.1557 L20.9774,17.5457 C26.3434,18.0717 30.4354,22.5837 30.4354,27.9757 C30.4354,33.3677 26.3434,37.8797 20.9774,38.4057 L20.9774,41.1857 C20.9774,42.8427 22.3204,44.1857 23.9774,44.1857 L35.8374,44.1857 C37.4934,44.1857 38.8374,42.8427 38.8374,41.1857 L38.8374,15.1157 C38.8154,13.4747 37.4794,12.1557 35.8374,12.1557 Z" id="Stroke-411" stroke="#FFFFFF" stroke-width="2" stroke-linejoin="round"></path>
            </g>
        </g>
    </g>
</svg>