<?xml version="1.0" encoding="UTF-8"?>
<svg width="56px" height="56px" viewBox="0 0 56 56" version="1.1" xmlns="http://www.w3.org/2000/svg" xmlns:xlink="http://www.w3.org/1999/xlink">
    <!-- Generator: Sketch 52.6 (67491) - http://www.bohemiancoding.com/sketch -->
    <title>059-C</title>
    <desc>Created with Sketch.</desc>
    <g id="icons" stroke="none" stroke-width="1" fill="none" fill-rule="evenodd">
        <g id="icons_DSGN-1385" transform="translate(-489.000000, -1078.000000)">
            <g id="059-C" transform="translate(489.000000, 1078.000000)">
                <path d="M55.2476,28.3705 C55.2476,43.5585 42.9346,55.8705 27.7476,55.8705 C12.5596,55.8705 0.2476,43.5585 0.2476,28.3705 C0.2476,13.1825 12.5596,0.8705 27.7476,0.8705 C42.9346,0.8705 55.2476,13.1825 55.2476,28.3705" id="Fill-77" fill="#FFBE08"></path>
                <path d="M19.4771,38.6557 C25.2651,38.6557 29.9571,33.9637 29.9571,28.1757 C29.9571,22.3877 25.2651,17.6957 19.4771,17.6957 C13.6891,17.6957 8.9981,22.3877 8.9981,28.1757 C8.9981,33.9637 13.6891,38.6557 19.4771,38.6557 Z" id="Stroke-357" stroke="#FFFFFF" stroke-width="2" stroke-linejoin="round"></path>
                <path d="M22.8774,18.2856 L38.2574,18.2856" id="Stroke-359" stroke="#FFFFFF" stroke-linejoin="round"></path>
                <path d="M22.0073,38.4257 L38.2573,38.4257" id="Stroke-361" stroke="#FFFFFF" stroke-linejoin="round"></path>
                <path d="M30.1770556,41.205374 C30.1770556,41.7574626 29.7300067,42.2053518 29.1779181,42.2053518 C28.6249892,42.2053518 28.1771,41.7574626 28.1771,41.205374 C28.1771,40.6532854 28.6249892,40.2053962 29.1779181,40.2053962 C29.4434585,40.2037156 29.698915,40.3079149 29.8863058,40.4961461 C30.0745369,40.6835369 30.1795766,40.9398337 30.1770556,41.205374" id="Fill-363" fill="#FFFFFF"></path>
                <path d="M35.2974,12.3554 L23.4374,12.3554 C21.7804,12.3554 20.4374,13.6984 20.4374,15.3554 L20.4374,17.7454 C25.8034,18.2714 29.8954,22.7834 29.8954,28.1754 C29.8954,33.5674 25.8034,38.0794 20.4374,38.6054 L20.4374,41.3854 C20.4374,43.0424 21.7804,44.3854 23.4374,44.3854 L35.2974,44.3854 C36.9534,44.3854 38.2974,43.0424 38.2974,41.3854 L38.2974,15.3154 C38.2754,13.6744 36.9394,12.3554 35.2974,12.3554 Z" id="Stroke-365" stroke="#FFFFFF" stroke-width="2" stroke-linejoin="round"></path>
                <g id="Group-10" transform="translate(12.000000, 20.000000)" stroke="#FFFFFF" stroke-linejoin="round">
                    <path d="M7.5269,15.2055 C11.4539,15.2055 14.6369,12.0225 14.6369,8.0955 C14.6369,4.1685 11.4539,0.9855 7.5269,0.9855 C3.5999,0.9855 0.4179,4.1685 0.4179,8.0955 C0.4179,12.0225 3.5999,15.2055 7.5269,15.2055 Z" id="Stroke-367"></path>
                    <path d="M7.5269,15.2055 C9.6869,15.2055 11.4369,12.0225 11.4369,8.0955 C11.4369,4.1685 9.6869,0.9855 7.5269,0.9855 C5.3679,0.9855 3.6179,4.1685 3.6179,8.0955 C3.6179,12.0225 5.3679,15.2055 7.5269,15.2055 Z" id="Stroke-369"></path>
                    <path d="M7.5269,0.9858 L7.5269,15.2058" id="Stroke-371"></path>
                    <path d="M0.4175,8.1855 L14.6375,8.1855" id="Stroke-373"></path>
                    <path d="M1.5073,4.5155 L13.4373,4.5155" id="Stroke-375"></path>
                    <path d="M1.7075,11.8554 L13.4365,11.8554" id="Stroke-377"></path>
                </g>
            </g>
        </g>
    </g>
</svg>