<?xml version="1.0" encoding="UTF-8"?>
<svg width="56px" height="55px" viewBox="0 0 56 55" version="1.1" xmlns="http://www.w3.org/2000/svg" xmlns:xlink="http://www.w3.org/1999/xlink">
    <!-- Generator: Sketch 52.6 (67491) - http://www.bohemiancoding.com/sketch -->
    <title>060-C</title>
    <desc>Created with Sketch.</desc>
    <g id="icons" stroke="none" stroke-width="1" fill="none" fill-rule="evenodd">
        <g id="icons_DSGN-1385" transform="translate(-97.000000, -502.000000)">
            <g id="060-C" transform="translate(97.000000, 502.000000)">
                <path d="M55.2476,27.5009 C55.2476,42.6889 42.9346,55.0009 27.7476,55.0009 C12.5596,55.0009 0.2476,42.6889 0.2476,27.5009 C0.2476,12.3129 12.5596,0.0009 27.7476,0.0009 C42.9346,0.0009 55.2476,12.3129 55.2476,27.5009" id="Fill-379" fill="#E22E65"></path>
                <path d="M21.9097,17.4159 L38.2577,17.4159" id="Stroke-381" stroke="#FFFFFF" stroke-linejoin="round"></path>
                <path d="M20.437,37.5566 L38.257,37.5566" id="Stroke-383" stroke="#FFFFFF" stroke-linejoin="round"></path>
                <path d="M30.1770556,40.336274 C30.1770556,40.8883626 29.7300067,41.3362518 29.1779181,41.3362518 C28.6249892,41.3362518 28.1771,40.8883626 28.1771,40.336274 C28.1771,39.7841854 28.6249892,39.3362962 29.1779181,39.3362962 C29.4434585,39.3346156 29.698915,39.4388149 29.8863058,39.6262057 C30.0745369,39.8144369 30.1795766,40.0707337 30.1770556,40.336274" id="Fill-385" fill="#FFFFFF"></path>
                <path d="M20.437,29.872 L20.437,40.517 C20.437,42.173 21.781,43.517 23.437,43.517 L35.297,43.517 C36.954,43.517 38.297,42.173 38.297,40.517 L38.297,14.446 C38.275,12.806 36.939,11.486 35.297,11.486 L23.437,11.486 C21.781,11.486 20.437,12.829 20.437,14.486 L20.437,16.876" id="Stroke-387" stroke="#FFFFFF" stroke-width="2" stroke-linejoin="round"></path>
                <path d="M29.0669,23.038 L27.8139,24.13 L24.9829,26.516 L25.4679,28.497 L25.8729,30.114 L26.2769,31.731 C26.5199,32.823 25.9539,33.227 25.0239,32.661 L23.6079,31.772 L22.1929,30.923 L20.4149,29.872 L18.6749,30.923 L17.2599,31.772 L15.8449,32.661 C14.8749,33.227 14.3079,32.823 14.5909,31.731 L14.9959,30.114 L15.3999,28.497 L15.8449,26.516 L13.0549,24.13 L11.8009,23.038 C10.9529,22.31 11.1549,21.623 12.2869,21.542 L13.9449,21.421 L17.6249,21.138 L19.0399,17.741 L19.6859,16.205 C20.1309,15.153 20.8189,15.153 21.2629,16.205 L21.9099,17.741 L23.3259,21.138 L27.0039,21.421 L28.6629,21.542 C29.7139,21.663 29.9169,22.31 29.0669,23.038 Z" id="Stroke-423" stroke="#FFFFFF" stroke-width="2" stroke-linejoin="round"></path>
            </g>
        </g>
    </g>
</svg>