<?xml version="1.0" encoding="UTF-8"?>
<svg width="56px" height="56px" viewBox="0 0 56 56" version="1.1" xmlns="http://www.w3.org/2000/svg" xmlns:xlink="http://www.w3.org/1999/xlink">
    <!-- Generator: Sketch 52.6 (67491) - http://www.bohemiancoding.com/sketch -->
    <title>065-C</title>
    <desc>Created with Sketch.</desc>
    <g id="icons" stroke="none" stroke-width="1" fill="none" fill-rule="evenodd">
        <g id="icons_DSGN-1385" transform="translate(-489.000000, -392.000000)">
            <g id="065-C" transform="translate(489.000000, 392.000000)">
                <path d="M55.2476,28.3705 C55.2476,43.5585 42.9346,55.8705 27.7476,55.8705 C12.5596,55.8705 0.2476,43.5585 0.2476,28.3705 C0.2476,13.1825 12.5596,0.8705 27.7476,0.8705 C42.9346,0.8705 55.2476,13.1825 55.2476,28.3705" id="Fill-77" fill="#275392"></path>
                <path d="M19.4771,38.6557 C25.2651,38.6557 29.9571,33.9637 29.9571,28.1757 C29.9571,22.3877 25.2651,17.6957 19.4771,17.6957 C13.6891,17.6957 8.9981,22.3877 8.9981,28.1757 C8.9981,33.9637 13.6891,38.6557 19.4771,38.6557 Z" id="Stroke-357" stroke="#FFFFFF" stroke-width="2" stroke-linejoin="round"></path>
                <path d="M22.8774,18.2856 L38.2574,18.2856" id="Stroke-359" stroke="#FFFFFF" stroke-linejoin="round"></path>
                <path d="M22.0073,38.4257 L38.2573,38.4257" id="Stroke-361" stroke="#FFFFFF" stroke-linejoin="round"></path>
                <path d="M30.2134185,41.2235558 C30.2134185,41.7856824 29.7582414,42.241715 29.1961148,42.241715 C28.6331327,42.241715 28.1771,41.7856824 28.1771,41.2235558 C28.1771,40.6614292 28.6331327,40.2053966 29.1961148,40.2053966 C29.4664832,40.2036854 29.7265844,40.3097793 29.9173823,40.5014328 C30.1090358,40.6922307 30.2159853,40.9531875 30.2134185,41.2235558" id="Fill-363" fill="#FFFFFF"></path>
                <path d="M35.2974,12.3554 L23.4374,12.3554 C21.7804,12.3554 20.4374,13.6984 20.4374,15.3554 L20.4374,17.7454 C25.8034,18.2714 29.8954,22.7834 29.8954,28.1754 C29.8954,33.5674 25.8034,38.0794 20.4374,38.6054 L20.4374,41.3854 C20.4374,43.0424 21.7804,44.3854 23.4374,44.3854 L35.2974,44.3854 C36.9534,44.3854 38.2974,43.0424 38.2974,41.3854 L38.2974,15.3154 C38.2754,13.6744 36.9394,12.3554 35.2974,12.3554 Z" id="Stroke-365" stroke="#FFFFFF" stroke-width="2" stroke-linejoin="round"></path>
                <path d="M23.5308007,30.4251929 C21.932776,30.2607989 20.0581628,28.9466558 19.4740442,28.5082719 C20.0581628,28.0702242 21.9022116,26.7009469 23.5308007,26.56412 C23.6232484,26.56412 23.7153188,26.5368891 23.8073891,26.5368891 C25.0061907,26.5096582 26.0204741,27.3581866 26.0514158,28.4534739 C26.0819801,29.5215304 25.1288254,30.4251929 23.8998368,30.45276 C23.7768248,30.4251929 23.6538127,30.4251929 23.5308007,30.4251929 Z" id="Stroke-289" stroke="#FFFFFF" stroke-linejoin="round"></path>
                <path d="M15.1140317,30.4245555 C16.7120564,30.2601615 18.5870468,28.9460184 19.1707881,28.5076345 C18.5870468,28.0695868 16.7426207,26.7003095 15.1140317,26.5634826 C15.021584,26.5634826 14.9295136,26.5362517 14.8374432,26.5362517 C13.6386417,26.5362517 12.6549226,27.4126833 12.6549226,28.4804036 C12.6549226,29.54846 13.6386417,30.4245555 14.8374432,30.4245555 L15.1140317,30.4245555 Z" id="Stroke-290" stroke="#FFFFFF" stroke-linejoin="round"></path>
            </g>
        </g>
    </g>
</svg>