<?xml version="1.0" encoding="UTF-8"?>
<svg width="55px" height="55px" viewBox="0 0 55 55" version="1.1" xmlns="http://www.w3.org/2000/svg" xmlns:xlink="http://www.w3.org/1999/xlink">
    <!-- Generator: Sketch 52.6 (67491) - http://www.bohemiancoding.com/sketch -->
    <title>067-C</title>
    <desc>Created with Sketch.</desc>
    <g id="icons" stroke="none" stroke-width="1" fill="none" fill-rule="evenodd">
        <g id="icons_DSGN-1385" transform="translate(-1038.000000, -731.000000)">
            <g id="067-C" transform="translate(1038.000000, 731.000000)">
                <path d="M55,27.5 C55,42.688 42.688,55 27.5,55 C12.312,55 0,42.688 0,27.5 C0,12.312 12.312,0 27.5,0 C42.688,0 55,12.312 55,27.5" id="Fill-236" fill="#E22E65"></path>
                <g id="Untitled-8" transform="translate(9.163636, 22.400000)" fill="#FFFFFF" fill-rule="nonzero">
                    <path d="M0,6.41454545 C0,5.39636364 0.610909091,4.58181818 1.42545455,4.17454545 C0.712727273,3.76727273 0.203636364,3.05454545 0.203636364,2.24 C0.203636364,0.916363636 1.32363636,0 2.95272727,0 C4.58181818,0 5.70181818,0.916363636 5.70181818,2.24 C5.70181818,3.05454545 5.29454545,3.76727273 4.48,4.17454545 C5.29454545,4.58181818 5.90545455,5.39636364 5.90545455,6.41454545 C5.90545455,7.94181818 4.68363636,8.96 2.95272727,8.96 C1.22181818,8.96 0,7.94181818 0,6.41454545 Z M4.58181818,6.41454545 C4.58181818,5.49818182 3.86909091,4.88727273 2.85090909,4.88727273 C1.83272727,4.88727273 1.12,5.49818182 1.12,6.41454545 C1.12,7.33090909 1.83272727,7.94181818 2.85090909,7.94181818 C3.86909091,7.94181818 4.58181818,7.22909091 4.58181818,6.41454545 Z M2.95272727,3.76727273 C3.76727273,3.76727273 4.37818182,3.25818182 4.37818182,2.44363636 C4.37818182,1.62909091 3.66545455,1.12 2.95272727,1.12 C2.24,1.12 1.52727273,1.62909091 1.52727273,2.44363636 C1.52727273,3.25818182 2.13818182,3.76727273 2.95272727,3.76727273 Z" id="Shape"></path>
                    <polygon id="Shape" points="22.8072727 3.97090909 24.64 1.01818182 26.0654545 1.01818182 23.6218182 4.88727273 26.4727273 9.57090909 25.0472727 9.57090909 22.9090909 6.00727273 20.7709091 9.57090909 19.3454545 9.57090909 22.1963636 4.98909091 19.7527273 1.01818182 21.1781818 1.01818182"></polygon>
                    <polygon id="Shape" points="13.6436364 3.97090909 15.4763636 1.01818182 16.9018182 1.01818182 14.4581818 4.88727273 17.3090909 9.57090909 15.8836364 9.57090909 13.7454545 6.00727273 11.6072727 9.57090909 10.1818182 9.57090909 13.0327273 4.98909091 10.5890909 1.01818182 11.9127273 1.01818182"></polygon>
                    <polygon id="Shape" points="33.0909091 3.97090909 34.9236364 1.01818182 36.3490909 1.01818182 33.9054545 4.88727273 36.7563636 9.57090909 35.3309091 9.57090909 33.0909091 6.10909091 30.9527273 9.67272727 29.5272727 9.67272727 32.3781818 5.09090909 29.9345455 1.12 31.36 1.12"></polygon>
                </g>
            </g>
        </g>
    </g>
</svg>