<?xml version="1.0" encoding="UTF-8"?>
<svg width="56px" height="56px" viewBox="0 0 56 56" version="1.1" xmlns="http://www.w3.org/2000/svg" xmlns:xlink="http://www.w3.org/1999/xlink">
    <!-- Generator: Sketch 52.6 (67491) - http://www.bohemiancoding.com/sketch -->
    <title>068-C</title>
    <desc>Created with Sketch.</desc>
    <g id="icons" stroke="none" stroke-width="1" fill="none" fill-rule="evenodd">
        <g id="icons_DSGN-1385" transform="translate(-1038.000000, -614.000000)">
            <g id="068-C" transform="translate(1038.000000, 614.000000)">
                <path d="M56,28 C56,43.4641455 43.4641455,56 28,56 C12.5358545,56 0,43.4641455 0,28 C0,12.5358545 12.5358545,0 28,0 C43.4641455,0 56,12.5358545 56,28" id="Fill-236" fill="#65DEED"></path>
                <g id="Untitled-7" transform="translate(10.366942, 20.733884)">
                    <path d="M18.1421488,13.5806942 L18.1421488,0.933024793" id="Shape" stroke="#FFFFFF" stroke-width="2"></path>
                    <path d="M16.0687603,0.933024793 L20.2155372,0.933024793" id="Shape" stroke="#FFFFFF" stroke-width="2"></path>
                    <path d="M16.0687603,13.5806942 L20.2155372,13.5806942" id="Shape" stroke="#FFFFFF" stroke-width="2"></path>
                    <g id="Group" transform="translate(0.000000, 2.073388)" fill="#FFFFFF" fill-rule="nonzero">
                        <path d="M0.103669421,7.04952066 C0.103669421,6.01282645 0.72568595,5.18347107 1.55504132,4.76879339 C0.829355372,4.3541157 0.311008264,3.62842975 0.311008264,2.79907438 C0.311008264,1.4513719 1.4513719,0.518347107 3.11008264,0.518347107 C4.76879339,0.518347107 5.90915702,1.4513719 5.90915702,2.79907438 C5.90915702,3.62842975 5.49447934,4.3541157 4.66512397,4.76879339 C5.49447934,5.18347107 6.11649587,6.01282645 6.11649587,7.04952066 C6.11649587,8.60456198 4.87246281,9.6412562 3.11008264,9.6412562 C1.34770248,9.6412562 0.103669421,8.60456198 0.103669421,7.04952066 Z M4.76879339,7.04952066 C4.76879339,6.11649587 4.04310744,5.49447934 3.00641322,5.49447934 C1.96971901,5.49447934 1.24403306,6.11649587 1.24403306,7.04952066 C1.24403306,7.98254545 1.96971901,8.60456198 3.00641322,8.60456198 C4.04310744,8.60456198 4.76879339,7.87887603 4.76879339,7.04952066 Z M3.11008264,4.3541157 C3.93943802,4.3541157 4.56145455,3.8357686 4.56145455,3.00641322 C4.56145455,2.17705785 3.8357686,1.65871074 3.11008264,1.65871074 C2.38439669,1.65871074 1.65871074,2.17705785 1.65871074,3.00641322 C1.65871074,3.8357686 2.28072727,4.3541157 3.11008264,4.3541157 Z" id="Shape"></path>
                        <path d="M9.95226446,7.15319008 C9.84859504,7.36052893 9.84859504,7.46419835 9.84859504,7.56786777 C9.84859504,8.1898843 10.3669421,8.50089256 11.2999669,8.50089256 C12.544,8.50089256 13.3733554,7.36052893 13.3733554,5.2871405 C13.0623471,5.90915702 12.1293223,6.42750413 11.2999669,6.42750413 C9.53758678,6.42750413 8.29355372,5.18347107 8.29355372,3.52476033 C8.29355372,1.86604959 9.53758678,0.518347107 11.4036364,0.518347107 C13.4770248,0.518347107 14.6173884,1.96971901 14.6173884,4.45778512 C14.6173884,5.70181818 14.4100496,6.63484298 14.0990413,7.46419835 C13.5806942,8.81190083 12.544,9.53758678 11.1962975,9.53758678 C9.53758678,9.53758678 8.50089256,8.60456198 8.50089256,7.46419835 C8.50089256,7.2568595 8.50089256,7.04952066 8.60456198,6.84218182 L9.95226446,7.15319008 Z M13.269686,3.52476033 C13.269686,2.38439669 12.3366612,1.76238017 11.4036364,1.76238017 C10.4706116,1.76238017 9.6412562,2.38439669 9.6412562,3.52476033 C9.6412562,4.66512397 10.4706116,5.2871405 11.4036364,5.2871405 C12.3366612,5.2871405 13.269686,4.66512397 13.269686,3.52476033 Z" id="Shape"></path>
                    </g>
                    <g id="Group" transform="translate(20.733884, 2.073388)" fill="#FFFFFF" fill-rule="nonzero">
                        <polygon id="Shape" points="3.8357686 3.73209917 5.70181818 0.72568595 7.15319008 0.72568595 4.66512397 4.66512397 7.56786777 9.43391736 6.11649587 9.43391736 3.93943802 5.8054876 1.76238017 9.43391736 0.311008264 9.43391736 3.21375207 4.76879339 0.72568595 0.72568595 2.07338843 0.72568595"></polygon>
                        <polygon id="Shape" points="12.4403306 3.73209917 14.3063802 0.72568595 15.7577521 0.72568595 13.269686 4.66512397 16.1724298 9.43391736 14.7210579 9.43391736 12.4403306 5.90915702 10.2632727 9.53758678 8.81190083 9.53758678 11.7146446 4.87246281 9.22657851 0.829355372 10.6779504 0.829355372"></polygon>
                    </g>
                </g>
            </g>
        </g>
    </g>
</svg>