<?xml version="1.0" encoding="UTF-8"?>
<svg width="56px" height="56px" viewBox="0 0 56 56" version="1.1" xmlns="http://www.w3.org/2000/svg" xmlns:xlink="http://www.w3.org/1999/xlink">
    <!-- Generator: Sketch 52.6 (67491) - http://www.bohemiancoding.com/sketch -->
    <title>069-C</title>
    <desc>Created with Sketch.</desc>
    <g id="icons" stroke="none" stroke-width="1" fill="none" fill-rule="evenodd">
        <g id="icons_DSGN-1385" transform="translate(-1859.000000, -844.000000)">
            <g id="069-C" transform="translate(1859.000000, 844.000000)">
                <path d="M55.2476,28.2397 C55.2476,43.4277 42.9346,55.7397 27.7476,55.7397 C12.5596,55.7397 0.2476,43.4277 0.2476,28.2397 C0.2476,13.0517 12.5596,0.7397 27.7476,0.7397 C42.9346,0.7397 55.2476,13.0517 55.2476,28.2397" id="Fill-75" fill="#E22E65"></path>
                <g id="2" transform="translate(12.000000, 19.000000)" stroke="#FFFFFF" stroke-width="2">
                    <path d="M19.7572559,18.5594855 L13.171504,26 L13.171504,18.5594855 L1.60422164,18.5594855 C0.675461741,18.5594855 0,17.807074 0,16.9710611 L0,1.58842444 C0,0.668810289 0.759894459,0 1.60422164,0 L30.3113456,0 C31.2401055,0 32,0.752411576 32,1.58842444 L32,16.8874598 C32,17.807074 31.2401055,18.4758842 30.3113456,18.4758842 L19.7572559,18.5594855 Z" id="Shape"></path>
                    <path d="M30.8630371,0.936279297 L16.893733,10.6024096 C16.133515,11.1325301 14.9509537,11.1325301 14.1907357,10.6024096 L0.693603516,0.936279297" id="Shape"></path>
                </g>
            </g>
        </g>
    </g>
</svg>