<?xml version="1.0" encoding="UTF-8"?>
<svg width="56px" height="56px" viewBox="0 0 56 56" version="1.1" xmlns="http://www.w3.org/2000/svg" xmlns:xlink="http://www.w3.org/1999/xlink">
    <!-- Generator: Sketch 52.6 (67491) - http://www.bohemiancoding.com/sketch -->
    <title>070-C</title>
    <desc>Created with Sketch.</desc>
    <g id="icons" stroke="none" stroke-width="1" fill="none" fill-rule="evenodd">
        <g id="icons_DSGN-1385" transform="translate(-2238.000000, -392.000000)">
            <g id="070-C" transform="translate(2238.000000, 392.000000)">
                <path d="M55.4477,28.3788 C55.4477,43.5668 43.1347,55.8788 27.9477,55.8788 C12.7597,55.8788 0.4477,43.5668 0.4477,28.3788 C0.4477,13.1908 12.7597,0.8788 27.9477,0.8788 C43.1347,0.8788 55.4477,13.1908 55.4477,28.3788" id="Fill-3" fill="#3BBC9E"></path>
                <polygon id="Stroke-254" stroke="#FFFFFF" stroke-width="2" stroke-linejoin="round" points="27.9477 10.3749 12.4927 24.6619 15.9267 24.6619 15.9267 42.3829 24.5127 42.3829 31.3817 42.3829 39.9677 42.3829 39.9677 24.6619 43.4027 24.6619 38.8007 20.4029 38.8007 10.3749 33.0987 10.3749 33.0987 15.1139"></polygon>
                <text id="8-copy-2" font-family="RostelecomBasis-Medium, Rostelecom Basis" font-size="24" font-weight="400" fill="#FFFFFF">
                    <tspan x="21" y="38">8</tspan>
                </text>
            </g>
        </g>
    </g>
</svg>