<?xml version="1.0" encoding="UTF-8"?>
<svg width="56px" height="56px" viewBox="0 0 56 56" version="1.1" xmlns="http://www.w3.org/2000/svg" xmlns:xlink="http://www.w3.org/1999/xlink">
    <!-- Generator: Sketch 52.6 (67491) - http://www.bohemiancoding.com/sketch -->
    <title>072-C</title>
    <desc>Created with Sketch.</desc>
    <g id="icons" stroke="none" stroke-width="1" fill="none" fill-rule="evenodd">
        <g id="icons_DSGN-1385" transform="translate(-1859.000000, -613.000000)">
            <g id="072-C" transform="translate(1859.000000, 613.000000)">
                <path d="M55.2476,28.2397 C55.2476,43.4277 42.9346,55.7397 27.7476,55.7397 C12.5596,55.7397 0.2476,43.4277 0.2476,28.2397 C0.2476,13.0517 12.5596,0.7397 27.7476,0.7397 C42.9346,0.7397 55.2476,13.0517 55.2476,28.2397" id="Fill-75" fill="#FF8218"></path>
                <g id="kolokol-copy" transform="translate(12.000000, 13.000000)" stroke="#FFFFFF" stroke-linecap="round" stroke-linejoin="round" stroke-width="2">
                    <path d="M26.8847304,13.6746041 C29.1699325,9.64857017 27.825696,4.51190618 23.9274101,2.15181731 C20.0291242,-0.20827155 14.9210254,1.18001602 12.7702469,5.20604996 L8.73753738,12.4251453 C6.183488,16.8676655 0,18.9500969 0,18.9500969 L21.7766316,32" id="Shape"></path>
                    <path d="M0,19.0868486 L21.8101091,32 C21.8101091,32 20.4720656,25.4739987 22.8805439,20.8919128 L26.8946744,13.6716561 C29.1693483,9.78382553 27.8313048,4.50748409 23.8171743,2.14701555 C19.9368482,-0.213452987 14.9860872,1.17505792 12.7114133,5.34059063" id="Shape"></path>
                    <path d="M26.0909091,4 L26.6969697,3.06013785 C27.3030303,2.1202757 27,0.777615494 25.7878788,0.24055141 C24.7272727,-0.296512675 23.3636364,0.106285389 22.6060606,1.04614754 L22.3551331,1.33859253" id="Shape"></path>
                    <path d="M12,26.674877 L11.243311,27.7448279 C10.486622,28.9931038 9.12458176,29.3497541 8.06521715,28.6364535 C7.00585253,27.923153 6.70317693,26.3182268 7.30852813,25.0699508 L7.76254154,24" id="Shape"></path>
                </g>
            </g>
        </g>
    </g>
</svg>