<?xml version="1.0" encoding="UTF-8"?>
<svg width="56px" height="56px" viewBox="0 0 56 56" version="1.1" xmlns="http://www.w3.org/2000/svg" xmlns:xlink="http://www.w3.org/1999/xlink">
    <!-- Generator: Sketch 52.6 (67491) - http://www.bohemiancoding.com/sketch -->
    <title>077-C</title>
    <desc>Created with Sketch.</desc>
    <g id="icons" stroke="none" stroke-width="1" fill="none" fill-rule="evenodd">
        <g id="icons_DSGN-1385" transform="translate(-1038.000000, -502.000000)">
            <g id="077-C" transform="translate(1038.000000, 502.000000)">
                <path d="M56,28 C56,43.4641455 43.4641455,56 28,56 C12.5358545,56 0,43.4641455 0,28 C0,12.5358545 12.5358545,0 28,0 C43.4641455,0 56,12.5358545 56,28" id="Fill-236" fill="#57D9B7"></path>
                <g id="Group-17" transform="translate(11.403636, 13.477025)" stroke="#FFFFFF" stroke-linecap="round" stroke-linejoin="round">
                    <path d="M32.0155795,15.0359537 C32.0181712,23.2673058 25.3340853,29.9384331 17.1079167,29.9371372 C8.87267702,29.9371372 2.20543736,23.2698975 2.20284562,15.0372496 C2.20284562,6.80460165 8.8778605,0.132178512 17.1079167,0.132178512 C25.336677,0.132178512 32.0155795,6.80330579 32.0155795,15.0359537 Z" id="Stroke-3" stroke-width="2"></path>
                    <path d="M2.21062083,15.03712 L32.0155795,15.0358241" id="Stroke-5"></path>
                    <path d="M5.41232132,5.7889005 L28.7962552,5.79019636" id="Stroke-7"></path>
                    <path d="M5.41478347,24.2791193 L28.7961256,24.2817111" id="Stroke-9"></path>
                    <path d="M17.1054545,0.132178512 C17.1054545,0.132178512 24.4685752,2.90144793 24.4724628,15.0346579 C24.4711669,27.1691636 17.1054545,29.9358413 17.1054545,29.9358413" id="Stroke-11"></path>
                    <path d="M17.1054545,0.132178512 C17.1054545,0.132178512 9.73974215,2.90144793 9.73974215,15.0346579 C9.74233388,27.1691636 17.1054545,29.9358413 17.1054545,29.9358413" id="Stroke-13"></path>
                    <path d="M4.7490962,27.4143418 C2.62776066,28.1270691 1.13751273,28.1983418 0.59584,27.4752476 C-0.896999669,25.4990493 5.28558545,18.3238294 14.4123821,11.4544344 C23.5236284,4.5824476 32.1268945,0.620979835 33.6145507,2.59329058 C34.1588152,3.31638479 33.68064,4.73536 32.4003226,6.57937983" id="Stroke-15" stroke-width="2"></path>
                </g>
            </g>
        </g>
    </g>
</svg>