<?xml version="1.0" encoding="UTF-8"?>
<svg width="56px" height="56px" viewBox="0 0 56 56" version="1.1" xmlns="http://www.w3.org/2000/svg" xmlns:xlink="http://www.w3.org/1999/xlink">
    <!-- Generator: Sketch 52.6 (67491) - http://www.bohemiancoding.com/sketch -->
    <title>078-C</title>
    <desc>Created with Sketch.</desc>
    <g id="icons" stroke="none" stroke-width="1" fill="none" fill-rule="evenodd">
        <g id="icons_DSGN-1385" transform="translate(-1038.000000, -962.000000)">
            <g id="078-C" transform="translate(1038.000000, 962.000000)">
                <path d="M56,28 C56,43.4641455 43.4641455,56 28,56 C12.5358545,56 0,43.4641455 0,28 C0,12.5358545 12.5358545,0 28,0 C43.4641455,0 56,12.5358545 56,28" id="Fill-236" fill="#FFA307"></path>
                <g id="1" transform="translate(11.403636, 12.440331)">
                    <polyline id="Shape" stroke="#FFFFFF" points="16.5871074 23.2661374 14.4544793 26.9540496 8.29355372 23.3851023 10.4261818 19.6971901"></polyline>
                    <path d="M7.10910245,26.3739945 C6.83401226,26.9170248 6.14628676,27.0527824 5.73365147,26.7812672 C5.18347107,26.5097521 5.04592598,25.8309642 5.32101617,25.4236915 C5.59610637,24.8806612 6.28383186,24.7449036 6.69646716,25.0164187 C7.10910245,25.2879339 7.38419265,25.9667218 7.10910245,26.3739945 Z" id="Shape" fill="#FFFFFF" fill-rule="nonzero"></path>
                    <path d="M10.2191851,28.4473829 C9.9440949,28.9904132 9.25636941,29.1261708 8.84373411,28.8546556 C8.29355372,28.5831405 8.15600862,27.9043526 8.43109882,27.4970799 C8.70618901,26.9540496 9.39391451,26.818292 9.8065498,27.0898072 C10.2191851,27.3613223 10.4942753,27.9043526 10.2191851,28.4473829 Z" id="Shape" fill="#FFFFFF" fill-rule="nonzero"></path>
                    <path d="M13.2495487,30.5207713 C12.985847,31.0638017 12.3265925,31.1995592 11.9310399,30.9280441 C11.4036364,30.6565289 11.2717855,29.977741 11.5354872,29.5704683 C11.799189,29.027438 12.4584434,28.8916804 12.8539961,29.1631956 C13.3813996,29.2989532 13.6451014,29.977741 13.2495487,30.5207713 Z" id="Shape" fill="#FFFFFF" fill-rule="nonzero"></path>
                    <path d="M0.19270834,17.8688385 C0.19270834,17.8688385 7.52022396,16.8509932 14.3825005,20.4699985 C21.4773966,24.2020977 23.803592,31.1008264 23.803592,31.1008264 C25.3156191,30.5353569 26.7113363,29.7436995 27.9907438,28.7258542 C27.9907438,28.7258542 25.1993093,23.1842524 25.1993093,15.4938663 C25.1993093,7.80348009 27.9907438,2.3749722 27.9907438,2.3749722 C27.2928852,1.92259654 26.5950265,1.35712697 25.8971679,1.01784523 C25.1993093,0.565469572 24.3851409,0.226187829 23.5709725,0 C23.5709725,0 19.5001305,5.31541397 13.2194028,8.93441923 C6.9386751,12.4403306 0.0763985679,13.231988 0.0763985679,13.231988 C-0.0399112039,14.7022089 -0.0399112039,16.2855237 0.19270834,17.8688385 Z" id="Shape" stroke="#FFFFFF" stroke-width="2"></path>
                    <path d="M19.1018206,11.8170573 C17.653462,10.9650817 15.7791156,11.4762671 14.92714,12.9246257 C14.0751643,14.3729843 14.5863497,16.2473307 16.0347083,17.0993063 C17.4830669,17.9512819 19.3574133,17.4400966 20.2093889,15.991738 C21.0613646,14.5433794 20.5501792,12.669033 19.1018206,11.8170573 Z" id="Shape" stroke="#FFFFFF"></path>
                    <path d="M18.6604959,24.6962796 L14.2323182,32.2125386 C13.6496633,33.1236003 12.4843534,33.4652485 11.5521055,32.8958349 L4.09412212,28.6821746 C3.1618742,28.112761 2.81228123,26.9739339 3.39493618,26.0628722 L7.8231138,18.6604959" id="Shape" stroke="#FFFFFF"></path>
                </g>
            </g>
        </g>
    </g>
</svg>