<?xml version="1.0" encoding="UTF-8"?>
<svg width="56px" height="55px" viewBox="0 0 56 55" version="1.1" xmlns="http://www.w3.org/2000/svg" xmlns:xlink="http://www.w3.org/1999/xlink">
    <!-- Generator: Sketch 52.6 (67491) - http://www.bohemiancoding.com/sketch -->
    <title>100-C</title>
    <desc>Created with Sketch.</desc>
    <g id="icons" stroke="none" stroke-width="1" fill="none" fill-rule="evenodd">
        <g id="icons_DSGN-1385" transform="translate(-97.000000, -844.000000)">
            <g id="100-C" transform="translate(97.000000, 844.000000)">
                <path d="M55.2476,27.5009 C55.2476,42.6889 42.9346,55.0009 27.7476,55.0009 C12.5596,55.0009 0.2476,42.6889 0.2476,27.5009 C0.2476,12.3129 12.5596,0.0009 27.7476,0.0009 C42.9346,0.0009 55.2476,12.3129 55.2476,27.5009" id="Fill-379" fill="#FF4F12"></path>
                <g id="mobile_svyaz_bonus_sale-copy-2" transform="translate(7.000000, 21.000000)" fill="#FFFFFF" fill-rule="nonzero">
                    <path d="M5.1,14 C3.9,14 2.7,13.8 1.5,13.4 C1.2,13.3 1,13 1,12.6 C1,12.2 1.3,11.8 1.7,11.8 C1.7,11.8 1.7,11.8 1.7,11.8 C2,11.8 2.3,12.1 3.3,12.3 C3.8,12.4 4.4,12.5 5,12.5 C7.3,12.5 8.3,11.5 8.3,10 C8.3,8.9 7.7,8.4 6.5,8 C5.2,7.7 4,7.4 2.7,7 C1.5,6.5 0.9,5.3 1,4 C1,1.5 2.9,7.10542736e-15 5.4,7.10542736e-15 C6.5,7.10542736e-15 7.5,0.1 8.5,0.5 C8.9,0.6 9.1,1.1 9,1.5 C8.9,1.8 8.6,2 8.2,2.1 C7.9,2.1 7.6,1.9 6.8,1.7 C6.3,1.6 5.9,1.6 5.4,1.6 C3.6,1.6 2.6,2.5 2.6,3.9 C2.6,5.1 3.3,5.5 4.4,5.9 C5.5,6.3 7.4,6.4 8.5,7 C9.5,7.6 10,8.7 9.9,9.8 C10,12.5 8,14 5.1,14 Z" id="Shape"></path>
                    <path d="M20.6,14 C20.2,14 19.9,13.7 19.8,13.3 C19.6,12.4 19.3,11.5 19.1,10.6 L13.8,10.6 C13.6,11.5 13.3,12.4 13.1,13.3 C13,13.7 12.7,13.9 12.3,14 C11.9,14 11.5,13.7 11.5,13.2 C11.5,13.1 11.5,13.1 11.5,13 C12.5,8.9 13.8,4.9 15.4,1 C15.7,0.2 16.1,0.1 16.5,0.1 C16.9,0.1 17.3,0.2 17.6,1 C19.2,4.9 20.5,8.9 21.5,13 C21.6,13.4 21.3,13.9 20.9,14 C20.7,14 20.6,14 20.6,14 Z M16.3,2.7 C15.5,4.8 14.7,6.8 14.1,9 L18.6,9 C17.9,6.9 17.2,4.8 16.3,2.7 Z" id="Shape"></path>
                    <path d="M30.4,13.8 L24,13.8 C23.6,13.8 23.2,13.5 23.2,13 C23.2,13 23.2,13 23.2,13 L23.2,0.9 C23.2,0.4 23.6,0.1 24,0.1 C24.4,0.1 24.8,0.5 24.8,0.9 L24.8,12.2 L30.4,12.2 C30.8,12.2 31.2,12.6 31.2,13 C31.2,13.4 30.9,13.8 30.4,13.8 C30.5,13.8 30.5,13.8 30.4,13.8 Z" id="Shape"></path>
                    <path d="M40.2,13.8 L33.7,13.8 C33.3,13.8 32.9,13.5 32.9,13 C32.9,13 32.9,13 32.9,13 L32.9,1 C32.9,0.6 33.3,0.2 33.7,0.2 L39.9,0.2 C40.3,0.2 40.7,0.6 40.7,1 C40.7,1.4 40.3,1.8 39.9,1.8 C39.9,1.8 39.9,1.8 39.9,1.8 L34.6,1.8 L34.6,6.2 L39.4,6.2 C39.8,6.2 40.2,6.5 40.2,7 C40.2,7.5 39.9,7.8 39.4,7.8 C39.4,7.8 39.4,7.8 39.4,7.8 L34.6,7.8 L34.6,12.2 L40.2,12.2 C40.6,12.2 41,12.6 41,13 C41,13.4 40.7,13.8 40.2,13.8 Z" id="Shape"></path>
                </g>
            </g>
        </g>
    </g>
</svg>