<?xml version="1.0" encoding="UTF-8"?>
<svg width="56px" height="55px" viewBox="0 0 56 55" version="1.1" xmlns="http://www.w3.org/2000/svg" xmlns:xlink="http://www.w3.org/1999/xlink">
    <!-- Generator: Sketch 52.6 (67491) - http://www.bohemiancoding.com/sketch -->
    <title>115-C</title>
    <desc>Created with Sketch.</desc>
    <g id="icons" stroke="none" stroke-width="1" fill="none" fill-rule="evenodd">
        <g id="icons_DSGN-1385" transform="translate(-489.000000, -961.000000)">
            <g id="115-C" transform="translate(489.000000, 961.000000)">
                <path d="M55.3755,27.5029 C55.3755,42.6909 43.0635,55.0029 27.8755,55.0029 C12.6875,55.0029 0.3755,42.6909 0.3755,27.5029 C0.3755,12.3149 12.6875,0.0029 27.8755,0.0029 C43.0635,0.0029 55.3755,12.3149 55.3755,27.5029" id="Fill-159" fill="#273A64"></path>
                <path d="M43.1189453,31.8945723 C43.1189453,33.7001286 41.641672,35.0953312 39.9181865,35.0953312 L16.2818135,35.0953312 C14.4762573,35.0953312 13.0810547,33.6180579 13.0810547,31.8945723 L13.0810547,19.4198199 C13.0810547,17.6142637 14.558328,16.2190611 16.2818135,16.2190611 L39.9181865,16.2190611 C41.7237427,16.2190611 43.1189453,17.6963344 43.1189453,19.4198199 L43.1189453,31.8945723 Z" id="Shape" stroke="#FFFFFF" stroke-width="2"></path>
                <path d="M13.0810547,38 L43.1189453,38" id="Shape" stroke="#FFFFFF" stroke-width="2"></path>
                <path d="M25.1454534,22.2922958 C25.1454534,21.7178007 25.5558071,21.3895177 26.1303023,21.7178007 L32.0393955,25.082701 C32.5318199,25.4109839 32.5318199,25.9034084 32.0393955,26.2316913 L26.1303023,29.5965916 C25.6378778,29.9248746 25.1454534,29.6786624 25.1454534,29.0220965 L25.1454534,22.2922958 Z" id="Shape" fill="#FFFFFF"></path>
            </g>
        </g>
    </g>
</svg>