<svg xmlns="http://www.w3.org/2000/svg" xmlns:xlink="http://www.w3.org/1999/xlink" width="56" height="56" viewBox="0 0 56 56">
    <g fill="none" fill-rule="evenodd">
        <path fill="#FFBE08" d="M56 28c0 15.464-12.536 28-28 28S0 43.464 0 28 12.536 0 28 0s28 12.536 28 28"/>
        <g transform="translate(7 11)">
            <path fill="#000" d="M11.796 20.782v-.94l2.66-2.61c.57-.56.82-.92.82-1.43 0-.59-.41-1-1.07-1-.64 0-1.09.37-1.09.99 0 .2.02.33.05.48l-1.3.09c-.05-.23-.07-.43-.07-.64 0-1.09.91-2.08 2.41-2.08 1.54 0 2.35.87 2.35 2.01 0 .92-.31 1.5-1.22 2.38l-1.57 1.53h2.79v1.22h-4.76zm8.75 0v-1.16h-3.41v-1.22l3.41-4.62h1.32v4.62h.71v1.22h-.71v1.16h-1.32zm-2.01-2.38h2.01v-2.76l-2.01 2.76zm4.73-1.12v-1.34h1.34v1.34h-1.34zm0 3.5v-1.34h1.34v1.34h-1.34zm2.88 0l2.6-5.78h-3.38v-1.22h4.72v1.16l-2.62 5.84h-1.32z"/>
            <path fill="#FFF" d="M11.796 20.782v-.94l2.66-2.61c.57-.56.82-.92.82-1.43 0-.59-.41-1-1.07-1-.64 0-1.09.37-1.09.99 0 .2.02.33.05.48l-1.3.09c-.05-.23-.07-.43-.07-.64 0-1.09.91-2.08 2.41-2.08 1.54 0 2.35.87 2.35 2.01 0 .92-.31 1.5-1.22 2.38l-1.57 1.53h2.79v1.22h-4.76zm8.75 0v-1.16h-3.41v-1.22l3.41-4.62h1.32v4.62h.71v1.22h-.71v1.16h-1.32zm-2.01-2.38h2.01v-2.76l-2.01 2.76zm4.73-1.12v-1.34h1.34v1.34h-1.34zm0 3.5v-1.34h1.34v1.34h-1.34zm2.88 0l2.6-5.78h-3.38v-1.22h4.72v1.16l-2.62 5.84h-1.32z"/>
        </g>
        <path stroke="#FFF" stroke-linecap="round" stroke-width="2" d="M16.473 39.66c6.422 6.315 16.697 6.315 23.12 0 6.314-6.422 6.314-16.698 0-23.12-6.316-6.315-16.698-6.315-23.013 0-3.318 3.318-4.923 7.707-4.816 12.095"/>
        <path stroke="#FFF" stroke-linecap="round" stroke-width="2" d="M7.696 25.96l3.747 4.388 4.495-3.746"/>
    </g>
</svg>
