<svg xmlns="http://www.w3.org/2000/svg" width="56" height="56" viewBox="0 0 56 56">
    <g fill="none" fill-rule="evenodd">
        <path fill="#FFBFC3" d="M56 28c0 15.464-12.537 28-28 28C12.536 56 0 43.464 0 28S12.536 0 28 0c15.463 0 28 12.536 28 28"/>
        <g stroke="#FFF" stroke-linejoin="round">
            <path stroke-width="2" d="M28.405 45.163c9.33 0 17.002-7.568 17.002-16.898S37.84 11.367 28.405 11.367c-9.433 0-17.001 7.568-17.001 16.898s7.568 16.898 17.001 16.898z"/>
            <path d="M36.388 19.49c-1.659-5.08-4.665-8.397-8.086-8.397-3.421 0-6.428 3.317-8.086 8.397M20.423 37.01c1.659 4.769 4.561 7.983 7.879 7.983 3.317 0 6.22-3.214 7.879-7.983M28.405 37.01v7.983M28.405 11.093v8.397M13.995 19.49h28.51M14.514 37.01h27.99"/>
        </g>
        <g stroke="#FFF">
            <path d="M23.143 28.286h10.55M30.286 32.571l2.857-4.285L30.286 24"/>
        </g>
    </g>
</svg>
