<?xml version="1.0" encoding="utf-8"?>
<!-- Generator: Adobe Illustrator 21.1.0, SVG Export Plug-In . SVG Version: 6.00 Build 0)  -->
<svg version="1.1" id="Слой_422" xmlns="http://www.w3.org/2000/svg" xmlns:xlink="http://www.w3.org/1999/xlink" x="0px"
	 y="0px" viewBox="0 0 52 52" style="enable-background:new 0 0 52 52;" xml:space="preserve">
<style type="text/css">
	.st0{fill:none;stroke:#000000;stroke-width:2;stroke-linecap:round;stroke-linejoin:round;stroke-miterlimit:10;}
	.st1{fill:none;stroke:#000000;stroke-width:2;stroke-linecap:round;stroke-linejoin:round;}
</style>
<title>Facebook</title>
<path class="st0" d="M19.3,14.2c1-0.8,3.2-0.4,5-0.5V7.1c-2.2,0.1-4.5-0.1-6.5,0c-1.8,0.1-3.5,0.6-5,1.5c-1.8,1.3-3.1,3.4-3.1,6.6
	c0,1,0,2.2,0,3.3H4.3v6.7h5.2v19.7c2.9,0,5.8,0,8.7,0V25.3h6v-6.7c-2,0-4.1,0-6.1,0C18,16.7,18.2,15,19.3,14.2z"/>
</svg>
