<?xml version="1.0" encoding="UTF-8"?>
<svg width="56px" height="56px" viewBox="0 0 56 56" version="1.1" xmlns="http://www.w3.org/2000/svg" xmlns:xlink="http://www.w3.org/1999/xlink">
    <!-- Generator: Sketch 55.2 (78181) - https://sketchapp.com -->
    <title>home_internet</title>
    <desc>Created with Sketch.</desc>
    <g id="home_internet" stroke="none" stroke-width="1" fill="none" fill-rule="evenodd">
        <g id="66_Домашний-телефон-Общая-Copy">
            <rect id="Rectangle" x="0" y="0" width="56" height="56"></rect>
            <path d="M15.0834947,7.46666667 C15.1768281,7.46666667 15.3074947,7.48533333 15.4194947,7.59733333 L23.9874947,16.464 C24.0994947,16.576 24.1181614,16.7066667 24.1181614,16.8 C24.1181614,16.8746667 24.0994947,17.024 23.9501614,17.1546667 L20.1608281,20.832 L19.2648281,21.7093333 L19.7314947,22.8666667 C19.8061614,23.072 21.8034947,27.9626667 24.6594947,30.912 C27.5154947,33.8613333 32.3314947,36.008 32.5368281,36.1013333 L33.6941614,36.6053333 L34.5901614,35.728 L38.3794947,32.0506667 C38.5101614,31.92 38.6408281,31.9013333 38.7341614,31.9013333 C38.8274947,31.9013333 38.9581614,31.92 39.0701614,32.032 L47.6381614,40.8986667 C47.7501614,41.0106667 47.7688281,41.1413333 47.7688281,41.2346667 C47.7688281,41.3093333 47.7501614,41.4586667 47.6008281,41.5893333 L41.9074947,47.096 C41.8141614,47.1893333 41.6834947,47.2453333 41.4968281,47.2453333 C41.4968281,47.2453333 41.4781614,47.2453333 41.4781614,47.2453333 C30.8381614,45.5466667 20.5528281,35.056 20.4594947,34.944 C20.3474947,34.832 10.1368281,24.1546667 8.88616141,13.5893333 C8.86749475,13.496 8.86749475,13.272 9.03549475,13.1226667 L14.7288281,7.616 C14.8408281,7.48533333 14.9714947,7.46666667 15.0834947,7.46666667 L15.0834947,7.46666667 Z M15.0834947,5.6 C14.4861614,5.6 13.8888281,5.824 13.4221614,6.272 L7.72882808,11.7786667 C7.16882808,12.32 6.92616141,13.0666667 7.01949475,13.832 C8.36349475,25.1626667 19.0968281,36.2693333 19.0968281,36.2693333 C19.0968281,36.2693333 29.7554947,47.2826667 41.1608281,49.112 C41.2728281,49.1306667 41.4034947,49.1306667 41.5154947,49.1306667 C42.1314947,49.1306667 42.7288281,48.888 43.1768281,48.44 L48.8701614,42.9333333 C49.8034947,42.0186667 49.8408281,40.5253333 48.9448281,39.6106667 L40.3768281,30.744 C39.9288281,30.2773333 39.3128281,30.0346667 38.6968281,30.0346667 C38.0994947,30.0346667 37.5021614,30.2586667 37.0354947,30.7066667 L33.2461614,34.384 C33.2461614,34.384 28.5794947,32.312 25.9661614,29.6053333 C23.3528281,26.8986667 21.4301614,22.1573333 21.4301614,22.1573333 L25.2194947,18.48 C26.1528281,17.5653333 26.1901614,16.072 25.2941614,15.1573333 L16.7448281,6.30933333 C16.2968281,5.84266667 15.6808281,5.6 15.0834947,5.6 L15.0834947,5.6 Z" id="Shape" fill="#000000" fill-rule="nonzero"></path>
        </g>
    </g>
</svg>