<?xml version="1.0" encoding="utf-8"?>
<!-- Generator: Adobe Illustrator 21.1.0, SVG Export Plug-In . SVG Version: 6.00 Build 0)  -->
<svg version="1.1" id="Слой_211" xmlns="http://www.w3.org/2000/svg" xmlns:xlink="http://www.w3.org/1999/xlink" x="0px"
	 y="0px" viewBox="0 0 52 52" style="enable-background:new 0 0 52 52;" xml:space="preserve">
<style type="text/css">
	.st0{fill:none;stroke:#000000;stroke-width:2;stroke-linecap:round;stroke-linejoin:round;}
</style>
<title>Besprovodnoye oborudovaniye</title>
<path class="st0" d="M5.1,26.9h41.7c1.9,0,3.5,1.6,3.5,3.5v8.7c0,1.9-1.6,3.5-3.5,3.5H5.1c-1.9,0-3.5-1.6-3.5-3.5v-8.7
	C1.7,28.5,3.2,26.9,5.1,26.9z"/>
<circle class="st0" cx="11.2" cy="34.7" r="3.5"/>
<line class="st0" x1="19.1" y1="33.7" x2="19.1" y2="35.9"/>
<line class="st0" x1="22.5" y1="33.7" x2="22.5" y2="35.9"/>
<line class="st0" x1="26" y1="33.7" x2="26" y2="35.9"/>
<line class="st0" x1="29.5" y1="33.7" x2="29.5" y2="35.9"/>
<line class="st0" x1="33" y1="33.7" x2="33" y2="35.9"/>
<rect x="39" y="18.2" class="st0" width="3.5" height="8.7"/>
<line class="st0" x1="40.8" y1="18.2" x2="40.8" y2="3.4"/>
<path class="st0" d="M29.6,19.1c0-3.3,2.7-6,6-6c0,0,0,0,0,0"/>
<path class="st0" d="M24.7,19.1c0-6,4.9-10.8,10.8-10.8c0,0,0,0,0,0"/>
<path class="st0" d="M19.9,19.1c0-8.6,7-15.6,15.6-15.6c0,0,0,0,0,0"/>
</svg>
