<?xml version="1.0" encoding="utf-8"?>
<!-- Generator: Adobe Illustrator 21.1.0, SVG Export Plug-In . SVG Version: 6.00 Build 0)  -->
<svg version="1.1" id="М_интернет_ГБ" xmlns="http://www.w3.org/2000/svg" xmlns:xlink="http://www.w3.org/1999/xlink"
	 x="0px" y="0px" viewBox="0 0 52 52" style="enable-background:new 0 0 52 52;" xml:space="preserve">
<style type="text/css">
	.st0{fill:none;stroke:#000000;stroke-width:2;stroke-miterlimit:10;}
</style>
<title>icons with counter_Мобильная связь_Гб</title>
<g>
	<circle class="st0" cx="18.2" cy="25.7" r="10"/>
	<ellipse class="st0" cx="18.2" cy="25.7" rx="5.5" ry="10"/>
	<line class="st0" x1="18.2" y1="15.7" x2="18.2" y2="35.8"/>
	<line class="st0" x1="8.2" y1="25.9" x2="28.3" y2="25.9"/>
	<line class="st0" x1="9.7" y1="20.7" x2="26.6" y2="20.7"/>
	<line class="st0" x1="10" y1="31" x2="26.6" y2="31.1"/>
</g>
<circle class="st0" cx="18.2" cy="25.7" r="14.6"/>
<line class="st0" x1="22.9" y1="12" x2="44.3" y2="12"/>
<line class="st0" x1="21.7" y1="40" x2="44.3" y2="40"/>
<path d="M33.6,44.1c0,0.9-0.7,1.7-1.7,1.7c-0.9,0-1.7-0.7-1.7-1.7c0-0.9,0.7-1.7,1.7-1.7C32.9,42.5,33.6,43.2,33.6,44.1
	C33.6,44.1,33.6,44.1,33.6,44.1"/>
<path class="st0" d="M40.2,3.7H23.7c-2.3,0-4.2,1.9-4.2,4.2v3.3c8,0.8,13.9,7.9,13.1,15.9c-0.7,6.9-6.2,12.4-13.1,13.1v3.9
	c0,2.3,1.9,4.2,4.2,4.2h16.5c2.3,0,4.2-1.9,4.2-4.2V7.9C44.4,5.6,42.5,3.7,40.2,3.7z"/>
</svg>
