<?xml version="1.0" encoding="utf-8"?>
<!-- Generator: Adobe Illustrator 21.1.0, SVG Export Plug-In . SVG Version: 6.00 Build 0)  -->
<svg version="1.1" id="Слой_201" xmlns="http://www.w3.org/2000/svg" xmlns:xlink="http://www.w3.org/1999/xlink" x="0px"
	 y="0px" viewBox="0 0 52 52" style="enable-background:new 0 0 52 52;" xml:space="preserve">
<style type="text/css">
	.st0{fill:none;stroke:#000000;stroke-width:2;stroke-miterlimit:10;}
</style>
<title>Mobilnyy telefon (smartfon)_oplata mobilnoy svyazi</title>
<path class="st0" d="M16.9,1.5h18.1c2.5,0,4.5,2,4.5,4.5V46c0,2.5-2,4.5-4.5,4.5H16.9c-2.5,0-4.5-2-4.5-4.5V6
	C12.4,3.5,14.4,1.5,16.9,1.5z"/>
<line class="st0" x1="12.4" y1="10.6" x2="39.6" y2="10.6"/>
<line class="st0" x1="12.4" y1="41.4" x2="39.6" y2="41.4"/>
<path d="M27.8,46c0,1-0.9,1.8-1.9,1.8c-1,0-1.8-0.9-1.8-1.9c0-1,0.8-1.8,1.8-1.8C27,44.1,27.8,44.9,27.8,46C27.8,46,27.8,46,27.8,46
	"/>
</svg>
