<?xml version="1.0" encoding="utf-8"?>
<!-- Generator: Adobe Illustrator 21.1.0, SVG Export Plug-In . SVG Version: 6.00 Build 0)  -->
<svg version="1.1" id="Интернет_120_Мб" xmlns="http://www.w3.org/2000/svg" xmlns:xlink="http://www.w3.org/1999/xlink"
	 x="0px" y="0px" viewBox="0 0 52 52" style="enable-background:new 0 0 52 52;" xml:space="preserve">
<style type="text/css">
	.st0{fill:none;stroke:#000000;stroke-width:2;stroke-linecap:round;stroke-linejoin:round;}
	.st1{fill:none;stroke:#000000;stroke-width:2;stroke-linejoin:round;stroke-dasharray:2.9109,2.9109;}
	.st2{fill:none;stroke:#000000;stroke-width:2;stroke-miterlimit:10;}
	.st3{fill:none;stroke:#000000;stroke-width:2;stroke-linecap:round;stroke-miterlimit:10;}
</style>
<title>icons with counter_Интернет_120Мбит</title>
<g>
	<path class="st0" d="M7.3,17.8c0.2-0.6,0.5-1.2,0.8-1.8"/>
	<path class="st1" d="M10.2,12.8c5-5.7,12.8-8.2,20.2-6.5c2.1,0.4,4,1.2,5.8,2.2"/>
	<path class="st0" d="M37.8,9.6c0.5,0.4,1,0.8,1.5,1.3"/>
	<path class="st0" d="M38.5,10.2c4.9,3.8,7.7,9.5,7.7,15.7c0.2,11.1-8.6,20.2-19.7,20.4c-0.1,0-0.2,0-0.3,0
		c-11.3,0-20.4-7.9-20.4-20.3c0-3.3,0.7-6.6,2.2-9.6"/>
	<ellipse class="st2" cx="25.6" cy="26.5" rx="13.1" ry="13.1"/>
	<ellipse class="st2" cx="25.6" cy="26.5" rx="7.2" ry="13.1"/>
	<line class="st2" x1="25.6" y1="13.4" x2="25.6" y2="39.5"/>
	<line class="st2" x1="12.5" y1="26.6" x2="38.7" y2="26.6"/>
	<line class="st2" x1="14.5" y1="19.9" x2="36.5" y2="19.9"/>
	<line class="st2" x1="14.9" y1="33.4" x2="36.5" y2="33.4"/>
</g>
<polyline class="st3" points="2.9,16.7 8.7,14.9 10.4,20.7 "/>
</svg>
