<?xml version="1.0" encoding="utf-8"?>
<!-- Generator: Adobe Illustrator 21.1.0, SVG Export Plug-In . SVG Version: 6.00 Build 0)  -->
<svg version="1.1" id="Слой_122" xmlns="http://www.w3.org/2000/svg" xmlns:xlink="http://www.w3.org/1999/xlink" x="0px"
	 y="0px" viewBox="0 0 52 52" style="enable-background:new 0 0 52 52;" xml:space="preserve">
<style type="text/css">
	.st0{fill:none;stroke:#000000;stroke-width:2;stroke-linecap:round;stroke-linejoin:round;}
</style>
<title>Reyting 2 zvezdy</title>
<path class="st0" d="M33.4,24.1l-2.2,1.8l-4.8,4.1l0.8,3.4l0,0l0.7,2.8l0.7,2.8c0.4,1.9-0.5,2.6-2.2,1.6l-2.4-1.5l-2.4-1.5l0,0
	l-3-1.8l-3,1.8l0,0l-2.4,1.5l-2.4,1.5C9,41.6,8,40.9,8.5,39l0.7-2.8l0.7-2.8l0,0l0.8-3.4l-4.8-4.1l-2.1-1.8
	c-1.5-1.3-1.1-2.4,0.8-2.6l2.8-0.2l6.3-0.5l2.5-5.9l1.1-2.6c0.7-1.8,2-1.8,2.7,0l1.1,2.6l2.4,5.9l6.3,0.5l2.8,0.2
	C34.5,21.7,34.8,22.8,33.4,24.1z"/>
<path class="st0" d="M26,21l2.6-0.2l2.4-5.9l1.1-2.6c0.7-1.8,2-1.8,2.7,0l1.1,2.6l2.5,5.9l6.3,0.5l2.8,0.2c1.9,0.2,2.3,1.3,0.8,2.6
	l-2.2,1.8l-4.8,4.1l0.8,3.4l0,0l0.7,2.8l0.7,2.8c0.4,1.9-0.5,2.6-2.2,1.6L39,39.1l-2.4-1.5l0,0l-3-1.8l-3,1.8l0,0l-2,1.3"/>
</svg>
