<?xml version="1.0" encoding="utf-8"?>
<!-- Generator: Adobe Illustrator 21.1.0, SVG Export Plug-In . SVG Version: 6.00 Build 0)  -->
<svg version="1.1" id="Слой_236" xmlns="http://www.w3.org/2000/svg" xmlns:xlink="http://www.w3.org/1999/xlink" x="0px"
	 y="0px" viewBox="0 0 52 52" style="enable-background:new 0 0 52 52;" xml:space="preserve">
<style type="text/css">
	.st0{fill:none;stroke:#000000;stroke-width:2;stroke-miterlimit:10;}
	.st1{fill:none;stroke:#000000;stroke-width:2;stroke-linecap:round;stroke-linejoin:round;}
</style>
<title>+100 minut po miru</title>
<path class="st0" d="M51,26c0,13.8-11.2,25-25,25S1,39.8,1,26S12.2,1,26,1S51,12.2,51,26z"/>
<path class="st0" d="M37.7,39.2C35.2,46.3,30.9,51,26,51s-9.2-4.7-11.6-11.8"/>
<path class="st0" d="M14.1,13.4C16.5,6,20.9,1,26,1s9.5,5,11.9,12.4"/>
<line class="st0" x1="26" y1="39.2" x2="26" y2="51"/>
<line class="st0" x1="26" y1="1" x2="26" y2="13.4"/>
<line class="st1" x1="4.9" y1="13.4" x2="46.8" y2="13.4"/>
<line class="st1" x1="5.6" y1="39.2" x2="46.8" y2="39.2"/>
</svg>
