<?xml version="1.0" encoding="utf-8"?>
<!-- Generator: Adobe Illustrator 21.1.0, SVG Export Plug-In . SVG Version: 6.00 Build 0)  -->
<svg version="1.1" id="М_связь_минуты" xmlns="http://www.w3.org/2000/svg" xmlns:xlink="http://www.w3.org/1999/xlink"
	 x="0px" y="0px" viewBox="0 0 52 52" style="enable-background:new 0 0 52 52;" xml:space="preserve">
<style type="text/css">
	.st0{fill:none;stroke:#000000;stroke-width:2;stroke-miterlimit:10;}
</style>
<title>icons with counter_Мобильная связь_количество минут</title>
<path class="st0" d="M26.2,30.6l-2.9-3.2c-0.2-0.2-0.6-0.2-0.8,0c0,0,0,0,0,0l-0.7,0.7l-0.6,0.6c-0.1,0.1-0.1,0.1-0.2,0.2
	c-0.7,0.7-0.8,0.7-0.8,0.7c-0.6,0.3-1.3,0.1-1.9-0.3c-0.6-0.6-1.2-1.2-1.8-1.8c-0.6-0.6-1.1-1.3-1.7-1.9c-0.4-0.5-0.5-1-0.4-1.6
	c0.1-0.3,0.2-0.5,0.3-0.8c0.1-0.2,0.3-0.4,0.4-0.6c0.1-0.1,0.1-0.2,0.2-0.3l1.3-1.4c0.2-0.3,0.2-0.6,0-0.9L13.7,17
	c-0.2-0.2-0.6-0.2-0.8,0c0,0,0,0,0,0c-1,0.8-1.8,1.8-2.5,2.8c-0.4,1-0.5,2.1-0.2,3.1c0.1,0.7,0.3,1.4,0.6,2.1
	c0.4,0.9,0.9,1.8,1.5,2.6c0.6,0.8,1.2,1.6,1.9,2.3c0.7,0.7,1.4,1.4,2.2,2c0.7,0.6,1.5,1.2,2.4,1.7c0.8,0.4,1.6,0.7,2.4,0.8
	c0.7,0.1,1.4,0.1,2.1-0.1c0.5-0.3,0.9-0.6,1.3-1l1.2-1.2l0.5-0.5C26.4,31.3,26.5,30.9,26.2,30.6z"/>
<circle class="st0" cx="18.2" cy="25.7" r="14.6"/>
<line class="st0" x1="22.9" y1="12" x2="44.3" y2="12"/>
<line class="st0" x1="21.7" y1="40" x2="44.3" y2="40"/>
<path d="M33.6,44.1c0,0.9-0.7,1.7-1.7,1.7c-0.9,0-1.7-0.7-1.7-1.7c0-0.9,0.7-1.7,1.7-1.7C32.9,42.5,33.6,43.2,33.6,44.1
	C33.6,44.1,33.6,44.1,33.6,44.1"/>
<path class="st0" d="M40.2,3.7H23.7c-2.3,0-4.2,1.9-4.2,4.2v3.3c8,0.8,13.9,7.9,13.1,15.9c-0.7,6.9-6.2,12.4-13.1,13.1v3.9
	c0,2.3,1.9,4.2,4.2,4.2h16.5c2.3,0,4.2-1.9,4.2-4.2V7.9C44.4,5.6,42.5,3.7,40.2,3.7z"/>
</svg>
