<?xml version="1.0" encoding="utf-8"?>
<!-- Generator: Adobe Illustrator 21.1.0, SVG Export Plug-In . SVG Version: 6.00 Build 0)  -->
<svg version="1.1" id="Слой_123" xmlns="http://www.w3.org/2000/svg" xmlns:xlink="http://www.w3.org/1999/xlink" x="0px"
	 y="0px" viewBox="0 0 52 52" style="enable-background:new 0 0 52 52;" xml:space="preserve">
<style type="text/css">
	.st0{fill:none;stroke:#000000;stroke-width:2;stroke-linecap:round;stroke-linejoin:round;}
</style>
<title>Luchshiy_Populyarnyy</title>
<path class="st0" d="M47.4,23.2l-3.1,2.7l-7,5.9l1.2,4.9l0,0l1,4l1,4c0.6,2.7-0.8,3.7-3.1,2.3l-3.5-2.2l-3.5-2.1l0,0L26,40.1
	l-4.3,2.6l0,0l-3.5,2.1l-3.5,2.2c-2.4,1.4-3.8,0.4-3.1-2.3l1-4l1-4l0,0l1.1-4.9l-6.9-5.9l-3.1-2.7c-2.1-1.8-1.6-3.5,1.2-3.7l4.1-0.3
	l9.1-0.7l3.5-8.4l1.6-3.8c1.1-2.6,2.8-2.6,3.9,0l1.6,3.8l3.5,8.4l9.1,0.7l4.1,0.3C49,19.8,49.5,21.4,47.4,23.2z"/>
</svg>
