<?xml version="1.0" encoding="utf-8"?>
<!-- Generator: Adobe Illustrator 21.1.0, SVG Export Plug-In . SVG Version: 6.00 Build 0)  -->
<svg version="1.1" id="Интернет_5_Мб" xmlns="http://www.w3.org/2000/svg" xmlns:xlink="http://www.w3.org/1999/xlink"
	 x="0px" y="0px" viewBox="0 0 52 52" style="enable-background:new 0 0 52 52;" xml:space="preserve">
<style type="text/css">
	.st0{fill:none;stroke:#000000;stroke-width:2;stroke-linejoin:round;stroke-dasharray:2.9739,2.9739;}
	.st1{fill:none;stroke:#000000;stroke-width:2;stroke-linecap:round;stroke-linejoin:round;}
	.st2{fill:none;stroke:#000000;stroke-width:2;stroke-miterlimit:10;}
	.st3{fill:none;stroke:#000000;stroke-width:2;stroke-linecap:round;stroke-miterlimit:10;}
</style>
<title>icons with counter_Интернет_5Мбит</title>
<g>
	<path class="st0" d="M46.2,24.9c0.6,10.9-7.7,20.3-18.7,20.9c0,0-0.1,0-0.1,0c-10.9,1-20.6-7.1-21.5-18S13,7.2,23.9,6.2
		c0.4,0,0.8-0.1,1.2-0.1c4-0.2,7.9,0.7,11.3,2.7c2.9,1.7,5.4,4.2,7.1,7.1C45,18.7,46,21.8,46.2,24.9z"/>
	<path class="st1" d="M37.4,9.5c6.1,4,9.4,11.1,8.6,18.4"/>
	<ellipse class="st2" cx="25.9" cy="26" rx="12.8" ry="12.7"/>
	<ellipse class="st2" cx="25.9" cy="26" rx="7" ry="12.7"/>
	<line class="st2" x1="25.9" y1="13.2" x2="25.9" y2="38.7"/>
	<line class="st2" x1="13.2" y1="26.2" x2="38.7" y2="26.2"/>
	<line class="st2" x1="15.1" y1="19.6" x2="36.6" y2="19.6"/>
	<line class="st2" x1="15.5" y1="32.7" x2="36.6" y2="32.7"/>
</g>
<polyline class="st3" points="50.1,23.5 46,27.9 41.6,23.7 "/>
</svg>
