<?xml version="1.0" encoding="utf-8"?>
<!-- Generator: Adobe Illustrator 21.1.0, SVG Export Plug-In . SVG Version: 6.00 Build 0)  -->
<svg version="1.1" id="Слой_346" xmlns="http://www.w3.org/2000/svg" xmlns:xlink="http://www.w3.org/1999/xlink" x="0px"
	 y="0px" viewBox="0 0 52 52" style="enable-background:new 0 0 52 52;" xml:space="preserve">
<style type="text/css">
	.st0{fill:none;stroke:#000000;stroke-width:2;stroke-linecap:round;stroke-linejoin:round;}
</style>
<title>Detskiy</title>
<path class="st0" d="M4.2,13.3h43.5c0.5,0,0.9,0.4,0.9,0.9v34.5c0,0.5-0.4,0.9-0.9,0.9H4.2c-0.5,0-0.9-0.4-0.9-0.9V14.2
	C3.3,13.7,3.7,13.3,4.2,13.3z"/>
<path class="st0" d="M17.8,17.8v-7.7c0-4.5,3.7-7.7,8.2-7.7s8.2,3.2,8.2,7.7v7.7"/>
<circle cx="17.8" cy="17.8" r="1.4"/>
<circle cx="34.2" cy="17.8" r="1.4"/>
<g>
	<line class="st0" x1="34.6" y1="28.2" x2="34.6" y2="38.2"/>
	<line class="st0" x1="39.6" y1="33.2" x2="29.6" y2="33.2"/>
	<path class="st0" d="M19.7,42.4L19.7,42.4c-2.9,0-5.3-2.4-5.3-5.3v-8c0-2.9,2.4-5.3,5.3-5.3h0c2.9,0,5.3,2.4,5.3,5.3v8
		C25,40.1,22.6,42.4,19.7,42.4z"/>
</g>
</svg>
