<?xml version="1.0" encoding="utf-8"?>
<!-- Generator: Adobe Illustrator 21.1.0, SVG Export Plug-In . SVG Version: 6.00 Build 0)  -->
<svg version="1.1" id="Интернет_30_Мб" xmlns="http://www.w3.org/2000/svg" xmlns:xlink="http://www.w3.org/1999/xlink"
	 x="0px" y="0px" viewBox="0 0 52 52" style="enable-background:new 0 0 52 52;" xml:space="preserve">
<style type="text/css">
	.st0{fill:none;stroke:#000000;stroke-width:2;stroke-linecap:round;stroke-linejoin:round;}
	.st1{fill:none;stroke:#000000;stroke-width:2;stroke-linejoin:round;stroke-dasharray:3.0729,3.0729;}
	.st2{fill:none;stroke:#000000;stroke-width:2;stroke-miterlimit:10;}
	.st3{fill:none;stroke:#000000;stroke-width:2;stroke-linecap:round;stroke-miterlimit:10;}
</style>
<title>icons with counter_Интернет_30Мбит</title>
<g>
	<path class="st0" d="M44.7,33.6c-0.2,0.6-0.5,1.2-0.8,1.8"/>
	<path class="st1" d="M41.7,38.6c-7,8.7-19.7,10.1-28.4,3.1S3.3,22,10.3,13.4C16.8,5.3,28.3,3.4,37,9.1"/>
	<path class="st0" d="M38.6,10.3c0.5,0.4,1,0.8,1.4,1.3"/>
	<path class="st0" d="M37.5,9.4c8.7,6,11.3,17.7,5.9,26.8"/>
	<ellipse class="st2" cx="25.6" cy="26" rx="13" ry="12.9"/>
	<ellipse class="st2" cx="25.6" cy="26" rx="7.1" ry="12.9"/>
	<line class="st2" x1="25.6" y1="13.1" x2="25.6" y2="39"/>
	<line class="st2" x1="12.6" y1="26.2" x2="38.6" y2="26.2"/>
	<line class="st2" x1="14.6" y1="19.5" x2="36.4" y2="19.5"/>
	<line class="st2" x1="15" y1="32.9" x2="36.4" y2="32.9"/>
</g>
<polyline class="st3" points="48.9,35.3 43.1,36.9 41.5,31.1 "/>
</svg>
