<?xml version="1.0" encoding="utf-8"?>
<!-- Generator: Adobe Illustrator 21.1.0, SVG Export Plug-In . SVG Version: 6.00 Build 0)  -->
<svg version="1.1" id="М_связь_SMS" xmlns="http://www.w3.org/2000/svg" xmlns:xlink="http://www.w3.org/1999/xlink" x="0px"
	 y="0px" viewBox="0 0 52 52" style="enable-background:new 0 0 52 52;" xml:space="preserve">
<style type="text/css">
	.st0{fill:none;stroke:#000000;stroke-width:2;stroke-linejoin:round;stroke-miterlimit:10;}
	.st1{fill:none;stroke:#000000;stroke-width:2;stroke-miterlimit:10;}
</style>
<title>icons with counter_Мобильная связь_SMS</title>
<path class="st0" d="M24.2,19.7H11.6c-1.4,0-2.5,1.1-2.5,2.5c0,0,0,0,0,0v5.6c0,1.4,1.1,2.5,2.5,2.5l0,0h4.2l5.3,4.9l0.2-4.9h2.9
	c1.4,0,2.5-1.1,2.5-2.5v-5.6C26.7,20.8,25.6,19.7,24.2,19.7C24.2,19.7,24.2,19.7,24.2,19.7z"/>
<circle class="st1" cx="18.2" cy="25.7" r="14.6"/>
<line class="st1" x1="22.9" y1="12" x2="44.3" y2="12"/>
<line class="st1" x1="21.7" y1="40" x2="44.3" y2="40"/>
<path d="M33.6,44.1c0,0.9-0.7,1.7-1.7,1.7c-0.9,0-1.7-0.7-1.7-1.7c0-0.9,0.7-1.7,1.7-1.7C32.9,42.5,33.6,43.2,33.6,44.1
	C33.6,44.1,33.6,44.1,33.6,44.1"/>
<path class="st1" d="M40.2,3.7H23.7c-2.3,0-4.2,1.9-4.2,4.2v3.3c8,0.8,13.9,7.9,13.1,15.9c-0.7,6.9-6.2,12.4-13.1,13.1v3.9
	c0,2.3,1.9,4.2,4.2,4.2h16.5c2.3,0,4.2-1.9,4.2-4.2V7.9C44.4,5.6,42.5,3.7,40.2,3.7z"/>
</svg>
