<?xml version="1.0" encoding="utf-8"?>
<!-- Generator: Adobe Illustrator 21.1.0, SVG Export Plug-In . SVG Version: 6.00 Build 0)  -->
<svg version="1.1" id="Слой_334" xmlns="http://www.w3.org/2000/svg" xmlns:xlink="http://www.w3.org/1999/xlink" x="0px"
	 y="0px" viewBox="0 0 52 52" style="enable-background:new 0 0 52 52;" xml:space="preserve">
<style type="text/css">
	.st0{fill:none;stroke:#000000;stroke-width:2;stroke-miterlimit:10;}
</style>
<title>Multirum</title>
<path class="st0" d="M8.3,17.9c0-3,2.5-5.5,5.5-5.5h24.4c0.3,0,0.6,0,0.9,0.1v-1.2c0-3-2.5-5.5-5.5-5.5H9.2c-3,0-5.5,2.5-5.5,5.5
	v16.1c0,2.7,2,5,4.6,5.4V17.9z"/>
<path class="st0" d="M42.9,46H18.6c-3,0-5.5-2.5-5.5-5.5V24.4c0-3,2.5-5.5,5.5-5.5H43c3,0,5.5,2.5,5.5,5.5v16.1
	C48.4,43.5,46,46,42.9,46z"/>
<path class="st0" d="M13.1,24.4c0-3,2.5-5.5,5.5-5.5H43c0.2,0,0.5,0,0.7,0.1v-1.1c0-3-2.5-5.5-5.5-5.5H13.8c-3,0-5.5,2.5-5.5,5.5V34
	c0,2.8,2.1,5.1,4.8,5.4V24.4z"/>
</svg>
