<?xml version="1.0" encoding="UTF-8"?>
<svg width="75px" height="75px" viewBox="0 0 75 75" version="1.1" xmlns="http://www.w3.org/2000/svg" xmlns:xlink="http://www.w3.org/1999/xlink">
    <!-- Generator: Sketch 49 (51002) - http://www.bohemiancoding.com/sketch -->
    <title>Fill 144</title>
    <style type="text/css">
        .st0{fill:none;stroke:#000000;stroke-width:2;stroke-miterlimit:10;}
        .st1{fill:none;stroke:#000000;stroke-width:2;stroke-linecap:round;stroke-miterlimit:10;}
    </style>
    <g id="Page-4" class="st1" stroke-width="1" fill="none" fill-rule="evenodd">
        <g id="promo/mvno" transform="translate(-192.000000, -1869.000000)">
            <g transform="translate(192.000000, 1869.000000)">
                <path d="M37.5,75 C16.7890909,75 0,58.2109091 0,37.5 C0,16.7890909 16.7890909,0 37.5,0 C58.2095455,0 75,16.7890909 75,37.5 C75,58.2109091 58.2095455,75 37.5,75 Z" fill-rule="evenodd" class="st1"></path>
                <path d="M32.7272727,30 L22.8,45" id="Shape" class="st1" stroke-linecap="round" stroke-linejoin="round"></path>
                <path d="M22.8,30 L32.7272727,45" id="Shape" class="st1" stroke-linecap="round" stroke-linejoin="round"></path>
                <path d="M46.9636364,30 L37.1454545,45" id="Shape" class="st1" stroke-linecap="round" stroke-linejoin="round"></path>
                <path d="M37.1454545,30 L46.9636364,45" id="Shape" class="st1" stroke-linecap="round" stroke-linejoin="round"></path>
                <path d="M62.4,30 L52.4727273,45" id="Shape" class="st1" stroke-linecap="round" stroke-linejoin="round"></path>
                <path d="M52.4727273,30 L62.4,45" id="Shape" class="st1" stroke-linecap="round" stroke-linejoin="round"></path>
                <ellipse id="Oval" class="st1" stroke-linecap="round" stroke-linejoin="round" cx="14.4242424" cy="33.1789773" rx="3.39393939" ry="3.54545455"></ellipse>
                <ellipse id="Oval" class="st1" stroke-linecap="round" stroke-linejoin="round" cx="14.4242424" cy="41.2670455" rx="4.34848485" ry="4.54261364"></ellipse>
            </g>
        </g>
    </g>
</svg>
