<?xml version="1.0" encoding="utf-8"?>
<!-- Generator: Adobe Illustrator 21.1.0, SVG Export Plug-In . SVG Version: 6.00 Build 0)  -->
<svg version="1.1" id="Слой_363" xmlns="http://www.w3.org/2000/svg" xmlns:xlink="http://www.w3.org/1999/xlink" x="0px"
	 y="0px" viewBox="0 0 52 52" style="enable-background:new 0 0 52 52;" xml:space="preserve">
<style type="text/css">
	.st0{fill:none;stroke:#000000;stroke-width:2;stroke-linecap:round;stroke-linejoin:round;stroke-miterlimit:10;}
	.st1{fill:none;stroke:#000000;stroke-width:2;stroke-linecap:round;stroke-linejoin:round;}
</style>
<title>Domashnyaya set</title>
<path class="st0" d="M35.1,9.9l-8.8-8c-0.2-0.1-0.4-0.1-0.6,0l-8.8,8"/>
<path class="st0" d="M19.3,8.3V16c0,1.2,0.9,2.2,2.1,2.2h9.4c1.1,0,2.1-1,2.1-2.2c0,0,0,0,0,0V8.4"/>
<path class="st0" d="M20.7,35.9l-8.8-8c-0.2-0.2-0.4-0.2-0.6,0l-8.9,8"/>
<path class="st0" d="M4.8,33.9v8c0,1.3,0.9,2.3,2.1,2.3c0,0,0,0,0,0h9.4c1.1,0,2.1-1,2.1-2.3c0,0,0,0,0,0V34"/>
<path class="st0" d="M49.5,35.9L49.5,35.9l-8.8-8c-0.2-0.2-0.4-0.2-0.6,0l-8.8,8"/>
<path class="st0" d="M33.7,33.9v8c0,1.3,0.9,2.3,2.1,2.3h9.4c1.1,0,2.1-1,2.1-2.3c0,0,0,0,0,0V34"/>
<line class="st1" x1="26" y1="18.2" x2="26" y2="26.3"/>
<line class="st1" x1="16.5" y1="31.8" x2="26" y2="26.3"/>
<line class="st1" x1="35.5" y1="31.8" x2="26" y2="26.3"/>
</svg>
