<?xml version="1.0" encoding="UTF-8"?>
<svg width="50px" height="46px" viewBox="0 0 50 46" version="1.1" xmlns="http://www.w3.org/2000/svg" xmlns:xlink="http://www.w3.org/1999/xlink">
    <!-- Generator: Sketch 46.1 (44463) - http://www.bohemiancoding.com/sketch -->
    <title>Page 1</title>
    <desc>Created with Sketch.</desc>
    <defs></defs>
    <g id="Options" stroke="none" stroke-width="1" fill="none" fill-rule="evenodd" stroke-linecap="round" stroke-linejoin="round">
        <g id="Typography/illustration" transform="translate(-1495.000000, -1278.000000)" stroke-width="2" stroke="#000000">
            <g id="Page-1" transform="translate(1496.000000, 1279.000000)">
                <g id="Stroke-1">
                    <polygon points="23.9951427 24.8164607 12.0495689 18.9030521 12.0495689 6.05203252 23.9951427 11.9654411"></polygon>
                    <polygon id="Stroke-2" points="23.9951427 24.8164607 35.9407164 18.9030521 35.9407164 6.05203252 23.9951427 11.9654411"></polygon>
                    <polygon id="Stroke-16" points="35.9406869 30.7298693 47.8862606 24.8164607 35.9406869 18.9030521 23.9951132 24.8164607"></polygon>
                    <polygon id="Stroke-3" points="23.9951427 11.9654707 35.9407164 6.05206209 23.9951427 0.138653494 12.0495689 6.05206209"></polygon>
                    <polygon id="Stroke-5" points="12.049628 43.5808593 0.104054237 37.6674507 0.104054237 24.8164311 12.049628 30.7298397"></polygon>
                    <polygon id="Stroke-7" points="12.049628 43.5808593 23.9952017 37.6674507 23.9952017 24.8164311 12.049628 30.7298397"></polygon>
                    <polygon id="Stroke-9" points="12.049628 30.7298693 23.9952017 24.8164607 12.049628 18.9030521 0.104054237 24.8164607"></polygon>
                    <polygon id="Stroke-11" points="35.9406869 43.5808593 23.9951132 37.6674507 23.9951132 24.8164311 35.9406869 30.7298397"></polygon>
                    <polygon id="Stroke-13" points="35.9406869 43.5808593 47.8862606 37.6674507 47.8862606 24.8164311 35.9406869 30.7298397"></polygon>
                </g>
            </g>
        </g>
    </g>
</svg>