<?xml version="1.0" encoding="utf-8"?>
<!-- Generator: Adobe Illustrator 21.1.0, SVG Export Plug-In . SVG Version: 6.00 Build 0)  -->
<svg version="1.1" id="Слой_336" xmlns="http://www.w3.org/2000/svg" xmlns:xlink="http://www.w3.org/1999/xlink" x="0px"
	 y="0px" viewBox="0 0 52 52" style="enable-background:new 0 0 52 52;" xml:space="preserve">
<title>Upravleniye prosmotrom</title>
<path d="M15.1,21.7c0-1.3-0.9-2.2-2.9-2.2H9V25h3.1c1.9,0,3-1,3-2.3L15.1,21.7L15.1,21.7z M16.6,34.9c-0.5,0-1-0.3-1.2-0.8
	c-1.1-2.2-2.3-4.4-3.6-6.5H9v5.9c0,0.8-0.6,1.4-1.4,1.4c-0.8,0-1.4-0.6-1.4-1.4V18.3c0-0.8,0.6-1.4,1.4-1.4h4.6
	c3.8,0,5.6,1.9,5.6,4.8v1c0.1,2-1.2,3.8-3.2,4.3c1.2,2,2.2,3.9,3.2,5.9c0.3,0.7,0,1.5-0.7,1.8C17,34.8,16.8,34.9,16.6,34.9
	L16.6,34.9z"/>
<path d="M29.9,34.7h-8.2c-0.7,0-1.3-0.6-1.3-1.3V18.2c0-0.7,0.6-1.3,1.3-1.3h7.9c0.7,0,1.3,0.6,1.3,1.3c0,0.7-0.6,1.3-1.3,1.3
	c0,0,0,0,0,0h-6.5v4.9H29c0.7,0,1.3,0.6,1.3,1.3c0,0.7-0.6,1.3-1.3,1.3c0,0,0,0,0,0h-5.8v5h6.8c0.7,0,1.3,0.6,1.3,1.3c0,0,0,0,0,0
	C31.3,34,30.7,34.6,29.9,34.7C30,34.7,29.9,34.7,29.9,34.7z"/>
<path d="M44.5,20.5c-0.4,0-0.6-0.3-1.2-0.6c-0.6-0.4-1.3-0.5-2-0.5c-2.5,0-3.7,1.7-3.7,5.3v2.7c0,3.8,1.2,5.2,3.6,5.2
	c0.8,0,1.6-0.2,2.3-0.6c0.3-0.3,0.7-0.4,1.2-0.5c0.6,0,1.1,0.5,1.1,1.1c0,0,0,0,0,0.1c0,0.5-0.3,1-0.8,1.3c-1.1,0.8-2.4,1.2-3.8,1.2
	c-4.6,0-6.3-3.1-6.3-7.7v-2.8c0-4.4,1.8-7.7,6.5-7.7c1.3,0,2.6,0.3,3.7,1.1c0.5,0.3,0.7,0.7,0.8,1.3C45.8,19.9,45.2,20.5,44.5,20.5
	C44.5,20.5,44.5,20.5,44.5,20.5z"/>
</svg>
