<?xml version="1.0" encoding="utf-8"?>
<!-- Generator: Adobe Illustrator 21.1.0, SVG Export Plug-In . SVG Version: 6.00 Build 0)  -->
<svg version="1.1" id="Слой_120" xmlns="http://www.w3.org/2000/svg" xmlns:xlink="http://www.w3.org/1999/xlink" x="0px"
	 y="0px" viewBox="0 0 52 52" style="enable-background:new 0 0 52 52;" xml:space="preserve">
<style type="text/css">
	.st0{fill:none;stroke:#000000;stroke-width:2;stroke-linecap:round;stroke-linejoin:round;}
</style>
<title>Reyting 4 zvezdy</title>
<path class="st0" d="M33.9,11.1l-1.1,1l-2.6,2.2l0.4,1.8l0,0l0.4,1.5l0.4,1.5c0.2,1-0.3,1.4-1.2,0.9l-1.3-0.8l-1.3-0.8l0,0l-1.6-1
	l-1.6,1l0,0L23.1,19l-1.3,0.8C21,20.4,20.5,20,20.7,19l0.4-1.5l0.4-1.5l0,0l0.4-1.8L19.3,12l-1.2-0.9c-0.8-0.7-0.6-1.3,0.4-1.4
	L20,9.6l3.3-0.3l1.3-3.1l0.6-1.4c0.4-0.9,1-0.9,1.4,0l0.6,1.4l1.3,3.1l3.3,0.3l1.5,0.1C34.4,9.8,34.6,10.4,33.9,11.1z"/>
<path class="st0" d="M33.9,38.9l-1.1,1l-2.6,2.2l0.4,1.8l0,0l0.4,1.5l0.4,1.5c0.2,1-0.3,1.4-1.2,0.9l-1.3-0.8l-1.3-0.8l0,0l-1.6-1
	l-1.6,1l0,0l-1.3,0.8l-1.3,0.8c-0.9,0.5-1.4,0.2-1.1-0.9l0.4-1.5l0.4-1.5l0,0l0.4-1.8l-2.6-2.2l-1.2-0.9c-0.8-0.7-0.6-1.3,0.4-1.4
	l1.5-0.1l3.3-0.3l1.3-3.1l0.6-1.4c0.4-0.9,1-0.9,1.4,0l0.6,1.4l1.3,3.1l3.3,0.3l1.5,0.1C34.4,37.6,34.6,38.2,33.9,38.9z"/>
<path class="st0" d="M19.6,25.4l-1.1,1l-2.6,2.2l0.4,1.8l0,0l0.4,1.5l0.4,1.5c0.2,1-0.3,1.4-1.1,0.9l-1.2-0.9l-1.3-0.8l0,0l-1.6-1
	l-1.6,1l0,0l-1.3,0.8l-1.3,0.8c-0.9,0.5-1.4,0.1-1.2-0.9l0.4-1.5l0.4-1.5l0,0l0.4-1.8L5,26.4l-1.1-1c-0.8-0.7-0.6-1.3,0.4-1.4
	l1.5-0.1l3.3-0.3l1.3-3.1l0.6-1.4c0.4-0.9,1-0.9,1.4,0l0.6,1.4l1.3,3.1l3.3,0.3l1.5,0.1C20.1,24.1,20.3,24.7,19.6,25.4z"/>
<path class="st0" d="M48.2,25.4l-1.1,1l-2.6,2.2l0.4,1.8l0,0l0.4,1.5l0.4,1.5c0.2,1-0.3,1.4-1.1,0.9l-1.3-0.8l-1.3-0.9l0,0l-1.6-1
	l-1.6,1l0,0l-1.3,0.8l-1.3,0.8c-0.9,0.5-1.4,0.1-1.2-0.9l0.4-1.5l0.4-1.5l0,0l0.4-1.8l-2.6-2.1l-1.1-1c-0.8-0.7-0.6-1.3,0.4-1.4
	l1.5-0.1l3.3-0.3l1.3-3.1l0.6-1.4c0.4-0.9,1-0.9,1.4,0l0.6,1.4l1.3,3.1l3.3,0.3l1.5,0.1C48.8,24.1,49,24.7,48.2,25.4z"/>
</svg>
