<?xml version="1.0" encoding="utf-8"?>
<!-- Generator: Adobe Illustrator 21.1.0, SVG Export Plug-In . SVG Version: 6.00 Build 0)  -->
<svg version="1.1" id="Слой_378" xmlns="http://www.w3.org/2000/svg" xmlns:xlink="http://www.w3.org/1999/xlink" x="0px"
	 y="0px" viewBox="0 0 52 52" style="enable-background:new 0 0 52 52;" xml:space="preserve">
<style type="text/css">
	.st0{fill:none;stroke:#000000;stroke-width:2;stroke-linecap:round;stroke-linejoin:round;stroke-miterlimit:10;}
</style>
<title>Fiksirovannyy IP</title>
<path class="st0" d="M26,4c-8.2,0-14.8,6.6-14.8,14.8c0,0.6,0,1.3,0.1,1.9C12.5,31.5,22.8,44.2,26.1,48c3.3-3.9,13.4-16.5,14.6-27.4
	c0.1-0.6,0.1-1.2,0.1-1.9C40.8,10.6,34.2,4,26,4z M26,27.2c-4.6,0-8.4-3.8-8.4-8.4s3.8-8.4,8.4-8.4c4.6,0,8.4,3.8,8.4,8.4
	c0,0,0,0,0,0C34.4,23.4,30.6,27.2,26,27.2z"/>
</svg>
