<?xml version="1.0" encoding="utf-8"?>
<!-- Generator: Adobe Illustrator 21.1.0, SVG Export Plug-In . SVG Version: 6.00 Build 0)  -->
<svg version="1.1" id="ТВ_HD-каналы" xmlns="http://www.w3.org/2000/svg" xmlns:xlink="http://www.w3.org/1999/xlink"
	 x="0px" y="0px" viewBox="0 0 52 52" style="enable-background:new 0 0 52 52;" xml:space="preserve">
<style type="text/css">
	.st0{enable-background:new    ;}
	.st1{fill:none;stroke:#000000;stroke-width:2;stroke-miterlimit:10;}
	.st2{fill:none;stroke:#000000;stroke-width:2;stroke-linecap:round;stroke-miterlimit:10;}
</style>
<title>icons with counter_ТВ_HD-каналы</title>
<g class="st0">
	<path d="M23.4,31.9c-0.7,0-1.1-0.5-1.1-1.1v-7H14v7c0,0.6-0.5,1.1-1.1,1.1c-0.6,0-1.1-0.5-1.1-1.1V14.3c0-0.6,0.5-1.1,1.1-1.1
		c0.6,0,1.1,0.5,1.1,1.1v7.4h8.3v-7.4c0-0.6,0.5-1.1,1.1-1.1c0.6,0,1.1,0.5,1.1,1.1v16.5C24.5,31.4,24,31.9,23.4,31.9z"/>
</g>
<g class="st0">
	<path d="M34.6,31.6h-4.9c-0.6,0-1.1-0.5-1.1-1.1v-16c0-0.6,0.5-1.1,1.1-1.1h4.9c5.6,0,6.4,4.1,6.4,6.8v4.7
		C41,27.6,40.2,31.6,34.6,31.6z M38.8,20.2c0-2.4-0.7-4.7-4.3-4.7h-3.6v14h3.6c3.6,0,4.3-2.4,4.3-4.7V20.2z"/>
</g>
<path class="st1" d="M9.1,6.8h34.2c2.9,0,5.3,2.4,5.3,5.3v21c0,2.9-2.4,5.3-5.3,5.3H9.1c-2.9,0-5.3-2.4-5.3-5.3v-21
	C3.8,9.2,6.2,6.8,9.1,6.8z"/>
<rect x="23.5" y="38.8" width="5.3" height="5.3"/>
<line class="st2" x1="13.8" y1="44.4" x2="38.6" y2="44.4"/>
</svg>
