<?xml version="1.0" encoding="utf-8"?>
<!-- Generator: Adobe Illustrator 21.1.0, SVG Export Plug-In . SVG Version: 6.00 Build 0)  -->
<svg version="1.1" id="Слой_365" xmlns="http://www.w3.org/2000/svg" xmlns:xlink="http://www.w3.org/1999/xlink" x="0px"
	 y="0px" viewBox="0 0 52 52" style="enable-background:new 0 0 52 52;" xml:space="preserve">
<style type="text/css">
	.st0{fill:none;stroke:#000000;stroke-width:2;stroke-miterlimit:10;}
	.st1{fill:none;stroke:#000000;stroke-width:2;stroke-linecap:round;stroke-linejoin:round;stroke-miterlimit:10;}
</style>
<title>Geymer</title>
<ellipse class="st0" cx="26" cy="11.2" rx="7.2" ry="9.4"/>
<path class="st0" d="M38.4,39.2c-1.3-5.8-3.1-7.3-4.2-7.9c-1.4-0.7-3-0.7-4.5,0c-0.8,0.4-1.3,1.1-2.1,1.5c-1,0.4-2.1,0.4-3,0
	c-0.7-0.5-1.5-1-2.3-1.5c-1.5-0.8-3.4-0.7-4.8,0.3c-0.4,0.3-3.6,2.9-4.5,11.1c-0.6,5.1,2.2,6.7,2.1,6.6c1.3,1,3.1,1,4.5,0
	c1-0.7,1.9-1.6,2.6-2.6c0.3-0.6,0.7-1,1.2-1.4c0.4-0.2,0.8-0.2,1.2-0.1h2.6c0.5-0.1,1,0,1.4,0.2s0.7,0.5,0.9,0.9
	c1,1.3,2.1,2.4,3.4,3.3c0.7,0.5,3.5,1,5-0.7C38.9,47.7,39.5,44.1,38.4,39.2z"/>
<path class="st1" d="M17.5,31.6c1.4-1,3.3-1.1,4.8-0.3c0.8,0.5,1.6,1,2.3,1.5c0.9,0.4,2,0.4,3,0c0.8-0.4,1.3-1.1,2.1-1.5
	c1.5-0.7,3.1-0.7,4.5,0c1.1,0.6,2.9,2.1,4.2,7.9c0.2,0.9,0.3,1.7,0.4,2.5c0.1-2,0.5-10,0.5-11.2c0-6-4-10.1-9.5-11.4
	c-1.1,0.9-2.4,1.5-3.8,1.5c-1.4,0-2.7-0.5-3.8-1.5c-5.5,1.3-9.5,5.4-9.5,11.4c0,1.1,0.4,7.8,0.5,10.5C14.4,34.1,17.1,31.9,17.5,31.6
	z"/>
<path d="M24.6,38.7c0,0.4-0.3,0.8-0.8,0.8l0,0h-2v2c0,0.4-0.3,0.8-0.8,0.8l0,0h-0.6c-0.4,0-0.8-0.4-0.8-0.8l0,0v-2h-2
	c-0.4,0-0.8-0.4-0.8-0.8v-0.6c0-0.4,0.3-0.8,0.8-0.8l0,0h2v-2c0-0.4,0.3-0.8,0.8-0.8l0,0H21c0.4,0,0.8,0.4,0.8,0.8l0,0v2h2
	c0.4,0,0.8,0.4,0.8,0.8l0,0C24.6,38.1,24.6,38.7,24.6,38.7z"/>
<ellipse cx="29.4" cy="41.1" rx="1.5" ry="1.5"/>
<ellipse cx="32.8" cy="36.7" rx="1.5" ry="1.5"/>
</svg>
