<?xml version="1.0" encoding="utf-8"?>
<!-- Generator: Adobe Illustrator 21.1.0, SVG Export Plug-In . SVG Version: 6.00 Build 0)  -->
<svg version="1.1" id="Д__телефон_безлимит"
	 xmlns="http://www.w3.org/2000/svg" xmlns:xlink="http://www.w3.org/1999/xlink" x="0px" y="0px" viewBox="0 0 52 52"
	 style="enable-background:new 0 0 52 52;" xml:space="preserve">
<style type="text/css">
	.st0{fill:none;stroke:#000000;stroke-width:2;stroke-linecap:round;stroke-linejoin:round;stroke-miterlimit:10;}
</style>
<title>icons with counter_Домашний телефон_безлимит</title>
<path class="st0" d="M25.4,34.4c1,0.8,2.2,1.2,3.5,1.1c1.4-0.2,2.6-0.9,3.6-1.8l3.2-2.5c0.6-0.5,1.5-0.4,2,0.2l6.5,7.1
	c0.4,0.6,0.4,1.4-0.2,1.8c-2,1.7-4.2,3.9-6.7,5c-2.2,0.9-4.8,0.5-7-0.2c-1.6-0.4-3.1-1.1-4.5-1.9c-2-1.1-3.8-2.4-5.5-3.9
	c-3.2-2.9-6-6.3-8.4-10c-1.2-1.9-2.1-4-2.9-6.1c-0.5-1.5-0.9-3.1-1.1-4.7c-0.2-2.3-0.2-4.9,1.1-6.9c1.5-2.3,4.1-4.1,6.1-5.8
	c0.5-0.5,1.4-0.4,1.8,0.1c0,0,0,0,0,0l5.9,7.7c0.4,0.6,0.3,1.5-0.2,2l-3,2.7c-1.1,0.9-1.9,2-2.4,3.3c-0.3,1.2-0.2,2.5,0.5,3.6
	C20,28.6,22.6,31.7,25.4,34.4z"/>
<line class="st0" x1="12.7" y1="8.1" x2="20.3" y2="17.8"/>
<line class="st0" x1="41.6" y1="42.5" x2="33.3" y2="33.4"/>
</svg>
