<?xml version="1.0" encoding="utf-8"?>
<!-- Generator: Adobe Illustrator 21.1.0, SVG Export Plug-In . SVG Version: 6.00 Build 0)  -->
<svg version="1.1" id="Слой_143" xmlns="http://www.w3.org/2000/svg" xmlns:xlink="http://www.w3.org/1999/xlink" x="0px"
	 y="0px" viewBox="0 0 52 52" style="enable-background:new 0 0 52 52;" xml:space="preserve">
<title>Uslugi Rostelekom</title>
<path d="M32.1,48.8c-2.7,2.8-8.2,2-11.8-1.6c-0.2-0.2-0.9-1-1-1c-4.5-5.3-9.8-18.5-8-29.3c0.4-2.6,1.3-5,2.6-7.2l0,0
	c-0.1,0.4-0.1,0.8-0.2,1.5c0,0.5-0.1,0.9-0.1,1.5v0.8c0.2,4,1.6,7.8,3.9,11l0.8,1.1c0.2,0.2,0.3,0.4,0.5,0.7l0.3,0.4l0.5,0.5
	c0.2,0.2,0.4,0.4,0.5,0.6l2.4,2.3c0.3,0.3,0.7,0.6,1,0.8c0.7,0.6,1.4,1.2,2.1,1.8c1.8,1.4,3.4,2.9,5,4.6
	C34.1,41,34.8,46.1,32.1,48.8 M38.6,23.7c3-4.5,3.3-10.3,0.7-15.1c-1.4-2.6-3.7-4.7-6.4-6l0.3,0.6l0.2,0.5c0.1,0.3,0.2,0.5,0.2,0.6
	l0.1,0.5c0,0,0.1,0.6,0.1,0.6c0,0.4,0.1,0.8,0.1,1.2c0,0.5,0,0.9-0.1,1.3l-0.1,0.5l-0.3,1.3l-0.1,0.5l-0.5,1.6
	c0,0.1-0.1,0.1-0.1,0.2c-0.7,1.7-1.8,3.4-3,4.8c-0.3,0.3-0.5,0.6-0.7,0.9c-1.1,1.5-1.5,3.4-1.2,5.3c0.2,1.4,1,2.6,2.1,3.4
	c2.5,1.8,6.5,0.7,8.5-2.2L38.6,23.7z M22.9,2.2l-0.5,0.2L22,2.6l-0.4,0.2l-0.7,0.4c-0.3,0.2-0.5,0.3-0.7,0.5
	c-0.7,0.5-1.3,1.1-1.8,1.8c-0.2,0.4-0.5,0.7-0.7,1.1c-0.7,1.2-1.1,2.5-1.3,3.9c0,0.4-0.1,0.8-0.1,1.2s0,0.6,0,1v0.8
	c0.2,3.5,1.4,6.8,3.4,9.6c-0.1-0.9-0.1-1.8-0.1-2.7c0.4-6.5,4.6-11.6,9.6-11.6c0.6,0,1.2,0.1,1.8,0.3c0.1-0.3,0.1-0.7,0.2-1
	c0-0.4,0.1-0.8,0.1-1.2c0-1.1-0.2-2.2-0.8-3.2c-0.2-0.3-0.4-0.6-0.6-0.8c-0.2-0.2-0.4-0.4-0.7-0.6C29,2,28.8,1.9,28.5,1.8L28,1.7
	l-0.7-0.1h-0.5C25.4,1.6,24.2,1.8,22.9,2.2"/>
</svg>
