<?xml version="1.0" encoding="utf-8"?>
<!-- Generator: Adobe Illustrator 21.1.0, SVG Export Plug-In . SVG Version: 6.00 Build 0)  -->
<svg version="1.1" id="Слой_320" xmlns="http://www.w3.org/2000/svg" xmlns:xlink="http://www.w3.org/1999/xlink" x="0px"
	 y="0px" viewBox="0 0 52 52" style="enable-background:new 0 0 52 52;" xml:space="preserve">
<style type="text/css">
	.st0{fill:none;stroke:#000000;stroke-width:2;stroke-linecap:round;stroke-linejoin:round;}
	.st1{fill:none;stroke:#000000;stroke-width:4;}
</style>
<title>Osushchestvleniye platezhey</title>
<path class="st0" d="M10.8,31.6H7.4c-2.2,0-4-1.8-4-4V6.5c0-2.2,1.8-4,4-4h37.2c2.2,0,4,1.8,4,4v21c0,2.2-1.8,4-4,4h-3.4"/>
<line class="st1" x1="3.3" y1="11.3" x2="48.7" y2="11.3"/>
<path class="st0" d="M36.9,23.3c-6-6-15.8-6-21.8,0s-6,15.8,0,21.8c6,6,15.8,6,21.8,0C42.9,39.1,42.9,29.3,36.9,23.3
	C36.9,23.3,36.9,23.3,36.9,23.3z"/>
<line class="st0" x1="21.5" y1="38.7" x2="27.8" y2="38.7"/>
<path class="st0" d="M21.5,35.1h6.2c2.7,0,4-1.6,4-3.2V30c0-1-1.1-3.1-4-3.1h-4.4v14.5"/>
</svg>
