<?xml version="1.0" encoding="utf-8"?>
<!-- Generator: Adobe Illustrator 21.1.0, SVG Export Plug-In . SVG Version: 6.00 Build 0)  -->
<svg version="1.1" id="Слой_209" xmlns="http://www.w3.org/2000/svg" xmlns:xlink="http://www.w3.org/1999/xlink" x="0px"
	 y="0px" viewBox="0 0 52 52" style="enable-background:new 0 0 52 52;" xml:space="preserve">
<style type="text/css">
	.st0{fill:none;stroke:#000000;stroke-width:2;stroke-linecap:round;stroke-linejoin:round;}
</style>
<title>Real IP</title>
<path class="st0" d="M42.1,20.2C40.8,32,29.7,45.9,26.2,50.1C22.5,45.9,11.2,32,9.9,20.2c-0.1-0.7-0.1-1.3-0.1-2
	C9.8,9.2,17,1.9,26,1.9s16.2,7.3,16.2,16.2C42.2,18.8,42.2,19.5,42.1,20.2z"/>
<line class="st0" x1="20.5" y1="10.8" x2="20.5" y2="26.5"/>
<path class="st0" d="M25.1,26.5V10.8h4.7c2.1,0,3.9,1.7,3.9,3.9v0.7c0,2.1-1.7,3.9-3.8,3.9l-4.8,0.1"/>
</svg>
