<?xml version="1.0" encoding="utf-8"?>
<!-- Generator: Adobe Illustrator 21.1.0, SVG Export Plug-In . SVG Version: 6.00 Build 0)  -->
<svg version="1.1" id="Слой_52" xmlns="http://www.w3.org/2000/svg" xmlns:xlink="http://www.w3.org/1999/xlink" x="0px"
	 y="0px" viewBox="0 0 52 52" style="enable-background:new 0 0 52 52;" xml:space="preserve">
<style type="text/css">
	.st0{fill:none;stroke:#000000;stroke-width:2;stroke-linecap:round;stroke-linejoin:round;}
</style>
<title>Natsional&amp;apos;nyye parki</title>
<ellipse class="st0" cx="17.9" cy="17.3" rx="1.8" ry="2.4"/>
<ellipse class="st0" cx="34.1" cy="17.3" rx="1.8" ry="2.4"/>
<path class="st0" d="M43.5,12.6c1.7-1,2.7-2.7,2.7-4.7c-0.1-3.2-2.7-5.6-5.9-5.5c-2.7-0.1-5.1,1.8-5.8,4.4c-5.5-2-11.4-2-16.9,0
	c-0.7-2.6-3.1-4.5-5.8-4.4C8.7,2.3,6,4.8,5.9,7.9c0,1.9,1,3.6,2.7,4.6c-3.9,4-6.2,9.3-6.2,14.9c0,12.2,10.6,22.2,23.6,22.2
	s23.6-9.9,23.6-22.2C49.6,21.9,47.4,16.5,43.5,12.6z"/>
<line class="st0" x1="26" y1="32.6" x2="26" y2="39.5"/>
<line class="st0" x1="11.5" y1="7.3" x2="12.9" y2="9.1"/>
<line class="st0" x1="40.5" y1="7.3" x2="39.2" y2="9.1"/>
<ellipse class="st0" cx="26" cy="32.5" rx="10.1" ry="7"/>
<path d="M22.4,29.2c-1.2,0.3-1.4,1.3-0.4,2.1l2.1,1.7c1.1,0.8,2.6,0.8,3.7,0l2.1-1.7c1-0.8,0.8-1.7-0.4-2.1l-1.3-0.4
	c-1.5-0.3-3.1-0.3-4.6,0L22.4,29.2z"/>
</svg>
