<?xml version="1.0" encoding="utf-8"?>
<!-- Generator: Adobe Illustrator 21.1.0, SVG Export Plug-In . SVG Version: 6.00 Build 0)  -->
<svg version="1.1" id="Слой_380" xmlns="http://www.w3.org/2000/svg" xmlns:xlink="http://www.w3.org/1999/xlink" x="0px"
	 y="0px" viewBox="0 0 52 52" style="enable-background:new 0 0 52 52;" xml:space="preserve">
<style type="text/css">
	.st0{fill:none;stroke:#000000;stroke-width:2;stroke-linecap:round;stroke-miterlimit:10;}
	.st1{fill:none;stroke:#000000;stroke-width:1.04;stroke-linecap:round;stroke-miterlimit:10;}
</style>
<title>ebenok v dome</title>
<path class="st0" d="M15.1,33.2c-0.8,0-1.5-0.9-1.5-2.1c0-1.1,0.7-2.1,1.5-2.1S15.9,33.2,15.1,33.2z"/>
<path class="st0" d="M38.6,31.2c0,1.1-0.7,2.1-1.5,2.1s-0.8-4.1,0-4.1C38,29.1,38.6,30,38.6,31.2z"/>
<path class="st1" d="M36.5,31c0.1,5.8-4.5,10.5-10.2,10.6s-10.5-4.5-10.6-10.2s4.5-10.5,10.2-10.6c0.1,0,0.1,0,0.2,0
	C31.8,20.7,36.4,25.3,36.5,31C36.5,31,36.5,31,36.5,31z"/>
<path class="st0" d="M36.5,31c0.1,5.8-4.5,10.5-10.2,10.6s-10.5-4.5-10.6-10.2s4.5-10.5,10.2-10.6c0.1,0,0.1,0,0.2,0
	C31.8,20.7,36.4,25.3,36.5,31C36.5,31,36.5,31,36.5,31z"/>
<path d="M23.1,30c0,0.3-0.1,0.5-0.3,0.7c-0.2,0.2-0.4,0.3-0.7,0.3c-0.5,0-1-0.5-1-1c0-0.3,0.1-0.5,0.3-0.7c0.2-0.2,0.4-0.3,0.7-0.3
	c0.3,0,0.5,0.1,0.7,0.3C23,29.5,23.1,29.8,23.1,30L23.1,30z"/>
<path d="M30.7,30c0,0.3-0.1,0.5-0.3,0.7c-0.4,0.4-1,0.4-1.4-0.1c-0.2-0.2-0.3-0.4-0.3-0.6c0-0.3,0.1-0.5,0.3-0.7
	c0.2-0.2,0.4-0.3,0.7-0.3c0.3,0,0.5,0.1,0.7,0.3C30.7,29.5,30.8,29.8,30.7,30L30.7,30z"/>
<path class="st0" d="M29.8,35.4c-1.5,2.2-6.2,2.3-7.6-0.1"/>
<path class="st0" d="M15.7,29.3c0,0,9.2-9.2,20.8,0"/>
<polyline class="st0" points="2.2,26.6 26,5.2 49.8,26.6 "/>
<path class="st0" d="M43.2,20.7v23.8c0,1.1-0.9,2-2,2H10.8c-1.1,0-2-0.9-2-2V20.7"/>
</svg>
