<?xml version="1.0" encoding="utf-8"?>
<!-- Generator: Adobe Illustrator 21.1.0, SVG Export Plug-In . SVG Version: 6.00 Build 0)  -->
<svg version="1.1" id="Слой_364" xmlns="http://www.w3.org/2000/svg" xmlns:xlink="http://www.w3.org/1999/xlink" x="0px"
	 y="0px" viewBox="0 0 52 52" style="enable-background:new 0 0 52 52;" xml:space="preserve">
<style type="text/css">
	.st0{fill:none;stroke:#000000;stroke-width:2;stroke-miterlimit:10;}
</style>
<title>Lokalnyy uskoritel</title>
<path class="st0" d="M26,18.6c-2.3,0-4.3,1.9-4.3,4.3s1.9,4.3,4.3,4.3s4.3-1.9,4.3-4.3C30.2,20.5,28.3,18.6,26,18.6z"/>
<path class="st0" d="M35.6,40.6L35.6,40.6c-0.5,0-0.9,0.3-1.1,0.7c-1.3,2.6-2.9,5-4.8,7.3h-7.4c-1.8-2.3-3.4-4.7-4.8-7.3
	c-0.3-0.6-1.1-0.9-1.7-0.6c-0.2,0.1-0.4,0.3-0.6,0.6c-1.1,2.2-1.8,4.5-2,7H9.8l-2.6-6.1c1.4-3.2,3.8-5.8,6.8-7.4
	c0.5-0.3,0.8-0.8,0.7-1.4c-0.4-1.7-0.5-3.3-0.5-5c0-7.1,3.4-13.6,6.3-17.8c1.7-2.4,3.5-4.6,5.6-6.7c2.9,2.9,11.9,12.8,11.9,24.4
	c0,1.7-0.2,3.4-0.5,5c-0.1,0.6,0.2,1.1,0.7,1.4c3.1,1.6,5.5,4.2,6.8,7.4l-2.7,6.2h-3.5c-0.2-2.4-0.8-4.8-2-7
	C36.5,40.8,36.1,40.6,35.6,40.6z"/>
</svg>
