<?xml version="1.0" encoding="utf-8"?>
<!-- Generator: Adobe Illustrator 21.1.0, SVG Export Plug-In . SVG Version: 6.00 Build 0)  -->
<svg version="1.1" id="Слой_94" xmlns="http://www.w3.org/2000/svg" xmlns:xlink="http://www.w3.org/1999/xlink" x="0px"
	 y="0px" viewBox="0 0 52 52" style="enable-background:new 0 0 52 52;" xml:space="preserve">
<title>Privetstviye</title>
<path d="M7.5,28.7c-2.7,0-2.8,4.2,0,4.2h6.1c-3.1,0-3.1,3.8,0,3.8h7.7c2.3,0,4.4,0.8,10,0.8c3.4,0,8-1.9,9.8-2.7
	c2.4-1.1,5.1-1.6,7.8-1.5"/>
<path d="M48.9,21.4c0,0-4.8,0.2-7.1-1.9"/>
<path d="M43.6,26.6c0.4-2.5-0.3-5-1.7-7.1c-1.5-2-3.4-3.8-5.5-5.2c-2.1-1.5-5.6-2.9-8.8-7c-0.5-0.8-1.6-1-2.3-0.5
	c0,0,0,0-0.1,0c-0.8,0.8-0.1,3.2,0.3,3.9c1.2,1.5,2.5,3,3.9,4.4c2.1,2.5,0.3,5.1-2.6,5.1H7.5c-2.7,0-2.7,4.2,0,4.2"/>
<path d="M21.3,28.7h-16c-1.2,0-2.1-0.9-2.1-2.1c0-1.2,0.9-2.1,2.1-2.1h15.3"/>
<line x1="8.3" y1="32.9" x2="22.1" y2="32.9"/>
</svg>
