<?xml version="1.0" encoding="utf-8"?>
<!-- Generator: Adobe Illustrator 21.1.0, SVG Export Plug-In . SVG Version: 6.00 Build 0)  -->
<svg version="1.1" id="Слой_121" xmlns="http://www.w3.org/2000/svg" xmlns:xlink="http://www.w3.org/1999/xlink" x="0px"
	 y="0px" viewBox="0 0 52 52" style="enable-background:new 0 0 52 52;" xml:space="preserve">
<style type="text/css">
	.st0{fill:none;stroke:#000000;stroke-width:2;stroke-linecap:round;stroke-linejoin:round;}
</style>
<title>Reyting 3 zvezdy</title>
<path class="st0" d="M35.2,13l-1.3,1.1l-3,2.6l0.5,2.1l0,0l0.4,1.7l0.4,1.7c0.3,1.2-0.3,1.6-1.3,0.9l-1.5-0.9l-1.5-0.9l0,0L26,20.2
	l-1.9,1.1l0,0l-1.5,0.9l-1.5,0.9c-1,0.6-1.6,0.2-1.3-0.9l0.4-1.7l0.4-1.7l0,0l0.5-2.1l-3-2.6L16.8,13c-0.9-0.8-0.7-1.5,0.5-1.6
	l1.7-0.1l3.9-0.3l1.5-3.6l0.7-1.6c0.5-1.1,1.2-1.1,1.7,0l0.7,1.6l1.5,3.6l3.9,0.3l1.7,0.1C35.9,11.5,36.1,12.2,35.2,13z"/>
<path class="st0" d="M21.5,36.6l-1.3,1.1l-3,2.6l0.5,2.1l0,0l0.4,1.7l0.4,1.7c0.3,1.2-0.3,1.6-1.3,0.9l-1.5-0.9l-1.5-0.9l0,0
	l-1.9-1.1l-1.9,1.1l0,0l-1.5,0.9l-1.5,0.9c-1,0.6-1.6,0.2-1.3-0.9l0.4-1.7l0.4-1.7l0,0l0.5-2.1l-2.9-2.6L3,36.6
	c-0.9-0.8-0.7-1.5,0.5-1.6l1.7-0.1l3.9-0.3l1.5-3.6l0.7-1.6c0.5-1.1,1.2-1.1,1.7,0l0.7,1.6l1.5,3.6l3.9,0.3l1.7,0.2
	C22.1,35.1,22.4,35.8,21.5,36.6z"/>
<path class="st0" d="M48.9,36.6l-1.3,1.1l-3,2.6l0.5,2.1l0,0l0.4,1.7l0.4,1.7c0.3,1.2-0.3,1.6-1.3,0.9l-1.5-0.9l-1.5-0.9l0,0
	l-1.9-1.1l-1.9,1.1l0,0l-1.5,0.9l-1.5,0.9c-1,0.6-1.6,0.2-1.3-0.9l0.4-1.7l0.4-1.7l0,0l0.5-2.1l-3-2.6l-1.3-1.1
	c-0.9-0.8-0.7-1.5,0.5-1.6l1.8-0.1l3.9-0.3l1.5-3.6l0.7-1.6c0.5-1.1,1.2-1.1,1.7,0l0.7,1.6l1.5,3.6l3.9,0.3l1.8,0.2
	C49.6,35.1,49.8,35.8,48.9,36.6z"/>
</svg>
