<?xml version="1.0" encoding="utf-8"?>
<!-- Generator: Adobe Illustrator 21.1.0, SVG Export Plug-In . SVG Version: 6.00 Build 0)  -->
<svg version="1.1" id="Интернет_50_Мб" xmlns="http://www.w3.org/2000/svg" xmlns:xlink="http://www.w3.org/1999/xlink"
	 x="0px" y="0px" viewBox="0 0 52 52" style="enable-background:new 0 0 52 52;" xml:space="preserve">
<style type="text/css">
	.st0{fill:none;stroke:#000000;stroke-width:2;stroke-linecap:round;stroke-linejoin:round;}
	.st1{fill:none;stroke:#000000;stroke-width:2;stroke-linejoin:round;stroke-dasharray:3.1201,3.1201;}
	.st2{fill:none;stroke:#000000;stroke-width:2;stroke-miterlimit:10;}
	.st3{fill:none;stroke:#000000;stroke-width:2;stroke-linecap:round;stroke-miterlimit:10;}
</style>
<title>icons with counter_Интернет_50Мбит</title>
<g>
	<path class="st0" d="M28.2,46c-0.6,0.1-1.3,0.1-2,0.1"/>
	<path class="st1" d="M22.2,45.8c-10.9-2.1-18.1-12.7-16-23.6s12.7-18.1,23.6-16c2.9,0.5,5.6,1.7,7.9,3.4c2.1,1.5,3.9,3.4,5.3,5.6"
		/>
	<path class="st0" d="M44,17c0.3,0.6,0.6,1.2,0.8,1.8"/>
	<path class="st0" d="M43.6,16.2c6.9,13.1-0.7,29.5-17.7,30"/>
	<ellipse class="st2" cx="26" cy="25.8" rx="12.9" ry="13"/>
	<ellipse class="st2" cx="26" cy="25.8" rx="7.1" ry="13"/>
	<line class="st2" x1="26" y1="12.8" x2="26" y2="38.7"/>
	<line class="st2" x1="13.1" y1="25.9" x2="38.9" y2="25.9"/>
	<line class="st2" x1="15" y1="19.2" x2="36.7" y2="19.2"/>
	<line class="st2" x1="15.4" y1="32.6" x2="36.7" y2="32.6"/>
</g>
<polyline class="st3" points="29.9,50.3 25.4,46.3 29.4,41.8 "/>
</svg>
