<?xml version="1.0" encoding="utf-8"?>
<!-- Generator: Adobe Illustrator 21.1.0, SVG Export Plug-In . SVG Version: 6.00 Build 0)  -->
<svg version="1.1" id="Слой_119" xmlns="http://www.w3.org/2000/svg" xmlns:xlink="http://www.w3.org/1999/xlink" x="0px"
	 y="0px" viewBox="0 0 52 52" style="enable-background:new 0 0 52 52;" xml:space="preserve">
<style type="text/css">
	.st0{fill:none;stroke:#000000;stroke-width:2;stroke-linecap:round;stroke-linejoin:round;}
</style>
<title>Reyting 5 zvezd</title>
<path class="st0" d="M33.3,9.1l-1.1,0.9l-2.4,2l0.4,1.7l0,0l0.3,1.4l0.3,1.4c0.2,0.9-0.3,1.3-1.1,0.8l-1.2-0.8l-1.2-0.7l0,0L26,14.8
	l-1.5,0.9l0,0l-1.2,0.7l-1.2,0.7c-0.8,0.5-1.3,0.1-1.1-0.8l0.3-1.4l0.3-1.4l0,0l0.4-1.7l-2.4-2l-1.1-0.9c-0.7-0.6-0.5-1.2,0.4-1.3
	l1.4-0.1l3.1-0.3l1.2-2.9l0.5-1.3c0.4-0.9,0.9-0.9,1.3,0l0.5,1.3l1.2,2.9l3.1,0.3l1.4,0.1C33.9,7.9,34,8.5,33.3,9.1z"/>
<path class="st0" d="M50.1,21L49,21.9l-2.4,2l0.4,1.7l0,0l0.3,1.4l0.3,1.4c0.2,0.9-0.3,1.3-1.1,0.8l-1.2-0.7l-1.2-0.7l0,0l-1.5-0.9
	l-1.5,0.9l0,0l-1.2,0.7l-1.2,0.7c-0.8,0.5-1.3,0.1-1.1-0.8l0.3-1.3l0.3-1.4l0,0l0.4-1.7l-2.4-2L35.4,21c-0.7-0.6-0.5-1.2,0.4-1.3
	l1.4-0.1l3.1-0.3l1.2-2.9l0.5-1.3c0.4-0.9,0.9-0.9,1.3,0l0.5,1.3l1.2,2.9l3.1,0.3l1.4,0.1C50.6,19.8,50.8,20.4,50.1,21z"/>
<path class="st0" d="M43.7,41l-1.1,0.9l-2.4,2l0.4,1.7l0,0L41,47l0.3,1.4c0.2,0.9-0.3,1.3-1.1,0.8L39,48.4l-1.2-0.7l0,0l-1.5-0.9
	l-1.5,0.9l0,0l-1.2,0.7l-1.2,0.7c-0.8,0.5-1.3,0.1-1.1-0.8l0.3-1.4l0.3-1.4l0,0l0.4-1.7l-2.4-2L29,41c-0.7-0.6-0.5-1.2,0.4-1.3
	l1.4-0.1l3.1-0.3l1.2-2.9l0.5-1.3c0.4-0.9,0.9-0.9,1.3,0l0.5,1.3l1.2,2.9l3.1,0.3l1.4,0.1C44.2,39.8,44.4,40.4,43.7,41z"/>
<path class="st0" d="M23,41l-1.1,0.9l-2.4,2l0.4,1.7l0,0l0.3,1.4l0.3,1.4c0.2,0.9-0.3,1.3-1.1,0.8l-1.2-0.7l-1.2-0.7l0,0l-1.5-0.9
	l-1.5,0.9l0,0L13,48.4l-1.2,0.7c-0.8,0.5-1.3,0.1-1.1-0.8l0.3-1.4l0.3-1.4l0,0l0.4-1.7l-2.4-2L8.3,41c-0.7-0.6-0.5-1.2,0.4-1.3
	l1.4-0.1l3.1-0.3l1.2-2.9l0.5-1.3c0.4-0.9,0.9-0.9,1.3,0l0.5,1.3l1.2,2.9l3.1,0.3l1.4,0.1C23.5,39.8,23.7,40.4,23,41z"/>
<path class="st0" d="M16.6,21l-1.1,0.9l-2.4,2l0.4,1.7l0,0l0.4,1.4l0.3,1.4c0.2,0.9-0.3,1.3-1.1,0.8L12,28.4l-1.2-0.7l0,0l-1.5-0.9
	l-1.5,0.9l0,0l-1.2,0.7l-1.2,0.7c-0.8,0.5-1.3,0.1-1.1-0.8L4.7,27L5,25.6l0,0l0.4-1.7l-2.4-2L2,21c-0.7-0.6-0.5-1.2,0.4-1.3l1.4-0.1
	l3.1-0.3l1.2-2.9l0.5-1.3c0.4-0.9,0.9-0.9,1.3,0l0.5,1.3l1.2,2.9l3.1,0.3l1.4,0.1C17.1,19.8,17.3,20.4,16.6,21z"/>
</svg>
