<?xml version="1.0" encoding="utf-8"?>
<!-- Generator: Adobe Illustrator 21.1.0, SVG Export Plug-In . SVG Version: 6.00 Build 0)  -->
<svg version="1.1" id="Слой_34" xmlns="http://www.w3.org/2000/svg" xmlns:xlink="http://www.w3.org/1999/xlink" x="0px"
	 y="0px" viewBox="0 0 52 52" style="enable-background:new 0 0 52 52;" xml:space="preserve">
<style type="text/css">
	.st0{fill:none;stroke:#000000;stroke-width:2;stroke-linecap:round;stroke-linejoin:round;}
</style>
<title>Bezlimitnyy</title>
<path class="st0" d="M39.2,33.1c-5.2-0.6-11.3-5.4-13.2-7c1.9-1.6,7.9-6.6,13.2-7.1c0.3,0,0.6-0.1,0.9-0.1c3.9-0.1,7.2,3,7.3,7
	c0.1,3.9-3,7.2-7,7.3C40,33.1,39.6,33.1,39.2,33.1L39.2,33.1z"/>
<path class="st0" d="M12.9,33.1c5.2-0.6,11.3-5.4,13.2-7c-1.9-1.6-7.9-6.6-13.2-7.1c-0.3,0-0.6-0.1-0.9-0.1c-3.9,0-7.1,3.2-7.1,7.1
	c0,3.9,3.2,7.1,7.1,7.1C12.3,33.1,12.6,33.1,12.9,33.1z"/>
</svg>
