<?xml version="1.0" encoding="utf-8"?>
<!-- Generator: Adobe Illustrator 21.1.0, SVG Export Plug-In . SVG Version: 6.00 Build 0)  -->
<svg version="1.1" id="ТВ_каналы" xmlns="http://www.w3.org/2000/svg" xmlns:xlink="http://www.w3.org/1999/xlink" x="0px"
	 y="0px" viewBox="0 0 52 52" style="enable-background:new 0 0 52 52;" xml:space="preserve">
<style type="text/css">
	.st0{fill:none;stroke:#000000;stroke-width:2;stroke-miterlimit:10;}
	.st1{fill:none;stroke:#000000;stroke-width:2;stroke-linecap:round;stroke-miterlimit:10;}
</style>
<title>icons with counter_ТВ_каналы</title>
<path class="st0" d="M9.1,6.8h34.2c2.9,0,5.3,2.4,5.3,5.3v21c0,2.9-2.4,5.3-5.3,5.3H9.1c-2.9,0-5.3-2.4-5.3-5.3v-21
	C3.8,9.2,6.2,6.8,9.1,6.8z"/>
<rect x="23.5" y="38.8" width="5.3" height="5.3"/>
<line class="st1" x1="13.8" y1="44.4" x2="38.6" y2="44.4"/>
<path d="M14,17.7v10.6c0,0.9,1,1.5,1.8,1l8.5-5.3c0.7-0.5,0.7-1.5,0-2l-8.5-5.3C15,16.2,14,16.8,14,17.7z"/>
<line class="st1" x1="31.9" y1="17.5" x2="31.9" y2="28.5"/>
<line class="st1" x1="37.5" y1="17.5" x2="37.5" y2="28.5"/>
</svg>
