<?xml version="1.0" encoding="utf-8"?>
<!-- Generator: Adobe Illustrator 21.1.0, SVG Export Plug-In . SVG Version: 6.00 Build 0)  -->
<svg version="1.1" id="Слой_44" xmlns="http://www.w3.org/2000/svg" xmlns:xlink="http://www.w3.org/1999/xlink" x="0px"
	 y="0px" viewBox="0 0 52 52" style="enable-background:new 0 0 52 52;" xml:space="preserve">
<style type="text/css">
	.st0{fill:none;stroke:#000000;stroke-width:2;stroke-linecap:round;stroke-linejoin:round;}
</style>
<title>Video</title>
<path class="st0" d="M8.5,6h34.9C44.8,6,46,7.2,46,8.5v34.9c0,1.4-1.1,2.5-2.5,2.5H8.5C7.2,46,6,44.8,6,43.5V8.5C6,7.2,7.2,6,8.5,6z
	"/>
<line class="st0" x1="39.1" y1="38.7" x2="46" y2="38.7"/>
<line class="st0" x1="6" y1="38.7" x2="34.6" y2="38.7"/>
<circle class="st0" cx="36.9" cy="38.7" r="2.3"/>
<path class="st0" d="M21.5,17.8c0-1,0.7-1.4,1.6-0.9l9.6,5.5c0.5,0.2,0.7,0.8,0.5,1.3c-0.1,0.2-0.3,0.4-0.5,0.5L23,29.7
	c-0.9,0.5-1.6,0.1-1.6-0.9L21.5,17.8z"/>
</svg>
