<?xml version="1.0" encoding="UTF-8"?>
<svg width="75px" height="75px" viewBox="0 0 75 75" version="1.1" xmlns="http://www.w3.org/2000/svg" xmlns:xlink="http://www.w3.org/1999/xlink">
    <!-- Generator: Sketch 49 (51002) - http://www.bohemiancoding.com/sketch -->
    <title>Fill 144 Copy</title>
    <desc>Created with Sketch.</desc>
    <style type="text/css">
        .st0{fill:none;stroke:#000000;stroke-width:2;stroke-miterlimit:10;}
        .st1{fill:none;stroke:#000000;stroke-width:2;stroke-linecap:round;stroke-miterlimit:10;}
    </style>
    <g id="Page-4" stroke="none" stroke-width="1" fill="none" fill-rule="evenodd">
        <g id="promo/mvno" transform="translate(-760.000000, -1869.000000)">
            <g id="Fill-144-Copy" transform="translate(760.000000, 1869.000000)">
                <path d="M75,37.5 C75,58.2109091 58.2095455,75 37.5,75 C16.7890909,75 0,58.2109091 0,37.5 C0,16.7890909 16.7890909,0 37.5,0 C58.2095455,0 75,16.7890909 75,37.5" class="st1"></path>
                <g id="icon_126" transform="translate(13.636364, 21.818182)" class="st1">
                    <path d="M50.7386364,15.0717703 L40.9147727,5.38277512 C40.2670455,4.73684211 39.4034091,4.4138756 38.5397727,4.4138756 L33.5738636,4.4138756 L33.5738636,2.47607656 C33.5738636,1.07655502 32.4943182,0 31.0909091,0 L2.48295455,0 C1.07954545,0 0,1.07655502 0,2.47607656 L0,26.1602871 C0,27.5598086 1.07954545,28.6363636 2.48295455,28.6363636 L5.82954545,28.6363636 C6.15340909,24.8684211 9.5,22.1770335 13.2784091,22.5 C16.5170455,22.8229665 19.1079545,25.4066986 19.4318182,28.6363636 L33.0340909,28.6363636 C33.3579545,24.8684211 36.7045455,22.1770335 40.4829545,22.5 C43.7215909,22.8229665 46.3125,25.4066986 46.6363636,28.6363636 L49.3352273,28.6363636 C50.7386364,28.6363636 51.8181818,27.5598086 51.8181818,26.1602871 C51.8181818,26.1602871 51.8181818,26.1602871 51.8181818,26.1602871 L51.8181818,17.4401914 C51.7102273,16.4712919 51.3863636,15.6100478 50.7386364,15.0717703 Z" id="Shape" class="st1"></path>
                    <path d="M12.2727273,26.6590909 C10.4466811,26.6590909 8.93181818,28.1739538 8.93181818,30 C8.93181818,31.8260462 10.4466811,33.3409091 12.2727273,33.3409091 C14.0987735,33.3409091 15.6136364,31.8260462 15.6136364,30 C15.6136364,28.1739538 14.0987735,26.6590909 12.2727273,26.6590909 Z" id="Shape" class="st1" fill-rule="nonzero"></path>
                    <path d="M39.954612,26.6590909 C38.1285659,26.6590909 36.6137029,28.1739538 36.6137029,30 C36.6137029,31.8260462 38.1285659,33.3409091 39.954612,33.3409091 C41.7806582,33.3409091 43.2955211,31.8260462 43.2955211,30 C43.2955211,28.1739538 41.7806582,26.6590909 39.954612,26.6590909 Z" id="Shape-Copy" class="st1" fill-rule="nonzero"></path>
                </g>
            </g>
        </g>
    </g>
</svg>
