<?xml version="1.0" encoding="UTF-8"?>
<svg width="57px" height="57px" viewBox="0 0 57 57" version="1.1" xmlns="http://www.w3.org/2000/svg" xmlns:xlink="http://www.w3.org/1999/xlink">
    <!-- Generator: Sketch 49 (51002) - http://www.bohemiancoding.com/sketch -->
    <title>internet_parent_control_3</title>
    <desc>Created with Sketch.</desc>
    <defs></defs>
    <g id="icons" stroke="none" stroke-width="1" fill="none" fill-rule="evenodd" opacity="0.699999988">
        <g transform="translate(-611.000000, -1652.000000)" id="Group">
            <g transform="translate(145.000000, 121.000000)">
                <g id="Fill-177" transform="translate(467.000000, 1532.000000)">
                    <path d="M55.2529,27.5673 C55.2529,42.7553 42.9399,55.0673 27.7529,55.0673 C12.5649,55.0673 0.2529,42.7553 0.2529,27.5673 C0.2529,12.3793 12.5649,0.0673 27.7529,0.0673 C42.9399,0.0673 55.2529,12.3793 55.2529,27.5673" stroke="#000000" stroke-width="1.5"></path>
                    <path d="M21.8711,23.9941 C22.5931,23.9941 23.1781,23.2141 23.1781,22.2521 C23.1781,21.2891 22.5931,20.5091 21.8711,20.5091 C21.1491,20.5091 20.5641,21.2891 20.5641,22.2521 C20.5641,23.2141 21.1491,23.9941 21.8711,23.9941 Z" id="Stroke-210" stroke="#000000" stroke-width="1" stroke-linejoin="round"></path>
                    <path d="M33.6348,23.9941 C34.3568,23.9941 34.9418,23.2141 34.9418,22.2521 C34.9418,21.2891 34.3568,20.5091 33.6348,20.5091 C32.9128,20.5091 32.3278,21.2891 32.3278,22.2521 C32.3278,23.2141 32.9128,23.9941 33.6348,23.9941 Z" id="Stroke-211" stroke="#000000" stroke-width="1" stroke-linejoin="round"></path>
                    <path d="M40.4604,18.8388 C41.6954,18.1118 42.4214,16.8778 42.4214,15.4258 C42.3484,13.1018 40.4604,11.3598 38.1364,11.4318 C36.1764,11.3598 34.4334,12.7388 33.9254,14.6268 C29.9314,13.1748 25.6474,13.1748 21.6524,14.6268 C21.1444,12.7388 19.4014,11.3598 17.4414,11.4318 C15.1904,11.3598 13.2294,13.1748 13.1564,15.4258 C13.1564,16.8058 13.8834,18.0398 15.1174,18.7658 C12.2854,21.6708 10.6154,25.5198 10.6154,29.5858 C10.6154,38.4448 18.3124,45.7058 27.7524,45.7058 C37.1924,45.7058 44.8904,38.5178 44.8904,29.5858 C44.8904,25.5918 43.2924,21.6708 40.4604,18.8388 Z" id="Stroke-212" stroke="#000000" stroke-width="1.5" stroke-linejoin="round"></path>
                    <path d="M27.7529,33.3613 L27.7529,38.3723" id="Stroke-213" stroke="#000000" stroke-width="1" stroke-linejoin="round"></path>
                    <path d="M17.2236,14.9902 L18.2406,16.2972" id="Stroke-214" stroke="#000000" stroke-width="1" stroke-linejoin="round"></path>
                    <path d="M38.2822,14.9902 L37.3382,16.2972" id="Stroke-215" stroke="#000000" stroke-width="1" stroke-linejoin="round"></path>
                    <path d="M27.7529,38.372 C31.8029,38.372 35.0869,36.097 35.0869,33.289 C35.0869,30.481 31.8029,28.206 27.7529,28.206 C23.7019,28.206 20.4189,30.481 20.4189,33.289 C20.4189,36.097 23.7019,38.372 27.7529,38.372 Z" id="Stroke-216" stroke="#000000" stroke-width="1" stroke-linejoin="round"></path>
                    <path d="M25.1387,30.8925 C24.2667,31.1105 24.1217,31.8365 24.8477,32.4175 L26.3727,33.6525 C27.1717,34.2335 28.2617,34.2335 29.0597,33.6525 L30.5847,32.4175 C31.3107,31.8365 31.1657,31.1835 30.2947,30.8925 L29.3507,30.6025 C28.2617,30.3845 27.0987,30.3845 26.0107,30.6025 L25.1387,30.8925 Z" id="Fill-217" fill="#000000" fill-rule="evenodd"></path>
                </g>
            </g>
        </g>
    </g>
</svg>