<?xml version="1.0" encoding="UTF-8"?>
<svg width="58px" height="57px" viewBox="0 0 58 57" version="1.1" xmlns="http://www.w3.org/2000/svg" xmlns:xlink="http://www.w3.org/1999/xlink">
    <!-- Generator: Sketch 49 (51002) - http://www.bohemiancoding.com/sketch -->
    <title>internet_main_3</title>
    <desc>Created with Sketch.</desc>
    <defs></defs>
    <g id="icons" stroke="none" stroke-width="1" fill="none" fill-rule="evenodd" opacity="0.699999988">
        <g transform="translate(-611.000000, -120.000000)" id="Group" stroke="#000000">
            <g transform="translate(145.000000, 121.000000)">
                <g id="Fill-51" transform="translate(467.000000, 0.000000)">
                    <path d="M55.3521,27.5024 C55.3521,42.6904 43.0391,55.0024 27.8521,55.0024 C12.6641,55.0024 0.3521,42.6904 0.3521,27.5024 C0.3521,12.3144 12.6641,0.0024 27.8521,0.0024 C43.0391,0.0024 55.3521,12.3144 55.3521,27.5024" stroke-width="1.5"></path>
                    <path d="M27.8521,44.12 C37.0571,44.12 44.5191,36.68 44.5191,27.502 C44.5191,18.324 37.0571,10.884 27.8521,10.884 C18.6461,10.884 11.1841,18.324 11.1841,27.502 C11.1841,36.68 18.6461,44.12 27.8521,44.12 Z" id="Stroke-53" stroke-width="1.5" stroke-linejoin="round"></path>
                    <path d="M27.8521,44.12 C32.9141,44.12 37.0181,36.68 37.0181,27.502 C37.0181,18.324 32.9141,10.884 27.8521,10.884 C22.7901,10.884 18.6861,18.324 18.6861,27.502 C18.6861,36.68 22.7901,44.12 27.8521,44.12 Z" id="Stroke-55" stroke-width="1" stroke-linejoin="round"></path>
                    <path d="M27.8521,10.8842 L27.8521,44.1202" id="Stroke-57" stroke-width="1" stroke-linejoin="round"></path>
                    <path d="M11.2007,27.7182 L44.5197,27.7182" id="Stroke-59" stroke-width="1" stroke-linejoin="round"></path>
                    <path d="M13.7622,19.1352 L41.7252,19.1352" id="Stroke-61" stroke-width="1" stroke-linejoin="round"></path>
                    <path d="M14.2114,36.3017 L41.7254,36.3017" id="Stroke-63" stroke-width="1" stroke-linejoin="round"></path>
                </g>
            </g>
        </g>
    </g>
</svg>