<?xml version="1.0" encoding="UTF-8"?>
<svg width="57px" height="58px" viewBox="0 0 57 58" version="1.1" xmlns="http://www.w3.org/2000/svg" xmlns:xlink="http://www.w3.org/1999/xlink">
    <!-- Generator: Sketch 49 (51002) - http://www.bohemiancoding.com/sketch -->
    <title>internet_games_wow_3</title>
    <desc>Created with Sketch.</desc>
    <defs></defs>
    <g id="icons" stroke="none" stroke-width="1" fill="none" fill-rule="evenodd" opacity="0.699999988">
        <g transform="translate(-612.000000, -1523.000000)" id="Group">
            <g transform="translate(145.000000, 121.000000)">
                <g id="Fill-247" transform="translate(467.000000, 1403.000000)">
                    <path d="M55.7871,28.1835 C55.7871,43.3715 43.4741,55.6835 28.2871,55.6835 C13.0991,55.6835 0.7871,43.3715 0.7871,28.1835 C0.7871,12.9955 13.0991,0.6835 28.2871,0.6835 C43.4741,0.6835 55.7871,12.9955 55.7871,28.1835" stroke="#000000" stroke-width="1.5"></path>
                    <polygon id="Stroke-248" stroke="#000000" stroke-width="1.5" stroke-linejoin="round" points="15.2012 39.4843 28.3522 47.0143 41.1812 39.4903 41.1812 15.5853 35.3832 12.4223 20.7082 12.4223 15.2012 15.4813"></polygon>
                    <polygon id="Fill-249" fill="#000000" fill-rule="evenodd" points="33.7915 14.6015 22.7825 14.6015 22.7825 17.5365 25.6545 19.8335 25.6545 21.5565 19.9105 21.5565 19.9105 24.2375 24.2185 26.6655 25.4625 26.6655 25.4625 36.9855 22.3045 35.1505 22.3045 29.8605 17.2305 26.6295 17.2305 38.1175 28.2875 44.4355 39.1515 38.1175 39.1515 26.6295 34.2705 29.5185 34.2705 35.0535 31.1105 36.9855 31.1105 26.6655 32.4515 26.6655 36.7585 24.2375 36.7585 21.4605 31.0155 21.4605 31.0155 19.6415 33.7915 17.3445"></polygon>
                </g>
            </g>
        </g>
    </g>
</svg>