<?xml version="1.0" encoding="UTF-8"?>
<svg width="57px" height="57px" viewBox="0 0 57 57" version="1.1" xmlns="http://www.w3.org/2000/svg" xmlns:xlink="http://www.w3.org/1999/xlink">
    <!-- Generator: Sketch 49 (51002) - http://www.bohemiancoding.com/sketch -->
    <title>internet_games_3</title>
    <desc>Created with Sketch.</desc>
    <defs></defs>
    <g id="icons" stroke="none" stroke-width="1" fill="none" fill-rule="evenodd" opacity="0.699999988">
        <g transform="translate(-611.000000, -1248.000000)" id="Group" stroke="#000000" stroke-width="1.5">
            <g transform="translate(145.000000, 121.000000)">
                <g id="Fill-172" transform="translate(467.000000, 1127.000000)">
                    <path d="M55.2529,28.495 C55.2529,43.683 42.9399,55.995 27.7529,55.995 C12.5649,55.995 0.2529,43.683 0.2529,28.495 C0.2529,13.307 12.5649,0.995 27.7529,0.995 C42.9399,0.995 55.2529,13.307 55.2529,28.495"></path>
                    <path d="M44.4326,32.2538 C43.9916,27.2428 42.7306,22.3198 40.6926,17.6458 C39.1596,14.1308 34.1356,13.2508 31.2676,15.9648 C30.7216,16.4828 30.1136,16.9408 29.4746,17.3548 C28.5166,17.9748 27.0476,18.1228 25.8286,17.3968 C25.1496,16.9908 24.5336,16.5008 23.9666,15.9648 C21.0996,13.2508 16.0756,14.1308 14.5426,17.6458 C12.5046,22.3198 11.2436,27.2428 10.8026,32.2538 L10.5416,35.2128 C10.1646,39.4978 16.0716,41.6978 19.1236,38.4098 L22.9416,34.2978 C23.7956,33.3778 25.0526,32.8468 26.3776,32.8468 L27.6176,32.8468 L28.8566,32.8468 C30.1826,32.8468 31.4396,33.3778 32.2936,34.2978 L36.1106,38.4098 C39.1626,41.6978 45.0706,39.4978 44.6926,35.2128 L44.4326,32.2538 Z" id="Stroke-173" stroke-linejoin="round"></path>
                    <path d="M24.4795,25.0195 L15.9215,25.0195" id="Stroke-174" stroke-linejoin="round"></path>
                    <path d="M20.2007,29.2988 L20.2007,20.7408" id="Stroke-175" stroke-linejoin="round"></path>
                    <path d="M38.2456,25.0195 C38.2456,23.0295 36.6316,21.4155 34.6416,21.4155 C32.6506,21.4155 31.0376,23.0295 31.0376,25.0195 C31.0376,27.0105 32.6506,28.6235 34.6416,28.6235 C36.6316,28.6235 38.2456,27.0105 38.2456,25.0195 Z" id="Stroke-176" stroke-linejoin="round"></path>
                </g>
            </g>
        </g>
    </g>
</svg>