<?xml version="1.0" encoding="UTF-8"?>
<svg width="58px" height="57px" viewBox="0 0 58 57" version="1.1" xmlns="http://www.w3.org/2000/svg" xmlns:xlink="http://www.w3.org/1999/xlink">
    <!-- Generator: Sketch 49 (51002) - http://www.bohemiancoding.com/sketch -->
    <title>internet_antivirus_3</title>
    <desc>Created with Sketch.</desc>
    <defs></defs>
    <g id="icons" stroke="none" stroke-width="1" fill="none" fill-rule="evenodd" opacity="0.699999988">
        <g transform="translate(-611.000000, -990.000000)" id="Group" stroke="#000000">
            <g transform="translate(145.000000, 121.000000)">
                <g id="Fill-35" transform="translate(467.000000, 869.000000)">
                    <path d="M55.3521,28.4589 C55.3521,43.6469 43.0391,55.9589 27.8521,55.9589 C12.6641,55.9589 0.3521,43.6469 0.3521,28.4589 C0.3521,13.2709 12.6641,0.9589 27.8521,0.9589 C43.0391,0.9589 55.3521,13.2709 55.3521,28.4589" stroke-width="1.5"></path>
                    <path d="M26.8521,46.1113 C26.8521,46.1113 14.7431,42.7103 14.7431,32.3643 L14.7431,15.4923 L18.1061,16.0093 C24.4941,16.9923 30.9951,17.0003 37.3851,16.0333 L40.9611,15.4923 L40.9611,32.2943 C40.9611,42.7103 28.8521,46.1113 28.8521,46.1113 L26.8521,46.1113 Z" id="Stroke-167" stroke-width="1.5" stroke-linecap="round" stroke-linejoin="round"></path>
                    <path d="M40.6899,34.8915 L14.7429,20.3755" id="Stroke-168" stroke-width="1" stroke-linejoin="round"></path>
                    <path d="M38.7627,39.2968 L14.7427,25.4628" id="Stroke-169" stroke-width="1" stroke-linejoin="round"></path>
                </g>
            </g>
        </g>
    </g>
</svg>