<?xml version="1.0" encoding="UTF-8"?>
<svg width="57px" height="58px" viewBox="0 0 57 58" version="1.1" xmlns="http://www.w3.org/2000/svg" xmlns:xlink="http://www.w3.org/1999/xlink">
    <!-- Generator: Sketch 49 (51002) - http://www.bohemiancoding.com/sketch -->
    <title>internet_games_fifa_3</title>
    <desc>Created with Sketch.</desc>
    <defs></defs>
    <g id="icons" stroke="none" stroke-width="1" fill="none" fill-rule="evenodd">
        <g transform="translate(-612.000000, -2581.000000)" id="internet_games_fifa_3">
            <g transform="translate(612.000000, 2582.000000)">
                <g id="internet_games_wow_1-copy">
                    <path d="M55.7871,28.1835 C55.7871,43.3715 43.4741,55.6835 28.2871,55.6835 C13.0991,55.6835 0.7871,43.3715 0.7871,28.1835 C0.7871,12.9955 13.0991,0.6835 28.2871,0.6835 C43.4741,0.6835 55.7871,12.9955 55.7871,28.1835" id="Fill-247" stroke="#000000" stroke-width="1.5"></path>
                    <g id="Page-1" transform="translate(6.000000, 22.000000)" fill="#1D1D1B">
                        <g>
                            <path stroke="red" d="M41.9692412,3.55739832 C41.9607029,3.5561096 41.9522866,3.55482087 41.9438093,3.55353215 C41.9438093,3.48792442 41.9483224,3.4220238 41.9430165,3.3568847 C41.9000202,2.8259893 41.5971553,2.32151273 40.9158008,2.23985454 C40.3321486,2.16991202 39.7263579,2.41078611 39.5530309,3.05883816 C39.453255,3.43168923 39.463196,3.80225574 39.5959053,4.16778451 C39.7178196,4.50355549 39.9580502,4.7214083 40.3158649,4.80517531 C40.5766483,4.86621393 40.8437134,4.87470779 41.1076071,4.81074025 C41.5032343,4.7149061 41.7593826,4.47291903 41.8689774,4.09971649 C41.920634,3.92392293 41.9369177,3.73846394 41.9692412,3.55739832 Z M42.0616985,8.38835312 C42.0473664,8.27066926 42.0430363,8.11379649 42.0072365,7.96377739 C41.9273426,7.62900224 41.7809722,7.32954982 41.4440152,7.15885257 C40.9822774,6.92506646 40.5115134,6.93391179 40.0440428,7.13460114 C39.8027145,7.23816763 39.6297534,7.42022908 39.5358934,7.65887719 C39.3369515,8.16464248 39.3399399,8.6743911 39.5373571,9.1793363 C39.6251793,9.40404277 39.7814908,9.58323388 40.0109265,9.68756188 C40.4628453,9.89305466 40.9211677,9.89639362 41.3819297,9.71011454 C41.59868,9.62248136 41.7468801,9.46836177 41.8559871,9.27306162 C42.0040652,9.00793611 42.0419385,8.71961357 42.0616985,8.38835312 Z M40.4554048,12 C40.2901891,11.9782089 40.1255223,11.9512043 39.9596968,11.935681 C39.3426234,11.8778056 38.7465907,11.7480546 38.1923955,11.4706276 C37.2741649,11.0111392 36.7000878,10.2955464 36.5171857,9.31711253 C36.3364792,8.34975 36.5281635,7.45227142 37.1718885,6.66831764 C37.3996776,6.39089068 37.6668646,6.14978227 37.9865621,5.96789656 C38.0291925,5.94364513 38.071152,5.91787067 38.1115259,5.89028028 C38.125736,5.88067343 38.1342133,5.86339282 38.160621,5.83070612 C38.0990234,5.79052138 38.0412681,5.75010234 37.9808902,5.71378377 C37.3883338,5.3566317 36.9822168,4.85279949 36.7711994,4.21886481 C36.5116358,3.43936299 36.5475576,2.66126704 36.9109222,1.91579923 C37.1807927,1.36194113 37.6072187,0.934846528 38.1567178,0.621686781 C38.7778164,0.267697938 39.4521573,0.0906156493 40.1678478,0.0268238489 C40.9709337,-0.0447588692 41.7549305,0.0231919925 42.5181914,0.275840326 C43.0722036,0.459190496 43.5691313,0.737613294 43.9754922,1.14713439 C44.5210881,1.69700917 44.8018144,2.35396513 44.8228552,3.11642066 C44.8369433,3.62616928 44.7616235,4.11588411 44.5251133,4.57595831 C44.2652447,5.08143071 43.8809003,5.47736164 43.3756173,5.76474692 C43.3444526,5.78243757 43.3157884,5.80411155 43.258521,5.84218747 C43.3592726,5.90662363 43.4450213,5.95946128 43.5286964,6.01522785 C44.0997851,6.39575268 44.5377377,6.88212854 44.7749189,7.51483308 C45.1131566,8.41717366 45.0747953,9.3104346 44.6285484,10.1706574 C44.3414184,10.7242226 43.8951105,11.1402459 43.3238998,11.4328446 C42.7498226,11.7268493 42.1353107,11.8776299 41.4917686,11.9361496 C41.3197833,11.95179 41.1487738,11.9783846 40.9773374,12 L40.4554048,12 Z" id="Fill-1"></path>
                            <path d="M0,2.35097369 C0.0218378336,2.27649201 0.0500196188,2.20318789 0.0644765086,2.12741087 C0.228504258,1.26742706 0.701616652,0.628415391 1.5223044,0.246350829 C1.86640277,0.086141602 2.23294898,-0.000469119295 2.61980803,1.91114079e-06 C4.1727952,0.00182715408 5.72584336,0.000649577989 7.27883052,0.000590699185 C7.29743538,0.000590699185 7.31610124,0.000414062772 7.3347061,0.000826214403 C7.52044968,0.00518324593 7.53777355,0.019314159 7.54033553,0.196244966 C7.54320251,0.394136628 7.54125052,0.591969411 7.54125052,0.789861072 C7.54131152,1.24558302 7.54198252,1.70124609 7.54094552,2.15696803 C7.54039653,2.37805794 7.52728163,2.39130567 7.29798438,2.39148231 C6.1798019,2.39230661 5.06168042,2.39189446 3.94349794,2.39189446 C3.86895651,2.39189446 3.79423208,2.39536831 3.71987365,2.39154119 C3.30989577,2.37069809 3.05815069,2.65702572 3.03210389,3.02107337 C3.0303959,3.04497816 3.0303959,3.06900071 3.0303959,3.09296439 C3.0302739,3.55469197 3.02941991,4.01636068 3.0305789,4.47802938 C3.0310669,4.67238831 3.03905784,4.68033695 3.2412713,4.68045471 C4.17926115,4.68133789 5.117312,4.68074911 6.05530185,4.68098462 C6.34053567,4.68110238 6.34108467,4.68157341 6.34126767,4.96448606 C6.34163367,5.57606021 6.34138967,6.18769323 6.34138967,6.79926737 C6.34138967,6.82328992 6.34175566,6.84725359 6.34102367,6.87121727 C6.33547271,7.05462474 6.31772185,7.07376035 6.12081535,7.07399587 C5.18904745,7.07511457 4.25721855,7.07476129 3.32545065,7.07452578 C3.01612201,7.07440802 3.02996891,7.06204347 3.02996891,7.35879265 C3.0302129,8.73190524 3.0302129,10.1050178 3.02996891,11.4780716 C3.02990791,11.7543898 3.02935891,11.7548019 2.73912312,11.7549197 C1.90672347,11.7551552 1.07432381,11.755273 0.241924156,11.7545664 C0.161282771,11.7545075 0.0806413854,11.7488552 0,11.7457935 L0,2.35097369 Z" id="Fill-4"></path>
                            <path d="M28.4075725,6.97798746 C28.4075725,8.47142371 28.407632,9.96480108 28.407513,11.4582373 C28.407513,11.7541573 28.4070966,11.7544517 28.1057323,11.7545106 C27.3300733,11.7546283 26.5544142,11.7545695 25.7788147,11.7545106 C25.7363405,11.7545106 25.6938069,11.7558059 25.6515112,11.7533919 C25.5183184,11.7457378 25.4971408,11.7252483 25.4886341,11.5916545 C25.4851838,11.537899 25.4870874,11.4837314 25.4870874,11.4297993 C25.4870279,10.314241 25.4870279,9.19868271 25.4870279,8.0831244 C25.4870279,8.03513896 25.4880392,7.98715353 25.486552,7.93916809 C25.481555,7.77884375 25.4686462,7.76282898 25.308803,7.76176918 C24.9573502,7.75941407 24.6058973,7.76129816 24.2544445,7.7606505 C23.9917472,7.76023836 23.9909143,7.75970846 23.9907359,7.50147028 C23.9902005,6.88967071 23.9905574,6.27793002 23.9906169,5.66618933 C23.9906169,5.6301561 23.9894866,5.59412287 23.9917472,5.55820739 C24.0001944,5.42384817 24.0166725,5.40276991 24.1555166,5.40135684 C24.5069694,5.39776529 24.8584223,5.39976714 25.2098751,5.39947275 C25.4866115,5.39923724 25.4869089,5.39911948 25.4869684,5.12139274 C25.4871469,4.44965554 25.4870279,3.77791834 25.4870279,3.10618114 C25.4869684,3.06420124 25.4875038,3.02216247 25.4861951,2.98024145 C25.4740596,2.59747665 25.2620457,2.37892214 24.8745434,2.36379053 C24.6446238,2.3548411 24.4138118,2.35542988 24.1838922,2.36349614 C23.7997806,2.37697917 23.5567142,2.62173432 23.5375592,3.00367483 C23.5339899,3.07544691 23.5358935,3.14757225 23.5358935,3.21952097 C23.5358341,5.96046075 23.5358341,8.70140053 23.5357746,11.4422814 C23.5357746,11.7543339 23.5355366,11.7545106 23.214244,11.7545106 C22.4507204,11.7546283 21.6871969,11.7545695 20.9236733,11.7545106 C20.8691232,11.7544517 20.8143351,11.7568068 20.7601418,11.7525087 C20.6496733,11.7437359 20.6276629,11.7213035 20.6173121,11.6080814 C20.613029,11.5604492 20.615111,11.5121694 20.615111,11.464184 C20.6150515,8.51935027 20.6131479,5.57451655 20.6165387,2.62962395 C20.6173121,1.98020145 20.8021996,1.38824371 21.2322951,0.883719557 C21.6278877,0.419644474 22.1343058,0.146863471 22.7331082,0.0412955158 C22.8988407,0.0120332326 23.0699865,0.00308380189 23.2387529,0.00237726789 C24.1113768,-0.00133203562 24.9840006,0.000257665884 25.856565,0.000846444218 C27.0394763,0.00161185605 28.1831257,0.81053441 28.3733671,2.17620576 C28.3972216,2.34765801 28.4058473,2.52240742 28.4061448,2.69568488 C28.4087027,4.12311908 28.4075725,5.55055327 28.4075725,6.97798746" id="Fill-7"></path>
                            <path d="M12.3192187,7.07040181 C12.3192187,5.61882168 12.3166551,4.16718268 12.3208056,2.71560255 C12.3220263,2.29931766 12.3814149,1.88962738 12.5622663,1.50560898 C12.9424022,0.698475552 13.5922587,0.216538938 14.4876044,0.0418994765 C14.6505111,0.0101040249 14.8207421,0.00233180338 14.9876161,0.00203740105 C16.517193,-0.000906622244 18.0468309,0.000153226143 19.5764077,0.00032986754 C19.8587629,0.000388748006 19.8596785,0.000977552665 19.8598616,0.267529422 C19.860472,0.88536215 19.8601058,1.50319488 19.8600447,2.12096873 C19.8600447,2.15700357 19.8612654,2.1930973 19.8587019,2.22889662 C19.8495464,2.35967014 19.8260473,2.3826924 19.6900578,2.39034686 C19.6343314,2.39346752 19.5781778,2.39164223 19.5222072,2.39164223 C18.3594603,2.39175999 17.1967133,2.3935264 16.0339663,2.39017022 C15.8361467,2.38952253 15.6694558,2.43821668 15.5308417,2.57941203 C15.4183513,2.69399342 15.3508449,2.82523798 15.3498683,2.98168338 C15.3465113,3.49747626 15.3459009,4.0133869 15.3483424,4.52917978 C15.3489527,4.658128 15.3698272,4.67620431 15.501239,4.67903057 C15.7001572,4.68326996 15.8991365,4.68067922 16.0981768,4.6807381 C16.8380623,4.68079698 17.5780088,4.6807381 18.3179554,4.6807381 C18.3614745,4.68079698 18.4050546,4.67967825 18.4485126,4.68138579 C18.6094051,4.68750936 18.6323548,4.70511461 18.6333924,4.86067681 C18.6363222,5.29857083 18.6347353,5.73640597 18.6347963,6.1743 C18.6347963,6.40823209 18.6365053,6.64222306 18.6339418,6.87609627 C18.6319276,7.05350312 18.6132504,7.07311031 18.4294082,7.07352247 C17.6832359,7.07528889 16.9370637,7.07440568 16.1909524,7.07452344 C15.9670702,7.07452344 15.743188,7.07234487 15.5194279,7.07570105 C15.3673247,7.07793851 15.34938,7.09519049 15.3475489,7.24521791 C15.3443139,7.51512597 15.3463281,7.78503402 15.3463281,8.05500096 C15.3462671,9.19463238 15.3464502,10.3343816 15.3462061,11.474013 C15.346145,11.7544018 15.3454736,11.7548728 15.0575641,11.7549906 C14.2368051,11.7551672 13.4160461,11.7551083 12.5952871,11.7549906 C12.5517681,11.7549906 12.508249,11.7534008 12.4647299,11.7537541 C12.3732971,11.7544018 12.3266041,11.7095937 12.3228198,11.6229806 C12.3201952,11.563158 12.3193407,11.5030999 12.3193407,11.4431596 C12.3191576,9.98557368 12.3192187,8.52798774 12.3192187,7.07040181" id="Fill-9"></path>
                            <path stroke="red" d="M35.1955036,6.97684234 C35.1955036,8.4717833 35.1955646,9.96672427 35.1955036,11.4616063 C35.1954427,11.7544189 35.1951988,11.7548903 34.9011552,11.7548903 C34.0998667,11.755126 33.2985782,11.7550081 32.4973507,11.7549492 C32.4724762,11.7549492 32.4476017,11.7553617 32.4227881,11.7548314 C32.2326932,11.7505296 32.2129399,11.733087 32.2112938,11.5433982 C32.209038,11.2792246 32.2106841,11.015051 32.2106841,10.7508773 C32.2107451,8.19329022 32.2113548,5.63570309 32.20916,3.07811597 C32.209038,2.96591732 32.2025755,2.84717767 32.1653857,2.74269857 C32.0675947,2.46827151 31.8362252,2.36273171 31.5551676,2.35377467 C31.2697204,2.34469978 30.9837854,2.3512997 30.6980334,2.3506515 C30.4208777,2.34994436 30.4194145,2.34894259 30.4192316,2.0780512 C30.4188048,1.47769413 30.4190487,0.877278129 30.4192316,0.276921057 C30.4192316,0.228894848 30.4205728,0.18086864 30.4219751,0.132901359 C30.4245357,0.0439202851 30.4748944,0.00343684299 30.5642109,0.00272970863 C30.6014617,0.00243506931 30.6387735,0.00125651205 30.6760243,0.00125651205 C31.3219691,0.00131543991 31.9680357,-0.00222023189 32.6139805,0.00231721359 C33.8447811,0.0109796095 34.947734,0.851526652 35.1501442,2.09897059 C35.1778842,2.27003818 35.180079,2.444995 35.1939185,2.61812507 C35.194833,2.63008742 35.1941014,2.64216764 35.1941014,2.65418892 L35.1941014,6.97684234 L35.1955036,6.97684234 Z" id="Fill-11"></path>
                            <path d="M11.3128338,5.89648815 C11.3128338,7.74934618 11.3128952,9.60214534 11.3127725,11.4550034 C11.3127725,11.7545789 11.3124659,11.7549322 11.0062451,11.7549322 C10.1944594,11.7551088 9.3826737,11.7552266 8.57088801,11.7548733 C8.29765612,11.7546966 8.29630713,11.7536957 8.29630713,11.4970429 C8.29606186,7.74940506 8.29612317,4.00170838 8.29612317,0.254070581 C8.29612317,0.236112537 8.29593922,0.218095613 8.29642976,0.200137569 C8.30121255,0.0186141229 8.31439586,0.00312898948 8.49896229,0.00136262445 C8.76121831,-0.00111028659 9.02353564,0.000538320771 9.28579166,0.000538320771 C9.86653207,0.000479441936 10.4472725,0.000479441936 11.0280129,0.000597199605 C11.0779869,0.000656078439 11.1278995,0.00236356463 11.1778735,0.00271683764 C11.2605911,0.00330562598 11.3063342,0.0418123836 11.3092161,0.122240871 C11.3116075,0.188126287 11.3127112,0.254070581 11.3127112,0.320014876 C11.3128952,2.17881967 11.3128338,4.03768335 11.3128338,5.89648815" id="Fill-13"></path>
                        </g>
                    </g>
                </g>
            </g>
        </g>
    </g>
</svg>
