<?xml version="1.0" encoding="UTF-8"?>
<svg width="57px" height="57px" viewBox="0 0 57 57" version="1.1" xmlns="http://www.w3.org/2000/svg" xmlns:xlink="http://www.w3.org/1999/xlink">
    <!-- Generator: Sketch 49 (51002) - http://www.bohemiancoding.com/sketch -->
    <title>internet_speed_night_3</title>
    <desc>Created with Sketch.</desc>
    <defs></defs>
    <g id="icons" stroke="none" stroke-width="1" fill="none" fill-rule="evenodd" opacity="0.699999988">
        <g transform="translate(-611.000000, -2358.000000)" id="Group" stroke="#000000" stroke-width="1.5">
            <g transform="translate(145.000000, 121.000000)">
                <g id="Fill-203" transform="translate(467.000000, 2238.000000)">
                    <path d="M55.1177,27.5312 C55.1177,42.7192 42.8047,55.0312 27.6177,55.0312 C12.4297,55.0312 0.1177,42.7192 0.1177,27.5312 C0.1177,12.3432 12.4297,0.0312 27.6177,0.0312 C42.8047,0.0312 55.1177,12.3432 55.1177,27.5312"></path>
                    <path d="M33.1616,32.2753 C26.4176,32.2753 20.9506,26.8073 20.9506,20.0633 C20.9506,17.3753 21.8296,14.8973 23.3026,12.8793 C17.1456,14.7383 12.6606,20.4483 12.6606,27.2113 C12.6606,35.4793 19.3646,42.1833 27.6336,42.1833 C35.6896,42.1833 42.2416,35.8163 42.5746,27.8413 C40.3346,30.5493 36.9496,32.2753 33.1616,32.2753 Z" id="Stroke-209" stroke-linejoin="round"></path>
                </g>
            </g>
        </g>
    </g>
</svg>