<?xml version="1.0" encoding="UTF-8"?>
<svg width="57px" height="57px" viewBox="0 0 57 57" version="1.1" xmlns="http://www.w3.org/2000/svg" xmlns:xlink="http://www.w3.org/1999/xlink">
    <!-- Generator: Sketch 49 (51002) - http://www.bohemiancoding.com/sketch -->
    <title>internet_speed_1_3</title>
    <desc>Created with Sketch.</desc>
    <defs></defs>
    <g id="icons" stroke="none" stroke-width="1" fill="none" fill-rule="evenodd" opacity="0.699999988">
        <g transform="translate(-611.000000, -2017.000000)" id="Group" stroke="#000000">
            <g transform="translate(145.000000, 121.000000)">
                <g id="Fill-179" transform="translate(467.000000, 1897.000000)">
                    <path d="M55.2529,27.6396 C55.2529,42.8276 42.9399,55.1396 27.7529,55.1396 C12.5649,55.1396 0.2529,42.8276 0.2529,27.6396 C0.2529,12.4516 12.5649,0.1396 27.7529,0.1396 C42.9399,0.1396 55.2529,12.4516 55.2529,27.6396" stroke-width="1.5"></path>
                    <g id="Shape" transform="translate(14.000000, 10.000000)">
                        <path d="M13.7909027,11.4234899 C12.1281858,11.4234899 10.6823451,12.7836689 10.6823451,14.5017897 C10.6823451,16.2199105 12.0558938,17.5800895 13.7909027,17.5800895 C15.5259115,17.5800895 16.8994602,16.2199105 16.8994602,14.5017897 C16.8271681,12.7836689 15.4536195,11.4234899 13.7909027,11.4234899 Z" stroke-width="1"></path>
                        <path d="M20.7309381,27.1729306 C20.3694779,27.1729306 20.0803097,27.3876957 19.9357257,27.6740492 C18.9959292,29.5353468 17.8392566,31.2534676 16.465708,32.9 L11.1160973,32.9 C9.81484071,31.2534676 8.65816814,29.5353468 7.64607965,27.6740492 C7.42920354,27.244519 6.85086726,27.0297539 6.41711505,27.244519 C6.27253097,27.3161074 6.1279469,27.4592841 5.98336283,27.6740492 C5.18815044,29.2489933 4.6821062,30.8955257 4.53752212,32.6852349 L2.07959292,32.6852349 L0.2,28.3183445 C1.2120885,26.0275168 2.94709735,24.1662192 5.11585841,23.0208054 C5.47731858,22.8060403 5.69419469,22.4480984 5.62190266,22.0185682 C5.33273451,20.801566 5.26044248,19.6561521 5.26044248,18.4391499 C5.26044248,13.3563758 7.71837168,8.70313199 9.81484071,5.69642058 C11.0438053,3.97829978 12.3450619,2.4033557 13.8631947,0.9 C15.9596637,2.97606264 22.4659469,10.063311 22.4659469,18.3675615 C22.4659469,19.5845638 22.3213628,20.801566 22.1044867,21.9469799 C22.0321947,22.3765101 22.2490708,22.7344519 22.610531,22.949217 C24.8515841,24.0946309 26.5865929,25.9559284 27.5263894,28.2467562 L25.5745044,32.6852349 L23.0442832,32.6852349 C22.8996991,30.9671141 22.4659469,29.2489933 21.5984425,27.6740492 C21.3815664,27.3161074 21.0923982,27.1729306 20.7309381,27.1729306 Z" stroke-width="1.5"></path>
                    </g>
                </g>
            </g>
        </g>
    </g>
</svg>