<?xml version="1.0" encoding="UTF-8"?>
<svg width="57px" height="57px" viewBox="0 0 57 57" version="1.1" xmlns="http://www.w3.org/2000/svg" xmlns:xlink="http://www.w3.org/1999/xlink">
    <!-- Generator: Sketch 49 (51002) - http://www.bohemiancoding.com/sketch -->
    <title>internet_speed_3_3</title>
    <desc>Created with Sketch.</desc>
    <defs></defs>
    <g id="icons" stroke="none" stroke-width="1" fill="none" fill-rule="evenodd" opacity="0.7">
        <g transform="translate(-611.000000, -2240.000000)" id="Group" stroke="#000000">
            <g transform="translate(145.000000, 121.000000)">
                <g id="Fill-179" transform="translate(467.000000, 2120.000000)">
                    <path d="M55.2529,27.6396 C55.2529,42.8276 42.9399,55.1396 27.7529,55.1396 C12.5649,55.1396 0.2529,42.8276 0.2529,27.6396 C0.2529,12.4516 12.5649,0.1396 27.7529,0.1396 C42.9399,0.1396 55.2529,12.4516 55.2529,27.6396" stroke-width="1.5"></path>
                    <circle id="Oval" stroke-width="1.5" stroke-linecap="round" stroke-linejoin="round" cx="27.75" cy="27.75" r="22.25"></circle>
                    <path d="M27.5984809,21.0369128 C26.1100626,21.0369128 24.8157859,22.2695749 24.8157859,23.8266219 C24.8157859,25.3836689 26.0453488,26.6163311 27.5984809,26.6163311 C29.1516129,26.6163311 30.3811758,25.3836689 30.3811758,23.8266219 C30.316462,22.2695749 29.0868991,21.0369128 27.5984809,21.0369128 Z" id="Shape" stroke-width="1"></path>
                    <path d="M33.8110092,35.3098434 C33.48744,35.3098434 33.2285846,35.5044743 33.099157,35.7639821 C32.2578771,37.450783 31.2224557,39.00783 29.9928928,40.5 L25.2040689,40.5 C24.0392198,39.00783 23.0037985,37.450783 22.0978047,35.7639821 C21.9036632,35.3747204 21.3859525,35.1800895 20.9976695,35.3747204 C20.8682419,35.4395973 20.7388142,35.5693512 20.6093865,35.7639821 C19.8975343,37.1912752 19.4445375,38.6834452 19.3151098,40.3053691 L17.1148393,40.3053691 L15.4322796,36.3478747 C16.3382733,34.2718121 17.8914054,32.5850112 19.8328205,31.5469799 C20.1563897,31.352349 20.3505312,31.0279642 20.2858173,30.6387025 C20.026962,29.5357942 19.9622481,28.4977629 19.9622481,27.3948546 C19.9622481,22.7885906 22.1625186,18.5715884 24.0392198,15.8467562 C25.1393551,14.2897092 26.3042041,12.8624161 27.6631947,11.5 C29.539896,13.3814318 35.3641412,19.8042506 35.3641412,27.3299776 C35.3641412,28.4328859 35.2347136,29.5357942 35.0405721,30.5738255 C34.9758582,30.9630872 35.1699997,31.287472 35.4935689,31.4821029 C37.4996978,32.5201342 39.0528299,34.2069351 39.8941098,36.2829978 L38.1468362,40.3053691 L35.8818519,40.3053691 C35.7524243,38.7483221 35.3641412,37.1912752 34.5875752,35.7639821 C34.3934337,35.4395973 34.1345783,35.3098434 33.8110092,35.3098434 Z" id="Shape" stroke-width="1.5"></path>
                </g>
            </g>
        </g>
    </g>
</svg>