<?xml version="1.0" encoding="UTF-8"?>
<svg width="58px" height="57px" viewBox="0 0 58 57" version="1.1" xmlns="http://www.w3.org/2000/svg" xmlns:xlink="http://www.w3.org/1999/xlink">
    <!-- Generator: Sketch 49 (51002) - http://www.bohemiancoding.com/sketch -->
    <title>internet_speed_0_3</title>
    <desc>Created with Sketch.</desc>
    <defs></defs>
    <g id="icons" stroke="none" stroke-width="1" fill="none" fill-rule="evenodd" opacity="0.699999988">
        <g transform="translate(-611.000000, -861.000000)" id="Group" stroke="#000000">
            <g transform="translate(145.000000, 121.000000)">
                <g id="Fill-19" transform="translate(467.000000, 740.000000)">
                    <path d="M55.3521,28.3866 C55.3521,43.5746 43.0391,55.8866 27.8521,55.8866 C12.6641,55.8866 0.3521,43.5746 0.3521,28.3866 C0.3521,13.1986 12.6641,0.8866 27.8521,0.8866 C43.0391,0.8866 55.3521,13.1986 55.3521,28.3866" stroke-width="1.5"></path>
                    <path d="M27.8521,40.1025 C34.3421,40.1025 39.6021,34.8575 39.6021,28.3865 C39.6021,21.9165 34.3421,16.6705 27.8521,16.6705 C21.3621,16.6705 16.1011,21.9165 16.1011,28.3865 C16.1011,34.8575 21.3621,40.1025 27.8521,40.1025 Z" id="Stroke-21" stroke-width="1" stroke-linejoin="round"></path>
                    <path d="M27.8521,40.1025 C31.4201,40.1025 34.3131,34.8575 34.3131,28.3865 C34.3131,21.9165 31.4201,16.6705 27.8521,16.6705 C24.2831,16.6705 21.3901,21.9165 21.3901,28.3865 C21.3901,34.8575 24.2831,40.1025 27.8521,40.1025 Z" id="Stroke-23" stroke-width="1" stroke-linejoin="round"></path>
                    <path d="M27.8521,16.6708 L27.8521,40.1028" id="Stroke-25" stroke-width="1" stroke-linejoin="round"></path>
                    <path d="M16.1128,28.539 L39.6028,28.539" id="Stroke-27" stroke-width="1" stroke-linejoin="round"></path>
                    <path d="M17.9189,22.4882 L37.6319,22.4882" id="Stroke-29" stroke-width="1" stroke-linejoin="round"></path>
                    <path d="M18.2354,34.5907 L37.6324,34.5907" id="Stroke-31" stroke-width="1" stroke-linejoin="round"></path>
                </g>
            </g>
        </g>
    </g>
</svg>