<?xml version="1.0" encoding="UTF-8"?>
<svg width="56px" height="56px" viewBox="0 0 56 56" version="1.1" xmlns="http://www.w3.org/2000/svg" xmlns:xlink="http://www.w3.org/1999/xlink">
    <!-- Generator: Sketch 55.2 (78181) - https://sketchapp.com -->
    <title>interakt_tv</title>
    <desc>Created with Sketch.</desc>
    <g id="interakt_tv" stroke="none" stroke-width="1" fill="none" fill-rule="evenodd">
        <g id="146_ТВ-Общая-Copy">
            <rect id="Rectangle" x="0" y="0" width="56" height="56"></rect>
            <path d="M48.496,14.4666667 L48.5333333,14.504 L48.496,35.0373333 L7.46666667,35 L7.504,14.4666667 L48.496,14.4666667 L48.496,14.4666667 Z M48.496,12.6 L7.504,12.6 C6.45866667,12.6 5.6,13.4586667 5.6,14.504 L5.6,35 C5.6,36.0453333 6.45866667,36.904 7.504,36.904 L48.496,36.904 C49.5413333,36.904 50.4,36.0453333 50.4,35 L50.4,14.504 C50.4,13.4586667 49.5413333,12.6 48.496,12.6 L48.496,12.6 Z" id="Shape" fill="#000000" fill-rule="nonzero"></path>
            <path d="M27.9626667,36.7733333 C19.9173333,36.7733333 13.888,38.0053333 11.2,38.6773333 L11.2,40.6 C13.496,40.0026667 19.6746667,38.64 27.9626667,38.64 C36.3253333,38.64 42.5413333,40.0213333 44.8,40.6186667 L44.8,38.696 C42.1306667,38.0053333 36.0826667,36.7733333 27.9626667,36.7733333 Z" id="Path" fill="#000000" fill-rule="nonzero"></path>
        </g>
    </g>
</svg>