<?xml version="1.0" encoding="UTF-8"?>
<svg width="57px" height="57px" viewBox="0 0 57 57" version="1.1" xmlns="http://www.w3.org/2000/svg" xmlns:xlink="http://www.w3.org/1999/xlink">
    <!-- Generator: Sketch 49 (51002) - http://www.bohemiancoding.com/sketch -->
    <title>internet_antivirus_k_3</title>
    <desc>Created with Sketch.</desc>
    <defs></defs>
    <g id="icons" stroke="none" stroke-width="1" fill="none" fill-rule="evenodd" opacity="0.699999988">
        <g transform="translate(-612.000000, -1117.000000)" id="Group">
            <g transform="translate(145.000000, 121.000000)">
                <g id="Fill-37" transform="translate(468.000000, 996.000000)">
                    <path d="M55.0796,28.4589 C55.0796,43.6469 42.7666,55.9589 27.5796,55.9589 C12.3916,55.9589 0.0796,43.6469 0.0796,28.4589 C0.0796,13.2709 12.3916,0.9589 27.5796,0.9589 C42.7666,0.9589 55.0796,13.2709 55.0796,28.4589" stroke="#000000" stroke-width="1.5"></path>
                    <polygon id="Fill-242" fill="#000000" fill-rule="evenodd" points="14.582 15.1825 14.582 42.4205 41.557 15.1825 30.767 15.1825 22.609 23.4725 22.609 15.1825"></polygon>
                    
                </g>
                <g id="Fill-38" transform="translate(468.000000, 996.000000)">
                    <polygon id="Fill-243" fill="#000000" fill-rule="evenodd" points="33.333 29.2616 28.596 34.0656 34.188 39.6576 31.82 42.0266 41.228 42.0266 41.228 32.4866 38.86 34.8546"></polygon>
                </g>
            </g>
        </g>
    </g>
</svg>