<?xml version="1.0" encoding="UTF-8"?>
<svg width="57px" height="57px" viewBox="0 0 57 57" version="1.1" xmlns="http://www.w3.org/2000/svg" xmlns:xlink="http://www.w3.org/1999/xlink">
    <!-- Generator: Sketch 49 (51002) - http://www.bohemiancoding.com/sketch -->
    <title>internet_ip_3</title>
    <desc>Created with Sketch.</desc>
    <defs></defs>
    <g id="icons" stroke="none" stroke-width="1" fill="none" fill-rule="evenodd" opacity="0.699999988">
        <g transform="translate(-611.000000, -1900.000000)" id="Group" stroke="#000000">
            <g transform="translate(145.000000, 121.000000)">
                <g id="Fill-179" transform="translate(467.000000, 1780.000000)">
                    <path d="M55.2529,27.6396 C55.2529,42.8276 42.9399,55.1396 27.7529,55.1396 C12.5649,55.1396 0.2529,42.8276 0.2529,27.6396 C0.2529,12.4516 12.5649,0.1396 27.7529,0.1396 C42.9399,0.1396 55.2529,12.4516 55.2529,27.6396" stroke-width="1.5"></path>
                    <path d="M39.2695,24.6083 C38.3395,33.0483 30.3995,42.9923 27.8955,45.9973 C25.2485,42.9923 17.1655,33.0483 16.2355,24.6083 C16.1645,24.1073 16.1645,23.6783 16.1645,23.1773 C16.1645,16.7393 21.3145,11.5173 27.7525,11.5173 C34.1905,11.5173 39.3415,16.7393 39.3415,23.1063 C39.3415,23.6063 39.3415,24.1073 39.2695,24.6083 Z" id="Stroke-222" stroke-width="1.5" stroke-linejoin="round"></path>
                    <path d="M33.6348,23.3056 C33.6348,19.9826 30.9408,17.2876 27.6178,17.2876 C24.2948,17.2876 21.5998,19.9826 21.5998,23.3056 C21.5998,26.6286 24.2948,29.3226 27.6178,29.3226 C30.9408,29.3226 33.6348,26.6286 33.6348,23.3056 Z" id="Stroke-223" stroke-width="1" stroke-linejoin="round"></path>
                </g>
            </g>
        </g>
    </g>
</svg>