<?xml version="1.0" encoding="UTF-8"?>
<svg width="56px" height="56px" viewBox="0 0 56 56" version="1.1" xmlns="http://www.w3.org/2000/svg" xmlns:xlink="http://www.w3.org/1999/xlink">
    <!-- Generator: Sketch 55.2 (78181) - https://sketchapp.com -->
    <title>location</title>
    <desc>Created with Sketch.</desc>
    <defs>
        <polygon id="path-1" points="13 7.64830769 42.2923077 7.64830769 42.2923077 48.6543077 13 48.6543077"></polygon>
    </defs>
    <g id="location" stroke="none" stroke-width="1" fill="none" fill-rule="evenodd">
        <g id="Group-4">
            <rect id="Rectangle" x="0" y="0" width="56" height="56"></rect>
            <mask id="mask-2" fill="white">
                <use xlink:href="#path-1"></use>
            </mask>
            <g id="a"></g>
            <path d="M42.2923077,22.2664615 L42.2923077,22.4710769 L42.2923077,22.2664615 Z M27.6461538,7.64830769 C19.5584615,7.64830769 13,14.2832308 13,22.4721538 L13,22.6390769 C13,30.9507692 27.6504615,48.6543077 27.6504615,48.6543077 C27.6504615,48.6543077 42.1953846,31.066 42.2923077,22.3526154 C42.2276923,14.2196923 35.694,7.64830769 27.6461538,7.64830769 Z M27.6461538,9.37138462 C34.7150769,9.37138462 40.5121538,15.1986154 40.5692308,22.3343077 C40.5013846,28.3252308 32.1724615,40.1509231 27.6493846,45.9081538 C23.1004615,40.1326154 14.7230769,28.3273846 14.7230769,22.638 L14.7230769,22.4710769 C14.7230769,15.2470769 20.5212308,9.37030769 27.6461538,9.37030769 L27.6461538,9.37138462 Z" id="Shape" fill="#101828" fill-rule="nonzero" mask="url(#mask-2)"></path>
            <path d="M27.6461538,13.5046154 C22.7928454,13.5046154 18.8584615,17.4389992 18.8584615,22.2923077 C18.8584615,27.1456161 22.7928454,31.08 27.6461538,31.08 C32.4994623,31.08 36.4338462,27.1456161 36.4338462,22.2923077 C36.4338462,17.4389992 32.4994623,13.5046154 27.6461538,13.5046154 M27.6461538,15.2276923 C31.5458652,15.2324394 34.7060222,18.3925963 34.7107692,22.2923077 C34.7060222,26.192019 31.5458652,29.352176 27.6461538,29.3569231 C23.7464425,29.352176 20.5862855,26.192019 20.5815385,22.2923077 C20.5862855,18.3925963 23.7464425,15.2324394 27.6461538,15.2276923" id="Shape" fill="#101828" fill-rule="nonzero" mask="url(#mask-2)"></path>
        </g>
    </g>
</svg>