<?xml version="1.0" encoding="UTF-8"?>
<svg width="56px" height="56px" viewBox="0 0 56 56" version="1.1" xmlns="http://www.w3.org/2000/svg" xmlns:xlink="http://www.w3.org/1999/xlink">
    <!-- Generator: Sketch 55.2 (78181) - https://sketchapp.com -->
    <title>mob</title>
    <desc>Created with Sketch.</desc>
    <g id="mob" stroke="none" stroke-width="1" fill="none" fill-rule="evenodd">
        <g id="71_Мобильная-связь-Общая-Copy">
            <rect id="Rectangle" x="0" y="0" width="56" height="56"></rect>
            <path d="M40.5066667,7.46666667 C40.5626667,7.46666667 40.6,7.504 40.6,7.56 L40.6,48.44 C40.6,48.496 40.5626667,48.5333333 40.5066667,48.5333333 L14.56,48.5333333 C14.504,48.5333333 14.4666667,48.496 14.4666667,48.44 L14.4666667,7.56 C14.4666667,7.504 14.504,7.46666667 14.56,7.46666667 L40.5066667,7.46666667 L40.5066667,7.46666667 Z M40.5066667,5.6 L14.56,5.6 C13.4773333,5.6 12.6,6.47733333 12.6,7.56 L12.6,48.44 C12.6,49.5226667 13.4773333,50.4 14.56,50.4 L40.5066667,50.4 C41.5893333,50.4 42.4666667,49.5226667 42.4666667,48.44 L42.4666667,7.56 C42.4666667,6.47733333 41.5893333,5.6 40.5066667,5.6 L40.5066667,5.6 Z" id="Shape" fill="#000000" fill-rule="nonzero"></path>
            <path d="M27.5333333,46.6666667 C28.0373333,46.6666667 28.4666667,46.256 28.4666667,45.7333333 C28.4666667,45.2106667 28.0373333,44.8 27.5333333,44.8 C27.0293333,44.8 26.6,45.2106667 26.6,45.7333333 C26.6,46.256 27.0293333,46.6666667 27.5333333,46.6666667" id="Path" fill="#000000" fill-rule="nonzero"></path>
            <rect id="Rectangle" fill="#000000" fill-rule="nonzero" x="12.6" y="41.0666667" width="29.8666667" height="1.86666667"></rect>
        </g>
    </g>
</svg>