<?xml version="1.0" encoding="UTF-8"?>
<svg width="57px" height="57px" viewBox="0 0 57 57" version="1.1" xmlns="http://www.w3.org/2000/svg" xmlns:xlink="http://www.w3.org/1999/xlink">
    <!-- Generator: Sketch 49 (51002) - http://www.bohemiancoding.com/sketch -->
    <title>mobile_internet_3</title>
    <desc>Created with Sketch.</desc>
    <defs></defs>
    <g id="icons" stroke="none" stroke-width="1" fill="none" fill-rule="evenodd" opacity="0.699999988">
        <g transform="translate(-1315.000000, -615.000000)" id="Group">
            <g transform="translate(145.000000, 121.000000)">
                <g id="Fill-77" transform="translate(1171.000000, 494.000000)">
                    <path d="M55.2476,28.3705 C55.2476,43.5585 42.9346,55.8705 27.7476,55.8705 C12.5596,55.8705 0.2476,43.5585 0.2476,28.3705 C0.2476,13.1825 12.5596,0.8705 27.7476,0.8705 C42.9346,0.8705 55.2476,13.1825 55.2476,28.3705" stroke="#000000" stroke-width="1.5"></path>
                    <path d="M19.4771,38.6557 C25.2651,38.6557 29.9571,33.9637 29.9571,28.1757 C29.9571,22.3877 25.2651,17.6957 19.4771,17.6957 C13.6891,17.6957 8.9981,22.3877 8.9981,28.1757 C8.9981,33.9637 13.6891,38.6557 19.4771,38.6557 Z" id="Stroke-357" stroke="#000000" stroke-width="1.5" stroke-linejoin="round"></path>
                    <path d="M22.8774,18.2856 L38.2574,18.2856" id="Stroke-359" stroke="#000000" stroke-width="1" stroke-linejoin="round"></path>
                    <path d="M22.0073,38.4257 L38.2573,38.4257" id="Stroke-361" stroke="#000000" stroke-width="1" stroke-linejoin="round"></path>
                    <path d="M30.5571,41.3954 C30.5571,42.0524 30.0251,42.5854 29.3681,42.5854 C28.7101,42.5854 28.1771,42.0524 28.1771,41.3954 C28.1771,40.7384 28.7101,40.2054 29.3681,40.2054 C29.6841,40.2034 29.9881,40.3274 30.2111,40.5514 C30.4351,40.7744 30.5601,41.0794 30.5571,41.3954" id="Fill-363" fill="#000000" fill-rule="evenodd"></path>
                    <path d="M35.2974,12.3554 L23.4374,12.3554 C21.7804,12.3554 20.4374,13.6984 20.4374,15.3554 L20.4374,17.7454 C25.8034,18.2714 29.8954,22.7834 29.8954,28.1754 C29.8954,33.5674 25.8034,38.0794 20.4374,38.6054 L20.4374,41.3854 C20.4374,43.0424 21.7804,44.3854 23.4374,44.3854 L35.2974,44.3854 C36.9534,44.3854 38.2974,43.0424 38.2974,41.3854 L38.2974,15.3154 C38.2754,13.6744 36.9394,12.3554 35.2974,12.3554 Z" id="Stroke-365" stroke="#000000" stroke-width="1.5" stroke-linejoin="round"></path>
                    <path d="M19.5269,35.2055 C23.4539,35.2055 26.6369,32.0225 26.6369,28.0955 C26.6369,24.1685 23.4539,20.9855 19.5269,20.9855 C15.5999,20.9855 12.4179,24.1685 12.4179,28.0955 C12.4179,32.0225 15.5999,35.2055 19.5269,35.2055 Z" id="Stroke-367" stroke="#000000" stroke-width="1" stroke-linejoin="round"></path>
                    <path d="M19.5269,35.2055 C21.6869,35.2055 23.4369,32.0225 23.4369,28.0955 C23.4369,24.1685 21.6869,20.9855 19.5269,20.9855 C17.3679,20.9855 15.6179,24.1685 15.6179,28.0955 C15.6179,32.0225 17.3679,35.2055 19.5269,35.2055 Z" id="Stroke-369" stroke="#000000" stroke-width="1" stroke-linejoin="round"></path>
                    <path d="M19.5269,20.9858 L19.5269,35.2058" id="Stroke-371" stroke="#000000" stroke-width="1" stroke-linejoin="round"></path>
                    <path d="M12.4175,28.1855 L26.6375,28.1855" id="Stroke-373" stroke="#000000" stroke-width="1" stroke-linejoin="round"></path>
                    <path d="M13.5073,24.5155 L25.4373,24.5155" id="Stroke-375" stroke="#000000" stroke-width="1" stroke-linejoin="round"></path>
                    <path d="M13.7075,31.8554 L25.4365,31.8554" id="Stroke-377" stroke="#000000" stroke-width="1" stroke-linejoin="round"></path>
                </g>
            </g>
        </g>
    </g>
</svg>