<?xml version="1.0" encoding="UTF-8"?>
<svg width="57px" height="57px" viewBox="0 0 57 57" version="1.1" xmlns="http://www.w3.org/2000/svg" xmlns:xlink="http://www.w3.org/1999/xlink">
    <!-- Generator: Sketch 49 (51002) - http://www.bohemiancoding.com/sketch -->
    <title>mobile_rtk_app_3</title>
    <desc>Created with Sketch.</desc>
    <defs></defs>
    <g id="icons" stroke="none" stroke-width="1" fill="none" fill-rule="evenodd" opacity="0.699999988">
        <g transform="translate(-1315.000000, -731.000000)" id="Group">
            <g transform="translate(145.000000, 121.000000)">
                <g id="Fill-379" transform="translate(1171.000000, 611.000000)">
                    <path d="M55.2476,27.5009 C55.2476,42.6889 42.9346,55.0009 27.7476,55.0009 C12.5596,55.0009 0.2476,42.6889 0.2476,27.5009 C0.2476,12.3129 12.5596,0.0009 27.7476,0.0009 C42.9346,0.0009 55.2476,12.3129 55.2476,27.5009" stroke="#000000" stroke-width="1.5"></path>
                    <path d="M21.9097,17.4159 L38.2577,17.4159" id="Stroke-381" stroke="#000000" stroke-width="1" stroke-linejoin="round"></path>
                    <path d="M20.437,37.5566 L38.257,37.5566" id="Stroke-383" stroke="#000000" stroke-width="1" stroke-linejoin="round"></path>
                    <path d="M30.5571,40.5263 C30.5571,41.1833 30.0251,41.7163 29.3681,41.7163 C28.7101,41.7163 28.1771,41.1833 28.1771,40.5263 C28.1771,39.8693 28.7101,39.3363 29.3681,39.3363 C29.6841,39.3343 29.9881,39.4583 30.2111,39.6813 C30.4351,39.9053 30.5601,40.2103 30.5571,40.5263" id="Fill-385" fill="#FFFFFF" fill-rule="evenodd"></path>
                    <path d="M20.437,29.872 L20.437,40.517 C20.437,42.173 21.781,43.517 23.437,43.517 L35.297,43.517 C36.954,43.517 38.297,42.173 38.297,40.517 L38.297,14.446 C38.275,12.806 36.939,11.486 35.297,11.486 L23.437,11.486 C21.781,11.486 20.437,12.829 20.437,14.486 L20.437,16.876" id="Stroke-387" stroke="#000000" stroke-width="1.5" stroke-linejoin="round"></path>
                    <path d="M29.0669,23.038 L27.8139,24.13 L24.9829,26.516 L25.4679,28.497 L25.8729,30.114 L26.2769,31.731 C26.5199,32.823 25.9539,33.227 25.0239,32.661 L23.6079,31.772 L22.1929,30.923 L20.4149,29.872 L18.6749,30.923 L17.2599,31.772 L15.8449,32.661 C14.8749,33.227 14.3079,32.823 14.5909,31.731 L14.9959,30.114 L15.3999,28.497 L15.8449,26.516 L13.0549,24.13 L11.8009,23.038 C10.9529,22.31 11.1549,21.623 12.2869,21.542 L13.9449,21.421 L17.6249,21.138 L19.0399,17.741 L19.6859,16.205 C20.1309,15.153 20.8189,15.153 21.2629,16.205 L21.9099,17.741 L23.3259,21.138 L27.0039,21.421 L28.6629,21.542 C29.7139,21.663 29.9169,22.31 29.0669,23.038 Z" id="Stroke-423" stroke="#000000" stroke-width="1.5" stroke-linejoin="round"></path>
                </g>
            </g>
        </g>
    </g>
</svg>