<?xml version="1.0" encoding="UTF-8"?>
<svg width="80px" height="80px" viewBox="0 0 80 80" version="1.1" xmlns="http://www.w3.org/2000/svg" xmlns:xlink="http://www.w3.org/1999/xlink">
    <!-- Generator: Sketch 57.1 (83088) - https://sketch.com -->
    <title>017-B80px</title>
    <desc>Created with Sketch.</desc>
    <g id="017-B80px" stroke="none" stroke-width="1" fill="none" fill-rule="evenodd">
        <g>
            <g id="Group" transform="translate(10.000000, 12.500000)" fill="#101828" fill-rule="nonzero">
                <path d="M24.9,49.825 C20.925,49.025 17.425,44.675 15.375,38.55 L20.1,38.55 C20.05,37.8 20,37.025 20,36.25 C20,36.175 20,36.125 20,36.05 L14.675,36.05 C14,33.4 13.6,30.525 13.5,27.5 L21.9,27.5 C22.3,26.625 22.75,25.8 23.25,25 L13.5,25 C13.6,21.975 14,19.1 14.65,16.45 L33.575,16.45 C35.575,15.675 37.725,15.2 39.95,15.075 C38.675,10.45 36.65,6.55 34.15,3.9 C40.075,6 44.925,10.4 47.625,16 C48.775,16.35 49.85,16.825 50.9,17.35 C47.275,7.225 37.625,0 26.25,0 C26.25,0 26.225,0 26.225,0 C26.225,0 26.225,0 26.2,0 C26.175,0 26.175,0 26.15,0 C11.7,0.05 0,11.775 0,26.25 C0,40.725 11.7,52.45 26.15,52.5 C26.175,52.5 26.175,52.5 26.2,52.5 C26.2,52.5 26.2,52.5 26.225,52.5 C26.225,52.5 26.25,52.5 26.25,52.5 C26.675,52.5 27.075,52.45 27.5,52.425 C26.575,51.65 25.7,50.775 24.9,49.825 Z M27.5,2.625 C31.475,3.4 34.975,7.8 37.025,13.95 L27.5,13.95 L27.5,2.625 Z M25,2.625 L25,13.95 L15.4,13.95 C17.45,7.775 20.975,3.35 25,2.625 Z M18.225,3.925 C15.925,6.375 14.025,9.825 12.75,13.95 L5.975,13.95 C8.775,9.35 13.075,5.775 18.225,3.925 Z M4.65,16.45 L12.1,16.45 C11.45,19.1 11.1,22 11,25 L2.575,25 C2.725,21.975 3.45,19.075 4.65,16.45 Z M2.575,27.5 L11,27.5 C11.075,30.5 11.45,33.4 12.075,36.05 L4.65,36.05 C3.45,33.425 2.725,30.525 2.575,27.5 Z M5.975,38.55 L12.75,38.55 C14.025,42.675 15.925,46.125 18.225,48.575 C13.075,46.725 8.775,43.15 5.975,38.55 Z" id="Shape"></path>
                <polygon id="Rectangle" transform="translate(52.490080, 47.469565) rotate(-44.975691) translate(-52.490080, -47.469565) " points="51.2400919 45.6445823 53.7400681 45.6445823 53.7400681 49.2945477 51.2400919 49.2945477"></polygon>
                <polygon id="Rectangle" transform="translate(30.013677, 25.000823) rotate(-45.000000) translate(-30.013677, -25.000823) " points="28.7636895 23.17584 31.2636655 23.17584 31.2636655 26.825805 28.7636895 26.825805"></polygon>
                <polygon id="Rectangle" transform="translate(52.505678, 25.017428) rotate(-45.000000) translate(-52.505678, -25.017428) " points="50.680695 23.7674395 54.33066 23.7674395 54.33066 26.2674155 50.680695 26.2674155"></polygon>
                <polygon id="Rectangle" transform="translate(30.015750, 47.474895) rotate(-45.000000) translate(-30.015750, -47.474895) " points="28.1907675 46.224907 31.8407325 46.224907 31.8407325 48.724883 28.1907675 48.724883"></polygon>
                <rect id="Rectangle" x="40" y="18.525" width="2.5" height="3.65"></rect>
                <rect id="Rectangle" x="40" y="50.3" width="2.5" height="3.65"></rect>
                <rect id="Rectangle" x="23.15" y="35" width="4.025" height="2.5"></rect>
                <rect id="Rectangle" x="55.3" y="35" width="4.05" height="2.5"></rect>
                <polygon id="Rectangle" transform="translate(44.894500, 32.600920) rotate(-45.000000) translate(-44.894500, -32.600920) " points="41.5695319 31.350932 48.2194681 31.350932 48.2194681 33.850908 41.5695319 33.850908"></polygon>
                <path d="M41.25,33.925 C39.975,33.925 38.925,34.975 38.925,36.25 C38.925,37.525 39.975,38.575 41.25,38.575 C42.525,38.575 43.575,37.525 43.575,36.25 C43.575,34.975 42.55,33.925 41.25,33.925 L41.25,33.925 Z" id="Path"></path>
                <path d="M41.25,20 C50.2,20 57.5,27.3 57.5,36.25 C57.5,45.2 50.2,52.5 41.25,52.5 C32.3,52.5 25,45.2 25,36.25 C25,27.3 32.3,20 41.25,20 L41.25,20 Z M41.25,17.5 C30.9,17.5 22.5,25.9 22.5,36.25 C22.5,46.6 30.9,55 41.25,55 C51.6,55 60,46.6 60,36.25 C60,25.9 51.6,17.5 41.25,17.5 L41.25,17.5 Z" id="Shape"></path>
                <path d="M45,42.5 L45,45 L37.5,45 L37.5,42.5 L45,42.5 L45,42.5 Z M45.425,40 L37.1,40 C35.925,40 35,40.925 35,42.075 L35,45.4 C35,46.55 35.925,47.475 37.075,47.475 L45.4,47.475 C46.55,47.475 47.475,46.55 47.475,45.4 L47.475,42.075 C47.5,40.925 46.575,40 45.425,40 L45.425,40 Z" id="Shape"></path>
            </g>
            <rect id="Rectangle" x="0" y="0" width="80" height="80"></rect>
        </g>
    </g>
</svg>