<?xml version="1.0" encoding="UTF-8"?>
<svg width="56px" height="56px" viewBox="0 0 56 56" version="1.1" xmlns="http://www.w3.org/2000/svg" xmlns:xlink="http://www.w3.org/1999/xlink">
    <!-- Generator: Sketch 57.1 (83088) - https://sketch.com -->
    <title>247-W56px</title>
    <desc>Created with Sketch.</desc>
    <g id="NEW_icons" stroke="none" stroke-width="1" fill="none" fill-rule="evenodd">
        <g id="icons_UD" transform="translate(-1809.000000, -2365.000000)">
            <g id="247-W56px" transform="translate(1809.000000, 2365.000000)">
                <circle id="Oval-Copy-1439" fill="#101828" cx="28" cy="28" r="28"></circle>
                <g id="247-B32px-Copy" transform="translate(8.000000, 8.000000)">
                    <path d="M33.75,6.25 L33.75,33.75 L6.25,33.75 L6.25,6.25 L33.75,6.25 L33.75,6.25 Z M33.75,5 L6.25,5 C5.5625,5 5,5.5625 5,6.25 L5,33.75 C5,34.4375 5.5625,35 6.25,35 L33.75,35 C34.4375,35 35,34.4375 35,33.75 L35,6.25 C35,5.5625 34.4375,5 33.75,5 L33.75,5 Z" id="Shape" fill="#FFFFFF" fill-rule="nonzero"></path>
                    <path d="M31.25,8.75 L31.25,31.25 L8.75,31.25 L8.75,8.75 L31.25,8.75 L31.25,8.75 Z M31.25,7.5 L8.75,7.5 C8.0625,7.5 7.5,8.0625 7.5,8.75 L7.5,31.25 C7.5,31.9375 8.0625,32.5 8.75,32.5 L31.25,32.5 C31.9375,32.5 32.5,31.9375 32.5,31.25 L32.5,8.75 C32.5,8.0625 31.9375,7.5 31.25,7.5 L31.25,7.5 Z" id="Shape" fill="#FFFFFF" fill-rule="nonzero"></path>
                    <path d="M24.375,19.375 C24.725,19.375 25,19.65 25,20 C25,20.35 24.725,20.625 24.375,20.625 C24.025,20.625 23.75,20.35 23.75,20 C23.75,19.65 24.025,19.375 24.375,19.375 L24.375,19.375 Z M24.375,18.125 C23.3375,18.125 22.5,18.9625 22.5,20 C22.5,21.0375 23.3375,21.875 24.375,21.875 C25.4125,21.875 26.25,21.0375 26.25,20 C26.25,18.9625 25.4125,18.125 24.375,18.125 L24.375,18.125 Z" id="Shape" fill="#FFFFFF" fill-rule="nonzero"></path>
                    <path d="M15.625,19.375 C15.975,19.375 16.25,19.65 16.25,20 C16.25,20.35 15.975,20.625 15.625,20.625 C15.275,20.625 15,20.35 15,20 C15,19.65 15.275,19.375 15.625,19.375 L15.625,19.375 Z M15.625,18.125 C14.5875,18.125 13.75,18.9625 13.75,20 C13.75,21.0375 14.5875,21.875 15.625,21.875 C16.6625,21.875 17.5,21.0375 17.5,20 C17.5,18.9625 16.6625,18.125 15.625,18.125 L15.625,18.125 Z" id="Shape" fill="#FFFFFF" fill-rule="nonzero"></path>
                    <path d="M20.625,30.0125 L20.625,27.5 L19.375,27.5 L19.375,30.0125 L18.6625,29.9125 C13.725,29.25 10,24.9875 10,20 C10,15.0125 13.725,10.75 18.6625,10.0875 L19.375,9.9875 L19.375,12.5 L20.625,12.5 L20.625,9.9875 L21.3375,10.0875 C26.275,10.75 30,15.0125 30,20 C30,24.9875 26.275,29.25 21.3375,29.9125 L20.625,30.0125 Z M18.125,26.25 L21.875,26.25 L21.875,28.55 C25.8375,27.6875 28.75,24.125 28.75,20 C28.75,15.875 25.8375,12.3125 21.875,11.45 L21.875,13.75 L18.125,13.75 L18.125,11.45 C14.1625,12.3125 11.25,15.875 11.25,20 C11.25,24.125 14.1625,27.6875 18.125,28.55 L18.125,26.25 Z" id="Shape" fill="#FFFFFF" fill-rule="nonzero"></path>
                    <circle id="Oval" fill="#FFFFFF" fill-rule="nonzero" cx="20" cy="20" r="1"></circle>
                    <rect id="Rectangle" x="0" y="0" width="40" height="40"></rect>
                </g>
            </g>
        </g>
    </g>
</svg>