<?xml version="1.0" encoding="UTF-8"?>
<svg width="80px" height="80px" viewBox="0 0 80 80" version="1.1" xmlns="http://www.w3.org/2000/svg" xmlns:xlink="http://www.w3.org/1999/xlink">
    <!-- Generator: Sketch 57.1 (83088) - https://sketch.com -->
    <title>064-B80px</title>
    <desc>Created with Sketch.</desc>
    <g id="064-B80px" stroke="none" stroke-width="1" fill="none" fill-rule="evenodd">
        <g>
            <path d="M40,65 C40.675,65 41.25,64.45 41.25,63.75 C41.25,63.05 40.675,62.5 40,62.5 C39.325,62.5 38.75,63.05 38.75,63.75 C38.75,64.45 39.325,65 40,65" id="Path" fill="#101828" fill-rule="nonzero"></path>
            <rect id="Rectangle" fill="#101828" fill-rule="nonzero" x="20" y="57.5" width="40" height="2.5"></rect>
            <path d="M57.5,42.425 L57.5,67.35 C57.5,67.425 57.45,67.475 57.375,67.475 L22.625,67.475 C22.55,67.5 22.5,67.45 22.5,67.375 L22.5,42.45 C22.1,42.475 21.675,42.5 21.25,42.5 C20.825,42.5 20.4,42.475 20,42.425 L20,67.35 C20,68.825 21.175,70 22.625,70 L57.375,70 C58.825,70 60,68.825 60,67.375 L60,42.45 C59.6,42.475 59.175,42.5 58.75,42.5 C58.325,42.5 57.9,42.475 57.5,42.425 Z" id="Path" fill="#101828" fill-rule="nonzero"></path>
            <path d="M57.375,10 L22.625,10 C21.175,10 20,11.175 20,12.625 L20,15.05 C20.4,15.025 20.825,15 21.25,15 C21.675,15 22.1,15.025 22.5,15.075 L22.5,12.625 C22.5,12.55 22.55,12.5 22.625,12.5 L57.375,12.5 C57.45,12.5 57.5,12.55 57.5,12.625 L57.5,15.05 C57.9,15.025 58.325,15 58.75,15 C59.175,15 59.6,15.025 60,15.075 L60,12.625 C60,11.175 58.825,10 57.375,10 Z" id="Path" fill="#101828" fill-rule="nonzero"></path>
            <path d="M21.25,20 C26.075,20 30,23.925 30,28.75 C30,33.575 26.075,37.5 21.25,37.5 C16.425,37.5 12.5,33.575 12.5,28.75 C12.5,23.925 16.425,20 21.25,20 L21.25,20 Z M21.25,17.5 C15.025,17.5 10,22.525 10,28.75 C10,34.975 15.025,40 21.25,40 C27.475,40 32.5,34.975 32.5,28.75 C32.5,22.525 27.475,17.5 21.25,17.5 L21.25,17.5 Z" id="Shape" fill="#101828" fill-rule="nonzero"></path>
            <path d="M58.75,20 C63.575,20 67.5,23.925 67.5,28.75 C67.5,33.575 63.575,37.5 58.75,37.5 C53.925,37.5 50,33.575 50,28.75 C50,23.925 53.925,20 58.75,20 L58.75,20 Z M58.75,17.5 C52.525,17.5 47.5,22.525 47.5,28.75 C47.5,34.975 52.525,40 58.75,40 C64.975,40 70,34.975 70,28.75 C70,22.525 64.975,17.5 58.75,17.5 L58.75,17.5 Z" id="Shape" fill="#101828" fill-rule="nonzero"></path>
            <path d="M38.45,47.775 C38.3,47.775 38.15,47.775 38,47.775 C38,47.775 37.975,47.775 37.975,47.775 C37.85,47.775 37.75,47.75 37.625,47.75 C37.475,47.725 37.325,47.725 37.175,47.675 C36.95,47.625 36.725,47.575 36.5,47.5 C36.05,47.35 35.625,47.15 35.225,46.9 C35.225,46.9 35.2,46.9 35.2,46.875 C35.725,46.925 36.225,46.9 36.725,46.75 C37.225,46.6 37.675,46.375 38.1,46.05 C37.825,46.05 37.575,45.975 37.325,45.875 C37.075,45.75 36.85,45.6 36.675,45.4 C36.5,45.2 36.35,44.975 36.275,44.7 C36.575,44.75 36.85,44.75 37.15,44.675 C36.7,44.575 36.325,44.35 36.025,43.975 C35.675,43.55 35.575,43.025 35.6,42.725 C35.725,42.8 35.875,42.85 36.025,42.9 C36.175,42.95 36.425,42.975 36.475,42.975 C36.05,42.675 35.775,42.3 35.675,41.775 C35.55,41.275 35.625,40.8 35.9,40.35 C36.4,40.95 37,41.45 37.7,41.8 C38.4,42.15 39.15,42.35 39.95,42.4 C39.95,42.4 39.95,42.375 39.95,42.375 C39.925,42.275 39.925,42.175 39.9,42.075 C39.875,41.875 39.9,41.675 39.95,41.475 C40.05,41.075 40.25,40.725 40.575,40.45 C40.8,40.25 41.025,40.125 41.3,40.05 C41.425,40 41.55,39.975 41.7,39.975 C41.725,39.975 41.75,39.975 41.775,39.975 C41.85,39.975 41.9,39.975 41.975,39.975 C41.975,39.975 42,39.975 42,39.975 C42.1,39.975 42.175,40 42.275,40 C42.5,40.05 42.725,40.125 42.9,40.25 C43.05,40.35 43.175,40.45 43.3,40.575 C43.3,40.575 43.325,40.6 43.325,40.6 C43.575,40.55 43.8,40.475 44.05,40.375 C44.225,40.3 44.375,40.225 44.525,40.125 C44.525,40.125 44.525,40.125 44.55,40.125 C44.4,40.575 44.1,40.95 43.7,41.2 C43.775,41.2 43.85,41.175 43.925,41.175 C44,41.15 44.075,41.15 44.15,41.125 C44.225,41.1 44.3,41.075 44.375,41.075 C44.45,41.05 44.525,41.025 44.6,41 C44.675,40.975 44.75,40.95 44.825,40.925 C44.825,40.925 44.825,40.95 44.825,40.95 C44.775,41.025 44.725,41.1 44.675,41.15 C44.5,41.4 44.275,41.6 44.05,41.8 C44,41.85 43.95,41.875 43.9,41.925 C43.9,41.925 43.875,41.95 43.875,41.95 C43.875,41.975 43.875,41.975 43.875,42 C43.875,42.325 43.875,42.625 43.825,42.95 C43.8,43.125 43.775,43.3 43.725,43.45 C43.65,43.725 43.575,44.025 43.45,44.3 C43.275,44.725 43.075,45.125 42.8,45.5 C42.55,45.875 42.25,46.2 41.9,46.475 C41.7,46.65 41.5,46.8 41.275,46.95 C40.9,47.175 40.5,47.375 40.1,47.5 C39.875,47.575 39.65,47.625 39.4,47.675 C39.3,47.7 39.175,47.7 39.05,47.725 C38.975,47.725 38.875,47.75 38.8,47.75 C38.65,47.775 38.575,47.775 38.45,47.775 C38.475,47.775 38.45,47.775 38.45,47.775 Z" id="Path" fill="#101828" fill-rule="nonzero"></path>
            <path d="M62.125,27.625 C62.025,28.35 61.925,29.025 61.85,29.675 C61.825,29.85 61.75,29.9 61.575,29.9 C61.125,29.9 60.675,29.9 60.225,29.9 C59.825,29.9 59.825,29.9 59.825,30.325 C59.825,31.475 59.825,32.625 59.825,33.775 C59.825,34.1 59.8,34.425 59.8,34.775 C59.8,34.95 59.725,35 59.55,35 C58.95,35 58.35,35 57.725,35 C57.5,35 57.475,34.9 57.475,34.725 C57.45,33.25 57.45,31.775 57.425,30.3 C57.425,29.925 57.425,29.925 57.05,29.925 C56.575,29.925 56.075,29.9 55.6,29.925 C55.425,29.925 55.325,29.875 55.325,29.675 C55.35,29.05 55.375,28.4 55.375,27.775 C55.375,27.6 55.45,27.575 55.6,27.575 C56.1,27.575 56.625,27.575 57.125,27.575 C57.35,27.575 57.425,27.5 57.425,27.275 C57.425,26.575 57.425,25.875 57.475,25.175 C57.575,23.725 58.7,22.675 60.125,22.625 C60.725,22.6 61.325,22.625 61.95,22.625 C62.125,22.625 62.2,22.7 62.2,22.875 C62.175,23.45 62.15,24.025 62.15,24.6 C62.15,24.775 62.05,24.8 61.9,24.8 C61.45,24.8 61,24.8 60.575,24.85 C60.1,24.9 59.85,25.225 59.825,25.7 C59.8,26.25 59.825,26.775 59.8,27.325 C59.8,27.525 59.9,27.575 60.05,27.575 C60.625,27.575 61.225,27.6 61.8,27.625 C61.925,27.6 62,27.625 62.125,27.625 Z" id="Path" fill="#101828" fill-rule="nonzero"></path>
            <path d="M27.825,32.125 C27.725,32.45 27.475,32.475 27.2,32.475 C26.575,32.5 25.95,32.5 25.325,32.5 C24.925,32.5 24.6,32.275 24.325,32 C24.05,31.725 23.8,31.4 23.525,31.125 C23.425,31.025 23.3,30.9 23.175,30.825 C22.975,30.675 22.825,30.7 22.65,30.9 C22.45,31.125 22.4,31.4 22.375,31.7 C22.375,31.8 22.375,31.9 22.35,32 C22.325,32.325 22.2,32.45 21.9,32.45 C21.25,32.475 20.6,32.525 19.95,32.3 C18.975,31.975 18.175,31.4 17.525,30.625 C16.35,29.175 15.45,27.55 14.7,25.85 C14.575,25.575 14.65,25.4 14.975,25.35 C15.05,25.35 15.1,25.35 15.175,25.35 C15.75,25.35 16.3,25.35 16.875,25.35 C17.175,25.35 17.325,25.475 17.475,25.725 C17.825,26.425 18.15,27.125 18.525,27.8 C18.675,28.1 18.875,28.35 19.15,28.55 C19.25,28.625 19.375,28.7 19.525,28.65 C19.575,28.625 19.625,28.6 19.65,28.55 C19.775,28.35 19.8,28.125 19.825,27.9 C19.875,27.45 19.9,27.025 19.85,26.575 C19.825,26.375 19.8,26.175 19.75,26 C19.675,25.725 19.475,25.625 19.225,25.55 C19.175,25.525 19.125,25.525 19.025,25.5 C19.075,25.425 19.1,25.375 19.125,25.325 C19.3,25.15 19.5,25.075 19.75,25.05 C20.45,24.975 21.15,24.95 21.85,25.075 C22.2,25.125 22.325,25.25 22.35,25.65 C22.375,26.075 22.35,26.5 22.35,26.9 C22.35,27.325 22.35,27.75 22.375,28.175 C22.375,28.275 22.425,28.375 22.475,28.475 C22.6,28.65 22.775,28.675 22.925,28.525 C23.15,28.3 23.35,28.075 23.525,27.825 C24,27.175 24.375,26.45 24.65,25.7 C24.775,25.375 24.875,25.325 25.2,25.325 C25.9,25.325 26.6,25.325 27.3,25.3 C27.5,25.3 27.7,25.325 27.825,25.525 C27.825,25.6 27.825,25.65 27.825,25.725 C27.775,25.825 27.75,25.95 27.7,26.05 C27.45,26.6 27.075,27.075 26.725,27.575 C26.425,28 26.1,28.4 25.8,28.825 C25.6,29.125 25.625,29.35 25.875,29.6 C26.175,29.9 26.5,30.2 26.775,30.5 C27.2,30.925 27.625,31.35 27.8,31.95 C27.825,32.05 27.825,32.075 27.825,32.125 Z" id="Path" fill="#101828" fill-rule="nonzero"></path>
            <path d="M40,35 C44.825,35 48.75,38.925 48.75,43.75 C48.75,48.575 44.825,52.5 40,52.5 C35.175,52.5 31.25,48.575 31.25,43.75 C31.25,38.925 35.175,35 40,35 L40,35 Z M40,32.5 C33.775,32.5 28.75,37.525 28.75,43.75 C28.75,49.975 33.775,55 40,55 C46.225,55 51.25,49.975 51.25,43.75 C51.25,37.525 46.225,32.5 40,32.5 L40,32.5 Z" id="Shape" fill="#101828" fill-rule="nonzero"></path>
            <rect id="Rectangle" x="0" y="0" width="80" height="80"></rect>
        </g>
    </g>
</svg>