<?xml version="1.0" encoding="UTF-8"?>
<svg width="32px" height="32px" viewBox="0 0 32 32" version="1.1" xmlns="http://www.w3.org/2000/svg" xmlns:xlink="http://www.w3.org/1999/xlink">
    <!-- Generator: Sketch 58 (84663) - https://sketch.com -->
    <title>252-B32px</title>
    <desc>Created with Sketch.</desc>
    <g id="252-B32px" stroke="none" stroke-width="1" fill="none" fill-rule="evenodd">
        <g>
            <rect id="Rectangle" x="0" y="0" width="32" height="32"></rect>
            <path d="M22.47,17.85 C24.95,17.87 26.95,19.91 26.93,22.39 C26.91,24.87 24.87,26.87 22.39,26.85 C19.91,26.83 17.91,24.79 17.93,22.31 C17.95,19.83 19.99,17.82 22.47,17.85 L22.47,17.85 Z M22.48,16.85 C19.44,16.82 16.96,19.26 16.93,22.3 C16.9,25.34 19.34,27.82 22.38,27.85 C25.42,27.88 27.9,25.44 27.93,22.4 C27.96,19.36 25.52,16.87 22.48,16.85 L22.48,16.85 Z" id="Shape" fill="#101828" fill-rule="nonzero"></path>
            <path d="M22.97,17.85 L21.97,17.84 C21.14,17.83 20.48,17.15 20.48,16.33 C20.49,15.5 21.17,14.84 21.99,14.84 L22.99,14.85 C23.82,14.86 24.48,15.54 24.48,16.36 C24.48,17.19 23.8,17.86 22.97,17.85 Z M21.99,15.84 C21.71,15.84 21.49,16.06 21.49,16.34 C21.49,16.62 21.71,16.84 21.99,16.84 L22.99,16.85 C23.27,16.85 23.49,16.63 23.49,16.35 C23.49,16.07 23.27,15.85 22.99,15.85 L21.99,15.84 Z" id="Shape" fill="#101828" fill-rule="nonzero"></path>
            <path d="M22.97,17.85 L21.97,17.84 C21.14,17.83 20.48,17.15 20.48,16.33 C20.49,15.5 21.17,14.84 21.99,14.84 L22.99,14.85 C23.82,14.86 24.48,15.54 24.48,16.36 C24.48,17.19 23.8,17.86 22.97,17.85 Z M21.99,15.84 C21.71,15.84 21.49,16.06 21.49,16.34 C21.49,16.62 21.71,16.84 21.99,16.84 L22.99,16.85 C23.27,16.85 23.49,16.63 23.49,16.35 C23.49,16.07 23.27,15.85 22.99,15.85 L21.99,15.84 Z" id="Shape" fill="#101828" fill-rule="nonzero"></path>
            <rect id="Rectangle" fill="#101828" fill-rule="nonzero" transform="translate(23.439011, 22.354843) rotate(-89.470785) translate(-23.439011, -22.354843) " x="22.9389896" y="20.8547788" width="1.00004266" height="3.00012798"></rect>
            <rect id="Rectangle" fill="#101828" fill-rule="nonzero" transform="translate(22.452830, 21.031404) rotate(-89.536566) translate(-22.452830, -21.031404) " x="21.2677915" y="20.5313876" width="2.37007753" height="1.00003271"></rect>
            <path d="M19.3,16.73 C19.3,16.73 20,16.04 20.01,16.02 L19.38,15.36 C19.17,15.14 18.89,15.03 18.61,15.03 C18.34,15.03 18.06,15.13 17.85,15.33 L16.09,17.01 C16.09,17.01 13.95,16.04 12.76,14.78 C11.57,13.52 10.7,11.34 10.7,11.34 L12.46,9.66 C12.9,9.25 12.92,8.56 12.51,8.13 L8.59,4.03 C8.38,3.81 8.1,3.7 7.82,3.7 C7.55,3.7 7.27,3.8 7.06,4 L4.41,6.51 C4.16,6.75 4.04,7.1 4.08,7.45 C4.65,12.67 9.55,17.82 9.55,17.82 C9.55,17.82 12.33,20.73 15.95,22.54 C15.95,22.45 15.94,22.37 15.94,22.28 C15.94,22 15.97,21.72 16.01,21.44 C12.79,19.73 10.31,17.16 10.28,17.12 C10.23,17.07 5.61,12.14 5.08,7.33 C5.08,7.3 5.08,7.25 5.11,7.22 L7.75,4.71 C7.76,4.71 7.78,4.7 7.81,4.7 C7.84,4.7 7.86,4.72 7.86,4.72 L11.77,8.83 C11.8,8.86 11.79,8.92 11.76,8.95 L10,10.63 L9.51,11.09 L9.76,11.72 C9.8,11.82 10.71,14.1 12.02,15.49 C13.34,16.88 15.57,17.9 15.67,17.94 L16.28,18.22 L16.77,17.76 L18.53,16.08 C18.55,16.06 18.57,16.05 18.6,16.05 C18.63,16.05 18.65,16.07 18.65,16.07 L19.3,16.73 Z" id="Path" fill="#101828" fill-rule="nonzero"></path>
        </g>
    </g>
</svg>