<?xml version="1.0" encoding="UTF-8"?>
<svg width="80px" height="80px" viewBox="0 0 80 80" version="1.1" xmlns="http://www.w3.org/2000/svg" xmlns:xlink="http://www.w3.org/1999/xlink">
    <!-- Generator: Sketch 54.1 (76490) - https://sketchapp.com -->
    <title>006-G80px</title>
    <desc>Created with Sketch.</desc>
    <g id="NEW_icons" stroke="none" stroke-width="1" fill="none" fill-rule="evenodd">
        <g id="icons_UD_new-Copy" transform="translate(-768.000000, -1077.000000)">
            <g id="006-G80px" transform="translate(768.000000, 1077.000000)">
                <circle id="Oval-Copy-114" fill="#E3E8EC" cx="40" cy="40" r="40"></circle>
                <g id="006-B32px-Copy-7" transform="translate(12.000000, 12.000000)">
                    <path d="M36.7325,8.75 L36.7325,8.75 L36.7325,36.75 L19.25,36.7325 L19.2675,8.75 L36.7325,8.75 L36.7325,8.75 Z M36.7325,7 L19.25,7 C18.2875,7 17.5,7.7875 17.5,8.7675 L17.5,36.75 C17.5,37.73 18.2875,38.5175 19.2675,38.5175 L36.75,38.5175 C37.73,38.5175 38.5175,37.73 38.5175,36.75 L38.5175,8.7675 C38.5,7.7875 37.7125,7 36.7325,7 L36.7325,7 Z" id="Shape" fill="#101828" fill-rule="nonzero"></path>
                    <path d="M36.75,45.5 L36.7675,47.25 L19.25,47.2675 L19.2325,45.5 L36.75,45.5 L36.75,45.5 Z M36.7675,43.75 L19.2325,43.75 C18.2875,43.75 17.5,44.5375 17.5,45.4825 L17.5,47.25 C17.5,48.2125 18.2875,48.9825 19.2325,48.9825 L36.75,48.9825 C37.7125,48.9825 38.4825,48.195 38.4825,47.25 L38.4825,45.4825 C38.5,44.5375 37.7125,43.75 36.7675,43.75 L36.7675,43.75 Z" id="Shape" fill="#101828" fill-rule="nonzero"></path>
                    <path d="M31.5,38.5 L31.5,43.75 L24.5,43.75 L24.5,38.5 L31.5,38.5 L31.5,38.5 Z M33.25,36.75 L22.75,36.75 L22.75,45.5 L33.25,45.5 L33.25,36.75 L33.25,36.75 Z" id="Shape" fill="#101828" fill-rule="nonzero"></path>
                    <path d="M28,14 C29.925,14 31.5,15.575 31.5,17.5 C31.5,19.425 29.925,21 28,21 C26.075,21 24.5,19.425 24.5,17.5 C24.5,15.575 26.075,14 28,14 L28,14 Z M28,12.25 C25.095,12.25 22.75,14.595 22.75,17.5 C22.75,20.405 25.095,22.75 28,22.75 C30.905,22.75 33.25,20.405 33.25,17.5 C33.25,14.595 30.905,12.25 28,12.25 L28,12.25 Z" id="Shape" fill="#101828" fill-rule="nonzero"></path>
                    <circle id="Oval" fill="#101828" fill-rule="nonzero" cx="28" cy="29.75" r="1.75"></circle>
                    <rect id="Rectangle" x="0" y="0" width="56" height="56"></rect>
                </g>
            </g>
        </g>
    </g>
</svg>