<?xml version="1.0" encoding="UTF-8"?>
<svg width="32px" height="32px" viewBox="0 0 32 32" version="1.1" xmlns="http://www.w3.org/2000/svg" xmlns:xlink="http://www.w3.org/1999/xlink">
    <!-- Generator: Sketch 58 (84663) - https://sketch.com -->
    <title>261-B32px</title>
    <desc>Created with Sketch.</desc>
    <g id="261-B32px" stroke="none" stroke-width="1" fill="none" fill-rule="evenodd">
        <g>
            <rect id="Rectangle" fill="#101828" fill-rule="nonzero" x="7" y="21.98" width="6" height="1"></rect>
            <rect id="Rectangle" fill="#101828" fill-rule="nonzero" x="7" y="23.98" width="6" height="1"></rect>
            <path d="M20.99,5.98 L20.99,14.04 C21.16,14.03 21.33,14.01 21.5,14.01 C21.67,14.01 21.83,14.02 21.99,14.03 L21.99,6.98 L22.99,6.98 L22.99,14.16 C23.33,14.23 23.67,14.33 23.99,14.44 L23.99,5.98 L20.99,5.98 Z" id="Path" fill="#101828" fill-rule="nonzero"></path>
            <g id="Group" transform="translate(4.000000, 3.000000)" fill="#101828" fill-rule="nonzero">
                <path d="M21.95,25 L22,25 L22,24.97 C21.98,24.98 21.97,24.99 21.95,25 Z" id="Path"></path>
                <path d="M13.82,24 L1,24 L1,3.48 L2,5.98 L16,5.98 L17,3.48 L17,13.18 C17.32,13.1 17.66,13.05 18,13.02 L18,4 L19,4 L19,5 L19,13.02 C19.34,13.05 19.68,13.1 20,13.18 L20,6 L21,6 L21,13.5 C21.35,13.65 21.68,13.83 22,14.03 L22,5 L20,5 L20,3 L18,3 L18,1 L17.99,1 L18,0.98 L0,0.98 L0.01,1 L0,1 L0,25 L15.05,25 C14.6,24.72 14.18,24.38 13.82,24 Z M16.52,2 L15.33,4.98 L2.68,4.98 L1.48,2 L16.52,2 Z" id="Shape"></path>
            </g>
            <path d="M22.5,18 C24.98,18 27,20.02 27,22.5 C27,24.98 24.98,27 22.5,27 C20.02,27 18,24.98 18,22.5 C18,20.02 20.02,18 22.5,18 L22.5,18 Z M22.5,17 C19.46,17 17,19.46 17,22.5 C17,25.54 19.46,28 22.5,28 C25.54,28 28,25.54 28,22.5 C28,19.46 25.54,17 22.5,17 L22.5,17 Z" id="Shape" fill="#101828" fill-rule="nonzero"></path>
            <path d="M22.15,21.06 L21.14,20.01 C21.03,19.9 20.86,19.9 20.75,20.01 L20.08,20.66 C20.01,20.72 19.99,20.81 20,20.9 C20.16,22.24 21.43,23.55 21.43,23.55 C21.43,23.55 22.69,24.85 24.04,25.07 C24.13,25.08 24.21,25.05 24.28,24.99 L24.95,24.34 C25.06,24.23 25.06,24.06 24.96,23.95 L23.95,22.9 C23.84,22.79 23.67,22.79 23.56,22.9 L23.11,23.33 C23.11,23.33 22.56,23.09 22.25,22.77 C21.94,22.45 21.71,21.89 21.71,21.89 L22.16,21.46 C22.25,21.34 22.25,21.17 22.15,21.06 Z" id="Path" fill="#101828" fill-rule="nonzero"></path>
            <rect id="Rectangle" x="0" y="0" width="32" height="32"></rect>
        </g>
    </g>
</svg>