<?xml version="1.0" encoding="UTF-8"?>
<svg width="80px" height="80px" viewBox="0 0 80 80" version="1.1" xmlns="http://www.w3.org/2000/svg" xmlns:xlink="http://www.w3.org/1999/xlink">
    <!-- Generator: Sketch 54.1 (76490) - https://sketchapp.com -->
    <title>005-W80px</title>
    <desc>Created with Sketch.</desc>
    <g id="NEW_icons" stroke="none" stroke-width="1" fill="none" fill-rule="evenodd">
        <g id="icons_UD_new-Copy" transform="translate(-2151.000000, -827.000000)">
            <g id="005-W80px" transform="translate(2151.000000, 827.000000)">
                <circle id="Oval-Copy-93" fill="#101828" cx="40" cy="40" r="40"></circle>
                <g id="005-B32px-Copy-8" transform="translate(12.000000, 12.000000)">
                    <path d="M28,8.75 C32.83,8.75 36.75,12.67 36.75,17.5 C36.75,22.33 32.83,26.25 28,26.25 C23.17,26.25 19.25,22.33 19.25,17.5 C19.25,12.67 23.17,8.75 28,8.75 L28,8.75 Z M28,7 C22.2075,7 17.5,11.7075 17.5,17.5 C17.5,23.2925 22.2075,28 28,28 C33.7925,28 38.5,23.2925 38.5,17.5 C38.5,11.7075 33.7925,7 28,7 L28,7 Z" id="Shape" fill="#FFFFFF" fill-rule="nonzero"></path>
                    <path d="M12.25,49 L12.25,38.5 C12.25,35.6125 14.6125,33.25 17.5,33.25 L38.5,33.25 C41.3875,33.25 43.75,35.6125 43.75,38.5 L43.75,49 L45.5,49 L45.5,38.5 C45.5,34.6325 42.3675,31.5 38.5,31.5 L17.5,31.5 C13.6325,31.5 10.5,34.6325 10.5,38.5 L10.5,49 L12.25,49 Z" id="Path" fill="#FFFFFF" fill-rule="nonzero"></path>
                    <rect id="Rectangle" x="0" y="0" width="56" height="56"></rect>
                </g>
            </g>
        </g>
    </g>
</svg>