<?xml version="1.0" encoding="UTF-8"?>
<svg width="80px" height="80px" viewBox="0 0 80 80" version="1.1" xmlns="http://www.w3.org/2000/svg" xmlns:xlink="http://www.w3.org/1999/xlink">
    <!-- Generator: Sketch 54.1 (76490) - https://sketchapp.com -->
    <title>148-G80px</title>
    <desc>Created with Sketch.</desc>
    <g id="NEW_icons" stroke="none" stroke-width="1" fill="none" fill-rule="evenodd">
        <g id="icons_UD_new-Copy" transform="translate(-766.000000, -18911.000000)">
            <g id="148-G80px" transform="translate(766.000000, 18911.000000)">
                <circle id="Oval-Copy-10" fill="#E3E8EC" cx="40" cy="40" r="40"></circle>
                <g id="148-B32px-Copy-7" transform="translate(12.000000, 12.000000)">
                    <path d="M28.875,41.125 C28.35,41.125 28,41.475 28,42 C28,42.525 28.35,42.875 28.875,42.875 C29.4,42.875 29.75,42.525 29.75,42 C29.75,41.475 29.4,41.125 28.875,41.125 L28.875,41.125 Z" id="Path" fill="#101828" fill-rule="nonzero"></path>
                    <path d="M47.075,24.5 C47.25,24.5 47.25,24.5 47.075,24.5 L47.25,43.575 C47.25,43.575 47.25,43.75 47.075,43.75 L36.75,43.75 C36.75,43.75 36.575,43.75 36.575,43.575 L36.575,24.675 C36.575,24.675 36.575,24.5 36.75,24.5 L47.075,24.5 L47.075,24.5 Z M47.075,22.75 L36.75,22.75 C35.7,22.75 34.825,23.625 34.825,24.675 L34.825,43.75 C34.825,44.8 35.7,45.675 36.75,45.675 L47.075,45.675 C48.125,45.675 49,44.8 49,43.75 L49,24.675 C49,23.625 48.125,22.75 47.075,22.75 L47.075,22.75 Z" id="Shape" fill="#101828" fill-rule="nonzero"></path>
                    <rect id="Rectangle" fill="#101828" fill-rule="nonzero" x="35" y="38.5" width="14" height="1.75"></rect>
                    <circle id="Oval" fill="#101828" fill-rule="nonzero" cx="42" cy="42" r="1"></circle>
                    <path d="M17.5,35.7 C15.225,36.05 13.475,36.4 12.25,36.75 L12.25,38.5 C13.3,38.325 15.05,37.8 17.5,37.45 L17.5,35.7 Z" id="Path" fill="#101828" fill-rule="nonzero"></path>
                    <path d="M47.25,12.25 L8.75,12.25 C7.875,12.25 7,13.125 7,14 L7,33.25 C7,34.3 7.875,35 8.75,35 L17.5,35 L17.5,33.25 L8.75,33.25 L8.75,14 L47.25,14 L47.25,14 L47.25,21 L48.475,21 C48.65,21 48.825,21 49,21.175 L49,14 C49,13.125 48.125,12.25 47.25,12.25 Z" id="Path" fill="#101828" fill-rule="nonzero"></path>
                    <path d="M33.25,43.75 L21.175,43.75 C21.175,43.75 21,43.75 21,43.575 L21,40.25 L33.25,40.25 L33.25,38.5 L21,38.5 L21,19.425 C21,19.425 21,19.25 21.175,19.25 L36.75,19.25 C36.75,19.25 36.925,19.25 36.925,19.425 L36.925,21 L38.675,21 L38.675,19.425 C38.675,18.375 37.8,17.5 36.75,17.5 L21.175,17.5 C20.125,17.5 19.25,18.375 19.25,19.425 L19.25,43.75 C19.25,44.8 20.125,45.675 21.175,45.675 L33.425,45.675 C33.425,45.5 33.25,45.325 33.25,45.15 L33.25,43.75 Z" id="Path" fill="#101828" fill-rule="nonzero"></path>
                    <rect id="Rectangle" x="0" y="0" width="56" height="56"></rect>
                </g>
            </g>
        </g>
    </g>
</svg>