<?xml version="1.0" encoding="UTF-8"?>
<svg width="32px" height="32px" viewBox="0 0 32 32" version="1.1" xmlns="http://www.w3.org/2000/svg" xmlns:xlink="http://www.w3.org/1999/xlink">
    <!-- Generator: Sketch 57.1 (83088) - https://sketch.com -->
    <title>007-B32px</title>
    <desc>Created with Sketch.</desc>
    <g id="007-B32px" stroke="none" stroke-width="1" fill="none" fill-rule="evenodd">
        <g>
            <path d="M21.48,23.44 C21.19,23.62 20.89,23.78 20.59,23.93 L21.61,27 L10.39,27 L11.41,23.93 C11.1,23.78 10.81,23.62 10.52,23.44 L9.44,26.68 C9.22,27.33 9.7,28 10.39,28 L21.62,28 C22.3,28 22.78,27.33 22.57,26.68 L21.48,23.44 Z" id="Path" fill="#101828" fill-rule="nonzero"></path>
            <path d="M16,5 C21.24,5 25.5,9.26 25.5,14.5 C25.5,19.74 21.24,24 16,24 C10.76,24 6.5,19.74 6.5,14.5 C6.5,9.26 10.76,5 16,5 L16,5 Z M16,4 C10.2,4 5.5,8.7 5.5,14.5 C5.5,20.3 10.2,25 16,25 C21.8,25 26.5,20.3 26.5,14.5 C26.5,8.7 21.8,4 16,4 L16,4 Z" id="Shape" fill="#101828" fill-rule="nonzero"></path>
            <path d="M16,9 C16.28,9 16.5,8.78 16.5,8.5 C16.5,8.22 16.28,8 16,8 C15.72,8 15.5,8.22 15.5,8.5 C15.5,8.78 15.72,9 16,9" id="Path" fill="#101828" fill-rule="nonzero"></path>
            <path d="M16,16 L16,16 C16.44,16 16.82,16.28 16.95,16.7 C17.03,16.95 17.01,17.23 16.89,17.46 C16.77,17.7 16.56,17.87 16.3,17.95 C16.2,17.98 16.1,18 16,18 C15.56,18 15.18,17.72 15.05,17.3 C14.97,17.05 14.99,16.77 15.11,16.54 C15.23,16.3 15.44,16.13 15.7,16.05 C15.8,16.02 15.9,16 16,16 L16,16 Z M16,15 C15.8,15 15.59,15.03 15.39,15.09 C14.34,15.42 13.76,16.55 14.09,17.6 C14.36,18.46 15.15,19 16,19 C16.2,19 16.41,18.97 16.61,18.91 C17.66,18.58 18.24,17.45 17.91,16.4 C17.64,15.54 16.85,15 16,15 L16,15 Z" id="Shape" fill="#101828" fill-rule="nonzero"></path>
            <path d="M16,13 C18.21,13 20,14.79 20,17 C20,19.21 18.21,21 16,21 C13.79,21 12,19.21 12,17 C12,14.79 13.79,13 16,13 L16,13 Z M16,12 C13.24,12 11,14.24 11,17 C11,19.76 13.24,22 16,22 C18.76,22 21,19.76 21,17 C21,14.24 18.76,12 16,12 L16,12 Z" id="Shape" fill="#101828" fill-rule="nonzero"></path>
            <rect id="Rectangle" x="0" y="0" width="32" height="32"></rect>
        </g>
    </g>
</svg>