<?xml version="1.0" encoding="UTF-8"?>
<svg width="40px" height="40px" viewBox="0 0 40 40" version="1.1" xmlns="http://www.w3.org/2000/svg" xmlns:xlink="http://www.w3.org/1999/xlink">
    <!-- Generator: Sketch 57.1 (83088) - https://sketch.com -->
    <title>140-B40px</title>
    <desc>Created with Sketch.</desc>
    <g id="140-B40px" stroke="none" stroke-width="1" fill="none" fill-rule="evenodd">
        <g>
            <path d="M20,5 L20,6.25 C21.5,6.25 23,6.5 24.5,7 C28,8.25 30.75,10.625 32.375,14 C34,17.25 34.25,21 33,24.5 C31.125,30 25.875,33.75 20,33.75 C18.5,33.75 17,33.5 15.5,33 C12,31.75 9.25,29.375 7.625,26 C6,22.75 5.75,19 7,15.5 C8.875,10 14.125,6.25 20,6.25 L20,5 L20,5 Z M20,5 C13.75,5 8,8.875 5.875,15.125 C3.125,23 7.375,31.5 15.125,34.25 C16.75,34.75 18.375,35.125 20,35.125 C26.25,35.125 32,31.25 34.125,25 C36.875,17.125 32.625,8.625 24.875,5.875 C23.25,5.25 21.625,5 20,5 L20,5 Z" id="Shape" fill="#101828" fill-rule="nonzero"></path>
            <path d="M30.625,23.625 L29.5,23.25 C31.25,18 28.5,12.375 23.375,10.5 L23.75,9.375 C29.5,11.375 32.625,17.875 30.625,23.625 Z" id="Path" fill="#101828" fill-rule="nonzero"></path>
            <path d="M16.375,30.625 C10.5,28.625 7.375,22.125 9.375,16.375 L10.5,16.75 C8.75,22 11.5,27.625 16.625,29.5 L16.375,30.625 Z" id="Path" fill="#101828" fill-rule="nonzero"></path>
            <path d="M24.875,17.375 L20.125,12.625 C20,12.5 19.75,12.5 19.625,12.625 L17,15.375 C16.25,16.125 16.25,16.875 16.25,17.875 L16.25,25.5 C16.25,25.875 16.375,26.25 16.625,26.5 C16.875,26.75 17.125,26.875 17.5,26.875 L23,26.875 C23.125,26.875 23.25,26.75 23.25,26.625 C23.25,26.5 23.25,26.375 23.125,26.25 L20,22.875 L25,17.875 C25,17.75 25,17.5 24.875,17.375 Z M21.75,25.875 L17.5,25.875 C17.375,25.875 17.375,25.875 17.375,25.75 C17.375,25.625 17.25,25.625 17.25,25.5 C17.25,25.5 17.25,25.375 17.25,25.375 C17.375,25.25 17.875,24.625 18,24.625 L19.25,23.375 L21.75,25.875 Z" id="Shape" fill="#101828" fill-rule="nonzero"></path>
            <rect id="Rectangle" x="0" y="0" width="40" height="40"></rect>
        </g>
    </g>
</svg>