<?xml version="1.0" encoding="UTF-8"?>
<svg width="80px" height="80px" viewBox="0 0 80 80" version="1.1" xmlns="http://www.w3.org/2000/svg" xmlns:xlink="http://www.w3.org/1999/xlink">
    <!-- Generator: Sketch 57.1 (83088) - https://sketch.com -->
    <title>132-B80px</title>
    <desc>Created with Sketch.</desc>
    <g id="132-B80px" stroke="none" stroke-width="1" fill="none" fill-rule="evenodd">
        <g>
            <path d="M40,17.525 C52.4,17.525 62.5,27.625 62.5,40.025 C62.5,52.425 52.4,62.525 40,62.525 C27.6,62.525 17.5,52.425 17.5,40.025 C17.5,27.625 27.6,17.525 40,17.525 L40,17.525 Z M40,15.025 C26.2,15.025 15,26.225 15,40.025 C15,53.825 26.2,65.025 40,65.025 C53.8,65.025 65,53.825 65,40.025 C65,26.2 53.8,15.025 40,15.025 L40,15.025 Z" id="Shape" fill="#101828" fill-rule="nonzero"></path>
            <polygon id="Rectangle" fill="#101828" fill-rule="nonzero" transform="translate(40.015516, 40.013089) rotate(-45.000000) translate(-40.015516, -40.013089) " points="-0.646593795 38.7631007 80.6776263 38.7631007 80.6776263 41.2630768 -0.646593795 41.2630768"></polygon>
            <rect id="Rectangle" x="0" y="0" width="80" height="80"></rect>
        </g>
    </g>
</svg>