<?xml version="1.0" encoding="UTF-8"?>
<svg width="32px" height="32px" viewBox="0 0 32 32" version="1.1" xmlns="http://www.w3.org/2000/svg" xmlns:xlink="http://www.w3.org/1999/xlink">
    <!-- Generator: Sketch 57.1 (83088) - https://sketch.com -->
    <title>201-B32px</title>
    <desc>Created with Sketch.</desc>
    <g id="201-B32px" stroke="none" stroke-width="1" fill="none" fill-rule="evenodd">
        <g>
            <path d="M26.98,10 L27,10.02 L26.98,21.01 L5,20.99 L5.02,10 L26.98,10 L26.98,10 Z M26.98,9 L5.02,9 C4.46,9 4,9.46 4,10.02 L4,20.99 C4,21.55 4.46,22.01 5.02,22.01 L26.98,22.01 C27.54,22.01 28,21.55 28,20.99 L28,10.02 C28,9.46 27.54,9 26.98,9 L26.98,9 Z" id="Shape" fill="#101828" fill-rule="nonzero"></path>
            <path d="M11.9,15.79 L11.52,15.49 L11,15.49 C11,15.3 11.1,15.19 11.19,15.08 L11.65,15.48 L12,15.5 L11.66,15.5 L11.94,15.75 L11.63,15.5 L11.9,15.79 Z M12.61,15.12 L11.99,14.33 C12.27,14.11 12.58,13.91 12.9,13.74 L13.37,14.62 C13.1,14.77 12.85,14.94 12.61,15.12 Z M18.65,14.64 C18.38,14.49 18.1,14.37 17.81,14.27 L18.14,13.33 C18.48,13.45 18.81,13.6 19.13,13.77 L18.65,14.64 Z M14.21,14.26 L13.89,13.31 C14.23,13.19 14.58,13.11 14.94,13.05 L15.1,14.04 C14.8,14.09 14.5,14.16 14.21,14.26 Z M16.93,14.05 C16.63,14 16.32,13.97 16.01,13.97 L16.02,12.97 C16.38,12.97 16.74,13 17.09,13.06 L16.93,14.05 Z" id="Shape" fill="#101828" fill-rule="nonzero"></path>
            <path d="M19.86,18.99 L12.14,18.99 L10.94,15.4 L11.1,15.19 C11.11,15.17 11.41,14.78 11.99,14.33 L12.61,15.12 C12.37,15.31 12.19,15.48 12.07,15.61 L12.87,17.99 L19.15,17.99 L19.95,15.61 C19.68,15.33 19.1,14.8 18.22,14.42 L18.62,13.5 C20.1,14.14 20.88,15.14 20.91,15.18 L21.07,15.39 L19.86,18.99 Z" id="Path" fill="#101828" fill-rule="nonzero"></path>
            <path d="M15.98,21.94 C11.67,21.94 8.44,22.6 7,22.96 L7,23.99 C8.24,23.67 11.54,22.94 15.98,22.94 C20.46,22.94 23.79,23.68 25,24 L25,22.97 C23.57,22.61 20.33,21.94 15.98,21.94 Z" id="Path" fill="#101828" fill-rule="nonzero"></path>
            <polygon id="Path" fill="#101828" fill-rule="nonzero" points="16.68 16 15.9 18.34 16.84 18.65 17.73 16"></polygon>
            <rect id="Rectangle" x="0" y="0" width="32" height="32"></rect>
        </g>
    </g>
</svg>