<?xml version="1.0" encoding="UTF-8"?>
<svg width="56px" height="56px" viewBox="0 0 56 56" version="1.1" xmlns="http://www.w3.org/2000/svg" xmlns:xlink="http://www.w3.org/1999/xlink">
    <!-- Generator: Sketch 57.1 (83088) - https://sketch.com -->
    <title>004-B56px</title>
    <desc>Created with Sketch.</desc>
    <g id="004-B56px" stroke="none" stroke-width="1" fill="none" fill-rule="evenodd">
        <g>
            <path d="M47.4775,20.9475 L38.675,10.43 C37.275,8.75 34.93,8.225 32.9525,9.1525 L18.4275,15.995 L15.5225,17.3075 C13.6675,18.1475 11.8125,18.9875 9.9575,19.7925 C8.05,20.615 7.07,21.91 7.035,23.6075 C6.9825,27.8425 7,32.06 7.035,36.26 C7.035,37.695 7.84,38.85 9.1875,39.3925 C10.745,40.005 12.3375,40.5825 13.8775,41.1425 C14.7525,41.4575 15.61,41.7725 16.485,42.0875 L17.22,42.3675 C20.79,43.6975 24.3775,45.0275 27.9475,46.375 C28.6475,46.6375 29.2775,46.8475 29.8725,46.9875 C30.485,47.145 31.1325,47.2325 31.745,47.2325 C31.745,47.2325 31.78,47.2325 31.7975,47.2325 C31.8325,47.2325 31.85,47.2325 31.885,47.2325 C31.885,47.2325 31.9025,47.2325 31.9025,47.2325 C31.92,47.2325 31.9375,47.2325 31.9375,47.2325 L31.9375,47.2325 L31.9375,47.2325 L31.9375,47.2325 L32.0775,47.2325 C32.165,47.2325 32.235,47.215 32.3225,47.1975 C32.34,47.1975 32.34,47.1975 32.3575,47.1975 C33.18,47.145 33.9675,46.9875 34.72,46.655 C36.6625,45.7975 38.605,44.8875 40.495,44.0125 L40.635,43.9425 C42.0875,43.2775 43.5225,42.595 44.9925,41.93 C45.3075,41.79 45.5875,41.5975 45.8325,41.37 L46.13,41.23 C47.88,40.425 49,38.6575 49,36.715 L49,25.165 C49,23.625 48.4575,22.12 47.4775,20.9475 Z M25.13,25.4975 L25.13,23.24 L30.2575,29.365 C30.9225,30.1525 31.3425,31.1325 31.4825,32.1475 L26.81,30.45 C25.6375,30.03 25.0775,29.225 25.13,28.0525 C25.165,27.4575 25.1475,26.845 25.1475,26.2675 C25.13,26.0225 25.13,25.76 25.13,25.4975 Z M28.5425,44.835 C24.9725,43.47 21.385,42.14 17.815,40.81 L17.08,40.53 C16.205,40.1975 15.33,39.8825 14.42,39.55 C12.8975,39.0075 11.34,38.43 9.8175,37.835 C9.1175,37.555 8.715,36.995 8.715,36.2425 C8.68,32.375 8.6625,28.0175 8.715,23.625 C8.715,22.9775 8.925,22.0325 10.64,21.2975 C12.565,20.4575 14.4725,19.6 16.38,18.725 L19.0575,17.5175 C20.0025,17.6225 20.86,18.0775 21.49,18.83 L23.5025,21.2275 L23.5025,26.285 C23.5025,26.8275 23.52,27.405 23.485,27.965 C23.38,29.855 24.395,31.325 26.25,31.99 C27.8775,32.585 29.5225,33.18 31.15,33.775 L31.5,33.9325 L31.5175,44.0475 C31.5175,44.6425 31.22,45.1675 30.7125,45.4825 C30.065,45.36 29.365,45.15 28.5425,44.835 Z" id="Shape" fill="#101828" fill-rule="nonzero"></path>
            <rect id="Rectangle" x="0" y="0" width="56" height="56"></rect>
        </g>
    </g>
</svg>