<?xml version="1.0" encoding="UTF-8"?>
<svg width="42px" height="42px" viewBox="0 0 42 42" version="1.1" xmlns="http://www.w3.org/2000/svg" xmlns:xlink="http://www.w3.org/1999/xlink">
    <!-- Generator: Sketch 54.1 (76490) - https://sketchapp.com -->
    <title>013-G40px</title>
    <desc>Created with Sketch.</desc>
    <g id="NEW_icons" stroke="none" stroke-width="1" fill="none" fill-rule="evenodd">
        <g id="icons_UD_new-Copy" transform="translate(-1526.000000, -1870.000000)">
            <g id="013-G40px" transform="translate(1527.000000, 1871.000000)">
                <circle id="Oval-Copy-157" stroke="#E3E8EC" cx="20" cy="20" r="20"></circle>
                <g id="013-B32px-Copy-2" transform="translate(4.000000, 4.000000)">
                    <path d="M19.5,22.11 L18.8,21 L20.19,21 L19.5,22.11 L19.5,22.11 Z M19.5,24 L22,20 L17,20 L19.5,24 L19.5,24 Z" id="Shape" fill="#101828" fill-rule="nonzero"></path>
                    <polygon id="Path" fill="#101828" fill-rule="nonzero" points="20 16 19 16 19 20 20 20"></polygon>
                    <path d="M12.5,17.89 L13.2,19 L11.8,19 L12.5,17.89 L12.5,17.89 Z M12.5,16 L10,20 L15,20 L12.5,16 L12.5,16 Z" id="Shape" fill="#101828" fill-rule="nonzero"></path>
                    <rect id="Rectangle" fill="#101828" fill-rule="nonzero" x="12" y="20" width="1" height="4"></rect>
                    <path d="M22,11.25 C21.83,11.25 21.67,11.26 21.51,11.28 C20.54,8.77 18.21,7 15.5,7 C12.42,7 9.85,9.28 9.18,12.33 C6.29,12.51 4,15.04 4,18.15 C4,21.38 6.46,23.99 9.5,23.99 C9.51,23.99 9.51,23.99 9.52,23.99 L9.52,23.99 L10,23.99 L10,22.99 L9.52,22.99 L9.47,22.99 L9.47,22.99 C7,22.97 5,20.81 5,18.15 C5,15.59 6.86,13.47 9.24,13.32 L9.99,13.27 L10.15,12.53 C10.74,9.87 12.94,8 15.5,8 C17.73,8 19.72,9.43 20.58,11.64 L20.85,12.34 L21.6,12.28 C21.73,12.27 21.87,12.26 22,12.26 C24.76,12.26 27,14.67 27,17.63 C27,20.59 24.76,23 22,23 L22,24 C25.31,24 28,21.15 28,17.63 C28,14.1 25.31,11.25 22,11.25 Z" id="Path" fill="#101828" fill-rule="nonzero"></path>
                    <rect id="Rectangle" fill="#101828" fill-rule="nonzero" x="15" y="22.99" width="2" height="1"></rect>
                    <rect id="Rectangle" x="0" y="0" width="32" height="32"></rect>
                </g>
            </g>
        </g>
    </g>
</svg>