<?xml version="1.0" encoding="UTF-8"?>
<svg width="40px" height="40px" viewBox="0 0 40 40" version="1.1" xmlns="http://www.w3.org/2000/svg" xmlns:xlink="http://www.w3.org/1999/xlink">
    <!-- Generator: Sketch 57.1 (83088) - https://sketch.com -->
    <title>116-B40px</title>
    <desc>Created with Sketch.</desc>
    <g id="116-B40px" stroke="none" stroke-width="1" fill="none" fill-rule="evenodd">
        <g>
            <g id="Group" transform="translate(5.000000, 6.250000)" fill="#101828" fill-rule="nonzero">
                <path d="M16.4,1.25 L16.4,1.25 C16.6625,1.25 16.925,1.325 17.2125,1.4625 C17.55,2 18.3,3.325 18.7125,4.9875 C18.8,5.325 18.8125,5.675 18.75,6.025 L17.9,10.8125 C17.825,11.225 17.9375,11.65 18.2125,11.975 C18.4875,12.3 18.8875,12.4875 19.3,12.4875 L27.825,12.4875 C28.25,12.4875 28.625,12.7625 28.7125,13.1375 C28.7375,13.2625 28.75,13.4125 28.75,13.5625 C28.75,14.075 28.575,14.3875 28.1625,14.6 C27.7125,14.825 27.4,15.25 27.325,15.75 C27.25,16.25 27.425,16.75 27.7875,17.1 C28.0625,17.3625 28.0625,17.6125 28.0625,17.7 C28.0625,18.025 27.7625,18.375 27.475,18.5875 C27.15,18.8375 26.95,19.2 26.9125,19.6 C26.875,20 27.0125,20.4 27.275,20.7 C27.35,20.7875 27.4875,20.975 27.4875,21.3125 C27.4875,21.6625 27.125,22.075 26.875,22.225 C26.1625,22.6875 25.95,23.65 26.4,24.375 C26.4875,24.5125 26.6375,24.8125 26.6375,25.2875 C26.6375,25.7625 26,26.2625 25.4,26.2625 L10.65,26.2625 L8.75,25.325 L8.75,15.225 L9.9125,14.35 C10.0375,14.25 10.15,14.15 10.2625,14.025 C11.225,12.925 14.4125,9.125 15.225,6.4375 C15.2875,6.2375 15.3125,6.025 15.3125,5.8 L15.3125,1.7125 C15.3125,1.675 15.35,1.6375 15.3625,1.625 C15.7,1.375 16.05,1.25 16.4,1.25 L16.4,1.25 Z M16.4,0 C15.6375,0 15.025,0.325 14.625,0.6125 C14.275,0.875 14.0625,1.275 14.0625,1.7 L14.0625,5.8 C14.0625,5.8875 14.05,5.9875 14.025,6.075 C13.2625,8.6125 9.85,12.5875 9.3125,13.2 C9.2625,13.25 9.2125,13.3 9.1625,13.3375 L7.9,14.2875 C7.65,14.475 7.5,14.7625 7.5,15.075 L7.5,25.4875 C7.5,25.8625 7.7125,26.2125 8.0625,26.375 L10.15,27.3875 C10.2875,27.4625 10.45,27.4875 10.6,27.4875 L25.4,27.4875 C26.6125,27.4875 27.8875,26.5 27.8875,25.2625 C27.8875,24.5 27.65,23.975 27.4625,23.6875 C27.375,23.5375 27.4,23.35 27.55,23.25 C28.05,22.925 28.725,22.175 28.725,21.2875 C28.725,20.55 28.4,20.0625 28.2,19.8375 C28.125,19.75 28.1375,19.6125 28.225,19.55 C28.575,19.275 29.3,18.6 29.3,17.6625 C29.3,16.9375 28.9375,16.4375 28.6375,16.15 C28.4875,16.0125 28.525,15.7625 28.7125,15.675 C29.225,15.4125 29.9875,14.8125 29.9875,13.525 C29.9875,13.2625 29.9625,13.0375 29.9125,12.825 C29.7,11.8625 28.8125,11.2 27.8125,11.2 L19.2875,11.2 C19.175,11.2 19.1,11.1 19.1125,11 L19.9625,6.2125 C20.05,5.7 20.0375,5.175 19.9125,4.6625 C19.4375,2.7375 18.5625,1.2375 18.2125,0.7125 C18.1125,0.5625 17.9875,0.45 17.825,0.3625 C17.325,0.1 16.8375,0 16.4,0 L16.4,0 Z" id="Shape"></path>
                <path d="M7.5,14.05 L7.5,26.25 L1.25,26.25 L1.25,14.05 L7.5,14.05 L7.5,14.05 Z M7.5,12.8 L1.25,12.8 C0.5625,12.8 0,13.3625 0,14.05 L0,26.25 C0,26.9375 0.5625,27.5 1.25,27.5 L7.5,27.5 C8.1875,27.5 8.75,26.9375 8.75,26.25 L8.75,14.05 C8.75,13.3625 8.1875,12.8 7.5,12.8 L7.5,12.8 Z" id="Shape"></path>
            </g>
            <rect id="Rectangle" x="0" y="0" width="40" height="40"></rect>
        </g>
    </g>
</svg>