<?xml version="1.0" encoding="UTF-8"?>
<svg width="56px" height="56px" viewBox="0 0 56 56" version="1.1" xmlns="http://www.w3.org/2000/svg" xmlns:xlink="http://www.w3.org/1999/xlink">
    <!-- Generator: Sketch 57.1 (83088) - https://sketch.com -->
    <title>196-B56px</title>
    <desc>Created with Sketch.</desc>
    <g id="196-B56px" stroke="none" stroke-width="1" fill="none" fill-rule="evenodd">
        <g>
            <path d="M41.9825,26.25 L41.9825,43.75 L34.9825,43.75 L34.9825,26.25 L41.9825,26.25 L41.9825,26.25 Z M42.0525,24.5 L34.9125,24.5 C33.985,24.5 33.2325,25.2525 33.2325,26.18 L33.2325,43.8025 C33.2325,44.73 33.985,45.4825 34.9125,45.4825 L42.0525,45.4825 C42.98,45.4825 43.7325,44.73 43.7325,43.8025 L43.7325,26.18 C43.7325,25.2525 42.98,24.5 42.0525,24.5 L42.0525,24.5 Z" id="Shape" fill="#101828" fill-rule="nonzero"></path>
            <path d="M38.4825,28 C37.52,28 36.7325,28.7875 36.7325,29.75 C36.7325,30.7125 37.52,31.5 38.4825,31.5 C39.445,31.5 40.2325,30.7125 40.2325,29.75 C40.2325,28.7875 39.445,28 38.4825,28 L38.4825,28 Z" id="Path" fill="#101828" fill-rule="nonzero"></path>
            <rect id="Rectangle" fill="#101828" fill-rule="nonzero" x="36.7325" y="36.75" width="3.5" height="1.75"></rect>
            <rect id="Rectangle" fill="#101828" fill-rule="nonzero" x="36.7325" y="33.25" width="3.5" height="1.75"></rect>
            <rect id="Rectangle" fill="#101828" fill-rule="nonzero" x="36.7325" y="40.25" width="3.5" height="1.75"></rect>
            <polygon id="Path" fill="#101828" fill-rule="nonzero" points="12.215 17.5 12.215 19.25 14.8225 19.25 14.8225 28 16.5725 28 16.5725 19.25 19.285 19.25 19.285 17.5"></polygon>
            <polygon id="Path" fill="#101828" fill-rule="nonzero" points="21 17.5 23.625 28 25.375 28 28 17.5 26.25 17.5 24.5 25.3575 22.75 17.5"></polygon>
            <path d="M47.215,12.25 L8.785,12.25 C7.805,12.25 7,13.0375 7,14.035 L7,33.25 C7,34.1775 7.7175,34.9125 8.6275,35 L12.25,35 L12.25,35.035 L23.7125,35.035 C18.305,35.35 14.28,36.19 12.25,36.68 L12.25,38.5 C14.4025,37.94 20.195,36.6625 27.965,36.6625 C29.19,36.6625 30.38,36.6975 31.5,36.75 L31.5,33.2675 L8.75,33.25 L8.785,14 L47.215,14 L47.25,14.035 L47.215,33.285 L45.5,33.285 L45.5,35 L47.3725,35 C48.2825,34.9125 49,34.1775 49,33.25 L49,14.035 C49,13.0375 48.195,12.25 47.215,12.25 Z" id="Path" fill="#101828" fill-rule="nonzero"></path>
            <rect id="Rectangle" x="0" y="0" width="56" height="56"></rect>
        </g>
    </g>
</svg>