<?xml version="1.0" encoding="UTF-8"?>
<svg width="42px" height="42px" viewBox="0 0 42 42" version="1.1" xmlns="http://www.w3.org/2000/svg" xmlns:xlink="http://www.w3.org/1999/xlink">
    <!-- Generator: Sketch 57.1 (83088) - https://sketch.com -->
    <title>226-G40px</title>
    <desc>Created with Sketch.</desc>
    <g id="NEW_icons" stroke="none" stroke-width="1" fill="none" fill-rule="evenodd">
        <g id="icons_UD_new-Copy" transform="translate(-244.000000, -28891.000000)">
            <g id="226-G40px" transform="translate(245.000000, 28892.000000)">
                <circle id="Oval-Copy-1335" stroke="#E3E8EC" cx="20" cy="20" r="20"></circle>
                <g id="226-B32px-Copy" transform="translate(4.000000, 4.000000)">
                    <path d="M27.01,7 L26,7 L26,8 L27,8 L27.01,21 L5,21.01 L4.99,8 L13,8 L13,7 L4.99,7 C4.45,7 4,7.45 4,7.99 L4,21 C4,21.55 4.45,22 4.99,22 L27,22 C27.55,22 27.9901635,21.55 27.9901635,21.01 L27.9901635,7.99 C28,7.45 27.55,7 27.01,7 Z" id="Path" fill="#101828" fill-rule="nonzero"></path>
                    <rect id="Rectangle" fill="#101828" fill-rule="nonzero" x="17" y="22" width="1" height="3"></rect>
                    <rect id="Rectangle" fill="#101828" fill-rule="nonzero" x="14" y="22" width="1" height="3"></rect>
                    <rect id="Rectangle" fill="#101828" fill-rule="nonzero" x="12.02" y="24" width="7.98" height="1"></rect>
                    <path d="M16,20.49 C16.27,20.49 16.5,20.27 16.5,19.99 C16.5,19.71 16.28,19.49 16,19.49 C15.73,19.49 15.5,19.71 15.5,19.99 C15.5,20.27 15.72,20.49 16,20.49" id="Path" fill="#101828" fill-rule="nonzero"></path>
                    <path d="M24.55,4 L14.45,4 C14.2,4 14,4.21 14,4.47 L14,9 L15,9 L15,5 L24,5 L24,10 L16.87,10 C16.58,10 16.29,10.09 16.01,10.28 L15.07,11 L14,11.75 L14,13 L16.62,11.08 C16.7,11.03 16.78,11 16.87,11 L24.54,11 C24.8,11 25,10.79 25,10.53 L25,4.47 C25,4.21 24.8,4 24.55,4 Z" id="Path" fill="#101828" fill-rule="nonzero"></path>
                    <path d="M10,10 C10.55,10 11,10.45 11,11 C11,11.55 10.55,12 10,12 C9.45,12 9,11.55 9,11 C9,10.45 9.45,10 10,10 L10,10 Z M10,9 C8.9,9 8,9.9 8,11 C8,12.1 8.9,13 10,13 C11.1,13 12,12.1 12,11 C12,9.9 11.1,9 10,9 L10,9 Z" id="Shape" fill="#101828" fill-rule="nonzero"></path>
                    <path d="M8,17 L8,16 C8,15.45 8.45,15 9,15 L11,15 C11.55,15 12,15.45 12,16 L12,17 L13,17 L13,16 C13,14.9 12.1,14 11,14 L9,14 C7.9,14 7,14.9 7,16 L7,17 L8,17 Z" id="Path" fill="#101828" fill-rule="nonzero"></path>
                    <rect id="Rectangle" fill="#101828" fill-rule="nonzero" x="5" y="18" width="22" height="1"></rect>
                    <rect id="Rectangle" x="0" y="0" width="32" height="32"></rect>
                </g>
            </g>
        </g>
    </g>
</svg>