<?xml version="1.0" encoding="UTF-8"?>
<svg width="42px" height="42px" viewBox="0 0 42 42" version="1.1" xmlns="http://www.w3.org/2000/svg" xmlns:xlink="http://www.w3.org/1999/xlink">
    <!-- Generator: Sketch 56.3 (81716) - https://sketch.com -->
    <title>162-G40px</title>
    <desc>Created with Sketch.</desc>
    <g id="NEW_icons" stroke="none" stroke-width="1" fill="none" fill-rule="evenodd">
        <g id="icons_UD_new-Copy" transform="translate(-244.000000, -20703.000000)">
            <g id="162-G40px" transform="translate(245.000000, 20704.000000)">
                <circle id="Oval-Copy-945" stroke="#E3E8EC" cx="20" cy="20" r="20"></circle>
                <g id="162-B32px-Copy" transform="translate(4.000000, 4.000000)">
                    <path d="M27,14 L27,18 L5,18 L5,14 L27,14 L27,14 Z M27.05,13 L4.95,13 C4.42,13 4,13.43 4,13.95 L4,18.06 C4,18.58 4.42,19 4.95,19 L27.06,19 C27.58,19 28.01,18.58 28.01,18.05 L28.01,13.94 C28,13.43 27.58,13 27.05,13 L27.05,13 Z" id="Shape" fill="#101828" fill-rule="nonzero"></path>
                    <rect id="Rectangle" fill="#101828" fill-rule="nonzero" x="7" y="15" width="4" height="2"></rect>
                    <polygon id="Path" fill="#101828" fill-rule="nonzero" points="25 18 21 18 21 20 25 20"></polygon>
                    <polygon id="Path" fill="#101828" fill-rule="nonzero" points="11 18 7 18 7 20 11 20"></polygon>
                    <polygon id="Path" fill="#101828" fill-rule="nonzero" points="17 16 15 16 15 17 17 17"></polygon>
                    <polygon id="Path" fill="#101828" fill-rule="nonzero" points="21 16 19 16 19 17 21 17"></polygon>
                    <polygon id="Path" fill="#101828" fill-rule="nonzero" points="25 16 23 16 23 17 25 17"></polygon>
                    <rect id="Rectangle" x="0" y="0" width="32" height="32"></rect>
                </g>
            </g>
        </g>
    </g>
</svg>