<?xml version="1.0" encoding="UTF-8"?>
<svg width="80px" height="80px" viewBox="0 0 80 80" version="1.1" xmlns="http://www.w3.org/2000/svg" xmlns:xlink="http://www.w3.org/1999/xlink">
    <!-- Generator: Sketch 57.1 (83088) - https://sketch.com -->
    <title>159-G80px</title>
    <desc>Created with Sketch.</desc>
    <g id="NEW_icons" stroke="none" stroke-width="1" fill="none" fill-rule="evenodd">
        <g id="icons_UD_new-Copy" transform="translate(-2050.000000, -20307.000000)">
            <g id="159-G80px" transform="translate(2050.000000, 20307.000000)">
                <circle id="Oval-Copy-995" fill="#E3E8EC" cx="40" cy="40" r="40"></circle>
                <g id="159-B32px-Copy-6" transform="translate(12.000000, 12.000000)">
                    <polygon id="Path" fill="#101828" fill-rule="nonzero" points="28 22.75 28 24.5 29.7325 24.5 29.7325 31.5 31.5 31.5 31.5 24.5 33.25 24.5 33.25 22.75"></polygon>
                    <polygon id="Path" fill="#101828" fill-rule="nonzero" points="34.125 22.75 36.75 31.5 38.5 31.5 41.125 22.75 39.375 22.75 37.625 28.8575 35.875 22.75"></polygon>
                    <path d="M34.1075,36.435 C29.995,36.435 26.67,37.0825 24.5,37.6775 L24.5,39.3925 C26.6,38.7975 29.96,38.0975 34.1075,38.0975 C39.76,38.0975 43.9775,39.3925 45.5,39.9525 L45.5,38.22 C43.6975,37.6075 39.6025,36.435 34.1075,36.435 Z" id="Path" fill="#101828" fill-rule="nonzero"></path>
                    <path d="M47.215,17.5 L21.035,17.5 C20.055,17.5 19.25,18.2875 19.25,19.285 L19.25,22.75 L21.035,22.75 L21.035,19.25 L47.215,19.25 L47.25,19.285 L47.215,34.9825 L24.5,34.9475 L24.5,36.7325 L47.215,36.7325 C48.195,36.7325 49,35.9275 49,34.9475 L49,19.285 C49,18.2875 48.195,17.5 47.215,17.5 Z" id="Path" fill="#101828" fill-rule="nonzero"></path>
                    <path d="M41.965,12.25 L15.785,12.25 C14.805,12.25 14,13.0375 14,14.035 L14,22.75 L15.7675,22.75 L15.785,14 L41.965,14 L42,14.035 L42,15.75 L43.75,15.75 L43.75,14.035 C43.75,13.0375 42.945,12.25 41.965,12.25 Z" id="Path" fill="#101828" fill-rule="nonzero"></path>
                    <path d="M36.715,7 L10.535,7 C9.555,7 8.75,7.805 8.75,8.785 L8.75,22.75 L10.5,22.75 L10.535,8.75 L36.715,8.75 L36.75,8.785 L36.75,10.5 L38.5,10.5 L38.5,8.785 C38.5,7.805 37.695,7 36.715,7 Z" id="Path" fill="#101828" fill-rule="nonzero"></path>
                    <path d="M21,26.25 L21,47.25 L8.75,47.25 L8.75,26.25 L21,26.25 L21,26.25 Z M21,24.5 L8.75,24.5 C7.7875,24.5 7,25.2875 7,26.25 L7,47.25 C7,48.2125 7.7875,49 8.75,49 L21,49 C21.9625,49 22.75,48.2125 22.75,47.25 L22.75,26.25 C22.75,25.2875 21.9625,24.5 21,24.5 L21,24.5 Z" id="Shape" fill="#101828" fill-rule="nonzero"></path>
                    <polygon id="Path" fill="#101828" fill-rule="nonzero" points="19.25 43.75 17.5 43.75 17.5 45.5 19.25 45.5"></polygon>
                    <polygon id="Path" fill="#101828" fill-rule="nonzero" points="19.25 40.25 17.5 40.25 17.5 42 19.25 42"></polygon>
                    <polygon id="Path" fill="#101828" fill-rule="nonzero" points="19.25 28 17.5 28 17.5 29.75 19.25 29.75"></polygon>
                    <polygon id="Path" fill="#101828" fill-rule="nonzero" points="15.75 28 14 28 14 29.75 15.75 29.75"></polygon>
                    <polygon id="Path" fill="#101828" fill-rule="nonzero" points="12.25 28 10.5 28 10.5 29.75 12.25 29.75"></polygon>
                    <polygon id="Path" fill="#101828" fill-rule="nonzero" points="19.25 31.5 17.5 31.5 17.5 33.25 19.25 33.25"></polygon>
                    <polygon id="Path" fill="#101828" fill-rule="nonzero" points="15.75 43.75 14 43.75 14 45.5 15.75 45.5"></polygon>
                    <polygon id="Path" fill="#101828" fill-rule="nonzero" points="15.75 40.25 14 40.25 14 42 15.75 42"></polygon>
                    <polygon id="Path" fill="#101828" fill-rule="nonzero" points="15.75 31.5 14 31.5 14 33.25 15.75 33.25"></polygon>
                    <polygon id="Path" fill="#101828" fill-rule="nonzero" points="12.25 43.75 10.5 43.75 10.5 45.5 12.25 45.5"></polygon>
                    <polygon id="Path" fill="#101828" fill-rule="nonzero" points="12.25 40.25 10.5 40.25 10.5 42 12.25 42"></polygon>
                    <polygon id="Path" fill="#101828" fill-rule="nonzero" points="12.25 31.5 10.5 31.5 10.5 33.25 12.25 33.25"></polygon>
                    <path d="M14.875,39.2175 C14.3675,39.2175 13.895,39.06 13.475,38.78 C12.9325,38.4125 12.565,37.835 12.46,37.1875 C12.3375,36.54 12.4775,35.875 12.8625,35.35 C13.23,34.8075 13.8075,34.44 14.455,34.335 C15.085,34.195 15.75,34.3525 16.275,34.72 C16.8175,35.0875 17.185,35.665 17.29,36.3125 C17.4125,36.96 17.2725,37.625 16.8875,38.15 C16.52,38.6925 15.9425,39.06 15.295,39.165 C15.1725,39.2 15.015,39.2175 14.875,39.2175 Z M14.875,36.0325 C14.84,36.0325 14.7875,36.0325 14.7525,36.05 C14.56,36.085 14.4025,36.19 14.2975,36.3475 C14.1925,36.505 14.14,36.6975 14.175,36.89 C14.21,37.0825 14.315,37.24 14.4725,37.345 C14.63,37.45 14.8225,37.485 15.015,37.4675 C15.2075,37.4325 15.365,37.3275 15.47,37.17 L15.47,37.17 C15.575,37.0125 15.6275,36.82 15.5925,36.6275 C15.5575,36.435 15.4525,36.2775 15.295,36.1725 C15.155,36.0675 15.015,36.0325 14.875,36.0325 Z" id="Shape" fill="#101828" fill-rule="nonzero"></path>
                    <rect id="Rectangle" x="0" y="0" width="56" height="56"></rect>
                </g>
            </g>
        </g>
    </g>
</svg>