<?xml version="1.0" encoding="UTF-8"?>
<svg width="80px" height="80px" viewBox="0 0 80 80" version="1.1" xmlns="http://www.w3.org/2000/svg" xmlns:xlink="http://www.w3.org/1999/xlink">
    <!-- Generator: Sketch 57.1 (83088) - https://sketch.com -->
    <title>106-B80px</title>
    <desc>Created with Sketch.</desc>
    <g id="106-B80px" stroke="none" stroke-width="1" fill="none" fill-rule="evenodd">
        <g>
            <path d="M53.75,40.05 C61.325,40.05 67.5,46.225 67.5,53.8 C67.5,61.375 61.325,67.55 53.75,67.55 C46.175,67.55 40,61.375 40,53.8 C40,46.225 46.175,40.05 53.75,40.05 L53.75,40.05 Z M53.75,37.55 C44.775,37.55 37.5,44.825 37.5,53.8 C37.5,62.775 44.775,70.05 53.75,70.05 C62.725,70.05 70,62.775 70,53.8 C70,44.825 62.725,37.55 53.75,37.55 L53.75,37.55 Z" id="Shape" fill="#101828" fill-rule="nonzero"></path>
            <rect id="Rectangle" fill="#101828" fill-rule="nonzero" x="17.5" y="54.95" width="15" height="2.5"></rect>
            <rect id="Rectangle" fill="#101828" fill-rule="nonzero" x="17.5" y="59.95" width="15" height="2.5"></rect>
            <path d="M53.75,40.05 C61.325,40.05 67.5,46.225 67.5,53.8 C67.5,61.375 61.325,67.55 53.75,67.55 C46.175,67.55 40,61.375 40,53.8 C40,46.225 46.175,40.05 53.75,40.05 L53.75,40.05 Z M53.75,37.55 C44.775,37.55 37.5,44.825 37.5,53.8 C37.5,62.775 44.775,70.05 53.75,70.05 C62.725,70.05 70,62.775 70,53.8 C70,44.825 62.725,37.55 53.75,37.55 L53.75,37.55 Z" id="Shape" fill="#101828" fill-rule="nonzero"></path>
            <path d="M58.7,62.425 C56.625,62.425 54.95,60.75 54.95,58.675 C54.95,56.6 56.625,54.925 58.7,54.925 C60.775,54.925 62.45,56.6 62.45,58.675 C62.45,60.75 60.775,62.425 58.7,62.425 Z M58.7,57.425 C58,57.425 57.45,57.975 57.45,58.675 C57.45,59.375 58,59.925 58.7,59.925 C59.4,59.925 59.95,59.375 59.95,58.675 C59.95,57.975 59.4,57.425 58.7,57.425 Z" id="Shape" fill="#101828" fill-rule="nonzero"></path>
            <path d="M48.775,52.475 C46.7,52.475 45.025,50.8 45.025,48.725 C45.025,46.65 46.7,44.975 48.775,44.975 C50.85,44.975 52.525,46.65 52.525,48.725 C52.525,50.8 50.85,52.475 48.775,52.475 Z M48.775,47.475 C48.075,47.475 47.525,48.025 47.525,48.725 C47.525,49.425 48.075,49.975 48.775,49.975 C49.475,49.975 50.025,49.425 50.025,48.725 C50.025,48.025 49.45,47.475 48.775,47.475 Z" id="Shape" fill="#101828" fill-rule="nonzero"></path>
            <polygon id="Rectangle" fill="#101828" fill-rule="nonzero" transform="translate(53.755194, 53.705734) rotate(45.000000) translate(-53.755194, -53.705734) " points="52.4927059 43.1058354 55.0176816 43.1058354 55.0176816 64.3056321 52.4927059 64.3056321"></polygon>
            <path d="M51.3,12.45 L48.3,19.95 L16.7,19.95 L13.7,12.45 L51.3,12.45 L51.3,12.45 Z M55,9.95 L10,9.95 L15,22.45 L50,22.45 L55,9.95 L55,9.95 Z" id="Shape" fill="#101828" fill-rule="nonzero"></path>
            <path d="M52.475,14.95 L52.475,35.1 C52.9,35.075 53.325,35.025 53.75,35.025 C54.175,35.025 54.575,35.05 54.975,35.075 L54.975,17.45 L57.475,17.45 L57.475,35.4 C58.325,35.575 59.175,35.825 59.975,36.1 L59.975,14.95 L52.475,14.95 Z" id="Path" fill="#101828" fill-rule="nonzero"></path>
            <path d="M59.95,36.125 L59.95,22.45 L62.45,22.45 L62.45,37.2 C63.325,37.65 64.15,38.2 64.95,38.8 L64.95,19.95 L57.45,19.95 L57.45,35.4 C58.325,35.6 59.15,35.825 59.95,36.125 Z" id="Path" fill="#101828" fill-rule="nonzero"></path>
            <path d="M40.925,67.45 L12.5,67.45 L12.5,12.45 L52.5,12.45 L52.5,35.1 C52.925,35.075 53.325,35.025 53.75,35.025 C54.175,35.025 54.575,35.05 55,35.1 L55,9.95 L10,9.95 L10,69.95 L44.275,69.95 C43.075,69.25 41.95,68.4 40.925,67.45 Z" id="Path" fill="#101828" fill-rule="nonzero"></path>
            <rect id="Rectangle" x="0" y="0" width="80" height="80"></rect>
        </g>
    </g>
</svg>