<?xml version="1.0" encoding="UTF-8"?>
<svg width="56px" height="56px" viewBox="0 0 56 56" version="1.1" xmlns="http://www.w3.org/2000/svg" xmlns:xlink="http://www.w3.org/1999/xlink">
    <!-- Generator: Sketch 57.1 (83088) - https://sketch.com -->
    <title>087-B56px</title>
    <desc>Created with Sketch.</desc>
    <g id="087-B56px" stroke="none" stroke-width="1" fill="none" fill-rule="evenodd">
        <g>
            <path d="M33.25,45.5 L33.25,47.1625 C33.25,47.215 33.215,47.25 33.1625,47.25 L8.8375,47.25 C8.785,47.25 8.75,47.215 8.75,47.1625 L8.75,42 L17.5,42 L17.5,40.25 L8.75,40.25 L8.75,8.8375 C8.75,8.785 8.785,8.75 8.8375,8.75 L33.1625,8.75 C33.215,8.75 33.25,8.785 33.25,8.8375 L33.25,21 L35,21 L35,8.8375 C35,7.8225 34.1775,7 33.1625,7 L8.8375,7 C7.8225,7 7,7.8225 7,8.8375 L7,40.25 L7,42 L7,47.1625 C7,48.1775 7.8225,49 8.8375,49 L33.1625,49 C34.1775,49 35,48.1775 35,47.1625 L35,45.5 L33.25,45.5 Z" id="Path" fill="#101828" fill-rule="nonzero"></path>
            <path d="M47.25,24.5 L47.25,42 L21,42 L21,24.5 L47.25,24.5 L47.25,24.5 Z M47.25,22.75 L21,22.75 C20.0375,22.75 19.25,23.5375 19.25,24.5 L19.25,42 C19.25,42.9625 20.0375,43.75 21,43.75 L47.25,43.75 C48.2125,43.75 49,42.9625 49,42 L49,24.5 C49,23.5375 48.2125,22.75 47.25,22.75 L47.25,22.75 Z" id="Shape" fill="#101828" fill-rule="nonzero"></path>
            <path d="M47.25,28 L47.25,29.75 L21,29.75 L21,28 L47.25,28 L47.25,28 Z M49,26.25 L19.25,26.25 L19.25,31.5 L49,31.5 L49,26.25 L49,26.25 Z" id="Shape" fill="#101828" fill-rule="nonzero"></path>
            <path d="M38.9375,38.4125 C38.7975,38.4475 38.6575,38.5 38.5,38.5 C37.5375,38.5 36.75,37.7125 36.75,36.75 C36.75,35.7875 37.5375,35 38.5,35 C38.6575,35 38.7975,35.0525 38.9375,35.0875 C39.2525,34.5275 39.69,34.055 40.25,33.74 C39.725,33.4425 39.1475,33.25 38.5,33.25 C36.575,33.25 35,34.825 35,36.75 C35,38.675 36.575,40.25 38.5,40.25 C39.1475,40.25 39.725,40.0575 40.25,39.76 C39.69,39.445 39.2525,38.9725 38.9375,38.4125 Z" id="Path" fill="#101828" fill-rule="nonzero"></path>
            <path d="M42,35 C42.9625,35 43.75,35.7875 43.75,36.75 C43.75,37.7125 42.9625,38.5 42,38.5 C41.0375,38.5 40.25,37.7125 40.25,36.75 C40.25,35.7875 41.0375,35 42,35 L42,35 Z M42,33.25 C40.075,33.25 38.5,34.825 38.5,36.75 C38.5,38.675 40.075,40.25 42,40.25 C43.925,40.25 45.5,38.675 45.5,36.75 C45.5,34.825 43.925,33.25 42,33.25 L42,33.25 Z" id="Shape" fill="#101828" fill-rule="nonzero"></path>
            <rect id="Rectangle" x="0" y="0" width="56" height="56"></rect>
        </g>
    </g>
</svg>