<?xml version="1.0" encoding="UTF-8"?>
<svg width="80px" height="80px" viewBox="0 0 80 80" version="1.1" xmlns="http://www.w3.org/2000/svg" xmlns:xlink="http://www.w3.org/1999/xlink">
    <!-- Generator: Sketch 57.1 (83088) - https://sketch.com -->
    <title>072-W80px</title>
    <desc>Created with Sketch.</desc>
    <g id="NEW_icons" stroke="none" stroke-width="1" fill="none" fill-rule="evenodd">
        <g id="icons_UD_new-Copy" transform="translate(-869.000000, -9512.000000)">
            <g id="072-W80px" transform="translate(869.000000, 9512.000000)">
                <circle id="Oval-Copy-476" fill="#101828" cx="40" cy="40" r="40"></circle>
                <g id="072-B32px-Copy-8" transform="translate(12.000000, 12.000000)">
                    <path d="M33.1625,8.75 C33.215,8.75 33.25,8.785 33.25,8.8375 L33.25,47.1625 C33.25,47.215 33.215,47.25 33.1625,47.25 L8.8375,47.25 C8.785,47.25 8.75,47.215 8.75,47.1625 L8.75,8.8375 C8.75,8.785 8.785,8.75 8.8375,8.75 L33.1625,8.75 L33.1625,8.75 Z M33.1625,7 L8.8375,7 C7.8225,7 7,7.8225 7,8.8375 L7,47.1625 C7,48.1775 7.8225,49 8.8375,49 L33.1625,49 C34.1775,49 35,48.1775 35,47.1625 L35,8.8375 C35,7.8225 34.1775,7 33.1625,7 L33.1625,7 Z" id="Shape" fill="#FFFFFF" fill-rule="nonzero"></path>
                    <path d="M21,45.5 C21.4725,45.5 21.875,45.115 21.875,44.625 C21.875,44.135 21.4725,43.75 21,43.75 C20.5275,43.75 20.125,44.135 20.125,44.625 C20.125,45.115 20.5275,45.5 21,45.5" id="Path" fill="#FFFFFF" fill-rule="nonzero"></path>
                    <rect id="Rectangle" fill="#FFFFFF" fill-rule="nonzero" x="7" y="40.25" width="28" height="1.75"></rect>
                    <path d="M43.33,12.285 L42.2975,13.72 C45.325,16.31 47.25,20.1425 47.25,24.4125 C47.25,28.7 45.325,32.5325 42.2975,35.105 L43.33,36.54 C46.795,33.6525 49.0175,29.2775 49.0175,24.4125 C49,19.5475 46.795,15.19 43.33,12.285 Z" id="Path" fill="#FFFFFF" fill-rule="nonzero"></path>
                    <path d="M41.6325,15.8725 L40.6,17.3075 C42.525,19.075 43.75,21.595 43.75,24.4125 C43.75,27.23 42.525,29.7675 40.6,31.535 L41.6325,32.97 C43.995,30.8875 45.5,27.825 45.5,24.4125 C45.5,21.0175 43.995,17.955 41.6325,15.8725 Z" id="Path" fill="#FFFFFF" fill-rule="nonzero"></path>
                    <path d="M39.8825,19.53 L38.8325,20.9825 C39.7075,21.9275 40.25,23.17 40.25,24.535 C40.25,25.865 39.7425,27.055 38.9375,27.9825 L39.9875,29.4525 C41.23,28.1925 42,26.46 42,24.535 C42,22.575 41.1775,20.8075 39.8825,19.53 Z" id="Path" fill="#FFFFFF" fill-rule="nonzero"></path>
                    <rect id="Rectangle" x="0" y="0" width="56" height="56"></rect>
                </g>
            </g>
        </g>
    </g>
</svg>