<?xml version="1.0" encoding="UTF-8"?>
<svg width="56px" height="56px" viewBox="0 0 56 56" version="1.1" xmlns="http://www.w3.org/2000/svg" xmlns:xlink="http://www.w3.org/1999/xlink">
    <!-- Generator: Sketch 57.1 (83088) - https://sketch.com -->
    <title>028-B56px</title>
    <desc>Created with Sketch.</desc>
    <g id="028-B56px" stroke="none" stroke-width="1" fill="none" fill-rule="evenodd">
        <g>
            <path d="M19.95,28.9975 C18.935,29.47 17.815,29.75 16.625,29.75 C12.285,29.75 8.75,26.215 8.75,21.875 C8.75,17.535 12.285,14 16.625,14 C20.965,14 24.5,17.535 24.5,21.875 C24.5,23.2575 24.115,24.535 23.485,25.6725 C24.2025,25.27 24.99,24.9725 25.8125,24.78 C26.0925,23.8525 26.25,22.89 26.25,21.875 C26.25,16.555 21.945,12.25 16.625,12.25 C11.305,12.25 7,16.555 7,21.875 C7,27.195 11.305,31.5 16.625,31.5 C17.395,31.5 18.1475,31.395 18.8825,31.22 C19.145,30.4325 19.5125,29.68 19.95,28.9975 Z" id="Path" fill="#101828" fill-rule="nonzero"></path>
            <path d="M39.375,12.25 C34.055,12.25 29.75,16.555 29.75,21.875 C29.75,22.89 29.9075,23.8525 30.1875,24.7625 C31.01,24.955 31.78,25.27 32.515,25.655 C31.885,24.535 31.5,23.2575 31.5,21.875 C31.5,17.535 35.035,14 39.375,14 C43.715,14 47.25,17.535 47.25,21.875 C47.25,26.215 43.715,29.75 39.375,29.75 C38.185,29.75 37.065,29.47 36.05,28.98 C36.4875,29.6625 36.855,30.415 37.1175,31.22 C37.835,31.395 38.5875,31.5 39.375,31.5 C44.695,31.5 49,27.195 49,21.875 C49,16.555 44.695,12.25 39.375,12.25 Z" id="Path" fill="#101828" fill-rule="nonzero"></path>
            <path d="M28,28 C31.325,28 34.055,30.87 34.09,34.3525 C34.055,36.96 30.7475,42.28 28,46.0075 C25.235,42.28 21.91,36.995 21.91,34.5275 L21.91,34.44 C21.91,30.8875 24.64,28 28,28 L28,28 Z M28,26.25 L28,26.25 C23.6775,26.25 20.16,29.9075 20.16,34.44 L20.16,34.5275 C20.16,39.1125 28,48.895 28,48.895 C28,48.895 35.7875,39.1825 35.8225,34.37 C35.805,29.8725 32.305,26.25 28,26.25 L28,26.25 Z" id="Shape" fill="#101828" fill-rule="nonzero"></path>
            <path d="M28,31.5 C29.4,31.5 30.52,32.6725 30.52,34.125 C30.52,35.5775 29.4,36.75 28,36.75 C26.6,36.75 25.48,35.5775 25.48,34.125 C25.48,32.6725 26.6,31.5 28,31.5 L28,31.5 Z M28,29.75 C25.6375,29.75 23.73,31.71 23.73,34.125 C23.73,36.54 25.6375,38.5 28,38.5 C30.3625,38.5 32.27,36.54 32.27,34.125 C32.27,31.71 30.3625,29.75 28,29.75 L28,29.75 Z" id="Shape" fill="#101828" fill-rule="nonzero"></path>
            <path d="M35.875,21 C35.385,21 35,21.385 35,21.875 C35,22.365 35.385,22.75 35.875,22.75 C36.365,22.75 36.75,22.365 36.75,21.875 C36.75,21.385 36.365,21 35.875,21 L35.875,21 Z" id="Path" fill="#101828" fill-rule="nonzero"></path>
            <path d="M42.875,21 C42.385,21 42,21.385 42,21.875 C42,22.365 42.385,22.75 42.875,22.75 C43.365,22.75 43.75,22.365 43.75,21.875 C43.75,21.385 43.365,21 42.875,21 L42.875,21 Z" id="Path" fill="#101828" fill-rule="nonzero"></path>
            <path d="M13.125,21 C12.635,21 12.25,21.385 12.25,21.875 C12.25,22.365 12.635,22.75 13.125,22.75 C13.615,22.75 14,22.365 14,21.875 C14,21.385 13.615,21 13.125,21 L13.125,21 Z" id="Path" fill="#101828" fill-rule="nonzero"></path>
            <path d="M20.125,21 C19.635,21 19.25,21.385 19.25,21.875 C19.25,22.365 19.635,22.75 20.125,22.75 C20.615,22.75 21,22.365 21,21.875 C21,21.385 20.615,21 20.125,21 L20.125,21 Z" id="Path" fill="#101828" fill-rule="nonzero"></path>
            <path d="M35.175,26.46 C37.6075,28.5075 41.16,28.5075 43.575,26.46 L42.525,25.06 C40.7225,26.6525 38.01,26.635 36.2075,25.06 L35.175,26.46 Z" id="Path" fill="#101828" fill-rule="nonzero"></path>
            <path d="M12.425,26.46 C14.8575,28.5075 18.41,28.5075 20.825,26.46 L19.775,25.06 C17.9725,26.6525 15.26,26.635 13.4575,25.06 L12.425,26.46 Z" id="Path" fill="#101828" fill-rule="nonzero"></path>
            <g id="Group" transform="translate(12.250000, 8.750000)" fill="#101828" fill-rule="nonzero">
                <path d="M5.25,5.25 L3.5,5.25 C3.5,3.745 4.41,0.875 7.875,0.875 L7.875,2.625 C5.4075,2.625 5.25,4.8125 5.25,5.25 Z" id="Path"></path>
                <path d="M3.5,5.25 C3.5,4.8125 3.3425,2.625 0.875,2.625 L0.875,0.875 C4.34,0.875 5.25,3.745 5.25,5.25 L3.5,5.25 L4.375,5.25 L3.5,5.25 Z" id="Path"></path>
            </g>
            <g id="Group" transform="translate(33.250000, 7.000000)" fill="#101828" fill-rule="nonzero">
                <polygon id="Path" points="1.75 7.735 0 7.735 0 1.4 6.3875 3.4825 5.845 5.145 1.75 3.815"></polygon>
                <polygon id="Path" points="12.2325 7.735 10.4825 7.735 10.4825 3.815 6.405 5.145 5.845 3.4825 12.2325 1.4"></polygon>
                <rect id="Rectangle" x="5.25" y="3.5" width="1.75" height="1.75"></rect>
            </g>
            <polygon id="Path" fill="#101828" fill-rule="nonzero" points="24.5 19.25 16.2575 19.25 14.875 17.8675 13.4925 19.25 8.75 19.25 8.75 17.5 12.7575 17.5 14.875 15.3825 16.9925 17.5 24.5 17.5"></polygon>
            <polygon id="Path" fill="#101828" fill-rule="nonzero" points="47.25 19.25 39.0075 19.25 37.625 17.8675 36.2425 19.25 31.5 19.25 31.5 17.5 35.5075 17.5 37.625 15.3825 39.7425 17.5 47.25 17.5"></polygon>
            <rect id="Rectangle" x="0" y="0" width="56" height="56"></rect>
        </g>
    </g>
</svg>