<?xml version="1.0" encoding="UTF-8"?>
<svg width="56px" height="56px" viewBox="0 0 56 56" version="1.1" xmlns="http://www.w3.org/2000/svg" xmlns:xlink="http://www.w3.org/1999/xlink">
    <!-- Generator: Sketch 57.1 (83088) - https://sketch.com -->
    <title>067-W56px</title>
    <desc>Created with Sketch.</desc>
    <g id="NEW_icons" stroke="none" stroke-width="1" fill="none" fill-rule="evenodd">
        <g id="icons_UD_new-Copy" transform="translate(-1814.000000, -8790.000000)">
            <g id="067-W56px" transform="translate(1814.000000, 8790.000000)">
                <g id="003-B32px-Copy-102" transform="translate(8.000000, 8.000000)">
                    <g id="Group" transform="translate(10.000000, 5.000000)" fill="#FFFFFF" fill-rule="nonzero">
                        <path d="M18.6875,0 L1.3125,0 C0.5875,0 0,0.5875 0,1.3125 L0,23.75 L0,25 L0,28.6875 C0,29.4125 0.5875,30 1.3125,30 L18.6875,30 C19.4125,30 20,29.4125 20,28.6875 L20,25 L20,23.75 L20,1.3125 C20,0.5875 19.4125,0 18.6875,0 Z M18.75,28.6875 C18.75,28.725 18.725,28.75 18.6875,28.75 L1.3125,28.75 C1.275,28.75 1.25,28.725 1.25,28.6875 L1.25,25 L18.75,25 L18.75,28.6875 Z M1.25,23.75 L1.25,1.3125 C1.25,1.275 1.275,1.25 1.3125,1.25 L18.6875,1.25 C18.725,1.25 18.75,1.275 18.75,1.3125 L18.75,23.75 L1.25,23.75 Z" id="Shape"></path>
                        <path d="M10,27.4875 C10.3375,27.4875 10.625,27.2125 10.625,26.8625 C10.625,26.525 10.35,26.2375 10,26.2375 C9.65,26.2375 9.375,26.5125 9.375,26.8625 C9.375,27.2125 9.6625,27.4875 10,27.4875 Z" id="Path"></path>
                        <path d="M12.5125,20 L7.5,20.0125 L7.5,16.25 L6.25,16.25 L6.25,20.0125 C6.25,20.6875 6.8,21.25 7.4875,21.25 L12.525,21.25 C13.2,21.25 13.7625,20.7 13.7625,20.0125 L13.7625,16.25 L12.5125,16.25 L12.5125,20 Z" id="Path"></path>
                        <polygon id="Path" points="4.775 15.575 5.5625 16.5375 10 12.875 14.4375 16.5375 15.225 15.575 10 11.2625"></polygon>
                        <path d="M12.6,7.3125 C11.925,6.65 11.0125,6.25 10,6.25 C8.9625,6.25 8.025,6.675 7.35,7.35 L8.2375,8.2375 C8.6875,7.775 9.3125,7.5 10,7.5 C10.6625,7.5 11.275,7.7625 11.7125,8.1875 L12.6,7.3125 Z" id="Path"></path>
                        <path d="M9.1125,9.1125 L9.95,9.95 L10.825,9.075 C10.6125,8.875 10.325,8.75 10,8.75 C9.65,8.75 9.3375,8.8875 9.1125,9.1125 Z" id="Path"></path>
                        <path d="M10,5 C11.35,5 12.5875,5.55 13.4875,6.425 L14.375,5.5375 C13.2375,4.4375 11.7,3.75 10,3.75 C8.275,3.75 6.7125,4.45 5.575,5.575 L6.4625,6.4625 C7.375,5.5625 8.625,5 10,5 Z" id="Path"></path>
                    </g>
                    <rect id="Rectangle" x="0" y="0" width="40" height="40"></rect>
                </g>
                <circle id="Oval-Copy-460" fill="#101828" cx="28" cy="28" r="28"></circle>
                <g id="067-B32px-Copy-6" transform="translate(8.000000, 8.000000)">
                    <path d="M23.75,28.5375 C18.1,27.0875 12.9125,21.8 12.8625,21.75 C12.8,21.6875 6.9625,15.575 6.25,9.5625 C6.25,9.525 6.25,9.4625 6.2875,9.425 L9.5625,6.2625 C9.5875,6.2375 9.6125,6.225 9.65,6.225 C9.675,6.225 9.7,6.25 9.7,6.25 L14.6375,11.35 C14.675,11.3875 14.6625,11.45 14.625,11.5 L12.4375,13.6125 L11.8375,14.2 L12.15,14.975 C12.2,15.1 13.3625,17.9375 15.025,19.65 C16.6875,21.3625 19.4875,22.625 19.6125,22.675 L20.3875,23.0125 L20.9875,22.425 L23.175,20.3125 C23.2,20.2875 23.225,20.275 23.2625,20.275 C23.3,20.275 23.325,20.3 23.325,20.3 L23.75,20.775 L23.75,19.15 C23.5875,19.0875 23.4125,19.05 23.25,19.05 C22.9125,19.05 22.5625,19.175 22.3,19.4375 L20.1125,21.55 C20.1125,21.55 17.4375,20.3625 15.925,18.8 C14.4125,17.2375 13.3125,14.525 13.3125,14.525 L15.5,12.4125 C16.0375,11.8875 16.0625,11.0375 15.5375,10.5 L10.6,5.3875 C10.3375,5.1125 9.9875,4.975 9.6375,4.975 C9.3,4.975 8.95,5.1 8.6875,5.3625 L5.4125,8.525 C5.1,8.8375 4.9625,9.275 5.0125,9.7125 C5.7875,16.2375 11.9625,22.6125 11.9625,22.6125 C11.9625,22.6125 17.5375,28.3625 23.75,29.8125 L23.75,28.5375 Z" id="Path" fill="#FFFFFF" fill-rule="nonzero"></path>
                    <path d="M33.6875,20 C33.725,20 33.75,20.025 33.75,20.0625 L33.75,33.6875 C33.75,33.725 33.725,33.75 33.6875,33.75 L26.3125,33.75 C26.275,33.75 26.25,33.725 26.25,33.6875 L26.25,20.0625 C26.25,20.025 26.275,20 26.3125,20 L33.6875,20 L33.6875,20 Z M33.6875,18.75 L26.3125,18.75 C25.5875,18.75 25,19.3375 25,20.0625 L25,33.6875 C25,34.4125 25.5875,35 26.3125,35 L33.6875,35 C34.4125,35 35,34.4125 35,33.6875 L35,20.0625 C35,19.3375 34.4125,18.75 33.6875,18.75 L33.6875,18.75 Z" id="Shape" fill="#FFFFFF" fill-rule="nonzero"></path>
                    <rect id="Rectangle" fill="#FFFFFF" fill-rule="nonzero" x="25" y="30" width="10" height="1.25"></rect>
                    <circle id="Oval" fill="#FFFFFF" fill-rule="nonzero" cx="30" cy="32.5" r="1"></circle>
                    <rect id="Rectangle" x="0" y="0" width="40" height="40"></rect>
                </g>
            </g>
        </g>
    </g>
</svg>