<?xml version="1.0" encoding="UTF-8"?>
<svg width="42px" height="42px" viewBox="0 0 42 42" version="1.1" xmlns="http://www.w3.org/2000/svg" xmlns:xlink="http://www.w3.org/1999/xlink">
    <!-- Generator: Sketch 57.1 (83088) - https://sketch.com -->
    <title>086-G40px</title>
    <desc>Created with Sketch.</desc>
    <g id="NEW_icons" stroke="none" stroke-width="1" fill="none" fill-rule="evenodd">
        <g id="icons_UD_new-Copy" transform="translate(-244.000000, -11308.000000)">
            <g id="086-G40px" transform="translate(245.000000, 11309.000000)">
                <circle id="Oval-Copy-577" stroke="#E3E8EC" cx="20" cy="20" r="20"></circle>
                <g id="086-B32px-Copy-4" transform="translate(4.000000, 4.000000)">
                    <polygon id="Path" fill="#101828" fill-rule="nonzero" points="13.2 14 13.2 16 13.2 17 13.2 19 14.2 19 14.2 17 14.2 16 14.2 14"></polygon>
                    <polygon id="Path" fill="#101828" fill-rule="nonzero" points="15.5 15 15.5 16 15.5 17 15.5 18 16.5 18 16.5 17 16.5 16 16.5 15"></polygon>
                    <polygon id="Path" fill="#101828" fill-rule="nonzero" points="27 15.6 27 16.2 27 16.8 27 17.4 28 17.4 28 16.8 28 16.2 28 15.6"></polygon>
                    <polygon id="Path" fill="#101828" fill-rule="nonzero" points="24.7 14.4 24.7 16.2 24.7 16.8 24.7 18.6 25.7 18.6 25.7 16.8 25.7 16.2 25.7 14.4"></polygon>
                    <polygon id="Path" fill="#101828" fill-rule="nonzero" points="17.8 15.5 17.8 16.3 17.8 16.7 17.8 17.5 18.8 17.5 18.8 16.7 18.8 16.3 18.8 15.5"></polygon>
                    <polygon id="Path" fill="#101828" fill-rule="nonzero" points="8.6 11 8.6 16 8.6 17 8.6 22 9.6 22 9.6 17 9.6 16 9.6 11"></polygon>
                    <polygon id="Path" fill="#101828" fill-rule="nonzero" points="10.9 13 10.9 16 10.9 17 10.9 20 11.9 20 11.9 17 11.9 16 11.9 13"></polygon>
                    <polygon id="Path" fill="#101828" fill-rule="nonzero" points="20.1 13.8 20.1 16.2 20.1 16.8 20.1 19.2 21.1 19.2 21.1 16.8 21.1 16.2 21.1 13.8"></polygon>
                    <polygon id="Path" fill="#101828" fill-rule="nonzero" points="22.4 12.65 22.4 16.2 22.4 16.8 22.4 20.35 23.4 20.35 23.4 16.8 23.4 16.2 23.4 12.65"></polygon>
                    <polygon id="Path" fill="#101828" fill-rule="nonzero" points="4 15 4 15.6 4 17.4 4 18 5 18 5 17.4 5 15.6 5 15"></polygon>
                    <polygon id="Path" fill="#101828" fill-rule="nonzero" points="6.3 13 6.3 16 6.3 17 6.3 20 7.3 20 7.3 17 7.3 16 7.3 13"></polygon>
                    <rect id="Rectangle" x="0" y="0" width="32" height="32"></rect>
                </g>
            </g>
        </g>
    </g>
</svg>