<?xml version="1.0" encoding="UTF-8"?>
<svg width="32px" height="32px" viewBox="0 0 32 32" version="1.1" xmlns="http://www.w3.org/2000/svg" xmlns:xlink="http://www.w3.org/1999/xlink">
    <!-- Generator: Sketch 57.1 (83088) - https://sketch.com -->
    <title>102-B32px</title>
    <desc>Created with Sketch.</desc>
    <g id="102-B32px" stroke="none" stroke-width="1" fill="none" fill-rule="evenodd">
        <g>
            <path d="M27,5 L27,27 L20,27 L20,5 L27,5 L27,5 Z M27,4 L20,4 C19.45,4 19,4.45 19,5 L19,27 C19,27.55 19.45,28 20,28 L27,28 C27.55,28 28,27.55 28,27 L28,5 C28,4.45 27.55,4 27,4 L27,4 Z" id="Shape" fill="#101828" fill-rule="nonzero"></path>
            <path d="M12,5 L12,27 L5,27 L5,5 L12,5 L12,5 Z M12,4 L5,4 C4.45,4 4,4.45 4,5 L4,27 C4,27.55 4.45,28 5,28 L12,28 C12.55,28 13,27.55 13,27 L13,5 C13,4.45 12.55,4 12,4 L12,4 Z" id="Shape" fill="#101828" fill-rule="nonzero"></path>
            <rect id="Rectangle" x="0" y="0" width="32" height="32"></rect>
        </g>
    </g>
</svg>