<?xml version="1.0" encoding="UTF-8"?>
<svg width="42px" height="42px" viewBox="0 0 42 42" version="1.1" xmlns="http://www.w3.org/2000/svg" xmlns:xlink="http://www.w3.org/1999/xlink">
    <!-- Generator: Sketch 56.3 (81716) - https://sketch.com -->
    <title>024-G40px</title>
    <desc>Created with Sketch.</desc>
    <g id="NEW_icons" stroke="none" stroke-width="1" fill="none" fill-rule="evenodd">
        <g id="icons_UD_new-Copy" transform="translate(-244.000000, -3377.000000)">
            <g id="024-G40px" transform="translate(245.000000, 3378.000000)">
                <circle id="Oval-Copy-228" stroke="#E3E8EC" cx="20" cy="20" r="20"></circle>
                <g id="024-B32px-Copy-2" transform="translate(4.000000, 4.000000)">
                    <path d="M16.02,20.46 C15.43,21.24 14.74,21.77 14,21.94 L14,18 L16,18 L16,17 L14,17 L14,14 L16,14 L16,13.78 C16,13.5 16.07,13.24 16.19,13 L14,13 L14,10 L17.58,10 C17.74,10.63 17.83,11.31 17.9,12 L18.91,12 C18.85,11.31 18.76,10.63 18.61,10 L21.24,10 C21.53,10.63 21.73,11.3 21.85,12 L22.87,12 C22.15,7.47 18.23,4 13.5,4 C13.5,4 13.49,4 13.49,4 C13.49,4 13.49,4 13.48,4 C13.47,4 13.47,4 13.46,4 C8.23,4.02 4,8.27 4,13.5 C4,18.73 8.23,22.98 13.46,23 C13.47,23 13.47,23 13.48,23 C13.48,23 13.48,23 13.49,23 C13.49,23 13.5,23 13.5,23 C15.02,23 16.46,22.63 17.73,22 C16.85,21.97 16.14,21.31 16.02,20.46 Z M20.7,9 L18.34,9 C17.9,7.61 17.27,6.43 16.51,5.56 C18.25,6.22 19.72,7.44 20.7,9 Z M14,5.06 C15.37,5.37 16.57,6.88 17.29,9 L14,9 L14,5.06 Z M10.45,5.58 C9.69,6.44 9.06,7.62 8.63,9 L6.3,9 C7.27,7.45 8.72,6.24 10.45,5.58 Z M5.76,10 L8.36,10 C8.14,10.94 8.02,11.95 7.98,13 L5.03,13 C5.09,11.94 5.34,10.92 5.76,10 Z M5.03,14 L7.99,14 C8.02,15.05 8.15,16.06 8.37,17 L5.77,17 C5.34,16.08 5.09,15.06 5.03,14 Z M6.3,18 L8.63,18 C9.06,19.38 9.69,20.56 10.45,21.42 C8.72,20.76 7.27,19.55 6.3,18 Z M13,21.95 C11.62,21.66 10.41,20.14 9.68,18 L13,18 L13,21.95 Z M13,17 L9.39,17 C9.16,16.07 9.02,15.06 8.98,14 L13,14 L13,17 Z M13,13 L8.98,13 C9.01,11.94 9.16,10.93 9.39,10 L13,10 L13,13 Z M13,9 L9.68,9 C10.41,6.87 11.62,5.35 13,5.05 L13,9 Z" id="Shape" fill="#101828" fill-rule="nonzero"></path>
                    <path d="M27,14 L27,20 L18,20 L18,14 L27,14 L27,14 Z M27,13 L18,13 C17.45,13 17,13.45 17,14 L17,20 C17,20.55 17.45,21 18,21 L27,21 C27.55,21 28,20.55 28,20 L28,14 C28,13.45 27.55,13 27,13 L27,13 Z" id="Shape" fill="#101828" fill-rule="nonzero"></path>
                    <rect id="Rectangle" fill="#101828" fill-rule="nonzero" x="25" y="13" width="1" height="4"></rect>
                    <rect id="Rectangle" fill="#101828" fill-rule="nonzero" x="23" y="13" width="1" height="4"></rect>
                    <rect id="Rectangle" fill="#101828" fill-rule="nonzero" x="19" y="13" width="1" height="4"></rect>
                    <rect id="Rectangle" fill="#101828" fill-rule="nonzero" x="21" y="13" width="1" height="4"></rect>
                    <path d="M25,21 L25,22 L20,22 L20,21 L25,21 L25,21 Z M25,20 L20,20 C19.45,20 19,20.45 19,21 L19,22 C19,22.55 19.45,23 20,23 L25,23 C25.55,23 26,22.55 26,22 L26,21 C26,20.45 25.55,20 25,20 L25,20 Z" id="Shape" fill="#101828" fill-rule="nonzero"></path>
                    <g id="Group" transform="translate(21.000000, 23.000000)" fill="#101828" fill-rule="nonzero">
                        <polygon id="Path" points="1 5 1 1 1 0 0 0 0 5"></polygon>
                        <polygon id="Path" points="3 0 2 0 2 1 2 5 3 5"></polygon>
                    </g>
                    <rect id="Rectangle" x="0" y="0" width="32" height="32"></rect>
                </g>
            </g>
        </g>
    </g>
</svg>