<?xml version="1.0" encoding="UTF-8"?>
<svg width="80px" height="80px" viewBox="0 0 80 80" version="1.1" xmlns="http://www.w3.org/2000/svg" xmlns:xlink="http://www.w3.org/1999/xlink">
    <!-- Generator: Sketch 58 (84663) - https://sketch.com -->
    <title>255-B80px</title>
    <desc>Created with Sketch.</desc>
    <g id="255-B80px" stroke="none" stroke-width="1" fill="none" fill-rule="evenodd">
        <g id="255-B32px">
            <g>
                <path d="M45,56.3 C34.7,52.65 25.825,43.6 25.725,43.5 C25.6,43.35 13.925,31.15 12.5,19.125 C12.5,19.05 12.5,18.925 12.575,18.85 L19.125,12.525 C19.175,12.475 19.225,12.45 19.3,12.45 C19.375,12.45 19.425,12.5 19.425,12.5 L29.3,22.7 C29.375,22.775 29.35,22.925 29.275,23 L24.9,27.225 L23.7,28.4 L24.325,29.95 C24.425,30.2 26.75,35.875 30.075,39.3 C33.4,42.725 39,45.25 39.25,45.35 L40.8,46.025 L42,44.85 L46.375,40.625 C46.425,40.575 46.475,40.55 46.55,40.55 C46.625,40.55 46.675,40.6 46.675,40.6 L50.9,44.975 L54.375,44.975 L48.45,38.875 C47.925,38.325 47.225,38.05 46.525,38.05 C45.85,38.05 45.15,38.3 44.625,38.825 L40.25,43.05 C40.25,43.05 34.9,40.675 31.875,37.55 C28.85,34.425 26.65,29 26.65,29 L31.025,24.775 C32.1,23.725 32.15,22.025 31.1,20.95 L21.2,10.75 C20.675,10.225 19.975,9.95 19.275,9.95 C18.6,9.95 17.9,10.2 17.375,10.725 L10.825,17.05 C10.2,17.675 9.925,18.525 10.025,19.4 C11.575,32.45 23.925,45.2 23.925,45.2 C23.925,45.2 33.625,55.2 45,58.9 L45,56.3 Z" id="Path" fill="#101828" fill-rule="nonzero"></path>
                <path d="M65.275,63.85 L62.5,65.6 L62.5,62.125 L65.275,63.85 L65.275,63.85 Z M70,63.85 L60,57.625 L60.025,70.125 L70,63.85 L70,63.85 Z" id="Shape" fill="#101828" fill-rule="nonzero"></path>
                <polygon id="Rectangle" fill="#101828" fill-rule="nonzero" transform="translate(55.012550, 63.725229) rotate(-0.111984) translate(-55.012550, -63.725229) " points="47.5250353 62.4752265 62.5000639 62.4752265 62.5000639 64.9752312 47.5250353 64.9752312"></polygon>
                <path d="M65.275,48.85 L62.5,50.6 L62.5,47.125 L65.275,48.85 L65.275,48.85 Z M70,48.85 L60,42.625 L60.025,55.125 L70,48.85 L70,48.85 Z" id="Shape" fill="#101828" fill-rule="nonzero"></path>
                <polygon id="Rectangle" fill="#101828" fill-rule="nonzero" transform="translate(55.012585, 48.725145) rotate(-0.111811) translate(-55.012585, -48.725145) " points="47.5250709 47.4751427 62.5000994 47.4751427 62.5000994 49.9751474 47.5250709 49.9751474"></polygon>
                <rect id="Rectangle" x="0" y="0" width="80" height="80"></rect>
            </g>
        </g>
    </g>
</svg>