<?xml version="1.0" encoding="UTF-8"?>
<svg width="32px" height="32px" viewBox="0 0 32 32" version="1.1" xmlns="http://www.w3.org/2000/svg" xmlns:xlink="http://www.w3.org/1999/xlink">
    <!-- Generator: Sketch 57.1 (83088) - https://sketch.com -->
    <title>221-B32px</title>
    <desc>Created with Sketch.</desc>
    <g id="221-B32px" stroke="none" stroke-width="1" fill="none" fill-rule="evenodd">
        <g>
            <path d="M27,5 L27,13 L19,13 L19,5 L27,5 L27,5 Z M28,4 L18,4 L18,14 L28,14 L28,4 L28,4 Z" id="Shape" fill="#101828" fill-rule="nonzero"></path>
            <path d="M22,19.1 L26.3,27 L17.7,27 L22,19.1 L22,19.1 Z M22,17 L16,28 L28,28 L22,17 L22,17 Z" id="Shape" fill="#101828" fill-rule="nonzero"></path>
            <path d="M11.7,5 L13.9,9 L11.7,13 L7.3,13 L5.1,9 L7.3,5 L11.7,5 L11.7,5 Z M12.2,4 L6.8,4 L4,9 L6.8,14 L12.3,14 L15,9 L12.2,4 L12.2,4 Z" id="Shape" fill="#101828" fill-rule="nonzero"></path>
            <path d="M9.5,18 C12,18 14,20 14,22.5 C14,25 12,27 9.5,27 C7,27 5,25 5,22.5 C5,20 7,18 9.5,18 L9.5,18 Z M9.5,17 C6.5,17 4,19.5 4,22.5 C4,25.5 6.5,28 9.5,28 C12.5,28 15,25.5 15,22.5 C15,19.5 12.5,17 9.5,17 L9.5,17 Z" id="Shape" fill="#101828" fill-rule="nonzero"></path>
            <rect id="Rectangle" x="0" y="0" width="32" height="32"></rect>
        </g>
    </g>
</svg>