<?xml version="1.0" encoding="UTF-8"?>
<svg width="80px" height="80px" viewBox="0 0 80 80" version="1.1" xmlns="http://www.w3.org/2000/svg" xmlns:xlink="http://www.w3.org/1999/xlink">
    <!-- Generator: Sketch 57.1 (83088) - https://sketch.com -->
    <title>195-G80px</title>
    <desc>Created with Sketch.</desc>
    <g id="NEW_icons" stroke="none" stroke-width="1" fill="none" fill-rule="evenodd">
        <g id="icons_UD_new-Copy" transform="translate(-2050.000000, -24833.000000)">
            <g id="195-G80px" transform="translate(2050.000000, 24833.000000)">
                <circle id="Oval-Copy-1182" fill="#E3E8EC" cx="40" cy="40" r="40"></circle>
                <g id="195-B32px-Copy-6" transform="translate(12.000000, 12.000000)">
                    <rect id="Rectangle" fill="#101828" fill-rule="nonzero" x="33.25" y="21" width="1.75" height="12.2325"></rect>
                    <rect id="Rectangle" fill="#101828" fill-rule="nonzero" x="29.75" y="22.75" width="1.75" height="10.5"></rect>
                    <rect id="Rectangle" fill="#101828" fill-rule="nonzero" x="26.25" y="24.5" width="1.75" height="8.75"></rect>
                    <rect id="Rectangle" fill="#101828" fill-rule="nonzero" x="19.25" y="27.9825" width="1.75" height="5.25"></rect>
                    <rect id="Rectangle" fill="#101828" fill-rule="nonzero" x="22.75" y="26.25" width="1.75" height="7"></rect>
                    <path d="M47.215,17.5 L47.25,17.535 L47.215,36.7675 L8.75,36.7325 L8.785,17.5 L47.215,17.5 L47.215,17.5 Z M47.215,15.75 L8.785,15.75 C7.805,15.75 7,16.555 7,17.535 L7,36.7325 C7,37.7125 7.805,38.5175 8.785,38.5175 L47.215,38.5175 C48.195,38.5175 49,37.7125 49,36.7325 L49,17.535 C49,16.555 48.195,15.75 47.215,15.75 L47.215,15.75 Z" id="Shape" fill="#101828" fill-rule="nonzero"></path>
                    <path d="M27.965,38.395 C20.4225,38.395 14.77,39.55 12.25,40.18 L12.25,41.9825 C14.42,41.4225 20.195,40.145 27.965,40.145 C35.805,40.145 41.6325,41.44 43.75,42 L43.75,40.1975 C41.2475,39.5675 35.5775,38.395 27.965,38.395 Z" id="Path" fill="#101828" fill-rule="nonzero"></path>
                    <rect id="Rectangle" x="0" y="0" width="56" height="56"></rect>
                </g>
            </g>
        </g>
    </g>
</svg>