<?xml version="1.0" encoding="UTF-8"?>
<svg width="40px" height="40px" viewBox="0 0 40 40" version="1.1" xmlns="http://www.w3.org/2000/svg" xmlns:xlink="http://www.w3.org/1999/xlink">
    <!-- Generator: Sketch 57.1 (83088) - https://sketch.com -->
    <title>231-B40px</title>
    <desc>Created with Sketch.</desc>
    <g id="231-B40px" stroke="none" stroke-width="1" fill="none" fill-rule="evenodd">
        <g>
            <path d="M22.4875,13.75 C22.45,14.6 22.275,15.7 22.0375,16.225 C21.6875,17.0125 21.05,18.0125 20,18.6125 C18.95,18.0125 18.3125,17.0125 17.9625,16.225 C17.725,15.6875 17.55,14.5875 17.5125,13.75 L22.4875,13.75 L22.4875,13.75 Z M23.75,12.5 L16.25,12.5 L16.25,13.4375 C16.25,14.3625 16.4375,15.9 16.8125,16.75 C17.3375,17.9 18.3,19.325 20,20 C21.7,19.325 22.6625,17.9 23.1875,16.75 C23.575,15.9125 23.75,14.3625 23.75,13.4375 L23.75,12.5 L23.75,12.5 Z" id="Shape" fill="#101828" fill-rule="nonzero"></path>
            <path d="M33.75,10 L33.7625,26.25 L6.25,26.2625 L6.2375,10 L33.75,10 L33.75,10 Z M33.7625,8.75 L6.2375,8.75 C5.5625,8.75 5,9.3125 5,9.9875 L5,26.25 C5,26.9375 5.5625,27.5 6.2375,27.5 L33.75,27.5 C34.4375,27.5 34.9877044,26.9375 34.9877044,26.2625 L34.9877044,9.9875 C35,9.3125 34.4375,8.75 33.7625,8.75 L33.7625,8.75 Z" id="Shape" fill="#101828" fill-rule="nonzero"></path>
            <rect id="Rectangle" fill="#101828" fill-rule="nonzero" x="6.25" y="22.5" width="27.5" height="1.25"></rect>
            <rect id="Rectangle" fill="#101828" fill-rule="nonzero" x="21.25" y="27.5" width="1.25" height="3.75"></rect>
            <rect id="Rectangle" fill="#101828" fill-rule="nonzero" x="17.5" y="27.5" width="1.25" height="3.75"></rect>
            <rect id="Rectangle" fill="#101828" fill-rule="nonzero" x="15.025" y="30" width="9.975" height="1.25"></rect>
            <path d="M20,25.6125 C20.3375,25.6125 20.625,25.3375 20.625,24.9875 C20.625,24.6375 20.35,24.3625 20,24.3625 C19.6625,24.3625 19.375,24.6375 19.375,24.9875 C19.375,25.3375 19.6625,25.6125 20,25.6125" id="Path" fill="#101828" fill-rule="nonzero"></path>
            <rect id="Rectangle" x="0" y="0" width="40" height="40"></rect>
        </g>
    </g>
</svg>