<?xml version="1.0" encoding="UTF-8"?>
<svg width="80px" height="80px" viewBox="0 0 80 80" version="1.1" xmlns="http://www.w3.org/2000/svg" xmlns:xlink="http://www.w3.org/1999/xlink">
    <!-- Generator: Sketch 59.1 (86144) - https://sketch.com -->
    <title>267-C80px</title>
    <desc>Created with Sketch.</desc>
    <g id="NEW_icons" stroke="none" stroke-width="1" fill="none" fill-rule="evenodd">
        <g id="icons_UD_new-Copy" transform="translate(-2284.000000, -33874.000000)">
            <g id="267-C80px" transform="translate(2284.000000, 33874.000000)">
                <circle id="Oval-Copy-1493" fill="#FF4F12" cx="40" cy="40" r="40"></circle>
                <g id="267-B32px-Copy-9" transform="translate(12.000000, 12.000000)">
                    <rect id="Rectangle" x="0" y="0" width="56" height="56"></rect>
                    <g id="Group" transform="translate(3.500000, 7.000000)" fill="#FFFFFF" fill-rule="nonzero">
                        <path d="M26.6,8.225 L26.6,11.2 L23.625,11.2 L23.625,8.225 L26.6,8.225 M28.175,6.825 L22.4,6.825 L22.4,12.6 L28.175,12.6 L28.175,6.825 L28.175,6.825 Z" id="Shape"></path>
                        <path d="M34.475,8.225 L34.475,11.2 L31.5,11.2 L31.5,8.225 L34.475,8.225 M36.05,6.825 L30.275,6.825 L30.275,12.6 L36.05,12.6 L36.05,6.825 L36.05,6.825 Z" id="Shape"></path>
                        <path d="M18.725,8.225 L18.725,11.2 L15.75,11.2 L15.75,8.225 L18.725,8.225 M20.125,6.825 L14.35,6.825 L14.35,12.6 L20.125,12.6 L20.125,6.825 L20.125,6.825 Z" id="Shape"></path>
                        <path d="M10.85,18.025 L10.85,21 L7.875,21 L7.875,18.025 L10.85,18.025 M12.25,16.45 L6.475,16.45 L6.475,22.225 L12.25,22.225 L12.25,16.45 L12.25,16.45 Z" id="Shape"></path>
                        <path d="M18.725,18.025 L18.725,21 L15.75,21 L15.75,18.025 L18.725,18.025 M20.125,16.45 L14.35,16.45 L14.35,22.225 L20.125,22.225 L20.125,16.45 L20.125,16.45 Z" id="Shape"></path>
                        <path d="M26.6,18.025 L26.6,21 L23.625,21 L23.625,18.025 L26.6,18.025 M28.175,16.45 L22.4,16.45 L22.4,22.225 L28.175,22.225 L28.175,16.45 L28.175,16.45 Z" id="Shape"></path>
                        <path d="M31.5,22.4 L31.5,21 L31.5,18.025 L34.475,18.025 L34.475,20.475 C34.825,20.3 35,20.3 35.875,20.3 C35.875,20.3 35.875,20.3 36.05,20.3 L36.05,16.625 L30.275,16.625 L30.275,22.4" id="Path"></path>
                        <path d="M10.85,8.225 L10.85,11.2 L7.875,11.2 L7.875,8.225 L10.85,8.225 M12.25,6.825 L6.475,6.825 L6.475,12.6 L12.25,12.6 L12.25,6.825 L12.25,6.825 Z" id="Shape"></path>
                        <g transform="translate(28.000000, 21.000000)">
                            <polygon id="Path" points="11.9 10.5 11.9 6.125 10.15 6.125 10.15 11.375 10.15 11.375 13.65 14.875 14.875 13.65"></polygon>
                            <path d="M11.025,2.625 C15.4,2.625 18.9,6.125 18.9,10.5 C18.9,14.875 15.4,18.375 11.025,18.375 C6.65,18.375 3.15,14.875 3.15,10.5 C3.15,6.125 6.65,2.625 11.025,2.625 M11.025,0.875 C5.775,0.875 1.4,5.25 1.4,10.5 C1.4,15.75 5.775,20.125 11.025,20.125 C16.275,20.125 20.65,15.75 20.65,10.5 C20.825,5.075 16.45,0.875 11.025,0.875 L11.025,0.875 Z" id="Shape"></path>
                        </g>
                        <path d="M2.1,27.3 L2.1,2.8 C2.1,2.8 2.1,2.625 2.275,2.625 L40.95,2.625 C40.95,2.625 41.125,2.625 41.125,2.8 L41.125,20.3 L42.875,20.3 L42.875,2.8 C42.875,1.75 42,0.875 40.95,0.875 L2.1,0.875 C1.05,0.875 0.175,1.75 0.175,2.8 L0.175,27.3 C0.175,28.35 1.05,29.225 2.1,29.225 L28.525,29.225 C28.525,28.7 28.7,28 28.875,27.475 L2.1,27.3 C2.1,27.3 2.1,27.3 2.1,27.3 Z" id="Path"></path>
                    </g>
                </g>
            </g>
        </g>
    </g>
</svg>