<?xml version="1.0" encoding="UTF-8"?>
<svg width="32px" height="32px" viewBox="0 0 32 32" version="1.1" xmlns="http://www.w3.org/2000/svg" xmlns:xlink="http://www.w3.org/1999/xlink">
    <!-- Generator: Sketch 57.1 (83088) - https://sketch.com -->
    <title>081-B32px</title>
    <desc>Created with Sketch.</desc>
    <g id="081-B32px" stroke="none" stroke-width="1" fill="none" fill-rule="evenodd">
        <g>
            <path d="M14,26 C14.27,26 14.5,25.78 14.5,25.5 C14.5,25.22 14.27,25 14,25 C13.73,25 13.5,25.22 13.5,25.5 C13.5,25.78 13.73,26 14,26" id="Path" fill="#101828" fill-rule="nonzero"></path>
            <path d="M21,25.82 L21,26.95 C21,26.98 20.98,27 20.95,27 L7.05,27 C7.02,27 7,26.98 7,26.95 L7,5.05 C7,5.02 7.02,5 7.05,5 L20.95,5 C20.98,5 21,5.02 21,5.05 L21,13.18 C21.32,13.1 21.66,13.05 22,13.02 L22,5.05 C22,4.47 21.53,4 20.95,4 L7.05,4 C6.47,4 6,4.47 6,5.05 L6,26.95 C6,27.53 6.47,28 7.05,28 L20.95,28 C21.53,28 22,27.53 22,26.95 L22,25.98 C21.66,25.95 21.32,25.9 21,25.82 Z" id="Path" fill="#101828" fill-rule="nonzero"></path>
            <path d="M17.03,23 L6,23 L6,24 L17.82,24 C17.52,23.69 17.26,23.36 17.03,23 Z" id="Path" fill="#101828" fill-rule="nonzero"></path>
            <path d="M22.5,15 C24.98,15 27,17.02 27,19.5 C27,21.98 24.98,24 22.5,24 C20.02,24 18,21.98 18,19.5 C18,17.02 20.02,15 22.5,15 L22.5,15 Z M22.5,14 C19.46,14 17,16.46 17,19.5 C17,22.54 19.46,25 22.5,25 C25.54,25 28,22.54 28,19.5 C28,16.46 25.54,14 22.5,14 L22.5,14 Z" id="Shape" fill="#101828" fill-rule="nonzero"></path>
            <g id="Group" transform="translate(19.000000, 15.000000)" fill="#101828" fill-rule="nonzero">
                <path d="M2.17,4.01 L1.16,2.96 C1.05,2.85 0.88,2.85 0.77,2.96 L0.1,3.61 C0.03,3.67 0.01,3.76 0.02,3.85 C0.18,5.19 1.45,6.5 1.45,6.5 C1.45,6.5 2.71,7.8 4.06,8.02 C4.15,8.03 4.23,8 4.3,7.94 L4.97,7.29 C5.08,7.18 5.08,7.01 4.98,6.9 L3.97,5.85 C3.86,5.74 3.69,5.74 3.58,5.85 L3.13,6.28 C3.13,6.28 2.58,6.04 2.27,5.72 C1.96,5.4 1.73,4.84 1.73,4.84 L2.18,4.41 C2.27,4.29 2.28,4.12 2.17,4.01 Z" id="Path"></path>
                <path d="M6.99,4.52 C6.74,2.72 5.25,1.23 3.46,0.98 L3.37,1.95 C4.73,2.11 5.86,3.25 6.02,4.61 L6.99,4.52 Z" id="Path"></path>
                <path d="M5.14,4.68 C4.96,3.77 4.21,3.01 3.29,2.83 L3.2,3.81 C3.67,3.91 4.05,4.29 4.15,4.77 L5.14,4.68 Z" id="Path"></path>
            </g>
            <rect id="Rectangle" x="0" y="0" width="32" height="32"></rect>
        </g>
    </g>
</svg>