<?xml version="1.0" encoding="UTF-8"?>
<svg width="42px" height="42px" viewBox="0 0 42 42" version="1.1" xmlns="http://www.w3.org/2000/svg" xmlns:xlink="http://www.w3.org/1999/xlink">
    <!-- Generator: Sketch 57.1 (83088) - https://sketch.com -->
    <title>195-G40px</title>
    <desc>Created with Sketch.</desc>
    <g id="NEW_icons" stroke="none" stroke-width="1" fill="none" fill-rule="evenodd">
        <g id="icons_UD_new-Copy" transform="translate(-1526.000000, -24874.000000)">
            <g id="195-G40px" transform="translate(1527.000000, 24875.000000)">
                <circle id="Oval-Copy-1185" stroke="#E3E8EC" cx="20" cy="20" r="20"></circle>
                <g id="195-B32px-Copy" transform="translate(4.000000, 4.000000)">
                    <rect id="Rectangle" fill="#101828" fill-rule="nonzero" x="19" y="12" width="1" height="6.99"></rect>
                    <rect id="Rectangle" fill="#101828" fill-rule="nonzero" x="17" y="13" width="1" height="6"></rect>
                    <rect id="Rectangle" fill="#101828" fill-rule="nonzero" x="15" y="14" width="1" height="5"></rect>
                    <rect id="Rectangle" fill="#101828" fill-rule="nonzero" x="11" y="15.99" width="1" height="3"></rect>
                    <rect id="Rectangle" fill="#101828" fill-rule="nonzero" x="13" y="15" width="1" height="4"></rect>
                    <path d="M26.98,10 L27,10.02 L26.98,21.01 L5,20.99 L5.02,10 L26.98,10 L26.98,10 Z M26.98,9 L5.02,9 C4.46,9 4,9.46 4,10.02 L4,20.99 C4,21.55 4.46,22.01 5.02,22.01 L26.98,22.01 C27.54,22.01 28,21.55 28,20.99 L28,10.02 C28,9.46 27.54,9 26.98,9 L26.98,9 Z" id="Shape" fill="#101828" fill-rule="nonzero"></path>
                    <path d="M15.98,21.94 C11.67,21.94 8.44,22.6 7,22.96 L7,23.99 C8.24,23.67 11.54,22.94 15.98,22.94 C20.46,22.94 23.79,23.68 25,24 L25,22.97 C23.57,22.61 20.33,21.94 15.98,21.94 Z" id="Path" fill="#101828" fill-rule="nonzero"></path>
                    <rect id="Rectangle" x="0" y="0" width="32" height="32"></rect>
                </g>
            </g>
        </g>
    </g>
</svg>