<?xml version="1.0" encoding="UTF-8"?>
<svg width="80px" height="80px" viewBox="0 0 80 80" version="1.1" xmlns="http://www.w3.org/2000/svg" xmlns:xlink="http://www.w3.org/1999/xlink">
    <!-- Generator: Sketch 57.1 (83088) - https://sketch.com -->
    <title>213-B80px</title>
    <desc>Created with Sketch.</desc>
    <g id="213-B80px" stroke="none" stroke-width="1" fill="none" fill-rule="evenodd">
        <g>
            <circle id="Oval" fill="#101828" fill-rule="nonzero" cx="31.225" cy="26.25" r="1.25"></circle>
            <circle id="Oval" fill="#101828" fill-rule="nonzero" cx="31.225" cy="33.75" r="1.25"></circle>
            <circle id="Oval" fill="#101828" fill-rule="nonzero" cx="31.225" cy="41.25" r="1.25"></circle>
            <circle id="Oval" fill="#101828" fill-rule="nonzero" cx="31.225" cy="48.75" r="1.25"></circle>
            <path d="M67.5,20 L67.5,55 L12.5,55 L12.5,47.5 L15,47.5 C20.525,47.5 25,43.025 25,37.5 C25,31.975 20.525,27.5 15,27.5 L12.5,27.5 L12.5,20 L67.5,20 L67.5,20 Z M67.5,17.5 L12.5,17.5 C11.125,17.5 10,18.625 10,20 L10,27.5 C10,28.875 11.125,30 12.5,30 L15,30 C19.15,30 22.5,33.35 22.5,37.5 C22.5,41.65 19.15,45 15,45 L12.5,45 C11.125,45 10,46.125 10,47.5 L10,55 C10,56.375 11.125,57.5 12.5,57.5 L67.5,57.5 C68.875,57.5 70,56.375 70,55 L70,20 C70,18.625 68.875,17.5 67.5,17.5 L67.5,17.5 Z" id="Shape" fill="#101828" fill-rule="nonzero"></path>
            <path d="M57.5,42.5 C58.875,42.5 60,43.625 60,45 C60,46.375 58.875,47.5 57.5,47.5 C56.125,47.5 55,46.375 55,45 C55,43.625 56.125,42.5 57.5,42.5 L57.5,42.5 Z M57.5,40 C54.75,40 52.5,42.25 52.5,45 C52.5,47.75 54.75,50 57.5,50 C60.25,50 62.5,47.75 62.5,45 C62.5,42.25 60.25,40 57.5,40 L57.5,40 Z" id="Shape" fill="#101828" fill-rule="nonzero"></path>
            <path d="M42.5,27.5 C43.875,27.5 45,28.625 45,30 C45,31.375 43.875,32.5 42.5,32.5 C41.125,32.5 40,31.375 40,30 C40,28.625 41.125,27.5 42.5,27.5 L42.5,27.5 Z M42.5,25 C39.75,25 37.5,27.25 37.5,30 C37.5,32.75 39.75,35 42.5,35 C45.25,35 47.5,32.75 47.5,30 C47.5,27.25 45.25,25 42.5,25 L42.5,25 Z" id="Shape" fill="#101828" fill-rule="nonzero"></path>
            <polygon id="Rectangle" fill="#101828" fill-rule="nonzero" transform="translate(49.992339, 37.520016) rotate(-45.000000) translate(-49.992339, -37.520016) " points="33.5549964 36.2700282 66.4296811 36.2700282 66.4296811 38.7700043 33.5549964 38.7700043"></polygon>
            <rect id="Rectangle" x="0" y="0" width="80" height="80"></rect>
        </g>
    </g>
</svg>