<?xml version="1.0" encoding="UTF-8"?>
<svg width="80px" height="80px" viewBox="0 0 80 80" version="1.1" xmlns="http://www.w3.org/2000/svg" xmlns:xlink="http://www.w3.org/1999/xlink">
    <!-- Generator: Sketch 57.1 (83088) - https://sketch.com -->
    <title>190-C80px</title>
    <desc>Created with Sketch.</desc>
    <g id="NEW_icons" stroke="none" stroke-width="1" fill="none" fill-rule="evenodd">
        <g id="icons_UD_new-Copy" transform="translate(-1002.000000, -24337.000000)">
            <g id="190-C80px" transform="translate(1002.000000, 24337.000000)">
                <circle id="Oval-Copy-1253" fill="#FF4F12" cx="40" cy="40" r="40"></circle>
                <g id="190-B32px-Copy-9" transform="translate(12.000000, 12.000000)">
                    <path d="M21,29.75 L21,40.25 L21,42 L22.75,42 L24.5,42 L24.5,45.5 L15.75,45.5 L15.75,29.75 L21,29.75 L21,29.75 Z M21,28 L15.75,28 C14.7875,28 14,28.7875 14,29.75 L14,45.5 C14,46.4625 14.7875,47.25 15.75,47.25 L24.5,47.25 C25.4625,47.25 26.25,46.4625 26.25,45.5 L26.25,42 C26.25,41.0375 25.4625,40.25 24.5,40.25 L22.75,40.25 L22.75,29.75 C22.75,28.7875 21.9625,28 21,28 L21,28 Z" id="Shape" fill="#FFFFFF" fill-rule="nonzero"></path>
                    <path d="M26.0925,29.75 C26.18,29.75 26.25,29.82 26.25,29.9075 L26.25,33.0925 C26.25,33.18 26.18,33.25 26.0925,33.25 L22.9075,33.25 C22.82,33.25 22.75,33.18 22.75,33.0925 L22.75,29.9075 C22.75,29.82 22.82,29.75 22.9075,29.75 L26.0925,29.75 L26.0925,29.75 Z M26.0925,28 L22.9075,28 C21.8575,28 21,28.8575 21,29.9075 L21,33.0925 C21,34.1425 21.8575,35 22.9075,35 L26.0925,35 C27.1425,35 28,34.1425 28,33.0925 L28,29.9075 C28,28.8575 27.1425,28 26.0925,28 L26.0925,28 Z" id="Shape" fill="#FFFFFF" fill-rule="nonzero"></path>
                    <path d="M41.8425,15.75 C41.93,15.75 42,15.82 42,15.9075 L42,24.3425 C42,24.43 41.93,24.5 41.8425,24.5 L38.6575,24.5 C38.57,24.5 38.5,24.43 38.5,24.3425 L38.5,15.9075 C38.5,15.82 38.57,15.75 38.6575,15.75 L41.8425,15.75 L41.8425,15.75 Z M41.8425,14 L38.6575,14 C37.6075,14 36.75,14.8575 36.75,15.9075 L36.75,24.3425 C36.75,25.3925 37.6075,26.25 38.6575,26.25 L41.8425,26.25 C42.8925,26.25 43.75,25.3925 43.75,24.3425 L43.75,15.9075 C43.75,14.8575 42.8925,14 41.8425,14 L41.8425,14 Z" id="Shape" fill="#FFFFFF" fill-rule="nonzero"></path>
                    <path d="M36.5925,12.25 C36.68,12.25 36.75,12.32 36.75,12.4075 L36.75,27.8425 C36.75,27.93 36.68,28 36.5925,28 L8.9075,28 C8.82,28 8.75,27.93 8.75,27.8425 L8.75,12.4075 C8.75,12.32 8.82,12.25 8.9075,12.25 L36.5925,12.25 L36.5925,12.25 Z M36.5925,10.5 L8.9075,10.5 C7.8575,10.5 7,11.3575 7,12.4075 L7,27.8425 C7,28.8925 7.8575,29.75 8.9075,29.75 L36.5925,29.75 C37.6425,29.75 38.5,28.8925 38.5,27.8425 L38.5,12.4075 C38.5,11.3575 37.6425,10.5 36.5925,10.5 L36.5925,10.5 Z" id="Shape" fill="#FFFFFF" fill-rule="nonzero"></path>
                    <path d="M22.5925,17.5 C22.68,17.5 22.75,17.57 22.75,17.6575 L22.75,22.5925 C22.75,22.68 22.68,22.75 22.5925,22.75 L14.1575,22.75 C14.07,22.75 14,22.68 14,22.5925 L14,17.6575 C14,17.57 14.07,17.5 14.1575,17.5 L22.5925,17.5 L22.5925,17.5 Z M22.5925,15.75 L14.1575,15.75 C13.1075,15.75 12.25,16.6075 12.25,17.6575 L12.25,22.5925 C12.25,23.6425 13.1075,24.5 14.1575,24.5 L22.5925,24.5 C23.6425,24.5 24.5,23.6425 24.5,22.5925 L24.5,17.6575 C24.5,16.6075 23.6425,15.75 22.5925,15.75 L22.5925,15.75 Z" id="Shape" fill="#FFFFFF" fill-rule="nonzero"></path>
                    <rect id="Rectangle" fill="#FFFFFF" fill-rule="nonzero" x="26.25" y="19.25" width="7" height="1.75"></rect>
                    <rect id="Rectangle" fill="#FFFFFF" fill-rule="nonzero" x="43.75" y="19.25" width="5.25" height="1.75"></rect>
                    <rect id="Rectangle" fill="#FFFFFF" fill-rule="nonzero" x="26.25" y="15.75" width="7" height="1.75"></rect>
                    <path d="M16.625,21 C17.0975,21 17.5,20.615 17.5,20.125 C17.5,19.635 17.115,19.25 16.625,19.25 C16.1525,19.25 15.75,19.635 15.75,20.125 C15.7675,20.615 16.1525,21 16.625,21" id="Path" fill="#FFFFFF" fill-rule="nonzero"></path>
                    <rect id="Rectangle" x="0" y="0" width="56" height="56"></rect>
                </g>
            </g>
        </g>
    </g>
</svg>