<?xml version="1.0" encoding="UTF-8"?>
<svg width="32px" height="32px" viewBox="0 0 32 32" version="1.1" xmlns="http://www.w3.org/2000/svg" xmlns:xlink="http://www.w3.org/1999/xlink">
    <!-- Generator: Sketch 57.1 (83088) - https://sketch.com -->
    <title>207-B32px</title>
    <desc>Created with Sketch.</desc>
    <g id="207-B32px" stroke="none" stroke-width="1" fill="none" fill-rule="evenodd">
        <g>
            <path d="M15.98,21.95 C11.67,21.95 8.44,22.61 7,22.97 L7,24 C8.24,23.68 11.54,22.95 15.98,22.95 C20.46,22.95 23.79,23.69 25,24.01 L25,22.98 C23.57,22.61 20.33,21.95 15.98,21.95 Z" id="Path" fill="#101828" fill-rule="nonzero"></path>
            <polygon id="Path" fill="#101828" fill-rule="nonzero" points="9 12.02 9 13.46 8 13.46 8 12.02 7 12.02 7 16 8 16 8 14.49 9 14.49 9 16 10 16 10 12.02"></polygon>
            <path d="M11.92,12.02 L10.68,12.02 L10.68,16 L11.92,16 C13.2,16 14,15.24 14,14.01 C14,12.78 13.2,12.02 11.92,12.02 Z M12.02,14.98 L11.67,14.98 L11.67,13.05 L12.02,13.05 C12.65,13.05 13,13.39 13,14.02 C13,14.63 12.65,14.98 12.02,14.98 Z" id="Shape" fill="#101828" fill-rule="nonzero"></path>
            <path d="M16,16 L20.42,16 L19.69,17 L16,17 L16,18 L20.24,17.94 L20.93,17 L20.92,17 L21.59,16.09 L21.59,16.1 L26.76,9 L28,9 L21.08,18.47 C20.91,18.8 20.57,19 20.2,19 L16,19 C15.45,19 15,18.55 15,18 L15,17 C15,16.45 15.45,16 16,16 Z" id="Path" fill="#101828" fill-rule="nonzero"></path>
            <path d="M26.99,12.05 L26.98,21 L5,20.98 L5.02,10 L25,10 L25.51,9 L5.02,9 C4.46,9 4,9.46 4,10.02 L4,20.98 C4,21.54 4.46,22 5.02,22 L26.98,22 C27.54,22 28,21.54 28,20.98 L28,10.68 L26.99,12.05 Z" id="Path" fill="#101828" fill-rule="nonzero"></path>
            <rect id="Rectangle" x="0" y="0" width="32" height="32"></rect>
        </g>
    </g>
</svg>