<?xml version="1.0" encoding="UTF-8"?>
<svg width="80px" height="80px" viewBox="0 0 80 80" version="1.1" xmlns="http://www.w3.org/2000/svg" xmlns:xlink="http://www.w3.org/1999/xlink">
    <!-- Generator: Sketch 56.3 (81716) - https://sketch.com -->
    <title>017-W80px</title>
    <desc>Created with Sketch.</desc>
    <g id="NEW_icons" stroke="none" stroke-width="1" fill="none" fill-rule="evenodd">
        <g id="icons_UD_new-Copy" transform="translate(-2151.000000, -2333.000000)">
            <g id="017-W80px" transform="translate(2151.000000, 2333.000000)">
                <circle id="Oval-Copy-177" fill="#101828" cx="40" cy="40" r="40"></circle>
                <g id="017-B32px-Copy-8" transform="translate(12.000000, 12.000000)">
                    <g id="Group" transform="translate(7.000000, 8.750000)" fill="#FFFFFF" fill-rule="nonzero">
                        <path d="M17.43,34.8775 C14.6475,34.3175 12.1975,31.2725 10.7625,26.985 L14.07,26.985 C14.035,26.46 14,25.9175 14,25.375 C14,25.3225 14,25.2875 14,25.235 L10.2725,25.235 C9.8,23.38 9.52,21.3675 9.45,19.25 L15.33,19.25 C15.61,18.6375 15.925,18.06 16.275,17.5 L9.45,17.5 C9.52,15.3825 9.8,13.37 10.255,11.515 L23.5025,11.515 C24.9025,10.9725 26.4075,10.64 27.965,10.5525 C27.0725,7.315 25.655,4.585 23.905,2.73 C28.0525,4.2 31.4475,7.28 33.3375,11.2 C34.1425,11.445 34.895,11.7775 35.63,12.145 C33.0925,5.0575 26.3375,0 18.375,0 C18.375,0 18.3575,0 18.3575,0 C18.3575,0 18.3575,0 18.34,0 C18.3225,0 18.3225,0 18.305,0 C8.19,0.035 0,8.2425 0,18.375 C0,28.5075 8.19,36.715 18.305,36.75 C18.3225,36.75 18.3225,36.75 18.34,36.75 C18.34,36.75 18.34,36.75 18.3575,36.75 C18.3575,36.75 18.375,36.75 18.375,36.75 C18.6725,36.75 18.9525,36.715 19.25,36.6975 C18.6025,36.155 17.99,35.5425 17.43,34.8775 Z M19.25,1.8375 C22.0325,2.38 24.4825,5.46 25.9175,9.765 L19.25,9.765 L19.25,1.8375 Z M17.5,1.8375 L17.5,9.765 L10.78,9.765 C12.215,5.4425 14.6825,2.345 17.5,1.8375 Z M12.7575,2.7475 C11.1475,4.4625 9.8175,6.8775 8.925,9.765 L4.1825,9.765 C6.1425,6.545 9.1525,4.0425 12.7575,2.7475 Z M3.255,11.515 L8.47,11.515 C8.015,13.37 7.77,15.4 7.7,17.5 L1.8025,17.5 C1.9075,15.3825 2.415,13.3525 3.255,11.515 Z M1.8025,19.25 L7.7,19.25 C7.7525,21.35 8.015,23.38 8.4525,25.235 L3.255,25.235 C2.415,23.3975 1.9075,21.3675 1.8025,19.25 Z M4.1825,26.985 L8.925,26.985 C9.8175,29.8725 11.1475,32.2875 12.7575,34.0025 C9.1525,32.7075 6.1425,30.205 4.1825,26.985 Z" id="Shape"></path>
                        <polygon id="Rectangle" transform="translate(36.743056, 33.228696) rotate(-44.975691) translate(-36.743056, -33.228696) " points="35.8680643 31.9512076 37.6180477 31.9512076 37.6180477 34.5061834 35.8680643 34.5061834"></polygon>
                        <polygon id="Rectangle" transform="translate(21.009574, 17.500576) rotate(-45.000000) translate(-21.009574, -17.500576) " points="20.1345826 16.223088 21.8845659 16.223088 21.8845659 18.7780635 20.1345826 18.7780635"></polygon>
                        <polygon id="Rectangle" transform="translate(36.753974, 17.512199) rotate(-45.000000) translate(-36.753974, -17.512199) " points="35.4764865 16.6372076 38.031462 16.6372076 38.031462 18.3871909 35.4764865 18.3871909"></polygon>
                        <polygon id="Rectangle" transform="translate(21.011025, 33.232427) rotate(-45.000000) translate(-21.011025, -33.232427) " points="19.7335373 32.3574349 22.2885127 32.3574349 22.2885127 34.1074181 19.7335373 34.1074181"></polygon>
                        <rect id="Rectangle" x="28" y="12.9675" width="1.75" height="2.555"></rect>
                        <rect id="Rectangle" x="28" y="35.21" width="1.75" height="2.555"></rect>
                        <rect id="Rectangle" x="16.205" y="24.5" width="2.8175" height="1.75"></rect>
                        <rect id="Rectangle" x="38.71" y="24.5" width="2.835" height="1.75"></rect>
                        <polygon id="Rectangle" transform="translate(31.426150, 22.820644) rotate(-45.000000) translate(-31.426150, -22.820644) " points="29.0986723 21.9456524 33.7536277 21.9456524 33.7536277 23.6956356 29.0986723 23.6956356"></polygon>
                        <path d="M28.875,23.7475 C27.9825,23.7475 27.2475,24.4825 27.2475,25.375 C27.2475,26.2675 27.9825,27.0025 28.875,27.0025 C29.7675,27.0025 30.5025,26.2675 30.5025,25.375 C30.5025,24.4825 29.785,23.7475 28.875,23.7475 L28.875,23.7475 Z" id="Path"></path>
                        <path d="M28.875,14 C35.14,14 40.25,19.11 40.25,25.375 C40.25,31.64 35.14,36.75 28.875,36.75 C22.61,36.75 17.5,31.64 17.5,25.375 C17.5,19.11 22.61,14 28.875,14 L28.875,14 Z M28.875,12.25 C21.63,12.25 15.75,18.13 15.75,25.375 C15.75,32.62 21.63,38.5 28.875,38.5 C36.12,38.5 42,32.62 42,25.375 C42,18.13 36.12,12.25 28.875,12.25 L28.875,12.25 Z" id="Shape"></path>
                        <path d="M31.5,29.75 L31.5,31.5 L26.25,31.5 L26.25,29.75 L31.5,29.75 L31.5,29.75 Z M31.7975,28 L25.97,28 C25.1475,28 24.5,28.6475 24.5,29.4525 L24.5,31.78 C24.5,32.585 25.1475,33.2325 25.9525,33.2325 L31.78,33.2325 C32.585,33.2325 33.2325,32.585 33.2325,31.78 L33.2325,29.4525 C33.25,28.6475 32.6025,28 31.7975,28 L31.7975,28 Z" id="Shape"></path>
                    </g>
                    <rect id="Rectangle" x="0" y="0" width="56" height="56"></rect>
                </g>
            </g>
        </g>
    </g>
</svg>