<?xml version="1.0" encoding="UTF-8"?>
<svg width="80px" height="80px" viewBox="0 0 80 80" version="1.1" xmlns="http://www.w3.org/2000/svg" xmlns:xlink="http://www.w3.org/1999/xlink">
    <!-- Generator: Sketch 57.1 (83088) - https://sketch.com -->
    <title>055-C80px</title>
    <desc>Created with Sketch.</desc>
    <g id="NEW_icons" stroke="none" stroke-width="1" fill="none" fill-rule="evenodd">
        <g id="icons_UD_new-Copy" transform="translate(-2284.000000, -7255.000000)">
            <g id="055-C80px" transform="translate(2284.000000, 7255.000000)">
                <circle id="Oval-Copy-407" fill="#FF4F12" cx="40" cy="40" r="40"></circle>
                <g id="055-B32px-Copy-6" transform="translate(12.000000, 12.000000)">
                    <path d="M27.545,18.0425 L34.09,21.7 C34.2475,21.2625 34.335,20.79 34.335,20.3175 C34.335,17.4475 31.3075,15.1375 27.5625,15.1375 C23.8175,15.1375 20.79,17.465 20.79,20.3175 C20.79,20.7725 20.8775,21.2275 21.0175,21.665 L27.545,18.0425 L27.545,18.0425 Z" id="Path" fill="#FFFFFF" fill-rule="nonzero"></path>
                    <polygon id="Path" fill="#FFFFFF" fill-rule="nonzero" points="39.235 28.945 44.485 32.1125 34.6325 44.0475"></polygon>
                    <polygon id="Path" fill="#FFFFFF" fill-rule="nonzero" points="39.48 26.2325 38.885 23.6425 49 26.6 42.735 29.9425 43.5925 27.23"></polygon>
                    <polygon id="Path" fill="#FFFFFF" fill-rule="nonzero" points="38.0975 21.9975 36.7675 20.1425 45.6925 17.255 43.47 24.36 42.5425 21.0875"></polygon>
                    <polygon id="Path" fill="#FFFFFF" fill-rule="nonzero" points="35.7 18.1125 33.81 16.135 36.295 13.615 33.565 11.9525 40.7925 11.9525"></polygon>
                    <polygon id="Path" fill="#FFFFFF" fill-rule="nonzero" points="16.5025 28.945 11.2525 32.1125 21.105 44.0475"></polygon>
                    <polygon id="Path" fill="#FFFFFF" fill-rule="nonzero" points="16.52 26.2325 17.115 23.6425 7 26.6 13.265 29.9425 12.4075 27.23"></polygon>
                    <polygon id="Path" fill="#FFFFFF" fill-rule="nonzero" points="16.73 21.9975 18.06 20.1425 9.1175 17.255 11.34 24.36 12.2675 21.0875"></polygon>
                    <polygon id="Path" fill="#FFFFFF" fill-rule="nonzero" points="19.53 18.1125 21.42 16.135 18.935 13.615 21.665 11.9525 14.4375 11.9525"></polygon>
                    <path d="M36.785,25.795 L33.04,23.6425 L31.675,27.79 L28.525,27.79 L27.3175,24.2025 L27.2825,24.2025 L26.0925,27.79 L22.9075,27.79 L21.5425,23.6425 L17.7975,25.795 C17.7975,25.795 16.4675,30.5375 21.5425,34.44 C23.38,35.8575 24.745,36.75 25.97,37.1525 L25.6725,36.2425 L28.9275,36.2425 L28.6125,37.17 C29.8375,36.785 31.2025,35.8925 33.04,34.44 C38.08,30.5025 36.785,25.795 36.785,25.795 Z M29.2775,35.105 L25.2875,35.105 L24.85,33.7925 L29.715,33.7925 L29.2775,35.105 Z M30.0825,32.6725 L24.5,32.6725 L24.0625,31.36 L30.52,31.36 L30.0825,32.6725 Z M30.8875,30.2225 L23.695,30.2225 L23.2575,28.91 L31.3075,28.91 L30.8875,30.2225 Z" id="Shape" fill="#FFFFFF" fill-rule="nonzero"></path>
                    <polygon id="Path" fill="#FFFFFF" fill-rule="nonzero" points="24.9375 25.83 24.9725 25.83 26.1625 22.3825 28.8925 22.3825 30.135 25.83 30.1875 25.83 30.975 22.4 27.475 20.44 24.01 22.4"></polygon>
                    <rect id="Rectangle" x="0" y="0" width="56" height="56"></rect>
                </g>
            </g>
        </g>
    </g>
</svg>