<?xml version="1.0" encoding="UTF-8"?>
<svg width="80px" height="80px" viewBox="0 0 80 80" version="1.1" xmlns="http://www.w3.org/2000/svg" xmlns:xlink="http://www.w3.org/1999/xlink">
    <!-- Generator: Sketch 56.3 (81716) - https://sketch.com -->
    <title>032-C80px</title>
    <desc>Created with Sketch.</desc>
    <g id="NEW_icons" stroke="none" stroke-width="1" fill="none" fill-rule="evenodd">
        <g id="icons_UD_new-Copy" transform="translate(-1002.000000, -4342.000000)">
            <g id="032-C80px" transform="translate(1002.000000, 4342.000000)">
                <circle id="Oval-Copy-274" fill="#FF4F12" cx="40" cy="40" r="40"></circle>
                <g id="032-B32px-Copy-6" transform="translate(11.000000, 12.000000)">
                    <path d="M22.75,17.5 C23.7125,17.5 24.5,18.2875 24.5,19.25 C24.5,20.2125 23.7125,21 22.75,21 C21.7875,21 21,20.2125 21,19.25 C21,18.2875 21.7875,17.5 22.75,17.5 L22.75,17.5 Z M22.75,15.75 C20.825,15.75 19.25,17.325 19.25,19.25 C19.25,21.175 20.825,22.75 22.75,22.75 C24.675,22.75 26.25,21.175 26.25,19.25 C26.25,17.325 24.675,15.75 22.75,15.75 L22.75,15.75 Z" id="Shape" fill="#FFFFFF" fill-rule="nonzero"></path>
                    <rect id="Rectangle" fill="#FFFFFF" fill-rule="nonzero" x="21.875" y="33.3025" width="1.75" height="15.6975"></rect>
                    <path d="M39.375,31.5 C43.715,31.5 47.25,35.035 47.25,39.375 C47.25,43.715 43.715,47.25 39.375,47.25 C35.035,47.25 31.5,43.715 31.5,39.375 C31.5,35.035 35.035,31.5 39.375,31.5 L39.375,31.5 Z M39.375,29.75 C34.055,29.75 29.75,34.055 29.75,39.375 C29.75,44.695 34.055,49 39.375,49 C44.695,49 49,44.695 49,39.375 C49,34.055 44.695,29.75 39.375,29.75 L39.375,29.75 Z" id="Shape" fill="#FFFFFF" fill-rule="nonzero"></path>
                    <path d="M36.505,37.275 C37.17,39.69 39.06,41.5975 41.475,42.245 C40.8975,42.6475 40.1975,42.875 39.445,42.875 C37.4675,42.875 35.8575,41.265 35.8575,39.2875 C35.875,38.5525 36.1025,37.8525 36.505,37.275 L36.505,37.275 Z M38.185,34.125 C35.8575,34.7025 34.125,36.785 34.125,39.2875 C34.125,42.2275 36.5225,44.625 39.4625,44.625 C41.965,44.625 44.0475,42.8925 44.625,40.565 C44.205,40.67 43.785,40.74 43.3475,40.74 C40.4075,40.74 38.01,38.3425 38.01,35.4025 C38.01,34.965 38.08,34.545 38.185,34.125 L38.185,34.125 Z" id="Shape" fill="#FFFFFF" fill-rule="nonzero"></path>
                    <path d="M31.5,27.1425 L31.5,19.25 C31.5,11.48 22.8025,7 22.8025,7 C22.8025,7 14,11.34 14,19.25 C14,21.4725 14,24.6575 14,28.07 C10.0625,28.455 7,31.395 7,35 L7,45.5 L15.75,42.5775 L15.75,42.5775 L15.75,19.25 C15.75,13.825 20.8075,10.22 22.8025,9.0125 C24.7625,10.255 29.75,13.9125 29.75,19.25 L29.75,27.7025 L29.75,28 L29.75,29.75 L29.75,29.82 L29.75,33.32 C30.24,32.5325 30.835,31.815 31.5,31.1675 L31.5,30.205 L31.5,30.205 L31.5,27.1425 L31.5,27.1425 Z M14,41.335 L8.75,43.085 L8.75,35 C8.75,32.3575 11.0425,30.1875 14,29.82 C14,33.88 14,38.0625 14,41.335 Z" id="Shape" fill="#FFFFFF" fill-rule="nonzero"></path>
                    <rect id="Rectangle" x="0" y="0" width="56" height="56"></rect>
                </g>
            </g>
        </g>
    </g>
</svg>