<?xml version="1.0" encoding="UTF-8"?>
<svg width="80px" height="80px" viewBox="0 0 80 80" version="1.1" xmlns="http://www.w3.org/2000/svg" xmlns:xlink="http://www.w3.org/1999/xlink">
    <!-- Generator: Sketch 57.1 (83088) - https://sketch.com -->
    <title>144-B80px</title>
    <desc>Created with Sketch.</desc>
    <g id="144-B80px" stroke="none" stroke-width="1" fill="none" fill-rule="evenodd">
        <g>
            <path d="M27.45,17.5 L27.45,20 L19.95,20 L19.95,17.5 L27.45,17.5 L27.45,17.5 Z M27.45,15 L19.95,15 C18.575,15 17.45,16.125 17.45,17.5 L17.45,20 C17.45,21.375 18.575,22.5 19.95,22.5 L27.45,22.5 C28.825,22.5 29.95,21.375 29.95,20 L29.95,17.5 C29.95,16.125 28.825,15 27.45,15 L27.45,15 Z" id="Shape" fill="#101828" fill-rule="nonzero"></path>
            <path d="M48.675,32.5 C52.8,32.5 56.175,35.875 56.175,40 C56.175,44.125 52.8,47.5 48.675,47.5 C44.55,47.5 41.175,44.125 41.175,40 C41.175,35.875 44.55,32.5 48.675,32.5 L48.675,32.5 Z M48.675,30 C43.15,30 38.675,34.475 38.675,40 C38.675,45.525 43.15,50 48.675,50 C54.2,50 58.675,45.525 58.675,40 C58.675,34.475 54.2,30 48.675,30 L48.675,30 Z" id="Shape" fill="#101828" fill-rule="nonzero"></path>
            <path d="M48.675,27.5 C55.575,27.5 61.175,33.1 61.175,40 C61.175,46.9 55.575,52.5 48.675,52.5 C41.775,52.5 36.175,46.9 36.175,40 C36.175,33.1 41.8,27.5 48.675,27.5 L48.675,27.5 Z M48.675,25 C40.4,25 33.675,31.725 33.675,40 C33.675,48.275 40.4,55 48.675,55 C56.95,55 63.675,48.275 63.675,40 C63.675,31.725 56.975,25 48.675,25 L48.675,25 Z" id="Shape" fill="#101828" fill-rule="nonzero"></path>
            <path d="M19.95,27.5 C18.575,27.5 17.45,28.625 17.45,30 C17.45,31.375 18.575,32.5 19.95,32.5 C21.325,32.5 22.45,31.375 22.45,30 C22.45,28.625 21.325,27.5 19.95,27.5 L19.95,27.5 Z" id="Path" fill="#101828" fill-rule="nonzero"></path>
            <path d="M58.375,17.5 L60.175,21.125 L60.875,22.5 L62.425,22.5 L67.5,22.45 L67.55,60 L12.5,60.05 L12.45,22.5 L34.95,22.5 L36.5,22.5 L37.2,21.125 L38.975,17.5 L58.375,17.5 L58.375,17.5 Z M59.925,15 L37.425,15 L34.925,20 L12.425,20 C11.1,20 10,21.1 10,22.45 L10,60.05 C10,61.4 11.1,62.5 12.45,62.5 L67.55,62.5 C68.9,62.5 70,61.4 70,60.05 L70,22.45 C70,21.1 68.9,20 67.55,20 L62.425,20 L59.925,15 L59.925,15 Z" id="Shape" fill="#101828" fill-rule="nonzero"></path>
            <rect id="Rectangle" x="0" y="0" width="80" height="80"></rect>
        </g>
    </g>
</svg>