<?xml version="1.0" encoding="UTF-8"?>
<svg width="80px" height="80px" viewBox="0 0 80 80" version="1.1" xmlns="http://www.w3.org/2000/svg" xmlns:xlink="http://www.w3.org/1999/xlink">
    <!-- Generator: Sketch 57.1 (83088) - https://sketch.com -->
    <title>054-C80px</title>
    <desc>Created with Sketch.</desc>
    <g id="NEW_icons" stroke="none" stroke-width="1" fill="none" fill-rule="evenodd">
        <g id="icons_UD_new-Copy" transform="translate(-1002.000000, -7104.000000)">
            <g id="054-C80px" transform="translate(1002.000000, 7104.000000)">
                <circle id="Oval-Copy-406" fill="#FF4F12" cx="40" cy="40" r="40"></circle>
                <g id="054-B32px-Copy-9" transform="translate(12.000000, 12.000000)">
                    <path d="M35.805,28.07 C35.9625,32.2 32.2175,35.875 27.9825,35.84 C23.94,35.805 20.23,32.27 20.2825,27.965 C20.3175,23.8875 23.905,20.195 28.2275,20.265 C32.2175,20.335 35.98,23.8525 35.805,28.07 Z M32.0775,28.0525 C32.27,25.8825 30.135,24.0975 28.315,23.9925 C25.7775,23.8525 24.08,26.0925 23.9925,27.825 C23.87,30.3275 26.0925,32.0425 27.8775,32.1125 C30.24,32.2175 32.305,30.0825 32.0775,28.0525 Z" id="Shape" fill="#FFFFFF" fill-rule="nonzero"></path>
                    <path d="M27.3875,12.2675 C26.6525,12.2675 25.4275,12.355 24.71,12.53 C19.95,13.5975 16.38,16.2925 14.0525,20.5625 C12.88,22.7325 12.2325,25.0425 12.25,27.5625 C12.285,32.97 12.2675,38.36 12.25,43.7675 C17.78,43.75 23.31,43.75 28.84,43.75 C29.225,43.7325 29.855,43.68 30.24,43.6625 C33.8625,43.1025 36.995,41.545 39.515,38.8325 C42.2275,35.91 43.7325,32.4625 43.75,28.42 C43.7675,23.275 43.75,18.1125 43.75,12.9675 C43.75,12.7575 43.75,12.5475 43.75,12.285 C43.4525,12.285 43.26,12.285 43.0675,12.285 C37.835,12.25 32.62,12.25 27.3875,12.2675 Z M40.25,28.84 C39.9175,34.475 34.9475,40.6875 27.1425,40.2325 C21.5425,39.9175 15.3125,34.9475 15.785,27.09 C16.135,21.245 21.2275,15.645 28.035,15.785 C34.3875,15.5575 40.705,21.1925 40.25,28.84 Z" id="Shape" fill="#FFFFFF" fill-rule="nonzero"></path>
                    <rect id="Rectangle" x="0" y="0" width="56" height="56"></rect>
                </g>
            </g>
        </g>
    </g>
</svg>