<?xml version="1.0" encoding="UTF-8"?>
<svg width="56px" height="56px" viewBox="0 0 56 56" version="1.1" xmlns="http://www.w3.org/2000/svg" xmlns:xlink="http://www.w3.org/1999/xlink">
    <!-- Generator: Sketch 57.1 (83088) - https://sketch.com -->
    <title>234-B56px</title>
    <desc>Created with Sketch.</desc>
    <g id="234-B56px" stroke="none" stroke-width="1" fill="none" fill-rule="evenodd">
        <g>
            <path d="M7,7 L7,12.25 C7,17.43 8.05,26.0575 10.185,30.7825 C13.1075,37.24 18.48,45.185 28,49 C31.9375,47.425 35.1225,45.1325 37.765,42.525 L36.12,41.7025 C33.88,43.82 31.2025,45.7275 28,47.0925 C19.285,43.3475 14.3675,35.7875 11.7775,30.0475 C9.8875,25.8825 8.75,17.71 8.75,12.25 L8.75,8.75 L47.25,8.75 L47.25,12.25 C47.25,17.7275 46.1125,25.8825 44.2225,30.065 C43.61,31.43 42.8575,32.9 41.9475,34.3875 L41.9475,37.5725 C43.54,35.28 44.835,32.9525 45.815,30.7825 C47.95,26.0575 49,17.43 49,12.25 L49,7 L7,7 Z" id="Path" fill="#101828" fill-rule="nonzero"></path>
            <path d="M28.49,28 L19.32,28 C19.285,28 19.25,27.965 19.25,27.9125 L19.25,14.0875 C19.25,14.035 19.285,14 19.3375,14 L36.68,14 C36.715,14 36.75,14.035 36.75,14.0875 L36.75,17.5875 C37.3625,17.6575 37.94,17.7975 38.5,17.99 L38.5,14.0875 C38.5,13.0725 37.6775,12.25 36.6625,12.25 L19.32,12.25 C18.3225,12.25 17.5,13.0725 17.5,14.0875 L17.5,27.9125 C17.5,28.9275 18.3225,29.75 19.3375,29.75 L29.365,29.75 C28.9975,29.2075 28.7175,28.6125 28.49,28 Z" id="Path" fill="#101828" fill-rule="nonzero"></path>
            <path d="M35.875,21 C38.29,21 40.25,22.96 40.25,25.375 C40.25,27.79 38.29,29.75 35.875,29.75 C33.46,29.75 31.5,27.79 31.5,25.375 C31.5,22.96 33.46,21 35.875,21 L35.875,21 Z M35.875,19.25 C32.4975,19.25 29.75,21.9975 29.75,25.375 C29.75,28.7525 32.4975,31.5 35.875,31.5 C39.2525,31.5 42,28.7525 42,25.375 C42,21.9975 39.2525,19.25 35.875,19.25 L35.875,19.25 Z" id="Shape" fill="#101828" fill-rule="nonzero"></path>
            <path d="M35.875,24.5 C36.365,24.5 36.75,24.9025 36.75,25.375 C36.75,25.865 36.3475,26.25 35.875,26.25 C35.385,26.25 35,25.8475 35,25.375 C35,24.9025 35.385,24.5 35.875,24.5 L35.875,24.5 Z M35.875,22.75 C34.4225,22.75 33.25,23.9225 33.25,25.375 C33.25,26.8275 34.4225,28 35.875,28 C37.3275,28 38.5,26.8275 38.5,25.375 C38.5,23.9225 37.3275,22.75 35.875,22.75 L35.875,22.75 Z" id="Shape" fill="#101828" fill-rule="nonzero"></path>
            <rect id="Rectangle" fill="#101828" fill-rule="nonzero" x="22.75" y="21" width="5.25" height="1.75"></rect>
            <rect id="Rectangle" fill="#101828" fill-rule="nonzero" x="22.75" y="17.5" width="7" height="1.75"></rect>
            <path d="M38.5,31.08 L38.5,39.13 L36.68,38.185 L35.875,37.765 L35.07,38.185 L33.25,39.13 L33.25,31.115 C33.985,31.3775 34.8425,31.535 35.84,31.535 C36.8725,31.5175 37.7475,31.3425 38.5,31.08 L38.5,31.08 Z M40.25,27.335 C40.25,27.335 39.375,29.7675 35.84,29.7675 C32.2875,29.7675 31.5,27.335 31.5,27.335 L31.5,42 L35.875,39.725 L40.25,42 L40.25,27.335 L40.25,27.335 Z" id="Shape" fill="#101828" fill-rule="nonzero"></path>
            <rect id="Rectangle" x="0" y="0" width="56" height="56"></rect>
        </g>
    </g>
</svg>