<?xml version="1.0" encoding="UTF-8"?>
<svg width="80px" height="80px" viewBox="0 0 80 80" version="1.1" xmlns="http://www.w3.org/2000/svg" xmlns:xlink="http://www.w3.org/1999/xlink">
    <!-- Generator: Sketch 57.1 (83088) - https://sketch.com -->
    <title>053-B80px</title>
    <desc>Created with Sketch.</desc>
    <g id="053-B80px" stroke="none" stroke-width="1" fill="none" fill-rule="evenodd">
        <g>
            <rect id="Rectangle" x="0" y="0" width="80" height="80"></rect>
            <g id="Group" transform="translate(12.500000, 10.000000)" fill="#101828" fill-rule="nonzero">
                <path d="M27.45,0 L1.475,15 L1.475,45 L27.45,60 L53.425,45 L53.425,15 L27.45,0 Z M50.95,42.125 L40.625,35.725 C40.925,34.7 40.925,34.025 40.925,34.025 L40.925,20.575 L28.7,13.25 L28.7,3.6 L50.925,16.425 L50.925,42.125 L50.95,42.125 Z M16.5,34.05 L16.5,22 L27.45,15.425 L38.4,22 L38.4,34.05 C38.4,34.1 38.1,40.225 27.45,44.8 C16.875,40.225 16.5,34.25 16.5,34.05 Z M26.2,3.6 L26.2,13.25 L14,20.575 L14,34.025 C14,34.025 14,34.65 14.3,35.65 L4,42.025 L4,16.45 L26.2,3.6 Z M5.175,44.25 L15.25,38 C16.75,40.8 20.075,44.55 27.45,47.5 C34.775,44.575 38.1,40.85 39.625,38.05 L49.675,44.275 L27.45,57.1 L5.175,44.25 Z" id="Shape"></path>
                <polygon id="Path" points="33.4 27.475 31.55 25.8 26.3 31.525 23.375 28.325 21.525 30 26.3 35.225"></polygon>
            </g>
        </g>
    </g>
</svg>