<?xml version="1.0" encoding="UTF-8"?>
<svg width="56px" height="56px" viewBox="0 0 56 56" version="1.1" xmlns="http://www.w3.org/2000/svg" xmlns:xlink="http://www.w3.org/1999/xlink">
    <!-- Generator: Sketch 58 (84663) - https://sketch.com -->
    <title>257-W56px</title>
    <desc>Created with Sketch.</desc>
    <g id="NEW_icons" stroke="none" stroke-width="1" fill="none" fill-rule="evenodd">
        <g id="icons_UD_new-Copy" transform="translate(-1814.000000, -32648.000000)">
            <g id="257-W56px" transform="translate(1814.000000, 32648.000000)">
                <circle id="Oval-Copy-1474" fill="#101828" cx="28" cy="28" r="28"></circle>
                <g id="257-B32px-Copy" transform="translate(8.000000, 8.000000)">
                    <rect id="Rectangle" x="0" y="0" width="40" height="40"></rect>
                    <path d="M21.1625,27.6375 C16.525,25.675 12.7,21.8875 12.6625,21.85 C12.6,21.7875 6.675,15.7625 5.875,9.7625 C5.875,9.725 5.8625,9.6625 5.9,9.625 L9.125,6.4125 C9.15,6.3875 9.175,6.375 9.2125,6.375 C9.25,6.375 9.275,6.3875 9.275,6.4 L14.275,11.425 C14.3125,11.4625 14.3125,11.525 14.2625,11.575 L12.1125,13.725 L11.5125,14.325 L11.8375,15.1 C11.8875,15.225 13.0875,18.05 14.775,19.7375 C16.4625,21.425 19.2875,22.6375 19.4,22.6875 L20.175,23.0125 L20.775,22.4125 L22.925,20.2625 C22.95,20.2375 22.975,20.225 23.0125,20.225 C23.05,20.225 23.075,20.2375 23.075,20.25 L23.975,21.15 C24.325,20.9 24.7,20.6875 25.0875,20.5 L23.9625,19.3625 C23.7,19.1 23.35,18.9625 23,18.975 C22.6625,18.975 22.3125,19.1125 22.05,19.375 L19.9,21.525 C19.9,21.525 17.2,20.375 15.6625,18.8375 C14.125,17.3 12.9875,14.6 12.9875,14.6 L15.1375,12.45 C15.675,11.925 15.675,11.0625 15.15,10.5375 L10.15,5.5125 C9.9,5.25 9.55,5.125 9.1875,5.125 C8.85,5.125 8.5,5.2625 8.2375,5.525 L5.025,8.7375 C4.7125,9.05 4.575,9.4875 4.6375,9.925 C5.5,16.4375 11.775,22.725 11.775,22.725 C11.775,22.725 16.2,27.15 21.5375,29.125 C21.3625,28.65 21.2375,28.15 21.1625,27.6375 Z" id="Path" fill="#FFFFFF" fill-rule="nonzero"></path>
                    <path d="M27.2875,20.8875 L28.6875,21.7375 L27.3125,22.625 L27.2875,20.8875 L27.2875,20.8875 Z M26,18.65 L26.0875,24.9 L31.0375,21.7 L26,18.65 L26,18.65 Z" id="Shape" fill="#FFFFFF" fill-rule="nonzero"></path>
                    <g id="Group" transform="translate(21.250000, 21.250000)" fill="#FFFFFF" fill-rule="nonzero">
                        <path d="M3.0625,9.7375 L4.1625,9.0125 C3.0875,8.225 2.375,6.9875 2.35,5.55 C2.325,3.8 3.3375,2.2875 4.8125,1.5625 L4.7875,0.225 C2.6125,1.025 1.0625,3.1125 1.1,5.5625 C1.125,7.25 1.9,8.725 3.0625,9.7375 Z" id="Path"></path>
                        <path d="M10.4,1.2625 L9.3,1.9875 C10.3625,2.775 11.075,4.0125 11.1,5.4375 C11.125,7.175 10.125,8.6875 8.6625,9.4125 L8.6875,10.7625 C10.85,9.95 12.4,7.875 12.3625,5.425 C12.325,3.75 11.5625,2.275 10.4,1.2625 Z" id="Path"></path>
                    </g>
                    <path d="M28.6625,30.8625 L28.6875,32.6 L27.2875,31.75 L28.6625,30.8625 L28.6625,30.8625 Z M29.875,28.6 L24.925,31.8 L29.975,34.85 L29.875,28.6 L29.875,28.6 Z" id="Shape" fill="#FFFFFF" fill-rule="nonzero"></path>
                </g>
            </g>
        </g>
    </g>
</svg>