<?xml version="1.0" encoding="UTF-8"?>
<svg width="42px" height="42px" viewBox="0 0 42 42" version="1.1" xmlns="http://www.w3.org/2000/svg" xmlns:xlink="http://www.w3.org/1999/xlink">
    <!-- Generator: Sketch 54.1 (76490) - https://sketchapp.com -->
    <title>244-G40px</title>
    <desc>Created with Sketch.</desc>
    <g id="NEW_icons" stroke="none" stroke-width="1" fill="none" fill-rule="evenodd">
        <g id="icons_UD_new-Copy" transform="translate(-244.000000, -31004.000000)">
            <g id="244-G40px" transform="translate(245.000000, 31005.000000)">
                <circle id="Oval-Copy-745" stroke="#E3E8EC" cx="20" cy="20" r="20"></circle>
                <g id="244-B32px-Copy-9" transform="translate(4.000000, 4.000000)">
                    <path d="M27,19 L27,21 L23,21 L23,19 L27,19 L27,19 Z M28,18 L22,18 L22,22 L28,22 L28,18 L28,18 Z" id="Shape" fill="#101828" fill-rule="nonzero"></path>
                    <polygon id="Path" fill="#101828" fill-rule="nonzero" points="25 23 21 23 21 24 25 24"></polygon>
                    <polygon id="Path" fill="#101828" fill-rule="nonzero" points="25 25 18 25 18 26 25 26"></polygon>
                    <path d="M19.98,18 L19.6,18 L19.16,18 C18.89,18 18.64,18.11 18.45,18.3 L15.28,21.53 C15.1,21.72 15,21.97 15,22.23 L15,22.6 L15,23 L15,28 L28,28 L28,18 L19.98,18 Z M18.98,19.18 L18.98,22 L16.22,22 L18.98,19.18 Z M27,27 L16,27 L16,23 L18.98,23 C19.53,23 19.98,22.55 19.98,22 L19.98,19 L27,19 L27,27 Z" id="Shape" fill="#101828" fill-rule="nonzero"></path>
                    <path d="M14.59,20.82 C12.1,19.24 10.31,17.43 10.28,17.4 C10.24,17.35 5.57,12.46 5,7.65 C5,7.62 5,7.57 5.03,7.54 L7.65,5.01 C7.67,4.99 7.69,4.98 7.72,4.98 C7.74,4.98 7.76,5 7.76,5 L11.71,9.08 C11.74,9.11 11.73,9.17 11.7,9.2 L9.95,10.89 L9.47,11.36 L9.72,11.98 C9.76,12.08 10.69,14.35 12.02,15.72 C13.35,17.09 15.59,18.1 15.69,18.14 L16.31,18.41 L16.79,17.94 L18.54,16.25 C18.56,16.23 18.58,16.22 18.61,16.22 C18.64,16.22 18.66,16.24 18.66,16.24 L19.38,16.98 L20.77,16.98 L19.38,15.54 C19.17,15.32 18.89,15.21 18.61,15.21 C18.34,15.21 18.06,15.31 17.85,15.52 L16.1,17.21 C16.1,17.21 13.96,16.26 12.75,15.01 C11.54,13.76 10.66,11.59 10.66,11.59 L12.41,9.9 C12.84,9.48 12.86,8.8 12.44,8.37 L8.48,4.31 C8.27,4.09 7.99,3.98 7.71,3.98 C7.44,3.98 7.16,4.08 6.95,4.29 L4.33,6.82 C4.08,7.07 3.97,7.42 4.01,7.77 C4.63,12.99 9.57,18.09 9.57,18.09 C9.57,18.09 11.33,19.9 13.86,21.53 L14.59,20.82 Z" id="Path" fill="#101828" fill-rule="nonzero"></path>
                    <rect id="Rectangle" x="0" y="0" width="32" height="32"></rect>
                </g>
            </g>
        </g>
    </g>
</svg>