<?xml version="1.0" encoding="UTF-8"?>
<svg width="32px" height="32px" viewBox="0 0 32 32" version="1.1" xmlns="http://www.w3.org/2000/svg" xmlns:xlink="http://www.w3.org/1999/xlink">
    <!-- Generator: Sketch 57.1 (83088) - https://sketch.com -->
    <title>035-B32px</title>
    <desc>Created with Sketch.</desc>
    <g id="035-B32px" stroke="none" stroke-width="1" fill="none" fill-rule="evenodd">
        <g>
            <g id="Group" transform="translate(4.000000, 5.000000)" fill="#101828" fill-rule="nonzero">
                <polygon id="Path" points="5.9 11.99 7.29 12.02 6.62 9.12"></polygon>
                <g>
                    <polygon id="Path" points="5.9 11.99 7.29 12.02 6.62 9.12"></polygon>
                    <path d="M13,0 L0,2 L0,20 L13,22 L13,0 Z M8.13,15.16 L7.6,13.42 L5.62,13.35 L5.26,15.03 L3.9,14.94 L5.91,7.39 L7.45,7.32 L9.58,15.25 L8.13,15.16 Z" id="Shape"></path>
                </g>
            </g>
            <path d="M20,8 C18.54,8 17.18,8.1 16,8.27 L16,9.28 C17.08,9.12 18.41,9 20,9 C23.54,9 25.87,9.57 26.73,10 C25.87,10.43 23.54,11 20,11 C18.41,11 17.08,10.88 16,10.72 L16,11.73 C17.18,11.9 18.54,12 20,12 C23.01,12 25.64,11.58 27,10.97 L27,13.67 L27,13.67 C27,14.12 24.6,15.17 19.96,15.17 C18.37,15.17 17.06,15.04 16,14.86 L16,15.88 C17.23,16.08 18.61,16.17 19.96,16.17 C22.68,16.17 25.54,15.78 27,14.96 L27,17.84 L27,17.84 C27,18.29 24.6,19.34 19.96,19.34 C18.37,19.34 17.06,19.21 16,19.03 L16,20.05 C17.23,20.25 18.61,20.34 19.96,20.34 C22.68,20.34 25.54,19.95 27,19.13 L27,22 L27,22 C27,22.45 24.6,23.5 19.96,23.5 C18.37,23.5 17.06,23.37 16,23.19 L16,24.21 C17.23,24.41 18.61,24.5 19.96,24.5 C23.83,24.5 28,23.72 28,21.99 L28,21.99 L28,10 C28,8.9 24.42,8 20,8 Z" id="Path" fill="#101828" fill-rule="nonzero"></path>
            <rect id="Rectangle" x="0" y="0" width="32" height="32"></rect>
        </g>
    </g>
</svg>