<?xml version="1.0" encoding="UTF-8"?>
<svg width="80px" height="80px" viewBox="0 0 80 80" version="1.1" xmlns="http://www.w3.org/2000/svg" xmlns:xlink="http://www.w3.org/1999/xlink">
    <!-- Generator: Sketch 58 (84663) - https://sketch.com -->
    <title>261-G80px</title>
    <desc>Created with Sketch.</desc>
    <g id="NEW_icons" stroke="none" stroke-width="1" fill="none" fill-rule="evenodd">
        <g id="icons_UD_new-Copy" transform="translate(-2050.000000, -33121.000000)">
            <g id="261-G80px" transform="translate(2050.000000, 33121.000000)">
                <circle id="Oval-Copy-1476" fill="#E3E8EC" cx="40" cy="40" r="40"></circle>
                <g id="261-B32px" transform="translate(12.000000, 12.000000)">
                    <g>
                        <rect id="Rectangle" fill="#101828" fill-rule="nonzero" x="12.25" y="38.465" width="10.5" height="1.75"></rect>
                        <rect id="Rectangle" fill="#101828" fill-rule="nonzero" x="12.25" y="41.965" width="10.5" height="1.75"></rect>
                        <path d="M36.7325,10.465 L36.7325,24.57 C37.03,24.5525 37.3275,24.5175 37.625,24.5175 C37.9225,24.5175 38.2025,24.535 38.4825,24.5525 L38.4825,12.215 L40.2325,12.215 L40.2325,24.78 C40.8275,24.9025 41.4225,25.0775 41.9825,25.27 L41.9825,10.465 L36.7325,10.465 Z" id="Path" fill="#101828" fill-rule="nonzero"></path>
                        <g id="Group" transform="translate(7.000000, 5.250000)" fill="#101828" fill-rule="nonzero">
                            <path d="M38.4125,43.75 L38.5,43.75 L38.5,43.6975 C38.465,43.715 38.4475,43.7325 38.4125,43.75 Z" id="Path"></path>
                            <path d="M24.185,42 L1.75,42 L1.75,6.09 L3.5,10.465 L28,10.465 L29.75,6.09 L29.75,23.065 C30.31,22.925 30.905,22.8375 31.5,22.785 L31.5,7 L33.25,7 L33.25,8.75 L33.25,22.785 C33.845,22.8375 34.44,22.925 35,23.065 L35,10.5 L36.75,10.5 L36.75,23.625 C37.3625,23.8875 37.94,24.2025 38.5,24.5525 L38.5,8.75 L35,8.75 L35,5.25 L31.5,5.25 L31.5,1.75 L31.4825,1.75 L31.5,1.715 L0,1.715 L0.0175,1.75 L0,1.75 L0,43.75 L26.3375,43.75 C25.55,43.26 24.815,42.665 24.185,42 Z M28.91,3.5 L26.8275,8.715 L4.69,8.715 L2.59,3.5 L28.91,3.5 Z" id="Shape"></path>
                        </g>
                        <path d="M39.375,31.5 C43.715,31.5 47.25,35.035 47.25,39.375 C47.25,43.715 43.715,47.25 39.375,47.25 C35.035,47.25 31.5,43.715 31.5,39.375 C31.5,35.035 35.035,31.5 39.375,31.5 L39.375,31.5 Z M39.375,29.75 C34.055,29.75 29.75,34.055 29.75,39.375 C29.75,44.695 34.055,49 39.375,49 C44.695,49 49,44.695 49,39.375 C49,34.055 44.695,29.75 39.375,29.75 L39.375,29.75 Z" id="Shape" fill="#101828" fill-rule="nonzero"></path>
                        <path d="M38.7625,36.855 L36.995,35.0175 C36.8025,34.825 36.505,34.825 36.3125,35.0175 L35.14,36.155 C35.0175,36.26 34.9825,36.4175 35,36.575 C35.28,38.92 37.5025,41.2125 37.5025,41.2125 C37.5025,41.2125 39.7075,43.4875 42.07,43.8725 C42.2275,43.89 42.3675,43.8375 42.49,43.7325 L43.6625,42.595 C43.855,42.4025 43.855,42.105 43.68,41.9125 L41.9125,40.075 C41.72,39.8825 41.4225,39.8825 41.23,40.075 L40.4425,40.8275 C40.4425,40.8275 39.48,40.4075 38.9375,39.8475 C38.395,39.2875 37.9925,38.3075 37.9925,38.3075 L38.78,37.555 C38.9375,37.345 38.9375,37.0475 38.7625,36.855 Z" id="Path" fill="#101828" fill-rule="nonzero"></path>
                        <rect id="Rectangle" x="0" y="0" width="56" height="56"></rect>
                    </g>
                </g>
            </g>
        </g>
    </g>
</svg>