<?xml version="1.0" encoding="UTF-8"?>
<svg width="80px" height="80px" viewBox="0 0 80 80" version="1.1" xmlns="http://www.w3.org/2000/svg" xmlns:xlink="http://www.w3.org/1999/xlink">
    <!-- Generator: Sketch 57.1 (83088) - https://sketch.com -->
    <title>046-B80px</title>
    <desc>Created with Sketch.</desc>
    <g id="046-B80px" stroke="none" stroke-width="1" fill="none" fill-rule="evenodd">
        <g>
            <polygon id="Path" fill="#101828" points="40 25 27.725 27.075 27.725 29.1 28.8 29.1 28.8 28.1 40 26.2 51.2 28.1 51.2 29.1 52.275 29.1 52.275 27.075"></polygon>
            <polygon id="Path" fill="#101828" points="54.1 34.55 61.825 34.55 59.45 37.275 57.1 40 53.625 40 53.625 34.55"></polygon>
            <polygon id="Path" fill="#101828" points="51.175 35.9 51.125 43.125 40 53.65 28.875 43.125 28.825 35.9 27.725 35.9 27.725 40.775 27.725 43.425 40 55 52.275 43.425 52.275 37.05 52.275 35.9"></polygon>
            <polygon id="Path" fill="#101828" points="23.175 29.1 10 29.1 12.4 31.45 14.775 33.8 23.125 33.8 23.175 33.8 27.1 33.8 29.425 33.8 29.7 33.8 30.1 33.8 30.1 41.9 33.725 45.45 37.275 41.975 34.875 39.6 34.875 29.1"></polygon>
            <polygon id="Path" fill="#101828" points="42.725 29.825 42.725 42.75 42.725 49.875 40 52.275 37.275 49.875 37.275 42.75 37.275 29.825 40 27.725"></polygon>
            <polygon id="Path" fill="#101828" points="45.125 29.1 45.125 39.6 42.725 41.975 46.275 45.45 49.9 41.875 49.9 33.8 50.5 33.8 51.05 33.8 53.375 33.8 57.075 33.8 65.225 33.8 67.6 31.45 70 29.1"></polygon>
            <polygon id="Path" fill="#101828" points="18.175 34.55 26.375 34.55 26.375 40 22.9 40 20.55 37.275"></polygon>
            <rect id="Rectangle" x="0" y="0" width="80" height="80"></rect>
        </g>
    </g>
</svg>