<?xml version="1.0" encoding="UTF-8"?>
<svg width="80px" height="80px" viewBox="0 0 80 80" version="1.1" xmlns="http://www.w3.org/2000/svg" xmlns:xlink="http://www.w3.org/1999/xlink">
    <!-- Generator: Sketch 57.1 (83088) - https://sketch.com -->
    <title>008-B80px</title>
    <desc>Created with Sketch.</desc>
    <g id="008-B80px" stroke="none" stroke-width="1" fill="none" fill-rule="evenodd">
        <g>
            <g id="Group" transform="translate(10.000000, 10.000000)" fill="#101828" fill-rule="nonzero">
                <path d="M34.45,27.875 C34.4,28.175 34.4,28.45 34.3,28.725 C33.65,30.575 31.925,31.825 30,31.825 C27.475,31.825 25.425,29.725 25.425,27.125 C25.425,26.55 25.525,25.975 25.725,25.45 C25.775,25.325 25.85,25.225 25.925,25.1 L23.5,24.325 C23.475,24.425 23.425,24.5 23.375,24.575 C23.075,25.375 22.925,26.225 22.925,27.125 C22.925,31.1 26.1,34.325 30,34.325 C33.075,34.325 35.675,32.35 36.65,29.55 C36.75,29.25 36.825,28.95 36.875,28.65 L34.45,27.875 Z" id="Path"></path>
                <path d="M54.025,23.825 L51.225,32.5 L8.375,18.675 L9.425,15.45 L9.125,15.35 C8.35,15.1 7.725,14.6 7.275,13.975 L6,17.9 C5.575,19.225 6.3,20.625 7.6,21.05 L50.425,34.875 C50.675,34.95 50.95,35 51.2,35 C52.25,35 53.225,34.325 53.575,33.275 L56.55,24.025 C56.725,23.45 56.675,22.9 56.475,22.375 L54.025,23.825 Z" id="Path"></path>
                <path d="M5,41.45 L5,56.325 C5,56.4 4.95,56.45 4.875,56.45 L2.5,56.45 L2.5,41.45 L5,41.45 L5,41.45 Z M5.025,38.95 L0,38.95 L0,58.95 L4.85,58.95 C6.3,58.95 7.475,57.775 7.475,56.325 L7.475,41.425 C7.5,40.05 6.375,38.95 5.025,38.95 L5.025,38.95 Z" id="Shape"></path>
                <path d="M12.225,3.55 C12.3,3.55 12.375,3.55 12.45,3.575 L57,17.95 C57.35,18.075 57.45,18.35 57.475,18.55 C57.5,18.75 57.45,19.05 57.125,19.25 L47.5,24.85 C47.4,24.925 47.275,24.95 47.15,24.95 C47.075,24.95 47,24.95 46.925,24.925 L9.475,12.825 C9.1,12.725 8.9,12.3 9,11.925 L11.55,4.05 C11.675,3.725 11.975,3.55 12.225,3.55 L12.225,3.55 Z M12.225,1.05 C10.875,1.05 9.6,1.925 9.175,3.275 L6.625,11.175 C6.075,12.875 7,14.675 8.7,15.225 L46.175,27.325 C46.5,27.425 46.825,27.475 47.15,27.475 C47.7,27.475 48.275,27.325 48.75,27.05 L58.375,21.45 C60.775,20.05 60.4,16.475 57.75,15.625 L13.225,1.225 C12.875,1.1 12.55,1.05 12.225,1.05 L12.225,1.05 Z" id="Shape"></path>
                <polygon id="Path" points="54.25 23.125 51.55 31.5 55.75 32.875 58.45 24.475"></polygon>
                <path d="M10.75,50.2 L4.975,50.2 L4.975,47.7 L10.75,47.7 C15.975,47.7 20.65,44.8 22.95,40.125 L27.35,31.2 L29.6,32.3 L25.2,41.225 C22.475,46.75 16.925,50.2 10.75,50.2 Z" id="Path"></path>
            </g>
            <rect id="Rectangle" x="0" y="0" width="80" height="80"></rect>
        </g>
    </g>
</svg>