<?xml version="1.0" encoding="UTF-8"?>
<svg width="80px" height="80px" viewBox="0 0 80 80" version="1.1" xmlns="http://www.w3.org/2000/svg" xmlns:xlink="http://www.w3.org/1999/xlink">
    <!-- Generator: Sketch 57.1 (83088) - https://sketch.com -->
    <title>134-B80px</title>
    <desc>Created with Sketch.</desc>
    <g id="134-B80px" stroke="none" stroke-width="1" fill="none" fill-rule="evenodd">
        <g>
            <path d="M38.75,37.5 C40.125,37.5 41.25,38.625 41.25,40 C41.25,41.375 40.125,42.5 38.75,42.5 C37.375,42.5 36.25,41.375 36.25,40 C36.25,38.625 37.375,37.5 38.75,37.5 L38.75,37.5 Z M38.75,35 C36,35 33.75,37.25 33.75,40 C33.75,42.75 36,45 38.75,45 C41.5,45 43.75,42.75 43.75,40 C43.75,37.25 41.5,35 38.75,35 L38.75,35 Z" id="Shape" fill="#101828" fill-rule="nonzero"></path>
            <path d="M36.25,40 L33.75,40 L33.75,32.8 C33.775,30.65 35.15,27.475 38.85,27.475 C40.275,27.475 41.5,27.95 42.35,28.825 C43.8,30.325 43.8,32.425 43.775,32.675 L41.275,32.6 L42.525,32.625 L41.275,32.6 C41.275,32.575 41.275,31.3 40.55,30.55 C40.175,30.175 39.6,30 38.85,30 C36.35,30 36.25,32.55 36.25,32.825 L36.25,40 Z" id="Path" fill="#101828" fill-rule="nonzero"></path>
            <rect id="Rectangle" fill="#101828" fill-rule="nonzero" x="26.25" y="35" width="2.5" height="2.5"></rect>
            <path d="M58.75,22.5 C59.45,22.5 60,23.05 60,23.75 C60,24.45 59.45,25 58.75,25 C58.05,25 57.5,24.45 57.5,23.75 C57.5,23.05 58.05,22.5 58.75,22.5 L58.75,22.5 Z M58.75,20 C56.675,20 55,21.675 55,23.75 C55,25.825 56.675,27.5 58.75,27.5 C60.825,27.5 62.5,25.825 62.5,23.75 C62.5,21.675 60.825,20 58.75,20 L58.75,20 Z" id="Shape" fill="#101828" fill-rule="nonzero"></path>
            <path d="M51.25,30 C53.325,30 55,31.675 55,33.75 L55,38.75 C55,40.825 53.325,42.5 51.25,42.5 C49.175,42.5 47.5,40.825 47.5,38.75 L47.5,33.75 C47.5,31.675 49.175,30 51.25,30 L51.25,30 Z M51.25,27.5 C47.8,27.5 45,30.3 45,33.75 L45,38.75 C45,42.2 47.8,45 51.25,45 C54.7,45 57.5,42.2 57.5,38.75 L57.5,33.75 C57.5,30.3 54.7,27.5 51.25,27.5 L51.25,27.5 Z" id="Shape" fill="#101828" fill-rule="nonzero"></path>
            <path d="M37.5,52 L40.275,53.75 L37.5,55.475 L37.5,52 L37.5,52 Z M35,47.5 L35,60 L45,53.75 L35,47.5 L35,47.5 Z" id="Shape" fill="#101828" fill-rule="nonzero"></path>
            <g id="Group" transform="translate(10.000000, 37.500000)" fill="#101828" fill-rule="nonzero">
                <path d="M2.5,7.5 C2.5,6.425 4.225,4.95 7.5,3.575 L7.5,0.9 C2.85,2.65 0,4.975 0,7.5 C0,12.45 10.825,16.55 25,17.35 L25,14.85 C10.4,14.025 2.5,9.8 2.5,7.5 Z" id="Path"></path>
                <path d="M52.5,0.9 L52.5,3.575 C55.775,4.95 57.5,6.425 57.5,7.5 C57.5,9.65 50.5,13.55 37.5,14.675 L37.5,15.45 L37.5,17.05 L37.5,17.175 C50.425,16.075 60,12.15 60,7.5 C60,4.975 57.15,2.65 52.5,0.9 Z" id="Path"></path>
            </g>
            <path d="M30.775,36.25 C31.825,35.325 32.5,34 32.5,32.5 C32.5,29.75 30.25,27.5 27.5,27.5 C24.75,27.5 22.5,29.75 22.5,32.5 L25,32.5 C25,31.125 26.125,30 27.5,30 C28.875,30 30,31.125 30,32.5 C30,33.875 28.875,35 27.5,35 L27.5,35 L27.5,37.5 C27.5,37.5 27.5,37.5 27.5,37.5 C28.875,37.5 30,38.625 30,40 C30,41.375 28.875,42.5 27.5,42.5 C26.125,42.5 25,41.375 25,40 L22.5,40 C22.5,42.75 24.75,45 27.5,45 C30.25,45 32.5,42.75 32.5,40 C32.5,38.5 31.825,37.175 30.775,36.25 Z" id="Path" fill="#101828" fill-rule="nonzero"></path>
            <rect id="Rectangle" x="0" y="0" width="80" height="80"></rect>
        </g>
    </g>
</svg>