<?xml version="1.0" encoding="UTF-8"?>
<svg width="80px" height="80px" viewBox="0 0 80 80" version="1.1" xmlns="http://www.w3.org/2000/svg" xmlns:xlink="http://www.w3.org/1999/xlink">
    <!-- Generator: Sketch 59.1 (86144) - https://sketch.com -->
    <title>265-B80px</title>
    <desc>Created with Sketch.</desc>
    <g id="265-B80px" stroke="none" stroke-width="1" fill="none" fill-rule="evenodd">
        <g>
            <rect id="Rectangle" x="0" y="0" width="80" height="80"></rect>
            <g id="Group" transform="translate(10.000000, 10.000000)" fill="#101828" fill-rule="nonzero">
                <rect id="Rectangle" x="42.5" y="9" width="10" height="2.25"></rect>
                <rect id="Rectangle" x="42.5" y="23.75" width="10" height="2.5"></rect>
                <rect id="Rectangle" x="42.5" y="13.75" width="2" height="2.75"></rect>
                <rect id="Rectangle" x="46.5" y="13.75" width="2" height="2.75"></rect>
                <rect id="Rectangle" x="50.5" y="13.75" width="2" height="2.75"></rect>
                <rect id="Rectangle" x="42.5" y="18.75" width="2" height="2.75"></rect>
                <rect id="Rectangle" x="46.5" y="18.75" width="2" height="2.75"></rect>
                <rect id="Rectangle" x="50.5" y="18.75" width="2" height="2.75"></rect>
                <g transform="translate(12.500000, 12.500000)">
                    <g transform="translate(0.000000, 7.500000)" id="Path">
                        <path d="M3.25,8.75 L3.25,5 C3.25,4 4,3.25 5,3.25 L12.5,3.25 C13.5,3.25 14.25,4 14.25,5 L14.25,8.75 L15,8.75 L15,5 C15,3.75 14,2.5 12.5,2.5 L5.25,2.5 C4,2.5 2.75,3.5 2.75,5 L2.75,8.75 L3.25,8.75 Z"></path>
                        <path d="M15.75,9.5 L13.5,9.5 L13.5,5 C13.5,4.5 13,4 12.5,4 L5.25,4 C4.75,4 4.25,4.5 4.25,5 L4.25,9.5 L2,9.5 L2,5 C2,3.25 3.5,1.75 5.25,1.75 L12.5,1.75 C14.25,1.75 15.75,3.25 15.75,5 L15.75,9.5 Z"></path>
                    </g>
                    <g transform="translate(2.500000, 0.000000)" id="Shape">
                        <path d="M6.25,2.25 C8,2.25 9.25,3.5 9.25,5.25 C9.25,7 8,8.25 6.25,8.25 C4.5,8.25 3.25,7 3.25,5.25 C3.25,3.5 4.75,2.25 6.25,2.25 M6.25,1.5 C4.25,1.5 2.5,3.25 2.5,5.25 C2.5,7.25 4.25,9 6.25,9 C8.25,9 10,7.25 10,5.25 C10,3.25 8.5,1.5 6.25,1.5 L6.25,1.5 Z"></path>
                        <path d="M6.25,9.75 C3.75,9.75 1.75,7.75 1.75,5.25 C1.75,2.75 3.75,0.75 6.25,0.75 C8.75,0.75 10.75,2.75 10.75,5.25 C11,7.75 9,9.75 6.25,9.75 Z M6.25,3 C5,3 4,4 4,5.25 C4,6.5 5,7.5 6.25,7.5 C7.5,7.5 8.5,6.5 8.5,5.25 C8.5,4 7.5,3 6.25,3 Z"></path>
                    </g>
                </g>
                <path d="M34.5,11 L34.5,29 L9.5,29 L9.5,11 L34.5,11 M34.5,8.75 L9.5,8.75 C8,8.75 6.75,9.75 6.75,11 L6.75,29 C6.75,30.25 8,31.25 9.5,31.25 L34.5,31.25 C36,31.25 37.25,30.25 37.25,29 L37.25,11 C37.25,9.75 36,8.75 34.5,8.75 L34.5,8.75 Z" id="Shape"></path>
                <path d="M54.5,38.75 L57.25,38.75 C57.25,38.75 57.5,38.75 57.5,38.5 L57.5,4 C57.5,4 57.5,3.75 57.25,3.75 L2.75,3.75 C2.75,3.75 2.5,3.75 2.5,4 L2.5,38.75 C2.5,38.75 2.5,39 2.75,39 L23,39 C22.75,39.75 22.75,40.75 22.5,41.5 L2.5,41.5 C1.25,41.25 0,40 0,38.5 L0,4 C0,2.5 1.25,1.25 2.75,1.25 L57.5,1.25 C58.75,1.25 60,2.5 60,4 L60,38.75 C60,40.25 58.75,41.5 57.25,41.5 L54.75,41.5 C54.75,40.5 54.75,39.5 54.5,38.75 Z" id="Path"></path>
                <path d="M27.5,45 C27.5,38.75 32.5,33.75 38.75,33.75 C45,33.75 50,38.75 50,45 C50,51.25 45,56.25 38.75,56.25 C32.5,56.25 27.5,51.25 27.5,45 M25,45 C25,52.5 31.25,58.75 38.75,58.75 C46.25,58.75 52.5,52.5 52.5,45 C52.5,37.5 46.25,31.25 38.75,31.25 C31.25,31.25 25,37.5 25,45 L25,45 Z" id="Shape"></path>
                <g transform="translate(30.000000, 35.000000)" id="Path">
                    <path d="M5.5,7.5 L4.5,4 C4.5,3.75 4,3.5 3.75,3.5 L1.5,4.25 C1.25,4.25 1,4.5 1,4.75 C-0.25,8 1.25,12.25 1.25,12.25 C1.25,12.25 2.5,16.5 5.25,18.5 C5.5,18.75 5.75,18.75 5.75,18.5 L8,17.75 C8.25,17.75 8.5,17.25 8.5,17 L7.5,13.5 C7.5,13.25 7,13 6.75,13 L5,13.5 C5,13.5 4,12.25 3.75,11.25 C3.5,10.25 3.5,8.75 3.5,8.75 L5,8.25 C5.5,8.25 5.75,7.75 5.5,7.5 Z"></path>
                    <path d="M15.75,14 C17.25,9.75 15.75,4.75 12,2 L10.75,4 C13.5,6 14.75,9.75 13.5,13 L15.75,14 Z"></path>
                    <path d="M11.5,12.25 C12.25,10 11.25,7.5 9.5,6 L8.25,8 C9.25,8.75 9.5,10 9.25,11.25 L11.5,12.25 Z"></path>
                </g>
            </g>
        </g>
    </g>
</svg>