<?xml version="1.0" encoding="UTF-8"?>
<svg width="32px" height="32px" viewBox="0 0 32 32" version="1.1" xmlns="http://www.w3.org/2000/svg" xmlns:xlink="http://www.w3.org/1999/xlink">
    <!-- Generator: Sketch 57.1 (83088) - https://sketch.com -->
    <title>060-B32px</title>
    <desc>Created with Sketch.</desc>
    <g id="060-B32px" stroke="none" stroke-width="1" fill="none" fill-rule="evenodd">
        <g>
            <path d="M21,18.8 C19.9,18.8 18.9,18.4 18.2,17.5 L16,15.3 L13.9,17.6 C13.1,18.4 12.1,18.9 11.1,18.9 C10,18.9 9,18.5 8.3,17.6 C6.8,15.9 6.8,13.2 8.3,11.6 C9.1,10.8 10.1,10.3 11.1,10.3 C12.2,10.3 13.2,10.7 13.9,11.6 L16,13.9 L18.1,11.6 C18.9,10.8 19.9,10.3 20.9,10.3 C22,10.3 23,10.7 23.7,11.6 C25.2,13.3 25.2,16 23.7,17.6 C23.1,18.3 22,18.8 21,18.8 Z M16.7,14.5 L18.9,16.8 C20,18 22,18 23.1,16.8 C24.3,15.5 24.3,13.4 23.1,12.1 C22,10.9 20,10.9 18.9,12.1 L16.7,14.5 Z M11,11.2 C10.2,11.2 9.5,11.5 8.9,12.1 C7.7,13.4 7.7,15.5 8.9,16.8 C10,18 12,18 13.1,16.8 L15.3,14.5 L13.1,12.2 C12.6,11.6 11.8,11.2 11,11.2 Z" id="Shape" fill="#101828" fill-rule="nonzero"></path>
            <path d="M27,7 L5,7 C4.4,7 4,7.4 4,8 L4,19 L5,19 L5,8 L27,8 L27,21 L10.3,21 C9.9,21 9.5,21.1 9.2,21.3 L5.9,23.5 L4,24.8 L4,26 L9.7,22.2 C9.9,22.1 10.1,22 10.2,22 L27,22 C27.5,22 28,21.6 28,21 L28,8 C28,7.4 27.6,7 27,7 Z" id="Path" fill="#101828" fill-rule="nonzero"></path>
            <rect id="Rectangle" x="0" y="0" width="32" height="32"></rect>
        </g>
    </g>
</svg>