<?xml version="1.0" encoding="UTF-8"?>
<svg width="56px" height="56px" viewBox="0 0 56 56" version="1.1" xmlns="http://www.w3.org/2000/svg" xmlns:xlink="http://www.w3.org/1999/xlink">
    <!-- Generator: Sketch 57.1 (83088) - https://sketch.com -->
    <title>191-G56px</title>
    <desc>Created with Sketch.</desc>
    <g id="NEW_icons" stroke="none" stroke-width="1" fill="none" fill-rule="evenodd">
        <g id="icons_UD_new-Copy" transform="translate(-1728.000000, -24355.000000)">
            <g id="191-G56px" transform="translate(1728.000000, 24355.000000)">
                <circle id="Oval-Copy-1174" fill="#E3E8EC" cx="28" cy="28" r="28"></circle>
                <g id="191-B32px-Copy-3" transform="translate(8.000000, 8.000000)">
                    <path d="M26.25,26.2375 L26.25,33.75 L8.75,33.75 L8.7375,6.25 L26.25,6.25 L26.25,8.725 L27.5,8.725 L27.5,6.25 C27.5,5.5625 26.9375,5 26.2625,5 L8.7375,5 C8.0625,5 7.5,5.5625 7.5,6.25 L7.5,33.75 C7.5,34.4375 8.0625,35 8.7375,35 L26.25,35 C26.9375,35 27.4875,34.4375 27.4875,33.75 L27.4875,26.2375 L26.25,26.2375 Z" id="Path" fill="#101828" fill-rule="nonzero"></path>
                    <path d="M17.5,32.5 C17.8375,32.5 18.125,32.225 18.125,31.875 C18.125,31.525 17.85,31.25 17.5,31.25 C17.15,31.25 16.875,31.525 16.875,31.875 C16.875,32.2125 17.1625,32.5 17.5,32.5" id="Path" fill="#101828" fill-rule="nonzero"></path>
                    <rect id="Rectangle" fill="#101828" fill-rule="nonzero" x="8.75" y="28.75" width="17.5" height="1.25"></rect>
                    <path d="M22.9125,20.0125 L22.9,18.7625 C23.65,18.75 24.2625,18.1375 24.275,17.3875 L24.2875,16.3375 C24.3,14.9125 25.4625,13.75 26.8875,13.75 C28.325,13.75 29.4875,14.9125 29.4875,16.35 L29.4875,17.375 C29.4875,18.1375 30.1,18.75 30.8625,18.75 L30.8625,20 L22.9125,20.0125 Z M26.8875,15 C26.15,15 25.5375,15.6 25.5375,16.35 L25.525,17.4 C25.525,17.9 25.375,18.3625 25.125,18.7625 L28.625,18.75 C28.375,18.35 28.2375,17.875 28.2375,17.375 L28.2375,16.35 C28.2375,15.6 27.625,15 26.8875,15 Z" id="Shape" fill="#101828" fill-rule="nonzero"></path>
                    <path d="M26.8875,21.875 C25.85,21.875 25,21.025 25,19.9875 L26.25,19.9875 C26.25,20.3375 26.5375,20.625 26.8875,20.625 C27.2375,20.625 27.525,20.3375 27.525,19.9875 L28.775,19.9875 C28.775,21.025 27.925,21.875 26.8875,21.875 Z" id="Path" fill="#101828" fill-rule="nonzero"></path>
                    <path d="M33.75,9.975 L20,9.975 C19.3125,9.975 18.75,10.5375 18.75,11.225 L18.75,21.25 L20,21.25 L20,11.225 L33.75,11.225 L33.75,23.7375 L22.475,23.7375 L22.1,23.7375 L21.7875,23.95 L20,25.15 L20,25.125 L18.75,25.9625 L18.75,27.4875 L22.4875,24.9875 L33.75,24.9875 C34.4375,24.9875 35,24.425 35,23.7375 L35,11.225 C35,10.5375 34.4375,9.975 33.75,9.975 Z" id="Path" fill="#101828" fill-rule="nonzero"></path>
                    <rect id="Rectangle" x="0" y="0" width="40" height="40"></rect>
                </g>
            </g>
        </g>
    </g>
</svg>