<?xml version="1.0" encoding="UTF-8"?>
<svg width="80px" height="80px" viewBox="0 0 80 80" version="1.1" xmlns="http://www.w3.org/2000/svg" xmlns:xlink="http://www.w3.org/1999/xlink">
    <!-- Generator: Sketch 57.1 (83088) - https://sketch.com -->
    <title>059-G80px</title>
    <desc>Created with Sketch.</desc>
    <g id="NEW_icons" stroke="none" stroke-width="1" fill="none" fill-rule="evenodd">
        <g id="icons_UD_new-Copy" transform="translate(-2048.000000, -7762.000000)">
            <g id="059-G80px" transform="translate(2048.000000, 7762.000000)">
                <circle id="Oval-Copy-22" fill="#E3E8EC" cx="40" cy="40" r="40"></circle>
                <g id="059-B32px-Copy-6" transform="translate(12.000000, 12.000000)">
                    <path d="M25.55,28 C24.5,28 23.45,27.475 22.575,26.775 L20.825,25.025 L19.075,26.775 C17.5,28.525 14.7,28.525 13.125,26.775 C11.55,25.025 11.55,22.4 13.125,20.65 C14.7,18.9 17.5,18.9 19.075,20.65 L20.825,22.4 L22.575,20.65 C24.15,18.9 26.95,18.9 28.525,20.65 C30.1,22.4 30.1,25.025 28.525,26.775 C27.825,27.475 26.775,28 25.55,28 Z M22.225,23.625 L23.975,25.55 C24.85,26.6 26.425,26.6 27.3,25.55 C28.35,24.5 28.35,22.75 27.3,21.7 C26.425,20.65 24.85,20.65 23.975,21.7 L22.225,23.625 Z M16.45,21 C15.75,21 15.225,21.35 14.7,21.7 C13.65,22.75 13.65,24.5 14.7,25.55 C15.575,26.425 17.15,26.6 18.025,25.55 L19.775,23.625 L18.025,21.7 C17.675,21.175 16.975,21 16.45,21 Z" id="Shape" fill="#101828" fill-rule="nonzero"></path>
                    <path d="M33.25,14 L8.75,14 C7.7,14 7,14.7 7,15.75 L7,28 L8.75,28 L8.75,28 L8.75,28 L8.75,15.75 L33.25,15.75 L33.25,31.5 L12.25,31.5 L11.725,31.5 L11.2,31.85 L9.8,32.725 L7,34.65 L7,34.65 L7,36.75 L12.25,33.25 L33.25,33.25 C34.125,33.25 35,32.55 35,31.5 L35,15.75 C35,14.7 34.3,14 33.25,14 Z" id="Path" fill="#101828" fill-rule="nonzero"></path>
                    <path d="M44.8,38.85 L44.275,38.5 L43.75,38.5 L22.75,38.5 L22.75,35 L21,35 L21,38.5 C21,39.375 21.7,40.25 22.75,40.25 L43.75,40.25 L49,43.75 L49,41.65 L45.15,39.025 L44.8,38.85 Z" id="Path" fill="#101828" fill-rule="nonzero"></path>
                    <path d="M47.25,21 L36.75,21 L36.75,22.75 L47.25,22.75 L47.25,35 L47.25,35 L47.25,35 L49,35 L49,22.75 C49,21.7 48.3,21 47.25,21 Z" id="Path" fill="#101828" fill-rule="nonzero"></path>
                    <rect id="Rectangle" x="0" y="0" width="56" height="56"></rect>
                </g>
            </g>
        </g>
    </g>
</svg>