<?xml version="1.0" encoding="UTF-8"?>
<svg width="80px" height="80px" viewBox="0 0 80 80" version="1.1" xmlns="http://www.w3.org/2000/svg" xmlns:xlink="http://www.w3.org/1999/xlink">
    <!-- Generator: Sketch 57.1 (83088) - https://sketch.com -->
    <title>068-W80px</title>
    <desc>Created with Sketch.</desc>
    <g id="NEW_icons" stroke="none" stroke-width="1" fill="none" fill-rule="evenodd">
        <g id="icons_UD_new-Copy" transform="translate(-867.000000, -9010.000000)">
            <g id="068-W80px" transform="translate(867.000000, 9010.000000)">
                <circle id="Oval-Copy-55" fill="#101828" cx="40" cy="40" r="40"></circle>
                <g id="068-B32px-Copy-8" transform="translate(12.000000, 12.000000)">
                    <path d="M28,39.375 C28,38.85 28,38.325 28.175,37.975 C22.575,35 18.2,30.625 18.025,30.45 C18.025,30.45 9.8,21.875 8.75,13.475 C8.75,13.475 8.75,13.3 8.75,13.3 L13.3,8.75 C13.3,8.75 13.3,8.75 13.475,8.75 C13.475,8.75 13.475,8.75 13.65,8.75 L20.475,15.925 C20.475,15.925 20.475,16.1 20.475,16.1 L17.5,19.075 L16.625,19.95 L16.975,21 C16.975,21.175 18.725,25.2 21,27.475 C23.275,29.925 27.3,31.675 27.475,31.675 L28.525,32.2 L29.4,31.325 L32.375,28.35 C32.375,28.35 32.375,28.35 32.55,28.35 C32.55,28.35 32.55,28.35 32.725,28.35 L33.775,29.4 C34.3,29.05 34.825,28.875 35.525,28.525 L34.125,26.95 C33.775,26.6 33.25,26.425 32.725,26.425 C32.2,26.425 31.85,26.6 31.325,26.95 L28.35,29.925 C28.35,29.925 24.675,28.35 22.4,26.075 C20.3,23.975 18.725,20.125 18.725,20.125 L21.7,17.15 C22.4,16.45 22.4,15.225 21.7,14.525 L14.875,7.525 C14.525,7.175 14,7 13.475,7 C12.95,7 12.6,7.175 12.075,7.525 L7.525,11.9 C7.175,12.425 7,12.95 7,13.65 C8.05,22.75 16.8,31.675 16.8,31.675 C16.8,31.675 21.7,36.75 28,39.9 C28,39.725 28,39.55 28,39.375 Z" id="Path" fill="#FFFFFF" fill-rule="nonzero"></path>
                    <path d="M39.375,31.5 C43.75,31.5 47.25,35 47.25,39.375 C47.25,43.75 43.75,47.25 39.375,47.25 C35,47.25 31.5,43.75 31.5,39.375 C31.5,35 35,31.5 39.375,31.5 L39.375,31.5 Z M39.375,29.75 C34.125,29.75 29.75,34.125 29.75,39.375 C29.75,44.625 34.125,49 39.375,49 C44.625,49 49,44.625 49,39.375 C49,34.125 44.625,29.75 39.375,29.75 L39.375,29.75 Z" id="Shape" fill="#FFFFFF" fill-rule="nonzero"></path>
                    <polygon id="Path" fill="#FFFFFF" fill-rule="nonzero" points="35 38.5 35 40.25 38.5 40.25 38.5 43.75 40.25 43.75 40.25 40.25 43.75 40.25 43.75 38.5 40.25 38.5 40.25 35 38.5 35 38.5 38.5"></polygon>
                    <rect id="Rectangle" x="0" y="0" width="56" height="56"></rect>
                </g>
            </g>
        </g>
    </g>
</svg>