<?xml version="1.0" encoding="UTF-8"?>
<svg width="32px" height="32px" viewBox="0 0 32 32" version="1.1" xmlns="http://www.w3.org/2000/svg" xmlns:xlink="http://www.w3.org/1999/xlink">
    <!-- Generator: Sketch 57.1 (83088) - https://sketch.com -->
    <title>047-B32px</title>
    <desc>Created with Sketch.</desc>
    <g id="047-B32px" stroke="none" stroke-width="1" fill="none" fill-rule="evenodd">
        <g>
            <path d="M22.19,17.23 L22.19,14.79 L23.67,16.01 C23.18,16.42 22.69,16.82 22.19,17.23 M16,23.69 C15.59,23.19 15.19,22.7 14.78,22.21 L17.22,22.21 C16.81,22.7 16.41,23.19 16,23.69 M16,8.37 C16.41,8.87 16.81,9.36 17.22,9.85 L14.78,9.85 C15.19,9.36 15.59,8.87 16,8.37 M9.85,17.23 C9.35,16.82 8.86,16.42 8.37,16.01 C8.86,15.6 9.35,15.2 9.85,14.79 M25,15.97 C24.99,15.41 24.91,14.85 24.74,14.31 C24.66,14.06 24.58,13.8 24.46,13.57 C24.34,13.35 24.17,13.17 23.93,13.07 C23.77,13.01 23.61,13 23.44,13 C22.78,13 22.12,13 21.46,13 C20.93,13 20.4,13 19.87,13 C19.74,13 19.6,12.98 19.48,12.95 C19.2,12.88 19.04,12.69 19.01,12.4 C19,12.31 19,12.22 19,12.12 C19,10.93 19.01,9.74 19.01,8.54 C19.01,8.27 18.95,8.02 18.78,7.8 C18.64,7.62 18.46,7.5 18.26,7.41 C17.94,7.26 17.6,7.18 17.25,7.11 C16.68,7 16.1,6.98 15.52,7.01 C15.15,7.04 14.77,7.08 14.41,7.16 C14.27,7.18 14.14,7.25 14.02,7.32 C13.65,7.53 13.32,7.79 12.99,8.05 C12.35,8.57 11.74,9.14 11.14,9.72 C10.26,10.57 9.42,11.46 8.62,12.38 C8.22,12.84 7.83,13.3 7.49,13.8 C7.45,13.87 7.4,13.94 7.36,14 C7.2,14.22 7.15,14.48 7.11,14.74 C7.06,15.07 7.02,15.4 7.01,15.74 C7.01,15.75 7.01,15.77 7,15.78 L7,16.27 C7.01,16.36 7.01,16.45 7.02,16.54 C7.04,16.91 7.08,17.28 7.17,17.65 C7.25,17.99 7.37,18.33 7.6,18.61 C7.79,18.84 8.04,18.97 8.35,19 C8.43,19.01 8.52,19.01 8.61,19.01 C9.79,19 10.96,19 12.14,19 C12.47,19 12.74,19.15 12.9,19.44 C12.97,19.58 13,19.73 13,19.89 C13,21.07 13,22.25 13,23.43 C13,23.62 13.02,23.82 13.1,24 C13.22,24.27 13.42,24.46 13.68,24.59 C13.96,24.73 14.26,24.81 14.57,24.87 C14.95,24.94 15.33,24.99 15.71,25 C15.72,25 15.74,25 15.75,25.01 L16.24,25.01 C16.33,25 16.42,25 16.5,24.99 C16.87,24.97 17.24,24.93 17.61,24.84 C17.95,24.76 18.28,24.64 18.57,24.42 C18.83,24.22 18.96,23.94 18.98,23.62 C19,23.53 19,23.44 19,23.36 C19,22.22 19,21.08 19,19.94 C19,19.79 19.01,19.64 19.05,19.49 C19.13,19.2 19.32,19.04 19.62,19.02 C19.73,19.01 19.84,19.01 19.95,19.01 C21.09,19.01 22.23,19.01 23.37,19.01 C23.64,19.01 23.89,18.96 24.12,18.82 C24.36,18.67 24.53,18.45 24.65,18.2 C24.78,17.92 24.85,17.62 24.91,17.32 C24.96,16.87 25,16.42 25,15.97" id="Shape" fill="#101828"></path>
            <rect id="Rectangle" x="0" y="0" width="32" height="32"></rect>
        </g>
    </g>
</svg>