<?xml version="1.0" encoding="UTF-8"?>
<svg width="80px" height="80px" viewBox="0 0 80 80" version="1.1" xmlns="http://www.w3.org/2000/svg" xmlns:xlink="http://www.w3.org/1999/xlink">
    <!-- Generator: Sketch 57.1 (83088) - https://sketch.com -->
    <title>136-B80px</title>
    <desc>Created with Sketch.</desc>
    <g id="136-B80px" stroke="none" stroke-width="1" fill="none" fill-rule="evenodd">
        <g>
            <path d="M55,20 L55,67.5 L27.5,67.5 L27.5,20 L55,20 L55,20 Z M55,17.5 L27.5,17.5 C26.125,17.5 25,18.625 25,20 L25,67.5 C25,68.875 26.125,70 27.5,70 L55,70 C56.375,70 57.5,68.875 57.5,67.5 L57.5,20 C57.5,18.625 56.375,17.5 55,17.5 L55,17.5 Z" id="Shape" fill="#101828" fill-rule="nonzero"></path>
            <path d="M50,12.5 L50,17.5 L32.625,17.5 L32.625,12.5 L50,12.5 L50,12.5 Z M50,10 L32.625,10 C31.25,10 30.125,11.125 30.125,12.5 L30.125,17.5 C30.125,18.875 31.25,20 32.625,20 L50,20 C51.375,20 52.5,18.875 52.5,17.5 L52.5,12.5 C52.5,11.125 51.375,10 50,10 L50,10 Z" id="Shape" fill="#101828" fill-rule="nonzero"></path>
            <path d="M49.3,40 C49.575,40 50,40.225 50,40.75 L50,61.775 C50,62.175 49.675,62.525 49.275,62.525 L33.2,62.525 C32.825,62.5 32.5,62.175 32.5,61.75 L32.5,47.675 C32.5,47.375 32.675,47.1 32.95,47 L49.025,40.05 C49.1,40.025 49.2,40 49.3,40 L49.3,40 Z M49.275,37.5 C48.85,37.5 48.425,37.575 48,37.775 L31.925,44.725 C30.75,45.225 29.975,46.4 29.975,47.7 L29.975,61.775 C29.975,63.575 31.425,65.025 33.2,65.025 L49.275,65.025 C51.05,65.025 52.5,63.575 52.5,61.775 L52.5,40.75 C52.5,38.875 50.975,37.5 49.275,37.5 L49.275,37.5 Z" id="Shape" fill="#101828" fill-rule="nonzero"></path>
            <rect id="Rectangle" x="0" y="0" width="80" height="80"></rect>
        </g>
    </g>
</svg>