<?xml version="1.0" encoding="UTF-8"?>
<svg width="32px" height="32px" viewBox="0 0 32 32" version="1.1" xmlns="http://www.w3.org/2000/svg" xmlns:xlink="http://www.w3.org/1999/xlink">
    <!-- Generator: Sketch 57.1 (83088) - https://sketch.com -->
    <title>097-B32px</title>
    <desc>Created with Sketch.</desc>
    <g id="097-B32px" stroke="none" stroke-width="1" fill="none" fill-rule="evenodd">
        <g>
            <path d="M20.51,13 C20.1,13 19.77,13.34 19.77,13.75 C19.77,14.16 20.1,14.5 20.51,14.5 C20.92,14.5 21.25,14.16 21.25,13.75 C21.25,13.34 20.91,13 20.51,13 L20.51,13 Z" id="Path" fill="#101828" fill-rule="nonzero"></path>
            <path d="M20.51,10.5 C20.1,10.5 19.77,10.84 19.77,11.25 C19.77,11.66 20.1,12 20.51,12 C20.92,12 21.25,11.66 21.25,11.25 C21.25,10.84 20.91,10.5 20.51,10.5 L20.51,10.5 Z" id="Path" fill="#101828" fill-rule="nonzero"></path>
            <path d="M21.75,11.74 C21.34,11.74 21,12.08 21,12.5 C21,12.92 21.34,13.26 21.75,13.26 C22.16,13.26 22.5,12.92 22.5,12.5 C22.5,12.08 22.16,11.74 21.75,11.74 L21.75,11.74 Z" id="Path" fill="#101828" fill-rule="nonzero"></path>
            <path d="M19.26,11.75 C18.85,11.75 18.52,12.09 18.52,12.5 C18.52,12.92 18.85,13.25 19.26,13.25 C19.67,13.25 20,12.92 20,12.5 C20,12.08 19.67,11.75 19.26,11.75 L19.26,11.75 Z" id="Path" fill="#101828" fill-rule="nonzero"></path>
            <path d="M25.81,14.8 L24.32,7.79 C24.22,7.33 23.83,7 23.37,7 L16.83,7 L15.5,7 L15.5,4 L14.5,4 L14.5,7 L13.17,7 L6.63,7 C6.17,7 5.78,7.33 5.69,7.79 L4.19,14.8 C3.92,16.15 3.87,17.08 4.45,18.37 C5.16,19.96 6.88,21 8.6,21 C8.63,21 8.65,21 8.68,21 C11.17,20.95 13.18,18.88 13.18,16.33 L16.83,16.33 C16.83,17.12 17.04,17.85 17.38,18.5 C17.6,18.22 17.84,17.96 18.1,17.72 C17.93,17.29 17.83,16.82 17.83,16.33 L17.83,15.33 L16.83,15.33 L13.18,15.33 L12.18,15.33 L12.18,16.33 C12.18,18.32 10.6,19.96 8.67,20 L8.6,20 C7.23,20 5.9,19.16 5.37,17.96 C4.91,16.92 4.93,16.24 5.18,15.01 L6.63,8 L13.17,8 L16.84,8 L23.34,8 L24.83,15 C24.95,15.6 25.01,16.06 25,16.5 C25.34,16.64 25.66,16.81 25.96,17 C26.05,16.31 25.97,15.64 25.81,14.8 Z" id="Path" fill="#101828" fill-rule="nonzero"></path>
            <polygon id="Path" fill="#101828" fill-rule="nonzero" points="23 22.58 23 20 22 20 22 23 22.01 23 24 24.99 24.7 24.28"></polygon>
            <path d="M22.5,18.01 C24.98,18.01 27,20.03 27,22.51 C27,24.99 24.98,27.01 22.5,27.01 C20.02,27.01 18,24.99 18,22.51 C18,20.03 20.02,18.01 22.5,18.01 L22.5,18.01 Z M22.5,17.01 C19.46,17.01 17,19.47 17,22.51 C17,25.55 19.46,28.01 22.5,28.01 C25.54,28.01 28,25.55 28,22.51 C28,19.48 25.54,17.01 22.5,17.01 L22.5,17.01 Z" id="Shape" fill="#101828" fill-rule="nonzero"></path>
            <polygon id="Path" fill="#101828" fill-rule="nonzero" points="11.48 12 10 12 10 10.46 9 10.46 9 12 7.47 12 7.47 13 9 13 9 14.47 10 14.47 10 13 11.48 13"></polygon>
            <rect id="Rectangle" x="0" y="0" width="32" height="32"></rect>
        </g>
    </g>
</svg>