<?xml version="1.0" encoding="UTF-8"?>
<svg width="40px" height="40px" viewBox="0 0 40 40" version="1.1" xmlns="http://www.w3.org/2000/svg" xmlns:xlink="http://www.w3.org/1999/xlink">
    <!-- Generator: Sketch 57.1 (83088) - https://sketch.com -->
    <title>187-B40px</title>
    <desc>Created with Sketch.</desc>
    <g id="187-B40px" stroke="none" stroke-width="1" fill="none" fill-rule="evenodd">
        <g>
            <path d="M22.5,14.7125 L25.075,16.25 L22.5,17.7875 L22.5,14.7125 L22.5,14.7125 Z M21.25,12.5 L21.25,20 L27.5,16.25 L21.25,12.5 L21.25,12.5 Z" id="Shape" fill="#101828" fill-rule="nonzero"></path>
            <rect id="Rectangle" fill="#101828" fill-rule="nonzero" x="8.75" y="10" width="5" height="1.25"></rect>
            <rect id="Rectangle" fill="#101828" fill-rule="nonzero" x="8.75" y="12.5" width="6.25" height="1.25"></rect>
            <rect id="Rectangle" fill="#101828" fill-rule="nonzero" x="8.75" y="15" width="6.25" height="1.25"></rect>
            <rect id="Rectangle" fill="#101828" fill-rule="nonzero" x="8.75" y="17.5" width="6.25" height="1.25"></rect>
            <rect id="Rectangle" fill="#101828" fill-rule="nonzero" x="8.75" y="20" width="3.75" height="1.25"></rect>
            <path d="M33.7125,6.25 L6.2875,6.25 C5.575,6.25 5,6.825 5,7.5375 L5,26.2 C5,26.925 5.575,27.5 6.2875,27.5 L18.75,27.5 L18.75,26.225 L6.25,26.2125 L6.2875,7.5 L33.7,7.5 L33.75,7.5375 L33.7125,26.25 L26.5375,26.2375 L28.75,27.5 L33.7125,27.5 C34.425,27.5 35,26.925 35,26.2125 L35,7.5375 C35,6.825 34.425,6.25 33.7125,6.25 Z" id="Path" fill="#101828" fill-rule="nonzero"></path>
            <path d="M24.2125,21.55 L25.8875,22.5 L30,22.5 C30.6875,22.5 31.25,21.9375 31.25,21.25 L31.25,11.25 C31.25,10.5625 30.6875,10 30,10 L18.75,10 C18.0625,10 17.5,10.5625 17.5,11.25 L17.5,21.25 C17.5,21.9375 18.0625,22.5 18.75,22.5 L20.025,22.5 L20.025,21.25 L20.025,21.25 L18.75,21.25 L18.75,11.25 L30,11.25 L30,21.25" id="Path" fill="#101828" fill-rule="nonzero"></path>
            <path d="M30,11.25 L30,21.25 L18.75,21.25 L18.75,11.25 L30,11.25 L30,11.25 Z M30,10 L18.75,10 C18.0625,10 17.5,10.5625 17.5,11.25 L17.5,21.25 C17.5,21.9375 18.0625,22.5 18.75,22.5 L30,22.5 C30.6875,22.5 31.25,21.9375 31.25,21.25 L31.25,11.25 C31.25,10.5625 30.6875,10 30,10 L30,10 Z" id="Shape" fill="#101828" fill-rule="nonzero"></path>
            <path d="M21.2625,25.9625 L25.0625,28.1125 L24.7875,28.275 L23.7,28.9125 L24.325,30 L25.9125,32.675 L24.8375,33.3 L23.2375,30.6125 L22.6,29.55 L21.525,30.175 L21.25,30.325 L21.2625,25.9625 L21.2625,25.9625 Z M20.0125,23.8125 L20,32.5 L22.1625,31.25 L24.3875,35 L27.625,33.1125 L25.4,29.35 L27.5625,28.1 L20.0125,23.8125 L20.0125,23.8125 Z" id="Shape" fill="#101828" fill-rule="nonzero"></path>
            <rect id="Rectangle" x="0" y="0" width="40" height="40"></rect>
        </g>
    </g>
</svg>