<?xml version="1.0" encoding="UTF-8"?>
<svg width="80px" height="80px" viewBox="0 0 80 80" version="1.1" xmlns="http://www.w3.org/2000/svg" xmlns:xlink="http://www.w3.org/1999/xlink">
    <!-- Generator: Sketch 56.3 (81716) - https://sketch.com -->
    <title>026-W80px</title>
    <desc>Created with Sketch.</desc>
    <g id="NEW_icons" stroke="none" stroke-width="1" fill="none" fill-rule="evenodd">
        <g id="icons_UD_new-Copy" transform="translate(-869.000000, -3589.000000)">
            <g id="026-W80px" transform="translate(869.000000, 3589.000000)">
                <circle id="Oval-Copy-236" fill="#101828" cx="40" cy="40" r="40"></circle>
                <g id="026-B32px-Copy-8" transform="translate(12.000000, 16.000000)">
                    <path d="M47.25,8.75 L47.25,12.25 C47.25,17.7275 46.1125,25.8825 44.2225,30.065 C41.615,35.805 36.715,43.365 28,47.11 C19.285,43.365 14.3675,35.805 11.7775,30.065 C9.8875,25.865 8.75,17.71 8.75,12.25 L8.75,8.75 L47.25,8.75 L47.25,8.75 Z M49,7 L7,7 L7,12.25 C7,17.43 8.05,26.0575 10.185,30.7825 C13.1075,37.24 18.48,45.185 28,49 C37.52,45.185 42.8925,37.24 45.815,30.7825 C47.95,26.0575 49,17.43 49,12.25 L49,7 L49,7 Z" id="Shape" fill="#FFFFFF" fill-rule="nonzero"></path>
                    <polygon id="Path" fill="#FFFFFF" fill-rule="nonzero" points="35 22.75 35 21 33.25 21 33.25 22.75 31.5 22.75 31.5 24.5 33.25 24.5 33.25 26.25 35 26.25 35 24.5 36.75 24.5 36.75 22.75"></polygon>
                    <path d="M25.375,19.25 C26.8275,19.25 28,20.4225 28,21.875 L28,25.375 C28,26.8275 26.8275,28 25.375,28 C23.9225,28 22.75,26.8275 22.75,25.375 L22.75,21.875 C22.75,20.4225 23.9225,19.25 25.375,19.25 L25.375,19.25 Z M25.375,17.5 C22.96,17.5 21,19.46 21,21.875 L21,25.375 C21,27.79 22.96,29.75 25.375,29.75 C27.79,29.75 29.75,27.79 29.75,25.375 L29.75,21.875 C29.75,19.46 27.79,17.5 25.375,17.5 L25.375,17.5 Z" id="Shape" fill="#FFFFFF" fill-rule="nonzero"></path>
                    <rect id="Rectangle" x="0" y="0" width="56" height="56"></rect>
                </g>
            </g>
        </g>
    </g>
</svg>