<?xml version="1.0" encoding="UTF-8"?>
<svg width="80px" height="80px" viewBox="0 0 80 80" version="1.1" xmlns="http://www.w3.org/2000/svg" xmlns:xlink="http://www.w3.org/1999/xlink">
    <!-- Generator: Sketch 57.1 (83088) - https://sketch.com -->
    <title>215-B80px</title>
    <desc>Created with Sketch.</desc>
    <g id="215-B80px" stroke="none" stroke-width="1" fill="none" fill-rule="evenodd">
        <g>
            <path d="M30,35 C31.375,35 32.5,36.125 32.5,37.5 C32.5,38.875 31.375,40 30,40 C28.625,40 27.5,38.875 27.5,37.5 C27.5,36.125 28.625,35 30,35 L30,35 Z M30,32.5 C27.25,32.5 25,34.75 25,37.5 C25,40.25 27.25,42.5 30,42.5 C32.75,42.5 35,40.25 35,37.5 C35,34.75 32.75,32.5 30,32.5 L30,32.5 Z" id="Shape" fill="#101828" fill-rule="nonzero"></path>
            <path d="M25,52.5 L25,50 C25,48.625 26.125,47.5 27.5,47.5 L32.5,47.5 C33.875,47.5 35,48.625 35,50 L35,52.5 L37.5,52.5 L37.5,50 C37.5,47.25 35.25,45 32.5,45 L27.5,45 C24.75,45 22.5,47.25 22.5,50 L22.5,52.5 L25,52.5 Z" id="Path" fill="#101828" fill-rule="nonzero"></path>
            <path d="M50,35 C51.375,35 52.5,36.125 52.5,37.5 C52.5,38.875 51.375,40 50,40 C48.625,40 47.5,38.875 47.5,37.5 C47.5,36.125 48.625,35 50,35 L50,35 Z M50,32.5 C47.25,32.5 45,34.75 45,37.5 C45,40.25 47.25,42.5 50,42.5 C52.75,42.5 55,40.25 55,37.5 C55,34.75 52.75,32.5 50,32.5 L50,32.5 Z" id="Shape" fill="#101828" fill-rule="nonzero"></path>
            <path d="M45,52.5 L45,50 C45,48.625 46.125,47.5 47.5,47.5 L52.5,47.5 C53.875,47.5 55,48.625 55,50 L55,52.5 L57.5,52.5 L57.5,50 C57.5,47.25 55.25,45 52.5,45 L47.5,45 C44.75,45 42.5,47.25 42.5,50 L42.5,52.5 L45,52.5 Z" id="Path" fill="#101828" fill-rule="nonzero"></path>
            <path d="M45.5,20 L45.575,20.025 L52.025,26.225 C52.9,27.05 54.025,27.5 55.225,27.5 L67.375,27.5 C67.45,27.5 67.5,27.525 67.525,27.525 C67.525,27.525 67.525,27.525 67.525,27.525 L67.45,57.5 L12.5,57.55 L12.5,20 L45.5,20 L45.5,20 Z M45.5,17.5 L12.5,17.5 C11.125,17.5 10,18.575 10,19.9 L10,57.525 C10,58.9 11.15,60 12.575,60 L67.45,60 C68.85,60 70,58.9 70,57.55 L70,27.525 C70,26.125 68.825,25 67.35,25 L55.2,25 C54.65,25 54.1,24.8 53.725,24.4 L47.275,18.2 C46.8,17.75 46.15,17.5 45.5,17.5 L45.5,17.5 Z" id="Shape" fill="#101828" fill-rule="nonzero"></path>
            <rect id="Rectangle" x="0" y="0" width="80" height="80"></rect>
        </g>
    </g>
</svg>