<?xml version="1.0" encoding="UTF-8"?>
<svg width="80px" height="80px" viewBox="0 0 80 80" version="1.1" xmlns="http://www.w3.org/2000/svg" xmlns:xlink="http://www.w3.org/1999/xlink">
    <!-- Generator: Sketch 57.1 (83088) - https://sketch.com -->
    <title>236-B80px</title>
    <desc>Created with Sketch.</desc>
    <g id="236-B80px" stroke="none" stroke-width="1" fill="none" fill-rule="evenodd">
        <g>
            <path d="M40,25 C43.45,25 46.25,27.8 46.25,31.25 C46.25,33.275 45.25,35.2 43.575,36.375 L42.5,37.125 L42.5,38.425 L42.5,50 L37.5,50 L37.5,38.425 L37.5,37.125 L36.425,36.375 C34.75,35.2 33.75,33.275 33.75,31.25 C33.75,27.8 36.55,25 40,25 L40,25 Z M40,22.5 C35.175,22.5 31.25,26.425 31.25,31.25 C31.25,34.225 32.75,36.825 35,38.425 L35,52.5 L45,52.5 L45,38.425 C47.275,36.85 48.75,34.225 48.75,31.25 C48.75,26.425 44.825,22.5 40,22.5 L40,22.5 Z" id="Shape" fill="#101828" fill-rule="nonzero"></path>
            <path d="M67.5,12.5 L67.5,17.5 C67.5,25.325 65.875,36.975 63.175,42.95 C59.45,51.15 52.45,61.95 40,67.3 C27.55,61.95 20.525,51.15 16.825,42.95 C14.125,36.975 12.5,25.3 12.5,17.5 L12.5,12.5 L67.5,12.5 L67.5,12.5 Z M70,10 L10,10 L10,17.5 C10,24.9 11.5,37.225 14.55,43.975 C18.725,53.2 26.4,64.55 40,70 C53.6,64.55 61.275,53.2 65.45,43.975 C68.5,37.225 70,24.9 70,17.5 L70,10 L70,10 Z" id="Shape" fill="#101828" fill-rule="nonzero"></path>
            <rect id="Rectangle" x="0" y="0" width="80" height="80"></rect>
        </g>
    </g>
</svg>