<?xml version="1.0" encoding="UTF-8"?>
<svg width="56px" height="56px" viewBox="0 0 56 56" version="1.1" xmlns="http://www.w3.org/2000/svg" xmlns:xlink="http://www.w3.org/1999/xlink">
    <!-- Generator: Sketch 54.1 (76490) - https://sketchapp.com -->
    <title>001-G56px</title>
    <desc>Created with Sketch.</desc>
    <g id="NEW_icons" stroke="none" stroke-width="1" fill="none" fill-rule="evenodd">
        <g id="icons_UD_new-Copy" transform="translate(-1728.000000, -356.000000)">
            <g id="001-G56px" transform="translate(1728.000000, 356.000000)">
                <circle id="Oval-Copy-76" fill="#E3E8EC" cx="28" cy="28" r="28"></circle>
                <g id="001-B32px-Copy-6" transform="translate(8.000000, 8.000000)">
                    <g id="Group" transform="translate(5.000000, 5.000000)" fill="#101828" fill-rule="nonzero">
                        <path d="M25,13.75 L25,13.75 L25.0125,28.75 L5,28.7625 L5,15 L5,13.75 L5,12.5 L3.75,12.5 L3.75,28.7625 C3.75,29.45 4.3,30 4.9875,30 L25.025,30 C25.7,30 26.2625,29.45 26.2625,28.7625 L26.2625,12.5 L25.0125,12.5 L25.0125,13.75 L25,13.75 Z" id="Path"></path>
                        <polygon id="Path" points="15 0.0125 0.225 12.2125 1.025 13.175 15 1.625 28.975 13.175 29.775 12.2125"></polygon>
                        <path d="M17.6,19.8125 C16.925,19.15 16.0125,18.75 15,18.75 C13.9625,18.75 13.025,19.175 12.35,19.85 L13.2375,20.7375 C13.6875,20.275 14.3125,20 15,20 C15.6625,20 16.275,20.2625 16.7125,20.6875 L17.6,19.8125 Z" id="Path"></path>
                        <path d="M14.1125,21.6125 L14.95,22.45 L15.825,21.575 C15.6125,21.375 15.325,21.25 15,21.25 C14.65,21.25 14.3375,21.3875 14.1125,21.6125 Z" id="Path"></path>
                        <path d="M19.375,18.0375 C18.2375,16.9375 16.7,16.25 15,16.25 C13.275,16.25 11.7125,16.95 10.575,18.075 L11.4625,18.9625 C12.375,18.0625 13.625,17.5 15,17.5 C16.35,17.5 17.5875,18.05 18.4875,18.925 L19.375,18.0375 Z" id="Path"></path>
                    </g>
                    <rect id="Rectangle" x="0" y="0" width="40" height="40"></rect>
                </g>
            </g>
        </g>
    </g>
</svg>