<?xml version="1.0" encoding="UTF-8"?>
<svg width="80px" height="80px" viewBox="0 0 80 80" version="1.1" xmlns="http://www.w3.org/2000/svg" xmlns:xlink="http://www.w3.org/1999/xlink">
    <!-- Generator: Sketch 57.1 (83088) - https://sketch.com -->
    <title>066-B80px</title>
    <desc>Created with Sketch.</desc>
    <g id="066-B80px" stroke="none" stroke-width="1" fill="none" fill-rule="evenodd">
        <g id="066-B32px-Copy-8">
            <g>
                <path d="M22.25,13.25 C22.25,13.25 22.5,13.25 22.75,13.5 L34.25,25.25 C34.5,25.5 34.5,25.5 34.5,25.75 C34.5,25.75 34.5,26 34.25,26.25 L29.25,31.25 L27.75,32.5 L28.5,34 C28.5,34.25 31.25,40.75 35,44.75 C38.75,48.75 45.25,51.5 45.5,51.75 L47,52.5 L48.25,51.25 L53.25,46.25 C53.5,46 53.5,46 53.75,46 C53.75,46 54,46 54.25,46.25 L65.75,58 C66,58.25 66,58.25 66,58.5 C66,58.5 66,58.75 65.75,59 L58,66.5 C57.75,66.75 57.75,66.75 57.5,66.75 C57.5,66.75 57.5,66.75 57.5,66.75 C43.25,64.5 29.5,50.5 29.25,50.25 C29.25,50 15.75,35.75 14,21.5 C14,21.25 14,21 14.25,20.75 L21.75,13.5 C22,13.5 22.25,13.25 22.25,13.25 L22.25,13.25 Z M22.25,10.75 C21.5,10.75 20.75,11.25 20,11.75 L12.5,19 C11.75,19.75 11.25,20.75 11.5,21.75 C13.25,37 27.75,51.75 27.75,51.75 C27.75,51.75 42,66.5 57.25,69 C57.5,69 57.5,69 57.75,69 C58.5,69 59.5,68.75 60,68 L67.75,60.5 C69,59.25 69,57.25 67.75,56 L56.25,44.25 C55.75,43.5 54.75,43.25 54,43.25 C53.25,43.25 52.5,43.5 51.75,44.25 L46.75,49.25 C46.75,49.25 40.5,46.5 37,42.75 C33.5,39 31,32.75 31,32.75 L36,27.75 C37.25,26.5 37.25,24.5 36,23.25 L24.5,11.75 C24,11.25 23,10.75 22.25,10.75 L22.25,10.75 Z" id="Shape" fill="#101828" fill-rule="nonzero"></path>
                <rect id="Rectangle" x="0" y="0" width="80" height="80"></rect>
            </g>
        </g>
    </g>
</svg>