<?xml version="1.0" encoding="UTF-8"?>
<svg width="80px" height="80px" viewBox="0 0 80 80" version="1.1" xmlns="http://www.w3.org/2000/svg" xmlns:xlink="http://www.w3.org/1999/xlink">
    <!-- Generator: Sketch 57.1 (83088) - https://sketch.com -->
    <title>204-C80px</title>
    <desc>Created with Sketch.</desc>
    <g id="NEW_icons" stroke="none" stroke-width="1" fill="none" fill-rule="evenodd">
        <g id="icons_UD_new-Copy" transform="translate(-1011.000000, -26090.000000)">
            <g id="204-C80px" transform="translate(1011.000000, 26090.000000)">
                <circle id="Oval-Copy-1282" fill="#FF4F12" cx="40" cy="40" r="40"></circle>
                <g id="204-B32px-Copy-9" transform="translate(12.000000, 12.000000)">
                    <path d="M47.215,17.5 L47.25,17.535 L47.215,36.7675 L8.75,36.7325 L8.785,17.5 L47.215,17.5 L47.215,17.5 Z M47.215,15.75 L8.785,15.75 C7.805,15.75 7,16.555 7,17.535 L7,36.7325 C7,37.7125 7.805,38.5175 8.785,38.5175 L47.215,38.5175 C48.195,38.5175 49,37.7125 49,36.7325 L49,17.535 C49,16.555 48.195,15.75 47.215,15.75 L47.215,15.75 Z" id="Shape" fill="#FFFFFF" fill-rule="nonzero"></path>
                    <path d="M27.9825,38.395 C20.44,38.395 14.7875,39.55 12.2675,40.18 L12.2675,41.9825 C14.4375,41.4225 20.2125,40.145 27.9825,40.145 C35.8225,40.145 41.65,41.44 43.7675,42 L43.7675,40.1975 C41.265,39.5675 35.595,38.395 27.9825,38.395 Z" id="Path" fill="#FFFFFF" fill-rule="nonzero"></path>
                    <path d="M20.8775,22.75 L18.7075,22.75 L18.7075,29.7325 L20.8775,29.7325 C23.135,29.7325 24.5175,28.4025 24.5175,26.25 C24.5175,24.0975 23.1175,22.75 20.8775,22.75 Z M21.0525,27.93 L20.44,27.93 L20.44,24.535 L21.0525,24.535 C22.155,24.535 22.7675,25.13 22.7675,26.2325 C22.7675,27.335 22.155,27.93 21.0525,27.93 Z" id="Shape" fill="#FFFFFF" fill-rule="nonzero"></path>
                    <polygon id="Path" fill="#FFFFFF" fill-rule="nonzero" points="15.7675 22.75 15.7675 25.2875 14.0175 25.2875 14.0175 22.75 12.2675 22.75 12.2675 29.7325 14.0175 29.7325 14.0175 27.0725 15.7675 27.0725 15.7675 29.7325 17.5175 29.7325 17.5175 22.75"></polygon>
                    <path d="M36.295,26.8975 L36.295,22.75 L34.615,22.75 L31.5,27.1425 L31.5,28.7 L34.4575,28.7 L34.4575,29.7325 L36.295,29.7325 L36.295,28.7 L37.2225,28.7 L37.2225,26.915 L36.295,26.915 L36.295,26.8975 Z M33.74,26.8975 L34.4575,25.8825 L34.4575,26.8975 L33.74,26.8975 Z" id="Shape" fill="#FFFFFF" fill-rule="nonzero"></path>
                    <polygon id="Path" fill="#FFFFFF" fill-rule="nonzero" points="43.7675 22.75 41.37 22.75 39.7075 24.5875 39.7075 22.75 37.8525 22.75 37.8525 29.7325 39.7075 29.7325 39.7075 27.16 39.935 26.8975 41.58 29.7325 43.715 29.7325 41.265 25.48"></polygon>
                    <polygon id="Path" fill="#FFFFFF" fill-rule="nonzero" points="27.1425 23.8875 28.8925 23.8875 28.8925 25.6375 30.6425 25.6375 30.6425 27.3875 28.8925 27.3875 28.8925 29.1375 27.1425 29.1375 27.1425 27.3875 25.3925 27.3875 25.3925 25.6375 27.1425 25.6375"></polygon>
                    <rect id="Rectangle" x="0" y="0" width="56" height="56"></rect>
                </g>
            </g>
        </g>
    </g>
</svg>