<?xml version="1.0" encoding="UTF-8"?>
<svg width="56px" height="56px" viewBox="0 0 56 56" version="1.1" xmlns="http://www.w3.org/2000/svg" xmlns:xlink="http://www.w3.org/1999/xlink">
    <!-- Generator: Sketch 57.1 (83088) - https://sketch.com -->
    <title>149-B56px</title>
    <desc>Created with Sketch.</desc>
    <g id="149-B56px" stroke="none" stroke-width="1" fill="none" fill-rule="evenodd">
        <g>
            <path d="M47.215,17.5 L47.25,17.535 L47.215,36.785 L8.75,36.75 L8.785,17.5 L47.215,17.5 L47.215,17.5 Z M47.215,15.75 L8.785,15.75 C7.805,15.75 7,16.555 7,17.535 L7,36.75 C7,37.73 7.805,38.535 8.785,38.535 L47.215,38.535 C48.195,38.535 49,37.73 49,36.75 L49,17.535 C49,16.555 48.195,15.75 47.215,15.75 L47.215,15.75 Z" id="Shape" fill="#101828" fill-rule="nonzero"></path>
            <rect id="Rectangle" fill="#101828" fill-rule="nonzero" x="31.5" y="21" width="1.75" height="12.25"></rect>
            <rect id="Rectangle" fill="#101828" fill-rule="nonzero" x="36.75" y="21" width="1.75" height="12.25"></rect>
            <path d="M19.25,24.605 L22.855,27.125 L19.25,29.645 L19.25,24.605 L19.25,24.605 Z M17.5,21 L17.5,33.25 L26.25,27.125 L17.5,21 L17.5,21 Z" id="Shape" fill="#101828" fill-rule="nonzero"></path>
            <path d="M27.965,38.4125 C20.4225,38.4125 14.77,39.5675 12.25,40.1975 L12.25,42 C14.4025,41.44 20.195,40.1625 27.965,40.1625 C35.805,40.1625 41.6325,41.4575 43.75,42.0175 L43.75,40.215 C41.2475,39.5675 35.5775,38.4125 27.965,38.4125 Z" id="Path" fill="#101828" fill-rule="nonzero"></path>
            <rect id="Rectangle" x="0" y="0" width="56" height="56"></rect>
        </g>
    </g>
</svg>