<?xml version="1.0" encoding="UTF-8"?>
<svg width="40px" height="40px" viewBox="0 0 40 40" version="1.1" xmlns="http://www.w3.org/2000/svg" xmlns:xlink="http://www.w3.org/1999/xlink">
    <!-- Generator: Sketch 57.1 (83088) - https://sketch.com -->
    <title>055-B40px</title>
    <desc>Created with Sketch.</desc>
    <g id="055-B40px" stroke="none" stroke-width="1" fill="none" fill-rule="evenodd">
        <g>
            <path d="M19.675,12.8875 L24.35,15.5 C24.4625,15.1875 24.525,14.85 24.525,14.5125 C24.525,12.4625 22.3625,10.8125 19.6875,10.8125 C17.0125,10.8125 14.85,12.475 14.85,14.5125 C14.85,14.8375 14.9125,15.1625 15.0125,15.475 L19.675,12.8875 L19.675,12.8875 Z" id="Path" fill="#101828" fill-rule="nonzero"></path>
            <polygon id="Path" fill="#101828" fill-rule="nonzero" points="28.025 20.675 31.775 22.9375 24.7375 31.4625"></polygon>
            <polygon id="Path" fill="#101828" fill-rule="nonzero" points="28.2 18.7375 27.775 16.8875 35 19 30.525 21.3875 31.1375 19.45"></polygon>
            <polygon id="Path" fill="#101828" fill-rule="nonzero" points="27.2125 15.7125 26.2625 14.3875 32.6375 12.325 31.05 17.4 30.3875 15.0625"></polygon>
            <polygon id="Path" fill="#101828" fill-rule="nonzero" points="25.5 12.9375 24.15 11.525 25.925 9.725 23.975 8.5375 29.1375 8.5375"></polygon>
            <polygon id="Path" fill="#101828" fill-rule="nonzero" points="11.7875 20.675 8.0375 22.9375 15.075 31.4625"></polygon>
            <polygon id="Path" fill="#101828" fill-rule="nonzero" points="11.8 18.7375 12.225 16.8875 5 19 9.475 21.3875 8.8625 19.45"></polygon>
            <polygon id="Path" fill="#101828" fill-rule="nonzero" points="11.95 15.7125 12.9 14.3875 6.5125 12.325 8.1 17.4 8.7625 15.0625"></polygon>
            <polygon id="Path" fill="#101828" fill-rule="nonzero" points="13.95 12.9375 15.3 11.525 13.525 9.725 15.475 8.5375 10.3125 8.5375"></polygon>
            <path d="M26.275,18.425 L23.6,16.8875 L22.625,19.85 L20.375,19.85 L19.5125,17.2875 L19.4875,17.2875 L18.6375,19.85 L16.3625,19.85 L15.3875,16.8875 L12.7125,18.425 C12.7125,18.425 11.7625,21.8125 15.3875,24.6 C16.7,25.6125 17.675,26.25 18.55,26.5375 L18.3375,25.8875 L20.6625,25.8875 L20.4375,26.55 C21.3125,26.275 22.2875,25.6375 23.6,24.6 C27.2,21.7875 26.275,18.425 26.275,18.425 Z M20.9125,25.075 L18.0625,25.075 L17.75,24.1375 L21.225,24.1375 L20.9125,25.075 Z M21.4875,23.3375 L17.5,23.3375 L17.1875,22.4 L21.8,22.4 L21.4875,23.3375 Z M22.0625,21.5875 L16.925,21.5875 L16.6125,20.65 L22.3625,20.65 L22.0625,21.5875 Z" id="Shape" fill="#101828" fill-rule="nonzero"></path>
            <polygon id="Path" fill="#101828" fill-rule="nonzero" points="17.8125 18.45 17.8375 18.45 18.6875 15.9875 20.6375 15.9875 21.525 18.45 21.5625 18.45 22.125 16 19.625 14.6 17.15 16"></polygon>
            <rect id="Rectangle" x="0" y="0" width="40" height="40"></rect>
        </g>
    </g>
</svg>