<?xml version="1.0" encoding="UTF-8"?>
<svg width="56px" height="56px" viewBox="0 0 56 56" version="1.1" xmlns="http://www.w3.org/2000/svg" xmlns:xlink="http://www.w3.org/1999/xlink">
    <!-- Generator: Sketch 57.1 (83088) - https://sketch.com -->
    <title>139-G56px</title>
    <desc>Created with Sketch.</desc>
    <g id="NEW_icons" stroke="none" stroke-width="1" fill="none" fill-rule="evenodd">
        <g id="icons_UD_new-Copy" transform="translate(-1728.000000, -17822.000000)">
            <g id="139-G56px" transform="translate(1728.000000, 17822.000000)">
                <circle id="Oval-Copy-1110" fill="#E3E8EC" cx="28" cy="28" r="28"></circle>
                <g id="139-B32px-Copy-3" transform="translate(8.000000, 8.000000)">
                    <g id="Group" transform="translate(6.250000, 5.000000)" fill="#101828" fill-rule="nonzero">
                        <path d="M5.3125,24.375 C3.725,24.375 2.425,25.6375 2.425,27.1875 C2.425,28.7375 3.7125,30 5.3125,30 C6.9,30 8.2,28.7375 8.2,27.1875 C8.2,25.6375 6.9,24.375 5.3125,24.375 Z" id="Path"></path>
                        <path d="M21.9125,24.375 C20.325,24.375 19.025,25.6375 19.025,27.1875 C19.025,28.7375 20.325,30 21.9125,30 C23.5,30 24.8,28.7375 24.8,27.1875 C24.8,25.6375 23.5,24.375 21.9125,24.375 Z" id="Path"></path>
                        <path d="M26.5625,12.175 L25.3125,12.175 L15.2,12.175 L17.2375,0.25 C17.225,0.125 17.15,0.025 17.025,0 C17.0125,0 16.975,0 16.975,0 L16.35,0 L15.4875,0 L15.125,0 C6.8625,0 1.6125,4.85 0.9875,11.075 C0.4125,16.7125 3.875,21.875 9,23.85 C10.5625,24.5625 12.2875,24.9625 14.1125,24.9625 C20.9625,24.9625 26.5125,19.4375 26.5625,12.6 C26.5625,12.5875 26.5625,12.5875 26.5625,12.575 L26.5625,12.1875 L26.5625,12.1875 L26.5625,12.175 Z M21.575,20.825 C21.575,20.825 18.7375,23.5125 15.9625,21.9125 C13.575,20.5375 14.575,15.2375 14.9,13.7875 L14.9875,13.4125 L25.2625,13.4125 C24.7875,18.3875 21.575,20.825 21.575,20.825 Z" id="Shape"></path>
                    </g>
                    <rect id="Rectangle" x="0" y="0" width="40" height="40"></rect>
                </g>
            </g>
        </g>
    </g>
</svg>