<?xml version="1.0" encoding="UTF-8"?>
<svg width="80px" height="80px" viewBox="0 0 80 80" version="1.1" xmlns="http://www.w3.org/2000/svg" xmlns:xlink="http://www.w3.org/1999/xlink">
    <!-- Generator: Sketch 57.1 (83088) - https://sketch.com -->
    <title>170-B80px</title>
    <desc>Created with Sketch.</desc>
    <g id="170-B80px" stroke="none" stroke-width="1" fill="none" fill-rule="evenodd">
        <g>
            <path d="M67.45,22.5 L52.55,22.5 C52.55,23.35 52.45,24.175 52.3,25 L67.45,25 L67.5,25.05 L67.45,52.55 L12.5,52.5 L12.55,25 L27.8,25 C27.625,24.175 27.55,23.35 27.55,22.5 L12.55,22.5 C11.15,22.5 10,23.625 10,25.05 L10,52.5 C10,53.9 11.15,55.05 12.55,55.05 L67.45,55.05 C68.85,55.05 70,53.9 70,52.5 L70,25.05 C70,23.625 68.85,22.5 67.45,22.5 Z" id="Path" fill="#101828" fill-rule="nonzero"></path>
            <path d="M40.05,15 C42.05,15 43.925,15.775 45.35,17.2 C48.275,20.125 48.275,24.875 45.35,27.8 C43.925,29.225 42.05,30 40.05,30 C38.05,30 36.175,29.225 34.75,27.8 C31.825,24.875 31.825,20.125 34.75,17.2 C36.15,15.775 38.05,15 40.05,15 L40.05,15 Z M40.05,12.5 C37.5,12.5 34.925,13.475 32.975,15.425 C29.075,19.325 29.075,25.65 32.975,29.575 C34.925,31.525 37.475,32.5 40.05,32.5 C42.625,32.5 45.175,31.525 47.125,29.575 C51.025,25.675 51.025,19.35 47.125,15.425 C45.15,13.475 42.6,12.5 40.05,12.5 L40.05,12.5 Z" id="Shape" fill="#101828" fill-rule="nonzero"></path>
            <rect id="Rectangle" fill="#101828" fill-rule="nonzero" x="38.8" y="30.625" width="2.5" height="16.85"></rect>
            <rect id="Rectangle" fill="#101828" fill-rule="nonzero" x="35.05" y="37.525" width="10" height="2.5"></rect>
            <path d="M39.95,54.875 C29.175,54.875 21.125,56.525 17.5,57.425 L17.5,60 C20.575,59.2 28.85,57.375 39.95,57.375 C51.15,57.375 59.475,59.225 62.5,60.025 L62.5,57.45 C58.925,56.525 50.825,54.875 39.95,54.875 Z" id="Path" fill="#101828" fill-rule="nonzero"></path>
            <rect id="Rectangle" x="0" y="0" width="80" height="80"></rect>
        </g>
    </g>
</svg>