<?xml version="1.0" encoding="UTF-8"?>
<svg width="80px" height="80px" viewBox="0 0 80 80" version="1.1" xmlns="http://www.w3.org/2000/svg" xmlns:xlink="http://www.w3.org/1999/xlink">
    <!-- Generator: Sketch 57.1 (83088) - https://sketch.com -->
    <title>076-B80px</title>
    <desc>Created with Sketch.</desc>
    <g id="076-B80px" stroke="none" stroke-width="1" fill="none" fill-rule="evenodd">
        <g>
            <path d="M57.375,12.5 C57.45,12.5 57.5,12.55 57.5,12.625 L57.5,67.375 C57.5,67.45 57.45,67.5 57.375,67.5 L22.625,67.5 C22.55,67.5 22.5,67.45 22.5,67.375 L22.5,12.625 C22.5,12.55 22.55,12.5 22.625,12.5 L57.375,12.5 L57.375,12.5 Z M57.375,10 L22.625,10 C21.175,10 20,11.175 20,12.625 L20,67.375 C20,68.825 21.175,70 22.625,70 L57.375,70 C58.825,70 60,68.825 60,67.375 L60,12.625 C60,11.175 58.825,10 57.375,10 L57.375,10 Z" id="Shape" fill="#101828" fill-rule="nonzero"></path>
            <path d="M40,65 C40.675,65 41.25,64.45 41.25,63.75 C41.25,63.05 40.675,62.5 40,62.5 C39.325,62.5 38.75,63.05 38.75,63.75 C38.75,64.45 39.325,65 40,65" id="Path" fill="#101828" fill-rule="nonzero"></path>
            <rect id="Rectangle" fill="#101828" fill-rule="nonzero" x="20" y="57.5" width="40" height="2.5"></rect>
            <rect id="Rectangle" fill="#101828" fill-rule="nonzero" x="47.5" y="22.5" width="5" height="25"></rect>
            <path d="M43.325,30 L43.325,45 L43.325,30 L43.325,30 Z M45.825,27.5 L40.825,27.5 L40.825,47.5 L45.825,47.5 L45.825,27.5 L45.825,27.5 Z" id="Shape" fill="#101828" fill-rule="nonzero"></path>
            <path d="M36.675,35 L36.675,45 L36.675,35 L36.675,35 Z M39.175,32.5 L34.175,32.5 L34.175,47.5 L39.175,47.5 L39.175,32.5 L39.175,32.5 Z" id="Shape" fill="#101828" fill-rule="nonzero"></path>
            <path d="M30,40 L30,45 L30,40 L30,40 Z M32.5,37.5 L27.5,37.5 L27.5,47.5 L32.5,47.5 L32.5,37.5 L32.5,37.5 Z" id="Shape" fill="#101828" fill-rule="nonzero"></path>
            <rect id="Rectangle" x="0" y="0" width="80" height="80"></rect>
        </g>
    </g>
</svg>