<?xml version="1.0" encoding="UTF-8"?>
<svg width="80px" height="80px" viewBox="0 0 80 80" version="1.1" xmlns="http://www.w3.org/2000/svg" xmlns:xlink="http://www.w3.org/1999/xlink">
    <!-- Generator: Sketch 57.1 (83088) - https://sketch.com -->
    <title>241-G80px</title>
    <desc>Created with Sketch.</desc>
    <g id="NEW_icons" stroke="none" stroke-width="1" fill="none" fill-rule="evenodd">
        <g id="icons_UD_new-Copy" transform="translate(-2050.000000, -30622.000000)">
            <g id="241-G80px" transform="translate(2050.000000, 30622.000000)">
                <circle id="Oval-Copy-805" fill="#E3E8EC" cx="40" cy="40" r="40"></circle>
                <g id="241-B32px-Copy-6" transform="translate(12.000000, 12.000000)">
                    <path d="M17.5,9.1525 L17.5,14 L12.565,14 L17.5,9.1525 L17.5,9.1525 Z M19.25,7 L17.9025,7 C17.4475,7 17.01,7.175 16.6775,7.5075 L11.025,13.0725 C10.6925,13.405 10.5,13.8425 10.5,14.315 L10.5,15.75 L17.5,15.75 C18.4625,15.75 19.25,14.9625 19.25,14 L19.25,7 L19.25,7 Z" id="Shape" fill="#101828" fill-rule="nonzero"></path>
                    <path d="M44.5375,22.7325 L44.5725,22.75 L45.5,23.6775 C45.535,23.7125 45.535,23.7475 45.5,23.7825 L34.265,35.0175 L33.25,35.0175 L33.25,34.0025 L44.485,22.75 C44.485,22.75 44.5025,22.7325 44.5375,22.7325 L44.5375,22.7325 Z M44.5375,21 C44.0825,21 43.61,21.175 43.26,21.525 L31.5,33.285 L31.5,36.75 L34.965,36.75 L46.7075,25.0075 C47.4075,24.3075 47.4075,23.1525 46.7075,22.4525 L45.7975,21.5425 C45.4475,21.175 44.9925,21 44.5375,21 L44.5375,21 Z" id="Shape" fill="#101828" fill-rule="nonzero"></path>
                    <polygon id="Path" fill="#101828" fill-rule="nonzero" points="40.39 30.4675 37.7125 27.79 38.9375 26.5475 41.615 29.225"></polygon>
                    <rect id="Rectangle" fill="#101828" fill-rule="nonzero" x="15.75" y="26.25" width="12.25" height="1.75"></rect>
                    <rect id="Rectangle" fill="#101828" fill-rule="nonzero" x="15.75" y="21" width="12.25" height="1.75"></rect>
                    <path d="M40.18,47.25 L12.25,47.25 L12.25,15.75 L17.0625,15.75 C18.2525,15.75 19.2325,14.77 19.2325,13.58 L19.2325,8.75 L40.1625,8.75 L40.1625,22.0325 L41.9125,20.2825 L41.9125,8.75 C41.9125,7.7875 41.125,7 40.1625,7 L18.0075,7 C17.7275,7 17.5,7.2275 17.5,7.5075 L17.4825,14 L11.1475,14 C10.78,14 10.5,14.2975 10.5,14.6475 L10.5,47.25 C10.5,48.2125 11.2875,49 12.25,49 L40.18,49 C41.1425,49 41.93,48.2125 41.93,47.25 L41.93,32.1825 L40.18,33.9325 L40.18,47.25 Z" id="Path" fill="#101828" fill-rule="nonzero"></path>
                    <rect id="Rectangle" x="0" y="0" width="56" height="56"></rect>
                </g>
            </g>
        </g>
    </g>
</svg>