<?xml version="1.0" encoding="UTF-8"?>
<svg width="40px" height="40px" viewBox="0 0 40 40" version="1.1" xmlns="http://www.w3.org/2000/svg" xmlns:xlink="http://www.w3.org/1999/xlink">
    <!-- Generator: Sketch 57.1 (83088) - https://sketch.com -->
    <title>035-B40px</title>
    <desc>Created with Sketch.</desc>
    <g id="035-B40px" stroke="none" stroke-width="1" fill="none" fill-rule="evenodd">
        <g>
            <g id="Group" transform="translate(5.000000, 6.250000)" fill="#101828" fill-rule="nonzero">
                <polygon id="Path" points="7.375 14.9875 9.1125 15.025 8.275 11.4"></polygon>
                <g>
                    <polygon id="Path" points="7.375 14.9875 9.1125 15.025 8.275 11.4"></polygon>
                    <path d="M16.25,0 L0,2.5 L0,25 L16.25,27.5 L16.25,0 Z M10.1625,18.95 L9.5,16.775 L7.025,16.6875 L6.575,18.7875 L4.875,18.675 L7.3875,9.2375 L9.3125,9.15 L11.975,19.0625 L10.1625,18.95 Z" id="Shape"></path>
                </g>
            </g>
            <path d="M25,10 C23.175,10 21.475,10.125 20,10.3375 L20,11.6 C21.35,11.4 23.0125,11.25 25,11.25 C29.425,11.25 32.3375,11.9625 33.4125,12.5 C32.3375,13.0375 29.425,13.75 25,13.75 C23.0125,13.75 21.35,13.6 20,13.4 L20,14.6625 C21.475,14.875 23.175,15 25,15 C28.7625,15 32.05,14.475 33.75,13.7125 L33.75,17.0875 L33.75,17.0875 C33.75,17.65 30.75,18.9625 24.95,18.9625 C22.9625,18.9625 21.325,18.8 20,18.575 L20,19.85 C21.5375,20.1 23.2625,20.2125 24.95,20.2125 C28.35,20.2125 31.925,19.725 33.75,18.7 L33.75,22.3 L33.75,22.3 C33.75,22.8625 30.75,24.175 24.95,24.175 C22.9625,24.175 21.325,24.0125 20,23.7875 L20,25.0625 C21.5375,25.3125 23.2625,25.425 24.95,25.425 C28.35,25.425 31.925,24.9375 33.75,23.9125 L33.75,27.5 L33.75,27.5 C33.75,28.0625 30.75,29.375 24.95,29.375 C22.9625,29.375 21.325,29.2125 20,28.9875 L20,30.2625 C21.5375,30.5125 23.2625,30.625 24.95,30.625 C29.7875,30.625 35,29.65 35,27.4875 L35,27.4875 L35,12.5 C35,11.125 30.525,10 25,10 Z" id="Path" fill="#101828" fill-rule="nonzero"></path>
            <rect id="Rectangle" x="0" y="0" width="40" height="40"></rect>
        </g>
    </g>
</svg>