<?xml version="1.0" encoding="UTF-8"?>
<svg width="80px" height="80px" viewBox="0 0 80 80" version="1.1" xmlns="http://www.w3.org/2000/svg" xmlns:xlink="http://www.w3.org/1999/xlink">
    <!-- Generator: Sketch 57.1 (83088) - https://sketch.com -->
    <title>209-B80px</title>
    <desc>Created with Sketch.</desc>
    <g id="209-B80px" stroke="none" stroke-width="1" fill="none" fill-rule="evenodd">
        <g>
            <path d="M67.5,15 L67.5,15.025 L67.5,20.075 L67.5,21.425 L43.425,40.925 L42.5,41.675 L42.5,42.875 L42.5,60.375 L37.5,64.975 L37.5,42.875 L37.5,41.675 L36.575,40.925 L12.5,21.425 L12.5,20.1 L12.5,15 L67.5,15 L67.5,15 Z M67.5,12.5 L12.5,12.5 C11.125,12.5 10,13.625 10,15.025 L10,20.075 L10,22.6 L35,42.85 L35,64.95 C35,66.475 36.225,67.475 37.525,67.475 C38.1,67.475 38.7,67.275 39.2,66.8 L44.2,62.175 C44.725,61.7 45,61.025 45,60.3 L45,42.85 L70,22.6 L70,20.1 L70,15.025 C70,13.625 68.875,12.5 67.5,12.5 L67.5,12.5 Z" id="Shape" fill="#101828" fill-rule="nonzero"></path>
            <rect id="Rectangle" fill="#101828" fill-rule="nonzero" x="11.25" y="20.1" width="57.5" height="2.5"></rect>
            <rect id="Rectangle" x="0" y="0" width="80" height="80"></rect>
        </g>
    </g>
</svg>