<?xml version="1.0" encoding="UTF-8"?>
<svg width="80px" height="80px" viewBox="0 0 80 80" version="1.1" xmlns="http://www.w3.org/2000/svg" xmlns:xlink="http://www.w3.org/1999/xlink">
    <!-- Generator: Sketch 54.1 (76490) - https://sketchapp.com -->
    <title>012-W80px</title>
    <desc>Created with Sketch.</desc>
    <g id="NEW_icons" stroke="none" stroke-width="1" fill="none" fill-rule="evenodd">
        <g id="icons_UD_new-Copy" transform="translate(-869.000000, -1831.000000)">
            <g id="012-W80px" transform="translate(869.000000, 1831.000000)">
                <circle id="Oval-Copy-152" fill="#101828" cx="40" cy="40" r="40"></circle>
                <g id="012-B32px-Copy-8" transform="translate(12.000000, 12.000000)">
                    <g id="Group-29-Copy-2_1_" transform="translate(8.750000, 7.000000)" fill="#FFFFFF" fill-rule="nonzero">
                        <g id="Stroke-310_1_" transform="translate(19.250000, 0.000000)">
                            <path d="M5.7575,10.8325 C4.2525,10.8325 2.835,10.22 1.785,9.1 C0.63,7.8225 0.14,6.1075 0.455,4.375 C0.8575,2.24 2.5725,0.525 4.7075,0.105 C6.4925,-0.245 8.3125,0.315 9.59,1.5925 C10.8675,2.87 11.41,4.69 11.0775,6.475 L11.0775,6.475 C10.64,8.7675 8.715,10.535 6.37,10.7975 C6.1775,10.815 5.9675,10.8325 5.7575,10.8325 Z M5.775,1.7675 C5.53,1.7675 5.285,1.785 5.04,1.8375 C3.6225,2.1 2.45,3.29 2.1875,4.7075 C1.96,5.88 2.2925,7.0525 3.08,7.91 C3.885,8.7675 5.005,9.1875 6.1775,9.065 C7.735,8.89 9.065,7.665 9.345,6.16 L9.345,6.16 C9.5725,4.9175 9.2225,3.71 8.3475,2.8525 C7.665,2.135 6.7375,1.7675 5.775,1.7675 Z" id="Shape"></path>
                        </g>
                        <g id="Stroke-312_2_" transform="translate(0.000000, 8.750000)">
                            <path d="M26.8975,33.2325 C26.1975,33.2325 25.515,33.005 24.9375,32.585 C24.22,32.06 23.7475,31.2725 23.6075,30.38 L22.155,20.8775 L17.0975,16.905 L15.47,23.4325 C15.1025,24.9025 13.79,25.9175 12.285,25.9175 L2.975,25.9175 C1.8725,25.9175 0.91,25.34 0.385,24.3775 C-0.14,23.415 -0.105,22.2775 0.49,21.3675 C1.12,20.405 2.17,19.81 3.325,19.81 L9.8175,19.81 C9.765,18.865 9.6425,14.9275 11.2875,12.04 L15.5225,5.46 L14.0525,5.46 C13.09,5.46 12.1975,5.95 11.6725,6.7725 L9.5025,10.15 C9.0125,10.92 8.155,11.3925 7.2275,11.3925 C6.195,11.3925 5.285,10.85 4.7775,9.9575 C4.27,9.065 4.305,7.9975 4.8475,7.1225 L6.7725,4.0075 C8.19,1.6975 10.675,0.3325 13.37,0.3325 L23.765,0.3325 C24.9725,0.3325 26.075,1.0325 26.6,2.1175 L28.735,6.545 C28.945,6.93 29.33,7.175 29.75,7.175 L35.07,7.175 C35.7525,7.175 36.3825,7.4375 36.855,7.9275 C37.3275,8.4175 37.59,9.0475 37.59,9.73 C37.5725,11.1125 36.435,12.2325 35.07,12.2325 L28.5775,12.2325 C27.0025,12.2325 25.5325,11.375 24.745,10.01 L24.22,9.1175 L22.5225,12.6525 L26.9325,16.8525 C27.8425,17.71 28.42,18.865 28.595,20.1075 L30.17,29.365 C30.31,30.24 30.1,31.1325 29.5925,31.85 C29.085,32.5675 28.2975,33.0575 27.4225,33.1975 C27.2475,33.215 27.0725,33.2325 26.8975,33.2325 Z M23.87,20.51 L25.34,30.135 C25.41,30.555 25.62,30.9225 25.97,31.185 C26.3025,31.43 26.7225,31.535 27.1425,31.465 C27.5625,31.395 27.93,31.1675 28.175,30.835 C28.42,30.485 28.525,30.0825 28.455,29.6625 L26.88,20.3875 C26.7575,19.5125 26.355,18.725 25.7425,18.13 L20.86,13.475 C20.58,13.2125 20.51,12.81 20.6675,12.46 L23.345,6.8775 C23.485,6.58 23.765,6.405 24.0975,6.3875 C24.43,6.37 24.7275,6.545 24.9025,6.825 L26.2675,9.1175 C26.74,9.9575 27.6325,10.4825 28.5775,10.4825 L35.07,10.4825 C35.49,10.4825 35.84,10.1325 35.84,9.7125 C35.84,9.5025 35.77,9.31 35.6125,9.1525 C35.4725,9.0125 35.2625,8.925 35.07,8.925 L29.75,8.925 C28.665,8.925 27.65,8.295 27.1775,7.315 L25.0425,2.87 C24.815,2.3975 24.325,2.0825 23.7825,2.0825 L13.3875,2.0825 C11.2875,2.0825 9.38,3.15 8.2775,4.935 L6.3525,8.05 C6.1425,8.3825 6.125,8.7675 6.3175,9.1175 C6.6675,9.73 7.6475,9.8175 8.0325,9.2225 L10.2025,5.8275 C11.0425,4.4975 12.495,3.71 14.0525,3.71 L17.1325,3.71 C17.4475,3.71 17.745,3.885 17.9025,4.165 C18.06,4.445 18.0425,4.795 17.8675,5.0575 L12.7925,12.9325 C11.235,15.6625 11.585,19.8975 11.585,19.95 C11.5675,20.895 10.9025,21.5425 10.045,21.5425 L3.325,21.5425 C2.765,21.5425 2.2575,21.8225 1.96,22.295 C1.715,22.68 1.6975,23.135 1.925,23.5375 C2.135,23.9225 2.5375,24.1675 2.9925,24.1675 L12.3025,24.1675 C13.0025,24.1675 13.615,23.695 13.79,23.0125 L15.5225,16.0825 C15.68,15.435 16.205,14.9975 16.87,14.9275 C17.4475,14.875 17.9725,15.1375 18.2875,15.5925 L23.3625,19.6 C23.625,19.8275 23.8175,20.1425 23.87,20.51 Z" id="Shape"></path>
                        </g>
                    </g>
                    <rect id="Rectangle" x="0" y="0" width="56" height="56"></rect>
                </g>
            </g>
        </g>
    </g>
</svg>