<?xml version="1.0" encoding="UTF-8"?>
<svg width="42px" height="42px" viewBox="0 0 42 42" version="1.1" xmlns="http://www.w3.org/2000/svg" xmlns:xlink="http://www.w3.org/1999/xlink">
    <!-- Generator: Sketch 57.1 (83088) - https://sketch.com -->
    <title>080-G40px</title>
    <desc>Created with Sketch.</desc>
    <g id="NEW_icons" stroke="none" stroke-width="1" fill="none" fill-rule="evenodd">
        <g id="icons_UD_new-Copy" transform="translate(-244.000000, -10560.000000)">
            <g id="080-G40px" transform="translate(245.000000, 10561.000000)">
                <circle id="Oval-Copy-536" stroke="#E3E8EC" cx="20" cy="20" r="20"></circle>
                <g id="080-B32px-Copy" transform="translate(4.000000, 4.000000)">
                    <path d="M14,26 C14.27,26 14.5,25.78 14.5,25.5 C14.5,25.22 14.27,25 14,25 C13.73,25 13.5,25.22 13.5,25.5 C13.5,25.78 13.73,26 14,26" id="Path" fill="#101828" fill-rule="nonzero"></path>
                    <path d="M21.5,26 C21.33,26 21.17,25.99 21,25.97 L21,26.94 C21,26.97 20.98,26.99 20.95,26.99 L7.05,26.99 C7.02,27 7,26.98 7,26.95 L7,24 L16.82,24 C16.53,23.69 16.26,23.36 16.03,23 L7,23 L7,5.05 C7,5.02 7.02,5 7.05,5 L20.95,5 C20.98,5 21,5.02 21,5.05 L21,13.02 C21.17,13.01 21.33,12.99 21.5,12.99 C21.67,12.99 21.83,13 22,13.02 L22,5.05 C22,4.47 21.53,4 20.95,4 L7.05,4 C6.47,4 6,4.47 6,5.05 L6,23 L6,24 L6,26.95 C6,27.53 6.47,28 7.05,28 L20.95,28 C21.53,28 22,27.53 22,26.95 L22,25.98 C21.83,25.99 21.67,26 21.5,26 Z" id="Path" fill="#101828" fill-rule="nonzero"></path>
                    <path d="M14,8 C14.55,8 15,8.45 15,9 C15,9.55 14.55,10 14,10 C13.45,10 13,9.55 13,9 C13,8.45 13.45,8 14,8 L14,8 Z M14,7 C12.9,7 12,7.9 12,9 C12,10.1 12.9,11 14,11 C15.1,11 16,10.1 16,9 C16,7.9 15.1,7 14,7 L14,7 Z" id="Shape" fill="#101828" fill-rule="nonzero"></path>
                    <path d="M12,15 L12,14 C12,13.45 12.45,13 13,13 L15,13 C15.55,13 16,13.45 16,14 L16,15 L17,15 L17,14 C17,12.9 16.1,12 15,12 L13,12 C11.9,12 11,12.9 11,14 L11,15 L12,15 Z" id="Path" fill="#101828" fill-rule="nonzero"></path>
                    <path d="M21.5,15 C23.98,15 26,17.02 26,19.5 C26,21.98 23.98,24 21.5,24 C19.02,24 17,21.98 17,19.5 C17,17.02 19.02,15 21.5,15 L21.5,15 Z M21.5,14 C18.46,14 16,16.46 16,19.5 C16,22.54 18.46,25 21.5,25 C24.54,25 27,22.54 27,19.5 C27,16.46 24.54,14 21.5,14 L21.5,14 Z" id="Shape" fill="#101828" fill-rule="nonzero"></path>
                    <g id="Group" transform="translate(19.000000, 16.000000)" fill="#101828" fill-rule="nonzero">
                        <path d="M1.94,4.5 C1.94,4.02 2.13,3.59 2.61,3.17 C3.1,2.75 3.29,2.47 3.29,2.07 C3.29,1.66 2.97,1.4 2.52,1.4 C2.07,1.4 1.69,1.69 1.69,2.18 C1.69,2.28 1.71,2.39 1.74,2.47 L0.89,2.66 C0.82,2.51 0.79,2.33 0.79,2.09 C0.79,1.3 1.45,0.49 2.5,0.49 C3.57,0.49 4.2,1.1 4.2,1.99 C4.2,2.62 3.99,3.01 3.25,3.69 C2.99,3.94 2.93,4.14 2.93,4.49 L1.94,4.49 L1.94,4.5 Z" id="Path"></path>
                        <rect id="Rectangle" x="1.94" y="5.5" width="1" height="1"></rect>
                    </g>
                    <rect id="Rectangle" x="0" y="0" width="32" height="32"></rect>
                </g>
            </g>
        </g>
    </g>
</svg>