<?xml version="1.0" encoding="UTF-8"?>
<svg width="32px" height="32px" viewBox="0 0 32 32" version="1.1" xmlns="http://www.w3.org/2000/svg" xmlns:xlink="http://www.w3.org/1999/xlink">
    <!-- Generator: Sketch 57.1 (83088) - https://sketch.com -->
    <title>029-B32px</title>
    <desc>Created with Sketch.</desc>
    <g id="029-B32px" stroke="none" stroke-width="1" fill="none" fill-rule="evenodd">
        <g>
            <path d="M16,10 C16.55,10 17,10.45 17,11 C17,11.55 16.55,12 16,12 C15.45,12 15,11.55 15,11 C15,10.45 15.45,10 16,10 L16,10 Z M16,9 C14.9,9 14,9.9 14,11 C14,12.1 14.9,13 16,13 C17.1,13 18,12.1 18,11 C18,9.9 17.1,9 16,9 L16,9 Z" id="Shape" fill="#101828" fill-rule="nonzero"></path>
            <path d="M21,16.05 L21,11 C21,6.56 16.03,4 16.03,4 C16.03,4 11,6.48 11,11 C11,12.27 11,14.09 11,16.04 C8.75,16.26 7,17.94 7,20 L7,26 L11,24.67 L11,24.67 L12,24.34 L12,23.29 L12,17 L12,16 L12,14 L12,11 C12,7.9 14.89,5.84 16.02,5.15 C17.15,5.86 20,7.95 20,11 L20,14 L20,16 L20,17 L20,23.28 L20,24.33 L25,26 L25,20 C25,17.95 23.25,16.27 21,16.05 Z M11,23.62 L8,24.62 L8,20 C8,18.49 9.31,17.25 11,17.04 C11,19.35 11,21.75 11,23.62 Z M24,24.62 L21,23.62 L21,17.05 C22.69,17.26 24,18.5 24,20.01 L24,24.62 Z" id="Shape" fill="#101828" fill-rule="nonzero"></path>
            <rect id="Rectangle" fill="#101828" fill-rule="nonzero" x="15.5" y="19.03" width="1" height="8.97"></rect>
            <rect id="Rectangle" x="0" y="0" width="32" height="32"></rect>
        </g>
    </g>
</svg>