<?xml version="1.0" encoding="UTF-8"?>
<svg width="80px" height="80px" viewBox="0 0 80 80" version="1.1" xmlns="http://www.w3.org/2000/svg" xmlns:xlink="http://www.w3.org/1999/xlink">
    <!-- Generator: Sketch 57.1 (83088) - https://sketch.com -->
    <title>059-B80px</title>
    <desc>Created with Sketch.</desc>
    <g id="059-B80px" stroke="none" stroke-width="1" fill="none" fill-rule="evenodd">
        <g>
            <path d="M36.5,40 C35,40 33.5,39.25 32.25,38.25 L29.75,35.75 L27.25,38.25 C25,40.75 21,40.75 18.75,38.25 C16.5,35.75 16.5,32 18.75,29.5 C21,27 25,27 27.25,29.5 L29.75,32 L32.25,29.5 C34.5,27 38.5,27 40.75,29.5 C43,32 43,35.75 40.75,38.25 C39.75,39.25 38.25,40 36.5,40 Z M31.75,33.75 L34.25,36.5 C35.5,38 37.75,38 39,36.5 C40.5,35 40.5,32.5 39,31 C37.75,29.5 35.5,29.5 34.25,31 L31.75,33.75 Z M23.5,30 C22.5,30 21.75,30.5 21,31 C19.5,32.5 19.5,35 21,36.5 C22.25,37.75 24.5,38 25.75,36.5 L28.25,33.75 L25.75,31 C25.25,30.25 24.25,30 23.5,30 Z" id="Shape" fill="#101828" fill-rule="nonzero"></path>
            <path d="M47.5,20 L12.5,20 C11,20 10,21 10,22.5 L10,40 L12.5,40 L12.5,40 L12.5,40 L12.5,22.5 L47.5,22.5 L47.5,45 L17.5,45 L16.75,45 L16,45.5 L14,46.75 L10,49.5 L10,49.5 L10,52.5 L17.5,47.5 L47.5,47.5 C48.75,47.5 50,46.5 50,45 L50,22.5 C50,21 49,20 47.5,20 Z" id="Path" fill="#101828" fill-rule="nonzero"></path>
            <path d="M64,55.5 L63.25,55 L62.5,55 L32.5,55 L32.5,50 L30,50 L30,55 C30,56.25 31,57.5 32.5,57.5 L62.5,57.5 L70,62.5 L70,59.5 L64.5,55.75 L64,55.5 Z" id="Path" fill="#101828" fill-rule="nonzero"></path>
            <path d="M67.5,30 L52.5,30 L52.5,32.5 L67.5,32.5 L67.5,50 L67.5,50 L67.5,50 L70,50 L70,32.5 C70,31 69,30 67.5,30 Z" id="Path" fill="#101828" fill-rule="nonzero"></path>
            <rect id="Rectangle" x="0" y="0" width="80" height="80"></rect>
        </g>
    </g>
</svg>