<?xml version="1.0" encoding="UTF-8"?>
<svg width="80px" height="80px" viewBox="0 0 80 80" version="1.1" xmlns="http://www.w3.org/2000/svg" xmlns:xlink="http://www.w3.org/1999/xlink">
    <!-- Generator: Sketch 57.1 (83088) - https://sketch.com -->
    <title>193-B80px</title>
    <desc>Created with Sketch.</desc>
    <g id="193-B80px" stroke="none" stroke-width="1" fill="none" fill-rule="evenodd">
        <g>
            <path d="M67.5,19.975 L67.55,62.5 L12.5,62.55 L12.55,19.975 L67.5,19.975 L67.5,19.975 Z M67.525,17.475 L12.55,17.475 C11.15,17.475 10,18.625 10,20.025 L10,62.55 C10,63.9 11.1,65 12.45,65 L67.55,65 C68.9,65 70,63.9 70,62.55 L70,19.95 C70,18.6 68.9,17.475 67.525,17.475 L67.525,17.475 Z" id="Shape" fill="#101828" fill-rule="nonzero"></path>
            <rect id="Rectangle" fill="#101828" fill-rule="nonzero" x="57.5" y="12.475" width="2.5" height="12.5"></rect>
            <rect id="Rectangle" fill="#101828" fill-rule="nonzero" x="50" y="12.475" width="2.5" height="12.5"></rect>
            <rect id="Rectangle" fill="#101828" fill-rule="nonzero" x="42.5" y="12.475" width="2.5" height="12.5"></rect>
            <rect id="Rectangle" fill="#101828" fill-rule="nonzero" x="35" y="12.475" width="2.5" height="12.5"></rect>
            <rect id="Rectangle" fill="#101828" fill-rule="nonzero" x="27.5" y="12.475" width="2.5" height="12.5"></rect>
            <rect id="Rectangle" fill="#101828" fill-rule="nonzero" x="20" y="12.475" width="2.5" height="12.5"></rect>
            <rect id="Rectangle" fill="#101828" fill-rule="nonzero" x="27.5" y="52.5" width="25" height="2.5"></rect>
            <path d="M28.75,45 L34.35,40.05 C35.55,38.875 36.075,38.125 36.075,37.05 C36.075,35.8 35.225,34.95 33.825,34.95 C32.475,34.95 31.525,35.725 31.525,37.025 C31.525,37.45 31.575,37.725 31.625,38.025 L28.9,38.225 C28.8,37.75 28.75,37.325 28.75,36.875 C28.75,34.575 30.65,32.5 33.8,32.5 C37.025,32.5 38.75,34.325 38.75,36.725 C38.75,38.65 38.1,39.875 36.175,41.725 L32.35,45 L38.75,45 L38.75,47.5 L28.75,47.5 L28.75,45 Z" id="Path" fill="#101828" fill-rule="nonzero"></path>
            <path d="M46.25,37.5 C44.75,37.5 44.2,37.725 43.75,37.95 L43.75,34.975 L50.05,35.025 L50.05,32.475 L41.25,32.475 L41.25,40.625 L43.75,41.175 C43.975,40.875 44.7,39.975 46.25,39.975 C47.625,39.975 48.75,41.025 48.75,42.35 C48.75,44.075 47.425,44.975 46.25,44.975 C44.925,44.975 44.05,44.05 43.8,43.35 L41.2,43.925 C41.5,45.675 42.925,47.5 46.25,47.5 C49.15,47.5 51.25,45.35 51.25,42.375 C51.25,39.4 49.25,37.5 46.25,37.5 Z" id="Path" fill="#101828" fill-rule="nonzero"></path>
            <rect id="Rectangle" x="0" y="0" width="80" height="80"></rect>
        </g>
    </g>
</svg>