<?xml version="1.0" encoding="UTF-8"?>
<svg width="40px" height="40px" viewBox="0 0 40 40" version="1.1" xmlns="http://www.w3.org/2000/svg" xmlns:xlink="http://www.w3.org/1999/xlink">
    <!-- Generator: Sketch 58 (84663) - https://sketch.com -->
    <title>259-B40px</title>
    <desc>Created with Sketch.</desc>
    <g id="259-B40px" stroke="none" stroke-width="1" fill="none" fill-rule="evenodd">
        <g id="259-B32px">
            <g>
                <path d="M20,28.125 C20,27.775 20.025,27.425 20.075,27.0875 C16.0375,24.9875 12.9,21.8 12.8625,21.75 C12.8,21.675 6.9625,15.575 6.25,9.5625 C6.25,9.525 6.25,9.4625 6.2875,9.425 L9.5625,6.2625 C9.5875,6.2375 9.6125,6.225 9.65,6.225 C9.6875,6.225 9.7125,6.25 9.7125,6.25 L14.65,11.35 C14.6875,11.3875 14.675,11.4625 14.6375,11.5 L12.45,13.6125 L11.85,14.2 L12.1625,14.975 C12.2125,15.1 13.375,17.9375 15.0375,19.65 C16.7,21.3625 19.5,22.625 19.625,22.675 L20.4,23.0125 L21,22.425 L23.1875,20.3125 C23.2125,20.2875 23.2375,20.275 23.275,20.275 C23.3125,20.275 23.3375,20.3 23.3375,20.3 L24.0875,21.075 C24.4625,20.85 24.8625,20.6625 25.275,20.5125 L24.225,19.425 C23.9625,19.15 23.6125,19.0125 23.2625,19.0125 C22.925,19.0125 22.575,19.1375 22.3125,19.4 L20.125,21.5125 C20.125,21.5125 17.45,20.325 15.9375,18.7625 C14.425,17.2 13.325,14.4875 13.325,14.4875 L15.5125,12.375 C16.05,11.85 16.075,11 15.55,10.4625 L10.6,5.375 C10.3375,5.1125 9.9875,4.975 9.6375,4.975 C9.3,4.975 8.95,5.1 8.6875,5.3625 L5.4125,8.525 C5.1,8.8375 4.9625,9.2625 5.0125,9.7 C5.7875,16.225 11.9625,22.6 11.9625,22.6 C11.9625,22.6 15.475,26.225 20.0125,28.4375 C20.0125,28.3375 20,28.2375 20,28.125 Z" id="Path" fill="#101828" fill-rule="nonzero"></path>
                <path d="M28.55,33.3875 C25.4,33.3875 22.85,30.825 22.85,27.6875 L24.1,27.6875 C24.1,30.1375 26.1,32.1375 28.55,32.1375 L28.55,33.3875 Z" id="Path" fill="#101828" fill-rule="nonzero"></path>
                <path d="M33.4625,28.4875 L32.2125,28.4875 C32.2125,26.0375 30.2125,24.0375 27.7625,24.0375 L27.7625,22.7875 C30.9,22.7875 33.4625,25.3375 33.4625,28.4875 Z" id="Path" fill="#101828" fill-rule="nonzero"></path>
                <path d="M28.125,22.5 C31.225,22.5 33.75,25.025 33.75,28.125 C33.75,31.225 31.225,33.75 28.125,33.75 C25.025,33.75 22.5,31.225 22.5,28.125 C22.5,25.025 25.025,22.5 28.125,22.5 L28.125,22.5 Z M28.125,21.25 C24.325,21.25 21.25,24.325 21.25,28.125 C21.25,31.925 24.325,35 28.125,35 C31.925,35 35,31.925 35,28.125 C35,24.325 31.925,21.25 28.125,21.25 L28.125,21.25 Z" id="Shape" fill="#101828" fill-rule="nonzero"></path>
                <path d="M28.1125,22.5 C31.2125,22.5 33.7375,25.025 33.7375,28.125 C33.7375,31.225 31.2125,33.75 28.1125,33.75 C25.0125,33.75 22.4875,31.225 22.4875,28.125 C22.4875,25.025 25.0125,22.5 28.1125,22.5 L28.1125,22.5 Z M28.1125,21.25 C24.3125,21.25 21.2375,24.325 21.2375,28.125 C21.2375,31.925 24.3125,35 28.1125,35 C31.9125,35 34.9875,31.925 34.9875,28.125 C34.9875,24.325 31.9125,21.25 28.1125,21.25 L28.1125,21.25 Z" id="Shape" fill="#101828" fill-rule="nonzero"></path>
                <rect id="Rectangle" fill="#101828" fill-rule="nonzero" x="27.5" y="27.5" width="1.25" height="3.75"></rect>
                <rect id="Rectangle" fill="#101828" fill-rule="nonzero" x="27.5" y="25.625" width="1.25" height="1.25"></rect>
                <rect id="Rectangle" x="0" y="0" width="40" height="40"></rect>
            </g>
        </g>
    </g>
</svg>