<?xml version="1.0" encoding="UTF-8"?>
<svg width="32px" height="32px" viewBox="0 0 32 32" version="1.1" xmlns="http://www.w3.org/2000/svg" xmlns:xlink="http://www.w3.org/1999/xlink">
    <!-- Generator: Sketch 57.1 (83088) - https://sketch.com -->
    <title>046-B32px</title>
    <desc>Created with Sketch.</desc>
    <g id="046-B32px" stroke="none" stroke-width="1" fill="none" fill-rule="evenodd">
        <g>
            <polygon id="Path" fill="#101828" points="16 10 11.09 10.83 11.09 11.64 11.52 11.64 11.52 11.24 16 10.48 20.48 11.24 20.48 11.64 20.91 11.64 20.91 10.83"></polygon>
            <polygon id="Path" fill="#101828" points="21.64 13.82 24.73 13.82 23.78 14.91 22.84 16 21.45 16 21.45 13.82"></polygon>
            <polygon id="Path" fill="#101828" points="20.47 14.36 20.45 17.25 16 21.46 11.55 17.25 11.53 14.36 11.09 14.36 11.09 16.31 11.09 17.37 16 22 20.91 17.37 20.91 14.82 20.91 14.36"></polygon>
            <polygon id="Path" fill="#101828" points="9.27 11.64 4 11.64 4.96 12.58 5.91 13.52 9.25 13.52 9.27 13.52 10.84 13.52 11.77 13.52 11.88 13.52 12.04 13.52 12.04 16.76 13.49 18.18 14.91 16.79 13.95 15.84 13.95 11.64"></polygon>
            <polygon id="Path" fill="#101828" points="17.09 11.93 17.09 17.1 17.09 19.95 16 20.91 14.91 19.95 14.91 17.1 14.91 11.93 16 11.09"></polygon>
            <polygon id="Path" fill="#101828" points="18.05 11.64 18.05 15.84 17.09 16.79 18.51 18.18 19.96 16.75 19.96 13.52 20.2 13.52 20.42 13.52 21.35 13.52 22.83 13.52 26.09 13.52 27.04 12.58 28 11.64"></polygon>
            <polygon id="Path" fill="#101828" points="7.27 13.82 10.55 13.82 10.55 16 9.16 16 8.22 14.91"></polygon>
            <rect id="Rectangle" x="0" y="0" width="32" height="32"></rect>
        </g>
    </g>
</svg>