<?xml version="1.0" encoding="UTF-8"?>
<svg width="80px" height="80px" viewBox="0 0 80 80" version="1.1" xmlns="http://www.w3.org/2000/svg" xmlns:xlink="http://www.w3.org/1999/xlink">
    <!-- Generator: Sketch 57.1 (83088) - https://sketch.com -->
    <title>177-B80px</title>
    <desc>Created with Sketch.</desc>
    <g id="177-B80px" stroke="none" stroke-width="1" fill="none" fill-rule="evenodd">
        <g>
            <polygon id="Path" fill="#101828" fill-rule="nonzero" points="50 50 50 52.5 55 52.5 55 57.5 57.5 57.5 57.5 52.5 62.5 52.5 62.5 50 57.5 50 57.5 45 55 45 55 50"></polygon>
            <path d="M56.25,15 C58.325,15 60,16.675 60,18.75 C60,20.825 58.325,22.5 56.25,22.5 C54.175,22.5 52.5,20.825 52.5,18.75 C52.5,16.675 54.175,15 56.25,15 L56.25,15 Z M56.25,12.5 C52.8,12.5 50,15.3 50,18.75 C50,22.2 52.8,25 56.25,25 C59.7,25 62.5,22.2 62.5,18.75 C62.5,15.3 59.7,12.5 56.25,12.5 L56.25,12.5 Z" id="Shape" fill="#101828" fill-rule="nonzero"></path>
            <path d="M38.75,15 C40.825,15 42.5,16.675 42.5,18.75 C42.5,20.825 40.825,22.5 38.75,22.5 C36.675,22.5 35,20.825 35,18.75 C35,16.675 36.675,15 38.75,15 L38.75,15 Z M38.75,12.5 C35.3,12.5 32.5,15.3 32.5,18.75 C32.5,22.2 35.3,25 38.75,25 C42.2,25 45,22.2 45,18.75 C45,15.3 42.2,12.5 38.75,12.5 L38.75,12.5 Z" id="Shape" fill="#101828" fill-rule="nonzero"></path>
            <path d="M21.25,15 C23.325,15 25,16.675 25,18.75 C25,20.825 23.325,22.5 21.25,22.5 C19.175,22.5 17.5,20.825 17.5,18.75 C17.5,16.675 19.175,15 21.25,15 L21.25,15 Z M21.25,12.5 C17.8,12.5 15,15.3 15,18.75 C15,22.2 17.8,25 21.25,25 C24.7,25 27.5,22.2 27.5,18.75 C27.5,15.3 24.7,12.5 21.25,12.5 L21.25,12.5 Z" id="Shape" fill="#101828" fill-rule="nonzero"></path>
            <path d="M62.5,30 C63.875,30 65,31.125 65,32.5 L65,37.5 L67.5,37.5 L67.5,32.5 C67.5,29.75 65.25,27.5 62.5,27.5 L50.5,27.5 C51.15,28.225 51.675,29.075 52.025,30 L62.5,30 Z" id="Path" fill="#101828" fill-rule="nonzero"></path>
            <path d="M12.5,37.5 L12.5,32.5 C12.5,31.125 13.625,30 15,30 L27.5,30 C28.875,30 30,31.125 30,32.5 L30,37.5 L32.5,37.5 L32.5,32.5 C32.5,29.75 30.25,27.5 27.5,27.5 L15,27.5 C12.25,27.5 10,29.75 10,32.5 L10,37.5 L12.5,37.5 Z" id="Path" fill="#101828" fill-rule="nonzero"></path>
            <path d="M47.5,32.5 L47.5,37.5 L47.625,37.5 C48.375,37.025 49.175,36.6 50,36.25 L50,32.5 C50,29.75 47.75,27.5 45,27.5 L33,27.5 C33.65,28.225 34.175,29.075 34.525,30 L45,30 C46.375,30 47.5,31.125 47.5,32.5 Z" id="Path" fill="#101828" fill-rule="nonzero"></path>
            <path d="M56.25,40 C62.45,40 67.5,45.05 67.5,51.25 C67.5,57.45 62.45,62.5 56.25,62.5 C50.05,62.5 45,57.45 45,51.25 C45,45.05 50.05,40 56.25,40 L56.25,40 Z M56.25,37.5 C48.65,37.5 42.5,43.65 42.5,51.25 C42.5,58.85 48.65,65 56.25,65 C63.85,65 70,58.85 70,51.25 C70,43.65 63.85,37.5 56.25,37.5 L56.25,37.5 Z" id="Shape" fill="#101828" fill-rule="nonzero"></path>
            <polygon id="Path" fill="#101828" fill-rule="nonzero" points="50 50 50 52.5 55 52.5 55 57.5 57.5 57.5 57.5 52.5 62.5 52.5 62.5 50 57.5 50 57.5 45 55 45 55 50"></polygon>
            <rect id="Rectangle" x="0" y="0" width="80" height="80"></rect>
        </g>
    </g>
</svg>