<?xml version="1.0" encoding="UTF-8"?>
<svg width="80px" height="80px" viewBox="0 0 80 80" version="1.1" xmlns="http://www.w3.org/2000/svg" xmlns:xlink="http://www.w3.org/1999/xlink">
    <!-- Generator: Sketch 57.1 (83088) - https://sketch.com -->
    <title>151-B80px</title>
    <desc>Created with Sketch.</desc>
    <g id="151-B80px" stroke="none" stroke-width="1" fill="none" fill-rule="evenodd">
        <g>
            <path d="M59.875,12.5 C59.95,12.5 60,12.55 60,12.625 L60,67.375 C60,67.45 59.95,67.5 59.875,67.5 L25.125,67.5 C25.05,67.5 25,67.45 25,67.375 L25,12.625 C25,12.55 25.05,12.5 25.125,12.5 L59.875,12.5 L59.875,12.5 Z M59.875,10 L25.125,10 C23.675,10 22.5,11.175 22.5,12.625 L22.5,67.375 C22.5,68.825 23.675,70 25.125,70 L59.875,70 C61.325,70 62.5,68.825 62.5,67.375 L62.5,12.625 C62.5,11.175 61.325,10 59.875,10 L59.875,10 Z" id="Shape" fill="#101828" fill-rule="nonzero"></path>
            <path d="M42.5,65 C43.175,65 43.75,64.45 43.75,63.75 C43.75,63.05 43.175,62.5 42.5,62.5 C41.825,62.5 41.25,63.05 41.25,63.75 C41.25,64.45 41.825,65 42.5,65" id="Path" fill="#101828" fill-rule="nonzero"></path>
            <rect id="Rectangle" fill="#101828" fill-rule="nonzero" x="22.5" y="57.5" width="40" height="2.5"></rect>
            <path d="M40,29.35 L47.55,33.75 L40,38.15 L40,29.35 L40,29.35 Z M37.5,25 L37.5,42.5 L52.5,33.75 L37.5,25 L37.5,25 Z" id="Shape" fill="#101828" fill-rule="nonzero"></path>
            <rect id="Rectangle" x="0" y="0" width="80" height="80"></rect>
        </g>
    </g>
</svg>