<?xml version="1.0" encoding="UTF-8"?>
<svg width="56px" height="56px" viewBox="0 0 56 56" version="1.1" xmlns="http://www.w3.org/2000/svg" xmlns:xlink="http://www.w3.org/1999/xlink">
    <!-- Generator: Sketch 57.1 (83088) - https://sketch.com -->
    <title>093-W56px</title>
    <desc>Created with Sketch.</desc>
    <g id="NEW_icons" stroke="none" stroke-width="1" fill="none" fill-rule="evenodd">
        <g id="icons_UD_new-Copy" transform="translate(-1814.000000, -12050.000000)">
            <g id="093-W56px" transform="translate(1814.000000, 12050.000000)">
                <g id="003-B32px-Copy-134" transform="translate(8.000000, 8.000000)">
                    <g id="Group" transform="translate(10.000000, 5.000000)" fill="#FFFFFF" fill-rule="nonzero">
                        <path d="M18.6875,0 L1.3125,0 C0.5875,0 0,0.5875 0,1.3125 L0,23.75 L0,25 L0,28.6875 C0,29.4125 0.5875,30 1.3125,30 L18.6875,30 C19.4125,30 20,29.4125 20,28.6875 L20,25 L20,23.75 L20,1.3125 C20,0.5875 19.4125,0 18.6875,0 Z M18.75,28.6875 C18.75,28.725 18.725,28.75 18.6875,28.75 L1.3125,28.75 C1.275,28.75 1.25,28.725 1.25,28.6875 L1.25,25 L18.75,25 L18.75,28.6875 Z M1.25,23.75 L1.25,1.3125 C1.25,1.275 1.275,1.25 1.3125,1.25 L18.6875,1.25 C18.725,1.25 18.75,1.275 18.75,1.3125 L18.75,23.75 L1.25,23.75 Z" id="Shape"></path>
                        <path d="M10,27.4875 C10.3375,27.4875 10.625,27.2125 10.625,26.8625 C10.625,26.525 10.35,26.2375 10,26.2375 C9.65,26.2375 9.375,26.5125 9.375,26.8625 C9.375,27.2125 9.6625,27.4875 10,27.4875 Z" id="Path"></path>
                        <path d="M12.5125,20 L7.5,20.0125 L7.5,16.25 L6.25,16.25 L6.25,20.0125 C6.25,20.6875 6.8,21.25 7.4875,21.25 L12.525,21.25 C13.2,21.25 13.7625,20.7 13.7625,20.0125 L13.7625,16.25 L12.5125,16.25 L12.5125,20 Z" id="Path"></path>
                        <polygon id="Path" points="4.775 15.575 5.5625 16.5375 10 12.875 14.4375 16.5375 15.225 15.575 10 11.2625"></polygon>
                        <path d="M12.6,7.3125 C11.925,6.65 11.0125,6.25 10,6.25 C8.9625,6.25 8.025,6.675 7.35,7.35 L8.2375,8.2375 C8.6875,7.775 9.3125,7.5 10,7.5 C10.6625,7.5 11.275,7.7625 11.7125,8.1875 L12.6,7.3125 Z" id="Path"></path>
                        <path d="M9.1125,9.1125 L9.95,9.95 L10.825,9.075 C10.6125,8.875 10.325,8.75 10,8.75 C9.65,8.75 9.3375,8.8875 9.1125,9.1125 Z" id="Path"></path>
                        <path d="M10,5 C11.35,5 12.5875,5.55 13.4875,6.425 L14.375,5.5375 C13.2375,4.4375 11.7,3.75 10,3.75 C8.275,3.75 6.7125,4.45 5.575,5.575 L6.4625,6.4625 C7.375,5.5625 8.625,5 10,5 Z" id="Path"></path>
                    </g>
                    <rect id="Rectangle" x="0" y="0" width="40" height="40"></rect>
                </g>
                <circle id="Oval-Copy-687" fill="#101828" cx="28" cy="28" r="28"></circle>
                <g id="093-B32px-Copy-5" transform="translate(9.000000, 8.000000)">
                    <path d="M18.75,32.5 C19.0875,32.5 19.375,32.225 19.375,31.875 C19.375,31.525 19.0875,31.25 18.75,31.25 C18.4125,31.25 18.125,31.525 18.125,31.875 C18.125,32.225 18.4125,32.5 18.75,32.5" id="Path" fill="#FFFFFF" fill-rule="nonzero"></path>
                    <rect id="Rectangle" fill="#FFFFFF" fill-rule="nonzero" x="8.75" y="28.75" width="20" height="1.25"></rect>
                    <g id="Shape_8_" transform="translate(21.250000, 12.500000)" fill="#FFFFFF" fill-rule="nonzero">
                        <rect id="Rectangle" x="0.625" y="0" width="1.25" height="8.3875"></rect>
                    </g>
                    <rect id="Rectangle" fill="#FFFFFF" fill-rule="nonzero" x="21.25" y="20.2625" width="2.5" height="1.25"></rect>
                    <rect id="Rectangle" fill="#FFFFFF" fill-rule="nonzero" x="21.25" y="11.875" width="2.5" height="1.25"></rect>
                    <path d="M14.375,15 C14.725,15 15,15.275 15,15.625 C15,15.975 14.725,16.25 14.375,16.25 C14.025,16.25 13.75,15.975 13.75,15.625 C13.75,15.275 14.025,15 14.375,15 L14.375,15 Z M14.375,13.75 C13.3375,13.75 12.5,14.5875 12.5,15.625 C12.5,16.6625 13.3375,17.5 14.375,17.5 C15.4125,17.5 16.25,16.6625 16.25,15.625 C16.25,14.5875 15.4125,13.75 14.375,13.75 L14.375,13.75 Z" id="Shape" fill="#FFFFFF" fill-rule="nonzero"></path>
                    <path d="M14.375,17.5 C14.725,17.5 15,17.775 15,18.125 C15,18.475 14.725,18.75 14.375,18.75 C14.025,18.75 13.75,18.475 13.75,18.125 C13.75,17.775 14.025,17.5 14.375,17.5 L14.375,17.5 Z M14.375,16.25 C13.3375,16.25 12.5,17.0875 12.5,18.125 C12.5,19.1625 13.3375,20 14.375,20 C15.4125,20 16.25,19.1625 16.25,18.125 C16.25,17.0875 15.4125,16.25 14.375,16.25 L14.375,16.25 Z" id="Shape" fill="#FFFFFF" fill-rule="nonzero"></path>
                    <path d="M27.5,21.25 L27.5,33.6875 C27.5,33.725 27.475,33.75 27.4375,33.75 L10.0625,33.75 C10.025,33.75 10,33.725 10,33.6875 L10,6.3125 C10,6.275 10.025,6.25 10.0625,6.25 L27.4375,6.25 C27.475,6.25 27.5,6.275 27.5,6.3125 L27.5,12.5 L28.75,12.5 L28.75,6.3125 C28.75,5.5875 28.1625,5 27.4375,5 L10.0625,5 C9.3375,5 8.75,5.5875 8.75,6.3125 L8.75,33.6875 C8.75,34.4125 9.3375,35 10.0625,35 L27.4375,35 C28.1625,35 28.75,34.4125 28.75,33.6875 L28.75,21.25 L27.5,21.25 Z" id="Path" fill="#FFFFFF" fill-rule="nonzero"></path>
                    <polygon id="Path" fill="#FFFFFF" fill-rule="nonzero" points="24.225 20 25.6375 20 26.575 18.225 27.5 20 28.9125 20 27.275 16.8875 28.925 13.75 27.5125 13.75 26.575 15.5375 25.625 13.75 24.2125 13.75 25.8625 16.8875"></polygon>
                    <polygon id="Path" fill="#FFFFFF" fill-rule="nonzero" points="29.4875 20 30.9 20 31.8375 18.225 32.775 20 34.1875 20 32.5375 16.8875 34.2 13.75 32.7875 13.75 31.8375 15.5375 30.8875 13.75 29.475 13.75 31.125 16.8875"></polygon>
                    <path d="M20.875,15.675 C20.875,15.65 20.8875,15.625 20.8875,15.6 C20.8875,14.575 20.05,13.75 19.0125,13.75 C17.975,13.75 17.1375,14.575 17.1375,15.6 C17.1375,16.625 17.975,17.45 19.0125,17.45 C19.2375,17.45 19.45,17.4 19.65,17.3375 L19.65,18.0375 C19.65,18.1625 19.6125,18.775 19,18.775 C18.725,18.775 18.625,18.675 18.5875,18.65 C18.4375,18.5 18.4,18.2 18.4,18.1125 L17.775,18.1 L17.15,18.0875 C17.15,18.175 17.15,18.95 17.6875,19.5 C17.9125,19.725 18.325,20 18.9875,20 C20.3625,20 20.875,18.8375 20.8875,18.0375 L20.8875,15.6625 L20.875,15.6625 L20.875,15.675 Z M19,16.2125 C18.65,16.2125 18.375,15.9375 18.375,15.6 C18.375,15.2625 18.65,14.9875 19,14.9875 C19.35,14.9875 19.625,15.2625 19.625,15.6 C19.625,15.9375 19.35,16.2125 19,16.2125 Z" id="Shape" fill="#FFFFFF" fill-rule="nonzero"></path>
                    <rect id="Rectangle" x="0" y="0" width="40" height="40"></rect>
                </g>
            </g>
        </g>
    </g>
</svg>