<?xml version="1.0" encoding="UTF-8"?>
<svg width="56px" height="56px" viewBox="0 0 56 56" version="1.1" xmlns="http://www.w3.org/2000/svg" xmlns:xlink="http://www.w3.org/1999/xlink">
    <!-- Generator: Sketch 59.1 (86144) - https://sketch.com -->
    <title>265-G56px</title>
    <desc>Created with Sketch.</desc>
    <g id="NEW_icons" stroke="none" stroke-width="1" fill="none" fill-rule="evenodd">
        <g id="icons_UD_new-Copy" transform="translate(-1728.000000, -33651.000000)">
            <g id="265-G56px" transform="translate(1728.000000, 33651.000000)">
                <circle id="Oval-Copy-1496" fill="#E3E8EC" cx="28" cy="28" r="28"></circle>
                <g id="265-B32px-Copy-3" transform="translate(8.000000, 8.000000)">
                    <rect id="Rectangle" x="0" y="0" width="40" height="40"></rect>
                    <g id="Group" transform="translate(5.000000, 5.000000)" fill="#101828" fill-rule="nonzero">
                        <rect id="Rectangle" x="21.25" y="4.5" width="5" height="1.125"></rect>
                        <rect id="Rectangle" x="21.25" y="11.875" width="5" height="1.25"></rect>
                        <rect id="Rectangle" x="21.25" y="6.875" width="1" height="1.375"></rect>
                        <rect id="Rectangle" x="23.25" y="6.875" width="1" height="1.375"></rect>
                        <rect id="Rectangle" x="25.25" y="6.875" width="1" height="1.375"></rect>
                        <rect id="Rectangle" x="21.25" y="9.375" width="1" height="1.375"></rect>
                        <rect id="Rectangle" x="23.25" y="9.375" width="1" height="1.375"></rect>
                        <rect id="Rectangle" x="25.25" y="9.375" width="1" height="1.375"></rect>
                        <g transform="translate(6.250000, 6.250000)">
                            <g transform="translate(0.000000, 3.750000)" id="Path">
                                <path d="M1.625,4.375 L1.625,2.5 C1.625,2 2,1.625 2.5,1.625 L6.25,1.625 C6.75,1.625 7.125,2 7.125,2.5 L7.125,4.375 L7.5,4.375 L7.5,2.5 C7.5,1.875 7,1.25 6.25,1.25 L2.625,1.25 C2,1.25 1.375,1.75 1.375,2.5 L1.375,4.375 L1.625,4.375 Z"></path>
                                <path d="M7.875,4.75 L6.75,4.75 L6.75,2.5 C6.75,2.25 6.5,2 6.25,2 L2.625,2 C2.375,2 2.125,2.25 2.125,2.5 L2.125,4.75 L1,4.75 L1,2.5 C1,1.625 1.75,0.875 2.625,0.875 L6.25,0.875 C7.125,0.875 7.875,1.625 7.875,2.5 L7.875,4.75 Z"></path>
                            </g>
                            <g transform="translate(1.250000, 0.000000)" id="Shape">
                                <path d="M3.125,1.125 C4,1.125 4.625,1.75 4.625,2.625 C4.625,3.5 4,4.125 3.125,4.125 C2.25,4.125 1.625,3.5 1.625,2.625 C1.625,1.75 2.375,1.125 3.125,1.125 M3.125,0.75 C2.125,0.75 1.25,1.625 1.25,2.625 C1.25,3.625 2.125,4.5 3.125,4.5 C4.125,4.5 5,3.625 5,2.625 C5,1.625 4.25,0.75 3.125,0.75 L3.125,0.75 Z"></path>
                                <path d="M3.125,4.875 C1.875,4.875 0.875,3.875 0.875,2.625 C0.875,1.375 1.875,0.375 3.125,0.375 C4.375,0.375 5.375,1.375 5.375,2.625 C5.5,3.875 4.5,4.875 3.125,4.875 Z M3.125,1.5 C2.5,1.5 2,2 2,2.625 C2,3.25 2.5,3.75 3.125,3.75 C3.75,3.75 4.25,3.25 4.25,2.625 C4.25,2 3.75,1.5 3.125,1.5 Z"></path>
                            </g>
                        </g>
                        <path d="M17.25,5.5 L17.25,14.5 L4.75,14.5 L4.75,5.5 L17.25,5.5 M17.25,4.375 L4.75,4.375 C4,4.375 3.375,4.875 3.375,5.5 L3.375,14.5 C3.375,15.125 4,15.625 4.75,15.625 L17.25,15.625 C18,15.625 18.625,15.125 18.625,14.5 L18.625,5.5 C18.625,4.875 18,4.375 17.25,4.375 L17.25,4.375 Z" id="Shape"></path>
                        <path d="M27.25,19.375 L28.625,19.375 C28.625,19.375 28.75,19.375 28.75,19.25 L28.75,2 C28.75,2 28.75,1.875 28.625,1.875 L1.375,1.875 C1.375,1.875 1.25,1.875 1.25,2 L1.25,19.375 C1.25,19.375 1.25,19.5 1.375,19.5 L11.5,19.5 C11.375,19.875 11.375,20.375 11.25,20.75 L1.25,20.75 C0.625,20.625 0,20 0,19.25 L0,2 C0,1.25 0.625,0.625 1.375,0.625 L28.75,0.625 C29.375,0.625 30,1.25 30,2 L30,19.375 C30,20.125 29.375,20.75 28.625,20.75 L27.375,20.75 C27.375,20.25 27.375,19.75 27.25,19.375 Z" id="Path"></path>
                        <path d="M13.75,22.5 C13.75,19.375 16.25,16.875 19.375,16.875 C22.5,16.875 25,19.375 25,22.5 C25,25.625 22.5,28.125 19.375,28.125 C16.25,28.125 13.75,25.625 13.75,22.5 M12.5,22.5 C12.5,26.25 15.625,29.375 19.375,29.375 C23.125,29.375 26.25,26.25 26.25,22.5 C26.25,18.75 23.125,15.625 19.375,15.625 C15.625,15.625 12.5,18.75 12.5,22.5 L12.5,22.5 Z" id="Shape"></path>
                        <g transform="translate(15.000000, 17.500000)" id="Path">
                            <path d="M2.75,3.75 L2.25,2 C2.25,1.875 2,1.75 1.875,1.75 L0.75,2.125 C0.625,2.125 0.5,2.25 0.5,2.375 C-0.125,4 0.625,6.125 0.625,6.125 C0.625,6.125 1.25,8.25 2.625,9.25 C2.75,9.375 2.875,9.375 2.875,9.25 L4,8.875 C4.125,8.875 4.25,8.625 4.25,8.5 L3.75,6.75 C3.75,6.625 3.5,6.5 3.375,6.5 L2.5,6.75 C2.5,6.75 2,6.125 1.875,5.625 C1.75,5.125 1.75,4.375 1.75,4.375 L2.5,4.125 C2.75,4.125 2.875,3.875 2.75,3.75 Z"></path>
                            <path d="M7.875,7 C8.625,4.875 7.875,2.375 6,1 L5.375,2 C6.75,3 7.375,4.875 6.75,6.5 L7.875,7 Z"></path>
                            <path d="M5.75,6.125 C6.125,5 5.625,3.75 4.75,3 L4.125,4 C4.625,4.375 4.75,5 4.625,5.625 L5.75,6.125 Z"></path>
                        </g>
                    </g>
                </g>
            </g>
        </g>
    </g>
</svg>