<?xml version="1.0" encoding="UTF-8"?>
<svg width="56px" height="56px" viewBox="0 0 56 56" version="1.1" xmlns="http://www.w3.org/2000/svg" xmlns:xlink="http://www.w3.org/1999/xlink">
    <!-- Generator: Sketch 57.1 (83088) - https://sketch.com -->
    <title>135-B56px</title>
    <desc>Created with Sketch.</desc>
    <g id="135-B56px" stroke="none" stroke-width="1" fill="none" fill-rule="evenodd">
        <g>
            <path d="M35.875,22.6275 C35.385,22.6275 35,23.0125 35,23.5025 C35,23.9925 35.385,24.3775 35.875,24.3775 C36.365,24.3775 36.75,23.9925 36.75,23.5025 C36.75,23.0125 36.365,22.6275 35.875,22.6275 L35.875,22.6275 Z" id="Path" fill="#101828" fill-rule="nonzero"></path>
            <path d="M42.875,22.6275 C42.385,22.6275 42,23.0125 42,23.5025 C42,23.9925 42.385,24.3775 42.875,24.3775 C43.365,24.3775 43.75,23.9925 43.75,23.5025 C43.75,23.0125 43.365,22.6275 42.875,22.6275 L42.875,22.6275 Z" id="Path" fill="#101828" fill-rule="nonzero"></path>
            <path d="M13.125,22.6275 C12.635,22.6275 12.25,23.0125 12.25,23.5025 C12.25,23.9925 12.635,24.3775 13.125,24.3775 C13.615,24.3775 14,23.975 14,23.5025 C14,23.03 13.615,22.6275 13.125,22.6275 L13.125,22.6275 Z" id="Path" fill="#101828" fill-rule="nonzero"></path>
            <path d="M20.125,22.6275 C19.635,22.6275 19.25,23.0125 19.25,23.5025 C19.25,23.9925 19.635,24.3775 20.125,24.3775 C20.615,24.3775 21,23.9925 21,23.5025 C21,23.0125 20.615,22.6275 20.125,22.6275 L20.125,22.6275 Z" id="Path" fill="#101828" fill-rule="nonzero"></path>
            <path d="M35.175,28.0875 C37.6075,30.135 41.16,30.135 43.575,28.0875 L42.525,26.6875 C40.7225,28.28 38.01,28.2625 36.2075,26.6875 L35.175,28.0875 Z" id="Path" fill="#101828" fill-rule="nonzero"></path>
            <path d="M12.425,28.0875 C14.8575,30.135 18.41,30.135 20.825,28.0875 L19.775,26.6875 C17.9725,28.28 15.26,28.2625 13.4575,26.6875 L12.425,28.0875 Z" id="Path" fill="#101828" fill-rule="nonzero"></path>
            <g id="Group" transform="translate(12.250000, 10.500000)" fill="#101828" fill-rule="nonzero">
                <path d="M5.25,5.1275 L3.5,5.1275 C3.5,3.6225 4.41,0.7525 7.875,0.7525 L7.875,2.5025 C5.4075,2.5025 5.25,4.69 5.25,5.1275 Z" id="Path"></path>
                <path d="M3.5,5.1275 C3.5,4.69 3.3425,2.5025 0.875,2.5025 L0.875,0.7525 C4.34,0.7525 5.25,3.6225 5.25,5.1275 L3.5,5.1275 L4.375,5.1275 L3.5,5.1275 Z" id="Path"></path>
            </g>
            <path d="M39.375,13.8775 C34.055,13.8775 29.75,18.1825 29.75,23.5025 C29.75,24.5 29.9075,25.445 30.1875,26.355 C30.975,26.5125 31.71,26.775 32.4275,27.1075 C31.85,26.005 31.5,24.7975 31.5,23.5025 C31.5,19.1625 35.035,15.6275 39.375,15.6275 C43.715,15.6275 47.25,19.1625 47.25,23.5025 C47.25,27.8425 43.715,31.3775 39.375,31.3775 C38.4825,31.3775 37.625,31.2025 36.82,30.9225 C37.24,31.57 37.59,32.27 37.8525,33.005 C38.3425,33.075 38.85,33.1275 39.375,33.1275 C44.695,33.1275 49,28.8225 49,23.5025 C49,18.1825 44.695,13.8775 39.375,13.8775 Z" id="Path" fill="#101828" fill-rule="nonzero"></path>
            <path d="M19.18,30.905 C18.375,31.185 17.5175,31.36 16.625,31.36 C12.285,31.36 8.75,27.825 8.75,23.485 C8.75,19.145 12.285,15.61 16.625,15.61 C20.965,15.61 24.5,19.145 24.5,23.485 C24.5,24.7975 24.15,26.005 23.59,27.09 C24.29,26.7575 25.0425,26.5125 25.83,26.3375 C26.11,25.4275 26.2675,24.4825 26.2675,23.485 C26.2675,18.165 21.9625,13.86 16.6425,13.86 C11.3225,13.86 7,18.1825 7,23.5025 C7,28.8225 11.305,33.1275 16.625,33.1275 C17.15,33.1275 17.64,33.075 18.1475,33.005 C18.41,32.2525 18.76,31.5525 19.18,30.905 Z" id="Path" fill="#101828" fill-rule="nonzero"></path>
            <path d="M28,29.6625 C31.8675,29.6625 35,32.795 35,36.645 C35,40.495 31.8675,43.6275 28,43.6275 C24.1325,43.6275 21,40.495 21,36.645 C21,32.795 24.1325,29.6625 28,29.6625 L28,29.6625 Z M28,27.9125 C23.17,27.9125 19.25,31.815 19.25,36.645 C19.25,41.475 23.17,45.3775 28,45.3775 C32.83,45.3775 36.75,41.475 36.75,36.645 C36.75,31.815 32.83,27.9125 28,27.9125 L28,27.9125 Z" id="Shape" fill="#101828" fill-rule="nonzero"></path>
            <path d="M31.325,40.88 L24.675,40.88 L23.0125,34.9125 L28,30.9575 L32.97,34.93 L31.325,40.88 Z M26.005,39.13 L29.9775,39.13 L30.975,35.56 L28,33.1975 L25.025,35.5775 L26.005,39.13 Z" id="Shape" fill="#101828" fill-rule="nonzero"></path>
            <rect id="Rectangle" fill="#101828" fill-rule="nonzero" x="27.125" y="28.175" width="1.75" height="4.2"></rect>
            <polygon id="Rectangle" fill="#101828" fill-rule="nonzero" transform="translate(24.026660, 41.367436) rotate(-44.404414) translate(-24.026660, -41.367436) " points="21.7692193 40.4924592 26.2841007 40.4924592 26.2841007 42.2424133 21.7692193 42.2424133"></polygon>
            <polygon id="Rectangle" fill="#101828" fill-rule="nonzero" transform="translate(31.968191, 41.366529) rotate(-43.521022) translate(-31.968191, -41.366529) " points="31.0932178 39.1878443 32.8431652 39.1878443 32.8431652 43.5452135 31.0932178 43.5452135"></polygon>
            <polygon id="Rectangle" fill="#101828" fill-rule="nonzero" transform="translate(22.283931, 34.611176) rotate(-67.975154) translate(-22.283931, -34.611176) " points="21.4089514 32.4674756 23.1589111 32.4674756 23.1589111 36.7548769 21.4089514 36.7548769"></polygon>
            <polygon id="Rectangle" fill="#101828" fill-rule="nonzero" transform="translate(33.893227, 34.597745) rotate(-21.759913) translate(-33.893227, -34.597745) " points="31.6008386 33.7227878 36.1856144 33.7227878 36.1856144 35.4727022 31.6008386 35.4727022"></polygon>
            <polygon id="Path" fill="#101828" fill-rule="nonzero" points="24.5 20.8775 16.2575 20.8775 14.875 19.4775 13.4925 20.8775 8.75 20.8775 8.75 19.1275 12.7575 19.1275 14.875 17.01 16.9925 19.1275 24.5 19.1275"></polygon>
            <polygon id="Path" fill="#101828" fill-rule="nonzero" points="47.25 20.8775 39.0075 20.8775 37.625 19.4775 36.2425 20.8775 31.5 20.8775 31.5 19.1275 35.5075 19.1275 37.625 17.01 39.7425 19.1275 47.25 19.1275"></polygon>
            <polygon id="Path" fill="#101828" fill-rule="nonzero" points="35 16.345 33.25 16.345 33.25 10.0275 39.6375 12.11 39.095 13.7725 35 12.425"></polygon>
            <polygon id="Path" fill="#101828" fill-rule="nonzero" points="45.4825 16.345 43.7325 16.345 43.7325 12.425 39.655 13.7725 39.095 12.11 45.4825 10.0275"></polygon>
            <rect id="Rectangle" fill="#101828" fill-rule="nonzero" x="38.5" y="12.1275" width="1.75" height="1.75"></rect>
            <rect id="Rectangle" x="0" y="0" width="56" height="56"></rect>
        </g>
    </g>
</svg>