<?xml version="1.0" encoding="UTF-8"?>
<svg width="56px" height="56px" viewBox="0 0 56 56" version="1.1" xmlns="http://www.w3.org/2000/svg" xmlns:xlink="http://www.w3.org/1999/xlink">
    <!-- Generator: Sketch 57.1 (83088) - https://sketch.com -->
    <title>217-G56px</title>
    <desc>Created with Sketch.</desc>
    <g id="NEW_icons" stroke="none" stroke-width="1" fill="none" fill-rule="evenodd">
        <g id="icons_UD_new-Copy" transform="translate(-1728.000000, -27621.000000)">
            <g id="217-G56px" transform="translate(1728.000000, 27621.000000)">
                <circle id="Oval-Copy-1400" fill="#E3E8EC" cx="28" cy="28" r="28"></circle>
                <g id="217-B32px-Copy-3" transform="translate(8.000000, 8.000000)">
                    <rect id="Rectangle" fill="#101828" fill-rule="nonzero" x="26.25" y="15" width="1.25" height="8.75"></rect>
                    <rect id="Rectangle" fill="#101828" fill-rule="nonzero" x="23.75" y="16.25" width="1.25" height="7.5"></rect>
                    <rect id="Rectangle" fill="#101828" fill-rule="nonzero" x="21.25" y="17.5" width="1.25" height="6.25"></rect>
                    <rect id="Rectangle" fill="#101828" fill-rule="nonzero" x="16.25" y="20" width="1.25" height="3.75"></rect>
                    <rect id="Rectangle" fill="#101828" fill-rule="nonzero" x="18.75" y="18.75" width="1.25" height="5"></rect>
                    <rect id="Rectangle" fill="#101828" fill-rule="nonzero" x="13.75" y="22.5" width="16.25" height="1.25"></rect>
                    <polygon id="Rectangle" fill="#101828" fill-rule="nonzero" transform="translate(14.108433, 15.949044) rotate(-45.474044) translate(-14.108433, -15.949044) " points="10.1648642 15.3240732 18.0520008 15.3240732 18.0520008 16.5740156 10.1648642 16.5740156"></polygon>
                    <polygon id="Path" fill="#101828" fill-rule="nonzero" points="17.5 16.25 16.25 16.25 16.25 13.7625 13.75 13.7625 13.75 12.5125 17.5 12.5125"></polygon>
                    <path d="M33.7625,8.75 L6.2375,8.75 C5.55,8.75 5,9.3 5,9.9875 L5,23.75 L6.2375,23.75 L6.2375,10 L33.75,10 L33.7625,26.25 L12.8375,26.25 C12.35,26.25 11.8625,26.4 11.4625,26.675 L8.325,28.775 L5,31.0375 L5,32.5 L12.15,27.7125 C12.3625,27.575 12.6,27.5 12.8375,27.5 L33.7625,27.5 C34.4375,27.5 35,26.95 35,26.2625 L35,9.9875 C35,9.3 34.45,8.75 33.7625,8.75 Z" id="Path" fill="#101828" fill-rule="nonzero"></path>
                    <rect id="Rectangle" x="0" y="0" width="40" height="40"></rect>
                </g>
            </g>
        </g>
    </g>
</svg>