<?xml version="1.0" encoding="UTF-8"?>
<svg width="80px" height="80px" viewBox="0 0 80 80" version="1.1" xmlns="http://www.w3.org/2000/svg" xmlns:xlink="http://www.w3.org/1999/xlink">
    <!-- Generator: Sketch 58 (84663) - https://sketch.com -->
    <title>257-B80px</title>
    <desc>Created with Sketch.</desc>
    <g id="257-B80px" stroke="none" stroke-width="1" fill="none" fill-rule="evenodd">
        <g id="257-B32px">
            <g>
                <rect id="Rectangle" x="0" y="0" width="80" height="80"></rect>
                <path d="M42.325,55.275 C33.05,51.35 25.4,43.775 25.325,43.7 C25.2,43.575 13.35,31.525 11.75,19.525 C11.75,19.45 11.725,19.325 11.8,19.25 L18.25,12.825 C18.3,12.775 18.35,12.75 18.425,12.75 C18.5,12.75 18.55,12.775 18.55,12.8 L28.55,22.85 C28.625,22.925 28.625,23.05 28.525,23.15 L24.225,27.45 L23.025,28.65 L23.675,30.2 C23.775,30.45 26.175,36.1 29.55,39.475 C32.925,42.85 38.575,45.275 38.8,45.375 L40.35,46.025 L41.55,44.825 L45.85,40.525 C45.9,40.475 45.95,40.45 46.025,40.45 C46.1,40.45 46.15,40.475 46.15,40.5 L47.95,42.3 C48.65,41.8 49.4,41.375 50.175,41 L47.925,38.725 C47.4,38.2 46.7,37.925 46,37.95 C45.325,37.95 44.625,38.225 44.1,38.75 L39.8,43.05 C39.8,43.05 34.4,40.75 31.325,37.675 C28.25,34.6 25.975,29.2 25.975,29.2 L30.275,24.9 C31.35,23.85 31.35,22.125 30.3,21.075 L20.3,11.025 C19.8,10.5 19.1,10.25 18.375,10.25 C17.7,10.25 17,10.525 16.475,11.05 L10.05,17.475 C9.425,18.1 9.15,18.975 9.275,19.85 C11,32.875 23.55,45.45 23.55,45.45 C23.55,45.45 32.4,54.3 43.075,58.25 C42.725,57.3 42.475,56.3 42.325,55.275 Z" id="Path" fill="#000000" fill-rule="nonzero"></path>
                <path d="M54.575,41.775 L57.375,43.475 L54.625,45.25 L54.575,41.775 L54.575,41.775 Z M52,37.3 L52.175,49.8 L62.075,43.4 L52,37.3 L52,37.3 Z" id="Shape" fill="#000000" fill-rule="nonzero"></path>
                <g id="Group" transform="translate(42.500000, 42.500000)" fill="#000000" fill-rule="nonzero">
                    <path d="M6.125,19.475 L8.325,18.025 C6.175,16.45 4.75,13.975 4.7,11.1 C4.65,7.6 6.675,4.575 9.625,3.125 L9.575,0.45 C5.225,2.05 2.125,6.225 2.2,11.125 C2.25,14.5 3.8,17.45 6.125,19.475 Z" id="Path"></path>
                    <path d="M20.8,2.525 L18.6,3.975 C20.725,5.55 22.15,8.025 22.2,10.875 C22.25,14.35 20.25,17.375 17.325,18.825 L17.375,21.525 C21.7,19.9 24.8,15.75 24.725,10.85 C24.65,7.5 23.125,4.55 20.8,2.525 Z" id="Path"></path>
                </g>
                <path d="M57.325,61.725 L57.375,65.2 L54.575,63.5 L57.325,61.725 L57.325,61.725 Z M59.75,57.2 L49.85,63.6 L59.95,69.7 L59.75,57.2 L59.75,57.2 Z" id="Shape" fill="#101828" fill-rule="nonzero"></path>
            </g>
        </g>
    </g>
</svg>