<?xml version="1.0" encoding="UTF-8"?>
<svg width="56px" height="56px" viewBox="0 0 56 56" version="1.1" xmlns="http://www.w3.org/2000/svg" xmlns:xlink="http://www.w3.org/1999/xlink">
    <!-- Generator: Sketch 56.3 (81716) - https://sketch.com -->
    <title>044-G56px</title>
    <desc>Created with Sketch.</desc>
    <g id="NEW_icons" stroke="none" stroke-width="1" fill="none" fill-rule="evenodd">
        <g id="icons_UD_new-Copy" transform="translate(-446.000000, -5872.000000)">
            <g id="044-G56px" transform="translate(446.000000, 5872.000000)">
                <circle id="Oval-Copy-355" fill="#E3E8EC" cx="28" cy="28" r="28"></circle>
                <g id="044-B32px-Copy-7" transform="translate(8.000000, 8.000000)">
                    <path d="M21.725,27.7375 C21.65,27.825 20.1,29.3375 20.0375,29.3875 C20.025,29.375 20,29.3625 19.9875,29.35 C19.4625,28.8375 18.9375,28.325 18.4125,27.8125 C18.375,27.775 18.3625,27.7375 18.3625,27.6875 C18.3625,27.65 18.3625,27.625 18.3625,27.5875 C18.3625,22.8625 18.3625,18.15 18.3625,13.425 C18.3625,13.375 18.3625,13.3375 18.35,13.2875 C18.325,13.2875 18.3125,13.275 18.3,13.275 C18.2625,13.275 18.2375,13.275 18.2,13.275 C16.6,13.275 15,13.275 13.4,13.275 C13.3625,13.275 13.325,13.275 13.2875,13.275 C13.275,13.2375 13.3,13.225 13.3125,13.2125 C13.4625,13.05 13.625,12.9 13.775,12.75 C14.6625,11.8625 15.55,10.9625 16.4375,10.075 C16.4625,10.05 16.475,10.025 16.5,10 C18.8375,10 21.175,10 23.5125,10 C23.8,10.2625 26.7125,13.1375 26.7875,13.2625 C26.7875,13.275 26.7625,13.275 26.75,13.275 C26.7125,13.275 26.675,13.275 26.65,13.275 C25.05,13.275 23.45,13.275 21.85,13.275 C21.8125,13.275 21.7625,13.275 21.725,13.2875 C21.725,13.3125 21.7125,13.325 21.7125,13.3375 C21.7125,13.375 21.7125,13.4125 21.7125,13.4375 C21.7125,18.1625 21.7125,22.8875 21.7125,27.6125 C21.725,27.65 21.725,27.7 21.725,27.7375 Z" id="Path" fill="#101828" fill-rule="nonzero"></path>
                    <path d="M26.8375,22.6375 C25.9875,23.4875 25.125,24.325 24.275,25.175 C24.2375,25.1625 24.2125,25.1375 24.1875,25.1125 C23.7125,24.65 23.2375,24.1875 22.75,23.725 C22.4875,23.4625 22.225,23.2125 21.9625,22.95 C21.9375,22.925 21.925,22.9 21.9,22.875 C21.925,22.85 21.95,22.825 21.975,22.8 C22.475,22.3 22.9875,21.8 23.4875,21.3125 C23.5,21.3 23.525,21.275 23.5375,21.2625 C23.5625,21.2375 23.575,21.2125 23.575,21.1875 C23.575,21.1625 23.575,21.125 23.575,21.1 C23.575,19.0125 23.575,16.925 23.575,14.8375 C23.575,14.8 23.575,14.75 23.5875,14.7125 C23.6125,14.7125 23.6375,14.7125 23.6625,14.7 C24.475,14.6875 26.7375,14.7 26.8375,14.7125 C26.8375,14.7375 26.85,14.75 26.85,14.775 C26.85,14.875 26.85,14.9875 26.85,15.0875 C26.85,17.5625 26.85,20.05 26.85,22.525 C26.8375,22.55 26.8375,22.5875 26.8375,22.6375 Z" id="Path" fill="#101828" fill-rule="nonzero"></path>
                    <path d="M15.825,25.175 C15.8,25.15 15.775,25.125 15.75,25.1125 C14.95,24.3125 14.1375,23.5125 13.3375,22.725 C13.2375,22.625 13.2625,22.6625 13.2625,22.5375 C13.2625,19.9625 13.2625,17.4 13.2625,14.825 C13.2625,14.7875 13.2625,14.75 13.2625,14.7125 C13.2875,14.7125 13.3,14.7 13.325,14.7 C13.35,14.7 13.375,14.7 13.4,14.7 C14.4,14.7 15.4,14.7 16.4,14.7 C16.4375,14.7 16.4875,14.6875 16.5125,14.7125 C16.5125,14.725 16.525,14.725 16.525,14.725 C16.525,14.725 16.525,14.725 16.525,14.7375 C16.525,14.7375 16.525,14.75 16.525,14.75 C16.525,14.7625 16.525,14.7625 16.525,14.775 C16.525,14.775 16.525,14.7875 16.525,14.7875 C16.525,14.8 16.525,14.8125 16.525,14.8125 C16.525,16.95 16.525,19.075 16.525,21.2125 C16.525,21.2125 16.525,21.225 16.525,21.225 C16.525,21.225 16.525,21.2375 16.525,21.2375 C16.525,21.2375 16.525,21.2375 16.525,21.2625 C17.075,21.8 17.6375,22.3625 18.2,22.9125 C17.4,23.6375 16.6125,24.4 15.825,25.175 Z" id="Path" fill="#101828" fill-rule="nonzero"></path>
                    <path d="M23.725,8.5375 L28.3375,13.1375 L28.3375,23.6125 L20.025,31.1 L11.6625,23.7 L11.6625,13.1375 L16.2625,8.5375 L23.725,8.5375 L23.725,8.5375 Z M24.15,7.5 L15.825,7.5 L10.625,12.7125 L10.625,24.175 L20.0375,32.5 L29.375,24.0875 L29.375,12.7125 L24.15,7.5 L24.15,7.5 Z" id="Shape" fill="#101828" fill-rule="nonzero"></path>
                    <rect id="Rectangle" x="0" y="0" width="40" height="40"></rect>
                </g>
            </g>
        </g>
    </g>
</svg>