<?xml version="1.0" encoding="UTF-8"?>
<svg width="42px" height="42px" viewBox="0 0 42 42" version="1.1" xmlns="http://www.w3.org/2000/svg" xmlns:xlink="http://www.w3.org/1999/xlink">
    <!-- Generator: Sketch 57.1 (83088) - https://sketch.com -->
    <title>170-G40px</title>
    <desc>Created with Sketch.</desc>
    <g id="NEW_icons" stroke="none" stroke-width="1" fill="none" fill-rule="evenodd">
        <g id="icons_UD_new-Copy" transform="translate(-244.000000, -21858.000000)">
            <g id="170-G40px" transform="translate(245.000000, 21859.000000)">
                <circle id="Oval-Copy-969" stroke="#E3E8EC" cx="20" cy="20" r="20"></circle>
                <g id="170-B32px-Copy" transform="translate(4.000000, 4.000000)">
                    <path d="M26.98,9 L21.02,9 C21.02,9.34 20.98,9.67 20.92,10 L26.98,10 L27,10.02 L26.98,21.02 L5,21 L5.02,10 L11.12,10 C11.05,9.67 11.02,9.34 11.02,9 L5.02,9 C4.46,9 4,9.45 4,10.02 L4,21 C4,21.56 4.46,22.02 5.02,22.02 L26.98,22.02 C27.54,22.02 28,21.56 28,21 L28,10.02 C28,9.45 27.54,9 26.98,9 Z" id="Path" fill="#101828" fill-rule="nonzero"></path>
                    <path d="M16.02,6 C16.82,6 17.57,6.31 18.14,6.88 C19.31,8.05 19.31,9.95 18.14,11.12 C17.57,11.69 16.82,12 16.02,12 C15.22,12 14.47,11.69 13.9,11.12 C12.73,9.95 12.73,8.05 13.9,6.88 C14.46,6.31 15.22,6 16.02,6 L16.02,6 Z M16.02,5 C15,5 13.97,5.39 13.19,6.17 C11.63,7.73 11.63,10.26 13.19,11.83 C13.97,12.61 14.99,13 16.02,13 C17.05,13 18.07,12.61 18.85,11.83 C20.41,10.27 20.41,7.74 18.85,6.17 C18.06,5.39 17.04,5 16.02,5 L16.02,5 Z" id="Shape" fill="#101828" fill-rule="nonzero"></path>
                    <rect id="Rectangle" fill="#101828" fill-rule="nonzero" x="15.52" y="12.25" width="1" height="6.74"></rect>
                    <rect id="Rectangle" fill="#101828" fill-rule="nonzero" x="14.02" y="15.01" width="4" height="1"></rect>
                    <path d="M15.98,21.95 C11.67,21.95 8.45,22.61 7,22.97 L7,24 C8.23,23.68 11.54,22.95 15.98,22.95 C20.46,22.95 23.79,23.69 25,24.01 L25,22.98 C23.57,22.61 20.33,21.95 15.98,21.95 Z" id="Path" fill="#101828" fill-rule="nonzero"></path>
                    <rect id="Rectangle" x="0" y="0" width="32" height="32"></rect>
                </g>
            </g>
        </g>
    </g>
</svg>