<?xml version="1.0" encoding="UTF-8"?>
<svg width="80px" height="80px" viewBox="0 0 80 80" version="1.1" xmlns="http://www.w3.org/2000/svg" xmlns:xlink="http://www.w3.org/1999/xlink">
    <!-- Generator: Sketch 57.1 (83088) - https://sketch.com -->
    <title>009-B80px</title>
    <desc>Created with Sketch.</desc>
    <g id="009-B80px" stroke="none" stroke-width="1" fill="none" fill-rule="evenodd">
        <g>
            <path d="M15.45,52.975 C15.45,52.975 15.425,52.975 15.425,52.975 C14.825,52.95 14.325,52.5 14.225,51.9 C14.15,51.375 12.35,39 15.925,32.375 C18.675,27.325 22.925,23.075 28.6,19.725 C34.425,16.3 34.85,14.05 35.325,11.7 C35.45,11.075 36.1,10.575 36.65,10.6 C37.275,10.65 37.8,11.05 37.825,11.675 C38.375,21.025 36.475,28.475 32.475,32.675 C30.475,34.775 28.45,36.425 26.5,38.025 C22.025,41.675 18.175,44.825 16.675,52 C16.55,52.575 16.05,52.975 15.45,52.975 Z M35.35,17.6 C34.225,18.925 32.525,20.325 29.85,21.9 C24.6,25 20.65,28.925 18.125,33.575 C16.375,36.775 16.1,41.75 16.225,45.65 C18.375,41.4 21.575,38.8 24.925,36.075 C26.825,34.525 28.775,32.925 30.675,30.95 C33.375,28.125 34.975,23.5 35.35,17.6 Z" id="Shape" fill="#101828" fill-rule="nonzero"></path>
            <path d="M31.125,66.8 C31.125,66.8 31.1,66.8 31.1,66.8 C30.5,66.775 30,66.325 29.9,65.725 C29.8,65.05 27.45,49.025 32.1,40.5 C35.65,33.975 41.15,28.475 48.475,24.175 C56.2,19.6 56.8,16.625 57.425,13.45 L57.475,13.175 C57.6,12.55 58.125,12.15 58.775,12.175 C59.4,12.225 59.9,12.725 59.925,13.35 C60.65,25.425 58.2,35.05 53.05,40.45 C50.45,43.175 47.825,45.3 45.3,47.375 C39.425,52.175 34.325,56.325 32.375,65.8 C32.225,66.4 31.725,66.8 31.125,66.8 Z M57.5,19.95 C56.1,21.85 53.775,23.95 49.7,26.35 C42.775,30.425 37.6,35.6 34.275,41.725 C31.725,46.4 31.55,53.925 31.8,59.225 C34.55,52.9 39.025,49.275 43.7,45.45 C46.175,43.425 48.725,41.35 51.225,38.725 C55,34.825 57.15,28.275 57.5,19.95 Z" id="Shape" fill="#101828" fill-rule="nonzero"></path>
            <path d="M49.3,69.1 C49.3,69.1 49.275,69.1 49.275,69.1 C48.675,69.075 48.15,68.625 48.075,68.025 C48.025,67.65 46.725,58.75 49.325,53.95 C51.3,50.3 54.375,47.25 58.45,44.85 C62.425,42.5 62.725,41.075 63.05,39.4 C63.175,38.775 63.725,38.3 64.375,38.325 C65,38.375 65.525,38.8 65.55,39.425 C65.95,46.15 64.575,51.55 61.65,54.6 C60.2,56.1 58.775,57.275 57.375,58.425 C54.125,61.075 51.575,63.175 50.525,68.125 C50.4,68.675 49.9,69.1 49.3,69.1 Z M62.975,44.65 C62.2,45.4 61.15,46.175 59.725,47.025 C56.05,49.2 53.3,51.925 51.55,55.175 C50.55,57.025 50.25,59.75 50.225,62.2 C51.725,59.8 53.75,58.175 55.825,56.475 C57.15,55.375 58.525,54.275 59.875,52.875 C61.525,51.075 62.6,48.25 62.975,44.65 Z" id="Shape" fill="#101828" fill-rule="nonzero"></path>
            <rect id="Rectangle" x="0" y="0" width="80" height="80"></rect>
        </g>
    </g>
</svg>