<?xml version="1.0" encoding="UTF-8"?>
<svg width="80px" height="80px" viewBox="0 0 80 80" version="1.1" xmlns="http://www.w3.org/2000/svg" xmlns:xlink="http://www.w3.org/1999/xlink">
    <!-- Generator: Sketch 57.1 (83088) - https://sketch.com -->
    <title>076-G80px</title>
    <desc>Created with Sketch.</desc>
    <g id="NEW_icons" stroke="none" stroke-width="1" fill="none" fill-rule="evenodd">
        <g id="icons_UD_new-Copy" transform="translate(-768.000000, -10024.000000)">
            <g id="076-G80px" transform="translate(768.000000, 10024.000000)">
                <circle id="Oval-Copy-487" fill="#E3E8EC" cx="40" cy="40" r="40"></circle>
                <g id="076-B32px-Copy-9" transform="translate(12.000000, 12.000000)">
                    <path d="M40.1625,8.75 C40.215,8.75 40.25,8.785 40.25,8.8375 L40.25,47.1625 C40.25,47.215 40.215,47.25 40.1625,47.25 L15.8375,47.25 C15.785,47.25 15.75,47.215 15.75,47.1625 L15.75,8.8375 C15.75,8.785 15.785,8.75 15.8375,8.75 L40.1625,8.75 L40.1625,8.75 Z M40.1625,7 L15.8375,7 C14.8225,7 14,7.8225 14,8.8375 L14,47.1625 C14,48.1775 14.8225,49 15.8375,49 L40.1625,49 C41.1775,49 42,48.1775 42,47.1625 L42,8.8375 C42,7.8225 41.1775,7 40.1625,7 L40.1625,7 Z" id="Shape" fill="#101828" fill-rule="nonzero"></path>
                    <path d="M28,45.5 C28.4725,45.5 28.875,45.115 28.875,44.625 C28.875,44.135 28.4725,43.75 28,43.75 C27.5275,43.75 27.125,44.135 27.125,44.625 C27.125,45.115 27.5275,45.5 28,45.5" id="Path" fill="#101828" fill-rule="nonzero"></path>
                    <rect id="Rectangle" fill="#101828" fill-rule="nonzero" x="14" y="40.25" width="28" height="1.75"></rect>
                    <rect id="Rectangle" fill="#101828" fill-rule="nonzero" x="33.25" y="15.75" width="3.5" height="17.5"></rect>
                    <path d="M30.3275,21 L30.3275,31.5 L30.3275,21 L30.3275,21 Z M32.0775,19.25 L28.5775,19.25 L28.5775,33.25 L32.0775,33.25 L32.0775,19.25 L32.0775,19.25 Z" id="Shape" fill="#101828" fill-rule="nonzero"></path>
                    <path d="M25.6725,24.5 L25.6725,31.5 L25.6725,24.5 L25.6725,24.5 Z M27.4225,22.75 L23.9225,22.75 L23.9225,33.25 L27.4225,33.25 L27.4225,22.75 L27.4225,22.75 Z" id="Shape" fill="#101828" fill-rule="nonzero"></path>
                    <path d="M21,28 L21,31.5 L21,28 L21,28 Z M22.75,26.25 L19.25,26.25 L19.25,33.25 L22.75,33.25 L22.75,26.25 L22.75,26.25 Z" id="Shape" fill="#101828" fill-rule="nonzero"></path>
                    <rect id="Rectangle" x="0" y="0" width="56" height="56"></rect>
                </g>
            </g>
        </g>
    </g>
</svg>