<?xml version="1.0" encoding="UTF-8"?>
<svg width="42px" height="42px" viewBox="0 0 42 42" version="1.1" xmlns="http://www.w3.org/2000/svg" xmlns:xlink="http://www.w3.org/1999/xlink">
    <!-- Generator: Sketch 57.1 (83088) - https://sketch.com -->
    <title>234-G40px</title>
    <desc>Created with Sketch.</desc>
    <g id="NEW_icons" stroke="none" stroke-width="1" fill="none" fill-rule="evenodd">
        <g id="icons_UD_new-Copy" transform="translate(-244.000000, -29895.000000)">
            <g id="234-G40px" transform="translate(245.000000, 29896.000000)">
                <circle id="Oval-Copy-1357" stroke="#E3E8EC" cx="20" cy="20" r="20"></circle>
                <g id="234-B32px-Copy" transform="translate(4.000000, 6.000000)">
                    <path d="M4,4 L4,7 C4,9.96 4.6,14.89 5.82,17.59 C7.49,21.28 10.56,25.82 16,28 C18.25,27.1 20.07,25.79 21.58,24.3 L20.64,23.83 C19.36,25.04 17.83,26.13 16,26.91 C11.02,24.77 8.21,20.45 6.73,17.17 C5.65,14.79 5,10.12 5,7 L5,5 L27,5 L27,7 C27,10.13 26.35,14.79 25.27,17.18 C24.92,17.96 24.49,18.8 23.97,19.65 L23.97,21.47 C24.88,20.16 25.62,18.83 26.18,17.59 C27.4,14.89 28,9.96 28,7 L28,4 L4,4 Z" id="Path" fill="#101828" fill-rule="nonzero"></path>
                    <path d="M16.28,16 L11.04,16 C11.02,16 11,15.98 11,15.95 L11,8.05 C11,8.02 11.02,8 11.05,8 L20.96,8 C20.98,8 21,8.02 21,8.05 L21,10.05 C21.35,10.09 21.68,10.17 22,10.28 L22,8.05 C22,7.47 21.53,7 20.95,7 L11.04,7 C10.47,7 10,7.47 10,8.05 L10,15.95 C10,16.53 10.47,17 11.05,17 L16.78,17 C16.57,16.69 16.41,16.35 16.28,16 Z" id="Path" fill="#101828" fill-rule="nonzero"></path>
                    <path d="M20.5,12 C21.88,12 23,13.12 23,14.5 C23,15.88 21.88,17 20.5,17 C19.12,17 18,15.88 18,14.5 C18,13.12 19.12,12 20.5,12 L20.5,12 Z M20.5,11 C18.57,11 17,12.57 17,14.5 C17,16.43 18.57,18 20.5,18 C22.43,18 24,16.43 24,14.5 C24,12.57 22.43,11 20.5,11 L20.5,11 Z" id="Shape" fill="#101828" fill-rule="nonzero"></path>
                    <path d="M20.5,14 C20.78,14 21,14.23 21,14.5 C21,14.78 20.77,15 20.5,15 C20.22,15 20,14.77 20,14.5 C20,14.23 20.22,14 20.5,14 L20.5,14 Z M20.5,13 C19.67,13 19,13.67 19,14.5 C19,15.33 19.67,16 20.5,16 C21.33,16 22,15.33 22,14.5 C22,13.67 21.33,13 20.5,13 L20.5,13 Z" id="Shape" fill="#101828" fill-rule="nonzero"></path>
                    <rect id="Rectangle" fill="#101828" fill-rule="nonzero" x="13" y="12" width="3" height="1"></rect>
                    <rect id="Rectangle" fill="#101828" fill-rule="nonzero" x="13" y="10" width="4" height="1"></rect>
                    <path d="M22,17.76 L22,22.36 L20.96,21.82 L20.5,21.58 L20.04,21.82 L19,22.36 L19,17.78 C19.42,17.93 19.91,18.02 20.48,18.02 C21.07,18.01 21.57,17.91 22,17.76 L22,17.76 Z M23,15.62 C23,15.62 22.5,17.01 20.48,17.01 C18.45,17.01 18,15.62 18,15.62 L18,24 L20.5,22.7 L23,24 L23,15.62 L23,15.62 Z" id="Shape" fill="#101828" fill-rule="nonzero"></path>
                    <rect id="Rectangle" x="0" y="0" width="32" height="32"></rect>
                </g>
            </g>
        </g>
    </g>
</svg>