<?xml version="1.0" encoding="UTF-8"?>
<svg width="32px" height="32px" viewBox="0 0 32 32" version="1.1" xmlns="http://www.w3.org/2000/svg" xmlns:xlink="http://www.w3.org/1999/xlink">
    <!-- Generator: Sketch 58 (84663) - https://sketch.com -->
    <title>256-B32px</title>
    <desc>Created with Sketch.</desc>
    <g id="256-B32px" stroke="none" stroke-width="1" fill="none" fill-rule="evenodd">
        <g>
            <path d="M17.32,22.26 C13.5,20.67 10.32,17.44 10.28,17.4 C10.24,17.34 5.57,12.46 5,7.65 C5,7.62 5,7.57 5.03,7.54 L7.65,5.01 C7.67,4.99 7.69,4.98 7.72,4.98 C7.75,4.98 7.77,5 7.77,5 L11.72,9.08 C11.75,9.11 11.74,9.17 11.71,9.2 L9.96,10.89 L9.48,11.36 L9.73,11.98 C9.77,12.08 10.7,14.35 12.03,15.72 C13.36,17.09 15.6,18.1 15.7,18.14 L16.32,18.41 L16.8,17.94 L18.55,16.25 C18.57,16.23 18.59,16.22 18.62,16.22 C18.65,16.22 18.67,16.24 18.67,16.24 L19.98,17.6 L20.49,16.69 L19.38,15.54 C19.17,15.32 18.89,15.21 18.61,15.21 C18.34,15.21 18.06,15.31 17.85,15.52 L16.1,17.21 C16.1,17.21 13.96,16.26 12.75,15.01 C11.54,13.76 10.66,11.59 10.66,11.59 L12.41,9.9 C12.84,9.48 12.86,8.8 12.44,8.37 L8.48,4.3 C8.27,4.09 7.99,3.98 7.71,3.98 C7.44,3.98 7.16,4.08 6.95,4.29 L4.33,6.82 C4.08,7.07 3.97,7.41 4.01,7.76 C4.63,12.98 9.57,18.08 9.57,18.08 C9.57,18.08 12.8,21.42 16.83,23.13 L17.32,22.26 Z" id="Path" fill="#101828" fill-rule="nonzero"></path>
            <path d="M22,17.99 L22.03,18.02 L26.98,26.83 C26.99,26.84 27.01,26.88 26.99,26.94 C26.98,26.98 26.96,27 26.95,27 L17.04,27 C17.03,27 17.01,26.98 17,26.94 C16.98,26.89 17.01,26.85 17.01,26.83 L21.96,18.02 C21.98,18.01 21.99,17.99 22,17.99 L22,17.99 Z M22,16.99 C21.65,16.99 21.3,17.17 21.1,17.53 L16.15,26.34 C15.74,27.07 16.24,27.99 17.05,27.99 L26.96,27.99 C27.77,27.99 28.27,27.07 27.86,26.34 L22.91,17.53 C22.7,17.17 22.35,16.99 22,16.99 L22,16.99 Z" id="Shape" fill="#101828" fill-rule="nonzero"></path>
            <rect id="Rectangle" fill="#101828" fill-rule="nonzero" x="21.5" y="19.99" width="1" height="4"></rect>
            <rect id="Rectangle" fill="#101828" fill-rule="nonzero" x="21.5" y="24.99" width="1" height="1"></rect>
            <rect id="Rectangle" x="0" y="0" width="32" height="32"></rect>
        </g>
    </g>
</svg>