<?xml version="1.0" encoding="UTF-8"?>
<svg width="56px" height="56px" viewBox="0 0 56 56" version="1.1" xmlns="http://www.w3.org/2000/svg" xmlns:xlink="http://www.w3.org/1999/xlink">
    <!-- Generator: Sketch 57.1 (83088) - https://sketch.com -->
    <title>143-G56px</title>
    <desc>Created with Sketch.</desc>
    <g id="NEW_icons" stroke="none" stroke-width="1" fill="none" fill-rule="evenodd">
        <g id="icons_UD_new-Copy" transform="translate(-1726.000000, -18326.000000)">
            <g id="143-G56px" transform="translate(1726.000000, 18326.000000)">
                <circle id="Oval-Copy-8" fill="#E3E8EC" cx="28" cy="28" r="28"></circle>
                <g id="143-B32px-Copy-3" transform="translate(8.000000, 8.000000)">
                    <path d="M34.75,11.5 C34.625,11.375 34.375,11.25 34.25,11.25 L34.25,11.25 L32.5,11.25 L32.5,11 C32.5,10.625 32.25,10.375 31.875,10.25 C31.5,10.125 28.375,9.625 25.375,10.125 C22.875,10.5 20.75,11.625 19.875,12.125 C19,11.625 17,10.625 14.375,10.125 C11.375,9.625 8.25,10.125 7.875,10.25 C7.75,10.375 7.5,10.625 7.5,11 L7.5,11.25 L5.75,11.25 L5.75,11.25 C5.5,11.25 5.375,11.25 5.25,11.5 C5.125,11.625 5,11.875 5,12 L5,12.375 L5,30 L5,30.375 C5,30.625 5.125,30.875 5.375,31.125 C5.5,31.125 5.625,31.25 5.75,31.25 C5.875,31.25 6,31.25 6.125,31.125 C6.125,31.125 8.5,29.75 11.75,29.5 C15.375,29.25 19.75,30.375 19.75,30.375 C19.75,30.375 19.75,30.375 19.75,30.375 C19.75,30.375 19.875,30.375 19.875,30.375 C19.875,30.375 19.875,30.375 19.875,30.375 L19.875,30.375 C19.875,30.375 19.875,30.375 19.875,30.375 C19.875,30.375 20,30.375 20,30.375 C20,30.375 20,30.375 20,30.375 C20,30.375 24.375,29.125 28,29.5 C31.25,29.75 33.5,31.125 33.625,31.125 C33.75,31.25 33.875,31.25 34,31.25 C34.125,31.25 34.25,31.25 34.375,31.125 C34.625,31 34.75,30.75 34.75,30.375 L34.75,30 L34.75,12.375 L34.75,12 C35,11.875 34.875,11.625 34.75,11.5 Z M8.75,26.25 L8.75,12.5 L8.75,11.375 C9.75,11.25 12.25,11 14.25,11.375 C16.5,11.75 18.625,12.875 19.375,13.25 L19.375,28 C18.125,27.375 16.375,26.75 14.25,26.375 C13.25,26.25 12.375,26.25 11.375,26.25 C10.375,26.25 9.375,26.375 8.75,26.5 L8.75,26.25 L8.75,26.25 Z M11.5,28.25 C9.375,28.375 7.25,29.25 6.25,29.75 L6.25,12.5 C6.25,12.5 7.5,12.5 7.5,12.5 L7.5,26.25 L7.5,27.125 C7.5,27.375 7.625,27.5 7.75,27.625 C7.875,27.75 8.125,27.75 8.375,27.75 C8.375,27.75 10.375,27.375 12.25,27.5 C15.125,27.625 17.625,28.5 17.625,28.5 C15.125,28.125 12.5,28.125 11.5,28.25 Z M20.625,13.25 C21.375,12.875 23.375,11.75 25.75,11.375 C27.875,11 30.25,11.25 31.25,11.375 L31.25,12.5 L31.25,26.25 L31.25,26.25 L31.25,26.5 C30.625,26.375 29.625,26.25 28.625,26.25 C27.625,26.25 26.75,26.375 25.75,26.5 C23.625,26.75 21.75,27.5 20.625,28.125 L20.625,13.25 Z M33.75,29.75 C32.625,29.25 30.625,28.5 28.5,28.25 C27.5,28.125 25,28.125 22.5,28.625 C22.5,28.625 25,27.75 27.875,27.625 C29.625,27.5 31.75,27.875 31.75,27.875 C32,27.875 32.125,27.875 32.375,27.75 C32.5,27.625 32.625,27.375 32.625,27.25 L32.625,26.25 L32.625,12.5 C32.625,12.5 33.875,12.5 33.875,12.5 L33.75,29.75 Z" id="Shape" fill="#101828" fill-rule="nonzero"></path>
                    <rect id="Rectangle" x="0" y="0" width="40" height="40"></rect>
                </g>
            </g>
        </g>
    </g>
</svg>