<?xml version="1.0" encoding="UTF-8"?>
<svg width="56px" height="56px" viewBox="0 0 56 56" version="1.1" xmlns="http://www.w3.org/2000/svg" xmlns:xlink="http://www.w3.org/1999/xlink">
    <!-- Generator: Sketch 57.1 (83088) - https://sketch.com -->
    <title>184-G56px</title>
    <desc>Created with Sketch.</desc>
    <g id="NEW_icons" stroke="none" stroke-width="1" fill="none" fill-rule="evenodd">
        <g id="icons_UD_new-Copy" transform="translate(-446.000000, -23603.000000)">
            <g id="184-G56px" transform="translate(446.000000, 23603.000000)">
                <circle id="Oval-Copy-1244" fill="#E3E8EC" cx="28" cy="28" r="28"></circle>
                <g id="184-B32px-Copy-3" transform="translate(8.000000, 8.000000)">
                    <rect id="Rectangle" fill="#101828" fill-rule="nonzero" x="21.175" y="32.5" width="8.825" height="1.25"></rect>
                    <rect id="Rectangle" fill="#101828" fill-rule="nonzero" x="10.125" y="32.5" width="8.7" height="1.25"></rect>
                    <path d="M20.075,22.4875 C20.4125,22.4875 20.7,22.7625 20.7,23.1125 C20.7,23.4625 20.425,23.7375 20.075,23.7375 C19.7375,23.7375 19.45,23.4625 19.45,23.1125 C19.45,22.775 19.725,22.4875 20.075,22.4875 L20.075,22.4875 Z M20.05,21.2375 C19.025,21.2375 18.1875,22.075 18.1875,23.1125 C18.1875,24.15 19.025,24.9875 20.05,24.9875 C21.075,24.9875 21.9125,24.15 21.9125,23.1125 C21.925,22.0875 21.0875,21.2375 20.05,21.2375 L20.05,21.2375 Z" id="Shape" fill="#101828" fill-rule="nonzero"></path>
                    <path d="M18.2125,27.4875 C18.55,27.4875 18.8375,27.7625 18.8375,28.1125 C18.8375,28.4625 18.5625,28.7375 18.2125,28.7375 C17.875,28.7375 17.5875,28.4625 17.5875,28.1125 C17.5875,27.775 17.8625,27.4875 18.2125,27.4875 L18.2125,27.4875 Z M18.2,26.2375 C17.175,26.2375 16.3375,27.075 16.3375,28.1125 C16.3375,29.15 17.175,29.9875 18.2,29.9875 C19.225,29.9875 20.0625,29.15 20.0625,28.1125 C20.0625,27.0875 19.225,26.2375 18.2,26.2375 L18.2,26.2375 Z" id="Shape" fill="#101828" fill-rule="nonzero"></path>
                    <path d="M20.125,32.5 C20.4625,32.5 20.75,32.775 20.75,33.125 C20.75,33.475 20.475,33.75 20.125,33.75 C19.775,33.75 19.5,33.475 19.5,33.125 C19.5,32.775 19.7875,32.5 20.125,32.5 L20.125,32.5 Z M20.1125,31.25 C19.0875,31.25 18.25,32.0875 18.25,33.125 C18.25,34.1625 19.0875,35 20.1125,35 C21.1375,35 21.975,34.1625 21.975,33.125 C21.975,32.0875 21.1375,31.25 20.1125,31.25 L20.1125,31.25 Z" id="Shape" fill="#101828" fill-rule="nonzero"></path>
                    <rect id="Rectangle" fill="#101828" fill-rule="nonzero" x="21.3" y="22.4875" width="8.7" height="1.25"></rect>
                    <rect id="Rectangle" fill="#101828" fill-rule="nonzero" x="10.125" y="22.4875" width="8.25" height="1.25"></rect>
                    <rect id="Rectangle" fill="#101828" fill-rule="nonzero" x="19.1875" y="27.4875" width="10.8125" height="1.25"></rect>
                    <rect id="Rectangle" fill="#101828" fill-rule="nonzero" x="10.125" y="27.4875" width="6.7" height="1.25"></rect>
                    <g id="Group" transform="translate(10.000000, 5.000000)" fill="#101828" fill-rule="nonzero">
                        <path d="M6.8625,10.3125 L5.975,9.4375 L6.4125,8.9875 C7.375,8 8.675,7.45 10.05,7.45 C11.4125,7.45 12.7,7.9875 13.6625,8.9625 L14.1,9.4125 L13.2125,10.2875 L12.775,9.85 C11.3125,8.3625 8.75,8.375 7.2875,9.875 L6.8625,10.3125 Z" id="Path"></path>
                        <path d="M3.925,7.8125 L3.0375,6.9375 L3.475,6.4875 C5.225,4.6875 7.575,3.7 10.0625,3.7 C12.5375,3.7 14.8625,4.675 16.6125,6.45 L17.05,6.8875 L16.175,7.775 L15.7375,7.3375 C14.225,5.8 12.2125,4.9625 10.075,4.9625 C7.9125,4.9625 5.8875,5.825 4.3625,7.375 L3.925,7.8125 Z" id="Path"></path>
                        <path d="M0.8875,5.3625 L0,4.4875 L0.4375,4.0375 C2.975,1.4375 6.3625,0 9.975,0 C13.55,0 16.925,1.4125 19.45,3.975 L19.8875,4.4125 L19.0125,5.3 L18.575,4.8625 C16.275,2.5375 13.225,1.25 9.975,1.25 C6.7,1.25 3.625,2.55 1.3125,4.925 L0.8875,5.3625 Z" id="Path"></path>
                    </g>
                    <rect id="Rectangle" x="0" y="0" width="40" height="40"></rect>
                </g>
            </g>
        </g>
    </g>
</svg>