<?xml version="1.0" encoding="UTF-8"?>
<svg width="56px" height="56px" viewBox="0 0 56 56" version="1.1" xmlns="http://www.w3.org/2000/svg" xmlns:xlink="http://www.w3.org/1999/xlink">
    <!-- Generator: Sketch 57.1 (83088) - https://sketch.com -->
    <title>060-B56px</title>
    <desc>Created with Sketch.</desc>
    <g id="060-B56px" stroke="none" stroke-width="1" fill="none" fill-rule="evenodd">
        <g>
            <path d="M36.75,32.9 C34.825,32.9 33.075,32.2 31.85,30.625 L28,26.775 L24.325,30.8 C22.925,32.2 21.175,33.075 19.425,33.075 C17.5,33.075 15.75,32.375 14.525,30.8 C11.9,27.825 11.9,23.1 14.525,20.3 C15.925,18.9 17.675,18.025 19.425,18.025 C21.35,18.025 23.1,18.725 24.325,20.3 L28,24.325 L31.675,20.3 C33.075,18.9 34.825,18.025 36.575,18.025 C38.5,18.025 40.25,18.725 41.475,20.3 C44.1,23.275 44.1,28 41.475,30.8 C40.425,32.025 38.5,32.9 36.75,32.9 Z M29.225,25.375 L33.075,29.4 C35,31.5 38.5,31.5 40.425,29.4 C42.525,27.125 42.525,23.45 40.425,21.175 C38.5,19.075 35,19.075 33.075,21.175 L29.225,25.375 Z M19.25,19.6 C17.85,19.6 16.625,20.125 15.575,21.175 C13.475,23.45 13.475,27.125 15.575,29.4 C17.5,31.5 21,31.5 22.925,29.4 L26.775,25.375 L22.925,21.35 C22.05,20.3 20.65,19.6 19.25,19.6 Z" id="Shape" fill="#101828" fill-rule="nonzero"></path>
            <path d="M47.25,12.25 L8.75,12.25 C7.7,12.25 7,12.95 7,14 L7,33.25 L8.75,33.25 L8.75,14 L47.25,14 L47.25,36.75 L18.025,36.75 C17.325,36.75 16.625,36.925 16.1,37.275 L10.325,41.125 L7,43.4 L7,45.5 L16.975,38.85 C17.325,38.675 17.675,38.5 17.85,38.5 L47.25,38.5 C48.125,38.5 49,37.8 49,36.75 L49,14 C49,12.95 48.3,12.25 47.25,12.25 Z" id="Path" fill="#101828" fill-rule="nonzero"></path>
            <rect id="Rectangle" x="0" y="0" width="56" height="56"></rect>
        </g>
    </g>
</svg>