<?xml version="1.0" encoding="UTF-8"?>
<svg width="32px" height="32px" viewBox="0 0 32 32" version="1.1" xmlns="http://www.w3.org/2000/svg" xmlns:xlink="http://www.w3.org/1999/xlink">
    <!-- Generator: Sketch 57.1 (83088) - https://sketch.com -->
    <title>160-B32px</title>
    <desc>Created with Sketch.</desc>
    <g id="160-B32px" stroke="none" stroke-width="1" fill="none" fill-rule="evenodd">
        <g>
            <path d="M16.5,23.5 C16.22,23.5 16,23.72 16,24 C16,24.28 16.22,24.5 16.5,24.5 C16.78,24.5 17,24.28 17,24 C17,23.72 16.78,23.5 16.5,23.5 L16.5,23.5 Z" id="Path" fill="#101828" fill-rule="nonzero"></path>
            <path d="M26.95,13 L21.05,13 C20.47,13 20,13.47 20,14.05 L20,22 L20,23 L20,24.95 C20,25.53 20.47,26 21.05,26 L26.95,26 C27.53,26 28,25.53 28,24.95 L28,23 L28,22 L28,14.05 C28,13.47 27.53,13 26.95,13 Z M27,24.95 C27,24.98 26.98,25 26.95,25 L21.05,25 C21.02,25 21,24.98 21,24.95 L21,23 L27,23 L27,24.95 Z M21,22 L21,14.05 C21,14.02 21.02,14 21.05,14 L26.95,14 C26.98,14 27,14.02 27,14.05 L27,22 L21,22 Z" id="Shape" fill="#101828" fill-rule="nonzero"></path>
            <path d="M24,23.5 C23.72,23.5 23.5,23.72 23.5,24 C23.5,24.28 23.72,24.5 24,24.5 C24.28,24.5 24.5,24.28 24.5,24 C24.5,23.72 24.28,23.5 24,23.5 L24,23.5 Z" id="Path" fill="#101828" fill-rule="nonzero"></path>
            <path d="M20.95,10 L13.3,10 C13.3,10 13.3,10 13.3,10 C13.47,10.14 13.64,10.28 13.79,10.45 C13.87,10.53 13.94,10.63 14.01,10.71 C14.09,10.81 14.17,10.89 14.24,11 L14.24,11 L20.95,11 C20.98,11 21,11.02 21,11.05 L21,12 L22,12 L22,11.05 C22,10.47 21.53,10 20.95,10 Z" id="Path" fill="#101828" fill-rule="nonzero"></path>
            <path d="M26.98,7 L5.02,7 C4.46,7 4,7.46 4,8.02 L4,19 C4,19.56 4.46,20.02 5.02,20.02 L7,20.02 L7,19 L5,19 L5.02,8 L26.98,8 L27,8.02 L26.99,12 L27.72,12 C27.82,12 27.9,12.03 28,12.06 L28,8.02 C28,7.46 27.54,7 26.98,7 Z" id="Path" fill="#101828" fill-rule="nonzero"></path>
            <g id="Group" transform="translate(7.000000, 10.000000)" fill="#101828" fill-rule="nonzero">
                <path d="M7,3.5 C7,1.57 5.43,0 3.5,0 C1.57,0 0,1.57 0,3.5 C0,4.45 0.38,5.31 1,5.94 L1,13 L3.5,11.7 L6,13 L6,5.94 C6.62,5.31 7,4.45 7,3.5 Z M3.5,1 C4.88,1 6,2.12 6,3.5 C6,4.88 4.88,6 3.5,6 C2.12,6 1,4.88 1,3.5 C1,2.12 2.12,1 3.5,1 Z M5,11.36 L3.96,10.82 L3.5,10.58 L3.04,10.82 L2,11.36 L2,6.78 C2.42,6.93 2.91,7.02 3.48,7.02 C4.07,7.02 4.57,6.92 5,6.77 L5,11.36 Z" id="Shape"></path>
                <path d="M3.5,5.01 C4.33,5.01 5,4.34 5,3.51 C5,2.68 4.33,2 3.5,2 C2.67,2 2,2.67 2,3.51 C2,4.35 2.67,5.01 3.5,5.01 Z M3.5,3 C3.78,3 4,3.23 4,3.5 C4,3.78 3.77,4 3.5,4 C3.23,4 3,3.77 3,3.5 C3,3.23 3.22,3 3.5,3 Z" id="Shape"></path>
            </g>
            <g id="Group" transform="translate(11.000000, 22.000000)" fill="#101828" fill-rule="nonzero">
                <rect id="Rectangle" x="3" y="0" width="5" height="1"></rect>
                <path d="M8,3.72 L8,3 L1.05,3 C1.02,3 1,2.98 1,2.95 L1,1.81 L0,1.28 L0,2.95 C0,3.53 0.47,4 1.05,4 L8.05,4 C8.04,3.91 8,3.82 8,3.72 Z" id="Path"></path>
            </g>
            <rect id="Rectangle" x="0" y="0" width="32" height="32"></rect>
        </g>
    </g>
</svg>