<?xml version="1.0" encoding="UTF-8"?>
<svg width="56px" height="56px" viewBox="0 0 56 56" version="1.1" xmlns="http://www.w3.org/2000/svg" xmlns:xlink="http://www.w3.org/1999/xlink">
    <!-- Generator: Sketch 57.1 (83088) - https://sketch.com -->
    <title>188-G56px</title>
    <desc>Created with Sketch.</desc>
    <g id="NEW_icons" stroke="none" stroke-width="1" fill="none" fill-rule="evenodd">
        <g id="icons_UD_new-Copy" transform="translate(-446.000000, -24110.000000)">
            <g id="188-G56px" transform="translate(446.000000, 24110.000000)">
                <circle id="Oval-Copy-1256" fill="#E3E8EC" cx="28" cy="28" r="28"></circle>
                <g id="188-B32px-Copy-3" transform="translate(8.000000, 8.000000)">
                    <path d="M18.75,9.75 L20.1375,10.625 L18.75,11.5 L18.75,9.75 L18.75,9.75 Z M17.5,7.5 L17.5,13.75 L22.5,10.625 L17.5,7.5 L17.5,7.5 Z" id="Shape" fill="#101828" fill-rule="nonzero"></path>
                    <path d="M21.25,28.5 L21.25,30.2375 L19.8625,29.3625 L21.25,28.5 L21.25,28.5 Z M22.5,26.25 L17.5,29.375 L22.5,32.5 L22.5,26.25 L22.5,26.25 Z" id="Shape" fill="#101828" fill-rule="nonzero"></path>
                    <path d="M6.2,11.25 L18.125,11.25 L18.125,10 L6.2,10 C5.5375,10 5,10.5375 5,11.2 L5,28.7875 C5,29.4625 5.5375,30 6.2,30 L16.1875,30 L16.1875,28.7625 L6.25,28.8 L6.2,11.25 Z" id="Path" fill="#101828" fill-rule="nonzero"></path>
                    <path d="M33.6625,10 L23.75,10 L23.75,11.25 L33.6625,11.25 C33.7125,11.25 33.75,11.2875 33.75,11.3375 L33.75,28.65 C33.75,28.7 33.7125,28.7375 33.6625,28.7375 L22.5,28.7375 L22.5,29.9875 L33.6625,29.9875 C34.4,29.9875 35,29.3875 35,28.65 L35,11.3375 C35,10.6 34.4,10 33.6625,10 Z" id="Path" fill="#101828" fill-rule="nonzero"></path>
                    <path d="M12.5125,23.75 C10.35,23.75 8.75,22.25 8.75,20 C8.75,17.75 10.4125,16.25 12.5625,16.25 C14.1,16.25 15.2125,17.05 15.7375,18.0125 L14.575,18.7 C14.125,17.9625 13.5125,17.5 12.525,17.5 C11.2375,17.5 10.1625,18.4625 10.1625,19.9875 C10.1625,21.475 11.2125,22.475 12.525,22.475 C13.45,22.475 14.1375,22.075 14.6625,21.325 L15.825,21.975 C14.9875,23.1875 14.1125,23.75 12.5125,23.75 Z" id="Path" fill="#101828" fill-rule="nonzero"></path>
                    <path d="M18.1625,20.7125 L18.1625,23.75 L16.8125,23.75 L16.8125,16.25 L19.8625,16.25 C21.4375,16.25 22.4,17.075 22.4,18.375 C22.4,19.5375 21.7375,20.2125 20.7625,20.5875 L22.5,23.75 L20.9625,23.75 L19.3125,20.7125 L18.1625,20.7125 Z M19.8625,19.4625 C20.6875,19.4625 21.0625,19.075 21.0625,18.475 C21.0625,17.875 20.7,17.4875 19.8625,17.4875 L18.1625,17.4875 L18.1625,19.4625 L19.8625,19.4625 L19.8625,19.4625 Z" id="Shape" fill="#101828" fill-rule="nonzero"></path>
                    <polygon id="Path" fill="#101828" fill-rule="nonzero" points="25.1875 16.25 27.5 22.2125 29.8125 16.25 31.25 16.25 31.25 23.75 30 23.75 30 19.2375 29.5625 20.3 28.15 23.75 26.85 23.75 25.425 20.3125 24.9875 19.1625 25 23.75 23.75 23.75 23.75 16.25"></polygon>
                    <rect id="Rectangle" x="0" y="0" width="40" height="40"></rect>
                </g>
            </g>
        </g>
    </g>
</svg>