<?xml version="1.0" encoding="UTF-8"?>
<svg width="80px" height="80px" viewBox="0 0 80 80" version="1.1" xmlns="http://www.w3.org/2000/svg" xmlns:xlink="http://www.w3.org/1999/xlink">
    <!-- Generator: Sketch 57.1 (83088) - https://sketch.com -->
    <title>137-B80px</title>
    <desc>Created with Sketch.</desc>
    <g id="137-B80px" stroke="none" stroke-width="1" fill="none" fill-rule="evenodd">
        <g>
            <path d="M60,35 L60,37.5 L60,37.5 L60.025,67.5 L20,67.525 L20,40 L20,37.5 L20,35 L17.5,35 L17.5,67.525 C17.5,68.9 18.6,70 19.975,70 L60.05,70 C61.4,70 62.525,68.9 62.525,67.525 L62.525,35 L60,35 Z" id="Path" fill="#101828" fill-rule="nonzero"></path>
            <polygon id="Path" fill="#101828" fill-rule="nonzero" points="67.95 36.475 40 13.375 12.05 36.475 10.45 34.525 40 10.125 69.55 34.525"></polygon>
            <path d="M40,37.5 C46.2,37.5 51.25,42.55 51.25,48.75 C51.25,54.95 46.2,60 40,60 C33.8,60 28.75,54.95 28.75,48.75 C28.75,42.55 33.8,37.5 40,37.5 L40,37.5 Z M40,35 C32.4,35 26.25,41.15 26.25,48.75 C26.25,56.35 32.4,62.5 40,62.5 C47.6,62.5 53.75,56.35 53.75,48.75 C53.75,41.15 47.6,35 40,35 L40,35 Z" id="Shape" fill="#101828" fill-rule="nonzero"></path>
            <path d="M35,47.5 C34.3,47.5 33.75,48.05 33.75,48.75 C33.75,49.45 34.3,50 35,50 C35.7,50 36.25,49.45 36.25,48.75 C36.25,48.05 35.7,47.5 35,47.5 L35,47.5 Z" id="Path" fill="#101828" fill-rule="nonzero"></path>
            <path d="M45,47.5 C44.3,47.5 43.75,48.05 43.75,48.75 C43.75,49.45 44.3,50 45,50 C45.7,50 46.25,49.45 46.25,48.75 C46.25,48.05 45.7,47.5 45,47.5 L45,47.5 Z" id="Path" fill="#101828" fill-rule="nonzero"></path>
            <path d="M34,55.3 C37.475,58.225 42.55,58.225 46,55.3 L44.5,53.3 C41.925,55.575 38.05,55.55 35.475,53.3 L34,55.3 Z" id="Path" fill="#101828" fill-rule="nonzero"></path>
            <g id="Group" transform="translate(35.000000, 30.000000)" fill="#101828" fill-rule="nonzero">
                <path d="M6.25,7.5 L3.75,7.5 C3.75,5.35 5.05,1.25 10,1.25 L10,3.75 C6.475,3.75 6.25,6.875 6.25,7.5 Z" id="Path"></path>
                <path d="M3.75,7.5 C3.75,6.875 3.525,3.75 0,3.75 L0,1.25 C4.95,1.25 6.25,5.35 6.25,7.5 L3.75,7.5 L5,7.5 L3.75,7.5 Z" id="Path"></path>
            </g>
            <polygon id="Path" fill="#101828" fill-rule="nonzero" points="51.25 45 39.475 45 37.5 43.025 35.525 45 28.75 45 28.75 42.5 34.475 42.5 37.5 39.475 40.525 42.5 51.25 42.5"></polygon>
            <rect id="Rectangle" x="0" y="0" width="80" height="80"></rect>
        </g>
    </g>
</svg>