<?xml version="1.0" encoding="UTF-8"?>
<svg width="80px" height="80px" viewBox="0 0 80 80" version="1.1" xmlns="http://www.w3.org/2000/svg" xmlns:xlink="http://www.w3.org/1999/xlink">
    <!-- Generator: Sketch 57.1 (83088) - https://sketch.com -->
    <title>139-B80px</title>
    <desc>Created with Sketch.</desc>
    <g id="139-B80px" stroke="none" stroke-width="1" fill="none" fill-rule="evenodd">
        <g>
            <g id="Group" transform="translate(12.500000, 10.000000)" fill="#101828" fill-rule="nonzero">
                <path d="M10.625,48.75 C7.45,48.75 4.85,51.275 4.85,54.375 C4.85,57.475 7.425,60 10.625,60 C13.8,60 16.4,57.475 16.4,54.375 C16.4,51.275 13.8,48.75 10.625,48.75 Z" id="Path"></path>
                <path d="M43.825,48.75 C40.65,48.75 38.05,51.275 38.05,54.375 C38.05,57.475 40.65,60 43.825,60 C47,60 49.6,57.475 49.6,54.375 C49.6,51.275 47,48.75 43.825,48.75 Z" id="Path"></path>
                <path d="M53.125,24.35 L50.625,24.35 L30.4,24.35 L34.475,0.5 C34.45,0.25 34.3,0.05 34.05,0 C34.025,0 33.95,0 33.95,0 L32.7,0 L30.975,0 L30.25,0 C13.725,0 3.225,9.7 1.975,22.15 C0.825,33.425 7.75,43.75 18,47.7 C21.125,49.125 24.575,49.925 28.225,49.925 C41.925,49.925 53.025,38.875 53.125,25.2 C53.125,25.175 53.125,25.175 53.125,25.15 L53.125,24.375 L53.125,24.375 L53.125,24.35 Z M43.15,41.65 C43.15,41.65 37.475,47.025 31.925,43.825 C27.15,41.075 29.15,30.475 29.8,27.575 L29.975,26.825 L50.525,26.825 C49.575,36.775 43.15,41.65 43.15,41.65 Z" id="Shape"></path>
            </g>
            <rect id="Rectangle" x="0" y="0" width="80" height="80"></rect>
        </g>
    </g>
</svg>