<?xml version="1.0" encoding="UTF-8"?>
<svg width="80px" height="80px" viewBox="0 0 80 80" version="1.1" xmlns="http://www.w3.org/2000/svg" xmlns:xlink="http://www.w3.org/1999/xlink">
    <!-- Generator: Sketch 57.1 (83088) - https://sketch.com -->
    <title>098-B80px</title>
    <desc>Created with Sketch.</desc>
    <g id="098-B80px" stroke="none" stroke-width="1" fill="none" fill-rule="evenodd">
        <g>
            <path d="M56.25,45 C62.45,45 67.5,50.05 67.5,56.25 C67.5,62.45 62.45,67.5 56.25,67.5 C50.05,67.5 45,62.45 45,56.25 C45,50.05 50.05,45 56.25,45 L56.25,45 Z M56.25,42.5 C48.65,42.5 42.5,48.65 42.5,56.25 C42.5,63.85 48.65,70 56.25,70 C63.85,70 70,63.85 70,56.25 C70,48.65 63.85,42.5 56.25,42.5 L56.25,42.5 Z" id="Shape" fill="#101828" fill-rule="nonzero"></path>
            <path d="M55.175,51.925 L52.125,48.775 C51.8,48.45 51.275,48.45 50.95,48.775 L48.925,50.725 C48.725,50.925 48.65,51.175 48.675,51.45 C49.15,55.475 52.95,59.4 52.95,59.4 C52.95,59.4 56.725,63.3 60.775,63.95 C61.025,64 61.3,63.9 61.5,63.725 L63.525,61.775 C63.85,61.45 63.875,60.925 63.55,60.6 L60.5,57.45 C60.175,57.125 59.65,57.125 59.325,57.45 L58,58.75 C58,58.75 56.35,58.025 55.425,57.05 C54.5,56.075 53.825,54.4 53.825,54.4 L55.175,53.1 C55.5,52.775 55.5,52.25 55.175,51.925 Z" id="Path" fill="#101828" fill-rule="nonzero"></path>
            <rect id="Rectangle" fill="#101828" fill-rule="nonzero" x="30" y="67.5" width="12.5" height="2.5"></rect>
            <path d="M14.25,47.725 C14.225,47.675 14.225,47.65 14.2,47.6 C13.95,46.95 13.7,46.3 13.5,45.625 C13.45,45.45 13.4,45.25 13.35,45.05 C13.2,44.5 13.05,43.975 12.95,43.425 C12.875,43.025 12.825,42.625 12.775,42.225 C12.725,41.85 12.65,41.5 12.625,41.125 C12.55,40.35 12.5,39.55 12.5,38.75 C12.5,37.95 12.55,37.15 12.625,36.35 C12.65,35.975 12.725,35.625 12.775,35.25 C12.825,34.85 12.875,34.45 12.95,34.05 C13.05,33.5 13.2,32.95 13.35,32.425 C13.4,32.25 13.45,32.05 13.5,31.85 C13.7,31.175 13.95,30.525 14.2,29.875 C14.225,29.825 14.225,29.8 14.25,29.75 C17.8,21.025 26.35,14.875 36.35,14.875 C36.725,14.875 37.1,14.925 37.475,14.925 L37.475,12.575 L37.475,10 L34.975,10 L34.975,12.575 C21.075,13.225 10,24.675 10,38.75 C10,52.825 21.1,64.275 35,64.925 L35,70 L37.5,70 L37.5,64.925 L37.5,62.55 C37.125,62.575 36.75,62.6 36.375,62.6 C26.35,62.625 17.8,56.45 14.25,47.725 Z" id="Path" fill="#101828" fill-rule="nonzero"></path>
            <path d="M40.05,57.075 C39.225,57.25 38.375,57.375 37.5,57.45 L37.5,48.95 L41.775,48.95 C42.225,48.075 42.725,47.225 43.325,46.45 L37.5,46.45 L37.5,40 L48.525,40 L52.5,40 L54.925,40 L57.425,40 C57.45,39.575 57.5,39.175 57.5,38.75 C57.5,27.025 47.975,17.5 36.25,17.5 C36.25,17.5 36.225,17.5 36.225,17.5 C36.225,17.5 36.225,17.5 36.225,17.5 C36.2,17.5 36.2,17.5 36.175,17.5 C24.475,17.55 15,27.05 15,38.75 C15,50.45 24.475,59.95 36.175,60 C36.2,60 36.2,60 36.225,60 C36.225,60 36.225,60 36.225,60 C36.225,60 36.25,60 36.25,60 C37.65,60 39.025,59.85 40.35,59.6 C40.175,58.775 40.075,57.925 40.05,57.075 Z M54.925,37.5 L48.5,37.5 C48.425,35.225 48.15,33.075 47.7,31.05 L53.325,31.05 C54.225,33.05 54.775,35.225 54.925,37.5 Z M51.95,28.55 L47.025,28.55 C46.125,25.7 44.85,23.25 43.3,21.4 C46.875,22.85 49.9,25.375 51.95,28.55 Z M37.5,20.2 C40.175,20.95 42.8,23.95 44.425,28.55 L37.5,28.55 L37.5,20.2 Z M37.5,31.05 L45.15,31.05 C45.625,33 45.95,35.15 46.025,37.5 L37.5,37.5 L37.5,31.05 Z M29.1,21.425 C27.575,23.275 26.3,25.725 25.4,28.55 L20.55,28.55 C22.6,25.4 25.575,22.9 29.1,21.425 Z M19.175,31.05 L24.725,31.05 C24.275,33.075 24,35.225 23.925,37.5 L17.575,37.5 C17.725,35.225 18.275,33.05 19.175,31.05 Z M17.575,40 L23.925,40 C24,42.275 24.275,44.425 24.725,46.45 L19.175,46.45 C18.275,44.45 17.725,42.275 17.575,40 Z M20.525,48.95 L25.375,48.95 C26.275,51.775 27.55,54.225 29.075,56.075 C25.575,54.6 22.6,52.1 20.525,48.95 Z M35,57.35 C32.3,56.65 29.65,53.6 28,48.95 L35,48.95 L35,57.35 Z M35,46.45 L27.3,46.45 C26.825,44.5 26.55,42.35 26.45,40 L35,40 L35,46.45 Z M35,37.5 L26.425,37.5 C26.5,35.175 26.8,33 27.275,31.05 L35,31.05 L35,37.5 Z M35,28.55 L28,28.55 C29.625,23.9 32.275,20.9 35,20.175 L35,28.55 Z" id="Shape" fill="#101828" fill-rule="nonzero"></path>
            <rect id="Rectangle" x="0" y="0" width="80" height="80"></rect>
        </g>
    </g>
</svg>