<?xml version="1.0" encoding="UTF-8"?>
<svg width="80px" height="80px" viewBox="0 0 80 80" version="1.1" xmlns="http://www.w3.org/2000/svg" xmlns:xlink="http://www.w3.org/1999/xlink">
    <!-- Generator: Sketch 59.1 (86144) - https://sketch.com -->
    <title>266-B80px</title>
    <desc>Created with Sketch.</desc>
    <g id="266-B80px" stroke="none" stroke-width="1" fill="none" fill-rule="evenodd">
        <g>
            <rect id="Rectangle" x="0" y="0" width="80" height="80"></rect>
            <g id="Group" transform="translate(17.500000, 7.500000)" fill="#101828" fill-rule="nonzero">
                <g transform="translate(7.500000, 0.000000)" id="Path">
                    <path d="M1.25,7 L2.75,8.25 C5.75,5 10.25,2.75 15,3 C19.75,3 24,5.5 27,9 L28.75,8 C25.5,4 20.75,1.5 15.25,1.25 C9.75,0.75 4.75,3.25 1.25,7 Z"></path>
                    <path d="M5.25,9 L6.75,10.25 C8.75,8 11.75,6.75 15,7 C18.25,7 21,8.5 23,10.75 L24.75,9.75 C22.25,6.75 19,5 15,5 C11.25,4.75 7.75,6.5 5.25,9 Z"></path>
                    <path d="M9.5,11 L11,12.25 C12,11.25 13.5,10.75 15,10.75 C16.5,10.75 17.75,11.5 18.75,12.25 L20.5,11 C19,9.5 17.25,8.75 15,8.5 C13,8.75 10.75,9.75 9.5,11 Z"></path>
                </g>
                <polygon id="Path" points="21 51 24 51 28.75 46.75 21.5 46.75 24.5 43.75 22.75 42.25 16.25 48.75 23.25 48.75"></polygon>
                <path d="M22.5,18 C32.75,18 41.25,26.5 41.25,36.75 C41.25,47 32.75,55.5 22.5,55.5 C12.25,55.5 3.75,47 3.75,36.75 C3.75,26.5 12.25,18 22.5,18 M22.5,16 C11,16 1.75,25.25 1.75,36.75 C1.75,48.25 11,57.5 22.5,57.5 C34,57.5 43.25,48.25 43.25,36.75 C43.25,25.25 34,16 22.5,16 L22.5,16 Z" id="Shape"></path>
                <path d="M31.5,64 L13.75,64 C13.25,64 13,63.75 12.75,63.25 L8.5,52.5 C8.25,52 8.5,51.25 9,51.25 C9.5,51 10.25,51.25 10.25,51.75 L14.25,62 L30.75,62 L34.5,51.75 C34.75,51.25 35.25,51 35.75,51.25 C36.25,51.5 36.5,52 36.25,52.5 L32.5,63.5 C32.5,63.75 32,64 31.5,64 Z" id="Path"></path>
                <g transform="translate(5.000000, 27.500000)">
                    <path d="M8.75,8.25 L8.75,8.25 C8.25,8.25 7.75,7.75 7.75,7.25 L7.75,5 C7.75,4.5 8.25,4 8.75,4 L8.75,4 C9.25,4 9.75,4.5 9.75,5 L9.75,7.25 C9.75,7.75 9.5,8.25 8.75,8.25 Z" id="Path"></path>
                    <path d="M13.25,8.25 L13.25,8.25 C12.75,8.25 12.25,7.75 12.25,7.25 L12.25,5 C12.25,4.5 12.75,4 13.25,4 L13.25,4 C13.75,4 14.25,4.5 14.25,5 L14.25,7.25 C14.25,7.75 13.75,8.25 13.25,8.25 Z" id="Path"></path>
                    <path d="M17.5,8.25 L17.5,8.25 C17,8.25 16.5,7.75 16.5,7.25 L16.5,5 C16.5,4.5 17,4 17.5,4 L17.5,4 C18,4 18.5,4.5 18.5,5 L18.5,7.25 C18.5,7.75 18,8.25 17.5,8.25 Z" id="Path"></path>
                    <path d="M21.75,8.25 L21.75,8.25 C21.25,8.25 20.75,7.75 20.75,7.25 L20.75,5 C20.75,4.5 21.25,4 21.75,4 L21.75,4 C22.25,4 22.75,4.5 22.75,5 L22.75,7.25 C23,7.75 22.5,8.25 21.75,8.25 Z" id="Path"></path>
                    <path d="M26.25,8.25 L26.25,8.25 C25.75,8.25 25.25,7.75 25.25,7.25 L25.25,5 C25.25,4.5 25.75,4 26.25,4 L26.25,4 C26.75,4 27.25,4.5 27.25,5 L27.25,7.25 C27.25,7.75 26.75,8.25 26.25,8.25 Z" id="Path"></path>
                    <path d="M27.25,11.5 L7.75,11.5 C4.75,11.5 2.25,9 2.25,6 C2.25,3 4.75,0.5 7.75,0.5 L27.25,0.5 C30.25,0.5 32.75,3 32.75,6 C32.75,9 30.25,11.5 27.25,11.5 Z M7.75,2.75 C6,2.75 4.5,4.25 4.5,6 C4.5,7.75 6,9.25 7.75,9.25 L27.25,9.25 C29,9.25 30.5,7.75 30.5,6 C30.5,4.25 29,2.75 27.25,2.75 L7.75,2.75 L7.75,2.75 Z" id="Shape"></path>
                </g>
            </g>
        </g>
    </g>
</svg>