<?xml version="1.0" encoding="UTF-8"?>
<svg width="42px" height="42px" viewBox="0 0 42 42" version="1.1" xmlns="http://www.w3.org/2000/svg" xmlns:xlink="http://www.w3.org/1999/xlink">
    <!-- Generator: Sketch 57.1 (83088) - https://sketch.com -->
    <title>220-G40px</title>
    <desc>Created with Sketch.</desc>
    <g id="NEW_icons" stroke="none" stroke-width="1" fill="none" fill-rule="evenodd">
        <g id="icons_UD_new-Copy" transform="translate(-253.000000, -28140.000000)">
            <g id="220-G40px" transform="translate(254.000000, 28141.000000)">
                <circle id="Oval-Copy-1329" stroke="#E3E8EC" cx="20" cy="20" r="20"></circle>
                <g id="220-B32px-Copy" transform="translate(4.000000, 4.000000)">
                    <g id="Group" transform="translate(4.000000, 5.000000)" fill="#101828" fill-rule="nonzero">
                        <circle id="Oval" cx="12" cy="11" r="1"></circle>
                        <rect id="Rectangle" transform="translate(21.031400, 2.969674) rotate(-45.000000) translate(-21.031400, -2.969674) " x="19.0714188" y="2.4696788" width="3.91996241" height="1"></rect>
                        <rect id="Rectangle" transform="translate(22.063100, 1.939148) rotate(-45.000000) translate(-22.063100, -1.939148) " x="21.5631048" y="-0.0608328199" width="1" height="3.99996164"></rect>
                        <rect id="Rectangle" transform="translate(2.971374, 2.968870) rotate(-44.959485) translate(-2.971374, -2.968870) " x="2.47137867" y="1.00888831" width="1" height="3.91996339"></rect>
                        <rect id="Rectangle" transform="translate(1.942948, 1.938300) rotate(-45.000000) translate(-1.942948, -1.938300) " x="-0.0570328199" y="1.4383048" width="3.99996164" height="1"></rect>
                        <rect id="Rectangle" x="11.5" y="6" width="1" height="5"></rect>
                        <rect id="Rectangle" transform="translate(13.878025, 12.869629) rotate(-45.000000) translate(-13.878025, -12.869629) " x="13.3780298" y="10.369653" width="1" height="4.99995205"></rect>
                        <path d="M12,1 C17.51,1 22,5.49 22,11 C22,16.51 17.51,21 12,21 C6.49,21 2,16.51 2,11 C2,5.49 6.49,1 12,1 L12,1 Z M12,0 C5.92,0 1,4.92 1,11 C1,17.08 5.92,22 12,22 C18.08,22 23,17.08 23,11 C23,4.92 18.08,0 12,0 L12,0 Z" id="Shape"></path>
                    </g>
                    <rect id="Rectangle" x="0" y="0" width="32" height="32"></rect>
                </g>
            </g>
        </g>
    </g>
</svg>