<?xml version="1.0" encoding="UTF-8"?>
<svg width="80px" height="80px" viewBox="0 0 80 80" version="1.1" xmlns="http://www.w3.org/2000/svg" xmlns:xlink="http://www.w3.org/1999/xlink">
    <!-- Generator: Sketch 57.1 (83088) - https://sketch.com -->
    <title>062-B80px</title>
    <desc>Created with Sketch.</desc>
    <g id="062-B80px" stroke="none" stroke-width="1" fill="none" fill-rule="evenodd">
        <g>
            <g id="Group" transform="translate(20.000000, 17.500000)" fill="#101828" fill-rule="nonzero">
                <path d="M11.575,45 C10.875,45 10.15,44.725 9.625,44.2 C4.825,39.4 2.2,32.95 2.2,26.05 C2.2,11.675 13.825,0 28.15,0 C29.675,0 30.9,1.25 30.9,2.775 C30.9,4.3 29.675,5.55 28.15,5.55 C16.875,5.55 7.725,14.75 7.725,26.05 C7.725,31.475 9.8,36.525 13.55,40.3 C14.625,41.375 14.625,43.125 13.55,44.225 C13,44.725 12.275,45 11.575,45 Z" id="Path"></path>
                <path d="M19.725,35.85 C18.95,35.85 18.175,35.525 17.625,34.875 C15.475,32.35 14.325,29.25 14.325,25.875 C14.325,18.1 20.65,11.75 28.4,11.75 C29.925,11.75 31.15,13 31.15,14.525 C31.15,16.05 29.925,17.3 28.4,17.3 C23.675,17.3 19.85,21.15 19.85,25.875 C19.85,27.9 20.525,29.775 21.8,31.275 C22.8,32.425 22.65,34.175 21.5,35.175 C21,35.65 20.35,35.85 19.725,35.85 Z" id="Path"></path>
                <path d="M35.05,36.55 C33.525,36.55 32.3,35.3 32.3,33.775 L32.3,29.2 L27.875,29.2 C26.35,29.2 25.125,27.95 25.125,26.425 C25.125,24.9 26.35,23.65 27.875,23.65 L35.05,23.65 C36.575,23.65 37.8,24.9 37.8,26.425 L37.8,33.775 C37.8,35.325 36.575,36.55 35.05,36.55 Z" id="Path"></path>
            </g>
            <rect id="Rectangle" x="0" y="0" width="80" height="80"></rect>
        </g>
    </g>
</svg>