<?xml version="1.0" encoding="UTF-8"?>
<svg width="42px" height="42px" viewBox="0 0 42 42" version="1.1" xmlns="http://www.w3.org/2000/svg" xmlns:xlink="http://www.w3.org/1999/xlink">
    <!-- Generator: Sketch 57.1 (83088) - https://sketch.com -->
    <title>182-G40px</title>
    <desc>Created with Sketch.</desc>
    <g id="NEW_icons" stroke="none" stroke-width="1" fill="none" fill-rule="evenodd">
        <g id="icons_UD_new-Copy" transform="translate(-244.000000, -23367.000000)">
            <g id="182-G40px" transform="translate(245.000000, 23368.000000)">
                <circle id="Oval-Copy-1125" stroke="#E3E8EC" cx="20" cy="20" r="20"></circle>
                <g id="182-B32px-Copy" transform="translate(4.000000, 4.000000)">
                    <path d="M21,26 L21,27 L7,27 L7,26 L7,26 L7,5 L21,5 L21,12 L22,12 L22,5 C22,4.45 21.55,4 21,4 L7,4 C6.45,4 6,4.45 6,5 L6,26 L6,27 C6,27.55 6.45,28 7,28 L21,28 C21.55,28 22,27.55 22,27 L22,26 L21,26 Z" id="Path" fill="#101828" fill-rule="nonzero"></path>
                    <rect id="Rectangle" fill="#101828" fill-rule="nonzero" x="17.5" y="11.01" width="1" height="1.98"></rect>
                    <rect id="Rectangle" fill="#101828" fill-rule="nonzero" x="15.5" y="10" width="1" height="4"></rect>
                    <rect id="Rectangle" fill="#101828" fill-rule="nonzero" x="13.5" y="7.99" width="1" height="6.99"></rect>
                    <rect id="Rectangle" fill="#101828" fill-rule="nonzero" x="9.5" y="11.02" width="1" height="1.99"></rect>
                    <rect id="Rectangle" fill="#101828" fill-rule="nonzero" x="11.5" y="10" width="1" height="4"></rect>
                    <circle id="Oval" fill="#101828" fill-rule="nonzero" cx="14" cy="25.5" r="1"></circle>
                    <path d="M26,18 L26,24 L20,24 L20,18 L26,18 L26,18 Z M26.04,17 L19.96,17 C19.43,17 19,17.43 19,17.96 L19,24.04 C19,24.57 19.43,25 19.96,25 L26.04,25 C26.57,25 27,24.57 27,24.04 L27,17.96 C27,17.43 26.57,17 26.04,17 L26.04,17 Z" id="Shape" fill="#101828" fill-rule="nonzero"></path>
                    <path d="M23,22 C22.72,22 22.5,21.78 22.5,21.5 L22.5,20.5 C22.5,20.22 22.72,20 23,20 C23.28,20 23.5,20.22 23.5,20.5 L23.5,21.5 C23.5,21.78 23.28,22 23,22 Z" id="Path" fill="#101828" fill-rule="nonzero"></path>
                    <rect id="Rectangle" fill="#101828" fill-rule="nonzero" x="7" y="23" width="11" height="1"></rect>
                    <path d="M24,17 L24,17 L21,17 L21,16 C21,14.9 21.9,14 23,14 C23.74,14 24.38,14.41 24.72,15 L25.81,15 C25.4,13.84 24.3,13 22.99,13 C21.33,13 19.99,14.34 19.99,16 L19.99,18 L25.99,18 L25.99,17 L24,17 Z" id="Path" fill="#101828" fill-rule="nonzero"></path>
                    <rect id="Rectangle" x="0" y="0" width="32" height="32"></rect>
                </g>
            </g>
        </g>
    </g>
</svg>