<?xml version="1.0" encoding="UTF-8"?>
<svg width="32px" height="32px" viewBox="0 0 32 32" version="1.1" xmlns="http://www.w3.org/2000/svg" xmlns:xlink="http://www.w3.org/1999/xlink">
    <!-- Generator: Sketch 57.1 (83088) - https://sketch.com -->
    <title>020-B32px</title>
    <desc>Created with Sketch.</desc>
    <g id="020-B32px" stroke="none" stroke-width="1" fill="none" fill-rule="evenodd">
        <g>
            <path d="M13.45,25.05 L12.9,24.5 C11.76,23.78 10.79,22.31 10.16,20.42 L14,20.42 L14,21.03 L14.02,21.01 L15,21.01 L15,20.42 L18.81,20.42 C18.74,20.64 18.65,20.85 18.57,21.06 C18.91,21.12 19.22,21.25 19.51,21.42 C19.64,21.1 19.76,20.77 19.87,20.42 L22.61,20.42 C22.48,20.63 22.34,20.84 22.2,21.04 C22.32,21.02 22.44,21 22.57,21 C22.85,21 23.11,21.05 23.36,21.12 C24.39,19.49 25,17.57 25,15.5 C25,9.7 20.3,5 14.5,5 C14.5,5 14.49,5 14.49,5 C14.49,5 14.49,5 14.48,5 C14.47,5 14.47,5 14.46,5 C8.68,5.02 4,9.71 4,15.5 C4,20.94 8.14,25.42 13.45,25.94 L13.45,25.05 Z M23.14,19.42 L20.13,19.42 C20.38,18.36 20.53,17.2 20.56,16 L23.97,16 C23.91,17.21 23.62,18.37 23.14,19.42 Z M23.97,15 L20.56,15 C20.53,13.8 20.38,12.64 20.13,11.58 L23.14,11.58 C23.62,12.63 23.91,13.79 23.97,15 Z M22.61,10.58 L19.87,10.58 C19.36,8.92 18.59,7.53 17.66,6.55 C19.74,7.29 21.48,8.72 22.61,10.58 Z M15,6.05 C16.59,6.36 17.99,8.12 18.81,10.58 L15,10.58 L15,6.05 Z M15,11.58 L19.1,11.58 C19.37,12.64 19.53,13.79 19.56,15 L15,15 L15,11.58 Z M15,16 L19.56,16 C19.52,17.21 19.36,18.36 19.1,19.42 L15,19.42 L15,16 Z M14,19.42 L9.87,19.42 C9.6,18.36 9.44,17.21 9.4,16 L14,16 L14,19.42 Z M14,15 L9.4,15 C9.44,13.79 9.6,12.64 9.86,11.58 L14,11.58 L14,15 Z M14,6.05 L14,10.58 L10.16,10.58 C10.98,8.11 12.39,6.34 14,6.05 Z M11.29,6.57 C10.37,7.55 9.61,8.93 9.1,10.58 L6.39,10.58 C7.51,8.74 9.23,7.31 11.29,6.57 Z M5.86,11.58 L8.84,11.58 C8.58,12.64 8.44,13.8 8.4,15 L5.03,15 C5.09,13.79 5.38,12.63 5.86,11.58 Z M5.03,16 L8.4,16 C8.43,17.2 8.58,18.36 8.83,19.42 L5.86,19.42 C5.38,18.37 5.09,17.21 5.03,16 Z M6.39,20.42 L9.1,20.42 C9.61,22.07 10.37,23.45 11.29,24.43 C9.23,23.69 7.51,22.26 6.39,20.42 Z" id="Shape" fill="#101828" fill-rule="nonzero"></path>
            <g id="Group" transform="translate(13.000000, 22.000000)" fill="#101828" fill-rule="nonzero">
                <path d="M5.01,0 C3.91,0 3.01,0.9 3.01,2 L3.01,3 C3.01,4.1 3.91,5 5.01,5 C6.11,5 7.01,4.1 7.01,3 L7.01,2 C7.01,0.9 6.11,0 5.01,0 Z M6.01,3 C6.01,3.55 5.56,4 5.01,4 C4.46,4 4.01,3.55 4.01,3 L4.01,2 C4.01,1.45 4.46,1 5.01,1 C5.56,1 6.01,1.45 6.01,2 L6.01,3 Z" id="Shape"></path>
                <path d="M9.57,0 C8.47,0 7.57,0.9 7.57,2 L7.57,3 C7.57,4.1 8.47,5 9.57,5 C10.67,5 11.57,4.1 11.57,3 L11.57,2 C11.57,0.9 10.67,0 9.57,0 Z M10.57,3 C10.57,3.55 10.12,4 9.57,4 C9.02,4 8.57,3.55 8.57,3 L8.57,2 C8.57,1.45 9.02,1 9.57,1 C10.12,1 10.57,1.45 10.57,2 L10.57,3 Z" id="Shape"></path>
                <polygon id="Path" points="14 2 14 1 13 1 13 2 12 2 12 3 13 3 13 4 14 4 14 3 15 3 15 2"></polygon>
                <polygon id="Path" points="1.45 0 1.44 0 1.42 0.02 0.11 1.29 0.81 2 1.45 1.38 1.45 5 2.45 5 2.45 0 1.9 0"></polygon>
            </g>
            <rect id="Rectangle" x="0" y="0" width="32" height="32"></rect>
        </g>
    </g>
</svg>