<?xml version="1.0" encoding="UTF-8"?>
<svg width="80px" height="80px" viewBox="0 0 80 80" version="1.1" xmlns="http://www.w3.org/2000/svg" xmlns:xlink="http://www.w3.org/1999/xlink">
    <!-- Generator: Sketch 57.1 (83088) - https://sketch.com -->
    <title>232-B80px</title>
    <desc>Created with Sketch.</desc>
    <g id="232-B80px" stroke="none" stroke-width="1" fill="none" fill-rule="evenodd">
        <g>
            <path d="M67.5,12.5 L67.5,17.5 C67.5,25.325 65.875,36.975 63.175,42.95 C59.45,51.15 52.45,61.95 40,67.3 C27.55,61.95 20.525,51.15 16.825,42.95 C14.125,36.975 12.5,25.3 12.5,17.5 L12.5,12.5 L67.5,12.5 L67.5,12.5 Z M70,10 L10,10 L10,17.5 C10,24.9 11.5,37.225 14.55,43.975 C18.725,53.2 26.4,64.55 40,70 C53.6,64.55 61.275,53.2 65.45,43.975 C68.5,37.225 70,24.9 70,17.5 L70,10 L70,10 Z" id="Shape" fill="#101828" fill-rule="nonzero"></path>
            <path d="M46,29.75 L43.375,29.75 L43.225,30.625 C42.525,29.825 41.45,29.35 40.25,29.35 C37,29.35 33.65,32.375 33.65,37.4 C33.65,40.725 35.575,43.025 38.35,43.025 C39.7,43.025 41.05,42.35 42,41.3 C42.3,42.375 43.25,43.025 44.625,43.025 C47.725,43.025 50.9,39.925 50.9,34.75 C50.9,28.025 45.725,25 40.625,25 C34.075,25 29.125,29.975 29.125,36.55 C29.125,44.125 34.325,47.5 39.475,47.5 C42.375,47.5 43.95,46.825 45.45,45.8 L45.775,45.575 L44.475,43.4 L44.1,43.675 C43.1,44.35 41.9,45 39.75,45 C36.1,45 31.85,42.8 31.85,36.6 C31.85,31.6 35.7,27.55 40.45,27.55 C45.3,27.55 48.2,30.275 48.2,34.85 C48.2,38.75 46.275,40.575 45,40.575 C44.725,40.575 44.5,40.525 44.5,39.975 C44.5,39.9 44.5,39.8 44.525,39.65 L46,29.75 Z M38.6,40.575 C37.2,40.575 36.375,39.375 36.375,37.35 C36.375,33.95 38.475,31.85 40.425,31.85 C41.825,31.85 42.625,32.875 42.625,34.675 C42.6,37.775 40.7,40.575 38.6,40.575 Z" id="Shape" fill="#101828" fill-rule="nonzero"></path>
            <rect id="Rectangle" x="0" y="0" width="80" height="80"></rect>
        </g>
    </g>
</svg>