<?xml version="1.0" encoding="UTF-8"?>
<svg width="56px" height="56px" viewBox="0 0 56 56" version="1.1" xmlns="http://www.w3.org/2000/svg" xmlns:xlink="http://www.w3.org/1999/xlink">
    <!-- Generator: Sketch 57.1 (83088) - https://sketch.com -->
    <title>053-G56px</title>
    <desc>Created with Sketch.</desc>
    <g id="NEW_icons" stroke="none" stroke-width="1" fill="none" fill-rule="evenodd">
        <g id="icons_UD_new-Copy" transform="translate(-1728.000000, -7028.000000)">
            <g id="053-G56px" transform="translate(1728.000000, 7028.000000)">
                <circle id="Oval-Copy-395" fill="#E3E8EC" cx="28" cy="28" r="28"></circle>
                <g id="053-B32px-Copy-3" transform="translate(8.000000, 8.000000)">
                    <rect id="Rectangle" x="0" y="0" width="40" height="40"></rect>
                    <g id="Group" transform="translate(6.250000, 5.000000)" fill="#101828" fill-rule="nonzero">
                        <path d="M13.725,0 L0.7375,7.5 L0.7375,22.5 L13.725,30 L26.7125,22.5 L26.7125,7.5 L13.725,0 Z M25.475,21.0625 L20.3125,17.8625 C20.4625,17.35 20.4625,17.0125 20.4625,17.0125 L20.4625,10.2875 L14.35,6.625 L14.35,1.8 L25.4625,8.2125 L25.4625,21.0625 L25.475,21.0625 Z M8.25,17.025 L8.25,11 L13.725,7.7125 L19.2,11 L19.2,17.025 C19.2,17.05 19.05,20.1125 13.725,22.4 C8.4375,20.1125 8.25,17.125 8.25,17.025 Z M13.1,1.8 L13.1,6.625 L7,10.2875 L7,17.0125 C7,17.0125 7,17.325 7.15,17.825 L2,21.0125 L2,8.225 L13.1,1.8 Z M2.5875,22.125 L7.625,19 C8.375,20.4 10.0375,22.275 13.725,23.75 C17.3875,22.2875 19.05,20.425 19.8125,19.025 L24.8375,22.1375 L13.725,28.55 L2.5875,22.125 Z" id="Shape"></path>
                        <polygon id="Path" points="16.7 13.7375 15.775 12.9 13.15 15.7625 11.6875 14.1625 10.7625 15 13.15 17.6125"></polygon>
                    </g>
                </g>
            </g>
        </g>
    </g>
</svg>