<?xml version="1.0" encoding="UTF-8"?>
<svg width="80px" height="80px" viewBox="0 0 80 80" version="1.1" xmlns="http://www.w3.org/2000/svg" xmlns:xlink="http://www.w3.org/1999/xlink">
    <!-- Generator: Sketch 57.1 (83088) - https://sketch.com -->
    <title>203-B80px</title>
    <desc>Created with Sketch.</desc>
    <g id="203-B80px" stroke="none" stroke-width="1" fill="none" fill-rule="evenodd">
        <g>
            <path d="M67.45,25 L67.5,25.05 L67.45,52.5 L12.5,52.45 L12.55,25 L67.45,25 L67.45,25 Z M67.45,22.5 L12.55,22.5 C11.15,22.5 10,23.65 10,25.05 L10,52.45 C10,53.85 11.15,55 12.55,55 L67.45,55 C68.85,55 70,53.85 70,52.45 L70,25.05 C70,23.65 68.85,22.5 67.45,22.5 L67.45,22.5 Z" id="Shape" fill="#101828" fill-rule="nonzero"></path>
            <path d="M39.95,54.875 C29.175,54.875 21.1,56.525 17.5,57.425 L17.5,60 C20.6,59.2 28.85,57.375 39.95,57.375 C51.15,57.375 59.475,59.225 62.5,60.025 L62.5,57.45 C58.925,56.525 50.825,54.875 39.95,54.875 Z" id="Path" fill="#101828" fill-rule="nonzero"></path>
            <polygon id="Path" fill="#101828" fill-rule="nonzero" points="22.5 32.525 22.5 37.525 19.925 32.525 17.5 32.525 17.5 42.5 20 42.5 20 38.275 22.5 42.35 22.6 42.5 25 42.5 25 32.525"></polygon>
            <polygon id="Path" fill="#101828" fill-rule="nonzero" points="28.675 40.025 28.675 38.625 32.5 38.625 32.5 36.4 28.675 36.4 28.675 35.025 32.5 35.025 32.5 32.525 26.175 32.525 26.175 42.5 32.5 42.5 32.5 40.025"></polygon>
            <polygon id="Path" fill="#101828" fill-rule="nonzero" points="43.475 32.525 42.25 38.25 40.975 32.525 38.475 32.525 37.15 38.25 35.975 32.525 35.975 32.525 33.475 32.525 35.875 42.25 35.95 42.5 38.475 42.5 39.7 36.75 40.975 42.5 43.475 42.5 45.975 32.525 45.975 32.525"></polygon>
            <path d="M50.3,36.375 C48.675,36.025 48.45,35.625 48.45,35.275 C48.45,34.825 49.05,34.65 49.575,34.65 C50.275,34.65 50.775,34.95 51.2,35.65 L51.35,35.9 L53.2,34.825 L53.075,34.575 C52.4,33.2 51.275,32.525 49.6,32.525 C47.6,32.525 46.25,33.65 46.25,35.3 C46.25,36.85 47.3,37.9 49.225,38.3 C50.8,38.625 51.125,38.975 51.125,39.475 C51.125,40.025 50.625,40.375 49.825,40.375 C48.875,40.375 48.3,39.95 47.925,38.975 L47.8,38.65 L45.825,39.6 L45.9,39.85 C46.375,41.5 47.85,42.475 49.85,42.475 C52.175,42.475 53.4,40.925 53.4,39.4 C53.4,37.8 52.425,36.825 50.3,36.375 Z" id="Path" fill="#101828" fill-rule="nonzero"></path>
            <polygon id="Path" fill="#101828" fill-rule="nonzero" points="57.475 33.775 59.975 33.775 59.975 36.275 62.475 36.275 62.475 38.775 59.975 38.775 59.975 41.275 57.475 41.275 57.475 38.775 54.975 38.775 54.975 36.275 57.475 36.275"></polygon>
            <rect id="Rectangle" x="0" y="0" width="80" height="80"></rect>
        </g>
    </g>
</svg>