<?xml version="1.0" encoding="UTF-8"?>
<svg width="56px" height="56px" viewBox="0 0 56 56" version="1.1" xmlns="http://www.w3.org/2000/svg" xmlns:xlink="http://www.w3.org/1999/xlink">
    <!-- Generator: Sketch 57.1 (83088) - https://sketch.com -->
    <title>214-G56px</title>
    <desc>Created with Sketch.</desc>
    <g id="NEW_icons" stroke="none" stroke-width="1" fill="none" fill-rule="evenodd">
        <g id="icons_UD_new-Copy" transform="translate(-455.000000, -27372.000000)">
            <g id="214-G56px" transform="translate(455.000000, 27372.000000)">
                <circle id="Oval-Copy-1320" fill="#E3E8EC" cx="28" cy="28" r="28"></circle>
                <g id="214-B32px-Copy-3" transform="translate(8.000000, 8.000000)">
                    <path d="M11.8625,18.7625 C12.2,18.7625 12.475,19.0375 12.475,19.375 C12.475,19.7125 12.2,19.9875 11.8625,19.9875 C11.525,19.9875 11.25,19.7125 11.25,19.375 C11.25,19.0375 11.525,18.7625 11.8625,18.7625 L11.8625,18.7625 Z M11.8625,17.5125 C10.8375,17.5125 10,18.35 10,19.375 C10,20.4 10.8375,21.2375 11.8625,21.2375 C12.8875,21.2375 13.725,20.4 13.725,19.375 C13.725,18.35 12.8875,17.5125 11.8625,17.5125 L11.8625,17.5125 Z" id="Shape" fill="#101828" fill-rule="nonzero"></path>
                    <path d="M28.1125,15 C28.45,15 28.725,15.275 28.725,15.6125 C28.725,15.95 28.45,16.225 28.1125,16.225 C27.775,16.225 27.5,15.9625 27.5,15.625 C27.5,15.2875 27.775,15 28.1125,15 L28.1125,15 Z M28.1125,13.75 C27.0875,13.75 26.25,14.5875 26.25,15.625 C26.25,16.6625 27.0875,17.4875 28.1125,17.4875 C29.1375,17.4875 29.975,16.65 29.975,15.625 C29.975,14.6 29.1375,13.75 28.1125,13.75 L28.1125,13.75 Z" id="Shape" fill="#101828" fill-rule="nonzero"></path>
                    <path d="M26.55,15.7 L20.9875,18.5 L19.7375,14.75 L12.9,18.2 C13.2,18.4875 13.4,18.8875 13.45,19.325 L19.0125,16.5125 L20.2625,20.2625 L27.1,16.825 C26.8,16.525 26.6,16.1375 26.55,15.7 Z" id="Path" fill="#101828" fill-rule="nonzero"></path>
                    <path d="M33.7625,8.75 L6.2375,8.75 C5.55,8.75 5,9.3 5,9.9875 L5,23.75 L6.2375,23.75 L6.2375,10 L33.75,10 L33.7625,26.25 L12.8375,26.25 C12.35,26.25 11.8625,26.4 11.4625,26.675 L7.075,29.6125 L5,31.0125 L5,32.5 L12.15,27.7125 C12.3625,27.575 12.6,27.5 12.8375,27.5 L33.7625,27.5 C34.4375,27.5 35,26.95 35,26.2625 L35,9.9875 C35,9.3 34.45,8.75 33.7625,8.75 Z" id="Path" fill="#101828" fill-rule="nonzero"></path>
                    <rect id="Rectangle" x="0" y="0" width="40" height="40"></rect>
                </g>
            </g>
        </g>
    </g>
</svg>