<?xml version="1.0" encoding="UTF-8"?>
<svg width="56px" height="56px" viewBox="0 0 56 56" version="1.1" xmlns="http://www.w3.org/2000/svg" xmlns:xlink="http://www.w3.org/1999/xlink">
    <!-- Generator: Sketch 58 (84663) - https://sketch.com -->
    <title>263-G56px</title>
    <desc>Created with Sketch.</desc>
    <g id="NEW_icons" stroke="none" stroke-width="1" fill="none" fill-rule="evenodd">
        <g id="icons_UD_new-Copy" transform="translate(-1728.000000, -33398.000000)">
            <g id="263-G56px" transform="translate(1728.000000, 33398.000000)">
                <circle id="Oval-Copy-170" fill="#E3E8EC" cx="28" cy="28" r="28"></circle>
                <g id="263-B32px" transform="translate(8.000000, 8.000000)">
                    <path d="M27.5,12.8125 C27.2875,12.8125 27.0875,12.825 26.8875,12.85 C25.675,9.7125 22.7625,7.5 19.375,7.5 C15.525,7.5 12.3125,10.35 11.475,14.1625 C7.8625,14.3875 5,17.55 5,21.4375 C5,25.475 8.075,28.7375 11.875,28.7375 C11.8875,28.7375 11.8875,28.7375 11.9,28.7375 L11.9,28.7375 L16.25,28.7375 L16.25,27.4875 L13.15,27.4875 L13.15,27.4875 L11.9,27.4875 L11.8375,27.4875 L11.8375,27.4875 C8.75,27.4625 6.25,24.7625 6.25,21.4375 C6.25,18.2375 8.575,15.5875 11.55,15.4 L12.4875,15.3375 L12.6875,14.4125 C13.425,11.0875 16.175,8.75 19.375,8.75 C22.1625,8.75 24.65,10.5375 25.725,13.3 L26.0625,14.175 L27,14.1 C27.1625,14.0875 27.3375,14.075 27.5,14.075 C30.95,14.075 33.75,17.0875 33.75,20.7875 C33.75,24.4875 30.95,27.5 27.5,27.5 L22.5,27.5 L22.5,28.75 L27.5,28.75 C31.6375,28.75 35,25.1875 35,20.7875 C35,16.3875 31.6375,12.8125 27.5,12.8125 Z" id="Path" fill="#101828" fill-rule="nonzero"></path>
                    <path d="M19.375,27.1125 L20.25,28.5 L18.5,28.5 L19.375,27.1125 L19.375,27.1125 Z M19.375,24.75 L16.25,29.75 L22.5,29.75 L19.375,24.75 L19.375,24.75 Z" id="Shape" fill="#101828" fill-rule="nonzero" transform="translate(19.375000, 27.250000) rotate(-180.000000) translate(-19.375000, -27.250000) "></path>
                    <rect id="Rectangle" fill="#101828" fill-rule="nonzero" transform="translate(19.375000, 22.250000) rotate(-180.000000) translate(-19.375000, -22.250000) " x="18.75" y="19.75" width="1.25" height="5"></rect>
                    <rect id="Rectangle" x="0" y="0" width="40" height="40"></rect>
                </g>
            </g>
        </g>
    </g>
</svg>