<?xml version="1.0" encoding="UTF-8"?>
<svg width="80px" height="80px" viewBox="0 0 80 80" version="1.1" xmlns="http://www.w3.org/2000/svg" xmlns:xlink="http://www.w3.org/1999/xlink">
    <!-- Generator: Sketch 56.3 (81716) - https://sketch.com -->
    <title>044-W80px</title>
    <desc>Created with Sketch.</desc>
    <g id="NEW_icons" stroke="none" stroke-width="1" fill="none" fill-rule="evenodd">
        <g id="icons_UD_new-Copy" transform="translate(-869.000000, -5848.000000)">
            <g id="044-W80px" transform="translate(869.000000, 5848.000000)">
                <circle id="Oval-Copy-337" fill="#101828" cx="40" cy="40" r="40"></circle>
                <g id="044-B32px-Copy-5" transform="translate(12.000000, 12.000000)">
                    <path d="M30.415,38.8325 C30.31,38.955 28.14,41.0725 28.0525,41.1425 C28.035,41.125 28,41.1075 27.9825,41.09 C27.2475,40.3725 26.5125,39.655 25.7775,38.9375 C25.725,38.885 25.7075,38.8325 25.7075,38.7625 C25.7075,38.71 25.7075,38.675 25.7075,38.6225 C25.7075,32.0075 25.7075,25.41 25.7075,18.795 C25.7075,18.725 25.7075,18.6725 25.69,18.6025 C25.655,18.6025 25.6375,18.585 25.62,18.585 C25.5675,18.585 25.5325,18.585 25.48,18.585 C23.24,18.585 21,18.585 18.76,18.585 C18.7075,18.585 18.655,18.585 18.6025,18.585 C18.585,18.5325 18.62,18.515 18.6375,18.4975 C18.8475,18.27 19.075,18.06 19.285,17.85 C20.5275,16.6075 21.77,15.3475 23.0125,14.105 C23.0475,14.07 23.065,14.035 23.1,14 C26.3725,14 29.645,14 32.9175,14 C33.32,14.3675 37.3975,18.3925 37.5025,18.5675 C37.5025,18.585 37.4675,18.585 37.45,18.585 C37.3975,18.585 37.345,18.585 37.31,18.585 C35.07,18.585 32.83,18.585 30.59,18.585 C30.5375,18.585 30.4675,18.585 30.415,18.6025 C30.415,18.6375 30.3975,18.655 30.3975,18.6725 C30.3975,18.725 30.3975,18.7775 30.3975,18.8125 C30.3975,25.4275 30.3975,32.0425 30.3975,38.6575 C30.415,38.71 30.415,38.78 30.415,38.8325 Z" id="Path" fill="#FFFFFF" fill-rule="nonzero"></path>
                    <path d="M37.5725,31.6925 C36.3825,32.8825 35.175,34.055 33.985,35.245 C33.9325,35.2275 33.8975,35.1925 33.8625,35.1575 C33.1975,34.51 32.5325,33.8625 31.85,33.215 C31.4825,32.8475 31.115,32.4975 30.7475,32.13 C30.7125,32.095 30.695,32.06 30.66,32.025 C30.695,31.99 30.73,31.955 30.765,31.92 C31.465,31.22 32.1825,30.52 32.8825,29.8375 C32.9,29.82 32.935,29.785 32.9525,29.7675 C32.9875,29.7325 33.005,29.6975 33.005,29.6625 C33.005,29.6275 33.005,29.575 33.005,29.54 C33.005,26.6175 33.005,23.695 33.005,20.7725 C33.005,20.72 33.005,20.65 33.0225,20.5975 C33.0575,20.5975 33.0925,20.5975 33.1275,20.58 C34.265,20.5625 37.4325,20.58 37.5725,20.5975 C37.5725,20.6325 37.59,20.65 37.59,20.685 C37.59,20.825 37.59,20.9825 37.59,21.1225 C37.59,24.5875 37.59,28.07 37.59,31.535 C37.5725,31.57 37.5725,31.6225 37.5725,31.6925 Z" id="Path" fill="#FFFFFF" fill-rule="nonzero"></path>
                    <path d="M22.155,35.245 C22.12,35.21 22.085,35.175 22.05,35.1575 C20.93,34.0375 19.7925,32.9175 18.6725,31.815 C18.5325,31.675 18.5675,31.7275 18.5675,31.5525 C18.5675,27.9475 18.5675,24.36 18.5675,20.755 C18.5675,20.7025 18.5675,20.65 18.5675,20.5975 C18.6025,20.5975 18.62,20.58 18.655,20.58 C18.69,20.58 18.725,20.58 18.76,20.58 C20.16,20.58 21.56,20.58 22.96,20.58 C23.0125,20.58 23.0825,20.5625 23.1175,20.5975 C23.1175,20.615 23.135,20.615 23.135,20.615 C23.135,20.615 23.135,20.615 23.135,20.6325 C23.135,20.6325 23.135,20.65 23.135,20.65 C23.135,20.6675 23.135,20.6675 23.135,20.685 C23.135,20.685 23.135,20.7025 23.135,20.7025 C23.135,20.72 23.135,20.7375 23.135,20.7375 C23.135,23.73 23.135,26.705 23.135,29.6975 C23.135,29.6975 23.135,29.715 23.135,29.715 C23.135,29.715 23.135,29.7325 23.135,29.7325 C23.135,29.7325 23.135,29.7325 23.135,29.7675 C23.905,30.52 24.6925,31.3075 25.48,32.0775 C24.36,33.0925 23.2575,34.16 22.155,35.245 Z" id="Path" fill="#FFFFFF" fill-rule="nonzero"></path>
                    <path d="M33.215,11.9525 L39.6725,18.3925 L39.6725,33.0575 L28.035,43.54 L16.3275,33.18 L16.3275,18.3925 L22.7675,11.9525 L33.215,11.9525 L33.215,11.9525 Z M33.81,10.5 L22.155,10.5 L14.875,17.7975 L14.875,33.845 L28.0525,45.5 L41.125,33.7225 L41.125,17.7975 L33.81,10.5 L33.81,10.5 Z" id="Shape" fill="#FFFFFF" fill-rule="nonzero"></path>
                    <rect id="Rectangle" x="0" y="0" width="56" height="56"></rect>
                </g>
            </g>
        </g>
    </g>
</svg>