<?xml version="1.0" encoding="UTF-8"?>
<svg width="56px" height="56px" viewBox="0 0 56 56" version="1.1" xmlns="http://www.w3.org/2000/svg" xmlns:xlink="http://www.w3.org/1999/xlink">
    <!-- Generator: Sketch 56.3 (81716) - https://sketch.com -->
    <title>040-W56px</title>
    <desc>Created with Sketch.</desc>
    <g id="NEW_icons" stroke="none" stroke-width="1" fill="none" fill-rule="evenodd">
        <g id="icons_UD_new-Copy" transform="translate(-532.000000, -5370.000000)">
            <g id="040-W56px" transform="translate(532.000000, 5370.000000)">
                <circle id="Oval-Copy-326" fill="#101828" cx="28" cy="28" r="28"></circle>
                <g id="040-B32px-Copy-8" transform="translate(8.000000, 8.000000)">
                    <g id="Group" transform="translate(5.000000, 6.250000)" fill="#FFFFFF" fill-rule="nonzero">
                        <path d="M6.175,15.0375 C6.9625,18.8125 11.9625,17.9 11.0125,12.7875 C10.275,8.725 5.1625,10.175 6.175,15.0375 Z" id="Path"></path>
                        <path d="M28.75,6.25 L17.5,6.25 L17.5,0 L0,2.5 L0,25 L17.5,27.5 L17.5,21.25 L28.75,21.25 C29.4375,21.25 30,20.6875 30,20 L30,7.5 C30,6.8125 29.4375,6.25 28.75,6.25 Z M28.3625,7.5 L20.6,13.575 L17.5,11.1375 L17.5,7.5 L28.3625,7.5 Z M10.375,18.225 C8.4875,19.2125 6.3375,18.325 5.55,17.15 C3.5875,14.2375 4.7125,9.1625 8.675,9.1625 C11.3375,9.1625 12.5375,11.275 12.5375,13.8875 C12.5375,15.9125 11.725,17.5125 10.375,18.225 Z M17.5,20 L17.5,12.725 L19.825,14.55 C20.0625,14.7375 20.35,14.825 20.625,14.825 C20.9,14.825 21.1875,14.7375 21.425,14.55 L28.75,8.7875 L28.75,20 L17.5,20 Z" id="Shape"></path>
                    </g>
                    <rect id="Rectangle" x="0" y="0" width="40" height="40"></rect>
                </g>
            </g>
        </g>
    </g>
</svg>