<?xml version="1.0" encoding="UTF-8"?>
<svg width="80px" height="80px" viewBox="0 0 80 80" version="1.1" xmlns="http://www.w3.org/2000/svg" xmlns:xlink="http://www.w3.org/1999/xlink">
    <!-- Generator: Sketch 54.1 (76490) - https://sketchapp.com -->
    <title>004-G80px</title>
    <desc>Created with Sketch.</desc>
    <g id="NEW_icons" stroke="none" stroke-width="1" fill="none" fill-rule="evenodd">
        <g id="icons_UD_new-Copy" transform="translate(-768.000000, -827.000000)">
            <g id="004-G80px" transform="translate(768.000000, 827.000000)">
                <circle id="Oval-Copy-90" fill="#E3E8EC" cx="40" cy="40" r="40"></circle>
                <g id="004-B32px-Copy-12" transform="translate(12.000000, 12.000000)">
                    <path d="M47.4756343,21.2493854 L38.6731343,10.7318854 C37.2731343,9.05188537 34.9281343,8.52688537 32.9506343,9.45438537 L18.4256343,16.2968854 L15.5206343,17.6093854 C13.6656343,18.4493854 11.8106343,19.2893854 9.95563434,20.0943854 C8.04813434,20.9168854 7.06813434,22.2118854 7.03313434,23.9093854 C6.98063434,28.1443854 6.99813434,32.3618854 7.03313434,36.5618854 C7.03313434,37.9968854 7.83813434,39.1518854 9.18563434,39.6943854 C10.7431343,40.3068854 12.3356343,40.8843854 13.8756343,41.4443854 C14.7506343,41.7593854 15.6081343,42.0743854 16.4831343,42.3893854 L17.2181343,42.6693854 C20.7881343,43.9993854 24.3756343,45.3293854 27.9456343,46.6768854 C28.6456343,46.9393854 29.2756343,47.1493854 29.8706343,47.2893854 C30.4831343,47.4468854 31.1306343,47.5343854 31.7431343,47.5343854 C31.7431343,47.5343854 31.7781343,47.5343854 31.7956343,47.5343854 C31.8306343,47.5343854 31.8481343,47.5343854 31.8831343,47.5343854 C31.8831343,47.5343854 31.9006343,47.5343854 31.9006343,47.5343854 C31.9181343,47.5343854 31.9356343,47.5343854 31.9356343,47.5343854 L31.9356343,47.5343854 L31.9356343,47.5343854 L31.9356343,47.5343854 L32.0756343,47.5343854 C32.1631343,47.5343854 32.2331343,47.5168854 32.3206343,47.4993854 C32.3381343,47.4993854 32.3381343,47.4993854 32.3556343,47.4993854 C33.1781343,47.4468854 33.9656343,47.2893854 34.7181343,46.9568854 C36.6606343,46.0993854 38.6031343,45.1893854 40.4931343,44.3143854 L40.6331343,44.2443854 C42.0856343,43.5793854 43.5206343,42.8968854 44.9906343,42.2318854 C45.3056343,42.0918854 45.5856343,41.8993854 45.8306343,41.6718854 L46.1281343,41.5318854 C47.8781343,40.7268854 48.9981343,38.9593854 48.9981343,37.0168854 L48.9981343,25.4668854 C48.9981343,23.9268854 48.4556343,22.4218854 47.4756343,21.2493854 Z M25.1281343,25.7993854 L25.1281343,23.5418854 L30.2556343,29.6668854 C30.9206343,30.4543854 31.3406343,31.4343854 31.4806343,32.4493854 L26.8081343,30.7518854 C25.6356343,30.3318854 25.0756343,29.5268854 25.1281343,28.3543854 C25.1631343,27.7593854 25.1456343,27.1468854 25.1456343,26.5693854 C25.1281343,26.3243854 25.1281343,26.0618854 25.1281343,25.7993854 Z M28.5406343,45.1368854 C24.9706343,43.7718854 21.3831343,42.4418854 17.8131343,41.1118854 L17.0781343,40.8318854 C16.2031343,40.4993854 15.3281343,40.1843854 14.4181343,39.8518854 C12.8956343,39.3093854 11.3381343,38.7318854 9.81563434,38.1368854 C9.11563434,37.8568854 8.71313434,37.2968854 8.71313434,36.5443854 C8.67813434,32.6768854 8.66063434,28.3193854 8.71313434,23.9268854 C8.71313434,23.2793854 8.92313434,22.3343854 10.6381343,21.5993854 C12.5631343,20.7593854 14.4706343,19.9018854 16.3781343,19.0268854 L19.0556343,17.8193854 C20.0006343,17.9243854 20.8581343,18.3793854 21.4881343,19.1318854 L23.5006343,21.5293854 L23.5006343,26.5868854 C23.5006343,27.1293854 23.5181343,27.7068854 23.4831343,28.2668854 C23.3781343,30.1568854 24.3931343,31.6268854 26.2481343,32.2918854 C27.8756343,32.8868854 29.5206343,33.4818854 31.1481343,34.0768854 L31.4981343,34.2343854 L31.5156343,44.3493854 C31.5156343,44.9443854 31.2181343,45.4693854 30.7106343,45.7843854 C30.0631343,45.6618854 29.3631343,45.4518854 28.5406343,45.1368854 Z" id="Shape" fill="#101828" fill-rule="nonzero"></path>
                    <rect id="Rectangle" x="0" y="0" width="56" height="56"></rect>
                </g>
            </g>
        </g>
    </g>
</svg>