<?xml version="1.0" encoding="UTF-8"?>
<svg width="56px" height="56px" viewBox="0 0 56 56" version="1.1" xmlns="http://www.w3.org/2000/svg" xmlns:xlink="http://www.w3.org/1999/xlink">
    <!-- Generator: Sketch 57.1 (83088) - https://sketch.com -->
    <title>088-G56px</title>
    <desc>Created with Sketch.</desc>
    <g id="NEW_icons" stroke="none" stroke-width="1" fill="none" fill-rule="evenodd">
        <g id="icons_UD_new-Copy" transform="translate(-446.000000, -11539.000000)">
            <g id="088-G56px" transform="translate(446.000000, 11539.000000)">
                <circle id="Oval-Copy-582" fill="#E3E8EC" cx="28" cy="28" r="28"></circle>
                <g id="088-B32px-Copy-2" transform="translate(8.000000, 8.000000)">
                    <path d="M28.6875,6.25 C28.725,6.25 28.75,6.275 28.75,6.3125 L28.75,33.6875 C28.75,33.725 28.725,33.75 28.6875,33.75 L11.3125,33.75 C11.275,33.75 11.25,33.725 11.25,33.6875 L11.25,6.3125 C11.25,6.275 11.275,6.25 11.3125,6.25 L28.6875,6.25 L28.6875,6.25 Z M28.6875,5 L11.3125,5 C10.5875,5 10,5.5875 10,6.3125 L10,33.6875 C10,34.4125 10.5875,35 11.3125,35 L28.6875,35 C29.4125,35 30,34.4125 30,33.6875 L30,6.3125 C30,5.5875 29.4125,5 28.6875,5 L28.6875,5 Z" id="Shape" fill="#101828" fill-rule="nonzero"></path>
                    <path d="M20,32.5 C20.3375,32.5 20.625,32.225 20.625,31.875 C20.625,31.525 20.3375,31.25 20,31.25 C19.6625,31.25 19.375,31.525 19.375,31.875 C19.375,32.225 19.6625,32.5 20,32.5" id="Path" fill="#101828" fill-rule="nonzero"></path>
                    <rect id="Rectangle" fill="#101828" fill-rule="nonzero" x="10" y="28.75" width="20" height="1.25"></rect>
                    <path d="M20,10 C22.7375,10 24.975,12.2625 25,15.0125 C24.975,17.0875 22.225,21.3375 20,24.2375 C17.7625,21.3375 15,17.1 15,15.1375 L15,15.0625 C15,12.275 17.2375,10 20,10 L20,10 Z M20,8.75 L20,8.75 C16.55,8.75 13.75,11.5875 13.75,15.075 L13.75,15.15 C13.75,18.7 20,26.25 20,26.25 C20,26.25 26.2125,18.75 26.25,15.025 C26.225,11.55 23.4375,8.75 20,8.75 L20,8.75 Z" id="Shape" fill="#101828" fill-rule="nonzero"></path>
                    <path d="M20,12.5 C21.375,12.5 22.5,13.625 22.5,15 C22.5,16.375 21.375,17.5 20,17.5 C18.625,17.5 17.5,16.375 17.5,15 C17.5,13.625 18.625,12.5 20,12.5 L20,12.5 Z M20,11.25 C17.925,11.25 16.25,12.925 16.25,15 C16.25,17.075 17.925,18.75 20,18.75 C22.075,18.75 23.75,17.075 23.75,15 C23.75,12.925 22.075,11.25 20,11.25 L20,11.25 Z" id="Shape" fill="#101828" fill-rule="nonzero"></path>
                    <rect id="Rectangle" x="0" y="0" width="40" height="40"></rect>
                </g>
            </g>
        </g>
    </g>
</svg>