<?xml version="1.0" encoding="UTF-8"?>
<svg width="80px" height="80px" viewBox="0 0 80 80" version="1.1" xmlns="http://www.w3.org/2000/svg" xmlns:xlink="http://www.w3.org/1999/xlink">
    <!-- Generator: Sketch 54.1 (76490) - https://sketchapp.com -->
    <title>050-G80px</title>
    <desc>Created with Sketch.</desc>
    <g id="NEW_icons" stroke="none" stroke-width="1" fill="none" fill-rule="evenodd">
        <g id="icons_UD_new-Copy" transform="translate(-768.000000, -6602.000000)">
            <g id="050-G80px" transform="translate(768.000000, 6602.000000)">
                <circle id="Oval-Copy-367" fill="#E3E8EC" cx="40" cy="40" r="40"></circle>
                <g id="050-B32px-Copy-6" transform="translate(12.000000, 12.000000)">
                    <path d="M47.25,10.5 L8.75,10.5 C7.7875,10.5 7,11.2875 7,12.25 L7,38.5 C7,39.4625 7.7875,40.25 8.75,40.25 L19.1275,40.25 C18.69,39.6725 18.305,39.0775 17.9375,38.5 L8.75,38.5 L8.75,12.25 L47.25,12.25 L47.25,38.5 L38.0625,38.5 C37.695,39.0775 37.2925,39.6725 36.8725,40.25 L47.25,40.25 C48.2125,40.25 49,39.4625 49,38.5 L49,12.25 C49,11.2875 48.2125,10.5 47.25,10.5 Z" id="Path" fill="#101828" fill-rule="nonzero"></path>
                    <path d="M38.5,22.75 L38.5,24.0625 C38.5,27.1775 37.87,31.7975 36.8025,34.1425 C35.3675,37.31 32.69,41.4575 28,43.5925 C23.31,41.4575 20.6325,37.31 19.1975,34.1425 C18.13,31.7975 17.5,27.1775 17.5,24.0625 L17.5,22.75 L38.5,22.75 L38.5,22.75 Z M40.25,21 L15.75,21 L15.75,24.0625 C15.75,27.09 16.3625,32.1125 17.605,34.8775 C19.3025,38.64 22.4525,43.295 28,45.5175 C33.5475,43.295 36.6975,38.6575 38.395,34.8775 C39.6375,32.13 40.25,27.09 40.25,24.0625 L40.25,21 L40.25,21 Z" id="Shape" fill="#101828" fill-rule="nonzero"></path>
                    <path d="M19.1975,14.875 C19.67,14.875 20.0725,14.49 20.0725,14 C20.0725,13.5275 19.6875,13.125 19.1975,13.125 C18.7075,13.125 18.3225,13.51 18.3225,14 C18.3225,14.49 18.725,14.875 19.1975,14.875" id="Path" fill="#101828" fill-rule="nonzero"></path>
                    <path d="M12.2325,14.875 C12.705,14.875 13.1075,14.49 13.1075,14 C13.1075,13.5275 12.7225,13.125 12.2325,13.125 C11.76,13.125 11.375,13.5275 11.375,14 C11.375,14.49 11.76,14.875 12.2325,14.875" id="Path" fill="#101828" fill-rule="nonzero"></path>
                    <path d="M15.7325,14.875 C16.205,14.875 16.6075,14.49 16.6075,14 C16.6075,13.5275 16.2225,13.125 15.7325,13.125 C15.26,13.125 14.875,13.5275 14.875,14 C14.875,14.49 15.26,14.875 15.7325,14.875" id="Path" fill="#101828" fill-rule="nonzero"></path>
                    <rect id="Rectangle" fill="#101828" fill-rule="nonzero" x="8.75" y="15.75" width="38.5" height="1.75"></rect>
                    <path d="M31.01,29.8375 C31.01,31.0975 31.01,32.375 31.01,33.635 C31.01,33.7925 31.01,33.9325 31.2025,33.9675 C31.3775,34.0025 31.4825,33.915 31.5525,33.7575 C31.92,32.9525 32.305,32.165 32.6725,31.36 C32.9175,30.8175 33.6,30.73 33.9675,31.22 C34.09,31.395 34.1425,31.5875 34.055,31.78 C33.53,33.0925 33.0575,34.4225 32.445,35.7 C31.7275,37.205 30.485,38.1325 28.8225,38.43 C27.9125,38.5875 27.0375,38.5175 26.1975,38.115 C25.13,37.6075 24.5,36.7325 24.185,35.595 C23.94,34.685 23.8175,33.775 23.835,32.83 C23.8875,30.9575 23.9225,29.0675 23.975,27.195 C23.975,26.8625 24.185,26.6525 24.5175,26.6175 C24.9025,26.5825 25.2,26.7575 25.27,27.0725 C25.2875,27.1775 25.305,27.2825 25.305,27.3875 C25.305,28.3675 25.305,29.3475 25.305,30.3275 C25.305,30.38 25.305,30.4325 25.305,30.485 C25.305,30.6425 25.41,30.73 25.55,30.73 C25.69,30.73 25.795,30.66 25.795,30.485 C25.795,30.31 25.795,30.135 25.795,29.96 C25.795,28.6825 25.795,27.405 25.795,26.1275 C25.795,25.7075 26.0575,25.445 26.4775,25.445 C26.915,25.445 27.195,25.69 27.195,26.1275 C27.195,27.44 27.195,28.7525 27.195,30.065 C27.195,30.1525 27.1775,30.2575 27.23,30.2925 C27.3,30.3625 27.4225,30.3975 27.51,30.3975 C27.58,30.38 27.6675,30.275 27.685,30.1875 C27.72,30.065 27.7025,29.9425 27.7025,29.82 C27.7025,28.28 27.7025,26.7575 27.7025,25.2175 C27.7025,24.9375 27.7725,24.71 28.035,24.5875 C28.315,24.4475 28.595,24.465 28.875,24.605 C29.1025,24.7275 29.1025,24.9725 29.1025,25.1825 C29.1025,26.705 29.1025,28.21 29.1025,29.7325 C29.1025,29.8725 29.1025,29.995 29.1025,30.135 C29.1025,30.3625 29.1725,30.45 29.365,30.45 C29.5575,30.45 29.61,30.3275 29.61,30.1525 C29.61,28.875 29.61,27.58 29.61,26.3025 C29.61,26.18 29.61,26.075 29.6275,25.9525 C29.6975,25.515 29.96,25.3225 30.4325,25.3575 C30.8,25.3925 31.01,25.655 31.01,26.0575 C31.01,27.3175 31.01,28.5775 31.01,29.8375 Z" id="Path" fill="#101828" fill-rule="nonzero"></path>
                    <rect id="Rectangle" x="0" y="0" width="56" height="56"></rect>
                </g>
            </g>
        </g>
    </g>
</svg>