<?xml version="1.0" encoding="UTF-8"?>
<svg width="80px" height="80px" viewBox="0 0 80 80" version="1.1" xmlns="http://www.w3.org/2000/svg" xmlns:xlink="http://www.w3.org/1999/xlink">
    <!-- Generator: Sketch 57.1 (83088) - https://sketch.com -->
    <title>219-B80px</title>
    <desc>Created with Sketch.</desc>
    <g id="219-B80px" stroke="none" stroke-width="1" fill="none" fill-rule="evenodd">
        <g>
            <path d="M30,60 L12.625,60 C12.55,60 12.5,59.95 12.5,59.875 L12.5,55 L30,55 L30,52.5 L12.5,52.5 L12.5,17.625 C12.5,17.55 12.55,17.5 12.625,17.5 L39.875,17.5 C39.95,17.5 40,17.55 40,17.625 L40,40 L42.5,40 L42.5,17.625 C42.5,16.175 41.325,15 39.875,15 L12.625,15 C11.175,15 10,16.175 10,17.625 L10,52.5 L10,55 L10,59.875 C10,61.325 11.175,62.5 12.625,62.5 L30,62.5 L30,60 Z" id="Path" fill="#101828" fill-rule="nonzero"></path>
            <path d="M67.5,45 L67.55,65 L35,65.05 L34.95,45 L67.5,45 L67.5,45 Z M67.55,42.5 L34.95,42.5 C33.6,42.5 32.5,43.6 32.5,44.95 L32.5,65.05 C32.5,66.4 33.6,67.5 34.95,67.5 L67.55,67.5 C68.9,67.5 70,66.4 70,65.05 L70,44.95 C70,43.6 68.9,42.5 67.55,42.5 L67.55,42.5 Z" id="Shape" fill="#101828" fill-rule="nonzero"></path>
            <rect id="Rectangle" fill="#101828" fill-rule="nonzero" x="34.125" y="52.525" width="34.7" height="2.5"></rect>
            <path d="M51.25,37.5 C54.275,37.5 56.8,39.65 57.375,42.5 L45.125,42.5 C45.7,39.65 48.225,37.5 51.25,37.5 L51.25,37.5 Z M51.25,35 C46.425,35 42.5,38.925 42.5,43.75 C42.5,44.175 42.575,44.6 42.625,45 L59.875,45 C59.925,44.6 60,44.175 60,43.75 C60,38.925 56.075,35 51.25,35 L51.25,35 Z" id="Shape" fill="#101828" fill-rule="nonzero"></path>
            <g id="Group" transform="translate(15.000000, 22.500000)" fill="#101828" fill-rule="nonzero">
                <path d="M11.3,7.5 C12.625,7.5 13.85,8.025 14.725,8.875 L16.5,7.1 C15.15,5.8 13.325,5 11.3,5 C9.225,5 7.35,5.85 6,7.2 L7.775,8.975 C8.675,8.05 9.925,7.5 11.3,7.5 Z" id="Path"></path>
                <path d="M12.95,10.65 C12.525,10.25 11.95,10 11.3,10 C10.6,10 9.975,10.275 9.525,10.725 L11.2,12.4 L12.95,10.65 Z" id="Path"></path>
                <path d="M11.3,2.5 C14,2.5 16.475,3.6 18.275,5.35 L20.05,3.575 C17.775,1.375 14.7,0 11.3,0 C7.85,0 4.725,1.4 2.45,3.65 L4.225,5.425 C6.05,3.625 8.55,2.5 11.3,2.5 Z" id="Path"></path>
            </g>
            <rect id="Rectangle" x="0" y="0" width="80" height="80"></rect>
        </g>
    </g>
</svg>