<?xml version="1.0" encoding="UTF-8"?>
<svg width="32px" height="32px" viewBox="0 0 32 32" version="1.1" xmlns="http://www.w3.org/2000/svg" xmlns:xlink="http://www.w3.org/1999/xlink">
    <!-- Generator: Sketch 57.1 (83088) - https://sketch.com -->
    <title>008-B32px</title>
    <desc>Created with Sketch.</desc>
    <g id="008-B32px" stroke="none" stroke-width="1" fill="none" fill-rule="evenodd">
        <g>
            <g id="Group" transform="translate(4.000000, 4.000000)" fill="#101828" fill-rule="nonzero">
                <path d="M13.78,11.15 C13.76,11.27 13.76,11.38 13.72,11.49 C13.46,12.23 12.77,12.73 12,12.73 C10.99,12.73 10.17,11.89 10.17,10.85 C10.17,10.62 10.21,10.39 10.29,10.18 C10.31,10.13 10.34,10.09 10.37,10.04 L9.4,9.73 C9.39,9.77 9.37,9.8 9.35,9.83 C9.23,10.15 9.17,10.49 9.17,10.85 C9.17,12.44 10.44,13.73 12,13.73 C13.23,13.73 14.27,12.94 14.66,11.82 C14.7,11.7 14.73,11.58 14.75,11.46 L13.78,11.15 Z" id="Path"></path>
                <path d="M21.61,9.53 L20.49,13 L3.35,7.47 L3.77,6.18 L3.65,6.14 C3.34,6.04 3.09,5.84 2.91,5.59 L2.4,7.16 C2.23,7.69 2.52,8.25 3.04,8.42 L20.17,13.95 C20.27,13.98 20.38,14 20.48,14 C20.9,14 21.29,13.73 21.43,13.31 L22.62,9.61 C22.69,9.38 22.67,9.16 22.59,8.95 L21.61,9.53 Z" id="Path"></path>
                <path d="M2,16.58 L2,22.53 C2,22.56 1.98,22.58 1.95,22.58 L1,22.58 L1,16.58 L2,16.58 L2,16.58 Z M2.01,15.58 L0,15.58 L0,23.58 L1.94,23.58 C2.52,23.58 2.99,23.11 2.99,22.53 L2.99,16.57 C3,16.02 2.55,15.58 2.01,15.58 L2.01,15.58 Z" id="Shape"></path>
                <path d="M4.89,1.42 C4.92,1.42 4.95,1.42 4.98,1.43 L22.8,7.18 C22.94,7.23 22.98,7.34 22.99,7.42 C23,7.5 22.98,7.62 22.85,7.7 L19,9.94 C18.96,9.97 18.91,9.98 18.86,9.98 C18.83,9.98 18.8,9.98 18.77,9.97 L3.79,5.13 C3.64,5.09 3.56,4.92 3.6,4.77 L4.62,1.62 C4.67,1.49 4.79,1.42 4.89,1.42 L4.89,1.42 Z M4.89,0.42 C4.35,0.42 3.84,0.77 3.67,1.31 L2.65,4.47 C2.43,5.15 2.8,5.87 3.48,6.09 L18.47,10.93 C18.6,10.97 18.73,10.99 18.86,10.99 C19.08,10.99 19.31,10.93 19.5,10.82 L23.35,8.58 C24.31,8.02 24.16,6.59 23.1,6.25 L5.29,0.49 C5.15,0.44 5.02,0.42 4.89,0.42 L4.89,0.42 Z" id="Shape"></path>
                <polygon id="Path" points="21.7 9.25 20.62 12.6 22.3 13.15 23.38 9.79"></polygon>
                <path d="M4.3,20.08 L1.99,20.08 L1.99,19.08 L4.3,19.08 C6.39,19.08 8.26,17.92 9.18,16.05 L10.94,12.48 L11.84,12.92 L10.08,16.49 C8.99,18.7 6.77,20.08 4.3,20.08 Z" id="Path"></path>
            </g>
            <rect id="Rectangle" x="0" y="0" width="32" height="32"></rect>
        </g>
    </g>
</svg>