<?xml version="1.0" encoding="UTF-8"?>
<svg width="42px" height="42px" viewBox="0 0 42 42" version="1.1" xmlns="http://www.w3.org/2000/svg" xmlns:xlink="http://www.w3.org/1999/xlink">
    <!-- Generator: Sketch 56.3 (81716) - https://sketch.com -->
    <title>030-G40px</title>
    <desc>Created with Sketch.</desc>
    <g id="NEW_icons" stroke="none" stroke-width="1" fill="none" fill-rule="evenodd">
        <g id="icons_UD_new-Copy" transform="translate(-244.000000, -4129.000000)">
            <g id="030-G40px" transform="translate(245.000000, 4130.000000)">
                <circle id="Oval-Copy-264" stroke="#E3E8EC" cx="20" cy="20" r="20"></circle>
                <g id="030-B32px-Copy-7" transform="translate(4.000000, 4.000000)">
                    <path d="M22.5,8 C22.9,8 23.28,8.16 23.56,8.44 C23.84,8.72 24,9.1 24,9.5 C24,9.9 23.84,10.28 23.56,10.56 C23.28,10.84 22.9,11 22.5,11 C22.1,11 21.72,10.84 21.44,10.56 C21.16,10.28 21,9.9 21,9.5 C21,9.1 21.16,8.72 21.44,8.44 C21.72,8.16 22.1,8 22.5,8 L22.5,8 Z M22.5,7 C21.86,7 21.22,7.24 20.73,7.73 C19.75,8.71 19.75,10.29 20.73,11.27 C21.22,11.76 21.86,12 22.5,12 C23.14,12 23.78,11.76 24.27,11.27 C25.25,10.29 25.25,8.71 24.27,7.73 C23.78,7.24 23.14,7 22.5,7 L22.5,7 Z" id="Shape" fill="#101828" fill-rule="nonzero"></path>
                    <path d="M27.67,4.38 C27.67,4.38 26.44,4 24.8,4 C23.08,4 20.92,4.41 19.24,6.09 C18.39,6.94 17.21,8.12 15.92,9.41 C15.16,8.83 14.26,8.51 13.38,8.51 C12.41,8.51 11.45,8.87 10.73,9.59 L6.65,13.67 L11.12,15.63 L19.95,6.8 C21.13,5.6 22.76,5 24.79,5 C25.63,5 26.35,5.11 26.82,5.2 C27.06,6.52 27.39,9.87 25.2,12.06 L16.37,20.89 L18.33,25.36 L22.41,21.28 C23.78,19.91 23.81,17.7 22.59,16.09 L25.91,12.77 C29.13,9.55 27.67,4.38 27.67,4.38 Z M10.76,14.56 L8.33,13.39 L11.43,10.29 C11.93,9.79 12.62,9.51 13.37,9.51 C14.02,9.51 14.66,9.73 15.2,10.12 C13.69,11.63 12.1,13.22 10.76,14.56 Z M21.71,20.57 L18.61,23.67 L17.44,21.24 L21.88,16.8 C22.73,18 22.69,19.59 21.71,20.57 Z" id="Shape" fill="#101828" fill-rule="nonzero"></path>
                    <path d="M11.82,22.24 L10.85,23.21 C9.5,24.56 7.92,24.9 6.98,24.98 C7.07,24.02 7.43,22.45 8.76,21.12 L9.73,20.15 L9.02,19.44 L8.05,20.41 C5.62,22.84 5.97,25.97 5.97,25.97 C5.97,25.97 6.17,26 6.5,26 C7.49,26 9.7,25.77 11.56,23.91 C11.96,23.51 12.28,23.19 12.53,22.94 L11.82,22.24 Z" id="Path" fill="#101828" fill-rule="nonzero"></path>
                    <path d="M13.27,23.68 L11.9,25.05 C10.29,26.66 8.19,27 6.72,27 C6.07,27 5.5,26.93 5.11,26.87 C4.92,25.54 4.74,22.31 6.95,20.1 L8.32,18.73 L7.61,18.02 L6.24,19.4 C2.97,22.67 4.25,27.72 4.25,27.72 C4.25,27.72 5.28,28 6.72,28 C8.46,28 10.78,27.59 12.61,25.76 C13.19,25.18 13.63,24.74 13.98,24.39 L13.27,23.68 Z" id="Path" fill="#101828" fill-rule="nonzero"></path>
                    <rect id="Rectangle" fill="#101828" fill-rule="nonzero" transform="translate(13.456435, 18.545674) rotate(-45.000000) translate(-13.456435, -18.545674) " x="9.9114695" y="18.0456793" width="7.08993201" height="1"></rect>
                    <rect id="Rectangle" x="0" y="0" width="32" height="32"></rect>
                </g>
            </g>
        </g>
    </g>
</svg>