<?xml version="1.0" encoding="UTF-8"?>
<svg width="56px" height="56px" viewBox="0 0 56 56" version="1.1" xmlns="http://www.w3.org/2000/svg" xmlns:xlink="http://www.w3.org/1999/xlink">
    <!-- Generator: Sketch 57.1 (83088) - https://sketch.com -->
    <title>237-W56px</title>
    <desc>Created with Sketch.</desc>
    <g id="NEW_icons" stroke="none" stroke-width="1" fill="none" fill-rule="evenodd">
        <g id="icons_UD_new-Copy" transform="translate(-1814.000000, -30139.000000)">
            <g id="237-W56px" transform="translate(1814.000000, 30139.000000)">
                <circle id="Oval-Copy-803" fill="#101828" cx="28" cy="28" r="28"></circle>
                <g id="237-B32px-Copy-4" transform="translate(8.000000, 8.000000)">
                    <g id="Group" transform="translate(3.750000, 6.250000)" fill="#FFFFFF" fill-rule="nonzero">
                        <polygon id="Path" points="17.9875 22.45 13.775 22.45 13.775 23.6875 17.9875 23.6875"></polygon>
                        <polygon id="Path" points="17.9875 19.95 13.775 19.95 13.775 21.2 17.9875 21.2"></polygon>
                        <polygon id="Path" points="18.65 6.2375 13.775 6.2375 13.775 7.4875 18.65 7.4875 18.725 6.2375"></polygon>
                        <path d="M31.275,21.8625 C31.275,21.6125 31.2375,21.2875 31.15,20.8875 C31.1,20.5125 31.0125,20.1625 30.9,19.8125 C29.7625,15.2625 26.25,6.1875 26.25,6.1875 C26.25,6.1875 25.625,3.875 23.725,2.875 C23.6,1.2625 22.275,0 20.625,0 C18.9,0 17.5,1.4 17.5,3.1125 C17.5,3.125 17.5,3.1375 17.5,3.15 L17.5,3.15 L17.5,9.4125 C17.475,13.6 17.45,20.5375 17.45,21.85 C17.45,22.125 17.475,22.3875 17.5,22.65 L17.5,22.75 L17.5125,22.75 C17.5375,22.9 17.575,23.025 17.6125,23.175 C17.6375,23.275 17.6625,23.3875 17.6875,23.4875 C17.7625,23.775 17.8375,24.0625 17.95,24.3375 C18.0125,24.5 18.075,24.6625 18.15,24.8125 C18.2375,25 18.3375,25.175 18.4375,25.35 C18.55,25.55 18.6875,25.75 18.825,25.9375 C18.9,26.0375 18.9625,26.1375 19.05,26.2375 C19.2375,26.475 19.45,26.6875 19.675,26.9 C19.75,26.975 19.825,27.0375 19.9,27.1125 C20.1375,27.325 20.4,27.5125 20.675,27.6875 C20.75,27.7375 20.825,27.775 20.9,27.825 C21.1875,28 21.5,28.15 21.8125,28.275 C21.875,28.3 21.9375,28.325 22,28.3375 C22.3375,28.4625 22.6875,28.5625 23.05,28.6375 C23.0875,28.65 23.125,28.65 23.175,28.65 C23.5625,28.7125 23.9625,28.7625 24.375,28.7625 C24.6125,28.7625 24.85,28.75 25.075,28.725 C28.55,28.3625 31.275,25.425 31.275,21.8625 Z M24.3625,27.5 C23.9875,27.5 23.6125,27.4625 23.2625,27.3875 C23.1375,27.3625 23.0375,27.3125 22.9125,27.2875 C22.6875,27.225 22.45,27.1625 22.225,27.075 C22.0875,27.0125 21.95,26.9375 21.825,26.8625 C21.65,26.775 21.4625,26.6875 21.3,26.575 C21.15,26.475 21.025,26.3625 20.8875,26.25 C20.75,26.1375 20.6125,26.0375 20.4875,25.925 C20.35,25.8 20.225,25.65 20.1125,25.5 C20.0125,25.375 19.9,25.2625 19.8125,25.1375 C19.7,24.975 19.6,24.8125 19.5125,24.6375 C19.4375,24.5 19.35,24.3625 19.2875,24.225 C19.2125,24.0625 19.15,23.8875 19.0875,23.7125 C19.025,23.5375 18.975,23.375 18.925,23.2 C18.8875,23.05 18.8625,22.8875 18.8375,22.7375 C18.8,22.5125 18.775,22.275 18.7625,22.0375 L18.7625,21.75 C18.8375,18.725 21.325,16.2875 24.375,16.2875 C27.025,16.2875 29.2375,18.125 29.825,20.5875 C29.85,20.675 29.875,20.7875 29.8875,20.8625 C29.95,21.2 29.9875,21.5375 29.9875,21.8875 C29.9875,24.6 28.05,26.8625 25.5,27.3875 C25.1375,27.4625 24.75,27.5 24.3625,27.5 Z M25.0375,6.5 L25.05,6.5625 L25.075,6.625 C26.15,9.4 27.575,13.3125 28.625,16.5125 C27.45,15.5875 25.975,15.025 24.3625,15.025 C22.05,15.025 20,16.175 18.75,17.925 L18.75,9.3875 C18.75,8.1125 18.7625,7.1 18.7625,6.575 C18.775,6.325 18.8,6.1125 18.8625,5.9125 C18.875,5.8625 18.9,5.8 18.9125,5.7375 C18.9375,5.6625 18.9625,5.6 19,5.5375 C19.3375,4.75 20.1,3.6625 21.875,3.6625 C24.2375,3.675 25.0125,6.4 25.0375,6.5 Z M18.7625,3.1125 C18.7625,2.0875 19.6,1.25 20.6375,1.25 C21.4375,1.25 22.1125,1.7625 22.3875,2.4625 C22.225,2.4375 22.0625,2.425 21.8875,2.425 C20.4,2.425 19.4125,2.9875 18.7625,3.675 L18.7625,3.1125 Z" id="Shape"></path>
                        <path d="M7.425,28.7125 C7.6625,28.7375 7.9,28.75 8.1375,28.75 C8.55,28.75 8.95,28.7125 9.3375,28.6375 C9.375,28.625 9.4125,28.625 9.4625,28.625 C9.825,28.55 10.175,28.45 10.5125,28.325 C10.575,28.3 10.6375,28.2875 10.7,28.2625 C11.0125,28.1375 11.325,27.9875 11.6125,27.8125 C11.6875,27.775 11.7625,27.725 11.8375,27.675 C12.1125,27.5 12.3625,27.3125 12.6125,27.1 C12.6875,27.0375 12.7625,26.9625 12.8375,26.8875 C13.0625,26.675 13.275,26.4625 13.4625,26.225 C13.5375,26.125 13.6125,26.025 13.6875,25.925 C13.825,25.7375 13.95,25.5375 14.075,25.3375 C14.175,25.1625 14.275,24.9875 14.3625,24.8 C14.4375,24.65 14.5,24.4875 14.5625,24.325 C14.675,24.05 14.75,23.775 14.825,23.475 C14.85,23.375 14.875,23.2625 14.9,23.1625 C14.925,23.025 14.975,22.8875 15,22.7375 L15.0125,22.7375 L15.0125,22.6375 C15.0375,22.375 15.0625,22.1125 15.0625,21.8375 C15.0625,20.525 15.0375,13.6 15.0125,9.4 L15.0125,3.15 L15.0125,3.15 C15.0125,3.1375 15.0125,3.125 15.0125,3.1125 C15.0125,1.3875 13.6125,-8.8817842e-16 11.8875,-8.8817842e-16 C10.25,-8.8817842e-16 8.9125,1.2625 8.7875,2.875 C6.8625,3.875 6.25,6.1875 6.25,6.1875 C6.25,6.1875 2.7375,15.2625 1.5875,19.8 C1.475,20.15 1.4,20.5125 1.3375,20.875 C1.2625,21.275 1.2125,21.6125 1.2125,21.85 C1.225,25.425 3.95,28.3625 7.425,28.7125 Z M7,27.3875 C4.4375,26.8625 2.5125,24.6 2.5125,21.8875 C2.5125,21.5375 2.55,21.2 2.6125,20.8625 C2.625,20.775 2.6625,20.675 2.675,20.5875 C3.2625,18.125 5.475,16.2875 8.125,16.2875 C11.175,16.2875 13.65,18.725 13.7375,21.75 L13.7375,22.0375 C13.725,22.275 13.7,22.5125 13.6625,22.7375 C13.6375,22.9 13.6125,23.05 13.575,23.2 C13.5375,23.375 13.475,23.55 13.4125,23.7125 C13.35,23.8875 13.2875,24.0625 13.2125,24.225 C13.15,24.375 13.0625,24.5 12.9875,24.6375 C12.8875,24.8125 12.8,24.975 12.6875,25.1375 C12.6,25.2625 12.4875,25.375 12.3875,25.5 C12.2625,25.65 12.1375,25.7875 12,25.925 C11.875,26.0375 11.7375,26.15 11.6,26.25 C11.4625,26.3625 11.3375,26.475 11.1875,26.575 C11.025,26.6875 10.8375,26.775 10.6625,26.8625 C10.525,26.9375 10.4,27.0125 10.2625,27.075 C10.05,27.1625 9.8125,27.225 9.575,27.2875 C9.4625,27.325 9.35,27.3625 9.225,27.3875 C8.8875,27.4625 8.5125,27.5 8.1375,27.5 C7.75,27.5 7.3625,27.4625 7,27.3875 Z M10.625,3.675 C12.4,3.675 13.1625,4.7625 13.5,5.55 C13.525,5.6125 13.5625,5.675 13.5875,5.75 C13.6125,5.8125 13.625,5.8625 13.6375,5.925 C13.6875,6.125 13.725,6.3375 13.7375,6.5875 C13.7375,7.1125 13.75,8.125 13.75,9.4 L13.75,17.9375 C12.5,16.1875 10.4625,15.0375 8.1375,15.0375 C6.525,15.0375 5.0375,15.6 3.875,16.525 C4.925,13.325 6.35,9.4125 7.425,6.6375 L7.45,6.575 L7.4625,6.5125 C7.4875,6.4 8.2625,3.675 10.625,3.675 Z M13.7375,3.675 C13.0875,2.9875 12.1,2.425 10.6125,2.425 C10.4375,2.425 10.275,2.4375 10.1125,2.4625 C10.3875,1.75 11.075,1.25 11.875,1.25 C12.9125,1.25 13.75,2.0875 13.75,3.1125 L13.75,3.675 L13.7375,3.675 Z" id="Shape"></path>
                    </g>
                    <rect id="Rectangle" x="0" y="0" width="40" height="40"></rect>
                </g>
            </g>
        </g>
    </g>
</svg>