<?xml version="1.0" encoding="UTF-8"?>
<svg width="80px" height="80px" viewBox="0 0 80 80" version="1.1" xmlns="http://www.w3.org/2000/svg" xmlns:xlink="http://www.w3.org/1999/xlink">
    <!-- Generator: Sketch 58 (84663) - https://sketch.com -->
    <title>251-B80px</title>
    <desc>Created with Sketch.</desc>
    <g id="251-B80px" stroke="none" stroke-width="1" fill="none" fill-rule="evenodd">
        <g id="251-B32px">
            <g>
                <path d="M55.5,48.15 L57.725,52.675 L58.3,53.85 L59.6,54.05 L64.575,54.775 L60.975,58.275 L60.025,59.2 L60.25,60.5 L61.1,65.45 L56.65,63.1 L55.475,62.5 L54.3,63.1 L49.85,65.45 L50.7,60.5 L50.925,59.2 L49.975,58.275 L46.375,54.775 L51.35,54.05 L52.65,53.85 L53.225,52.675 L55.5,48.15 L55.5,48.15 Z M55.5,42.5 L51.025,51.55 L41.025,53 L48.25,60.05 L46.575,70 L55.525,65.3 L64.45,70 L62.75,60.05 L69.975,53 L59.975,51.55 L55.5,42.5 L55.5,42.5 Z" id="Shape" fill="#101828" fill-rule="nonzero"></path>
                <path d="M48.425,38.875 C47.9,38.325 47.2,38.05 46.5,38.05 C45.825,38.05 45.125,38.3 44.6,38.825 L40.225,43.05 C40.225,43.05 34.875,40.675 31.85,37.55 C28.825,34.425 26.625,29 26.625,29 L31,24.775 C32.075,23.725 32.125,22.025 31.075,20.95 L21.2,10.775 C20.675,10.225 19.975,9.95 19.275,9.95 C18.6,9.95 17.9,10.2 17.375,10.725 L10.825,17.05 C10.2,17.675 9.925,18.55 10.025,19.425 C11.575,32.475 23.925,45.225 23.925,45.225 C23.925,45.225 30,51.475 38.15,55.925 L38.15,53.05 C31.05,48.925 25.8,43.55 25.7,43.475 C25.6,43.375 13.925,31.2 12.5,19.125 C12.5,19.05 12.5,18.925 12.575,18.85 L19.125,12.525 C19.175,12.475 19.225,12.45 19.3,12.45 C19.35,12.45 19.4,12.5 19.4,12.5 L29.275,22.7 C29.35,22.775 29.325,22.925 29.25,23 L24.875,27.225 L23.675,28.4 L24.3,29.95 C24.4,30.2 26.725,35.875 30.05,39.3 C33.375,42.725 38.975,45.25 39.225,45.35 L40.775,46.025 L41.975,44.85 L46.35,40.625 C46.4,40.575 46.45,40.55 46.525,40.55 C46.6,40.55 46.65,40.6 46.65,40.6 L51.525,45.625 L52.7,43.25 L48.425,38.875 Z" id="Path" fill="#101828" fill-rule="nonzero"></path>
                <rect id="Rectangle" x="0" y="0" width="80" height="80"></rect>
            </g>
        </g>
    </g>
</svg>