<?xml version="1.0" encoding="UTF-8"?>
<svg width="32px" height="32px" viewBox="0 0 32 32" version="1.1" xmlns="http://www.w3.org/2000/svg" xmlns:xlink="http://www.w3.org/1999/xlink">
    <!-- Generator: Sketch 57.1 (83088) - https://sketch.com -->
    <title>136-B32px</title>
    <desc>Created with Sketch.</desc>
    <g id="136-B32px" stroke="none" stroke-width="1" fill="none" fill-rule="evenodd">
        <g>
            <path d="M22,8 L22,27 L11,27 L11,8 L22,8 L22,8 Z M22,7 L11,7 C10.45,7 10,7.45 10,8 L10,27 C10,27.55 10.45,28 11,28 L22,28 C22.55,28 23,27.55 23,27 L23,8 C23,7.45 22.55,7 22,7 L22,7 Z" id="Shape" fill="#101828" fill-rule="nonzero"></path>
            <path d="M20,5 L20,7 L13.05,7 L13.05,5 L20,5 L20,5 Z M20,4 L13.05,4 C12.5,4 12.05,4.45 12.05,5 L12.05,7 C12.05,7.55 12.5,8 13.05,8 L20,8 C20.55,8 21,7.55 21,7 L21,5 C21,4.45 20.55,4 20,4 L20,4 Z" id="Shape" fill="#101828" fill-rule="nonzero"></path>
            <path d="M19.72,16 C19.83,16 20,16.09 20,16.3 L20,24.71 C20,24.87 19.87,25.01 19.71,25.01 L13.28,25.01 C13.13,25 13,24.87 13,24.7 L13,19.07 C13,18.95 13.07,18.84 13.18,18.8 L19.61,16.02 C19.64,16.01 19.68,16 19.72,16 L19.72,16 Z M19.71,15 C19.54,15 19.37,15.03 19.2,15.11 L12.77,17.89 C12.3,18.09 11.99,18.56 11.99,19.08 L11.99,24.71 C11.99,25.43 12.57,26.01 13.28,26.01 L19.71,26.01 C20.42,26.01 21,25.43 21,24.71 L21,16.3 C21,15.55 20.39,15 19.71,15 L19.71,15 Z" id="Shape" fill="#101828" fill-rule="nonzero"></path>
            <rect id="Rectangle" x="0" y="0" width="32" height="32"></rect>
        </g>
    </g>
</svg>