<?xml version="1.0" encoding="UTF-8"?>
<svg width="56px" height="56px" viewBox="0 0 56 56" version="1.1" xmlns="http://www.w3.org/2000/svg" xmlns:xlink="http://www.w3.org/1999/xlink">
    <!-- Generator: Sketch 56.3 (81716) - https://sketch.com -->
    <title>019-W56px</title>
    <desc>Created with Sketch.</desc>
    <g id="NEW_icons" stroke="none" stroke-width="1" fill="none" fill-rule="evenodd">
        <g id="icons_UD_new-Copy" transform="translate(-1814.000000, -2608.000000)">
            <g id="019-W56px" transform="translate(1814.000000, 2608.000000)">
                <g id="003-B32px-Copy-42" transform="translate(8.000000, 8.000000)">
                    <g id="Group" transform="translate(10.000000, 5.000000)" fill="#FFFFFF" fill-rule="nonzero">
                        <path d="M18.6875,0 L1.3125,0 C0.5875,0 0,0.5875 0,1.3125 L0,23.75 L0,25 L0,28.6875 C0,29.4125 0.5875,30 1.3125,30 L18.6875,30 C19.4125,30 20,29.4125 20,28.6875 L20,25 L20,23.75 L20,1.3125 C20,0.5875 19.4125,0 18.6875,0 Z M18.75,28.6875 C18.75,28.725 18.725,28.75 18.6875,28.75 L1.3125,28.75 C1.275,28.75 1.25,28.725 1.25,28.6875 L1.25,25 L18.75,25 L18.75,28.6875 Z M1.25,23.75 L1.25,1.3125 C1.25,1.275 1.275,1.25 1.3125,1.25 L18.6875,1.25 C18.725,1.25 18.75,1.275 18.75,1.3125 L18.75,23.75 L1.25,23.75 Z" id="Shape"></path>
                        <path d="M10,27.4875 C10.3375,27.4875 10.625,27.2125 10.625,26.8625 C10.625,26.525 10.35,26.2375 10,26.2375 C9.65,26.2375 9.375,26.5125 9.375,26.8625 C9.375,27.2125 9.6625,27.4875 10,27.4875 Z" id="Path"></path>
                        <path d="M12.5125,20 L7.5,20.0125 L7.5,16.25 L6.25,16.25 L6.25,20.0125 C6.25,20.6875 6.8,21.25 7.4875,21.25 L12.525,21.25 C13.2,21.25 13.7625,20.7 13.7625,20.0125 L13.7625,16.25 L12.5125,16.25 L12.5125,20 Z" id="Path"></path>
                        <polygon id="Path" points="4.775 15.575 5.5625 16.5375 10 12.875 14.4375 16.5375 15.225 15.575 10 11.2625"></polygon>
                        <path d="M12.6,7.3125 C11.925,6.65 11.0125,6.25 10,6.25 C8.9625,6.25 8.025,6.675 7.35,7.35 L8.2375,8.2375 C8.6875,7.775 9.3125,7.5 10,7.5 C10.6625,7.5 11.275,7.7625 11.7125,8.1875 L12.6,7.3125 Z" id="Path"></path>
                        <path d="M9.1125,9.1125 L9.95,9.95 L10.825,9.075 C10.6125,8.875 10.325,8.75 10,8.75 C9.65,8.75 9.3375,8.8875 9.1125,9.1125 Z" id="Path"></path>
                        <path d="M10,5 C11.35,5 12.5875,5.55 13.4875,6.425 L14.375,5.5375 C13.2375,4.4375 11.7,3.75 10,3.75 C8.275,3.75 6.7125,4.45 5.575,5.575 L6.4625,6.4625 C7.375,5.5625 8.625,5 10,5 Z" id="Path"></path>
                    </g>
                    <rect id="Rectangle" x="0" y="0" width="40" height="40"></rect>
                </g>
                <circle id="Oval-Copy-197" fill="#101828" cx="28" cy="28" r="28"></circle>
                <g id="019-B32px-Copy-5" transform="translate(8.000000, 8.000000)">
                    <rect id="Rectangle" fill="#FFFFFF" fill-rule="nonzero" x="19.375" y="5.825" width="1.25" height="2.925"></rect>
                    <polygon id="Rectangle" fill="#FFFFFF" fill-rule="nonzero" transform="translate(28.997461, 28.983536) rotate(-45.000000) translate(-28.997461, -28.983536) " points="28.3724672 27.5210503 29.6224553 27.5210503 29.6224553 30.4460222 28.3724672 30.4460222"></polygon>
                    <polygon id="Rectangle" fill="#FFFFFF" fill-rule="nonzero" transform="translate(11.014877, 11.015000) rotate(-45.000000) translate(-11.014877, -11.015000) " points="10.3898835 9.55251403 11.6398715 9.55251403 11.6398715 12.477486 10.3898835 12.477486"></polygon>
                    <polygon id="Rectangle" fill="#FFFFFF" fill-rule="nonzero" transform="translate(28.999214, 11.007914) rotate(-45.000000) translate(-28.999214, -11.007914) " points="27.5367278 10.3829197 30.4616997 10.3829197 30.4616997 11.6329078 27.5367278 11.6329078"></polygon>
                    <polygon id="Rectangle" fill="#FFFFFF" fill-rule="nonzero" transform="translate(11.013125, 28.990623) rotate(-45.000000) translate(-11.013125, -28.990623) " points="9.55063903 28.3656285 12.475611 28.3656285 12.475611 29.6156165 9.55063903 29.6156165"></polygon>
                    <rect id="Rectangle" fill="#FFFFFF" fill-rule="nonzero" x="19.375" y="5.825" width="1.25" height="2.925"></rect>
                    <rect id="Rectangle" fill="#FFFFFF" fill-rule="nonzero" x="19.375" y="31.25" width="1.25" height="2.925"></rect>
                    <rect id="Rectangle" fill="#FFFFFF" fill-rule="nonzero" x="5.525" y="19.375" width="3.225" height="1.25"></rect>
                    <rect id="Rectangle" fill="#FFFFFF" fill-rule="nonzero" x="31.25" y="19.375" width="3.2375" height="1.25"></rect>
                    <polygon id="Rectangle" fill="#FFFFFF" fill-rule="nonzero" transform="translate(22.924214, 17.082554) rotate(-45.000000) translate(-22.924214, -17.082554) " points="20.2617393 16.4575597 25.5866882 16.4575597 25.5866882 17.7075478 20.2617393 17.7075478"></polygon>
                    <path d="M20,19.3875 C20.3375,19.3875 20.6125,19.6625 20.6125,20 C20.6125,20.3375 20.3375,20.6125 20,20.6125 C19.6625,20.6125 19.3875,20.3375 19.3875,20 C19.3875,19.6625 19.6625,19.3875 20,19.3875 L20,19.3875 Z M20,18.1375 C18.975,18.1375 18.1375,18.975 18.1375,20 C18.1375,21.025 18.975,21.8625 20,21.8625 C21.025,21.8625 21.8625,21.025 21.8625,20 C21.8625,18.975 21.0375,18.1375 20,18.1375 L20,18.1375 Z" id="Shape" fill="#FFFFFF" fill-rule="nonzero"></path>
                    <path d="M20,6.25 C27.5875,6.25 33.75,12.4125 33.75,20 C33.75,27.5875 27.5875,33.75 20,33.75 C12.4125,33.75 6.25,27.5875 6.25,20 C6.25,12.4125 12.4125,6.25 20,6.25 L20,6.25 Z M20,5 C11.7125,5 5,11.7125 5,20 C5,28.2875 11.7125,35 20,35 C28.2875,35 35,28.2875 35,20 C35,11.7125 28.2875,5 20,5 L20,5 Z" id="Shape" fill="#FFFFFF" fill-rule="nonzero"></path>
                    <path d="M23.75,25 L23.75,27.5 L16.25,27.5 L16.25,25 L23.75,25 L23.75,25 Z M23.75,23.75 L16.25,23.75 C15.5625,23.75 15,24.3125 15,25 L15,27.5 C15,28.1875 15.5625,28.75 16.25,28.75 L23.75,28.75 C24.4375,28.75 25,28.1875 25,27.5 L25,25 C25,24.3125 24.4375,23.75 23.75,23.75 L23.75,23.75 Z" id="Shape" fill="#FFFFFF" fill-rule="nonzero"></path>
                    <rect id="Rectangle" x="0" y="0" width="40" height="40"></rect>
                </g>
            </g>
        </g>
    </g>
</svg>