<?xml version="1.0" encoding="UTF-8"?>
<svg width="32px" height="32px" viewBox="0 0 32 32" version="1.1" xmlns="http://www.w3.org/2000/svg" xmlns:xlink="http://www.w3.org/1999/xlink">
    <!-- Generator: Sketch 57.1 (83088) - https://sketch.com -->
    <title>212-B32px</title>
    <desc>Created with Sketch.</desc>
    <g id="212-B32px" stroke="none" stroke-width="1" fill="none" fill-rule="evenodd">
        <g>
            <path d="M16,12 C16.55,12 17,12.45 17,13 C17,13.55 16.55,14 16,14 C15.45,14 15,13.55 15,13 C15,12.45 15.45,12 16,12 L16,12 Z M16,11 C14.9,11 14,11.9 14,13 C14,14.1 14.9,15 16,15 C17.1,15 18,14.1 18,13 C18,11.9 17.1,11 16,11 L16,11 Z" id="Shape" fill="#101828" fill-rule="nonzero"></path>
            <path d="M14,19 L14,18 C14,17.45 14.45,17 15,17 L17,17 C17.55,17 18,17.45 18,18 L18,19 L19,19 L19,18 C19,16.9 18.1,16 17,16 L15,16 C13.9,16 13,16.9 13,18 L13,19 L14,19 Z" id="Path" fill="#101828" fill-rule="nonzero"></path>
            <path d="M27.01,7 L4.99,7 C4.44,7 4,7.44 4,7.99 L4,19 L4.99,19 L4.99,8 L27,8 L27.01,21 L10.27,21 C9.88,21 9.49,21.12 9.17,21.34 L5.67,23.68 L4,24.81 L4,26 L9.72,22.17 C9.89,22.06 10.08,22 10.27,22 L27.01,22 C27.55,22 28,21.56 28,21.01 L28,7.99 C28,7.44 27.56,7 27.01,7 Z" id="Path" fill="#101828" fill-rule="nonzero"></path>
            <rect id="Rectangle" x="0" y="0" width="32" height="32"></rect>
        </g>
    </g>
</svg>