<?xml version="1.0" encoding="UTF-8"?>
<svg width="40px" height="40px" viewBox="0 0 40 40" version="1.1" xmlns="http://www.w3.org/2000/svg" xmlns:xlink="http://www.w3.org/1999/xlink">
    <!-- Generator: Sketch 57.1 (83088) - https://sketch.com -->
    <title>038-B40px</title>
    <desc>Created with Sketch.</desc>
    <g id="038-B40px" stroke="none" stroke-width="1" fill="none" fill-rule="evenodd">
        <g>
            <path d="M30,16.8625 C30,14.4875 28.1,12.5625 25.7375,12.5 L25.7375,16.8625 L30,16.8625 Z" id="Path" fill="#101828" fill-rule="nonzero"></path>
            <g id="Group" transform="translate(5.000000, 6.250000)" fill="#101828" fill-rule="nonzero">
                <path d="M7.5,10.8 L7.4875,13.65 C8.6625,13.7125 9.3125,13.4875 9.3625,12.2875 C9.425,10.8875 8.7875,10.675 7.5,10.8 Z" id="Path"></path>
                <path d="M28.75,2.5 L16.25,2.5 L16.25,0 L0,2.5 L0,25 L16.25,27.5 L16.25,25 L28.75,25 C29.4375,25 30,24.4375 30,23.75 L30,3.75 C30,3.0625 29.4375,2.5 28.75,2.5 Z M10.375,14.475 C9.725,15.2125 8.75,15.2375 7.475,15.3625 L7.425,18.575 L5.9,18.475 L5.9375,9.2 C8.4875,9.15 10.775,8.425 11.125,11.375 C11.275,12.5875 10.975,13.8 10.375,14.475 Z M28.75,23.75 L16.25,23.75 L16.25,21.25 L26.25,21.25 L26.25,20 L16.25,20 L16.25,18.75 L26.25,18.75 L26.25,17.5 L16.25,17.5 L16.25,14.925 C17.05,15.7375 18.15,16.25 19.375,16.25 C21.7875,16.25 23.75,14.2875 23.75,11.875 L19.4875,11.875 L19.4875,7.5125 C19.45,7.5125 19.4125,7.5 19.375,7.5 C18.15,7.5 17.05,8.0125 16.25,8.825 L16.25,3.75 L28.75,3.75 L28.75,23.75 Z" id="Shape"></path>
            </g>
            <rect id="Rectangle" x="0" y="0" width="40" height="40"></rect>
        </g>
    </g>
</svg>