<?xml version="1.0" encoding="UTF-8"?>
<svg width="56px" height="56px" viewBox="0 0 56 56" version="1.1" xmlns="http://www.w3.org/2000/svg" xmlns:xlink="http://www.w3.org/1999/xlink">
    <!-- Generator: Sketch 57.1 (83088) - https://sketch.com -->
    <title>206-B56px</title>
    <desc>Created with Sketch.</desc>
    <g id="206-B56px" stroke="none" stroke-width="1" fill="none" fill-rule="evenodd">
        <g>
            <g id="Group" transform="translate(7.000000, 15.750000)" fill="#101828" fill-rule="nonzero">
                <path d="M40.215,0 L30.205,0 L28.9275,1.75 L40.215,1.75 L40.25,1.785 L40.215,21.0175 L1.75,20.9825 L1.785,1.75 L13.0725,1.75 L11.795,0 L1.785,0 C0.805,0 0,0.805 0,1.785 L0,20.9825 C0,21.9625 0.805,22.7675 1.785,22.7675 L40.215,22.7675 C41.195,22.7675 42,21.9625 42,20.9825 L42,1.785 C42,0.805 41.195,0 40.215,0 Z" id="Path"></path>
                <polygon id="Path" points="19.5825 1.75 22.4175 1.75 23.7125 0 18.305 0"></polygon>
            </g>
            <path d="M42,27.9825 L34.265,27.9825 L35.5425,29.7325 L42,29.7325 L42,31.4825 L34.58,31.3775 L33.3725,29.7325 L33.39,29.7325 L32.2175,28.14 L32.2175,28.1575 L21.8575,14 L19.6875,14 L33.11,32.3225 C33.425,32.8825 34.02,33.2325 34.65,33.2325 L42,33.2325 C42.9625,33.2325 43.75,32.445 43.75,31.4825 L43.75,29.7325 C43.75,28.77 42.9625,27.9825 42,27.9825 Z" id="Path" fill="#101828" fill-rule="nonzero"></path>
            <path d="M27.965,38.395 C20.4225,38.395 14.77,39.55 12.25,40.18 L12.25,41.9825 C14.42,41.4225 20.195,40.145 27.965,40.145 C35.805,40.145 41.6325,41.44 43.75,42 L43.75,40.1975 C41.2475,39.5675 35.5775,38.395 27.965,38.395 Z" id="Path" fill="#101828" fill-rule="nonzero"></path>
            <polygon id="Path" fill="#101828" fill-rule="nonzero" points="30.17 22.4 36.33 14.0175 34.1425 14.0175 29.085 20.9125"></polygon>
            <path d="M25.8825,25.305 L23.7825,28.175 L23.7825,28.1575 L22.61,29.75 L22.6275,29.75 L21.35,31.5 L14,31.5 L14,29.75 L20.44,29.75 L21.7175,28 L14,28 C13.0375,28 12.25,28.7875 12.25,29.75 L12.25,31.5 C12.25,32.4625 13.0375,33.25 14,33.25 L21.35,33.25 C21.9975,33.25 22.5925,32.9 22.8375,32.4275 L26.9675,26.7925 L25.8825,25.305 Z" id="Path" fill="#101828" fill-rule="nonzero"></path>
            <rect id="Rectangle" x="0" y="0" width="56" height="56"></rect>
        </g>
    </g>
</svg>