<?xml version="1.0" encoding="UTF-8"?>
<svg width="32px" height="32px" viewBox="0 0 32 32" version="1.1" xmlns="http://www.w3.org/2000/svg" xmlns:xlink="http://www.w3.org/1999/xlink">
    <!-- Generator: Sketch 57.1 (83088) - https://sketch.com -->
    <title>140-B32px</title>
    <desc>Created with Sketch.</desc>
    <g id="140-B32px" stroke="none" stroke-width="1" fill="none" fill-rule="evenodd">
        <g>
            <path d="M16,4 L16,5 C17.2,5 18.4,5.2 19.6,5.6 C22.4,6.6 24.6,8.5 25.9,11.2 C27.2,13.8 27.4,16.8 26.4,19.6 C24.9,24 20.7,27 16,27 C14.8,27 13.6,26.8 12.4,26.4 C9.6,25.4 7.4,23.5 6.1,20.8 C4.8,18.2 4.6,15.2 5.6,12.4 C7.1,8 11.3,5 16,5 L16,4 L16,4 Z M16,4 C11,4 6.4,7.1 4.7,12.1 C2.5,18.4 5.9,25.2 12.1,27.4 C13.4,27.8 14.7,28.1 16,28.1 C21,28.1 25.6,25 27.3,20 C29.5,13.7 26.1,6.9 19.9,4.7 C18.6,4.2 17.3,4 16,4 L16,4 Z" id="Shape" fill="#101828" fill-rule="nonzero"></path>
            <path d="M24.5,18.9 L23.6,18.6 C25,14.4 22.8,9.9 18.7,8.4 L19,7.5 C23.6,9.1 26.1,14.3 24.5,18.9 Z" id="Path" fill="#101828" fill-rule="nonzero"></path>
            <path d="M13.1,24.5 C8.4,22.9 5.9,17.7 7.5,13.1 L8.4,13.4 C7,17.6 9.2,22.1 13.3,23.6 L13.1,24.5 Z" id="Path" fill="#101828" fill-rule="nonzero"></path>
            <path d="M19.9,13.9 L16.1,10.1 C16,10 15.8,10 15.7,10.1 L13.6,12.3 C13,12.9 13,13.5 13,14.3 L13,20.4 C13,20.7 13.1,21 13.3,21.2 C13.5,21.4 13.7,21.5 14,21.5 L18.4,21.5 C18.5,21.5 18.6,21.4 18.6,21.3 C18.6,21.2 18.6,21.1 18.5,21 L16,18.3 L20,14.3 C20,14.2 20,14 19.9,13.9 Z M17.4,20.7 L14,20.7 C13.9,20.7 13.9,20.7 13.9,20.6 C13.9,20.5 13.8,20.5 13.8,20.4 C13.8,20.4 13.8,20.3 13.8,20.3 C13.9,20.2 14.3,19.7 14.4,19.7 L15.4,18.7 L17.4,20.7 Z" id="Shape" fill="#101828" fill-rule="nonzero"></path>
            <rect id="Rectangle" x="0" y="0" width="32" height="32"></rect>
        </g>
    </g>
</svg>