<?xml version="1.0" encoding="UTF-8"?>
<svg width="80px" height="80px" viewBox="0 0 80 80" version="1.1" xmlns="http://www.w3.org/2000/svg" xmlns:xlink="http://www.w3.org/1999/xlink">
    <!-- Generator: Sketch 57.1 (83088) - https://sketch.com -->
    <title>246-B80px</title>
    <desc>Created with Sketch.</desc>
    <g id="246-B80px" stroke="none" stroke-width="1" fill="none" fill-rule="evenodd">
        <g>
            <path d="M47.5,55 L47.5,57.5 L32.5,57.5 L32.5,55 L47.5,55 L47.5,55 Z M50,52.5 L30,52.5 L30,60 L50,60 L50,52.5 L50,52.5 Z" id="Shape" fill="#101828" fill-rule="nonzero"></path>
            <path d="M45,65 L45,67.5 L35,67.5 L35,65 L45,65 L45,65 Z M45.1,62.5 L34.9,62.5 C33.575,62.5 32.5,63.575 32.5,64.9 L32.5,67.6 C32.5,68.925 33.575,70 34.9,70 L45.1,70 C46.425,70 47.5,68.925 47.5,67.6 L47.5,64.9 C47.5,63.575 46.425,62.5 45.1,62.5 L45.1,62.5 Z" id="Shape" fill="#101828" fill-rule="nonzero"></path>
            <path d="M47.5,60 L47.5,62.5 L32.5,62.5 L32.5,60 L47.5,60 L47.5,60 Z M47.5,57.5 L32.5,57.5 C31.125,57.5 30,58.625 30,60 L30,62.5 C30,63.875 31.125,65 32.5,65 L47.5,65 C48.875,65 50,63.875 50,62.5 L50,60 C50,58.625 48.875,57.5 47.5,57.5 L47.5,57.5 Z" id="Shape" fill="#101828" fill-rule="nonzero"></path>
            <path d="M40,12.5 C49.65,12.5 57.5,20.35 57.5,30 C57.5,34.15 56.025,38.15 53.35,41.3 C52.7,42.075 52.1,42.725 51.575,43.3 C49.025,46.075 47.625,47.8 47.5,52.5 L32.5,52.5 C32.35,47.6 30.7,45.8 28.475,43.325 C27.9,42.7 27.275,42 26.55,41.15 C23.3,37.25 21.925,32.275 22.725,27.175 C23.9,19.575 30.325,13.45 38,12.6 C38.65,12.55 39.325,12.5 40,12.5 L40,12.5 Z M40,10 C39.25,10 38.475,10.05 37.725,10.125 C28.925,11.1 21.625,18.05 20.25,26.8 C19.3,32.9 21.1,38.55 24.625,42.775 C28.2,47.075 30,47.6 30,53.2 L30,55 L50,55 L50,53.175 C50,47.65 51.675,47.125 55.25,42.925 C58.225,39.45 60,34.925 60,30 C60,18.95 51.05,10 40,10 L40,10 Z" id="Shape" fill="#101828" fill-rule="nonzero"></path>
            <path d="M27.5,30 L25,30 C25,21.725 31.725,15 40,15 L40,17.5 C33.1,17.5 27.5,23.1 27.5,30 Z" id="Path" fill="#101828" fill-rule="nonzero"></path>
            <rect id="Rectangle" x="0" y="0" width="80" height="80"></rect>
        </g>
    </g>
</svg>