<?xml version="1.0" encoding="UTF-8"?>
<svg width="40px" height="40px" viewBox="0 0 40 40" version="1.1" xmlns="http://www.w3.org/2000/svg" xmlns:xlink="http://www.w3.org/1999/xlink">
    <!-- Generator: Sketch 57.1 (83088) - https://sketch.com -->
    <title>170-B40px</title>
    <desc>Created with Sketch.</desc>
    <g id="170-B40px" stroke="none" stroke-width="1" fill="none" fill-rule="evenodd">
        <g>
            <path d="M33.725,11.25 L26.275,11.25 C26.275,11.675 26.225,12.0875 26.15,12.5 L33.725,12.5 L33.75,12.525 L33.725,26.275 L6.25,26.25 L6.275,12.5 L13.9,12.5 C13.8125,12.0875 13.775,11.675 13.775,11.25 L6.275,11.25 C5.575,11.25 5,11.8125 5,12.525 L5,26.25 C5,26.95 5.575,27.525 6.275,27.525 L33.725,27.525 C34.425,27.525 35,26.95 35,26.25 L35,12.525 C35,11.8125 34.425,11.25 33.725,11.25 Z" id="Path" fill="#101828" fill-rule="nonzero"></path>
            <path d="M20.025,7.5 C21.025,7.5 21.9625,7.8875 22.675,8.6 C24.1375,10.0625 24.1375,12.4375 22.675,13.9 C21.9625,14.6125 21.025,15 20.025,15 C19.025,15 18.0875,14.6125 17.375,13.9 C15.9125,12.4375 15.9125,10.0625 17.375,8.6 C18.075,7.8875 19.025,7.5 20.025,7.5 L20.025,7.5 Z M20.025,6.25 C18.75,6.25 17.4625,6.7375 16.4875,7.7125 C14.5375,9.6625 14.5375,12.825 16.4875,14.7875 C17.4625,15.7625 18.7375,16.25 20.025,16.25 C21.3125,16.25 22.5875,15.7625 23.5625,14.7875 C25.5125,12.8375 25.5125,9.675 23.5625,7.7125 C22.575,6.7375 21.3,6.25 20.025,6.25 L20.025,6.25 Z" id="Shape" fill="#101828" fill-rule="nonzero"></path>
            <rect id="Rectangle" fill="#101828" fill-rule="nonzero" x="19.4" y="15.3125" width="1.25" height="8.425"></rect>
            <rect id="Rectangle" fill="#101828" fill-rule="nonzero" x="17.525" y="18.7625" width="5" height="1.25"></rect>
            <path d="M19.975,27.4375 C14.5875,27.4375 10.5625,28.2625 8.75,28.7125 L8.75,30 C10.2875,29.6 14.425,28.6875 19.975,28.6875 C25.575,28.6875 29.7375,29.6125 31.25,30.0125 L31.25,28.725 C29.4625,28.2625 25.4125,27.4375 19.975,27.4375 Z" id="Path" fill="#101828" fill-rule="nonzero"></path>
            <rect id="Rectangle" x="0" y="0" width="40" height="40"></rect>
        </g>
    </g>
</svg>