<?xml version="1.0" encoding="UTF-8"?>
<svg width="80px" height="80px" viewBox="0 0 80 80" version="1.1" xmlns="http://www.w3.org/2000/svg" xmlns:xlink="http://www.w3.org/1999/xlink">
    <!-- Generator: Sketch 57.1 (83088) - https://sketch.com -->
    <title>209-C80px</title>
    <desc>Created with Sketch.</desc>
    <g id="NEW_icons" stroke="none" stroke-width="1" fill="none" fill-rule="evenodd">
        <g id="icons_UD_new-Copy" transform="translate(-2284.000000, -26591.000000)">
            <g id="209-C80px" transform="translate(2284.000000, 26591.000000)">
                <circle id="Oval-Copy-1226" fill="#FF4F12" cx="40" cy="40" r="40"></circle>
                <g id="209-B32px-Copy-9" transform="translate(12.000000, 12.000000)">
                    <path d="M47.25,10.5 L47.25,10.5175 L47.25,14.0525 L47.25,14.9975 L30.3975,28.6475 L29.75,29.1725 L29.75,30.0125 L29.75,42.2625 L26.25,45.4825 L26.25,30.0125 L26.25,29.1725 L25.6025,28.6475 L8.75,14.9975 L8.75,14.07 L8.75,10.5 L47.25,10.5 L47.25,10.5 Z M47.25,8.75 L8.75,8.75 C7.7875,8.75 7,9.5375 7,10.5175 L7,14.0525 L7,15.82 L24.5,29.995 L24.5,45.465 C24.5,46.5325 25.3575,47.2325 26.2675,47.2325 C26.67,47.2325 27.09,47.0925 27.44,46.76 L30.94,43.5225 C31.3075,43.19 31.5,42.7175 31.5,42.21 L31.5,29.995 L49,15.82 L49,14.07 L49,10.5175 C49,9.5375 48.2125,8.75 47.25,8.75 L47.25,8.75 Z" id="Shape" fill="#FFFFFF" fill-rule="nonzero"></path>
                    <rect id="Rectangle" fill="#FFFFFF" fill-rule="nonzero" x="7.875" y="14.07" width="40.25" height="1.75"></rect>
                    <rect id="Rectangle" x="0" y="0" width="56" height="56"></rect>
                </g>
            </g>
        </g>
    </g>
</svg>