<?xml version="1.0" encoding="UTF-8"?>
<svg width="32px" height="32px" viewBox="0 0 32 32" version="1.1" xmlns="http://www.w3.org/2000/svg" xmlns:xlink="http://www.w3.org/1999/xlink">
    <!-- Generator: Sketch 57.1 (83088) - https://sketch.com -->
    <title>142-B32px</title>
    <desc>Created with Sketch.</desc>
    <g id="142-B32px" stroke="none" stroke-width="1" fill="none" fill-rule="evenodd">
        <g>
            <path d="M13.59,18 L9,18 C6.24,18 4,20.24 4,23 L4,28 L5,28 L5,23 C5,20.79 6.79,19 9,19 L13.26,19 C13.35,18.66 13.46,18.32 13.59,18 Z" id="Path" fill="#101828" fill-rule="nonzero"></path>
            <path d="M21,26.5 C17.97,26.5 15.5,24.03 15.5,21 L16.5,21 C16.5,23.48 18.52,25.5 21,25.5 L21,26.5 Z" id="Path" fill="#101828" fill-rule="nonzero"></path>
            <path d="M26.5,21 L25.5,21 C25.5,18.52 23.48,16.5 21,16.5 L21,15.5 C24.03,15.5 26.5,17.97 26.5,21 Z" id="Path" fill="#101828" fill-rule="nonzero"></path>
            <path d="M21,15 C24.31,15 27,17.69 27,21 C27,24.31 24.31,27 21,27 C17.69,27 15,24.31 15,21 C15,17.69 17.69,15 21,15 L21,15 Z M21,14 C17.13,14 14,17.13 14,21 C14,24.87 17.13,28 21,28 C24.87,28 28,24.87 28,21 C28,17.13 24.87,14 21,14 L21,14 Z" id="Shape" fill="#101828" fill-rule="nonzero"></path>
            <path d="M23.51,19.92 L21.28,17.68 C21.2,17.6 21.06,17.6 20.98,17.68 L19.72,18.94 C19.34,19.32 19.349975,19.7 19.349975,20.14 L19.349975,23.7 C19.349975,23.88 19.41,24.06 19.54,24.18 C19.66,24.3 19.83,24.38 19.99,24.38 L22.58,24.38 C22.67,24.38 22.74,24.33 22.78,24.25 C22.81,24.17 22.79,24.08 22.73,24.02 L21.22,22.51 L23.51,20.22 C23.59,20.13 23.59,20 23.51,19.92 Z M21.85,23.86 L20,23.86 C19.98,23.86 19.96,23.85 19.96,23.85 C19.95,23.83 19.94,23.82 19.94,23.81 L19.94,23.78 C20.02,23.69 20.26,23.45 20.28,23.43 L20.85,22.86 L21.85,23.86 Z" id="Shape" fill="#101828" fill-rule="nonzero"></path>
            <path d="M13,5 C15.76,5 18,7.24 18,10 C18,12.76 15.76,15 13,15 C10.24,15 8,12.76 8,10 C8,7.24 10.24,5 13,5 L13,5 Z M13,4 C9.69,4 7,6.69 7,10 C7,13.31 9.69,16 13,16 C16.31,16 19,13.31 19,10 C19,6.69 16.31,4 13,4 L13,4 Z" id="Shape" fill="#101828" fill-rule="nonzero"></path>
            <rect id="Rectangle" x="0" y="0" width="32" height="32"></rect>
        </g>
    </g>
</svg>