<?xml version="1.0" encoding="UTF-8"?>
<svg width="80px" height="80px" viewBox="0 0 80 80" version="1.1" xmlns="http://www.w3.org/2000/svg" xmlns:xlink="http://www.w3.org/1999/xlink">
    <!-- Generator: Sketch 57.1 (83088) - https://sketch.com -->
    <title>242-B80px</title>
    <desc>Created with Sketch.</desc>
    <g id="242-B80px" stroke="none" stroke-width="1" fill="none" fill-rule="evenodd">
        <g>
            <path d="M37.475,13.15 L42.8,20.825 L44.85,23.8 L46.9,20.825 L52.175,13.2 L57.5,22.55 L57.5,67.5 L17.5,67.5 L17.5,22.55 L22.575,13.475 L27.975,20.9 L30.025,23.725 L32.05,20.875 L37.475,13.15 L37.475,13.15 Z M52.25,10 C51.8,10 51.35,10.175 51.025,10.525 L44.875,19.425 L38.675,10.5 C38.35,10.175 37.925,10 37.5,10 C37.075,10 36.65,10.175 36.325,10.5 L30,19.4 L23.525,10.525 C23.25,10.225 22.85,10.075 22.475,10.075 C22,10.075 21.55,10.3 21.25,10.7 L15.2,21.525 C15.075,21.75 15,22.025 15,22.325 L15,68.35 C15,69.25 15.75,70 16.65,70 L58.425,70 C59.3,70 60,69.3 60,68.425 L60,22.3 C60,22.025 59.925,21.775 59.8,21.525 L53.65,10.7 C53.3,10.225 52.775,10 52.25,10 L52.25,10 Z" id="Shape" fill="#101828" fill-rule="nonzero"></path>
            <path d="M35,55 L32.5,55 L32.5,45 L30,45 L30,42.5 L32.5,42.5 L32.5,32.5 L41.35,32.5 C44.75,32.5 47.5,35.25 47.5,38.65 C47.5,42.15 44.65,45 41.15,45 L35,45 L35,55 Z M35,42.5 L41.15,42.5 C43.275,42.5 45,40.775 45,38.65 C45,36.625 43.35,35 41.35,35 L35,35 L35,42.5 Z" id="Shape" fill="#101828" fill-rule="nonzero"></path>
            <rect id="Rectangle" fill="#101828" fill-rule="nonzero" x="30.025" y="47.5" width="12.5" height="2.5"></rect>
            <rect id="Rectangle" x="0" y="0" width="80" height="80"></rect>
        </g>
    </g>
</svg>