<?xml version="1.0" encoding="UTF-8"?>
<svg width="80px" height="80px" viewBox="0 0 80 80" version="1.1" xmlns="http://www.w3.org/2000/svg" xmlns:xlink="http://www.w3.org/1999/xlink">
    <!-- Generator: Sketch 57.1 (83088) - https://sketch.com -->
    <title>197-B80px</title>
    <desc>Created with Sketch.</desc>
    <g id="197-B80px" stroke="none" stroke-width="1" fill="none" fill-rule="evenodd">
        <g>
            <rect id="Rectangle" fill="#101828" fill-rule="nonzero" x="17.5" y="27.5" width="20" height="2.5"></rect>
            <rect id="Rectangle" fill="#101828" fill-rule="nonzero" x="17.5" y="32.5" width="15" height="2.5"></rect>
            <rect id="Rectangle" fill="#101828" fill-rule="nonzero" x="17.5" y="37.5" width="15" height="2.5"></rect>
            <path d="M45,50.025 L12.5,50 L12.55,22.5 L67.45,22.5 L67.5,22.55 L67.45,50.05 L62.5,50.05 L62.5,52.5 L67.675,52.5 C68.975,52.375 70,51.325 70,50 L70,22.55 C70,21.15 68.85,20 67.45,20 L12.55,20 C11.15,20 10,21.15 10,22.55 L10,50 C10,51.4 11.15,52.55 12.55,52.55 L34.05,52.55 C26.25,53 20.425,54.175 17.5,54.9 L17.5,57.5 C20.575,56.7 28.85,54.875 39.95,54.875 C41.7,54.875 43.4,54.925 45,55 L45,50.025 Z" id="Path" fill="#101828" fill-rule="nonzero"></path>
            <g id="Group" transform="translate(45.000000, 32.500000)" fill="#101828" fill-rule="nonzero">
                <path d="M8.75,2.5 C12.2,2.5 15,5.3 15,8.75 C15,12.2 12.2,15 8.75,15 C5.3,15 2.5,12.2 2.5,8.75 C2.5,5.3 5.3,2.5 8.75,2.5 L8.75,2.5 Z M8.75,0 C3.925,0 0,3.925 0,8.75 C0,13.575 3.925,17.5 8.75,17.5 C13.575,17.5 17.5,13.575 17.5,8.75 C17.5,3.925 13.575,0 8.75,0 L8.75,0 Z" id="Shape"></path>
                <path d="M8.75,7.5 C9.45,7.5 10,8.075 10,8.75 C10,9.45 9.425,10 8.75,10 C8.05,10 7.5,9.425 7.5,8.75 C7.5,8.075 8.05,7.5 8.75,7.5 L8.75,7.5 Z M8.75,5 C6.675,5 5,6.675 5,8.75 C5,10.825 6.675,12.5 8.75,12.5 C10.825,12.5 12.5,10.825 12.5,8.75 C12.5,6.675 10.825,5 8.75,5 L8.75,5 Z" id="Shape"></path>
                <path d="M12.5,16.9 L12.5,28.4 L9.9,27.05 L8.75,26.45 L7.6,27.05 L5,28.4 L5,16.95 C6.05,17.325 7.275,17.55 8.7,17.55 C10.175,17.525 11.425,17.275 12.5,16.9 L12.5,16.9 Z M15,11.55 C15,11.55 13.75,15.025 8.7,15.025 C3.625,15.025 2.5,11.55 2.5,11.55 L2.5,32.5 L8.75,29.25 L15,32.5 L15,11.55 L15,11.55 Z" id="Shape"></path>
            </g>
            <rect id="Rectangle" x="0" y="0" width="80" height="80"></rect>
        </g>
    </g>
</svg>