<?xml version="1.0" encoding="UTF-8"?>
<svg width="42px" height="42px" viewBox="0 0 42 42" version="1.1" xmlns="http://www.w3.org/2000/svg" xmlns:xlink="http://www.w3.org/1999/xlink">
    <!-- Generator: Sketch 58 (84663) - https://sketch.com -->
    <title>263-G40px</title>
    <desc>Created with Sketch.</desc>
    <g id="NEW_icons" stroke="none" stroke-width="1" fill="none" fill-rule="evenodd">
        <g id="icons_UD_new-Copy" transform="translate(-1526.000000, -33413.000000)">
            <g id="263-G40px" transform="translate(1527.000000, 33414.000000)">
                <circle id="Oval-Copy-168" stroke="#E3E8EC" cx="20" cy="20" r="20"></circle>
                <g id="014-B32px-Copy-2" transform="translate(4.000000, 4.000000)">
                    <path d="M22,10.25 C21.83,10.25 21.67,10.26 21.51,10.28 C20.54,7.77 18.21,6 15.5,6 C12.42,6 9.85,8.28 9.18,11.33 C6.29,11.51 4,14.04 4,17.15 C4,20.38 6.46,22.99 9.5,22.99 C9.51,22.99 9.51,22.99 9.52,22.99 L9.52,22.99 L13,22.99 L13,21.99 L10.52,21.99 L10.52,21.99 L9.52,21.99 L9.47,21.99 L9.47,21.99 C7,21.97 5,19.81 5,17.15 C5,14.59 6.86,12.47 9.24,12.32 L9.99,12.27 L10.15,11.53 C10.74,8.87 12.94,7 15.5,7 C17.73,7 19.72,8.43 20.58,10.64 L20.85,11.34 L21.6,11.28 C21.73,11.27 21.87,11.26 22,11.26 C24.76,11.26 27,13.67 27,16.63 C27,19.59 24.76,22 22,22 L18,22 L18,23 L22,23 C25.31,23 28,20.15 28,16.63 C28,13.11 25.31,10.25 22,10.25 Z" id="Path" fill="#101828" fill-rule="nonzero"></path>
                    <path d="M15.5,21.89 L16.2,23 L14.8,23 L15.5,21.89 L15.5,21.89 Z M15.5,20 L13,24 L18,24 L15.5,20 L15.5,20 Z" id="Shape" fill="#101828" fill-rule="nonzero" transform="translate(15.500000, 22.000000) rotate(-180.000000) translate(-15.500000, -22.000000) "></path>
                    <rect id="Rectangle" fill="#101828" fill-rule="nonzero" transform="translate(15.500000, 18.000000) rotate(-180.000000) translate(-15.500000, -18.000000) " x="15" y="16" width="1" height="4"></rect>
                    <rect id="Rectangle" x="0" y="0" width="32" height="32"></rect>
                </g>
            </g>
        </g>
    </g>
</svg>