<?xml version="1.0" encoding="UTF-8"?>
<svg width="56px" height="56px" viewBox="0 0 56 56" version="1.1" xmlns="http://www.w3.org/2000/svg" xmlns:xlink="http://www.w3.org/1999/xlink">
    <!-- Generator: Sketch 56.3 (81716) - https://sketch.com -->
    <title>160-W56px</title>
    <desc>Created with Sketch.</desc>
    <g id="NEW_icons" stroke="none" stroke-width="1" fill="none" fill-rule="evenodd">
        <g id="icons_UD_new-Copy" transform="translate(-532.000000, -20435.000000)">
            <g id="160-W56px" transform="translate(532.000000, 20435.000000)">
                <circle id="Oval-Copy-941" fill="#101828" cx="28" cy="28" r="28"></circle>
                <g id="160-B32px-Copy-6" transform="translate(8.000000, 8.000000)">
                    <path d="M20.625,29.375 C20.275,29.375 20,29.65 20,30 C20,30.35 20.275,30.625 20.625,30.625 C20.975,30.625 21.25,30.35 21.25,30 C21.25,29.65 20.975,29.375 20.625,29.375 L20.625,29.375 Z" id="Path" fill="#FFFFFF" fill-rule="nonzero"></path>
                    <path d="M33.6875,16.25 L26.3125,16.25 C25.5875,16.25 25,16.8375 25,17.5625 L25,27.5 L25,28.75 L25,31.1875 C25,31.9125 25.5875,32.5 26.3125,32.5 L33.6875,32.5 C34.4125,32.5 35,31.9125 35,31.1875 L35,28.75 L35,27.5 L35,17.5625 C35,16.8375 34.4125,16.25 33.6875,16.25 Z M33.75,31.1875 C33.75,31.225 33.725,31.25 33.6875,31.25 L26.3125,31.25 C26.275,31.25 26.25,31.225 26.25,31.1875 L26.25,28.75 L33.75,28.75 L33.75,31.1875 Z M26.25,27.5 L26.25,17.5625 C26.25,17.525 26.275,17.5 26.3125,17.5 L33.6875,17.5 C33.725,17.5 33.75,17.525 33.75,17.5625 L33.75,27.5 L26.25,27.5 Z" id="Shape" fill="#FFFFFF" fill-rule="nonzero"></path>
                    <path d="M30,29.375 C29.65,29.375 29.375,29.65 29.375,30 C29.375,30.35 29.65,30.625 30,30.625 C30.35,30.625 30.625,30.35 30.625,30 C30.625,29.65 30.35,29.375 30,29.375 L30,29.375 Z" id="Path" fill="#FFFFFF" fill-rule="nonzero"></path>
                    <path d="M26.1875,12.5 L16.625,12.5 C16.625,12.5 16.625,12.5 16.625,12.5 C16.8375,12.675 17.05,12.85 17.2375,13.0625 C17.3375,13.1625 17.425,13.2875 17.5125,13.3875 C17.6125,13.5125 17.7125,13.6125 17.8,13.75 L17.8,13.75 L26.1875,13.75 C26.225,13.75 26.25,13.775 26.25,13.8125 L26.25,15 L27.5,15 L27.5,13.8125 C27.5,13.0875 26.9125,12.5 26.1875,12.5 Z" id="Path" fill="#FFFFFF" fill-rule="nonzero"></path>
                    <path d="M33.725,8.75 L6.275,8.75 C5.575,8.75 5,9.325 5,10.025 L5,23.75 C5,24.45 5.575,25.025 6.275,25.025 L8.75,25.025 L8.75,23.75 L6.25,23.75 L6.275,10 L33.725,10 L33.75,10.025 L33.7375,15 L34.65,15 C34.775,15 34.875,15.0375 35,15.075 L35,10.025 C35,9.325 34.425,8.75 33.725,8.75 Z" id="Path" fill="#FFFFFF" fill-rule="nonzero"></path>
                    <g id="Group" transform="translate(8.750000, 12.500000)" fill="#FFFFFF" fill-rule="nonzero">
                        <path d="M8.75,4.375 C8.75,1.9625 6.7875,0 4.375,0 C1.9625,0 0,1.9625 0,4.375 C0,5.5625 0.475,6.6375 1.25,7.425 L1.25,16.25 L4.375,14.625 L7.5,16.25 L7.5,7.425 C8.275,6.6375 8.75,5.5625 8.75,4.375 Z M4.375,1.25 C6.1,1.25 7.5,2.65 7.5,4.375 C7.5,6.1 6.1,7.5 4.375,7.5 C2.65,7.5 1.25,6.1 1.25,4.375 C1.25,2.65 2.65,1.25 4.375,1.25 Z M6.25,14.2 L4.95,13.525 L4.375,13.225 L3.8,13.525 L2.5,14.2 L2.5,8.475 C3.025,8.6625 3.6375,8.775 4.35,8.775 C5.0875,8.775 5.7125,8.65 6.25,8.4625 L6.25,14.2 Z" id="Shape"></path>
                        <path d="M4.375,6.2625 C5.4125,6.2625 6.25,5.425 6.25,4.3875 C6.25,3.35 5.4125,2.5 4.375,2.5 C3.3375,2.5 2.5,3.3375 2.5,4.3875 C2.5,5.4375 3.3375,6.2625 4.375,6.2625 Z M4.375,3.75 C4.725,3.75 5,4.0375 5,4.375 C5,4.725 4.7125,5 4.375,5 C4.0375,5 3.75,4.7125 3.75,4.375 C3.75,4.0375 4.025,3.75 4.375,3.75 Z" id="Shape"></path>
                    </g>
                    <g id="Group" transform="translate(13.750000, 27.500000)" fill="#FFFFFF" fill-rule="nonzero">
                        <rect id="Rectangle" x="3.75" y="0" width="6.25" height="1.25"></rect>
                        <path d="M10,4.65 L10,3.75 L1.3125,3.75 C1.275,3.75 1.25,3.725 1.25,3.6875 L1.25,2.2625 L0,1.6 L0,3.6875 C0,4.4125 0.5875,5 1.3125,5 L10.0625,5 C10.05,4.8875 10,4.775 10,4.65 Z" id="Path"></path>
                    </g>
                    <rect id="Rectangle" x="0" y="0" width="40" height="40"></rect>
                </g>
            </g>
        </g>
    </g>
</svg>