<?xml version="1.0" encoding="UTF-8"?>
<svg width="32px" height="32px" viewBox="0 0 32 32" version="1.1" xmlns="http://www.w3.org/2000/svg" xmlns:xlink="http://www.w3.org/1999/xlink">
    <!-- Generator: Sketch 57.1 (83088) - https://sketch.com -->
    <title>179-B32px</title>
    <desc>Created with Sketch.</desc>
    <g id="179-B32px" stroke="none" stroke-width="1" fill="none" fill-rule="evenodd">
        <g>
            <path d="M24,5.01 L24,26.99 L8.56,26.99 C8.23,26.99 8,26.99 8,26.99 L8,9.02 L12.38,5.01 L24,5.01 Z M23.52,4.01 L12,4.01 L7,8.57 L7,26.61 C7,27.37 7.7,27.99 8.56,27.99 L23.54,27.99 C24.35,27.99 25,27.41 25,26.69 L25,5.32 C25,4.6 24.34,4.01 23.52,4.01 L23.52,4.01 Z" id="Shape" fill="#101828" fill-rule="nonzero"></path>
            <path d="M16,13.74 L16.76,14.92 L17.44,15.98 L19,14.29 L19,20 L13,20 L13,14.3 L14.56,15.98 L15.24,14.92 L16,13.74 L16,13.74 Z M16,12 C15.96,12 15.92,12.02 15.89,12.06 L14.4,14.37 L12.22,12.05 C12.19,12.02 12.16,12.01 12.13,12.01 C12.06,12.01 12,12.06 12,12.15 L12,21 L20,21 L20,12.15 C20,12.07 19.94,12.01 19.87,12.01 C19.84,12.01 19.8,12.02 19.78,12.05 L17.6,14.37 L16.11,12.06 C16.08,12.02 16.04,12 16,12 L16,12 Z" id="Shape" fill="#101828" fill-rule="nonzero"></path>
            <rect id="Rectangle" fill="#101828" fill-rule="nonzero" x="13" y="18" width="6" height="1"></rect>
            <g id="Group" transform="translate(7.000000, 16.000000)" fill="#101828" fill-rule="nonzero">
                <path d="M0,0.01 L0,10.98 C0,11.54 0.46,12 1.02,12 L6,12 L6,10.99 L1,10.99 L1.02,-1.77635684e-15" id="Path"></path>
                <path d="M4.73,10.99 L4.73,12" id="Path"></path>
            </g>
            <g id="Group" transform="translate(19.000000, 16.000000)" fill="#101828" fill-rule="nonzero">
                <path d="M6,0.01 L6,10.98 C6,11.54 5.54,12 4.98,12 L0,12 L0,10.99 L5,10.99 L4.98,0" id="Path"></path>
                <path d="M1.27,10.99 L1.27,12" id="Path"></path>
            </g>
            <g id="Group" transform="translate(19.000000, 4.000000)" fill="#101828" fill-rule="nonzero">
                <path d="M6,11.99 L6,1.02 C6,0.46 5.54,0 4.98,0 L0,0 L0,1.01 L5,1.01 L4.98,12" id="Path"></path>
                <path d="M1.27,1.01 L1.27,0" id="Path"></path>
            </g>
            <rect id="Rectangle" x="0" y="0" width="32" height="32"></rect>
        </g>
    </g>
</svg>