<?xml version="1.0" encoding="UTF-8"?>
<svg width="80px" height="80px" viewBox="0 0 80 80" version="1.1" xmlns="http://www.w3.org/2000/svg" xmlns:xlink="http://www.w3.org/1999/xlink">
    <!-- Generator: Sketch 57.1 (83088) - https://sketch.com -->
    <title>069-G80px</title>
    <desc>Created with Sketch.</desc>
    <g id="NEW_icons" stroke="none" stroke-width="1" fill="none" fill-rule="evenodd">
        <g id="icons_UD_new-Copy" transform="translate(-2051.000000, -9017.000000)">
            <g id="069-G80px" transform="translate(2051.000000, 9017.000000)">
                <circle id="Oval-Copy-451" fill="#E3E8EC" cx="40" cy="40" r="40"></circle>
                <g id="069-B32px-Copy-9" transform="translate(12.000000, 12.000000)">
                    <path d="M29.785,38.7275 C23.3275,35.875 18.06,30.5025 17.99,30.45 C17.92,30.3625 9.7475,21.805 8.75,13.3875 C8.75,13.335 8.75,13.2475 8.8025,13.195 L13.3875,8.7675 C13.4225,8.7325 13.4575,8.715 13.51,8.715 C13.545,8.715 13.58,8.75 13.58,8.75 L20.4925,15.89 C20.545,15.9425 20.5275,16.03 20.475,16.1 L17.4125,19.0575 L16.5725,19.88 L17.01,20.965 C17.08,21.14 18.7075,25.1125 21.035,27.51 C23.3625,29.9075 27.2825,31.675 27.4575,31.745 L28.5425,32.2175 L29.3825,31.395 L32.445,28.4375 C32.48,28.4025 32.515,28.385 32.5675,28.385 C32.62,28.385 32.655,28.42 32.655,28.42 L33.8975,29.6975 C34.3875,29.3475 34.9125,29.05 35.4725,28.805 L33.915,27.195 C33.5475,26.81 33.0575,26.6175 32.5675,26.6175 C32.095,26.6175 31.605,26.7925 31.2375,27.16 L28.175,30.1175 C28.175,30.1175 24.43,28.455 22.3125,26.2675 C20.195,24.08 18.655,20.2825 18.655,20.2825 L21.7175,17.325 C22.47,16.59 22.505,15.4 21.77,14.6475 L14.84,7.5425 C14.4725,7.1575 13.9825,6.965 13.4925,6.965 C13.02,6.965 12.53,7.14 12.1625,7.5075 L7.5775,11.935 C7.14,12.3725 6.9475,12.985 7.0175,13.5975 C8.1025,22.7325 16.7475,31.6575 16.7475,31.6575 C16.7475,31.6575 22.855,37.9575 30.275,40.81 C30.0475,40.145 29.8725,39.4625 29.785,38.7275 Z" id="Path" fill="#101828" fill-rule="nonzero"></path>
                    <path d="M38.5,29.4 L40.4425,30.625 L38.5,31.8325 L38.5,29.4 L38.5,29.4 Z M36.75,26.25 L36.75,35 L43.75,30.625 L36.75,26.25 L36.75,26.25 Z" id="Shape" fill="#101828" fill-rule="nonzero"></path>
                    <path d="M34.1425,43.4875 L35.6825,42.5075 C34.195,41.3875 33.215,39.62 33.215,37.625 C33.215,35.175 34.6675,33.075 36.75,32.095 L36.75,30.2225 C33.6875,31.3075 31.465,34.195 31.465,37.625 C31.465,39.97 32.515,42.0525 34.1425,43.4875 Z" id="Path" fill="#101828" fill-rule="nonzero"></path>
                    <path d="M44.5725,31.78 L43.0325,32.76 C44.5025,33.88 45.4825,35.63 45.4825,37.625 C45.4825,40.0575 44.0475,42.14 41.9825,43.1375 L41.9825,45.0275 C45.0275,43.9425 47.2325,41.055 47.2325,37.6425 C47.215,35.2975 46.1825,33.215 44.5725,31.78 Z" id="Path" fill="#101828" fill-rule="nonzero"></path>
                    <path d="M40.215,43.4 L40.215,45.8325 L38.2725,44.6075 L40.215,43.4 L40.215,43.4 Z M41.965,40.25 L34.965,44.625 L41.965,49 L41.965,40.25 L41.965,40.25 Z" id="Shape" fill="#101828" fill-rule="nonzero"></path>
                    <rect id="Rectangle" x="0" y="0" width="56" height="56"></rect>
                </g>
            </g>
        </g>
    </g>
</svg>