<?xml version="1.0" encoding="UTF-8"?>
<svg width="80px" height="80px" viewBox="0 0 80 80" version="1.1" xmlns="http://www.w3.org/2000/svg" xmlns:xlink="http://www.w3.org/1999/xlink">
    <!-- Generator: Sketch 57.1 (83088) - https://sketch.com -->
    <title>012-B80px</title>
    <desc>Created with Sketch.</desc>
    <g id="012-B80px" stroke="none" stroke-width="1" fill="none" fill-rule="evenodd">
        <g>
            <g id="Group-29-Copy-2_1_" transform="translate(12.500000, 10.000000)" fill="#101828" fill-rule="nonzero">
                <g id="Stroke-310_1_" transform="translate(27.500000, 0.000000)">
                    <path d="M8.225,15.475 C6.075,15.475 4.05,14.6 2.55,13 C0.9,11.175 0.2,8.725 0.65,6.25 C1.225,3.2 3.675,0.75 6.725,0.15 C9.275,-0.35 11.875,0.45 13.7,2.275 C15.525,4.1 16.3,6.7 15.825,9.25 L15.825,9.25 C15.2,12.525 12.45,15.05 9.1,15.425 C8.825,15.45 8.525,15.475 8.225,15.475 Z M8.25,2.525 C7.9,2.525 7.55,2.55 7.2,2.625 C5.175,3 3.5,4.7 3.125,6.725 C2.8,8.4 3.275,10.075 4.4,11.3 C5.55,12.525 7.15,13.125 8.825,12.95 C11.05,12.7 12.95,10.95 13.35,8.8 L13.35,8.8 C13.675,7.025 13.175,5.3 11.925,4.075 C10.95,3.05 9.625,2.525 8.25,2.525 Z" id="Shape"></path>
                </g>
                <g id="Stroke-312_2_" transform="translate(0.000000, 12.500000)">
                    <path d="M38.425,47.475 C37.425,47.475 36.45,47.15 35.625,46.55 C34.6,45.8 33.925,44.675 33.725,43.4 L31.65,29.825 L24.425,24.15 L22.1,33.475 C21.575,35.575 19.7,37.025 17.55,37.025 L4.25,37.025 C2.675,37.025 1.3,36.2 0.55,34.825 C-0.2,33.45 -0.15,31.825 0.7,30.525 C1.6,29.15 3.1,28.3 4.75,28.3 L14.025,28.3 C13.95,26.95 13.775,21.325 16.125,17.2 L22.175,7.8 L20.075,7.8 C18.7,7.8 17.425,8.5 16.675,9.675 L13.575,14.5 C12.875,15.6 11.65,16.275 10.325,16.275 C8.85,16.275 7.55,15.5 6.825,14.225 C6.1,12.95 6.15,11.425 6.925,10.175 L9.675,5.725 C11.7,2.425 15.25,0.475 19.1,0.475 L33.95,0.475 C35.675,0.475 37.25,1.475 38,3.025 L41.05,9.35 C41.35,9.9 41.9,10.25 42.5,10.25 L50.1,10.25 C51.075,10.25 51.975,10.625 52.65,11.325 C53.325,12.025 53.7,12.925 53.7,13.9 C53.675,15.875 52.05,17.475 50.1,17.475 L40.825,17.475 C38.575,17.475 36.475,16.25 35.35,14.3 L34.6,13.025 L32.175,18.075 L38.475,24.075 C39.775,25.3 40.6,26.95 40.85,28.725 L43.1,41.95 C43.3,43.2 43,44.475 42.275,45.5 C41.55,46.525 40.425,47.225 39.175,47.425 C38.925,47.45 38.675,47.475 38.425,47.475 Z M34.1,29.3 L36.2,43.05 C36.3,43.65 36.6,44.175 37.1,44.55 C37.575,44.9 38.175,45.05 38.775,44.95 C39.375,44.85 39.9,44.525 40.25,44.05 C40.6,43.55 40.75,42.975 40.65,42.375 L38.4,29.125 C38.225,27.875 37.65,26.75 36.775,25.9 L29.8,19.25 C29.4,18.875 29.3,18.3 29.525,17.8 L33.35,9.825 C33.55,9.4 33.95,9.15 34.425,9.125 C34.9,9.1 35.325,9.35 35.575,9.75 L37.525,13.025 C38.2,14.225 39.475,14.975 40.825,14.975 L50.1,14.975 C50.7,14.975 51.2,14.475 51.2,13.875 C51.2,13.575 51.1,13.3 50.875,13.075 C50.675,12.875 50.375,12.75 50.1,12.75 L42.5,12.75 C40.95,12.75 39.5,11.85 38.825,10.45 L35.775,4.1 C35.45,3.425 34.75,2.975 33.975,2.975 L19.125,2.975 C16.125,2.975 13.4,4.5 11.825,7.05 L9.075,11.5 C8.775,11.975 8.75,12.525 9.025,13.025 C9.525,13.9 10.925,14.025 11.475,13.175 L14.575,8.325 C15.775,6.425 17.85,5.3 20.075,5.3 L24.475,5.3 C24.925,5.3 25.35,5.55 25.575,5.95 C25.8,6.35 25.775,6.85 25.525,7.225 L18.275,18.475 C16.05,22.375 16.55,28.425 16.55,28.5 C16.525,29.85 15.575,30.775 14.35,30.775 L4.75,30.775 C3.95,30.775 3.225,31.175 2.8,31.85 C2.45,32.4 2.425,33.05 2.75,33.625 C3.05,34.175 3.625,34.525 4.275,34.525 L17.575,34.525 C18.575,34.525 19.45,33.85 19.7,32.875 L22.175,22.975 C22.4,22.05 23.15,21.425 24.1,21.325 C24.925,21.25 25.675,21.625 26.125,22.275 L33.375,28 C33.75,28.325 34.025,28.775 34.1,29.3 Z" id="Shape"></path>
                </g>
            </g>
            <rect id="Rectangle" x="0" y="0" width="80" height="80"></rect>
        </g>
    </g>
</svg>