<?xml version="1.0" encoding="UTF-8"?>
<svg width="42px" height="42px" viewBox="0 0 42 42" version="1.1" xmlns="http://www.w3.org/2000/svg" xmlns:xlink="http://www.w3.org/1999/xlink">
    <!-- Generator: Sketch 59.1 (86144) - https://sketch.com -->
    <title>264-G40px</title>
    <desc>Created with Sketch.</desc>
    <g id="NEW_icons" stroke="none" stroke-width="1" fill="none" fill-rule="evenodd">
        <g id="icons_UD_new-Copy" transform="translate(-243.000000, -33663.000000)">
            <g id="264-G40px" transform="translate(244.000000, 33664.000000)">
                <circle id="Oval-Copy-1689" stroke="#E3E8EC" cx="20" cy="20" r="20"></circle>
                <g id="264-B32px-Copy" transform="translate(4.000000, 4.000000)">
                    <rect id="Rectangle" x="0" y="0" width="32" height="32"></rect>
                    <g id="Group" transform="translate(8.000000, 3.000000)" fill="#101828" fill-rule="nonzero">
                        <path d="M5,1.5 L15,3.2 C15,3.2 15,3.2 15,3.2 L15,21.8 L5,23.5 C5,23.5 5,23.5 5,23.5 L5,1.5 M4.9,0.5 C4.4,0.5 4,0.9 4,1.5 L4,23.5 C4,24.1 4.4,24.5 4.9,24.5 C4.9,24.5 5,24.5 5,24.5 L15.2,22.8 C15.7,22.7 16,22.3 16,21.8 L16,3.2 C16,2.7 15.7,2.3 15.2,2.2 L5.1,0.5 C5,0.5 5,0.5 4.9,0.5 L4.9,0.5 Z" id="Shape"></path>
                        <path d="M1,5.5 C0.4,5.5 0,5.9 0,6.5 L0,25.5 L1,25.5 L1,24.5 L1,23.6 L1,6.5 L4,6.5 L4,23.6 L4,24.5 L4,25.5 L5,25.5 L5,5.5 L1,5.5 Z" id="Path"></path>
                        <path d="M7,16 C7.3,16 7.5,15.8 7.5,15.5 C7.5,15.2 7.3,15 7,15 C6.7,15 6.5,15.2 6.5,15.5 C6.5,15.8 6.7,16 7,16" id="Path"></path>
                    </g>
                </g>
            </g>
        </g>
    </g>
</svg>