<?xml version="1.0" encoding="UTF-8"?>
<svg width="32px" height="32px" viewBox="0 0 32 32" version="1.1" xmlns="http://www.w3.org/2000/svg" xmlns:xlink="http://www.w3.org/1999/xlink">
    <!-- Generator: Sketch 57.1 (83088) - https://sketch.com -->
    <title>209-B32px</title>
    <desc>Created with Sketch.</desc>
    <g id="209-B32px" stroke="none" stroke-width="1" fill="none" fill-rule="evenodd">
        <g>
            <path d="M27,6 L27,6.01 L27,8.03 L27,8.57 L17.37,16.37 L17,16.67 L17,17.15 L17,24.15 L15,25.99 L15,17.15 L15,16.67 L14.63,16.37 L5,8.57 L5,8.04 L5,6 L27,6 L27,6 Z M27,5 L5,5 C4.45,5 4,5.45 4,6.01 L4,8.03 L4,9.04 L14,17.14 L14,25.98 C14,26.59 14.49,26.99 15.01,26.99 C15.24,26.99 15.48,26.91 15.68,26.72 L17.68,24.87 C17.89,24.68 18,24.41 18,24.12 L18,17.14 L28,9.04 L28,8.04 L28,6.01 C28,5.45 27.55,5 27,5 L27,5 Z" id="Shape" fill="#101828" fill-rule="nonzero"></path>
            <rect id="Rectangle" fill="#101828" fill-rule="nonzero" x="4.5" y="8.04" width="23" height="1"></rect>
            <rect id="Rectangle" x="0" y="0" width="32" height="32"></rect>
        </g>
    </g>
</svg>