<?xml version="1.0" encoding="UTF-8"?>
<svg width="80px" height="80px" viewBox="0 0 80 80" version="1.1" xmlns="http://www.w3.org/2000/svg" xmlns:xlink="http://www.w3.org/1999/xlink">
    <!-- Generator: Sketch 57.1 (83088) - https://sketch.com -->
    <title>237-C80px</title>
    <desc>Created with Sketch.</desc>
    <g id="NEW_icons" stroke="none" stroke-width="1" fill="none" fill-rule="evenodd">
        <g id="icons_UD_new-Copy" transform="translate(-2284.000000, -30116.000000)">
            <g id="237-C80px" transform="translate(2284.000000, 30116.000000)">
                <g id="Group-9">
                    <circle id="Oval-Copy-800" fill="#FF4F12" cx="40" cy="40" r="40"></circle>
                    <g id="237-B32px-Copy-9" transform="translate(12.000000, 12.000000)">
                        <g id="Group" transform="translate(5.250000, 8.750000)" fill="#FFFFFF" fill-rule="nonzero">
                            <polygon id="Path" points="25.1825 31.43 19.285 31.43 19.285 33.1625 25.1825 33.1625"></polygon>
                            <polygon id="Path" points="25.1825 27.93 19.285 27.93 19.285 29.68 25.1825 29.68"></polygon>
                            <polygon id="Path" points="26.11 8.7325 19.285 8.7325 19.285 10.4825 26.11 10.4825 26.215 8.7325"></polygon>
                            <path d="M43.785,30.6075 C43.785,30.2575 43.7325,29.8025 43.61,29.2425 C43.54,28.7175 43.4175,28.2275 43.26,27.7375 C41.6675,21.3675 36.75,8.6625 36.75,8.6625 C36.75,8.6625 35.875,5.425 33.215,4.025 C33.04,1.7675 31.185,0 28.875,0 C26.46,0 24.5,1.96 24.5,4.3575 C24.5,4.375 24.5,4.3925 24.5,4.41 L24.5,4.41 L24.5,13.1775 C24.465,19.04 24.43,28.7525 24.43,30.59 C24.43,30.975 24.465,31.3425 24.5,31.71 L24.5,31.85 L24.5175,31.85 C24.5525,32.06 24.605,32.235 24.6575,32.445 C24.6925,32.585 24.7275,32.7425 24.7625,32.8825 C24.8675,33.285 24.9725,33.6875 25.13,34.0725 C25.2175,34.3 25.305,34.5275 25.41,34.7375 C25.5325,35 25.6725,35.245 25.8125,35.49 C25.97,35.77 26.1625,36.05 26.355,36.3125 C26.46,36.4525 26.5475,36.5925 26.67,36.7325 C26.9325,37.065 27.23,37.3625 27.545,37.66 C27.65,37.765 27.755,37.8525 27.86,37.9575 C28.1925,38.255 28.56,38.5175 28.945,38.7625 C29.05,38.8325 29.155,38.885 29.26,38.955 C29.6625,39.2 30.1,39.41 30.5375,39.585 C30.625,39.62 30.7125,39.655 30.8,39.6725 C31.2725,39.8475 31.7625,39.9875 32.27,40.0925 C32.3225,40.11 32.375,40.11 32.445,40.11 C32.9875,40.1975 33.5475,40.2675 34.125,40.2675 C34.4575,40.2675 34.79,40.25 35.105,40.215 C39.97,39.7075 43.785,35.595 43.785,30.6075 Z M34.1075,38.5 C33.5825,38.5 33.0575,38.4475 32.5675,38.3425 C32.3925,38.3075 32.2525,38.2375 32.0775,38.2025 C31.7625,38.115 31.43,38.0275 31.115,37.905 C30.9225,37.8175 30.73,37.7125 30.555,37.6075 C30.31,37.485 30.0475,37.3625 29.82,37.205 C29.61,37.065 29.435,36.9075 29.2425,36.75 C29.05,36.5925 28.8575,36.4525 28.6825,36.295 C28.49,36.12 28.315,35.91 28.1575,35.7 C28.0175,35.525 27.86,35.3675 27.7375,35.1925 C27.58,34.965 27.44,34.7375 27.3175,34.4925 C27.2125,34.3 27.09,34.1075 27.0025,33.915 C26.8975,33.6875 26.81,33.4425 26.7225,33.1975 C26.635,32.9525 26.565,32.725 26.495,32.48 C26.4425,32.27 26.4075,32.0425 26.3725,31.8325 C26.32,31.5175 26.285,31.185 26.2675,30.8525 L26.2675,30.45 C26.3725,26.215 29.855,22.8025 34.125,22.8025 C37.835,22.8025 40.9325,25.375 41.755,28.8225 C41.79,28.945 41.825,29.1025 41.8425,29.2075 C41.93,29.68 41.9825,30.1525 41.9825,30.6425 C41.9825,34.44 39.27,37.6075 35.7,38.3425 C35.1925,38.4475 34.65,38.5 34.1075,38.5 Z M35.0525,9.1 L35.07,9.1875 L35.105,9.275 C36.61,13.16 38.605,18.6375 40.075,23.1175 C38.43,21.8225 36.365,21.035 34.1075,21.035 C30.87,21.035 28,22.645 26.25,25.095 L26.25,13.1425 C26.25,11.3575 26.2675,9.94 26.2675,9.205 C26.285,8.855 26.32,8.5575 26.4075,8.2775 C26.425,8.2075 26.46,8.12 26.4775,8.0325 C26.5125,7.9275 26.5475,7.84 26.6,7.7525 C27.0725,6.65 28.14,5.1275 30.625,5.1275 C33.9325,5.145 35.0175,8.96 35.0525,9.1 Z M26.2675,4.3575 C26.2675,2.9225 27.44,1.75 28.8925,1.75 C30.0125,1.75 30.9575,2.4675 31.3425,3.4475 C31.115,3.4125 30.8875,3.395 30.6425,3.395 C28.56,3.395 27.1775,4.1825 26.2675,5.145 L26.2675,4.3575 Z" id="Shape"></path>
                            <path d="M10.395,40.1975 C10.7275,40.2325 11.06,40.25 11.3925,40.25 C11.97,40.25 12.53,40.1975 13.0725,40.0925 C13.125,40.075 13.1775,40.075 13.2475,40.075 C13.755,39.97 14.245,39.83 14.7175,39.655 C14.805,39.62 14.8925,39.6025 14.98,39.5675 C15.4175,39.3925 15.855,39.1825 16.2575,38.9375 C16.3625,38.885 16.4675,38.815 16.5725,38.745 C16.9575,38.5 17.3075,38.2375 17.6575,37.94 C17.7625,37.8525 17.8675,37.7475 17.9725,37.6425 C18.2875,37.345 18.585,37.0475 18.8475,36.715 C18.9525,36.575 19.0575,36.435 19.1625,36.295 C19.355,36.0325 19.53,35.7525 19.705,35.4725 C19.845,35.2275 19.985,34.9825 20.1075,34.72 C20.2125,34.51 20.3,34.2825 20.3875,34.055 C20.545,33.67 20.65,33.285 20.755,32.865 C20.79,32.725 20.825,32.5675 20.86,32.4275 C20.895,32.235 20.965,32.0425 21,31.8325 L21.0175,31.8325 L21.0175,31.6925 C21.0525,31.325 21.0875,30.9575 21.0875,30.5725 C21.0875,28.735 21.0525,19.04 21.0175,13.16 L21.0175,4.41 L21.0175,4.41 C21.0175,4.3925 21.0175,4.375 21.0175,4.3575 C21.0175,1.9425 19.0575,-8.8817842e-16 16.6425,-8.8817842e-16 C14.35,-8.8817842e-16 12.4775,1.7675 12.3025,4.025 C9.6075,5.425 8.75,8.6625 8.75,8.6625 C8.75,8.6625 3.8325,21.3675 2.2225,27.72 C2.065,28.21 1.96,28.7175 1.8725,29.225 C1.7675,29.785 1.6975,30.2575 1.6975,30.59 C1.715,35.595 5.53,39.7075 10.395,40.1975 Z M9.8,38.3425 C6.2125,37.6075 3.5175,34.44 3.5175,30.6425 C3.5175,30.1525 3.57,29.68 3.6575,29.2075 C3.675,29.085 3.7275,28.945 3.745,28.8225 C4.5675,25.375 7.665,22.8025 11.375,22.8025 C15.645,22.8025 19.11,26.215 19.2325,30.45 L19.2325,30.8525 C19.215,31.185 19.18,31.5175 19.1275,31.8325 C19.0925,32.06 19.0575,32.27 19.005,32.48 C18.9525,32.725 18.865,32.97 18.7775,33.1975 C18.69,33.4425 18.6025,33.6875 18.4975,33.915 C18.41,34.125 18.2875,34.3 18.1825,34.4925 C18.0425,34.7375 17.92,34.965 17.7625,35.1925 C17.64,35.3675 17.4825,35.525 17.3425,35.7 C17.1675,35.91 16.9925,36.1025 16.8,36.295 C16.625,36.4525 16.4325,36.61 16.24,36.75 C16.0475,36.9075 15.8725,37.065 15.6625,37.205 C15.435,37.3625 15.1725,37.485 14.9275,37.6075 C14.735,37.7125 14.56,37.8175 14.3675,37.905 C14.07,38.0275 13.7375,38.115 13.405,38.2025 C13.2475,38.255 13.09,38.3075 12.915,38.3425 C12.4425,38.4475 11.9175,38.5 11.3925,38.5 C10.85,38.5 10.3075,38.4475 9.8,38.3425 Z M14.875,5.145 C17.36,5.145 18.4275,6.6675 18.9,7.77 C18.935,7.8575 18.9875,7.945 19.0225,8.05 C19.0575,8.1375 19.075,8.2075 19.0925,8.295 C19.1625,8.575 19.215,8.8725 19.2325,9.2225 C19.2325,9.9575 19.25,11.375 19.25,13.16 L19.25,25.1125 C17.5,22.6625 14.6475,21.0525 11.3925,21.0525 C9.135,21.0525 7.0525,21.84 5.425,23.135 C6.895,18.655 8.89,13.1775 10.395,9.2925 L10.43,9.205 L10.4475,9.1175 C10.4825,8.96 11.5675,5.145 14.875,5.145 Z M19.2325,5.145 C18.3225,4.1825 16.94,3.395 14.8575,3.395 C14.6125,3.395 14.385,3.4125 14.1575,3.4475 C14.5425,2.45 15.505,1.75 16.625,1.75 C18.0775,1.75 19.25,2.9225 19.25,4.3575 L19.25,5.145 L19.2325,5.145 Z" id="Shape"></path>
                        </g>
                        <rect id="Rectangle" x="0" y="0" width="56" height="56"></rect>
                    </g>
                </g>
            </g>
        </g>
    </g>
</svg>