<?xml version="1.0" encoding="UTF-8"?>
<svg width="80px" height="80px" viewBox="0 0 80 80" version="1.1" xmlns="http://www.w3.org/2000/svg" xmlns:xlink="http://www.w3.org/1999/xlink">
    <!-- Generator: Sketch 57.1 (83088) - https://sketch.com -->
    <title>125-G80px</title>
    <desc>Created with Sketch.</desc>
    <g id="NEW_icons" stroke="none" stroke-width="1" fill="none" fill-rule="evenodd">
        <g id="icons_UD_new-Copy" transform="translate(-2051.000000, -16040.000000)">
            <g id="125-G80px" transform="translate(2051.000000, 16040.000000)">
                <circle id="Oval-Copy-1116" fill="#E3E8EC" cx="40" cy="40" r="40"></circle>
                <g id="125-B32px-Copy-6" transform="translate(12.000000, 12.000000)">
                    <path d="M29.2425,8.75 C29.365,8.75 29.47,8.8375 29.505,8.96 L30.5025,12.6875 L30.765,13.6675 L31.745,13.93 C33.005,14.2625 34.195,14.7525 35.315,15.4 L36.19,15.9075 L37.065,15.4 L40.39,13.475 C40.425,13.4575 40.4775,13.44 40.53,13.44 C40.565,13.44 40.6525,13.4575 40.7225,13.5275 L42.49,15.295 C42.5775,15.3825 42.595,15.5225 42.525,15.6275 L40.6,18.9525 L40.0925,19.8275 L40.6,20.7025 C41.2475,21.8225 41.755,23.0125 42.0875,24.2725 L42.35,25.2525 L43.33,25.515 L47.04,26.5125 C47.1625,26.5475 47.25,26.6525 47.25,26.775 L47.25,29.26 C47.25,29.3825 47.1625,29.4875 47.04,29.5225 L43.33,30.52 L42.35,30.7825 L42.0875,31.7625 C41.755,33.0225 41.2475,34.23 40.6,35.35 L40.0925,36.225 L40.6,37.1 L42.525,40.425 C42.595,40.53 42.5775,40.67 42.49,40.7575 L40.7225,42.525 C40.6525,42.595 40.565,42.6125 40.53,42.6125 C40.4775,42.6125 40.4425,42.595 40.39,42.5775 L37.065,40.6525 L36.19,40.145 L35.315,40.6525 C34.195,41.3 32.9875,41.8075 31.7275,42.14 L30.7475,42.4025 L30.485,43.3825 L29.4875,47.0925 C29.47,47.1625 29.365,47.25 29.2425,47.25 L26.7575,47.25 C26.635,47.25 26.53,47.1625 26.495,47.04 L25.4975,43.33 L25.235,42.35 L24.255,42.0875 C22.995,41.755 21.7875,41.2475 20.685,40.6 L19.81,40.0925 L18.935,40.6 L15.61,42.525 C15.575,42.5425 15.5225,42.56 15.47,42.56 C15.435,42.56 15.3475,42.5425 15.2775,42.4725 L13.51,40.705 C13.4225,40.6175 13.405,40.4775 13.475,40.3725 L15.4,37.0475 L15.9075,36.1725 L15.4,35.2975 C14.7525,34.195 14.2625,32.9875 13.93,31.7275 L13.6675,30.7475 L12.6875,30.485 L8.96,29.4875 C8.8375,29.47 8.75,29.365 8.75,29.2425 L8.75,26.7575 C8.75,26.635 8.8375,26.53 8.96,26.495 L12.6875,25.4975 L13.6675,25.235 L13.93,24.255 C14.2625,22.995 14.7525,21.805 15.4,20.7025 L15.9075,19.8275 L15.4,18.9525 L13.475,15.61 C13.405,15.4875 13.4225,15.3475 13.51,15.26 L15.2775,13.4925 C15.3475,13.4225 15.435,13.405 15.47,13.405 C15.5225,13.405 15.5575,13.4225 15.61,13.44 L18.9525,15.365 L19.8275,15.8725 L20.7025,15.365 C21.805,14.7175 23.0125,14.2275 24.255,13.895 L25.235,13.6325 L25.4975,12.6525 L26.495,8.925 C26.53,8.8375 26.635,8.75 26.7575,8.75 L29.2425,8.75 L29.2425,8.75 Z M29.2425,7 L26.7575,7 C25.8475,7 25.0425,7.6125 24.7975,8.505 L23.8,12.2325 C22.3825,12.6 21.0525,13.16 19.81,13.8775 L16.4675,11.9525 C16.1525,11.7775 15.8025,11.6725 15.4525,11.6725 C14.9275,11.6725 14.4025,11.8825 14.0175,12.2675 L12.2675,14.035 C11.62,14.6825 11.48,15.68 11.9525,16.485 L13.8775,19.8275 C13.16,21.07 12.6,22.4 12.2325,23.8175 L8.505,24.815 C7.6125,25.0425 7,25.83 7,26.7575 L7,29.2425 C7,30.1525 7.6125,30.9575 8.505,31.2025 L12.2325,32.2 C12.6,33.6175 13.16,34.965 13.8775,36.19 L11.9525,39.515 C11.4975,40.3025 11.62,41.3175 12.2675,41.965 L14.035,43.7325 C14.42,44.1175 14.945,44.3275 15.47,44.3275 C15.82,44.3275 16.17,44.24 16.485,44.0475 L19.81,42.1225 C21.0525,42.84 22.4,43.4 23.8175,43.785 L24.815,47.495 C25.06,48.3875 25.8475,49 26.775,49 L29.26,49 C30.17,49 30.975,48.3875 31.22,47.495 L32.2175,43.785 C33.635,43.4 34.9825,42.8575 36.2425,42.1225 L39.5675,44.0475 C39.8825,44.2225 40.2325,44.3275 40.5825,44.3275 C41.1075,44.3275 41.6325,44.1175 42.0175,43.7325 L43.785,41.965 C44.4325,41.3175 44.5725,40.32 44.1,39.515 L42.175,36.19 C42.8925,34.9475 43.4525,33.6 43.8375,32.165 L47.5475,31.1675 C48.44,30.9225 49.0525,30.135 49.0525,29.2075 L49.0525,26.7225 C49.0525,25.8125 48.44,25.0075 47.5475,24.7625 L43.8375,23.765 C43.4525,22.3475 42.8925,21 42.175,19.7575 L44.1,16.4325 C44.555,15.645 44.4325,14.63 43.785,13.9825 L42.0175,12.215 C41.6325,11.83 41.1075,11.62 40.5825,11.62 C40.2325,11.62 39.8825,11.7075 39.5675,11.9 L36.2425,13.825 C35,13.1075 33.67,12.5475 32.2525,12.18 L31.255,8.4525 C30.9575,7.6125 30.17,7 29.2425,7 L29.2425,7 Z" id="Shape" fill="#101828" fill-rule="nonzero"></path>
                    <g id="Group" transform="translate(17.500000, 17.500000)" fill="#101828" fill-rule="nonzero">
                        <path d="M5.3025,3.5 C6.755,2.415 8.54,1.75 10.5,1.75 C12.46,1.75 14.245,2.415 15.6975,3.5 L18.305,3.5 C16.38,1.365 13.5975,0 10.5,0 C7.4025,0 4.62,1.365 2.695,3.5 L5.3025,3.5 Z" id="Path"></path>
                        <path d="M17.4475,15.75 C15.855,17.8675 13.335,19.25 10.5,19.25 C7.665,19.25 5.145,17.8675 3.5525,15.75 L1.4175,15.75 C3.2375,18.8825 6.615,21 10.5,21 C14.385,21 17.7625,18.8825 19.5825,15.75 L17.4475,15.75 Z" id="Path"></path>
                    </g>
                    <g id="Group" transform="translate(14.000000, 21.000000)" fill="#101828" fill-rule="nonzero">
                        <path d="M13.335,1.7325 L11.585,1.7325 L8.085,6.9825 L8.085,7.3675 L8.085,8.75 L11.585,8.7325 L11.585,10.465 L13.335,10.4825 L13.335,8.7325 L15.085,8.75 L15.085,6.9825 L13.335,6.9825 L13.335,1.7325 L13.335,1.7325 Z M10.0275,6.9825 L11.5675,4.7075 L11.5675,6.9825 L10.0275,6.9825 L10.0275,6.9825 Z" id="Shape"></path>
                        <polygon id="Path" points="20.5625 1.7325 18.8125 1.7325 15.61 10.5 17.3425 10.5"></polygon>
                        <polygon id="Path" points="26.6875 1.7325 21.4375 1.75 21.4375 3.4825 24.64 3.5 21.455 10.4825 23.5025 10.4825 26.67 3.4125"></polygon>
                        <path d="M4.2525,1.6975 C2.345,1.6975 1.33,3.0625 1.33,4.34 C1.33,4.62 1.365,4.865 1.4175,5.1275 L1.4525,5.2675 L3.255,5.1275 L3.22,4.9525 C3.185,4.7775 3.1675,4.6375 3.1675,4.41 C3.1675,3.78 3.5875,3.395 4.27,3.395 C4.9175,3.395 5.3375,3.7975 5.3375,4.4275 C5.3375,4.935 5.1275,5.32 4.445,6.02 L1.3475,9.17 L1.3475,10.5175 L7.1225,10.5175 L7.1225,8.75 L4.1475,8.75 L5.6875,7.1925 C6.79,6.09 7.14,5.3725 7.14,4.2525 C7.105,2.695 5.985,1.6975 4.2525,1.6975 L4.2525,1.6975 Z" id="Path"></path>
                    </g>
                    <rect id="Rectangle" x="0" y="0" width="56" height="56"></rect>
                </g>
            </g>
        </g>
    </g>
</svg>