<?xml version="1.0" encoding="UTF-8"?>
<svg width="80px" height="80px" viewBox="0 0 80 80" version="1.1" xmlns="http://www.w3.org/2000/svg" xmlns:xlink="http://www.w3.org/1999/xlink">
    <!-- Generator: Sketch 57.1 (83088) - https://sketch.com -->
    <title>238-B80px</title>
    <desc>Created with Sketch.</desc>
    <g id="238-B80px" stroke="none" stroke-width="1" fill="none" fill-rule="evenodd">
        <g>
            <path d="M33.75,20.025 C45.475,20.025 55,29.55 55,41.275 C55,53 45.45,62.5 33.75,62.5 C22.025,62.5 12.5,52.975 12.5,41.25 C12.5,29.525 22.025,20.025 33.75,20.025 L33.75,20.025 Z M33.75,17.525 C20.625,17.525 10,28.15 10,41.275 C10,54.4 20.625,65 33.75,65 C46.875,65 57.5,54.375 57.5,41.25 C57.5,28.125 46.85,17.525 33.75,17.525 L33.75,17.525 Z" id="Shape" fill="#101828" fill-rule="nonzero"></path>
            <path d="M63.75,17.5 C65.825,17.5 67.5,19.175 67.5,21.25 C67.5,23.325 65.825,25 63.75,25 C61.675,25 60,23.325 60,21.25 C60,19.175 61.675,17.5 63.75,17.5 L63.75,17.5 Z M63.75,15 C60.3,15 57.5,17.8 57.5,21.25 C57.5,24.7 60.3,27.5 63.75,27.5 C67.2,27.5 70,24.7 70,21.25 C70,17.8 67.2,15 63.75,15 L63.75,15 Z" id="Shape" fill="#101828" fill-rule="nonzero"></path>
            <rect id="Rectangle" x="0" y="0" width="80" height="80"></rect>
        </g>
    </g>
</svg>