<?xml version="1.0" encoding="UTF-8"?>
<svg width="56px" height="56px" viewBox="0 0 56 56" version="1.1" xmlns="http://www.w3.org/2000/svg" xmlns:xlink="http://www.w3.org/1999/xlink">
    <!-- Generator: Sketch 56.3 (81716) - https://sketch.com -->
    <title>035-W56px</title>
    <desc>Created with Sketch.</desc>
    <g id="NEW_icons" stroke="none" stroke-width="1" fill="none" fill-rule="evenodd">
        <g id="icons_UD_new-Copy" transform="translate(-1814.000000, -4619.000000)">
            <g id="035-W56px" transform="translate(1814.000000, 4619.000000)">
                <g id="003-B32px-Copy-66" transform="translate(8.000000, 8.000000)">
                    <g id="Group" transform="translate(10.000000, 5.000000)" fill="#FFFFFF" fill-rule="nonzero">
                        <path d="M18.6875,0 L1.3125,0 C0.5875,0 0,0.5875 0,1.3125 L0,23.75 L0,25 L0,28.6875 C0,29.4125 0.5875,30 1.3125,30 L18.6875,30 C19.4125,30 20,29.4125 20,28.6875 L20,25 L20,23.75 L20,1.3125 C20,0.5875 19.4125,0 18.6875,0 Z M18.75,28.6875 C18.75,28.725 18.725,28.75 18.6875,28.75 L1.3125,28.75 C1.275,28.75 1.25,28.725 1.25,28.6875 L1.25,25 L18.75,25 L18.75,28.6875 Z M1.25,23.75 L1.25,1.3125 C1.25,1.275 1.275,1.25 1.3125,1.25 L18.6875,1.25 C18.725,1.25 18.75,1.275 18.75,1.3125 L18.75,23.75 L1.25,23.75 Z" id="Shape"></path>
                        <path d="M10,27.4875 C10.3375,27.4875 10.625,27.2125 10.625,26.8625 C10.625,26.525 10.35,26.2375 10,26.2375 C9.65,26.2375 9.375,26.5125 9.375,26.8625 C9.375,27.2125 9.6625,27.4875 10,27.4875 Z" id="Path"></path>
                        <path d="M12.5125,20 L7.5,20.0125 L7.5,16.25 L6.25,16.25 L6.25,20.0125 C6.25,20.6875 6.8,21.25 7.4875,21.25 L12.525,21.25 C13.2,21.25 13.7625,20.7 13.7625,20.0125 L13.7625,16.25 L12.5125,16.25 L12.5125,20 Z" id="Path"></path>
                        <polygon id="Path" points="4.775 15.575 5.5625 16.5375 10 12.875 14.4375 16.5375 15.225 15.575 10 11.2625"></polygon>
                        <path d="M12.6,7.3125 C11.925,6.65 11.0125,6.25 10,6.25 C8.9625,6.25 8.025,6.675 7.35,7.35 L8.2375,8.2375 C8.6875,7.775 9.3125,7.5 10,7.5 C10.6625,7.5 11.275,7.7625 11.7125,8.1875 L12.6,7.3125 Z" id="Path"></path>
                        <path d="M9.1125,9.1125 L9.95,9.95 L10.825,9.075 C10.6125,8.875 10.325,8.75 10,8.75 C9.65,8.75 9.3375,8.8875 9.1125,9.1125 Z" id="Path"></path>
                        <path d="M10,5 C11.35,5 12.5875,5.55 13.4875,6.425 L14.375,5.5375 C13.2375,4.4375 11.7,3.75 10,3.75 C8.275,3.75 6.7125,4.45 5.575,5.575 L6.4625,6.4625 C7.375,5.5625 8.625,5 10,5 Z" id="Path"></path>
                    </g>
                    <rect id="Rectangle" x="0" y="0" width="40" height="40"></rect>
                </g>
                <circle id="Oval-Copy-293" fill="#101828" cx="28" cy="28" r="28"></circle>
                <g id="035-B32px-Copy-4" transform="translate(9.000000, 8.000000)">
                    <g id="Group" transform="translate(5.000000, 6.250000)" fill="#FFFFFF" fill-rule="nonzero">
                        <polygon id="Path" points="7.375 14.9875 9.1125 15.025 8.275 11.4"></polygon>
                        <g>
                            <polygon id="Path" points="7.375 14.9875 9.1125 15.025 8.275 11.4"></polygon>
                            <path d="M16.25,0 L0,2.5 L0,25 L16.25,27.5 L16.25,0 Z M10.1625,18.95 L9.5,16.775 L7.025,16.6875 L6.575,18.7875 L4.875,18.675 L7.3875,9.2375 L9.3125,9.15 L11.975,19.0625 L10.1625,18.95 Z" id="Shape"></path>
                        </g>
                    </g>
                    <path d="M25,10 C23.175,10 21.475,10.125 20,10.3375 L20,11.6 C21.35,11.4 23.0125,11.25 25,11.25 C29.425,11.25 32.3375,11.9625 33.4125,12.5 C32.3375,13.0375 29.425,13.75 25,13.75 C23.0125,13.75 21.35,13.6 20,13.4 L20,14.6625 C21.475,14.875 23.175,15 25,15 C28.7625,15 32.05,14.475 33.75,13.7125 L33.75,17.0875 L33.75,17.0875 C33.75,17.65 30.75,18.9625 24.95,18.9625 C22.9625,18.9625 21.325,18.8 20,18.575 L20,19.85 C21.5375,20.1 23.2625,20.2125 24.95,20.2125 C28.35,20.2125 31.925,19.725 33.75,18.7 L33.75,22.3 L33.75,22.3 C33.75,22.8625 30.75,24.175 24.95,24.175 C22.9625,24.175 21.325,24.0125 20,23.7875 L20,25.0625 C21.5375,25.3125 23.2625,25.425 24.95,25.425 C28.35,25.425 31.925,24.9375 33.75,23.9125 L33.75,27.5 L33.75,27.5 C33.75,28.0625 30.75,29.375 24.95,29.375 C22.9625,29.375 21.325,29.2125 20,28.9875 L20,30.2625 C21.5375,30.5125 23.2625,30.625 24.95,30.625 C29.7875,30.625 35,29.65 35,27.4875 L35,27.4875 L35,12.5 C35,11.125 30.525,10 25,10 Z" id="Path" fill="#FFFFFF" fill-rule="nonzero"></path>
                    <rect id="Rectangle" x="0" y="0" width="40" height="40"></rect>
                </g>
            </g>
        </g>
    </g>
</svg>