<?xml version="1.0" encoding="UTF-8"?>
<svg width="80px" height="80px" viewBox="0 0 80 80" version="1.1" xmlns="http://www.w3.org/2000/svg" xmlns:xlink="http://www.w3.org/1999/xlink">
    <!-- Generator: Sketch 57.1 (83088) - https://sketch.com -->
    <title>063-W80px</title>
    <desc>Created with Sketch.</desc>
    <g id="NEW_icons" stroke="none" stroke-width="1" fill="none" fill-rule="evenodd">
        <g id="icons_UD_new-Copy" transform="translate(-2151.000000, -8264.000000)">
            <g id="063-W80px" transform="translate(2151.000000, 8264.000000)">
                <circle id="Oval-Copy-432" fill="#101828" cx="40" cy="40" r="40"></circle>
                <g id="063-B32px-Copy-7" transform="translate(12.000000, 12.000000)">
                    <path d="M39.375,31.5 C43.715,31.5 47.25,35.035 47.25,39.375 C47.25,43.715 43.715,47.25 39.375,47.25 C35.035,47.25 31.5,43.715 31.5,39.375 C31.5,35.035 35.035,31.5 39.375,31.5 L39.375,31.5 Z M39.375,29.75 C34.055,29.75 29.75,34.055 29.75,39.375 C29.75,44.695 34.055,49 39.375,49 C44.695,49 49,44.695 49,39.375 C49,34.055 44.695,29.75 39.375,29.75 L39.375,29.75 Z" id="Shape" fill="#FFFFFF" fill-rule="nonzero"></path>
                    <polygon id="Path" fill="#FFFFFF" fill-rule="nonzero" points="35 38.5 35 40.25 38.5 40.25 38.5 43.75 40.25 43.75 40.25 40.25 43.75 40.25 43.75 38.5 40.25 38.5 40.25 35 38.5 35 38.5 38.5"></polygon>
                    <path d="M28.735,43.365 C27.93,43.54 27.09,43.6625 26.25,43.6975 L26.25,43.645 L26.25,35.7175 L28.63,35.7175 C28.84,35.105 29.1025,34.5275 29.4,33.9675 L26.25,33.9675 L26.25,33.25 L26.25,28 L41.9475,28 L43.6975,28 C43.715,27.7025 43.75,27.4225 43.75,27.125 C43.75,16.975 35.525,8.75 25.375,8.75 C25.375,8.75 25.3575,8.75 25.3575,8.75 C25.3575,8.75 25.3575,8.75 25.34,8.75 C25.3225,8.75 25.3225,8.75 25.305,8.75 C15.19,8.785 7,16.9925 7,27.125 C7,37.2575 15.19,45.465 25.305,45.5 C25.3225,45.5 25.3225,45.5 25.34,45.5 C25.34,45.5 25.34,45.5 25.3575,45.5 C25.3575,45.5 25.375,45.5 25.375,45.5 C26.7925,45.5 28.175,45.325 29.505,45.01 C29.2075,44.485 28.945,43.9425 28.735,43.365 Z M41.9475,26.25 L35.98,26.25 C35.9275,24.36 35.7175,22.54 35.35,20.8425 L40.74,20.8425 C41.44,22.5225 41.86,24.3425 41.9475,26.25 Z M39.9175,19.0925 L34.93,19.0925 C34.0375,15.9425 32.6375,13.3 30.905,11.48 C34.755,12.8275 37.9575,15.5575 39.9175,19.0925 Z M26.25,10.5875 C29.155,11.165 31.71,14.49 33.11,19.0925 L26.25,19.0925 L26.25,10.5875 Z M26.25,20.8425 L33.565,20.8425 C33.95,22.54 34.1775,24.36 34.23,26.25 L26.25,26.25 L26.25,20.8425 Z M19.7575,11.4975 C18.0425,13.3175 16.66,15.9425 15.7675,19.0925 L10.8325,19.0925 C12.775,15.5925 15.9425,12.88 19.7575,11.4975 Z M9.9925,20.8425 L15.33,20.8425 C14.98,22.54 14.7525,24.36 14.7,26.25 L8.8025,26.25 C8.89,24.3425 9.31,22.5225 9.9925,20.8425 Z M8.8025,28 L14.7,28 C14.7525,30.1 15.015,32.13 15.4525,33.985 L10.255,33.985 C9.415,32.1475 8.9075,30.1175 8.8025,28 Z M11.1825,35.735 L15.925,35.735 C16.8175,38.6225 18.1475,41.0375 19.7575,42.7525 C16.1525,41.4575 13.1425,38.955 11.1825,35.735 Z M24.5,43.6625 C21.6825,43.1375 19.215,40.0575 17.78,35.735 L24.5,35.735 L24.5,43.6625 Z M24.5,33.985 L17.2725,33.985 C16.8,32.13 16.52,30.1175 16.45,28 L24.5,28 L24.5,33.985 Z M24.5,26.25 L16.45,26.25 C16.5025,24.36 16.73,22.5225 17.115,20.8425 L24.5,20.8425 L24.5,26.25 Z M24.5,19.0925 L17.5875,19.0925 C19.005,14.455 21.56,11.13 24.5,10.5875 L24.5,19.0925 Z" id="Shape" fill="#FFFFFF" fill-rule="nonzero"></path>
                    <rect id="Rectangle" x="0" y="0" width="56" height="56"></rect>
                </g>
            </g>
        </g>
    </g>
</svg>