<?xml version="1.0" encoding="UTF-8"?>
<svg width="80px" height="80px" viewBox="0 0 80 80" version="1.1" xmlns="http://www.w3.org/2000/svg" xmlns:xlink="http://www.w3.org/1999/xlink">
    <!-- Generator: Sketch 54.1 (76490) - https://sketchapp.com -->
    <title>015-G80px</title>
    <desc>Created with Sketch.</desc>
    <g id="NEW_icons" stroke="none" stroke-width="1" fill="none" fill-rule="evenodd">
        <g id="icons_UD_new-Copy" transform="translate(-2051.000000, -2082.000000)">
            <g id="015-G80px" transform="translate(2051.000000, 2082.000000)">
                <circle id="Oval-Copy-163" fill="#E3E8EC" cx="40" cy="40" r="40"></circle>
                <g id="015-B32px-Copy-7" transform="translate(12.000000, 12.000000)">
                    <path d="M21.875,45.4825 C22.3475,45.4825 22.75,45.0975 22.75,44.6075 C22.75,44.1175 22.3475,43.75 21.875,43.75 C21.4025,43.75 21,44.135 21,44.625 C21,45.115 21.4025,45.4825 21.875,45.4825" id="Path" fill="#101828" fill-rule="nonzero"></path>
                    <rect id="Rectangle" fill="#101828" fill-rule="nonzero" x="7.525" y="40.25" width="21" height="1.75"></rect>
                    <path d="M28.0175,47.25 L8.75,47.2675 L8.7325,8.75 L33.25,8.75 L33.25,15.75 L35,15.75 L35,8.7325 C35,7.7875 34.2125,7 33.2675,7 L8.7325,7 C7.7875,7 7,7.7875 7,8.7325 L7,47.25 C7,48.2125 7.7875,49 8.7325,49 L28.5425,49 C28.2275,48.4925 28.035,47.8975 28.0175,47.25 Z" id="Path" fill="#101828" fill-rule="nonzero"></path>
                    <path d="M47.215,19.25 L47.2325,47.2325 L31.5,47.25 L31.4825,19.25 L47.215,19.25 L47.215,19.25 Z M47.2325,17.5 L31.5,17.5 C30.5375,17.5 29.75,18.2875 29.75,19.2325 L29.75,47.2325 C29.75,48.195 30.5375,48.965 31.4825,48.965 L47.215,48.965 C48.1775,48.965 48.9475,48.1775 48.9475,47.2325 L48.9475,19.2325 C48.965,18.2875 48.195,17.5 47.2325,17.5 L47.2325,17.5 Z" id="Shape" fill="#101828" fill-rule="nonzero"></path>
                    <path d="M38.4825,45.4825 C38.955,45.4825 39.3575,45.0975 39.3575,44.6075 C39.3575,44.1175 38.9725,43.7325 38.4825,43.7325 C37.9925,43.7325 37.6075,44.1175 37.6075,44.6075 C37.6075,45.0975 38.01,45.4825 38.4825,45.4825" id="Path" fill="#101828" fill-rule="nonzero"></path>
                    <rect id="Rectangle" fill="#101828" fill-rule="nonzero" x="31.5" y="40.25" width="15.75" height="1.75"></rect>
                    <path d="M28,26.775 C27.3875,27.5275 26.67,28.1575 25.83,28.6475 C26.8275,26.915 27.44,24.5175 27.44,21.875 C27.44,19.2325 26.8275,16.835 25.83,15.1025 C26.8975,15.7325 27.79,16.6075 28.4725,17.64 C28.77,17.0975 29.19,16.6425 29.715,16.31 C27.9825,13.86 25.1125,12.25 21.875,12.25 C21.875,12.25 21.875,12.25 21.8575,12.25 C21.8575,12.25 21.8575,12.25 21.8575,12.25 C21.8575,12.25 21.84,12.25 21.84,12.25 C16.5375,12.2675 12.25,16.5725 12.25,21.875 C12.25,27.1775 16.5375,31.4825 21.84,31.5 C21.84,31.5 21.8575,31.5 21.8575,31.5 C21.8575,31.5 21.8575,31.5 21.8575,31.5 C21.8575,31.5 21.8575,31.5 21.875,31.5 C24.2025,31.5 26.3375,30.6775 28,29.295 L28,26.775 Z M14.6825,18.69 L16.59,18.69 C16.45,19.425 16.345,20.195 16.2925,21 L14.0875,21 C14.175,20.195 14.3675,19.4075 14.6825,18.69 Z M14.6825,25.06 C14.3675,24.3425 14.175,23.555 14.0875,22.75 L16.2925,22.75 C16.3275,23.555 16.4325,24.325 16.59,25.06 L14.6825,25.06 Z M15.785,26.81 L17.0625,26.81 C17.29,27.475 17.57,28.0875 17.8675,28.63 C17.08,28.14 16.3625,27.5275 15.785,26.81 Z M17.0625,16.94 L15.785,16.94 C16.38,16.2225 17.08,15.5925 17.885,15.12 C17.57,15.68 17.29,16.2925 17.0625,16.94 Z M21,29.4875 C20.23,29.0675 19.5125,28.1225 18.9525,26.81 L21,26.81 L21,29.4875 Z M21,25.06 L18.375,25.06 C18.2175,24.36 18.1125,23.5725 18.06,22.75 L21,22.75 L21,25.06 Z M21,21 L18.0775,21 C18.13,20.195 18.2175,19.4075 18.3925,18.69 L21,18.69 L21,21 Z M21,16.94 L18.9525,16.94 C19.495,15.6275 20.23,14.6825 21,14.2625 L21,16.94 Z M22.75,14.28 C23.5025,14.7 24.22,15.645 24.7625,16.94 L22.75,16.94 L22.75,14.28 Z M22.75,29.47 L22.75,26.81 L24.7625,26.81 C24.22,28.105 23.5025,29.0325 22.75,29.47 Z M25.34,25.06 L22.75,25.06 L22.75,22.75 L25.655,22.75 C25.6025,23.5725 25.4975,24.3425 25.34,25.06 Z M22.75,21 L22.75,18.69 L25.34,18.69 C25.4975,19.39 25.6025,20.1775 25.655,21 L22.75,21 Z" id="Shape" fill="#101828" fill-rule="nonzero"></path>
                    <rect id="Rectangle" x="0" y="0" width="56" height="56"></rect>
                </g>
            </g>
        </g>
    </g>
</svg>