<?xml version="1.0" encoding="UTF-8"?>
<svg width="80px" height="80px" viewBox="0 0 80 80" version="1.1" xmlns="http://www.w3.org/2000/svg" xmlns:xlink="http://www.w3.org/1999/xlink">
    <!-- Generator: Sketch 57.1 (83088) - https://sketch.com -->
    <title>211-B80px</title>
    <desc>Created with Sketch.</desc>
    <g id="211-B80px" stroke="none" stroke-width="1" fill="none" fill-rule="evenodd">
        <g>
            <path d="M43.75,32.5 C43.05,32.5 42.5,33.05 42.5,33.75 C42.5,34.45 43.05,35 43.75,35 C44.45,35 45,34.45 45,33.75 C45,33.05 44.45,32.5 43.75,32.5 L43.75,32.5 Z" id="Path" fill="#101828" fill-rule="nonzero"></path>
            <path d="M36.25,32.5 C35.55,32.5 35,33.05 35,33.75 C35,34.45 35.55,35 36.25,35 C36.95,35 37.5,34.45 37.5,33.75 C37.5,33.05 36.95,32.5 36.25,32.5 L36.25,32.5 Z" id="Path" fill="#101828" fill-rule="nonzero"></path>
            <path d="M28.75,32.5 C28.05,32.5 27.5,33.05 27.5,33.75 C27.5,34.45 28.05,35 28.75,35 C29.45,35 30,34.45 30,33.75 C30,33.05 29.45,32.5 28.75,32.5 L28.75,32.5 Z" id="Path" fill="#101828" fill-rule="nonzero"></path>
            <g id="Group" transform="translate(55.000000, 40.000000)" fill="#101828" fill-rule="nonzero">
                <polygon id="Rectangle" transform="translate(3.398484, 11.560454) rotate(-45.000000) translate(-3.398484, -11.560454) " points="2.14849574 8.04798744 4.64847176 8.04798744 4.64847176 15.0729201 2.14849574 15.0729201"></polygon>
                <rect id="Rectangle" x="0" y="2.475" width="2.5" height="7.5"></rect>
            </g>
            <g id="Group" transform="translate(10.000000, 17.500000)" fill="#101828" fill-rule="nonzero">
                <path d="M30.075,30.025 L15.675,30.025 C14.7,30.025 13.725,30.325 12.925,30.875 L0,39.475 L0,39.475 L0.025,42.5 L14.3,32.925 C14.7,32.65 15.175,32.5 15.675,32.5 L30.075,32.5 C30.05,32.075 30,31.65 30,31.225 C30.025,30.85 30.05,30.425 30.075,30.025 Z" id="Path"></path>
                <path d="M50.025,0 L30.075,0 C30.075,0 30.075,0 30.075,0 L2.475,0 C1.125,0 0.025,1.1 0.025,2.475 L0.025,25 L2.5,25 L2.475,2.5 L18.6,2.5 C18.6,2.5 18.6,2.5 18.6,2.5 L50,2.5 L50.025,15.45 C50.875,15.65 51.7,15.9 52.5,16.25 L52.5,2.475 C52.5,1.125 51.4,0 50.025,0 Z" id="Path"></path>
            </g>
            <path d="M56.25,37.5 C62.45,37.5 67.5,42.55 67.5,48.75 C67.5,54.95 62.45,60 56.25,60 C50.05,60 45,54.95 45,48.75 C45,42.55 50.05,37.5 56.25,37.5 L56.25,37.5 Z M56.25,35 C48.65,35 42.5,41.15 42.5,48.75 C42.5,56.35 48.65,62.5 56.25,62.5 C63.85,62.5 70,56.35 70,48.75 C70,41.15 63.85,35 56.25,35 L56.25,35 Z" id="Shape" fill="#101828" fill-rule="nonzero"></path>
            <rect id="Rectangle" x="0" y="0" width="80" height="80"></rect>
        </g>
    </g>
</svg>