<?xml version="1.0" encoding="UTF-8"?>
<svg width="56px" height="56px" viewBox="0 0 56 56" version="1.1" xmlns="http://www.w3.org/2000/svg" xmlns:xlink="http://www.w3.org/1999/xlink">
    <!-- Generator: Sketch 57.1 (83088) - https://sketch.com -->
    <title>176-W56px</title>
    <desc>Created with Sketch.</desc>
    <g id="NEW_icons" stroke="none" stroke-width="1" fill="none" fill-rule="evenodd">
        <g id="icons_UD_new-Copy" transform="translate(-532.000000, -22595.000000)">
            <g id="176-W56px" transform="translate(532.000000, 22595.000000)">
                <circle id="Oval-Copy-989" fill="#101828" cx="28" cy="28" r="28"></circle>
                <g id="176-B32px-Copy-4" transform="translate(8.000000, 8.000000)">
                    <path d="M30.625,25.8 L30.625,32.95 L28.675,31.9875 L28.125,31.7125 L27.575,31.9875 L25.625,32.95 L25.625,25.8 C25.1875,25.625 24.7625,25.4125 24.375,25.1625 L24.375,34.975 L28.125,33.1375 L31.875,34.975 L31.875,25.1625 C31.4875,25.4125 31.0625,25.625 30.625,25.8 Z" id="Path" fill="#FFFFFF" fill-rule="nonzero"></path>
                    <polygon id="Path" fill="#FFFFFF" fill-rule="nonzero" points="27.5125 16.25 27.5125 17.5 27.5125 22.5125 28.7625 22.5125 28.7625 16.25"></polygon>
                    <polygon id="Path" fill="#FFFFFF" fill-rule="nonzero" points="27.5 16.25 27.475 16.2625 25.8375 17.8625 26.7125 18.75 28.675 16.8375 28.075 16.25"></polygon>
                    <path d="M28.125,13.7375 C31.225,13.7375 33.75,16.2625 33.75,19.375 C33.75,22.4875 31.225,25.0125 28.125,25.0125 C25.025,25.0125 22.5,22.4875 22.5,19.375 C22.5,16.2625 25.0125,13.7375 28.125,13.7375 L28.125,13.7375 Z M28.125,12.4875 C24.325,12.4875 21.25,15.575 21.25,19.3875 C21.25,23.2 24.325,26.2875 28.125,26.2875 C31.925,26.2875 35,23.1875 35,19.375 C35,15.5625 31.925,12.4875 28.125,12.4875 L28.125,12.4875 Z" id="Shape" fill="#FFFFFF" fill-rule="nonzero"></path>
                    <path d="M30.625,25.8 L30.625,32.95 L28.675,31.9875 L28.125,31.7125 L27.575,31.9875 L25.625,32.95 L25.625,25.8 C25.1875,25.625 24.7625,25.4125 24.375,25.1625 L24.375,34.975 L28.125,33.1375 L31.875,34.975 L31.875,25.1625 C31.4875,25.4125 31.0625,25.625 30.625,25.8 Z" id="Path" fill="#FFFFFF" fill-rule="nonzero"></path>
                    <path d="M22.725,12.4625 L23.8625,12.4625 C24.9,11.8125 26.1,11.3875 27.375,11.2625 C25.375,7.5125 21.425,4.9625 16.8875,4.9625 C16.8875,4.9625 16.875,4.9625 16.875,4.9625 C16.875,4.9625 16.875,4.9625 16.8625,4.9625 C16.85,4.9625 16.85,4.9625 16.8375,4.9625 C10.3,4.9875 5,10.2875 5,16.8375 C5,23.375 10.3,28.6875 16.8375,28.7125 C16.85,28.7125 16.85,28.7125 16.8625,28.7125 C16.8625,28.7125 16.8625,28.7125 16.875,28.7125 C16.875,28.7125 16.8875,28.7125 16.8875,28.7125 C19.175,28.7125 21.3125,28.05 23.125,26.925 L23.125,25.4 C22.2875,26.0125 21.3625,26.5125 20.3625,26.8625 C20.925,26.1875 21.4,25.3375 21.8,24.3625 C21.475,23.9625 21.2,23.525 20.9625,23.0625 C20.1875,25.4 18.975,27 17.525,27.3625 L17.525,22.45 L20.675,22.45 C20.5125,22.05 20.375,21.625 20.275,21.2 L17.525,21.2 L17.525,17.45 L20.275,17.45 C20.375,17.025 20.5125,16.6 20.675,16.2 L17.525,16.2 L17.525,12.45 L21.4625,12.45 L22.725,12.4625 Z M25.8875,11.2125 L22.45,11.2125 C21.975,9.4125 21.2625,7.9 20.3625,6.8125 C22.6625,7.6125 24.6125,9.175 25.8875,11.2125 Z M17.5125,6.3 C19.0875,6.7 20.3875,8.525 21.15,11.2125 L17.5125,11.2125 L17.5125,6.3 L17.5125,6.3 Z M13.3375,6.825 C12.45,7.925 11.7375,9.425 11.2625,11.2125 L7.875,11.2125 C9.15,9.2 11.0625,7.6375 13.3375,6.825 Z M7.2,12.4625 L10.9875,12.4625 C10.7625,13.6375 10.6375,14.9 10.6,16.2125 L6.2875,16.2125 C6.3625,14.8875 6.675,13.6125 7.2,12.4625 Z M6.2875,17.4625 L10.6,17.4625 C10.6375,18.775 10.7625,20.0375 10.9875,21.2125 L7.2,21.2125 C6.675,20.05 6.3625,18.7875 6.2875,17.4625 Z M7.875,22.4625 L11.2625,22.4625 C11.7375,24.25 12.4375,25.75 13.3375,26.85 C11.0625,26.0375 9.15,24.475 7.875,22.4625 Z M16.2625,27.3875 C14.6625,27.0125 13.3375,25.175 12.5625,22.4625 L16.2625,22.4625 L16.2625,27.3875 L16.2625,27.3875 Z M16.2625,21.2125 L12.25,21.2125 C12.0125,20.0625 11.875,18.8 11.85,17.4625 L16.25,17.4625 L16.25,21.2125 L16.2625,21.2125 Z M16.2625,16.2125 L11.85,16.2125 C11.8875,14.875 12.025,13.6125 12.25,12.4625 L16.25,12.4625 L16.25,16.2125 L16.2625,16.2125 Z M16.2625,11.2125 L12.5625,11.2125 C13.3375,8.5 14.6625,6.6625 16.2625,6.2875 L16.2625,11.2125 L16.2625,11.2125 Z" id="Shape" fill="#FFFFFF" fill-rule="nonzero"></path>
                    <rect id="Rectangle" x="0" y="0" width="40" height="40"></rect>
                </g>
            </g>
        </g>
    </g>
</svg>