<?xml version="1.0" encoding="UTF-8"?>
<svg width="56px" height="56px" viewBox="0 0 56 56" version="1.1" xmlns="http://www.w3.org/2000/svg" xmlns:xlink="http://www.w3.org/1999/xlink">
    <!-- Generator: Sketch 57.1 (83088) - https://sketch.com -->
    <title>201-W56px</title>
    <desc>Created with Sketch.</desc>
    <g id="NEW_icons" stroke="none" stroke-width="1" fill="none" fill-rule="evenodd">
        <g id="icons_UD_new-Copy" transform="translate(-1814.000000, -25611.000000)">
            <g id="201-W56px" transform="translate(1814.000000, 25611.000000)">
                <circle id="Oval-Copy-1205" fill="#101828" cx="28" cy="28" r="28"></circle>
                <g id="201-B32px-Copy-4" transform="translate(8.000000, 8.000000)">
                    <path d="M33.725,12.5 L33.75,12.525 L33.725,26.2625 L6.25,26.2375 L6.275,12.5 L33.725,12.5 L33.725,12.5 Z M33.725,11.25 L6.275,11.25 C5.575,11.25 5,11.825 5,12.525 L5,26.2375 C5,26.9375 5.575,27.5125 6.275,27.5125 L33.725,27.5125 C34.425,27.5125 35,26.9375 35,26.2375 L35,12.525 C35,11.825 34.425,11.25 33.725,11.25 L33.725,11.25 Z" id="Shape" fill="#FFFFFF" fill-rule="nonzero"></path>
                    <path d="M14.875,19.7375 L14.4,19.3625 L13.75,19.3625 C13.75,19.125 13.875,18.9875 13.9875,18.85 L14.5625,19.35 L15,19.375 L14.575,19.375 L14.925,19.6875 L14.5375,19.375 L14.875,19.7375 Z M15.7625,18.9 L14.9875,17.9125 C15.3375,17.6375 15.725,17.3875 16.125,17.175 L16.7125,18.275 C16.375,18.4625 16.0625,18.675 15.7625,18.9 Z M23.3125,18.3 C22.975,18.1125 22.625,17.9625 22.2625,17.8375 L22.675,16.6625 C23.1,16.8125 23.5125,17 23.9125,17.2125 L23.3125,18.3 Z M17.7625,17.825 L17.3625,16.6375 C17.7875,16.4875 18.225,16.3875 18.675,16.3125 L18.875,17.55 C18.5,17.6125 18.125,17.7 17.7625,17.825 Z M21.1625,17.5625 C20.7875,17.5 20.4,17.4625 20.0125,17.4625 L20.025,16.2125 C20.475,16.2125 20.925,16.25 21.3625,16.325 L21.1625,17.5625 Z" id="Shape" fill="#FFFFFF" fill-rule="nonzero"></path>
                    <path d="M24.825,23.7375 L15.175,23.7375 L13.675,19.25 L13.875,18.9875 C13.8875,18.9625 14.2625,18.475 14.9875,17.9125 L15.7625,18.9 C15.4625,19.1375 15.2375,19.35 15.0875,19.5125 L16.0875,22.4875 L23.9375,22.4875 L24.9375,19.5125 C24.6,19.1625 23.875,18.5 22.775,18.025 L23.275,16.875 C25.125,17.675 26.1,18.925 26.1375,18.975 L26.3375,19.2375 L24.825,23.7375 Z" id="Path" fill="#FFFFFF" fill-rule="nonzero"></path>
                    <path d="M19.975,27.425 C14.5875,27.425 10.55,28.25 8.75,28.7 L8.75,29.9875 C10.3,29.5875 14.425,28.675 19.975,28.675 C25.575,28.675 29.7375,29.6 31.25,30 L31.25,28.7125 C29.4625,28.2625 25.4125,27.425 19.975,27.425 Z" id="Path" fill="#FFFFFF" fill-rule="nonzero"></path>
                    <polygon id="Path" fill="#FFFFFF" fill-rule="nonzero" points="20.85 20 19.875 22.925 21.05 23.3125 22.1625 20"></polygon>
                    <rect id="Rectangle" x="0" y="0" width="40" height="40"></rect>
                </g>
            </g>
        </g>
    </g>
</svg>