<?xml version="1.0" encoding="UTF-8"?>
<svg width="80px" height="80px" viewBox="0 0 80 80" version="1.1" xmlns="http://www.w3.org/2000/svg" xmlns:xlink="http://www.w3.org/1999/xlink">
    <!-- Generator: Sketch 57.1 (83088) - https://sketch.com -->
    <title>174-B80px</title>
    <desc>Created with Sketch.</desc>
    <g id="174-B80px" stroke="none" stroke-width="1" fill="none" fill-rule="evenodd">
        <g>
            <path d="M25.05,48.725 C24.475,48.725 24,48.725 23.45,48.725 C23.45,48.125 23.45,47.55 23.45,46.975 C23.45,46.925 23.525,46.85 23.575,46.85 C24.025,46.85 24.45,46.85 24.9,46.85 C24.95,46.85 25.025,46.925 25.025,46.975 C25.05,47.525 25.05,48.125 25.05,48.725 Z" id="Path" fill="#101828" fill-rule="nonzero"></path>
            <path d="M49.825,50.625 C49.325,50.625 48.85,50.625 48.4,50.625 C48.35,50.625 48.25,50.525 48.25,50.475 C48.25,49.95 48.25,49.4 48.25,48.875 C48.25,48.825 48.35,48.725 48.4,48.725 C48.825,48.7 49.25,48.725 49.675,48.725 C49.725,48.725 49.825,48.825 49.825,48.875 C49.825,49.425 49.825,50.025 49.825,50.625 Z" id="Path" fill="#101828" fill-rule="nonzero"></path>
            <path d="M64.425,48.75 C63.925,48.75 63.45,48.75 63,48.75 C62.95,48.75 62.85,48.625 62.85,48.575 C62.825,48.05 62.825,47.55 62.85,47.025 C62.85,46.95 62.975,46.85 63.05,46.85 C63.45,46.825 63.85,46.825 64.25,46.85 C64.325,46.85 64.45,46.95 64.45,47 C64.425,47.55 64.425,48.125 64.425,48.75 Z" id="Path" fill="#101828" fill-rule="nonzero"></path>
            <g id="Group" transform="translate(12.500000, 22.500000)" fill="#101828" fill-rule="nonzero">
                <path d="M29.475,5.6 C29.4,5.6 29.35,5.6 29.3,5.6 C28.575,5.6 27.875,5.6 27.15,5.6 C27,5.6 26.975,5.65 26.975,5.775 C26.975,9.125 26.975,12.5 26.975,15.85 C26.975,15.925 26.975,16 26.975,16.075 C25.475,16.075 23.975,16.075 22.475,16.075 C22.475,16 22.475,15.95 22.475,15.875 C22.475,14.95 22.475,14.025 22.5,13.1 C22.5,12.95 22.45,12.925 22.325,12.925 C20.775,12.925 19.225,12.925 17.65,12.925 C17.525,12.925 17.475,12.975 17.4,13.075 C16.8,14.025 16.225,14.975 15.625,15.925 C15.55,16.025 15.475,16.075 15.35,16.075 C13.95,16.075 12.55,16.075 11.15,16.075 C11.1,16.075 11.025,16.075 10.975,16.075 C10.975,13.475 10.975,10.875 10.975,8.275 C10.95,8.275 10.95,8.25 10.925,8.25 C9.875,9.6 8.825,10.95 7.75,12.325 C6.7,10.95 5.65,9.6 4.6,8.25 C4.575,8.25 4.575,8.25 4.55,8.275 C4.55,8.35 4.55,8.4 4.55,8.475 C4.55,10.925 4.55,13.4 4.55,15.85 C4.55,16.075 4.55,16.075 4.35,16.075 C2.975,16.075 1.6,16.075 0.225,16.075 C0.15,16.075 0.1,16.075 0.025,16.075 C0.025,11.175 0.025,6.275 0.025,1.375 C0.075,1.375 0.125,1.375 0.175,1.375 C1.6,1.375 3.025,1.375 4.45,1.375 C4.55,1.375 4.625,1.4 4.675,1.5 C5.65,2.8 6.65,4.075 7.625,5.375 C7.675,5.425 7.7,5.475 7.75,5.55 C7.8,5.5 7.825,5.45 7.875,5.425 C8.875,4.125 9.85,2.825 10.85,1.525 C10.9,1.475 10.975,1.4 11.05,1.4 C12.525,1.4 13.975,1.4 15.45,1.4 C15.475,1.4 15.5,1.4 15.525,1.4 C15.525,3.65 15.525,5.925 15.525,8.175 C15.55,8.175 15.55,8.175 15.575,8.175 C15.6,8.125 15.65,8.075 15.675,8 C17.025,5.85 18.375,3.675 19.7,1.525 C19.775,1.425 19.85,1.375 19.975,1.375 C26.925,1.375 33.9,1.375 40.85,1.375 C41.05,1.375 41.05,1.375 41.05,1.6 C41.05,3.925 41.05,6.275 41.05,8.6 C41.05,8.8 41.05,8.8 41.25,8.8 C41.95,8.8 42.65,8.8 43.375,8.8 C43.575,8.8 43.575,8.8 43.575,8.575 C43.575,6.25 43.575,3.9 43.575,1.575 C43.575,1.5 43.575,1.45 43.575,1.375 C45.075,1.375 46.575,1.375 48.075,1.375 C48.075,6.275 48.075,11.175 48.075,16.075 C46.575,16.075 45.1,16.075 43.575,16.075 C43.575,16.025 43.575,15.95 43.575,15.9 C43.575,15 43.575,14.075 43.575,13.175 C43.575,12.975 43.575,12.975 43.35,12.975 C41.15,12.975 38.95,12.975 36.75,12.975 C36.675,12.975 36.6,12.975 36.525,12.975 C36.525,10.525 36.525,8.075 36.525,5.625 C36.45,5.625 36.4,5.625 36.325,5.625 C35.625,5.625 34.925,5.625 34.25,5.625 C34,5.625 34,5.625 34,5.85 C34,9.2 34,12.525 34,15.875 C34,15.95 34,16.025 34,16.1 C32.475,16.1 30.975,16.1 29.45,16.1 C29.475,12.6 29.475,9.125 29.475,5.6 Z M20.075,8.8 C20.125,8.8 20.15,8.825 20.175,8.825 C20.9,8.825 21.625,8.825 22.325,8.825 C22.45,8.825 22.45,8.75 22.45,8.675 C22.45,7.525 22.45,6.375 22.45,5.225 C22.45,5.175 22.45,5.15 22.425,5.05 C21.625,6.3 20.875,7.55 20.075,8.8 Z" id="Shape"></path>
                <path d="M50.075,1.425 C51.575,1.425 53.05,1.425 54.55,1.425 C54.55,1.475 54.55,1.525 54.55,1.6 C54.55,3.55 54.55,5.475 54.55,7.425 C54.55,7.525 54.525,7.575 54.45,7.65 C53.025,8.5 51.6,9.375 50.175,10.225 C50.15,10.25 50.125,10.25 50.075,10.275 C50.075,7.325 50.075,4.375 50.075,1.425 Z" id="Path"></path>
                <path d="M52.3,10.975 C53.85,10.95 55,12.175 55,13.5 C55.025,15.2 53.725,16.275 52.3,16.275 C50.825,16.275 49.6,15.025 49.625,13.525 C49.625,12.1 50.825,10.975 52.3,10.975 Z" id="Path"></path>
            </g>
            <path d="M70,41.275 C50,41.275 30.025,41.275 10.025,41.275 C10.025,41.35 10,41.45 10,41.525 C10,46.3 10,51.075 10,55.875 C10,55.975 10,56.05 10.025,56.125 C30.025,56.125 50,56.125 70,56.125 C70,56 70,55.9 70,55.8 C70,54.825 70,53.85 70,52.85 C70,49.025 70,45.15 70,41.275 Z M19.925,53.225 C19.8,53.225 19.725,53.25 19.625,53.25 C18.925,53.25 18.2,53.25 17.5,53.25 C17.275,53.25 17.2,53.175 17.2,52.95 C17.2,51.025 17.2,49.075 17.2,47.15 C17.2,46.9 17.15,46.8 16.875,46.825 C16.6,46.85 16.3,46.825 16.025,46.825 C15.575,46.825 15.625,46.775 15.625,47.225 C15.625,49.1 15.625,51 15.625,52.875 C15.625,52.975 15.625,53.1 15.625,53.225 C14.7,53.225 13.8,53.225 12.875,53.225 C12.875,50.225 12.875,47.25 12.875,44.25 C15.225,44.25 17.575,44.25 19.95,44.25 C19.925,47.225 19.925,50.225 19.925,53.225 Z M27.5,51.35 C26.3,51.35 25.075,51.35 23.875,51.35 C23.75,51.35 23.65,51.35 23.475,51.35 C23.475,51.9 23.475,52.4 23.475,52.925 C23.475,53.15 23.4,53.25 23.15,53.25 C22.425,53.225 21.7,53.25 21,53.25 C20.825,53.25 20.725,53.225 20.725,53.025 C20.725,50.15 20.725,47.275 20.725,44.4 C20.725,44.375 20.725,44.325 20.75,44.275 C23.1,44.275 25.425,44.275 27.825,44.275 C27.825,44.35 27.825,44.45 27.825,44.525 C27.825,46.7 27.825,48.875 27.825,51.075 C27.825,51.3 27.725,51.35 27.5,51.35 Z M34.325,53.225 C32.475,53.225 30.6,53.225 28.75,53.225 C28.575,53.225 28.475,53.175 28.475,52.975 C28.475,50.1 28.475,47.25 28.475,44.375 C28.475,44.35 28.475,44.3 28.5,44.25 C30.5,44.25 32.525,44.25 34.55,44.25 C34.55,45.1 34.55,45.95 34.55,46.8 C33.45,46.8 32.35,46.8 31.25,46.8 C31.225,46.875 31.2,46.9 31.2,46.925 C31.15,47.4 31.15,47.4 31.625,47.4 C32.175,47.4 32.725,47.4 33.325,47.4 C33.1,48.275 32.875,49.075 32.65,49.9 C32.625,49.95 32.525,50.025 32.45,50.025 C32.15,50.05 31.85,50.025 31.575,50.025 C31.175,50.025 31.15,50.025 31.2,50.45 C31.2,50.5 31.225,50.55 31.225,50.6 C32.325,50.6 33.4,50.6 34.525,50.6 C34.525,50.7 34.55,50.775 34.55,50.85 C34.55,51.55 34.55,52.225 34.55,52.925 C34.6,53.15 34.55,53.225 34.325,53.225 Z M44.35,53.225 C43.675,53.225 43,53.2 42.325,53.225 C42.05,53.225 41.95,53.15 41.95,52.875 C41.975,51.475 41.95,50.075 41.95,48.65 C41.95,48.55 41.95,48.425 41.95,48.325 C41.925,48.325 41.9,48.325 41.85,48.3 C41.225,49.2 40.6,50.1 39.95,51.05 C39.3,50.125 38.675,49.2 38.05,48.3 C38.025,48.3 38,48.325 37.975,48.325 C37.975,48.425 37.975,48.525 37.975,48.65 C37.975,50.075 37.975,51.5 37.975,52.925 C37.975,53.2 37.9,53.275 37.625,53.25 C36.85,53.225 36.075,53.25 35.275,53.25 C35.275,50.25 35.275,47.275 35.275,44.25 C35.3,44.25 35.35,44.225 35.4,44.225 C36.225,44.225 37.025,44.225 37.85,44.225 C37.95,44.225 38.075,44.325 38.15,44.425 C38.7,45.2 39.225,45.975 39.75,46.75 C39.8,46.85 39.875,46.925 39.975,47.05 C40.05,46.925 40.125,46.85 40.2,46.75 C40.725,45.975 41.275,45.2 41.8,44.425 C41.9,44.275 42,44.225 42.175,44.225 C43,44.225 43.825,44.225 44.675,44.225 C44.675,44.35 44.7,44.45 44.7,44.55 C44.7,47.325 44.7,50.125 44.7,52.9 C44.7,53.175 44.6,53.225 44.35,53.225 Z M52.55,52.9 C52.55,53.15 52.475,53.225 52.225,53.225 C50.1,53.225 47.975,53.225 45.85,53.225 C45.575,53.225 45.5,53.15 45.5,52.875 C45.5,51.475 45.5,50.075 45.5,48.7 C45.5,48.7 45.5,48.7 45.5,48.7 C45.5,47.325 45.5,45.95 45.5,44.575 C45.5,44.325 45.575,44.25 45.825,44.25 C46.525,44.275 47.225,44.275 47.925,44.25 C48.15,44.25 48.225,44.325 48.225,44.55 C48.2,44.975 48.225,45.425 48.225,45.85 C48.225,46.075 48.3,46.15 48.525,46.15 C49.775,46.15 51,46.15 52.25,46.15 C52.5,46.15 52.575,46.225 52.575,46.45 C52.55,48.575 52.55,50.75 52.55,52.9 Z M56.375,47.45 C56.95,47.425 57.525,47.45 58.175,47.45 C57.95,48.3 57.75,49.1 57.55,49.875 C57.525,49.95 57.4,50 57.325,50 C57.025,50.025 56.725,50.025 56.4,50 C56.125,49.975 56.025,50.075 56.075,50.35 C56.075,50.425 56.075,50.5 56.1,50.625 C56.225,50.625 56.325,50.625 56.425,50.625 C57.325,50.625 58.225,50.625 59.15,50.625 C59.35,50.625 59.425,50.675 59.425,50.9 C59.425,51.575 59.425,52.275 59.425,52.95 C59.425,53.15 59.35,53.2 59.175,53.2 C57.325,53.2 55.475,53.2 53.625,53.2 C53.45,53.2 53.375,53.15 53.375,52.95 C53.375,50.125 53.375,47.3 53.375,44.475 C53.375,44.3 53.425,44.25 53.6,44.25 C55.475,44.25 57.35,44.25 59.225,44.25 C59.425,44.25 59.45,44.35 59.45,44.525 C59.45,45.2 59.45,45.875 59.45,46.55 C59.45,46.775 59.4,46.85 59.175,46.825 C58.25,46.825 57.35,46.825 56.425,46.825 C56.175,46.825 56.1,46.875 56.1,47.125 C56.05,47.375 56.1,47.45 56.375,47.45 Z M66.925,51.35 C65.725,51.35 64.5,51.35 63.3,51.35 C63.2,51.35 63.075,51.35 62.95,51.35 C62.925,51.35 62.9,51.35 62.9,51.375 C62.9,51.925 62.9,52.425 62.9,52.925 C62.9,53.15 62.825,53.25 62.575,53.25 C61.85,53.225 61.125,53.25 60.425,53.25 C60.25,53.25 60.15,53.225 60.15,53.025 C60.15,53 60.15,53 60.15,52.975 C60.15,52.975 60.15,52.975 60.15,52.95 C60.15,50.15 60.15,47.35 60.15,44.55 C60.15,44.525 60.175,44.525 60.175,44.5 C60.175,44.475 60.175,44.425 60.175,44.4 C60.175,44.375 60.175,44.325 60.2,44.275 C60.275,44.275 60.375,44.275 60.45,44.275 C60.45,44.275 60.45,44.275 60.475,44.275 C61.55,44.275 62.625,44.275 63.7,44.275 C63.7,44.275 63.7,44.275 63.7,44.275 C64.4,44.275 65.1,44.275 65.825,44.275 C66.175,44.275 66.525,44.275 66.875,44.275 C66.875,44.275 66.875,44.275 66.875,44.275 C67,44.275 67.125,44.275 67.25,44.275 C67.25,44.35 67.25,44.45 67.25,44.525 C67.25,46.7 67.25,48.875 67.25,51.075 C67.25,51.3 67.15,51.35 66.925,51.35 Z" id="Shape" fill="#101828" fill-rule="nonzero"></path>
            <rect id="Rectangle" x="0" y="0" width="80" height="80"></rect>
        </g>
    </g>
</svg>