<?xml version="1.0" encoding="UTF-8"?>
<svg width="80px" height="80px" viewBox="0 0 80 80" version="1.1" xmlns="http://www.w3.org/2000/svg" xmlns:xlink="http://www.w3.org/1999/xlink">
    <!-- Generator: Sketch 57.1 (83088) - https://sketch.com -->
    <title>160-B80px</title>
    <desc>Created with Sketch.</desc>
    <g id="160-B80px" stroke="none" stroke-width="1" fill="none" fill-rule="evenodd">
        <g>
            <path d="M41.25,58.75 C40.55,58.75 40,59.3 40,60 C40,60.7 40.55,61.25 41.25,61.25 C41.95,61.25 42.5,60.7 42.5,60 C42.5,59.3 41.95,58.75 41.25,58.75 L41.25,58.75 Z" id="Path" fill="#101828" fill-rule="nonzero"></path>
            <path d="M67.375,32.5 L52.625,32.5 C51.175,32.5 50,33.675 50,35.125 L50,55 L50,57.5 L50,62.375 C50,63.825 51.175,65 52.625,65 L67.375,65 C68.825,65 70,63.825 70,62.375 L70,57.5 L70,55 L70,35.125 C70,33.675 68.825,32.5 67.375,32.5 Z M67.5,62.375 C67.5,62.45 67.45,62.5 67.375,62.5 L52.625,62.5 C52.55,62.5 52.5,62.45 52.5,62.375 L52.5,57.5 L67.5,57.5 L67.5,62.375 Z M52.5,55 L52.5,35.125 C52.5,35.05 52.55,35 52.625,35 L67.375,35 C67.45,35 67.5,35.05 67.5,35.125 L67.5,55 L52.5,55 Z" id="Shape" fill="#101828" fill-rule="nonzero"></path>
            <path d="M60,58.75 C59.3,58.75 58.75,59.3 58.75,60 C58.75,60.7 59.3,61.25 60,61.25 C60.7,61.25 61.25,60.7 61.25,60 C61.25,59.3 60.7,58.75 60,58.75 L60,58.75 Z" id="Path" fill="#101828" fill-rule="nonzero"></path>
            <path d="M52.375,25 L33.25,25 C33.25,25 33.25,25 33.25,25 C33.675,25.35 34.1,25.7 34.475,26.125 C34.675,26.325 34.85,26.575 35.025,26.775 C35.225,27.025 35.425,27.225 35.6,27.5 L35.6,27.5 L52.375,27.5 C52.45,27.5 52.5,27.55 52.5,27.625 L52.5,30 L55,30 L55,27.625 C55,26.175 53.825,25 52.375,25 Z" id="Path" fill="#101828" fill-rule="nonzero"></path>
            <path d="M67.45,17.5 L12.55,17.5 C11.15,17.5 10,18.65 10,20.05 L10,47.5 C10,48.9 11.15,50.05 12.55,50.05 L17.5,50.05 L17.5,47.5 L12.5,47.5 L12.55,20 L67.45,20 L67.5,20.05 L67.475,30 L69.3,30 C69.55,30 69.75,30.075 70,30.15 L70,20.05 C70,18.65 68.85,17.5 67.45,17.5 Z" id="Path" fill="#101828" fill-rule="nonzero"></path>
            <g id="Group" transform="translate(17.500000, 25.000000)" fill="#101828" fill-rule="nonzero">
                <path d="M17.5,8.75 C17.5,3.925 13.575,0 8.75,0 C3.925,0 0,3.925 0,8.75 C0,11.125 0.95,13.275 2.5,14.85 L2.5,32.5 L8.75,29.25 L15,32.5 L15,14.85 C16.55,13.275 17.5,11.125 17.5,8.75 Z M8.75,2.5 C12.2,2.5 15,5.3 15,8.75 C15,12.2 12.2,15 8.75,15 C5.3,15 2.5,12.2 2.5,8.75 C2.5,5.3 5.3,2.5 8.75,2.5 Z M12.5,28.4 L9.9,27.05 L8.75,26.45 L7.6,27.05 L5,28.4 L5,16.95 C6.05,17.325 7.275,17.55 8.7,17.55 C10.175,17.55 11.425,17.3 12.5,16.925 L12.5,28.4 Z" id="Shape"></path>
                <path d="M8.75,12.525 C10.825,12.525 12.5,10.85 12.5,8.775 C12.5,6.7 10.825,5 8.75,5 C6.675,5 5,6.675 5,8.775 C5,10.875 6.675,12.525 8.75,12.525 Z M8.75,7.5 C9.45,7.5 10,8.075 10,8.75 C10,9.45 9.425,10 8.75,10 C8.075,10 7.5,9.425 7.5,8.75 C7.5,8.075 8.05,7.5 8.75,7.5 Z" id="Shape"></path>
            </g>
            <g id="Group" transform="translate(27.500000, 55.000000)" fill="#101828" fill-rule="nonzero">
                <rect id="Rectangle" x="7.5" y="0" width="12.5" height="2.5"></rect>
                <path d="M20,9.3 L20,7.5 L2.625,7.5 C2.55,7.5 2.5,7.45 2.5,7.375 L2.5,4.525 L0,3.2 L0,7.375 C0,8.825 1.175,10 2.625,10 L20.125,10 C20.1,9.775 20,9.55 20,9.3 Z" id="Path"></path>
            </g>
            <rect id="Rectangle" x="0" y="0" width="80" height="80"></rect>
        </g>
    </g>
</svg>