<?xml version="1.0" encoding="UTF-8"?>
<svg width="42px" height="42px" viewBox="0 0 42 42" version="1.1" xmlns="http://www.w3.org/2000/svg" xmlns:xlink="http://www.w3.org/1999/xlink">
    <!-- Generator: Sketch 57.1 (83088) - https://sketch.com -->
    <title>188-G40px</title>
    <desc>Created with Sketch.</desc>
    <g id="NEW_icons" stroke="none" stroke-width="1" fill="none" fill-rule="evenodd">
        <g id="icons_UD_new-Copy" transform="translate(-244.000000, -24124.000000)">
            <g id="188-G40px" transform="translate(245.000000, 24125.000000)">
                <circle id="Oval-Copy-1254" stroke="#E3E8EC" cx="20" cy="20" r="20"></circle>
                <g id="188-B32px-Copy" transform="translate(4.000000, 4.000000)">
                    <path d="M15,7.8 L16.11,8.5 L15,9.2 L15,7.8 L15,7.8 Z M14,6 L14,11 L18,8.5 L14,6 L14,6 Z" id="Shape" fill="#101828" fill-rule="nonzero"></path>
                    <path d="M17,22.8 L17,24.19 L15.89,23.49 L17,22.8 L17,22.8 Z M18,21 L14,23.5 L18,26 L18,21 L18,21 Z" id="Shape" fill="#101828" fill-rule="nonzero"></path>
                    <path d="M4.96,9 L14.5,9 L14.5,8 L4.96,8 C4.43,8 4,8.43 4,8.96 L4,23.03 C4,23.57 4.43,24 4.96,24 L12.95,24 L12.95,23.01 L5,23.04 L4.96,9 Z" id="Path" fill="#101828" fill-rule="nonzero"></path>
                    <path d="M26.93,8 L19,8 L19,9 L26.93,9 C26.97,9 27,9.03 27,9.07 L27,22.92 C27,22.96 26.97,22.99 26.93,22.99 L18,22.99 L18,23.99 L26.93,23.99 C27.52,23.99 28,23.51 28,22.92 L28,9.07 C28,8.48 27.52,8 26.93,8 Z" id="Path" fill="#101828" fill-rule="nonzero"></path>
                    <path d="M10.01,19 C8.28,19 7,17.8 7,16 C7,14.2 8.33,13 10.05,13 C11.28,13 12.17,13.64 12.59,14.41 L11.66,14.96 C11.3,14.37 10.81,14 10.02,14 C8.99,14 8.13,14.77 8.13,15.99 C8.13,17.18 8.97,17.98 10.02,17.98 C10.76,17.98 11.31,17.66 11.73,17.06 L12.66,17.58 C11.99,18.55 11.29,19 10.01,19 Z" id="Path" fill="#101828" fill-rule="nonzero"></path>
                    <path d="M14.53,16.57 L14.53,19 L13.45,19 L13.45,13 L15.89,13 C17.15,13 17.92,13.66 17.92,14.7 C17.92,15.63 17.39,16.17 16.61,16.47 L18,19 L16.77,19 L15.45,16.57 L14.53,16.57 Z M15.89,15.57 C16.55,15.57 16.85,15.26 16.85,14.78 C16.85,14.3 16.56,13.99 15.89,13.99 L14.53,13.99 L14.53,15.57 L15.89,15.57 L15.89,15.57 Z" id="Shape" fill="#101828" fill-rule="nonzero"></path>
                    <polygon id="Path" fill="#101828" fill-rule="nonzero" points="20.15 13 22 17.77 23.85 13 25 13 25 19 24 19 24 15.39 23.65 16.24 22.52 19 21.48 19 20.34 16.25 19.99 15.33 20 19 19 19 19 13"></polygon>
                    <rect id="Rectangle" x="0" y="0" width="32" height="32"></rect>
                </g>
            </g>
        </g>
    </g>
</svg>