<?xml version="1.0" encoding="UTF-8"?>
<svg width="56px" height="56px" viewBox="0 0 56 56" version="1.1" xmlns="http://www.w3.org/2000/svg" xmlns:xlink="http://www.w3.org/1999/xlink">
    <!-- Generator: Sketch 57.1 (83088) - https://sketch.com -->
    <title>036-B56px</title>
    <desc>Created with Sketch.</desc>
    <g id="036-B56px" stroke="none" stroke-width="1" fill="none" fill-rule="evenodd">
        <g>
            <g id="Group" transform="translate(7.000000, 8.750000)" fill="#101828">
                <path d="M40.25,3.5 L22.75,3.5 L22.75,0 L0,3.5 L0,35 L22.75,38.5 L22.75,35 L40.25,35 C41.2125,35 42,34.2125 42,33.25 L42,5.25 C42,4.2875 41.2125,3.5 40.25,3.5 Z M13.44,25.8825 L11.5325,21.0175 L9.485,25.62 L6.9475,25.4275 L9.8525,19.04 L7.28,12.5125 L9.87,12.39 L11.48,16.87 L13.545,12.0925 L16.2225,11.9 L13.1775,19.005 L16.345,26.04 L13.44,25.8825 Z M40.25,33.25 L22.75,33.25 L22.75,31.5 L28,31.5 L28,28 L22.75,28 L22.75,26.25 L28,26.25 L28,22.75 L22.75,22.75 L22.75,21 L28,21 L28,17.5 L22.75,17.5 L22.75,15.75 L28,15.75 L28,12.25 L22.75,12.25 L22.75,10.5 L28,10.5 L28,7 L22.75,7 L22.75,5.25 L40.25,5.25 L40.25,33.25 Z" id="Shape"></path>
                <rect id="Rectangle" x="29.75" y="7" width="7" height="3.5"></rect>
                <rect id="Rectangle" x="29.75" y="12.25" width="7" height="3.5"></rect>
                <rect id="Rectangle" x="29.75" y="17.5" width="7" height="3.5"></rect>
                <rect id="Rectangle" x="29.75" y="22.75" width="7" height="3.5"></rect>
                <rect id="Rectangle" x="29.75" y="28" width="7" height="3.5"></rect>
            </g>
            <rect id="Rectangle" x="0" y="0" width="56" height="56"></rect>
        </g>
    </g>
</svg>