<?xml version="1.0" encoding="UTF-8"?>
<svg width="80px" height="80px" viewBox="0 0 80 80" version="1.1" xmlns="http://www.w3.org/2000/svg" xmlns:xlink="http://www.w3.org/1999/xlink">
    <!-- Generator: Sketch 57.1 (83088) - https://sketch.com -->
    <title>018-B80px</title>
    <desc>Created with Sketch.</desc>
    <g id="018-B80px" stroke="none" stroke-width="1" fill="none" fill-rule="evenodd">
        <g>
            <g id="Group" transform="translate(30.000000, 52.500000)" fill="#101828" fill-rule="nonzero">
                <path d="M8.65,6.05 C8.65,3.825 7.05,2.4 4.575,2.4 C1.85,2.4 0.4,4.35 0.4,6.175 C0.4,6.575 0.45,6.925 0.525,7.3 L0.55,7.5 L3.125,7.3 L3.075,7.05 C3.025,6.8 3,6.6 3,6.275 C3,5.375 3.6,4.825 4.575,4.825 C5.5,4.825 6.1,5.4 6.1,6.3 C6.1,7.025 5.8,7.575 4.825,8.575 L0.4,13.075 L0.4,15 L8.65,15 L8.65,12.475 L4.4,12.475 L6.6,10.25 C8.15,8.675 8.65,7.65 8.65,6.05 Z" id="Path"></path>
                <path d="M15,2.5 C12.25,2.5 10,4.75 10,7.5 L10,10 C10,12.75 12.25,15 15,15 C17.75,15 20,12.75 20,10 L20,7.5 C20,4.75 17.75,2.5 15,2.5 Z M17.5,10 C17.5,11.375 16.375,12.5 15,12.5 C13.625,12.5 12.5,11.375 12.5,10 L12.5,7.5 C12.5,6.125 13.625,5 15,5 C16.375,5 17.5,6.125 17.5,7.5 L17.5,10 Z" id="Shape"></path>
                <path d="M26.2,2.5 C23.45,2.5 21.2,4.75 21.2,7.5 L21.2,10 C21.2,12.75 23.45,15 26.2,15 C28.95,15 31.2,12.75 31.2,10 L31.2,7.5 C31.2,4.75 28.975,2.5 26.2,2.5 Z M28.7,10 C28.7,11.375 27.575,12.5 26.2,12.5 C24.825,12.5 23.7,11.375 23.7,10 L23.7,7.5 C23.7,6.125 24.825,5 26.2,5 C27.575,5 28.7,6.125 28.7,7.5 L28.7,10 Z" id="Shape"></path>
                <polygon id="Path" points="37.5 7.5 37.5 5 35 5 35 7.5 32.5 7.5 32.5 10 35 10 35 12.5 37.5 12.5 37.5 10 40 10 40 7.5"></polygon>
            </g>
            <path d="M27.5,60.775 C22.675,58.85 18.65,55.425 15.975,51.05 L22.75,51.05 C23.875,54.725 25.525,57.825 27.5,60.175 L27.5,57.5 L27.5,55.85 C26.7,54.425 25.975,52.8 25.4,51.05 L31.65,51.05 L50.975,51.05 L56.525,51.05 C56.225,51.55 55.9,52.025 55.55,52.5 L58.575,52.5 C61.05,48.5 62.5,43.8 62.5,38.75 C62.5,24.25 50.75,12.5 36.25,12.5 C36.25,12.5 36.225,12.5 36.225,12.5 C36.225,12.5 36.225,12.5 36.2,12.5 C36.175,12.5 36.175,12.5 36.15,12.5 C21.7,12.55 10,24.275 10,38.75 C10,50.175 17.3,59.875 27.5,63.475 L27.5,60.775 Z M57.85,48.55 L50.325,48.55 C50.95,45.9 51.325,43 51.4,40 L59.925,40 C59.775,43.025 59.05,45.925 57.85,48.55 Z M59.925,37.5 L51.4,37.5 C51.325,34.5 50.95,31.6 50.325,28.95 L57.85,28.95 C59.05,31.575 59.775,34.475 59.925,37.5 Z M56.525,26.45 L49.675,26.45 C48.4,22.3 46.475,18.825 44.15,16.375 C49.35,18.225 53.7,21.8 56.525,26.45 Z M37.5,15.125 C41.475,15.9 44.975,20.3 47.025,26.45 L37.5,26.45 L37.5,15.125 Z M37.5,28.95 L47.75,28.95 C48.425,31.6 48.825,34.475 48.9,37.5 L37.5,37.5 L37.5,28.95 Z M37.5,40 L48.9,40 C48.8,43.025 48.4,45.9 47.75,48.55 L37.5,48.55 L37.5,40 Z M35,48.55 L24.675,48.55 C24,45.9 23.6,43.025 23.5,40 L35,40 L35,48.55 Z M35,37.5 L23.5,37.5 C23.6,34.475 24,31.6 24.65,28.95 L35,28.95 L35,37.5 Z M35,15.125 L35,26.45 L25.4,26.45 C27.45,20.275 30.975,15.85 35,15.125 Z M28.225,16.425 C25.925,18.875 24.025,22.325 22.75,26.45 L15.975,26.45 C18.775,21.85 23.075,18.275 28.225,16.425 Z M14.65,28.95 L22.1,28.95 C21.45,31.6 21.1,34.5 21,37.5 L12.575,37.5 C12.725,34.475 13.45,31.575 14.65,28.95 Z M12.575,40 L21,40 C21.075,43 21.45,45.9 22.075,48.55 L14.65,48.55 C13.45,45.925 12.725,43.025 12.575,40 Z" id="Shape" fill="#101828" fill-rule="nonzero"></path>
            <rect id="Rectangle" x="0" y="0" width="80" height="80"></rect>
        </g>
    </g>
</svg>