<?xml version="1.0" encoding="UTF-8"?>
<svg width="80px" height="80px" viewBox="0 0 80 80" version="1.1" xmlns="http://www.w3.org/2000/svg" xmlns:xlink="http://www.w3.org/1999/xlink">
    <!-- Generator: Sketch 54.1 (76490) - https://sketchapp.com -->
    <title>192-C80px</title>
    <desc>Created with Sketch.</desc>
    <g id="NEW_icons" stroke="none" stroke-width="1" fill="none" fill-rule="evenodd">
        <g id="icons_UD_new-Copy" transform="translate(-1011.000000, -24438.000000)">
            <g id="192-C80px" transform="translate(1011.000000, 24438.000000)">
                <circle id="Oval-Copy-788" fill="#FF4F12" cx="40" cy="40" r="40"></circle>
                <g id="192-B32px-Copy-8" transform="translate(12.000000, 12.000000)">
                    <path d="M28,19.25 C32.34,19.25 35.875,22.785 35.875,27.125 C35.875,31.465 32.34,35 28,35 C23.66,35 20.125,31.465 20.125,27.125 C20.125,22.785 23.66,19.25 28,19.25 L28,19.25 Z M28,17.5 C22.68,17.5 18.375,21.805 18.375,27.125 C18.375,32.445 22.68,36.75 28,36.75 C33.32,36.75 37.625,32.445 37.625,27.125 C37.625,21.805 33.32,17.5 28,17.5 L28,17.5 Z" id="Shape" fill="#FFFFFF" fill-rule="nonzero"></path>
                    <path d="M44.625,33.25 C46.0775,33.25 47.25,34.4225 47.25,35.875 L47.25,40.25 L42,40.25 L42,35.875 C42,34.4225 43.1725,33.25 44.625,33.25 L44.625,33.25 Z M44.625,31.5 C42.21,31.5 40.25,33.46 40.25,35.875 L40.25,42 L49,42 L49,35.875 C49,33.46 47.04,31.5 44.625,31.5 L44.625,31.5 Z" id="Shape" fill="#FFFFFF" fill-rule="nonzero"></path>
                    <path d="M45.5,42 L45.5,45.5 L43.75,45.5 L43.75,42 L45.5,42 L45.5,42 Z M45.5,40.25 L43.75,40.25 C42.7875,40.25 42,41.0375 42,42 L42,45.5 C42,46.4625 42.7875,47.25 43.75,47.25 L45.5,47.25 C46.4625,47.25 47.25,46.4625 47.25,45.5 L47.25,42 C47.25,41.0375 46.4625,40.25 45.5,40.25 L45.5,40.25 Z" id="Shape" fill="#FFFFFF" fill-rule="nonzero"></path>
                    <polygon id="Path" fill="#FFFFFF" fill-rule="nonzero" points="45.5 32.27 43.75 32.27 43.75 28 35.875 28 35.875 26.25 45.5 26.25"></polygon>
                    <path d="M14,14 L14,18.375 C14,19.8275 12.8275,21 11.375,21 C9.9225,21 8.75,19.8275 8.75,18.375 L8.75,14 L14,14 L14,14 Z M15.75,12.25 L7,12.25 L7,18.375 C7,20.79 8.96,22.75 11.375,22.75 C13.79,22.75 15.75,20.79 15.75,18.375 L15.75,12.25 L15.75,12.25 Z" id="Shape" fill="#FFFFFF" fill-rule="nonzero"></path>
                    <path d="M12.25,8.75 L12.25,12.25 L10.5,12.25 L10.5,8.75 L12.25,8.75 L12.25,8.75 Z M12.25,7 L10.5,7 C9.5375,7 8.75,7.7875 8.75,8.75 L8.75,12.25 C8.75,13.2125 9.5375,14 10.5,14 L12.25,14 C13.2125,14 14,13.2125 14,12.25 L14,8.75 C14,7.7875 13.2125,7 12.25,7 L12.25,7 Z" id="Shape" fill="#FFFFFF" fill-rule="nonzero"></path>
                    <polygon id="Path" fill="#FFFFFF" fill-rule="nonzero" points="20.125 28 10.5 28 10.5 21 12.25 21 12.25 26.25 20.125 26.25"></polygon>
                    <path d="M28,19.25 C32.34,19.25 35.875,22.785 35.875,27.125 C35.875,31.465 32.34,35 28,35 C23.66,35 20.125,31.465 20.125,27.125 C20.125,22.785 23.66,19.25 28,19.25 L28,19.25 Z M28,17.5 C22.68,17.5 18.375,21.805 18.375,27.125 C18.375,32.445 22.68,36.75 28,36.75 C33.32,36.75 37.625,32.445 37.625,27.125 C37.625,21.805 33.32,17.5 28,17.5 L28,17.5 Z" id="Shape" fill="#FFFFFF" fill-rule="nonzero"></path>
                    <polygon id="Path" fill="#FFFFFF" fill-rule="nonzero" points="27.195 30.765 23.8525 27.125 25.1475 25.9525 27.195 28.175 30.8525 24.185 32.1475 25.375"></polygon>
                    <rect id="Rectangle" x="0" y="0" width="56" height="56"></rect>
                </g>
            </g>
        </g>
    </g>
</svg>