<?xml version="1.0" encoding="UTF-8"?>
<svg width="80px" height="80px" viewBox="0 0 80 80" version="1.1" xmlns="http://www.w3.org/2000/svg" xmlns:xlink="http://www.w3.org/1999/xlink">
    <!-- Generator: Sketch 57.1 (83088) - https://sketch.com -->
    <title>143-G80px</title>
    <desc>Created with Sketch.</desc>
    <g id="NEW_icons" stroke="none" stroke-width="1" fill="none" fill-rule="evenodd">
        <g id="icons_UD_new-Copy" transform="translate(-2048.000000, -18302.000000)">
            <g id="143-G80px" transform="translate(2048.000000, 18302.000000)">
                <circle id="Oval-Copy-5" fill="#E3E8EC" cx="40" cy="40" r="40"></circle>
                <g id="143-B32px-Copy-6" transform="translate(12.000000, 12.000000)">
                    <path d="M48.65,16.1 C48.475,15.925 48.125,15.75 47.95,15.75 L47.95,15.75 L45.5,15.75 L45.5,15.4 C45.5,14.875 45.15,14.525 44.625,14.35 C44.1,14.175 39.725,13.475 35.525,14.175 C32.025,14.7 29.05,16.275 27.825,16.975 C26.6,16.275 23.8,14.875 20.125,14.175 C15.925,13.475 11.55,14.175 11.025,14.35 C10.85,14.525 10.5,14.875 10.5,15.4 L10.5,15.75 L8.05,15.75 L8.05,15.75 C7.7,15.75 7.525,15.75 7.35,16.1 C7.175,16.275 7,16.625 7,16.8 L7,17.325 L7,42 L7,42.525 C7,42.875 7.175,43.225 7.525,43.575 C7.7,43.575 7.875,43.75 8.05,43.75 C8.225,43.75 8.4,43.75 8.575,43.575 C8.575,43.575 11.9,41.65 16.45,41.3 C21.525,40.95 27.65,42.525 27.65,42.525 C27.65,42.525 27.65,42.525 27.65,42.525 C27.65,42.525 27.825,42.525 27.825,42.525 C27.825,42.525 27.825,42.525 27.825,42.525 L27.825,42.525 C27.825,42.525 27.825,42.525 27.825,42.525 C27.825,42.525 28,42.525 28,42.525 C28,42.525 28,42.525 28,42.525 C28,42.525 34.125,40.775 39.2,41.3 C43.75,41.65 46.9,43.575 47.075,43.575 C47.25,43.75 47.425,43.75 47.6,43.75 C47.775,43.75 47.95,43.75 48.125,43.575 C48.475,43.4 48.65,43.05 48.65,42.525 L48.65,42 L48.65,17.325 L48.65,16.8 C49,16.625 48.825,16.275 48.65,16.1 Z M12.25,36.75 L12.25,17.5 L12.25,15.925 C13.65,15.75 17.15,15.4 19.95,15.925 C23.1,16.45 26.075,18.025 27.125,18.55 L27.125,39.2 C25.375,38.325 22.925,37.45 19.95,36.925 C18.55,36.75 17.325,36.75 15.925,36.75 C14.525,36.75 13.125,36.925 12.25,37.1 L12.25,36.75 L12.25,36.75 Z M16.1,39.55 C13.125,39.725 10.15,40.95 8.75,41.65 L8.75,17.5 C8.75,17.5 10.5,17.5 10.5,17.5 L10.5,36.75 L10.5,37.975 C10.5,38.325 10.675,38.5 10.85,38.675 C11.025,38.85 11.375,38.85 11.725,38.85 C11.725,38.85 14.525,38.325 17.15,38.5 C21.175,38.675 24.675,39.9 24.675,39.9 C21.175,39.375 17.5,39.375 16.1,39.55 Z M28.875,18.55 C29.925,18.025 32.725,16.45 36.05,15.925 C39.025,15.4 42.35,15.75 43.75,15.925 L43.75,17.5 L43.75,36.75 L43.75,36.75 L43.75,37.1 C42.875,36.925 41.475,36.75 40.075,36.75 C38.675,36.75 37.45,36.925 36.05,37.1 C33.075,37.45 30.45,38.5 28.875,39.375 L28.875,18.55 Z M47.25,41.65 C45.675,40.95 42.875,39.9 39.9,39.55 C38.5,39.375 35,39.375 31.5,40.075 C31.5,40.075 35,38.85 39.025,38.675 C41.475,38.5 44.45,39.025 44.45,39.025 C44.8,39.025 44.975,39.025 45.325,38.85 C45.5,38.675 45.675,38.325 45.675,38.15 L45.675,36.75 L45.675,17.5 C45.675,17.5 47.425,17.5 47.425,17.5 L47.25,41.65 Z" id="Shape" fill="#101828" fill-rule="nonzero"></path>
                    <rect id="Rectangle" x="0" y="0" width="56" height="56"></rect>
                </g>
            </g>
        </g>
    </g>
</svg>