<?xml version="1.0" encoding="UTF-8"?>
<svg width="80px" height="80px" viewBox="0 0 80 80" version="1.1" xmlns="http://www.w3.org/2000/svg" xmlns:xlink="http://www.w3.org/1999/xlink">
    <!-- Generator: Sketch 57.1 (83088) - https://sketch.com -->
    <title>051-B80px</title>
    <desc>Created with Sketch.</desc>
    <g id="051-B80px" stroke="none" stroke-width="1" fill="none" fill-rule="evenodd">
        <g>
            <path d="M27.425,21.25 C28.1,21.25 28.675,20.7 28.675,20 C28.675,19.325 28.125,18.75 27.425,18.75 C26.725,18.75 26.175,19.3 26.175,20 C26.175,20.7 26.75,21.25 27.425,21.25" id="Path" fill="#101828" fill-rule="nonzero"></path>
            <path d="M17.475,21.25 C18.15,21.25 18.725,20.7 18.725,20 C18.725,19.325 18.175,18.75 17.475,18.75 C16.8,18.75 16.25,19.325 16.25,20 C16.25,20.7 16.8,21.25 17.475,21.25" id="Path" fill="#101828" fill-rule="nonzero"></path>
            <path d="M22.475,21.25 C23.15,21.25 23.725,20.7 23.725,20 C23.725,19.325 23.175,18.75 22.475,18.75 C21.8,18.75 21.25,19.325 21.25,20 C21.25,20.7 21.8,21.25 22.475,21.25" id="Path" fill="#101828" fill-rule="nonzero"></path>
            <rect id="Rectangle" fill="#101828" fill-rule="nonzero" x="12.5" y="22.5" width="55" height="2.5"></rect>
            <path d="M67.5,15 L12.5,15 C11.125,15 10,16.125 10,17.5 L10,55 C10,56.375 11.125,57.5 12.5,57.5 L25.025,57.5 C24.425,56.7 23.9,55.875 23.425,55 L12.5,55 L12.5,17.5 L67.5,17.5 L67.5,55 L56.575,55 C56.1,55.875 55.575,56.7 54.975,57.5 L67.5,57.5 C68.875,57.5 70,56.375 70,55 L70,17.5 C70,16.125 68.875,15 67.5,15 Z" id="Path" fill="#101828" fill-rule="nonzero"></path>
            <path d="M40,32.5 C47.575,32.5 53.75,38.675 53.75,46.25 C53.75,53.825 47.575,60 40,60 C32.425,60 26.25,53.825 26.25,46.25 C26.25,38.675 32.425,32.5 40,32.5 L40,32.5 Z M40,30 C31.025,30 23.75,37.275 23.75,46.25 C23.75,55.225 31.025,62.5 40,62.5 C48.975,62.5 56.25,55.225 56.25,46.25 C56.25,37.275 48.975,30 40,30 L40,30 Z" id="Shape" fill="#101828" fill-rule="nonzero"></path>
            <path d="M47.5,45 L47.5,47.5 L32.5,47.5 L32.5,45 L47.5,45 L47.5,45 Z M50,42.5 L30,42.5 L30,50 L50,50 L50,42.5 L50,42.5 Z" id="Shape" fill="#101828" fill-rule="nonzero"></path>
            <rect id="Rectangle" x="0" y="0" width="80" height="80"></rect>
        </g>
    </g>
</svg>