<?xml version="1.0" encoding="UTF-8"?>
<svg width="80px" height="80px" viewBox="0 0 80 80" version="1.1" xmlns="http://www.w3.org/2000/svg" xmlns:xlink="http://www.w3.org/1999/xlink">
    <!-- Generator: Sketch 58 (84663) - https://sketch.com -->
    <title>255-G80px</title>
    <desc>Created with Sketch.</desc>
    <g id="NEW_icons" stroke="none" stroke-width="1" fill="none" fill-rule="evenodd">
        <g id="icons_UD_new-Copy" transform="translate(-2050.000000, -32368.000000)">
            <g id="255-G80px" transform="translate(2050.000000, 32368.000000)">
                <circle id="Oval-Copy-1458" fill="#E3E8EC" cx="40" cy="40" r="40"></circle>
                <g id="255-B32px" transform="translate(12.000000, 12.000000)">
                    <g>
                        <path d="M31.5,39.41 C24.29,36.855 18.0775,30.52 18.0075,30.45 C17.92,30.345 9.7475,21.805 8.75,13.3875 C8.75,13.335 8.75,13.2475 8.8025,13.195 L13.3875,8.7675 C13.4225,8.7325 13.4575,8.715 13.51,8.715 C13.5625,8.715 13.5975,8.75 13.5975,8.75 L20.51,15.89 C20.5625,15.9425 20.545,16.0475 20.4925,16.1 L17.43,19.0575 L16.59,19.88 L17.0275,20.965 C17.0975,21.14 18.725,25.1125 21.0525,27.51 C23.38,29.9075 27.3,31.675 27.475,31.745 L28.56,32.2175 L29.4,31.395 L32.4625,28.4375 C32.4975,28.4025 32.5325,28.385 32.585,28.385 C32.6375,28.385 32.6725,28.42 32.6725,28.42 L35.63,31.4825 L38.0625,31.4825 L33.915,27.2125 C33.5475,26.8275 33.0575,26.635 32.5675,26.635 C32.095,26.635 31.605,26.81 31.2375,27.1775 L28.175,30.135 C28.175,30.135 24.43,28.4725 22.3125,26.285 C20.195,24.0975 18.655,20.3 18.655,20.3 L21.7175,17.3425 C22.47,16.6075 22.505,15.4175 21.77,14.665 L14.84,7.525 C14.4725,7.1575 13.9825,6.965 13.4925,6.965 C13.02,6.965 12.53,7.14 12.1625,7.5075 L7.5775,11.935 C7.14,12.3725 6.9475,12.9675 7.0175,13.58 C8.1025,22.715 16.7475,31.64 16.7475,31.64 C16.7475,31.64 23.5375,38.64 31.5,41.23 L31.5,39.41 Z" id="Path" fill="#101828" fill-rule="nonzero"></path>
                        <path d="M45.6925,44.695 L43.75,45.92 L43.75,43.4875 L45.6925,44.695 L45.6925,44.695 Z M49,44.695 L42,40.3375 L42.0175,49.0875 L49,44.695 L49,44.695 Z" id="Shape" fill="#101828" fill-rule="nonzero"></path>
                        <polygon id="Rectangle" fill="#101828" fill-rule="nonzero" transform="translate(38.508785, 44.607660) rotate(-0.111984) translate(-38.508785, -44.607660) " points="33.2675247 43.7326585 43.7500447 43.7326585 43.7500447 45.4826619 33.2675247 45.4826619"></polygon>
                        <path d="M45.6925,34.195 L43.75,35.42 L43.75,32.9875 L45.6925,34.195 L45.6925,34.195 Z M49,34.195 L42,29.8375 L42.0175,38.5875 L49,34.195 L49,34.195 Z" id="Shape" fill="#101828" fill-rule="nonzero"></path>
                        <polygon id="Rectangle" fill="#101828" fill-rule="nonzero" transform="translate(38.508810, 34.107602) rotate(-0.111811) translate(-38.508810, -34.107602) " points="33.2675496 33.2325999 43.7500696 33.2325999 43.7500696 34.9826032 33.2675496 34.9826032"></polygon>
                        <rect id="Rectangle" x="0" y="0" width="56" height="56"></rect>
                    </g>
                </g>
            </g>
        </g>
    </g>
</svg>