<?xml version="1.0" encoding="UTF-8"?>
<svg width="80px" height="80px" viewBox="0 0 80 80" version="1.1" xmlns="http://www.w3.org/2000/svg" xmlns:xlink="http://www.w3.org/1999/xlink">
    <!-- Generator: Sketch 56.3 (81716) - https://sketch.com -->
    <title>042-W80px</title>
    <desc>Created with Sketch.</desc>
    <defs>
        <path d="M40.5134297,24.5060579 C40.5001242,24.5800641 40.4908055,24.6547447 40.4768438,24.728751 L40.4050008,24.304695 C40.4442445,24.3707086 40.4768438,24.4393865 40.5134297,24.5060579 C40.7302547,23.3232568 40.8439992,22.1124649 40.8439992,20.9023144 C40.8439992,18.218699 40.3198687,15.6150762 39.284257,13.1641366 C38.2852148,10.796528 36.8558367,8.67029497 35.0333648,6.84475765 C33.2135508,5.01922033 31.091107,3.58639316 28.730543,2.58495677 C26.2861594,1.54817827 23.6888039,1.02278309 21.011632,1.02278309 C19.7498766,1.02278309 18.4861195,1.14145626 17.2562906,1.3781612 C17.2536164,1.37881903 17.2503023,1.37881903 17.2469719,1.37949331 C17.3161406,1.41615108 17.385982,1.44882896 17.4538219,1.48683529 L17.0367914,1.42149598 C17.1066328,1.40815841 17.1771305,1.39348872 17.2469719,1.37949331 C15.5595218,0.480054002 13.6618896,0 11.740977,0 C8.60486156,0 5.65631555,1.22412948 3.43875164,3.44772186 C1.22185448,5.67062351 0,8.62628591 0,11.7699736 C0,13.7708564 0.513484781,15.7377457 1.47726666,17.4759392 C1.48990423,17.4039393 1.49855098,17.3312652 1.51251877,17.2592488 L1.58435353,17.6759699 C1.54710593,17.6106306 1.51451426,17.5426106 1.47726666,17.4759392 C1.28171663,18.6020679 1.17862057,19.7528654 1.17862057,20.9023144 C1.17862057,23.5866204 1.70274727,26.1895772 2.73836391,28.6411829 C3.73606734,31.009446 5.16610992,33.1343485 6.9865868,34.9598842 C8.80905867,36.7854199 10.9288462,38.2202469 13.292073,39.219024 C15.7364484,40.2578056 18.3344602,40.7838648 21.011632,40.7838648 C22.1769516,40.7838648 23.3449289,40.6771863 24.4849828,40.4744971 C24.4184719,40.437159 24.3506156,40.4031555 24.2827758,40.3638187 L24.7064672,40.4384927 C24.6333117,40.4524947 24.5594672,40.4611623 24.4849828,40.4744971 C26.2416,41.4706078 28.2303656,42 30.2610164,42 C33.3964641,42 36.3436828,40.7778641 38.56125,38.5536172 C40.7794734,36.3320361 42,33.3757077 42,30.2320249 C42,28.22447 41.4838594,26.2509169 40.5134297,24.5060579 Z M21.0907922,33.0776745 C14.0450067,33.0776745 10.8929297,29.6052889 10.8929297,27.0029998 C10.8929297,25.6681849 11.8760004,24.7327473 13.230881,24.7327473 C16.2459412,24.7327473 15.4650727,29.0725638 21.0907922,29.0725638 C23.9708273,29.0725638 25.5611672,27.5050567 25.5611672,25.9008787 C25.5611672,24.9361001 25.0862555,23.8666437 23.1899555,23.3979373 L16.9230469,21.8297609 C11.8760004,20.5609481 10.9601084,17.8259888 10.9601084,15.2550275 C10.9601084,9.91710327 15.973901,7.91288192 20.6823914,7.91288192 C25.0197445,7.91288192 30.1326539,10.3158162 30.1326539,13.5181661 C30.1326539,14.8903246 28.947368,15.6884082 27.5931633,15.6884082 C25.0197445,15.6884082 25.4933273,12.1180168 20.3099203,12.1180168 C17.7378469,12.1180168 16.3131199,13.285474 16.3131199,14.9563217 C16.3131199,16.6238474 18.3444516,17.1565775 20.1083859,17.5592867 L24.7470398,18.5913946 C29.8280227,19.7261903 31.1163891,22.6998609 31.1163891,25.5008337 C31.1163891,29.8386487 27.7946977,33.0776745 21.0907922,33.0776745 Z M24.2827758,40.3638187 C24.3506156,40.4140486 24.4184719,40.4574682 24.4849828,40.505146 C24.5594672,40.4881186 24.6333117,40.4770507 24.7064672,40.4591713 L24.2827758,40.3638187 Z M40.4969598,24.728751 C40.5148308,24.6547447 40.5267588,24.5800641 40.5437898,24.5060579 C40.4969598,24.4393865 40.4552328,24.3707086 40.4050008,24.304695 L40.4969598,24.728751 Z M1.52238936,17.2592488 C1.50451059,17.3312652 1.49344275,17.4039393 1.47726666,17.4759392 C1.52494359,17.5426106 1.56666093,17.6106306 1.61433786,17.6759699 L1.52238936,17.2592488 Z M17.4538219,1.51656031 C17.385982,1.46802931 17.3161406,1.42630231 17.2469719,1.37949331 C17.1771305,1.39736431 17.1066328,1.41609631 17.0367914,1.43312731 L17.4538219,1.51656031 Z" id="path-1"></path>
    </defs>
    <g id="NEW_icons" stroke="none" stroke-width="1" fill="none" fill-rule="evenodd">
        <g id="icons_UD_new-Copy" transform="translate(-869.000000, -5596.000000)">
            <g id="042-W80px" transform="translate(869.000000, 5596.000000)">
                <circle id="Oval-Copy-336" fill="#101828" cx="40" cy="40" r="40"></circle>
                <g id="skype-copy-5" transform="translate(12.000000, 12.000000)">
                    <rect id="Rectangle" x="0" y="0" width="56" height="56"></rect>
                    <g id="Skype_color" transform="translate(7.000000, 7.000000)">
                        <mask id="mask-2" fill="white">
                            <use xlink:href="#path-1"></use>
                        </mask>
                        <g id="path-1"></g>
                        <polygon id="Fill-1" fill="#FFFFFF" fill-rule="nonzero" mask="url(#mask-2)" points="-0.79245283 42.7924528 42.7924528 42.7924528 42.7924528 -0.79245283 -0.79245283 -0.79245283"></polygon>
                    </g>
                </g>
            </g>
        </g>
    </g>
</svg>