<?xml version="1.0" encoding="UTF-8"?>
<svg width="80px" height="80px" viewBox="0 0 80 80" version="1.1" xmlns="http://www.w3.org/2000/svg" xmlns:xlink="http://www.w3.org/1999/xlink">
    <!-- Generator: Sketch 57.1 (83088) - https://sketch.com -->
    <title>074-B80px</title>
    <desc>Created with Sketch.</desc>
    <g id="074-B80px" stroke="none" stroke-width="1" fill="none" fill-rule="evenodd">
        <g>
            <path d="M47.5,50 L47.5,67.375 C47.5,67.45 47.45,67.5 47.375,67.5 L12.625,67.5 C12.55,67.5 12.5,67.45 12.5,67.375 L12.5,12.625 C12.5,12.55 12.55,12.5 12.625,12.5 L47.375,12.5 C47.45,12.5 47.5,12.55 47.5,12.625 L47.5,15 L50,15 L50,12.625 C50,11.175 48.825,10 47.375,10 L12.625,10 C11.175,10 10,11.175 10,12.625 L10,67.375 C10,68.825 11.175,70 12.625,70 L47.375,70 C48.825,70 50,68.825 50,67.375 L50,50 L47.5,50 Z" id="Path" fill="#101828" fill-rule="nonzero"></path>
            <path d="M30,65 C30.675,65 31.25,64.45 31.25,63.75 C31.25,63.05 30.675,62.5 30,62.5 C29.325,62.5 28.75,63.05 28.75,63.75 C28.75,64.45 29.325,65 30,65" id="Path" fill="#101828" fill-rule="nonzero"></path>
            <rect id="Rectangle" fill="#101828" fill-rule="nonzero" x="10" y="57.5" width="40" height="2.5"></rect>
            <path d="M59.45,31.25 C57.775,30.875 57.775,30.475 57.775,30.3 C57.775,29.925 58.375,29.8 58.75,29.8 C59.375,29.8 59.825,30.075 60.2,30.725 L60.425,31.075 L62.4,29.9 L62.225,29.55 C61.55,28.175 60.425,27.5 58.775,27.5 C56.775,27.5 55.45,28.65 55.45,30.35 C55.45,31.925 56.5,33.025 58.375,33.4 C59.95,33.725 60.1,34.1 60.1,34.45 C60.1,34.9 59.65,35.2 58.975,35.2 C58.1,35.2 57.6,34.825 57.25,33.9 L57.075,33.45 L55,34.5 L55.1,34.85 C55.55,36.5 57,37.5 58.975,37.5 C61.275,37.5 62.5,35.925 62.5,34.375 C62.5,32.7 61.525,31.725 59.45,31.25 Z" id="Path" fill="#101828" fill-rule="nonzero"></path>
            <path d="M36.95,31.25 C35.275,30.875 35.275,30.475 35.275,30.3 C35.275,29.925 35.875,29.8 36.25,29.8 C36.875,29.8 37.325,30.075 37.7,30.725 L37.925,31.075 L39.9,29.9 L39.725,29.55 C39.05,28.175 37.925,27.5 36.275,27.5 C34.275,27.5 32.95,28.65 32.95,30.35 C32.95,31.925 34,33.025 35.875,33.4 C37.45,33.725 37.6,34.1 37.6,34.45 C37.6,34.9 37.15,35.2 36.475,35.2 C35.6,35.2 35.1,34.825 34.75,33.9 L34.575,33.45 L32.5,34.5 L32.6,34.85 C33.05,36.5 34.5,37.5 36.475,37.5 C38.775,37.5 40,35.925 40,34.375 C40,32.7 39.025,31.725 36.95,31.25 Z" id="Path" fill="#101828" fill-rule="nonzero"></path>
            <polygon id="Path" fill="#101828" fill-rule="nonzero" points="50 27.5 50 27.575 49.975 27.55 47.5 30.75 47.5 30.75 47.5 30.75 45.025 27.55 45 27.575 45 27.5 42.5 27.5 42.5 37.5 45 37.5 45 31.725 47.5 34.4 50 31.725 50 37.5 52.5 37.5 52.5 27.5"></polygon>
            <path d="M67.5,17.5 L27.5,17.5 C26.125,17.5 25,18.625 25,20 L25,40 L27.5,40 L27.5,20 L67.5,20 L67.5,45 L32.475,45 L31.725,45 L31.675,45.025 L25,49.575 L25,52.5 L32.475,47.5 L67.5,47.5 C68.875,47.5 70,46.375 70,45 L70,20 C70,18.625 68.875,17.5 67.5,17.5 Z" id="Path" fill="#101828" fill-rule="nonzero"></path>
            <rect id="Rectangle" x="0" y="0" width="80" height="80"></rect>
        </g>
    </g>
</svg>