<?xml version="1.0" encoding="UTF-8"?>
<svg width="56px" height="56px" viewBox="0 0 56 56" version="1.1" xmlns="http://www.w3.org/2000/svg" xmlns:xlink="http://www.w3.org/1999/xlink">
    <!-- Generator: Sketch 57.1 (83088) - https://sketch.com -->
    <title>085-G56px</title>
    <desc>Created with Sketch.</desc>
    <g id="NEW_icons" stroke="none" stroke-width="1" fill="none" fill-rule="evenodd">
        <g id="icons_UD_new-Copy" transform="translate(-1728.000000, -11043.000000)">
            <g id="085-G56px" transform="translate(1728.000000, 11043.000000)">
                <circle id="Oval-Copy-549" fill="#E3E8EC" cx="28" cy="28" r="28"></circle>
                <g id="085-B32px-Copy-3" transform="translate(8.000000, 8.000000)">
                    <path d="M18.75,32.5 C19.0875,32.5 19.375,32.225 19.375,31.875 C19.375,31.525 19.0875,31.25 18.75,31.25 C18.4125,31.25 18.125,31.525 18.125,31.875 C18.125,32.225 18.4125,32.5 18.75,32.5" id="Path" fill="#101828" fill-rule="nonzero"></path>
                    <rect id="Rectangle" fill="#101828" fill-rule="nonzero" x="8.75" y="28.75" width="20" height="1.25"></rect>
                    <path d="M27.5,25 L27.5,33.6875 C27.5,33.725 27.475,33.75 27.4375,33.75 L10.0625,33.75 C10.025,33.75 10,33.725 10,33.6875 L10,6.3125 C10,6.275 10.025,6.25 10.0625,6.25 L27.4375,6.25 C27.475,6.25 27.5,6.275 27.5,6.3125 L27.5,8.75 L28.75,8.75 L28.75,6.3125 C28.75,5.5875 28.1625,5 27.4375,5 L10.0625,5 C9.3375,5 8.75,5.5875 8.75,6.3125 L8.75,33.6875 C8.75,34.4125 9.3375,35 10.0625,35 L27.4375,35 C28.1625,35 28.75,34.4125 28.75,33.6875 L28.75,25 L27.5,25 Z" id="Path" fill="#101828" fill-rule="nonzero"></path>
                    <path d="M29,18.75 L28.125,20.1375 L27.25,18.75 L29,18.75 L29,18.75 Z M31.25,17.5 L25,17.5 L28.125,22.5 L31.25,17.5 L31.25,17.5 Z" id="Shape" fill="#101828" fill-rule="nonzero"></path>
                    <rect id="Rectangle" fill="#101828" fill-rule="nonzero" x="27.5" y="11.25" width="1.25" height="6.25"></rect>
                    <path d="M16.0375,17.5 C14.0875,17.5 12.5,19.175 12.5,21.25 C12.5,23.325 14.0875,25 16.0375,25 C17.9875,25 19.575,23.325 19.575,21.25 L19.575,21.25 L18.4,21.25 L16.25,21.25 L16.25,22.5 L18.0625,22.5 C17.65,23.25 16.9,23.75 16.0375,23.75 C14.7375,23.75 13.75,22.625 13.75,21.25 C13.75,19.875 14.7375,18.75 16.0375,18.75 C16.9125,18.75 17.6625,19.25 18.0625,20 L19.35,20 C18.8625,18.55 17.575,17.5 16.0375,17.5 L16.0375,17.5 Z" id="Path" fill="#101828" fill-rule="nonzero"></path>
                    <path d="M22.8,18.75 C23.325,18.75 23.75,19.175 23.75,19.7 C23.75,20.225 23.325,20.65 22.8,20.65 L21.25,20.65 L21.25,18.75 L22.8,18.75 L22.8,18.75 Z M22.8,17.5 L20,17.5 L20,21.9 L22.8,21.9 C24.0125,21.9 25,20.9125 25,19.7 C25,18.4875 24.0125,17.5 22.8,17.5 L22.8,17.5 Z" id="Shape" fill="#101828" fill-rule="nonzero"></path>
                    <path d="M22.8,21.85 C23.325,21.85 23.75,22.275 23.75,22.8 C23.75,23.325 23.325,23.75 22.8,23.75 L21.25,23.75 L21.25,21.85 L22.8,21.85 L22.8,21.85 Z M22.8,20.6 L20,20.6 L20,25 L22.8,25 C24.0125,25 25,24.0125 25,22.8 L25,22.8 C25,21.5875 24.0125,20.6 22.8,20.6 L22.8,20.6 Z" id="Shape" fill="#101828" fill-rule="nonzero"></path>
                    <path d="M14.375,12.5 C14.725,12.5 15,12.775 15,13.125 L16.25,13.125 C16.25,12.775 16.525,12.5 16.875,12.5 C17.225,12.5 17.5,12.775 17.5,13.125 L18.75,13.125 C18.75,12.0875 17.9125,11.25 16.875,11.25 C16.3875,11.25 15.9625,11.4375 15.625,11.7375 C15.2875,11.4375 14.8625,11.25 14.375,11.25 C13.3375,11.25 12.5,12.0875 12.5,13.125 L13.75,13.125 C13.75,12.775 14.025,12.5 14.375,12.5 Z" id="Path" fill="#101828" fill-rule="nonzero"></path>
                    <path d="M23.125,12.5 C23.475,12.5 23.75,12.775 23.75,13.125 L25,13.125 C25,12.0875 24.1625,11.25 23.125,11.25 C22.0875,11.25 21.25,12.0875 21.25,13.125 L22.5,13.125 C22.5,12.775 22.775,12.5 23.125,12.5 Z" id="Path" fill="#101828" fill-rule="nonzero"></path>
                    <rect id="Rectangle" fill="#101828" fill-rule="nonzero" x="12.5" y="11.25" width="1.25" height="3.75"></rect>
                    <rect id="Rectangle" fill="#101828" fill-rule="nonzero" x="15" y="11.875" width="1.25" height="3.125"></rect>
                    <rect id="Rectangle" fill="#101828" fill-rule="nonzero" x="17.5" y="13.125" width="1.25" height="1.875"></rect>
                    <polygon id="Path" fill="#101828" fill-rule="nonzero" points="20.625 11.25 19.375 11.25 19.375 15 20.625 15"></polygon>
                    <rect id="Rectangle" fill="#101828" fill-rule="nonzero" x="21.25" y="11.25" width="1.25" height="3.75"></rect>
                    <rect id="Rectangle" fill="#101828" fill-rule="nonzero" x="23.75" y="13.125" width="1.25" height="1.875"></rect>
                    <rect id="Rectangle" fill="#101828" fill-rule="nonzero" x="19.375" y="8.75" width="1.25" height="1.25"></rect>
                    <rect id="Rectangle" x="0" y="0" width="40" height="40"></rect>
                </g>
            </g>
        </g>
    </g>
</svg>