<?xml version="1.0" encoding="UTF-8"?>
<svg width="32px" height="32px" viewBox="0 0 32 32" version="1.1" xmlns="http://www.w3.org/2000/svg" xmlns:xlink="http://www.w3.org/1999/xlink">
    <!-- Generator: Sketch 59.1 (86144) - https://sketch.com -->
    <title>268-B32px</title>
    <desc>Created with Sketch.</desc>
    <g id="268-B32px" stroke="none" stroke-width="1" fill="none" fill-rule="evenodd">
        <g>
            <rect id="Rectangle" x="0" y="0" width="32" height="32"></rect>
            <g id="Group" transform="translate(2.000000, 4.000000)" fill="#101828" fill-rule="nonzero">
                <g transform="translate(11.000000, 10.000000)" id="Path">
                    <path d="M13.5,3.2 L12.8,2.6 C11.4,4.1 9.4,5.1 7.2,5 C5,4.9 3,3.9 1.7,2.3 L0.9,2.8 C2.4,4.6 4.6,5.8 7.1,5.9 C9.6,6.1 11.9,5 13.5,3.2 Z"></path>
                    <path d="M11.6,2.3 L10.9,1.7 C10,2.7 8.6,3.3 7.2,3.2 C5.7,3.2 4.4,2.5 3.6,1.5 L2.8,2 C3.9,3.3 5.4,4.1 7.2,4.1 C8.9,4.2 10.5,3.5 11.6,2.3 Z"></path>
                    <path d="M9.8,1.3 L9,0.8 C8.5,1.2 7.8,1.5 7.1,1.5 C6.4,1.5 5.8,1.2 5.3,0.8 L4.5,1.3 C5.1,2 6,2.4 7,2.4 C8.2,2.4 9.1,2 9.8,1.3 Z"></path>
                </g>
                <path d="M9.1,10.2 L0.9,10.2 L0.9,2.7 L9.1,2.7 L9.1,10.2 Z M1.8,9.3 L8.2,9.3 L8.2,3.6 L1.8,3.6 L1.8,9.3 Z" id="Shape"></path>
                <path d="M9.1,23.5 L0.9,23.5 L0.9,17.3 L9.1,17.3 L9.1,23.5 Z M1.8,22.5 L8.2,22.5 L8.2,18.1 L1.8,18.1 L1.8,22.5 Z" id="Shape"></path>
                <path d="M7.4,18.2 L2.5,18.2 L2.5,9.3 L7.4,9.3 L7.4,18.2 Z M3.4,17.2 L6.5,17.2 L6.5,10.2 L3.4,10.2 L3.4,17.2 Z" id="Shape"></path>
                <path d="M6.9,3.6 L3,3.6 L2.9,3.3 C2.9,3 2.9,2.8 2.9,2.7 C2.9,1.5 3.8,0.6 5,0.6 C6.2,0.6 7.1,1.5 7.1,2.7 C7.1,2.8 7,3 7,3.3 L6.9,3.6 Z M3.8,2.7 L6.2,2.7 C6.2,2.7 6.2,2.7 6.2,2.7 C6.2,2 5.6,1.5 5,1.5 C4.3,1.5 3.8,2 3.8,2.7 C3.8,2.7 3.8,2.7 3.8,2.7 Z" id="Shape"></path>
                <path d="M27.1,8.9 L8.3,8.9 L8.3,4 L27.1,4 L27.1,8.9 Z M9.3,8 L26.3,8 L26.3,4.9 L9.3,4.9 L9.3,8 Z" id="Shape"></path>
                <rect id="Rectangle" transform="translate(11.769850, 6.536110) rotate(-62.056261) translate(-11.769850, -6.536110) " x="9.6698694" y="6.08611416" width="4.19996119" height="1"></rect>
                <rect id="Rectangle" transform="translate(15.709372, 6.601650) rotate(-62.056261) translate(-15.709372, -6.601650) " x="13.6093911" y="6.15165416" width="4.19996119" height="1"></rect>
                <rect id="Rectangle" transform="translate(19.695990, 6.579350) rotate(-62.056261) translate(-19.695990, -6.579350) " x="17.5960094" y="6.12935416" width="4.19996119" height="1"></rect>
                <rect id="Rectangle" transform="translate(23.681990, 6.556150) rotate(-62.056261) translate(-23.681990, -6.556150) " x="21.5820094" y="6.10615416" width="4.19996119" height="1"></rect>
            </g>
        </g>
    </g>
</svg>