<?xml version="1.0" encoding="UTF-8"?>
<svg width="40px" height="40px" viewBox="0 0 40 40" version="1.1" xmlns="http://www.w3.org/2000/svg" xmlns:xlink="http://www.w3.org/1999/xlink">
    <!-- Generator: Sketch 57.1 (83088) - https://sketch.com -->
    <title>020-B40px</title>
    <desc>Created with Sketch.</desc>
    <g id="020-B40px" stroke="none" stroke-width="1" fill="none" fill-rule="evenodd">
        <g>
            <path d="M16.8125,31.3125 L16.125,30.625 C14.7,29.725 13.4875,27.8875 12.7,25.525 L17.5,25.525 L17.5,26.2875 L17.525,26.2625 L18.75,26.2625 L18.75,25.525 L23.5125,25.525 C23.425,25.8 23.3125,26.0625 23.2125,26.325 C23.6375,26.4 24.025,26.5625 24.3875,26.775 C24.55,26.375 24.7,25.9625 24.8375,25.525 L28.2625,25.525 C28.1,25.7875 27.925,26.05 27.75,26.3 C27.9,26.275 28.05,26.25 28.2125,26.25 C28.5625,26.25 28.8875,26.3125 29.2,26.4 C30.4875,24.3625 31.25,21.9625 31.25,19.375 C31.25,12.125 25.375,6.25 18.125,6.25 C18.125,6.25 18.1125,6.25 18.1125,6.25 C18.1125,6.25 18.1125,6.25 18.1,6.25 C18.0875,6.25 18.0875,6.25 18.075,6.25 C10.85,6.275 5,12.1375 5,19.375 C5,26.175 10.175,31.775 16.8125,32.425 L16.8125,31.3125 Z M28.925,24.275 L25.1625,24.275 C25.475,22.95 25.6625,21.5 25.7,20 L29.9625,20 C29.8875,21.5125 29.525,22.9625 28.925,24.275 Z M29.9625,18.75 L25.7,18.75 C25.6625,17.25 25.475,15.8 25.1625,14.475 L28.925,14.475 C29.525,15.7875 29.8875,17.2375 29.9625,18.75 Z M28.2625,13.225 L24.8375,13.225 C24.2,11.15 23.2375,9.4125 22.075,8.1875 C24.675,9.1125 26.85,10.9 28.2625,13.225 Z M18.75,7.5625 C20.7375,7.95 22.4875,10.15 23.5125,13.225 L18.75,13.225 L18.75,7.5625 Z M18.75,14.475 L23.875,14.475 C24.2125,15.8 24.4125,17.2375 24.45,18.75 L18.75,18.75 L18.75,14.475 Z M18.75,20 L24.45,20 C24.4,21.5125 24.2,22.95 23.875,24.275 L18.75,24.275 L18.75,20 Z M17.5,24.275 L12.3375,24.275 C12,22.95 11.8,21.5125 11.75,20 L17.5,20 L17.5,24.275 Z M17.5,18.75 L11.75,18.75 C11.8,17.2375 12,15.8 12.325,14.475 L17.5,14.475 L17.5,18.75 Z M17.5,7.5625 L17.5,13.225 L12.7,13.225 C13.725,10.1375 15.4875,7.925 17.5,7.5625 Z M14.1125,8.2125 C12.9625,9.4375 12.0125,11.1625 11.375,13.225 L7.9875,13.225 C9.3875,10.925 11.5375,9.1375 14.1125,8.2125 Z M7.325,14.475 L11.05,14.475 C10.725,15.8 10.55,17.25 10.5,18.75 L6.2875,18.75 C6.3625,17.2375 6.725,15.7875 7.325,14.475 Z M6.2875,20 L10.5,20 C10.5375,21.5 10.725,22.95 11.0375,24.275 L7.325,24.275 C6.725,22.9625 6.3625,21.5125 6.2875,20 Z M7.9875,25.525 L11.375,25.525 C12.0125,27.5875 12.9625,29.3125 14.1125,30.5375 C11.5375,29.6125 9.3875,27.825 7.9875,25.525 Z" id="Shape" fill="#101828" fill-rule="nonzero"></path>
            <g id="Group" transform="translate(16.250000, 27.500000)" fill="#101828" fill-rule="nonzero">
                <path d="M6.2625,0 C4.8875,0 3.7625,1.125 3.7625,2.5 L3.7625,3.75 C3.7625,5.125 4.8875,6.25 6.2625,6.25 C7.6375,6.25 8.7625,5.125 8.7625,3.75 L8.7625,2.5 C8.7625,1.125 7.6375,0 6.2625,0 Z M7.5125,3.75 C7.5125,4.4375 6.95,5 6.2625,5 C5.575,5 5.0125,4.4375 5.0125,3.75 L5.0125,2.5 C5.0125,1.8125 5.575,1.25 6.2625,1.25 C6.95,1.25 7.5125,1.8125 7.5125,2.5 L7.5125,3.75 Z" id="Shape"></path>
                <path d="M11.9625,0 C10.5875,0 9.4625,1.125 9.4625,2.5 L9.4625,3.75 C9.4625,5.125 10.5875,6.25 11.9625,6.25 C13.3375,6.25 14.4625,5.125 14.4625,3.75 L14.4625,2.5 C14.4625,1.125 13.3375,0 11.9625,0 Z M13.2125,3.75 C13.2125,4.4375 12.65,5 11.9625,5 C11.275,5 10.7125,4.4375 10.7125,3.75 L10.7125,2.5 C10.7125,1.8125 11.275,1.25 11.9625,1.25 C12.65,1.25 13.2125,1.8125 13.2125,2.5 L13.2125,3.75 Z" id="Shape"></path>
                <polygon id="Path" points="17.5 2.5 17.5 1.25 16.25 1.25 16.25 2.5 15 2.5 15 3.75 16.25 3.75 16.25 5 17.5 5 17.5 3.75 18.75 3.75 18.75 2.5"></polygon>
                <polygon id="Path" points="1.8125 0 1.8 0 1.775 0.025 0.1375 1.6125 1.0125 2.5 1.8125 1.725 1.8125 6.25 3.0625 6.25 3.0625 0 2.375 0"></polygon>
            </g>
            <rect id="Rectangle" x="0" y="0" width="40" height="40"></rect>
        </g>
    </g>
</svg>