<?xml version="1.0" encoding="UTF-8"?>
<svg width="40px" height="40px" viewBox="0 0 40 40" version="1.1" xmlns="http://www.w3.org/2000/svg" xmlns:xlink="http://www.w3.org/1999/xlink">
    <!-- Generator: Sketch 57.1 (83088) - https://sketch.com -->
    <title>024-B40px</title>
    <desc>Created with Sketch.</desc>
    <g id="024-B40px" stroke="none" stroke-width="1" fill="none" fill-rule="evenodd">
        <g>
            <path d="M20.025,25.575 C19.2875,26.55 18.425,27.2125 17.5,27.425 L17.5,22.5 L20,22.5 L20,21.25 L17.5,21.25 L17.5,17.5 L20,17.5 L20,17.225 C20,16.875 20.0875,16.55 20.2375,16.25 L17.5,16.25 L17.5,12.5 L21.975,12.5 C22.175,13.2875 22.2875,14.1375 22.375,15 L23.6375,15 C23.5625,14.1375 23.45,13.2875 23.2625,12.5 L26.55,12.5 C26.9125,13.2875 27.1625,14.125 27.3125,15 L28.5875,15 C27.6875,9.3375 22.7875,5 16.875,5 C16.875,5 16.8625,5 16.8625,5 C16.8625,5 16.8625,5 16.85,5 C16.8375,5 16.8375,5 16.825,5 C10.2875,5.025 5,10.3375 5,16.875 C5,23.4125 10.2875,28.725 16.825,28.75 C16.8375,28.75 16.8375,28.75 16.85,28.75 C16.85,28.75 16.85,28.75 16.8625,28.75 C16.8625,28.75 16.875,28.75 16.875,28.75 C18.775,28.75 20.575,28.2875 22.1625,27.5 C21.0625,27.4625 20.175,26.6375 20.025,25.575 Z M25.875,11.25 L22.925,11.25 C22.375,9.5125 21.5875,8.0375 20.6375,6.95 C22.8125,7.775 24.65,9.3 25.875,11.25 Z M17.5,6.325 C19.2125,6.7125 20.7125,8.6 21.6125,11.25 L17.5,11.25 L17.5,6.325 Z M13.0625,6.975 C12.1125,8.05 11.325,9.525 10.7875,11.25 L7.875,11.25 C9.0875,9.3125 10.9,7.8 13.0625,6.975 Z M7.2,12.5 L10.45,12.5 C10.175,13.675 10.025,14.9375 9.975,16.25 L6.2875,16.25 C6.3625,14.925 6.675,13.65 7.2,12.5 Z M6.2875,17.5 L9.9875,17.5 C10.025,18.8125 10.1875,20.075 10.4625,21.25 L7.2125,21.25 C6.675,20.1 6.3625,18.825 6.2875,17.5 Z M7.875,22.5 L10.7875,22.5 C11.325,24.225 12.1125,25.7 13.0625,26.775 C10.9,25.95 9.0875,24.4375 7.875,22.5 Z M16.25,27.4375 C14.525,27.075 13.0125,25.175 12.1,22.5 L16.25,22.5 L16.25,27.4375 Z M16.25,21.25 L11.7375,21.25 C11.45,20.0875 11.275,18.825 11.225,17.5 L16.25,17.5 L16.25,21.25 Z M16.25,16.25 L11.225,16.25 C11.2625,14.925 11.45,13.6625 11.7375,12.5 L16.25,12.5 L16.25,16.25 Z M16.25,11.25 L12.1,11.25 C13.0125,8.5875 14.525,6.6875 16.25,6.3125 L16.25,11.25 Z" id="Shape" fill="#101828" fill-rule="nonzero"></path>
            <path d="M33.75,17.5 L33.75,25 L22.5,25 L22.5,17.5 L33.75,17.5 L33.75,17.5 Z M33.75,16.25 L22.5,16.25 C21.8125,16.25 21.25,16.8125 21.25,17.5 L21.25,25 C21.25,25.6875 21.8125,26.25 22.5,26.25 L33.75,26.25 C34.4375,26.25 35,25.6875 35,25 L35,17.5 C35,16.8125 34.4375,16.25 33.75,16.25 L33.75,16.25 Z" id="Shape" fill="#101828" fill-rule="nonzero"></path>
            <rect id="Rectangle" fill="#101828" fill-rule="nonzero" x="31.25" y="16.25" width="1.25" height="5"></rect>
            <rect id="Rectangle" fill="#101828" fill-rule="nonzero" x="28.75" y="16.25" width="1.25" height="5"></rect>
            <rect id="Rectangle" fill="#101828" fill-rule="nonzero" x="23.75" y="16.25" width="1.25" height="5"></rect>
            <rect id="Rectangle" fill="#101828" fill-rule="nonzero" x="26.25" y="16.25" width="1.25" height="5"></rect>
            <path d="M31.25,26.25 L31.25,27.5 L25,27.5 L25,26.25 L31.25,26.25 L31.25,26.25 Z M31.25,25 L25,25 C24.3125,25 23.75,25.5625 23.75,26.25 L23.75,27.5 C23.75,28.1875 24.3125,28.75 25,28.75 L31.25,28.75 C31.9375,28.75 32.5,28.1875 32.5,27.5 L32.5,26.25 C32.5,25.5625 31.9375,25 31.25,25 L31.25,25 Z" id="Shape" fill="#101828" fill-rule="nonzero"></path>
            <g id="Group" transform="translate(26.250000, 28.750000)" fill="#101828" fill-rule="nonzero">
                <polygon id="Path" points="1.25 6.25 1.25 1.25 1.25 0 0 0 0 6.25"></polygon>
                <polygon id="Path" points="3.75 0 2.5 0 2.5 1.25 2.5 6.25 3.75 6.25"></polygon>
            </g>
            <rect id="Rectangle" x="0" y="0" width="40" height="40"></rect>
        </g>
    </g>
</svg>