<?xml version="1.0" encoding="UTF-8"?>
<svg width="80px" height="80px" viewBox="0 0 80 80" version="1.1" xmlns="http://www.w3.org/2000/svg" xmlns:xlink="http://www.w3.org/1999/xlink">
    <!-- Generator: Sketch 57.1 (83088) - https://sketch.com -->
    <title>163-B80px</title>
    <desc>Created with Sketch.</desc>
    <g id="163-B80px" stroke="none" stroke-width="1" fill="none" fill-rule="evenodd">
        <g>
            <path d="M37.5,35.6 L45.05,40 L37.5,44.4 L37.5,35.6 L37.5,35.6 Z M35,31.225 L35,48.75 L50,40 L35,31.225 L35,31.225 Z" id="Shape" fill="#101828" fill-rule="nonzero"></path>
            <path d="M38.75,17.5 C44.325,17.5 49.3,21.075 51.45,26.6 L52.125,28.35 L54,28.2 C54.325,28.175 54.675,28.15 55,28.15 C61.9,28.15 67.5,34.175 67.5,41.575 C67.5,48.975 61.9,55 55,55 L26.3,55 L26.3,55 L23.8,55 L23.675,55 L23.675,55 C17.5,54.95 12.5,49.525 12.5,42.9 C12.5,36.5 17.15,31.2 23.1,30.825 L24.975,30.7 L25.375,28.85 C26.85,22.175 32.35,17.5 38.75,17.5 L38.75,17.5 Z M38.75,15 C31.05,15 24.625,20.7 22.95,28.325 C15.725,28.775 10,35.1 10,42.9 C10,50.95 16.15,57.5 23.75,57.5 C23.775,57.5 23.775,57.5 23.8,57.5 L23.8,57.5 L55,57.5 C63.275,57.5 70,50.375 70,41.575 C70,32.775 63.275,25.625 55,25.625 C54.575,25.625 54.175,25.65 53.775,25.7 C51.35,19.425 45.525,15 38.75,15 L38.75,15 Z" id="Shape" fill="#101828" fill-rule="nonzero"></path>
            <rect id="Rectangle" x="0" y="0" width="80" height="80"></rect>
        </g>
    </g>
</svg>