<?xml version="1.0" encoding="UTF-8"?>
<svg width="32px" height="32px" viewBox="0 0 32 32" version="1.1" xmlns="http://www.w3.org/2000/svg" xmlns:xlink="http://www.w3.org/1999/xlink">
    <!-- Generator: Sketch 57.1 (83088) - https://sketch.com -->
    <title>098-B32px</title>
    <desc>Created with Sketch.</desc>
    <g id="098-B32px" stroke="none" stroke-width="1" fill="none" fill-rule="evenodd">
        <g>
            <path d="M22.5,18 C24.98,18 27,20.02 27,22.5 C27,24.98 24.98,27 22.5,27 C20.02,27 18,24.98 18,22.5 C18,20.02 20.02,18 22.5,18 L22.5,18 Z M22.5,17 C19.46,17 17,19.46 17,22.5 C17,25.54 19.46,28 22.5,28 C25.54,28 28,25.54 28,22.5 C28,19.46 25.54,17 22.5,17 L22.5,17 Z" id="Shape" fill="#101828" fill-rule="nonzero"></path>
            <path d="M22.07,20.77 L20.85,19.51 C20.72,19.38 20.51,19.38 20.38,19.51 L19.57,20.29 C19.49,20.37 19.46,20.47 19.47,20.58 C19.66,22.19 21.18,23.76 21.18,23.76 C21.18,23.76 22.69,25.32 24.31,25.58 C24.41,25.6 24.52,25.56 24.6,25.49 L25.41,24.71 C25.54,24.58 25.55,24.37 25.42,24.24 L24.2,22.98 C24.07,22.85 23.86,22.85 23.73,22.98 L23.2,23.5 C23.2,23.5 22.54,23.21 22.17,22.82 C21.8,22.43 21.53,21.76 21.53,21.76 L22.07,21.24 C22.2,21.11 22.2,20.9 22.07,20.77 Z" id="Path" fill="#101828" fill-rule="nonzero"></path>
            <rect id="Rectangle" fill="#101828" fill-rule="nonzero" x="12" y="27" width="5" height="1"></rect>
            <path d="M5.7,19.09 C5.69,19.07 5.69,19.06 5.68,19.04 C5.58,18.78 5.48,18.52 5.4,18.25 C5.38,18.18 5.36,18.1 5.34,18.02 C5.28,17.8 5.22,17.59 5.18,17.37 C5.15,17.21 5.13,17.05 5.11,16.89 C5.09,16.74 5.06,16.6 5.05,16.45 C5.02,16.14 5,15.82 5,15.5 C5,15.18 5.02,14.86 5.05,14.54 C5.06,14.39 5.09,14.25 5.11,14.1 C5.13,13.94 5.15,13.78 5.18,13.62 C5.22,13.4 5.28,13.18 5.34,12.97 C5.36,12.9 5.38,12.82 5.4,12.74 C5.48,12.47 5.58,12.21 5.68,11.95 C5.69,11.93 5.69,11.92 5.7,11.9 C7.12,8.41 10.54,5.95 14.54,5.95 C14.69,5.95 14.84,5.97 14.99,5.97 L14.99,5.03 L14.99,4 L13.99,4 L13.99,5.03 C8.43,5.29 4,9.87 4,15.5 C4,21.13 8.44,25.71 14,25.97 L14,28 L15,28 L15,25.97 L15,25.02 C14.85,25.03 14.7,25.04 14.55,25.04 C10.54,25.05 7.12,22.58 5.7,19.09 Z" id="Path" fill="#101828" fill-rule="nonzero"></path>
            <path d="M16.02,22.83 C15.69,22.9 15.35,22.95 15,22.98 L15,19.58 L16.71,19.58 C16.89,19.23 17.09,18.89 17.33,18.58 L15,18.58 L15,16 L19.41,16 L21,16 L21.97,16 L22.97,16 C22.98,15.83 23,15.67 23,15.5 C23,10.81 19.19,7 14.5,7 C14.5,7 14.49,7 14.49,7 C14.49,7 14.49,7 14.49,7 C14.48,7 14.48,7 14.47,7 C9.79,7.02 6,10.82 6,15.5 C6,20.18 9.79,23.98 14.47,24 C14.48,24 14.48,24 14.49,24 C14.49,24 14.49,24 14.49,24 C14.49,24 14.5,24 14.5,24 C15.06,24 15.61,23.94 16.14,23.84 C16.07,23.51 16.03,23.17 16.02,22.83 Z M21.97,15 L19.4,15 C19.37,14.09 19.26,13.23 19.08,12.42 L21.33,12.42 C21.69,13.22 21.91,14.09 21.97,15 Z M20.78,11.42 L18.81,11.42 C18.45,10.28 17.94,9.3 17.32,8.56 C18.75,9.14 19.96,10.15 20.78,11.42 Z M15,8.08 C16.07,8.38 17.12,9.58 17.77,11.42 L15,11.42 L15,8.08 Z M15,12.42 L18.06,12.42 C18.25,13.2 18.38,14.06 18.41,15 L15,15 L15,12.42 Z M11.64,8.57 C11.03,9.31 10.52,10.29 10.16,11.42 L8.22,11.42 C9.04,10.16 10.23,9.16 11.64,8.57 Z M7.67,12.42 L9.89,12.42 C9.71,13.23 9.6,14.09 9.57,15 L7.03,15 C7.09,14.09 7.31,13.22 7.67,12.42 Z M7.03,16 L9.57,16 C9.6,16.91 9.71,17.77 9.89,18.58 L7.67,18.58 C7.31,17.78 7.09,16.91 7.03,16 Z M8.21,19.58 L10.15,19.58 C10.51,20.71 11.02,21.69 11.63,22.43 C10.23,21.84 9.04,20.84 8.21,19.58 Z M14,22.94 C12.92,22.66 11.86,21.44 11.2,19.58 L14,19.58 L14,22.94 Z M14,18.58 L10.92,18.58 C10.73,17.8 10.62,16.94 10.58,16 L14,16 L14,18.58 Z M14,15 L10.57,15 C10.6,14.07 10.72,13.2 10.91,12.42 L14,12.42 L14,15 Z M14,11.42 L11.2,11.42 C11.85,9.56 12.91,8.36 14,8.07 L14,11.42 Z" id="Shape" fill="#101828" fill-rule="nonzero"></path>
            <rect id="Rectangle" x="0" y="0" width="32" height="32"></rect>
        </g>
    </g>
</svg>