<?xml version="1.0" encoding="UTF-8"?>
<svg width="40px" height="40px" viewBox="0 0 40 40" version="1.1" xmlns="http://www.w3.org/2000/svg" xmlns:xlink="http://www.w3.org/1999/xlink">
    <!-- Generator: Sketch 57.1 (83088) - https://sketch.com -->
    <title>042-B40px</title>
    <desc>Created with Sketch.</desc>
    <defs>
        <path d="M28.9381641,17.5043271 C28.9286602,17.5571887 28.9220039,17.6105319 28.9120313,17.6633935 L28.8607148,17.3604965 C28.8887461,17.407649 28.9120313,17.4567046 28.9381641,17.5043271 C29.0930391,16.6594691 29.1742852,15.7946178 29.1742852,14.9302245 C29.1742852,13.0133564 28.7999062,11.1536259 28.0601836,9.40295469 C27.346582,7.71180571 26.3255977,6.19306784 25.023832,4.88911261 C23.7239648,3.58515738 22.2079336,2.5617094 20.5218164,1.84639769 C18.7758281,1.10584162 16.9205742,0.730559352 15.0083086,0.730559352 C14.1070547,0.730559352 13.2043711,0.815325898 12.3259219,0.984400857 C12.3240117,0.984870738 12.3216445,0.984870738 12.3192656,0.985352366 C12.3686719,1.01153649 12.4185586,1.03487783 12.4670156,1.06202521 L12.1691367,1.01535427 C12.2190234,1.00582743 12.2693789,0.995349086 12.3192656,0.985352366 C11.1139441,0.342895716 9.75849258,0 8.38641211,0 C6.14632969,0 4.04022539,0.874378202 2.45625117,2.46265847 C0.872753203,4.05044537 0,6.16163279 0,8.40712398 C0,9.83632601 0.366774844,11.2412469 1.05519047,12.4828137 C1.0642173,12.4313852 1.07039355,12.3794751 1.08037055,12.3280349 L1.13168109,12.6256928 C1.10507566,12.5790219 1.0817959,12.5304362 1.05519047,12.4828137 C0.915511875,13.2871914 0.841871836,14.1091896 0.841871836,14.9302245 C0.841871836,16.847586 1.21624805,18.7068408 1.95597422,20.4579878 C2.66861953,22.1496043 3.69007852,23.6673918 4.99041914,24.9713459 C6.29218477,26.2752999 7.80631875,27.3001763 9.49433789,28.0135886 C11.2403203,28.7555754 13.096043,29.131332 15.0083086,29.131332 C15.8406797,29.131332 16.6749492,29.0551331 17.4892734,28.9103551 C17.4417656,28.883685 17.3932969,28.8593968 17.3448398,28.8312991 L17.6474766,28.8846376 C17.5952227,28.8946391 17.5424766,28.9008302 17.4892734,28.9103551 C18.744,29.6218627 20.1645469,30 21.6150117,30 C23.8546172,30 25.9597734,29.1270458 27.54375,27.538298 C29.1281953,25.9514544 30,23.8397912 30,21.5943035 C30,20.1603357 29.6313281,18.7506549 28.9381641,17.5043271 Z M15.0648516,23.6269104 C10.0321477,23.6269104 7.78066406,21.1466349 7.78066406,19.287857 C7.78066406,18.3344178 8.48285742,17.6662481 9.4506293,17.6662481 C11.6042437,17.6662481 11.0464805,20.766117 15.0648516,20.766117 C17.1220195,20.766117 18.2579766,19.6464691 18.2579766,18.5006277 C18.2579766,17.8115001 17.9187539,17.0476026 16.5642539,16.7128124 L12.0878906,15.5926864 C8.48285742,14.6863915 7.82864883,12.7328492 7.82864883,10.8964482 C7.82864883,7.08364519 11.4099293,5.65205851 14.7731367,5.65205851 C17.8712461,5.65205851 21.5233242,7.36844011 21.5233242,9.65583294 C21.5233242,10.6359461 20.6766914,11.2060059 19.7094023,11.2060059 C17.8712461,11.2060059 18.2095195,8.65572631 14.5070859,8.65572631 C12.6698906,8.65572631 11.6522285,9.48962426 11.6522285,10.683087 C11.6522285,11.8741767 13.1031797,12.2546982 14.3631328,12.5423476 L17.676457,13.2795676 C21.3057305,14.0901359 22.2259922,16.2141863 22.2259922,18.2148812 C22.2259922,21.3133205 19.8533555,23.6269104 15.0648516,23.6269104 Z M17.3448398,28.8312991 C17.3932969,28.8671776 17.4417656,28.8981916 17.4892734,28.9322471 C17.5424766,28.9200847 17.5952227,28.9121791 17.6474766,28.8994081 L17.3448398,28.8312991 Z M28.9263998,17.6633935 C28.9391648,17.6105319 28.9476848,17.5571887 28.9598498,17.5043271 C28.9263998,17.4567046 28.8965948,17.407649 28.8607148,17.3604965 L28.9263998,17.6633935 Z M1.08742097,12.3280349 C1.07465042,12.3794751 1.06674482,12.4313852 1.05519047,12.4828137 C1.08924542,12.5304362 1.11904352,12.5790219 1.15309847,12.6256928 L1.08742097,12.3280349 Z M12.4670156,1.08325737 C12.4185586,1.04859237 12.3686719,1.01878737 12.3192656,0.985352366 C12.2693789,0.998117366 12.2190234,1.01149737 12.1691367,1.02366237 L12.4670156,1.08325737 Z" id="path-1"></path>
    </defs>
    <g id="042-B40px" stroke="none" stroke-width="1" fill="none" fill-rule="evenodd">
        <g>
            <rect id="Rectangle" x="0" y="0" width="40" height="40"></rect>
            <g id="Skype_color" transform="translate(5.000000, 5.000000)">
                <mask id="mask-2" fill="white">
                    <use xlink:href="#path-1"></use>
                </mask>
                <g id="path-1"></g>
                <polygon id="Fill-1" fill="#101828" fill-rule="nonzero" mask="url(#mask-2)" points="-0.566037736 30.5660377 30.5660377 30.5660377 30.5660377 -0.566037736 -0.566037736 -0.566037736"></polygon>
            </g>
        </g>
    </g>
</svg>