<?xml version="1.0" encoding="UTF-8"?>
<svg width="32px" height="32px" viewBox="0 0 32 32" version="1.1" xmlns="http://www.w3.org/2000/svg" xmlns:xlink="http://www.w3.org/1999/xlink">
    <!-- Generator: Sketch 57.1 (83088) - https://sketch.com -->
    <title>078-B32px</title>
    <desc>Created with Sketch.</desc>
    <g id="078-B32px" stroke="none" stroke-width="1" fill="none" fill-rule="evenodd">
        <g>
            <path d="M14,20 L14,24 L5,24 L5,11.55 L7.48,9 L14,9 L14,15 L15,15 L15,8.93 C15,8.41 14.6,8 14.1,8 L7.06,8 L4,11.14 L4,24.01 C4,24.56 4.43,25 4.95,25 L14.1,25 C14.59,25 15,24.59 15,24.08 L15,20 L14,20 Z" id="Path" fill="#101828" fill-rule="nonzero"></path>
            <path d="M27.1,8 L20.06,8 L17,11.14 L17,15 L18,15 L18,11.55 L20.48,9 L27,9 L27,24 L18,24 L18,20 L17,20 L17,24.01 C17,24.55 17.43,24.99 17.95,24.99 L27.1,24.99 C27.59,24.99 28,24.58 28,24.07 L28,8.93 C28,8.41 27.6,8 27.1,8 Z" id="Path" fill="#101828" fill-rule="nonzero"></path>
            <path d="M21,15.92 L23.26,17.5 L21,19.08 L21,15.92 L21,15.92 Z M20,14 L20,21 L25,17.5 L20,14 L20,14 Z" id="Shape" fill="#101828" fill-rule="nonzero"></path>
            <rect id="Rectangle" fill="#101828" fill-rule="nonzero" x="7" y="17" width="13.5" height="1"></rect>
            <rect id="Rectangle" x="0" y="0" width="32" height="32"></rect>
        </g>
    </g>
</svg>