<?xml version="1.0" encoding="UTF-8"?>
<svg width="80px" height="80px" viewBox="0 0 80 80" version="1.1" xmlns="http://www.w3.org/2000/svg" xmlns:xlink="http://www.w3.org/1999/xlink">
    <!-- Generator: Sketch 57.1 (83088) - https://sketch.com -->
    <title>129-B80px</title>
    <desc>Created with Sketch.</desc>
    <g id="129-B80px" stroke="none" stroke-width="1" fill="none" fill-rule="evenodd">
        <g>
            <path d="M11.275,69.975 C11.025,69.975 10.775,69.9 10.55,69.75 C10.225,69.525 10.025,69.125 10.025,68.725 L10.025,55.575 C10.025,55.05 10.35,54.6 10.825,54.4 L16.4,52.275 C17.525,51.2 23.075,46.3 29.625,47.225 C31.95,47.55 43.6,49.475 46.85,54.5 C49.025,53.525 54.05,51.5 59.975,50.525 C63.15,50 65.675,50.4 67.5,51.725 C69.525,53.175 69.9,55.15 69.925,55.375 C70.025,55.95 69.7,56.5 69.175,56.725 L45.725,66.5 C44.325,67.1 42.8,67.225 41.3,66.9 L28.95,64.25 C28.175,64.075 27.35,64.15 26.6,64.425 L11.675,69.925 C11.575,69.95 11.425,69.975 11.275,69.975 Z M12.525,56.425 L12.525,66.925 L25.75,62.05 C26.95,61.6 28.25,61.5 29.5,61.775 L41.85,64.425 C42.825,64.625 43.85,64.55 44.775,64.15 L67.125,54.85 C66.5,53.775 64.8,52.225 60.4,52.95 C54.65,53.9 49.65,55.95 47.7,56.825 C47.775,57.55 47.7,58.275 47.45,59 C47.25,59.625 46.575,60 45.95,59.825 L32.25,56.325 L32.875,53.9 L45.225,57.05 C45.175,56.65 45.025,56.25 44.8,55.875 C42.925,52.85 35.65,50.575 29.275,49.65 C23.3,48.775 18.025,54.125 17.975,54.175 C17.85,54.3 17.7,54.4 17.525,54.475 L12.525,56.425 Z" id="Shape" fill="#101828" fill-rule="nonzero"></path>
            <polygon id="Path" fill="#101828" fill-rule="nonzero" points="60.35 30.125 39.975 13.275 19.575 30.125 18 28.2 39.975 10.025 61.95 28.2"></polygon>
            <g id="Group" transform="translate(22.500000, 30.000000)" fill="#101828" fill-rule="nonzero">
                <path d="M4.975,18.075 L4.975,0 L2.475,0 L2.475,18.45 C3.275,18.225 4.1,18.1 4.975,18.075 Z" id="Path"></path>
                <path d="M25.45,24.7 C25.525,24.675 25.625,24.625 25.725,24.6 L25.325,24.6 C25.375,24.625 25.4,24.675 25.45,24.7 Z" id="Path"></path>
                <path d="M32.475,22.5 L32.475,0 L29.975,0 L30,23.175 C30.75,22.95 31.575,22.725 32.475,22.5 Z" id="Path"></path>
            </g>
            <rect id="Rectangle" x="0" y="0" width="80" height="80"></rect>
        </g>
    </g>
</svg>