<?xml version="1.0" encoding="UTF-8"?>
<svg width="80px" height="80px" viewBox="0 0 80 80" version="1.1" xmlns="http://www.w3.org/2000/svg" xmlns:xlink="http://www.w3.org/1999/xlink">
    <!-- Generator: Sketch 57.1 (83088) - https://sketch.com -->
    <title>198-G80px</title>
    <desc>Created with Sketch.</desc>
    <g id="NEW_icons" stroke="none" stroke-width="1" fill="none" fill-rule="evenodd">
        <g id="icons_UD_new-Copy" transform="translate(-777.000000, -25338.000000)">
            <g id="198-G80px" transform="translate(777.000000, 25338.000000)">
                <circle id="Oval-Copy-1260" fill="#E3E8EC" cx="40" cy="40" r="40"></circle>
                <g id="198-B32px-Copy-6" transform="translate(12.000000, 12.000000)">
                    <path d="M34.3175,25.3925 C35.8575,27.6325 36.75,30.345 36.75,33.25 C36.75,40.9675 30.4675,47.25 22.75,47.25 C15.0325,47.25 8.75,40.9675 8.75,33.25 C8.75,25.5325 15.0325,19.25 22.75,19.25 C25.655,19.25 28.3675,20.1425 30.6075,21.6825 L31.8675,20.4225 C29.295,18.585 26.145,17.5 22.75,17.5 C14.0525,17.5 7,24.5525 7,33.25 C7,41.9475 14.0525,49 22.75,49 C31.4475,49 38.5,41.9475 38.5,33.25 C38.5,29.855 37.415,26.705 35.5775,24.1325 L34.3175,25.3925 Z" id="Path" fill="#101828" fill-rule="nonzero"></path>
                    <path d="M31.4475,28.315 C32.235,29.715 32.69,31.3425 32.69,33.0575 C32.69,38.43 28.315,42.805 22.9425,42.805 C17.57,42.805 13.195,38.43 13.195,33.0575 C13.195,27.685 17.57,23.31 22.9425,23.31 C24.6575,23.31 26.285,23.765 27.685,24.5525 L28.98,23.2575 C27.23,22.1725 25.165,21.5425 22.9425,21.5425 C16.59,21.5425 11.4275,26.705 11.4275,33.0575 C11.4275,39.41 16.59,44.5725 22.9425,44.5725 C29.295,44.5725 34.4575,39.41 34.4575,33.0575 C34.4575,30.835 33.8275,28.77 32.7425,27.02 L31.4475,28.315 Z" id="Path" fill="#101828" fill-rule="nonzero"></path>
                    <path d="M27.7725,31.815 C27.9125,32.27 28,32.7425 28,33.25 C28,36.1375 25.6375,38.5 22.75,38.5 C19.8625,38.5 17.5,36.1375 17.5,33.25 C17.5,30.3625 19.8625,28 22.75,28 C23.1875,28 23.59,28.07 23.9925,28.1575 L25.3925,26.7575 C24.57,26.4425 23.6775,26.25 22.75,26.25 C18.8825,26.25 15.75,29.3825 15.75,33.25 C15.75,37.1175 18.8825,40.25 22.75,40.25 C26.6175,40.25 29.75,37.1175 29.75,33.25 C29.75,32.2525 29.5225,31.29 29.155,30.4325 L27.7725,31.815 Z" id="Path" fill="#101828" fill-rule="nonzero"></path>
                    <path d="M42.4375,13.5625 L42.4375,12.32 L22.3125,32.4275 C21.9625,32.7775 21.9625,33.3375 22.3125,33.6875 C22.4875,33.8625 22.715,33.95 22.9425,33.95 C23.17,33.95 23.3975,33.8625 23.5725,33.6875 L43.68,13.5625 L42.4375,13.5625 Z" id="Path" fill="#101828" fill-rule="nonzero"></path>
                    <polygon id="Path" fill="#101828" fill-rule="nonzero" points="41.9125 20.65 49 13.5625 46.4975 13.5625 39.41 20.65"></polygon>
                    <polygon id="Path" fill="#101828" fill-rule="nonzero" points="35.35 14.0875 35.35 16.59 42.4375 9.5025 42.4375 7"></polygon>
                    <rect id="Rectangle" x="0" y="0" width="56" height="56"></rect>
                </g>
            </g>
        </g>
    </g>
</svg>