<?xml version="1.0" encoding="UTF-8"?>
<svg width="42px" height="42px" viewBox="0 0 42 42" version="1.1" xmlns="http://www.w3.org/2000/svg" xmlns:xlink="http://www.w3.org/1999/xlink">
    <!-- Generator: Sketch 57.1 (83088) - https://sketch.com -->
    <title>172-G40px</title>
    <desc>Created with Sketch.</desc>
    <g id="NEW_icons" stroke="none" stroke-width="1" fill="none" fill-rule="evenodd">
        <g id="icons_UD_new-Copy" transform="translate(-244.000000, -22109.000000)">
            <g id="172-G40px" transform="translate(245.000000, 22110.000000)">
                <circle id="Oval-Copy-975" stroke="#E3E8EC" cx="20" cy="20" r="20"></circle>
                <g id="172-B32px-Copy" transform="translate(4.000000, 4.000000)">
                    <g id="Group" transform="translate(6.000000, 7.000000)" fill="#101828" fill-rule="nonzero">
                        <path d="M4.17,2.25 C4.5,3.02 4.84,3.8 5.18,4.58 C6.32,7.21 7.46,9.85 8.6,12.48 C8.64,12.57 8.79,12.67 8.89,12.67 C9.67,12.68 10.46,12.65 11.24,12.66 C11.46,12.66 11.56,12.58 11.65,12.38 C13.07,9.16 14.5,5.94 15.93,2.72 C15.97,2.63 16.02,2.53 16.07,2.41 C16.68,2.99 17.22,3.61 17.65,4.32 C20.01,8.29 19.38,13.51 14.96,16.49 C10.84,19.27 5.48,18.1 2.61,14.03 C1.54,12.51 0.93,10.83 1,8.94 C1.1,6.3 2.13,4.09 4.04,2.31 C4.06,2.29 4.08,2.28 4.11,2.26 C4.12,2.25 4.13,2.25 4.17,2.25 Z" id="Path"></path>
                        <path d="M10.02,6.67 C9.29,4.51 8.59,2.43 7.87,0.31 C9.35,-0.14 10.8,-0.05 12.3,0.3 C11.54,2.41 10.79,4.51 10.02,6.67 Z" id="Path"></path>
                    </g>
                    <rect id="Rectangle" x="0" y="0" width="32" height="32"></rect>
                </g>
            </g>
        </g>
    </g>
</svg>