<?xml version="1.0" encoding="UTF-8"?>
<svg width="56px" height="56px" viewBox="0 0 56 56" version="1.1" xmlns="http://www.w3.org/2000/svg" xmlns:xlink="http://www.w3.org/1999/xlink">
    <!-- Generator: Sketch 57.1 (83088) - https://sketch.com -->
    <title>102-W56px</title>
    <desc>Created with Sketch.</desc>
    <g id="NEW_icons" stroke="none" stroke-width="1" fill="none" fill-rule="evenodd">
        <g id="icons_UD_new-Copy" transform="translate(-532.000000, -13305.000000)">
            <g id="102-W56px" transform="translate(532.000000, 13305.000000)">
                <circle id="Oval-Copy-678" fill="#101828" cx="28" cy="28" r="28"></circle>
                <g id="102-B32px-Copy-7" transform="translate(8.000000, 8.000000)">
                    <path d="M33.75,6.25 L33.75,33.75 L25,33.75 L25,6.25 L33.75,6.25 L33.75,6.25 Z M33.75,5 L25,5 C24.3125,5 23.75,5.5625 23.75,6.25 L23.75,33.75 C23.75,34.4375 24.3125,35 25,35 L33.75,35 C34.4375,35 35,34.4375 35,33.75 L35,6.25 C35,5.5625 34.4375,5 33.75,5 L33.75,5 Z" id="Shape" fill="#FFFFFF" fill-rule="nonzero"></path>
                    <path d="M15,6.25 L15,33.75 L6.25,33.75 L6.25,6.25 L15,6.25 L15,6.25 Z M15,5 L6.25,5 C5.5625,5 5,5.5625 5,6.25 L5,33.75 C5,34.4375 5.5625,35 6.25,35 L15,35 C15.6875,35 16.25,34.4375 16.25,33.75 L16.25,6.25 C16.25,5.5625 15.6875,5 15,5 L15,5 Z" id="Shape" fill="#FFFFFF" fill-rule="nonzero"></path>
                    <rect id="Rectangle" x="0" y="0" width="40" height="40"></rect>
                </g>
            </g>
        </g>
    </g>
</svg>