<?xml version="1.0" encoding="UTF-8"?>
<svg width="40px" height="40px" viewBox="0 0 40 40" version="1.1" xmlns="http://www.w3.org/2000/svg" xmlns:xlink="http://www.w3.org/1999/xlink">
    <!-- Generator: Sketch 57.1 (83088) - https://sketch.com -->
    <title>207-B40px</title>
    <desc>Created with Sketch.</desc>
    <g id="207-B40px" stroke="none" stroke-width="1" fill="none" fill-rule="evenodd">
        <g>
            <path d="M19.975,27.4375 C14.5875,27.4375 10.55,28.2625 8.75,28.7125 L8.75,30 C10.3,29.6 14.425,28.6875 19.975,28.6875 C25.575,28.6875 29.7375,29.6125 31.25,30.0125 L31.25,28.725 C29.4625,28.2625 25.4125,27.4375 19.975,27.4375 Z" id="Path" fill="#101828" fill-rule="nonzero"></path>
            <polygon id="Path" fill="#101828" fill-rule="nonzero" points="11.25 15.025 11.25 16.825 10 16.825 10 15.025 8.75 15.025 8.75 20 10 20 10 18.1125 11.25 18.1125 11.25 20 12.5 20 12.5 15.025"></polygon>
            <path d="M14.9,15.025 L13.35,15.025 L13.35,20 L14.9,20 C16.5,20 17.5,19.05 17.5,17.5125 C17.5,15.975 16.5,15.025 14.9,15.025 Z M15.025,18.725 L14.5875,18.725 L14.5875,16.3125 L15.025,16.3125 C15.8125,16.3125 16.25,16.7375 16.25,17.525 C16.25,18.2875 15.8125,18.725 15.025,18.725 Z" id="Shape" fill="#101828" fill-rule="nonzero"></path>
            <path d="M20,20 L25.525,20 L24.6125,21.25 L20,21.25 L20,22.5 L25.3,22.425 L26.1625,21.25 L26.15,21.25 L26.9875,20.1125 L26.9875,20.125 L33.45,11.25 L35,11.25 L26.35,23.0875 C26.1375,23.5 25.7125,23.75 25.25,23.75 L20,23.75 C19.3125,23.75 18.75,23.1875 18.75,22.5 L18.75,21.25 C18.75,20.5625 19.3125,20 20,20 Z" id="Path" fill="#101828" fill-rule="nonzero"></path>
            <path d="M33.7375,15.0625 L33.725,26.25 L6.25,26.225 L6.275,12.5 L31.25,12.5 L31.8875,11.25 L6.275,11.25 C5.575,11.25 5,11.825 5,12.525 L5,26.225 C5,26.925 5.575,27.5 6.275,27.5 L33.725,27.5 C34.425,27.5 35,26.925 35,26.225 L35,13.35 L33.7375,15.0625 Z" id="Path" fill="#101828" fill-rule="nonzero"></path>
            <rect id="Rectangle" x="0" y="0" width="40" height="40"></rect>
        </g>
    </g>
</svg>