<?xml version="1.0" encoding="UTF-8"?>
<svg width="56px" height="56px" viewBox="0 0 56 56" version="1.1" xmlns="http://www.w3.org/2000/svg" xmlns:xlink="http://www.w3.org/1999/xlink">
    <!-- Generator: Sketch 56.3 (81716) - https://sketch.com -->
    <title>046-G56px</title>
    <desc>Created with Sketch.</desc>
    <g id="NEW_icons" stroke="none" stroke-width="1" fill="none" fill-rule="evenodd">
        <g id="icons_UD_new-Copy" transform="translate(-446.000000, -6123.000000)">
            <g id="046-G56px" transform="translate(446.000000, 6123.000000)">
                <circle id="Oval-Copy-356" fill="#E3E8EC" cx="28" cy="28" r="28"></circle>
                <g id="046-B32px-Copy-5" transform="translate(8.000000, 8.000000)">
                    <polygon id="Path" fill="#101828" points="20 12.5 13.8625 13.5375 13.8625 14.55 14.4 14.55 14.4 14.05 20 13.1 25.6 14.05 25.6 14.55 26.1375 14.55 26.1375 13.5375"></polygon>
                    <polygon id="Path" fill="#101828" points="27.05 17.275 30.9125 17.275 29.725 18.6375 28.55 20 26.8125 20 26.8125 17.275"></polygon>
                    <polygon id="Path" fill="#101828" points="25.5875 17.95 25.5625 21.5625 20 26.825 14.4375 21.5625 14.4125 17.95 13.8625 17.95 13.8625 20.3875 13.8625 21.7125 20 27.5 26.1375 21.7125 26.1375 18.525 26.1375 17.95"></polygon>
                    <polygon id="Path" fill="#101828" points="11.5875 14.55 5 14.55 6.2 15.725 7.3875 16.9 11.5625 16.9 11.5875 16.9 13.55 16.9 14.7125 16.9 14.85 16.9 15.05 16.9 15.05 20.95 16.8625 22.725 18.6375 20.9875 17.4375 19.8 17.4375 14.55"></polygon>
                    <polygon id="Path" fill="#101828" points="21.3625 14.9125 21.3625 21.375 21.3625 24.9375 20 26.1375 18.6375 24.9375 18.6375 21.375 18.6375 14.9125 20 13.8625"></polygon>
                    <polygon id="Path" fill="#101828" points="22.5625 14.55 22.5625 19.8 21.3625 20.9875 23.1375 22.725 24.95 20.9375 24.95 16.9 25.25 16.9 25.525 16.9 26.6875 16.9 28.5375 16.9 32.6125 16.9 33.8 15.725 35 14.55"></polygon>
                    <polygon id="Path" fill="#101828" points="9.0875 17.275 13.1875 17.275 13.1875 20 11.45 20 10.275 18.6375"></polygon>
                    <rect id="Rectangle" x="0" y="0" width="40" height="40"></rect>
                </g>
            </g>
        </g>
    </g>
</svg>