<?xml version="1.0" encoding="UTF-8"?>
<svg width="56px" height="56px" viewBox="0 0 56 56" version="1.1" xmlns="http://www.w3.org/2000/svg" xmlns:xlink="http://www.w3.org/1999/xlink">
    <!-- Generator: Sketch 59.1 (86144) - https://sketch.com -->
    <title>267-W56px</title>
    <desc>Created with Sketch.</desc>
    <g id="NEW_icons" stroke="none" stroke-width="1" fill="none" fill-rule="evenodd">
        <g id="icons_UD_new-Copy" transform="translate(-1814.000000, -33900.000000)">
            <g id="267-W56px" transform="translate(1814.000000, 33900.000000)">
                <circle id="Oval-Copy-1499" fill="#101828" cx="28" cy="28" r="28"></circle>
                <g id="267-B32px-Copy-4" transform="translate(8.000000, 8.000000)">
                    <rect id="Rectangle" x="0" y="0" width="40" height="40"></rect>
                    <g id="Group" transform="translate(2.500000, 5.000000)" fill="#FFFFFF" fill-rule="nonzero">
                        <path d="M19,5.875 L19,8 L16.875,8 L16.875,5.875 L19,5.875 M20.125,4.875 L16,4.875 L16,9 L20.125,9 L20.125,4.875 L20.125,4.875 Z" id="Shape"></path>
                        <path d="M24.625,5.875 L24.625,8 L22.5,8 L22.5,5.875 L24.625,5.875 M25.75,4.875 L21.625,4.875 L21.625,9 L25.75,9 L25.75,4.875 L25.75,4.875 Z" id="Shape"></path>
                        <path d="M13.375,5.875 L13.375,8 L11.25,8 L11.25,5.875 L13.375,5.875 M14.375,4.875 L10.25,4.875 L10.25,9 L14.375,9 L14.375,4.875 L14.375,4.875 Z" id="Shape"></path>
                        <path d="M7.75,12.875 L7.75,15 L5.625,15 L5.625,12.875 L7.75,12.875 M8.75,11.75 L4.625,11.75 L4.625,15.875 L8.75,15.875 L8.75,11.75 L8.75,11.75 Z" id="Shape"></path>
                        <path d="M13.375,12.875 L13.375,15 L11.25,15 L11.25,12.875 L13.375,12.875 M14.375,11.75 L10.25,11.75 L10.25,15.875 L14.375,15.875 L14.375,11.75 L14.375,11.75 Z" id="Shape"></path>
                        <path d="M19,12.875 L19,15 L16.875,15 L16.875,12.875 L19,12.875 M20.125,11.75 L16,11.75 L16,15.875 L20.125,15.875 L20.125,11.75 L20.125,11.75 Z" id="Shape"></path>
                        <path d="M22.5,16 L22.5,15 L22.5,12.875 L24.625,12.875 L24.625,14.625 C24.875,14.5 25,14.5 25.625,14.5 C25.625,14.5 25.625,14.5 25.75,14.5 L25.75,11.875 L21.625,11.875 L21.625,16" id="Path"></path>
                        <path d="M7.75,5.875 L7.75,8 L5.625,8 L5.625,5.875 L7.75,5.875 M8.75,4.875 L4.625,4.875 L4.625,9 L8.75,9 L8.75,4.875 L8.75,4.875 Z" id="Shape"></path>
                        <g transform="translate(20.000000, 15.000000)">
                            <polygon id="Path" points="8.5 7.5 8.5 4.375 7.25 4.375 7.25 8.125 7.25 8.125 9.75 10.625 10.625 9.75"></polygon>
                            <path d="M7.875,1.875 C11,1.875 13.5,4.375 13.5,7.5 C13.5,10.625 11,13.125 7.875,13.125 C4.75,13.125 2.25,10.625 2.25,7.5 C2.25,4.375 4.75,1.875 7.875,1.875 M7.875,0.625 C4.125,0.625 1,3.75 1,7.5 C1,11.25 4.125,14.375 7.875,14.375 C11.625,14.375 14.75,11.25 14.75,7.5 C14.875,3.625 11.75,0.625 7.875,0.625 L7.875,0.625 Z" id="Shape"></path>
                        </g>
                        <path d="M1.5,19.5 L1.5,2 C1.5,2 1.5,1.875 1.625,1.875 L29.25,1.875 C29.25,1.875 29.375,1.875 29.375,2 L29.375,14.5 L30.625,14.5 L30.625,2 C30.625,1.25 30,0.625 29.25,0.625 L1.5,0.625 C0.75,0.625 0.125,1.25 0.125,2 L0.125,19.5 C0.125,20.25 0.75,20.875 1.5,20.875 L20.375,20.875 C20.375,20.5 20.5,20 20.625,19.625 L1.5,19.5 C1.5,19.5 1.5,19.5 1.5,19.5 Z" id="Path"></path>
                    </g>
                </g>
            </g>
        </g>
    </g>
</svg>