<?xml version="1.0" encoding="UTF-8"?>
<svg width="80px" height="80px" viewBox="0 0 80 80" version="1.1" xmlns="http://www.w3.org/2000/svg" xmlns:xlink="http://www.w3.org/1999/xlink">
    <!-- Generator: Sketch 57.1 (83088) - https://sketch.com -->
    <title>171-B80px</title>
    <desc>Created with Sketch.</desc>
    <g id="171-B80px" stroke="none" stroke-width="1" fill="none" fill-rule="evenodd">
        <g>
            <g id="ViP" transform="translate(7.863637, 23.363637)" fill="#101828">
                <g id="Shape_3_" transform="translate(35.000000, 0.000000)">
                    <path d="M27.025,9.55 C27.025,9.375 27.025,9.175 26.95,9.025 C26.825,7.975 26.525,6.95 26.125,6 C25.025,3.45 22.55,1.75 19.775,1.65 L9.175,1.65 C6.375,1.75 3.9,3.45 2.8,6 C2.4,6.925 2.125,7.9 1.975,8.875 C1.875,9.45 1.825,10.025 1.775,10.625 L1.775,30.1 C4.775,30.1 7.2,27.7 7.2,24.725 L7.2,22.575 C9.45,22.7 11.45,22.7 12.75,22.7 C16.525,22.875 20.25,21.825 23.375,19.725 C25.7,17.975 27.1,15.275 27.125,12.375 C27.125,12.275 27.125,12.175 27.125,12.075 C27.15,11.275 27.125,10.4 27.025,9.55 Z M7.2,17.2 L7.2,11.1 C7.2,8.7 8.2,7.075 9.75,7 L19.25,7 C20.4,7.075 21.25,8.05 21.6,9.55 C21.7,10.375 21.75,11.225 21.725,12.075 C21.775,13.4 21.15,14.675 20.075,15.475 C19.5,15.875 18.875,16.2 18.225,16.4 C14.625,17.375 10.9,17.65 7.2,17.2 Z" id="Shape"></path>
                </g>
                <g id="Group" transform="translate(27.500000, 12.500000)">
                    <path d="M2.35,2.2 L2.35,12.175 C2.35,15.175 4.775,17.6 7.775,17.6 L7.775,3.525 C5.95,3.175 4.125,2.7 2.35,2.125" id="Path"></path>
                </g>
                <g id="Group" transform="translate(27.500000, 0.000000)">
                    <path d="M7.775,1.625 C6.35,1.625 4.95,2.2 3.95,3.2 C2.925,4.225 2.35,5.6 2.35,7.05 L2.35,11.225 C5.35,11.225 7.775,8.8 7.775,5.8 L7.775,1.625 Z" id="Path"></path>
                </g>
                <g id="Group">
                    <path d="M23.275,6.675 L21.525,10.975 L16.1,24.2 C16,24.45 15.775,24.625 15.525,24.65 L15.1,24.65 C14.825,24.625 14.6,24.45 14.5,24.2 L7.175,6.425 C6.45,4.425 4.25,1.875 2.125,1.625 L2.125,8.05 L9.45,26.35 C10.25,28.575 12.35,30.075 14.725,30.075 L15.8,30.075 C18.15,30.075 20.275,28.575 21.075,26.35 L26.325,13.275 L28.425,8 L28.425,1.625 C26.325,1.9 24,4.675 23.275,6.675 Z" id="Path"></path>
                </g>
            </g>
            <rect id="Rectangle" x="0" y="0" width="80" height="80"></rect>
        </g>
    </g>
</svg>