<?xml version="1.0" encoding="UTF-8"?>
<svg width="32px" height="32px" viewBox="0 0 32 32" version="1.1" xmlns="http://www.w3.org/2000/svg" xmlns:xlink="http://www.w3.org/1999/xlink">
    <!-- Generator: Sketch 57.1 (83088) - https://sketch.com -->
    <title>223-B32px</title>
    <desc>Created with Sketch.</desc>
    <g id="223-B32px" stroke="none" stroke-width="1" fill="none" fill-rule="evenodd">
        <g>
            <rect id="Rectangle" fill="#101828" fill-rule="nonzero" x="5" y="18" width="22" height="1"></rect>
            <rect id="Rectangle" fill="#101828" fill-rule="nonzero" x="17" y="22" width="1" height="3"></rect>
            <rect id="Rectangle" fill="#101828" fill-rule="nonzero" x="14" y="22" width="1" height="3"></rect>
            <rect id="Rectangle" fill="#101828" fill-rule="nonzero" x="12.02" y="24" width="7.98" height="1"></rect>
            <path d="M16,20.49 C16.27,20.49 16.5,20.27 16.5,19.99 C16.5,19.71 16.28,19.49 16,19.49 C15.73,19.49 15.5,19.71 15.5,19.99 C15.5,20.27 15.73,20.49 16,20.49" id="Path" fill="#101828" fill-rule="nonzero"></path>
            <path d="M27.01,7 L21.5,7 L22.01,8 L27,8 L27.01,21 L5,21.01 L4.99,8 L11,8 L11,7 L4.99,7 C4.45,7 4,7.45 4,7.99 L4,21 C4,21.56 4.45,22 4.99,22 L27,22 C27.55,22 27.9901635,21.55 27.9901635,21.01 L27.9901635,7.99 C28,7.45 27.55,7 27.01,7 Z" id="Path" fill="#101828" fill-rule="nonzero"></path>
            <path d="M13.21,11 L12.51,12.11 L11.81,11 L13.21,11 L13.21,11 Z M15.01,10 L10.01,10 L12.51,14 L15.01,10 L15.01,10 Z" id="Shape" fill="#101828" fill-rule="nonzero"></path>
            <path d="M19.51,7.89 L20.21,9 L18.82,9 L19.51,7.89 L19.51,7.89 Z M19.51,6 L17.01,10 L22.01,10 L19.51,6 L19.51,6 Z" id="Shape" fill="#101828" fill-rule="nonzero"></path>
            <rect id="Rectangle" fill="#101828" fill-rule="nonzero" x="19.01" y="10" width="1" height="4"></rect>
            <rect id="Rectangle" fill="#101828" fill-rule="nonzero" x="12.01" y="6" width="1" height="4"></rect>
            <polygon id="Path" fill="#101828" fill-rule="nonzero" points="17.01 8 14 8 14 6.99 17.7 6.99"></polygon>
            <rect id="Rectangle" x="0" y="0" width="32" height="32"></rect>
        </g>
    </g>
</svg>