<?xml version="1.0" encoding="UTF-8"?>
<svg width="32px" height="32px" viewBox="0 0 32 32" version="1.1" xmlns="http://www.w3.org/2000/svg" xmlns:xlink="http://www.w3.org/1999/xlink">
    <!-- Generator: Sketch 57.1 (83088) - https://sketch.com -->
    <title>062-B32px</title>
    <desc>Created with Sketch.</desc>
    <g id="062-B32px" stroke="none" stroke-width="1" fill="none" fill-rule="evenodd">
        <g>
            <g id="Group" transform="translate(8.000000, 7.000000)" fill="#101828" fill-rule="nonzero">
                <path d="M4.63,18 C4.35,18 4.06,17.89 3.85,17.68 C1.93,15.76 0.88,13.18 0.88,10.42 C0.88,4.67 5.53,0 11.26,0 C11.87,0 12.36,0.5 12.36,1.11 C12.36,1.72 11.87,2.22 11.26,2.22 C6.75,2.22 3.09,5.9 3.09,10.42 C3.09,12.59 3.92,14.61 5.42,16.12 C5.85,16.55 5.85,17.25 5.42,17.69 C5.2,17.89 4.91,18 4.63,18 Z" id="Path"></path>
                <path d="M7.89,14.34 C7.58,14.34 7.27,14.21 7.05,13.95 C6.19,12.94 5.73,11.7 5.73,10.35 C5.73,7.24 8.26,4.7 11.36,4.7 C11.97,4.7 12.46,5.2 12.46,5.81 C12.46,6.42 11.97,6.92 11.36,6.92 C9.47,6.92 7.94,8.46 7.94,10.35 C7.94,11.16 8.21,11.91 8.72,12.51 C9.12,12.97 9.06,13.67 8.6,14.07 C8.4,14.26 8.14,14.34 7.89,14.34 Z" id="Path"></path>
                <path d="M14.02,14.62 C13.41,14.62 12.92,14.12 12.92,13.51 L12.92,11.68 L11.15,11.68 C10.54,11.68 10.05,11.18 10.05,10.57 C10.05,9.96 10.54,9.46 11.15,9.46 L14.02,9.46 C14.63,9.46 15.12,9.96 15.12,10.57 L15.12,13.51 C15.12,14.13 14.63,14.62 14.02,14.62 Z" id="Path"></path>
            </g>
            <rect id="Rectangle" x="0" y="0" width="32" height="32"></rect>
        </g>
    </g>
</svg>