<?xml version="1.0" encoding="UTF-8"?>
<svg width="80px" height="80px" viewBox="0 0 80 80" version="1.1" xmlns="http://www.w3.org/2000/svg" xmlns:xlink="http://www.w3.org/1999/xlink">
    <!-- Generator: Sketch 57.1 (83088) - https://sketch.com -->
    <title>070-W80px</title>
    <desc>Created with Sketch.</desc>
    <g id="NEW_icons" stroke="none" stroke-width="1" fill="none" fill-rule="evenodd">
        <g id="icons_UD_new-Copy" transform="translate(-869.000000, -9261.000000)">
            <g id="070-W80px" transform="translate(869.000000, 9261.000000)">
                <circle id="Oval-Copy-464" fill="#101828" cx="40" cy="40" r="40"></circle>
                <g id="070-B32px-Copy-8" transform="translate(12.000000, 12.000000)">
                    <path d="M28,39.375 C28,38.885 28.035,38.395 28.105,37.9225 C22.4525,34.9825 18.06,30.52 18.0075,30.45 C17.92,30.3625 9.7475,21.805 8.75,13.3875 C8.75,13.335 8.75,13.2475 8.8025,13.195 L13.3875,8.7675 C13.4225,8.7325 13.4575,8.715 13.51,8.715 C13.545,8.715 13.58,8.75 13.58,8.75 L20.4925,15.89 C20.545,15.9425 20.5275,16.03 20.475,16.1 L17.4125,19.0575 L16.5725,19.88 L17.01,20.965 C17.08,21.14 18.7075,25.1125 21.035,27.51 C23.3625,29.9075 27.2825,31.675 27.4575,31.745 L28.5425,32.2175 L29.3825,31.395 L32.445,28.4375 C32.48,28.4025 32.515,28.385 32.5675,28.385 C32.62,28.385 32.655,28.42 32.655,28.42 L33.705,29.505 C34.23,29.19 34.79,28.9275 35.3675,28.7175 L33.8975,27.195 C33.53,26.81 33.04,26.6175 32.55,26.6175 C32.0775,26.6175 31.5875,26.7925 31.22,27.16 L28.1575,30.1175 C28.1575,30.1175 24.4125,28.455 22.295,26.2675 C20.1775,24.08 18.6375,20.2825 18.6375,20.2825 L21.7,17.325 C22.4525,16.59 22.4875,15.4 21.7525,14.6475 L14.84,7.5425 C14.4725,7.1575 13.9825,6.965 13.4925,6.965 C13.02,6.965 12.53,7.14 12.1625,7.5075 L7.5775,11.935 C7.14,12.3725 6.9475,12.985 7.0175,13.5975 C8.1025,22.7325 16.7475,31.6575 16.7475,31.6575 C16.7475,31.6575 21.665,36.7325 28.0175,39.83 C28.0175,39.69 28,39.5325 28,39.375 Z" id="Path" fill="#FFFFFF" fill-rule="nonzero"></path>
                    <path d="M39.375,31.5 C43.715,31.5 47.25,35.035 47.25,39.375 C47.25,43.715 43.715,47.25 39.375,47.25 C35.035,47.25 31.5,43.715 31.5,39.375 C31.5,35.035 35.035,31.5 39.375,31.5 L39.375,31.5 Z M39.375,29.75 C34.055,29.75 29.75,34.055 29.75,39.375 C29.75,44.695 34.055,49 39.375,49 C44.695,49 49,44.695 49,39.375 C49,34.055 44.695,29.75 39.375,29.75 L39.375,29.75 Z" id="Shape" fill="#FFFFFF" fill-rule="nonzero"></path>
                    <polygon id="Path" fill="#FFFFFF" fill-rule="nonzero" points="38.57 43.015 35.2275 39.375 36.5225 38.2025 38.57 40.425 42.2275 36.435 43.5225 37.625"></polygon>
                    <rect id="Rectangle" x="0" y="0" width="56" height="56"></rect>
                </g>
            </g>
        </g>
    </g>
</svg>