<?xml version="1.0" encoding="UTF-8"?>
<svg width="42px" height="42px" viewBox="0 0 42 42" version="1.1" xmlns="http://www.w3.org/2000/svg" xmlns:xlink="http://www.w3.org/1999/xlink">
    <!-- Generator: Sketch 56.3 (81716) - https://sketch.com -->
    <title>037-G40px</title>
    <desc>Created with Sketch.</desc>
    <g id="NEW_icons" stroke="none" stroke-width="1" fill="none" fill-rule="evenodd">
        <g id="icons_UD_new-Copy" transform="translate(-1526.000000, -4882.000000)">
            <g id="037-G40px" transform="translate(1527.000000, 4883.000000)">
                <circle id="Oval-Copy-315" stroke="#E3E8EC" cx="20" cy="20" r="20"></circle>
                <g id="037-B32px-Copy-4" transform="translate(4.000000, 4.000000)">
                    <path d="M9.92,15.93 C10.86,15.98 11.39,15.8 11.42,14.85 C11.46,13.73 10.97,13.53 9.93,13.65 L9.92,15.93 Z" id="Path" fill="#101828" fill-rule="nonzero"></path>
                    <path d="M9.93,13.64 L9.92,15.92 C10.86,15.97 11.39,15.79 11.42,14.84 C11.46,13.73 10.98,13.53 9.93,13.64 Z" id="Path" fill="#101828"></path>
                    <path d="M4,7 L4,25 L17,27 L17,5 L4,7 Z M9.91,17.29 L9.87,19.87 L8.64,19.81 L8.65,12.35 C10.54,12.26 12.84,11.69 12.84,14.51 C12.85,17.12 11.42,17.15 9.91,17.29 Z" id="Shape" fill="#101828"></path>
                    <rect id="Rectangle" fill="#101828" x="16" y="13" width="6" height="3"></rect>
                    <polygon id="Path" fill="#101828" fill-rule="nonzero" points="22 21 16 21 16 22 22 22"></polygon>
                    <polygon id="Path" fill="#101828" fill-rule="nonzero" points="22 19 16 19 16 20 22 20"></polygon>
                    <polygon id="Path" fill="#101828" fill-rule="nonzero" points="22 17 16 17 16 18 22 18"></polygon>
                    <path d="M27,7 L21,7 C20.45,7 20,7.45 20,8 L20,8.51 L20,10 L16,10 L16,25 L24,25 C24.55,25 25,24.55 25,24 L25,20 L27,20 C27.55,20 28,19.55 28,19 L28,8 C28,7.45 27.55,7 27,7 Z M24,19 L24,20 L24,24 L17,24 L17,11 L20,11 L21,11 L24,11 L24,19 Z M27,19 L25,19 L25,11 C25,10.86 24.97,10.74 24.92,10.63 C24.92,10.62 24.91,10.61 24.91,10.6 C24.71,10.15 24.19,9.93 23.76,9.66 L21.27,8 L27,8 L27,19 Z" id="Shape" fill="#101828"></path>
                    <rect id="Rectangle" x="0" y="0" width="32" height="32"></rect>
                </g>
            </g>
        </g>
    </g>
</svg>