<?xml version="1.0" encoding="UTF-8"?>
<svg width="80px" height="80px" viewBox="0 0 80 80" version="1.1" xmlns="http://www.w3.org/2000/svg" xmlns:xlink="http://www.w3.org/1999/xlink">
    <!-- Generator: Sketch 56.3 (81716) - https://sketch.com -->
    <title>022-G80px</title>
    <desc>Created with Sketch.</desc>
    <g id="NEW_icons" stroke="none" stroke-width="1" fill="none" fill-rule="evenodd">
        <g id="icons_UD_new-Copy" transform="translate(-768.000000, -3086.000000)">
            <g id="022-G80px" transform="translate(768.000000, 3086.000000)">
                <circle id="Oval-Copy-210" fill="#E3E8EC" cx="40" cy="40" r="40"></circle>
                <g id="022-B32px-Copy-4" transform="translate(12.000000, 12.000000)">
                    <g id="Group" transform="translate(29.750000, 38.500000)" fill="#101828" fill-rule="nonzero">
                        <path d="M9.73,0 C7.805,0 6.23,1.575 6.23,3.5 L6.23,5.25 C6.23,7.175 7.805,8.75 9.73,8.75 C11.655,8.75 13.23,7.175 13.23,5.25 L13.23,3.5 C13.23,1.575 11.655,0 9.73,0 Z M11.48,5.25 C11.48,6.2125 10.6925,7 9.73,7 C8.7675,7 7.98,6.2125 7.98,5.25 L7.98,3.5 C7.98,2.5375 8.7675,1.75 9.73,1.75 C10.6925,1.75 11.48,2.5375 11.48,3.5 L11.48,5.25 Z" id="Shape"></path>
                        <polygon id="Path" points="17.5175 3.5 17.5175 1.75 15.7675 1.75 15.7675 3.5 14.0175 3.5 14.0175 5.25 15.7675 5.25 15.7675 7 17.5175 7 17.5175 5.25 19.2675 5.25 19.2675 3.5"></polygon>
                        <path d="M2.625,3.5 C2.31,3.5 2.03,3.57 1.75,3.6575 L1.75,2.7825 C1.75,2.6075 1.8025,1.7325 2.66,1.7325 C3.045,1.7325 3.185,1.8725 3.2375,1.9075 C3.4475,2.1175 3.5,2.5375 3.5,2.66 L5.25,2.695 C5.25,2.5725 5.25,1.47 4.4975,0.6825 C4.165,0.385 3.5875,0 2.66,0 C0.735,0 0.0175,1.6625 0,2.7825 L0,6.1425 L0,6.1425 C0.0175,7.5775 1.19,8.75 2.625,8.75 C4.0775,8.75 5.25,7.5775 5.25,6.125 C5.25,4.6725 4.0775,3.5 2.625,3.5 Z M2.625,7 C2.135,7 1.75,6.615 1.75,6.125 C1.75,5.635 2.135,5.25 2.625,5.25 C3.115,5.25 3.5,5.635 3.5,6.125 C3.5,6.615 3.115,7 2.625,7 Z" id="Shape"></path>
                    </g>
                    <path d="M28,44.66 L28,43.4875 C27.4225,43.575 26.845,43.6625 26.25,43.6975 L26.25,35.735 L39.55,35.735 C39.3225,36.1025 39.06,36.47 38.7975,36.82 C39.025,36.785 39.235,36.75 39.48,36.75 C39.97,36.75 40.4425,36.8375 40.88,36.96 C42.6825,34.1075 43.75,30.7475 43.75,27.125 C43.75,16.975 35.525,8.75 25.375,8.75 C25.375,8.75 25.3575,8.75 25.3575,8.75 C25.3575,8.75 25.3575,8.75 25.34,8.75 C25.3225,8.75 25.3225,8.75 25.305,8.75 C15.19,8.785 7,16.9925 7,27.125 C7,37.2575 15.19,45.465 25.305,45.5 C25.3225,45.5 25.3225,45.5 25.34,45.5 L25.34,45.5 C25.3575,45.5 25.3575,45.5 25.375,45.5 C26.285,45.5 27.195,45.4125 28.07,45.2725 C28.035,45.08 28,44.87 28,44.66 Z M40.495,33.985 L35.2275,33.985 C35.665,32.1125 35.91,30.1 35.98,28 L41.9475,28 C41.8425,30.1175 41.335,32.1475 40.495,33.985 Z M41.9475,26.25 L35.98,26.25 C35.9275,24.15 35.665,22.12 35.2275,20.265 L40.495,20.265 C41.335,22.1025 41.8425,24.1325 41.9475,26.25 Z M39.5675,18.515 L34.7725,18.515 C33.88,15.61 32.5325,13.1775 30.905,11.4625 C34.545,12.7575 37.59,15.26 39.5675,18.515 Z M26.25,10.5875 C29.0325,11.13 31.4825,14.21 32.9175,18.515 L26.25,18.515 L26.25,10.5875 Z M26.25,20.265 L33.425,20.265 C33.8975,22.12 34.1775,24.1325 34.23,26.25 L26.25,26.25 L26.25,20.265 Z M26.25,28 L34.23,28 C34.16,30.1175 33.88,32.13 33.425,33.985 L26.25,33.985 L26.25,28 Z M19.7575,11.4975 C18.1475,13.2125 16.8175,15.6275 15.925,18.515 L11.1825,18.515 C13.1425,15.295 16.1525,12.7925 19.7575,11.4975 Z M10.255,20.265 L15.47,20.265 C15.015,22.12 14.77,24.15 14.7,26.25 L8.8025,26.25 C8.9075,24.1325 9.415,22.1025 10.255,20.265 Z M8.8025,28 L14.7,28 C14.7525,30.1175 15.0325,32.1125 15.47,33.985 L10.3075,33.985 C9.4675,32.1475 8.9075,30.135 8.8025,28 Z M11.235,35.735 L15.96,35.735 C16.8525,38.605 18.1475,41.0375 19.7575,42.7525 C16.17,41.4575 13.1775,38.9375 11.235,35.735 Z M24.5,43.6625 C21.6825,43.1375 19.2325,40.0575 17.78,35.735 L24.5,35.735 L24.5,43.6625 Z M24.5,33.985 L17.2725,33.985 C16.8,32.13 16.52,30.1175 16.45,28 L24.5,28 L24.5,33.985 Z M24.5,26.25 L16.45,26.25 C16.52,24.1325 16.8,22.12 17.255,20.265 L24.5,20.265 L24.5,26.25 Z M24.5,18.515 L17.78,18.515 C19.2325,14.1925 21.7,11.1125 24.5,10.5875 L24.5,18.515 Z" id="Shape" fill="#101828" fill-rule="nonzero"></path>
                    <rect id="Rectangle" x="0" y="0" width="56" height="56"></rect>
                </g>
            </g>
        </g>
    </g>
</svg>