<?xml version="1.0" encoding="UTF-8"?>
<svg width="56px" height="56px" viewBox="0 0 56 56" version="1.1" xmlns="http://www.w3.org/2000/svg" xmlns:xlink="http://www.w3.org/1999/xlink">
    <!-- Generator: Sketch 57.1 (83088) - https://sketch.com -->
    <title>129-W56px</title>
    <desc>Created with Sketch.</desc>
    <g id="NEW_icons" stroke="none" stroke-width="1" fill="none" fill-rule="evenodd">
        <g id="icons_UD_new-Copy" transform="translate(-1814.000000, -16566.000000)">
            <g id="129-W56px" transform="translate(1814.000000, 16566.000000)">
                <circle id="Oval-Copy-1111" fill="#101828" cx="28" cy="28" r="28"></circle>
                <g id="129-B32px-Copy-3" transform="translate(8.000000, 9.000000)">
                    <path d="M5.6375,34.9875 C5.5125,34.9875 5.3875,34.95 5.275,34.875 C5.1125,34.7625 5.0125,34.5625 5.0125,34.3625 L5.0125,27.7875 C5.0125,27.525 5.175,27.3 5.4125,27.2 L8.2,26.1375 C8.7625,25.6 11.5375,23.15 14.8125,23.6125 C15.975,23.775 21.8,24.7375 23.425,27.25 C24.5125,26.7625 27.025,25.75 29.9875,25.2625 C31.575,25 32.8375,25.2 33.75,25.8625 C34.7625,26.5875 34.95,27.575 34.9625,27.6875 C35.0125,27.975 34.85,28.25 34.5875,28.3625 L22.8625,33.25 C22.1625,33.55 21.4,33.6125 20.65,33.45 L14.475,32.125 C14.0875,32.0375 13.675,32.075 13.3,32.2125 L5.8375,34.9625 C5.7875,34.975 5.7125,34.9875 5.6375,34.9875 Z M6.2625,28.2125 L6.2625,33.4625 L12.875,31.025 C13.475,30.8 14.125,30.75 14.75,30.8875 L20.925,32.2125 C21.4125,32.3125 21.925,32.275 22.3875,32.075 L33.5625,27.425 C33.25,26.8875 32.4,26.1125 30.2,26.475 C27.325,26.95 24.825,27.975 23.85,28.4125 C23.8875,28.775 23.85,29.1375 23.725,29.5 C23.625,29.8125 23.2875,30 22.975,29.9125 L16.125,28.1625 L16.4375,26.95 L22.6125,28.525 C22.5875,28.325 22.5125,28.125 22.4,27.9375 C21.4625,26.425 17.825,25.2875 14.6375,24.825 C11.65,24.3875 9.0125,27.0625 8.9875,27.0875 C8.925,27.15 8.85,27.2 8.7625,27.2375 L6.2625,28.2125 Z" id="Shape" fill="#FFFFFF" fill-rule="nonzero"></path>
                    <polygon id="Path" fill="#FFFFFF" fill-rule="nonzero" points="30.175 15.0625 19.9875 6.6375 9.7875 15.0625 9 14.1 19.9875 5.0125 30.975 14.1"></polygon>
                    <g id="Group" transform="translate(11.250000, 15.000000)" fill="#FFFFFF" fill-rule="nonzero">
                        <path d="M2.4875,9.0375 L2.4875,0 L1.2375,0 L1.2375,9.225 C1.6375,9.1125 2.05,9.05 2.4875,9.0375 Z" id="Path"></path>
                        <path d="M12.725,12.35 C12.7625,12.3375 12.8125,12.3125 12.8625,12.3 L12.6625,12.3 C12.6875,12.3125 12.7,12.3375 12.725,12.35 Z" id="Path"></path>
                        <path d="M16.2375,11.25 L16.2375,0 L14.9875,0 L15,11.5875 C15.375,11.475 15.7875,11.3625 16.2375,11.25 Z" id="Path"></path>
                    </g>
                    <rect id="Rectangle" x="0" y="0" width="40" height="40"></rect>
                </g>
            </g>
        </g>
    </g>
</svg>