<?xml version="1.0" encoding="UTF-8"?>
<svg width="40px" height="40px" viewBox="0 0 40 40" version="1.1" xmlns="http://www.w3.org/2000/svg" xmlns:xlink="http://www.w3.org/1999/xlink">
    <!-- Generator: Sketch 57.1 (83088) - https://sketch.com -->
    <title>004-B40px</title>
    <desc>Created with Sketch.</desc>
    <g id="004-B40px" stroke="none" stroke-width="1" fill="none" fill-rule="evenodd">
        <g>
            <path d="M33.9125,14.9625 L27.625,7.45 C26.625,6.25 24.95,5.875 23.5375,6.5375 L13.1625,11.425 L11.0875,12.3625 C9.7625,12.9625 8.4375,13.5625 7.1125,14.1375 C5.75,14.725 5.05,15.65 5.025,16.8625 C4.9875,19.8875 5,22.9 5.025,25.9 C5.025,26.925 5.6,27.75 6.5625,28.1375 C7.675,28.575 8.8125,28.9875 9.9125,29.3875 C10.5375,29.6125 11.15,29.8375 11.775,30.0625 L12.3,30.2625 C14.85,31.2125 17.4125,32.1625 19.9625,33.125 C20.4625,33.3125 20.9125,33.4625 21.3375,33.5625 C21.775,33.675 22.2375,33.7375 22.675,33.7375 C22.675,33.7375 22.7,33.7375 22.7125,33.7375 C22.7375,33.7375 22.75,33.7375 22.775,33.7375 C22.775,33.7375 22.7875,33.7375 22.7875,33.7375 C22.8,33.7375 22.8125,33.7375 22.8125,33.7375 L22.8125,33.7375 L22.8125,33.7375 L22.8125,33.7375 L22.9125,33.7375 C22.975,33.7375 23.025,33.725 23.0875,33.7125 C23.1,33.7125 23.1,33.7125 23.1125,33.7125 C23.7,33.675 24.2625,33.5625 24.8,33.325 C26.1875,32.7125 27.575,32.0625 28.925,31.4375 L29.025,31.3875 C30.0625,30.9125 31.0875,30.425 32.1375,29.95 C32.3625,29.85 32.5625,29.7125 32.7375,29.55 L32.95,29.45 C34.2,28.875 35,27.6125 35,26.225 L35,17.975 C35,16.875 34.6125,15.8 33.9125,14.9625 Z M17.95,18.2125 L17.95,16.6 L21.6125,20.975 C22.0875,21.5375 22.3875,22.2375 22.4875,22.9625 L19.15,21.75 C18.3125,21.45 17.9125,20.875 17.95,20.0375 C17.975,19.6125 17.9625,19.175 17.9625,18.7625 C17.95,18.5875 17.95,18.4 17.95,18.2125 Z M20.3875,32.025 C17.8375,31.05 15.275,30.1 12.725,29.15 L12.2,28.95 C11.575,28.7125 10.95,28.4875 10.3,28.25 C9.2125,27.8625 8.1,27.45 7.0125,27.025 C6.5125,26.825 6.225,26.425 6.225,25.8875 C6.2,23.125 6.1875,20.0125 6.225,16.875 C6.225,16.4125 6.375,15.7375 7.6,15.2125 C8.975,14.6125 10.3375,14 11.7,13.375 L13.6125,12.5125 C14.2875,12.5875 14.9,12.9125 15.35,13.45 L16.7875,15.1625 L16.7875,18.775 C16.7875,19.1625 16.8,19.575 16.775,19.975 C16.7,21.325 17.425,22.375 18.75,22.85 C19.9125,23.275 21.0875,23.7 22.25,24.125 L22.5,24.2375 L22.5125,31.4625 C22.5125,31.8875 22.3,32.2625 21.9375,32.4875 C21.475,32.4 20.975,32.25 20.3875,32.025 Z" id="Shape" fill="#101828" fill-rule="nonzero"></path>
            <rect id="Rectangle" x="0" y="0" width="40" height="40"></rect>
        </g>
    </g>
</svg>