<?xml version="1.0" encoding="UTF-8"?>
<svg width="42px" height="42px" viewBox="0 0 42 42" version="1.1" xmlns="http://www.w3.org/2000/svg" xmlns:xlink="http://www.w3.org/1999/xlink">
    <!-- Generator: Sketch 57.1 (83088) - https://sketch.com -->
    <title>055-G40px</title>
    <desc>Created with Sketch.</desc>
    <g id="NEW_icons" stroke="none" stroke-width="1" fill="none" fill-rule="evenodd">
        <g id="icons_UD_new-Copy" transform="translate(-1526.000000, -7294.000000)">
            <g id="055-G40px" transform="translate(1527.000000, 7295.000000)">
                <circle id="Oval-Copy-409" stroke="#E3E8EC" cx="20" cy="20" r="20"></circle>
                <g id="055-B32px-Copy-9" transform="translate(4.000000, 4.000000)">
                    <path d="M15.74,10.31 L19.48,12.4 C19.57,12.15 19.62,11.88 19.62,11.61 C19.62,9.97 17.89,8.65 15.75,8.65 C13.61,8.65 11.88,9.98 11.88,11.61 C11.88,11.87 11.93,12.13 12.01,12.38 L15.74,10.31 L15.74,10.31 Z" id="Path" fill="#101828" fill-rule="nonzero"></path>
                    <polygon id="Path" fill="#101828" fill-rule="nonzero" points="22.42 16.54 25.42 18.35 19.79 25.17"></polygon>
                    <polygon id="Path" fill="#101828" fill-rule="nonzero" points="22.56 14.99 22.22 13.51 28 15.2 24.42 17.11 24.91 15.56"></polygon>
                    <polygon id="Path" fill="#101828" fill-rule="nonzero" points="21.77 12.57 21.01 11.51 26.11 9.86 24.84 13.92 24.31 12.05"></polygon>
                    <polygon id="Path" fill="#101828" fill-rule="nonzero" points="20.4 10.35 19.32 9.22 20.74 7.78 19.18 6.83 23.31 6.83"></polygon>
                    <polygon id="Path" fill="#101828" fill-rule="nonzero" points="9.43 16.54 6.43 18.35 12.06 25.17"></polygon>
                    <polygon id="Path" fill="#101828" fill-rule="nonzero" points="9.44 14.99 9.78 13.51 4 15.2 7.58 17.11 7.09 15.56"></polygon>
                    <polygon id="Path" fill="#101828" fill-rule="nonzero" points="9.56 12.57 10.32 11.51 5.21 9.86 6.48 13.92 7.01 12.05"></polygon>
                    <polygon id="Path" fill="#101828" fill-rule="nonzero" points="11.16 10.35 12.24 9.22 10.82 7.78 12.38 6.83 8.25 6.83"></polygon>
                    <path d="M21.02,14.74 L18.88,13.51 L18.1,15.88 L16.3,15.88 L15.61,13.83 L15.59,13.83 L14.91,15.88 L13.09,15.88 L12.31,13.51 L10.17,14.74 C10.17,14.74 9.41,17.45 12.31,19.68 C13.36,20.49 14.14,21 14.84,21.23 L14.67,20.71 L16.53,20.71 L16.35,21.24 C17.05,21.02 17.83,20.51 18.88,19.68 C21.76,17.43 21.02,14.74 21.02,14.74 Z M16.73,20.06 L14.45,20.06 L14.2,19.31 L16.98,19.31 L16.73,20.06 Z M17.19,18.67 L14,18.67 L13.75,17.92 L17.44,17.92 L17.19,18.67 Z M17.65,17.27 L13.54,17.27 L13.29,16.52 L17.89,16.52 L17.65,17.27 Z" id="Shape" fill="#101828" fill-rule="nonzero"></path>
                    <polygon id="Path" fill="#101828" fill-rule="nonzero" points="14.25 14.76 14.27 14.76 14.95 12.79 16.51 12.79 17.22 14.76 17.25 14.76 17.7 12.8 15.7 11.68 13.72 12.8"></polygon>
                    <rect id="Rectangle" x="0" y="0" width="32" height="32"></rect>
                </g>
            </g>
        </g>
    </g>
</svg>