<?xml version="1.0" encoding="UTF-8"?>
<svg width="32px" height="32px" viewBox="0 0 32 32" version="1.1" xmlns="http://www.w3.org/2000/svg" xmlns:xlink="http://www.w3.org/1999/xlink">
    <!-- Generator: Sketch 57.1 (83088) - https://sketch.com -->
    <title>018-B32px</title>
    <desc>Created with Sketch.</desc>
    <g id="018-B32px" stroke="none" stroke-width="1" fill="none" fill-rule="evenodd">
        <g>
            <g id="Group" transform="translate(12.000000, 21.000000)" fill="#101828" fill-rule="nonzero">
                <path d="M3.46,2.42 C3.46,1.53 2.82,0.96 1.83,0.96 C0.74,0.96 0.16,1.74 0.16,2.47 C0.16,2.63 0.18,2.77 0.21,2.92 L0.22,3 L1.25,2.92 L1.23,2.82 C1.21,2.72 1.2,2.64 1.2,2.51 C1.2,2.15 1.44,1.93 1.83,1.93 C2.2,1.93 2.44,2.16 2.44,2.52 C2.44,2.81 2.32,3.03 1.93,3.43 L0.16,5.23 L0.16,6 L3.46,6 L3.46,4.99 L1.76,4.99 L2.64,4.1 C3.26,3.47 3.46,3.06 3.46,2.42 Z" id="Path"></path>
                <path d="M6,1 C4.9,1 4,1.9 4,3 L4,4 C4,5.1 4.9,6 6,6 C7.1,6 8,5.1 8,4 L8,3 C8,1.9 7.1,1 6,1 Z M7,4 C7,4.55 6.55,5 6,5 C5.45,5 5,4.55 5,4 L5,3 C5,2.45 5.45,2 6,2 C6.55,2 7,2.45 7,3 L7,4 Z" id="Shape"></path>
                <path d="M10.48,1 C9.38,1 8.48,1.9 8.48,3 L8.48,4 C8.48,5.1 9.38,6 10.48,6 C11.58,6 12.48,5.1 12.48,4 L12.48,3 C12.48,1.9 11.59,1 10.48,1 Z M11.48,4 C11.48,4.55 11.03,5 10.48,5 C9.93,5 9.48,4.55 9.48,4 L9.48,3 C9.48,2.45 9.93,2 10.48,2 C11.03,2 11.48,2.45 11.48,3 L11.48,4 Z" id="Shape"></path>
                <polygon id="Path" points="15 3 15 2 14 2 14 3 13 3 13 4 14 4 14 5 15 5 15 4 16 4 16 3"></polygon>
            </g>
            <path d="M11,24.31 C9.07,23.54 7.46,22.17 6.39,20.42 L9.1,20.42 C9.55,21.89 10.21,23.13 11,24.07 L11,23 L11,22.34 C10.68,21.77 10.39,21.12 10.16,20.42 L12.66,20.42 L20.39,20.42 L22.61,20.42 C22.49,20.62 22.36,20.81 22.22,21 L23.43,21 C24.42,19.4 25,17.52 25,15.5 C25,9.7 20.3,5 14.5,5 C14.5,5 14.49,5 14.49,5 C14.49,5 14.49,5 14.48,5 C14.47,5 14.47,5 14.46,5 C8.68,5.02 4,9.71 4,15.5 C4,20.07 6.92,23.95 11,25.39 L11,24.31 Z M23.14,19.42 L20.13,19.42 C20.38,18.36 20.53,17.2 20.56,16 L23.97,16 C23.91,17.21 23.62,18.37 23.14,19.42 Z M23.97,15 L20.56,15 C20.53,13.8 20.38,12.64 20.13,11.58 L23.14,11.58 C23.62,12.63 23.91,13.79 23.97,15 Z M22.61,10.58 L19.87,10.58 C19.36,8.92 18.59,7.53 17.66,6.55 C19.74,7.29 21.48,8.72 22.61,10.58 Z M15,6.05 C16.59,6.36 17.99,8.12 18.81,10.58 L15,10.58 L15,6.05 Z M15,11.58 L19.1,11.58 C19.37,12.64 19.53,13.79 19.56,15 L15,15 L15,11.58 Z M15,16 L19.56,16 C19.52,17.21 19.36,18.36 19.1,19.42 L15,19.42 L15,16 Z M14,19.42 L9.87,19.42 C9.6,18.36 9.44,17.21 9.4,16 L14,16 L14,19.42 Z M14,15 L9.4,15 C9.44,13.79 9.6,12.64 9.86,11.58 L14,11.58 L14,15 Z M14,6.05 L14,10.58 L10.16,10.58 C10.98,8.11 12.39,6.34 14,6.05 Z M11.29,6.57 C10.37,7.55 9.61,8.93 9.1,10.58 L6.39,10.58 C7.51,8.74 9.23,7.31 11.29,6.57 Z M5.86,11.58 L8.84,11.58 C8.58,12.64 8.44,13.8 8.4,15 L5.03,15 C5.09,13.79 5.38,12.63 5.86,11.58 Z M5.03,16 L8.4,16 C8.43,17.2 8.58,18.36 8.83,19.42 L5.86,19.42 C5.38,18.37 5.09,17.21 5.03,16 Z" id="Shape" fill="#101828" fill-rule="nonzero"></path>
            <rect id="Rectangle" x="0" y="0" width="32" height="32"></rect>
        </g>
    </g>
</svg>