<?xml version="1.0" encoding="UTF-8"?>
<svg width="80px" height="80px" viewBox="0 0 80 80" version="1.1" xmlns="http://www.w3.org/2000/svg" xmlns:xlink="http://www.w3.org/1999/xlink">
    <!-- Generator: Sketch 57.1 (83088) - https://sketch.com -->
    <title>218-B80px</title>
    <desc>Created with Sketch.</desc>
    <g id="218-B80px" stroke="none" stroke-width="1" fill="none" fill-rule="evenodd">
        <g>
            <path d="M54.4,10.05 L52.925,12.1 C57.25,15.8 60,21.275 60,27.375 C60,33.5 57.25,38.975 52.925,42.65 L54.4,44.7 C59.35,40.575 62.525,34.325 62.525,27.375 C62.5,20.425 59.35,14.2 54.4,10.05 Z" id="Path" fill="#101828" fill-rule="nonzero"></path>
            <path d="M20,27.5 C20,21.275 22.825,15.725 27.275,12.05 L25.825,10 C20.75,14.125 17.5,20.425 17.5,27.5 C17.5,34.575 20.75,40.875 25.825,45 L27.3,42.95 C22.85,39.275 20,33.725 20,27.5 Z" id="Path" fill="#101828" fill-rule="nonzero"></path>
            <path d="M25,27.375 C25,23.25 26.825,19.55 29.7,17.025 L28.225,14.975 C24.725,17.975 22.5,22.425 22.5,27.375 C22.5,32.35 24.725,36.8 28.225,39.775 L29.7,37.725 C26.825,35.2 25,31.5 25,27.375 Z" id="Path" fill="#101828" fill-rule="nonzero"></path>
            <path d="M51.975,15.175 L50.5,17.225 C53.25,19.75 55,23.35 55,27.375 C55,31.4 53.25,35.025 50.5,37.55 L51.975,39.6 C55.35,36.625 57.5,32.25 57.5,27.375 C57.5,22.525 55.35,18.15 51.975,15.175 Z" id="Path" fill="#101828" fill-rule="nonzero"></path>
            <path d="M49.475,20.4 L47.975,22.475 C49.225,23.825 50,25.6 50,27.55 C50,29.45 49.275,31.15 48.125,32.475 L49.625,34.575 C51.4,32.775 52.5,30.3 52.5,27.55 C52.5,24.75 51.325,22.225 49.475,20.4 Z" id="Path" fill="#101828" fill-rule="nonzero"></path>
            <path d="M30.725,20.225 C28.75,22.05 27.5,24.65 27.5,27.575 C27.5,30.4 28.675,32.95 30.575,34.775 L32.05,32.7 C30.8,31.35 30,29.55 30,27.575 C30,25.5 30.85,23.625 32.2,22.275 L30.725,20.225 Z" id="Path" fill="#101828" fill-rule="nonzero"></path>
            <path d="M40,25 C41.375,25 42.5,26.125 42.5,27.5 C42.5,28.875 41.375,30 40,30 C38.625,30 37.5,28.875 37.5,27.5 C37.5,26.125 38.625,25 40,25 L40,25 Z M40,22.5 C37.25,22.5 35,24.75 35,27.5 C35,30.25 37.25,32.5 40,32.5 C42.75,32.5 45,30.25 45,27.5 C45,24.75 42.75,22.5 40,22.5 L40,22.5 Z" id="Shape" fill="#101828" fill-rule="nonzero"></path>
            <rect id="Rectangle" fill="#101828" fill-rule="nonzero" x="38.75" y="30" width="2.5" height="40"></rect>
            <rect id="Rectangle" x="0" y="0" width="80" height="80"></rect>
        </g>
    </g>
</svg>