<?xml version="1.0" encoding="UTF-8"?>
<svg width="40px" height="40px" viewBox="0 0 40 40" version="1.1" xmlns="http://www.w3.org/2000/svg" xmlns:xlink="http://www.w3.org/1999/xlink">
    <!-- Generator: Sketch 57.1 (83088) - https://sketch.com -->
    <title>230-B40px</title>
    <desc>Created with Sketch.</desc>
    <g id="230-B40px" stroke="none" stroke-width="1" fill="none" fill-rule="evenodd">
        <g>
            <path d="M25,7.5 L25,8.75 L32.5,8.75 L32.5,10.9375 C32.5,14.5125 31.7625,19.825 30.525,22.55 C28.8375,26.2875 25.65,31.2 20,33.65 C14.35,31.2 11.1625,26.2875 9.475,22.55 C8.2375,19.825 7.5,14.5 7.5,10.9375 L7.5,8.75 L15,8.75 L15,7.5 L6.25,7.5 L6.25,10.9375 C6.25,14.325 6.9375,19.9875 8.325,23.075 C10.25,27.3 13.7625,32.5 20,35 C26.2375,32.5 29.75,27.3 31.675,23.0625 C33.0625,19.975 33.75,14.325 33.75,10.9375 L33.75,7.5 L25,7.5 Z" id="Path" fill="#101828" fill-rule="nonzero"></path>
            <path d="M20.0125,26.275 C17.5875,26.275 15.625,24.4125 15.625,22.1125 L15.625,17.1375 L19.0875,13.875 L16.875,11.8 L16.875,5 L20,8.075 L23.125,5 L23.125,11.8 L20.9125,13.8875 L24.375,17.15 L24.375,22.1375 C24.375,24.4125 22.425,26.275 20.0125,26.275 Z M16.875,17.6875 L16.875,22.1125 C16.875,23.7125 18.2875,25.025 20.0125,25.025 C21.7375,25.025 23.1375,23.725 23.1375,22.125 L23.1375,17.6875 L20,14.7375 L16.875,17.6875 Z M18.125,11.2625 L20,13.025 L21.875,11.2625 L21.875,8 L20,9.8375 L18.125,7.9875 L18.125,11.2625 Z" id="Shape" fill="#101828" fill-rule="nonzero"></path>
            <rect id="Rectangle" x="0" y="0" width="40" height="40"></rect>
        </g>
    </g>
</svg>