<?xml version="1.0" encoding="UTF-8"?>
<svg width="80px" height="80px" viewBox="0 0 80 80" version="1.1" xmlns="http://www.w3.org/2000/svg" xmlns:xlink="http://www.w3.org/1999/xlink">
    <!-- Generator: Sketch 57.1 (83088) - https://sketch.com -->
    <title>061-G80px</title>
    <desc>Created with Sketch.</desc>
    <g id="NEW_icons" stroke="none" stroke-width="1" fill="none" fill-rule="evenodd">
        <g id="061-G80px">
            <g id="Group-17">
                <circle id="Oval-Copy-21" fill="#E3E8EC" cx="40" cy="40" r="40"></circle>
                <g id="061-B32px-Copy-7" transform="translate(12.000000, 12.000000)">
                    <path d="M17.5,33.25 L17.5,40.25 L10.5,40.25 L10.5,33.25 L17.5,33.25 L17.5,33.25 Z M19.25,31.5 L8.75,31.5 L8.75,42 L19.25,42 L19.25,31.5 L19.25,31.5 Z" id="Shape" fill="#101828" fill-rule="nonzero"></path>
                    <rect id="Rectangle" fill="#101828" fill-rule="nonzero" x="26.25" y="31.5" width="1.75" height="10.5"></rect>
                    <rect id="Rectangle" fill="#101828" fill-rule="nonzero" x="29.75" y="31.5" width="1.75" height="10.5"></rect>
                    <path d="M40.25,34.65 L43.925,36.75 L40.25,38.85 L40.25,34.65 L40.25,34.65 Z M38.5,31.5 L38.5,42 L47.25,36.75 L38.5,31.5 L38.5,31.5 Z" id="Shape" fill="#101828" fill-rule="nonzero"></path>
                    <path d="M28,14 C28.175,14 40.25,14 47.075,19.425 C47.075,19.425 47.25,19.6 47.25,19.6 L47.25,26.075 C47.25,26.25 47.25,26.25 47.075,26.25 L36.925,26.25 C36.75,26.25 36.75,26.075 36.75,26.075 L36.75,21.7 L36.75,20.475 L35.7,19.95 C35.525,19.95 31.5,18.2 28,18.2 C24.5,18.2 20.475,19.775 20.3,19.95 L19.25,20.475 L19.25,21.7 L19.25,26.075 C19.25,26.25 19.25,26.25 19.075,26.25 L8.925,26.25 C8.75,26.25 8.75,26.075 8.75,26.075 L8.75,19.6 C8.75,19.6 8.75,19.425 8.75,19.425 C15.925,14.175 27.825,14 28,14 L28,14 Z M28,12.25 C28,12.25 15.4,12.25 7.7,18.025 C7.35,18.375 7,18.9 7,19.6 L7,26.075 C7,27.125 7.875,28 8.925,28 L19.075,28 C20.125,28 21,27.125 21,26.075 L21,21.7 C21,21.7 24.85,20.125 28,20.125 C31.15,20.125 35,21.7 35,21.7 L35,26.075 C35,27.125 35.875,28 36.925,28 L47.075,28 C48.125,28 49,27.125 49,26.075 L49,19.6 C49,18.9 48.65,18.375 48.125,18.025 C40.775,12.25 28,12.25 28,12.25 L28,12.25 Z" id="Shape" fill="#101828" fill-rule="nonzero"></path>
                    <rect id="Rectangle" x="0" y="0" width="56" height="56"></rect>
                </g>
            </g>
        </g>
    </g>
</svg>