<?xml version="1.0" encoding="UTF-8"?>
<svg width="80px" height="80px" viewBox="0 0 80 80" version="1.1" xmlns="http://www.w3.org/2000/svg" xmlns:xlink="http://www.w3.org/1999/xlink">
    <!-- Generator: Sketch 58 (84663) - https://sketch.com -->
    <title>256-W80px</title>
    <desc>Created with Sketch.</desc>
    <g id="NEW_icons" stroke="none" stroke-width="1" fill="none" fill-rule="evenodd">
        <g id="icons_UD_new-Copy" transform="translate(-868.000000, -32620.000000)">
            <g id="256-W80px" transform="translate(868.000000, 32620.000000)">
                <circle id="Oval-Copy-1641" fill="#101828" cx="40" cy="40" r="40"></circle>
                <g id="256-B32px-Copy-8" transform="translate(12.000000, 12.000000)">
                    <path d="M30.31,38.955 C23.625,36.1725 18.06,30.52 17.99,30.45 C17.92,30.345 9.7475,21.805 8.75,13.3875 C8.75,13.335 8.75,13.2475 8.8025,13.195 L13.3875,8.7675 C13.4225,8.7325 13.4575,8.715 13.51,8.715 C13.5625,8.715 13.5975,8.75 13.5975,8.75 L20.51,15.89 C20.5625,15.9425 20.545,16.0475 20.4925,16.1 L17.43,19.0575 L16.59,19.88 L17.0275,20.965 C17.0975,21.14 18.725,25.1125 21.0525,27.51 C23.38,29.9075 27.3,31.675 27.475,31.745 L28.56,32.2175 L29.4,31.395 L32.4625,28.4375 C32.4975,28.4025 32.5325,28.385 32.585,28.385 C32.6375,28.385 32.6725,28.42 32.6725,28.42 L34.965,30.8 L35.8575,29.2075 L33.915,27.195 C33.5475,26.81 33.0575,26.6175 32.5675,26.6175 C32.095,26.6175 31.605,26.7925 31.2375,27.16 L28.175,30.1175 C28.175,30.1175 24.43,28.455 22.3125,26.2675 C20.195,24.08 18.655,20.2825 18.655,20.2825 L21.7175,17.325 C22.47,16.59 22.505,15.4 21.77,14.6475 L14.84,7.525 C14.4725,7.1575 13.9825,6.965 13.4925,6.965 C13.02,6.965 12.53,7.14 12.1625,7.5075 L7.5775,11.935 C7.14,12.3725 6.9475,12.9675 7.0175,13.58 C8.1025,22.715 16.7475,31.64 16.7475,31.64 C16.7475,31.64 22.4,37.485 29.4525,40.4775 L30.31,38.955 Z" id="Path" fill="#FFFFFF" fill-rule="nonzero"></path>
                    <path d="M38.5,31.4825 L38.5525,31.535 L47.215,46.9525 C47.2325,46.97 47.2675,47.04 47.2325,47.145 C47.215,47.215 47.18,47.25 47.1625,47.25 L29.82,47.25 C29.8025,47.25 29.7675,47.215 29.75,47.145 C29.715,47.0575 29.7675,46.9875 29.7675,46.9525 L38.43,31.535 C38.465,31.5175 38.4825,31.4825 38.5,31.4825 L38.5,31.4825 Z M38.5,29.7325 C37.8875,29.7325 37.275,30.0475 36.925,30.6775 L28.2625,46.095 C27.545,47.3725 28.42,48.9825 29.8375,48.9825 L47.18,48.9825 C48.5975,48.9825 49.4725,47.3725 48.755,46.095 L40.0925,30.6775 C39.725,30.0475 39.1125,29.7325 38.5,29.7325 L38.5,29.7325 Z" id="Shape" fill="#FFFFFF" fill-rule="nonzero"></path>
                    <rect id="Rectangle" fill="#FFFFFF" fill-rule="nonzero" x="37.625" y="34.9825" width="1.75" height="7"></rect>
                    <rect id="Rectangle" fill="#FFFFFF" fill-rule="nonzero" x="37.625" y="43.7325" width="1.75" height="1.75"></rect>
                    <rect id="Rectangle" x="0" y="0" width="56" height="56"></rect>
                </g>
            </g>
        </g>
    </g>
</svg>