<?xml version="1.0" encoding="UTF-8"?>
<svg width="80px" height="80px" viewBox="0 0 80 80" version="1.1" xmlns="http://www.w3.org/2000/svg" xmlns:xlink="http://www.w3.org/1999/xlink">
    <!-- Generator: Sketch 57.1 (83088) - https://sketch.com -->
    <title>180-G80px</title>
    <desc>Created with Sketch.</desc>
    <g id="NEW_icons" stroke="none" stroke-width="1" fill="none" fill-rule="evenodd">
        <g id="icons_UD_new-Copy" transform="translate(-768.000000, -23078.000000)">
            <g id="180-G80px" transform="translate(768.000000, 23078.000000)">
                <circle id="Oval-Copy-697" fill="#E3E8EC" cx="40" cy="40" r="40"></circle>
                <g id="180-B32px-Copy-8" transform="translate(12.000000, 12.000000)">
                    <path d="M45.5,29.75 L45.5,35 L42,35 L42,29.75 L45.5,29.75 L45.5,29.75 Z M47.25,28 L40.25,28 L40.25,36.75 L45.57,36.75 C46.4975,36.75 47.25,35.9975 47.25,35.07 L47.25,28 L47.25,28 Z" id="Shape" fill="#101828" fill-rule="nonzero"></path>
                    <path d="M45.5,22.75 L45.5,28 L42,28 L42,22.75 L45.5,22.75 L45.5,22.75 Z M47.25,21 L40.25,21 L40.25,29.75 L45.57,29.75 C46.4975,29.75 47.25,28.9975 47.25,28.07 L47.25,21 L47.25,21 Z" id="Shape" fill="#101828" fill-rule="nonzero"></path>
                    <path d="M45.5,15.75 L45.5,21 L42,21 L42,15.75 L45.5,15.75 L45.5,15.75 Z M47.25,14 L40.25,14 L40.25,22.75 L45.57,22.75 C46.4975,22.75 47.25,21.9975 47.25,21.07 L47.25,14 L47.25,14 Z" id="Shape" fill="#101828" fill-rule="nonzero"></path>
                    <path d="M45.5,8.75 L45.535,14 L42,14 L42,8.75 L45.5,8.75 L45.5,8.75 Z M45.57,7 L40.25,7 L40.25,15.75 L45.535,15.75 C46.48,15.75 47.25,14.98 47.25,14.035 L47.25,8.68 C47.25,7.7525 46.4975,7 45.57,7 L45.57,7 Z" id="Shape" fill="#101828" fill-rule="nonzero"></path>
                    <path d="M40.25,8.75 L40.25,47.25 L10.5,47.25 L10.5,8.75 L40.25,8.75 L40.25,8.75 Z M42,7 L10.5,7 C9.5375,7 8.75,7.7875 8.75,8.75 L8.75,47.25 C8.75,48.2125 9.5375,49 10.5,49 L40.25,49 C41.2125,49 42,48.2125 42,47.25 L42,7 L42,7 Z" id="Shape" fill="#101828" fill-rule="nonzero"></path>
                    <path d="M16.625,29.75 C15.1725,29.75 14,28.5775 14,27.125 C14,25.6725 15.1725,24.5 16.625,24.5 C18.0775,24.5 19.25,25.6725 19.25,27.125 C19.25,28.5775 18.0775,29.75 16.625,29.75 Z M16.625,26.25 C16.135,26.25 15.75,26.635 15.75,27.125 C15.75,27.615 16.135,28 16.625,28 C17.115,28 17.5,27.615 17.5,27.125 C17.5,26.635 17.115,26.25 16.625,26.25 Z" id="Shape" fill="#101828" fill-rule="nonzero"></path>
                    <path d="M16.625,26.25 C15.1725,26.25 14,25.0775 14,23.625 C14,22.1725 15.1725,21 16.625,21 C18.0775,21 19.25,22.1725 19.25,23.625 C19.25,25.0775 18.0775,26.25 16.625,26.25 Z M16.625,22.75 C16.135,22.75 15.75,23.135 15.75,23.625 C15.75,24.115 16.135,24.5 16.625,24.5 C17.115,24.5 17.5,24.115 17.5,23.625 C17.5,23.135 17.115,22.75 16.625,22.75 Z" id="Shape" fill="#101828" fill-rule="nonzero"></path>
                    <path d="M24.5,22.75 C25.4625,22.75 26.25,23.5375 26.25,24.5 L26.25,26.25 C26.25,27.2125 25.4625,28 24.5,28 C23.5375,28 22.75,27.2125 22.75,26.25 L22.75,24.5 C22.75,23.5375 23.5375,22.75 24.5,22.75 L24.5,22.75 Z M24.5,21 C22.575,21 21,22.575 21,24.5 L21,26.25 C21,28.175 22.575,29.75 24.5,29.75 C26.425,29.75 28,28.175 28,26.25 L28,24.5 C28,22.575 26.425,21 24.5,21 L24.5,21 Z" id="Shape" fill="#101828" fill-rule="nonzero"></path>
                    <path d="M33.25,22.75 C34.2125,22.75 35,23.5375 35,24.5 L35,26.25 C35,27.2125 34.2125,28 33.25,28 C32.2875,28 31.5,27.2125 31.5,26.25 L31.5,24.5 C31.5,23.5375 32.2875,22.75 33.25,22.75 L33.25,22.75 Z M33.25,21 C31.325,21 29.75,22.575 29.75,24.5 L29.75,26.25 C29.75,28.175 31.325,29.75 33.25,29.75 C35.175,29.75 36.75,28.175 36.75,26.25 L36.75,24.5 C36.75,22.575 35.175,21 33.25,21 L33.25,21 Z" id="Shape" fill="#101828" fill-rule="nonzero"></path>
                    <rect id="Rectangle" x="0" y="0" width="56" height="56"></rect>
                </g>
            </g>
        </g>
    </g>
</svg>