<?xml version="1.0" encoding="UTF-8"?>
<svg width="80px" height="80px" viewBox="0 0 80 80" version="1.1" xmlns="http://www.w3.org/2000/svg" xmlns:xlink="http://www.w3.org/1999/xlink">
    <!-- Generator: Sketch 57.1 (83088) - https://sketch.com -->
    <title>205-G80px</title>
    <desc>Created with Sketch.</desc>
    <g id="NEW_icons" stroke="none" stroke-width="1" fill="none" fill-rule="evenodd">
        <g id="icons_UD_new-Copy" transform="translate(-2050.000000, -26088.000000)">
            <g id="205-G80px" transform="translate(2050.000000, 26088.000000)">
                <circle id="Oval-Copy-1212" fill="#E3E8EC" cx="40" cy="40" r="40"></circle>
                <g id="205-B32px-Copy-6" transform="translate(12.000000, 12.000000)">
                    <path d="M47.215,17.5 L47.25,17.535 L47.215,36.75 L8.75,36.715 L8.785,17.5 L47.215,17.5 L47.215,17.5 Z M47.215,15.75 L8.785,15.75 C7.805,15.75 7,16.555 7,17.535 L7,36.715 C7,37.695 7.805,38.5 8.785,38.5 L47.215,38.5 C48.195,38.5 49,37.695 49,36.715 L49,17.535 C49,16.555 48.195,15.75 47.215,15.75 L47.215,15.75 Z" id="Shape" fill="#101828" fill-rule="nonzero"></path>
                    <path d="M27.965,38.4125 C20.4225,38.4125 14.77,39.5675 12.25,40.1975 L12.25,42 C14.42,41.44 20.195,40.1625 27.965,40.1625 C35.805,40.1625 41.6325,41.4575 43.75,42.0175 L43.75,40.215 C41.2475,39.5675 35.5775,38.4125 27.965,38.4125 Z" id="Path" fill="#101828" fill-rule="nonzero"></path>
                    <g id="Group" transform="translate(17.500000, 19.250000)" fill="#101828" fill-rule="nonzero">
                        <path d="M4.1475,13.7375 C4.0425,13.7375 3.92,13.72 3.815,13.6675 C3.36,13.4925 3.15,12.985 3.325,12.53 L6.0025,5.845 C6.1775,5.39 6.685,5.18 7.14,5.355 C7.595,5.53 7.805,6.0375 7.63,6.4925 L4.9525,13.1775 C4.83,13.5275 4.4975,13.7375 4.1475,13.7375 Z" id="Path"></path>
                        <path d="M10.5175,15.7675 C4.795,15.7675 0.91,13.23 0.665,13.0725 C0.2625,12.81 0.1575,12.2675 0.42,11.865 C0.6825,11.4625 1.225,11.3575 1.6275,11.62 C1.96,11.83 9.835,16.9225 19.6525,11.585 C20.0725,11.3575 20.5975,11.515 20.8425,11.935 C21.07,12.355 20.9125,12.8975 20.4925,13.125 C16.87,15.1025 13.4575,15.7675 10.5175,15.7675 Z" id="Path"></path>
                        <path d="M19.3375,4.515 C19.3375,3.22 17.185,2.695 16.9925,2.3625 C16.8,2.03 16.9575,0.6125 16.9575,0.6125 L16.0825,0.6125 C13.5975,0.6125 11.585,2.625 11.585,5.11 C11.585,5.1975 11.515,5.2675 11.4275,5.2675 L4.655,5.2675 C3.3075,5.2675 2.2225,6.3525 2.2225,7.7 C2.2225,8.19 2.6075,8.575 3.0975,8.575 C3.5875,8.575 3.9725,8.19 3.9725,7.7 C3.9725,7.3325 4.27,7.0175 4.655,7.0175 L11.4275,7.0175 C12.4775,7.0175 13.335,6.16 13.335,5.11 C13.335,3.885 14.14,2.8525 15.2425,2.5025 C15.3125,2.9575 15.3475,3.3425 15.785,3.535 C16.03,3.64 17.2025,4.0775 17.3425,4.13 C17.535,4.2 17.675,4.27 17.675,4.4625 C17.675,4.655 17.5,4.76 17.3425,4.795 C17.22,4.8125 15.715,5.0925 15.575,5.1625 C15.4525,5.2325 15.3475,5.285 15.26,5.39 C14.945,5.7575 14.8225,6.23 14.91,6.79 L16.2575,13.0725 C16.345,13.475 16.7125,13.755 17.115,13.755 C17.185,13.755 17.2375,13.755 17.3075,13.7375 C17.78,13.6325 18.0775,13.1775 17.9725,12.705 L16.6075,6.5625 C17.045,6.51 18.2,6.1075 18.6375,5.8275 C19.25,5.39 19.3375,5.005 19.3375,4.515 Z" id="Path"></path>
                        <path d="M6.5625,15.1375 C6.5275,15.1375 6.51,15.1375 6.475,15.1375 C5.985,15.085 5.635,14.665 5.6875,14.1925 C5.9325,11.62 8.0675,9.695 10.6575,9.695 C13.2125,9.695 15.3475,11.6025 15.6275,14.14 C15.68,14.6125 15.33,15.05 14.8575,15.1025 C14.385,15.155 13.9475,14.805 13.895,14.3325 C13.72,12.6875 12.3375,11.445 10.675,11.445 C8.995,11.445 7.6125,12.705 7.455,14.3675 C7.385,14.7875 7.0175,15.1375 6.5625,15.1375 Z" id="Path"></path>
                    </g>
                    <rect id="Rectangle" x="0" y="0" width="56" height="56"></rect>
                </g>
            </g>
        </g>
    </g>
</svg>