<?xml version="1.0" encoding="UTF-8"?>
<svg width="56px" height="56px" viewBox="0 0 56 56" version="1.1" xmlns="http://www.w3.org/2000/svg" xmlns:xlink="http://www.w3.org/1999/xlink">
    <!-- Generator: Sketch 56.3 (81716) - https://sketch.com -->
    <title>150-W56px</title>
    <desc>Created with Sketch.</desc>
    <g id="NEW_icons" stroke="none" stroke-width="1" fill="none" fill-rule="evenodd">
        <g id="icons_UD_new-Copy" transform="translate(-532.000000, -19179.000000)">
            <g id="150-W56px" transform="translate(532.000000, 19179.000000)">
                <circle id="Oval-Copy-911" fill="#101828" cx="28" cy="28" r="28"></circle>
                <g id="150-B32px-Copy-4" transform="translate(8.000000, 8.000000)">
                    <path d="M33.75,23.75 L33.75,27.5 L15,27.5 L15,23.75 L33.75,23.75 L33.75,23.75 Z M33.8125,22.5 L14.9375,22.5 C14.275,22.5 13.75,23.025 13.75,23.6875 L13.75,27.575 C13.75,28.225 14.275,28.7625 14.9375,28.7625 L33.825,28.7625 C34.475,28.7625 35.0125,28.2375 35.0125,27.575 L35.0125,23.6875 C35,23.025 34.475,22.5 33.8125,22.5 L33.8125,22.5 Z" id="Shape" fill="#FFFFFF" fill-rule="nonzero"></path>
                    <rect id="Rectangle" fill="#FFFFFF" fill-rule="nonzero" x="17.5" y="25" width="3.75" height="1.25"></rect>
                    <polygon id="Path" fill="#FFFFFF" fill-rule="nonzero" points="32.5 27.5 28.75 27.5 28.75 30 32.5 30"></polygon>
                    <polygon id="Path" fill="#FFFFFF" fill-rule="nonzero" points="20 27.5 16.25 27.5 16.25 30 20 30"></polygon>
                    <polygon id="Path" fill="#FFFFFF" fill-rule="nonzero" points="26.25 25 25 25 25 26.25 26.25 26.25"></polygon>
                    <polygon id="Path" fill="#FFFFFF" fill-rule="nonzero" points="28.75 25 27.5 25 27.5 26.25 28.75 26.25"></polygon>
                    <polygon id="Path" fill="#FFFFFF" fill-rule="nonzero" points="31.25 25 30 25 30 26.25 31.25 26.25"></polygon>
                    <g id="Group" transform="translate(5.000000, 11.250000)" fill="#FFFFFF" fill-rule="nonzero">
                        <path d="M3.75,16.275 L7.5,16.275 L7.5,15 L1.25,15 L1.275,1.25 L28.725,1.25 L28.75,1.275 L28.725,10 L30,10 L30,1.275 C30,0.575 29.425,0 28.725,0 L1.275,0 C0.575,0 0,0.575 0,1.275 L0,15 C0,15.6625 0.5125,16.1875 1.1625,16.25 L3.75,16.25 L3.75,16.275 Z" id="Path"></path>
                        <path d="M7.5,16.725 C5.85,16.975 4.5625,17.25 3.75,17.45 L3.75,18.75 C4.475,18.5625 5.775,18.2625 7.5,18 L7.5,16.725 Z" id="Path"></path>
                        <path d="M26.225,18.75 C26.225,18.75 26.2375,18.75 26.25,18.75 L26.25,18.75 L26.225,18.75 Z" id="Path"></path>
                    </g>
                    <rect id="Rectangle" x="0" y="0" width="40" height="40"></rect>
                </g>
            </g>
        </g>
    </g>
</svg>