<?xml version="1.0" encoding="UTF-8"?>
<svg width="80px" height="80px" viewBox="0 0 80 80" version="1.1" xmlns="http://www.w3.org/2000/svg" xmlns:xlink="http://www.w3.org/1999/xlink">
    <!-- Generator: Sketch 57.1 (83088) - https://sketch.com -->
    <title>167-W80px</title>
    <desc>Created with Sketch.</desc>
    <g id="NEW_icons" stroke="none" stroke-width="1" fill="none" fill-rule="evenodd">
        <g id="icons_UD_new-Copy" transform="translate(-2151.000000, -21319.000000)">
            <g id="167-W80px" transform="translate(2151.000000, 21319.000000)">
                <circle id="Oval-Copy-1014" fill="#101828" cx="40" cy="40" r="40"></circle>
                <g id="167-B32px-Copy-8" transform="translate(12.000000, 12.000000)">
                    <path d="M27.965,38.395 C20.4225,38.395 14.77,39.55 12.25,40.18 L12.25,41.9825 C14.42,41.4225 20.195,40.145 27.965,40.145 C35.805,40.145 41.6325,41.44 43.75,42 L43.75,40.1975 C41.2475,39.5675 35.5775,38.395 27.965,38.395 Z" id="Path" fill="#FFFFFF" fill-rule="nonzero"></path>
                    <path d="M47.215,15.715 L42,15.715 L42,17.465 L47.215,17.465 L47.25,17.5 L47.215,36.75 L8.75,36.715 L8.785,17.465 L14,17.465 L14,15.715 L8.785,15.715 C7.805,15.715 7,16.52 7,17.5 L7,36.715 C7,37.695 7.805,38.5 8.785,38.5 L47.215,38.5 C48.195,38.5 49,37.695 49,36.715 L49,17.5 C49,16.52 48.195,15.715 47.215,15.715 Z" id="Path" fill="#FFFFFF" fill-rule="nonzero"></path>
                    <path d="M31.4825,31.4825 L31.4825,31.4825 L31.5,33.2325 L24.5,33.2325 L24.5,31.4825 L31.4825,31.4825 L31.4825,31.4825 Z M31.4825,29.7325 L24.5175,29.7325 C23.5375,29.7325 22.75,30.52 22.75,31.5 L22.75,34.9825 L33.25,34.9825 L33.25,31.5 C33.25,30.52 32.4625,29.7325 31.4825,29.7325 L31.4825,29.7325 Z" id="Shape" fill="#FFFFFF" fill-rule="nonzero"></path>
                    <rect id="Rectangle" fill="#FFFFFF" fill-rule="nonzero" x="27.125" y="26.2325" width="1.75" height="3.5"></rect>
                    <g id="Group" transform="translate(17.500000, 14.000000)" fill="#FFFFFF" fill-rule="nonzero">
                        <path d="M20.8775,1.75 L17.4825,1.75 C17.4475,2.275 17.3775,2.87 17.255,3.5 L19.25,3.5 L19.25,7 C19.25,7.9625 18.48,8.7325 17.5175,8.7325 L15.61,8.7325 C15.3475,9.345 15.05,9.9225 14.735,10.4825 L17.535,10.4825 C19.46,10.4825 21.0175,8.925 21.0175,7 L21.0175,1.8725 C21,1.8025 20.9475,1.75 20.8775,1.75 Z" id="Path"></path>
                        <path d="M5.6175,8.7325 L3.5,8.7325 C2.5375,8.7325 1.75,7.945 1.75,6.9825 L1.75,3.4825 L3.9725,3.4825 C3.85,2.8525 3.78,2.2575 3.745,1.7325 L0.1225,1.7325 C0.0525,1.75 0,1.8025 0,1.8725 L0,7 C0,8.925 1.575,10.5 3.5,10.5 L6.4925,10.5 C6.1775,9.94 5.8975,9.345 5.6175,8.7325 Z" id="Path"></path>
                    </g>
                    <path d="M33.005,14 C33.145,14 33.25,14.105 33.25,14.21 L33.25,17.1675 C33.25,20.615 30.31,26.2325 28,26.2325 C25.69,26.2325 22.75,20.615 22.75,17.1675 L22.75,14.21 C22.75,14.105 22.8725,14 22.995,14 L33.005,14 L33.005,14 Z M33.005,12.25 L22.995,12.25 C21.8925,12.25 21,13.125 21,14.21 L21,17.1675 C21,20.965 24.1325,27.9825 28,27.9825 C31.8675,27.9825 35,20.965 35,17.1675 L35,14.21 C35,13.125 34.1075,12.25 33.005,12.25 L33.005,12.25 Z" id="Shape" fill="#FFFFFF" fill-rule="nonzero"></path>
                    <rect id="Rectangle" fill="#FFFFFF" fill-rule="nonzero" x="21" y="33.25" width="14" height="1.7325"></rect>
                    <rect id="Rectangle" x="0" y="0" width="56" height="56"></rect>
                </g>
            </g>
        </g>
    </g>
</svg>