<?xml version="1.0" encoding="UTF-8"?>
<svg width="80px" height="80px" viewBox="0 0 80 80" version="1.1" xmlns="http://www.w3.org/2000/svg" xmlns:xlink="http://www.w3.org/1999/xlink">
    <!-- Generator: Sketch 57.1 (83088) - https://sketch.com -->
    <title>218-W80px</title>
    <desc>Created with Sketch.</desc>
    <g id="NEW_icons" stroke="none" stroke-width="1" fill="none" fill-rule="evenodd">
        <g id="icons_UD_new-Copy" transform="translate(-878.000000, -27852.000000)">
            <g id="218-W80px" transform="translate(878.000000, 27852.000000)">
                <circle id="Oval-Copy-1309" fill="#101828" cx="40" cy="40" r="40"></circle>
                <g id="218-B32px-Copy-8" transform="translate(12.000000, 12.000000)">
                    <path d="M38.08,7.035 L37.0475,8.47 C40.075,11.06 42,14.8925 42,19.1625 C42,23.45 40.075,27.2825 37.0475,29.855 L38.08,31.29 C41.545,28.4025 43.7675,24.0275 43.7675,19.1625 C43.75,14.2975 41.545,9.94 38.08,7.035 Z" id="Path" fill="#FFFFFF" fill-rule="nonzero"></path>
                    <path d="M14,19.25 C14,14.8925 15.9775,11.0075 19.0925,8.435 L18.0775,7 C14.525,9.8875 12.25,14.2975 12.25,19.25 C12.25,24.2025 14.525,28.6125 18.0775,31.5 L19.11,30.065 C15.995,27.4925 14,23.6075 14,19.25 Z" id="Path" fill="#FFFFFF" fill-rule="nonzero"></path>
                    <path d="M17.5,19.1625 C17.5,16.275 18.7775,13.685 20.79,11.9175 L19.7575,10.4825 C17.3075,12.5825 15.75,15.6975 15.75,19.1625 C15.75,22.645 17.3075,25.76 19.7575,27.8425 L20.79,26.4075 C18.7775,24.64 17.5,22.05 17.5,19.1625 Z" id="Path" fill="#FFFFFF" fill-rule="nonzero"></path>
                    <path d="M36.3825,10.6225 L35.35,12.0575 C37.275,13.825 38.5,16.345 38.5,19.1625 C38.5,21.98 37.275,24.5175 35.35,26.285 L36.3825,27.72 C38.745,25.6375 40.25,22.575 40.25,19.1625 C40.25,15.7675 38.745,12.705 36.3825,10.6225 Z" id="Path" fill="#FFFFFF" fill-rule="nonzero"></path>
                    <path d="M34.6325,14.28 L33.5825,15.7325 C34.4575,16.6775 35,17.92 35,19.285 C35,20.615 34.4925,21.805 33.6875,22.7325 L34.7375,24.2025 C35.98,22.9425 36.75,21.21 36.75,19.285 C36.75,17.325 35.9275,15.5575 34.6325,14.28 Z" id="Path" fill="#FFFFFF" fill-rule="nonzero"></path>
                    <path d="M21.5075,14.1575 C20.125,15.435 19.25,17.255 19.25,19.3025 C19.25,21.28 20.0725,23.065 21.4025,24.3425 L22.435,22.89 C21.56,21.945 21,20.685 21,19.3025 C21,17.85 21.595,16.5375 22.54,15.5925 L21.5075,14.1575 Z" id="Path" fill="#FFFFFF" fill-rule="nonzero"></path>
                    <path d="M28,17.5 C28.9625,17.5 29.75,18.2875 29.75,19.25 C29.75,20.2125 28.9625,21 28,21 C27.0375,21 26.25,20.2125 26.25,19.25 C26.25,18.2875 27.0375,17.5 28,17.5 L28,17.5 Z M28,15.75 C26.075,15.75 24.5,17.325 24.5,19.25 C24.5,21.175 26.075,22.75 28,22.75 C29.925,22.75 31.5,21.175 31.5,19.25 C31.5,17.325 29.925,15.75 28,15.75 L28,15.75 Z" id="Shape" fill="#FFFFFF" fill-rule="nonzero"></path>
                    <rect id="Rectangle" fill="#FFFFFF" fill-rule="nonzero" x="27.125" y="21" width="1.75" height="28"></rect>
                    <rect id="Rectangle" x="0" y="0" width="56" height="56"></rect>
                </g>
            </g>
        </g>
    </g>
</svg>