<?xml version="1.0" encoding="UTF-8"?>
<svg width="42px" height="42px" viewBox="0 0 42 42" version="1.1" xmlns="http://www.w3.org/2000/svg" xmlns:xlink="http://www.w3.org/1999/xlink">
    <!-- Generator: Sketch 57.1 (83088) - https://sketch.com -->
    <title>176-G40px</title>
    <desc>Created with Sketch.</desc>
    <g id="NEW_icons" stroke="none" stroke-width="1" fill="none" fill-rule="evenodd">
        <g id="icons_UD_new-Copy" transform="translate(-244.000000, -22612.000000)">
            <g id="176-G40px" transform="translate(245.000000, 22613.000000)">
                <circle id="Oval-Copy-987" stroke="#E3E8EC" cx="20" cy="20" r="20"></circle>
                <g id="176-B32px-Copy" transform="translate(4.000000, 4.000000)">
                    <path d="M24.5,20.64 L24.5,26.36 L22.94,25.59 L22.5,25.37 L22.06,25.59 L20.5,26.36 L20.5,20.64 C20.15,20.5 19.81,20.33 19.5,20.13 L19.5,27.98 L22.5,26.51 L25.5,27.98 L25.5,20.13 C25.19,20.33 24.85,20.5 24.5,20.64 Z" id="Path" fill="#101828" fill-rule="nonzero"></path>
                    <polygon id="Path" fill="#101828" fill-rule="nonzero" points="22.01 13 22.01 14 22.01 18.01 23.01 18.01 23.01 13"></polygon>
                    <polygon id="Path" fill="#101828" fill-rule="nonzero" points="22 13 21.98 13.01 20.67 14.29 21.37 15 22.94 13.47 22.46 13"></polygon>
                    <path d="M22.5,10.99 C24.98,10.99 27,13.01 27,15.5 C27,17.99 24.98,20.01 22.5,20.01 C20.02,20.01 18,17.99 18,15.5 C18,13.01 20.01,10.99 22.5,10.99 L22.5,10.99 Z M22.5,9.99 C19.46,9.99 17,12.46 17,15.51 C17,18.56 19.46,21.03 22.5,21.03 C25.54,21.03 28,18.55 28,15.5 C28,12.45 25.54,9.99 22.5,9.99 L22.5,9.99 Z" id="Shape" fill="#101828" fill-rule="nonzero"></path>
                    <path d="M24.5,20.64 L24.5,26.36 L22.94,25.59 L22.5,25.37 L22.06,25.59 L20.5,26.36 L20.5,20.64 C20.15,20.5 19.81,20.33 19.5,20.13 L19.5,27.98 L22.5,26.51 L25.5,27.98 L25.5,20.13 C25.19,20.33 24.85,20.5 24.5,20.64 Z" id="Path" fill="#101828" fill-rule="nonzero"></path>
                    <path d="M18.18,9.97 L19.09,9.97 C19.92,9.45 20.88,9.11 21.9,9.01 C20.3,6.01 17.14,3.97 13.51,3.97 C13.51,3.97 13.5,3.97 13.5,3.97 C13.5,3.97 13.5,3.97 13.49,3.97 C13.48,3.97 13.48,3.97 13.47,3.97 C8.24,3.99 4,8.23 4,13.47 C4,18.7 8.24,22.95 13.47,22.97 C13.48,22.97 13.48,22.97 13.49,22.97 C13.49,22.97 13.49,22.97 13.5,22.97 C13.5,22.97 13.51,22.97 13.51,22.97 C15.34,22.97 17.05,22.44 18.5,21.54 L18.5,20.32 C17.83,20.81 17.09,21.21 16.29,21.49 C16.74,20.95 17.12,20.27 17.44,19.49 C17.18,19.17 16.96,18.82 16.77,18.45 C16.15,20.32 15.18,21.6 14.02,21.89 L14.02,17.96 L16.54,17.96 C16.41,17.64 16.3,17.3 16.22,16.96 L14.02,16.96 L14.02,13.96 L16.22,13.96 C16.3,13.62 16.41,13.28 16.54,12.96 L14.02,12.96 L14.02,9.96 L17.17,9.96 L18.18,9.97 Z M20.71,8.97 L17.96,8.97 C17.58,7.53 17.01,6.32 16.29,5.45 C18.13,6.09 19.69,7.34 20.71,8.97 Z M14.01,5.04 C15.27,5.36 16.31,6.82 16.92,8.97 L14.01,8.97 L14.01,5.04 L14.01,5.04 Z M10.67,5.46 C9.96,6.34 9.39,7.54 9.01,8.97 L6.3,8.97 C7.32,7.36 8.85,6.11 10.67,5.46 Z M5.76,9.97 L8.79,9.97 C8.61,10.91 8.51,11.92 8.48,12.97 L5.03,12.97 C5.09,11.91 5.34,10.89 5.76,9.97 Z M5.03,13.97 L8.48,13.97 C8.51,15.02 8.61,16.03 8.79,16.97 L5.76,16.97 C5.34,16.04 5.09,15.03 5.03,13.97 Z M6.3,17.97 L9.01,17.97 C9.39,19.4 9.95,20.6 10.67,21.48 C8.85,20.83 7.32,19.58 6.3,17.97 Z M13.01,21.91 C11.73,21.61 10.67,20.14 10.05,17.97 L13.01,17.97 L13.01,21.91 L13.01,21.91 Z M13.01,16.97 L9.8,16.97 C9.61,16.05 9.5,15.04 9.48,13.97 L13,13.97 L13,16.97 L13.01,16.97 Z M13.01,12.97 L9.48,12.97 C9.51,11.9 9.62,10.89 9.8,9.97 L13,9.97 L13,12.97 L13.01,12.97 Z M13.01,8.97 L10.05,8.97 C10.67,6.8 11.73,5.33 13.01,5.03 L13.01,8.97 L13.01,8.97 Z" id="Shape" fill="#101828" fill-rule="nonzero"></path>
                    <rect id="Rectangle" x="0" y="0" width="32" height="32"></rect>
                </g>
            </g>
        </g>
    </g>
</svg>