<?xml version="1.0" encoding="UTF-8"?>
<svg width="56px" height="56px" viewBox="0 0 56 56" version="1.1" xmlns="http://www.w3.org/2000/svg" xmlns:xlink="http://www.w3.org/1999/xlink">
    <!-- Generator: Sketch 57.1 (83088) - https://sketch.com -->
    <title>105-G56px</title>
    <desc>Created with Sketch.</desc>
    <g id="NEW_icons" stroke="none" stroke-width="1" fill="none" fill-rule="evenodd">
        <g id="icons_UD_new-Copy" transform="translate(-1728.000000, -13560.000000)">
            <g id="105-G56px" transform="translate(1728.000000, 13560.000000)">
                <circle id="Oval-Copy-668" fill="#E3E8EC" cx="28" cy="28" r="28"></circle>
                <g id="105-B32px-Copy-4" transform="translate(8.000000, 8.000000)">
                    <path d="M11.875,11.25 C14.975,11.25 17.5,13.775 17.5,16.875 C17.5,19.975 14.975,22.5 11.875,22.5 C8.775,22.5 6.25,19.975 6.25,16.875 C6.25,13.775 8.775,11.25 11.875,11.25 L11.875,11.25 Z M11.875,10 C8.075,10 5,13.075 5,16.875 C5,20.675 8.075,23.75 11.875,23.75 C15.675,23.75 18.75,20.675 18.75,16.875 C18.75,13.075 15.675,10 11.875,10 L11.875,10 Z" id="Shape" fill="#101828" fill-rule="nonzero"></path>
                    <path d="M28.125,11.25 C31.225,11.25 33.75,13.775 33.75,16.875 C33.75,19.975 31.225,22.5 28.125,22.5 C25.025,22.5 22.5,19.975 22.5,16.875 C22.5,13.775 25.025,11.25 28.125,11.25 L28.125,11.25 Z M28.125,10 C24.325,10 21.25,13.075 21.25,16.875 C21.25,20.675 24.325,23.75 28.125,23.75 C31.925,23.75 35,20.675 35,16.875 C35,13.075 31.925,10 28.125,10 L28.125,10 Z" id="Shape" fill="#101828" fill-rule="nonzero"></path>
                    <path d="M25.625,16.25 C25.275,16.25 25,16.525 25,16.875 C25,17.225 25.275,17.5 25.625,17.5 C25.975,17.5 26.25,17.225 26.25,16.875 C26.25,16.525 25.975,16.25 25.625,16.25 L25.625,16.25 Z" id="Path" fill="#101828" fill-rule="nonzero"></path>
                    <path d="M30.625,16.25 C30.275,16.25 30,16.525 30,16.875 C30,17.225 30.275,17.5 30.625,17.5 C30.975,17.5 31.25,17.225 31.25,16.875 C31.25,16.525 30.975,16.25 30.625,16.25 L30.625,16.25 Z" id="Path" fill="#101828" fill-rule="nonzero"></path>
                    <path d="M9.375,16.25 C9.025,16.25 8.75,16.525 8.75,16.875 C8.75,17.225 9.025,17.5 9.375,17.5 C9.725,17.5 10,17.225 10,16.875 C10,16.525 9.725,16.25 9.375,16.25 L9.375,16.25 Z" id="Path" fill="#101828" fill-rule="nonzero"></path>
                    <path d="M14.375,16.25 C14.025,16.25 13.75,16.525 13.75,16.875 C13.75,17.225 14.025,17.5 14.375,17.5 C14.725,17.5 15,17.225 15,16.875 C15,16.525 14.725,16.25 14.375,16.25 L14.375,16.25 Z" id="Path" fill="#101828" fill-rule="nonzero"></path>
                    <path d="M25.125,20.15 C26.8625,21.6125 29.4,21.6125 31.125,20.15 L30.375,19.15 C29.0875,20.2875 27.15,20.275 25.8625,19.15 L25.125,20.15 Z" id="Path" fill="#101828" fill-rule="nonzero"></path>
                    <path d="M8.875,20.15 C10.6125,21.6125 13.15,21.6125 14.875,20.15 L14.125,19.15 C12.8375,20.2875 10.9,20.275 9.6125,19.15 L8.875,20.15 Z" id="Path" fill="#101828" fill-rule="nonzero"></path>
                    <g id="Group" transform="translate(8.750000, 7.500000)" fill="#101828" fill-rule="nonzero">
                        <path d="M3.75,3.75 L2.5,3.75 C2.5,2.675 3.15,0.625 5.625,0.625 L5.625,1.875 C3.8625,1.875 3.75,3.4375 3.75,3.75 Z" id="Path"></path>
                        <path d="M2.5,3.75 C2.5,3.4375 2.3875,1.875 0.625,1.875 L0.625,0.625 C3.1,0.625 3.75,2.675 3.75,3.75 L2.5,3.75 L3.125,3.75 L2.5,3.75 Z" id="Path"></path>
                    </g>
                    <polygon id="Path" fill="#101828" fill-rule="nonzero" points="17.5 15 11.6125 15 10.625 14.0125 9.6375 15 6.25 15 6.25 13.75 9.1125 13.75 10.625 12.2375 12.1375 13.75 17.5 13.75"></polygon>
                    <polygon id="Path" fill="#101828" fill-rule="nonzero" points="33.75 15 27.8625 15 26.875 14.0125 25.8875 15 22.5 15 22.5 13.75 25.3625 13.75 26.875 12.2375 28.3875 13.75 33.75 13.75"></polygon>
                    <polygon id="Path" fill="#101828" fill-rule="nonzero" points="25 11.775 23.75 11.775 23.75 7.25 28.3125 8.7375 27.925 9.925 25 8.975"></polygon>
                    <polygon id="Path" fill="#101828" fill-rule="nonzero" points="32.4875 11.775 31.2375 11.775 31.2375 8.975 28.325 9.925 27.925 8.7375 32.4875 7.25"></polygon>
                    <rect id="Rectangle" fill="#101828" fill-rule="nonzero" x="27.5" y="8.75" width="1.25" height="1.25"></rect>
                    <g id="Group" transform="translate(13.750000, 23.750000)" fill="#101828" fill-rule="nonzero">
                        <rect id="Rectangle" x="10.625" y="3.775" width="1.25" height="2.4875"></rect>
                        <rect id="Rectangle" x="8.125" y="2.5125" width="1.25" height="5"></rect>
                        <rect id="Rectangle" x="5.625" y="0" width="1.25" height="8.75"></rect>
                        <rect id="Rectangle" x="0.625" y="3.8" width="1.25" height="2.4875"></rect>
                        <rect id="Rectangle" x="3.125" y="2.5125" width="1.25" height="5"></rect>
                    </g>
                    <rect id="Rectangle" x="0" y="0" width="40" height="40"></rect>
                </g>
            </g>
        </g>
    </g>
</svg>