<?xml version="1.0" encoding="UTF-8"?>
<svg width="80px" height="80px" viewBox="0 0 80 80" version="1.1" xmlns="http://www.w3.org/2000/svg" xmlns:xlink="http://www.w3.org/1999/xlink">
    <!-- Generator: Sketch 57.1 (83088) - https://sketch.com -->
    <title>031-B80px</title>
    <desc>Created with Sketch.</desc>
    <g id="031-B80px" stroke="none" stroke-width="1" fill="none" fill-rule="evenodd">
        <g>
            <polygon id="Path" fill="#101828" fill-rule="nonzero" points="57.5 35 56.3 40.75 55 35 52.5 35 51.175 40.75 50 35 50 35 47.5 35 49.9 44.75 49.975 45 52.5 45 53.725 39.225 55 45 57.5 45 60 35 60 35"></polygon>
            <polygon id="Path" fill="#101828" fill-rule="nonzero" points="43.75 35 42.55 40.75 41.25 35 38.75 35 37.425 40.75 36.25 35 36.25 35 33.75 35 36.15 44.75 36.225 45 38.75 45 39.975 39.225 41.25 45 43.75 45 46.25 35 46.25 35"></polygon>
            <polygon id="Path" fill="#101828" fill-rule="nonzero" points="30 35 28.8 40.75 27.5 35 25 35 23.675 40.75 22.5 35 22.5 35 20 35 22.4 44.75 22.475 45 25 45 26.225 39.225 27.5 45 30 45 32.5 35 32.5 35"></polygon>
            <path d="M40,10 C40,10 39.975,10 39.975,10 C39.975,10 39.975,10 39.95,10 C39.925,10 39.9,10 39.875,10 C23.375,10.075 10,23.475 10,40 C10,56.525 23.375,69.925 39.9,70 C39.925,70 39.95,70 39.975,70 C39.975,70 39.975,70 40,70 C40,70 40.025,70 40.025,70 C56.6,70 70.025,56.575 70.025,40 C70.025,23.425 56.575,10 40,10 Z M63.7,26.125 L55.375,26.125 C53.8,20.975 51.4,16.7 48.475,13.85 C54.925,15.95 60.325,20.375 63.7,26.125 Z M41.25,12.625 C46.075,13.425 50.325,18.7 52.75,26.125 L41.25,26.125 L41.25,12.625 Z M38.75,12.625 L38.75,26.125 L27.175,26.125 C29.6,18.65 33.875,13.375 38.75,12.625 Z M31.375,13.9 C28.45,16.75 26.075,21 24.525,26.125 L16.3,26.125 C19.65,20.4 25,16.025 31.375,13.9 Z M16.3,53.875 L24.525,53.875 C26.075,59 28.475,63.25 31.375,66.1 C25,63.975 19.65,59.6 16.3,53.875 Z M38.75,67.375 C33.875,66.625 29.6,61.325 27.175,53.875 L38.75,53.875 L38.75,67.375 Z M41.25,67.375 L41.25,53.875 L52.75,53.875 C50.325,61.3 46.075,66.575 41.25,67.375 Z M48.475,66.15 C51.425,63.3 53.825,59.025 55.375,53.875 L63.7,53.875 C60.325,59.625 54.925,64.05 48.475,66.15 Z M65,51.375 L64.875,51.375 L56.05,51.375 L53.45,51.375 L41.25,51.375 L38.75,51.375 L26.45,51.375 L23.85,51.375 L15,51.375 L15,51.375 C13.575,48.25 12.725,44.85 12.575,41.25 L17.5,41.25 L17.5,38.75 L12.575,38.75 C12.75,35.15 13.575,31.725 15,28.625 L15,28.625 L23.85,28.625 L26.45,28.625 L38.75,28.625 L41.25,28.625 L53.475,28.625 L56.075,28.625 L64.9,28.625 L65,28.625 C66.425,31.75 67.275,35.15 67.425,38.75 L62.5,38.75 L62.5,41.25 L67.425,41.25 C67.275,44.85 66.425,48.275 65,51.375 Z" id="Shape" fill="#101828" fill-rule="nonzero"></path>
            <rect id="Rectangle" x="0" y="0" width="80" height="80"></rect>
        </g>
    </g>
</svg>