<?xml version="1.0" encoding="UTF-8"?>
<svg width="56px" height="56px" viewBox="0 0 56 56" version="1.1" xmlns="http://www.w3.org/2000/svg" xmlns:xlink="http://www.w3.org/1999/xlink">
    <!-- Generator: Sketch 54.1 (76490) - https://sketchapp.com -->
    <title>012-G56px</title>
    <desc>Created with Sketch.</desc>
    <g id="NEW_icons" stroke="none" stroke-width="1" fill="none" fill-rule="evenodd">
        <g id="icons_UD_new-Copy" transform="translate(-446.000000, -1855.000000)">
            <g id="012-G56px" transform="translate(446.000000, 1855.000000)">
                <circle id="Oval-Copy-158" fill="#E3E8EC" cx="28" cy="28" r="28"></circle>
                <g id="012-B32px-Copy-4" transform="translate(8.000000, 8.000000)">
                    <g id="Group-29-Copy-2_1_" transform="translate(6.250000, 5.000000)" fill="#101828" fill-rule="nonzero">
                        <g id="Stroke-310_1_" transform="translate(13.750000, 0.000000)">
                            <path d="M4.1125,7.7375 C3.0375,7.7375 2.025,7.3 1.275,6.5 C0.45,5.5875 0.1,4.3625 0.325,3.125 C0.6125,1.6 1.8375,0.375 3.3625,0.075 C4.6375,-0.175 5.9375,0.225 6.85,1.1375 C7.7625,2.05 8.15,3.35 7.9125,4.625 L7.9125,4.625 C7.6,6.2625 6.225,7.525 4.55,7.7125 C4.4125,7.725 4.2625,7.7375 4.1125,7.7375 Z M4.125,1.2625 C3.95,1.2625 3.775,1.275 3.6,1.3125 C2.5875,1.5 1.75,2.35 1.5625,3.3625 C1.4,4.2 1.6375,5.0375 2.2,5.65 C2.775,6.2625 3.575,6.5625 4.4125,6.475 C5.525,6.35 6.475,5.475 6.675,4.4 L6.675,4.4 C6.8375,3.5125 6.5875,2.65 5.9625,2.0375 C5.475,1.525 4.8125,1.2625 4.125,1.2625 Z" id="Shape"></path>
                        </g>
                        <g id="Stroke-312_2_" transform="translate(0.000000, 6.250000)">
                            <path d="M19.2125,23.7375 C18.7125,23.7375 18.225,23.575 17.8125,23.275 C17.3,22.9 16.9625,22.3375 16.8625,21.7 L15.825,14.9125 L12.2125,12.075 L11.05,16.7375 C10.7875,17.7875 9.85,18.5125 8.775,18.5125 L2.125,18.5125 C1.3375,18.5125 0.65,18.1 0.275,17.4125 C-0.1,16.725 -0.075,15.9125 0.35,15.2625 C0.8,14.575 1.55,14.15 2.375,14.15 L7.0125,14.15 C6.975,13.475 6.8875,10.6625 8.0625,8.6 L11.0875,3.9 L10.0375,3.9 C9.35,3.9 8.7125,4.25 8.3375,4.8375 L6.7875,7.25 C6.4375,7.8 5.825,8.1375 5.1625,8.1375 C4.425,8.1375 3.775,7.75 3.4125,7.1125 C3.05,6.475 3.075,5.7125 3.4625,5.0875 L4.8375,2.8625 C5.85,1.2125 7.625,0.2375 9.55,0.2375 L16.975,0.2375 C17.8375,0.2375 18.625,0.7375 19,1.5125 L20.525,4.675 C20.675,4.95 20.95,5.125 21.25,5.125 L25.05,5.125 C25.5375,5.125 25.9875,5.3125 26.325,5.6625 C26.6625,6.0125 26.85,6.4625 26.85,6.95 C26.8375,7.9375 26.025,8.7375 25.05,8.7375 L20.4125,8.7375 C19.2875,8.7375 18.2375,8.125 17.675,7.15 L17.3,6.5125 L16.0875,9.0375 L19.2375,12.0375 C19.8875,12.65 20.3,13.475 20.425,14.3625 L21.55,20.975 C21.65,21.6 21.5,22.2375 21.1375,22.75 C20.775,23.2625 20.2125,23.6125 19.5875,23.7125 C19.4625,23.725 19.3375,23.7375 19.2125,23.7375 Z M17.05,14.65 L18.1,21.525 C18.15,21.825 18.3,22.0875 18.55,22.275 C18.7875,22.45 19.0875,22.525 19.3875,22.475 C19.6875,22.425 19.95,22.2625 20.125,22.025 C20.3,21.775 20.375,21.4875 20.325,21.1875 L19.2,14.5625 C19.1125,13.9375 18.825,13.375 18.3875,12.95 L14.9,9.625 C14.7,9.4375 14.65,9.15 14.7625,8.9 L16.675,4.9125 C16.775,4.7 16.975,4.575 17.2125,4.5625 C17.45,4.55 17.6625,4.675 17.7875,4.875 L18.7625,6.5125 C19.1,7.1125 19.7375,7.4875 20.4125,7.4875 L25.05,7.4875 C25.35,7.4875 25.6,7.2375 25.6,6.9375 C25.6,6.7875 25.55,6.65 25.4375,6.5375 C25.3375,6.4375 25.1875,6.375 25.05,6.375 L21.25,6.375 C20.475,6.375 19.75,5.925 19.4125,5.225 L17.8875,2.05 C17.725,1.7125 17.375,1.4875 16.9875,1.4875 L9.5625,1.4875 C8.0625,1.4875 6.7,2.25 5.9125,3.525 L4.5375,5.75 C4.3875,5.9875 4.375,6.2625 4.5125,6.5125 C4.7625,6.95 5.4625,7.0125 5.7375,6.5875 L7.2875,4.1625 C7.8875,3.2125 8.925,2.65 10.0375,2.65 L12.2375,2.65 C12.4625,2.65 12.675,2.775 12.7875,2.975 C12.9,3.175 12.8875,3.425 12.7625,3.6125 L9.1375,9.2375 C8.025,11.1875 8.275,14.2125 8.275,14.25 C8.2625,14.925 7.7875,15.3875 7.175,15.3875 L2.375,15.3875 C1.975,15.3875 1.6125,15.5875 1.4,15.925 C1.225,16.2 1.2125,16.525 1.375,16.8125 C1.525,17.0875 1.8125,17.2625 2.1375,17.2625 L8.7875,17.2625 C9.2875,17.2625 9.725,16.925 9.85,16.4375 L11.0875,11.4875 C11.2,11.025 11.575,10.7125 12.05,10.6625 C12.4625,10.625 12.8375,10.8125 13.0625,11.1375 L16.6875,14 C16.875,14.1625 17.0125,14.3875 17.05,14.65 Z" id="Shape"></path>
                        </g>
                    </g>
                    <rect id="Rectangle" x="0" y="0" width="40" height="40"></rect>
                </g>
            </g>
        </g>
    </g>
</svg>