<?xml version="1.0" encoding="UTF-8"?>
<svg width="80px" height="80px" viewBox="0 0 80 80" version="1.1" xmlns="http://www.w3.org/2000/svg" xmlns:xlink="http://www.w3.org/1999/xlink">
    <!-- Generator: Sketch 57.1 (83088) - https://sketch.com -->
    <title>141-B80px</title>
    <desc>Created with Sketch.</desc>
    <g id="141-B80px" stroke="none" stroke-width="1" fill="none" fill-rule="evenodd">
        <g>
            <path d="M52.5,66.25 C44.925,66.25 38.75,60.075 38.75,52.5 L41.25,52.5 C41.25,58.7 46.3,63.75 52.5,63.75 L52.5,66.25 Z" id="Path" fill="#101828" fill-rule="nonzero"></path>
            <path d="M66.25,52.5 L63.75,52.5 C63.75,46.3 58.7,41.25 52.5,41.25 L52.5,38.75 C60.075,38.75 66.25,44.925 66.25,52.5 Z" id="Path" fill="#101828" fill-rule="nonzero"></path>
            <path d="M52.5,37.5 C60.775,37.5 67.5,44.225 67.5,52.5 C67.5,60.775 60.775,67.5 52.5,67.5 C44.225,67.5 37.5,60.775 37.5,52.5 C37.5,44.225 44.225,37.5 52.5,37.5 L52.5,37.5 Z M52.5,35 C42.825,35 35,42.825 35,52.5 C35,62.175 42.825,70 52.5,70 C62.175,70 70,62.175 70,52.5 C70,42.825 62.175,35 52.5,35 L52.5,35 Z" id="Shape" fill="#101828" fill-rule="nonzero"></path>
            <path d="M58.775,49.8 L53.2,44.2 C53,44 52.65,44 52.45,44.2 L49.3,47.35 C48.35,48.3 48.3749375,49.25 48.3749375,50.35 L48.3749375,59.25 C48.3749375,59.7 48.525,60.15 48.85,60.45 C49.15,60.75 49.575,60.95 49.975,60.95 L56.45,60.95 C56.675,60.95 56.85,60.825 56.95,60.625 C57.025,60.425 56.975,60.2 56.825,60.05 L53.05,56.275 L58.775,50.55 C58.975,50.325 58.975,50 58.775,49.8 Z M54.625,59.65 L50,59.65 C49.95,59.65 49.9,59.625 49.9,59.625 C49.875,59.575 49.85,59.55 49.85,59.525 L49.85,59.45 C50.05,59.225 50.65,58.625 50.7,58.575 L52.125,57.15 L54.625,59.65 Z" id="Shape" fill="#101828" fill-rule="nonzero"></path>
            <path d="M32.675,55 L32.5,55 L32.5,37.5 L32.5,32.5 L32.5,30 L32.5,25.05 L35,25.05 L35,30 L35,32.5 L35,37.5 L35,42.825 C35.7,41.55 36.55,40.375 37.5,39.3 L37.5,32.5 L52.5,32.5 C53.35,32.5 54.175,32.575 55,32.675 L55,32.5 C56.375,32.5 57.5,31.375 57.5,30 L57.5,25 C57.5,23.625 56.375,22.5 55,22.5 L47.475,22.5 C47.475,19.9 47.175,17.65 46.825,15.95 C46.575,14.725 45.5,13.95 44.375,13.95 C43.925,13.95 43.475,14.075 43.075,14.325 L36.75,18.225 C36.3,17.775 35.675,17.5 35,17.5 L32.5,17.5 C31.825,17.5 31.2,17.775 30.75,18.225 L24.425,14.325 C24,14.075 23.55,13.95 23.125,13.95 C22,13.95 20.925,14.725 20.675,15.95 C20.325,17.65 20.025,19.9 20.025,22.5 L12.5,22.5 C11.125,22.5 10,23.625 10,25 L10,30 C10,31.375 11.125,32.5 12.5,32.5 L12.5,55 C12.5,56.375 13.625,57.5 15,57.5 L30,57.5 L33.15,57.5 C32.95,56.675 32.775,55.85 32.675,55 Z M37.5,20.7 L44.375,16.45 L44.375,16.45 C44.7,18.025 44.975,20.1 45,22.5 L37.5,22.5 L37.5,20.7 Z M37.5,25 L55,25 L55,30 L52.5,30 L37.5,30 L37.5,25 Z M32.5,20 L35,20 L35,22.5 L32.5,22.5 L32.5,20 Z M30,55 L15,55 L15,32.5 L30,32.5 L30,55 Z M30,30 L15,30 L12.5,30 L12.5,25 L30,25 L30,30 Z M30,22.5 L22.5,22.5 C22.5,20.1 22.775,18.025 23.1,16.45 L23.1,16.45 L30,20.7 L30,22.5 Z" id="Shape" fill="#101828" fill-rule="nonzero"></path>
            <rect id="Rectangle" x="0" y="0" width="80" height="80"></rect>
        </g>
    </g>
</svg>