<?xml version="1.0" encoding="UTF-8"?>
<svg width="42px" height="42px" viewBox="0 0 42 42" version="1.1" xmlns="http://www.w3.org/2000/svg" xmlns:xlink="http://www.w3.org/1999/xlink">
    <!-- Generator: Sketch 54.1 (76490) - https://sketchapp.com -->
    <title>005-G40px</title>
    <desc>Created with Sketch.</desc>
    <g id="NEW_icons" stroke="none" stroke-width="1" fill="none" fill-rule="evenodd">
        <g id="icons_UD_new-Copy" transform="translate(-1526.000000, -866.000000)">
            <g id="005-G40px" transform="translate(1527.000000, 867.000000)">
                <circle id="Oval-Copy-97" stroke="#E3E8EC" cx="20" cy="20" r="20"></circle>
                <g id="005-B32px-Copy-2" transform="translate(4.000000, 4.000000)">
                    <path d="M16,5 C18.76,5 21,7.24 21,10 C21,12.76 18.76,15 16,15 C13.24,15 11,12.76 11,10 C11,7.24 13.24,5 16,5 L16,5 Z M16,4 C12.69,4 10,6.69 10,10 C10,13.31 12.69,16 16,16 C19.31,16 22,13.31 22,10 C22,6.69 19.31,4 16,4 L16,4 Z" id="Shape" fill="#101828" fill-rule="nonzero"></path>
                    <path d="M7,28 L7,22 C7,20.35 8.35,19 10,19 L22,19 C23.65,19 25,20.35 25,22 L25,28 L26,28 L26,22 C26,19.79 24.21,18 22,18 L10,18 C7.79,18 6,19.79 6,22 L6,28 L7,28 Z" id="Path" fill="#101828" fill-rule="nonzero"></path>
                    <rect id="Rectangle" x="0" y="0" width="32" height="32"></rect>
                </g>
            </g>
        </g>
    </g>
</svg>