<?xml version="1.0" encoding="UTF-8"?>
<svg width="80px" height="80px" viewBox="0 0 80 80" version="1.1" xmlns="http://www.w3.org/2000/svg" xmlns:xlink="http://www.w3.org/1999/xlink">
    <!-- Generator: Sketch 57.1 (83088) - https://sketch.com -->
    <title>161-B80px</title>
    <desc>Created with Sketch.</desc>
    <g id="161-B80px" stroke="none" stroke-width="1" fill="none" fill-rule="evenodd">
        <g>
            <path d="M67.525,22.5 L54.425,22.5 C54.975,23.275 55.45,24.125 55.875,25 L67.525,25 L67.575,25.05 L67.525,52.55 L12.6,52.5 L12.65,25 L24.3,25 C24.725,24.125 25.2,23.275 25.75,22.5 L12.65,22.5 C11.25,22.5 10.1,23.65 10.1,25.05 L10.1,52.5 C10.1,53.9 11.25,55.05 12.65,55.05 L67.55,55.05 C68.95,55.05 70.1,53.9 70.1,52.5 L70.1,25.05 C70.075,23.625 68.95,22.5 67.525,22.5 Z" id="Path" fill="#101828" fill-rule="nonzero"></path>
            <rect id="Rectangle" fill="#101828" fill-rule="nonzero" x="38.85" y="20" width="2.5" height="25.925"></rect>
            <path d="M40.1,20 C47,20 52.6,25.6 52.6,32.5 C52.6,39.4 47,45 40.1,45 C33.2,45 27.6,39.4 27.6,32.5 C27.6,25.6 33.2,20 40.1,20 L40.1,20 Z M40.1,17.5 C31.825,17.5 25.1,24.225 25.1,32.5 C25.1,40.775 31.825,47.5 40.1,47.5 C48.375,47.5 55.1,40.775 55.1,32.5 C55.1,24.225 48.375,17.5 40.1,17.5 L40.1,17.5 Z" id="Shape" fill="#101828" fill-rule="nonzero"></path>
            <path d="M40.075,20 C43,20 46.275,25.125 46.275,32.5 C46.275,39.875 43,45 40.075,45 C37.15,45 33.875,39.875 33.875,32.5 C33.875,25.125 37.125,20 40.075,20 L40.075,20 Z M40.075,17.5 C35.275,17.5 31.375,24.225 31.375,32.5 C31.375,40.775 35.275,47.5 40.075,47.5 C44.875,47.5 48.775,40.775 48.775,32.5 C48.775,24.225 44.875,17.5 40.075,17.5 L40.075,17.5 Z" id="Shape" fill="#101828" fill-rule="nonzero"></path>
            <rect id="Rectangle" fill="#101828" fill-rule="nonzero" x="27.45" y="37.575" width="25.275" height="2.5"></rect>
            <rect id="Rectangle" fill="#101828" fill-rule="nonzero" x="27.45" y="24.925" width="25.275" height="2.5"></rect>
            <rect id="Rectangle" fill="#101828" fill-rule="nonzero" x="25.875" y="31.25" width="28.425" height="2.5"></rect>
            <path d="M40.05,54.875 C29.275,54.875 21.2,56.525 17.6,57.425 L17.6,60 C20.7,59.2 28.95,57.375 40.05,57.375 C51.25,57.375 59.575,59.225 62.6,60.025 L62.6,57.45 C59.025,56.525 50.9,54.875 40.05,54.875 Z" id="Path" fill="#101828" fill-rule="nonzero"></path>
            <rect id="Rectangle" x="0" y="0" width="80" height="80"></rect>
        </g>
    </g>
</svg>