<?xml version="1.0" encoding="UTF-8"?>
<svg width="80px" height="80px" viewBox="0 0 80 80" version="1.1" xmlns="http://www.w3.org/2000/svg" xmlns:xlink="http://www.w3.org/1999/xlink">
    <!-- Generator: Sketch 57.1 (83088) - https://sketch.com -->
    <title>079-G80px</title>
    <desc>Created with Sketch.</desc>
    <g id="NEW_icons" stroke="none" stroke-width="1" fill="none" fill-rule="evenodd">
        <g id="icons_UD_new-Copy" transform="translate(-2051.000000, -10268.000000)">
            <g id="079-G80px" transform="translate(2051.000000, 10268.000000)">
                <circle id="Oval-Copy-514" fill="#E3E8EC" cx="40" cy="40" r="40"></circle>
                <g id="079-B32px-Copy-5" transform="translate(14.000000, 12.000000)">
                    <path d="M21,45.5 C21.4725,45.5 21.875,45.115 21.875,44.625 C21.875,44.135 21.4725,43.75 21,43.75 C20.5275,43.75 20.125,44.135 20.125,44.625 C20.125,45.115 20.5275,45.5 21,45.5" id="Path" fill="#101828" fill-rule="nonzero"></path>
                    <path d="M33.25,45.5 L33.25,47.1625 C33.25,47.215 33.215,47.25 33.1625,47.25 L8.8375,47.25 C8.785,47.25 8.75,47.215 8.75,47.1625 L8.75,42 L22.75,42 L22.75,40.25 L8.75,40.25 L8.75,8.8375 C8.75,8.785 8.785,8.75 8.8375,8.75 L33.1625,8.75 C33.215,8.75 33.25,8.785 33.25,8.8375 L33.25,24.5 L35,24.5 L35,8.8375 C35,7.8225 34.1775,7 33.1625,7 L8.8375,7 C7.8225,7 7,7.8225 7,8.8375 L7,40.25 L7,42 L7,47.1625 C7,48.1775 7.8225,49 8.8375,49 L33.1625,49 C34.1775,49 35,48.1775 35,47.1625 L35,45.5 L33.25,45.5 Z" id="Path" fill="#101828" fill-rule="nonzero"></path>
                    <path d="M47.25,28 L47.25,42 L26.25,42 L26.25,28 L47.25,28 L47.25,28 Z M47.25,26.25 L26.25,26.25 C25.2875,26.25 24.5,27.0375 24.5,28 L24.5,42 C24.5,42.9625 25.2875,43.75 26.25,43.75 L47.25,43.75 C48.2125,43.75 49,42.9625 49,42 L49,28 C49,27.0375 48.2125,26.25 47.25,26.25 L47.25,26.25 Z" id="Shape" fill="#101828" fill-rule="nonzero"></path>
                    <polygon id="Path" fill="#101828" fill-rule="nonzero" points="36.75 36.05 25.235 28.2275 26.215 26.775 36.75 33.95 47.285 26.775 48.265 28.2275"></polygon>
                    <rect id="Rectangle" x="0" y="0" width="56" height="56"></rect>
                </g>
            </g>
        </g>
    </g>
</svg>