<?xml version="1.0" encoding="UTF-8"?>
<svg width="40px" height="40px" viewBox="0 0 40 40" version="1.1" xmlns="http://www.w3.org/2000/svg" xmlns:xlink="http://www.w3.org/1999/xlink">
    <!-- Generator: Sketch 57.1 (83088) - https://sketch.com -->
    <title>236-B40px</title>
    <desc>Created with Sketch.</desc>
    <g id="236-B40px" stroke="none" stroke-width="1" fill="none" fill-rule="evenodd">
        <g>
            <path d="M20,12.5 C21.725,12.5 23.125,13.9 23.125,15.625 C23.125,16.6375 22.625,17.6 21.7875,18.1875 L21.25,18.5625 L21.25,19.2125 L21.25,25 L18.75,25 L18.75,19.2125 L18.75,18.5625 L18.2125,18.1875 C17.375,17.6 16.875,16.6375 16.875,15.625 C16.875,13.9 18.275,12.5 20,12.5 L20,12.5 Z M20,11.25 C17.5875,11.25 15.625,13.2125 15.625,15.625 C15.625,17.1125 16.375,18.4125 17.5,19.2125 L17.5,26.25 L22.5,26.25 L22.5,19.2125 C23.6375,18.425 24.375,17.1125 24.375,15.625 C24.375,13.2125 22.4125,11.25 20,11.25 L20,11.25 Z" id="Shape" fill="#101828" fill-rule="nonzero"></path>
            <path d="M33.75,6.25 L33.75,8.75 C33.75,12.6625 32.9375,18.4875 31.5875,21.475 C29.725,25.575 26.225,30.975 20,33.65 C13.775,30.975 10.2625,25.575 8.4125,21.475 C7.0625,18.4875 6.25,12.65 6.25,8.75 L6.25,6.25 L33.75,6.25 L33.75,6.25 Z M35,5 L5,5 L5,8.75 C5,12.45 5.75,18.6125 7.275,21.9875 C9.3625,26.6 13.2,32.275 20,35 C26.8,32.275 30.6375,26.6 32.725,21.9875 C34.25,18.6125 35,12.45 35,8.75 L35,5 L35,5 Z" id="Shape" fill="#101828" fill-rule="nonzero"></path>
            <rect id="Rectangle" x="0" y="0" width="40" height="40"></rect>
        </g>
    </g>
</svg>