<?xml version="1.0" encoding="UTF-8"?>
<svg width="80px" height="80px" viewBox="0 0 80 80" version="1.1" xmlns="http://www.w3.org/2000/svg" xmlns:xlink="http://www.w3.org/1999/xlink">
    <!-- Generator: Sketch 54.1 (76490) - https://sketchapp.com -->
    <title>140-G80px</title>
    <desc>Created with Sketch.</desc>
    <g id="NEW_icons" stroke="none" stroke-width="1" fill="none" fill-rule="evenodd">
        <g id="icons_UD_new-Copy" transform="translate(-766.000000, -17907.000000)">
            <g id="140-G80px" transform="translate(766.000000, 17907.000000)">
                <g id="Group-14">
                    <circle id="Oval-Copy-48" fill="#E3E8EC" cx="40" cy="40" r="40"></circle>
                    <g id="140-B32px-Copy-7" transform="translate(12.000000, 12.000000)">
                        <path d="M28,7 L28,8.75 C30.1,8.75 32.2,9.1 34.3,9.8 C39.2,11.55 43.05,14.875 45.325,19.6 C47.6,24.15 47.95,29.4 46.2,34.3 C43.575,42 36.225,47.25 28,47.25 C25.9,47.25 23.8,46.9 21.7,46.2 C16.8,44.45 12.95,41.125 10.675,36.4 C8.4,31.85 8.05,26.6 9.8,21.7 C12.425,14 19.775,8.75 28,8.75 L28,7 L28,7 Z M28,7 C19.25,7 11.2,12.425 8.225,21.175 C4.375,32.2 10.325,44.1 21.175,47.95 C23.45,48.65 25.725,49.175 28,49.175 C36.75,49.175 44.8,43.75 47.775,35 C51.625,23.975 45.675,12.075 34.825,8.225 C32.55,7.35 30.275,7 28,7 L28,7 Z" id="Shape" fill="#101828" fill-rule="nonzero"></path>
                        <path d="M42.875,33.075 L41.3,32.55 C43.75,25.2 39.9,17.325 32.725,14.7 L33.25,13.125 C41.3,15.925 45.675,25.025 42.875,33.075 Z" id="Path" fill="#101828" fill-rule="nonzero"></path>
                        <path d="M22.925,42.875 C14.7,40.075 10.325,30.975 13.125,22.925 L14.7,23.45 C12.25,30.8 16.1,38.675 23.275,41.3 L22.925,42.875 Z" id="Path" fill="#101828" fill-rule="nonzero"></path>
                        <path d="M34.825,24.325 L28.175,17.675 C28,17.5 27.65,17.5 27.475,17.675 L23.8,21.525 C22.75,22.575 22.75,23.625 22.75,25.025 L22.75,35.7 C22.75,36.225 22.925,36.75 23.275,37.1 C23.625,37.45 23.975,37.625 24.5,37.625 L32.2,37.625 C32.375,37.625 32.55,37.45 32.55,37.275 C32.55,37.1 32.55,36.925 32.375,36.75 L28,32.025 L35,25.025 C35,24.85 35,24.5 34.825,24.325 Z M30.45,36.225 L24.5,36.225 C24.325,36.225 24.325,36.225 24.325,36.05 C24.325,35.875 24.15,35.875 24.15,35.7 C24.15,35.7 24.15,35.525 24.15,35.525 C24.325,35.35 25.025,34.475 25.2,34.475 L26.95,32.725 L30.45,36.225 Z" id="Shape" fill="#101828" fill-rule="nonzero"></path>
                        <rect id="Rectangle" x="0" y="0" width="56" height="56"></rect>
                    </g>
                </g>
            </g>
        </g>
    </g>
</svg>