<?xml version="1.0" encoding="UTF-8"?>
<svg width="80px" height="80px" viewBox="0 0 80 80" version="1.1" xmlns="http://www.w3.org/2000/svg" xmlns:xlink="http://www.w3.org/1999/xlink">
    <!-- Generator: Sketch 57.1 (83088) - https://sketch.com -->
    <title>140-B80px</title>
    <desc>Created with Sketch.</desc>
    <g id="140-B80px" stroke="none" stroke-width="1" fill="none" fill-rule="evenodd">
        <g>
            <path d="M40,10 L40,12.5 C43,12.5 46,13 49,14 C56,16.5 61.5,21.25 64.75,28 C68,34.5 68.5,42 66,49 C62.25,60 51.75,67.5 40,67.5 C37,67.5 34,67 31,66 C24,63.5 18.5,58.75 15.25,52 C12,45.5 11.5,38 14,31 C17.75,20 28.25,12.5 40,12.5 L40,10 L40,10 Z M40,10 C27.5,10 16,17.75 11.75,30.25 C6.25,46 14.75,63 30.25,68.5 C33.5,69.5 36.75,70.25 40,70.25 C52.5,70.25 64,62.5 68.25,50 C73.75,34.25 65.25,17.25 49.75,11.75 C46.5,10.5 43.25,10 40,10 L40,10 Z" id="Shape" fill="#101828" fill-rule="nonzero"></path>
            <path d="M61.25,47.25 L59,46.5 C62.5,36 57,24.75 46.75,21 L47.5,18.75 C59,22.75 65.25,35.75 61.25,47.25 Z" id="Path" fill="#101828" fill-rule="nonzero"></path>
            <path d="M32.75,61.25 C21,57.25 14.75,44.25 18.75,32.75 L21,33.5 C17.5,44 23,55.25 33.25,59 L32.75,61.25 Z" id="Path" fill="#101828" fill-rule="nonzero"></path>
            <path d="M49.75,34.75 L40.25,25.25 C40,25 39.5,25 39.25,25.25 L34,30.75 C32.5,32.25 32.5,33.75 32.5,35.75 L32.5,51 C32.5,51.75 32.75,52.5 33.25,53 C33.75,53.5 34.25,53.75 35,53.75 L46,53.75 C46.25,53.75 46.5,53.5 46.5,53.25 C46.5,53 46.5,52.75 46.25,52.5 L40,45.75 L50,35.75 C50,35.5 50,35 49.75,34.75 Z M43.5,51.75 L35,51.75 C34.75,51.75 34.75,51.75 34.75,51.5 C34.75,51.25 34.5,51.25 34.5,51 C34.5,51 34.5,50.75 34.5,50.75 C34.75,50.5 35.75,49.25 36,49.25 L38.5,46.75 L43.5,51.75 Z" id="Shape" fill="#101828" fill-rule="nonzero"></path>
            <rect id="Rectangle" x="0" y="0" width="80" height="80"></rect>
        </g>
    </g>
</svg>