<?xml version="1.0" encoding="UTF-8"?>
<svg width="80px" height="80px" viewBox="0 0 80 80" version="1.1" xmlns="http://www.w3.org/2000/svg" xmlns:xlink="http://www.w3.org/1999/xlink">
    <!-- Generator: Sketch 57.1 (83088) - https://sketch.com -->
    <title>084-G80px</title>
    <desc>Created with Sketch.</desc>
    <g id="NEW_icons" stroke="none" stroke-width="1" fill="none" fill-rule="evenodd">
        <g id="icons_UD_new-Copy" transform="translate(-768.000000, -11023.000000)">
            <g id="084-G80px" transform="translate(768.000000, 11023.000000)">
                <circle id="Oval-Copy-513" fill="#E3E8EC" cx="40" cy="40" r="40"></circle>
                <g id="084-B32px-Copy-3" transform="translate(12.000000, 12.000000)">
                    <path d="M24.5175,45.5 C24.99,45.5 25.3925,45.115 25.3925,44.625 C25.3925,44.135 25.0075,43.75 24.5175,43.75 C24.0275,43.75 23.6425,44.135 23.6425,44.625 C23.6425,45.115 24.0275,45.5 24.5175,45.5" id="Path" fill="#101828" fill-rule="nonzero"></path>
                    <path d="M24.5175,14 C29.3475,14 33.285,17.92 33.285,22.75 C33.285,27.58 29.3475,31.5 24.5175,31.5 C19.6875,31.5 15.75,27.58 15.75,22.75 C15.75,17.92 19.6875,14 24.5175,14 L24.5175,14 Z M24.5175,12.25 C18.7075,12.25 14,16.9575 14,22.75 C14,28.5425 18.7075,33.25 24.5175,33.25 C30.3275,33.25 35.035,28.5425 35.035,22.75 C35.035,16.9575 30.31,12.25 24.5175,12.25 L24.5175,12.25 Z" id="Shape" fill="#101828" fill-rule="nonzero"></path>
                    <path d="M24.5,14 C26.565,14 28.8575,17.5875 28.8575,22.75 C28.8575,27.9125 26.565,31.5 24.5,31.5 C22.435,31.5 20.1425,27.9125 20.1425,22.75 C20.1425,17.5875 22.435,14 24.5,14 L24.5,14 Z M24.5,12.25 C21.1225,12.25 18.3925,16.9575 18.3925,22.75 C18.3925,28.5425 21.1225,33.25 24.5,33.25 C27.8775,33.25 30.6075,28.5425 30.6075,22.75 C30.6075,16.9575 27.86,12.25 24.5,12.25 L24.5,12.25 Z" id="Shape" fill="#101828" fill-rule="nonzero"></path>
                    <rect id="Rectangle" fill="#101828" fill-rule="nonzero" x="15.6625" y="26.3025" width="17.6925" height="1.75"></rect>
                    <rect id="Rectangle" fill="#101828" fill-rule="nonzero" x="15.6625" y="17.4475" width="17.6925" height="1.75"></rect>
                    <rect id="Rectangle" fill="#101828" fill-rule="nonzero" x="14.56" y="21.875" width="19.915" height="1.75"></rect>
                    <rect id="Rectangle" fill="#101828" fill-rule="nonzero" x="23.6425" y="12.565" width="1.75" height="19.5825"></rect>
                    <path d="M37.1525,43.645 L36.7675,43.225 L36.75,43.2425 L36.75,47.145 C36.75,47.1975 36.715,47.2325 36.6625,47.2325 L12.3375,47.2325 C12.285,47.25 12.25,47.215 12.25,47.1625 L12.25,42 L26.845,42 C26.5825,41.44 26.4075,40.845 26.32,40.25 L12.25,40.25 L12.25,8.8375 C12.25,8.785 12.285,8.75 12.3375,8.75 L36.6625,8.75 C36.715,8.75 36.75,8.785 36.75,8.8375 L36.75,35.49 L36.7675,35.5075 L37.1525,35.0875 C37.555,34.6675 38.01,34.335 38.5,34.0725 L38.5,8.8375 C38.5,7.8225 37.6775,7 36.6625,7 L12.3375,7 C11.3225,7 10.5,7.8225 10.5,8.8375 L10.5,40.25 L10.5,42 L10.5,47.1625 C10.5,48.1775 11.3225,49 12.3375,49 L36.6625,49 C37.6775,49 38.5,48.1775 38.5,47.1625 L38.5,44.695 C38.01,44.3975 37.555,44.065 37.1525,43.645 Z" id="Path" fill="#101828" fill-rule="nonzero"></path>
                    <path d="M41.3875,43.75 C40.2675,43.75 39.2175,43.2775 38.4475,42.4375 L36.785,40.6525 L35.1225,42.4375 C33.5475,44.1175 30.8,44.1175 29.225,42.4375 C27.65,40.74 27.65,37.9925 29.225,36.295 C30.8,34.615 33.5475,34.615 35.1225,36.295 L36.785,38.08 L38.4475,36.295 C40.0225,34.615 42.77,34.615 44.345,36.295 C45.92,37.9925 45.92,40.74 44.345,42.4375 C43.5575,43.295 42.5075,43.75 41.3875,43.75 Z M37.975,39.375 L39.725,41.265 C40.6175,42.2275 42.1575,42.2275 43.0675,41.265 C44.03,40.2325 44.03,38.535 43.0675,37.5025 C42.175,36.54 40.635,36.54 39.725,37.5025 L39.725,37.5025 L37.975,39.375 Z M32.1475,36.75 C31.5175,36.75 30.9225,37.0125 30.485,37.5025 C29.5225,38.535 29.5225,40.2325 30.485,41.265 C31.395,42.2275 32.9175,42.2275 33.8275,41.265 L35.5775,39.375 L33.8275,37.485 C33.3725,37.0125 32.7775,36.75 32.1475,36.75 Z" id="Shape" fill="#101828" fill-rule="nonzero"></path>
                    <rect id="Rectangle" x="0" y="0" width="56" height="56"></rect>
                </g>
            </g>
        </g>
    </g>
</svg>