<?xml version="1.0" encoding="UTF-8"?>
<svg width="56px" height="56px" viewBox="0 0 56 56" version="1.1" xmlns="http://www.w3.org/2000/svg" xmlns:xlink="http://www.w3.org/1999/xlink">
    <!-- Generator: Sketch 57.1 (83088) - https://sketch.com -->
    <title>229-G56px</title>
    <desc>Created with Sketch.</desc>
    <g id="NEW_icons" stroke="none" stroke-width="1" fill="none" fill-rule="evenodd">
        <g id="icons_UD_new-Copy" transform="translate(-1728.000000, -29128.000000)">
            <g id="229-G56px" transform="translate(1728.000000, 29128.000000)">
                <circle id="Oval-Copy-1431" fill="#E3E8EC" cx="28" cy="28" r="28"></circle>
                <g id="229-B32px-Copy-3" transform="translate(10.000000, 8.000000)">
                    <path d="M6.25,5 L23.75,5 C24.4375,5 25,5.5625 25,6.25 L25,15 L23.75,15 L23.75,6.25 L6.25,6.25 L6.25,33.75 L23.75,33.75 L23.75,32.5 L25,32.475 L25,33.75 C25,34.4375 24.4375,35 23.75,35 L6.25,35 C5.5625,35 5,34.4375 5,33.75 L5,6.25 C5,5.5625 5.5625,5 6.25,5 Z" id="Path" fill="#101828" fill-rule="nonzero"></path>
                    <circle id="Oval" fill="#101828" fill-rule="nonzero" cx="15" cy="31.875" r="1"></circle>
                    <path d="M32.5,17.5 L32.5,18.125 C32.5,19.975 32.1125,22.825 31.475,24.225 C30.6125,26.125 29.025,28.5875 26.25,29.8875 C23.475,28.5875 21.875,26.125 21.025,24.225 C20.3875,22.825 20,19.975 20,18.125 L20,17.5 L32.5,17.5 L32.5,17.5 Z M33.75,16.25 L18.75,16.25 L18.75,18.125 C18.75,19.975 19.125,23.0625 19.8875,24.7375 C20.9375,27.05 22.85,29.8875 26.25,31.25 C29.65,29.8875 31.575,27.05 32.6125,24.7375 C33.375,23.05 33.75,19.975 33.75,18.125 L33.75,16.25 L33.75,16.25 Z" id="Shape" fill="#101828" fill-rule="nonzero"></path>
                    <path d="M21.225,28.75 C21.5875,29.175 21.9625,29.6 22.3875,30 L6.25,30 L6.25,28.75 L21.225,28.75 Z" id="Path" fill="#101828" fill-rule="nonzero"></path>
                    <g id="Group" transform="translate(10.000000, 8.750000)" fill="#101828" fill-rule="nonzero">
                        <path d="M5,3.75 C5.6625,3.75 6.275,4.0125 6.7125,4.4375 L7.6,3.55 C6.925,2.9 6.0125,2.5 5,2.5 C3.9625,2.5 3.025,2.925 2.35,3.6 L3.2375,4.4875 C3.6875,4.025 4.3125,3.75 5,3.75 Z" id="Path"></path>
                        <path d="M5.825,5.325 C5.6125,5.125 5.325,5 5,5 C4.65,5 4.3375,5.1375 4.1125,5.3625 L4.95,6.2 L5.825,5.325 Z" id="Path"></path>
                        <path d="M5,1.25 C6.35,1.25 7.5875,1.8 8.4875,2.675 L9.375,1.7875 C8.2375,0.6875 6.7,0 5,0 C3.275,0 1.7125,0.7 0.575,1.825 L1.4625,2.7125 C2.375,1.8125 3.625,1.25 5,1.25 Z" id="Path"></path>
                    </g>
                    <rect id="Rectangle" x="0" y="0" width="40" height="40"></rect>
                </g>
            </g>
        </g>
    </g>
</svg>