<?xml version="1.0" encoding="UTF-8"?>
<svg width="80px" height="80px" viewBox="0 0 80 80" version="1.1" xmlns="http://www.w3.org/2000/svg" xmlns:xlink="http://www.w3.org/1999/xlink">
    <!-- Generator: Sketch 58 (84663) - https://sketch.com -->
    <title>252-B80px</title>
    <desc>Created with Sketch.</desc>
    <g id="252-B80px" stroke="none" stroke-width="1" fill="none" fill-rule="evenodd">
        <g id="252-B32px">
            <g>
                <rect id="Rectangle" x="0" y="0" width="80" height="80"></rect>
                <path d="M56.175,44.625 C62.375,44.675 67.375,49.775 67.325,55.975 C67.275,62.175 62.175,67.175 55.975,67.125 C49.775,67.075 44.775,61.975 44.825,55.775 C44.875,49.575 49.975,44.55 56.175,44.625 L56.175,44.625 Z M56.2,42.125 C48.6,42.05 42.4,48.15 42.325,55.75 C42.25,63.35 48.35,69.55 55.95,69.625 C63.55,69.7 69.75,63.6 69.825,56 C69.9,48.4 63.8,42.175 56.2,42.125 L56.2,42.125 Z" id="Shape" fill="#101828" fill-rule="nonzero"></path>
                <path d="M57.425,44.625 L54.925,44.6 C52.85,44.575 51.2,42.875 51.2,40.825 C51.225,38.75 52.925,37.1 54.975,37.1 L57.475,37.125 C59.55,37.15 61.2,38.85 61.2,40.9 C61.2,42.975 59.5,44.65 57.425,44.625 Z M54.975,39.6 C54.275,39.6 53.725,40.15 53.725,40.85 C53.725,41.55 54.275,42.1 54.975,42.1 L57.475,42.125 C58.175,42.125 58.725,41.575 58.725,40.875 C58.725,40.175 58.175,39.625 57.475,39.625 L54.975,39.6 Z" id="Shape" fill="#101828" fill-rule="nonzero"></path>
                <path d="M57.425,44.625 L54.925,44.6 C52.85,44.575 51.2,42.875 51.2,40.825 C51.225,38.75 52.925,37.1 54.975,37.1 L57.475,37.125 C59.55,37.15 61.2,38.85 61.2,40.9 C61.2,42.975 59.5,44.65 57.425,44.625 Z M54.975,39.6 C54.275,39.6 53.725,40.15 53.725,40.85 C53.725,41.55 54.275,42.1 54.975,42.1 L57.475,42.125 C58.175,42.125 58.725,41.575 58.725,40.875 C58.725,40.175 58.175,39.625 57.475,39.625 L54.975,39.6 Z" id="Shape" fill="#101828" fill-rule="nonzero"></path>
                <polygon id="Rectangle" fill="#101828" fill-rule="nonzero" transform="translate(58.597527, 55.887107) rotate(-89.470785) translate(-58.597527, -55.887107) " points="57.347474 52.1369471 59.8475807 52.1369471 59.8475807 59.637267 57.347474 59.637267"></polygon>
                <polygon id="Rectangle" fill="#101828" fill-rule="nonzero" transform="translate(56.132076, 52.578510) rotate(-89.536566) translate(-56.132076, -52.578510) " points="53.1694787 51.3284689 59.0946725 51.3284689 59.0946725 53.8285507 53.1694787 53.8285507"></polygon>
                <path d="M48.25,41.825 C48.25,41.825 50,40.1 50.025,40.05 L48.45,38.4 C47.925,37.85 47.225,37.575 46.525,37.575 C45.85,37.575 45.15,37.825 44.625,38.325 L40.225,42.525 C40.225,42.525 34.875,40.1 31.9,36.95 C28.925,33.8 26.75,28.35 26.75,28.35 L31.15,24.15 C32.25,23.125 32.3,21.4 31.275,20.325 L21.475,10.075 C20.95,9.525 20.25,9.25 19.55,9.25 C18.875,9.25 18.175,9.5 17.65,10 L11.025,16.275 C10.4,16.875 10.1,17.75 10.2,18.625 C11.625,31.675 23.875,44.55 23.875,44.55 C23.875,44.55 30.825,51.825 39.875,56.35 C39.875,56.125 39.85,55.925 39.85,55.7 C39.85,55 39.925,54.3 40.025,53.6 C31.975,49.325 25.775,42.9 25.7,42.8 C25.575,42.675 14.025,30.35 12.7,18.325 C12.7,18.25 12.7,18.125 12.775,18.05 L19.375,11.775 C19.4,11.775 19.45,11.75 19.525,11.75 C19.6,11.75 19.65,11.8 19.65,11.8 L29.425,22.075 C29.5,22.15 29.475,22.3 29.4,22.375 L25,26.575 L23.775,27.725 L24.4,29.3 C24.5,29.55 26.775,35.25 30.05,38.725 C33.35,42.2 38.925,44.75 39.175,44.85 L40.7,45.55 L41.925,44.4 L46.325,40.2 C46.375,40.15 46.425,40.125 46.5,40.125 C46.575,40.125 46.625,40.175 46.625,40.175 L48.25,41.825 Z" id="Path" fill="#101828" fill-rule="nonzero"></path>
            </g>
        </g>
    </g>
</svg>