<?xml version="1.0" encoding="UTF-8"?>
<svg width="80px" height="80px" viewBox="0 0 80 80" version="1.1" xmlns="http://www.w3.org/2000/svg" xmlns:xlink="http://www.w3.org/1999/xlink">
    <!-- Generator: Sketch 57.1 (83088) - https://sketch.com -->
    <title>028-B80px</title>
    <desc>Created with Sketch.</desc>
    <g id="028-B80px" stroke="none" stroke-width="1" fill="none" fill-rule="evenodd">
        <g>
            <path d="M28.5,41.425 C27.05,42.1 25.45,42.5 23.75,42.5 C17.55,42.5 12.5,37.45 12.5,31.25 C12.5,25.05 17.55,20 23.75,20 C29.95,20 35,25.05 35,31.25 C35,33.225 34.45,35.05 33.55,36.675 C34.575,36.1 35.7,35.675 36.875,35.4 C37.275,34.075 37.5,32.7 37.5,31.25 C37.5,23.65 31.35,17.5 23.75,17.5 C16.15,17.5 10,23.65 10,31.25 C10,38.85 16.15,45 23.75,45 C24.85,45 25.925,44.85 26.975,44.6 C27.35,43.475 27.875,42.4 28.5,41.425 Z" id="Path" fill="#101828" fill-rule="nonzero"></path>
            <path d="M56.25,17.5 C48.65,17.5 42.5,23.65 42.5,31.25 C42.5,32.7 42.725,34.075 43.125,35.375 C44.3,35.65 45.4,36.1 46.45,36.65 C45.55,35.05 45,33.225 45,31.25 C45,25.05 50.05,20 56.25,20 C62.45,20 67.5,25.05 67.5,31.25 C67.5,37.45 62.45,42.5 56.25,42.5 C54.55,42.5 52.95,42.1 51.5,41.4 C52.125,42.375 52.65,43.45 53.025,44.6 C54.05,44.85 55.125,45 56.25,45 C63.85,45 70,38.85 70,31.25 C70,23.65 63.85,17.5 56.25,17.5 Z" id="Path" fill="#101828" fill-rule="nonzero"></path>
            <path d="M40,40 C44.75,40 48.65,44.1 48.7,49.075 C48.65,52.8 43.925,60.4 40,65.725 C36.05,60.4 31.3,52.85 31.3,49.325 L31.3,49.2 C31.3,44.125 35.2,40 40,40 L40,40 Z M40,37.5 L40,37.5 C33.825,37.5 28.8,42.725 28.8,49.2 L28.8,49.325 C28.8,55.875 40,69.85 40,69.85 C40,69.85 51.125,55.975 51.175,49.1 C51.15,42.675 46.15,37.5 40,37.5 L40,37.5 Z" id="Shape" fill="#101828" fill-rule="nonzero"></path>
            <path d="M40,45 C42,45 43.6,46.675 43.6,48.75 C43.6,50.825 42,52.5 40,52.5 C38,52.5 36.4,50.825 36.4,48.75 C36.4,46.675 38,45 40,45 L40,45 Z M40,42.5 C36.625,42.5 33.9,45.3 33.9,48.75 C33.9,52.2 36.625,55 40,55 C43.375,55 46.1,52.2 46.1,48.75 C46.1,45.3 43.375,42.5 40,42.5 L40,42.5 Z" id="Shape" fill="#101828" fill-rule="nonzero"></path>
            <path d="M51.25,30 C50.55,30 50,30.55 50,31.25 C50,31.95 50.55,32.5 51.25,32.5 C51.95,32.5 52.5,31.95 52.5,31.25 C52.5,30.55 51.95,30 51.25,30 L51.25,30 Z" id="Path" fill="#101828" fill-rule="nonzero"></path>
            <path d="M61.25,30 C60.55,30 60,30.55 60,31.25 C60,31.95 60.55,32.5 61.25,32.5 C61.95,32.5 62.5,31.95 62.5,31.25 C62.5,30.55 61.95,30 61.25,30 L61.25,30 Z" id="Path" fill="#101828" fill-rule="nonzero"></path>
            <path d="M18.75,30 C18.05,30 17.5,30.55 17.5,31.25 C17.5,31.95 18.05,32.5 18.75,32.5 C19.45,32.5 20,31.95 20,31.25 C20,30.55 19.45,30 18.75,30 L18.75,30 Z" id="Path" fill="#101828" fill-rule="nonzero"></path>
            <path d="M28.75,30 C28.05,30 27.5,30.55 27.5,31.25 C27.5,31.95 28.05,32.5 28.75,32.5 C29.45,32.5 30,31.95 30,31.25 C30,30.55 29.45,30 28.75,30 L28.75,30 Z" id="Path" fill="#101828" fill-rule="nonzero"></path>
            <path d="M50.25,37.8 C53.725,40.725 58.8,40.725 62.25,37.8 L60.75,35.8 C58.175,38.075 54.3,38.05 51.725,35.8 L50.25,37.8 Z" id="Path" fill="#101828" fill-rule="nonzero"></path>
            <path d="M17.75,37.8 C21.225,40.725 26.3,40.725 29.75,37.8 L28.25,35.8 C25.675,38.075 21.8,38.05 19.225,35.8 L17.75,37.8 Z" id="Path" fill="#101828" fill-rule="nonzero"></path>
            <g id="Group" transform="translate(17.500000, 12.500000)" fill="#101828" fill-rule="nonzero">
                <path d="M7.5,7.5 L5,7.5 C5,5.35 6.3,1.25 11.25,1.25 L11.25,3.75 C7.725,3.75 7.5,6.875 7.5,7.5 Z" id="Path"></path>
                <path d="M5,7.5 C5,6.875 4.775,3.75 1.25,3.75 L1.25,1.25 C6.2,1.25 7.5,5.35 7.5,7.5 L5,7.5 L6.25,7.5 L5,7.5 Z" id="Path"></path>
            </g>
            <g id="Group" transform="translate(47.500000, 10.000000)" fill="#101828" fill-rule="nonzero">
                <polygon id="Path" points="2.5 11.05 0 11.05 0 2 9.125 4.975 8.35 7.35 2.5 5.45"></polygon>
                <polygon id="Path" points="17.475 11.05 14.975 11.05 14.975 5.45 9.15 7.35 8.35 4.975 17.475 2"></polygon>
                <rect id="Rectangle" x="7.5" y="5" width="2.5" height="2.5"></rect>
            </g>
            <polygon id="Path" fill="#101828" fill-rule="nonzero" points="35 27.5 23.225 27.5 21.25 25.525 19.275 27.5 12.5 27.5 12.5 25 18.225 25 21.25 21.975 24.275 25 35 25"></polygon>
            <polygon id="Path" fill="#101828" fill-rule="nonzero" points="67.5 27.5 55.725 27.5 53.75 25.525 51.775 27.5 45 27.5 45 25 50.725 25 53.75 21.975 56.775 25 67.5 25"></polygon>
            <rect id="Rectangle" x="0" y="0" width="80" height="80"></rect>
        </g>
    </g>
</svg>