<?xml version="1.0" encoding="UTF-8"?>
<svg width="80px" height="80px" viewBox="0 0 80 80" version="1.1" xmlns="http://www.w3.org/2000/svg" xmlns:xlink="http://www.w3.org/1999/xlink">
    <!-- Generator: Sketch 57.1 (83088) - https://sketch.com -->
    <title>055-B80px</title>
    <desc>Created with Sketch.</desc>
    <g id="055-B80px" stroke="none" stroke-width="1" fill="none" fill-rule="evenodd">
        <g>
            <path d="M39.35,25.775 L48.7,31 C48.925,30.375 49.05,29.7 49.05,29.025 C49.05,24.925 44.725,21.625 39.375,21.625 C34.025,21.625 29.7,24.95 29.7,29.025 C29.7,29.675 29.825,30.325 30.025,30.95 L39.35,25.775 L39.35,25.775 Z" id="Path" fill="#101828" fill-rule="nonzero"></path>
            <polygon id="Path" fill="#101828" fill-rule="nonzero" points="56.05 41.35 63.55 45.875 49.475 62.925"></polygon>
            <polygon id="Path" fill="#101828" fill-rule="nonzero" points="56.4 37.475 55.55 33.775 70 38 61.05 42.775 62.275 38.9"></polygon>
            <polygon id="Path" fill="#101828" fill-rule="nonzero" points="54.425 31.425 52.525 28.775 65.275 24.65 62.1 34.8 60.775 30.125"></polygon>
            <polygon id="Path" fill="#101828" fill-rule="nonzero" points="51 25.875 48.3 23.05 51.85 19.45 47.95 17.075 58.275 17.075"></polygon>
            <polygon id="Path" fill="#101828" fill-rule="nonzero" points="23.575 41.35 16.075 45.875 30.15 62.925"></polygon>
            <polygon id="Path" fill="#101828" fill-rule="nonzero" points="23.6 37.475 24.45 33.775 10 38 18.95 42.775 17.725 38.9"></polygon>
            <polygon id="Path" fill="#101828" fill-rule="nonzero" points="23.9 31.425 25.8 28.775 13.025 24.65 16.2 34.8 17.525 30.125"></polygon>
            <polygon id="Path" fill="#101828" fill-rule="nonzero" points="27.9 25.875 30.6 23.05 27.05 19.45 30.95 17.075 20.625 17.075"></polygon>
            <path d="M52.55,36.85 L47.2,33.775 L45.25,39.7 L40.75,39.7 L39.025,34.575 L38.975,34.575 L37.275,39.7 L32.725,39.7 L30.775,33.775 L25.425,36.85 C25.425,36.85 23.525,43.625 30.775,49.2 C33.4,51.225 35.35,52.5 37.1,53.075 L36.675,51.775 L41.325,51.775 L40.875,53.1 C42.625,52.55 44.575,51.275 47.2,49.2 C54.4,43.575 52.55,36.85 52.55,36.85 Z M41.825,50.15 L36.125,50.15 L35.5,48.275 L42.45,48.275 L41.825,50.15 Z M42.975,46.675 L35,46.675 L34.375,44.8 L43.6,44.8 L42.975,46.675 Z M44.125,43.175 L33.85,43.175 L33.225,41.3 L44.725,41.3 L44.125,43.175 Z" id="Shape" fill="#101828" fill-rule="nonzero"></path>
            <polygon id="Path" fill="#101828" fill-rule="nonzero" points="35.625 36.9 35.675 36.9 37.375 31.975 41.275 31.975 43.05 36.9 43.125 36.9 44.25 32 39.25 29.2 34.3 32"></polygon>
            <rect id="Rectangle" x="0" y="0" width="80" height="80"></rect>
        </g>
    </g>
</svg>