<?xml version="1.0" encoding="UTF-8"?>
<svg width="42px" height="42px" viewBox="0 0 42 42" version="1.1" xmlns="http://www.w3.org/2000/svg" xmlns:xlink="http://www.w3.org/1999/xlink">
    <!-- Generator: Sketch 57.1 (83088) - https://sketch.com -->
    <title>059-G40px</title>
    <desc>Created with Sketch.</desc>
    <g id="NEW_icons" stroke="none" stroke-width="1" fill="none" fill-rule="evenodd">
        <g id="059-G40px" transform="translate(1.000000, 1.000000)">
            <circle id="Oval-Copy-38" stroke="#E3E8EC" cx="20" cy="20" r="20"></circle>
            <g id="059-B32px-Copy-2" transform="translate(4.000000, 4.000000)">
                <path d="M14.6,16 C14,16 13.4,15.7 12.9,15.3 L11.9,14.3 L10.9,15.3 C10,16.3 8.4,16.3 7.5,15.3 C6.6,14.3 6.6,12.8 7.5,11.8 C8.4,10.8 10,10.8 10.9,11.8 L11.9,12.8 L12.9,11.8 C13.8,10.8 15.4,10.8 16.3,11.8 C17.2,12.8 17.2,14.3 16.3,15.3 C15.9,15.7 15.3,16 14.6,16 Z M12.7,13.5 L13.7,14.6 C14.2,15.2 15.1,15.2 15.6,14.6 C16.2,14 16.2,13 15.6,12.4 C15.1,11.8 14.2,11.8 13.7,12.4 L12.7,13.5 Z M9.4,12 C9,12 8.7,12.2 8.4,12.4 C7.8,13 7.8,14 8.4,14.6 C8.9,15.1 9.8,15.2 10.3,14.6 L11.3,13.5 L10.3,12.4 C10.1,12.1 9.7,12 9.4,12 Z" id="Shape" fill="#101828" fill-rule="nonzero"></path>
                <path d="M19,8 L5,8 C4.4,8 4,8.4 4,9 L4,16 L5,16 L5,16 L5,16 L5,9 L19,9 L19,18 L7,18 L6.7,18 L6.4,18.2 L5.6,18.7 L4,19.8 L4,19.8 L4,21 L7,19 L19,19 C19.5,19 20,18.6 20,18 L20,9 C20,8.4 19.6,8 19,8 Z" id="Path" fill="#101828" fill-rule="nonzero"></path>
                <path d="M25.6,22.2 L25.3,22 L25,22 L13,22 L13,20 L12,20 L12,22 C12,22.5 12.4,23 13,23 L25,23 L28,25 L28,23.8 L25.8,22.3 L25.6,22.2 Z" id="Path" fill="#101828" fill-rule="nonzero"></path>
                <path d="M27,12 L21,12 L21,13 L27,13 L27,20 L27,20 L27,20 L28,20 L28,13 C28,12.4 27.6,12 27,12 Z" id="Path" fill="#101828" fill-rule="nonzero"></path>
                <rect id="Rectangle" x="0" y="0" width="32" height="32"></rect>
            </g>
        </g>
    </g>
</svg>