<?xml version="1.0" encoding="UTF-8"?>
<svg width="42px" height="42px" viewBox="0 0 42 42" version="1.1" xmlns="http://www.w3.org/2000/svg" xmlns:xlink="http://www.w3.org/1999/xlink">
    <!-- Generator: Sketch 57.1 (83088) - https://sketch.com -->
    <title>065-G40px</title>
    <desc>Created with Sketch.</desc>
    <g id="NEW_icons" stroke="none" stroke-width="1" fill="none" fill-rule="evenodd">
        <g id="icons_UD_new-Copy" transform="translate(-1526.000000, -8554.000000)">
            <g id="065-G40px" transform="translate(1527.000000, 8555.000000)">
                <circle id="Oval-Copy-441" stroke="#E3E8EC" cx="20" cy="20" r="20"></circle>
                <g id="065-B32px-Copy-4" transform="translate(4.000000, 4.000000)">
                    <rect id="Rectangle" fill="#101828" fill-rule="nonzero" x="8" y="23" width="16" height="1"></rect>
                    <path d="M16,26 C16.27,26 16.5,25.78 16.5,25.5 C16.5,25.22 16.27,25 16,25 C15.73,25 15.5,25.22 15.5,25.5 C15.5,25.78 15.73,26 16,26" id="Path" fill="#101828" fill-rule="nonzero"></path>
                    <path d="M23,20 L23,26.95 C23,26.98 22.98,27 22.95,27 L9.05,27 C9.02,27 9,26.98 9,26.95 L9,14 L8,14 L8,26.95 C8,27.53 8.47,28 9.05,28 L22.95,28 C23.53,28 24,27.53 24,26.95 L24,20 L23,20 Z" id="Path" fill="#101828" fill-rule="nonzero"></path>
                    <path d="M9,5.05 C9,5.02 9.02,5 9.05,5 L22.95,5 C22.98,5 23,5.02 23,5.05 L23,12 L24,12 L24,5.05 C24,4.47 23.53,4 22.95,4 L9.05,4 C8.47,4 8,4.47 8,5.05 L8,6 L9,6 L9,5.05 Z" id="Path" fill="#101828" fill-rule="nonzero"></path>
                    <path d="M13.12,12.54 L12.57,12.17 L12.32,12 L12.02,12 L6,12 L6,8 L14,8 L14,11 L15,11 L15,8 C15,7.45 14.55,7 14,7 L6,7 C5.45,7 5,7.45 5,8 L5,12 C5,12.55 5.45,13 6,13 L12.02,13 L15,15 L15,14 L15,13.82 L13.12,12.54 Z" id="Path" fill="#101828" fill-rule="nonzero"></path>
                    <path d="M26,13 L18,13 C17.45,13 17,13.45 17,14 L17,17 L18,17 L18,14 L26,14 L26,18 L19.98,18 L19.68,18 L19.43,18.17 L18.59,18.73 L17,19.82 L17,20 L17,21 L19.99,19 L26,19 C26.55,19 27,18.55 27,18 L27,14 C27,13.45 26.55,13 26,13 Z" id="Path" fill="#101828" fill-rule="nonzero"></path>
                    <rect id="Rectangle" x="0" y="0" width="32" height="32"></rect>
                </g>
            </g>
        </g>
    </g>
</svg>