<?xml version="1.0" encoding="UTF-8"?>
<svg width="80px" height="80px" viewBox="0 0 80 80" version="1.1" xmlns="http://www.w3.org/2000/svg" xmlns:xlink="http://www.w3.org/1999/xlink">
    <!-- Generator: Sketch 57.1 (83088) - https://sketch.com -->
    <title>237-B80px</title>
    <desc>Created with Sketch.</desc>
    <g id="237-B80px" stroke="none" stroke-width="1" fill="none" fill-rule="evenodd">
        <g>
            <g id="Group" transform="translate(7.500000, 12.500000)" fill="#101828" fill-rule="nonzero">
                <polygon id="Path" points="35.975 44.9 27.55 44.9 27.55 47.375 35.975 47.375"></polygon>
                <polygon id="Path" points="35.975 39.9 27.55 39.9 27.55 42.4 35.975 42.4"></polygon>
                <polygon id="Path" points="37.3 12.475 27.55 12.475 27.55 14.975 37.3 14.975 37.45 12.475"></polygon>
                <path d="M62.55,43.725 C62.55,43.225 62.475,42.575 62.3,41.775 C62.2,41.025 62.025,40.325 61.8,39.625 C59.525,30.525 52.5,12.375 52.5,12.375 C52.5,12.375 51.25,7.75 47.45,5.75 C47.2,2.525 44.55,0 41.25,0 C37.8,0 35,2.8 35,6.225 C35,6.25 35,6.275 35,6.3 L35,6.3 L35,18.825 C34.95,27.2 34.9,41.075 34.9,43.7 C34.9,44.25 34.95,44.775 35,45.3 L35,45.5 L35.025,45.5 C35.075,45.8 35.15,46.05 35.225,46.35 C35.275,46.55 35.325,46.775 35.375,46.975 C35.525,47.55 35.675,48.125 35.9,48.675 C36.025,49 36.15,49.325 36.3,49.625 C36.475,50 36.675,50.35 36.875,50.7 C37.1,51.1 37.375,51.5 37.65,51.875 C37.8,52.075 37.925,52.275 38.1,52.475 C38.475,52.95 38.9,53.375 39.35,53.8 C39.5,53.95 39.65,54.075 39.8,54.225 C40.275,54.65 40.8,55.025 41.35,55.375 C41.5,55.475 41.65,55.55 41.8,55.65 C42.375,56 43,56.3 43.625,56.55 C43.75,56.6 43.875,56.65 44,56.675 C44.675,56.925 45.375,57.125 46.1,57.275 C46.175,57.3 46.25,57.3 46.35,57.3 C47.125,57.425 47.925,57.525 48.75,57.525 C49.225,57.525 49.7,57.5 50.15,57.45 C57.1,56.725 62.55,50.85 62.55,43.725 Z M48.725,55 C47.975,55 47.225,54.925 46.525,54.775 C46.275,54.725 46.075,54.625 45.825,54.575 C45.375,54.45 44.9,54.325 44.45,54.15 C44.175,54.025 43.9,53.875 43.65,53.725 C43.3,53.55 42.925,53.375 42.6,53.15 C42.3,52.95 42.05,52.725 41.775,52.5 C41.5,52.275 41.225,52.075 40.975,51.85 C40.7,51.6 40.45,51.3 40.225,51 C40.025,50.75 39.8,50.525 39.625,50.275 C39.4,49.95 39.2,49.625 39.025,49.275 C38.875,49 38.7,48.725 38.575,48.45 C38.425,48.125 38.3,47.775 38.175,47.425 C38.05,47.075 37.95,46.75 37.85,46.4 C37.775,46.1 37.725,45.775 37.675,45.475 C37.6,45.025 37.55,44.55 37.525,44.075 L37.525,43.5 C37.675,37.45 42.65,32.575 48.75,32.575 C54.05,32.575 58.475,36.25 59.65,41.175 C59.7,41.35 59.75,41.575 59.775,41.725 C59.9,42.4 59.975,43.075 59.975,43.775 C59.975,49.2 56.1,53.725 51,54.775 C50.275,54.925 49.5,55 48.725,55 Z M50.075,13 L50.1,13.125 L50.15,13.25 C52.3,18.8 55.15,26.625 57.25,33.025 C54.9,31.175 51.95,30.05 48.725,30.05 C44.1,30.05 40,32.35 37.5,35.85 L37.5,18.775 C37.5,16.225 37.525,14.2 37.525,13.15 C37.55,12.65 37.6,12.225 37.725,11.825 C37.75,11.725 37.8,11.6 37.825,11.475 C37.875,11.325 37.925,11.2 38,11.075 C38.675,9.5 40.2,7.325 43.75,7.325 C48.475,7.35 50.025,12.8 50.075,13 Z M37.525,6.225 C37.525,4.175 39.2,2.5 41.275,2.5 C42.875,2.5 44.225,3.525 44.775,4.925 C44.45,4.875 44.125,4.85 43.775,4.85 C40.8,4.85 38.825,5.975 37.525,7.35 L37.525,6.225 Z" id="Shape"></path>
                <path d="M14.85,57.425 C15.325,57.475 15.8,57.5 16.275,57.5 C17.1,57.5 17.9,57.425 18.675,57.275 C18.75,57.25 18.825,57.25 18.925,57.25 C19.65,57.1 20.35,56.9 21.025,56.65 C21.15,56.6 21.275,56.575 21.4,56.525 C22.025,56.275 22.65,55.975 23.225,55.625 C23.375,55.55 23.525,55.45 23.675,55.35 C24.225,55 24.725,54.625 25.225,54.2 C25.375,54.075 25.525,53.925 25.675,53.775 C26.125,53.35 26.55,52.925 26.925,52.45 C27.075,52.25 27.225,52.05 27.375,51.85 C27.65,51.475 27.9,51.075 28.15,50.675 C28.35,50.325 28.55,49.975 28.725,49.6 C28.875,49.3 29,48.975 29.125,48.65 C29.35,48.1 29.5,47.55 29.65,46.95 C29.7,46.75 29.75,46.525 29.8,46.325 C29.85,46.05 29.95,45.775 30,45.475 L30.025,45.475 L30.025,45.275 C30.075,44.75 30.125,44.225 30.125,43.675 C30.125,41.05 30.075,27.2 30.025,18.8 L30.025,6.3 L30.025,6.3 C30.025,6.275 30.025,6.25 30.025,6.225 C30.025,2.775 27.225,-8.8817842e-16 23.775,-8.8817842e-16 C20.5,-8.8817842e-16 17.825,2.525 17.575,5.75 C13.725,7.75 12.5,12.375 12.5,12.375 C12.5,12.375 5.475,30.525 3.175,39.6 C2.95,40.3 2.8,41.025 2.675,41.75 C2.525,42.55 2.425,43.225 2.425,43.7 C2.45,50.85 7.9,56.725 14.85,57.425 Z M14,54.775 C8.875,53.725 5.025,49.2 5.025,43.775 C5.025,43.075 5.1,42.4 5.225,41.725 C5.25,41.55 5.325,41.35 5.35,41.175 C6.525,36.25 10.95,32.575 16.25,32.575 C22.35,32.575 27.3,37.45 27.475,43.5 L27.475,44.075 C27.45,44.55 27.4,45.025 27.325,45.475 C27.275,45.8 27.225,46.1 27.15,46.4 C27.075,46.75 26.95,47.1 26.825,47.425 C26.7,47.775 26.575,48.125 26.425,48.45 C26.3,48.75 26.125,49 25.975,49.275 C25.775,49.625 25.6,49.95 25.375,50.275 C25.2,50.525 24.975,50.75 24.775,51 C24.525,51.3 24.275,51.575 24,51.85 C23.75,52.075 23.475,52.3 23.2,52.5 C22.925,52.725 22.675,52.95 22.375,53.15 C22.05,53.375 21.675,53.55 21.325,53.725 C21.05,53.875 20.8,54.025 20.525,54.15 C20.1,54.325 19.625,54.45 19.15,54.575 C18.925,54.65 18.7,54.725 18.45,54.775 C17.775,54.925 17.025,55 16.275,55 C15.5,55 14.725,54.925 14,54.775 Z M21.25,7.35 C24.8,7.35 26.325,9.525 27,11.1 C27.05,11.225 27.125,11.35 27.175,11.5 C27.225,11.625 27.25,11.725 27.275,11.85 C27.375,12.25 27.45,12.675 27.475,13.175 C27.475,14.225 27.5,16.25 27.5,18.8 L27.5,35.875 C25,32.375 20.925,30.075 16.275,30.075 C13.05,30.075 10.075,31.2 7.75,33.05 C9.85,26.65 12.7,18.825 14.85,13.275 L14.9,13.15 L14.925,13.025 C14.975,12.8 16.525,7.35 21.25,7.35 Z M27.475,7.35 C26.175,5.975 24.2,4.85 21.225,4.85 C20.875,4.85 20.55,4.875 20.225,4.925 C20.775,3.5 22.15,2.5 23.75,2.5 C25.825,2.5 27.5,4.175 27.5,6.225 L27.5,7.35 L27.475,7.35 Z" id="Shape"></path>
            </g>
            <rect id="Rectangle" x="0" y="0" width="80" height="80"></rect>
        </g>
    </g>
</svg>