<?xml version="1.0" encoding="UTF-8"?>
<svg width="40px" height="40px" viewBox="0 0 40 40" version="1.1" xmlns="http://www.w3.org/2000/svg" xmlns:xlink="http://www.w3.org/1999/xlink">
    <!-- Generator: Sketch 57.1 (83088) - https://sketch.com -->
    <title>032-B40px</title>
    <desc>Created with Sketch.</desc>
    <g id="032-B40px" stroke="none" stroke-width="1" fill="none" fill-rule="evenodd">
        <g>
            <path d="M16.25,12.5 C16.9375,12.5 17.5,13.0625 17.5,13.75 C17.5,14.4375 16.9375,15 16.25,15 C15.5625,15 15,14.4375 15,13.75 C15,13.0625 15.5625,12.5 16.25,12.5 L16.25,12.5 Z M16.25,11.25 C14.875,11.25 13.75,12.375 13.75,13.75 C13.75,15.125 14.875,16.25 16.25,16.25 C17.625,16.25 18.75,15.125 18.75,13.75 C18.75,12.375 17.625,11.25 16.25,11.25 L16.25,11.25 Z" id="Shape" fill="#101828" fill-rule="nonzero"></path>
            <rect id="Rectangle" fill="#101828" fill-rule="nonzero" x="15.625" y="23.7875" width="1.25" height="11.2125"></rect>
            <path d="M28.125,22.5 C31.225,22.5 33.75,25.025 33.75,28.125 C33.75,31.225 31.225,33.75 28.125,33.75 C25.025,33.75 22.5,31.225 22.5,28.125 C22.5,25.025 25.025,22.5 28.125,22.5 L28.125,22.5 Z M28.125,21.25 C24.325,21.25 21.25,24.325 21.25,28.125 C21.25,31.925 24.325,35 28.125,35 C31.925,35 35,31.925 35,28.125 C35,24.325 31.925,21.25 28.125,21.25 L28.125,21.25 Z" id="Shape" fill="#101828" fill-rule="nonzero"></path>
            <path d="M26.075,26.625 C26.55,28.35 27.9,29.7125 29.625,30.175 C29.2125,30.4625 28.7125,30.625 28.175,30.625 C26.7625,30.625 25.6125,29.475 25.6125,28.0625 C25.625,27.5375 25.7875,27.0375 26.075,26.625 L26.075,26.625 Z M27.275,24.375 C25.6125,24.7875 24.375,26.275 24.375,28.0625 C24.375,30.1625 26.0875,31.875 28.1875,31.875 C29.975,31.875 31.4625,30.6375 31.875,28.975 C31.575,29.05 31.275,29.1 30.9625,29.1 C28.8625,29.1 27.15,27.3875 27.15,25.2875 C27.15,24.975 27.2,24.675 27.275,24.375 L27.275,24.375 Z" id="Shape" fill="#101828" fill-rule="nonzero"></path>
            <path d="M22.5,19.3875 L22.5,13.75 C22.5,8.2 16.2875,5 16.2875,5 C16.2875,5 10,8.1 10,13.75 C10,15.3375 10,17.6125 10,20.05 C7.1875,20.325 5,22.425 5,25 L5,32.5 L11.25,30.4125 L11.25,30.4125 L11.25,13.75 C11.25,9.875 14.8625,7.3 16.2875,6.4375 C17.6875,7.325 21.25,9.9375 21.25,13.75 L21.25,19.7875 L21.25,20 L21.25,21.25 L21.25,21.3 L21.25,23.8 C21.6,23.2375 22.025,22.725 22.5,22.2625 L22.5,21.575 L22.5,21.575 L22.5,19.3875 L22.5,19.3875 Z M10,29.525 L6.25,30.775 L6.25,25 C6.25,23.1125 7.8875,21.5625 10,21.3 C10,24.2 10,27.1875 10,29.525 Z" id="Shape" fill="#101828" fill-rule="nonzero"></path>
            <rect id="Rectangle" x="0" y="0" width="40" height="40"></rect>
        </g>
    </g>
</svg>