<?xml version="1.0" encoding="UTF-8"?>
<svg width="80px" height="80px" viewBox="0 0 80 80" version="1.1" xmlns="http://www.w3.org/2000/svg" xmlns:xlink="http://www.w3.org/1999/xlink">
    <!-- Generator: Sketch 57.1 (83088) - https://sketch.com -->
    <title>024-B80px</title>
    <desc>Created with Sketch.</desc>
    <g id="024-B80px" stroke="none" stroke-width="1" fill="none" fill-rule="evenodd">
        <g>
            <path d="M40.05,51.15 C38.575,53.1 36.85,54.425 35,54.85 L35,45 L40,45 L40,42.5 L35,42.5 L35,35 L40,35 L40,34.45 C40,33.75 40.175,33.1 40.475,32.5 L35,32.5 L35,25 L43.95,25 C44.35,26.575 44.575,28.275 44.75,30 L47.275,30 C47.125,28.275 46.9,26.575 46.525,25 L53.1,25 C53.825,26.575 54.325,28.25 54.625,30 L57.175,30 C55.375,18.675 45.575,10 33.75,10 C33.75,10 33.725,10 33.725,10 C33.725,10 33.725,10 33.7,10 C33.675,10 33.675,10 33.65,10 C20.575,10.05 10,20.675 10,33.75 C10,46.825 20.575,57.45 33.65,57.5 C33.675,57.5 33.675,57.5 33.7,57.5 C33.7,57.5 33.7,57.5 33.725,57.5 C33.725,57.5 33.75,57.5 33.75,57.5 C37.55,57.5 41.15,56.575 44.325,55 C42.125,54.925 40.35,53.275 40.05,51.15 Z M51.75,22.5 L45.85,22.5 C44.75,19.025 43.175,16.075 41.275,13.9 C45.625,15.55 49.3,18.6 51.75,22.5 Z M35,12.65 C38.425,13.425 41.425,17.2 43.225,22.5 L35,22.5 L35,12.65 Z M26.125,13.95 C24.225,16.1 22.65,19.05 21.575,22.5 L15.75,22.5 C18.175,18.625 21.8,15.6 26.125,13.95 Z M14.4,25 L20.9,25 C20.35,27.35 20.05,29.875 19.95,32.5 L12.575,32.5 C12.725,29.85 13.35,27.3 14.4,25 Z M12.575,35 L19.975,35 C20.05,37.625 20.375,40.15 20.925,42.5 L14.425,42.5 C13.35,40.2 12.725,37.65 12.575,35 Z M15.75,45 L21.575,45 C22.65,48.45 24.225,51.4 26.125,53.55 C21.8,51.9 18.175,48.875 15.75,45 Z M32.5,54.875 C29.05,54.15 26.025,50.35 24.2,45 L32.5,45 L32.5,54.875 Z M32.5,42.5 L23.475,42.5 C22.9,40.175 22.55,37.65 22.45,35 L32.5,35 L32.5,42.5 Z M32.5,32.5 L22.45,32.5 C22.525,29.85 22.9,27.325 23.475,25 L32.5,25 L32.5,32.5 Z M32.5,22.5 L24.2,22.5 C26.025,17.175 29.05,13.375 32.5,12.625 L32.5,22.5 Z" id="Shape" fill="#101828" fill-rule="nonzero"></path>
            <path d="M67.5,35 L67.5,50 L45,50 L45,35 L67.5,35 L67.5,35 Z M67.5,32.5 L45,32.5 C43.625,32.5 42.5,33.625 42.5,35 L42.5,50 C42.5,51.375 43.625,52.5 45,52.5 L67.5,52.5 C68.875,52.5 70,51.375 70,50 L70,35 C70,33.625 68.875,32.5 67.5,32.5 L67.5,32.5 Z" id="Shape" fill="#101828" fill-rule="nonzero"></path>
            <rect id="Rectangle" fill="#101828" fill-rule="nonzero" x="62.5" y="32.5" width="2.5" height="10"></rect>
            <rect id="Rectangle" fill="#101828" fill-rule="nonzero" x="57.5" y="32.5" width="2.5" height="10"></rect>
            <rect id="Rectangle" fill="#101828" fill-rule="nonzero" x="47.5" y="32.5" width="2.5" height="10"></rect>
            <rect id="Rectangle" fill="#101828" fill-rule="nonzero" x="52.5" y="32.5" width="2.5" height="10"></rect>
            <path d="M62.5,52.5 L62.5,55 L50,55 L50,52.5 L62.5,52.5 L62.5,52.5 Z M62.5,50 L50,50 C48.625,50 47.5,51.125 47.5,52.5 L47.5,55 C47.5,56.375 48.625,57.5 50,57.5 L62.5,57.5 C63.875,57.5 65,56.375 65,55 L65,52.5 C65,51.125 63.875,50 62.5,50 L62.5,50 Z" id="Shape" fill="#101828" fill-rule="nonzero"></path>
            <g id="Group" transform="translate(52.500000, 57.500000)" fill="#101828" fill-rule="nonzero">
                <polygon id="Path" points="2.5 12.5 2.5 2.5 2.5 0 0 0 0 12.5"></polygon>
                <polygon id="Path" points="7.5 0 5 0 5 2.5 5 12.5 7.5 12.5"></polygon>
            </g>
            <rect id="Rectangle" x="0" y="0" width="80" height="80"></rect>
        </g>
    </g>
</svg>