<?xml version="1.0" encoding="UTF-8"?>
<svg width="80px" height="80px" viewBox="0 0 80 80" version="1.1" xmlns="http://www.w3.org/2000/svg" xmlns:xlink="http://www.w3.org/1999/xlink">
    <!-- Generator: Sketch 57.1 (83088) - https://sketch.com -->
    <title>175-B80px</title>
    <desc>Created with Sketch.</desc>
    <g id="175-B80px" stroke="none" stroke-width="1" fill="none" fill-rule="evenodd">
        <g>
            <polygon id="Path" fill="#101828" fill-rule="nonzero" points="69.925 70 50.475 53.375 52.1 51.475 70 66.75"></polygon>
            <path d="M35,12.5 C47.4,12.5 57.5,22.6 57.5,35 C57.5,47.4 47.4,57.5 35,57.5 C22.6,57.5 12.5,47.4 12.5,35 C12.5,22.6 22.6,12.5 35,12.5 L35,12.5 Z M35,10 C21.2,10 10,21.2 10,35 C10,48.8 21.2,60 35,60 C48.8,60 60,48.8 60,35 C60,21.2 48.8,10 35,10 L35,10 Z" id="Shape" fill="#101828" fill-rule="nonzero"></path>
            <g id="Group" transform="translate(27.500000, 25.000000)" fill="#101828" fill-rule="nonzero">
                <path d="M5,22.5 L2.5,22.5 L2.5,12.5 L0,12.5 L0,10 L2.5,10 L2.5,0 L11.35,0 C14.75,0 17.5,2.75 17.5,6.15 C17.5,9.65 14.65,12.5 11.15,12.5 L5,12.5 L5,22.5 Z M5,10 L11.15,10 C13.275,10 15,8.275 15,6.15 C15,4.125 13.35,2.5 11.35,2.5 L5,2.5 L5,10 Z" id="Shape"></path>
                <rect id="Rectangle" x="0" y="15" width="12.5" height="2.5"></rect>
            </g>
            <rect id="Rectangle" x="0" y="0" width="80" height="80"></rect>
        </g>
    </g>
</svg>