<?xml version="1.0" encoding="UTF-8"?>
<svg width="32px" height="32px" viewBox="0 0 32 32" version="1.1" xmlns="http://www.w3.org/2000/svg" xmlns:xlink="http://www.w3.org/1999/xlink">
    <!-- Generator: Sketch 57.1 (83088) - https://sketch.com -->
    <title>131-B32px</title>
    <desc>Created with Sketch.</desc>
    <g id="131-B32px" stroke="none" stroke-width="1" fill="none" fill-rule="evenodd">
        <g>
            <path d="M23,18 C23.6,18 24,18.4 24,19 C24,19.6 23.6,20 23,20 C22.4,20 22,19.6 22,19 C22,18.4 22.4,18 23,18 L23,18 Z M23,17 C21.9,17 21,17.9 21,19 C21,20.1 21.9,21 23,21 C24.1,21 25,20.1 25,19 C25,17.9 24.1,17 23,17 L23,17 Z" id="Shape" fill="#101828" fill-rule="nonzero"></path>
            <path d="M17,12 C17.6,12 18,12.4 18,13 C18,13.6 17.6,14 17,14 C16.4,14 16,13.6 16,13 C16,12.4 16.4,12 17,12 L17,12 Z M17,11 C15.9,11 15,11.9 15,13 C15,14.1 15.9,15 17,15 C18.1,15 19,14.1 19,13 C19,11.9 18.1,11 17,11 L17,11 Z" id="Shape" fill="#101828" fill-rule="nonzero"></path>
            <rect id="Rectangle" fill="#101828" fill-rule="nonzero" transform="translate(19.958045, 16.032755) rotate(-45.000000) translate(-19.958045, -16.032755) " x="13.4081078" y="15.5327598" width="13.0998744" height="1"></rect>
            <path d="M27,9 L27,23 L8.3,23 L5,20.5 L5,11.5 L8.3,9 L27,9 L27,9 Z M27,8 L8.3,8 C8.1,8 7.9,8.1 7.7,8.2 L4.4,10.7 C4.1,10.9 4,11.2 4,11.5 L4,20.5 C4,20.8 4.1,21.1 4.4,21.3 L7.7,23.8 C7.9,23.9 8.1,24 8.3,24 L27,24 C27.6,24 28,23.6 28,23 L28,9 C28,8.4 27.6,8 27,8 L27,8 Z" id="Shape" fill="#101828" fill-rule="nonzero"></path>
            <path d="M8.5,15.5 C8.8,15.5 9,15.7 9,16 C9,16.3 8.8,16.5 8.5,16.5 C8.2,16.5 8,16.3 8,16 C8,15.7 8.2,15.5 8.5,15.5 L8.5,15.5 Z M8.5,14.5 C7.7,14.5 7,15.2 7,16 C7,16.8 7.7,17.5 8.5,17.5 C9.3,17.5 10,16.8 10,16 C10,15.2 9.3,14.5 8.5,14.5 L8.5,14.5 Z" id="Shape" fill="#101828" fill-rule="nonzero"></path>
            <rect id="Rectangle" x="0" y="0" width="32" height="32"></rect>
        </g>
    </g>
</svg>