<?xml version="1.0" encoding="UTF-8"?>
<svg width="80px" height="80px" viewBox="0 0 80 80" version="1.1" xmlns="http://www.w3.org/2000/svg" xmlns:xlink="http://www.w3.org/1999/xlink">
    <!-- Generator: Sketch 57.1 (83088) - https://sketch.com -->
    <title>135-B80px</title>
    <desc>Created with Sketch.</desc>
    <g id="135-B80px" stroke="none" stroke-width="1" fill="none" fill-rule="evenodd">
        <g>
            <path d="M51.25,32.325 C50.55,32.325 50,32.875 50,33.575 C50,34.275 50.55,34.825 51.25,34.825 C51.95,34.825 52.5,34.275 52.5,33.575 C52.5,32.875 51.95,32.325 51.25,32.325 L51.25,32.325 Z" id="Path" fill="#101828" fill-rule="nonzero"></path>
            <path d="M61.25,32.325 C60.55,32.325 60,32.875 60,33.575 C60,34.275 60.55,34.825 61.25,34.825 C61.95,34.825 62.5,34.275 62.5,33.575 C62.5,32.875 61.95,32.325 61.25,32.325 L61.25,32.325 Z" id="Path" fill="#101828" fill-rule="nonzero"></path>
            <path d="M18.75,32.325 C18.05,32.325 17.5,32.875 17.5,33.575 C17.5,34.275 18.05,34.825 18.75,34.825 C19.45,34.825 20,34.25 20,33.575 C20,32.9 19.45,32.325 18.75,32.325 L18.75,32.325 Z" id="Path" fill="#101828" fill-rule="nonzero"></path>
            <path d="M28.75,32.325 C28.05,32.325 27.5,32.875 27.5,33.575 C27.5,34.275 28.05,34.825 28.75,34.825 C29.45,34.825 30,34.275 30,33.575 C30,32.875 29.45,32.325 28.75,32.325 L28.75,32.325 Z" id="Path" fill="#101828" fill-rule="nonzero"></path>
            <path d="M50.25,40.125 C53.725,43.05 58.8,43.05 62.25,40.125 L60.75,38.125 C58.175,40.4 54.3,40.375 51.725,38.125 L50.25,40.125 Z" id="Path" fill="#101828" fill-rule="nonzero"></path>
            <path d="M17.75,40.125 C21.225,43.05 26.3,43.05 29.75,40.125 L28.25,38.125 C25.675,40.4 21.8,40.375 19.225,38.125 L17.75,40.125 Z" id="Path" fill="#101828" fill-rule="nonzero"></path>
            <g id="Group" transform="translate(17.500000, 15.000000)" fill="#101828" fill-rule="nonzero">
                <path d="M7.5,7.325 L5,7.325 C5,5.175 6.3,1.075 11.25,1.075 L11.25,3.575 C7.725,3.575 7.5,6.7 7.5,7.325 Z" id="Path"></path>
                <path d="M5,7.325 C5,6.7 4.775,3.575 1.25,3.575 L1.25,1.075 C6.2,1.075 7.5,5.175 7.5,7.325 L5,7.325 L6.25,7.325 L5,7.325 Z" id="Path"></path>
            </g>
            <path d="M56.25,19.825 C48.65,19.825 42.5,25.975 42.5,33.575 C42.5,35 42.725,36.35 43.125,37.65 C44.25,37.875 45.3,38.25 46.325,38.725 C45.5,37.15 45,35.425 45,33.575 C45,27.375 50.05,22.325 56.25,22.325 C62.45,22.325 67.5,27.375 67.5,33.575 C67.5,39.775 62.45,44.825 56.25,44.825 C54.975,44.825 53.75,44.575 52.6,44.175 C53.2,45.1 53.7,46.1 54.075,47.15 C54.775,47.25 55.5,47.325 56.25,47.325 C63.85,47.325 70,41.175 70,33.575 C70,25.975 63.85,19.825 56.25,19.825 Z" id="Path" fill="#101828" fill-rule="nonzero"></path>
            <path d="M27.4,44.15 C26.25,44.55 25.025,44.8 23.75,44.8 C17.55,44.8 12.5,39.75 12.5,33.55 C12.5,27.35 17.55,22.3 23.75,22.3 C29.95,22.3 35,27.35 35,33.55 C35,35.425 34.5,37.15 33.7,38.7 C34.7,38.225 35.775,37.875 36.9,37.625 C37.3,36.325 37.525,34.975 37.525,33.55 C37.525,25.95 31.375,19.8 23.775,19.8 C16.175,19.8 10,25.975 10,33.575 C10,41.175 16.15,47.325 23.75,47.325 C24.5,47.325 25.2,47.25 25.925,47.15 C26.3,46.075 26.8,45.075 27.4,44.15 Z" id="Path" fill="#101828" fill-rule="nonzero"></path>
            <path d="M40,42.375 C45.525,42.375 50,46.85 50,52.35 C50,57.85 45.525,62.325 40,62.325 C34.475,62.325 30,57.85 30,52.35 C30,46.85 34.475,42.375 40,42.375 L40,42.375 Z M40,39.875 C33.1,39.875 27.5,45.45 27.5,52.35 C27.5,59.25 33.1,64.825 40,64.825 C46.9,64.825 52.5,59.25 52.5,52.35 C52.5,45.45 46.9,39.875 40,39.875 L40,39.875 Z" id="Shape" fill="#101828" fill-rule="nonzero"></path>
            <path d="M44.75,58.4 L35.25,58.4 L32.875,49.875 L40,44.225 L47.1,49.9 L44.75,58.4 Z M37.15,55.9 L42.825,55.9 L44.25,50.8 L40,47.425 L35.75,50.825 L37.15,55.9 Z" id="Shape" fill="#101828" fill-rule="nonzero"></path>
            <rect id="Rectangle" fill="#101828" fill-rule="nonzero" x="38.75" y="40.25" width="2.5" height="6"></rect>
            <polygon id="Rectangle" fill="#101828" fill-rule="nonzero" transform="translate(34.323800, 59.096337) rotate(-44.404414) translate(-34.323800, -59.096337) " points="31.0988847 57.8463703 37.5487153 57.8463703 37.5487153 60.3463047 31.0988847 60.3463047"></polygon>
            <polygon id="Rectangle" fill="#101828" fill-rule="nonzero" transform="translate(45.668845, 59.095041) rotate(-43.521022) translate(-45.668845, -59.095041) " points="44.4188825 55.9826347 46.9188075 55.9826347 46.9188075 62.2074478 44.4188825 62.2074478"></polygon>
            <polygon id="Rectangle" fill="#101828" fill-rule="nonzero" transform="translate(31.834187, 49.444537) rotate(-67.975154) translate(-31.834187, -49.444537) " points="30.5842163 46.3821079 33.0841587 46.3821079 33.0841587 52.5069671 30.5842163 52.5069671"></polygon>
            <polygon id="Rectangle" fill="#101828" fill-rule="nonzero" transform="translate(48.418895, 49.425350) rotate(-21.759913) translate(-48.418895, -49.425350) " points="45.1440552 48.1754111 51.6937348 48.1754111 51.6937348 50.6752889 45.1440552 50.6752889"></polygon>
            <polygon id="Path" fill="#101828" fill-rule="nonzero" points="35 29.825 23.225 29.825 21.25 27.825 19.275 29.825 12.5 29.825 12.5 27.325 18.225 27.325 21.25 24.3 24.275 27.325 35 27.325"></polygon>
            <polygon id="Path" fill="#101828" fill-rule="nonzero" points="67.5 29.825 55.725 29.825 53.75 27.825 51.775 29.825 45 29.825 45 27.325 50.725 27.325 53.75 24.3 56.775 27.325 67.5 27.325"></polygon>
            <polygon id="Path" fill="#101828" fill-rule="nonzero" points="50 23.35 47.5 23.35 47.5 14.325 56.625 17.3 55.85 19.675 50 17.75"></polygon>
            <polygon id="Path" fill="#101828" fill-rule="nonzero" points="64.975 23.35 62.475 23.35 62.475 17.75 56.65 19.675 55.85 17.3 64.975 14.325"></polygon>
            <rect id="Rectangle" fill="#101828" fill-rule="nonzero" x="55" y="17.325" width="2.5" height="2.5"></rect>
            <rect id="Rectangle" x="0" y="0" width="80" height="80"></rect>
        </g>
    </g>
</svg>