<?xml version="1.0" encoding="UTF-8"?>
<svg width="42px" height="42px" viewBox="0 0 42 42" version="1.1" xmlns="http://www.w3.org/2000/svg" xmlns:xlink="http://www.w3.org/1999/xlink">
    <!-- Generator: Sketch 57.1 (83088) - https://sketch.com -->
    <title>112-G40px</title>
    <desc>Created with Sketch.</desc>
    <g id="NEW_icons" stroke="none" stroke-width="1" fill="none" fill-rule="evenodd">
        <g id="icons_UD_new-Copy" transform="translate(-244.000000, -14573.000000)">
            <g id="112-G40px" transform="translate(245.000000, 14574.000000)">
                <circle id="Oval-Copy-741" stroke="#E3E8EC" cx="20" cy="20" r="20"></circle>
                <g id="112-B32px-Copy" transform="translate(4.000000, 4.000000)">
                    <g id="Group" transform="translate(4.000000, 5.000000)" fill="#101828" fill-rule="nonzero">
                        <path d="M18.7,14 L18,15.11 L17.3,14 L18.7,14 L18.7,14 Z M20.5,13 L15.5,13 L18,17 L20.5,13 L20.5,13 Z" id="Shape"></path>
                        <rect id="Rectangle" x="17.5" y="7" width="1" height="6"></rect>
                        <path d="M23,3 L23.02,20 L1,20.02 L1.02,3 L23,3 L23,3 Z M23.01,2 L1.02,2 C0.46,2 0,2.46 0,3.02 L0,20.03 C0,20.56 0.44,21 0.98,21 L23.02,21 C23.56,21 24,20.56 24,20.02 L24,2.99 C24,2.44 23.56,2 23.01,2 L23.01,2 Z" id="Shape"></path>
                        <rect id="Rectangle" x="19" y="0" width="1" height="5"></rect>
                        <rect id="Rectangle" x="16" y="0" width="1" height="5"></rect>
                        <rect id="Rectangle" x="13" y="0" width="1" height="5"></rect>
                        <rect id="Rectangle" x="10" y="0" width="1" height="5"></rect>
                        <rect id="Rectangle" x="7" y="0" width="1" height="5"></rect>
                        <rect id="Rectangle" x="4" y="0" width="1" height="5"></rect>
                        <path d="M13,14 L13,16 L11,16 L11,14 L13,14 L13,14 Z M14,13 L10,13 L10,17 L14,17 L14,13 L14,13 Z" id="Shape"></path>
                        <path d="M13,8 L13,10 L11,10 L11,8 L13,8 L13,8 Z M14,7 L10,7 L10,11 L14,11 L14,7 L14,7 Z" id="Shape"></path>
                        <path d="M7,14 L7,16 L5,16 L5,14 L7,14 L7,14 Z M8,13 L4,13 L4,17 L8,17 L8,13 L8,13 Z" id="Shape"></path>
                        <path d="M7,8 L7,10 L5,10 L5,8 L7,8 L7,8 Z M8,7 L4,7 L4,11 L8,11 L8,7 L8,7 Z" id="Shape"></path>
                    </g>
                    <rect id="Rectangle" x="0" y="0" width="32" height="32"></rect>
                </g>
            </g>
        </g>
    </g>
</svg>