<?xml version="1.0" encoding="UTF-8"?>
<svg width="80px" height="80px" viewBox="0 0 80 80" version="1.1" xmlns="http://www.w3.org/2000/svg" xmlns:xlink="http://www.w3.org/1999/xlink">
    <!-- Generator: Sketch 57.1 (83088) - https://sketch.com -->
    <title>107-G80px</title>
    <desc>Created with Sketch.</desc>
    <g id="NEW_icons" stroke="none" stroke-width="1" fill="none" fill-rule="evenodd">
        <g id="icons_UD_new-Copy" transform="translate(-2051.000000, -13787.000000)">
            <g id="107-G80px" transform="translate(2051.000000, 13787.000000)">
                <circle id="Oval-Copy-609" fill="#E3E8EC" cx="40" cy="40" r="40"></circle>
                <g id="107-B32px-Copy-4" transform="translate(12.000000, 12.000000)">
                    <path d="M47.25,17.5 L47.285,43.75 L8.75,43.785 L8.715,17.5 L47.25,17.5 L47.25,17.5 Z M47.285,15.75 L8.715,15.75 C7.77,15.75 7,16.52 7,17.465 L7,43.785 C7,44.73 7.77,45.5 8.715,45.5 L47.285,45.5 C48.23,45.5 49,44.73 49,43.785 L49,17.465 C49,16.52 48.23,15.75 47.285,15.75 L47.285,15.75 Z" id="Shape" fill="#101828" fill-rule="nonzero"></path>
                    <path d="M28,22.75 C32.34,22.75 35.875,26.285 35.875,30.625 C35.875,34.965 32.34,38.5 28,38.5 C23.66,38.5 20.125,34.965 20.125,30.625 C20.125,26.285 23.66,22.75 28,22.75 L28,22.75 Z M28,21 C22.68,21 18.375,25.305 18.375,30.625 C18.375,35.945 22.68,40.25 28,40.25 C33.32,40.25 37.625,35.945 37.625,30.625 C37.625,25.305 33.32,21 28,21 L28,21 Z" id="Shape" fill="#101828" fill-rule="nonzero"></path>
                    <polygon id="Path" fill="#101828" fill-rule="nonzero" points="23.625 29.75 23.625 31.5 27.125 31.5 27.125 35 28.875 35 28.875 31.5 32.375 31.5 32.375 29.75 28.875 29.75 28.875 26.25 27.125 26.25 27.125 29.75"></polygon>
                    <path d="M28,10.5 C31.255,10.5 34.0025,12.74 34.7725,15.75 L21.21,15.75 C21.9975,12.74 24.745,10.5 28,10.5 L28,10.5 Z M28,8.75 C23.17,8.75 19.25,12.67 19.25,17.5 L36.75,17.5 C36.75,12.67 32.83,8.75 28,8.75 L28,8.75 Z" id="Shape" fill="#101828" fill-rule="nonzero"></path>
                    <rect id="Rectangle" x="0" y="0" width="56" height="56"></rect>
                </g>
            </g>
        </g>
    </g>
</svg>