<?xml version="1.0" encoding="UTF-8"?>
<svg width="56px" height="56px" viewBox="0 0 56 56" version="1.1" xmlns="http://www.w3.org/2000/svg" xmlns:xlink="http://www.w3.org/1999/xlink">
    <!-- Generator: Sketch 57.1 (83088) - https://sketch.com -->
    <title>189-G56px</title>
    <desc>Created with Sketch.</desc>
    <g id="NEW_icons" stroke="none" stroke-width="1" fill="none" fill-rule="evenodd">
        <g id="icons_UD_new-Copy" transform="translate(-1728.000000, -24104.000000)">
            <g id="189-G56px" transform="translate(1728.000000, 24104.000000)">
                <circle id="Oval-Copy-1168" fill="#E3E8EC" cx="28" cy="28" r="28"></circle>
                <g id="189-B32px-Copy-3" transform="translate(9.000000, 8.000000)">
                    <path d="M20,13.75 L20,16.25 L10,16.25 L10,13.75 L20,13.75 L20,13.75 Z M21.25,12.5 L8.75,12.5 L8.75,17.5 L21.25,17.5 L21.25,12.5 L21.25,12.5 Z" id="Shape" fill="#101828" fill-rule="nonzero"></path>
                    <path d="M20,10 L20,12.5 L10,12.5 L10,10 L20,10 L20,10 Z M21.25,8.75 L8.75,8.75 L8.75,13.75 L21.25,13.75 L21.25,8.75 L21.25,8.75 Z" id="Shape" fill="#101828" fill-rule="nonzero"></path>
                    <circle id="Oval" fill="#101828" fill-rule="nonzero" cx="18.125" cy="18.75" r="1"></circle>
                    <circle id="Oval" fill="#101828" fill-rule="nonzero" cx="18.125" cy="15" r="1"></circle>
                    <circle id="Oval" fill="#101828" fill-rule="nonzero" cx="18.125" cy="11.25" r="1"></circle>
                    <path d="M15,28.75 C13.625,28.75 12.5,27.625 12.5,26.25 C12.5,24.875 13.625,23.75 15,23.75 C16.375,23.75 17.5,24.875 17.5,26.25 C17.5,27.625 16.375,28.75 15,28.75 Z M15,25 C14.3125,25 13.75,25.5625 13.75,26.25 C13.75,26.9375 14.3125,27.5 15,27.5 C15.6875,27.5 16.25,26.9375 16.25,26.25 C16.25,25.5625 15.6875,25 15,25 Z" id="Shape" fill="#101828" fill-rule="nonzero"></path>
                    <circle id="Oval" fill="#101828" fill-rule="nonzero" cx="9.375" cy="30.625" r="1"></circle>
                    <circle id="Oval" fill="#101828" fill-rule="nonzero" cx="9.375" cy="28.125" r="1"></circle>
                    <circle id="Oval" fill="#101828" fill-rule="nonzero" cx="9.375" cy="25.625" r="1"></circle>
                    <circle id="Oval" fill="#101828" fill-rule="nonzero" cx="9.375" cy="23.125" r="1"></circle>
                    <path d="M19.3875,32.5 L6.3125,32.5 C6.275,32.5 6.25,32.475 6.25,32.4375 L6.25,6.3125 C6.25,6.275 6.275,6.25 6.3125,6.25 L23.7,6.25 C23.725,6.25 23.75,6.275 23.75,6.3125 L23.75,18.05 C24.15,17.9125 24.575,17.775 25,17.6875 L25,6.3125 C25,5.5875 24.4125,5 23.6875,5 L6.3125,5 C5.5875,5 5,5.5875 5,6.3125 L5,32.45 C5,33.1625 5.5875,33.75 6.3125,33.75 L20.525,33.75 C20.1,33.3625 19.725,32.95 19.3875,32.5 Z" id="Path" fill="#101828" fill-rule="nonzero"></path>
                    <path d="M26.875,20 C30.6625,20 33.75,23.0875 33.75,26.875 C33.75,30.6625 30.6625,33.75 26.875,33.75 C23.0875,33.75 20,30.6625 20,26.875 C20,23.0875 23.0875,20 26.875,20 L26.875,20 Z M26.875,18.75 C22.3875,18.75 18.75,22.3875 18.75,26.875 C18.75,31.3625 22.3875,35 26.875,35 C31.3625,35 35,31.3625 35,26.875 C35,22.3875 31.3625,18.75 26.875,18.75 L26.875,18.75 Z" id="Shape" fill="#101828" fill-rule="nonzero"></path>
                    <path d="M21.25,19.3875 L21.25,16.25 L8.75,16.25 L8.75,21.25 L19.3875,21.25 C19.9125,20.55 20.55,19.9125 21.25,19.3875 Z M10,17.5 L20,17.5 L20,20 L10,20 L10,17.5 Z" id="Shape" fill="#101828" fill-rule="nonzero"></path>
                    <rect id="Rectangle" fill="#101828" fill-rule="nonzero" x="21.25" y="26.8625" width="3.125" height="1.25"></rect>
                    <g id="Group" transform="translate(25.000000, 22.500000)" fill="#101828" fill-rule="nonzero">
                        <path d="M3.1375,8.025 L1.8875,8.025 L1.8875,5.0125 L0.65,5.0125 L0.65,3.7625 L1.8875,3.7625 L1.8875,0.5375 L4.9625,0.5375 C6.175,0.5375 7.175,1.525 7.175,2.75 C7.175,4 6.1625,5.025 4.9,5.025 L3.1375,5.025 L3.1375,8.025 Z M3.1375,3.7625 L4.9,3.7625 C5.4625,3.7625 5.925,3.3 5.925,2.7375 C5.925,2.2125 5.5,1.775 4.9625,1.775 L3.1375,1.775 L3.1375,3.7625 Z" id="Shape"></path>
                        <rect id="Rectangle" x="0.6375" y="5.525" width="5" height="1.25"></rect>
                    </g>
                    <rect id="Rectangle" x="0" y="0" width="40" height="40"></rect>
                </g>
            </g>
        </g>
    </g>
</svg>