<?xml version="1.0" encoding="UTF-8"?>
<svg width="42px" height="42px" viewBox="0 0 42 42" version="1.1" xmlns="http://www.w3.org/2000/svg" xmlns:xlink="http://www.w3.org/1999/xlink">
    <!-- Generator: Sketch 57.1 (83088) - https://sketch.com -->
    <title>190-G40px</title>
    <desc>Created with Sketch.</desc>
    <g id="NEW_icons" stroke="none" stroke-width="1" fill="none" fill-rule="evenodd">
        <g id="icons_UD_new-Copy" transform="translate(-244.000000, -24375.000000)">
            <g id="190-G40px" transform="translate(245.000000, 24376.000000)">
                <circle id="Oval-Copy-1255" stroke="#E3E8EC" cx="20" cy="20" r="20"></circle>
                <g id="190-B32px-Copy" transform="translate(4.000000, 4.000000)">
                    <path d="M12,17 L12,23 L12,24 L13,24 L14,24 L14,26 L9,26 L9,17 L12,17 L12,17 Z M12,16 L9,16 C8.45,16 8,16.45 8,17 L8,26 C8,26.55 8.45,27 9,27 L14,27 C14.55,27 15,26.55 15,26 L15,24 C15,23.45 14.55,23 14,23 L13,23 L13,17 C13,16.45 12.55,16 12,16 L12,16 Z" id="Shape" fill="#101828" fill-rule="nonzero"></path>
                    <path d="M14.91,17 C14.96,17 15,17.04 15,17.09 L15,18.91 C15,18.96 14.96,19 14.91,19 L13.09,19 C13.04,19 13,18.96 13,18.91 L13,17.09 C13,17.04 13.04,17 13.09,17 L14.91,17 L14.91,17 Z M14.91,16 L13.09,16 C12.49,16 12,16.49 12,17.09 L12,18.91 C12,19.51 12.49,20 13.09,20 L14.91,20 C15.51,20 16,19.51 16,18.91 L16,17.09 C16,16.49 15.51,16 14.91,16 L14.91,16 Z" id="Shape" fill="#101828" fill-rule="nonzero"></path>
                    <path d="M23.91,9 C23.96,9 24,9.04 24,9.09 L24,13.91 C24,13.96 23.96,14 23.91,14 L22.09,14 C22.04,14 22,13.96 22,13.91 L22,9.09 C22,9.04 22.04,9 22.09,9 L23.91,9 L23.91,9 Z M23.91,8 L22.09,8 C21.49,8 21,8.49 21,9.09 L21,13.91 C21,14.51 21.49,15 22.09,15 L23.91,15 C24.51,15 25,14.51 25,13.91 L25,9.09 C25,8.49 24.51,8 23.91,8 L23.91,8 Z" id="Shape" fill="#101828" fill-rule="nonzero"></path>
                    <path d="M20.91,7 C20.96,7 21,7.04 21,7.09 L21,15.91 C21,15.96 20.96,16 20.91,16 L5.09,16 C5.04,16 5,15.96 5,15.91 L5,7.09 C5,7.04 5.04,7 5.09,7 L20.91,7 L20.91,7 Z M20.91,6 L5.09,6 C4.49,6 4,6.49 4,7.09 L4,15.91 C4,16.51 4.49,17 5.09,17 L20.91,17 C21.51,17 22,16.51 22,15.91 L22,7.09 C22,6.49 21.51,6 20.91,6 L20.91,6 Z" id="Shape" fill="#101828" fill-rule="nonzero"></path>
                    <path d="M12.91,10 C12.96,10 13,10.04 13,10.09 L13,12.91 C13,12.96 12.96,13 12.91,13 L8.09,13 C8.04,13 8,12.96 8,12.91 L8,10.09 C8,10.04 8.04,10 8.09,10 L12.91,10 L12.91,10 Z M12.91,9 L8.09,9 C7.49,9 7,9.49 7,10.09 L7,12.91 C7,13.51 7.49,14 8.09,14 L12.91,14 C13.51,14 14,13.51 14,12.91 L14,10.09 C14,9.49 13.51,9 12.91,9 L12.91,9 Z" id="Shape" fill="#101828" fill-rule="nonzero"></path>
                    <rect id="Rectangle" fill="#101828" fill-rule="nonzero" x="15" y="11" width="4" height="1"></rect>
                    <rect id="Rectangle" fill="#101828" fill-rule="nonzero" x="25" y="11" width="3" height="1"></rect>
                    <rect id="Rectangle" fill="#101828" fill-rule="nonzero" x="15" y="9" width="4" height="1"></rect>
                    <path d="M9.5,12 C9.77,12 10,11.78 10,11.5 C10,11.22 9.78,11 9.5,11 C9.23,11 9,11.22 9,11.5 C9.01,11.78 9.23,12 9.5,12" id="Path" fill="#101828" fill-rule="nonzero"></path>
                    <rect id="Rectangle" x="0" y="0" width="32" height="32"></rect>
                </g>
            </g>
        </g>
    </g>
</svg>