<?xml version="1.0" encoding="UTF-8"?>
<svg width="80px" height="80px" viewBox="0 0 80 80" version="1.1" xmlns="http://www.w3.org/2000/svg" xmlns:xlink="http://www.w3.org/1999/xlink">
    <!-- Generator: Sketch 57.1 (83088) - https://sketch.com -->
    <title>127-B80px</title>
    <desc>Created with Sketch.</desc>
    <g id="127-B80px" stroke="none" stroke-width="1" fill="none" fill-rule="evenodd">
        <g>
            <path d="M61.25,10.5 C61.225,10.425 61.225,10.375 61.175,10.3 C61.15,10.25 61.1,10.2 61.05,10.175 C61.025,10.15 61,10.1 60.975,10.075 C60.95,10.05 60.9,10.075 60.875,10.05 C60.85,10.05 60.825,10 60.8,10 C60.775,10 60.75,10.025 60.725,10.025 C60.625,10.025 60.55,10.025 60.475,10.075 C60.425,10.1 60.4,10.125 60.35,10.15 C60.325,10.175 60.275,10.175 60.25,10.2 L21.2,53.075 C21.175,53.1 21.175,53.125 21.175,53.15 C19.65,54.925 18.725,57.225 18.725,59.75 C18.725,65.15 22.925,69.625 28.4,70 L60.475,70 C60.8,70 61.075,69.725 61.075,69.4 L61.25,10.625 C61.275,10.575 61.25,10.55 61.25,10.5 Z M36.725,53.025 C34.775,50.775 31.95,49.475 28.975,49.475 C27.825,49.475 26.75,49.7 25.725,50.05 L57.675,14.95 C54.85,20.175 48.9,31.025 36.725,53.025 Z" id="Shape" fill="#101828" fill-rule="nonzero"></path>
            <rect id="Rectangle" x="0" y="0" width="80" height="80"></rect>
        </g>
    </g>
</svg>