<?xml version="1.0" encoding="UTF-8"?>
<svg width="80px" height="80px" viewBox="0 0 80 80" version="1.1" xmlns="http://www.w3.org/2000/svg" xmlns:xlink="http://www.w3.org/1999/xlink">
    <!-- Generator: Sketch 57.1 (83088) - https://sketch.com -->
    <title>165-B80px</title>
    <desc>Created with Sketch.</desc>
    <g id="165-B80px" stroke="none" stroke-width="1" fill="none" fill-rule="evenodd">
        <g>
            <g id="Group" transform="translate(10.000000, 27.500000)" fill="#101828">
                <g id="Fill-286">
                    <path d="M0,0.375 L0,24.575 L6.675,24.575 L6.675,15.625 L10.95,15.625 L10.95,24.575 L17.625,24.575 L17.625,0.375 L10.95,0.375 L10.95,9.5 L6.675,9.5 L6.675,0.375 L0,0.375 Z M25.025,15.2 L25.025,18.9 L28.575,18.9 C28.575,18.9 30,18.75 30,16.9 C30,15.2 28.575,15.2 28.575,15.2 L25.025,15.2 Z M25.025,6.27499015 L25.025,9.925 L28.575,9.925 C28.575,9.925 30,9.75 30,8 C30,6.25 28.575,6.27499015 28.575,6.27499015 L25.025,6.27499015 Z M29.3,0.375 C31.15,0.375 36.4,1.375 36.4,6.55 C36.4,10.725 34.4,11.95 32.85,12.225 C31.7,12.45 36.125,12.225 36.125,17.45 C36.125,24.85 29.725,24.55 29.725,24.55 L19.05,24.55 L19.05,0.35 L29.3,0.35 L29.3,0.375 Z" id="Shape"></path>
                </g>
                <g id="Fill-287" transform="translate(35.000000, 0.000000)">
                    <path d="M12.625,6.375 C9.25,6.375 6.525,9.125 6.525,12.5 C6.525,15.875 9.275,18.6 12.625,18.6 C16,18.6 18.725,15.85 18.725,12.5 C18.75,9.125 16,6.375 12.625,6.375 M12.625,24.875 C5.8,24.875 0.25,19.325 0.25,12.5 C0.25,5.675 5.8,0.125 12.625,0.125 C19.45,0.125 25,5.675 25,12.5 C25,19.325 19.45,24.875 12.625,24.875" id="Shape"></path>
                </g>
                <g id="Fill-288" transform="translate(42.500000, 7.500000)">
                    <path d="M5.125,0.675 C7.5,0.675 9.45,2.6 9.45,5 C9.45,7.375 7.525,9.325 5.125,9.325 C2.725,9.325 0.8,7.4 0.8,5 C0.8,2.625 2.75,0.675 5.125,0.675" id="Path"></path>
                </g>
            </g>
            <rect id="Rectangle" x="0" y="0" width="80" height="80"></rect>
        </g>
    </g>
</svg>