<?xml version="1.0" encoding="UTF-8"?>
<svg width="42px" height="42px" viewBox="0 0 42 42" version="1.1" xmlns="http://www.w3.org/2000/svg" xmlns:xlink="http://www.w3.org/1999/xlink">
    <!-- Generator: Sketch 57.1 (83088) - https://sketch.com -->
    <title>214-G40px</title>
    <desc>Created with Sketch.</desc>
    <g id="NEW_icons" stroke="none" stroke-width="1" fill="none" fill-rule="evenodd">
        <g id="icons_UD_new-Copy" transform="translate(-253.000000, -27387.000000)">
            <g id="214-G40px" transform="translate(254.000000, 27388.000000)">
                <circle id="Oval-Copy-1316" stroke="#E3E8EC" cx="20" cy="20" r="20"></circle>
                <g id="214-B32px-Copy" transform="translate(4.000000, 4.000000)">
                    <path d="M9.49,15.01 C9.76,15.01 9.98,15.23 9.98,15.5 C9.98,15.77 9.76,15.99 9.49,15.99 C9.22,15.99 9,15.77 9,15.5 C9,15.23 9.22,15.01 9.49,15.01 L9.49,15.01 Z M9.49,14.01 C8.67,14.01 8,14.68 8,15.5 C8,16.32 8.67,16.99 9.49,16.99 C10.31,16.99 10.98,16.32 10.98,15.5 C10.98,14.68 10.31,14.01 9.49,14.01 L9.49,14.01 Z" id="Shape" fill="#101828" fill-rule="nonzero"></path>
                    <path d="M22.49,12 C22.76,12 22.98,12.22 22.98,12.49 C22.98,12.76 22.76,12.98 22.49,12.98 C22.22,12.98 22,12.77 22,12.5 C22,12.23 22.22,12 22.49,12 L22.49,12 Z M22.49,11 C21.67,11 21,11.67 21,12.5 C21,13.33 21.67,13.99 22.49,13.99 C23.31,13.99 23.98,13.32 23.98,12.5 C23.98,11.68 23.31,11 22.49,11 L22.49,11 Z" id="Shape" fill="#101828" fill-rule="nonzero"></path>
                    <path d="M21.24,12.56 L16.79,14.8 L15.79,11.8 L10.32,14.56 C10.56,14.79 10.72,15.11 10.76,15.46 L15.21,13.21 L16.21,16.21 L21.68,13.46 C21.44,13.22 21.28,12.91 21.24,12.56 Z" id="Path" fill="#101828" fill-rule="nonzero"></path>
                    <path d="M27.01,7 L4.99,7 C4.44,7 4,7.44 4,7.99 L4,19 L4.99,19 L4.99,8 L27,8 L27.01,21 L10.27,21 C9.88,21 9.49,21.12 9.17,21.34 L5.66,23.69 L4,24.81 L4,26 L9.72,22.17 C9.89,22.06 10.08,22 10.27,22 L27.01,22 C27.55,22 28,21.56 28,21.01 L28,7.99 C28,7.44 27.56,7 27.01,7 Z" id="Path" fill="#101828" fill-rule="nonzero"></path>
                    <rect id="Rectangle" x="0" y="0" width="32" height="32"></rect>
                </g>
            </g>
        </g>
    </g>
</svg>