<?xml version="1.0" encoding="UTF-8"?>
<svg width="32px" height="32px" viewBox="0 0 32 32" version="1.1" xmlns="http://www.w3.org/2000/svg" xmlns:xlink="http://www.w3.org/1999/xlink">
    <!-- Generator: Sketch 57.1 (83088) - https://sketch.com -->
    <title>181-B32px</title>
    <desc>Created with Sketch.</desc>
    <g id="181-B32px" stroke="none" stroke-width="1" fill="none" fill-rule="evenodd">
        <g>
            <path d="M27,8 L27.02,25 L5,25.02 L5.02,8 L27,8 L27,8 Z M27.01,7 L5.02,7 C4.45,7 4,7.45 4,8.02 L4,25.03 C4,25.56 4.44,26 4.98,26 L27.02,26 C27.56,26 28,25.56 28,25.02 L28,7.99 C28,7.44 27.56,7 27.01,7 L27.01,7 Z" id="Shape" fill="#101828" fill-rule="nonzero"></path>
            <path d="M10,13 C10.55,13 11,13.45 11,14 C11,14.55 10.55,15 10,15 C9.45,15 9,14.55 9,14 C9,13.45 9.45,13 10,13 L10,13 Z M10,12 C8.9,12 8,12.9 8,14 C8,15.1 8.9,16 10,16 C11.1,16 12,15.1 12,14 C12,12.9 11.1,12 10,12 L10,12 Z" id="Shape" fill="#101828" fill-rule="nonzero"></path>
            <path d="M16,13 C16.55,13 17,13.45 17,14 C17,14.55 16.55,15 16,15 C15.45,15 15,14.55 15,14 C15,13.45 15.45,13 16,13 L16,13 Z M16,12 C14.9,12 14,12.9 14,14 C14,15.1 14.9,16 16,16 C17.1,16 18,15.1 18,14 C18,12.9 17.1,12 16,12 L16,12 Z" id="Shape" fill="#101828" fill-rule="nonzero"></path>
            <path d="M22,13 C22.55,13 23,13.45 23,14 C23,14.55 22.55,15 22,15 C21.45,15 21,14.55 21,14 C21,13.45 21.45,13 22,13 L22,13 Z M22,12 C20.9,12 20,12.9 20,14 C20,15.1 20.9,16 22,16 C23.1,16 24,15.1 24,14 C24,12.9 23.1,12 22,12 L22,12 Z" id="Shape" fill="#101828" fill-rule="nonzero"></path>
            <path d="M10,19 C10.55,19 11,19.45 11,20 C11,20.55 10.55,21 10,21 C9.45,21 9,20.55 9,20 C9,19.45 9.45,19 10,19 L10,19 Z M10,18 C8.9,18 8,18.9 8,20 C8,21.1 8.9,22 10,22 C11.1,22 12,21.1 12,20 C12,18.9 11.1,18 10,18 L10,18 Z" id="Shape" fill="#101828" fill-rule="nonzero"></path>
            <path d="M16,19 C16.55,19 17,19.45 17,20 C17,20.55 16.55,21 16,21 C15.45,21 15,20.55 15,20 C15,19.45 15.45,19 16,19 L16,19 Z M16,18 C14.9,18 14,18.9 14,20 C14,21.1 14.9,22 16,22 C17.1,22 18,21.1 18,20 C18,18.9 17.1,18 16,18 L16,18 Z" id="Shape" fill="#101828" fill-rule="nonzero"></path>
            <path d="M23,19 L23,21 L21,21 L21,19 L23,19 L23,19 Z M24,18 L20,18 L20,22 L24,22 L24,18 L24,18 Z" id="Shape" fill="#101828" fill-rule="nonzero"></path>
            <rect id="Rectangle" fill="#101828" fill-rule="nonzero" x="23" y="5" width="1" height="5"></rect>
            <rect id="Rectangle" fill="#101828" fill-rule="nonzero" x="20" y="5" width="1" height="5"></rect>
            <rect id="Rectangle" fill="#101828" fill-rule="nonzero" x="17" y="5" width="1" height="5"></rect>
            <rect id="Rectangle" fill="#101828" fill-rule="nonzero" x="14" y="5" width="1" height="5"></rect>
            <rect id="Rectangle" fill="#101828" fill-rule="nonzero" x="11" y="5" width="1" height="5"></rect>
            <rect id="Rectangle" fill="#101828" fill-rule="nonzero" x="8" y="5" width="1" height="5"></rect>
            <rect id="Rectangle" x="0" y="0" width="32" height="32"></rect>
        </g>
    </g>
</svg>