<?xml version="1.0" encoding="UTF-8"?>
<svg width="80px" height="80px" viewBox="0 0 80 80" version="1.1" xmlns="http://www.w3.org/2000/svg" xmlns:xlink="http://www.w3.org/1999/xlink">
    <!-- Generator: Sketch 57.1 (83088) - https://sketch.com -->
    <title>041-B80px</title>
    <desc>Created with Sketch.</desc>
    <g id="041-B80px" stroke="none" stroke-width="1" fill="none" fill-rule="evenodd">
        <g>
            <path d="M55.15,35.825 C54.4,34.375 52.375,33.75 49.625,33.875 C46.4,34.025 42.2,35.25 37.95,37.45 C37.925,37.475 37.9,37.475 37.875,37.5 C37.875,37.5 37.85,37.5 37.825,37.5 C33.575,39.675 30.125,42.375 28.125,44.875 C26.4,47.025 25.725,49.05 26.475,50.5 C28.1,53.675 35.8,52.975 43.675,48.95 C43.7,48.925 43.725,48.925 43.775,48.9 C43.8,48.875 43.85,48.875 43.875,48.85 C51.725,44.825 56.8,38.975 55.15,35.825 Z M51.125,40.325 C49.225,42.525 46.15,44.8 42.675,46.575 C42.65,46.6 42.625,46.6 42.575,46.625 C42.55,46.65 42.525,46.65 42.475,46.675 C39,48.45 35.35,49.625 32.45,49.875 C29.725,50.125 28.8,49.475 28.725,49.35 C28.675,49.225 28.675,48.275 30.1,46.5 C31.975,44.175 35.2,41.725 38.975,39.8 C39,39.775 39.025,39.775 39.05,39.775 C39.075,39.75 39.1,39.75 39.125,39.725 C42.875,37.8 46.75,36.6 49.75,36.45 C52.025,36.325 52.8,36.9 52.85,37 C52.95,37.125 52.925,38.25 51.125,40.325 Z" id="Shape" fill="#101828" fill-rule="nonzero"></path>
            <path d="M68.7,27.1 C68.575,26.85 68.4,26.625 68.225,26.4 L68.25,26.375 C68.25,26.375 65.05,21.075 54.475,21.3 C54.475,21.3 52.225,21.475 50.65,21.55 C50.05,21.575 49.55,21.6 49.3,21.575 C48.375,21.55 45.95,20.975 45.95,20.975 C45.95,20.975 40.05,19.875 39.725,19.825 C38.5,19.65 37.325,19.525 36.1,19.6 C33.75,19.725 31.575,20.325 29.625,21.325 C27.675,22.35 25.9,23.75 24.45,25.6 C23.675,26.575 23.1,27.6 22.525,28.675 C22.375,28.95 19.825,34.4 19.825,34.4 C19.825,34.4 18.875,36.7 18.35,37.475 C18.2,37.675 17.9,38.075 17.525,38.55 C16.55,39.775 15.1,41.5 15.1,41.5 C8.725,49.975 11.15,55.65 11.15,55.65 L11.175,55.65 C11.25,55.925 11.35,56.175 11.475,56.425 C14.7,62.75 30.125,61.375 45.9,53.325 C45.925,53.3 45.975,53.3 46,53.275 C46.025,53.25 46.075,53.25 46.1,53.225 C61.825,45.1 71.95,33.4 68.7,27.1 Z M62.55,37.825 C60.025,40.75 56.625,43.65 52.675,46.325 C52.625,46.375 52.55,46.4 52.5,46.45 C51.775,46.95 51.025,47.425 50.275,47.9 C50.025,48.05 49.75,48.2 49.5,48.375 C48.9,48.725 48.325,49.1 47.7,49.45 C46.8,49.95 45.875,50.45 44.925,50.95 C44.9,50.975 44.85,50.975 44.825,51 C44.8,51.025 44.75,51.025 44.725,51.05 C43.775,51.55 42.825,52 41.875,52.425 C41.225,52.725 40.6,53 39.975,53.275 C39.7,53.4 39.425,53.525 39.15,53.625 C38.325,53.975 37.5,54.3 36.675,54.6 C36.6,54.625 36.55,54.65 36.475,54.675 C31.975,56.325 27.65,57.375 23.8,57.725 C18.4,58.2 14.75,57.2 13.8,55.275 C13.775,55.225 13.75,55.15 13.725,55.075 L13.65,54.875 L13.5,54.45 C13.175,52.6 14.35,49.8 16.775,46.75 C20.725,41.8 27.5,36.675 35.35,32.65 C35.375,32.65 35.4,32.625 35.425,32.625 C35.45,32.625 35.475,32.6 35.5,32.6 C43.35,28.575 51.45,26.075 57.775,25.75 C61.675,25.55 64.6,26.225 65.925,27.575 L66.175,27.9 L66.3,28.075 C66.35,28.15 66.4,28.2 66.425,28.25 C67.4,30.175 66.1,33.7 62.55,37.825 Z" id="Shape" fill="#101828" fill-rule="nonzero"></path>
            <rect id="Rectangle" x="0" y="0" width="80" height="80"></rect>
        </g>
    </g>
</svg>