<?xml version="1.0" encoding="UTF-8"?>
<svg width="56px" height="56px" viewBox="0 0 56 56" version="1.1" xmlns="http://www.w3.org/2000/svg" xmlns:xlink="http://www.w3.org/1999/xlink">
    <!-- Generator: Sketch 57.1 (83088) - https://sketch.com -->
    <title>182-G56px</title>
    <desc>Created with Sketch.</desc>
    <g id="NEW_icons" stroke="none" stroke-width="1" fill="none" fill-rule="evenodd">
        <g id="icons_UD_new-Copy" transform="translate(-446.000000, -23352.000000)">
            <g id="182-G56px" transform="translate(446.000000, 23352.000000)">
                <circle id="Oval-Copy-1126" fill="#E3E8EC" cx="28" cy="28" r="28"></circle>
                <g id="182-B32px-Copy-3" transform="translate(8.000000, 8.000000)">
                    <path d="M26.25,32.5 L26.25,33.75 L8.75,33.75 L8.75,32.5 L8.75,32.5 L8.75,6.25 L26.25,6.25 L26.25,15 L27.5,15 L27.5,6.25 C27.5,5.5625 26.9375,5 26.25,5 L8.75,5 C8.0625,5 7.5,5.5625 7.5,6.25 L7.5,32.5 L7.5,33.75 C7.5,34.4375 8.0625,35 8.75,35 L26.25,35 C26.9375,35 27.5,34.4375 27.5,33.75 L27.5,32.5 L26.25,32.5 Z" id="Path" fill="#101828" fill-rule="nonzero"></path>
                    <rect id="Rectangle" fill="#101828" fill-rule="nonzero" x="21.875" y="13.7625" width="1.25" height="2.475"></rect>
                    <rect id="Rectangle" fill="#101828" fill-rule="nonzero" x="19.375" y="12.5" width="1.25" height="5"></rect>
                    <rect id="Rectangle" fill="#101828" fill-rule="nonzero" x="16.875" y="9.9875" width="1.25" height="8.7375"></rect>
                    <rect id="Rectangle" fill="#101828" fill-rule="nonzero" x="11.875" y="13.775" width="1.25" height="2.4875"></rect>
                    <rect id="Rectangle" fill="#101828" fill-rule="nonzero" x="14.375" y="12.5" width="1.25" height="5"></rect>
                    <circle id="Oval" fill="#101828" fill-rule="nonzero" cx="17.5" cy="31.875" r="1"></circle>
                    <path d="M32.5,22.5 L32.5,30 L25,30 L25,22.5 L32.5,22.5 L32.5,22.5 Z M32.55,21.25 L24.95,21.25 C24.2875,21.25 23.75,21.7875 23.75,22.45 L23.75,30.05 C23.75,30.7125 24.2875,31.25 24.95,31.25 L32.55,31.25 C33.2125,31.25 33.75,30.7125 33.75,30.05 L33.75,22.45 C33.75,21.7875 33.2125,21.25 32.55,21.25 L32.55,21.25 Z" id="Shape" fill="#101828" fill-rule="nonzero"></path>
                    <path d="M28.75,27.5 C28.4,27.5 28.125,27.225 28.125,26.875 L28.125,25.625 C28.125,25.275 28.4,25 28.75,25 C29.1,25 29.375,25.275 29.375,25.625 L29.375,26.875 C29.375,27.225 29.1,27.5 28.75,27.5 Z" id="Path" fill="#101828" fill-rule="nonzero"></path>
                    <rect id="Rectangle" fill="#101828" fill-rule="nonzero" x="8.75" y="28.75" width="13.75" height="1.25"></rect>
                    <path d="M30,21.25 L30,21.25 L26.25,21.25 L26.25,20 C26.25,18.625 27.375,17.5 28.75,17.5 C29.675,17.5 30.475,18.0125 30.9,18.75 L32.2625,18.75 C31.75,17.3 30.375,16.25 28.7375,16.25 C26.6625,16.25 24.9875,17.925 24.9875,20 L24.9875,22.5 L32.4875,22.5 L32.4875,21.25 L30,21.25 Z" id="Path" fill="#101828" fill-rule="nonzero"></path>
                    <rect id="Rectangle" x="0" y="0" width="40" height="40"></rect>
                </g>
            </g>
        </g>
    </g>
</svg>