<?xml version="1.0" encoding="UTF-8"?>
<svg width="56px" height="56px" viewBox="0 0 56 56" version="1.1" xmlns="http://www.w3.org/2000/svg" xmlns:xlink="http://www.w3.org/1999/xlink">
    <!-- Generator: Sketch 57.1 (83088) - https://sketch.com -->
    <title>142-G56px</title>
    <desc>Created with Sketch.</desc>
    <g id="NEW_icons" stroke="none" stroke-width="1" fill="none" fill-rule="evenodd">
        <g id="icons_UD_new-Copy" transform="translate(-446.000000, -18324.000000)">
            <g id="142-G56px" transform="translate(446.000000, 18324.000000)">
                <circle id="Oval-Copy-892" fill="#E3E8EC" cx="28" cy="28" r="28"></circle>
                <g id="142-B32px-Copy-3" transform="translate(8.000000, 8.000000)">
                    <path d="M16.9875,22.5 L11.25,22.5 C7.8,22.5 5,25.3 5,28.75 L5,35 L6.25,35 L6.25,28.75 C6.25,25.9875 8.4875,23.75 11.25,23.75 L16.575,23.75 C16.6875,23.325 16.825,22.9 16.9875,22.5 Z" id="Path" fill="#101828" fill-rule="nonzero"></path>
                    <path d="M26.25,33.125 C22.4625,33.125 19.375,30.0375 19.375,26.25 L20.625,26.25 C20.625,29.35 23.15,31.875 26.25,31.875 L26.25,33.125 Z" id="Path" fill="#101828" fill-rule="nonzero"></path>
                    <path d="M33.125,26.25 L31.875,26.25 C31.875,23.15 29.35,20.625 26.25,20.625 L26.25,19.375 C30.0375,19.375 33.125,22.4625 33.125,26.25 Z" id="Path" fill="#101828" fill-rule="nonzero"></path>
                    <path d="M26.25,18.75 C30.3875,18.75 33.75,22.1125 33.75,26.25 C33.75,30.3875 30.3875,33.75 26.25,33.75 C22.1125,33.75 18.75,30.3875 18.75,26.25 C18.75,22.1125 22.1125,18.75 26.25,18.75 L26.25,18.75 Z M26.25,17.5 C21.4125,17.5 17.5,21.4125 17.5,26.25 C17.5,31.0875 21.4125,35 26.25,35 C31.0875,35 35,31.0875 35,26.25 C35,21.4125 31.0875,17.5 26.25,17.5 L26.25,17.5 Z" id="Shape" fill="#101828" fill-rule="nonzero"></path>
                    <path d="M29.3875,24.9 L26.6,22.1 C26.5,22 26.325,22 26.225,22.1 L24.65,23.675 C24.175,24.15 24.1874687,24.625 24.1874687,25.175 L24.1874687,29.625 C24.1874687,29.85 24.2625,30.075 24.425,30.225 C24.575,30.375 24.7875,30.475 24.9875,30.475 L28.225,30.475 C28.3375,30.475 28.425,30.4125 28.475,30.3125 C28.5125,30.2125 28.4875,30.1 28.4125,30.025 L26.525,28.1375 L29.3875,25.275 C29.4875,25.1625 29.4875,25 29.3875,24.9 Z M27.3125,29.825 L25,29.825 C24.975,29.825 24.95,29.8125 24.95,29.8125 C24.9375,29.7875 24.925,29.775 24.925,29.7625 L24.925,29.725 C25.025,29.6125 25.325,29.3125 25.35,29.2875 L26.0625,28.575 L27.3125,29.825 Z" id="Shape" fill="#101828" fill-rule="nonzero"></path>
                    <path d="M16.25,6.25 C19.7,6.25 22.5,9.05 22.5,12.5 C22.5,15.95 19.7,18.75 16.25,18.75 C12.8,18.75 10,15.95 10,12.5 C10,9.05 12.8,6.25 16.25,6.25 L16.25,6.25 Z M16.25,5 C12.1125,5 8.75,8.3625 8.75,12.5 C8.75,16.6375 12.1125,20 16.25,20 C20.3875,20 23.75,16.6375 23.75,12.5 C23.75,8.3625 20.3875,5 16.25,5 L16.25,5 Z" id="Shape" fill="#101828" fill-rule="nonzero"></path>
                    <rect id="Rectangle" x="0" y="0" width="40" height="40"></rect>
                </g>
            </g>
        </g>
    </g>
</svg>