<?xml version="1.0" encoding="UTF-8"?>
<svg width="80px" height="80px" viewBox="0 0 80 80" version="1.1" xmlns="http://www.w3.org/2000/svg" xmlns:xlink="http://www.w3.org/1999/xlink">
    <!-- Generator: Sketch 56.3 (81716) - https://sketch.com -->
    <title>021-G80px</title>
    <desc>Created with Sketch.</desc>
    <g id="NEW_icons" stroke="none" stroke-width="1" fill="none" fill-rule="evenodd">
        <g id="icons_UD_new-Copy" transform="translate(-2051.000000, -2835.000000)">
            <g id="021-G80px" transform="translate(2051.000000, 2835.000000)">
                <circle id="Oval-Copy-199" fill="#E3E8EC" cx="40" cy="40" r="40"></circle>
                <g id="021-B32px-Copy-7" transform="translate(12.000000, 12.000000)">
                    <path d="M35.8225,32.1125 C34.125,34.545 31.71,36.4525 28.8925,37.52 C31.5175,34.545 33.25,29.435 33.25,23.625 C33.25,17.815 31.5175,12.705 28.8925,9.73 C31.71,10.7975 34.125,12.705 35.8225,15.1375 C36.2075,14.6825 36.715,14.35 37.2925,14.175 C34.3,9.835 29.295,7 23.625,7 C23.625,7 23.6075,7 23.6075,7 C23.6075,7 23.6075,7 23.59,7 C23.5725,7 23.5725,7 23.555,7 C14.4025,7.035 7,14.4725 7,23.625 C7,32.7775 14.4025,40.215 23.555,40.25 C23.5725,40.25 23.5725,40.25 23.59,40.25 C23.59,40.25 23.59,40.25 23.6075,40.25 C23.6075,40.25 23.625,40.25 23.625,40.25 C29.295,40.25 34.3,37.415 37.2925,33.075 C36.715,32.8825 36.2075,32.55 35.8225,32.1125 Z M18.2875,9.765 C16.9575,11.27 15.855,13.335 15.1025,15.75 L11.025,15.75 C12.7225,13.0375 15.26,10.92 18.2875,9.765 Z M10.08,17.5 L14.63,17.5 C14.245,19.145 14.035,20.9125 13.965,22.75 L8.8025,22.75 C8.9075,20.895 9.345,19.11 10.08,17.5 Z M8.8025,24.5 L13.9825,24.5 C14.035,26.3375 14.2625,28.105 14.6475,29.75 L10.0975,29.75 C9.345,28.14 8.9075,26.355 8.8025,24.5 Z M11.025,31.5 L15.1025,31.5 C15.855,33.915 16.9575,35.98 18.2875,37.485 C15.26,36.33 12.7225,34.2125 11.025,31.5 Z M22.75,38.4125 C20.335,37.905 18.2175,35.245 16.94,31.5 L22.75,31.5 L22.75,38.4125 Z M22.75,29.75 L16.4325,29.75 C16.03,28.1225 15.785,26.355 15.715,24.5 L22.75,24.5 L22.75,29.75 Z M22.75,22.75 L15.715,22.75 C15.7675,20.895 16.03,19.1275 16.4325,17.5 L22.75,17.5 L22.75,22.75 Z M22.75,15.75 L16.94,15.75 C18.2175,12.0225 20.335,9.3625 22.75,8.8375 L22.75,15.75 Z M24.5,8.855 C26.8975,9.3975 28.9975,12.04 30.2575,15.75 L24.5,15.75 L24.5,8.855 Z M24.5,17.5 L30.765,17.5 C31.1675,19.1275 31.4125,20.895 31.4825,22.75 L24.5,22.75 L24.5,17.5 Z M24.5,24.5 L31.4825,24.5 C31.43,26.355 31.1675,28.1225 30.765,29.75 L24.5,29.75 L24.5,24.5 Z M24.5,38.395 L24.5,31.5 L30.2575,31.5 C28.9975,35.21 26.8975,37.8525 24.5,38.395 Z" id="Shape" fill="#101828" fill-rule="nonzero"></path>
                    <path d="M47.25,17.5 L47.25,29.75 L38.5,29.75 L38.5,17.5 L47.25,17.5 L47.25,17.5 Z M47.25,15.75 L38.5,15.75 C37.5375,15.75 36.75,16.5375 36.75,17.5 L36.75,29.75 C36.75,30.7125 37.5375,31.5 38.5,31.5 L47.25,31.5 C48.2125,31.5 49,30.7125 49,29.75 L49,17.5 C49,16.5375 48.2125,15.75 47.25,15.75 L47.25,15.75 Z" id="Shape" fill="#101828" fill-rule="nonzero"></path>
                    <rect id="Rectangle" fill="#101828" fill-rule="nonzero" x="38.5" y="10.5" width="1.75" height="6.125"></rect>
                    <rect id="Rectangle" fill="#101828" fill-rule="nonzero" x="45.5" y="10.5" width="1.75" height="6.125"></rect>
                    <rect id="Rectangle" fill="#101828" fill-rule="nonzero" x="42" y="8.75" width="1.75" height="7.875"></rect>
                    <polygon id="Path" fill="#101828" fill-rule="nonzero" points="42 49 42 31.5 43.75 31.5 43.75 49 45.5 49 45.5 29.75 40.25 29.75 40.25 49"></polygon>
                    <rect id="Rectangle" x="0" y="0" width="56" height="56"></rect>
                </g>
            </g>
        </g>
    </g>
</svg>