<?xml version="1.0" encoding="UTF-8"?>
<svg width="32px" height="32px" viewBox="0 0 32 32" version="1.1" xmlns="http://www.w3.org/2000/svg" xmlns:xlink="http://www.w3.org/1999/xlink">
    <!-- Generator: Sketch 57.1 (83088) - https://sketch.com -->
    <title>124-B32px</title>
    <desc>Created with Sketch.</desc>
    <g id="124-B32px" stroke="none" stroke-width="1" fill="none" fill-rule="evenodd">
        <g>
            <rect id="Rectangle" fill="#101828" fill-rule="nonzero" x="11" y="15.01" width="10" height="1"></rect>
            <polygon id="Path" fill="#101828" fill-rule="nonzero" points="14.5 18.02 14.5 19.01 16.33 19.02 14.5 23.01 15.68 23.01 17.49 18.97 17.5 18.01"></polygon>
            <path d="M19,8.02 L18,8.02 L16,11.02 L16,11.24 L16,12.03 L18,12.02 L18,13.01 L19,13.02 L19,12.02 L20,12.03 L20,11.02 L19,11.02 L19,8.02 Z M17.12,11.02 L18,9.72 L18,11.02 L17.12,11.02 L17.12,11.02 Z" id="Shape" fill="#101828" fill-rule="nonzero"></path>
            <path d="M14.48,11.13 C15.11,10.5 15.31,10.09 15.31,9.45 C15.31,8.56 14.67,7.99 13.68,7.99 C12.59,7.99 12,8.76 12,9.49 C12,9.65 12.02,9.79 12.05,9.94 L12.07,10.02 L13.1,9.94 L13.08,9.84 C13.06,9.74 13.05,9.66 13.05,9.53 C13.05,9.17 13.29,8.95 13.68,8.95 C14.05,8.95 14.29,9.18 14.29,9.54 C14.29,9.83 14.17,10.05 13.78,10.45 L12,12.26 L12,13.03 L15.3,13.03 L15.3,12.02 L13.6,12.02 L14.48,11.13 Z" id="Path" fill="#101828" fill-rule="nonzero"></path>
            <path d="M27,5 L27,7 C27,10.13 26.35,14.79 25.27,17.18 C23.78,20.46 20.98,24.78 16,26.92 C11.02,24.78 8.21,20.46 6.73,17.18 C5.65,14.79 5,10.12 5,7 L5,5 L27,5 L27,5 Z M28,4 L4,4 L4,7 C4,9.96 4.6,14.89 5.82,17.59 C7.49,21.28 10.56,25.82 16,28 C21.44,25.82 24.51,21.28 26.18,17.59 C27.4,14.89 28,9.96 28,7 L28,4 L28,4 Z" id="Shape" fill="#101828" fill-rule="nonzero"></path>
            <rect id="Rectangle" x="0" y="0" width="32" height="32"></rect>
        </g>
    </g>
</svg>