<?xml version="1.0" encoding="UTF-8"?>
<svg width="56px" height="56px" viewBox="0 0 56 56" version="1.1" xmlns="http://www.w3.org/2000/svg" xmlns:xlink="http://www.w3.org/1999/xlink">
    <!-- Generator: Sketch 57.1 (83088) - https://sketch.com -->
    <title>234-W56px</title>
    <desc>Created with Sketch.</desc>
    <g id="NEW_icons" stroke="none" stroke-width="1" fill="none" fill-rule="evenodd">
        <g id="icons_UD_new-Copy" transform="translate(-532.000000, -29880.000000)">
            <g id="234-W56px" transform="translate(532.000000, 29880.000000)">
                <circle id="Oval-Copy-1361" fill="#101828" cx="28" cy="28" r="28"></circle>
                <g id="234-B32px-Copy-4" transform="translate(8.000000, 10.000000)">
                    <path d="M5,5 L5,8.75 C5,12.45 5.75,18.6125 7.275,21.9875 C9.3625,26.6 13.2,32.275 20,35 C22.8125,33.875 25.0875,32.2375 26.975,30.375 L25.8,29.7875 C24.2,31.3 22.2875,32.6625 20,33.6375 C13.775,30.9625 10.2625,25.5625 8.4125,21.4625 C7.0625,18.4875 6.25,12.65 6.25,8.75 L6.25,6.25 L33.75,6.25 L33.75,8.75 C33.75,12.6625 32.9375,18.4875 31.5875,21.475 C31.15,22.45 30.6125,23.5 29.9625,24.5625 L29.9625,26.8375 C31.1,25.2 32.025,23.5375 32.725,21.9875 C34.25,18.6125 35,12.45 35,8.75 L35,5 L5,5 Z" id="Path" fill="#FFFFFF" fill-rule="nonzero"></path>
                    <path d="M20.35,20 L13.8,20 C13.775,20 13.75,19.975 13.75,19.9375 L13.75,10.0625 C13.75,10.025 13.775,10 13.8125,10 L26.2,10 C26.225,10 26.25,10.025 26.25,10.0625 L26.25,12.5625 C26.6875,12.6125 27.1,12.7125 27.5,12.85 L27.5,10.0625 C27.5,9.3375 26.9125,8.75 26.1875,8.75 L13.8,8.75 C13.0875,8.75 12.5,9.3375 12.5,10.0625 L12.5,19.9375 C12.5,20.6625 13.0875,21.25 13.8125,21.25 L20.975,21.25 C20.7125,20.8625 20.5125,20.4375 20.35,20 Z" id="Path" fill="#FFFFFF" fill-rule="nonzero"></path>
                    <path d="M25.625,15 C27.35,15 28.75,16.4 28.75,18.125 C28.75,19.85 27.35,21.25 25.625,21.25 C23.9,21.25 22.5,19.85 22.5,18.125 C22.5,16.4 23.9,15 25.625,15 L25.625,15 Z M25.625,13.75 C23.2125,13.75 21.25,15.7125 21.25,18.125 C21.25,20.5375 23.2125,22.5 25.625,22.5 C28.0375,22.5 30,20.5375 30,18.125 C30,15.7125 28.0375,13.75 25.625,13.75 L25.625,13.75 Z" id="Shape" fill="#FFFFFF" fill-rule="nonzero"></path>
                    <path d="M25.625,17.5 C25.975,17.5 26.25,17.7875 26.25,18.125 C26.25,18.475 25.9625,18.75 25.625,18.75 C25.275,18.75 25,18.4625 25,18.125 C25,17.7875 25.275,17.5 25.625,17.5 L25.625,17.5 Z M25.625,16.25 C24.5875,16.25 23.75,17.0875 23.75,18.125 C23.75,19.1625 24.5875,20 25.625,20 C26.6625,20 27.5,19.1625 27.5,18.125 C27.5,17.0875 26.6625,16.25 25.625,16.25 L25.625,16.25 Z" id="Shape" fill="#FFFFFF" fill-rule="nonzero"></path>
                    <rect id="Rectangle" fill="#FFFFFF" fill-rule="nonzero" x="16.25" y="15" width="3.75" height="1.25"></rect>
                    <rect id="Rectangle" fill="#FFFFFF" fill-rule="nonzero" x="16.25" y="12.5" width="5" height="1.25"></rect>
                    <path d="M27.5,22.2 L27.5,27.95 L26.2,27.275 L25.625,26.975 L25.05,27.275 L23.75,27.95 L23.75,22.225 C24.275,22.4125 24.8875,22.525 25.6,22.525 C26.3375,22.5125 26.9625,22.3875 27.5,22.2 L27.5,22.2 Z M28.75,19.525 C28.75,19.525 28.125,21.2625 25.6,21.2625 C23.0625,21.2625 22.5,19.525 22.5,19.525 L22.5,30 L25.625,28.375 L28.75,30 L28.75,19.525 L28.75,19.525 Z" id="Shape" fill="#FFFFFF" fill-rule="nonzero"></path>
                    <rect id="Rectangle" x="0" y="0" width="40" height="40"></rect>
                </g>
            </g>
        </g>
    </g>
</svg>