<?xml version="1.0" encoding="UTF-8"?>
<svg width="40px" height="40px" viewBox="0 0 40 40" version="1.1" xmlns="http://www.w3.org/2000/svg" xmlns:xlink="http://www.w3.org/1999/xlink">
    <!-- Generator: Sketch 57.1 (83088) - https://sketch.com -->
    <title>212-B40px</title>
    <desc>Created with Sketch.</desc>
    <g id="212-B40px" stroke="none" stroke-width="1" fill="none" fill-rule="evenodd">
        <g>
            <path d="M20,15 C20.6875,15 21.25,15.5625 21.25,16.25 C21.25,16.9375 20.6875,17.5 20,17.5 C19.3125,17.5 18.75,16.9375 18.75,16.25 C18.75,15.5625 19.3125,15 20,15 L20,15 Z M20,13.75 C18.625,13.75 17.5,14.875 17.5,16.25 C17.5,17.625 18.625,18.75 20,18.75 C21.375,18.75 22.5,17.625 22.5,16.25 C22.5,14.875 21.375,13.75 20,13.75 L20,13.75 Z" id="Shape" fill="#101828" fill-rule="nonzero"></path>
            <path d="M17.5,23.75 L17.5,22.5 C17.5,21.8125 18.0625,21.25 18.75,21.25 L21.25,21.25 C21.9375,21.25 22.5,21.8125 22.5,22.5 L22.5,23.75 L23.75,23.75 L23.75,22.5 C23.75,21.125 22.625,20 21.25,20 L18.75,20 C17.375,20 16.25,21.125 16.25,22.5 L16.25,23.75 L17.5,23.75 Z" id="Path" fill="#101828" fill-rule="nonzero"></path>
            <path d="M33.7625,8.75 L6.2375,8.75 C5.55,8.75 5,9.3 5,9.9875 L5,23.75 L6.2375,23.75 L6.2375,10 L33.75,10 L33.7625,26.25 L12.8375,26.25 C12.35,26.25 11.8625,26.4 11.4625,26.675 L7.0875,29.6 L5,31.0125 L5,32.5 L12.15,27.7125 C12.3625,27.575 12.6,27.5 12.8375,27.5 L33.7625,27.5 C34.4375,27.5 35,26.95 35,26.2625 L35,9.9875 C35,9.3 34.45,8.75 33.7625,8.75 Z" id="Path" fill="#101828" fill-rule="nonzero"></path>
            <rect id="Rectangle" x="0" y="0" width="40" height="40"></rect>
        </g>
    </g>
</svg>