<?xml version="1.0" encoding="UTF-8"?>
<svg width="80px" height="80px" viewBox="0 0 80 80" version="1.1" xmlns="http://www.w3.org/2000/svg" xmlns:xlink="http://www.w3.org/1999/xlink">
    <!-- Generator: Sketch 57.1 (83088) - https://sketch.com -->
    <title>109-G80px</title>
    <desc>Created with Sketch.</desc>
    <g id="NEW_icons" stroke="none" stroke-width="1" fill="none" fill-rule="evenodd">
        <g id="icons_UD_new-Copy" transform="translate(-2051.000000, -14040.000000)">
            <g id="109-G80px" transform="translate(2051.000000, 14040.000000)">
                <circle id="Oval-Copy-703" fill="#E3E8EC" cx="40" cy="40" r="40"></circle>
                <g id="109-B32px-Copy-4" transform="translate(12.000000, 12.000000)">
                    <path d="M24.465,37.625 C24.465,37.345 24.4825,37.0475 24.5,36.7675 L8.75,36.785 L8.715,33.25 L12.215,33.25 L25.2175,33.25 C25.4275,32.655 25.6725,32.06 25.97,31.5 L12.25,31.5 L12.215,12.25 L45.5,12.25 L45.535,27.195 C46.1475,27.6675 46.725,28.1925 47.25,28.77 L47.25,12.215 C47.25,11.27 46.48,10.5 45.535,10.5 L12.215,10.5 C11.27,10.5 10.5,11.27 10.5,12.215 L10.5,31.5 L8.715,31.5 C7.77,31.5 7,32.27 7,33.215 L7,36.785 C7,37.73 7.77,38.5 8.715,38.5 L24.5,38.5 C24.4825,38.2025 24.465,37.9225 24.465,37.625 Z" id="Path" fill="#101828" fill-rule="nonzero"></path>
                    <path d="M37.5725,28 C42.875,28 47.1975,32.3225 47.1975,37.625 C47.1975,42.9275 42.875,47.25 37.5725,47.25 C32.27,47.25 27.9475,42.9275 27.9475,37.625 C27.9475,32.3225 32.27,28 37.5725,28 L37.5725,28 Z M37.5725,26.25 C31.29,26.25 26.1975,31.3425 26.1975,37.625 C26.1975,43.9075 31.29,49 37.5725,49 C43.855,49 48.9475,43.9075 48.9475,37.625 C48.9475,31.3425 43.855,26.25 37.5725,26.25 L37.5725,26.25 Z" id="Shape" fill="#101828" fill-rule="nonzero"></path>
                    <rect id="Rectangle" fill="#101828" fill-rule="nonzero" x="31.0625" y="36.295" width="1.75" height="4.375"></rect>
                    <rect id="Rectangle" fill="#101828" fill-rule="nonzero" x="29.75" y="37.6075" width="4.375" height="1.75"></rect>
                    <g id="Group" transform="translate(35.000000, 31.500000)" fill="#101828" fill-rule="nonzero">
                        <path d="M4.3925,11.235 L2.6425,11.235 L2.6425,7.0175 L0.91,7.0175 L0.91,5.2675 L2.6425,5.2675 L2.6425,0.7525 L6.9475,0.7525 C8.645,0.7525 10.045,2.135 10.045,3.85 C10.045,5.6 8.6275,7.035 6.86,7.035 L4.3925,7.035 L4.3925,11.235 Z M4.3925,5.2675 L6.86,5.2675 C7.6475,5.2675 8.295,4.62 8.295,3.8325 C8.295,3.0975 7.7,2.485 6.9475,2.485 L4.3925,2.485 L4.3925,5.2675 Z" id="Shape"></path>
                        <rect id="Rectangle" x="0.8925" y="7.735" width="7" height="1.75"></rect>
                    </g>
                    <g id="Group" transform="translate(21.000000, 15.750000)" fill="#101828" fill-rule="nonzero">
                        <path d="M7.91,5.25 C8.8375,5.25 9.695,5.6175 10.3075,6.2125 L11.55,4.97 C10.605,4.06 9.3275,3.5 7.91,3.5 C6.4575,3.5 5.145,4.095 4.2,5.04 L5.4425,6.2825 C6.0725,5.635 6.9475,5.25 7.91,5.25 Z" id="Path"></path>
                        <path d="M9.065,7.455 C8.7675,7.175 8.365,7 7.91,7 C7.42,7 6.9825,7.1925 6.6675,7.5075 L7.84,8.68 L9.065,7.455 Z" id="Path"></path>
                        <path d="M7.91,1.75 C9.8,1.75 11.5325,2.52 12.7925,3.745 L14.035,2.5025 C12.4425,0.9625 10.29,0 7.91,0 C5.495,0 3.3075,0.98 1.715,2.555 L2.9575,3.7975 C4.235,2.5375 5.985,1.75 7.91,1.75 Z" id="Path"></path>
                    </g>
                    <rect id="Rectangle" x="0" y="0" width="56" height="56"></rect>
                </g>
            </g>
        </g>
    </g>
</svg>