<?xml version="1.0" encoding="UTF-8"?>
<svg width="80px" height="80px" viewBox="0 0 80 80" version="1.1" xmlns="http://www.w3.org/2000/svg" xmlns:xlink="http://www.w3.org/1999/xlink">
    <!-- Generator: Sketch 57.1 (83088) - https://sketch.com -->
    <title>227-G80px</title>
    <desc>Created with Sketch.</desc>
    <g id="NEW_icons" stroke="none" stroke-width="1" fill="none" fill-rule="evenodd">
        <g id="icons_UD_new-Copy" transform="translate(-2050.000000, -28851.000000)">
            <g id="227-G80px" transform="translate(2050.000000, 28851.000000)">
                <circle id="Oval-Copy-1422" fill="#E3E8EC" cx="40" cy="40" r="40"></circle>
                <g id="227-B32px-Copy-6" transform="translate(12.000000, 12.000000)">
                    <path d="M31.5,12.075 L40.67,18.375 L31.5,24.675 L31.5,22.75 L31.5,21 L29.75,21 L22.75,21 L22.75,15.75 L29.75,15.75 L31.5,15.75 L31.5,14 L31.5,12.075 L31.5,12.075 Z M29.75,8.75 L29.75,14 L21,14 L21,22.75 L29.75,22.75 L29.75,28 L43.75,18.375 L29.75,8.75 L29.75,8.75 Z" id="Shape" fill="#101828" fill-rule="nonzero"></path>
                    <path d="M24.5,31.325 L24.5,33.25 L24.5,35 L26.25,35 L33.25,35 L33.25,40.25 L26.25,40.25 L24.5,40.25 L24.5,42 L24.5,43.925 L15.33,37.625 L24.5,31.325 L24.5,31.325 Z M26.25,28 L12.25,37.625 L26.25,47.25 L26.25,42 L35,42 L35,33.25 L26.25,33.25 L26.25,28 L26.25,28 Z" id="Shape" fill="#101828" fill-rule="nonzero"></path>
                    <rect id="Rectangle" fill="#101828" fill-rule="nonzero" x="7" y="14" width="12.25" height="1.75"></rect>
                    <rect id="Rectangle" fill="#101828" fill-rule="nonzero" x="10.5" y="17.5" width="8.75" height="1.75"></rect>
                    <rect id="Rectangle" fill="#101828" fill-rule="nonzero" x="15.785" y="21" width="3.465" height="1.75"></rect>
                    <rect id="Rectangle" fill="#101828" fill-rule="nonzero" x="36.75" y="33.25" width="12.25" height="1.75"></rect>
                    <rect id="Rectangle" fill="#101828" fill-rule="nonzero" x="36.75" y="36.75" width="8.75" height="1.75"></rect>
                    <rect id="Rectangle" fill="#101828" fill-rule="nonzero" x="36.75" y="40.25" width="3.465" height="1.75"></rect>
                    <rect id="Rectangle" x="0" y="0" width="56" height="56"></rect>
                </g>
            </g>
        </g>
    </g>
</svg>