<?xml version="1.0" encoding="UTF-8"?>
<svg width="80px" height="80px" viewBox="0 0 80 80" version="1.1" xmlns="http://www.w3.org/2000/svg" xmlns:xlink="http://www.w3.org/1999/xlink">
    <!-- Generator: Sketch 54.1 (76490) - https://sketchapp.com -->
    <title>007-G80px</title>
    <desc>Created with Sketch.</desc>
    <g id="NEW_icons" stroke="none" stroke-width="1" fill="none" fill-rule="evenodd">
        <g id="icons_UD_new-Copy" transform="translate(-2051.000000, -1077.000000)">
            <g id="007-G80px" transform="translate(2051.000000, 1077.000000)">
                <circle id="Oval-Copy-115" fill="#E3E8EC" cx="40" cy="40" r="40"></circle>
                <g id="007-B32px-Copy-7" transform="translate(12.000000, 12.000000)">
                    <path d="M37.59,41.02 C37.0825,41.335 36.5575,41.615 36.0325,41.8775 L37.8175,47.25 L18.1825,47.25 L19.9675,41.8775 C19.425,41.615 18.9175,41.335 18.41,41.02 L16.52,46.69 C16.135,47.8275 16.975,49 18.1825,49 L37.835,49 C39.025,49 39.865,47.8275 39.4975,46.69 L37.59,41.02 Z" id="Path" fill="#101828" fill-rule="nonzero"></path>
                    <path d="M28,8.75 C37.17,8.75 44.625,16.205 44.625,25.375 C44.625,34.545 37.17,42 28,42 C18.83,42 11.375,34.545 11.375,25.375 C11.375,16.205 18.83,8.75 28,8.75 L28,8.75 Z M28,7 C17.85,7 9.625,15.225 9.625,25.375 C9.625,35.525 17.85,43.75 28,43.75 C38.15,43.75 46.375,35.525 46.375,25.375 C46.375,15.225 38.15,7 28,7 L28,7 Z" id="Shape" fill="#101828" fill-rule="nonzero"></path>
                    <path d="M28,15.75 C28.49,15.75 28.875,15.365 28.875,14.875 C28.875,14.385 28.49,14 28,14 C27.51,14 27.125,14.385 27.125,14.875 C27.125,15.365 27.51,15.75 28,15.75" id="Path" fill="#101828" fill-rule="nonzero"></path>
                    <path d="M28,28 L28,28 C28.77,28 29.435,28.49 29.6625,29.225 C29.8025,29.6625 29.7675,30.1525 29.5575,30.555 C29.3475,30.975 28.98,31.2725 28.525,31.4125 C28.35,31.465 28.175,31.5 28,31.5 C27.23,31.5 26.565,31.01 26.3375,30.275 C26.1975,29.8375 26.2325,29.3475 26.4425,28.945 C26.6525,28.525 27.02,28.2275 27.475,28.0875 C27.65,28.035 27.825,28 28,28 L28,28 Z M28,26.25 C27.65,26.25 27.2825,26.3025 26.9325,26.4075 C25.095,26.985 24.08,28.9625 24.6575,30.8 C25.13,32.305 26.5125,33.25 28,33.25 C28.35,33.25 28.7175,33.1975 29.0675,33.0925 C30.905,32.515 31.92,30.5375 31.3425,28.7 C30.87,27.195 29.4875,26.25 28,26.25 L28,26.25 Z" id="Shape" fill="#101828" fill-rule="nonzero"></path>
                    <path d="M28,22.75 C31.8675,22.75 35,25.8825 35,29.75 C35,33.6175 31.8675,36.75 28,36.75 C24.1325,36.75 21,33.6175 21,29.75 C21,25.8825 24.1325,22.75 28,22.75 L28,22.75 Z M28,21 C23.17,21 19.25,24.92 19.25,29.75 C19.25,34.58 23.17,38.5 28,38.5 C32.83,38.5 36.75,34.58 36.75,29.75 C36.75,24.92 32.83,21 28,21 L28,21 Z" id="Shape" fill="#101828" fill-rule="nonzero"></path>
                    <rect id="Rectangle" x="0" y="0" width="56" height="56"></rect>
                </g>
            </g>
        </g>
    </g>
</svg>