<?xml version="1.0" encoding="UTF-8"?>
<svg width="80px" height="80px" viewBox="0 0 80 80" version="1.1" xmlns="http://www.w3.org/2000/svg" xmlns:xlink="http://www.w3.org/1999/xlink">
    <!-- Generator: Sketch 57.1 (83088) - https://sketch.com -->
    <title>192-B80px</title>
    <desc>Created with Sketch.</desc>
    <g id="192-B80px" stroke="none" stroke-width="1" fill="none" fill-rule="evenodd">
        <g>
            <path d="M40,27.5 C46.2,27.5 51.25,32.55 51.25,38.75 C51.25,44.95 46.2,50 40,50 C33.8,50 28.75,44.95 28.75,38.75 C28.75,32.55 33.8,27.5 40,27.5 L40,27.5 Z M40,25 C32.4,25 26.25,31.15 26.25,38.75 C26.25,46.35 32.4,52.5 40,52.5 C47.6,52.5 53.75,46.35 53.75,38.75 C53.75,31.15 47.6,25 40,25 L40,25 Z" id="Shape" fill="#101828" fill-rule="nonzero"></path>
            <path d="M63.75,47.5 C65.825,47.5 67.5,49.175 67.5,51.25 L67.5,57.5 L60,57.5 L60,51.25 C60,49.175 61.675,47.5 63.75,47.5 L63.75,47.5 Z M63.75,45 C60.3,45 57.5,47.8 57.5,51.25 L57.5,60 L70,60 L70,51.25 C70,47.8 67.2,45 63.75,45 L63.75,45 Z" id="Shape" fill="#101828" fill-rule="nonzero"></path>
            <path d="M65,60 L65,65 L62.5,65 L62.5,60 L65,60 L65,60 Z M65,57.5 L62.5,57.5 C61.125,57.5 60,58.625 60,60 L60,65 C60,66.375 61.125,67.5 62.5,67.5 L65,67.5 C66.375,67.5 67.5,66.375 67.5,65 L67.5,60 C67.5,58.625 66.375,57.5 65,57.5 L65,57.5 Z" id="Shape" fill="#101828" fill-rule="nonzero"></path>
            <polygon id="Path" fill="#101828" fill-rule="nonzero" points="65 46.1 62.5 46.1 62.5 40 51.25 40 51.25 37.5 65 37.5"></polygon>
            <path d="M20,20 L20,26.25 C20,28.325 18.325,30 16.25,30 C14.175,30 12.5,28.325 12.5,26.25 L12.5,20 L20,20 L20,20 Z M22.5,17.5 L10,17.5 L10,26.25 C10,29.7 12.8,32.5 16.25,32.5 C19.7,32.5 22.5,29.7 22.5,26.25 L22.5,17.5 L22.5,17.5 Z" id="Shape" fill="#101828" fill-rule="nonzero"></path>
            <path d="M17.5,12.5 L17.5,17.5 L15,17.5 L15,12.5 L17.5,12.5 L17.5,12.5 Z M17.5,10 L15,10 C13.625,10 12.5,11.125 12.5,12.5 L12.5,17.5 C12.5,18.875 13.625,20 15,20 L17.5,20 C18.875,20 20,18.875 20,17.5 L20,12.5 C20,11.125 18.875,10 17.5,10 L17.5,10 Z" id="Shape" fill="#101828" fill-rule="nonzero"></path>
            <polygon id="Path" fill="#101828" fill-rule="nonzero" points="28.75 40 15 40 15 30 17.5 30 17.5 37.5 28.75 37.5"></polygon>
            <path d="M40,27.5 C46.2,27.5 51.25,32.55 51.25,38.75 C51.25,44.95 46.2,50 40,50 C33.8,50 28.75,44.95 28.75,38.75 C28.75,32.55 33.8,27.5 40,27.5 L40,27.5 Z M40,25 C32.4,25 26.25,31.15 26.25,38.75 C26.25,46.35 32.4,52.5 40,52.5 C47.6,52.5 53.75,46.35 53.75,38.75 C53.75,31.15 47.6,25 40,25 L40,25 Z" id="Shape" fill="#101828" fill-rule="nonzero"></path>
            <polygon id="Path" fill="#101828" fill-rule="nonzero" points="38.85 43.95 34.075 38.75 35.925 37.075 38.85 40.25 44.075 34.55 45.925 36.25"></polygon>
            <rect id="Rectangle" x="0" y="0" width="80" height="80"></rect>
        </g>
    </g>
</svg>