<?xml version="1.0" encoding="UTF-8"?>
<svg width="80px" height="80px" viewBox="0 0 80 80" version="1.1" xmlns="http://www.w3.org/2000/svg" xmlns:xlink="http://www.w3.org/1999/xlink">
    <!-- Generator: Sketch 57.1 (83088) - https://sketch.com -->
    <title>003-B80px</title>
    <desc>Created with Sketch.</desc>
    <g id="003-B80px" stroke="none" stroke-width="1" fill="none" fill-rule="evenodd">
        <g>
            <g id="Group" transform="translate(20.000000, 10.000000)" fill="#101828" fill-rule="nonzero">
                <path d="M37.375,0 L2.625,0 C1.175,0 0,1.175 0,2.625 L0,47.5 L0,50 L0,57.375 C0,58.825 1.175,60 2.625,60 L37.375,60 C38.825,60 40,58.825 40,57.375 L40,50 L40,47.5 L40,2.625 C40,1.175 38.825,0 37.375,0 Z M37.5,57.375 C37.5,57.45 37.45,57.5 37.375,57.5 L2.625,57.5 C2.55,57.5 2.5,57.45 2.5,57.375 L2.5,50 L37.5,50 L37.5,57.375 Z M2.5,47.5 L2.5,2.625 C2.5,2.55 2.55,2.5 2.625,2.5 L37.375,2.5 C37.45,2.5 37.5,2.55 37.5,2.625 L37.5,47.5 L2.5,47.5 Z" id="Shape"></path>
                <path d="M20,54.975 C20.675,54.975 21.25,54.425 21.25,53.725 C21.25,53.05 20.7,52.475 20,52.475 C19.3,52.475 18.75,53.025 18.75,53.725 C18.75,54.425 19.325,54.975 20,54.975 Z" id="Path"></path>
                <path d="M25.025,40 L15,40.025 L15,32.5 L12.5,32.5 L12.5,40.025 C12.5,41.375 13.6,42.5 14.975,42.5 L25.05,42.5 C26.4,42.5 27.525,41.4 27.525,40.025 L27.525,32.5 L25.025,32.5 L25.025,40 Z" id="Path"></path>
                <polygon id="Path" points="9.55 31.15 11.125 33.075 20 25.75 28.875 33.075 30.45 31.15 20 22.525"></polygon>
                <path d="M25.2,14.625 C23.85,13.3 22.025,12.5 20,12.5 C17.925,12.5 16.05,13.35 14.7,14.7 L16.475,16.475 C17.375,15.55 18.625,15 20,15 C21.325,15 22.55,15.525 23.425,16.375 L25.2,14.625 Z" id="Path"></path>
                <path d="M18.225,18.225 L19.9,19.9 L21.65,18.15 C21.225,17.75 20.65,17.5 20,17.5 C19.3,17.5 18.675,17.775 18.225,18.225 Z" id="Path"></path>
                <path d="M20,10 C22.7,10 25.175,11.1 26.975,12.85 L28.75,11.075 C26.475,8.875 23.4,7.5 20,7.5 C16.55,7.5 13.425,8.9 11.15,11.15 L12.925,12.925 C14.75,11.125 17.25,10 20,10 Z" id="Path"></path>
            </g>
            <rect id="Rectangle" x="0" y="0" width="80" height="80"></rect>
        </g>
    </g>
</svg>