<?xml version="1.0" encoding="UTF-8"?>
<svg width="80px" height="80px" viewBox="0 0 80 80" version="1.1" xmlns="http://www.w3.org/2000/svg" xmlns:xlink="http://www.w3.org/1999/xlink">
    <!-- Generator: Sketch 57.1 (83088) - https://sketch.com -->
    <title>125-B80px</title>
    <desc>Created with Sketch.</desc>
    <g id="125-B80px" stroke="none" stroke-width="1" fill="none" fill-rule="evenodd">
        <g>
            <path d="M41.775,12.5 C41.95,12.5 42.1,12.625 42.15,12.8 L43.575,18.125 L43.95,19.525 L45.35,19.9 C47.15,20.375 48.85,21.075 50.45,22 L51.7,22.725 L52.95,22 L57.7,19.25 C57.75,19.225 57.825,19.2 57.9,19.2 C57.95,19.2 58.075,19.225 58.175,19.325 L60.7,21.85 C60.825,21.975 60.85,22.175 60.75,22.325 L58,27.075 L57.275,28.325 L58,29.575 C58.925,31.175 59.65,32.875 60.125,34.675 L60.5,36.075 L61.9,36.45 L67.2,37.875 C67.375,37.925 67.5,38.075 67.5,38.25 L67.5,41.8 C67.5,41.975 67.375,42.125 67.2,42.175 L61.9,43.6 L60.5,43.975 L60.125,45.375 C59.65,47.175 58.925,48.9 58,50.5 L57.275,51.75 L58,53 L60.75,57.75 C60.85,57.9 60.825,58.1 60.7,58.225 L58.175,60.75 C58.075,60.85 57.95,60.875 57.9,60.875 C57.825,60.875 57.775,60.85 57.7,60.825 L52.95,58.075 L51.7,57.35 L50.45,58.075 C48.85,59 47.125,59.725 45.325,60.2 L43.925,60.575 L43.55,61.975 L42.125,67.275 C42.1,67.375 41.95,67.5 41.775,67.5 L38.225,67.5 C38.05,67.5 37.9,67.375 37.85,67.2 L36.425,61.9 L36.05,60.5 L34.65,60.125 C32.85,59.65 31.125,58.925 29.55,58 L28.3,57.275 L27.05,58 L22.3,60.75 C22.25,60.775 22.175,60.8 22.1,60.8 C22.05,60.8 21.925,60.775 21.825,60.675 L19.3,58.15 C19.175,58.025 19.15,57.825 19.25,57.675 L22,52.925 L22.725,51.675 L22,50.425 C21.075,48.85 20.375,47.125 19.9,45.325 L19.525,43.925 L18.125,43.55 L12.8,42.125 C12.625,42.1 12.5,41.95 12.5,41.775 L12.5,38.225 C12.5,38.05 12.625,37.9 12.8,37.85 L18.125,36.425 L19.525,36.05 L19.9,34.65 C20.375,32.85 21.075,31.15 22,29.575 L22.725,28.325 L22,27.075 L19.25,22.3 C19.15,22.125 19.175,21.925 19.3,21.8 L21.825,19.275 C21.925,19.175 22.05,19.15 22.1,19.15 C22.175,19.15 22.225,19.175 22.3,19.2 L27.075,21.95 L28.325,22.675 L29.575,21.95 C31.15,21.025 32.875,20.325 34.65,19.85 L36.05,19.475 L36.425,18.075 L37.85,12.75 C37.9,12.625 38.05,12.5 38.225,12.5 L41.775,12.5 L41.775,12.5 Z M41.775,10 L38.225,10 C36.925,10 35.775,10.875 35.425,12.15 L34,17.475 C31.975,18 30.075,18.8 28.3,19.825 L23.525,17.075 C23.075,16.825 22.575,16.675 22.075,16.675 C21.325,16.675 20.575,16.975 20.025,17.525 L17.525,20.05 C16.6,20.975 16.4,22.4 17.075,23.55 L19.825,28.325 C18.8,30.1 18,32 17.475,34.025 L12.15,35.45 C10.875,35.775 10,36.9 10,38.225 L10,41.775 C10,43.075 10.875,44.225 12.15,44.575 L17.475,46 C18,48.025 18.8,49.95 19.825,51.7 L17.075,56.45 C16.425,57.575 16.6,59.025 17.525,59.95 L20.05,62.475 C20.6,63.025 21.35,63.325 22.1,63.325 C22.6,63.325 23.1,63.2 23.55,62.925 L28.3,60.175 C30.075,61.2 32,62 34.025,62.55 L35.45,67.85 C35.8,69.125 36.925,70 38.25,70 L41.8,70 C43.1,70 44.25,69.125 44.6,67.85 L46.025,62.55 C48.05,62 49.975,61.225 51.775,60.175 L56.525,62.925 C56.975,63.175 57.475,63.325 57.975,63.325 C58.725,63.325 59.475,63.025 60.025,62.475 L62.55,59.95 C63.475,59.025 63.675,57.6 63,56.45 L60.25,51.7 C61.275,49.925 62.075,48 62.625,45.95 L67.925,44.525 C69.2,44.175 70.075,43.05 70.075,41.725 L70.075,38.175 C70.075,36.875 69.2,35.725 67.925,35.375 L62.625,33.95 C62.075,31.925 61.275,30 60.25,28.225 L63,23.475 C63.65,22.35 63.475,20.9 62.55,19.975 L60.025,17.45 C59.475,16.9 58.725,16.6 57.975,16.6 C57.475,16.6 56.975,16.725 56.525,17 L51.775,19.75 C50,18.725 48.1,17.925 46.075,17.4 L44.65,12.075 C44.225,10.875 43.1,10 41.775,10 L41.775,10 Z" id="Shape" fill="#101828" fill-rule="nonzero"></path>
            <g id="Group" transform="translate(25.000000, 25.000000)" fill="#101828" fill-rule="nonzero">
                <path d="M7.575,5 C9.65,3.45 12.2,2.5 15,2.5 C17.8,2.5 20.35,3.45 22.425,5 L26.15,5 C23.4,1.95 19.425,0 15,0 C10.575,0 6.6,1.95 3.85,5 L7.575,5 Z" id="Path"></path>
                <path d="M24.925,22.5 C22.65,25.525 19.05,27.5 15,27.5 C10.95,27.5 7.35,25.525 5.075,22.5 L2.025,22.5 C4.625,26.975 9.45,30 15,30 C20.55,30 25.375,26.975 27.975,22.5 L24.925,22.5 Z" id="Path"></path>
            </g>
            <g id="Group" transform="translate(20.000000, 30.000000)" fill="#101828" fill-rule="nonzero">
                <path d="M19.05,2.475 L16.55,2.475 L11.55,9.975 L11.55,10.525 L11.55,12.5 L16.55,12.475 L16.55,14.95 L19.05,14.975 L19.05,12.475 L21.55,12.5 L21.55,9.975 L19.05,9.975 L19.05,2.475 L19.05,2.475 Z M14.325,9.975 L16.525,6.725 L16.525,9.975 L14.325,9.975 L14.325,9.975 Z" id="Shape"></path>
                <polygon id="Path" points="29.375 2.475 26.875 2.475 22.3 15 24.775 15"></polygon>
                <polygon id="Path" points="38.125 2.475 30.625 2.5 30.625 4.975 35.2 5 30.65 14.975 33.575 14.975 38.1 4.875"></polygon>
                <path d="M6.075,2.425 C3.35,2.425 1.9,4.375 1.9,6.2 C1.9,6.6 1.95,6.95 2.025,7.325 L2.075,7.525 L4.65,7.325 L4.6,7.075 C4.55,6.825 4.525,6.625 4.525,6.3 C4.525,5.4 5.125,4.85 6.1,4.85 C7.025,4.85 7.625,5.425 7.625,6.325 C7.625,7.05 7.325,7.6 6.35,8.6 L1.925,13.1 L1.925,15.025 L10.175,15.025 L10.175,12.5 L5.925,12.5 L8.125,10.275 C9.7,8.7 10.2,7.675 10.2,6.075 C10.15,3.85 8.55,2.425 6.075,2.425 L6.075,2.425 Z" id="Path"></path>
            </g>
            <rect id="Rectangle" x="0" y="0" width="80" height="80"></rect>
        </g>
    </g>
</svg>