<?xml version="1.0" encoding="UTF-8"?>
<svg width="32px" height="32px" viewBox="0 0 32 32" version="1.1" xmlns="http://www.w3.org/2000/svg" xmlns:xlink="http://www.w3.org/1999/xlink">
    <!-- Generator: Sketch 57.1 (83088) - https://sketch.com -->
    <title>132-B32px</title>
    <desc>Created with Sketch.</desc>
    <g id="132-B32px" stroke="none" stroke-width="1" fill="none" fill-rule="evenodd">
        <g>
            <path d="M16,7.01 C20.96,7.01 25,11.05 25,16.01 C25,20.97 20.96,25.01 16,25.01 C11.04,25.01 7,20.97 7,16.01 C7,11.05 11.04,7.01 16,7.01 L16,7.01 Z M16,6.01 C10.48,6.01 6,10.49 6,16.01 C6,21.53 10.48,26.01 16,26.01 C21.52,26.01 26,21.53 26,16.01 C26,10.48 21.52,6.01 16,6.01 L16,6.01 Z" id="Shape" fill="#101828" fill-rule="nonzero"></path>
            <rect id="Rectangle" fill="#101828" fill-rule="nonzero" transform="translate(16.006206, 16.005235) rotate(-45.000000) translate(-16.006206, -16.005235) " x="-0.258637518" y="15.5052403" width="32.529688" height="1"></rect>
            <rect id="Rectangle" x="0" y="0" width="32" height="32"></rect>
        </g>
    </g>
</svg>