<?xml version="1.0" encoding="UTF-8"?>
<svg width="80px" height="80px" viewBox="0 0 80 80" version="1.1" xmlns="http://www.w3.org/2000/svg" xmlns:xlink="http://www.w3.org/1999/xlink">
    <!-- Generator: Sketch 57.1 (83088) - https://sketch.com -->
    <title>126-B80px</title>
    <desc>Created with Sketch.</desc>
    <g id="126-B80px" stroke="none" stroke-width="1" fill="none" fill-rule="evenodd">
        <g>
            <circle id="Oval" fill="#101828" fill-rule="nonzero" cx="32.5" cy="32.5" r="2.5"></circle>
            <rect id="Rectangle" fill="#101828" fill-rule="nonzero" x="31.25" y="20" width="2.5" height="12.5"></rect>
            <path d="M38.975,37.225 L33.375,31.625 L31.6,33.4 L37.55,39.35 C38,38.6 38.475,37.875 38.975,37.225 Z" id="Path" fill="#101828" fill-rule="nonzero"></path>
            <g id="Group" transform="translate(37.500000, 32.500000)" fill="#101828" fill-rule="nonzero">
                <path d="M10.35,28.65 C5.725,26.425 2.5,21.725 2.5,16.25 C2.5,9.975 6.725,4.675 12.5,3.025 L12.5,0.45 C5.325,2.15 0,8.575 0,16.25 C0,22.175 3.175,27.35 7.925,30.2 L10.35,28.65 Z" id="Path"></path>
                <path d="M24.575,2.325 L22.15,3.875 C26.8,6.075 30,10.8 30,16.25 C30,22.525 25.775,27.825 20,29.475 L20,32.05 C27.175,30.35 32.5,23.925 32.5,16.25 C32.5,10.325 29.325,5.15 24.575,2.325 Z" id="Path"></path>
            </g>
            <path d="M52.5,32.025 L55.275,33.775 L52.5,35.5 L52.5,32.025 L52.5,32.025 Z M50,27.5 L50,40 L60,33.75 L50,27.5 L50,27.5 Z" id="Shape" fill="#101828" fill-rule="nonzero"></path>
            <path d="M55,62.025 L55,65.5 L52.225,63.75 L55,62.025 L55,62.025 Z M57.5,57.5 L47.5,63.75 L57.5,70 L57.5,57.5 L57.5,57.5 Z" id="Shape" fill="#101828" fill-rule="nonzero"></path>
            <path d="M62.5,42.5 L60,42.5 L55,49.975 L55,50.525 L55,52.5 L60,52.475 L60,55 L62.5,55.025 L62.5,52.5 L65,52.525 L65,50 L62.5,50 L62.5,42.5 Z M57.8,50 L60,46.75 L60,50 L57.8,50 Z" id="Shape" fill="#101828" fill-rule="nonzero"></path>
            <path d="M50.625,50.3 C52.05,48.75 52.5,47.725 52.5,46.125 C52.5,43.925 51.05,42.525 48.8,42.525 C46.325,42.525 45,44.45 45,46.25 C45,46.625 45.025,47 45.1,47.375 L45.125,47.575 L47.5,47.375 L47.45,47.125 C47.4,46.875 47.375,46.675 47.375,46.35 C47.375,45.45 47.925,44.9 48.8,44.9 C49.65,44.9 50.2,45.475 50.2,46.375 C50.2,47.1 49.925,47.65 49.025,48.625 L45,53.1 L45,55 L52.5,55 L52.5,52.5 L48.625,52.5 L50.625,50.3 Z" id="Path" fill="#101828" fill-rule="nonzero"></path>
            <path d="M35.35,52.3 C34.425,52.425 33.475,52.5 32.5,52.5 C21.475,52.5 12.5,43.525 12.5,32.5 C12.5,21.475 21.475,12.5 32.5,12.5 C41.2,12.5 48.6,18.1 51.35,25.875 L54.525,27.9 C52.4,17.675 43.35,10 32.5,10 C20.075,10 10,20.075 10,32.5 C10,44.925 20.075,55 32.5,55 C33.7,55 34.85,54.9 36,54.725 C35.725,53.925 35.5,53.125 35.35,52.3 Z" id="Path" fill="#101828" fill-rule="nonzero"></path>
            <rect id="Rectangle" x="0" y="0" width="80" height="80"></rect>
        </g>
    </g>
</svg>