<?xml version="1.0" encoding="UTF-8"?>
<svg width="42px" height="42px" viewBox="0 0 42 42" version="1.1" xmlns="http://www.w3.org/2000/svg" xmlns:xlink="http://www.w3.org/1999/xlink">
    <!-- Generator: Sketch 58 (84663) - https://sketch.com -->
    <title>257-G40px</title>
    <desc>Created with Sketch.</desc>
    <g id="NEW_icons" stroke="none" stroke-width="1" fill="none" fill-rule="evenodd">
        <g id="icons_UD_new-Copy" transform="translate(-1526.000000, -32661.000000)">
            <g id="257-G40px" transform="translate(1527.000000, 32662.000000)">
                <circle id="Oval-Copy-1470" stroke="#E3E8EC" cx="20" cy="20" r="20"></circle>
                <g id="257-B32px" transform="translate(4.000000, 4.000000)">
                    <g>
                        <rect id="Rectangle" x="0" y="0" width="32" height="32"></rect>
                        <path d="M16.93,22.11 C13.22,20.54 10.16,17.51 10.13,17.48 C10.08,17.43 5.34,12.61 4.7,7.81 C4.7,7.78 4.69,7.73 4.72,7.7 L7.3,5.13 C7.32,5.11 7.34,5.1 7.37,5.1 C7.4,5.1 7.42,5.11 7.42,5.12 L11.42,9.14 C11.45,9.17 11.45,9.22 11.41,9.26 L9.69,10.98 L9.21,11.46 L9.47,12.08 C9.51,12.18 10.47,14.44 11.82,15.79 C13.17,17.14 15.43,18.11 15.52,18.15 L16.14,18.41 L16.62,17.93 L18.34,16.21 C18.36,16.19 18.38,16.18 18.41,16.18 C18.44,16.18 18.46,16.19 18.46,16.2 L19.18,16.92 C19.46,16.72 19.76,16.55 20.07,16.4 L19.17,15.49 C18.96,15.28 18.68,15.17 18.4,15.18 C18.13,15.18 17.85,15.29 17.64,15.5 L15.92,17.22 C15.92,17.22 13.76,16.3 12.53,15.07 C11.3,13.84 10.39,11.68 10.39,11.68 L12.11,9.96 C12.54,9.54 12.54,8.85 12.12,8.43 L8.12,4.41 C7.92,4.2 7.64,4.1 7.35,4.1 C7.08,4.1 6.8,4.21 6.59,4.42 L4.02,6.99 C3.77,7.24 3.66,7.59 3.71,7.94 C4.4,13.15 9.42,18.18 9.42,18.18 C9.42,18.18 12.96,21.72 17.23,23.3 C17.09,22.92 16.99,22.52 16.93,22.11 Z" id="Path" fill="#000000" fill-rule="nonzero"></path>
                        <path d="M21.83,16.71 L22.95,17.39 L21.85,18.1 L21.83,16.71 L21.83,16.71 Z M20.8,14.92 L20.87,19.92 L24.83,17.36 L20.8,14.92 L20.8,14.92 Z" id="Shape" fill="#000000" fill-rule="nonzero"></path>
                        <g id="Group" transform="translate(17.000000, 17.000000)" fill="#000000" fill-rule="nonzero">
                            <path d="M2.45,7.79 L3.33,7.21 C2.47,6.58 1.9,5.59 1.88,4.44 C1.86,3.04 2.67,1.83 3.85,1.25 L3.83,0.18 C2.09,0.82 0.85,2.49 0.88,4.45 C0.9,5.8 1.52,6.98 2.45,7.79 Z" id="Path"></path>
                            <path d="M8.32,1.01 L7.44,1.59 C8.29,2.22 8.86,3.21 8.88,4.35 C8.9,5.74 8.1,6.95 6.93,7.53 L6.95,8.61 C8.68,7.96 9.92,6.3 9.89,4.34 C9.86,3 9.25,1.82 8.32,1.01 Z" id="Path"></path>
                        </g>
                        <path d="M22.93,24.69 L22.95,26.08 L21.83,25.4 L22.93,24.69 L22.93,24.69 Z M23.9,22.88 L19.94,25.44 L23.98,27.88 L23.9,22.88 L23.9,22.88 Z" id="Shape" fill="#101828" fill-rule="nonzero"></path>
                    </g>
                </g>
            </g>
        </g>
    </g>
</svg>