<?xml version="1.0" encoding="UTF-8"?>
<svg width="80px" height="80px" viewBox="0 0 80 80" version="1.1" xmlns="http://www.w3.org/2000/svg" xmlns:xlink="http://www.w3.org/1999/xlink">
    <!-- Generator: Sketch 57.1 (83088) - https://sketch.com -->
    <title>133-B80px</title>
    <desc>Created with Sketch.</desc>
    <g id="133-B80px" stroke="none" stroke-width="1" fill="none" fill-rule="evenodd">
        <g>
            <path d="M58.8,25 L64.8,32.5 L50,32.5 L50,25 L58.8,25 L58.8,25 Z M58.8,22.5 L47.5,22.5 L47.5,35 L70,35 L60.75,23.425 C60.275,22.85 59.55,22.5 58.8,22.5 L58.8,22.5 Z" id="Shape" fill="#101828" fill-rule="nonzero"></path>
            <path d="M67.5,32.5 L50.025,32.5 C48.625,32.5 47.5,33.625 47.5,35.025 L47.5,47.5 L53.75,47.5 C53.05,47.5 52.5,46.95 52.5,46.25 C52.5,45.55 53.05,45 53.75,45 L50,45 L50.025,35 L67.5,35 L67.475,45 L63.75,45 C64.45,45 65,45.55 65,46.25 C65,46.95 64.45,47.5 63.75,47.5 L67.475,47.5 C68.875,47.5 70,46.375 70,44.975 L70,35 C70,33.625 68.875,32.5 67.5,32.5 Z" id="Path" fill="#101828" fill-rule="nonzero"></path>
            <path d="M47.5,20 L12.5,20 C11.125,20 10,21.125 10,22.5 L10,45 C10,46.375 11.125,47.5 12.5,47.5 L16.25,47.5 C15.55,47.5 15,46.95 15,46.25 C15,45.55 15.55,45 16.25,45 L12.5,45 L12.5,22.5 L47.5,22.5 L47.5,45 L26.25,45 C26.95,45 27.5,45.55 27.5,46.25 C27.5,46.95 26.95,47.5 26.25,47.5 L47.5,47.5 C48.875,47.5 50,46.375 50,45 L50,22.5 C50,21.125 48.875,20 47.5,20 Z" id="Path" fill="#101828" fill-rule="nonzero"></path>
            <path d="M21.25,42.5 C23.325,42.5 25,44.175 25,46.25 C25,48.325 23.325,50 21.25,50 C19.175,50 17.5,48.325 17.5,46.25 C17.5,44.175 19.175,42.5 21.25,42.5 L21.25,42.5 Z M21.25,40 C17.8,40 15,42.8 15,46.25 C15,49.7 17.8,52.5 21.25,52.5 C24.7,52.5 27.5,49.7 27.5,46.25 C27.5,42.8 24.7,40 21.25,40 L21.25,40 Z" id="Shape" fill="#101828" fill-rule="nonzero"></path>
            <path d="M58.75,42.5 C60.825,42.5 62.5,44.175 62.5,46.25 C62.5,48.325 60.825,50 58.75,50 C56.675,50 55,48.325 55,46.25 C55,44.175 56.675,42.5 58.75,42.5 L58.75,42.5 Z M58.75,40 C55.3,40 52.5,42.8 52.5,46.25 C52.5,49.7 55.3,52.5 58.75,52.5 C62.2,52.5 65,49.7 65,46.25 C65,42.8 62.2,40 58.75,40 L58.75,40 Z" id="Shape" fill="#101828" fill-rule="nonzero"></path>
            <circle id="Oval" fill="#101828" fill-rule="nonzero" cx="21.25" cy="46.25" r="1.25"></circle>
            <circle id="Oval" fill="#101828" fill-rule="nonzero" cx="58.75" cy="46.25" r="1.25"></circle>
            <rect id="Rectangle" x="0" y="0" width="80" height="80"></rect>
        </g>
    </g>
</svg>