<?xml version="1.0" encoding="UTF-8"?>
<svg width="32px" height="32px" viewBox="0 0 32 32" version="1.1" xmlns="http://www.w3.org/2000/svg" xmlns:xlink="http://www.w3.org/1999/xlink">
    <!-- Generator: Sketch 57.1 (83088) - https://sketch.com -->
    <title>068-B32px</title>
    <desc>Created with Sketch.</desc>
    <g id="068-B32px" stroke="none" stroke-width="1" fill="none" fill-rule="evenodd">
        <g>
            <path d="M16,22.5 C16,22.2 16,21.9 16.1,21.7 C12.9,20 10.4,17.5 10.3,17.4 C10.3,17.4 5.6,12.5 5,7.7 C5,7.7 5,7.6 5,7.6 L7.6,5 C7.6,5 7.6,5 7.7,5 C7.7,5 7.7,5 7.8,5 L11.7,9.1 C11.7,9.1 11.7,9.2 11.7,9.2 L10,10.9 L9.5,11.4 L9.7,12 C9.7,12.1 10.7,14.4 12,15.7 C13.3,17.1 15.6,18.1 15.7,18.1 L16.3,18.4 L16.8,17.9 L18.5,16.2 C18.5,16.2 18.5,16.2 18.6,16.2 C18.6,16.2 18.6,16.2 18.7,16.2 L19.3,16.8 C19.6,16.6 19.9,16.5 20.3,16.3 L19.5,15.4 C19.3,15.2 19,15.1 18.7,15.1 C18.4,15.1 18.2,15.2 17.9,15.4 L16.2,17.1 C16.2,17.1 14.1,16.2 12.8,14.9 C11.6,13.7 10.7,11.5 10.7,11.5 L12.4,9.8 C12.8,9.4 12.8,8.7 12.4,8.3 L8.5,4.3 C8.3,4.1 8,4 7.7,4 C7.4,4 7.2,4.1 6.9,4.3 L4.3,6.8 C4.1,7.1 4,7.4 4,7.8 C4.6,13 9.6,18.1 9.6,18.1 C9.6,18.1 12.4,21 16,22.8 C16,22.7 16,22.6 16,22.5 Z" id="Path" fill="#101828" fill-rule="nonzero"></path>
            <path d="M22.5,18 C25,18 27,20 27,22.5 C27,25 25,27 22.5,27 C20,27 18,25 18,22.5 C18,20 20,18 22.5,18 L22.5,18 Z M22.5,17 C19.5,17 17,19.5 17,22.5 C17,25.5 19.5,28 22.5,28 C25.5,28 28,25.5 28,22.5 C28,19.5 25.5,17 22.5,17 L22.5,17 Z" id="Shape" fill="#101828" fill-rule="nonzero"></path>
            <polygon id="Path" fill="#101828" fill-rule="nonzero" points="20 22 20 23 22 23 22 25 23 25 23 23 25 23 25 22 23 22 23 20 22 20 22 22"></polygon>
            <rect id="Rectangle" x="0" y="0" width="32" height="32"></rect>
        </g>
    </g>
</svg>