<?xml version="1.0" encoding="UTF-8"?>
<svg width="56px" height="56px" viewBox="0 0 56 56" version="1.1" xmlns="http://www.w3.org/2000/svg" xmlns:xlink="http://www.w3.org/1999/xlink">
    <!-- Generator: Sketch 57.1 (83088) - https://sketch.com -->
    <title>245-G56px</title>
    <desc>Created with Sketch.</desc>
    <g id="NEW_icons" stroke="none" stroke-width="1" fill="none" fill-rule="evenodd">
        <g id="icons_UD" transform="translate(-449.000000, -2113.000000)">
            <g id="245-G56px" transform="translate(449.000000, 2113.000000)">
                <circle id="Oval-Copy-823" fill="#E3E8EC" cx="28" cy="28" r="28"></circle>
                <g id="245-B32px" transform="translate(8.000000, 8.000000)">
                    <g id="Group" transform="translate(7.500000, 5.000000)" fill="#101828" fill-rule="nonzero">
                        <path d="M22.5,30.3125 L2.5,30.3125 C1.4625,30.3125 0.625,29.475 0.625,28.4375 L0.625,25.3125 L4.375,25.3125 L4.375,26.5625 L5.625,26.5625 L5.625,25.3125 L9.375,25.3125 L9.375,26.5625 L10.625,26.5625 L10.625,25.3125 L14.375,25.3125 L14.375,26.5625 L15.625,26.5625 L15.625,25.3125 L19.375,25.3125 L19.375,26.5625 L20.625,26.5625 L20.625,25.3125 L24.375,25.3125 L24.375,28.4375 C24.375,29.475 23.5375,30.3125 22.5,30.3125 Z M1.875,26.5625 L1.875,28.4375 C1.875,28.7875 2.15,29.0625 2.5,29.0625 L22.5,29.0625 C22.85,29.0625 23.125,28.7875 23.125,28.4375 L23.125,26.5625 L21.875,26.5625 L21.875,27.8125 L18.125,27.8125 L18.125,26.5625 L16.875,26.5625 L16.875,27.8125 L13.125,27.8125 L13.125,26.5625 L11.875,26.5625 L11.875,27.8125 L8.125,27.8125 L8.125,26.5625 L6.875,26.5625 L6.875,27.8125 L3.125,27.8125 L3.125,26.5625 L1.875,26.5625 Z" id="Shape"></path>
                        <path d="M9.7,1.8125 C11.1875,2.2375 13.825,3.2875 15.3625,5.55 L17.075,8.0625 L17.55,5.4875 C19.2375,7.175 21.4125,10.1625 21.2875,14.275 C21.175,17.6625 19.7625,20.0125 18.3625,21.525 C18.7125,18.45 18.4,13.65 14.4875,9.1875 L12.5375,6.9625 L12.3,9.9125 C12.3,9.925 12.2125,10.9375 11.925,12.2125 C11.8875,12.15 11.85,12.0875 11.825,12.025 L9.7875,8.5375 L9.5,12.5625 C9.45,13.25 9.1625,15.275 8.375,16.3875 L8.175,16.6625 C7.525,17.55 6.65,18.775 6.675,21.0375 C6.675,21.1875 6.6875,21.3375 6.6875,21.4875 C5.2625,20.125 4.3875,18.725 4.0125,17.2375 C3.2875,14.375 4.4875,12.35 6.1375,9.55 C7.325,7.5375 8.7625,5.0875 9.7,1.8125 L9.7,1.8125 Z M8.7875,0.3125 C6.85,8.775 1.2875,11.5625 2.8,17.5375 C3.525,20.4 5.6875,22.475 7.7375,23.975 C7.8125,24.0375 7.9,24.0625 7.9875,24.0625 C8.275,24.0625 8.525,23.7375 8.375,23.3875 C8.125,22.7625 7.9375,21.975 7.925,21.0125 C7.9,18.95 8.7625,18 9.3875,17.1125 C10.5375,15.4625 10.7375,12.6625 10.7375,12.6625 C11.425,13.825 11.4625,15.025 11.3625,15.9 C11.3375,16.0875 11.475,16.2125 11.6125,16.2125 C11.6875,16.2125 11.7625,16.175 11.8125,16.0875 C13.2625,13.575 13.55,10.025 13.55,10.025 C18.1375,15.2625 17.4,20.9125 16.75,23.4125 C16.6625,23.775 16.925,24.075 17.225,24.075 C17.3125,24.075 17.4125,24.05 17.4875,23.9875 C19.2375,22.7 22.3625,19.6625 22.5375,14.325 C22.775,6.8875 16.3,2.8375 16.3,2.8375 C16.5625,4.025 16.4,4.8625 16.4,4.8625 C13.85,1.1 8.7875,0.3125 8.7875,0.3125 L8.7875,0.3125 Z" id="Shape"></path>
                    </g>
                    <rect id="Rectangle" x="0" y="0" width="40" height="40"></rect>
                </g>
            </g>
        </g>
    </g>
</svg>