<?xml version="1.0" encoding="UTF-8"?>
<svg width="56px" height="56px" viewBox="0 0 56 56" version="1.1" xmlns="http://www.w3.org/2000/svg" xmlns:xlink="http://www.w3.org/1999/xlink">
    <!-- Generator: Sketch 57.1 (83088) - https://sketch.com -->
    <title>135-W56px</title>
    <desc>Created with Sketch.</desc>
    <g id="NEW_icons" stroke="none" stroke-width="1" fill="none" fill-rule="evenodd">
        <g id="icons_UD_new-Copy" transform="translate(-1814.000000, -17326.000000)">
            <g id="135-W56px" transform="translate(1814.000000, 17326.000000)">
                <circle id="Oval-Copy-1113" fill="#101828" cx="28" cy="28" r="28"></circle>
                <g id="135-B32px-Copy-4" transform="translate(8.000000, 8.000000)">
                    <path d="M25.625,16.1625 C25.275,16.1625 25,16.4375 25,16.7875 C25,17.1375 25.275,17.4125 25.625,17.4125 C25.975,17.4125 26.25,17.1375 26.25,16.7875 C26.25,16.4375 25.975,16.1625 25.625,16.1625 L25.625,16.1625 Z" id="Path" fill="#FFFFFF" fill-rule="nonzero"></path>
                    <path d="M30.625,16.1625 C30.275,16.1625 30,16.4375 30,16.7875 C30,17.1375 30.275,17.4125 30.625,17.4125 C30.975,17.4125 31.25,17.1375 31.25,16.7875 C31.25,16.4375 30.975,16.1625 30.625,16.1625 L30.625,16.1625 Z" id="Path" fill="#FFFFFF" fill-rule="nonzero"></path>
                    <path d="M9.375,16.1625 C9.025,16.1625 8.75,16.4375 8.75,16.7875 C8.75,17.1375 9.025,17.4125 9.375,17.4125 C9.725,17.4125 10,17.125 10,16.7875 C10,16.45 9.725,16.1625 9.375,16.1625 L9.375,16.1625 Z" id="Path" fill="#FFFFFF" fill-rule="nonzero"></path>
                    <path d="M14.375,16.1625 C14.025,16.1625 13.75,16.4375 13.75,16.7875 C13.75,17.1375 14.025,17.4125 14.375,17.4125 C14.725,17.4125 15,17.1375 15,16.7875 C15,16.4375 14.725,16.1625 14.375,16.1625 L14.375,16.1625 Z" id="Path" fill="#FFFFFF" fill-rule="nonzero"></path>
                    <path d="M25.125,20.0625 C26.8625,21.525 29.4,21.525 31.125,20.0625 L30.375,19.0625 C29.0875,20.2 27.15,20.1875 25.8625,19.0625 L25.125,20.0625 Z" id="Path" fill="#FFFFFF" fill-rule="nonzero"></path>
                    <path d="M8.875,20.0625 C10.6125,21.525 13.15,21.525 14.875,20.0625 L14.125,19.0625 C12.8375,20.2 10.9,20.1875 9.6125,19.0625 L8.875,20.0625 Z" id="Path" fill="#FFFFFF" fill-rule="nonzero"></path>
                    <g id="Group" transform="translate(8.750000, 7.500000)" fill="#FFFFFF" fill-rule="nonzero">
                        <path d="M3.75,3.6625 L2.5,3.6625 C2.5,2.5875 3.15,0.5375 5.625,0.5375 L5.625,1.7875 C3.8625,1.7875 3.75,3.35 3.75,3.6625 Z" id="Path"></path>
                        <path d="M2.5,3.6625 C2.5,3.35 2.3875,1.7875 0.625,1.7875 L0.625,0.5375 C3.1,0.5375 3.75,2.5875 3.75,3.6625 L2.5,3.6625 L3.125,3.6625 L2.5,3.6625 Z" id="Path"></path>
                    </g>
                    <path d="M28.125,9.9125 C24.325,9.9125 21.25,12.9875 21.25,16.7875 C21.25,17.5 21.3625,18.175 21.5625,18.825 C22.125,18.9375 22.65,19.125 23.1625,19.3625 C22.75,18.575 22.5,17.7125 22.5,16.7875 C22.5,13.6875 25.025,11.1625 28.125,11.1625 C31.225,11.1625 33.75,13.6875 33.75,16.7875 C33.75,19.8875 31.225,22.4125 28.125,22.4125 C27.4875,22.4125 26.875,22.2875 26.3,22.0875 C26.6,22.55 26.85,23.05 27.0375,23.575 C27.3875,23.625 27.75,23.6625 28.125,23.6625 C31.925,23.6625 35,20.5875 35,16.7875 C35,12.9875 31.925,9.9125 28.125,9.9125 Z" id="Path" fill="#FFFFFF" fill-rule="nonzero"></path>
                    <path d="M13.7,22.075 C13.125,22.275 12.5125,22.4 11.875,22.4 C8.775,22.4 6.25,19.875 6.25,16.775 C6.25,13.675 8.775,11.15 11.875,11.15 C14.975,11.15 17.5,13.675 17.5,16.775 C17.5,17.7125 17.25,18.575 16.85,19.35 C17.35,19.1125 17.8875,18.9375 18.45,18.8125 C18.65,18.1625 18.7625,17.4875 18.7625,16.775 C18.7625,12.975 15.6875,9.9 11.8875,9.9 C8.0875,9.9 5,12.9875 5,16.7875 C5,20.5875 8.075,23.6625 11.875,23.6625 C12.25,23.6625 12.6,23.625 12.9625,23.575 C13.15,23.0375 13.4,22.5375 13.7,22.075 Z" id="Path" fill="#FFFFFF" fill-rule="nonzero"></path>
                    <path d="M20,21.1875 C22.7625,21.1875 25,23.425 25,26.175 C25,28.925 22.7625,31.1625 20,31.1625 C17.2375,31.1625 15,28.925 15,26.175 C15,23.425 17.2375,21.1875 20,21.1875 L20,21.1875 Z M20,19.9375 C16.55,19.9375 13.75,22.725 13.75,26.175 C13.75,29.625 16.55,32.4125 20,32.4125 C23.45,32.4125 26.25,29.625 26.25,26.175 C26.25,22.725 23.45,19.9375 20,19.9375 L20,19.9375 Z" id="Shape" fill="#FFFFFF" fill-rule="nonzero"></path>
                    <path d="M22.375,29.2 L17.625,29.2 L16.4375,24.9375 L20,22.1125 L23.55,24.95 L22.375,29.2 Z M18.575,27.95 L21.4125,27.95 L22.125,25.4 L20,23.7125 L17.875,25.4125 L18.575,27.95 Z" id="Shape" fill="#FFFFFF" fill-rule="nonzero"></path>
                    <rect id="Rectangle" fill="#FFFFFF" fill-rule="nonzero" x="19.375" y="20.125" width="1.25" height="3"></rect>
                    <polygon id="Rectangle" fill="#FFFFFF" fill-rule="nonzero" transform="translate(17.161900, 29.548169) rotate(-44.404414) translate(-17.161900, -29.548169) " points="15.5494424 28.9231852 18.7743576 28.9231852 18.7743576 30.1731523 15.5494424 30.1731523"></polygon>
                    <polygon id="Rectangle" fill="#FFFFFF" fill-rule="nonzero" transform="translate(22.834423, 29.547521) rotate(-43.521022) translate(-22.834423, -29.547521) " points="22.2094413 27.9913173 23.4594037 27.9913173 23.4594037 31.1037239 22.2094413 31.1037239"></polygon>
                    <polygon id="Rectangle" fill="#FFFFFF" fill-rule="nonzero" transform="translate(15.917094, 24.722269) rotate(-67.975154) translate(-15.917094, -24.722269) " points="15.2921081 23.191054 16.5420794 23.191054 16.5420794 26.2534835 15.2921081 26.2534835"></polygon>
                    <polygon id="Rectangle" fill="#FFFFFF" fill-rule="nonzero" transform="translate(24.209447, 24.712675) rotate(-21.759913) translate(-24.209447, -24.712675) " points="22.5720276 24.0877056 25.8468674 24.0877056 25.8468674 25.3376444 22.5720276 25.3376444"></polygon>
                    <polygon id="Path" fill="#FFFFFF" fill-rule="nonzero" points="17.5 14.9125 11.6125 14.9125 10.625 13.9125 9.6375 14.9125 6.25 14.9125 6.25 13.6625 9.1125 13.6625 10.625 12.15 12.1375 13.6625 17.5 13.6625"></polygon>
                    <polygon id="Path" fill="#FFFFFF" fill-rule="nonzero" points="33.75 14.9125 27.8625 14.9125 26.875 13.9125 25.8875 14.9125 22.5 14.9125 22.5 13.6625 25.3625 13.6625 26.875 12.15 28.3875 13.6625 33.75 13.6625"></polygon>
                    <polygon id="Path" fill="#FFFFFF" fill-rule="nonzero" points="25 11.675 23.75 11.675 23.75 7.1625 28.3125 8.65 27.925 9.8375 25 8.875"></polygon>
                    <polygon id="Path" fill="#FFFFFF" fill-rule="nonzero" points="32.4875 11.675 31.2375 11.675 31.2375 8.875 28.325 9.8375 27.925 8.65 32.4875 7.1625"></polygon>
                    <rect id="Rectangle" fill="#FFFFFF" fill-rule="nonzero" x="27.5" y="8.6625" width="1.25" height="1.25"></rect>
                    <rect id="Rectangle" x="0" y="0" width="40" height="40"></rect>
                </g>
            </g>
        </g>
    </g>
</svg>