<?xml version="1.0" encoding="UTF-8"?>
<svg width="32px" height="32px" viewBox="0 0 32 32" version="1.1" xmlns="http://www.w3.org/2000/svg" xmlns:xlink="http://www.w3.org/1999/xlink">
    <!-- Generator: Sketch 58 (84663) - https://sketch.com -->
    <title>254-B32px</title>
    <desc>Created with Sketch.</desc>
    <g id="254-B32px" stroke="none" stroke-width="1" fill="none" fill-rule="evenodd">
        <g>
            <path d="M8.3,5.67 C8.35,5.67 8.42,5.68 8.48,5.74 L13.07,10.49 C13.17,10.59 13.16,10.76 13.05,10.86 L11.02,12.83 L10.54,13.3 L10.79,13.92 C10.83,14.03 11.9,16.65 13.43,18.23 C14.96,19.81 17.54,20.96 17.65,21.01 L18.27,21.28 L18.75,20.81 L20.78,18.84 C20.85,18.77 20.92,18.76 20.97,18.76 C21.02,18.76 21.09,18.77 21.15,18.83 L25.74,23.58 C25.8,23.64 25.81,23.71 25.81,23.76 C25.81,23.8 25.8,23.88 25.72,23.95 L22.67,26.9 C22.62,26.95 22.55,26.98 22.45,26.98 C22.45,26.98 22.44,26.98 22.44,26.98 C16.74,26.07 11.23,20.45 11.18,20.39 C11.12,20.33 5.65,14.62 4.98,8.95 C4.98,8.9 4.98,8.78 5.07,8.7 L8.12,5.75 C8.18,5.69 8.25,5.67 8.3,5.67 L8.3,5.67 Z M8.3,4.67 C7.98,4.67 7.66,4.79 7.41,5.03 L4.37,7.98 C4.07,8.27 3.94,8.67 3.99,9.08 C4.71,15.15 10.46,21.1 10.46,21.1 C10.46,21.1 16.17,27 22.28,27.98 C22.34,27.99 22.41,27.99 22.47,27.99 C22.8,27.99 23.12,27.86 23.36,27.62 L26.41,24.67 C26.91,24.18 26.93,23.38 26.45,22.89 L21.86,18.14 C21.62,17.89 21.29,17.76 20.96,17.76 C20.64,17.76 20.32,17.88 20.07,18.12 L18.04,20.09 C18.04,20.09 15.54,18.98 14.14,17.53 C12.73,16.08 11.71,13.54 11.71,13.54 L13.74,11.57 C14.24,11.08 14.26,10.28 13.78,9.79 L9.2,5.05 C8.96,4.8 8.63,4.67 8.3,4.67 L8.3,4.67 Z" id="Shape" fill="#101828" fill-rule="nonzero"></path>
            <path d="M24,11.99 C23.45,11.99 23,12.44 23,12.99 C23,13.54 23.45,13.99 24,13.99 C24.55,13.99 25,13.54 25,12.99 C25,12.44 24.55,11.99 24,11.99 L24,11.99 Z" id="Path" fill="#101828" fill-rule="nonzero"></path>
            <path d="M21,11.99 C20.45,11.99 20,12.44 20,12.99 C20,13.54 20.45,13.99 21,13.99 C21.55,13.99 22,13.54 22,12.99 C22,12.44 21.56,11.99 21,11.99 L21,11.99 Z" id="Path" fill="#101828" fill-rule="nonzero"></path>
            <path d="M18,11.99 C17.45,11.99 17,12.44 17,12.99 C17,13.54 17.45,13.99 18,13.99 C18.55,13.99 19,13.54 19,12.99 C19,12.44 18.56,11.99 18,11.99 L18,11.99 Z" id="Path" fill="#101828" fill-rule="nonzero"></path>
            <rect id="Rectangle" x="0" y="0" width="32" height="32"></rect>
        </g>
    </g>
</svg>