<?xml version="1.0" encoding="UTF-8"?>
<svg width="42px" height="42px" viewBox="0 0 42 42" version="1.1" xmlns="http://www.w3.org/2000/svg" xmlns:xlink="http://www.w3.org/1999/xlink">
    <!-- Generator: Sketch 57.1 (83088) - https://sketch.com -->
    <title>141-G40px</title>
    <desc>Created with Sketch.</desc>
    <g id="NEW_icons" stroke="none" stroke-width="1" fill="none" fill-rule="evenodd">
        <g id="icons_UD_new-Copy" transform="translate(-1526.000000, -18090.000000)">
            <g id="141-G40px" transform="translate(1527.000000, 18091.000000)">
                <circle id="Oval-Copy-1131" stroke="#E3E8EC" cx="20" cy="20" r="20"></circle>
                <g id="141-B32px-Copy" transform="translate(4.000000, 4.000000)">
                    <path d="M21,26.5 C17.97,26.5 15.5,24.03 15.5,21 L16.5,21 C16.5,23.48 18.52,25.5 21,25.5 L21,26.5 Z" id="Path" fill="#101828" fill-rule="nonzero"></path>
                    <path d="M26.5,21 L25.5,21 C25.5,18.52 23.48,16.5 21,16.5 L21,15.5 C24.03,15.5 26.5,17.97 26.5,21 Z" id="Path" fill="#101828" fill-rule="nonzero"></path>
                    <path d="M21,15 C24.31,15 27,17.69 27,21 C27,24.31 24.31,27 21,27 C17.69,27 15,24.31 15,21 C15,17.69 17.69,15 21,15 L21,15 Z M21,14 C17.13,14 14,17.13 14,21 C14,24.87 17.13,28 21,28 C24.87,28 28,24.87 28,21 C28,17.13 24.87,14 21,14 L21,14 Z" id="Shape" fill="#101828" fill-rule="nonzero"></path>
                    <path d="M23.51,19.92 L21.28,17.68 C21.2,17.6 21.06,17.6 20.98,17.68 L19.72,18.94 C19.34,19.32 19.349975,19.7 19.349975,20.14 L19.349975,23.7 C19.349975,23.88 19.41,24.06 19.54,24.18 C19.66,24.3 19.83,24.38 19.99,24.38 L22.58,24.38 C22.67,24.38 22.74,24.33 22.78,24.25 C22.81,24.17 22.79,24.08 22.73,24.02 L21.22,22.51 L23.51,20.22 C23.59,20.13 23.59,20 23.51,19.92 Z M21.85,23.86 L20,23.86 C19.98,23.86 19.96,23.85 19.96,23.85 C19.95,23.83 19.94,23.82 19.94,23.81 L19.94,23.78 C20.02,23.69 20.26,23.45 20.28,23.43 L20.85,22.86 L21.85,23.86 Z" id="Shape" fill="#101828" fill-rule="nonzero"></path>
                    <path d="M13.07,22 L13,22 L13,15 L13,13 L13,12 L13,10.02 L14,10.02 L14,12 L14,13 L14,15 L14,17.13 C14.28,16.62 14.62,16.15 15,15.72 L15,13 L21,13 C21.34,13 21.67,13.03 22,13.07 L22,13 C22.55,13 23,12.55 23,12 L23,10 C23,9.45 22.55,9 22,9 L18.99,9 C18.99,7.96 18.87,7.06 18.73,6.38 C18.63,5.89 18.2,5.58 17.75,5.58 C17.57,5.58 17.39,5.63 17.23,5.73 L14.7,7.29 C14.52,7.11 14.27,7 14,7 L13,7 C12.73,7 12.48,7.11 12.3,7.29 L9.77,5.73 C9.6,5.63 9.42,5.58 9.25,5.58 C8.8,5.58 8.37,5.89 8.27,6.38 C8.13,7.06 8.01,7.96 8.01,9 L5,9 C4.45,9 4,9.45 4,10 L4,12 C4,12.55 4.45,13 5,13 L5,22 C5,22.55 5.45,23 6,23 L12,23 L13.26,23 C13.18,22.67 13.11,22.34 13.07,22 Z M15,8.28 L17.75,6.58 L17.75,6.58 C17.88,7.21 17.99,8.04 18,9 L15,9 L15,8.28 Z M15,10 L22,10 L22,12 L21,12 L15,12 L15,10 Z M13,8 L14,8 L14,9 L13,9 L13,8 Z M12,22 L6,22 L6,13 L12,13 L12,22 Z M12,12 L6,12 L5,12 L5,10 L12,10 L12,12 Z M12,9 L9,9 C9,8.04 9.11,7.21 9.24,6.58 L9.24,6.58 L12,8.28 L12,9 Z" id="Shape" fill="#101828" fill-rule="nonzero"></path>
                    <rect id="Rectangle" x="0" y="0" width="32" height="32"></rect>
                </g>
            </g>
        </g>
    </g>
</svg>