<?xml version="1.0" encoding="UTF-8"?>
<svg width="56px" height="56px" viewBox="0 0 56 56" version="1.1" xmlns="http://www.w3.org/2000/svg" xmlns:xlink="http://www.w3.org/1999/xlink">
    <!-- Generator: Sketch 57.1 (83088) - https://sketch.com -->
    <title>152-B56px</title>
    <desc>Created with Sketch.</desc>
    <g id="152-B56px" stroke="none" stroke-width="1" fill="none" fill-rule="evenodd">
        <g>
            <path d="M47.215,17.5 L47.25,17.535 L47.215,36.785 L8.75,36.75 L8.785,17.5 L47.215,17.5 L47.215,17.5 Z M47.215,15.75 L8.785,15.75 C7.805,15.75 7,16.555 7,17.535 L7,36.75 C7,37.73 7.805,38.535 8.785,38.535 L47.215,38.535 C48.195,38.535 49,37.73 49,36.75 L49,17.535 C49,16.555 48.195,15.75 47.215,15.75 L47.215,15.75 Z" id="Shape" fill="#101828" fill-rule="nonzero"></path>
            <g id="Group" transform="translate(12.250000, 21.000000)" fill="#101828" fill-rule="nonzero">
                <rect id="Rectangle" x="0.035" y="1.505" width="1.47" height="1.2775"></rect>
                <path d="M0.035,3.4825 L1.505,3.4825 L1.505,5.74 C1.505,5.74 1.505,7.595 3.4825,7.4725 C3.4825,7.4725 3.8675,8.4525 4.585,8.75 L2.9575,8.75 C2.9575,8.75 0,8.8375 0,5.705 L0.035,3.4825 Z" id="Path"></path>
                <path d="M2.1525,1.505 L3.6225,1.505 L3.6225,0 L5.0925,0 L5.0925,1.505 L6.125,1.505 C6.125,1.505 7.8575,1.3475 8.5925,3.185 C9.24,4.8125 9.9575,6.895 9.9575,6.895 L12.3375,0 L13.93,0 L10.92,8.75 L9.0125,8.75 L7.2275,3.675 C7.2275,3.675 7,2.8 6.0725,2.8 C5.4775,2.8 5.145,2.8 5.145,2.8 L5.145,5.7575 C5.145,5.7575 5.1975,7.4375 6.79,7.4375 L7.945,7.4375 L8.3825,8.75 C8.3825,8.75 6.615,8.7325 6.44,8.7325 C5.7225,8.7325 3.6575,8.3475 3.6575,5.7575 L3.6575,2.8 L2.135,2.8 L2.1525,1.505 Z" id="Path"></path>
            </g>
            <g id="Group" transform="translate(26.250000, 26.250000)" fill="#101828" fill-rule="nonzero">
                <path d="M15.54,1.7325 C15.54,1.75 15.5575,1.785 15.5575,1.8025 C16.205,3.5175 16.835,5.2325 17.4825,6.9475 C17.4825,6.965 17.4825,6.965 17.5,6.9825 C16.94,6.9825 16.38,6.9825 15.82,6.9825 C15.785,6.86 15.7325,6.72 15.6975,6.5975 C15.6625,6.51 15.645,6.405 15.61,6.3175 C15.61,6.2825 15.5925,6.2825 15.5575,6.2825 C14.945,6.2825 14.3325,6.2825 13.72,6.2825 C13.685,6.2825 13.685,6.3 13.6675,6.3175 C13.5975,6.5275 13.545,6.7375 13.475,6.9475 C13.475,6.965 13.475,6.965 13.4575,6.9825 C12.915,6.9825 12.3725,6.9825 11.8125,6.9825 C12.46,5.2325 13.1075,3.4825 13.7725,1.7325 C14.3675,1.7325 14.9625,1.7325 15.54,1.7325 Z M13.9825,5.285 C14.4375,5.285 14.875,5.285 15.33,5.285 C15.1025,4.55 14.875,3.8325 14.6475,3.0975 C14.6475,3.0975 14.6475,3.0975 14.63,3.0975 C14.4025,3.8325 14.1925,4.55 13.9825,5.285 Z" id="Shape"></path>
                <path d="M5.0575,1.75 C4.9525,2.0125 4.8475,2.2925 4.7425,2.555 C4.7075,2.6425 4.6725,2.7475 4.6375,2.835 C4.62,2.87 4.6025,2.8875 4.5675,2.8875 C3.9375,2.8875 3.29,2.8875 2.66,2.8875 C2.59,2.8875 2.59,2.8875 2.59,2.9575 C2.59,3.2725 2.59,3.605 2.59,3.92 C2.59,3.9725 2.59,3.9725 2.6425,3.9725 C3.15,3.9725 3.675,3.9725 4.1825,3.9725 C4.2,3.9725 4.2175,3.9725 4.235,3.9725 C4.235,3.99 4.235,4.0075 4.2175,4.0075 C4.0775,4.3575 3.9375,4.725 3.78,5.075 C3.7625,5.11 3.7625,5.11 3.7275,5.11 C3.36,5.11 2.9925,5.11 2.625,5.11 C2.6075,5.11 2.59,5.11 2.5725,5.11 C2.5725,5.74 2.5725,6.37 2.5725,7 C2.555,7 2.5375,7 2.52,7 C1.9775,7 1.4525,7 0.91,7 C0.8925,7 0.875,7 0.8575,7 C0.8575,5.25 0.8575,3.5 0.8575,1.75 C2.275,1.75 3.675,1.75 5.0575,1.75 Z" id="Path"></path>
                <path d="M12.6525,1.7325 C12.5475,1.995 12.46,2.2575 12.355,2.52 C12.32,2.625 12.2675,2.73 12.2325,2.835 C12.215,2.87 12.1975,2.8875 12.1625,2.8875 C11.5325,2.8875 10.9025,2.8875 10.255,2.8875 C10.1675,2.8875 10.185,2.8875 10.185,2.9575 C10.185,3.2725 10.185,3.5875 10.185,3.92 C10.185,3.9375 10.185,3.955 10.185,3.9725 C10.745,3.9725 11.2875,3.9725 11.8475,3.9725 C11.8475,3.99 11.83,4.0075 11.83,4.0075 C11.69,4.3575 11.55,4.7075 11.3925,5.075 C11.375,5.11 11.3575,5.11 11.3225,5.11 C10.955,5.11 10.5875,5.11 10.2375,5.11 C10.22,5.11 10.2025,5.11 10.185,5.11 C10.185,5.74 10.185,6.37 10.185,7 C9.6075,7 9.0475,7 8.47,7 C8.47,6.9825 8.47,6.965 8.47,6.9475 C8.47,5.2325 8.47,3.5175 8.47,1.82 C8.47,1.8025 8.47,1.785 8.47,1.75 C9.87,1.75 11.2525,1.75 12.6525,1.7325 Z" id="Path"></path>
                <path d="M7.2975,1.75 C7.2975,2.4675 7.2975,3.2025 7.2975,3.92 C7.2975,4.935 7.2975,5.9325 7.2975,6.9475 C7.2975,6.965 7.2975,6.9825 7.2975,7 C6.7375,7 6.1775,7 5.6,7 C5.6,6.9825 5.6,6.965 5.6,6.965 C5.6,5.2325 5.6,3.5175 5.6,1.785 C5.6,1.7675 5.6,1.7675 5.6,1.75 C6.16,1.75 6.72,1.75 7.2975,1.75 Z" id="Path"></path>
            </g>
            <polygon id="Path" fill="#101828" fill-rule="nonzero" points="33.25 22.75 31.5 22.75 31.5 21 29.75 21 29.75 22.75 28 22.75 28 24.5 29.75 24.5 29.75 26.25 31.5 26.25 31.5 24.5 33.25 24.5"></polygon>
            <path d="M27.965,38.4125 C20.4225,38.4125 14.77,39.5675 12.25,40.1975 L12.25,42 C14.4025,41.44 20.195,40.1625 27.965,40.1625 C35.805,40.1625 41.6325,41.4575 43.75,42.0175 L43.75,40.215 C41.2475,39.5675 35.5775,38.4125 27.965,38.4125 Z" id="Path" fill="#101828" fill-rule="nonzero"></path>
            <rect id="Rectangle" x="0" y="0" width="56" height="56"></rect>
        </g>
    </g>
</svg>