<?xml version="1.0" encoding="UTF-8"?>
<svg width="32px" height="32px" viewBox="0 0 32 32" version="1.1" xmlns="http://www.w3.org/2000/svg" xmlns:xlink="http://www.w3.org/1999/xlink">
    <!-- Generator: Sketch 57.1 (83088) - https://sketch.com -->
    <title>011-B32px</title>
    <desc>Created with Sketch.</desc>
    <g id="011-B32px" stroke="none" stroke-width="1" fill="none" fill-rule="evenodd">
        <g>
            <path d="M5,17.02 C5,17.01 5,16.99 5,16.98 C5,16.96 5,16.94 5,16.92 L5,17.02 Z" id="Path" fill="#101828" fill-rule="nonzero"></path>
            <path d="M12.23,23.24 C8.82,23.22 6.03,20.42 6,16.99 C6.03,14.12 10.01,8.47 12.26,5.59 C13.5,7.16 15.25,9.56 16.59,11.85 C16.81,11.54 17.02,11.24 17.23,10.96 C15.09,7.41 12.26,4 12.26,4 C12.26,4 5.05,12.68 5,16.98 C5.03,20.99 8.27,24.24 12.26,24.24 C12.36,24.24 12.45,24.23 12.54,24.23 C12.42,23.91 12.32,23.58 12.23,23.24 Z" id="Path" fill="#101828" fill-rule="nonzero"></path>
            <path d="M19.5,11.59 C21.53,14.17 25,19.06 25,21.42 L25,21.49 C25,24.53 22.53,27 19.5,27 C16.49,27 14.02,24.55 14,21.56 C14.03,19.07 17.48,14.17 19.5,11.59 L19.5,11.59 Z M19.5,10 C19.5,10 13.05,17.72 13,21.54 C13.03,25.11 15.93,27.99 19.5,27.99 C23.09,27.99 26,25.08 26,21.48 L26,21.41 C26,17.77 19.5,10 19.5,10 L19.5,10 Z" id="Shape" fill="#101828" fill-rule="nonzero"></path>
            <rect id="Rectangle" x="0" y="0" width="32" height="32"></rect>
        </g>
    </g>
</svg>