<?xml version="1.0" encoding="UTF-8"?>
<svg width="80px" height="80px" viewBox="0 0 80 80" version="1.1" xmlns="http://www.w3.org/2000/svg" xmlns:xlink="http://www.w3.org/1999/xlink">
    <!-- Generator: Sketch 57.1 (83088) - https://sketch.com -->
    <title>243-B80px</title>
    <desc>Created with Sketch.</desc>
    <g id="243-B80px" stroke="none" stroke-width="1" fill="none" fill-rule="evenodd">
        <g>
            <polygon id="Rectangle" fill="#101828" fill-rule="nonzero" transform="translate(36.240411, 21.257839) rotate(-45.000000) translate(-36.240411, -21.257839) " points="22.1030468 20.0078507 50.3777757 20.0078507 50.3777757 22.5078268 22.1030468 22.5078268"></polygon>
            <polygon id="Path" fill="#101828" fill-rule="nonzero" points="47.5 20 45 20 45 12.5 37.5 12.5 37.5 10 47.5 10"></polygon>
            <rect id="Rectangle" fill="#101828" fill-rule="nonzero" x="10" y="67.5" width="60" height="2.5"></rect>
            <path d="M65,27.5 L65,67.5 L55,67.5 L55,27.5 L65,27.5 L65,27.5 Z M65,25 L55,25 C53.625,25 52.5,26.125 52.5,27.5 L52.5,67.5 C52.5,68.875 53.625,70 55,70 L65,70 C66.375,70 67.5,68.875 67.5,67.5 L67.5,27.5 C67.5,26.125 66.375,25 65,25 L65,25 Z" id="Shape" fill="#101828" fill-rule="nonzero"></path>
            <path d="M45,40 L45,67.5 L35,67.5 L35,40 L45,40 L45,40 Z M45,37.5 L35,37.5 C33.625,37.5 32.5,38.625 32.5,40 L32.5,67.5 C32.5,68.875 33.625,70 35,70 L45,70 C46.375,70 47.5,68.875 47.5,67.5 L47.5,40 C47.5,38.625 46.375,37.5 45,37.5 L45,37.5 Z" id="Shape" fill="#101828" fill-rule="nonzero"></path>
            <path d="M25,52.5 L25,67.5 L15,67.5 L15,52.5 L25,52.5 L25,52.5 Z M25,50 L15,50 C13.625,50 12.5,51.125 12.5,52.5 L12.5,67.5 C12.5,68.875 13.625,70 15,70 L25,70 C26.375,70 27.5,68.875 27.5,67.5 L27.5,52.5 C27.5,51.125 26.375,50 25,50 L25,50 Z" id="Shape" fill="#101828" fill-rule="nonzero"></path>
            <rect id="Rectangle" x="0" y="0" width="80" height="80"></rect>
        </g>
    </g>
</svg>