<?xml version="1.0" encoding="UTF-8"?>
<svg width="80px" height="80px" viewBox="0 0 80 80" version="1.1" xmlns="http://www.w3.org/2000/svg" xmlns:xlink="http://www.w3.org/1999/xlink">
    <!-- Generator: Sketch 57.1 (83088) - https://sketch.com -->
    <title>072-B80px</title>
    <desc>Created with Sketch.</desc>
    <g id="072-B80px" stroke="none" stroke-width="1" fill="none" fill-rule="evenodd">
        <g>
            <path d="M47.375,12.5 C47.45,12.5 47.5,12.55 47.5,12.625 L47.5,67.375 C47.5,67.45 47.45,67.5 47.375,67.5 L12.625,67.5 C12.55,67.5 12.5,67.45 12.5,67.375 L12.5,12.625 C12.5,12.55 12.55,12.5 12.625,12.5 L47.375,12.5 L47.375,12.5 Z M47.375,10 L12.625,10 C11.175,10 10,11.175 10,12.625 L10,67.375 C10,68.825 11.175,70 12.625,70 L47.375,70 C48.825,70 50,68.825 50,67.375 L50,12.625 C50,11.175 48.825,10 47.375,10 L47.375,10 Z" id="Shape" fill="#101828" fill-rule="nonzero"></path>
            <path d="M30,65 C30.675,65 31.25,64.45 31.25,63.75 C31.25,63.05 30.675,62.5 30,62.5 C29.325,62.5 28.75,63.05 28.75,63.75 C28.75,64.45 29.325,65 30,65" id="Path" fill="#101828" fill-rule="nonzero"></path>
            <rect id="Rectangle" fill="#101828" fill-rule="nonzero" x="10" y="57.5" width="40" height="2.5"></rect>
            <path d="M61.9,17.55 L60.425,19.6 C64.75,23.3 67.5,28.775 67.5,34.875 C67.5,41 64.75,46.475 60.425,50.15 L61.9,52.2 C66.85,48.075 70.025,41.825 70.025,34.875 C70,27.925 66.85,21.7 61.9,17.55 Z" id="Path" fill="#101828" fill-rule="nonzero"></path>
            <path d="M59.475,22.675 L58,24.725 C60.75,27.25 62.5,30.85 62.5,34.875 C62.5,38.9 60.75,42.525 58,45.05 L59.475,47.1 C62.85,44.125 65,39.75 65,34.875 C65,30.025 62.85,25.65 59.475,22.675 Z" id="Path" fill="#101828" fill-rule="nonzero"></path>
            <path d="M56.975,27.9 L55.475,29.975 C56.725,31.325 57.5,33.1 57.5,35.05 C57.5,36.95 56.775,38.65 55.625,39.975 L57.125,42.075 C58.9,40.275 60,37.8 60,35.05 C60,32.25 58.825,29.725 56.975,27.9 Z" id="Path" fill="#101828" fill-rule="nonzero"></path>
            <rect id="Rectangle" x="0" y="0" width="80" height="80"></rect>
        </g>
    </g>
</svg>