<?xml version="1.0" encoding="UTF-8"?>
<svg width="42px" height="42px" viewBox="0 0 42 42" version="1.1" xmlns="http://www.w3.org/2000/svg" xmlns:xlink="http://www.w3.org/1999/xlink">
    <!-- Generator: Sketch 57.1 (83088) - https://sketch.com -->
    <title>094-G40px</title>
    <desc>Created with Sketch.</desc>
    <g id="NEW_icons" stroke="none" stroke-width="1" fill="none" fill-rule="evenodd">
        <g id="icons_UD_new-Copy" transform="translate(-244.000000, -12308.000000)">
            <g id="094-G40px" transform="translate(245.000000, 12309.000000)">
                <circle id="Oval-Copy-642" stroke="#E3E8EC" cx="20" cy="20" r="20"></circle>
                <g id="094-B32px-Copy" transform="translate(4.000000, 4.000000)">
                    <path d="M15.99,22.5 C15.99,22.22 16.01,21.94 16.05,21.66 C12.82,19.98 10.32,17.43 10.29,17.4 C10.24,17.35 5.57,12.46 5,7.65 C5,7.62 5,7.57 5.03,7.54 L7.65,5.01 C7.67,4.99 7.69,4.98 7.72,4.98 C7.74,4.98 7.76,5 7.76,5 L11.71,9.08 C11.74,9.11 11.73,9.17 11.7,9.2 L9.95,10.89 L9.47,11.36 L9.72,11.98 C9.76,12.08 10.69,14.35 12.02,15.72 C13.35,17.09 15.59,18.1 15.69,18.14 L16.31,18.41 L16.79,17.94 L18.54,16.25 C18.56,16.23 18.58,16.22 18.61,16.22 C18.64,16.22 18.66,16.24 18.66,16.24 L19.26,16.86 C19.56,16.68 19.88,16.53 20.22,16.41 L19.38,15.54 C19.17,15.32 18.89,15.21 18.61,15.21 C18.34,15.21 18.06,15.31 17.85,15.52 L16.1,17.21 C16.1,17.21 13.96,16.26 12.75,15.01 C11.54,13.76 10.66,11.59 10.66,11.59 L12.41,9.9 C12.84,9.48 12.86,8.8 12.44,8.37 L8.48,4.31 C8.27,4.09 7.99,3.98 7.71,3.98 C7.44,3.98 7.16,4.08 6.95,4.29 L4.33,6.82 C4.08,7.07 3.97,7.42 4.01,7.77 C4.63,12.99 9.57,18.09 9.57,18.09 C9.57,18.09 12.37,20.98 16.01,22.76 C16,22.67 15.99,22.59 15.99,22.5 Z" id="Path" fill="#101828" fill-rule="nonzero"></path>
                    <path d="M22.49,18 C24.97,18 26.99,20.02 26.99,22.5 C26.99,24.98 24.97,27 22.49,27 C20.01,27 17.99,24.98 17.99,22.5 C17.99,20.02 20.01,18 22.49,18 L22.49,18 Z M22.49,17 C19.45,17 16.99,19.46 16.99,22.5 C16.99,25.54 19.45,28 22.49,28 C25.53,28 27.99,25.54 27.99,22.5 C27.99,19.46 25.53,17 22.49,17 L22.49,17 Z" id="Shape" fill="#101828" fill-rule="nonzero"></path>
                    <path d="M20.89,22.55 L22,21.85 L22,23.24 L20.89,22.55 L20.89,22.55 Z M19,22.56 L23,25.05 L22.99,20.05 L19,22.56 L19,22.56 Z" id="Shape" fill="#101828" fill-rule="nonzero"></path>
                    <rect id="Rectangle" fill="#101828" fill-rule="nonzero" transform="translate(24.245009, 22.500085) rotate(-0.111814) translate(-24.245009, -22.500085) " x="22.4900061" y="22.0000842" width="3.51000668" height="1.0000019"></rect>
                    <rect id="Rectangle" x="0" y="0" width="32" height="32"></rect>
                </g>
            </g>
        </g>
    </g>
</svg>