<?xml version="1.0" encoding="UTF-8"?>
<svg width="80px" height="80px" viewBox="0 0 80 80" version="1.1" xmlns="http://www.w3.org/2000/svg" xmlns:xlink="http://www.w3.org/1999/xlink">
    <!-- Generator: Sketch 57.1 (83088) - https://sketch.com -->
    <title>156-C80px</title>
    <desc>Created with Sketch.</desc>
    <g id="NEW_icons" stroke="none" stroke-width="1" fill="none" fill-rule="evenodd">
        <g id="icons_UD_new-Copy" transform="translate(-1002.000000, -20058.000000)">
            <g id="156-C80px" transform="translate(1002.000000, 20058.000000)">
                <circle id="Oval-Copy-926" fill="#FF4F12" cx="40" cy="40" r="40"></circle>
                <g id="156-B32px-Copy-8" transform="translate(12.000000, 12.000000)">
                    <path d="M47.215,15.75 L26.005,15.75 C26.145,16.3275 26.25,16.905 26.25,17.5 L47.215,17.5 L47.25,17.535 L47.215,36.785 L8.75,36.75 L8.785,17.5 L12.25,17.5 C12.25,16.905 12.355,16.3275 12.495,15.75 L8.785,15.75 C7.805,15.75 7,16.5375 7,17.535 L7,36.75 C7,37.73 7.805,38.535 8.785,38.535 L47.215,38.535 C48.195,38.535 49,37.73 49,36.75 L49,17.535 C49,16.5375 48.195,15.75 47.215,15.75 Z" id="Path" fill="#FFFFFF" fill-rule="nonzero"></path>
                    <path d="M19.25,14 C20.1775,14 21.07,14.3675 21.7175,15.0325 C22.365,15.6975 22.75,16.5725 22.75,17.5 C22.75,18.4275 22.3825,19.32 21.7175,19.9675 C21.07,20.6325 20.1775,21 19.25,21 C18.3225,21 17.43,20.6325 16.7825,19.9675 C15.4175,18.6025 15.4175,16.38 16.7825,15.015 C17.43,14.3675 18.3225,14 19.25,14 L19.25,14 Z M19.25,12.25 C17.9025,12.25 16.555,12.7575 15.54,13.79 C13.4925,15.8375 13.4925,19.1625 15.54,21.21 C16.555,22.2425 17.9025,22.75 19.25,22.75 C20.5975,22.75 21.945,22.2425 22.96,21.21 C25.0075,19.1625 25.0075,15.8375 22.96,13.79 C21.945,12.7575 20.5975,12.25 19.25,12.25 L19.25,12.25 Z" id="Shape" fill="#FFFFFF" fill-rule="nonzero"></path>
                    <polygon id="Path" fill="#FFFFFF" fill-rule="nonzero" points="27.895 29.7675 19.0925 22.4875 20.195 21.14 27.7725 27.405 28.8925 26.285 22.68 18.655 24.045 17.5525 31.255 26.4075"></polygon>
                    <path d="M34.09,31.745 C34.0725,31.745 34.0725,31.745 34.055,31.745 C32.0075,31.7275 30.52,30.24 30.4675,30.17 L28.385,28.0875 L29.6275,26.845 L31.71,28.9275 C31.7275,28.945 32.76,29.9775 34.09,29.9775 C34.09,29.9775 34.09,29.9775 34.09,29.9775 C34.8425,29.9775 35.595,29.6275 36.2775,28.9275 C39.0425,26.1625 41.86,27.09 42.945,27.965 L41.86,29.33 C41.6675,29.1725 39.795,27.8775 37.52,30.1525 C36.47,31.22 35.315,31.745 34.09,31.745 Z" id="Path" fill="#FFFFFF" fill-rule="nonzero"></path>
                    <path d="M27.965,38.4125 C20.4225,38.4125 14.77,39.5675 12.25,40.1975 L12.25,42 C14.4025,41.44 20.195,40.1625 27.965,40.1625 C35.805,40.1625 41.6325,41.4575 43.75,42.0175 L43.75,40.215 C41.2475,39.5675 35.5775,38.4125 27.965,38.4125 Z" id="Path" fill="#FFFFFF" fill-rule="nonzero"></path>
                    <rect id="Rectangle" x="0" y="0" width="56" height="56"></rect>
                </g>
            </g>
        </g>
    </g>
</svg>