<?xml version="1.0" encoding="UTF-8"?>
<svg width="56px" height="56px" viewBox="0 0 56 56" version="1.1" xmlns="http://www.w3.org/2000/svg" xmlns:xlink="http://www.w3.org/1999/xlink">
    <!-- Generator: Sketch 58 (84663) - https://sketch.com -->
    <title>252-W56px</title>
    <desc>Created with Sketch.</desc>
    <g id="NEW_icons" stroke="none" stroke-width="1" fill="none" fill-rule="evenodd">
        <g id="icons_UD_new-Copy" transform="translate(-531.000000, -32145.000000)">
            <g id="252-W56px" transform="translate(531.000000, 32145.000000)">
                <circle id="Oval-Copy-1732" fill="#101828" cx="28" cy="28" r="28"></circle>
                <g id="252-B32px-Copy" transform="translate(8.000000, 8.000000)">
                    <rect id="Rectangle" x="0" y="0" width="40" height="40"></rect>
                    <path d="M28.0875,22.3125 C31.1875,22.3375 33.6875,24.8875 33.6625,27.9875 C33.6375,31.0875 31.0875,33.5875 27.9875,33.5625 C24.8875,33.5375 22.3875,30.9875 22.4125,27.8875 C22.4375,24.7875 24.9875,22.275 28.0875,22.3125 L28.0875,22.3125 Z M28.1,21.0625 C24.3,21.025 21.2,24.075 21.1625,27.875 C21.125,31.675 24.175,34.775 27.975,34.8125 C31.775,34.85 34.875,31.8 34.9125,28 C34.95,24.2 31.9,21.0875 28.1,21.0625 L28.1,21.0625 Z" id="Shape" fill="#FFFFFF" fill-rule="nonzero"></path>
                    <path d="M28.7125,22.3125 L27.4625,22.3 C26.425,22.2875 25.6,21.4375 25.6,20.4125 C25.6125,19.375 26.4625,18.55 27.4875,18.55 L28.7375,18.5625 C29.775,18.575 30.6,19.425 30.6,20.45 C30.6,21.4875 29.75,22.325 28.7125,22.3125 Z M27.4875,19.8 C27.1375,19.8 26.8625,20.075 26.8625,20.425 C26.8625,20.775 27.1375,21.05 27.4875,21.05 L28.7375,21.0625 C29.0875,21.0625 29.3625,20.7875 29.3625,20.4375 C29.3625,20.0875 29.0875,19.8125 28.7375,19.8125 L27.4875,19.8 Z" id="Shape" fill="#FFFFFF" fill-rule="nonzero"></path>
                    <path d="M28.7125,22.3125 L27.4625,22.3 C26.425,22.2875 25.6,21.4375 25.6,20.4125 C25.6125,19.375 26.4625,18.55 27.4875,18.55 L28.7375,18.5625 C29.775,18.575 30.6,19.425 30.6,20.45 C30.6,21.4875 29.75,22.325 28.7125,22.3125 Z M27.4875,19.8 C27.1375,19.8 26.8625,20.075 26.8625,20.425 C26.8625,20.775 27.1375,21.05 27.4875,21.05 L28.7375,21.0625 C29.0875,21.0625 29.3625,20.7875 29.3625,20.4375 C29.3625,20.0875 29.0875,19.8125 28.7375,19.8125 L27.4875,19.8 Z" id="Shape" fill="#FFFFFF" fill-rule="nonzero"></path>
                    <polygon id="Rectangle" fill="#FFFFFF" fill-rule="nonzero" transform="translate(29.298764, 27.943554) rotate(-89.470785) translate(-29.298764, -27.943554) " points="28.673737 26.0684735 29.9237903 26.0684735 29.9237903 29.8186335 28.673737 29.8186335"></polygon>
                    <polygon id="Rectangle" fill="#FFFFFF" fill-rule="nonzero" transform="translate(28.066038, 26.289255) rotate(-89.536566) translate(-28.066038, -26.289255) " points="26.5847393 25.6642345 29.5473362 25.6642345 29.5473362 26.9142754 26.5847393 26.9142754"></polygon>
                    <path d="M24.125,20.9125 C24.125,20.9125 25,20.05 25.0125,20.025 L24.225,19.2 C23.9625,18.925 23.6125,18.7875 23.2625,18.7875 C22.925,18.7875 22.575,18.9125 22.3125,19.1625 L20.1125,21.2625 C20.1125,21.2625 17.4375,20.05 15.95,18.475 C14.4625,16.9 13.375,14.175 13.375,14.175 L15.575,12.075 C16.125,11.5625 16.15,10.7 15.6375,10.1625 L10.7375,5.0375 C10.475,4.7625 10.125,4.625 9.775,4.625 C9.4375,4.625 9.0875,4.75 8.825,5 L5.5125,8.1375 C5.2,8.4375 5.05,8.875 5.1,9.3125 C5.8125,15.8375 11.9375,22.275 11.9375,22.275 C11.9375,22.275 15.4125,25.9125 19.9375,28.175 C19.9375,28.0625 19.925,27.9625 19.925,27.85 C19.925,27.5 19.9625,27.15 20.0125,26.8 C15.9875,24.6625 12.8875,21.45 12.85,21.4 C12.7875,21.3375 7.0125,15.175 6.35,9.1625 C6.35,9.125 6.35,9.0625 6.3875,9.025 L9.6875,5.8875 C9.7,5.8875 9.725,5.875 9.7625,5.875 C9.8,5.875 9.825,5.9 9.825,5.9 L14.7125,11.0375 C14.75,11.075 14.7375,11.15 14.7,11.1875 L12.5,13.2875 L11.8875,13.8625 L12.2,14.65 C12.25,14.775 13.3875,17.625 15.025,19.3625 C16.675,21.1 19.4625,22.375 19.5875,22.425 L20.35,22.775 L20.9625,22.2 L23.1625,20.1 C23.1875,20.075 23.2125,20.0625 23.25,20.0625 C23.2875,20.0625 23.3125,20.0875 23.3125,20.0875 L24.125,20.9125 Z" id="Path" fill="#FFFFFF" fill-rule="nonzero"></path>
                </g>
            </g>
        </g>
    </g>
</svg>