<?xml version="1.0" encoding="UTF-8"?>
<svg width="42px" height="42px" viewBox="0 0 42 42" version="1.1" xmlns="http://www.w3.org/2000/svg" xmlns:xlink="http://www.w3.org/1999/xlink">
    <!-- Generator: Sketch 57.1 (83088) - https://sketch.com -->
    <title>217-G40px</title>
    <desc>Created with Sketch.</desc>
    <g id="NEW_icons" stroke="none" stroke-width="1" fill="none" fill-rule="evenodd">
        <g id="icons_UD_new-Copy" transform="translate(-1526.000000, -27634.000000)">
            <g id="217-G40px" transform="translate(1527.000000, 27635.000000)">
                <circle id="Oval-Copy-1397" stroke="#E3E8EC" cx="20" cy="20" r="20"></circle>
                <g id="217-B32px-Copy" transform="translate(4.000000, 4.000000)">
                    <rect id="Rectangle" fill="#101828" fill-rule="nonzero" x="21" y="12" width="1" height="7"></rect>
                    <rect id="Rectangle" fill="#101828" fill-rule="nonzero" x="19" y="13" width="1" height="6"></rect>
                    <rect id="Rectangle" fill="#101828" fill-rule="nonzero" x="17" y="14" width="1" height="5"></rect>
                    <rect id="Rectangle" fill="#101828" fill-rule="nonzero" x="13" y="16" width="1" height="3"></rect>
                    <rect id="Rectangle" fill="#101828" fill-rule="nonzero" x="15" y="15" width="1" height="4"></rect>
                    <rect id="Rectangle" fill="#101828" fill-rule="nonzero" x="11" y="18" width="13" height="1"></rect>
                    <rect id="Rectangle" fill="#101828" fill-rule="nonzero" transform="translate(11.286746, 12.759235) rotate(-45.474044) translate(-11.286746, -12.759235) " x="8.13189137" y="12.2592585" width="6.30970926" height="1"></rect>
                    <polygon id="Path" fill="#101828" fill-rule="nonzero" points="14 13 13 13 13 11.01 11 11.01 11 10.01 14 10.01"></polygon>
                    <path d="M27.01,7 L4.99,7 C4.44,7 4,7.44 4,7.99 L4,19 L4.99,19 L4.99,8 L27,8 L27.01,21 L10.27,21 C9.88,21 9.49,21.12 9.17,21.34 L6.66,23.02 L4,24.83 L4,26 L9.72,22.17 C9.89,22.06 10.08,22 10.27,22 L27.01,22 C27.55,22 28,21.56 28,21.01 L28,7.99 C28,7.44 27.56,7 27.01,7 Z" id="Path" fill="#101828" fill-rule="nonzero"></path>
                    <rect id="Rectangle" x="0" y="0" width="32" height="32"></rect>
                </g>
            </g>
        </g>
    </g>
</svg>