<?xml version="1.0" encoding="UTF-8"?>
<svg width="80px" height="80px" viewBox="0 0 80 80" version="1.1" xmlns="http://www.w3.org/2000/svg" xmlns:xlink="http://www.w3.org/1999/xlink">
    <!-- Generator: Sketch 57.1 (83088) - https://sketch.com -->
    <title>073-G80px</title>
    <desc>Created with Sketch.</desc>
    <g id="NEW_icons" stroke="none" stroke-width="1" fill="none" fill-rule="evenodd">
        <g id="icons_UD_new-Copy" transform="translate(-2051.000000, -9512.000000)">
            <g id="073-G80px" transform="translate(2051.000000, 9512.000000)">
                <circle id="Oval-Copy-475" fill="#E3E8EC" cx="40" cy="40" r="40"></circle>
                <g id="073-B32px-Copy-9" transform="translate(12.000000, 12.000000)">
                    <path d="M24.5,45.5 C24.9725,45.5 25.375,45.115 25.375,44.625 C25.375,44.135 24.9725,43.75 24.5,43.75 C24.0275,43.75 23.625,44.135 23.625,44.625 C23.625,45.115 24.0275,45.5 24.5,45.5" id="Path" fill="#101828" fill-rule="nonzero"></path>
                    <path d="M37.625,45.5 C37.3275,45.5 37.0475,45.4825 36.75,45.4475 L36.75,47.145 C36.75,47.1975 36.715,47.2325 36.6625,47.2325 L12.3375,47.2325 C12.285,47.25 12.25,47.215 12.25,47.1625 L12.25,42 L29.435,42 C28.9275,41.4575 28.455,40.88 28.0525,40.25 L12.25,40.25 L12.25,8.8375 C12.25,8.785 12.285,8.75 12.3375,8.75 L36.6625,8.75 C36.715,8.75 36.75,8.785 36.75,8.8375 L36.75,22.785 C37.0475,22.7675 37.3275,22.7325 37.625,22.7325 C37.9225,22.7325 38.2025,22.75 38.5,22.785 L38.5,8.8375 C38.5,7.8225 37.6775,7 36.6625,7 L12.3375,7 C11.3225,7 10.5,7.8225 10.5,8.8375 L10.5,40.25 L10.5,42 L10.5,47.1625 C10.5,48.1775 11.3225,49 12.3375,49 L36.6625,49 C37.6775,49 38.5,48.1775 38.5,47.1625 L38.5,45.465 C38.2025,45.4825 37.9225,45.5 37.625,45.5 Z" id="Path" fill="#101828" fill-rule="nonzero"></path>
                    <path d="M37.625,26.25 C41.965,26.25 45.5,29.785 45.5,34.125 C45.5,38.465 41.965,42 37.625,42 C33.285,42 29.75,38.465 29.75,34.125 C29.75,29.785 33.285,26.25 37.625,26.25 L37.625,26.25 Z M37.625,24.5 C32.305,24.5 28,28.805 28,34.125 C28,39.445 32.305,43.75 37.625,43.75 C42.945,43.75 47.25,39.445 47.25,34.125 C47.25,28.805 42.945,24.5 37.625,24.5 L37.625,24.5 Z" id="Shape" fill="#101828" fill-rule="nonzero"></path>
                    <polygon id="Path" fill="#101828" fill-rule="nonzero" points="41.1075 35 36.7325 35 36.7325 28.875 38.4825 28.875 38.4825 33.25 41.1075 33.25"></polygon>
                    <rect id="Rectangle" x="0" y="0" width="56" height="56"></rect>
                </g>
            </g>
        </g>
    </g>
</svg>