<?xml version="1.0" encoding="UTF-8"?>
<svg width="40px" height="40px" viewBox="0 0 40 40" version="1.1" xmlns="http://www.w3.org/2000/svg" xmlns:xlink="http://www.w3.org/1999/xlink">
    <!-- Generator: Sketch 57.1 (83088) - https://sketch.com -->
    <title>036-B40px</title>
    <desc>Created with Sketch.</desc>
    <g id="036-B40px" stroke="none" stroke-width="1" fill="none" fill-rule="evenodd">
        <g>
            <g id="Group" transform="translate(5.000000, 6.250000)" fill="#101828">
                <path d="M28.75,2.5 L16.25,2.5 L16.25,0 L0,2.5 L0,25 L16.25,27.5 L16.25,25 L28.75,25 C29.4375,25 30,24.4375 30,23.75 L30,3.75 C30,3.0625 29.4375,2.5 28.75,2.5 Z M9.6,18.4875 L8.2375,15.0125 L6.775,18.3 L4.9625,18.1625 L7.0375,13.6 L5.2,8.9375 L7.05,8.85 L8.2,12.05 L9.675,8.6375 L11.5875,8.5 L9.4125,13.575 L11.675,18.6 L9.6,18.4875 Z M28.75,23.75 L16.25,23.75 L16.25,22.5 L20,22.5 L20,20 L16.25,20 L16.25,18.75 L20,18.75 L20,16.25 L16.25,16.25 L16.25,15 L20,15 L20,12.5 L16.25,12.5 L16.25,11.25 L20,11.25 L20,8.75 L16.25,8.75 L16.25,7.5 L20,7.5 L20,5 L16.25,5 L16.25,3.75 L28.75,3.75 L28.75,23.75 Z" id="Shape"></path>
                <rect id="Rectangle" x="21.25" y="5" width="5" height="2.5"></rect>
                <rect id="Rectangle" x="21.25" y="8.75" width="5" height="2.5"></rect>
                <rect id="Rectangle" x="21.25" y="12.5" width="5" height="2.5"></rect>
                <rect id="Rectangle" x="21.25" y="16.25" width="5" height="2.5"></rect>
                <rect id="Rectangle" x="21.25" y="20" width="5" height="2.5"></rect>
            </g>
            <rect id="Rectangle" x="0" y="0" width="40" height="40"></rect>
        </g>
    </g>
</svg>