<?xml version="1.0" encoding="UTF-8"?>
<svg width="40px" height="40px" viewBox="0 0 40 40" version="1.1" xmlns="http://www.w3.org/2000/svg" xmlns:xlink="http://www.w3.org/1999/xlink">
    <!-- Generator: Sketch 57.1 (83088) - https://sketch.com -->
    <title>192-B40px</title>
    <desc>Created with Sketch.</desc>
    <g id="192-B40px" stroke="none" stroke-width="1" fill="none" fill-rule="evenodd">
        <g>
            <path d="M20,13.75 C23.1,13.75 25.625,16.275 25.625,19.375 C25.625,22.475 23.1,25 20,25 C16.9,25 14.375,22.475 14.375,19.375 C14.375,16.275 16.9,13.75 20,13.75 L20,13.75 Z M20,12.5 C16.2,12.5 13.125,15.575 13.125,19.375 C13.125,23.175 16.2,26.25 20,26.25 C23.8,26.25 26.875,23.175 26.875,19.375 C26.875,15.575 23.8,12.5 20,12.5 L20,12.5 Z" id="Shape" fill="#101828" fill-rule="nonzero"></path>
            <path d="M31.875,23.75 C32.9125,23.75 33.75,24.5875 33.75,25.625 L33.75,28.75 L30,28.75 L30,25.625 C30,24.5875 30.8375,23.75 31.875,23.75 L31.875,23.75 Z M31.875,22.5 C30.15,22.5 28.75,23.9 28.75,25.625 L28.75,30 L35,30 L35,25.625 C35,23.9 33.6,22.5 31.875,22.5 L31.875,22.5 Z" id="Shape" fill="#101828" fill-rule="nonzero"></path>
            <path d="M32.5,30 L32.5,32.5 L31.25,32.5 L31.25,30 L32.5,30 L32.5,30 Z M32.5,28.75 L31.25,28.75 C30.5625,28.75 30,29.3125 30,30 L30,32.5 C30,33.1875 30.5625,33.75 31.25,33.75 L32.5,33.75 C33.1875,33.75 33.75,33.1875 33.75,32.5 L33.75,30 C33.75,29.3125 33.1875,28.75 32.5,28.75 L32.5,28.75 Z" id="Shape" fill="#101828" fill-rule="nonzero"></path>
            <polygon id="Path" fill="#101828" fill-rule="nonzero" points="32.5 23.05 31.25 23.05 31.25 20 25.625 20 25.625 18.75 32.5 18.75"></polygon>
            <path d="M10,10 L10,13.125 C10,14.1625 9.1625,15 8.125,15 C7.0875,15 6.25,14.1625 6.25,13.125 L6.25,10 L10,10 L10,10 Z M11.25,8.75 L5,8.75 L5,13.125 C5,14.85 6.4,16.25 8.125,16.25 C9.85,16.25 11.25,14.85 11.25,13.125 L11.25,8.75 L11.25,8.75 Z" id="Shape" fill="#101828" fill-rule="nonzero"></path>
            <path d="M8.75,6.25 L8.75,8.75 L7.5,8.75 L7.5,6.25 L8.75,6.25 L8.75,6.25 Z M8.75,5 L7.5,5 C6.8125,5 6.25,5.5625 6.25,6.25 L6.25,8.75 C6.25,9.4375 6.8125,10 7.5,10 L8.75,10 C9.4375,10 10,9.4375 10,8.75 L10,6.25 C10,5.5625 9.4375,5 8.75,5 L8.75,5 Z" id="Shape" fill="#101828" fill-rule="nonzero"></path>
            <polygon id="Path" fill="#101828" fill-rule="nonzero" points="14.375 20 7.5 20 7.5 15 8.75 15 8.75 18.75 14.375 18.75"></polygon>
            <path d="M20,13.75 C23.1,13.75 25.625,16.275 25.625,19.375 C25.625,22.475 23.1,25 20,25 C16.9,25 14.375,22.475 14.375,19.375 C14.375,16.275 16.9,13.75 20,13.75 L20,13.75 Z M20,12.5 C16.2,12.5 13.125,15.575 13.125,19.375 C13.125,23.175 16.2,26.25 20,26.25 C23.8,26.25 26.875,23.175 26.875,19.375 C26.875,15.575 23.8,12.5 20,12.5 L20,12.5 Z" id="Shape" fill="#101828" fill-rule="nonzero"></path>
            <polygon id="Path" fill="#101828" fill-rule="nonzero" points="19.425 21.975 17.0375 19.375 17.9625 18.5375 19.425 20.125 22.0375 17.275 22.9625 18.125"></polygon>
            <rect id="Rectangle" x="0" y="0" width="40" height="40"></rect>
        </g>
    </g>
</svg>