<?xml version="1.0" encoding="UTF-8"?>
<svg width="32px" height="32px" viewBox="0 0 32 32" version="1.1" xmlns="http://www.w3.org/2000/svg" xmlns:xlink="http://www.w3.org/1999/xlink">
    <!-- Generator: Sketch 57.1 (83088) - https://sketch.com -->
    <title>245-B32px</title>
    <desc>Created with Sketch.</desc>
    <g id="245-B32px" stroke="none" stroke-width="1" fill="none" fill-rule="evenodd">
        <g>
            <g id="Group" transform="translate(6.000000, 4.000000)" fill="#101828" fill-rule="nonzero">
                <path d="M18,24.25 L2,24.25 C1.17,24.25 0.5,23.58 0.5,22.75 L0.5,20.25 L3.5,20.25 L3.5,21.25 L4.5,21.25 L4.5,20.25 L7.5,20.25 L7.5,21.25 L8.5,21.25 L8.5,20.25 L11.5,20.25 L11.5,21.25 L12.5,21.25 L12.5,20.25 L15.5,20.25 L15.5,21.25 L16.5,21.25 L16.5,20.25 L19.5,20.25 L19.5,22.75 C19.5,23.58 18.83,24.25 18,24.25 Z M1.5,21.25 L1.5,22.75 C1.5,23.03 1.72,23.25 2,23.25 L18,23.25 C18.28,23.25 18.5,23.03 18.5,22.75 L18.5,21.25 L17.5,21.25 L17.5,22.25 L14.5,22.25 L14.5,21.25 L13.5,21.25 L13.5,22.25 L10.5,22.25 L10.5,21.25 L9.5,21.25 L9.5,22.25 L6.5,22.25 L6.5,21.25 L5.5,21.25 L5.5,22.25 L2.5,22.25 L2.5,21.25 L1.5,21.25 Z" id="Shape"></path>
                <path d="M7.76,1.45 C8.95,1.79 11.06,2.63 12.29,4.44 L13.66,6.45 L14.04,4.39 C15.39,5.74 17.13,8.13 17.03,11.42 C16.94,14.13 15.81,16.01 14.69,17.22 C14.97,14.76 14.72,10.92 11.59,7.35 L10.03,5.57 L9.84,7.93 C9.84,7.94 9.77,8.75 9.54,9.77 C9.51,9.72 9.48,9.67 9.46,9.62 L7.83,6.83 L7.6,10.05 C7.56,10.6 7.33,12.22 6.7,13.11 L6.54,13.33 C6.02,14.04 5.32,15.02 5.34,16.83 C5.34,16.95 5.35,17.07 5.35,17.19 C4.21,16.1 3.51,14.98 3.21,13.79 C2.63,11.5 3.59,9.88 4.91,7.64 C5.86,6.03 7.01,4.07 7.76,1.45 L7.76,1.45 Z M7.03,0.25 C5.48,7.02 1.03,9.25 2.24,14.03 C2.82,16.32 4.55,17.98 6.19,19.18 C6.25,19.23 6.32,19.25 6.39,19.25 C6.62,19.25 6.82,18.99 6.7,18.71 C6.5,18.21 6.35,17.58 6.34,16.81 C6.32,15.16 7.01,14.4 7.51,13.69 C8.43,12.37 8.59,10.13 8.59,10.13 C9.14,11.06 9.17,12.02 9.09,12.72 C9.07,12.87 9.18,12.97 9.29,12.97 C9.35,12.97 9.41,12.94 9.45,12.87 C10.61,10.86 10.84,8.02 10.84,8.02 C14.51,12.21 13.92,16.73 13.4,18.73 C13.33,19.02 13.54,19.26 13.78,19.26 C13.85,19.26 13.93,19.24 13.99,19.19 C15.39,18.16 17.89,15.73 18.03,11.46 C18.22,5.51 13.04,2.27 13.04,2.27 C13.25,3.22 13.12,3.89 13.12,3.89 C11.08,0.88 7.03,0.25 7.03,0.25 L7.03,0.25 Z" id="Shape"></path>
            </g>
            <rect id="Rectangle" x="0" y="0" width="32" height="32"></rect>
        </g>
    </g>
</svg>