<?xml version="1.0" encoding="UTF-8"?>
<svg width="32px" height="32px" viewBox="0 0 32 32" version="1.1" xmlns="http://www.w3.org/2000/svg" xmlns:xlink="http://www.w3.org/1999/xlink">
    <!-- Generator: Sketch 57.1 (83088) - https://sketch.com -->
    <title>167-B32px</title>
    <desc>Created with Sketch.</desc>
    <g id="167-B32px" stroke="none" stroke-width="1" fill="none" fill-rule="evenodd">
        <g>
            <path d="M15.98,21.94 C11.67,21.94 8.44,22.6 7,22.96 L7,23.99 C8.24,23.67 11.54,22.94 15.98,22.94 C20.46,22.94 23.79,23.68 25,24 L25,22.97 C23.57,22.61 20.33,21.94 15.98,21.94 Z" id="Path" fill="#101828" fill-rule="nonzero"></path>
            <path d="M26.98,8.98 L24,8.98 L24,9.98 L26.98,9.98 L27,10 L26.98,21 L5,20.98 L5.02,9.98 L8,9.98 L8,8.98 L5.02,8.98 C4.46,8.98 4,9.44 4,10 L4,20.98 C4,21.54 4.46,22 5.02,22 L26.98,22 C27.54,22 28,21.54 28,20.98 L28,10 C28,9.44 27.54,8.98 26.98,8.98 Z" id="Path" fill="#101828" fill-rule="nonzero"></path>
            <path d="M17.99,17.99 L17.99,17.99 L18,18.99 L14,18.99 L14,17.99 L17.99,17.99 L17.99,17.99 Z M17.99,16.99 L14.01,16.99 C13.45,16.99 13,17.44 13,18 L13,19.99 L19,19.99 L19,18 C19,17.44 18.55,16.99 17.99,16.99 L17.99,16.99 Z" id="Shape" fill="#101828" fill-rule="nonzero"></path>
            <rect id="Rectangle" fill="#101828" fill-rule="nonzero" x="15.5" y="14.99" width="1" height="2"></rect>
            <g id="Group" transform="translate(10.000000, 8.000000)" fill="#101828" fill-rule="nonzero">
                <path d="M11.93,1 L9.99,1 C9.97,1.3 9.93,1.64 9.86,2 L11,2 L11,4 C11,4.55 10.56,4.99 10.01,4.99 L8.92,4.99 C8.77,5.34 8.6,5.67 8.42,5.99 L10.02,5.99 C11.12,5.99 12.01,5.1 12.01,4 L12.01,1.07 C12,1.03 11.97,1 11.93,1 Z" id="Path"></path>
                <path d="M3.21,4.99 L2,4.99 C1.45,4.99 1,4.54 1,3.99 L1,1.99 L2.27,1.99 C2.2,1.63 2.16,1.29 2.14,0.99 L0.07,0.99 C0.03,1 0,1.03 0,1.07 L0,4 C0,5.1 0.9,6 2,6 L3.71,6 C3.53,5.68 3.37,5.34 3.21,4.99 Z" id="Path"></path>
            </g>
            <path d="M18.86,8 C18.94,8 19,8.06 19,8.12 L19,9.81 C19,11.78 17.32,14.99 16,14.99 C14.68,14.99 13,11.78 13,9.81 L13,8.12 C13,8.06 13.07,8 13.14,8 L18.86,8 L18.86,8 Z M18.86,7 L13.14,7 C12.51,7 12,7.5 12,8.12 L12,9.81 C12,11.98 13.79,15.99 16,15.99 C18.21,15.99 20,11.98 20,9.81 L20,8.12 C20,7.5 19.49,7 18.86,7 L18.86,7 Z" id="Shape" fill="#101828" fill-rule="nonzero"></path>
            <rect id="Rectangle" fill="#101828" fill-rule="nonzero" x="12" y="19" width="8" height="1"></rect>
            <rect id="Rectangle" x="0" y="0" width="32" height="32"></rect>
        </g>
    </g>
</svg>