<?xml version="1.0" encoding="UTF-8"?>
<svg width="56px" height="56px" viewBox="0 0 56 56" version="1.1" xmlns="http://www.w3.org/2000/svg" xmlns:xlink="http://www.w3.org/1999/xlink">
    <!-- Generator: Sketch 57.1 (83088) - https://sketch.com -->
    <title>178-B56px</title>
    <desc>Created with Sketch.</desc>
    <g id="178-B56px" stroke="none" stroke-width="1" fill="none" fill-rule="evenodd">
        <g>
            <g id="Group" transform="translate(7.000000, 12.250000)" fill="#101828" fill-rule="nonzero">
                <path d="M1.7325,1.75 L26.25,1.75 L26.25,0 L1.7325,0 C0.7875,0 0,0.77 0,1.7325 L0,24.5 C0,25.4625 0.7875,26.25 1.7325,26.25 L29.75,26.25 L29.75,24.5 L1.75,24.5 L1.75,21 L29.75,21 L29.75,19.25 L1.75,19.25 L1.7325,1.75 Z" id="Path"></path>
                <rect id="Rectangle" x="35" y="19.25" width="5.25" height="1.75"></rect>
                <path d="M40.2675,0 L38.5,0 L38.5,1.75 L40.25,1.75 L40.2675,24.5 L35,24.5 L35,26.25 L40.2675,26.25 C41.2125,26.25 42,25.4625 42,24.5 L42,1.7325 C42,0.77 41.2125,0 40.2675,0 Z" id="Path"></path>
            </g>
            <polygon id="Path" fill="#101828" fill-rule="nonzero" points="31.5 38.5 29.75 38.5 29.75 42 26.25 42 26.25 38.5 24.5 38.5 24.5 42 21.035 42 21.035 43.75 24.5 43.75 26.25 43.75 29.75 43.75 31.5 43.75 35 43.75 35 42 31.5 42"></polygon>
            <path d="M28,34.125 C27.5275,34.125 27.125,34.51 27.125,35 C27.125,35.49 27.51,35.875 28,35.875 C28.4725,35.875 28.875,35.49 28.875,35 C28.875,34.51 28.4725,34.125 28,34.125 Z" id="Path" fill="#101828" fill-rule="nonzero"></path>
            <rect id="Rectangle" fill="#101828" fill-rule="nonzero" x="38.5" y="21" width="1.75" height="28"></rect>
            <path d="M42,14 L42,18.375 C42,19.8275 40.8275,21 39.375,21 C37.9225,21 36.75,19.8275 36.75,18.375 L36.75,14 L42,14 L42,14 Z M43.75,12.25 L35,12.25 L35,18.375 C35,20.79 36.96,22.75 39.375,22.75 C41.79,22.75 43.75,20.79 43.75,18.375 L43.75,12.25 L43.75,12.25 Z" id="Shape" fill="#101828" fill-rule="nonzero"></path>
            <path d="M40.25,8.75 L40.25,12.25 L38.5,12.25 L38.5,8.75 L40.25,8.75 L40.25,8.75 Z M40.25,7 L38.5,7 C37.5375,7 36.75,7.7875 36.75,8.75 L36.75,12.25 C36.75,13.2125 37.5375,14 38.5,14 L40.25,14 C41.2125,14 42,13.2125 42,12.25 L42,8.75 C42,7.7875 41.2125,7 40.25,7 L40.25,7 Z" id="Shape" fill="#101828" fill-rule="nonzero"></path>
            <rect id="Rectangle" x="0" y="0" width="56" height="56"></rect>
        </g>
    </g>
</svg>