<?xml version="1.0" encoding="UTF-8"?>
<svg width="42px" height="42px" viewBox="0 0 42 42" version="1.1" xmlns="http://www.w3.org/2000/svg" xmlns:xlink="http://www.w3.org/1999/xlink">
    <!-- Generator: Sketch 57.1 (83088) - https://sketch.com -->
    <title>154-G40px</title>
    <desc>Created with Sketch.</desc>
    <g id="NEW_icons" stroke="none" stroke-width="1" fill="none" fill-rule="evenodd">
        <g id="icons_UD_new-Copy" transform="translate(-244.000000, -19845.000000)">
            <g id="154-G40px" transform="translate(245.000000, 19846.000000)">
                <circle id="Oval-Copy-921" stroke="#E3E8EC" cx="20" cy="20" r="20"></circle>
                <g id="154-B32px-Copy" transform="translate(4.000000, 4.000000)">
                    <path d="M21.53,11 L21.53,13 L5.53,13 L5.53,11 L21.53,11 L21.53,11 Z M22.53,10 L4.53,10 L4.53,14 L22.53,14 L22.53,10 L22.53,10 Z" id="Shape" fill="#101828" fill-rule="nonzero"></path>
                    <path d="M20.69,5 L21.06,6.96 L5.34,9.9 L4.97,7.94 L20.69,5 L20.69,5 L20.69,5 Z M20.69,4 C20.63,4 20.57,4.01 20.5,4.02 L4.78,6.96 C4.24,7.06 3.88,7.58 3.98,8.12 L4.53,11.06 L22.22,7.75 L21.67,4.81 C21.59,4.33 21.17,4 20.69,4 L20.69,4 Z" id="Shape" fill="#101828" fill-rule="nonzero"></path>
                    <rect id="Rectangle" fill="#101828" fill-rule="nonzero" transform="translate(7.113746, 8.553837) rotate(-55.502690) translate(-7.113746, -8.553837) " x="4.99862481" y="8.05380835" width="4.23024237" height="1.0000573"></rect>
                    <rect id="Rectangle" fill="#101828" fill-rule="nonzero" transform="translate(11.051132, 7.817445) rotate(-55.598003) translate(-11.051132, -7.817445) " x="8.93111609" y="7.31744125" width="4.24003182" height="1.0000075"></rect>
                    <rect id="Rectangle" fill="#101828" fill-rule="nonzero" transform="translate(14.979608, 7.080296) rotate(-55.502690) translate(-14.979608, -7.080296) " x="12.8594865" y="6.58026735" width="4.24024295" height="1.0000573"></rect>
                    <rect id="Rectangle" fill="#101828" fill-rule="nonzero" transform="translate(18.914794, 6.349118) rotate(-55.502690) translate(-18.914794, -6.349118) " x="16.7946725" y="5.84908935" width="4.24024295" height="1.0000573"></rect>
                    <polygon id="Path" fill="#101828" fill-rule="nonzero" points="6.38 13.89 5.67 13.18 8.67 10.19 9.38 10.9"></polygon>
                    <polygon id="Path" fill="#101828" fill-rule="nonzero" points="10.38 13.89 9.67 13.18 12.67 10.19 13.38 10.9"></polygon>
                    <polygon id="Path" fill="#101828" fill-rule="nonzero" points="14.38 13.89 13.67 13.18 16.67 10.19 17.38 10.9"></polygon>
                    <polygon id="Path" fill="#101828" fill-rule="nonzero" points="18.38 13.89 17.67 13.18 20.67 10.19 21.38 10.9"></polygon>
                    <path d="M21.6,16 L21.83,16.88 L21.98,17.44 L22.54,17.59 C22.89,17.68 23.22,17.82 23.53,18 L24.03,18.29 L24.53,18 L25.31,17.55 L25.45,17.69 L25,18.47 L24.71,18.97 L25,19.47 C25.18,19.78 25.32,20.11 25.41,20.46 L25.56,21.02 L26.12,21.17 L27,21.4 L27,21.6 L26.13,21.83 L25.57,21.98 L25.42,22.54 C25.33,22.89 25.19,23.23 25.01,23.54 L24.72,24.04 L25.01,24.54 L25.46,25.32 L25.32,25.46 L24.54,25.01 L24.04,24.72 L23.54,25.01 C23.23,25.19 22.9,25.33 22.54,25.42 L21.98,25.57 L21.83,26.13 L21.6,27 L21.4,27 L21.17,26.13 L21.02,25.57 L20.46,25.42 C20.11,25.33 19.78,25.19 19.47,25.01 L18.97,24.72 L18.47,25.01 L17.69,25.46 L17.55,25.32 L18,24.54 L18.29,24.04 L18,23.54 C17.82,23.23 17.68,22.9 17.59,22.55 L17.44,21.99 L16.88,21.84 L16,21.6 L16,21.4 L16.88,21.17 L17.44,21.02 L17.59,20.46 C17.68,20.11 17.82,19.78 18,19.47 L18.29,18.97 L18,18.47 L17.55,17.68 L17.69,17.54 L18.47,18 L18.97,18.29 L19.47,18 C19.78,17.82 20.11,17.68 20.46,17.59 L21.02,17.44 L21.17,16.88 L21.4,16 L21.6,16 L21.6,16 Z M21.89,15 L21.12,15 C20.84,15 20.59,15.19 20.51,15.47 L20.2,16.62 C19.76,16.74 19.35,16.91 18.97,17.13 L17.94,16.53 C17.84,16.47 17.73,16.45 17.63,16.45 C17.47,16.45 17.31,16.51 17.19,16.63 L16.65,17.17 C16.45,17.37 16.41,17.68 16.55,17.93 L17.15,18.96 C16.93,19.34 16.76,19.76 16.64,20.19 L15.49,20.5 C15.19,20.58 15,20.83 15,21.11 L15,21.88 C15,22.16 15.19,22.41 15.47,22.49 L16.62,22.8 C16.74,23.24 16.91,23.65 17.13,24.04 L16.53,25.07 C16.39,25.32 16.43,25.63 16.63,25.83 L17.17,26.37 C17.29,26.49 17.45,26.55 17.61,26.55 C17.72,26.55 17.83,26.52 17.92,26.47 L18.95,25.87 C19.33,26.09 19.75,26.27 20.19,26.38 L20.5,27.53 C20.57,27.8 20.82,28 21.11,28 L21.88,28 C22.16,28 22.41,27.81 22.49,27.53 L22.8,26.38 C23.24,26.26 23.66,26.09 24.04,25.87 L25.07,26.46 C25.17,26.52 25.28,26.54 25.38,26.54 C25.54,26.54 25.7,26.48 25.82,26.36 L26.36,25.82 C26.56,25.62 26.6,25.31 26.46,25.06 L25.87,24.03 C26.09,23.64 26.27,23.23 26.38,22.79 L27.53,22.48 C27.8,22.41 28,22.16 28,21.87 L28,21.1 C28,20.82 27.81,20.57 27.53,20.49 L26.38,20.18 C26.26,19.74 26.09,19.32 25.87,18.94 L26.47,17.91 C26.61,17.66 26.57,17.35 26.37,17.15 L25.83,16.61 C25.71,16.49 25.55,16.43 25.39,16.43 C25.28,16.43 25.17,16.46 25.08,16.51 L24.05,17.11 C23.67,16.89 23.25,16.72 22.81,16.6 L22.5,15.45 C22.42,15.19 22.17,15 21.89,15 L21.89,15 Z" id="Shape" fill="#101828" fill-rule="nonzero"></path>
                    <path d="M21.5,20 C22.33,20 23,20.68 23,21.52 C23,22.36 22.33,23.04 21.5,23.04 C20.67,23.04 20,22.36 20,21.52 C20,20.68 20.67,20 21.5,20 L21.5,20 Z M21.5,19 C20.12,19 19,20.13 19,21.52 C19,22.91 20.12,24.04 21.5,24.04 C22.88,24.04 24,22.91 24,21.52 C24,20.13 22.88,19 21.5,19 L21.5,19 Z" id="Shape" fill="#101828" fill-rule="nonzero"></path>
                    <path d="M14,21.94 L14,21.05 C14,21.04 14.01,21.02 14.01,21.01 L5.53,21.01 L5.53,11.04 L21.53,11.04 L21.53,14 L21.95,14 C21.97,14 21.99,14.01 22.01,14.01 L22.01,14 L22.54,14 L22.54,10.05 L4.54,10.05 L4.54,21.02 C4.54,21.57 4.99,22.02 5.54,22.02 L14.02,22.02 C14.01,21.99 14,21.97 14,21.94 Z" id="Path" fill="#101828" fill-rule="nonzero"></path>
                    <rect id="Rectangle" x="0" y="0" width="32" height="32"></rect>
                </g>
            </g>
        </g>
    </g>
</svg>