<?xml version="1.0" encoding="UTF-8"?>
<svg width="56px" height="56px" viewBox="0 0 56 56" version="1.1" xmlns="http://www.w3.org/2000/svg" xmlns:xlink="http://www.w3.org/1999/xlink">
    <!-- Generator: Sketch 57.1 (83088) - https://sketch.com -->
    <title>177-B56px</title>
    <desc>Created with Sketch.</desc>
    <g id="177-B56px" stroke="none" stroke-width="1" fill="none" fill-rule="evenodd">
        <g>
            <polygon id="Path" fill="#101828" fill-rule="nonzero" points="35 35 35 36.75 38.5 36.75 38.5 40.25 40.25 40.25 40.25 36.75 43.75 36.75 43.75 35 40.25 35 40.25 31.5 38.5 31.5 38.5 35"></polygon>
            <path d="M39.375,10.5 C40.8275,10.5 42,11.6725 42,13.125 C42,14.5775 40.8275,15.75 39.375,15.75 C37.9225,15.75 36.75,14.5775 36.75,13.125 C36.75,11.6725 37.9225,10.5 39.375,10.5 L39.375,10.5 Z M39.375,8.75 C36.96,8.75 35,10.71 35,13.125 C35,15.54 36.96,17.5 39.375,17.5 C41.79,17.5 43.75,15.54 43.75,13.125 C43.75,10.71 41.79,8.75 39.375,8.75 L39.375,8.75 Z" id="Shape" fill="#101828" fill-rule="nonzero"></path>
            <path d="M27.125,10.5 C28.5775,10.5 29.75,11.6725 29.75,13.125 C29.75,14.5775 28.5775,15.75 27.125,15.75 C25.6725,15.75 24.5,14.5775 24.5,13.125 C24.5,11.6725 25.6725,10.5 27.125,10.5 L27.125,10.5 Z M27.125,8.75 C24.71,8.75 22.75,10.71 22.75,13.125 C22.75,15.54 24.71,17.5 27.125,17.5 C29.54,17.5 31.5,15.54 31.5,13.125 C31.5,10.71 29.54,8.75 27.125,8.75 L27.125,8.75 Z" id="Shape" fill="#101828" fill-rule="nonzero"></path>
            <path d="M14.875,10.5 C16.3275,10.5 17.5,11.6725 17.5,13.125 C17.5,14.5775 16.3275,15.75 14.875,15.75 C13.4225,15.75 12.25,14.5775 12.25,13.125 C12.25,11.6725 13.4225,10.5 14.875,10.5 L14.875,10.5 Z M14.875,8.75 C12.46,8.75 10.5,10.71 10.5,13.125 C10.5,15.54 12.46,17.5 14.875,17.5 C17.29,17.5 19.25,15.54 19.25,13.125 C19.25,10.71 17.29,8.75 14.875,8.75 L14.875,8.75 Z" id="Shape" fill="#101828" fill-rule="nonzero"></path>
            <path d="M43.75,21 C44.7125,21 45.5,21.7875 45.5,22.75 L45.5,26.25 L47.25,26.25 L47.25,22.75 C47.25,20.825 45.675,19.25 43.75,19.25 L35.35,19.25 C35.805,19.7575 36.1725,20.3525 36.4175,21 L43.75,21 Z" id="Path" fill="#101828" fill-rule="nonzero"></path>
            <path d="M8.75,26.25 L8.75,22.75 C8.75,21.7875 9.5375,21 10.5,21 L19.25,21 C20.2125,21 21,21.7875 21,22.75 L21,26.25 L22.75,26.25 L22.75,22.75 C22.75,20.825 21.175,19.25 19.25,19.25 L10.5,19.25 C8.575,19.25 7,20.825 7,22.75 L7,26.25 L8.75,26.25 Z" id="Path" fill="#101828" fill-rule="nonzero"></path>
            <path d="M33.25,22.75 L33.25,26.25 L33.3375,26.25 C33.8625,25.9175 34.4225,25.62 35,25.375 L35,22.75 C35,20.825 33.425,19.25 31.5,19.25 L23.1,19.25 C23.555,19.7575 23.9225,20.3525 24.1675,21 L31.5,21 C32.4625,21 33.25,21.7875 33.25,22.75 Z" id="Path" fill="#101828" fill-rule="nonzero"></path>
            <path d="M39.375,28 C43.715,28 47.25,31.535 47.25,35.875 C47.25,40.215 43.715,43.75 39.375,43.75 C35.035,43.75 31.5,40.215 31.5,35.875 C31.5,31.535 35.035,28 39.375,28 L39.375,28 Z M39.375,26.25 C34.055,26.25 29.75,30.555 29.75,35.875 C29.75,41.195 34.055,45.5 39.375,45.5 C44.695,45.5 49,41.195 49,35.875 C49,30.555 44.695,26.25 39.375,26.25 L39.375,26.25 Z" id="Shape" fill="#101828" fill-rule="nonzero"></path>
            <polygon id="Path" fill="#101828" fill-rule="nonzero" points="35 35 35 36.75 38.5 36.75 38.5 40.25 40.25 40.25 40.25 36.75 43.75 36.75 43.75 35 40.25 35 40.25 31.5 38.5 31.5 38.5 35"></polygon>
            <rect id="Rectangle" x="0" y="0" width="56" height="56"></rect>
        </g>
    </g>
</svg>