<?xml version="1.0" encoding="UTF-8"?>
<svg width="56px" height="56px" viewBox="0 0 56 56" version="1.1" xmlns="http://www.w3.org/2000/svg" xmlns:xlink="http://www.w3.org/1999/xlink">
    <!-- Generator: Sketch 56.3 (81716) - https://sketch.com -->
    <title>031-W56px</title>
    <desc>Created with Sketch.</desc>
    <g id="NEW_icons" stroke="none" stroke-width="1" fill="none" fill-rule="evenodd">
        <g id="icons_UD_new-Copy" transform="translate(-1814.000000, -4116.000000)">
            <g id="031-W56px" transform="translate(1814.000000, 4116.000000)">
                <g transform="translate(8.000000, 8.000000)">
                    <g id="Group" transform="translate(10.000000, 5.000000)" fill="#FFFFFF" fill-rule="nonzero">
                        <path d="M18.6875,0 L1.3125,0 C0.5875,0 0,0.5875 0,1.3125 L0,23.75 L0,25 L0,28.6875 C0,29.4125 0.5875,30 1.3125,30 L18.6875,30 C19.4125,30 20,29.4125 20,28.6875 L20,25 L20,23.75 L20,1.3125 C20,0.5875 19.4125,0 18.6875,0 Z M18.75,28.6875 C18.75,28.725 18.725,28.75 18.6875,28.75 L1.3125,28.75 C1.275,28.75 1.25,28.725 1.25,28.6875 L1.25,25 L18.75,25 L18.75,28.6875 Z M1.25,23.75 L1.25,1.3125 C1.25,1.275 1.275,1.25 1.3125,1.25 L18.6875,1.25 C18.725,1.25 18.75,1.275 18.75,1.3125 L18.75,23.75 L1.25,23.75 Z" id="Shape"></path>
                        <path d="M10,27.4875 C10.3375,27.4875 10.625,27.2125 10.625,26.8625 C10.625,26.525 10.35,26.2375 10,26.2375 C9.65,26.2375 9.375,26.5125 9.375,26.8625 C9.375,27.2125 9.6625,27.4875 10,27.4875 Z" id="Path"></path>
                        <path d="M12.5125,20 L7.5,20.0125 L7.5,16.25 L6.25,16.25 L6.25,20.0125 C6.25,20.6875 6.8,21.25 7.4875,21.25 L12.525,21.25 C13.2,21.25 13.7625,20.7 13.7625,20.0125 L13.7625,16.25 L12.5125,16.25 L12.5125,20 Z" id="Path"></path>
                        <polygon id="Path" points="4.775 15.575 5.5625 16.5375 10 12.875 14.4375 16.5375 15.225 15.575 10 11.2625"></polygon>
                        <path d="M12.6,7.3125 C11.925,6.65 11.0125,6.25 10,6.25 C8.9625,6.25 8.025,6.675 7.35,7.35 L8.2375,8.2375 C8.6875,7.775 9.3125,7.5 10,7.5 C10.6625,7.5 11.275,7.7625 11.7125,8.1875 L12.6,7.3125 Z" id="Path"></path>
                        <path d="M9.1125,9.1125 L9.95,9.95 L10.825,9.075 C10.6125,8.875 10.325,8.75 10,8.75 C9.65,8.75 9.3375,8.8875 9.1125,9.1125 Z" id="Path"></path>
                        <path d="M10,5 C11.35,5 12.5875,5.55 13.4875,6.425 L14.375,5.5375 C13.2375,4.4375 11.7,3.75 10,3.75 C8.275,3.75 6.7125,4.45 5.575,5.575 L6.4625,6.4625 C7.375,5.5625 8.625,5 10,5 Z" id="Path"></path>
                    </g>
                    <rect id="Rectangle" x="0" y="0" width="40" height="40"></rect>
                </g>
                <circle id="Oval-Copy-269" fill="#101828" cx="28" cy="28" r="28"></circle>
                <g id="031-B32px-Copy-4" transform="translate(8.000000, 8.000000)">
                    <polygon id="Path" fill="#FFFFFF" fill-rule="nonzero" points="28.75 17.5 28.15 20.375 27.5 17.5 26.25 17.5 25.5875 20.375 25 17.5 25 17.5 23.75 17.5 24.95 22.375 24.9875 22.5 26.25 22.5 26.8625 19.6125 27.5 22.5 28.75 22.5 30 17.5 30 17.5"></polygon>
                    <polygon id="Path" fill="#FFFFFF" fill-rule="nonzero" points="21.875 17.5 21.275 20.375 20.625 17.5 19.375 17.5 18.7125 20.375 18.125 17.5 18.125 17.5 16.875 17.5 18.075 22.375 18.1125 22.5 19.375 22.5 19.9875 19.6125 20.625 22.5 21.875 22.5 23.125 17.5 23.125 17.5"></polygon>
                    <polygon id="Path" fill="#FFFFFF" fill-rule="nonzero" points="15 17.5 14.4 20.375 13.75 17.5 12.5 17.5 11.8375 20.375 11.25 17.5 11.25 17.5 10 17.5 11.2 22.375 11.2375 22.5 12.5 22.5 13.1125 19.6125 13.75 22.5 15 22.5 16.25 17.5 16.25 17.5"></polygon>
                    <path d="M20,5 C20,5 19.9875,5 19.9875,5 C19.9875,5 19.9875,5 19.975,5 C19.9625,5 19.95,5 19.9375,5 C11.6875,5.0375 5,11.7375 5,20 C5,28.2625 11.6875,34.9625 19.95,35 C19.9625,35 19.975,35 19.9875,35 C19.9875,35 19.9875,35 20,35 C20,35 20.0125,35 20.0125,35 C28.3,35 35.0125,28.2875 35.0125,20 C35.0125,11.7125 28.2875,5 20,5 Z M31.85,13.0625 L27.6875,13.0625 C26.9,10.4875 25.7,8.35 24.2375,6.925 C27.4625,7.975 30.1625,10.1875 31.85,13.0625 Z M20.625,6.3125 C23.0375,6.7125 25.1625,9.35 26.375,13.0625 L20.625,13.0625 L20.625,6.3125 Z M19.375,6.3125 L19.375,13.0625 L13.5875,13.0625 C14.8,9.325 16.9375,6.6875 19.375,6.3125 Z M15.6875,6.95 C14.225,8.375 13.0375,10.5 12.2625,13.0625 L8.15,13.0625 C9.825,10.2 12.5,8.0125 15.6875,6.95 Z M8.15,26.9375 L12.2625,26.9375 C13.0375,29.5 14.2375,31.625 15.6875,33.05 C12.5,31.9875 9.825,29.8 8.15,26.9375 Z M19.375,33.6875 C16.9375,33.3125 14.8,30.6625 13.5875,26.9375 L19.375,26.9375 L19.375,33.6875 Z M20.625,33.6875 L20.625,26.9375 L26.375,26.9375 C25.1625,30.65 23.0375,33.2875 20.625,33.6875 Z M24.2375,33.075 C25.7125,31.65 26.9125,29.5125 27.6875,26.9375 L31.85,26.9375 C30.1625,29.8125 27.4625,32.025 24.2375,33.075 Z M32.5,25.6875 L32.4375,25.6875 L28.025,25.6875 L26.725,25.6875 L20.625,25.6875 L19.375,25.6875 L13.225,25.6875 L11.925,25.6875 L7.5,25.6875 L7.5,25.6875 C6.7875,24.125 6.3625,22.425 6.2875,20.625 L8.75,20.625 L8.75,19.375 L6.2875,19.375 C6.375,17.575 6.7875,15.8625 7.5,14.3125 L7.5,14.3125 L11.925,14.3125 L13.225,14.3125 L19.375,14.3125 L20.625,14.3125 L26.7375,14.3125 L28.0375,14.3125 L32.45,14.3125 L32.5,14.3125 C33.2125,15.875 33.6375,17.575 33.7125,19.375 L31.25,19.375 L31.25,20.625 L33.7125,20.625 C33.6375,22.425 33.2125,24.1375 32.5,25.6875 Z" id="Shape" fill="#FFFFFF" fill-rule="nonzero"></path>
                    <rect id="Rectangle" x="0" y="0" width="40" height="40"></rect>
                </g>
            </g>
        </g>
    </g>
</svg>