<?xml version="1.0" encoding="UTF-8"?>
<svg width="32px" height="32px" viewBox="0 0 32 32" version="1.1" xmlns="http://www.w3.org/2000/svg" xmlns:xlink="http://www.w3.org/1999/xlink">
    <!-- Generator: Sketch 57.1 (83088) - https://sketch.com -->
    <title>135-B32px</title>
    <desc>Created with Sketch.</desc>
    <g id="135-B32px" stroke="none" stroke-width="1" fill="none" fill-rule="evenodd">
        <g>
            <path d="M20.5,12.93 C20.22,12.93 20,13.15 20,13.43 C20,13.71 20.22,13.93 20.5,13.93 C20.78,13.93 21,13.71 21,13.43 C21,13.15 20.78,12.93 20.5,12.93 L20.5,12.93 Z" id="Path" fill="#101828" fill-rule="nonzero"></path>
            <path d="M24.5,12.93 C24.22,12.93 24,13.15 24,13.43 C24,13.71 24.22,13.93 24.5,13.93 C24.78,13.93 25,13.71 25,13.43 C25,13.15 24.78,12.93 24.5,12.93 L24.5,12.93 Z" id="Path" fill="#101828" fill-rule="nonzero"></path>
            <path d="M7.5,12.93 C7.22,12.93 7,13.15 7,13.43 C7,13.71 7.22,13.93 7.5,13.93 C7.78,13.93 8,13.7 8,13.43 C8,13.16 7.78,12.93 7.5,12.93 L7.5,12.93 Z" id="Path" fill="#101828" fill-rule="nonzero"></path>
            <path d="M11.5,12.93 C11.22,12.93 11,13.15 11,13.43 C11,13.71 11.22,13.93 11.5,13.93 C11.78,13.93 12,13.71 12,13.43 C12,13.15 11.78,12.93 11.5,12.93 L11.5,12.93 Z" id="Path" fill="#101828" fill-rule="nonzero"></path>
            <path d="M20.1,16.05 C21.49,17.22 23.52,17.22 24.9,16.05 L24.3,15.25 C23.27,16.16 21.72,16.15 20.69,15.25 L20.1,16.05 Z" id="Path" fill="#101828" fill-rule="nonzero"></path>
            <path d="M7.1,16.05 C8.49,17.22 10.52,17.22 11.9,16.05 L11.3,15.25 C10.27,16.16 8.72,16.15 7.69,15.25 L7.1,16.05 Z" id="Path" fill="#101828" fill-rule="nonzero"></path>
            <g id="Group" transform="translate(7.000000, 6.000000)" fill="#101828" fill-rule="nonzero">
                <path d="M3,2.93 L2,2.93 C2,2.07 2.52,0.43 4.5,0.43 L4.5,1.43 C3.09,1.43 3,2.68 3,2.93 Z" id="Path"></path>
                <path d="M2,2.93 C2,2.68 1.91,1.43 0.5,1.43 L0.5,0.43 C2.48,0.43 3,2.07 3,2.93 L2,2.93 L2.5,2.93 L2,2.93 Z" id="Path"></path>
            </g>
            <path d="M22.5,7.93 C19.46,7.93 17,10.39 17,13.43 C17,14 17.09,14.54 17.25,15.06 C17.7,15.15 18.12,15.3 18.53,15.49 C18.2,14.86 18,14.17 18,13.43 C18,10.95 20.02,8.93 22.5,8.93 C24.98,8.93 27,10.95 27,13.43 C27,15.91 24.98,17.93 22.5,17.93 C21.99,17.93 21.5,17.83 21.04,17.67 C21.28,18.04 21.48,18.44 21.63,18.86 C21.91,18.9 22.2,18.93 22.5,18.93 C25.54,18.93 28,16.47 28,13.43 C28,10.39 25.54,7.93 22.5,7.93 Z" id="Path" fill="#101828" fill-rule="nonzero"></path>
            <path d="M10.96,17.66 C10.5,17.82 10.01,17.92 9.5,17.92 C7.02,17.92 5,15.9 5,13.42 C5,10.94 7.02,8.92 9.5,8.92 C11.98,8.92 14,10.94 14,13.42 C14,14.17 13.8,14.86 13.48,15.48 C13.88,15.29 14.31,15.15 14.76,15.05 C14.92,14.53 15.01,13.99 15.01,13.42 C15.01,10.38 12.55,7.92 9.51,7.92 C6.47,7.92 4,10.39 4,13.43 C4,16.47 6.46,18.93 9.5,18.93 C9.8,18.93 10.08,18.9 10.37,18.86 C10.52,18.43 10.72,18.03 10.96,17.66 Z" id="Path" fill="#101828" fill-rule="nonzero"></path>
            <path d="M16,16.95 C18.21,16.95 20,18.74 20,20.94 C20,23.14 18.21,24.93 16,24.93 C13.79,24.93 12,23.14 12,20.94 C12,18.74 13.79,16.95 16,16.95 L16,16.95 Z M16,15.95 C13.24,15.95 11,18.18 11,20.94 C11,23.7 13.24,25.93 16,25.93 C18.76,25.93 21,23.7 21,20.94 C21,18.18 18.76,15.95 16,15.95 L16,15.95 Z" id="Shape" fill="#101828" fill-rule="nonzero"></path>
            <path d="M17.9,23.36 L14.1,23.36 L13.15,19.95 L16,17.69 L18.84,19.96 L17.9,23.36 Z M14.86,22.36 L17.13,22.36 L17.7,20.32 L16,18.97 L14.3,20.33 L14.86,22.36 Z" id="Shape" fill="#101828" fill-rule="nonzero"></path>
            <rect id="Rectangle" fill="#101828" fill-rule="nonzero" x="15.5" y="16.1" width="1" height="2.4"></rect>
            <rect id="Rectangle" fill="#101828" fill-rule="nonzero" transform="translate(13.729520, 23.638535) rotate(-44.404414) translate(-13.729520, -23.638535) " x="12.4395539" y="23.1385481" width="2.57993221" height="1"></rect>
            <rect id="Rectangle" fill="#101828" fill-rule="nonzero" transform="translate(18.267538, 23.638016) rotate(-43.521022) translate(-18.267538, -23.638016) " x="17.767553" y="22.3930539" width="1" height="2.48992526"></rect>
            <rect id="Rectangle" fill="#101828" fill-rule="nonzero" transform="translate(12.733675, 19.777815) rotate(-67.975154) translate(-12.733675, -19.777815) " x="12.2336865" y="18.5528432" width="1" height="2.44994365"></rect>
            <rect id="Rectangle" fill="#101828" fill-rule="nonzero" transform="translate(19.367558, 19.770140) rotate(-21.759913) translate(-19.367558, -19.770140) " x="18.0576221" y="19.2701645" width="2.61987185" height="1"></rect>
            <polygon id="Path" fill="#101828" fill-rule="nonzero" points="14 11.93 9.29 11.93 8.5 11.13 7.71 11.93 5 11.93 5 10.93 7.29 10.93 8.5 9.72 9.71 10.93 14 10.93"></polygon>
            <polygon id="Path" fill="#101828" fill-rule="nonzero" points="27 11.93 22.29 11.93 21.5 11.13 20.71 11.93 18 11.93 18 10.93 20.29 10.93 21.5 9.72 22.71 10.93 27 10.93"></polygon>
            <polygon id="Path" fill="#101828" fill-rule="nonzero" points="20 9.34 19 9.34 19 5.73 22.65 6.92 22.34 7.87 20 7.1"></polygon>
            <polygon id="Path" fill="#101828" fill-rule="nonzero" points="25.99 9.34 24.99 9.34 24.99 7.1 22.66 7.87 22.34 6.92 25.99 5.73"></polygon>
            <rect id="Rectangle" fill="#101828" fill-rule="nonzero" x="22" y="6.93" width="1" height="1"></rect>
            <rect id="Rectangle" x="0" y="0" width="32" height="32"></rect>
        </g>
    </g>
</svg>