<?xml version="1.0" encoding="UTF-8"?>
<svg width="80px" height="80px" viewBox="0 0 80 80" version="1.1" xmlns="http://www.w3.org/2000/svg" xmlns:xlink="http://www.w3.org/1999/xlink">
    <!-- Generator: Sketch 57.1 (83088) - https://sketch.com -->
    <title>065-B80px</title>
    <desc>Created with Sketch.</desc>
    <g id="065-B80px" stroke="none" stroke-width="1" fill="none" fill-rule="evenodd">
        <g>
            <rect id="Rectangle" fill="#101828" fill-rule="nonzero" x="20" y="57.5" width="40" height="2.5"></rect>
            <path d="M40,65 C40.675,65 41.25,64.45 41.25,63.75 C41.25,63.05 40.675,62.5 40,62.5 C39.325,62.5 38.75,63.05 38.75,63.75 C38.75,64.45 39.325,65 40,65" id="Path" fill="#101828" fill-rule="nonzero"></path>
            <path d="M57.5,50 L57.5,67.375 C57.5,67.45 57.45,67.5 57.375,67.5 L22.625,67.5 C22.55,67.5 22.5,67.45 22.5,67.375 L22.5,35 L20,35 L20,67.375 C20,68.825 21.175,70 22.625,70 L57.375,70 C58.825,70 60,68.825 60,67.375 L60,50 L57.5,50 Z" id="Path" fill="#101828" fill-rule="nonzero"></path>
            <path d="M22.5,12.625 C22.5,12.55 22.55,12.5 22.625,12.5 L57.375,12.5 C57.45,12.5 57.5,12.55 57.5,12.625 L57.5,30 L60,30 L60,12.625 C60,11.175 58.825,10 57.375,10 L22.625,10 C21.175,10 20,11.175 20,12.625 L20,15 L22.5,15 L22.5,12.625 Z" id="Path" fill="#101828" fill-rule="nonzero"></path>
            <path d="M32.8,31.35 L31.425,30.425 L30.8,30 L30.05,30 L15,30 L15,20 L35,20 L35,27.5 L37.5,27.5 L37.5,20 C37.5,18.625 36.375,17.5 35,17.5 L15,17.5 C13.625,17.5 12.5,18.625 12.5,20 L12.5,30 C12.5,31.375 13.625,32.5 15,32.5 L30.05,32.5 L37.5,37.5 L37.5,35 L37.5,34.55 L32.8,31.35 Z" id="Path" fill="#101828" fill-rule="nonzero"></path>
            <path d="M65,32.5 L45,32.5 C43.625,32.5 42.5,33.625 42.5,35 L42.5,42.5 L45,42.5 L45,35 L65,35 L65,45 L49.95,45 L49.2,45 L48.575,45.425 L46.475,46.825 L42.5,49.55 L42.5,50 L42.5,52.5 L49.975,47.5 L65,47.5 C66.375,47.5 67.5,46.375 67.5,45 L67.5,35 C67.5,33.625 66.375,32.5 65,32.5 Z" id="Path" fill="#101828" fill-rule="nonzero"></path>
            <rect id="Rectangle" x="0" y="0" width="80" height="80"></rect>
        </g>
    </g>
</svg>