<?xml version="1.0" encoding="UTF-8"?>
<svg width="80px" height="80px" viewBox="0 0 80 80" version="1.1" xmlns="http://www.w3.org/2000/svg" xmlns:xlink="http://www.w3.org/1999/xlink">
    <!-- Generator: Sketch 57.1 (83088) - https://sketch.com -->
    <title>104-W80px</title>
    <desc>Created with Sketch.</desc>
    <g id="NEW_icons" stroke="none" stroke-width="1" fill="none" fill-rule="evenodd">
        <g id="icons_UD_new-Copy" transform="translate(-869.000000, -13532.000000)">
            <g id="104-W80px" transform="translate(869.000000, 13532.000000)">
                <circle id="Oval-Copy-612" fill="#101828" cx="40" cy="40" r="40"></circle>
                <g id="104-B32px-Copy-8" transform="translate(12.000000, 12.000000)">
                    <path d="M28,12.25 C32.83,12.25 36.75,16.17 36.75,21 C36.75,25.83 32.83,29.75 28,29.75 C23.17,29.75 19.25,25.83 19.25,21 C19.25,16.17 23.17,12.25 28,12.25 L28,12.25 Z M28,10.5 C22.2075,10.5 17.5,15.2075 17.5,21 C17.5,26.7925 22.2075,31.5 28,31.5 C33.7925,31.5 38.5,26.7925 38.5,21 C38.5,15.2075 33.7925,10.5 28,10.5 L28,10.5 Z" id="Shape" fill="#FFFFFF" fill-rule="nonzero"></path>
                    <path d="M17.4825,17.5 L17.4825,24.5 L16.625,24.5 C16.1175,24.5 15.75,24.185 15.75,23.9225 L15.75,18.095 C15.75,17.815 16.1175,17.5 16.625,17.5 L17.4825,17.5 L17.4825,17.5 Z M19.2325,15.75 L16.625,15.75 C15.1725,15.75 14,16.8 14,18.095 L14,23.9225 C14,25.2 15.1725,26.25 16.625,26.25 L19.25,26.25 L19.25,15.75 L19.2325,15.75 Z" id="Shape" fill="#FFFFFF" fill-rule="nonzero"></path>
                    <path d="M39.375,17.325 L37.625,17.325 L37.625,16.45 C37.625,15.3125 37.135,14.0875 36.155,12.7925 C34.2125,10.22 31.2375,8.75 28,8.75 C24.7625,8.75 21.7875,10.22 19.845,12.7925 C18.865,14.07 18.375,15.3125 18.375,16.45 L18.375,17.325 L16.625,17.325 L16.625,16.45 C16.625,14.9275 17.2375,13.335 18.445,11.7425 C20.72,8.7325 24.2025,7 28,7 C31.7975,7 35.28,8.7325 37.555,11.7425 C38.7625,13.335 39.375,14.9275 39.375,16.45 L39.375,17.325 Z" id="Path" fill="#FFFFFF" fill-rule="nonzero"></path>
                    <path d="M39.375,17.5 C39.8825,17.5 40.25,17.815 40.25,18.0775 L40.25,23.905 C40.25,24.185 39.865,24.5 39.3575,24.5 L38.5,24.5 L38.5,17.5 L39.375,17.5 L39.375,17.5 Z M39.375,15.75 L36.75,15.75 L36.75,26.25 L39.3575,26.25 C40.81,26.25 42,25.2 42,23.905 L42,18.0775 C42,16.8 40.8275,15.75 39.375,15.75 L39.375,15.75 Z" id="Shape" fill="#FFFFFF" fill-rule="nonzero"></path>
                    <path d="M31.885,38.5 L29.715,38.5 L29.715,36.75 L31.885,36.75 C35.665,36.75 37.625,31.465 37.625,26.25 L39.375,26.25 C39.375,32.1475 37.03,38.5 31.885,38.5 Z" id="Path" fill="#FFFFFF" fill-rule="nonzero"></path>
                    <path d="M31.2725,35 C31.36,35.14 31.4825,35.455 31.4825,35.875 C31.4825,36.295 31.36,36.5925 31.2725,36.75 L28.21,36.7325 C28.1225,36.5925 28,36.295 28,35.875 C28,35.455 28.1225,35.1575 28.21,35 L31.2725,35 L31.2725,35 Z M31.4825,33.25 L28,33.25 C27.0375,33.25 26.25,34.4225 26.25,35.875 L26.25,35.875 C26.25,37.31 27.0375,38.4825 28,38.5 L31.4825,38.5 C31.4825,38.5 31.4825,38.5 31.4825,38.5 C32.445,38.5 33.2325,37.3275 33.2325,35.875 L33.2325,35.875 C33.2325,34.4225 32.445,33.25 31.4825,33.25 L31.4825,33.25 Z" id="Shape" fill="#FFFFFF" fill-rule="nonzero"></path>
                    <path d="M42,42 L42,49 L43.75,49 L43.75,42 C43.75,38.745 41.51,36.0325 38.5,35.245 L38.5,37.065 C40.53,37.8 42,39.725 42,42 Z" id="Path" fill="#FFFFFF" fill-rule="nonzero"></path>
                    <path d="M21,36.75 L21,45.5 L8.75,45.5 L8.75,36.75 L17.535,36.75 L18.06,36.75 L18.4975,36.4525 L21,34.7725 L21,34.79 L22.75,33.635 L22.75,31.5 L17.5175,35 L8.75,35 C7.7875,35 7,35.7875 7,36.75 L7,45.5175 C7,46.48 7.7875,47.2675 8.75,47.2675 L21,47.2675 C21.9625,47.2675 22.75,46.48 22.75,45.5175 L22.75,36.75 L21,36.75 Z" id="Path" fill="#FFFFFF" fill-rule="nonzero"></path>
                    <circle id="Oval" fill="#FFFFFF" fill-rule="nonzero" cx="11.375" cy="41.125" r="1"></circle>
                    <circle id="Oval" fill="#FFFFFF" fill-rule="nonzero" cx="14.875" cy="41.125" r="1"></circle>
                    <circle id="Oval" fill="#FFFFFF" fill-rule="nonzero" cx="18.375" cy="41.125" r="1"></circle>
                    <rect id="Rectangle" x="0" y="0" width="56" height="56"></rect>
                </g>
            </g>
        </g>
    </g>
</svg>