<?xml version="1.0" encoding="UTF-8"?>
<svg width="40px" height="40px" viewBox="0 0 40 40" version="1.1" xmlns="http://www.w3.org/2000/svg" xmlns:xlink="http://www.w3.org/1999/xlink">
    <!-- Generator: Sketch 57.1 (83088) - https://sketch.com -->
    <title>181-B40px</title>
    <desc>Created with Sketch.</desc>
    <g id="181-B40px" stroke="none" stroke-width="1" fill="none" fill-rule="evenodd">
        <g>
            <path d="M33.75,10 L33.775,31.25 L6.25,31.275 L6.275,10 L33.75,10 L33.75,10 Z M33.7625,8.75 L6.275,8.75 C5.5625,8.75 5,9.3125 5,10.025 L5,31.2875 C5,31.95 5.55,32.5 6.225,32.5 L33.775,32.5 C34.45,32.5 35,31.95 35,31.275 L35,9.9875 C35,9.3 34.45,8.75 33.7625,8.75 L33.7625,8.75 Z" id="Shape" fill="#101828" fill-rule="nonzero"></path>
            <path d="M12.5,16.25 C13.1875,16.25 13.75,16.8125 13.75,17.5 C13.75,18.1875 13.1875,18.75 12.5,18.75 C11.8125,18.75 11.25,18.1875 11.25,17.5 C11.25,16.8125 11.8125,16.25 12.5,16.25 L12.5,16.25 Z M12.5,15 C11.125,15 10,16.125 10,17.5 C10,18.875 11.125,20 12.5,20 C13.875,20 15,18.875 15,17.5 C15,16.125 13.875,15 12.5,15 L12.5,15 Z" id="Shape" fill="#101828" fill-rule="nonzero"></path>
            <path d="M20,16.25 C20.6875,16.25 21.25,16.8125 21.25,17.5 C21.25,18.1875 20.6875,18.75 20,18.75 C19.3125,18.75 18.75,18.1875 18.75,17.5 C18.75,16.8125 19.3125,16.25 20,16.25 L20,16.25 Z M20,15 C18.625,15 17.5,16.125 17.5,17.5 C17.5,18.875 18.625,20 20,20 C21.375,20 22.5,18.875 22.5,17.5 C22.5,16.125 21.375,15 20,15 L20,15 Z" id="Shape" fill="#101828" fill-rule="nonzero"></path>
            <path d="M27.5,16.25 C28.1875,16.25 28.75,16.8125 28.75,17.5 C28.75,18.1875 28.1875,18.75 27.5,18.75 C26.8125,18.75 26.25,18.1875 26.25,17.5 C26.25,16.8125 26.8125,16.25 27.5,16.25 L27.5,16.25 Z M27.5,15 C26.125,15 25,16.125 25,17.5 C25,18.875 26.125,20 27.5,20 C28.875,20 30,18.875 30,17.5 C30,16.125 28.875,15 27.5,15 L27.5,15 Z" id="Shape" fill="#101828" fill-rule="nonzero"></path>
            <path d="M12.5,23.75 C13.1875,23.75 13.75,24.3125 13.75,25 C13.75,25.6875 13.1875,26.25 12.5,26.25 C11.8125,26.25 11.25,25.6875 11.25,25 C11.25,24.3125 11.8125,23.75 12.5,23.75 L12.5,23.75 Z M12.5,22.5 C11.125,22.5 10,23.625 10,25 C10,26.375 11.125,27.5 12.5,27.5 C13.875,27.5 15,26.375 15,25 C15,23.625 13.875,22.5 12.5,22.5 L12.5,22.5 Z" id="Shape" fill="#101828" fill-rule="nonzero"></path>
            <path d="M20,23.75 C20.6875,23.75 21.25,24.3125 21.25,25 C21.25,25.6875 20.6875,26.25 20,26.25 C19.3125,26.25 18.75,25.6875 18.75,25 C18.75,24.3125 19.3125,23.75 20,23.75 L20,23.75 Z M20,22.5 C18.625,22.5 17.5,23.625 17.5,25 C17.5,26.375 18.625,27.5 20,27.5 C21.375,27.5 22.5,26.375 22.5,25 C22.5,23.625 21.375,22.5 20,22.5 L20,22.5 Z" id="Shape" fill="#101828" fill-rule="nonzero"></path>
            <path d="M28.75,23.75 L28.75,26.25 L26.25,26.25 L26.25,23.75 L28.75,23.75 L28.75,23.75 Z M30,22.5 L25,22.5 L25,27.5 L30,27.5 L30,22.5 L30,22.5 Z" id="Shape" fill="#101828" fill-rule="nonzero"></path>
            <rect id="Rectangle" fill="#101828" fill-rule="nonzero" x="28.75" y="6.25" width="1.25" height="6.25"></rect>
            <rect id="Rectangle" fill="#101828" fill-rule="nonzero" x="25" y="6.25" width="1.25" height="6.25"></rect>
            <rect id="Rectangle" fill="#101828" fill-rule="nonzero" x="21.25" y="6.25" width="1.25" height="6.25"></rect>
            <rect id="Rectangle" fill="#101828" fill-rule="nonzero" x="17.5" y="6.25" width="1.25" height="6.25"></rect>
            <rect id="Rectangle" fill="#101828" fill-rule="nonzero" x="13.75" y="6.25" width="1.25" height="6.25"></rect>
            <rect id="Rectangle" fill="#101828" fill-rule="nonzero" x="10" y="6.25" width="1.25" height="6.25"></rect>
            <rect id="Rectangle" x="0" y="0" width="40" height="40"></rect>
        </g>
    </g>
</svg>