<?xml version="1.0" encoding="UTF-8"?>
<svg width="80px" height="80px" viewBox="0 0 80 80" version="1.1" xmlns="http://www.w3.org/2000/svg" xmlns:xlink="http://www.w3.org/1999/xlink">
    <!-- Generator: Sketch 58 (84663) - https://sketch.com -->
    <title>253-B80px</title>
    <desc>Created with Sketch.</desc>
    <g id="253-B80px" stroke="none" stroke-width="1" fill="none" fill-rule="evenodd">
        <g id="253-B32px">
            <g>
                <path d="M44.975,56.675 L44.975,56.2 C34.8,52.5 26.05,43.6 25.95,43.5 C25.825,43.375 14.15,31.15 12.725,19.125 C12.725,19.05 12.725,18.925 12.8,18.85 L19.35,12.525 C19.4,12.475 19.45,12.45 19.525,12.45 C19.6,12.45 19.65,12.5 19.65,12.5 L29.525,22.7 C29.6,22.775 29.575,22.925 29.5,23 L25.125,27.225 L23.925,28.4 L24.55,29.95 C24.65,30.2 26.975,35.875 30.3,39.3 C33.625,42.725 39.225,45.25 39.475,45.35 L41.025,46.025 L42.225,44.85 L46.6,40.625 C46.65,40.575 46.7,40.55 46.775,40.55 C46.85,40.55 46.9,40.6 46.9,40.6 L49.125,42.9 C49.775,42.35 50.475,41.875 51.25,41.5 L48.7,38.875 C48.175,38.325 47.475,38.05 46.775,38.05 C46.1,38.05 45.4,38.3 44.875,38.825 L40.5,43.05 C40.5,43.05 35.15,40.675 32.125,37.55 C29.1,34.425 26.9,29 26.9,29 L31.275,24.775 C32.35,23.725 32.4,22.025 31.35,20.95 L21.45,10.75 C20.925,10.225 20.225,9.95 19.525,9.95 C18.85,9.95 18.15,10.2 17.625,10.725 L11.075,17.05 C10.45,17.675 10.15,18.525 10.275,19.4 C11.825,32.45 24.175,45.2 24.175,45.2 C24.175,45.2 33.625,54.975 44.825,58.775 C44.9,58.075 44.975,57.35 44.975,56.675 Z" id="Path" fill="#101828" fill-rule="nonzero"></path>
                <path d="M42.725,64.125 L42.725,61.625 C46.625,61.6 47.475,58.125 47.525,55.25 L47.575,51.225 C47.625,46.425 51.65,42.5 56.525,42.5 C56.525,42.5 56.525,42.5 56.55,42.5 C61.475,42.5 65.5,46.475 65.5,51.325 L65.5,55.25 C65.5,58.15 66.325,61.625 70.275,61.65 L70.275,64.15 L42.725,64.125 Z M56.525,45 C53,45 50.1,47.8 50.075,51.25 L50.025,55.275 C50,57.95 49.325,60.125 48.15,61.625 L64.8,61.625 C63.625,60.1 62.975,57.925 62.975,55.225 L62.975,51.3 C62.975,47.825 60.075,45 56.525,45 C56.525,45 56.525,45 56.525,45 Z" id="Shape" fill="#101828" fill-rule="nonzero"></path>
                <path d="M56.5,69.975 C56.475,69.975 56.475,69.975 56.5,69.975 C54.6,69.975 52.825,69.25 51.475,67.925 C50.125,66.6 49.4,64.85 49.4,62.975 L51.9,62.975 C51.9,64.175 52.375,65.275 53.225,66.125 C54.075,66.975 55.25,67.45 56.475,67.45 C56.475,67.45 56.475,67.45 56.5,67.45 C57.725,67.45 58.875,66.975 59.725,66.15 C60.575,65.3 61.075,64.2 61.075,63 L63.575,63 C63.575,64.875 62.825,66.625 61.475,67.925 C60.125,69.275 58.375,69.975 56.5,69.975 Z" id="Path" fill="#101828" fill-rule="nonzero"></path>
                <rect id="Rectangle" x="0" y="0" width="80" height="80"></rect>
            </g>
        </g>
    </g>
</svg>