<?xml version="1.0" encoding="UTF-8"?>
<svg width="56px" height="56px" viewBox="0 0 56 56" version="1.1" xmlns="http://www.w3.org/2000/svg" xmlns:xlink="http://www.w3.org/1999/xlink">
    <!-- Generator: Sketch 57.1 (83088) - https://sketch.com -->
    <title>005-C56px</title>
    <desc>Created with Sketch.</desc>
    <g id="005-C56px" stroke="none" stroke-width="1" fill="none" fill-rule="evenodd">
        <g>
            <path d="M28,8.75 C32.83,8.75 36.75,12.67 36.75,17.5 C36.75,22.33 32.83,26.25 28,26.25 C23.17,26.25 19.25,22.33 19.25,17.5 C19.25,12.67 23.17,8.75 28,8.75 L28,8.75 Z M28,7 C22.2075,7 17.5,11.7075 17.5,17.5 C17.5,23.2925 22.2075,28 28,28 C33.7925,28 38.5,23.2925 38.5,17.5 C38.5,11.7075 33.7925,7 28,7 L28,7 Z" id="Shape" fill="#FF4F12" fill-rule="nonzero"></path>
            <path d="M12.25,49 L12.25,38.5 C12.25,35.6125 14.6125,33.25 17.5,33.25 L38.5,33.25 C41.3875,33.25 43.75,35.6125 43.75,38.5 L43.75,49 L45.5,49 L45.5,38.5 C45.5,34.6325 42.3675,31.5 38.5,31.5 L17.5,31.5 C13.6325,31.5 10.5,34.6325 10.5,38.5 L10.5,49 L12.25,49 Z" id="Path" fill="#FF4F12" fill-rule="nonzero"></path>
            <rect id="Rectangle" x="0" y="0" width="56" height="56"></rect>
        </g>
    </g>
</svg>