<?xml version="1.0" encoding="UTF-8"?>
<svg width="56px" height="56px" viewBox="0 0 56 56" version="1.1" xmlns="http://www.w3.org/2000/svg" xmlns:xlink="http://www.w3.org/1999/xlink">
    <!-- Generator: Sketch 57.1 (83088) - https://sketch.com -->
    <title>187-B56px</title>
    <desc>Created with Sketch.</desc>
    <g id="187-B56px" stroke="none" stroke-width="1" fill="none" fill-rule="evenodd">
        <g>
            <path d="M31.5,20.5975 L35.105,22.75 L31.5,24.9025 L31.5,20.5975 L31.5,20.5975 Z M29.75,17.5 L29.75,28 L38.5,22.75 L29.75,17.5 L29.75,17.5 Z" id="Shape" fill="#101828" fill-rule="nonzero"></path>
            <rect id="Rectangle" fill="#101828" fill-rule="nonzero" x="12.25" y="14" width="7" height="1.75"></rect>
            <rect id="Rectangle" fill="#101828" fill-rule="nonzero" x="12.25" y="17.5" width="8.75" height="1.75"></rect>
            <rect id="Rectangle" fill="#101828" fill-rule="nonzero" x="12.25" y="21" width="8.75" height="1.75"></rect>
            <rect id="Rectangle" fill="#101828" fill-rule="nonzero" x="12.25" y="24.5" width="8.75" height="1.75"></rect>
            <rect id="Rectangle" fill="#101828" fill-rule="nonzero" x="12.25" y="28" width="5.25" height="1.75"></rect>
            <path d="M47.1975,8.75 L8.8025,8.75 C7.805,8.75 7,9.555 7,10.5525 L7,36.68 C7,37.695 7.805,38.5 8.8025,38.5 L26.25,38.5 L26.25,36.715 L8.75,36.6975 L8.8025,10.5 L47.18,10.5 L47.25,10.5525 L47.1975,36.75 L37.1525,36.7325 L40.25,38.5 L47.1975,38.5 C48.195,38.5 49,37.695 49,36.6975 L49,10.5525 C49,9.555 48.195,8.75 47.1975,8.75 Z" id="Path" fill="#101828" fill-rule="nonzero"></path>
            <path d="M33.8975,30.17 L36.2425,31.5 L42,31.5 C42.9625,31.5 43.75,30.7125 43.75,29.75 L43.75,15.75 C43.75,14.7875 42.9625,14 42,14 L26.25,14 C25.2875,14 24.5,14.7875 24.5,15.75 L24.5,29.75 C24.5,30.7125 25.2875,31.5 26.25,31.5 L28.035,31.5 L28.035,29.75 L28.035,29.75 L26.25,29.75 L26.25,15.75 L42,15.75 L42,29.75" id="Path" fill="#101828" fill-rule="nonzero"></path>
            <path d="M42,15.75 L42,29.75 L26.25,29.75 L26.25,15.75 L42,15.75 L42,15.75 Z M42,14 L26.25,14 C25.2875,14 24.5,14.7875 24.5,15.75 L24.5,29.75 C24.5,30.7125 25.2875,31.5 26.25,31.5 L42,31.5 C42.9625,31.5 43.75,30.7125 43.75,29.75 L43.75,15.75 C43.75,14.7875 42.9625,14 42,14 L42,14 Z" id="Shape" fill="#101828" fill-rule="nonzero"></path>
            <path d="M29.7675,36.3475 L35.0875,39.3575 L34.7025,39.585 L33.18,40.4775 L34.055,42 L36.2775,45.745 L34.7725,46.62 L32.5325,42.8575 L31.64,41.37 L30.135,42.245 L29.75,42.455 L29.7675,36.3475 L29.7675,36.3475 Z M28.0175,33.3375 L28,45.5 L31.0275,43.75 L34.1425,49 L38.675,46.3575 L35.56,41.09 L38.5875,39.34 L28.0175,33.3375 L28.0175,33.3375 Z" id="Shape" fill="#101828" fill-rule="nonzero"></path>
            <rect id="Rectangle" x="0" y="0" width="56" height="56"></rect>
        </g>
    </g>
</svg>