<?xml version="1.0" encoding="UTF-8"?>
<svg width="56px" height="56px" viewBox="0 0 56 56" version="1.1" xmlns="http://www.w3.org/2000/svg" xmlns:xlink="http://www.w3.org/1999/xlink">
    <!-- Generator: Sketch 57.1 (83088) - https://sketch.com -->
    <title>097-G56px</title>
    <desc>Created with Sketch.</desc>
    <g id="NEW_icons" stroke="none" stroke-width="1" fill="none" fill-rule="evenodd">
        <g id="icons_UD_new-Copy" transform="translate(-1728.000000, -12547.000000)">
            <g id="097-G56px" transform="translate(1728.000000, 12547.000000)">
                <circle id="Oval-Copy-669" fill="#E3E8EC" cx="28" cy="28" r="28"></circle>
                <g id="097-B32px-Copy-5" transform="translate(8.000000, 8.000000)">
                    <path d="M25.6375,16.25 C25.125,16.25 24.7125,16.675 24.7125,17.1875 C24.7125,17.7 25.125,18.125 25.6375,18.125 C26.15,18.125 26.5625,17.7 26.5625,17.1875 C26.5625,16.675 26.1375,16.25 25.6375,16.25 L25.6375,16.25 Z" id="Path" fill="#101828" fill-rule="nonzero"></path>
                    <path d="M25.6375,13.125 C25.125,13.125 24.7125,13.55 24.7125,14.0625 C24.7125,14.575 25.125,15 25.6375,15 C26.15,15 26.5625,14.575 26.5625,14.0625 C26.5625,13.55 26.1375,13.125 25.6375,13.125 L25.6375,13.125 Z" id="Path" fill="#101828" fill-rule="nonzero"></path>
                    <path d="M27.1875,14.675 C26.675,14.675 26.25,15.1 26.25,15.625 C26.25,16.15 26.675,16.575 27.1875,16.575 C27.7,16.575 28.125,16.15 28.125,15.625 C28.125,15.1 27.7,14.675 27.1875,14.675 L27.1875,14.675 Z" id="Path" fill="#101828" fill-rule="nonzero"></path>
                    <path d="M24.075,14.6875 C23.5625,14.6875 23.15,15.1125 23.15,15.625 C23.15,16.15 23.5625,16.5625 24.075,16.5625 C24.5875,16.5625 25,16.15 25,15.625 C25,15.1 24.5875,14.6875 24.075,14.6875 L24.075,14.6875 Z" id="Path" fill="#101828" fill-rule="nonzero"></path>
                    <path d="M32.2625,18.5 L30.4,9.7375 C30.275,9.1625 29.7875,8.75 29.2125,8.75 L21.0375,8.75 L19.375,8.75 L19.375,5 L18.125,5 L18.125,8.75 L16.4625,8.75 L8.2875,8.75 C7.7125,8.75 7.225,9.1625 7.1125,9.7375 L5.2375,18.5 C4.9,20.1875 4.8375,21.35 5.5625,22.9625 C6.45,24.95 8.6,26.25 10.75,26.25 C10.7875,26.25 10.8125,26.25 10.85,26.25 C13.9625,26.1875 16.475,23.6 16.475,20.4125 L21.0375,20.4125 C21.0375,21.4 21.3,22.3125 21.725,23.125 C22,22.775 22.3,22.45 22.625,22.15 C22.4125,21.6125 22.2875,21.025 22.2875,20.4125 L22.2875,19.1625 L21.0375,19.1625 L16.475,19.1625 L15.225,19.1625 L15.225,20.4125 C15.225,22.9 13.25,24.95 10.8375,25 L10.75,25 C9.0375,25 7.375,23.95 6.7125,22.45 C6.1375,21.15 6.1625,20.3 6.475,18.7625 L8.2875,10 L16.4625,10 L21.05,10 L29.175,10 L31.0375,18.75 C31.1875,19.5 31.2625,20.075 31.25,20.625 C31.675,20.8 32.075,21.0125 32.45,21.25 C32.5625,20.3875 32.4625,19.55 32.2625,18.5 Z" id="Path" fill="#101828" fill-rule="nonzero"></path>
                    <polygon id="Path" fill="#101828" fill-rule="nonzero" points="28.75 28.225 28.75 25 27.5 25 27.5 28.75 27.5125 28.75 30 31.2375 30.875 30.35"></polygon>
                    <path d="M28.125,22.5125 C31.225,22.5125 33.75,25.0375 33.75,28.1375 C33.75,31.2375 31.225,33.7625 28.125,33.7625 C25.025,33.7625 22.5,31.2375 22.5,28.1375 C22.5,25.0375 25.025,22.5125 28.125,22.5125 L28.125,22.5125 Z M28.125,21.2625 C24.325,21.2625 21.25,24.3375 21.25,28.1375 C21.25,31.9375 24.325,35.0125 28.125,35.0125 C31.925,35.0125 35,31.9375 35,28.1375 C35,24.35 31.925,21.2625 28.125,21.2625 L28.125,21.2625 Z" id="Shape" fill="#101828" fill-rule="nonzero"></path>
                    <polygon id="Path" fill="#101828" fill-rule="nonzero" points="14.35 15 12.5 15 12.5 13.075 11.25 13.075 11.25 15 9.3375 15 9.3375 16.25 11.25 16.25 11.25 18.0875 12.5 18.0875 12.5 16.25 14.35 16.25"></polygon>
                    <rect id="Rectangle" x="0" y="0" width="40" height="40"></rect>
                </g>
            </g>
        </g>
    </g>
</svg>