<?xml version="1.0" encoding="UTF-8"?>
<svg width="80px" height="80px" viewBox="0 0 80 80" version="1.1" xmlns="http://www.w3.org/2000/svg" xmlns:xlink="http://www.w3.org/1999/xlink">
    <!-- Generator: Sketch 57.1 (83088) - https://sketch.com -->
    <title>117-W80px</title>
    <desc>Created with Sketch.</desc>
    <g id="NEW_icons" stroke="none" stroke-width="1" fill="none" fill-rule="evenodd">
        <g id="icons_UD_new-Copy" transform="translate(-2151.000000, -15043.000000)">
            <g id="117-W80px" transform="translate(2151.000000, 15043.000000)">
                <circle id="Oval-Copy-720" fill="#101828" cx="40" cy="40" r="40"></circle>
                <g id="117-B32px-Copy-8" transform="translate(12.000000, 12.000000)">
                    <path d="M28.0175,19.25 C32.8475,19.25 36.7675,23.17 36.7675,28 C36.7675,32.83 32.8475,36.75 28.0175,36.75 C23.1875,36.75 19.2675,32.83 19.2675,28 C19.2675,23.17 23.205,19.25 28.0175,19.25 L28.0175,19.25 Z M28.0175,17.5 C22.225,17.5 17.5175,22.2075 17.5175,28 C17.5175,33.7925 22.225,38.5 28.0175,38.5 C33.81,38.5 38.5175,33.7925 38.5175,28 C38.5175,22.2075 33.8275,17.5 28.0175,17.5 L28.0175,17.5 Z" id="Shape" fill="#FFFFFF" fill-rule="nonzero"></path>
                    <path d="M28.0175,8.75 C38.64,8.75 47.2675,17.3775 47.2675,28 C47.2675,38.6225 38.64,47.25 28.0175,47.25 C17.395,47.25 8.7675,38.6225 8.7675,28 C8.7675,17.3775 17.4125,8.75 28.0175,8.75 L28.0175,8.75 Z M28.0175,7 C16.415,7 7.0175,16.3975 7.0175,28 C7.0175,39.6025 16.415,49 28.0175,49 C39.62,49 49.0175,39.6025 49.0175,28 C49.0175,16.3975 39.62,7 28.0175,7 L28.0175,7 Z" id="Shape" fill="#FFFFFF" fill-rule="nonzero"></path>
                    <rect id="Rectangle" fill="#FFFFFF" fill-rule="nonzero" x="37.625" y="29.75" width="10.5" height="1.75"></rect>
                    <rect id="Rectangle" fill="#FFFFFF" fill-rule="nonzero" x="37.625" y="24.5" width="10.5" height="1.75"></rect>
                    <rect id="Rectangle" fill="#FFFFFF" fill-rule="nonzero" x="7.875" y="29.75" width="10.5" height="1.75"></rect>
                    <rect id="Rectangle" fill="#FFFFFF" fill-rule="nonzero" x="7.875" y="24.5" width="10.5" height="1.75"></rect>
                    <rect id="Rectangle" fill="#FFFFFF" fill-rule="nonzero" x="24.5" y="37.625" width="1.75" height="10.5"></rect>
                    <rect id="Rectangle" fill="#FFFFFF" fill-rule="nonzero" x="29.75" y="37.625" width="1.75" height="10.5"></rect>
                    <rect id="Rectangle" fill="#FFFFFF" fill-rule="nonzero" x="24.5" y="7.875" width="1.75" height="10.5"></rect>
                    <rect id="Rectangle" fill="#FFFFFF" fill-rule="nonzero" x="29.75" y="7.875" width="1.75" height="10.5"></rect>
                    <rect id="Rectangle" x="0" y="0" width="56" height="56"></rect>
                </g>
            </g>
        </g>
    </g>
</svg>