<?xml version="1.0" encoding="UTF-8"?>
<svg width="56px" height="56px" viewBox="0 0 56 56" version="1.1" xmlns="http://www.w3.org/2000/svg" xmlns:xlink="http://www.w3.org/1999/xlink">
    <!-- Generator: Sketch 57.1 (83088) - https://sketch.com -->
    <title>246-B56px</title>
    <desc>Created with Sketch.</desc>
    <g id="246-B56px" stroke="none" stroke-width="1" fill="none" fill-rule="evenodd">
        <g>
            <path d="M33.25,38.5 L33.25,40.25 L22.75,40.25 L22.75,38.5 L33.25,38.5 L33.25,38.5 Z M35,36.75 L21,36.75 L21,42 L35,42 L35,36.75 L35,36.75 Z" id="Shape" fill="#101828" fill-rule="nonzero"></path>
            <path d="M31.5,45.5 L31.5,47.25 L24.5,47.25 L24.5,45.5 L31.5,45.5 L31.5,45.5 Z M31.57,43.75 L24.43,43.75 C23.5025,43.75 22.75,44.5025 22.75,45.43 L22.75,47.32 C22.75,48.2475 23.5025,49 24.43,49 L31.57,49 C32.4975,49 33.25,48.2475 33.25,47.32 L33.25,45.43 C33.25,44.5025 32.4975,43.75 31.57,43.75 L31.57,43.75 Z" id="Shape" fill="#101828" fill-rule="nonzero"></path>
            <path d="M33.25,42 L33.25,43.75 L22.75,43.75 L22.75,42 L33.25,42 L33.25,42 Z M33.25,40.25 L22.75,40.25 C21.7875,40.25 21,41.0375 21,42 L21,43.75 C21,44.7125 21.7875,45.5 22.75,45.5 L33.25,45.5 C34.2125,45.5 35,44.7125 35,43.75 L35,42 C35,41.0375 34.2125,40.25 33.25,40.25 L33.25,40.25 Z" id="Shape" fill="#101828" fill-rule="nonzero"></path>
            <path d="M28,8.75 C34.755,8.75 40.25,14.245 40.25,21 C40.25,23.905 39.2175,26.705 37.345,28.91 C36.89,29.4525 36.47,29.9075 36.1025,30.31 C34.3175,32.2525 33.3375,33.46 33.25,36.75 L22.75,36.75 C22.645,33.32 21.49,32.06 19.9325,30.3275 C19.53,29.89 19.0925,29.4 18.585,28.805 C16.31,26.075 15.3475,22.5925 15.9075,19.0225 C16.73,13.7025 21.2275,9.415 26.6,8.82 C27.055,8.785 27.5275,8.75 28,8.75 L28,8.75 Z M28,7 C27.475,7 26.9325,7.035 26.4075,7.0875 C20.2475,7.77 15.1375,12.635 14.175,18.76 C13.51,23.03 14.77,26.985 17.2375,29.9425 C19.74,32.9525 21,33.32 21,37.24 L21,38.5 L35,38.5 L35,37.2225 C35,33.355 36.1725,32.9875 38.675,30.0475 C40.7575,27.615 42,24.4475 42,21 C42,13.265 35.735,7 28,7 L28,7 Z" id="Shape" fill="#101828" fill-rule="nonzero"></path>
            <path d="M19.25,21 L17.5,21 C17.5,15.2075 22.2075,10.5 28,10.5 L28,12.25 C23.17,12.25 19.25,16.17 19.25,21 Z" id="Path" fill="#101828" fill-rule="nonzero"></path>
            <rect id="Rectangle" x="0" y="0" width="56" height="56"></rect>
        </g>
    </g>
</svg>