<?xml version="1.0" encoding="UTF-8"?>
<svg width="80px" height="80px" viewBox="0 0 80 80" version="1.1" xmlns="http://www.w3.org/2000/svg" xmlns:xlink="http://www.w3.org/1999/xlink">
    <!-- Generator: Sketch 57.1 (83088) - https://sketch.com -->
    <title>056-B80px</title>
    <desc>Created with Sketch.</desc>
    <g id="056-B80px" stroke="none" stroke-width="1" fill="none" fill-rule="evenodd">
        <g>
            <path d="M45,44.55 L45,22.5 L32.5,22.5 L32.5,47.5 L27.5,47.5 L27.5,32.5 L15,32.5 L15,47.5 L10,47.5 L10,50 L15,50 L27.5,50 L32.5,50 L41.25,50 C42.125,47.925 43.4,46.075 45,44.55 Z M25,47.5 L17.5,47.5 L17.5,35 L25,35 L25,47.5 Z M35,25 L42.5,25 L42.5,47.5 L35,47.5 L35,25 Z" id="Shape" fill="#101828" fill-rule="nonzero"></path>
            <polygon id="Path" fill="#101828" fill-rule="nonzero" points="52.5 37.5 52.5 12.5 60 12.5 60 37.5 62.5 37.5 62.5 10 50 10 50 37.5"></polygon>
            <path d="M56.25,45 C62.45,45 67.5,50.05 67.5,56.25 C67.5,62.45 62.45,67.5 56.25,67.5 C50.05,67.5 45,62.45 45,56.25 C45,50.05 50.05,45 56.25,45 L56.25,45 Z M56.25,42.5 C48.65,42.5 42.5,48.65 42.5,56.25 C42.5,63.85 48.65,70 56.25,70 C63.85,70 70,63.85 70,56.25 C70,48.65 63.85,42.5 56.25,42.5 L56.25,42.5 Z" id="Shape" fill="#101828" fill-rule="nonzero"></path>
            <path d="M51.25,55 C50.55,55 50,55.55 50,56.25 C50,56.95 50.55,57.5 51.25,57.5 C51.95,57.5 52.5,56.95 52.5,56.25 C52.5,55.55 51.95,55 51.25,55 L51.25,55 Z" id="Path" fill="#101828" fill-rule="nonzero"></path>
            <path d="M61.25,55 C60.55,55 60,55.55 60,56.25 C60,56.95 60.55,57.5 61.25,57.5 C61.95,57.5 62.5,56.95 62.5,56.25 C62.5,55.55 61.95,55 61.25,55 L61.25,55 Z" id="Path" fill="#101828" fill-rule="nonzero"></path>
            <path d="M50.25,62.8 C53.725,65.725 58.8,65.725 62.25,62.8 L60.75,60.8 C58.175,63.075 54.3,63.05 51.725,60.8 L50.25,62.8 Z" id="Path" fill="#101828" fill-rule="nonzero"></path>
            <path d="M57.5,45 L55,45 C55,42.85 56.3,38.75 61.25,38.75 L61.25,41.25 C57.725,41.25 57.5,44.375 57.5,45 Z" id="Path" fill="#101828" fill-rule="nonzero"></path>
            <path d="M55,45 C55,44.375 54.775,41.25 51.25,41.25 L51.25,38.75 C56.2,38.75 57.5,42.85 57.5,45 L55,45 L56.25,45 L55,45 Z" id="Path" fill="#101828" fill-rule="nonzero"></path>
            <polygon id="Path" fill="#101828" fill-rule="nonzero" points="67.5 52.5 55.725 52.5 53.75 50.525 51.775 52.5 45 52.5 45 50 50.725 50 53.75 46.975 56.775 50 67.5 50"></polygon>
            <rect id="Rectangle" x="0" y="0" width="80" height="80"></rect>
        </g>
    </g>
</svg>