<?xml version="1.0" encoding="UTF-8"?>
<svg width="80px" height="80px" viewBox="0 0 80 80" version="1.1" xmlns="http://www.w3.org/2000/svg" xmlns:xlink="http://www.w3.org/1999/xlink">
    <!-- Generator: Sketch 57.1 (83088) - https://sketch.com -->
    <title>021-B80px</title>
    <desc>Created with Sketch.</desc>
    <g id="021-B80px" stroke="none" stroke-width="1" fill="none" fill-rule="evenodd">
        <g>
            <path d="M51.175,45.875 C48.75,49.35 45.3,52.075 41.275,53.6 C45.025,49.35 47.5,42.05 47.5,33.75 C47.5,25.45 45.025,18.15 41.275,13.9 C45.3,15.425 48.75,18.15 51.175,21.625 C51.725,20.975 52.45,20.5 53.275,20.25 C49,14.05 41.85,10 33.75,10 C33.75,10 33.725,10 33.725,10 C33.725,10 33.725,10 33.7,10 C33.675,10 33.675,10 33.65,10 C20.575,10.05 10,20.675 10,33.75 C10,46.825 20.575,57.45 33.65,57.5 C33.675,57.5 33.675,57.5 33.7,57.5 C33.7,57.5 33.7,57.5 33.725,57.5 C33.725,57.5 33.75,57.5 33.75,57.5 C41.85,57.5 49,53.45 53.275,47.25 C52.45,46.975 51.725,46.5 51.175,45.875 Z M26.125,13.95 C24.225,16.1 22.65,19.05 21.575,22.5 L15.75,22.5 C18.175,18.625 21.8,15.6 26.125,13.95 Z M14.4,25 L20.9,25 C20.35,27.35 20.05,29.875 19.95,32.5 L12.575,32.5 C12.725,29.85 13.35,27.3 14.4,25 Z M12.575,35 L19.975,35 C20.05,37.625 20.375,40.15 20.925,42.5 L14.425,42.5 C13.35,40.2 12.725,37.65 12.575,35 Z M15.75,45 L21.575,45 C22.65,48.45 24.225,51.4 26.125,53.55 C21.8,51.9 18.175,48.875 15.75,45 Z M32.5,54.875 C29.05,54.15 26.025,50.35 24.2,45 L32.5,45 L32.5,54.875 Z M32.5,42.5 L23.475,42.5 C22.9,40.175 22.55,37.65 22.45,35 L32.5,35 L32.5,42.5 Z M32.5,32.5 L22.45,32.5 C22.525,29.85 22.9,27.325 23.475,25 L32.5,25 L32.5,32.5 Z M32.5,22.5 L24.2,22.5 C26.025,17.175 29.05,13.375 32.5,12.625 L32.5,22.5 Z M35,12.65 C38.425,13.425 41.425,17.2 43.225,22.5 L35,22.5 L35,12.65 Z M35,25 L43.95,25 C44.525,27.325 44.875,29.85 44.975,32.5 L35,32.5 L35,25 Z M35,35 L44.975,35 C44.9,37.65 44.525,40.175 43.95,42.5 L35,42.5 L35,35 Z M35,54.85 L35,45 L43.225,45 C41.425,50.3 38.425,54.075 35,54.85 Z" id="Shape" fill="#101828" fill-rule="nonzero"></path>
            <path d="M67.5,25 L67.5,42.5 L55,42.5 L55,25 L67.5,25 L67.5,25 Z M67.5,22.5 L55,22.5 C53.625,22.5 52.5,23.625 52.5,25 L52.5,42.5 C52.5,43.875 53.625,45 55,45 L67.5,45 C68.875,45 70,43.875 70,42.5 L70,25 C70,23.625 68.875,22.5 67.5,22.5 L67.5,22.5 Z" id="Shape" fill="#101828" fill-rule="nonzero"></path>
            <rect id="Rectangle" fill="#101828" fill-rule="nonzero" x="55" y="15" width="2.5" height="8.75"></rect>
            <rect id="Rectangle" fill="#101828" fill-rule="nonzero" x="65" y="15" width="2.5" height="8.75"></rect>
            <rect id="Rectangle" fill="#101828" fill-rule="nonzero" x="60" y="12.5" width="2.5" height="11.25"></rect>
            <polygon id="Path" fill="#101828" fill-rule="nonzero" points="60 70 60 45 62.5 45 62.5 70 65 70 65 42.5 57.5 42.5 57.5 70"></polygon>
            <rect id="Rectangle" x="0" y="0" width="80" height="80"></rect>
        </g>
    </g>
</svg>