<?xml version="1.0" encoding="UTF-8"?>
<svg width="56px" height="56px" viewBox="0 0 56 56" version="1.1" xmlns="http://www.w3.org/2000/svg" xmlns:xlink="http://www.w3.org/1999/xlink">
    <!-- Generator: Sketch 59.1 (86144) - https://sketch.com -->
    <title>265-B56px</title>
    <desc>Created with Sketch.</desc>
    <g id="265-B56px" stroke="none" stroke-width="1" fill="none" fill-rule="evenodd">
        <g>
            <rect id="Rectangle" x="0" y="0" width="56" height="56"></rect>
            <g id="Group" transform="translate(7.000000, 7.000000)" fill="#101828" fill-rule="nonzero">
                <rect id="Rectangle" x="29.75" y="6.3" width="7" height="1.575"></rect>
                <rect id="Rectangle" x="29.75" y="16.625" width="7" height="1.75"></rect>
                <rect id="Rectangle" x="29.75" y="9.625" width="1.4" height="1.925"></rect>
                <rect id="Rectangle" x="32.55" y="9.625" width="1.4" height="1.925"></rect>
                <rect id="Rectangle" x="35.35" y="9.625" width="1.4" height="1.925"></rect>
                <rect id="Rectangle" x="29.75" y="13.125" width="1.4" height="1.925"></rect>
                <rect id="Rectangle" x="32.55" y="13.125" width="1.4" height="1.925"></rect>
                <rect id="Rectangle" x="35.35" y="13.125" width="1.4" height="1.925"></rect>
                <g transform="translate(8.750000, 8.750000)">
                    <g transform="translate(0.000000, 5.250000)" id="Path">
                        <path d="M2.275,6.125 L2.275,3.5 C2.275,2.8 2.8,2.275 3.5,2.275 L8.75,2.275 C9.45,2.275 9.975,2.8 9.975,3.5 L9.975,6.125 L10.5,6.125 L10.5,3.5 C10.5,2.625 9.8,1.75 8.75,1.75 L3.675,1.75 C2.8,1.75 1.925,2.45 1.925,3.5 L1.925,6.125 L2.275,6.125 Z"></path>
                        <path d="M11.025,6.65 L9.45,6.65 L9.45,3.5 C9.45,3.15 9.1,2.8 8.75,2.8 L3.675,2.8 C3.325,2.8 2.975,3.15 2.975,3.5 L2.975,6.65 L1.4,6.65 L1.4,3.5 C1.4,2.275 2.45,1.225 3.675,1.225 L8.75,1.225 C9.975,1.225 11.025,2.275 11.025,3.5 L11.025,6.65 Z"></path>
                    </g>
                    <g transform="translate(1.750000, 0.000000)" id="Shape">
                        <path d="M4.375,1.575 C5.6,1.575 6.475,2.45 6.475,3.675 C6.475,4.9 5.6,5.775 4.375,5.775 C3.15,5.775 2.275,4.9 2.275,3.675 C2.275,2.45 3.325,1.575 4.375,1.575 M4.375,1.05 C2.975,1.05 1.75,2.275 1.75,3.675 C1.75,5.075 2.975,6.3 4.375,6.3 C5.775,6.3 7,5.075 7,3.675 C7,2.275 5.95,1.05 4.375,1.05 L4.375,1.05 Z"></path>
                        <path d="M4.375,6.825 C2.625,6.825 1.225,5.425 1.225,3.675 C1.225,1.925 2.625,0.525 4.375,0.525 C6.125,0.525 7.525,1.925 7.525,3.675 C7.7,5.425 6.3,6.825 4.375,6.825 Z M4.375,2.1 C3.5,2.1 2.8,2.8 2.8,3.675 C2.8,4.55 3.5,5.25 4.375,5.25 C5.25,5.25 5.95,4.55 5.95,3.675 C5.95,2.8 5.25,2.1 4.375,2.1 Z"></path>
                    </g>
                </g>
                <path d="M24.15,7.7 L24.15,20.3 L6.65,20.3 L6.65,7.7 L24.15,7.7 M24.15,6.125 L6.65,6.125 C5.6,6.125 4.725,6.825 4.725,7.7 L4.725,20.3 C4.725,21.175 5.6,21.875 6.65,21.875 L24.15,21.875 C25.2,21.875 26.075,21.175 26.075,20.3 L26.075,7.7 C26.075,6.825 25.2,6.125 24.15,6.125 L24.15,6.125 Z" id="Shape"></path>
                <path d="M38.15,27.125 L40.075,27.125 C40.075,27.125 40.25,27.125 40.25,26.95 L40.25,2.8 C40.25,2.8 40.25,2.625 40.075,2.625 L1.925,2.625 C1.925,2.625 1.75,2.625 1.75,2.8 L1.75,27.125 C1.75,27.125 1.75,27.3 1.925,27.3 L16.1,27.3 C15.925,27.825 15.925,28.525 15.75,29.05 L1.75,29.05 C0.875,28.875 0,28 0,26.95 L0,2.8 C0,1.75 0.875,0.875 1.925,0.875 L40.25,0.875 C41.125,0.875 42,1.75 42,2.8 L42,27.125 C42,28.175 41.125,29.05 40.075,29.05 L38.325,29.05 C38.325,28.35 38.325,27.65 38.15,27.125 Z" id="Path"></path>
                <path d="M19.25,31.5 C19.25,27.125 22.75,23.625 27.125,23.625 C31.5,23.625 35,27.125 35,31.5 C35,35.875 31.5,39.375 27.125,39.375 C22.75,39.375 19.25,35.875 19.25,31.5 M17.5,31.5 C17.5,36.75 21.875,41.125 27.125,41.125 C32.375,41.125 36.75,36.75 36.75,31.5 C36.75,26.25 32.375,21.875 27.125,21.875 C21.875,21.875 17.5,26.25 17.5,31.5 L17.5,31.5 Z" id="Shape"></path>
                <g transform="translate(21.000000, 24.500000)" id="Path">
                    <path d="M3.85,5.25 L3.15,2.8 C3.15,2.625 2.8,2.45 2.625,2.45 L1.05,2.975 C0.875,2.975 0.7,3.15 0.7,3.325 C-0.175,5.6 0.875,8.575 0.875,8.575 C0.875,8.575 1.75,11.55 3.675,12.95 C3.85,13.125 4.025,13.125 4.025,12.95 L5.6,12.425 C5.775,12.425 5.95,12.075 5.95,11.9 L5.25,9.45 C5.25,9.275 4.9,9.1 4.725,9.1 L3.5,9.45 C3.5,9.45 2.8,8.575 2.625,7.875 C2.45,7.175 2.45,6.125 2.45,6.125 L3.5,5.775 C3.85,5.775 4.025,5.425 3.85,5.25 Z"></path>
                    <path d="M11.025,9.8 C12.075,6.825 11.025,3.325 8.4,1.4 L7.525,2.8 C9.45,4.2 10.325,6.825 9.45,9.1 L11.025,9.8 Z"></path>
                    <path d="M8.05,8.575 C8.575,7 7.875,5.25 6.65,4.2 L5.775,5.6 C6.475,6.125 6.65,7 6.475,7.875 L8.05,8.575 Z"></path>
                </g>
            </g>
        </g>
    </g>
</svg>