<?xml version="1.0" encoding="UTF-8"?>
<svg width="56px" height="56px" viewBox="0 0 56 56" version="1.1" xmlns="http://www.w3.org/2000/svg" xmlns:xlink="http://www.w3.org/1999/xlink">
    <!-- Generator: Sketch 56.3 (81716) - https://sketch.com -->
    <title>021-W56px</title>
    <desc>Created with Sketch.</desc>
    <g id="NEW_icons" stroke="none" stroke-width="1" fill="none" fill-rule="evenodd">
        <g id="icons_UD_new-Copy" transform="translate(-1814.000000, -2859.000000)">
            <g id="021-W56px" transform="translate(1814.000000, 2859.000000)">
                <g id="003-B32px-Copy-45" transform="translate(8.000000, 8.000000)">
                    <g id="Group" transform="translate(10.000000, 5.000000)" fill="#FFFFFF" fill-rule="nonzero">
                        <path d="M18.6875,0 L1.3125,0 C0.5875,0 0,0.5875 0,1.3125 L0,23.75 L0,25 L0,28.6875 C0,29.4125 0.5875,30 1.3125,30 L18.6875,30 C19.4125,30 20,29.4125 20,28.6875 L20,25 L20,23.75 L20,1.3125 C20,0.5875 19.4125,0 18.6875,0 Z M18.75,28.6875 C18.75,28.725 18.725,28.75 18.6875,28.75 L1.3125,28.75 C1.275,28.75 1.25,28.725 1.25,28.6875 L1.25,25 L18.75,25 L18.75,28.6875 Z M1.25,23.75 L1.25,1.3125 C1.25,1.275 1.275,1.25 1.3125,1.25 L18.6875,1.25 C18.725,1.25 18.75,1.275 18.75,1.3125 L18.75,23.75 L1.25,23.75 Z" id="Shape"></path>
                        <path d="M10,27.4875 C10.3375,27.4875 10.625,27.2125 10.625,26.8625 C10.625,26.525 10.35,26.2375 10,26.2375 C9.65,26.2375 9.375,26.5125 9.375,26.8625 C9.375,27.2125 9.6625,27.4875 10,27.4875 Z" id="Path"></path>
                        <path d="M12.5125,20 L7.5,20.0125 L7.5,16.25 L6.25,16.25 L6.25,20.0125 C6.25,20.6875 6.8,21.25 7.4875,21.25 L12.525,21.25 C13.2,21.25 13.7625,20.7 13.7625,20.0125 L13.7625,16.25 L12.5125,16.25 L12.5125,20 Z" id="Path"></path>
                        <polygon id="Path" points="4.775 15.575 5.5625 16.5375 10 12.875 14.4375 16.5375 15.225 15.575 10 11.2625"></polygon>
                        <path d="M12.6,7.3125 C11.925,6.65 11.0125,6.25 10,6.25 C8.9625,6.25 8.025,6.675 7.35,7.35 L8.2375,8.2375 C8.6875,7.775 9.3125,7.5 10,7.5 C10.6625,7.5 11.275,7.7625 11.7125,8.1875 L12.6,7.3125 Z" id="Path"></path>
                        <path d="M9.1125,9.1125 L9.95,9.95 L10.825,9.075 C10.6125,8.875 10.325,8.75 10,8.75 C9.65,8.75 9.3375,8.8875 9.1125,9.1125 Z" id="Path"></path>
                        <path d="M10,5 C11.35,5 12.5875,5.55 13.4875,6.425 L14.375,5.5375 C13.2375,4.4375 11.7,3.75 10,3.75 C8.275,3.75 6.7125,4.45 5.575,5.575 L6.4625,6.4625 C7.375,5.5625 8.625,5 10,5 Z" id="Path"></path>
                    </g>
                    <rect id="Rectangle" x="0" y="0" width="40" height="40"></rect>
                </g>
                <circle id="Oval-Copy-209" fill="#101828" cx="28" cy="28" r="28"></circle>
                <g id="021-B32px-Copy-6" transform="translate(8.000000, 8.000000)">
                    <path d="M25.5875,22.9375 C24.375,24.675 22.65,26.0375 20.6375,26.8 C22.5125,24.675 23.75,21.025 23.75,16.875 C23.75,12.725 22.5125,9.075 20.6375,6.95 C22.65,7.7125 24.375,9.075 25.5875,10.8125 C25.8625,10.4875 26.225,10.25 26.6375,10.125 C24.5,7.025 20.925,5 16.875,5 C16.875,5 16.8625,5 16.8625,5 C16.8625,5 16.8625,5 16.85,5 C16.8375,5 16.8375,5 16.825,5 C10.2875,5.025 5,10.3375 5,16.875 C5,23.4125 10.2875,28.725 16.825,28.75 C16.8375,28.75 16.8375,28.75 16.85,28.75 C16.85,28.75 16.85,28.75 16.8625,28.75 C16.8625,28.75 16.875,28.75 16.875,28.75 C20.925,28.75 24.5,26.725 26.6375,23.625 C26.225,23.4875 25.8625,23.25 25.5875,22.9375 Z M13.0625,6.975 C12.1125,8.05 11.325,9.525 10.7875,11.25 L7.875,11.25 C9.0875,9.3125 10.9,7.8 13.0625,6.975 Z M7.2,12.5 L10.45,12.5 C10.175,13.675 10.025,14.9375 9.975,16.25 L6.2875,16.25 C6.3625,14.925 6.675,13.65 7.2,12.5 Z M6.2875,17.5 L9.9875,17.5 C10.025,18.8125 10.1875,20.075 10.4625,21.25 L7.2125,21.25 C6.675,20.1 6.3625,18.825 6.2875,17.5 Z M7.875,22.5 L10.7875,22.5 C11.325,24.225 12.1125,25.7 13.0625,26.775 C10.9,25.95 9.0875,24.4375 7.875,22.5 Z M16.25,27.4375 C14.525,27.075 13.0125,25.175 12.1,22.5 L16.25,22.5 L16.25,27.4375 Z M16.25,21.25 L11.7375,21.25 C11.45,20.0875 11.275,18.825 11.225,17.5 L16.25,17.5 L16.25,21.25 Z M16.25,16.25 L11.225,16.25 C11.2625,14.925 11.45,13.6625 11.7375,12.5 L16.25,12.5 L16.25,16.25 Z M16.25,11.25 L12.1,11.25 C13.0125,8.5875 14.525,6.6875 16.25,6.3125 L16.25,11.25 Z M17.5,6.325 C19.2125,6.7125 20.7125,8.6 21.6125,11.25 L17.5,11.25 L17.5,6.325 Z M17.5,12.5 L21.975,12.5 C22.2625,13.6625 22.4375,14.925 22.4875,16.25 L17.5,16.25 L17.5,12.5 Z M17.5,17.5 L22.4875,17.5 C22.45,18.825 22.2625,20.0875 21.975,21.25 L17.5,21.25 L17.5,17.5 Z M17.5,27.425 L17.5,22.5 L21.6125,22.5 C20.7125,25.15 19.2125,27.0375 17.5,27.425 Z" id="Shape" fill="#FFFFFF" fill-rule="nonzero"></path>
                    <path d="M33.75,12.5 L33.75,21.25 L27.5,21.25 L27.5,12.5 L33.75,12.5 L33.75,12.5 Z M33.75,11.25 L27.5,11.25 C26.8125,11.25 26.25,11.8125 26.25,12.5 L26.25,21.25 C26.25,21.9375 26.8125,22.5 27.5,22.5 L33.75,22.5 C34.4375,22.5 35,21.9375 35,21.25 L35,12.5 C35,11.8125 34.4375,11.25 33.75,11.25 L33.75,11.25 Z" id="Shape" fill="#FFFFFF" fill-rule="nonzero"></path>
                    <rect id="Rectangle" fill="#FFFFFF" fill-rule="nonzero" x="27.5" y="7.5" width="1.25" height="4.375"></rect>
                    <rect id="Rectangle" fill="#FFFFFF" fill-rule="nonzero" x="32.5" y="7.5" width="1.25" height="4.375"></rect>
                    <rect id="Rectangle" fill="#FFFFFF" fill-rule="nonzero" x="30" y="6.25" width="1.25" height="5.625"></rect>
                    <polygon id="Path" fill="#FFFFFF" fill-rule="nonzero" points="30 35 30 22.5 31.25 22.5 31.25 35 32.5 35 32.5 21.25 28.75 21.25 28.75 35"></polygon>
                    <rect id="Rectangle" x="0" y="0" width="40" height="40"></rect>
                </g>
            </g>
        </g>
    </g>
</svg>