<?xml version="1.0" encoding="UTF-8"?>
<svg width="32px" height="32px" viewBox="0 0 32 32" version="1.1" xmlns="http://www.w3.org/2000/svg" xmlns:xlink="http://www.w3.org/1999/xlink">
    <!-- Generator: Sketch 57.1 (83088) - https://sketch.com -->
    <title>116-B32px</title>
    <desc>Created with Sketch.</desc>
    <g id="116-B32px" stroke="none" stroke-width="1" fill="none" fill-rule="evenodd">
        <g>
            <g id="Group" transform="translate(4.000000, 5.000000)" fill="#101828" fill-rule="nonzero">
                <path d="M13.12,1 L13.12,1 C13.33,1 13.54,1.06 13.77,1.17 C14.04,1.6 14.64,2.66 14.97,3.99 C15.04,4.26 15.05,4.54 15,4.82 L14.32,8.65 C14.26,8.98 14.35,9.32 14.57,9.58 C14.79,9.84 15.11,9.99 15.44,9.99 L22.26,9.99 C22.6,9.99 22.9,10.21 22.97,10.51 C22.99,10.61 23,10.73 23,10.85 C23,11.26 22.86,11.51 22.53,11.68 C22.17,11.86 21.92,12.2 21.86,12.6 C21.8,13 21.94,13.4 22.23,13.68 C22.45,13.89 22.45,14.09 22.45,14.16 C22.45,14.42 22.21,14.7 21.98,14.87 C21.72,15.07 21.56,15.36 21.53,15.68 C21.5,16 21.61,16.32 21.82,16.56 C21.88,16.63 21.99,16.78 21.99,17.05 C21.99,17.33 21.7,17.66 21.5,17.78 C20.93,18.15 20.76,18.92 21.12,19.5 C21.19,19.61 21.31,19.85 21.31,20.23 C21.31,20.61 20.8,21.01 20.32,21.01 L8.52,21.01 L7,20.26 L7,12.18 L7.93,11.48 C8.03,11.4 8.12,11.32 8.21,11.22 C8.98,10.34 11.53,7.3 12.18,5.15 C12.23,4.99 12.25,4.82 12.25,4.64 L12.25,1.37 C12.25,1.34 12.28,1.31 12.29,1.3 C12.56,1.1 12.84,1 13.12,1 L13.12,1 Z M13.12,0 C12.51,0 12.02,0.26 11.7,0.49 C11.42,0.7 11.25,1.02 11.25,1.36 L11.25,4.64 C11.25,4.71 11.24,4.79 11.22,4.86 C10.61,6.89 7.88,10.07 7.45,10.56 C7.41,10.6 7.37,10.64 7.33,10.67 L6.32,11.43 C6.12,11.58 6,11.81 6,12.06 L6,20.39 C6,20.69 6.17,20.97 6.45,21.1 L8.12,21.91 C8.23,21.97 8.36,21.99 8.48,21.99 L20.32,21.99 C21.29,21.99 22.31,21.2 22.31,20.21 C22.31,19.6 22.12,19.18 21.97,18.95 C21.9,18.83 21.92,18.68 22.04,18.6 C22.44,18.34 22.98,17.74 22.98,17.03 C22.98,16.44 22.72,16.05 22.56,15.87 C22.5,15.8 22.51,15.69 22.58,15.64 C22.86,15.42 23.44,14.88 23.44,14.13 C23.44,13.55 23.15,13.15 22.91,12.92 C22.79,12.81 22.82,12.61 22.97,12.54 C23.38,12.33 23.99,11.85 23.99,10.82 C23.99,10.61 23.97,10.43 23.93,10.26 C23.76,9.49 23.05,8.96 22.25,8.96 L15.43,8.96 C15.34,8.96 15.28,8.88 15.29,8.8 L15.97,4.97 C16.04,4.56 16.03,4.14 15.93,3.73 C15.55,2.19 14.85,0.99 14.57,0.57 C14.49,0.45 14.39,0.36 14.26,0.29 C13.86,0.08 13.47,0 13.12,0 L13.12,0 Z" id="Shape"></path>
                <path d="M6,11.24 L6,21 L1,21 L1,11.24 L6,11.24 L6,11.24 Z M6,10.24 L1,10.24 C0.45,10.24 0,10.69 0,11.24 L0,21 C0,21.55 0.45,22 1,22 L6,22 C6.55,22 7,21.55 7,21 L7,11.24 C7,10.69 6.55,10.24 6,10.24 L6,10.24 Z" id="Shape"></path>
            </g>
            <rect id="Rectangle" x="0" y="0" width="32" height="32"></rect>
        </g>
    </g>
</svg>