<?xml version="1.0" encoding="UTF-8"?>
<svg width="56px" height="56px" viewBox="0 0 56 56" version="1.1" xmlns="http://www.w3.org/2000/svg" xmlns:xlink="http://www.w3.org/1999/xlink">
    <!-- Generator: Sketch 58 (84663) - https://sketch.com -->
    <title>254-W56px</title>
    <desc>Created with Sketch.</desc>
    <g id="NEW_icons" stroke="none" stroke-width="1" fill="none" fill-rule="evenodd">
        <g id="icons_UD_new-Copy" transform="translate(-531.000000, -32396.000000)">
            <g id="254-W56px" transform="translate(531.000000, 32396.000000)">
                <circle id="Oval-Copy-1742" fill="#101828" cx="28" cy="28" r="28"></circle>
                <g id="254-B32px-Copy" transform="translate(8.000000, 8.000000)">
                    <path d="M10.375,7.0875 C10.4375,7.0875 10.525,7.1 10.6,7.175 L16.3375,13.1125 C16.4625,13.2375 16.45,13.45 16.3125,13.575 L13.775,16.0375 L13.175,16.625 L13.4875,17.4 C13.5375,17.5375 14.875,20.8125 16.7875,22.7875 C18.7,24.7625 21.925,26.2 22.0625,26.2625 L22.8375,26.6 L23.4375,26.0125 L25.975,23.55 C26.0625,23.4625 26.15,23.45 26.2125,23.45 C26.275,23.45 26.3625,23.4625 26.4375,23.5375 L32.175,29.475 C32.25,29.55 32.2625,29.6375 32.2625,29.7 C32.2625,29.75 32.25,29.85 32.15,29.9375 L28.3375,33.625 C28.275,33.6875 28.1875,33.725 28.0625,33.725 C28.0625,33.725 28.05,33.725 28.05,33.725 C20.925,32.5875 14.0375,25.5625 13.975,25.4875 C13.9,25.4125 7.0625,18.275 6.225,11.1875 C6.225,11.125 6.225,10.975 6.3375,10.875 L10.15,7.1875 C10.225,7.1125 10.3125,7.0875 10.375,7.0875 L10.375,7.0875 Z M10.375,5.8375 C9.975,5.8375 9.575,5.9875 9.2625,6.2875 L5.4625,9.975 C5.0875,10.3375 4.925,10.8375 4.9875,11.35 C5.8875,18.9375 13.075,26.375 13.075,26.375 C13.075,26.375 20.2125,33.75 27.85,34.975 C27.925,34.9875 28.0125,34.9875 28.0875,34.9875 C28.5,34.9875 28.9,34.825 29.2,34.525 L33.0125,30.8375 C33.6375,30.225 33.6625,29.225 33.0625,28.6125 L27.325,22.675 C27.025,22.3625 26.6125,22.2 26.2,22.2 C25.8,22.2 25.4,22.35 25.0875,22.65 L22.55,25.1125 C22.55,25.1125 19.425,23.725 17.675,21.9125 C15.9125,20.1 14.6375,16.925 14.6375,16.925 L17.175,14.4625 C17.8,13.85 17.825,12.85 17.225,12.2375 L11.5,6.3125 C11.2,6 10.7875,5.8375 10.375,5.8375 L10.375,5.8375 Z" id="Shape" fill="#FFFFFF" fill-rule="nonzero"></path>
                    <path d="M30,14.9875 C29.3125,14.9875 28.75,15.55 28.75,16.2375 C28.75,16.925 29.3125,17.4875 30,17.4875 C30.6875,17.4875 31.25,16.925 31.25,16.2375 C31.25,15.55 30.6875,14.9875 30,14.9875 L30,14.9875 Z" id="Path" fill="#FFFFFF" fill-rule="nonzero"></path>
                    <path d="M26.25,14.9875 C25.5625,14.9875 25,15.55 25,16.2375 C25,16.925 25.5625,17.4875 26.25,17.4875 C26.9375,17.4875 27.5,16.925 27.5,16.2375 C27.5,15.55 26.95,14.9875 26.25,14.9875 L26.25,14.9875 Z" id="Path" fill="#FFFFFF" fill-rule="nonzero"></path>
                    <path d="M22.5,14.9875 C21.8125,14.9875 21.25,15.55 21.25,16.2375 C21.25,16.925 21.8125,17.4875 22.5,17.4875 C23.1875,17.4875 23.75,16.925 23.75,16.2375 C23.75,15.55 23.2,14.9875 22.5,14.9875 L22.5,14.9875 Z" id="Path" fill="#FFFFFF" fill-rule="nonzero"></path>
                    <rect id="Rectangle" x="0" y="0" width="40" height="40"></rect>
                </g>
            </g>
        </g>
    </g>
</svg>