<?xml version="1.0" encoding="UTF-8"?>
<svg width="80px" height="80px" viewBox="0 0 80 80" version="1.1" xmlns="http://www.w3.org/2000/svg" xmlns:xlink="http://www.w3.org/1999/xlink">
    <!-- Generator: Sketch 57.1 (83088) - https://sketch.com -->
    <title>175-W80px</title>
    <desc>Created with Sketch.</desc>
    <g id="NEW_icons" stroke="none" stroke-width="1" fill="none" fill-rule="evenodd">
        <g id="icons_UD_new-Copy" transform="translate(-2151.000000, -22319.000000)">
            <g id="175-W80px" transform="translate(2151.000000, 22319.000000)">
                <circle id="Oval-Copy-1018" fill="#101828" cx="40" cy="40" r="40"></circle>
                <g id="175-B32px-Copy-8" transform="translate(12.000000, 12.000000)">
                    <polygon id="Path" fill="#FFFFFF" fill-rule="nonzero" points="48.9475 49 35.3325 37.3625 36.47 36.0325 49 46.725"></polygon>
                    <path d="M24.5,8.75 C33.18,8.75 40.25,15.82 40.25,24.5 C40.25,33.18 33.18,40.25 24.5,40.25 C15.82,40.25 8.75,33.18 8.75,24.5 C8.75,15.82 15.82,8.75 24.5,8.75 L24.5,8.75 Z M24.5,7 C14.84,7 7,14.84 7,24.5 C7,34.16 14.84,42 24.5,42 C34.16,42 42,34.16 42,24.5 C42,14.84 34.16,7 24.5,7 L24.5,7 Z" id="Shape" fill="#FFFFFF" fill-rule="nonzero"></path>
                    <g id="Group" transform="translate(19.250000, 17.500000)" fill="#FFFFFF" fill-rule="nonzero">
                        <path d="M3.5,15.75 L1.75,15.75 L1.75,8.75 L0,8.75 L0,7 L1.75,7 L1.75,0 L7.945,0 C10.325,0 12.25,1.925 12.25,4.305 C12.25,6.755 10.255,8.75 7.805,8.75 L3.5,8.75 L3.5,15.75 Z M3.5,7 L7.805,7 C9.2925,7 10.5,5.7925 10.5,4.305 C10.5,2.8875 9.345,1.75 7.945,1.75 L3.5,1.75 L3.5,7 Z" id="Shape"></path>
                        <rect id="Rectangle" x="0" y="10.5" width="8.75" height="1.75"></rect>
                    </g>
                    <rect id="Rectangle" x="0" y="0" width="56" height="56"></rect>
                </g>
            </g>
        </g>
    </g>
</svg>