<?xml version="1.0" encoding="UTF-8"?>
<svg width="56px" height="56px" viewBox="0 0 56 56" version="1.1" xmlns="http://www.w3.org/2000/svg" xmlns:xlink="http://www.w3.org/1999/xlink">
    <!-- Generator: Sketch 58 (84663) - https://sketch.com -->
    <title>253-W56px</title>
    <desc>Created with Sketch.</desc>
    <g id="NEW_icons" stroke="none" stroke-width="1" fill="none" fill-rule="evenodd">
        <g id="icons_UD_new-Copy" transform="translate(-1814.000000, -32144.000000)">
            <g id="253-W56px" transform="translate(1814.000000, 32144.000000)">
                <circle id="Oval-Copy-1457" fill="#101828" cx="28" cy="28" r="28"></circle>
                <g id="253-B32px-Copy" transform="translate(8.000000, 8.000000)">
                    <path d="M22.4875,28.3375 L22.4875,28.1 C17.4,26.25 13.025,21.8 12.975,21.75 C12.9125,21.6875 7.075,15.575 6.3625,9.5625 C6.3625,9.525 6.3625,9.4625 6.4,9.425 L9.675,6.2625 C9.7,6.2375 9.725,6.225 9.7625,6.225 C9.8,6.225 9.825,6.25 9.825,6.25 L14.7625,11.35 C14.8,11.3875 14.7875,11.4625 14.75,11.5 L12.5625,13.6125 L11.9625,14.2 L12.275,14.975 C12.325,15.1 13.4875,17.9375 15.15,19.65 C16.8125,21.3625 19.6125,22.625 19.7375,22.675 L20.5125,23.0125 L21.1125,22.425 L23.3,20.3125 C23.325,20.2875 23.35,20.275 23.3875,20.275 C23.425,20.275 23.45,20.3 23.45,20.3 L24.5625,21.45 C24.8875,21.175 25.2375,20.9375 25.625,20.75 L24.35,19.4375 C24.0875,19.1625 23.7375,19.025 23.3875,19.025 C23.05,19.025 22.7,19.15 22.4375,19.4125 L20.25,21.525 C20.25,21.525 17.575,20.3375 16.0625,18.775 C14.55,17.2125 13.45,14.5 13.45,14.5 L15.6375,12.3875 C16.175,11.8625 16.2,11.0125 15.675,10.475 L10.725,5.375 C10.4625,5.1125 10.1125,4.975 9.7625,4.975 C9.425,4.975 9.075,5.1 8.8125,5.3625 L5.5375,8.525 C5.225,8.8375 5.075,9.2625 5.1375,9.7 C5.9125,16.225 12.0875,22.6 12.0875,22.6 C12.0875,22.6 16.8125,27.4875 22.4125,29.3875 C22.45,29.0375 22.4875,28.675 22.4875,28.3375 Z" id="Path" fill="#FFFFFF" fill-rule="nonzero"></path>
                    <path d="M21.3625,32.0625 L21.3625,30.8125 C23.3125,30.8 23.7375,29.0625 23.7625,27.625 L23.7875,25.6125 C23.8125,23.2125 25.825,21.25 28.2625,21.25 C28.2625,21.25 28.2625,21.25 28.275,21.25 C30.7375,21.25 32.75,23.2375 32.75,25.6625 L32.75,27.625 C32.75,29.075 33.1625,30.8125 35.1375,30.825 L35.1375,32.075 L21.3625,32.0625 Z M28.2625,22.5 C26.5,22.5 25.05,23.9 25.0375,25.625 L25.0125,27.6375 C25,28.975 24.6625,30.0625 24.075,30.8125 L32.4,30.8125 C31.8125,30.05 31.4875,28.9625 31.4875,27.6125 L31.4875,25.65 C31.4875,23.9125 30.0375,22.5 28.2625,22.5 C28.2625,22.5 28.2625,22.5 28.2625,22.5 Z" id="Shape" fill="#FFFFFF" fill-rule="nonzero"></path>
                    <path d="M28.25,34.9875 C28.2375,34.9875 28.2375,34.9875 28.25,34.9875 C27.3,34.9875 26.4125,34.625 25.7375,33.9625 C25.0625,33.3 24.7,32.425 24.7,31.4875 L25.95,31.4875 C25.95,32.0875 26.1875,32.6375 26.6125,33.0625 C27.0375,33.4875 27.625,33.725 28.2375,33.725 C28.2375,33.725 28.2375,33.725 28.25,33.725 C28.8625,33.725 29.4375,33.4875 29.8625,33.075 C30.2875,32.65 30.5375,32.1 30.5375,31.5 L31.7875,31.5 C31.7875,32.4375 31.4125,33.3125 30.7375,33.9625 C30.0625,34.6375 29.1875,34.9875 28.25,34.9875 Z" id="Path" fill="#FFFFFF" fill-rule="nonzero"></path>
                    <rect id="Rectangle" x="0" y="0" width="40" height="40"></rect>
                </g>
            </g>
        </g>
    </g>
</svg>