<?xml version="1.0" encoding="UTF-8"?>
<svg width="40px" height="40px" viewBox="0 0 40 40" version="1.1" xmlns="http://www.w3.org/2000/svg" xmlns:xlink="http://www.w3.org/1999/xlink">
    <!-- Generator: Sketch 57.1 (83088) - https://sketch.com -->
    <title>058-B40px</title>
    <desc>Created with Sketch.</desc>
    <g id="058-B40px" stroke="none" stroke-width="1" fill="none" fill-rule="evenodd">
        <g>
            <path d="M19.3875,8.75 L19.4125,10 C22.2,10.0125 24.675,11.8 25.75,14.5625 L26.0875,15.4375 L27.025,15.3625 C27.1875,15.35 27.35,15.3375 27.525,15.3375 C29.175,15.3375 30.7375,16.0375 31.9125,17.2875 C33.1,18.5625 33.75,20.25 33.75,22.0625 C33.7375,25.75 30.9375,28.75 27.475,28.75 L13.0375,28.7125 L13.0375,28.7125 L11.875,28.7125 L11.8125,28.7125 L11.8125,28.7125 C8.725,28.675 6.2375,25.9625 6.2499531,22.65 C6.2625,19.45 8.6,16.8125 11.5625,16.6375 L12.5,16.5875 L12.7,15.6625 C13.4625,12.325 16.2,10 19.3875,10 L19.3875,8.75 L19.3875,8.75 Z M19.3875,8.75 C15.55,8.75 12.3375,11.575 11.4875,15.375 C7.8875,15.5875 5.0125,18.75 4.99996187,22.6375 C4.9875,26.6625 8.05,29.9375 11.85,29.95 C11.85,29.95 11.85,29.95 11.85,29.95 C11.8625,29.95 11.8625,29.95 11.875,29.95 C11.875,29.95 11.875,29.95 11.875,29.95 L11.875,29.95 L27.475,30 C27.4875,30 27.4875,30 27.5,30 C31.6375,30 34.9875,26.45 35.0000349,22.0625 C35.0125,17.6625 31.6625,14.0875 27.525,14.075 C27.525,14.075 27.5125,14.075 27.5125,14.075 C27.3125,14.075 27.1125,14.0875 26.9125,14.1 C25.7,10.9625 22.8125,8.75 19.4125,8.7375 C19.4125,8.75 19.4,8.75 19.3875,8.75 L19.3875,8.75 Z" id="Shape" fill="#101828" fill-rule="nonzero"></path>
            <path d="M23.3,24.9625 C22.5,24.9625 21.75,24.6375 21.2,24.025 L20,22.75 L18.8125,24.025 C17.6875,25.225 15.725,25.225 14.6,24.025 C13.475,22.8125 13.475,20.85 14.6,19.6375 C15.725,18.4375 17.6875,18.4375 18.8125,19.6375 L20,20.9125 L21.1875,19.6375 C22.3125,18.4375 24.275,18.4375 25.4,19.6375 C26.525,20.85 26.525,22.8125 25.4,24.025 C24.8375,24.6375 24.0875,24.9625 23.3,24.9625 Z M20.85,21.8375 L22.1,23.1875 C22.7375,23.875 23.8375,23.875 24.475,23.1875 C25.1625,22.45 25.1625,21.2375 24.475,20.5 C23.8375,19.8125 22.7375,19.8125 22.1,20.5 L20.85,21.8375 Z M16.7,19.9625 C16.25,19.9625 15.825,20.15 15.5125,20.5 C14.825,21.2375 14.825,22.45 15.5125,23.1875 C16.15,23.875 17.25,23.875 17.8875,23.1875 L19.1375,21.8375 L17.8875,20.5 C17.575,20.15 17.15,19.9625 16.7,19.9625 Z" id="Shape" fill="#101828" fill-rule="nonzero"></path>
            <rect id="Rectangle" x="0" y="0" width="40" height="40"></rect>
        </g>
    </g>
</svg>