<?xml version="1.0" encoding="UTF-8"?>
<svg width="80px" height="80px" viewBox="0 0 80 80" version="1.1" xmlns="http://www.w3.org/2000/svg" xmlns:xlink="http://www.w3.org/1999/xlink">
    <!-- Generator: Sketch 57.1 (83088) - https://sketch.com -->
    <title>166-C80px</title>
    <desc>Created with Sketch.</desc>
    <g id="NEW_icons" stroke="none" stroke-width="1" fill="none" fill-rule="evenodd">
        <g id="icons_UD_new-Copy" transform="translate(-1002.000000, -21319.000000)">
            <g id="166-C80px" transform="translate(1002.000000, 21319.000000)">
                <circle id="Oval-Copy-956" fill="#FF4F12" cx="40" cy="40" r="40"></circle>
                <g id="166-B32px-Copy-8" transform="translate(12.000000, 12.000000)">
                    <g id="Group-2" transform="translate(7.350000, 5.504546)" fill="#FFFFFF" fill-rule="nonzero">
                        <g id="Group">
                            <path d="M32.55,26.3025 L32.3225,25.585 C32.165,25.13 31.675,24.955 31.3425,24.815 C30.9925,24.675 30.8875,24.255 31.0975,24.0975 C31.64,23.7475 32.2175,23.45 32.8125,23.205 C34.23,22.5225 32.375,22.26 31.5,21.665 C31.045,21.35 30.6775,20.93 30.4675,20.4225 C30.4675,20.37 30.4675,20.335 30.4675,20.2825 L23.8525,1.4875 L17.5,1.4875 L10.9025,20.1075 L10.9025,20.23 C10.9025,20.23 10.4475,21.245 11.0075,21.6825 C11.5675,22.12 12.32,22.4875 11.0075,23.17 C9.695,23.8525 9.03,24.0625 8.8025,24.2025 C8.575,24.3425 8.4525,24.6925 8.8025,24.7625 C9.1525,24.85 9.17,25.235 8.995,25.69 L8.715,26.39 L5.7925,34.685 L12.0925,34.685 L14.9975,26.39 L15.295,25.725 C15.47,25.27 15.47,24.85 15.085,24.7975 C14.7,24.7275 14.805,24.395 15.085,24.2375 C15.365,24.08 15.8725,23.8875 17.3075,23.205 C18.725,22.5225 17.815,22.05 17.3075,21.7175 C16.8,21.35 17.2025,20.23 17.2025,20.23 L20.65,10.465 L24.3075,20.8425 L18.935,20.8425 C18.8475,21.1575 18.9525,21.49 19.1975,21.7 C19.6525,22.05 20.51,22.505 19.1975,23.1875 C17.8675,23.87 17.22,24.08 16.975,24.22 C16.73,24.36 16.66,24.71 16.975,24.78 C17.29,24.8675 17.36,25.27 17.185,25.725 C17.01,26.18 16.835,26.74 16.835,26.74 L26.4075,26.74 L29.2075,34.72 L35.5075,34.72 L32.55,26.3725 L32.55,26.3025 Z" id="Path"></path>
                            <polygon id="Path" points="12.0575 37.38 13.3875 37.38 13.3875 43.435 12.0575 43.435"></polygon>
                            <polygon id="Path" points="12.3025 37.38 15.68 37.38 15.68 38.71 12.3025 38.71"></polygon>
                            <polygon id="Path" points="12.3025 39.7425 15.2075 39.7425 15.2075 41.0725 12.3025 41.0725"></polygon>
                            <polygon id="Path" points="12.3025 42.105 15.68 42.105 15.68 43.435 12.3025 43.435"></polygon>
                            <polygon id="Path" points="24.5175 37.38 25.8475 37.38 25.8475 43.435 24.5175 43.435"></polygon>
                            <polygon id="Path" points="21.77 37.38 21.77 37.415 20.0025 39.8475 18.1125 37.38 16.7825 37.38 16.7825 43.435 18.1125 43.435 18.1125 39.69 19.9675 41.9825 21.77 39.7425 21.77 43.435 23.1 43.435 23.1 37.38"></polygon>
                            <polygon id="Path" points="38.6225 37.38 38.6225 37.415 36.855 39.8475 34.965 37.38 33.635 37.38 33.635 43.435 34.965 43.435 34.965 39.69 36.82 41.9825 38.6225 39.7425 38.6225 43.435 39.9525 43.435 39.9525 37.38"></polygon>
                            <path d="M31.955,37.38 L30.905,37.38 L30.905,41.1425 C30.835,41.7375 30.3275,42.21 29.7325,42.21 C29.12,42.21 28.6125,41.755 28.56,41.1425 L28.56,37.38 L27.23,37.38 L27.23,41.1425 C27.3175,42.4725 28.42,43.4875 29.75,43.4875 C31.08,43.4875 32.1825,42.455 32.27,41.1425 L32.27,37.38 L31.955,37.38 Z" id="Path"></path>
                            <path d="M9.7125,43.435 L11.55,43.435 L9.695,41.055 C10.4825,40.6175 10.885,39.7075 10.6575,38.85 C10.43,37.975 9.6425,37.38 8.7325,37.3975 L6.58,37.3975 L6.58,43.4525 L7.8925,43.4525 L7.8925,41.3 L8.085,41.3 L9.7125,43.435 Z M9.45,39.27 C9.45,39.7075 9.0825,40.075 8.645,40.075 L7.91,40.075 L7.91,38.465 L8.645,38.465 C9.0825,38.465 9.45,38.8325 9.45,39.27 Z" id="Shape"></path>
                            <path d="M5.3375,40.0575 C5.3375,40.075 5.3375,40.11 5.3375,40.145 C5.32,40.11 5.32,40.075 5.3375,40.0575 Z" id="Path"></path>
                            <path d="M3.5175,37.38 L1.365,37.38 L1.365,43.435 L2.6775,43.435 L2.6775,41.3 L3.5,41.3 C3.8675,41.3 4.235,41.195 4.5325,41.0025 L4.6375,41.0025 L4.7075,41.0025 L4.9,40.81 L5.04,40.6525 L5.04,40.6525 L5.1275,40.53 L5.2675,40.3025 C5.2675,40.285 5.2675,40.25 5.2675,40.215 C5.355,39.9875 5.4075,39.7425 5.4075,39.4975 C5.46,38.955 5.285,38.43 4.935,38.0275 C4.55,37.6425 4.0425,37.3975 3.5175,37.38 Z M3.4125,40.075 L2.6775,40.075 L2.6775,38.465 L3.4125,38.465 C3.85,38.465 4.2175,38.8325 4.2175,39.27 C4.2175,39.3225 4.2175,39.375 4.2175,39.4275 C4.1475,39.8125 3.815,40.0925 3.4125,40.075 Z" id="Shape"></path>
                        </g>
                    </g>
                    <rect id="Rectangle" x="0" y="0" width="56" height="56"></rect>
                </g>
            </g>
        </g>
    </g>
</svg>