<?xml version="1.0" encoding="UTF-8"?>
<svg width="40px" height="40px" viewBox="0 0 40 40" version="1.1" xmlns="http://www.w3.org/2000/svg" xmlns:xlink="http://www.w3.org/1999/xlink">
    <!-- Generator: Sketch 57.1 (83088) - https://sketch.com -->
    <title>173-B40px</title>
    <desc>Created with Sketch.</desc>
    <g id="173-B40px" stroke="none" stroke-width="1" fill="none" fill-rule="evenodd">
        <g>
            <path d="M33.725,12.5 L33.75,12.525 L33.725,26.2625 L6.25,26.2375 L6.275,12.5 L33.725,12.5 L33.725,12.5 Z M33.725,11.25 L6.275,11.25 C5.575,11.25 5,11.825 5,12.525 L5,26.2375 C5,26.9375 5.575,27.5125 6.275,27.5125 L33.725,27.5125 C34.425,27.5125 35,26.9375 35,26.2375 L35,12.525 C35,11.825 34.425,11.25 33.725,11.25 L33.725,11.25 Z" id="Shape" fill="#101828" fill-rule="nonzero"></path>
            <path d="M19.9875,27.425 C14.6,27.425 10.5625,28.25 8.7625,28.7 L8.7625,29.9875 C10.3125,29.5875 14.4375,28.675 19.9875,28.675 C25.5875,28.675 29.75,29.6 31.2625,30 L31.2625,28.7125 C29.475,28.2625 25.425,27.425 19.9875,27.425 Z" id="Path" fill="#101828" fill-rule="nonzero"></path>
            <polygon id="Path" fill="#101828" fill-rule="nonzero" points="14.9625 16.25 14.9625 17.5 14.9625 22.5 16.2125 22.5 16.2125 16.25"></polygon>
            <polygon id="Path" fill="#101828" fill-rule="nonzero" points="14.95 16.25 14.925 16.275 13.2875 17.8625 14.1625 18.75 16.125 16.85 15.525 16.25"></polygon>
            <path d="M19.3375,20 C19.6875,20 19.9625,20.275 19.9625,20.625 C19.9625,20.975 19.6875,21.25 19.3375,21.25 C18.9875,21.25 18.7125,20.975 18.7125,20.625 C18.7125,20.275 18.9875,20 19.3375,20 L19.3375,20 Z M19.3375,18.75 C18.3,18.75 17.4625,19.5875 17.4625,20.625 C17.4625,21.6625 18.3,22.5 19.3375,22.5 C20.375,22.5 21.2125,21.6625 21.2125,20.625 C21.2125,19.5875 20.375,18.75 19.3375,18.75 L19.3375,18.75 Z" id="Shape" fill="#101828" fill-rule="nonzero"></path>
            <path d="M19.3375,17.5 C19.6875,17.5 19.9625,17.775 19.9625,18.125 C19.9625,18.475 19.6875,18.75 19.3375,18.75 C18.9875,18.75 18.7125,18.475 18.7125,18.125 C18.7125,17.775 18.9875,17.5 19.3375,17.5 L19.3375,17.5 Z M19.3375,16.25 C18.3,16.25 17.4625,17.0875 17.4625,18.125 C17.4625,19.1625 18.3,20 19.3375,20 C20.375,20 21.2125,19.1625 21.2125,18.125 C21.2125,17.0875 20.375,16.25 19.3375,16.25 L19.3375,16.25 Z" id="Shape" fill="#101828" fill-rule="nonzero"></path>
            <polygon id="Path" fill="#101828" fill-rule="nonzero" points="23.7125 17.5 24.9625 17.5 24.9625 18.75 26.2125 18.75 26.2125 20 24.9625 20 24.9625 21.25 23.7125 21.25 23.7125 20 22.4625 20 22.4625 18.75 23.7125 18.75"></polygon>
            <rect id="Rectangle" x="0" y="0" width="40" height="40"></rect>
        </g>
    </g>
</svg>