<?xml version="1.0" encoding="UTF-8"?>
<svg width="56px" height="56px" viewBox="0 0 56 56" version="1.1" xmlns="http://www.w3.org/2000/svg" xmlns:xlink="http://www.w3.org/1999/xlink">
    <!-- Generator: Sketch 57.1 (83088) - https://sketch.com -->
    <title>083-B56px</title>
    <desc>Created with Sketch.</desc>
    <g id="083-B56px" stroke="none" stroke-width="1" fill="none" fill-rule="evenodd">
        <g>
            <path d="M28,26.25 L28,29.75 L26.25,29.75 L26.25,26.25 L28,26.25 L28,26.25 Z M28,24.5 L26.25,24.5 C25.2875,24.5 24.5,25.2875 24.5,26.25 L24.5,29.75 C24.5,30.7125 25.2875,31.5 26.25,31.5 L28,31.5 C28.9625,31.5 29.75,30.7125 29.75,29.75 L29.75,26.25 C29.75,25.2875 28.9625,24.5 28,24.5 L28,24.5 Z" id="Shape" fill="#101828" fill-rule="nonzero"></path>
            <path d="M34.5625,23.695 L34.5625,23.695 C34.9825,25.655 35.315,28.7525 34.5625,32.2875 L29.6975,29.33 L29.6975,26.635 L34.5625,23.695 C34.545,23.695 34.545,23.695 34.5625,23.695 L34.5625,23.695 Z M34.5625,21.945 C34.2475,21.945 33.9325,22.0325 33.635,22.2075 L27.965,25.655 L27.965,30.3275 L33.67,33.7925 C33.95,33.9675 34.265,34.055 34.58,34.055 C35.35,34.055 36.1025,33.5475 36.2775,32.7075 C37.1175,28.8225 36.75,25.4625 36.3125,23.345 C36.1025,22.4875 35.35,21.945 34.5625,21.945 L34.5625,21.945 Z" id="Shape" fill="#101828" fill-rule="nonzero"></path>
            <path d="M19.6875,21.945 L19.6875,23.695 L24.5,26.6525 L24.5,29.365 L19.705,32.34 C18.935,28.77 19.2675,25.6725 19.67,23.695 C19.67,23.695 19.67,23.695 19.6875,23.695 L19.6875,21.945 L19.6875,21.945 Z M19.6875,21.945 C18.9,21.945 18.1475,22.4875 17.9725,23.345 C17.535,25.4625 17.1675,28.8225 18.0075,32.7075 C18.1825,33.53 18.9175,34.055 19.6875,34.055 C19.985,34.055 20.3,33.9675 20.58,33.7925 L26.25,30.3275 L26.25,25.655 L20.5975,22.2075 C20.3175,22.0325 19.985,21.945 19.6875,21.945 L19.6875,21.945 Z" id="Shape" fill="#101828" fill-rule="nonzero"></path>
            <polygon id="Path" fill="#101828" fill-rule="nonzero" points="26.25 27.125 22.75 27.125 22.75 28.875 26.25 28.875"></polygon>
            <polygon id="Path" fill="#101828" fill-rule="nonzero" points="31.5 27.125 28 27.125 28 28.875 31.5 28.875"></polygon>
            <path d="M17.5,26.25 L17.5,29.75 L14,29.75 L14,26.25 L17.5,26.25 L17.5,26.25 Z M17.5,24.5 L14,24.5 C13.0375,24.5 12.25,25.2875 12.25,26.25 L12.25,29.75 C12.25,30.7125 13.0375,31.5 14,31.5 L17.5,31.5 C18.4625,31.5 19.25,30.7125 19.25,29.75 L19.25,26.25 C19.25,25.2875 18.4625,24.5 17.5,24.5 L17.5,24.5 Z" id="Shape" fill="#101828" fill-rule="nonzero"></path>
            <path d="M40.25,26.25 L40.25,29.75 L36.75,29.75 L36.75,26.25 L40.25,26.25 L40.25,26.25 Z M40.25,24.5 L36.75,24.5 C35.7875,24.5 35,25.2875 35,26.25 L35,29.75 C35,30.7125 35.7875,31.5 36.75,31.5 L40.25,31.5 C41.2125,31.5 42,30.7125 42,29.75 L42,26.25 C42,25.2875 41.2125,24.5 40.25,24.5 L40.25,24.5 Z" id="Shape" fill="#101828" fill-rule="nonzero"></path>
            <g id="Group" transform="translate(14.000000, 7.000000)" fill="#101828" fill-rule="nonzero">
                <path d="M24.5,39.725 C24.5,40.04 24.29,40.25 24.115,40.25 L2.275,40.25 C1.995,40.25 1.75,39.935 1.75,39.5675 L1.75,26.25 L0,26.25 L0,39.5675 C0,40.915 1.015,42 2.275,42 L24.115,42 C25.2875,42 26.25,40.985 26.25,39.725 L26.25,26.25 L24.5,26.25 L24.5,39.725 Z" id="Path"></path>
                <path d="M24.0975,0 L7.2975,0 L0,7.77 L0,15.75 L1.75,15.75 L1.75,8.47 L8.05,1.75 L24.0975,1.75 C24.29,1.75 24.5,1.9775 24.5,2.2925 L24.5,15.75 L26.25,15.75 L26.25,2.2925 C26.25,1.0325 25.2875,0 24.0975,0 Z" id="Path"></path>
            </g>
            <rect id="Rectangle" x="0" y="0" width="56" height="56"></rect>
        </g>
    </g>
</svg>