<?xml version="1.0" encoding="UTF-8"?>
<svg width="80px" height="80px" viewBox="0 0 80 80" version="1.1" xmlns="http://www.w3.org/2000/svg" xmlns:xlink="http://www.w3.org/1999/xlink">
    <!-- Generator: Sketch 56.3 (81716) - https://sketch.com -->
    <title>034-W80px</title>
    <desc>Created with Sketch.</desc>
    <g id="NEW_icons" stroke="none" stroke-width="1" fill="none" fill-rule="evenodd">
        <g id="icons_UD_new-Copy" transform="translate(-869.000000, -4593.000000)">
            <g id="034-W80px" transform="translate(869.000000, 4593.000000)">
                <circle id="Oval-Copy-284" fill="#101828" cx="40" cy="40" r="40"></circle>
                <g id="034-B32px-Copy-7" transform="translate(12.000000, 12.000000)">
                    <path d="M47.25,12.25 L29.75,12.25 L29.75,8.75 L7,12.25 L7,43.75 L29.75,47.25 L29.75,43.75 L47.25,43.75 C48.2125,43.75 49,42.9625 49,42 L49,14 C49,13.0375 48.2125,12.25 47.25,12.25 Z M22.2075,34.9475 L19.565,34.6675 C19.285,33.1275 18.9875,31.675 18.69,30.17 L17.6575,25.725 L15.75,34.4925 L13.405,34.37 L11.095,21.665 L13.3175,21.63 L14.8225,30.3975 L16.6075,21.3325 L19.1275,21.1925 L21,30.765 L22.8025,20.895 L25.2875,20.8075 L22.2075,34.9475 Z M47.25,42 L29.75,42 L29.75,38.5 L43.75,38.5 L43.75,36.75 L29.75,36.75 L29.75,34.65 L43.75,34.65 L43.75,32.9 L29.75,32.9 L29.75,30.8 L43.75,30.8 L43.75,29.05 L29.75,29.05 L29.75,26.95 L43.75,26.95 L43.75,25.2 L29.75,25.2 L29.75,23.1 L43.75,23.1 L43.75,21.35 L29.75,21.35 L29.75,19.25 L43.75,19.25 L43.75,17.5 L29.75,17.5 L29.75,14 L47.25,14 L47.25,42 Z" id="Shape" fill="#FFFFFF"></path>
                    <rect id="Rectangle" x="0" y="0" width="56" height="56"></rect>
                </g>
            </g>
        </g>
    </g>
</svg>