<?xml version="1.0" encoding="UTF-8"?>
<svg width="80px" height="80px" viewBox="0 0 80 80" version="1.1" xmlns="http://www.w3.org/2000/svg" xmlns:xlink="http://www.w3.org/1999/xlink">
    <!-- Generator: Sketch 57.1 (83088) - https://sketch.com -->
    <title>173-B80px</title>
    <desc>Created with Sketch.</desc>
    <g id="173-B80px" stroke="none" stroke-width="1" fill="none" fill-rule="evenodd">
        <g>
            <path d="M67.45,25 L67.5,25.05 L67.45,52.525 L12.5,52.475 L12.55,25 L67.45,25 L67.45,25 Z M67.45,22.5 L12.55,22.5 C11.15,22.5 10,23.65 10,25.05 L10,52.475 C10,53.875 11.15,55.025 12.55,55.025 L67.45,55.025 C68.85,55.025 70,53.875 70,52.475 L70,25.05 C70,23.65 68.85,22.5 67.45,22.5 L67.45,22.5 Z" id="Shape" fill="#101828" fill-rule="nonzero"></path>
            <path d="M39.975,54.85 C29.2,54.85 21.125,56.5 17.525,57.4 L17.525,59.975 C20.625,59.175 28.875,57.35 39.975,57.35 C51.175,57.35 59.5,59.2 62.525,60 L62.525,57.425 C58.95,56.525 50.85,54.85 39.975,54.85 Z" id="Path" fill="#101828" fill-rule="nonzero"></path>
            <polygon id="Path" fill="#101828" fill-rule="nonzero" points="29.925 32.5 29.925 35 29.925 45 32.425 45 32.425 32.5"></polygon>
            <polygon id="Path" fill="#101828" fill-rule="nonzero" points="29.9 32.5 29.85 32.55 26.575 35.725 28.325 37.5 32.25 33.7 31.05 32.5"></polygon>
            <path d="M38.675,40 C39.375,40 39.925,40.55 39.925,41.25 C39.925,41.95 39.375,42.5 38.675,42.5 C37.975,42.5 37.425,41.95 37.425,41.25 C37.425,40.55 37.975,40 38.675,40 L38.675,40 Z M38.675,37.5 C36.6,37.5 34.925,39.175 34.925,41.25 C34.925,43.325 36.6,45 38.675,45 C40.75,45 42.425,43.325 42.425,41.25 C42.425,39.175 40.75,37.5 38.675,37.5 L38.675,37.5 Z" id="Shape" fill="#101828" fill-rule="nonzero"></path>
            <path d="M38.675,35 C39.375,35 39.925,35.55 39.925,36.25 C39.925,36.95 39.375,37.5 38.675,37.5 C37.975,37.5 37.425,36.95 37.425,36.25 C37.425,35.55 37.975,35 38.675,35 L38.675,35 Z M38.675,32.5 C36.6,32.5 34.925,34.175 34.925,36.25 C34.925,38.325 36.6,40 38.675,40 C40.75,40 42.425,38.325 42.425,36.25 C42.425,34.175 40.75,32.5 38.675,32.5 L38.675,32.5 Z" id="Shape" fill="#101828" fill-rule="nonzero"></path>
            <polygon id="Path" fill="#101828" fill-rule="nonzero" points="47.425 35 49.925 35 49.925 37.5 52.425 37.5 52.425 40 49.925 40 49.925 42.5 47.425 42.5 47.425 40 44.925 40 44.925 37.5 47.425 37.5"></polygon>
            <rect id="Rectangle" x="0" y="0" width="80" height="80"></rect>
        </g>
    </g>
</svg>