<?xml version="1.0" encoding="UTF-8"?>
<svg width="56px" height="56px" viewBox="0 0 56 56" version="1.1" xmlns="http://www.w3.org/2000/svg" xmlns:xlink="http://www.w3.org/1999/xlink">
    <!-- Generator: Sketch 57.1 (83088) - https://sketch.com -->
    <title>225-W56px</title>
    <desc>Created with Sketch.</desc>
    <g id="NEW_icons" stroke="none" stroke-width="1" fill="none" fill-rule="evenodd">
        <g id="icons_UD_new-Copy" transform="translate(-1814.000000, -28627.000000)">
            <g id="225-W56px" transform="translate(1814.000000, 28627.000000)">
                <circle id="Oval-Copy-1421" fill="#101828" cx="28" cy="28" r="28"></circle>
                <g id="225-B32px-Copy-4" transform="translate(8.000000, 10.000000)">
                    <path d="M20.0875,11.25 C21.4125,11.25 22.5,12.3375 22.5,13.6625 L22.5,15 L17.5,15 L17.5,13.6625 C17.5,12.3375 18.5875,11.25 19.9125,11.25 L20.0875,11.25 L20.0875,11.25 Z M20.0875,10 L19.925,10 C17.8875,10 16.25,11.6375 16.25,13.6625 L16.25,16.25 L23.75,16.25 L23.75,13.6625 C23.75,11.6375 22.1125,10 20.0875,10 L20.0875,10 Z" id="Shape" fill="#FFFFFF" fill-rule="nonzero"></path>
                    <path d="M23.75,16.25 L23.75,23.75 L16.25,23.75 L16.25,16.25 L23.75,16.25 L23.75,16.25 Z M23.8,15 L16.2,15 C15.5375,15 15,15.5375 15,16.2 L15,23.8125 C15,24.475 15.5375,25.0125 16.2,25.0125 L23.8,25.0125 C24.4625,25.0125 25,24.475 25,23.8125 L25,16.2 C25,15.5375 24.4625,15 23.8,15 L23.8,15 Z" id="Shape" fill="#FFFFFF" fill-rule="nonzero"></path>
                    <path d="M20,21.25 C19.65,21.25 19.375,20.975 19.375,20.625 L19.375,19.375 C19.375,19.025 19.65,18.75 20,18.75 C20.35,18.75 20.625,19.025 20.625,19.375 L20.625,20.625 C20.625,20.975 20.35,21.25 20,21.25 Z" id="Path" fill="#FFFFFF" fill-rule="nonzero"></path>
                    <path d="M33.75,6.25 L33.75,8.75 C33.75,12.6625 32.9375,18.4875 31.5875,21.475 C29.725,25.575 26.225,30.975 20,33.65 C13.775,30.975 10.2625,25.575 8.4125,21.475 C7.0625,18.4875 6.25,12.65 6.25,8.75 L6.25,6.25 L33.75,6.25 L33.75,6.25 Z M35,5 L5,5 L5,8.75 C5,12.45 5.75,18.6125 7.275,21.9875 C9.3625,26.6 13.2,32.275 20,35 C26.8,32.275 30.6375,26.6 32.725,21.9875 C34.25,18.6125 35,12.45 35,8.75 L35,5 L35,5 Z" id="Shape" fill="#FFFFFF" fill-rule="nonzero"></path>
                    <rect id="Rectangle" x="0" y="0" width="40" height="40"></rect>
                </g>
            </g>
        </g>
    </g>
</svg>