<?xml version="1.0" encoding="UTF-8"?>
<svg width="40px" height="40px" viewBox="0 0 40 40" version="1.1" xmlns="http://www.w3.org/2000/svg" xmlns:xlink="http://www.w3.org/1999/xlink">
    <!-- Generator: Sketch 57.1 (83088) - https://sketch.com -->
    <title>051-B40px</title>
    <desc>Created with Sketch.</desc>
    <g id="051-B40px" stroke="none" stroke-width="1" fill="none" fill-rule="evenodd">
        <g>
            <path d="M13.7125,10.625 C14.05,10.625 14.3375,10.35 14.3375,10 C14.3375,9.6625 14.0625,9.375 13.7125,9.375 C13.3625,9.375 13.0875,9.65 13.0875,10 C13.0875,10.35 13.375,10.625 13.7125,10.625" id="Path" fill="#101828" fill-rule="nonzero"></path>
            <path d="M8.7375,10.625 C9.075,10.625 9.3625,10.35 9.3625,10 C9.3625,9.6625 9.0875,9.375 8.7375,9.375 C8.4,9.375 8.125,9.6625 8.125,10 C8.125,10.35 8.4,10.625 8.7375,10.625" id="Path" fill="#101828" fill-rule="nonzero"></path>
            <path d="M11.2375,10.625 C11.575,10.625 11.8625,10.35 11.8625,10 C11.8625,9.6625 11.5875,9.375 11.2375,9.375 C10.9,9.375 10.625,9.6625 10.625,10 C10.625,10.35 10.9,10.625 11.2375,10.625" id="Path" fill="#101828" fill-rule="nonzero"></path>
            <rect id="Rectangle" fill="#101828" fill-rule="nonzero" x="6.25" y="11.25" width="27.5" height="1.25"></rect>
            <path d="M33.75,7.5 L6.25,7.5 C5.5625,7.5 5,8.0625 5,8.75 L5,27.5 C5,28.1875 5.5625,28.75 6.25,28.75 L12.5125,28.75 C12.2125,28.35 11.95,27.9375 11.7125,27.5 L6.25,27.5 L6.25,8.75 L33.75,8.75 L33.75,27.5 L28.2875,27.5 C28.05,27.9375 27.7875,28.35 27.4875,28.75 L33.75,28.75 C34.4375,28.75 35,28.1875 35,27.5 L35,8.75 C35,8.0625 34.4375,7.5 33.75,7.5 Z" id="Path" fill="#101828" fill-rule="nonzero"></path>
            <path d="M20,16.25 C23.7875,16.25 26.875,19.3375 26.875,23.125 C26.875,26.9125 23.7875,30 20,30 C16.2125,30 13.125,26.9125 13.125,23.125 C13.125,19.3375 16.2125,16.25 20,16.25 L20,16.25 Z M20,15 C15.5125,15 11.875,18.6375 11.875,23.125 C11.875,27.6125 15.5125,31.25 20,31.25 C24.4875,31.25 28.125,27.6125 28.125,23.125 C28.125,18.6375 24.4875,15 20,15 L20,15 Z" id="Shape" fill="#101828" fill-rule="nonzero"></path>
            <path d="M23.75,22.5 L23.75,23.75 L16.25,23.75 L16.25,22.5 L23.75,22.5 L23.75,22.5 Z M25,21.25 L15,21.25 L15,25 L25,25 L25,21.25 L25,21.25 Z" id="Shape" fill="#101828" fill-rule="nonzero"></path>
            <rect id="Rectangle" x="0" y="0" width="40" height="40"></rect>
        </g>
    </g>
</svg>