<?xml version="1.0" encoding="UTF-8"?>
<svg width="80px" height="80px" viewBox="0 0 80 80" version="1.1" xmlns="http://www.w3.org/2000/svg" xmlns:xlink="http://www.w3.org/1999/xlink">
    <!-- Generator: Sketch 57.1 (83088) - https://sketch.com -->
    <title>030-B80px</title>
    <desc>Created with Sketch.</desc>
    <g id="030-B80px" stroke="none" stroke-width="1" fill="none" fill-rule="evenodd">
        <g>
            <path d="M56.25,20 C57.25,20 58.2,20.4 58.9,21.1 C59.6,21.8 60,22.75 60,23.75 C60,24.75 59.6,25.7 58.9,26.4 C58.2,27.1 57.25,27.5 56.25,27.5 C55.25,27.5 54.3,27.1 53.6,26.4 C52.9,25.7 52.5,24.75 52.5,23.75 C52.5,22.75 52.9,21.8 53.6,21.1 C54.3,20.4 55.25,20 56.25,20 L56.25,20 Z M56.25,17.5 C54.65,17.5 53.05,18.1 51.825,19.325 C49.375,21.775 49.375,25.725 51.825,28.175 C53.05,29.4 54.65,30 56.25,30 C57.85,30 59.45,29.4 60.675,28.175 C63.125,25.725 63.125,21.775 60.675,19.325 C59.45,18.1 57.85,17.5 56.25,17.5 L56.25,17.5 Z" id="Shape" fill="#101828" fill-rule="nonzero"></path>
            <path d="M69.175,10.95 C69.175,10.95 66.1,10 62,10 C57.7,10 52.3,11.025 48.1,15.225 C45.975,17.35 43.025,20.3 39.8,23.525 C37.9,22.075 35.65,21.275 33.45,21.275 C31.025,21.275 28.625,22.175 26.825,23.975 L16.625,34.175 L27.8,39.075 L49.875,17 C52.825,14 56.9,12.5 61.975,12.5 C64.075,12.5 65.875,12.775 67.05,13 C67.65,16.3 68.475,24.675 63,30.15 L40.925,52.225 L45.825,63.4 L56.025,53.2 C59.45,49.775 59.525,44.25 56.475,40.225 L64.775,31.925 C72.825,23.875 69.175,10.95 69.175,10.95 Z M26.9,36.4 L20.825,33.475 L28.575,25.725 C29.825,24.475 31.55,23.775 33.425,23.775 C35.05,23.775 36.65,24.325 38,25.3 C34.225,29.075 30.25,33.05 26.9,36.4 Z M54.275,51.425 L46.525,59.175 L43.6,53.1 L54.7,42 C56.825,45 56.725,48.975 54.275,51.425 Z" id="Shape" fill="#101828" fill-rule="nonzero"></path>
            <path d="M29.55,55.6 L27.125,58.025 C23.75,61.4 19.8,62.25 17.45,62.45 C17.675,60.05 18.575,56.125 21.9,52.8 L24.325,50.375 L22.55,48.6 L20.125,51.025 C14.05,57.1 14.925,64.925 14.925,64.925 C14.925,64.925 15.425,65 16.25,65 C18.725,65 24.25,64.425 28.9,59.775 C29.9,58.775 30.7,57.975 31.325,57.35 L29.55,55.6 Z" id="Path" fill="#101828" fill-rule="nonzero"></path>
            <path d="M33.175,59.2 L29.75,62.625 C25.725,66.65 20.475,67.5 16.8,67.5 C15.175,67.5 13.75,67.325 12.775,67.175 C12.3,63.85 11.85,55.775 17.375,50.25 L20.8,46.825 L19.025,45.05 L15.6,48.5 C7.425,56.675 10.625,69.3 10.625,69.3 C10.625,69.3 13.2,70 16.8,70 C21.15,70 26.95,68.975 31.525,64.4 C32.975,62.95 34.075,61.85 34.95,60.975 L33.175,59.2 Z" id="Path" fill="#101828" fill-rule="nonzero"></path>
            <polygon id="Rectangle" fill="#101828" fill-rule="nonzero" transform="translate(33.641089, 46.364186) rotate(-45.000000) translate(-33.641089, -46.364186) " points="24.7786737 45.1141982 42.5035038 45.1141982 42.5035038 47.6141743 24.7786737 47.6141743"></polygon>
            <rect id="Rectangle" x="0" y="0" width="80" height="80"></rect>
        </g>
    </g>
</svg>