<?xml version="1.0" encoding="UTF-8"?>
<svg width="42px" height="42px" viewBox="0 0 42 42" version="1.1" xmlns="http://www.w3.org/2000/svg" xmlns:xlink="http://www.w3.org/1999/xlink">
    <!-- Generator: Sketch 58 (84663) - https://sketch.com -->
    <title>253-G40px</title>
    <desc>Created with Sketch.</desc>
    <g id="NEW_icons" stroke="none" stroke-width="1" fill="none" fill-rule="evenodd">
        <g id="icons_UD_new-Copy" transform="translate(-1526.000000, -32159.000000)">
            <g id="253-G40px" transform="translate(1527.000000, 32160.000000)">
                <circle id="Oval-Copy-1455" stroke="#E3E8EC" cx="20" cy="20" r="20"></circle>
                <g id="253-B32px" transform="translate(4.000000, 4.000000)">
                    <g>
                        <path d="M17.99,22.67 L17.99,22.48 C13.92,21 10.42,17.44 10.38,17.4 C10.33,17.35 5.66,12.46 5.09,7.65 C5.09,7.62 5.09,7.57 5.12,7.54 L7.74,5.01 C7.76,4.99 7.78,4.98 7.81,4.98 C7.84,4.98 7.86,5 7.86,5 L11.81,9.08 C11.84,9.11 11.83,9.17 11.8,9.2 L10.05,10.89 L9.57,11.36 L9.82,11.98 C9.86,12.08 10.79,14.35 12.12,15.72 C13.45,17.09 15.69,18.1 15.79,18.14 L16.41,18.41 L16.89,17.94 L18.64,16.25 C18.66,16.23 18.68,16.22 18.71,16.22 C18.74,16.22 18.76,16.24 18.76,16.24 L19.65,17.16 C19.91,16.94 20.19,16.75 20.5,16.6 L19.48,15.55 C19.27,15.33 18.99,15.22 18.71,15.22 C18.44,15.22 18.16,15.32 17.95,15.53 L16.2,17.22 C16.2,17.22 14.06,16.27 12.85,15.02 C11.64,13.77 10.76,11.6 10.76,11.6 L12.51,9.91 C12.94,9.49 12.96,8.81 12.54,8.38 L8.58,4.3 C8.37,4.09 8.09,3.98 7.81,3.98 C7.54,3.98 7.26,4.08 7.05,4.29 L4.43,6.82 C4.18,7.07 4.06,7.41 4.11,7.76 C4.73,12.98 9.67,18.08 9.67,18.08 C9.67,18.08 13.45,21.99 17.93,23.51 C17.96,23.23 17.99,22.94 17.99,22.67 Z" id="Path" fill="#101828" fill-rule="nonzero"></path>
                        <path d="M17.09,25.65 L17.09,24.65 C18.65,24.64 18.99,23.25 19.01,22.1 L19.03,20.49 C19.05,18.57 20.66,17 22.61,17 C22.61,17 22.61,17 22.62,17 C24.59,17 26.2,18.59 26.2,20.53 L26.2,22.1 C26.2,23.26 26.53,24.65 28.11,24.66 L28.11,25.66 L17.09,25.65 Z M22.61,18 C21.2,18 20.04,19.12 20.03,20.5 L20.01,22.11 C20,23.18 19.73,24.05 19.26,24.65 L25.92,24.65 C25.45,24.04 25.19,23.17 25.19,22.09 L25.19,20.52 C25.19,19.13 24.03,18 22.61,18 C22.61,18 22.61,18 22.61,18 Z" id="Shape" fill="#101828" fill-rule="nonzero"></path>
                        <path d="M22.6,27.99 C22.59,27.99 22.59,27.99 22.6,27.99 C21.84,27.99 21.13,27.7 20.59,27.17 C20.05,26.64 19.76,25.94 19.76,25.19 L20.76,25.19 C20.76,25.67 20.95,26.11 21.29,26.45 C21.63,26.79 22.1,26.98 22.59,26.98 C22.59,26.98 22.59,26.98 22.6,26.98 C23.09,26.98 23.55,26.79 23.89,26.46 C24.23,26.12 24.43,25.68 24.43,25.2 L25.43,25.2 C25.43,25.95 25.13,26.65 24.59,27.17 C24.05,27.71 23.35,27.99 22.6,27.99 Z" id="Path" fill="#101828" fill-rule="nonzero"></path>
                        <rect id="Rectangle" x="0" y="0" width="32" height="32"></rect>
                    </g>
                </g>
            </g>
        </g>
    </g>
</svg>