<?xml version="1.0" encoding="UTF-8"?>
<svg width="56px" height="56px" viewBox="0 0 56 56" version="1.1" xmlns="http://www.w3.org/2000/svg" xmlns:xlink="http://www.w3.org/1999/xlink">
    <!-- Generator: Sketch 56.3 (81716) - https://sketch.com -->
    <title>041-W56px</title>
    <desc>Created with Sketch.</desc>
    <g id="NEW_icons" stroke="none" stroke-width="1" fill="none" fill-rule="evenodd">
        <g id="icons_UD_new-Copy" transform="translate(-1814.000000, -5370.000000)">
            <g id="041-W56px" transform="translate(1814.000000, 5370.000000)">
                <g id="003-B32px-Copy-73" transform="translate(8.000000, 8.000000)">
                    <g id="Group" transform="translate(10.000000, 5.000000)" fill="#FFFFFF" fill-rule="nonzero">
                        <path d="M18.6875,0 L1.3125,0 C0.5875,0 0,0.5875 0,1.3125 L0,23.75 L0,25 L0,28.6875 C0,29.4125 0.5875,30 1.3125,30 L18.6875,30 C19.4125,30 20,29.4125 20,28.6875 L20,25 L20,23.75 L20,1.3125 C20,0.5875 19.4125,0 18.6875,0 Z M18.75,28.6875 C18.75,28.725 18.725,28.75 18.6875,28.75 L1.3125,28.75 C1.275,28.75 1.25,28.725 1.25,28.6875 L1.25,25 L18.75,25 L18.75,28.6875 Z M1.25,23.75 L1.25,1.3125 C1.25,1.275 1.275,1.25 1.3125,1.25 L18.6875,1.25 C18.725,1.25 18.75,1.275 18.75,1.3125 L18.75,23.75 L1.25,23.75 Z" id="Shape"></path>
                        <path d="M10,27.4875 C10.3375,27.4875 10.625,27.2125 10.625,26.8625 C10.625,26.525 10.35,26.2375 10,26.2375 C9.65,26.2375 9.375,26.5125 9.375,26.8625 C9.375,27.2125 9.6625,27.4875 10,27.4875 Z" id="Path"></path>
                        <path d="M12.5125,20 L7.5,20.0125 L7.5,16.25 L6.25,16.25 L6.25,20.0125 C6.25,20.6875 6.8,21.25 7.4875,21.25 L12.525,21.25 C13.2,21.25 13.7625,20.7 13.7625,20.0125 L13.7625,16.25 L12.5125,16.25 L12.5125,20 Z" id="Path"></path>
                        <polygon id="Path" points="4.775 15.575 5.5625 16.5375 10 12.875 14.4375 16.5375 15.225 15.575 10 11.2625"></polygon>
                        <path d="M12.6,7.3125 C11.925,6.65 11.0125,6.25 10,6.25 C8.9625,6.25 8.025,6.675 7.35,7.35 L8.2375,8.2375 C8.6875,7.775 9.3125,7.5 10,7.5 C10.6625,7.5 11.275,7.7625 11.7125,8.1875 L12.6,7.3125 Z" id="Path"></path>
                        <path d="M9.1125,9.1125 L9.95,9.95 L10.825,9.075 C10.6125,8.875 10.325,8.75 10,8.75 C9.65,8.75 9.3375,8.8875 9.1125,9.1125 Z" id="Path"></path>
                        <path d="M10,5 C11.35,5 12.5875,5.55 13.4875,6.425 L14.375,5.5375 C13.2375,4.4375 11.7,3.75 10,3.75 C8.275,3.75 6.7125,4.45 5.575,5.575 L6.4625,6.4625 C7.375,5.5625 8.625,5 10,5 Z" id="Path"></path>
                    </g>
                    <rect id="Rectangle" x="0" y="0" width="40" height="40"></rect>
                </g>
                <circle id="Oval-Copy-329" fill="#101828" cx="28" cy="28" r="28"></circle>
                <g id="041-B32px-Copy-6" transform="translate(8.000000, 8.000000)">
                    <path d="M27.575,17.9125 C27.2,17.1875 26.1875,16.875 24.8125,16.9375 C23.2,17.0125 21.1,17.625 18.975,18.725 C18.9625,18.7375 18.95,18.7375 18.9375,18.75 C18.9375,18.75 18.925,18.75 18.9125,18.75 C16.7875,19.8375 15.0625,21.1875 14.0625,22.4375 C13.2,23.5125 12.8625,24.525 13.2375,25.25 C14.05,26.8375 17.9,26.4875 21.8375,24.475 C21.85,24.4625 21.8625,24.4625 21.8875,24.45 C21.9,24.4375 21.925,24.4375 21.9375,24.425 C25.8625,22.4125 28.4,19.4875 27.575,17.9125 Z M25.5625,20.1625 C24.6125,21.2625 23.075,22.4 21.3375,23.2875 C21.325,23.3 21.3125,23.3 21.2875,23.3125 C21.275,23.325 21.2625,23.325 21.2375,23.3375 C19.5,24.225 17.675,24.8125 16.225,24.9375 C14.8625,25.0625 14.4,24.7375 14.3625,24.675 C14.3375,24.6125 14.3375,24.1375 15.05,23.25 C15.9875,22.0875 17.6,20.8625 19.4875,19.9 C19.5,19.8875 19.5125,19.8875 19.525,19.8875 C19.5375,19.875 19.55,19.875 19.5625,19.8625 C21.4375,18.9 23.375,18.3 24.875,18.225 C26.0125,18.1625 26.4,18.45 26.425,18.5 C26.475,18.5625 26.4625,19.125 25.5625,20.1625 Z" id="Shape" fill="#FFFFFF" fill-rule="nonzero"></path>
                    <path d="M34.35,13.55 C34.2875,13.425 34.2,13.3125 34.1125,13.2 L34.125,13.1875 C34.125,13.1875 32.525,10.5375 27.2375,10.65 C27.2375,10.65 26.1125,10.7375 25.325,10.775 C25.025,10.7875 24.775,10.8 24.65,10.7875 C24.1875,10.775 22.975,10.4875 22.975,10.4875 C22.975,10.4875 20.025,9.9375 19.8625,9.9125 C19.25,9.825 18.6625,9.7625 18.05,9.8 C16.875,9.8625 15.7875,10.1625 14.8125,10.6625 C13.8375,11.175 12.95,11.875 12.225,12.8 C11.8375,13.2875 11.55,13.8 11.2625,14.3375 C11.1875,14.475 9.9125,17.2 9.9125,17.2 C9.9125,17.2 9.4375,18.35 9.175,18.7375 C9.1,18.8375 8.95,19.0375 8.7625,19.275 C8.275,19.8875 7.55,20.75 7.55,20.75 C4.3625,24.9875 5.575,27.825 5.575,27.825 L5.5875,27.825 C5.625,27.9625 5.675,28.0875 5.7375,28.2125 C7.35,31.375 15.0625,30.6875 22.95,26.6625 C22.9625,26.65 22.9875,26.65 23,26.6375 C23.0125,26.625 23.0375,26.625 23.05,26.6125 C30.9125,22.55 35.975,16.7 34.35,13.55 Z M31.275,18.9125 C30.0125,20.375 28.3125,21.825 26.3375,23.1625 C26.3125,23.1875 26.275,23.2 26.25,23.225 C25.8875,23.475 25.5125,23.7125 25.1375,23.95 C25.0125,24.025 24.875,24.1 24.75,24.1875 C24.45,24.3625 24.1625,24.55 23.85,24.725 C23.4,24.975 22.9375,25.225 22.4625,25.475 C22.45,25.4875 22.425,25.4875 22.4125,25.5 C22.4,25.5125 22.375,25.5125 22.3625,25.525 C21.8875,25.775 21.4125,26 20.9375,26.2125 C20.6125,26.3625 20.3,26.5 19.9875,26.6375 C19.85,26.7 19.7125,26.7625 19.575,26.8125 C19.1625,26.9875 18.75,27.15 18.3375,27.3 C18.3,27.3125 18.275,27.325 18.2375,27.3375 C15.9875,28.1625 13.825,28.6875 11.9,28.8625 C9.2,29.1 7.375,28.6 6.9,27.6375 C6.8875,27.6125 6.875,27.575 6.8625,27.5375 L6.825,27.4375 L6.75,27.225 C6.5875,26.3 7.175,24.9 8.3875,23.375 C10.3625,20.9 13.75,18.3375 17.675,16.325 C17.6875,16.325 17.7,16.3125 17.7125,16.3125 C17.725,16.3125 17.7375,16.3 17.75,16.3 C21.675,14.2875 25.725,13.0375 28.8875,12.875 C30.8375,12.775 32.3,13.1125 32.9625,13.7875 L33.0875,13.95 L33.15,14.0375 C33.175,14.075 33.2,14.1 33.2125,14.125 C33.7,15.0875 33.05,16.85 31.275,18.9125 Z" id="Shape" fill="#FFFFFF" fill-rule="nonzero"></path>
                    <rect id="Rectangle" x="0" y="0" width="40" height="40"></rect>
                </g>
            </g>
        </g>
    </g>
</svg>