<?xml version="1.0" encoding="UTF-8"?>
<svg width="80px" height="80px" viewBox="0 0 80 80" version="1.1" xmlns="http://www.w3.org/2000/svg" xmlns:xlink="http://www.w3.org/1999/xlink">
    <!-- Generator: Sketch 57.1 (83088) - https://sketch.com -->
    <title>096-G80px</title>
    <desc>Created with Sketch.</desc>
    <g id="NEW_icons" stroke="none" stroke-width="1" fill="none" fill-rule="evenodd">
        <g id="icons_UD_new-Copy" transform="translate(-768.000000, -12525.000000)">
            <g id="096-G80px" transform="translate(768.000000, 12525.000000)">
                <circle id="Oval-Copy-597" fill="#E3E8EC" cx="40" cy="40" r="40"></circle>
                <g id="096-B32px-Copy-6" transform="translate(10.000000, 12.000000)">
                    <g id="Group" transform="translate(7.000000, 7.000000)" fill="#101828" fill-rule="nonzero">
                        <path d="M4.0775,41.5275 L3.185,40.0225 C9.6425,36.2075 7.0525,29.4 4.9525,25.69 L1.715,20.0025 C-1.8375,13.7375 0.3325,5.7225 6.5625,2.1175 C12.8275,-1.505 20.8775,0.63 24.5175,6.8775 L27.72,12.3725 C29.89,16.0825 34.4925,21.7525 41.055,17.955 L41.93,19.46 L41.93,19.46 L4.0775,41.5275 Z M13.125,2.1 C11.1825,2.1 9.2225,2.59 7.4375,3.64 C2.0475,6.7725 0.1575,13.72 3.2375,19.145 L6.475,24.8325 C9.17,29.5575 9.73,33.7925 8.26,37.0825 L36.015,20.895 C32.375,20.545 28.9275,17.9375 26.215,13.265 L23.0125,7.77 C20.895,4.13 17.0625,2.1 13.125,2.1 Z" id="Shape"></path>
                        <path d="M22.6975,40.0925 C19.1975,40.0925 15.7675,38.2725 13.895,35.035 L15.4175,34.16 C17.745,38.1675 22.9075,39.55 26.915,37.2225 C28.8575,36.1025 30.24,34.2825 30.8175,32.1125 C31.395,29.9425 31.0975,27.685 29.96,25.7425 L31.4825,24.8675 C32.8475,27.2125 33.215,29.96 32.515,32.5675 C31.815,35.1925 30.135,37.38 27.79,38.745 C26.18,39.655 24.43,40.0925 22.6975,40.0925 Z" id="Path"></path>
                    </g>
                    <rect id="Rectangle" x="0" y="0" width="56" height="56"></rect>
                </g>
            </g>
        </g>
    </g>
</svg>