<?xml version="1.0" encoding="UTF-8"?>
<svg width="80px" height="80px" viewBox="0 0 80 80" version="1.1" xmlns="http://www.w3.org/2000/svg" xmlns:xlink="http://www.w3.org/1999/xlink">
    <!-- Generator: Sketch 57.1 (83088) - https://sketch.com -->
    <title>078-B80px</title>
    <desc>Created with Sketch.</desc>
    <g id="078-B80px" stroke="none" stroke-width="1" fill="none" fill-rule="evenodd">
        <g>
            <path d="M35,50 L35,60 L12.5,60 L12.5,28.875 L18.7,22.5 L35,22.5 L35,37.5 L37.5,37.5 L37.5,22.325 C37.5,21.025 36.5,20 35.25,20 L17.65,20 L10,27.85 L10,60.025 C10,61.4 11.075,62.5 12.375,62.5 L35.25,62.5 C36.475,62.5 37.5,61.475 37.5,60.2 L37.5,50 L35,50 Z" id="Path" fill="#101828" fill-rule="nonzero"></path>
            <path d="M67.75,20 L50.15,20 L42.5,27.85 L42.5,37.5 L45,37.5 L45,28.875 L51.2,22.5 L67.5,22.5 L67.5,60 L45,60 L45,50 L42.5,50 L42.5,60.025 C42.5,61.375 43.575,62.475 44.875,62.475 L67.75,62.475 C68.975,62.475 70,61.45 70,60.175 L70,22.325 C70,21.025 69,20 67.75,20 Z" id="Path" fill="#101828" fill-rule="nonzero"></path>
            <path d="M52.5,39.8 L58.15,43.75 L52.5,47.7 L52.5,39.8 L52.5,39.8 Z M50,35 L50,52.5 L62.5,43.75 L50,35 L50,35 Z" id="Shape" fill="#101828" fill-rule="nonzero"></path>
            <rect id="Rectangle" fill="#101828" fill-rule="nonzero" x="17.5" y="42.5" width="33.75" height="2.5"></rect>
            <rect id="Rectangle" x="0" y="0" width="80" height="80"></rect>
        </g>
    </g>
</svg>