<?xml version="1.0" encoding="UTF-8"?>
<svg width="80px" height="80px" viewBox="0 0 80 80" version="1.1" xmlns="http://www.w3.org/2000/svg" xmlns:xlink="http://www.w3.org/1999/xlink">
    <!-- Generator: Sketch 59.1 (86144) - https://sketch.com -->
    <title>268-C80px</title>
    <desc>Created with Sketch.</desc>
    <g id="NEW_icons" stroke="none" stroke-width="1" fill="none" fill-rule="evenodd">
        <g id="icons_UD_new-Copy" transform="translate(-1001.000000, -34127.000000)">
            <g id="268-C80px" transform="translate(1001.000000, 34127.000000)">
                <circle id="Oval-Copy-1667" fill="#FF4F12" cx="40" cy="40" r="40"></circle>
                <g id="268-B32px-Copy-7" transform="translate(12.000000, 12.000000)">
                    <rect id="Rectangle" x="0" y="0" width="56" height="56"></rect>
                    <g id="Group" transform="translate(3.500000, 7.000000)" fill="#FFFFFF" fill-rule="nonzero">
                        <g transform="translate(19.250000, 17.500000)" id="Path">
                            <path d="M23.625,5.6 L22.4,4.55 C19.95,7.175 16.45,8.925 12.6,8.75 C8.75,8.575 5.25,6.825 2.975,4.025 L1.575,4.9 C4.2,8.05 8.05,10.15 12.425,10.325 C16.8,10.675 20.825,8.75 23.625,5.6 Z"></path>
                            <path d="M20.3,4.025 L19.075,2.975 C17.5,4.725 15.05,5.775 12.6,5.6 C9.975,5.6 7.7,4.375 6.3,2.625 L4.9,3.5 C6.825,5.775 9.45,7.175 12.6,7.175 C15.575,7.35 18.375,6.125 20.3,4.025 Z"></path>
                            <path d="M17.15,2.275 L15.75,1.4 C14.875,2.1 13.65,2.625 12.425,2.625 C11.2,2.625 10.15,2.1 9.275,1.4 L7.875,2.275 C8.925,3.5 10.5,4.2 12.25,4.2 C14.35,4.2 15.925,3.5 17.15,2.275 Z"></path>
                        </g>
                        <path d="M15.925,17.85 L1.575,17.85 L1.575,4.725 L15.925,4.725 L15.925,17.85 Z M3.15,16.275 L14.35,16.275 L14.35,6.3 L3.15,6.3 L3.15,16.275 Z" id="Shape"></path>
                        <path d="M15.925,41.125 L1.575,41.125 L1.575,30.275 L15.925,30.275 L15.925,41.125 Z M3.15,39.375 L14.35,39.375 L14.35,31.675 L3.15,31.675 L3.15,39.375 Z" id="Shape"></path>
                        <path d="M12.95,31.85 L4.375,31.85 L4.375,16.275 L12.95,16.275 L12.95,31.85 Z M5.95,30.1 L11.375,30.1 L11.375,17.85 L5.95,17.85 L5.95,30.1 Z" id="Shape"></path>
                        <path d="M12.075,6.3 L5.25,6.3 L5.075,5.775 C5.075,5.25 5.075,4.9 5.075,4.725 C5.075,2.625 6.65,1.05 8.75,1.05 C10.85,1.05 12.425,2.625 12.425,4.725 C12.425,4.9 12.25,5.25 12.25,5.775 L12.075,6.3 Z M6.65,4.725 L10.85,4.725 C10.85,4.725 10.85,4.725 10.85,4.725 C10.85,3.5 9.8,2.625 8.75,2.625 C7.525,2.625 6.65,3.5 6.65,4.725 C6.65,4.725 6.65,4.725 6.65,4.725 Z" id="Shape"></path>
                        <path d="M47.425,15.575 L14.525,15.575 L14.525,7 L47.425,7 L47.425,15.575 Z M16.275,14 L46.025,14 L46.025,8.575 L16.275,8.575 L16.275,14 Z" id="Shape"></path>
                        <polygon id="Rectangle" transform="translate(20.597237, 11.438193) rotate(-62.056261) translate(-20.597237, -11.438193) " points="16.9222715 10.6506998 24.2722035 10.6506998 24.2722035 12.2256852 16.9222715 12.2256852"></polygon>
                        <polygon id="Rectangle" transform="translate(27.491400, 11.552888) rotate(-62.056261) translate(-27.491400, -11.552888) " points="23.8164344 10.7653948 31.1663665 10.7653948 31.1663665 12.3403802 23.8164344 12.3403802"></polygon>
                        <polygon id="Rectangle" transform="translate(34.467982, 11.513863) rotate(-62.056261) translate(-34.467982, -11.513863) " points="30.7930165 10.7263698 38.1429485 10.7263698 38.1429485 12.3013552 30.7930165 12.3013552"></polygon>
                        <polygon id="Rectangle" transform="translate(41.443482, 11.473263) rotate(-62.056261) translate(-41.443482, -11.473263) " points="37.7685165 10.6857698 45.1184485 10.6857698 45.1184485 12.2607552 37.7685165 12.2607552"></polygon>
                    </g>
                </g>
            </g>
        </g>
    </g>
</svg>