<?xml version="1.0" encoding="UTF-8"?>
<svg width="80px" height="80px" viewBox="0 0 80 80" version="1.1" xmlns="http://www.w3.org/2000/svg" xmlns:xlink="http://www.w3.org/1999/xlink">
    <!-- Generator: Sketch 59.1 (86144) - https://sketch.com -->
    <title>266-G80px</title>
    <desc>Created with Sketch.</desc>
    <g id="NEW_icons" stroke="none" stroke-width="1" fill="none" fill-rule="evenodd">
        <g id="icons_UD_new-Copy" transform="translate(-767.000000, -33875.000000)">
            <g id="266-G80px" transform="translate(767.000000, 33875.000000)">
                <circle id="Oval-Copy-1630" fill="#E3E8EC" cx="40" cy="40" r="40"></circle>
                <g id="266-B32px-Copy-8" transform="translate(12.000000, 12.000000)">
                    <rect id="Rectangle" x="0" y="0" width="56" height="56"></rect>
                    <g id="Group" transform="translate(12.250000, 5.250000)" fill="#101828" fill-rule="nonzero">
                        <g transform="translate(5.250000, 0.000000)" id="Path">
                            <path d="M0.875,4.9 L1.925,5.775 C4.025,3.5 7.175,1.925 10.5,2.1 C13.825,2.1 16.8,3.85 18.9,6.3 L20.125,5.6 C17.85,2.8 14.525,1.05 10.675,0.875 C6.825,0.525 3.325,2.275 0.875,4.9 Z"></path>
                            <path d="M3.675,6.3 L4.725,7.175 C6.125,5.6 8.225,4.725 10.5,4.9 C12.775,4.9 14.7,5.95 16.1,7.525 L17.325,6.825 C15.575,4.725 13.3,3.5 10.5,3.5 C7.875,3.325 5.425,4.55 3.675,6.3 Z"></path>
                            <path d="M6.65,7.7 L7.7,8.575 C8.4,7.875 9.45,7.525 10.5,7.525 C11.55,7.525 12.425,8.05 13.125,8.575 L14.35,7.7 C13.3,6.65 12.075,6.125 10.5,5.95 C9.1,6.125 7.525,6.825 6.65,7.7 Z"></path>
                        </g>
                        <polygon id="Path" points="14.7 35.7 16.8 35.7 20.125 32.725 15.05 32.725 17.15 30.625 15.925 29.575 11.375 34.125 16.275 34.125"></polygon>
                        <path d="M15.75,12.6 C22.925,12.6 28.875,18.55 28.875,25.725 C28.875,32.9 22.925,38.85 15.75,38.85 C8.575,38.85 2.625,32.9 2.625,25.725 C2.625,18.55 8.575,12.6 15.75,12.6 M15.75,11.2 C7.7,11.2 1.225,17.675 1.225,25.725 C1.225,33.775 7.7,40.25 15.75,40.25 C23.8,40.25 30.275,33.775 30.275,25.725 C30.275,17.675 23.8,11.2 15.75,11.2 L15.75,11.2 Z" id="Shape"></path>
                        <path d="M22.05,44.8 L9.625,44.8 C9.275,44.8 9.1,44.625 8.925,44.275 L5.95,36.75 C5.775,36.4 5.95,35.875 6.3,35.875 C6.65,35.7 7.175,35.875 7.175,36.225 L9.975,43.4 L21.525,43.4 L24.15,36.225 C24.325,35.875 24.675,35.7 25.025,35.875 C25.375,36.05 25.55,36.4 25.375,36.75 L22.75,44.45 C22.75,44.625 22.4,44.8 22.05,44.8 Z" id="Path"></path>
                        <g transform="translate(3.500000, 19.250000)">
                            <path d="M6.125,5.775 L6.125,5.775 C5.775,5.775 5.425,5.425 5.425,5.075 L5.425,3.5 C5.425,3.15 5.775,2.8 6.125,2.8 L6.125,2.8 C6.475,2.8 6.825,3.15 6.825,3.5 L6.825,5.075 C6.825,5.425 6.65,5.775 6.125,5.775 Z" id="Path"></path>
                            <path d="M9.275,5.775 L9.275,5.775 C8.925,5.775 8.575,5.425 8.575,5.075 L8.575,3.5 C8.575,3.15 8.925,2.8 9.275,2.8 L9.275,2.8 C9.625,2.8 9.975,3.15 9.975,3.5 L9.975,5.075 C9.975,5.425 9.625,5.775 9.275,5.775 Z" id="Path"></path>
                            <path d="M12.25,5.775 L12.25,5.775 C11.9,5.775 11.55,5.425 11.55,5.075 L11.55,3.5 C11.55,3.15 11.9,2.8 12.25,2.8 L12.25,2.8 C12.6,2.8 12.95,3.15 12.95,3.5 L12.95,5.075 C12.95,5.425 12.6,5.775 12.25,5.775 Z" id="Path"></path>
                            <path d="M15.225,5.775 L15.225,5.775 C14.875,5.775 14.525,5.425 14.525,5.075 L14.525,3.5 C14.525,3.15 14.875,2.8 15.225,2.8 L15.225,2.8 C15.575,2.8 15.925,3.15 15.925,3.5 L15.925,5.075 C16.1,5.425 15.75,5.775 15.225,5.775 Z" id="Path"></path>
                            <path d="M18.375,5.775 L18.375,5.775 C18.025,5.775 17.675,5.425 17.675,5.075 L17.675,3.5 C17.675,3.15 18.025,2.8 18.375,2.8 L18.375,2.8 C18.725,2.8 19.075,3.15 19.075,3.5 L19.075,5.075 C19.075,5.425 18.725,5.775 18.375,5.775 Z" id="Path"></path>
                            <path d="M19.075,8.05 L5.425,8.05 C3.325,8.05 1.575,6.3 1.575,4.2 C1.575,2.1 3.325,0.35 5.425,0.35 L19.075,0.35 C21.175,0.35 22.925,2.1 22.925,4.2 C22.925,6.3 21.175,8.05 19.075,8.05 Z M5.425,1.925 C4.2,1.925 3.15,2.975 3.15,4.2 C3.15,5.425 4.2,6.475 5.425,6.475 L19.075,6.475 C20.3,6.475 21.35,5.425 21.35,4.2 C21.35,2.975 20.3,1.925 19.075,1.925 L5.425,1.925 L5.425,1.925 Z" id="Shape"></path>
                        </g>
                    </g>
                </g>
            </g>
        </g>
    </g>
</svg>