<?xml version="1.0" encoding="UTF-8"?>
<svg width="33px" height="33px" viewBox="0 0 33 33" version="1.1" xmlns="http://www.w3.org/2000/svg" xmlns:xlink="http://www.w3.org/1999/xlink">
    <!-- Generator: Sketch 57.1 (83088) - https://sketch.com -->
    <title>075-B32px</title>
    <desc>Created with Sketch.</desc>
    <g id="075-B32px" stroke="none" stroke-width="1" fill="none" fill-rule="evenodd">
        <g>
            <path d="M23.13,5.15 C23.16,5.15 23.18,5.17 23.18,5.2 L23.03,27.1 C23.03,27.13 23.01,27.15 22.98,27.15 L9.08,27.06 C9.05,27.06 9.03,27.04 9.03,27.01 L9.18,5.11 C9.18,5.08 9.2,5.06 9.23,5.06 L23.13,5.15 L23.13,5.15 Z M23.14,4.15 L9.24,4.06 C8.66,4.06 8.18,4.52 8.18,5.1 L8.03,27 C8.03,27.58 8.49,28.06 9.07,28.06 L22.97,28.15 C23.55,28.15 24.03,27.69 24.03,27.11 L24.18,5.21 C24.18,4.63 23.72,4.16 23.14,4.15 L23.14,4.15 Z" id="Shape" fill="#101828" fill-rule="nonzero"></path>
            <path d="M16.04,26.1 C16.31,26.1 16.54,25.88 16.54,25.61 C16.54,25.34 16.32,25.11 16.05,25.11 C15.78,25.11 15.55,25.33 15.55,25.6 C15.54,25.88 15.77,26.1 16.04,26.1" id="Path" fill="#101828" fill-rule="nonzero"></path>
            <rect id="Rectangle" fill="#101828" fill-rule="nonzero" transform="translate(16.060363, 23.603124) rotate(-89.615550) translate(-16.060363, -23.603124) " x="15.5603517" y="15.6029436" width="1.00002251" height="16.0003602"></rect>
            <path d="M16.15,9.11 C18.91,9.13 21.13,11.39 21.1200337,14.14 C21.11,16.89 18.84,19.12 16.09,19.1100335 C13.33,19.09 11.11,16.83 11.1199663,14.08 C11.13,11.33 13.4,9.09 16.15,9.11 L16.15,9.11 Z M16.16,8.10988837 C12.85,8.09 10.14,10.76 10.1198884,14.07 C10.1,17.38 12.77,20.09 16.08,20.1101116 C19.39,20.13 22.1,17.46 22.1201116,14.15 C22.14,10.84 19.47,8.13 16.16,8.10988837 L16.16,8.10988837 Z" id="Shape" fill="#101828" fill-rule="nonzero"></path>
            <path d="M16.14,9.1099634 C17.31,9.12 18.61,11.18 18.59,14.13 C18.57,17.08 17.25,19.12 16.07,19.1100366 C14.9,19.1 13.6,17.04 13.62,14.09 C13.64,11.14 14.97,9.1 16.14,9.1099634 L16.14,9.1099634 Z M16.15,8.109972 C14.23,8.1 12.65,10.77 12.63,14.09 C12.61,17.41 14.15,20.1 16.07,20.110028 C17.99,20.12 19.57,17.45 19.59,14.13 C19.61,10.81 18.07,8.12 16.15,8.109972 L16.15,8.109972 Z" id="Shape" fill="#101828" fill-rule="nonzero"></path>
            <rect id="Rectangle" fill="#101828" fill-rule="nonzero" transform="translate(16.105431, 16.636521) rotate(-89.615550) translate(-16.105431, -16.636521) " x="15.6054201" y="11.5814075" width="1.00002251" height="10.1102276"></rect>
            <rect id="Rectangle" fill="#101828" fill-rule="nonzero" transform="translate(16.141900, 11.577736) rotate(-89.615550) translate(-16.141900, -11.577736) " x="15.6418885" y="6.52262184" width="1.00002251" height="10.1102276"></rect>
            <rect id="Rectangle" fill="#101828" fill-rule="nonzero" transform="translate(16.118966, 14.107345) rotate(-89.615550) translate(-16.118966, -14.107345) " x="15.6189543" y="8.42221692" width="1.00002251" height="11.370256"></rect>
            <rect id="Rectangle" fill="#101828" fill-rule="nonzero" transform="translate(16.118399, 14.284986) rotate(-89.615550) translate(-16.118399, -14.284986) " x="10.9332824" y="13.784975" width="10.3702334" height="1.00002251"></rect>
            <rect id="Rectangle" transform="translate(16.110301, 16.110399) rotate(0.384450) translate(-16.110301, -16.110399) " x="0.109941306" y="0.110038311" width="32.0007204" height="32.0007204"></rect>
        </g>
    </g>
</svg>