<?xml version="1.0" encoding="UTF-8"?>
<svg width="80px" height="80px" viewBox="0 0 80 80" version="1.1" xmlns="http://www.w3.org/2000/svg" xmlns:xlink="http://www.w3.org/1999/xlink">
    <!-- Generator: Sketch 57.1 (83088) - https://sketch.com -->
    <title>233-B80px</title>
    <desc>Created with Sketch.</desc>
    <g id="233-B80px" stroke="none" stroke-width="1" fill="none" fill-rule="evenodd">
        <g>
            <path d="M67.5,12.5 L67.5,17.5 C67.5,25.325 65.875,36.975 63.175,42.95 C59.45,51.15 52.45,61.95 40,67.3 C27.55,61.95 20.525,51.15 16.825,42.95 C14.125,36.975 12.5,25.3 12.5,17.5 L12.5,12.5 L67.5,12.5 L67.5,12.5 Z M70,10 L10,10 L10,17.5 C10,24.9 11.5,37.225 14.55,43.975 C18.725,53.2 26.4,64.55 40,70 C53.6,64.55 61.275,53.2 65.45,43.975 C68.5,37.225 70,24.9 70,17.5 L70,10 L70,10 Z" id="Shape" fill="#101828" fill-rule="nonzero"></path>
            <g id="Group" transform="translate(32.500000, 20.000000)" fill="#101828" fill-rule="nonzero">
                <path d="M3.75,2.5 C4.45,2.5 5,3.05 5,3.75 C5,4.45 4.45,5 3.75,5 C3.05,5 2.5,4.425 2.5,3.75 C2.5,3.075 3.05,2.5 3.75,2.5 L3.75,2.5 Z M3.75,0 C1.675,0 0,1.675 0,3.75 C0,5.825 1.675,7.5 3.75,7.5 C5.825,7.5 7.5,5.825 7.5,3.75 C7.5,1.675 5.825,0 3.75,0 L3.75,0 Z" id="Shape"></path>
                <path d="M7.5,20 L10.625,20 L12.5,17.5 L12.5,21.3 C12.5,23.35 10.825,25 8.8,25 C6.7,25 5,23.3 5,21.2 L5,6.25 L2.5,6.25 L2.5,21.2 C2.5,24.675 5.325,27.5 8.8,27.5 C12.225,27.5 15,24.725 15,21.3 L15,10 L7.5,20 Z" id="Path"></path>
            </g>
            <rect id="Rectangle" x="0" y="0" width="80" height="80"></rect>
        </g>
    </g>
</svg>