<?xml version="1.0" encoding="UTF-8"?>
<svg width="80px" height="80px" viewBox="0 0 80 80" version="1.1" xmlns="http://www.w3.org/2000/svg" xmlns:xlink="http://www.w3.org/1999/xlink">
    <!-- Generator: Sketch 57.1 (83088) - https://sketch.com -->
    <title>032-B80px</title>
    <desc>Created with Sketch.</desc>
    <g id="032-B80px" stroke="none" stroke-width="1" fill="none" fill-rule="evenodd">
        <g>
            <path d="M32.5,25 C33.875,25 35,26.125 35,27.5 C35,28.875 33.875,30 32.5,30 C31.125,30 30,28.875 30,27.5 C30,26.125 31.125,25 32.5,25 L32.5,25 Z M32.5,22.5 C29.75,22.5 27.5,24.75 27.5,27.5 C27.5,30.25 29.75,32.5 32.5,32.5 C35.25,32.5 37.5,30.25 37.5,27.5 C37.5,24.75 35.25,22.5 32.5,22.5 L32.5,22.5 Z" id="Shape" fill="#101828" fill-rule="nonzero"></path>
            <rect id="Rectangle" fill="#101828" fill-rule="nonzero" x="31.25" y="47.575" width="2.5" height="22.425"></rect>
            <path d="M56.25,45 C62.45,45 67.5,50.05 67.5,56.25 C67.5,62.45 62.45,67.5 56.25,67.5 C50.05,67.5 45,62.45 45,56.25 C45,50.05 50.05,45 56.25,45 L56.25,45 Z M56.25,42.5 C48.65,42.5 42.5,48.65 42.5,56.25 C42.5,63.85 48.65,70 56.25,70 C63.85,70 70,63.85 70,56.25 C70,48.65 63.85,42.5 56.25,42.5 L56.25,42.5 Z" id="Shape" fill="#101828" fill-rule="nonzero"></path>
            <path d="M52.15,53.25 C53.1,56.7 55.8,59.425 59.25,60.35 C58.425,60.925 57.425,61.25 56.35,61.25 C53.525,61.25 51.225,58.95 51.225,56.125 C51.25,55.075 51.575,54.075 52.15,53.25 L52.15,53.25 Z M54.55,48.75 C51.225,49.575 48.75,52.55 48.75,56.125 C48.75,60.325 52.175,63.75 56.375,63.75 C59.95,63.75 62.925,61.275 63.75,57.95 C63.15,58.1 62.55,58.2 61.925,58.2 C57.725,58.2 54.3,54.775 54.3,50.575 C54.3,49.95 54.4,49.35 54.55,48.75 L54.55,48.75 Z" id="Shape" fill="#101828" fill-rule="nonzero"></path>
            <path d="M45,38.775 L45,27.5 C45,16.4 32.575,10 32.575,10 C32.575,10 20,16.2 20,27.5 C20,30.675 20,35.225 20,40.1 C14.375,40.65 10,44.85 10,50 L10,65 L22.5,60.825 L22.5,60.825 L22.5,27.5 C22.5,19.75 29.725,14.6 32.575,12.875 C35.375,14.65 42.5,19.875 42.5,27.5 L42.5,39.575 L42.5,40 L42.5,42.5 L42.5,42.6 L42.5,47.6 C43.2,46.475 44.05,45.45 45,44.525 L45,43.15 L45,43.15 L45,38.775 L45,38.775 Z M20,59.05 L12.5,61.55 L12.5,50 C12.5,46.225 15.775,43.125 20,42.6 C20,48.4 20,54.375 20,59.05 Z" id="Shape" fill="#101828" fill-rule="nonzero"></path>
            <rect id="Rectangle" x="0" y="0" width="80" height="80"></rect>
        </g>
    </g>
</svg>