<?xml version="1.0" encoding="UTF-8"?>
<svg width="32px" height="32px" viewBox="0 0 32 32" version="1.1" xmlns="http://www.w3.org/2000/svg" xmlns:xlink="http://www.w3.org/1999/xlink">
    <!-- Generator: Sketch 57.1 (83088) - https://sketch.com -->
    <title>232-B32px</title>
    <desc>Created with Sketch.</desc>
    <g id="232-B32px" stroke="none" stroke-width="1" fill="none" fill-rule="evenodd">
        <g>
            <path d="M27,5 L27,7 C27,10.13 26.35,14.79 25.27,17.18 C23.78,20.46 20.98,24.78 16,26.92 C11.02,24.78 8.21,20.46 6.73,17.18 C5.65,14.79 5,10.12 5,7 L5,5 L27,5 L27,5 Z M28,4 L4,4 L4,7 C4,9.96 4.6,14.89 5.82,17.59 C7.49,21.28 10.56,25.82 16,28 C21.44,25.82 24.51,21.28 26.18,17.59 C27.4,14.89 28,9.96 28,7 L28,4 L28,4 Z" id="Shape" fill="#101828" fill-rule="nonzero"></path>
            <path d="M18.4,11.9 L17.35,11.9 L17.29,12.25 C17.01,11.93 16.58,11.74 16.1,11.74 C14.8,11.74 13.46,12.95 13.46,14.96 C13.46,16.29 14.23,17.21 15.34,17.21 C15.88,17.21 16.42,16.94 16.8,16.52 C16.92,16.95 17.3,17.21 17.85,17.21 C19.09,17.21 20.36,15.97 20.36,13.9 C20.36,11.21 18.29,10 16.25,10 C13.63,10 11.65,11.99 11.65,14.62 C11.65,17.65 13.73,19 15.79,19 C16.95,19 17.58,18.73 18.18,18.32 L18.31,18.23 L17.79,17.36 L17.64,17.47 C17.24,17.74 16.76,18 15.9,18 C14.44,18 12.74,17.12 12.74,14.64 C12.74,12.64 14.28,11.02 16.18,11.02 C18.12,11.02 19.28,12.11 19.28,13.94 C19.28,15.5 18.51,16.23 18,16.23 C17.89,16.23 17.8,16.21 17.8,15.99 C17.8,15.96 17.8,15.92 17.81,15.86 L18.4,11.9 Z M15.44,16.23 C14.88,16.23 14.55,15.75 14.55,14.94 C14.55,13.58 15.39,12.74 16.17,12.74 C16.73,12.74 17.05,13.15 17.05,13.87 C17.04,15.11 16.28,16.23 15.44,16.23 Z" id="Shape" fill="#101828" fill-rule="nonzero"></path>
            <rect id="Rectangle" x="0" y="0" width="32" height="32"></rect>
        </g>
    </g>
</svg>