<?xml version="1.0" encoding="UTF-8"?>
<svg width="80px" height="80px" viewBox="0 0 80 80" version="1.1" xmlns="http://www.w3.org/2000/svg" xmlns:xlink="http://www.w3.org/1999/xlink">
    <!-- Generator: Sketch 57.1 (83088) - https://sketch.com -->
    <title>154-B80px</title>
    <desc>Created with Sketch.</desc>
    <g id="154-B80px" stroke="none" stroke-width="1" fill="none" fill-rule="evenodd">
        <g>
            <path d="M53.825,27.5 L53.825,32.5 L13.825,32.5 L13.825,27.5 L53.825,27.5 L53.825,27.5 Z M56.325,25 L11.325,25 L11.325,35 L56.325,35 L56.325,25 L56.325,25 Z" id="Shape" fill="#101828" fill-rule="nonzero"></path>
            <path d="M51.725,12.5 L52.65,17.4 L13.35,24.75 L12.425,19.85 L51.725,12.5 L51.725,12.5 L51.725,12.5 Z M51.725,10 C51.575,10 51.425,10.025 51.25,10.05 L11.95,17.4 C10.6,17.65 9.7,18.95 9.95,20.3 L11.325,27.65 L55.55,19.375 L54.175,12.025 C53.975,10.825 52.925,10 51.725,10 L51.725,10 Z" id="Shape" fill="#101828" fill-rule="nonzero"></path>
            <polygon id="Rectangle" fill="#101828" fill-rule="nonzero" transform="translate(17.784365, 21.384593) rotate(-55.502690) translate(-17.784365, -21.384593) " points="12.496562 20.1345209 23.072168 20.1345209 23.072168 22.6346641 12.496562 22.6346641"></polygon>
            <polygon id="Rectangle" fill="#101828" fill-rule="nonzero" transform="translate(27.627830, 19.543613) rotate(-55.598003) translate(-27.627830, -19.543613) " points="22.3277902 18.2936031 32.9278698 18.2936031 32.9278698 20.7936219 22.3277902 20.7936219"></polygon>
            <polygon id="Rectangle" fill="#101828" fill-rule="nonzero" transform="translate(37.449020, 17.700740) rotate(-55.502690) translate(-37.449020, -17.700740) " points="32.1487163 16.4506684 42.7493237 16.4506684 42.7493237 18.9508116 32.1487163 18.9508116"></polygon>
            <polygon id="Rectangle" fill="#101828" fill-rule="nonzero" transform="translate(47.286985, 15.872795) rotate(-55.502690) translate(-47.286985, -15.872795) " points="41.9866813 14.6227234 52.5872887 14.6227234 52.5872887 17.1228666 41.9866813 17.1228666"></polygon>
            <polygon id="Path" fill="#101828" fill-rule="nonzero" points="15.95 34.725 14.175 32.95 21.675 25.475 23.45 27.25"></polygon>
            <polygon id="Path" fill="#101828" fill-rule="nonzero" points="25.95 34.725 24.175 32.95 31.675 25.475 33.45 27.25"></polygon>
            <polygon id="Path" fill="#101828" fill-rule="nonzero" points="35.95 34.725 34.175 32.95 41.675 25.475 43.45 27.25"></polygon>
            <polygon id="Path" fill="#101828" fill-rule="nonzero" points="45.95 34.725 44.175 32.95 51.675 25.475 53.45 27.25"></polygon>
            <path d="M54,40 L54.575,42.2 L54.95,43.6 L56.35,43.975 C57.225,44.2 58.05,44.55 58.825,45 L60.075,45.725 L61.325,45 L63.275,43.875 L63.625,44.225 L62.5,46.175 L61.775,47.425 L62.5,48.675 C62.95,49.45 63.3,50.275 63.525,51.15 L63.9,52.55 L65.3,52.925 L67.5,53.5 L67.5,54 L65.325,54.575 L63.925,54.95 L63.55,56.35 C63.325,57.225 62.975,58.075 62.525,58.85 L61.8,60.1 L62.525,61.35 L63.65,63.3 L63.3,63.65 L61.35,62.525 L60.1,61.8 L58.85,62.525 C58.075,62.975 57.25,63.325 56.35,63.55 L54.95,63.925 L54.575,65.325 L54,67.5 L53.5,67.5 L52.925,65.325 L52.55,63.925 L51.15,63.55 C50.275,63.325 49.45,62.975 48.675,62.525 L47.425,61.8 L46.175,62.525 L44.225,63.65 L43.875,63.3 L45,61.35 L45.725,60.1 L45,58.85 C44.55,58.075 44.2,57.25 43.975,56.375 L43.6,54.975 L42.2,54.6 L40,54 L40,53.5 L42.2,52.925 L43.6,52.55 L43.975,51.15 C44.2,50.275 44.55,49.45 45,48.675 L45.725,47.425 L45,46.175 L43.875,44.2 L44.225,43.85 L46.175,45 L47.425,45.725 L48.675,45 C49.45,44.55 50.275,44.2 51.15,43.975 L52.55,43.6 L52.925,42.2 L53.5,40 L54,40 L54,40 Z M54.725,37.5 L52.8,37.5 C52.1,37.5 51.475,37.975 51.275,38.675 L50.5,41.55 C49.4,41.85 48.375,42.275 47.425,42.825 L44.85,41.325 C44.6,41.175 44.325,41.125 44.075,41.125 C43.675,41.125 43.275,41.275 42.975,41.575 L41.625,42.925 C41.125,43.425 41.025,44.2 41.375,44.825 L42.875,47.4 C42.325,48.35 41.9,49.4 41.6,50.475 L38.725,51.25 C37.975,51.45 37.5,52.075 37.5,52.775 L37.5,54.7 C37.5,55.4 37.975,56.025 38.675,56.225 L41.55,57 C41.85,58.1 42.275,59.125 42.825,60.1 L41.325,62.675 C40.975,63.3 41.075,64.075 41.575,64.575 L42.925,65.925 C43.225,66.225 43.625,66.375 44.025,66.375 C44.3,66.375 44.575,66.3 44.8,66.175 L47.375,64.675 C48.325,65.225 49.375,65.675 50.475,65.95 L51.25,68.825 C51.425,69.5 52.05,70 52.775,70 L54.7,70 C55.4,70 56.025,69.525 56.225,68.825 L57,65.95 C58.1,65.65 59.15,65.225 60.1,64.675 L62.675,66.15 C62.925,66.3 63.2,66.35 63.45,66.35 C63.85,66.35 64.25,66.2 64.55,65.9 L65.9,64.55 C66.4,64.05 66.5,63.275 66.15,62.65 L64.675,60.075 C65.225,59.1 65.675,58.075 65.95,56.975 L68.825,56.2 C69.5,56.025 70,55.4 70,54.675 L70,52.75 C70,52.05 69.525,51.425 68.825,51.225 L65.95,50.45 C65.65,49.35 65.225,48.3 64.675,47.35 L66.175,44.775 C66.525,44.15 66.425,43.375 65.925,42.875 L64.575,41.525 C64.275,41.225 63.875,41.075 63.475,41.075 C63.2,41.075 62.925,41.15 62.7,41.275 L60.125,42.775 C59.175,42.225 58.125,41.8 57.025,41.5 L56.25,38.625 C56.05,37.975 55.425,37.5 54.725,37.5 L54.725,37.5 Z" id="Shape" fill="#101828" fill-rule="nonzero"></path>
            <path d="M53.75,50 C55.825,50 57.5,51.7 57.5,53.8 C57.5,55.9 55.825,57.6 53.75,57.6 C51.675,57.6 50,55.9 50,53.8 C50,51.7 51.675,50 53.75,50 L53.75,50 Z M53.75,47.5 C50.3,47.5 47.5,50.325 47.5,53.8 C47.5,57.275 50.3,60.1 53.75,60.1 C57.2,60.1 60,57.275 60,53.8 C60,50.325 57.2,47.5 53.75,47.5 L53.75,47.5 Z" id="Shape" fill="#101828" fill-rule="nonzero"></path>
            <path d="M35,54.85 L35,52.625 C35,52.6 35.025,52.55 35.025,52.525 L13.825,52.525 L13.825,27.6 L53.825,27.6 L53.825,35 L54.875,35 C54.925,35 54.975,35.025 55.025,35.025 L55.025,35 L56.35,35 L56.35,25.125 L11.35,25.125 L11.35,52.55 C11.35,53.925 12.475,55.05 13.85,55.05 L35.05,55.05 C35.025,54.975 35,54.925 35,54.85 Z" id="Path" fill="#101828" fill-rule="nonzero"></path>
            <rect id="Rectangle" x="0" y="0" width="80" height="80"></rect>
        </g>
    </g>
</svg>