<?xml version="1.0" encoding="UTF-8"?>
<svg width="80px" height="80px" viewBox="0 0 80 80" version="1.1" xmlns="http://www.w3.org/2000/svg" xmlns:xlink="http://www.w3.org/1999/xlink">
    <!-- Generator: Sketch 57.1 (83088) - https://sketch.com -->
    <title>142-B80px</title>
    <desc>Created with Sketch.</desc>
    <g id="142-B80px" stroke="none" stroke-width="1" fill="none" fill-rule="evenodd">
        <g>
            <path d="M33.975,45 L22.5,45 C15.6,45 10,50.6 10,57.5 L10,70 L12.5,70 L12.5,57.5 C12.5,51.975 16.975,47.5 22.5,47.5 L33.15,47.5 C33.375,46.65 33.65,45.8 33.975,45 Z" id="Path" fill="#101828" fill-rule="nonzero"></path>
            <path d="M52.5,66.25 C44.925,66.25 38.75,60.075 38.75,52.5 L41.25,52.5 C41.25,58.7 46.3,63.75 52.5,63.75 L52.5,66.25 Z" id="Path" fill="#101828" fill-rule="nonzero"></path>
            <path d="M66.25,52.5 L63.75,52.5 C63.75,46.3 58.7,41.25 52.5,41.25 L52.5,38.75 C60.075,38.75 66.25,44.925 66.25,52.5 Z" id="Path" fill="#101828" fill-rule="nonzero"></path>
            <path d="M52.5,37.5 C60.775,37.5 67.5,44.225 67.5,52.5 C67.5,60.775 60.775,67.5 52.5,67.5 C44.225,67.5 37.5,60.775 37.5,52.5 C37.5,44.225 44.225,37.5 52.5,37.5 L52.5,37.5 Z M52.5,35 C42.825,35 35,42.825 35,52.5 C35,62.175 42.825,70 52.5,70 C62.175,70 70,62.175 70,52.5 C70,42.825 62.175,35 52.5,35 L52.5,35 Z" id="Shape" fill="#101828" fill-rule="nonzero"></path>
            <path d="M58.775,49.8 L53.2,44.2 C53,44 52.65,44 52.45,44.2 L49.3,47.35 C48.35,48.3 48.3749375,49.25 48.3749375,50.35 L48.3749375,59.25 C48.3749375,59.7 48.525,60.15 48.85,60.45 C49.15,60.75 49.575,60.95 49.975,60.95 L56.45,60.95 C56.675,60.95 56.85,60.825 56.95,60.625 C57.025,60.425 56.975,60.2 56.825,60.05 L53.05,56.275 L58.775,50.55 C58.975,50.325 58.975,50 58.775,49.8 Z M54.625,59.65 L50,59.65 C49.95,59.65 49.9,59.625 49.9,59.625 C49.875,59.575 49.85,59.55 49.85,59.525 L49.85,59.45 C50.05,59.225 50.65,58.625 50.7,58.575 L52.125,57.15 L54.625,59.65 Z" id="Shape" fill="#101828" fill-rule="nonzero"></path>
            <path d="M32.5,12.5 C39.4,12.5 45,18.1 45,25 C45,31.9 39.4,37.5 32.5,37.5 C25.6,37.5 20,31.9 20,25 C20,18.1 25.6,12.5 32.5,12.5 L32.5,12.5 Z M32.5,10 C24.225,10 17.5,16.725 17.5,25 C17.5,33.275 24.225,40 32.5,40 C40.775,40 47.5,33.275 47.5,25 C47.5,16.725 40.775,10 32.5,10 L32.5,10 Z" id="Shape" fill="#101828" fill-rule="nonzero"></path>
            <rect id="Rectangle" x="0" y="0" width="80" height="80"></rect>
        </g>
    </g>
</svg>