<?xml version="1.0" encoding="UTF-8"?>
<svg width="80px" height="80px" viewBox="0 0 80 80" version="1.1" xmlns="http://www.w3.org/2000/svg" xmlns:xlink="http://www.w3.org/1999/xlink">
    <!-- Generator: Sketch 57.1 (83088) - https://sketch.com -->
    <title>191-B80px</title>
    <desc>Created with Sketch.</desc>
    <g id="191-B80px" stroke="none" stroke-width="1" fill="none" fill-rule="evenodd">
        <g>
            <path d="M52.5,52.475 L52.5,67.5 L17.5,67.5 L17.475,12.5 L52.5,12.5 L52.5,17.45 L55,17.45 L55,12.5 C55,11.125 53.875,10 52.525,10 L17.475,10 C16.125,10 15,11.125 15,12.5 L15,67.5 C15,68.875 16.125,70 17.475,70 L52.5,70 C53.875,70 54.975,68.875 54.975,67.5 L54.975,52.475 L52.5,52.475 Z" id="Path" fill="#101828" fill-rule="nonzero"></path>
            <path d="M35,65 C35.675,65 36.25,64.45 36.25,63.75 C36.25,63.05 35.7,62.5 35,62.5 C34.3,62.5 33.75,63.05 33.75,63.75 C33.75,64.425 34.325,65 35,65" id="Path" fill="#101828" fill-rule="nonzero"></path>
            <rect id="Rectangle" fill="#101828" fill-rule="nonzero" x="17.5" y="57.5" width="35" height="2.5"></rect>
            <path d="M45.825,40.025 L45.8,37.525 C47.3,37.5 48.525,36.275 48.55,34.775 L48.575,32.675 C48.6,29.825 50.925,27.5 53.775,27.5 C56.65,27.5 58.975,29.825 58.975,32.7 L58.975,34.75 C58.975,36.275 60.2,37.5 61.725,37.5 L61.725,40 L45.825,40.025 Z M53.775,30 C52.3,30 51.075,31.2 51.075,32.7 L51.05,34.8 C51.05,35.8 50.75,36.725 50.25,37.525 L57.25,37.5 C56.75,36.7 56.475,35.75 56.475,34.75 L56.475,32.7 C56.475,31.2 55.25,30 53.775,30 Z" id="Shape" fill="#101828" fill-rule="nonzero"></path>
            <path d="M53.775,43.75 C51.7,43.75 50,42.05 50,39.975 L52.5,39.975 C52.5,40.675 53.075,41.25 53.775,41.25 C54.475,41.25 55.05,40.675 55.05,39.975 L57.55,39.975 C57.55,42.05 55.85,43.75 53.775,43.75 Z" id="Path" fill="#101828" fill-rule="nonzero"></path>
            <path d="M67.5,19.95 L40,19.95 C38.625,19.95 37.5,21.075 37.5,22.45 L37.5,42.5 L40,42.5 L40,22.45 L67.5,22.45 L67.5,47.475 L44.95,47.475 L44.2,47.475 L43.575,47.9 L40,50.3 L40,50.25 L37.5,51.925 L37.5,54.975 L44.975,49.975 L67.5,49.975 C68.875,49.975 70,48.85 70,47.475 L70,22.45 C70,21.075 68.875,19.95 67.5,19.95 Z" id="Path" fill="#101828" fill-rule="nonzero"></path>
            <rect id="Rectangle" x="0" y="0" width="80" height="80"></rect>
        </g>
    </g>
</svg>