<?xml version="1.0" encoding="UTF-8"?>
<svg width="56px" height="56px" viewBox="0 0 56 56" version="1.1" xmlns="http://www.w3.org/2000/svg" xmlns:xlink="http://www.w3.org/1999/xlink">
    <!-- Generator: Sketch 57.1 (83088) - https://sketch.com -->
    <title>092-W56px</title>
    <desc>Created with Sketch.</desc>
    <g id="NEW_icons" stroke="none" stroke-width="1" fill="none" fill-rule="evenodd">
        <g id="icons_UD_new-Copy" transform="translate(-532.000000, -12050.000000)">
            <g id="092-W56px" transform="translate(532.000000, 12050.000000)">
                <circle id="Oval-Copy-679" fill="#101828" cx="28" cy="28" r="28"></circle>
                <g id="092-B32px-Copy-4" transform="translate(8.000000, 8.000000)">
                    <path d="M20,32.5 C20.3375,32.5 20.6125,32.225 20.6125,31.875 C20.6125,31.525 20.3375,31.25 20,31.25 C19.6625,31.25 19.3875,31.525 19.3875,31.875 C19.3875,32.225 19.6625,32.5 20,32.5" id="Path" fill="#FFFFFF" fill-rule="nonzero"></path>
                    <rect id="Rectangle" fill="#FFFFFF" fill-rule="nonzero" x="10" y="28.75" width="19.7125" height="1.25"></rect>
                    <path d="M15.55,15 C15.875,15 16.15,15.275 16.15,15.625 C16.15,15.975 15.875,16.25 15.55,16.25 C15.225,16.25 14.95,15.975 14.95,15.625 C14.95,15.275 15.2125,15 15.55,15 L15.55,15 Z M15.55,13.75 C14.525,13.75 13.7,14.5875 13.7,15.625 C13.7,16.6625 14.525,17.5 15.55,17.5 C16.575,17.5 17.4,16.6625 17.4,15.625 C17.4,14.5875 16.5625,13.75 15.55,13.75 L15.55,13.75 Z" id="Shape" fill="#FFFFFF" fill-rule="nonzero"></path>
                    <path d="M15.55,17.5 C15.875,17.5 16.15,17.775 16.15,18.125 C16.15,18.475 15.875,18.75 15.55,18.75 C15.225,18.75 14.95,18.475 14.95,18.125 C14.95,17.775 15.2125,17.5 15.55,17.5 L15.55,17.5 Z M15.55,16.25 C14.525,16.25 13.7,17.0875 13.7,18.125 C13.7,19.1625 14.525,20 15.55,20 C16.575,20 17.4,19.1625 17.4,18.125 C17.4,17.0875 16.5625,16.25 15.55,16.25 L15.55,16.25 Z" id="Shape" fill="#FFFFFF" fill-rule="nonzero"></path>
                    <path d="M28.75,21.25 L28.75,33.6875 C28.75,33.725 28.725,33.75 28.6875,33.75 L11.3125,33.75 C11.275,33.75 11.25,33.725 11.25,33.6875 L11.25,6.3125 C11.25,6.275 11.275,6.25 11.3125,6.25 L28.6875,6.25 C28.725,6.25 28.75,6.275 28.75,6.3125 L28.75,12.5 L30,12.5 L30,6.3125 C30,5.5875 29.4125,5 28.6875,5 L11.3125,5 C10.5875,5 10,5.5875 10,6.3125 L10,33.6875 C10,34.4125 10.5875,35 11.3125,35 L28.6875,35 C29.4125,35 30,34.4125 30,33.6875 L30,21.25 L28.75,21.25 Z" id="Path" fill="#FFFFFF" fill-rule="nonzero"></path>
                    <polygon id="Path" fill="#FFFFFF" fill-rule="nonzero" points="18.1375 20 19.5375 20 20.45 18.225 21.375 20 22.7625 20 21.15 16.8875 22.775 13.75 21.3875 13.75 20.45 15.5375 19.525 13.75 18.125 13.75 19.75 16.8875"></polygon>
                    <polygon id="Path" fill="#FFFFFF" fill-rule="nonzero" points="23.5625 20 24.9625 20 25.875 18.225 26.8 20 28.2 20 26.575 16.8875 28.2 13.75 26.8125 13.75 25.875 15.5375 24.95 13.75 23.55 13.75 25.1875 16.8875"></polygon>
                    <polygon id="Path" fill="#FFFFFF" fill-rule="nonzero" points="29.1125 20 30.5 20 31.425 18.225 32.35 20 33.7375 20 32.125 16.8875 33.75 13.75 32.3625 13.75 31.425 15.5375 30.5 13.75 29.1 13.75 30.725 16.8875"></polygon>
                    <rect id="Rectangle" x="0" y="0" width="40" height="40"></rect>
                </g>
            </g>
        </g>
    </g>
</svg>