<?xml version="1.0" encoding="UTF-8"?>
<svg width="56px" height="56px" viewBox="0 0 56 56" version="1.1" xmlns="http://www.w3.org/2000/svg" xmlns:xlink="http://www.w3.org/1999/xlink">
    <!-- Generator: Sketch 58 (84663) - https://sketch.com -->
    <title>260-G56px</title>
    <desc>Created with Sketch.</desc>
    <g id="NEW_icons" stroke="none" stroke-width="1" fill="none" fill-rule="evenodd">
        <g id="icons_UD_new-Copy" transform="translate(-445.000000, -33148.000000)">
            <g id="260-G56px" transform="translate(445.000000, 33148.000000)">
                <circle id="Oval-Copy-1711" fill="#E3E8EC" cx="28" cy="28" r="28"></circle>
                <g id="260-B32px" transform="translate(8.000000, 8.000000)">
                    <g>
                        <path d="M13.7375,12.5 L13.7375,17.5 L13.1125,17.5 C12.7625,17.5 12.4875,17.275 12.4875,17.0875 L12.4875,12.925 C12.4875,12.725 12.75,12.5 13.1125,12.5 L13.7375,12.5 L13.7375,12.5 Z M14.9875,11.25 L13.125,11.25 C12.0875,11.25 11.25,11.9875 11.25,12.9125 L11.25,17.075 C11.25,18 12.0875,18.75 13.125,18.75 L15,18.75 L15,11.25 L14.9875,11.25 Z" id="Shape" fill="#101828" fill-rule="nonzero"></path>
                        <path d="M29.375,12.375 L28.125,12.375 L28.125,11.75 C28.125,10.9375 27.775,10.0625 27.075,9.1375 C25.6875,7.3 23.5625,6.25 21.25,6.25 C18.9375,6.25 16.8125,7.3 15.425,9.1375 C14.7375,10.05 14.375,10.925 14.375,11.7375 L14.375,12.3625 L13.125,12.3625 L13.125,11.7375 C13.125,10.65 13.5625,9.5125 14.425,8.375 C16.05,6.225 18.5375,5 21.25,5 C23.9625,5 26.45,6.2375 28.075,8.3875 C28.9375,9.525 29.375,10.6625 29.375,11.75 L29.375,12.375 Z" id="Path" fill="#101828" fill-rule="nonzero"></path>
                        <path d="M29.375,12.5 C29.7375,12.5 30,12.725 30,12.9125 L30,17.075 C30,17.275 29.725,17.5 29.3625,17.5 L28.75,17.5 L28.75,12.5 L29.375,12.5 L29.375,12.5 Z M29.375,11.25 L27.5,11.25 L27.5,18.75 L29.3625,18.75 C30.4,18.75 31.25,18 31.25,17.075 L31.25,12.9125 C31.25,11.9875 30.4125,11.25 29.375,11.25 L29.375,11.25 Z" id="Shape" fill="#101828" fill-rule="nonzero"></path>
                        <path d="M24.025,27.5 L22.475,27.5 L22.475,26.25 L24.025,26.25 C26.725,26.25 28.125,22.475 28.125,18.75 L29.375,18.75 C29.375,22.9625 27.7,27.5 24.025,27.5 Z" id="Path" fill="#101828" fill-rule="nonzero"></path>
                        <path d="M28.75,26.475 C30.2,26.9875 31.25,28.3625 31.25,30 L31.25,35 L32.5,35 L32.5,30 C32.5,27.675 30.9,25.7375 28.75,25.175 L28.75,26.475 Z" id="Path" fill="#101828" fill-rule="nonzero"></path>
                        <path d="M11.875,22.5 C14.975,22.5 17.5,25.025 17.5,28.125 C17.5,31.225 14.975,33.75 11.875,33.75 C8.775,33.75 6.25,31.225 6.25,28.125 C6.25,25.025 8.775,22.5 11.875,22.5 L11.875,22.5 Z M11.875,21.25 C8.075,21.25 5,24.325 5,28.125 C5,31.925 8.075,35 11.875,35 C15.675,35 18.75,31.925 18.75,28.125 C18.75,24.325 15.675,21.25 11.875,21.25 L11.875,21.25 Z" id="Shape" fill="#101828" fill-rule="nonzero"></path>
                        <path d="M21.25,8.75 C24.7,8.75 27.5,11.55 27.5,15 C27.5,18.45 24.7,21.25 21.25,21.25 C17.8,21.25 15,18.45 15,15 C15,11.55 17.8,8.75 21.25,8.75 L21.25,8.75 Z M21.25,7.5 C17.1125,7.5 13.75,10.8625 13.75,15 C13.75,19.1375 17.1125,22.5 21.25,22.5 C25.3875,22.5 28.75,19.1375 28.75,15 C28.75,10.85 25.3875,7.5 21.25,7.5 L21.25,7.5 Z" id="Shape" fill="#101828" fill-rule="nonzero"></path>
                        <path d="M23.5875,25 C23.65,25.1 23.7375,25.325 23.7375,25.625 C23.7375,25.925 23.65,26.1375 23.5875,26.25 L21.4,26.2375 C21.3375,26.1375 21.25,25.925 21.25,25.6125 C21.25,25.3125 21.3375,25.1 21.4,24.9875 L23.5875,24.9875 L23.5875,25 Z M23.7375,23.75 L21.25,23.75 C20.5625,23.75 20,24.5875 20,25.625 C20,26.65 20.5625,27.4875 21.25,27.5 L23.7375,27.5 C23.7375,27.5 23.7375,27.5 23.7375,27.5 C24.425,27.5 24.9875,26.6625 24.9875,25.625 L24.9875,25.6125 C24.9875,24.575 24.425,23.75 23.7375,23.75 L23.7375,23.75 Z" id="Shape" fill="#101828" fill-rule="nonzero"></path>
                        <path d="M11.3375,25.95 L9.8125,24.375 C9.65,24.2125 9.3875,24.2125 9.225,24.375 L8.2125,25.35 C8.1125,25.45 8.075,25.575 8.0875,25.7125 C8.325,27.725 10.225,29.6875 10.225,29.6875 C10.225,29.6875 12.1125,31.6375 14.1375,31.9625 C14.2625,31.9875 14.4,31.9375 14.5,31.85 L15.5125,30.875 C15.675,30.7125 15.6875,30.45 15.525,30.2875 L14,28.7125 C13.8375,28.55 13.575,28.55 13.4125,28.7125 L12.7375,29.3625 C12.7375,29.3625 11.9125,29 11.45,28.5125 C10.9875,28.025 10.65,27.1875 10.65,27.1875 L11.325,26.5375 C11.5,26.3875 11.5,26.125 11.3375,25.95 Z" id="Path" fill="#101828" fill-rule="nonzero"></path>
                        <rect id="Rectangle" x="0" y="0" width="40" height="40"></rect>
                    </g>
                </g>
            </g>
        </g>
    </g>
</svg>