<?xml version="1.0" encoding="UTF-8"?>
<svg width="80px" height="80px" viewBox="0 0 80 80" version="1.1" xmlns="http://www.w3.org/2000/svg" xmlns:xlink="http://www.w3.org/1999/xlink">
    <!-- Generator: Sketch 57.1 (83088) - https://sketch.com -->
    <title>176-B80px</title>
    <desc>Created with Sketch.</desc>
    <g id="176-B80px" stroke="none" stroke-width="1" fill="none" fill-rule="evenodd">
        <g>
            <path d="M61.25,51.6 L61.25,65.9 L57.35,63.975 L56.25,63.425 L55.15,63.975 L51.25,65.9 L51.25,51.6 C50.375,51.25 49.525,50.825 48.75,50.325 L48.75,69.95 L56.25,66.275 L63.75,69.95 L63.75,50.325 C62.975,50.825 62.125,51.25 61.25,51.6 Z" id="Path" fill="#101828" fill-rule="nonzero"></path>
            <polygon id="Path" fill="#101828" fill-rule="nonzero" points="55.025 32.5 55.025 35 55.025 45.025 57.525 45.025 57.525 32.5"></polygon>
            <polygon id="Path" fill="#101828" fill-rule="nonzero" points="55 32.5 54.95 32.525 51.675 35.725 53.425 37.5 57.35 33.675 56.15 32.5"></polygon>
            <path d="M56.25,27.475 C62.45,27.475 67.5,32.525 67.5,38.75 C67.5,44.975 62.45,50.025 56.25,50.025 C50.05,50.025 45,44.975 45,38.75 C45,32.525 50.025,27.475 56.25,27.475 L56.25,27.475 Z M56.25,24.975 C48.65,24.975 42.5,31.15 42.5,38.775 C42.5,46.4 48.65,52.575 56.25,52.575 C63.85,52.575 70,46.375 70,38.75 C70,31.125 63.85,24.975 56.25,24.975 L56.25,24.975 Z" id="Shape" fill="#101828" fill-rule="nonzero"></path>
            <path d="M61.25,51.6 L61.25,65.9 L57.35,63.975 L56.25,63.425 L55.15,63.975 L51.25,65.9 L51.25,51.6 C50.375,51.25 49.525,50.825 48.75,50.325 L48.75,69.95 L56.25,66.275 L63.75,69.95 L63.75,50.325 C62.975,50.825 62.125,51.25 61.25,51.6 Z" id="Path" fill="#101828" fill-rule="nonzero"></path>
            <path d="M45.45,24.925 L47.725,24.925 C49.8,23.625 52.2,22.775 54.75,22.525 C50.75,15.025 42.85,9.925 33.775,9.925 C33.775,9.925 33.75,9.925 33.75,9.925 C33.75,9.925 33.75,9.925 33.725,9.925 C33.7,9.925 33.7,9.925 33.675,9.925 C20.6,9.975 10,20.575 10,33.675 C10,46.75 20.6,57.375 33.675,57.425 C33.7,57.425 33.7,57.425 33.725,57.425 C33.725,57.425 33.725,57.425 33.75,57.425 C33.75,57.425 33.775,57.425 33.775,57.425 C38.35,57.425 42.625,56.1 46.25,53.85 L46.25,50.8 C44.575,52.025 42.725,53.025 40.725,53.725 C41.85,52.375 42.8,50.675 43.6,48.725 C42.95,47.925 42.4,47.05 41.925,46.125 C40.375,50.8 37.95,54 35.05,54.725 L35.05,44.9 L41.35,44.9 C41.025,44.1 40.75,43.25 40.55,42.4 L35.05,42.4 L35.05,34.9 L40.55,34.9 C40.75,34.05 41.025,33.2 41.35,32.4 L35.05,32.4 L35.05,24.9 L42.925,24.9 L45.45,24.925 Z M51.775,22.425 L44.9,22.425 C43.95,18.825 42.525,15.8 40.725,13.625 C45.325,15.225 49.225,18.35 51.775,22.425 Z M35.025,12.6 C38.175,13.4 40.775,17.05 42.3,22.425 L35.025,22.425 L35.025,12.6 L35.025,12.6 Z M26.675,13.65 C24.9,15.85 23.475,18.85 22.525,22.425 L15.75,22.425 C18.3,18.4 22.125,15.275 26.675,13.65 Z M14.4,24.925 L21.975,24.925 C21.525,27.275 21.275,29.8 21.2,32.425 L12.575,32.425 C12.725,29.775 13.35,27.225 14.4,24.925 Z M12.575,34.925 L21.2,34.925 C21.275,37.55 21.525,40.075 21.975,42.425 L14.4,42.425 C13.35,40.1 12.725,37.575 12.575,34.925 Z M15.75,44.925 L22.525,44.925 C23.475,48.5 24.875,51.5 26.675,53.7 C22.125,52.075 18.3,48.95 15.75,44.925 Z M32.525,54.775 C29.325,54.025 26.675,50.35 25.125,44.925 L32.525,44.925 L32.525,54.775 L32.525,54.775 Z M32.525,42.425 L24.5,42.425 C24.025,40.125 23.75,37.6 23.7,34.925 L32.5,34.925 L32.5,42.425 L32.525,42.425 Z M32.525,32.425 L23.7,32.425 C23.775,29.75 24.05,27.225 24.5,24.925 L32.5,24.925 L32.5,32.425 L32.525,32.425 Z M32.525,22.425 L25.125,22.425 C26.675,17 29.325,13.325 32.525,12.575 L32.525,22.425 L32.525,22.425 Z" id="Shape" fill="#101828" fill-rule="nonzero"></path>
            <rect id="Rectangle" x="0" y="0" width="80" height="80"></rect>
        </g>
    </g>
</svg>