<?xml version="1.0" encoding="UTF-8"?>
<svg width="56px" height="56px" viewBox="0 0 56 56" version="1.1" xmlns="http://www.w3.org/2000/svg" xmlns:xlink="http://www.w3.org/1999/xlink">
    <!-- Generator: Sketch 57.1 (83088) - https://sketch.com -->
    <title>102-B56px</title>
    <desc>Created with Sketch.</desc>
    <g id="102-B56px" stroke="none" stroke-width="1" fill="none" fill-rule="evenodd">
        <g>
            <path d="M47.25,8.75 L47.25,47.25 L35,47.25 L35,8.75 L47.25,8.75 L47.25,8.75 Z M47.25,7 L35,7 C34.0375,7 33.25,7.7875 33.25,8.75 L33.25,47.25 C33.25,48.2125 34.0375,49 35,49 L47.25,49 C48.2125,49 49,48.2125 49,47.25 L49,8.75 C49,7.7875 48.2125,7 47.25,7 L47.25,7 Z" id="Shape" fill="#101828" fill-rule="nonzero"></path>
            <path d="M21,8.75 L21,47.25 L8.75,47.25 L8.75,8.75 L21,8.75 L21,8.75 Z M21,7 L8.75,7 C7.7875,7 7,7.7875 7,8.75 L7,47.25 C7,48.2125 7.7875,49 8.75,49 L21,49 C21.9625,49 22.75,48.2125 22.75,47.25 L22.75,8.75 C22.75,7.7875 21.9625,7 21,7 L21,7 Z" id="Shape" fill="#101828" fill-rule="nonzero"></path>
            <rect id="Rectangle" x="0" y="0" width="56" height="56"></rect>
        </g>
    </g>
</svg>