<?xml version="1.0" encoding="UTF-8"?>
<svg width="56px" height="56px" viewBox="0 0 56 56" version="1.1" xmlns="http://www.w3.org/2000/svg" xmlns:xlink="http://www.w3.org/1999/xlink">
    <!-- Generator: Sketch 57.1 (83088) - https://sketch.com -->
    <title>218-W56px</title>
    <desc>Created with Sketch.</desc>
    <g id="NEW_icons" stroke="none" stroke-width="1" fill="none" fill-rule="evenodd">
        <g id="icons_UD_new-Copy" transform="translate(-541.000000, -27875.000000)">
            <g id="218-W56px" transform="translate(541.000000, 27875.000000)">
                <circle id="Oval-Copy-1325" fill="#101828" cx="28" cy="28" r="28"></circle>
                <g id="218-B32px-Copy-4" transform="translate(8.000000, 8.000000)">
                    <path d="M27.2,5.025 L26.4625,6.05 C28.625,7.9 30,10.6375 30,13.6875 C30,16.75 28.625,19.4875 26.4625,21.325 L27.2,22.35 C29.675,20.2875 31.2625,17.1625 31.2625,13.6875 C31.25,10.2125 29.675,7.1 27.2,5.025 Z" id="Path" fill="#FFFFFF" fill-rule="nonzero"></path>
                    <path d="M10,13.75 C10,10.6375 11.4125,7.8625 13.6375,6.025 L12.9125,5 C10.375,7.0625 8.75,10.2125 8.75,13.75 C8.75,17.2875 10.375,20.4375 12.9125,22.5 L13.65,21.475 C11.425,19.6375 10,16.8625 10,13.75 Z" id="Path" fill="#FFFFFF" fill-rule="nonzero"></path>
                    <path d="M12.5,13.6875 C12.5,11.625 13.4125,9.775 14.85,8.5125 L14.1125,7.4875 C12.3625,8.9875 11.25,11.2125 11.25,13.6875 C11.25,16.175 12.3625,18.4 14.1125,19.8875 L14.85,18.8625 C13.4125,17.6 12.5,15.75 12.5,13.6875 Z" id="Path" fill="#FFFFFF" fill-rule="nonzero"></path>
                    <path d="M25.9875,7.5875 L25.25,8.6125 C26.625,9.875 27.5,11.675 27.5,13.6875 C27.5,15.7 26.625,17.5125 25.25,18.775 L25.9875,19.8 C27.675,18.3125 28.75,16.125 28.75,13.6875 C28.75,11.2625 27.675,9.075 25.9875,7.5875 Z" id="Path" fill="#FFFFFF" fill-rule="nonzero"></path>
                    <path d="M24.7375,10.2 L23.9875,11.2375 C24.6125,11.9125 25,12.8 25,13.775 C25,14.725 24.6375,15.575 24.0625,16.2375 L24.8125,17.2875 C25.7,16.3875 26.25,15.15 26.25,13.775 C26.25,12.375 25.6625,11.1125 24.7375,10.2 Z" id="Path" fill="#FFFFFF" fill-rule="nonzero"></path>
                    <path d="M15.3625,10.1125 C14.375,11.025 13.75,12.325 13.75,13.7875 C13.75,15.2 14.3375,16.475 15.2875,17.3875 L16.025,16.35 C15.4,15.675 15,14.775 15,13.7875 C15,12.75 15.425,11.8125 16.1,11.1375 L15.3625,10.1125 Z" id="Path" fill="#FFFFFF" fill-rule="nonzero"></path>
                    <path d="M20,12.5 C20.6875,12.5 21.25,13.0625 21.25,13.75 C21.25,14.4375 20.6875,15 20,15 C19.3125,15 18.75,14.4375 18.75,13.75 C18.75,13.0625 19.3125,12.5 20,12.5 L20,12.5 Z M20,11.25 C18.625,11.25 17.5,12.375 17.5,13.75 C17.5,15.125 18.625,16.25 20,16.25 C21.375,16.25 22.5,15.125 22.5,13.75 C22.5,12.375 21.375,11.25 20,11.25 L20,11.25 Z" id="Shape" fill="#FFFFFF" fill-rule="nonzero"></path>
                    <rect id="Rectangle" fill="#FFFFFF" fill-rule="nonzero" x="19.375" y="15" width="1.25" height="20"></rect>
                    <rect id="Rectangle" x="0" y="0" width="40" height="40"></rect>
                </g>
            </g>
        </g>
    </g>
</svg>