<?xml version="1.0" encoding="UTF-8"?>
<svg width="80px" height="80px" viewBox="0 0 80 80" version="1.1" xmlns="http://www.w3.org/2000/svg" xmlns:xlink="http://www.w3.org/1999/xlink">
    <!-- Generator: Sketch 57.1 (83088) - https://sketch.com -->
    <title>118-B80px</title>
    <desc>Created with Sketch.</desc>
    <g id="118-B80px" stroke="none" stroke-width="1" fill="none" fill-rule="evenodd">
        <g>
            <path d="M22.5,32.475 L22.5,47.475 L20,47.475 C18.65,47.475 17.5,46.575 17.5,45.525 L17.5,34.425 C17.5,33.375 18.65,32.475 20.025,32.475 L22.5,32.475 L22.5,32.475 Z M25,29.975 L20.025,29.975 C17.25,29.975 15,31.975 15,34.425 L15,45.525 C15,47.975 17.225,49.975 20,49.975 L25,49.975 L25,29.975 L25,29.975 Z" id="Shape" fill="#101828" fill-rule="nonzero"></path>
            <path d="M46.925,69.95 L41.825,69.95 L41.825,67.45 L46.925,67.45 C53.875,67.45 57.5,58.65 57.5,49.975 L57.5,48.725 L60,48.725 L60,49.975 C60,59.9 55.525,69.95 46.925,69.95 Z" id="Path" fill="#101828" fill-rule="nonzero"></path>
            <path d="M60,31.225 L57.5,31.225 L57.5,29.975 C57.5,27.3 56.575,24.45 54.75,21.525 C51.225,15.8 45.825,12.525 40,12.525 C34.175,12.525 28.8,15.8 25.25,21.5 C23.425,24.45 22.5,27.3 22.5,29.95 L22.5,31.2 L20,31.2 L20,29.95 C20,26.8 21.05,23.525 23.125,20.175 C27.125,13.725 33.275,10.025 40,10.025 L40,10.025 C46.725,10.025 52.875,13.725 56.9,20.2 C58.95,23.55 60,26.825 60,29.975 L60,31.225 Z" id="Path" fill="#101828" fill-rule="nonzero"></path>
            <path d="M46.875,64.975 C47.05,64.975 47.5,65.4 47.5,66.225 C47.5,67.025 47.05,67.475 46.875,67.475 L40.625,67.45 C40.45,67.45 40,67.025 40,66.2 C40,65.4 40.45,64.95 40.625,64.95 L46.875,64.95 L46.875,64.975 Z M46.875,62.475 L40.625,62.475 C38.9,62.475 37.5,64.15 37.5,66.225 C37.5,68.275 38.9,69.95 40.625,69.975 L46.875,70 C46.875,70 46.875,70 46.875,70 C48.6,70 50,68.325 50,66.25 L50,66.225 C50,64.15 48.6,62.475 46.875,62.475 L46.875,62.475 Z" id="Shape" fill="#101828" fill-rule="nonzero"></path>
            <path d="M60,32.475 C61.35,32.475 62.5,33.375 62.5,34.425 L62.5,45.525 C62.5,46.575 61.35,47.475 59.975,47.475 L57.5,47.475 L57.5,32.475 L60,32.475 L60,32.475 Z M60,29.975 L55,29.975 L55,49.975 L59.975,49.975 C62.75,49.975 65,47.975 65,45.525 L65,34.425 C65,31.975 62.775,29.975 60,29.975 L60,29.975 Z" id="Shape" fill="#101828" fill-rule="nonzero"></path>
            <rect id="Rectangle" x="0" y="0" width="80" height="80"></rect>
        </g>
    </g>
</svg>