<?xml version="1.0" encoding="UTF-8"?>
<svg width="42px" height="42px" viewBox="0 0 42 42" version="1.1" xmlns="http://www.w3.org/2000/svg" xmlns:xlink="http://www.w3.org/1999/xlink">
    <!-- Generator: Sketch 58 (84663) - https://sketch.com -->
    <title>251-G40px</title>
    <desc>Created with Sketch.</desc>
    <g id="NEW_icons" stroke="none" stroke-width="1" fill="none" fill-rule="evenodd">
        <g id="icons_UD_new-Copy" transform="translate(-1526.000000, -31908.000000)">
            <g id="251-G40px" transform="translate(1527.000000, 31909.000000)">
                <circle id="Oval-Copy-1449" stroke="#E3E8EC" cx="20" cy="20" r="20"></circle>
                <g id="251-B32px" transform="translate(4.000000, 4.000000)">
                    <g>
                        <path d="M22.2,19.26 L23.09,21.07 L23.32,21.54 L23.84,21.62 L25.83,21.91 L24.39,23.31 L24.01,23.68 L24.1,24.2 L24.44,26.18 L22.66,25.24 L22.19,25 L21.72,25.24 L19.94,26.18 L20.28,24.2 L20.37,23.68 L19.99,23.31 L18.55,21.91 L20.54,21.62 L21.06,21.54 L21.29,21.07 L22.2,19.26 L22.2,19.26 Z M22.2,17 L20.41,20.62 L16.41,21.2 L19.3,24.02 L18.63,28 L22.21,26.12 L25.78,28 L25.1,24.02 L27.99,21.2 L23.99,20.62 L22.2,17 L22.2,17 Z" id="Shape" fill="#101828" fill-rule="nonzero"></path>
                        <path d="M19.37,15.55 C19.16,15.33 18.88,15.22 18.6,15.22 C18.33,15.22 18.05,15.32 17.84,15.53 L16.09,17.22 C16.09,17.22 13.95,16.27 12.74,15.02 C11.53,13.77 10.65,11.6 10.65,11.6 L12.4,9.91 C12.83,9.49 12.85,8.81 12.43,8.38 L8.48,4.31 C8.27,4.09 7.99,3.98 7.71,3.98 C7.44,3.98 7.16,4.08 6.95,4.29 L4.33,6.82 C4.08,7.07 3.97,7.42 4.01,7.77 C4.63,12.99 9.57,18.09 9.57,18.09 C9.57,18.09 12,20.59 15.26,22.37 L15.26,21.22 C12.42,19.57 10.32,17.42 10.28,17.39 C10.24,17.35 5.57,12.48 5,7.65 C5,7.62 5,7.57 5.03,7.54 L7.65,5.01 C7.67,4.99 7.69,4.98 7.72,4.98 C7.74,4.98 7.76,5 7.76,5 L11.71,9.08 C11.74,9.11 11.73,9.17 11.7,9.2 L9.95,10.89 L9.47,11.36 L9.72,11.98 C9.76,12.08 10.69,14.35 12.02,15.72 C13.35,17.09 15.59,18.1 15.69,18.14 L16.31,18.41 L16.79,17.94 L18.54,16.25 C18.56,16.23 18.58,16.22 18.61,16.22 C18.64,16.22 18.66,16.24 18.66,16.24 L20.61,18.25 L21.08,17.3 L19.37,15.55 Z" id="Path" fill="#101828" fill-rule="nonzero"></path>
                        <rect id="Rectangle" x="0" y="0" width="32" height="32"></rect>
                    </g>
                </g>
            </g>
        </g>
    </g>
</svg>