<?xml version="1.0" encoding="UTF-8"?>
<svg width="32px" height="32px" viewBox="0 0 32 32" version="1.1" xmlns="http://www.w3.org/2000/svg" xmlns:xlink="http://www.w3.org/1999/xlink">
    <!-- Generator: Sketch 59.1 (86144) - https://sketch.com -->
    <title>266-B32px</title>
    <desc>Created with Sketch.</desc>
    <g id="266-B32px" stroke="none" stroke-width="1" fill="none" fill-rule="evenodd">
        <g>
            <rect id="Rectangle" x="0" y="0" width="32" height="32"></rect>
            <g id="Group" transform="translate(7.000000, 3.000000)" fill="#101828" fill-rule="nonzero">
                <g transform="translate(3.000000, 0.000000)" id="Path">
                    <path d="M0.5,2.8 L1.1,3.3 C2.3,2 4.1,1.1 6,1.2 C7.9,1.2 9.6,2.2 10.8,3.6 L11.5,3.2 C10.2,1.6 8.3,0.6 6.1,0.5 C3.9,0.3 1.9,1.3 0.5,2.8 Z"></path>
                    <path d="M2.1,3.6 L2.7,4.1 C3.5,3.2 4.7,2.7 6,2.8 C7.3,2.8 8.4,3.4 9.2,4.3 L9.9,3.9 C8.9,2.7 7.6,2 6,2 C4.5,1.9 3.1,2.6 2.1,3.6 Z"></path>
                    <path d="M3.8,4.4 L4.4,4.9 C4.8,4.5 5.4,4.3 6,4.3 C6.6,4.3 7.1,4.6 7.5,4.9 L8.2,4.4 C7.6,3.8 6.9,3.5 6,3.4 C5.2,3.5 4.3,3.9 3.8,4.4 Z"></path>
                </g>
                <polygon id="Path" points="8.4 20.4 9.6 20.4 11.5 18.7 8.6 18.7 9.8 17.5 9.1 16.9 6.5 19.5 9.3 19.5"></polygon>
                <path d="M9,7.2 C13.1,7.2 16.5,10.6 16.5,14.7 C16.5,18.8 13.1,22.2 9,22.2 C4.9,22.2 1.5,18.8 1.5,14.7 C1.5,10.6 4.9,7.2 9,7.2 M9,6.4 C4.4,6.4 0.7,10.1 0.7,14.7 C0.7,19.3 4.4,23 9,23 C13.6,23 17.3,19.3 17.3,14.7 C17.3,10.1 13.6,6.4 9,6.4 L9,6.4 Z" id="Shape"></path>
                <path d="M12.6,25.6 L5.5,25.6 C5.3,25.6 5.2,25.5 5.1,25.3 L3.4,21 C3.3,20.8 3.4,20.5 3.6,20.5 C3.8,20.4 4.1,20.5 4.1,20.7 L5.7,24.8 L12.3,24.8 L13.8,20.7 C13.9,20.5 14.1,20.4 14.3,20.5 C14.5,20.6 14.6,20.8 14.5,21 L13,25.4 C13,25.5 12.8,25.6 12.6,25.6 Z" id="Path"></path>
                <g transform="translate(2.000000, 11.000000)">
                    <path d="M3.5,3.3 L3.5,3.3 C3.3,3.3 3.1,3.1 3.1,2.9 L3.1,2 C3.1,1.8 3.3,1.6 3.5,1.6 L3.5,1.6 C3.7,1.6 3.9,1.8 3.9,2 L3.9,2.9 C3.9,3.1 3.8,3.3 3.5,3.3 Z" id="Path"></path>
                    <path d="M5.3,3.3 L5.3,3.3 C5.1,3.3 4.9,3.1 4.9,2.9 L4.9,2 C4.9,1.8 5.1,1.6 5.3,1.6 L5.3,1.6 C5.5,1.6 5.7,1.8 5.7,2 L5.7,2.9 C5.7,3.1 5.5,3.3 5.3,3.3 Z" id="Path"></path>
                    <path d="M7,3.3 L7,3.3 C6.8,3.3 6.6,3.1 6.6,2.9 L6.6,2 C6.6,1.8 6.8,1.6 7,1.6 L7,1.6 C7.2,1.6 7.4,1.8 7.4,2 L7.4,2.9 C7.4,3.1 7.2,3.3 7,3.3 Z" id="Path"></path>
                    <path d="M8.7,3.3 L8.7,3.3 C8.5,3.3 8.3,3.1 8.3,2.9 L8.3,2 C8.3,1.8 8.5,1.6 8.7,1.6 L8.7,1.6 C8.9,1.6 9.1,1.8 9.1,2 L9.1,2.9 C9.2,3.1 9,3.3 8.7,3.3 Z" id="Path"></path>
                    <path d="M10.5,3.3 L10.5,3.3 C10.3,3.3 10.1,3.1 10.1,2.9 L10.1,2 C10.1,1.8 10.3,1.6 10.5,1.6 L10.5,1.6 C10.7,1.6 10.9,1.8 10.9,2 L10.9,2.9 C10.9,3.1 10.7,3.3 10.5,3.3 Z" id="Path"></path>
                    <path d="M10.9,4.6 L3.1,4.6 C1.9,4.6 0.9,3.6 0.9,2.4 C0.9,1.2 1.9,0.2 3.1,0.2 L10.9,0.2 C12.1,0.2 13.1,1.2 13.1,2.4 C13.1,3.6 12.1,4.6 10.9,4.6 Z M3.1,1.1 C2.4,1.1 1.8,1.7 1.8,2.4 C1.8,3.1 2.4,3.7 3.1,3.7 L10.9,3.7 C11.6,3.7 12.2,3.1 12.2,2.4 C12.2,1.7 11.6,1.1 10.9,1.1 L3.1,1.1 L3.1,1.1 Z" id="Shape"></path>
                </g>
            </g>
        </g>
    </g>
</svg>