<?xml version="1.0" encoding="UTF-8"?>
<svg width="32px" height="32px" viewBox="0 0 32 32" version="1.1" xmlns="http://www.w3.org/2000/svg" xmlns:xlink="http://www.w3.org/1999/xlink">
    <!-- Generator: Sketch 57.1 (83088) - https://sketch.com -->
    <title>184-B32px</title>
    <desc>Created with Sketch.</desc>
    <g id="184-B32px" stroke="none" stroke-width="1" fill="none" fill-rule="evenodd">
        <g>
            <rect id="Rectangle" fill="#101828" fill-rule="nonzero" x="16.94" y="26" width="7.06" height="1"></rect>
            <rect id="Rectangle" fill="#101828" fill-rule="nonzero" x="8.1" y="26" width="6.96" height="1"></rect>
            <path d="M16.06,17.99 C16.33,17.99 16.56,18.21 16.56,18.49 C16.56,18.77 16.34,18.99 16.06,18.99 C15.79,18.99 15.56,18.77 15.56,18.49 C15.56,18.22 15.78,17.99 16.06,17.99 L16.06,17.99 Z M16.04,16.99 C15.22,16.99 14.55,17.66 14.55,18.49 C14.55,19.32 15.22,19.99 16.04,19.99 C16.86,19.99 17.53,19.32 17.53,18.49 C17.54,17.67 16.87,16.99 16.04,16.99 L16.04,16.99 Z" id="Shape" fill="#101828" fill-rule="nonzero"></path>
            <path d="M14.57,21.99 C14.84,21.99 15.07,22.21 15.07,22.49 C15.07,22.77 14.85,22.99 14.57,22.99 C14.3,22.99 14.07,22.77 14.07,22.49 C14.07,22.22 14.29,21.99 14.57,21.99 L14.57,21.99 Z M14.56,20.99 C13.74,20.99 13.07,21.66 13.07,22.49 C13.07,23.32 13.74,23.99 14.56,23.99 C15.38,23.99 16.05,23.32 16.05,22.49 C16.05,21.67 15.38,20.99 14.56,20.99 L14.56,20.99 Z" id="Shape" fill="#101828" fill-rule="nonzero"></path>
            <path d="M16.1,26 C16.37,26 16.6,26.22 16.6,26.5 C16.6,26.78 16.38,27 16.1,27 C15.82,27 15.6,26.78 15.6,26.5 C15.6,26.22 15.83,26 16.1,26 L16.1,26 Z M16.09,25 C15.27,25 14.6,25.67 14.6,26.5 C14.6,27.33 15.27,28 16.09,28 C16.91,28 17.58,27.33 17.58,26.5 C17.58,25.67 16.91,25 16.09,25 L16.09,25 Z" id="Shape" fill="#101828" fill-rule="nonzero"></path>
            <rect id="Rectangle" fill="#101828" fill-rule="nonzero" x="17.04" y="17.99" width="6.96" height="1"></rect>
            <rect id="Rectangle" fill="#101828" fill-rule="nonzero" x="8.1" y="17.99" width="6.6" height="1"></rect>
            <rect id="Rectangle" fill="#101828" fill-rule="nonzero" x="15.35" y="21.99" width="8.65" height="1"></rect>
            <rect id="Rectangle" fill="#101828" fill-rule="nonzero" x="8.1" y="21.99" width="5.36" height="1"></rect>
            <g id="Group" transform="translate(8.000000, 4.000000)" fill="#101828" fill-rule="nonzero">
                <path d="M5.49,8.25 L4.78,7.55 L5.13,7.19 C5.9,6.4 6.94,5.96 8.04,5.96 C9.13,5.96 10.16,6.39 10.93,7.17 L11.28,7.53 L10.57,8.23 L10.22,7.88 C9.05,6.69 7,6.7 5.83,7.9 L5.49,8.25 Z" id="Path"></path>
                <path d="M3.14,6.25 L2.43,5.55 L2.78,5.19 C4.18,3.75 6.06,2.96 8.05,2.96 C10.03,2.96 11.89,3.74 13.29,5.16 L13.64,5.51 L12.94,6.22 L12.59,5.87 C11.38,4.64 9.77,3.97 8.06,3.97 C6.33,3.97 4.71,4.66 3.49,5.9 L3.14,6.25 Z" id="Path"></path>
                <path d="M0.71,4.29 L0,3.59 L0.35,3.23 C2.38,1.15 5.09,0 7.98,0 C10.84,0 13.54,1.13 15.56,3.18 L15.91,3.53 L15.21,4.24 L14.86,3.89 C13.02,2.03 10.58,1 7.98,1 C5.36,1 2.9,2.04 1.05,3.94 L0.71,4.29 Z" id="Path"></path>
            </g>
            <rect id="Rectangle" x="0" y="0" width="32" height="32"></rect>
        </g>
    </g>
</svg>