<?xml version="1.0" encoding="UTF-8"?>
<svg width="56px" height="56px" viewBox="0 0 56 56" version="1.1" xmlns="http://www.w3.org/2000/svg" xmlns:xlink="http://www.w3.org/1999/xlink">
    <!-- Generator: Sketch 57.1 (83088) - https://sketch.com -->
    <title>030-B56px</title>
    <desc>Created with Sketch.</desc>
    <g id="030-B56px" stroke="none" stroke-width="1" fill="none" fill-rule="evenodd">
        <g>
            <path d="M39.375,14 C40.075,14 40.74,14.28 41.23,14.77 C41.72,15.26 42,15.925 42,16.625 C42,17.325 41.72,17.99 41.23,18.48 C40.74,18.97 40.075,19.25 39.375,19.25 C38.675,19.25 38.01,18.97 37.52,18.48 C37.03,17.99 36.75,17.325 36.75,16.625 C36.75,15.925 37.03,15.26 37.52,14.77 C38.01,14.28 38.675,14 39.375,14 L39.375,14 Z M39.375,12.25 C38.255,12.25 37.135,12.67 36.2775,13.5275 C34.5625,15.2425 34.5625,18.0075 36.2775,19.7225 C37.135,20.58 38.255,21 39.375,21 C40.495,21 41.615,20.58 42.4725,19.7225 C44.1875,18.0075 44.1875,15.2425 42.4725,13.5275 C41.615,12.67 40.495,12.25 39.375,12.25 L39.375,12.25 Z" id="Shape" fill="#101828" fill-rule="nonzero"></path>
            <path d="M48.4225,7.665 C48.4225,7.665 46.27,7 43.4,7 C40.39,7 36.61,7.7175 33.67,10.6575 C32.1825,12.145 30.1175,14.21 27.86,16.4675 C26.53,15.4525 24.955,14.8925 23.415,14.8925 C21.7175,14.8925 20.0375,15.5225 18.7775,16.7825 L11.6375,23.9225 L19.46,27.3525 L34.9125,11.9 C36.9775,9.8 39.83,8.75 43.3825,8.75 C44.8525,8.75 46.1125,8.9425 46.935,9.1 C47.355,11.41 47.9325,17.2725 44.1,21.105 L28.6475,36.5575 L32.0775,44.38 L39.2175,37.24 C41.615,34.8425 41.6675,30.975 39.5325,28.1575 L45.3425,22.3475 C50.9775,16.7125 48.4225,7.665 48.4225,7.665 Z M18.83,25.48 L14.5775,23.4325 L20.0025,18.0075 C20.8775,17.1325 22.085,16.6425 23.3975,16.6425 C24.535,16.6425 25.655,17.0275 26.6,17.71 C23.9575,20.3525 21.175,23.135 18.83,25.48 Z M37.9925,35.9975 L32.5675,41.4225 L30.52,37.17 L38.29,29.4 C39.7775,31.5 39.7075,34.2825 37.9925,35.9975 Z" id="Shape" fill="#101828" fill-rule="nonzero"></path>
            <path d="M20.685,38.92 L18.9875,40.6175 C16.625,42.98 13.86,43.575 12.215,43.715 C12.3725,42.035 13.0025,39.2875 15.33,36.96 L17.0275,35.2625 L15.785,34.02 L14.0875,35.7175 C9.835,39.97 10.4475,45.4475 10.4475,45.4475 C10.4475,45.4475 10.7975,45.5 11.375,45.5 C13.1075,45.5 16.975,45.0975 20.23,41.8425 C20.93,41.1425 21.49,40.5825 21.9275,40.145 L20.685,38.92 Z" id="Path" fill="#101828" fill-rule="nonzero"></path>
            <path d="M23.2225,41.44 L20.825,43.8375 C18.0075,46.655 14.3325,47.25 11.76,47.25 C10.6225,47.25 9.625,47.1275 8.9425,47.0225 C8.61,44.695 8.295,39.0425 12.1625,35.175 L14.56,32.7775 L13.3175,31.535 L10.92,33.95 C5.1975,39.6725 7.4375,48.51 7.4375,48.51 C7.4375,48.51 9.24,49 11.76,49 C14.805,49 18.865,48.2825 22.0675,45.08 C23.0825,44.065 23.8525,43.295 24.465,42.6825 L23.2225,41.44 Z" id="Path" fill="#101828" fill-rule="nonzero"></path>
            <polygon id="Rectangle" fill="#101828" fill-rule="nonzero" transform="translate(23.548762, 32.454930) rotate(-45.000000) translate(-23.548762, -32.454930) " points="17.3450716 31.5799388 29.7524526 31.5799388 29.7524526 33.329922 17.3450716 33.329922"></polygon>
            <rect id="Rectangle" x="0" y="0" width="56" height="56"></rect>
        </g>
    </g>
</svg>