<?xml version="1.0" encoding="UTF-8"?>
<svg width="56px" height="56px" viewBox="0 0 56 56" version="1.1" xmlns="http://www.w3.org/2000/svg" xmlns:xlink="http://www.w3.org/1999/xlink">
    <!-- Generator: Sketch 57.1 (83088) - https://sketch.com -->
    <title>066-C56px</title>
    <desc>Created with Sketch.</desc>
    <g id="066-C56px" stroke="none" stroke-width="1" fill="none" fill-rule="evenodd">
        <g>
            <path d="M15.575,9.275 C15.575,9.275 15.75,9.275 15.925,9.45 L23.975,17.675 C24.15,17.85 24.15,17.85 24.15,18.025 C24.15,18.025 24.15,18.2 23.975,18.375 L20.475,21.875 L19.425,22.75 L19.95,23.8 C19.95,23.975 21.875,28.525 24.5,31.325 C27.125,34.125 31.675,36.05 31.85,36.225 L32.9,36.75 L33.775,35.875 L37.275,32.375 C37.45,32.2 37.45,32.2 37.625,32.2 C37.625,32.2 37.8,32.2 37.975,32.375 L46.025,40.6 C46.2,40.775 46.2,40.775 46.2,40.95 C46.2,40.95 46.2,41.125 46.025,41.3 L40.6,46.55 C40.425,46.725 40.425,46.725 40.25,46.725 C40.25,46.725 40.25,46.725 40.25,46.725 C30.275,45.15 20.65,35.35 20.475,35.175 C20.475,35 11.025,25.025 9.8,15.05 C9.8,14.875 9.8,14.7 9.975,14.525 L15.225,9.45 C15.4,9.45 15.575,9.275 15.575,9.275 L15.575,9.275 Z M15.575,7.525 C15.05,7.525 14.525,7.875 14,8.225 L8.75,13.3 C8.225,13.825 7.875,14.525 8.05,15.225 C9.275,25.9 19.425,36.225 19.425,36.225 C19.425,36.225 29.4,46.55 40.075,48.3 C40.25,48.3 40.25,48.3 40.425,48.3 C40.95,48.3 41.65,48.125 42,47.6 L47.425,42.35 C48.3,41.475 48.3,40.075 47.425,39.2 L39.375,30.975 C39.025,30.45 38.325,30.275 37.8,30.275 C37.275,30.275 36.75,30.45 36.225,30.975 L32.725,34.475 C32.725,34.475 28.35,32.55 25.9,29.925 C23.45,27.3 21.7,22.925 21.7,22.925 L25.2,19.425 C26.075,18.55 26.075,17.15 25.2,16.275 L17.15,8.225 C16.8,7.875 16.1,7.525 15.575,7.525 L15.575,7.525 Z" id="Shape" fill="#FF4F12" fill-rule="nonzero"></path>
            <rect id="Rectangle" x="0" y="0" width="56" height="56"></rect>
        </g>
    </g>
</svg>