<?xml version="1.0" encoding="UTF-8"?>
<svg width="32px" height="32px" viewBox="0 0 32 32" version="1.1" xmlns="http://www.w3.org/2000/svg" xmlns:xlink="http://www.w3.org/1999/xlink">
    <!-- Generator: Sketch 57.1 (83088) - https://sketch.com -->
    <title>134-B32px</title>
    <desc>Created with Sketch.</desc>
    <g id="134-B32px" stroke="none" stroke-width="1" fill="none" fill-rule="evenodd">
        <g>
            <path d="M15.5,15 C16.05,15 16.5,15.45 16.5,16 C16.5,16.55 16.05,17 15.5,17 C14.95,17 14.5,16.55 14.5,16 C14.5,15.45 14.95,15 15.5,15 L15.5,15 Z M15.5,14 C14.4,14 13.5,14.9 13.5,16 C13.5,17.1 14.4,18 15.5,18 C16.6,18 17.5,17.1 17.5,16 C17.5,14.9 16.6,14 15.5,14 L15.5,14 Z" id="Shape" fill="#101828" fill-rule="nonzero"></path>
            <path d="M14.5,16 L13.5,16 L13.5,13.12 C13.51,12.26 14.06,10.99 15.54,10.99 C16.11,10.99 16.6,11.18 16.94,11.53 C17.52,12.13 17.52,12.97 17.51,13.07 L16.51,13.04 L17.01,13.05 L16.51,13.04 C16.51,13.03 16.51,12.52 16.22,12.22 C16.07,12.07 15.84,12 15.54,12 C14.54,12 14.5,13.02 14.5,13.13 L14.5,16 Z" id="Path" fill="#101828" fill-rule="nonzero"></path>
            <rect id="Rectangle" fill="#101828" fill-rule="nonzero" x="10.5" y="14" width="1" height="1"></rect>
            <path d="M23.5,9 C23.78,9 24,9.22 24,9.5 C24,9.78 23.78,10 23.5,10 C23.22,10 23,9.78 23,9.5 C23,9.22 23.22,9 23.5,9 L23.5,9 Z M23.5,8 C22.67,8 22,8.67 22,9.5 C22,10.33 22.67,11 23.5,11 C24.33,11 25,10.33 25,9.5 C25,8.67 24.33,8 23.5,8 L23.5,8 Z" id="Shape" fill="#101828" fill-rule="nonzero"></path>
            <path d="M20.5,12 C21.33,12 22,12.67 22,13.5 L22,15.5 C22,16.33 21.33,17 20.5,17 C19.67,17 19,16.33 19,15.5 L19,13.5 C19,12.67 19.67,12 20.5,12 L20.5,12 Z M20.5,11 C19.12,11 18,12.12 18,13.5 L18,15.5 C18,16.88 19.12,18 20.5,18 C21.88,18 23,16.88 23,15.5 L23,13.5 C23,12.12 21.88,11 20.5,11 L20.5,11 Z" id="Shape" fill="#101828" fill-rule="nonzero"></path>
            <path d="M15,20.8 L16.11,21.5 L15,22.19 L15,20.8 L15,20.8 Z M14,19 L14,24 L18,21.5 L14,19 L14,19 Z" id="Shape" fill="#101828" fill-rule="nonzero"></path>
            <g id="Group" transform="translate(4.000000, 15.000000)" fill="#101828" fill-rule="nonzero">
                <path d="M1,3 C1,2.57 1.69,1.98 3,1.43 L3,0.36 C1.14,1.06 0,1.99 0,3 C0,4.98 4.33,6.62 10,6.94 L10,5.94 C4.16,5.61 1,3.92 1,3 Z" id="Path"></path>
                <path d="M21,0.36 L21,1.43 C22.31,1.98 23,2.57 23,3 C23,3.86 20.2,5.42 15,5.87 L15,6.18 L15,6.82 L15,6.87 C20.17,6.43 24,4.86 24,3 C24,1.99 22.86,1.06 21,0.36 Z" id="Path"></path>
            </g>
            <path d="M12.31,14.5 C12.73,14.13 13,13.6 13,13 C13,11.9 12.1,11 11,11 C9.9,11 9,11.9 9,13 L10,13 C10,12.45 10.45,12 11,12 C11.55,12 12,12.45 12,13 C12,13.55 11.55,14 11,14 L11,14 L11,15 C11,15 11,15 11,15 C11.55,15 12,15.45 12,16 C12,16.55 11.55,17 11,17 C10.45,17 10,16.55 10,16 L9,16 C9,17.1 9.9,18 11,18 C12.1,18 13,17.1 13,16 C13,15.4 12.73,14.87 12.31,14.5 Z" id="Path" fill="#101828" fill-rule="nonzero"></path>
            <rect id="Rectangle" x="0" y="0" width="32" height="32"></rect>
        </g>
    </g>
</svg>