<?xml version="1.0" encoding="UTF-8"?>
<svg width="42px" height="42px" viewBox="0 0 42 42" version="1.1" xmlns="http://www.w3.org/2000/svg" xmlns:xlink="http://www.w3.org/1999/xlink">
    <!-- Generator: Sketch 54.1 (76490) - https://sketchapp.com -->
    <title>231-G40px</title>
    <desc>Created with Sketch.</desc>
    <g id="NEW_icons" stroke="none" stroke-width="1" fill="none" fill-rule="evenodd">
        <g id="icons_UD_new-Copy" transform="translate(-1526.000000, -29247.000000)">
            <g id="231-G40px" transform="translate(1527.000000, 29248.000000)">
                <circle id="Oval-Copy-745" stroke="#E3E8EC" cx="20" cy="20" r="20"></circle>
                <g id="231-B32px-Copy-2" transform="translate(4.000000, 4.000000)">
                    <path d="M17.99,11 C17.96,11.68 17.82,12.56 17.63,12.98 C17.35,13.61 16.84,14.41 16,14.89 C15.16,14.41 14.65,13.61 14.37,12.98 C14.18,12.55 14.04,11.67 14.01,11 L17.99,11 L17.99,11 Z M19,10 L13,10 L13,10.75 C13,11.49 13.15,12.72 13.45,13.4 C13.87,14.32 14.64,15.46 16,16 C17.36,15.46 18.13,14.32 18.55,13.4 C18.86,12.73 19,11.49 19,10.75 L19,10 L19,10 Z" id="Shape" fill="#101828" fill-rule="nonzero"></path>
                    <path d="M27,8 L27.01,21 L5,21.01 L4.99,8 L27,8 L27,8 Z M27.01,7 L4.99,7 C4.45,7 4,7.45 4,7.99 L4,21 C4,21.55 4.45,22 4.99,22 L27,22 C27.55,22 27.99,21.55 27.99,21.01 L27.99,7.99 C28,7.45 27.55,7 27.01,7 L27.01,7 Z" id="Shape" fill="#101828" fill-rule="nonzero"></path>
                    <rect id="Rectangle" fill="#101828" fill-rule="nonzero" x="5" y="18" width="22" height="1"></rect>
                    <rect id="Rectangle" fill="#101828" fill-rule="nonzero" x="17" y="22" width="1" height="3"></rect>
                    <rect id="Rectangle" fill="#101828" fill-rule="nonzero" x="14" y="22" width="1" height="3"></rect>
                    <rect id="Rectangle" fill="#101828" fill-rule="nonzero" x="12.02" y="24" width="7.98" height="1"></rect>
                    <path d="M16,20.49 C16.27,20.49 16.5,20.27 16.5,19.99 C16.5,19.71 16.28,19.49 16,19.49 C15.73,19.49 15.5,19.71 15.5,19.99 C15.5,20.27 15.73,20.49 16,20.49" id="Path" fill="#101828" fill-rule="nonzero"></path>
                    <rect id="Rectangle" x="0" y="0" width="32" height="32"></rect>
                </g>
            </g>
        </g>
    </g>
</svg>