<?xml version="1.0" encoding="UTF-8"?>
<svg width="42px" height="42px" viewBox="0 0 42 42" version="1.1" xmlns="http://www.w3.org/2000/svg" xmlns:xlink="http://www.w3.org/1999/xlink">
    <!-- Generator: Sketch 57.1 (83088) - https://sketch.com -->
    <title>237-G40px</title>
    <desc>Created with Sketch.</desc>
    <g id="NEW_icons" stroke="none" stroke-width="1" fill="none" fill-rule="evenodd">
        <g id="icons_UD_new-Copy" transform="translate(-1526.000000, -30154.000000)">
            <g id="237-G40px" transform="translate(1527.000000, 30155.000000)">
                <circle id="Oval-Copy-801" stroke="#E3E8EC" cx="20" cy="20" r="20"></circle>
                <g id="237-B32px-Copy" transform="translate(4.000000, 4.000000)">
                    <g id="Group" transform="translate(3.000000, 5.000000)" fill="#101828" fill-rule="nonzero">
                        <polygon id="Path" points="14.39 17.96 11.02 17.96 11.02 18.95 14.39 18.95"></polygon>
                        <polygon id="Path" points="14.39 15.96 11.02 15.96 11.02 16.96 14.39 16.96"></polygon>
                        <polygon id="Path" points="14.92 4.99 11.02 4.99 11.02 5.99 14.92 5.99 14.98 4.99"></polygon>
                        <path d="M25.02,17.49 C25.02,17.29 24.99,17.03 24.92,16.71 C24.88,16.41 24.81,16.13 24.72,15.85 C23.81,12.21 21,4.95 21,4.95 C21,4.95 20.5,3.1 18.98,2.3 C18.88,1.01 17.82,0 16.5,0 C15.12,0 14,1.12 14,2.49 C14,2.5 14,2.51 14,2.52 L14,2.52 L14,7.53 C13.98,10.88 13.96,16.43 13.96,17.48 C13.96,17.7 13.98,17.91 14,18.12 L14,18.2 L14.01,18.2 C14.03,18.32 14.06,18.42 14.09,18.54 C14.11,18.62 14.13,18.71 14.15,18.79 C14.21,19.02 14.27,19.25 14.36,19.47 C14.41,19.6 14.46,19.73 14.52,19.85 C14.59,20 14.67,20.14 14.75,20.28 C14.84,20.44 14.95,20.6 15.06,20.75 C15.12,20.83 15.17,20.91 15.24,20.99 C15.39,21.18 15.56,21.35 15.74,21.52 C15.8,21.58 15.86,21.63 15.92,21.69 C16.11,21.86 16.32,22.01 16.54,22.15 C16.6,22.19 16.66,22.22 16.72,22.26 C16.95,22.4 17.2,22.52 17.45,22.62 C17.5,22.64 17.55,22.66 17.6,22.67 C17.87,22.77 18.15,22.85 18.44,22.91 C18.47,22.92 18.5,22.92 18.54,22.92 C18.85,22.97 19.17,23.01 19.5,23.01 C19.69,23.01 19.88,23 20.06,22.98 C22.84,22.69 25.02,20.34 25.02,17.49 Z M19.49,22 C19.19,22 18.89,21.97 18.61,21.91 C18.51,21.89 18.43,21.85 18.33,21.83 C18.15,21.78 17.96,21.73 17.78,21.66 C17.67,21.61 17.56,21.55 17.46,21.49 C17.32,21.42 17.17,21.35 17.04,21.26 C16.92,21.18 16.82,21.09 16.71,21 C16.6,20.91 16.49,20.83 16.39,20.74 C16.28,20.64 16.18,20.52 16.09,20.4 C16.01,20.3 15.92,20.21 15.85,20.11 C15.76,19.98 15.68,19.85 15.61,19.71 C15.55,19.6 15.48,19.49 15.43,19.38 C15.37,19.25 15.32,19.11 15.27,18.97 C15.22,18.83 15.18,18.7 15.14,18.56 C15.11,18.44 15.09,18.31 15.07,18.19 C15.04,18.01 15.02,17.82 15.01,17.63 L15.01,17.4 C15.07,14.98 17.06,13.03 19.5,13.03 C21.62,13.03 23.39,14.5 23.86,16.47 C23.88,16.54 23.9,16.63 23.91,16.69 C23.96,16.96 23.99,17.23 23.99,17.51 C23.99,19.68 22.44,21.49 20.4,21.91 C20.11,21.97 19.8,22 19.49,22 Z M20.03,5.2 L20.04,5.25 L20.06,5.3 C20.92,7.52 22.06,10.65 22.9,13.21 C21.96,12.47 20.78,12.02 19.49,12.02 C17.64,12.02 16,12.94 15,14.34 L15,7.51 C15,6.49 15.01,5.68 15.01,5.26 C15.02,5.06 15.04,4.89 15.09,4.73 C15.1,4.69 15.12,4.64 15.13,4.59 C15.15,4.53 15.17,4.48 15.2,4.43 C15.47,3.8 16.08,2.93 17.5,2.93 C19.39,2.94 20.01,5.12 20.03,5.2 Z M15.01,2.49 C15.01,1.67 15.68,1 16.51,1 C17.15,1 17.69,1.41 17.91,1.97 C17.78,1.95 17.65,1.94 17.51,1.94 C16.32,1.94 15.53,2.39 15.01,2.94 L15.01,2.49 Z" id="Shape"></path>
                        <path d="M5.94,22.97 C6.13,22.99 6.32,23 6.51,23 C6.84,23 7.16,22.97 7.47,22.91 C7.5,22.9 7.53,22.9 7.57,22.9 C7.86,22.84 8.14,22.76 8.41,22.66 C8.46,22.64 8.51,22.63 8.56,22.61 C8.81,22.51 9.06,22.39 9.29,22.25 C9.35,22.22 9.41,22.18 9.47,22.14 C9.69,22 9.89,21.85 10.09,21.68 C10.15,21.63 10.21,21.57 10.27,21.51 C10.45,21.34 10.62,21.17 10.77,20.98 C10.83,20.9 10.89,20.82 10.95,20.74 C11.06,20.59 11.16,20.43 11.26,20.27 C11.34,20.13 11.42,19.99 11.49,19.84 C11.55,19.72 11.6,19.59 11.65,19.46 C11.74,19.24 11.8,19.02 11.86,18.78 C11.88,18.7 11.9,18.61 11.92,18.53 C11.94,18.42 11.98,18.31 12,18.19 L12.01,18.19 L12.01,18.11 C12.03,17.9 12.05,17.69 12.05,17.47 C12.05,16.42 12.03,10.88 12.01,7.52 L12.01,2.52 L12.01,2.52 C12.01,2.51 12.01,2.5 12.01,2.49 C12.01,1.11 10.89,-8.8817842e-16 9.51,-8.8817842e-16 C8.2,-8.8817842e-16 7.13,1.01 7.03,2.3 C5.49,3.1 5,4.95 5,4.95 C5,4.95 2.19,12.21 1.27,15.84 C1.18,16.12 1.12,16.41 1.07,16.7 C1.01,17.02 0.97,17.29 0.97,17.48 C0.98,20.34 3.16,22.69 5.94,22.97 Z M5.6,21.91 C3.55,21.49 2.01,19.68 2.01,17.51 C2.01,17.23 2.04,16.96 2.09,16.69 C2.1,16.62 2.13,16.54 2.14,16.47 C2.61,14.5 4.38,13.03 6.5,13.03 C8.94,13.03 10.92,14.98 10.99,17.4 L10.99,17.63 C10.98,17.82 10.96,18.01 10.93,18.19 C10.91,18.32 10.89,18.44 10.86,18.56 C10.83,18.7 10.78,18.84 10.73,18.97 C10.68,19.11 10.63,19.25 10.57,19.38 C10.52,19.5 10.45,19.6 10.39,19.71 C10.31,19.85 10.24,19.98 10.15,20.11 C10.08,20.21 9.99,20.3 9.91,20.4 C9.81,20.52 9.71,20.63 9.6,20.74 C9.5,20.83 9.39,20.92 9.28,21 C9.17,21.09 9.07,21.18 8.95,21.26 C8.82,21.35 8.67,21.42 8.53,21.49 C8.42,21.55 8.32,21.61 8.21,21.66 C8.04,21.73 7.85,21.78 7.66,21.83 C7.57,21.86 7.48,21.89 7.38,21.91 C7.11,21.97 6.81,22 6.51,22 C6.2,22 5.89,21.97 5.6,21.91 Z M8.5,2.94 C9.92,2.94 10.53,3.81 10.8,4.44 C10.82,4.49 10.85,4.54 10.87,4.6 C10.89,4.65 10.9,4.69 10.91,4.74 C10.95,4.9 10.98,5.07 10.99,5.27 C10.99,5.69 11,6.5 11,7.52 L11,14.35 C10,12.95 8.37,12.03 6.51,12.03 C5.22,12.03 4.03,12.48 3.1,13.22 C3.94,10.66 5.08,7.53 5.94,5.31 L5.96,5.26 L5.97,5.21 C5.99,5.12 6.61,2.94 8.5,2.94 Z M10.99,2.94 C10.47,2.39 9.68,1.94 8.49,1.94 C8.35,1.94 8.22,1.95 8.09,1.97 C8.31,1.4 8.86,1 9.5,1 C10.33,1 11,1.67 11,2.49 L11,2.94 L10.99,2.94 Z" id="Shape"></path>
                    </g>
                    <rect id="Rectangle" x="0" y="0" width="32" height="32"></rect>
                </g>
            </g>
        </g>
    </g>
</svg>