<?xml version="1.0" encoding="UTF-8"?>
<svg width="40px" height="40px" viewBox="0 0 40 40" version="1.1" xmlns="http://www.w3.org/2000/svg" xmlns:xlink="http://www.w3.org/1999/xlink">
    <!-- Generator: Sketch 57.1 (83088) - https://sketch.com -->
    <title>244-B40px</title>
    <desc>Created with Sketch.</desc>
    <g id="244-B40px" stroke="none" stroke-width="1" fill="none" fill-rule="evenodd">
        <g>
            <path d="M33.75,23.75 L33.75,26.25 L28.75,26.25 L28.75,23.75 L33.75,23.75 L33.75,23.75 Z M35,22.5 L27.5,22.5 L27.5,27.5 L35,27.5 L35,22.5 L35,22.5 Z" id="Shape" fill="#101828" fill-rule="nonzero"></path>
            <polygon id="Path" fill="#101828" fill-rule="nonzero" points="31.25 28.75 26.25 28.75 26.25 30 31.25 30"></polygon>
            <polygon id="Path" fill="#101828" fill-rule="nonzero" points="31.25 31.25 22.5 31.25 22.5 32.5 31.25 32.5"></polygon>
            <path d="M24.975,22.5 L24.5,22.5 L23.95,22.5 C23.6125,22.5 23.3,22.6375 23.0625,22.875 L19.1,26.9125 C18.875,27.15 18.75,27.4625 18.75,27.7875 L18.75,28.25 L18.75,28.75 L18.75,35 L35,35 L35,22.5 L24.975,22.5 Z M23.725,23.975 L23.725,27.5 L20.275,27.5 L23.725,23.975 Z M33.75,33.75 L20,33.75 L20,28.75 L23.725,28.75 C24.4125,28.75 24.975,28.1875 24.975,27.5 L24.975,23.75 L33.75,23.75 L33.75,33.75 Z" id="Shape" fill="#101828" fill-rule="nonzero"></path>
            <path d="M18.2375,26.025 C15.125,24.05 12.8875,21.7875 12.85,21.75 C12.8,21.6875 6.9625,15.575 6.25,9.5625 C6.25,9.525 6.25,9.4625 6.2875,9.425 L9.5625,6.2625 C9.5875,6.2375 9.6125,6.225 9.65,6.225 C9.675,6.225 9.7,6.25 9.7,6.25 L14.6375,11.35 C14.675,11.3875 14.6625,11.4625 14.625,11.5 L12.4375,13.6125 L11.8375,14.2 L12.15,14.975 C12.2,15.1 13.3625,17.9375 15.025,19.65 C16.6875,21.3625 19.4875,22.625 19.6125,22.675 L20.3875,23.0125 L20.9875,22.425 L23.175,20.3125 C23.2,20.2875 23.225,20.275 23.2625,20.275 C23.3,20.275 23.325,20.3 23.325,20.3 L24.225,21.225 L25.9625,21.225 L24.225,19.425 C23.9625,19.15 23.6125,19.0125 23.2625,19.0125 C22.925,19.0125 22.575,19.1375 22.3125,19.4 L20.125,21.5125 C20.125,21.5125 17.45,20.325 15.9375,18.7625 C14.425,17.2 13.325,14.4875 13.325,14.4875 L15.5125,12.375 C16.05,11.85 16.075,11 15.55,10.4625 L10.6,5.3875 C10.3375,5.1125 9.9875,4.975 9.6375,4.975 C9.3,4.975 8.95,5.1 8.6875,5.3625 L5.4125,8.525 C5.1,8.8375 4.9625,9.275 5.0125,9.7125 C5.7875,16.2375 11.9625,22.6125 11.9625,22.6125 C11.9625,22.6125 14.1625,24.875 17.325,26.9125 L18.2375,26.025 Z" id="Path" fill="#101828" fill-rule="nonzero"></path>
            <rect id="Rectangle" x="0" y="0" width="40" height="40"></rect>
        </g>
    </g>
</svg>