<?xml version="1.0" encoding="UTF-8"?>
<svg width="80px" height="80px" viewBox="0 0 80 80" version="1.1" xmlns="http://www.w3.org/2000/svg" xmlns:xlink="http://www.w3.org/1999/xlink">
    <!-- Generator: Sketch 57.1 (83088) - https://sketch.com -->
    <title>229-W80px</title>
    <desc>Created with Sketch.</desc>
    <g id="NEW_icons" stroke="none" stroke-width="1" fill="none" fill-rule="evenodd">
        <g id="icons_UD_new-Copy" transform="translate(-2151.000000, -29103.000000)">
            <g id="229-W80px" transform="translate(2151.000000, 29103.000000)">
                <circle id="Oval-Copy-1425" fill="#101828" cx="40" cy="40" r="40"></circle>
                <g id="229-B32px-Copy-8" transform="translate(14.000000, 12.000000)">
                    <path d="M8.75,7 L33.25,7 C34.2125,7 35,7.7875 35,8.75 L35,21 L33.25,21 L33.25,8.75 L8.75,8.75 L8.75,47.25 L33.25,47.25 L33.25,45.5 L35,45.465 L35,47.25 C35,48.2125 34.2125,49 33.25,49 L8.75,49 C7.7875,49 7,48.2125 7,47.25 L7,8.75 C7,7.7875 7.7875,7 8.75,7 Z" id="Path" fill="#FFFFFF" fill-rule="nonzero"></path>
                    <circle id="Oval" fill="#FFFFFF" fill-rule="nonzero" cx="21" cy="44.625" r="1"></circle>
                    <path d="M45.5,24.5 L45.5,25.375 C45.5,27.965 44.9575,31.955 44.065,33.915 C42.8575,36.575 40.635,40.0225 36.75,41.8425 C32.865,40.0225 30.625,36.575 29.435,33.915 C28.5425,31.955 28,27.965 28,25.375 L28,24.5 L45.5,24.5 L45.5,24.5 Z M47.25,22.75 L26.25,22.75 L26.25,25.375 C26.25,27.965 26.775,32.2875 27.8425,34.6325 C29.3125,37.87 31.99,41.8425 36.75,43.75 C41.51,41.8425 44.205,37.87 45.6575,34.6325 C46.725,32.27 47.25,27.965 47.25,25.375 L47.25,22.75 L47.25,22.75 Z" id="Shape" fill="#FFFFFF" fill-rule="nonzero"></path>
                    <path d="M29.715,40.25 C30.2225,40.845 30.7475,41.44 31.3425,42 L8.75,42 L8.75,40.25 L29.715,40.25 Z" id="Path" fill="#FFFFFF" fill-rule="nonzero"></path>
                    <g id="Group" transform="translate(14.000000, 12.250000)" fill="#FFFFFF" fill-rule="nonzero">
                        <path d="M7,5.25 C7.9275,5.25 8.785,5.6175 9.3975,6.2125 L10.64,4.97 C9.695,4.06 8.4175,3.5 7,3.5 C5.5475,3.5 4.235,4.095 3.29,5.04 L4.5325,6.2825 C5.1625,5.635 6.0375,5.25 7,5.25 Z" id="Path"></path>
                        <path d="M8.155,7.455 C7.8575,7.175 7.455,7 7,7 C6.51,7 6.0725,7.1925 5.7575,7.5075 L6.93,8.68 L8.155,7.455 Z" id="Path"></path>
                        <path d="M7,1.75 C8.89,1.75 10.6225,2.52 11.8825,3.745 L13.125,2.5025 C11.5325,0.9625 9.38,0 7,0 C4.585,0 2.3975,0.98 0.805,2.555 L2.0475,3.7975 C3.325,2.5375 5.075,1.75 7,1.75 Z" id="Path"></path>
                    </g>
                    <rect id="Rectangle" x="0" y="0" width="56" height="56"></rect>
                </g>
            </g>
        </g>
    </g>
</svg>