<?xml version="1.0" encoding="UTF-8"?>
<svg width="56px" height="56px" viewBox="0 0 56 56" version="1.1" xmlns="http://www.w3.org/2000/svg" xmlns:xlink="http://www.w3.org/1999/xlink">
    <!-- Generator: Sketch 56.3 (81716) - https://sketch.com -->
    <title>045-G56px</title>
    <desc>Created with Sketch.</desc>
    <g id="NEW_icons" stroke="none" stroke-width="1" fill="none" fill-rule="evenodd">
        <g id="icons_UD_new-Copy" transform="translate(-1728.000000, -5872.000000)">
            <g id="045-G56px" transform="translate(1728.000000, 5872.000000)">
                <circle id="Oval-Copy-358" fill="#E3E8EC" cx="28" cy="28" r="28"></circle>
                <g id="045-B32px-Copy-6" transform="translate(8.000000, 8.000000)">
                    <polygon id="Path" fill="#101828" points="23.75 10 16.375 10 16.375 11.9625 18.3 13.5125 18.3 14.6625 14.45 14.6625 14.45 16.4625 17.3375 18.0875 18.175 18.0875 18.175 25 16.05 23.775 16.05 20.225 12.65 18.0625 12.65 25.7625 20.0625 30 27.35 25.7625 27.35 18.0625 24.075 20 24.075 23.7125 21.9625 25 21.9625 18.0875 22.85 18.0875 25.7375 16.4625 25.7375 14.6 21.8875 14.6 21.8875 13.375 23.75 11.8375"></polygon>
                    <path d="M24.8625,8.5375 L28.3375,11.125 L28.3375,26.6625 L20,31.3125 L11.6625,26.675 L11.6625,11.1375 L15.1625,8.5375 L24.8625,8.5375 L24.8625,8.5375 Z M25.2125,7.5 L14.825,7.5 L10.625,10.6125 L10.625,27.2875 L20,32.5 L29.375,27.2875 L29.375,10.6125 L25.2125,7.5 L25.2125,7.5 Z" id="Shape" fill="#101828" fill-rule="nonzero"></path>
                    <rect id="Rectangle" x="0" y="0" width="40" height="40"></rect>
                </g>
            </g>
        </g>
    </g>
</svg>