<?xml version="1.0" encoding="UTF-8"?>
<svg width="80px" height="80px" viewBox="0 0 80 80" version="1.1" xmlns="http://www.w3.org/2000/svg" xmlns:xlink="http://www.w3.org/1999/xlink">
    <!-- Generator: Sketch 54.1 (76490) - https://sketchapp.com -->
    <title>009-W80px</title>
    <desc>Created with Sketch.</desc>
    <g id="NEW_icons" stroke="none" stroke-width="1" fill="none" fill-rule="evenodd">
        <g id="icons_UD_new-Copy" transform="translate(-2151.000000, -1329.000000)">
            <g id="009-W80px" transform="translate(2151.000000, 1329.000000)">
                <circle id="Oval-Copy-129" fill="#101828" cx="40" cy="40" r="40"></circle>
                <g id="009-B32px-Copy-8" transform="translate(12.000000, 12.000000)">
                    <path d="M10.815,37.0825 C10.815,37.0825 10.7975,37.0825 10.7975,37.0825 C10.3775,37.065 10.0275,36.75 9.9575,36.33 C9.905,35.9625 8.645,27.3 11.1475,22.6625 C13.0725,19.1275 16.0475,16.1525 20.02,13.8075 C24.0975,11.41 24.395,9.835 24.7275,8.19 C24.815,7.7525 25.27,7.4025 25.655,7.42 C26.0925,7.455 26.46,7.735 26.4775,8.1725 C26.8625,14.7175 25.5325,19.9325 22.7325,22.8725 C21.3325,24.3425 19.915,25.4975 18.55,26.6175 C15.4175,29.1725 12.7225,31.3775 11.6725,36.4 C11.585,36.8025 11.235,37.0825 10.815,37.0825 Z M24.745,12.32 C23.9575,13.2475 22.7675,14.2275 20.895,15.33 C17.22,17.5 14.455,20.2475 12.6875,23.5025 C11.4625,25.7425 11.27,29.225 11.3575,31.955 C12.8625,28.98 15.1025,27.16 17.4475,25.2525 C18.7775,24.1675 20.1425,23.0475 21.4725,21.665 C23.3625,19.6875 24.4825,16.45 24.745,12.32 Z" id="Shape" fill="#FFFFFF" fill-rule="nonzero"></path>
                    <path d="M21.7875,46.76 C21.7875,46.76 21.77,46.76 21.77,46.76 C21.35,46.7425 21,46.4275 20.93,46.0075 C20.86,45.535 19.215,34.3175 22.47,28.35 C24.955,23.7825 28.805,19.9325 33.9325,16.9225 C39.34,13.72 39.76,11.6375 40.1975,9.415 L40.2325,9.2225 C40.32,8.785 40.6875,8.505 41.1425,8.5225 C41.58,8.5575 41.93,8.9075 41.9475,9.345 C42.455,17.7975 40.74,24.535 37.135,28.315 C35.315,30.2225 33.4775,31.71 31.71,33.1625 C27.5975,36.5225 24.0275,39.4275 22.6625,46.06 C22.5575,46.48 22.2075,46.76 21.7875,46.76 Z M40.25,13.965 C39.27,15.295 37.6425,16.765 34.79,18.445 C29.9425,21.2975 26.32,24.92 23.9925,29.2075 C22.2075,32.48 22.085,37.7475 22.26,41.4575 C24.185,37.03 27.3175,34.4925 30.59,31.815 C32.3225,30.3975 34.1075,28.945 35.8575,27.1075 C38.5,24.3775 40.005,19.7925 40.25,13.965 Z" id="Shape" fill="#FFFFFF" fill-rule="nonzero"></path>
                    <path d="M34.51,48.37 C34.51,48.37 34.4925,48.37 34.4925,48.37 C34.0725,48.3525 33.705,48.0375 33.6525,47.6175 C33.6175,47.355 32.7075,41.125 34.5275,37.765 C35.91,35.21 38.0625,33.075 40.915,31.395 C43.6975,29.75 43.9075,28.7525 44.135,27.58 C44.2225,27.1425 44.6075,26.81 45.0625,26.8275 C45.5,26.8625 45.8675,27.16 45.885,27.5975 C46.165,32.305 45.2025,36.085 43.155,38.22 C42.14,39.27 41.1425,40.0925 40.1625,40.8975 C37.8875,42.7525 36.1025,44.2225 35.3675,47.6875 C35.28,48.0725 34.93,48.37 34.51,48.37 Z M44.0825,31.255 C43.54,31.78 42.805,32.3225 41.8075,32.9175 C39.235,34.44 37.31,36.3475 36.085,38.6225 C35.385,39.9175 35.175,41.825 35.1575,43.54 C36.2075,41.86 37.625,40.7225 39.0775,39.5325 C40.005,38.7625 40.9675,37.9925 41.9125,37.0125 C43.0675,35.7525 43.82,33.775 44.0825,31.255 Z" id="Shape" fill="#FFFFFF" fill-rule="nonzero"></path>
                    <rect id="Rectangle" x="0" y="0" width="56" height="56"></rect>
                </g>
            </g>
        </g>
    </g>
</svg>