<?xml version="1.0" encoding="UTF-8"?>
<svg width="80px" height="80px" viewBox="0 0 80 80" version="1.1" xmlns="http://www.w3.org/2000/svg" xmlns:xlink="http://www.w3.org/1999/xlink">
    <!-- Generator: Sketch 57.1 (83088) - https://sketch.com -->
    <title>123-G80px</title>
    <desc>Created with Sketch.</desc>
    <g id="NEW_icons" stroke="none" stroke-width="1" fill="none" fill-rule="evenodd">
        <g id="icons_UD_new-Copy" transform="translate(-2051.000000, -15789.000000)">
            <g id="123-G80px" transform="translate(2051.000000, 15789.000000)">
                <circle id="Oval-Copy-705" fill="#E3E8EC" cx="40" cy="40" r="40"></circle>
                <g id="123-B32px-Copy-5" transform="translate(12.000000, 12.000000)">
                    <path d="M28,22.75 C30.8875,22.75 33.25,25.1125 33.25,28 C33.25,30.8875 30.8875,33.25 28,33.25 C25.1125,33.25 22.75,30.8875 22.75,28 C22.75,25.1125 25.1125,22.75 28,22.75 L28,22.75 Z M28,21 C24.1325,21 21,24.1325 21,28 C21,31.8675 24.1325,35 28,35 C31.8675,35 35,31.8675 35,28 C35,24.1325 31.8675,21 28,21 L28,21 Z" id="Shape" fill="#101828" fill-rule="nonzero"></path>
                    <polygon id="Path" fill="#101828" fill-rule="nonzero" points="47.565 25.445 28 9.275 8.435 25.445 7.315 24.0975 28 7.0175 48.685 24.0975"></polygon>
                    <path d="M17.5,49 L17.5,45.5 C17.5,42.6125 19.8625,40.25 22.75,40.25 L33.25,40.25 C36.1375,40.25 38.5,42.6125 38.5,45.5 L38.5,49 L40.25,49 L40.25,45.5 C40.25,41.6325 37.1175,38.5 33.25,38.5 L22.75,38.5 C18.8825,38.5 15.75,41.6325 15.75,45.5 L15.75,49 L17.5,49 Z" id="Path" fill="#101828" fill-rule="nonzero"></path>
                    <rect id="Rectangle" x="0" y="0" width="56" height="56"></rect>
                </g>
            </g>
        </g>
    </g>
</svg>