<?xml version="1.0" encoding="UTF-8"?>
<svg width="32px" height="32px" viewBox="0 0 32 32" version="1.1" xmlns="http://www.w3.org/2000/svg" xmlns:xlink="http://www.w3.org/1999/xlink">
    <!-- Generator: Sketch 57.1 (83088) - https://sketch.com -->
    <title>178-B32px</title>
    <desc>Created with Sketch.</desc>
    <g id="178-B32px" stroke="none" stroke-width="1" fill="none" fill-rule="evenodd">
        <g>
            <g id="Group" transform="translate(4.000000, 7.000000)" fill="#101828" fill-rule="nonzero">
                <path d="M0.99,1 L15,1 L15,0 L0.99,0 C0.45,0 0,0.44 0,0.99 L0,14 C0,14.55 0.45,15 0.99,15 L17,15 L17,14 L1,14 L1,12 L17,12 L17,11 L1,11 L0.99,1 Z" id="Path"></path>
                <rect id="Rectangle" x="20" y="11" width="3" height="1"></rect>
                <path d="M23.01,0 L22,0 L22,1 L23,1 L23.01,14 L20,14 L20,15 L23.01,15 C23.55,15 24,14.55 24,14 L24,0.99 C24,0.44 23.55,0 23.01,0 Z" id="Path"></path>
            </g>
            <polygon id="Path" fill="#101828" fill-rule="nonzero" points="18 22 17 22 17 24 15 24 15 22 14 22 14 24 12.02 24 12.02 25 14 25 15 25 17 25 18 25 20 25 20 24 18 24"></polygon>
            <path d="M16,19.5 C15.73,19.5 15.5,19.72 15.5,20 C15.5,20.28 15.72,20.5 16,20.5 C16.27,20.5 16.5,20.28 16.5,20 C16.5,19.72 16.27,19.5 16,19.5 Z" id="Path" fill="#101828" fill-rule="nonzero"></path>
            <rect id="Rectangle" fill="#101828" fill-rule="nonzero" x="22" y="12" width="1" height="16"></rect>
            <path d="M24,8 L24,10.5 C24,11.33 23.33,12 22.5,12 C21.67,12 21,11.33 21,10.5 L21,8 L24,8 L24,8 Z M25,7 L20,7 L20,10.5 C20,11.88 21.12,13 22.5,13 C23.88,13 25,11.88 25,10.5 L25,7 L25,7 Z" id="Shape" fill="#101828" fill-rule="nonzero"></path>
            <path d="M23,5 L23,7 L22,7 L22,5 L23,5 L23,5 Z M23,4 L22,4 C21.45,4 21,4.45 21,5 L21,7 C21,7.55 21.45,8 22,8 L23,8 C23.55,8 24,7.55 24,7 L24,5 C24,4.45 23.55,4 23,4 L23,4 Z" id="Shape" fill="#101828" fill-rule="nonzero"></path>
            <rect id="Rectangle" x="0" y="0" width="32" height="32"></rect>
        </g>
    </g>
</svg>