<?xml version="1.0" encoding="UTF-8"?>
<svg width="56px" height="56px" viewBox="0 0 56 56" version="1.1" xmlns="http://www.w3.org/2000/svg" xmlns:xlink="http://www.w3.org/1999/xlink">
    <!-- Generator: Sketch 57.1 (83088) - https://sketch.com -->
    <title>205-G56px</title>
    <desc>Created with Sketch.</desc>
    <g id="NEW_icons" stroke="none" stroke-width="1" fill="none" fill-rule="evenodd">
        <g id="icons_UD_new-Copy" transform="translate(-1728.000000, -26114.000000)">
            <g id="205-G56px" transform="translate(1728.000000, 26114.000000)">
                <circle id="Oval-Copy-1216" fill="#E3E8EC" cx="28" cy="28" r="28"></circle>
                <g id="205-B32px-Copy-3" transform="translate(8.000000, 8.000000)">
                    <path d="M33.725,12.5 L33.75,12.525 L33.725,26.25 L6.25,26.225 L6.275,12.5 L33.725,12.5 L33.725,12.5 Z M33.725,11.25 L6.275,11.25 C5.575,11.25 5,11.825 5,12.525 L5,26.225 C5,26.925 5.575,27.5 6.275,27.5 L33.725,27.5 C34.425,27.5 35,26.925 35,26.225 L35,12.525 C35,11.825 34.425,11.25 33.725,11.25 L33.725,11.25 Z" id="Shape" fill="#101828" fill-rule="nonzero"></path>
                    <path d="M19.975,27.4375 C14.5875,27.4375 10.55,28.2625 8.75,28.7125 L8.75,30 C10.3,29.6 14.425,28.6875 19.975,28.6875 C25.575,28.6875 29.7375,29.6125 31.25,30.0125 L31.25,28.725 C29.4625,28.2625 25.4125,27.4375 19.975,27.4375 Z" id="Path" fill="#101828" fill-rule="nonzero"></path>
                    <g id="Group" transform="translate(12.500000, 13.750000)" fill="#101828" fill-rule="nonzero">
                        <path d="M2.9625,9.8125 C2.8875,9.8125 2.8,9.8 2.725,9.7625 C2.4,9.6375 2.25,9.275 2.375,8.95 L4.2875,4.175 C4.4125,3.85 4.775,3.7 5.1,3.825 C5.425,3.95 5.575,4.3125 5.45,4.6375 L3.5375,9.4125 C3.45,9.6625 3.2125,9.8125 2.9625,9.8125 Z" id="Path"></path>
                        <path d="M7.5125,11.2625 C3.425,11.2625 0.65,9.45 0.475,9.3375 C0.1875,9.15 0.1125,8.7625 0.3,8.475 C0.4875,8.1875 0.875,8.1125 1.1625,8.3 C1.4,8.45 7.025,12.0875 14.0375,8.275 C14.3375,8.1125 14.7125,8.225 14.8875,8.525 C15.05,8.825 14.9375,9.2125 14.6375,9.375 C12.05,10.7875 9.6125,11.2625 7.5125,11.2625 Z" id="Path"></path>
                        <path d="M13.8125,3.225 C13.8125,2.3 12.275,1.925 12.1375,1.6875 C12,1.45 12.1125,0.4375 12.1125,0.4375 L11.4875,0.4375 C9.7125,0.4375 8.275,1.875 8.275,3.65 C8.275,3.7125 8.225,3.7625 8.1625,3.7625 L3.325,3.7625 C2.3625,3.7625 1.5875,4.5375 1.5875,5.5 C1.5875,5.85 1.8625,6.125 2.2125,6.125 C2.5625,6.125 2.8375,5.85 2.8375,5.5 C2.8375,5.2375 3.05,5.0125 3.325,5.0125 L8.1625,5.0125 C8.9125,5.0125 9.525,4.4 9.525,3.65 C9.525,2.775 10.1,2.0375 10.8875,1.7875 C10.9375,2.1125 10.9625,2.3875 11.275,2.525 C11.45,2.6 12.2875,2.9125 12.3875,2.95 C12.525,3 12.625,3.05 12.625,3.1875 C12.625,3.325 12.5,3.4 12.3875,3.425 C12.3,3.4375 11.225,3.6375 11.125,3.6875 C11.0375,3.7375 10.9625,3.775 10.9,3.85 C10.675,4.1125 10.5875,4.45 10.65,4.85 L11.6125,9.3375 C11.675,9.625 11.9375,9.825 12.225,9.825 C12.275,9.825 12.3125,9.825 12.3625,9.8125 C12.7,9.7375 12.9125,9.4125 12.8375,9.075 L11.8625,4.6875 C12.175,4.65 13,4.3625 13.3125,4.1625 C13.75,3.85 13.8125,3.575 13.8125,3.225 Z" id="Path"></path>
                        <path d="M4.6875,10.8125 C4.6625,10.8125 4.65,10.8125 4.625,10.8125 C4.275,10.775 4.025,10.475 4.0625,10.1375 C4.2375,8.3 5.7625,6.925 7.6125,6.925 C9.4375,6.925 10.9625,8.2875 11.1625,10.1 C11.2,10.4375 10.95,10.75 10.6125,10.7875 C10.275,10.825 9.9625,10.575 9.925,10.2375 C9.8,9.0625 8.8125,8.175 7.625,8.175 C6.425,8.175 5.4375,9.075 5.325,10.2625 C5.275,10.5625 5.0125,10.8125 4.6875,10.8125 Z" id="Path"></path>
                    </g>
                    <rect id="Rectangle" x="0" y="0" width="40" height="40"></rect>
                </g>
            </g>
        </g>
    </g>
</svg>