<?xml version="1.0" encoding="UTF-8"?>
<svg width="80px" height="80px" viewBox="0 0 80 80" version="1.1" xmlns="http://www.w3.org/2000/svg" xmlns:xlink="http://www.w3.org/1999/xlink">
    <!-- Generator: Sketch 58 (84663) - https://sketch.com -->
    <title>252-W80px</title>
    <desc>Created with Sketch.</desc>
    <g id="NEW_icons" stroke="none" stroke-width="1" fill="none" fill-rule="evenodd">
        <g id="icons_UD_new-Copy" transform="translate(-868.000000, -32117.000000)">
            <g id="252-W80px" transform="translate(868.000000, 32117.000000)">
                <circle id="Oval-Copy-1640" fill="#101828" cx="40" cy="40" r="40"></circle>
                <g id="252-B32px-Copy-8" transform="translate(12.000000, 12.000000)">
                    <rect id="Rectangle" x="0" y="0" width="56" height="56"></rect>
                    <path d="M39.3225,31.2375 C43.6625,31.2725 47.1625,34.8425 47.1275,39.1825 C47.0925,43.5225 43.5225,47.0225 39.1825,46.9875 C34.8425,46.9525 31.3425,43.3825 31.3775,39.0425 C31.4125,34.7025 34.9825,31.185 39.3225,31.2375 L39.3225,31.2375 Z M39.34,29.4875 C34.02,29.435 29.68,33.705 29.6275,39.025 C29.575,44.345 33.845,48.685 39.165,48.7375 C44.485,48.79 48.825,44.52 48.8775,39.2 C48.93,33.88 44.66,29.5225 39.34,29.4875 L39.34,29.4875 Z" id="Shape" fill="#FFFFFF" fill-rule="nonzero"></path>
                    <path d="M40.1975,31.2375 L38.4475,31.22 C36.995,31.2025 35.84,30.0125 35.84,28.5775 C35.8575,27.125 37.0475,25.97 38.4825,25.97 L40.2325,25.9875 C41.685,26.005 42.84,27.195 42.84,28.63 C42.84,30.0825 41.65,31.255 40.1975,31.2375 Z M38.4825,27.72 C37.9925,27.72 37.6075,28.105 37.6075,28.595 C37.6075,29.085 37.9925,29.47 38.4825,29.47 L40.2325,29.4875 C40.7225,29.4875 41.1075,29.1025 41.1075,28.6125 C41.1075,28.1225 40.7225,27.7375 40.2325,27.7375 L38.4825,27.72 Z" id="Shape" fill="#FFFFFF" fill-rule="nonzero"></path>
                    <path d="M40.1975,31.2375 L38.4475,31.22 C36.995,31.2025 35.84,30.0125 35.84,28.5775 C35.8575,27.125 37.0475,25.97 38.4825,25.97 L40.2325,25.9875 C41.685,26.005 42.84,27.195 42.84,28.63 C42.84,30.0825 41.65,31.255 40.1975,31.2375 Z M38.4825,27.72 C37.9925,27.72 37.6075,28.105 37.6075,28.595 C37.6075,29.085 37.9925,29.47 38.4825,29.47 L40.2325,29.4875 C40.7225,29.4875 41.1075,29.1025 41.1075,28.6125 C41.1075,28.1225 40.7225,27.7375 40.2325,27.7375 L38.4825,27.72 Z" id="Shape" fill="#FFFFFF" fill-rule="nonzero"></path>
                    <polygon id="Rectangle" fill="#FFFFFF" fill-rule="nonzero" transform="translate(41.018269, 39.120975) rotate(-89.470785) translate(-41.018269, -39.120975) " points="40.1432318 36.4958629 41.8933065 36.4958629 41.8933065 41.7460869 40.1432318 41.7460869"></polygon>
                    <rect id="Rectangle" fill="#FFFFFF" fill-rule="nonzero" transform="translate(39.292453, 36.804957) rotate(-89.536566) translate(-39.292453, -36.804957) " x="37.2186351" y="35.9299283" width="4.14763567" height="1.75005725"></rect>
                    <path d="M33.775,29.2775 C33.775,29.2775 35,28.07 35.0175,28.035 L33.915,26.88 C33.5475,26.495 33.0575,26.3025 32.5675,26.3025 C32.095,26.3025 31.605,26.4775 31.2375,26.8275 L28.1575,29.7675 C28.1575,29.7675 24.4125,28.07 22.33,25.865 C20.2475,23.66 18.725,19.845 18.725,19.845 L21.805,16.905 C22.575,16.1875 22.61,14.98 21.8925,14.2275 L15.0325,7.0525 C14.665,6.6675 14.175,6.475 13.685,6.475 C13.2125,6.475 12.7225,6.65 12.355,7 L7.7175,11.3925 C7.28,11.8125 7.07,12.425 7.14,13.0375 C8.1375,22.1725 16.7125,31.185 16.7125,31.185 C16.7125,31.185 21.5775,36.2775 27.9125,39.445 C27.9125,39.2875 27.895,39.1475 27.895,38.99 C27.895,38.5 27.9475,38.01 28.0175,37.52 C22.3825,34.5275 18.0425,30.03 17.99,29.96 C17.9025,29.8725 9.8175,21.245 8.89,12.8275 C8.89,12.775 8.89,12.6875 8.9425,12.635 L13.5625,8.2425 C13.58,8.2425 13.615,8.225 13.6675,8.225 C13.72,8.225 13.755,8.26 13.755,8.26 L20.5975,15.4525 C20.65,15.505 20.6325,15.61 20.58,15.6625 L17.5,18.6025 L16.6425,19.4075 L17.08,20.51 C17.15,20.685 18.7425,24.675 21.035,27.1075 C23.345,29.54 27.2475,31.325 27.4225,31.395 L28.49,31.885 L29.3475,31.08 L32.4275,28.14 C32.4625,28.105 32.4975,28.0875 32.55,28.0875 C32.6025,28.0875 32.6375,28.1225 32.6375,28.1225 L33.775,29.2775 Z" id="Path" fill="#FFFFFF" fill-rule="nonzero"></path>
                </g>
            </g>
        </g>
    </g>
</svg>