<?xml version="1.0" encoding="UTF-8"?>
<svg width="56px" height="56px" viewBox="0 0 56 56" version="1.1" xmlns="http://www.w3.org/2000/svg" xmlns:xlink="http://www.w3.org/1999/xlink">
    <!-- Generator: Sketch 58 (84663) - https://sketch.com -->
    <title>261-W56px</title>
    <desc>Created with Sketch.</desc>
    <g id="NEW_icons" stroke="none" stroke-width="1" fill="none" fill-rule="evenodd">
        <g id="icons_UD_new-Copy" transform="translate(-1814.000000, -33150.000000)">
            <g id="261-W56px" transform="translate(1814.000000, 33150.000000)">
                <circle id="Oval-Copy-1486" fill="#101828" cx="28" cy="28" r="28"></circle>
                <g id="261-B32px-Copy" transform="translate(8.000000, 8.000000)">
                    <rect id="Rectangle" fill="#FFFFFF" fill-rule="nonzero" x="8.75" y="27.475" width="7.5" height="1.25"></rect>
                    <rect id="Rectangle" fill="#FFFFFF" fill-rule="nonzero" x="8.75" y="29.975" width="7.5" height="1.25"></rect>
                    <path d="M26.2375,7.475 L26.2375,17.55 C26.45,17.5375 26.6625,17.5125 26.875,17.5125 C27.0875,17.5125 27.2875,17.525 27.4875,17.5375 L27.4875,8.725 L28.7375,8.725 L28.7375,17.7 C29.1625,17.7875 29.5875,17.9125 29.9875,18.05 L29.9875,7.475 L26.2375,7.475 Z" id="Path" fill="#FFFFFF" fill-rule="nonzero"></path>
                    <g id="Group" transform="translate(5.000000, 3.750000)" fill="#FFFFFF" fill-rule="nonzero">
                        <path d="M27.4375,31.25 L27.5,31.25 L27.5,31.2125 C27.475,31.225 27.4625,31.2375 27.4375,31.25 Z" id="Path"></path>
                        <path d="M17.275,30 L1.25,30 L1.25,4.35 L2.5,7.475 L20,7.475 L21.25,4.35 L21.25,16.475 C21.65,16.375 22.075,16.3125 22.5,16.275 L22.5,5 L23.75,5 L23.75,6.25 L23.75,16.275 C24.175,16.3125 24.6,16.375 25,16.475 L25,7.5 L26.25,7.5 L26.25,16.875 C26.6875,17.0625 27.1,17.2875 27.5,17.5375 L27.5,6.25 L25,6.25 L25,3.75 L22.5,3.75 L22.5,1.25 L22.4875,1.25 L22.5,1.225 L0,1.225 L0.0125,1.25 L0,1.25 L0,31.25 L18.8125,31.25 C18.25,30.9 17.725,30.475 17.275,30 Z M20.65,2.5 L19.1625,6.225 L3.35,6.225 L1.85,2.5 L20.65,2.5 Z" id="Shape"></path>
                    </g>
                    <path d="M28.125,22.5 C31.225,22.5 33.75,25.025 33.75,28.125 C33.75,31.225 31.225,33.75 28.125,33.75 C25.025,33.75 22.5,31.225 22.5,28.125 C22.5,25.025 25.025,22.5 28.125,22.5 L28.125,22.5 Z M28.125,21.25 C24.325,21.25 21.25,24.325 21.25,28.125 C21.25,31.925 24.325,35 28.125,35 C31.925,35 35,31.925 35,28.125 C35,24.325 31.925,21.25 28.125,21.25 L28.125,21.25 Z" id="Shape" fill="#FFFFFF" fill-rule="nonzero"></path>
                    <path d="M27.6875,26.325 L26.425,25.0125 C26.2875,24.875 26.075,24.875 25.9375,25.0125 L25.1,25.825 C25.0125,25.9 24.9875,26.0125 25,26.125 C25.2,27.8 26.7875,29.4375 26.7875,29.4375 C26.7875,29.4375 28.3625,31.0625 30.05,31.3375 C30.1625,31.35 30.2625,31.3125 30.35,31.2375 L31.1875,30.425 C31.325,30.2875 31.325,30.075 31.2,29.9375 L29.9375,28.625 C29.8,28.4875 29.5875,28.4875 29.45,28.625 L28.8875,29.1625 C28.8875,29.1625 28.2,28.8625 27.8125,28.4625 C27.425,28.0625 27.1375,27.3625 27.1375,27.3625 L27.7,26.825 C27.8125,26.675 27.8125,26.4625 27.6875,26.325 Z" id="Path" fill="#FFFFFF" fill-rule="nonzero"></path>
                    <rect id="Rectangle" x="0" y="0" width="40" height="40"></rect>
                </g>
            </g>
        </g>
    </g>
</svg>