<?xml version="1.0" encoding="UTF-8"?>
<svg width="56px" height="56px" viewBox="0 0 56 56" version="1.1" xmlns="http://www.w3.org/2000/svg" xmlns:xlink="http://www.w3.org/1999/xlink">
    <!-- Generator: Sketch 57.1 (83088) - https://sketch.com -->
    <title>141-W56px</title>
    <desc>Created with Sketch.</desc>
    <g id="NEW_icons" stroke="none" stroke-width="1" fill="none" fill-rule="evenodd">
        <g id="icons_UD_new-Copy" transform="translate(-1814.000000, -18077.000000)">
            <g id="141-W56px" transform="translate(1814.000000, 18077.000000)">
                <circle id="Oval-Copy-1133" fill="#101828" cx="28" cy="28" r="28"></circle>
                <g id="141-B32px-Copy-6" transform="translate(8.000000, 8.000000)">
                    <path d="M26.25,33.125 C22.4625,33.125 19.375,30.0375 19.375,26.25 L20.625,26.25 C20.625,29.35 23.15,31.875 26.25,31.875 L26.25,33.125 Z" id="Path" fill="#FFFFFF" fill-rule="nonzero"></path>
                    <path d="M33.125,26.25 L31.875,26.25 C31.875,23.15 29.35,20.625 26.25,20.625 L26.25,19.375 C30.0375,19.375 33.125,22.4625 33.125,26.25 Z" id="Path" fill="#FFFFFF" fill-rule="nonzero"></path>
                    <path d="M26.25,18.75 C30.3875,18.75 33.75,22.1125 33.75,26.25 C33.75,30.3875 30.3875,33.75 26.25,33.75 C22.1125,33.75 18.75,30.3875 18.75,26.25 C18.75,22.1125 22.1125,18.75 26.25,18.75 L26.25,18.75 Z M26.25,17.5 C21.4125,17.5 17.5,21.4125 17.5,26.25 C17.5,31.0875 21.4125,35 26.25,35 C31.0875,35 35,31.0875 35,26.25 C35,21.4125 31.0875,17.5 26.25,17.5 L26.25,17.5 Z" id="Shape" fill="#FFFFFF" fill-rule="nonzero"></path>
                    <path d="M29.3875,24.9 L26.6,22.1 C26.5,22 26.325,22 26.225,22.1 L24.65,23.675 C24.175,24.15 24.1874687,24.625 24.1874687,25.175 L24.1874687,29.625 C24.1874687,29.85 24.2625,30.075 24.425,30.225 C24.575,30.375 24.7875,30.475 24.9875,30.475 L28.225,30.475 C28.3375,30.475 28.425,30.4125 28.475,30.3125 C28.5125,30.2125 28.4875,30.1 28.4125,30.025 L26.525,28.1375 L29.3875,25.275 C29.4875,25.1625 29.4875,25 29.3875,24.9 Z M27.3125,29.825 L25,29.825 C24.975,29.825 24.95,29.8125 24.95,29.8125 C24.9375,29.7875 24.925,29.775 24.925,29.7625 L24.925,29.725 C25.025,29.6125 25.325,29.3125 25.35,29.2875 L26.0625,28.575 L27.3125,29.825 Z" id="Shape" fill="#FFFFFF" fill-rule="nonzero"></path>
                    <path d="M16.3375,27.5 L16.25,27.5 L16.25,18.75 L16.25,16.25 L16.25,15 L16.25,12.525 L17.5,12.525 L17.5,15 L17.5,16.25 L17.5,18.75 L17.5,21.4125 C17.85,20.775 18.275,20.1875 18.75,19.65 L18.75,16.25 L26.25,16.25 C26.675,16.25 27.0875,16.2875 27.5,16.3375 L27.5,16.25 C28.1875,16.25 28.75,15.6875 28.75,15 L28.75,12.5 C28.75,11.8125 28.1875,11.25 27.5,11.25 L23.7375,11.25 C23.7375,9.95 23.5875,8.825 23.4125,7.975 C23.2875,7.3625 22.75,6.975 22.1875,6.975 C21.9625,6.975 21.7375,7.0375 21.5375,7.1625 L18.375,9.1125 C18.15,8.8875 17.8375,8.75 17.5,8.75 L16.25,8.75 C15.9125,8.75 15.6,8.8875 15.375,9.1125 L12.2125,7.1625 C12,7.0375 11.775,6.975 11.5625,6.975 C11,6.975 10.4625,7.3625 10.3375,7.975 C10.1625,8.825 10.0125,9.95 10.0125,11.25 L6.25,11.25 C5.5625,11.25 5,11.8125 5,12.5 L5,15 C5,15.6875 5.5625,16.25 6.25,16.25 L6.25,27.5 C6.25,28.1875 6.8125,28.75 7.5,28.75 L15,28.75 L16.575,28.75 C16.475,28.3375 16.3875,27.925 16.3375,27.5 Z M18.75,10.35 L22.1875,8.225 L22.1875,8.225 C22.35,9.0125 22.4875,10.05 22.5,11.25 L18.75,11.25 L18.75,10.35 Z M18.75,12.5 L27.5,12.5 L27.5,15 L26.25,15 L18.75,15 L18.75,12.5 Z M16.25,10 L17.5,10 L17.5,11.25 L16.25,11.25 L16.25,10 Z M15,27.5 L7.5,27.5 L7.5,16.25 L15,16.25 L15,27.5 Z M15,15 L7.5,15 L6.25,15 L6.25,12.5 L15,12.5 L15,15 Z M15,11.25 L11.25,11.25 C11.25,10.05 11.3875,9.0125 11.55,8.225 L11.55,8.225 L15,10.35 L15,11.25 Z" id="Shape" fill="#FFFFFF" fill-rule="nonzero"></path>
                    <rect id="Rectangle" x="0" y="0" width="40" height="40"></rect>
                </g>
            </g>
        </g>
    </g>
</svg>