<?xml version="1.0" encoding="UTF-8"?>
<svg width="56px" height="56px" viewBox="0 0 56 56" version="1.1" xmlns="http://www.w3.org/2000/svg" xmlns:xlink="http://www.w3.org/1999/xlink">
    <!-- Generator: Sketch 57.1 (83088) - https://sketch.com -->
    <title>122-W56px</title>
    <desc>Created with Sketch.</desc>
    <g id="NEW_icons" stroke="none" stroke-width="1" fill="none" fill-rule="evenodd">
        <g id="icons_UD_new-Copy" transform="translate(-532.000000, -15816.000000)">
            <g id="122-W56px" transform="translate(532.000000, 15816.000000)">
                <circle id="Oval-Copy-777" fill="#101828" cx="28" cy="28" r="28"></circle>
                <g id="122-B32px-Copy-5" transform="translate(8.000000, 8.000000)">
                    <path d="M19.4125,7.4625 L20.8,8.3375 L19.4125,9.2125 L19.4125,7.4625 L19.4125,7.4625 Z M18.1625,5.2125 L18.1625,11.4625 L23.1625,8.3375 L18.1625,5.2125 L18.1625,5.2125 Z" id="Shape" fill="#FFFFFF" fill-rule="nonzero"></path>
                    <path d="M20.6625,31 L20.6625,32.7375 L19.275,31.8625 L20.6625,31 L20.6625,31 Z M21.9125,28.75 L16.9125,31.875 L21.9125,35 L21.9125,28.75 L21.9125,28.75 Z" id="Shape" fill="#FFFFFF" fill-rule="nonzero"></path>
                    <path d="M14.25,13.15 L17.1,16.1 L15.8625,17.3 L15.2625,17.8875 L15.575,18.6625 C15.6625,18.875 16.4375,20.7625 17.6,21.95 C18.7625,23.15 20.6125,23.9875 20.825,24.075 L21.6,24.4125 L22.2,23.825 L23.4375,22.625 L26.2875,25.575 L24.425,27.375 C20.525,26.6625 16.7625,22.8125 16.725,22.775 C16.6875,22.7375 12.925,18.8125 12.3875,14.9125 L14.25,13.15 L14.25,13.15 Z M14.2625,11.7625 C14.0375,11.7625 13.8,11.85 13.625,12.025 L11.4125,14.1625 C11.2,14.375 11.1,14.6625 11.1375,14.9625 C11.6625,19.3625 15.825,23.675 15.825,23.675 C15.825,23.675 19.9625,27.95 24.4,28.6625 C24.45,28.675 24.4875,28.675 24.5375,28.675 C24.775,28.675 25.0125,28.575 25.1875,28.4125 L27.4,26.275 C27.7625,25.925 27.775,25.3375 27.425,24.9875 L24.1,21.55 C23.925,21.3375 23.6875,21.25 23.45,21.25 C23.225,21.25 22.9875,21.3375 22.8125,21.5125 L21.3375,22.9375 C21.3375,22.9375 19.525,22.1375 18.5125,21.075 C17.4875,20.025 16.75,18.1875 16.75,18.1875 L18.225,16.7625 C18.5875,16.4125 18.6,15.825 18.25,15.475 L14.925,12.0375 C14.7375,11.85 14.5,11.7625 14.2625,11.7625 L14.2625,11.7625 Z" id="Shape" fill="#FFFFFF" fill-rule="nonzero"></path>
                    <g id="Group" transform="translate(6.250000, 7.500000)" fill="#FFFFFF" fill-rule="nonzero">
                        <path d="M18.1375,1.25 L16.825,2.0875 C21.2375,3.6125 24.4125,7.7875 24.4125,12.7125 C24.4125,18.0625 20.65,22.55 15.6375,23.675 L15.625,24.9625 C21.3375,23.8125 25.6625,18.7625 25.6625,12.7125 C25.6625,7.5875 22.5625,3.175 18.1375,1.25 Z" id="Path"></path>
                        <path d="M10.1125,23.525 C5.3875,22.1875 1.9125,17.85 1.9125,12.7125 C1.9125,6.9375 6.3,2.1625 11.9125,1.5375 L11.9125,0.275 C5.6,0.9 0.6625,6.2375 0.6625,12.7125 C0.6625,18.05 4.0375,22.6125 8.75,24.4 L10.1125,23.525 Z" id="Path"></path>
                    </g>
                    <rect id="Rectangle" x="0" y="0" width="40" height="40"></rect>
                </g>
            </g>
        </g>
    </g>
</svg>