<?xml version="1.0" encoding="UTF-8"?>
<svg width="40px" height="40px" viewBox="0 0 40 40" version="1.1" xmlns="http://www.w3.org/2000/svg" xmlns:xlink="http://www.w3.org/1999/xlink">
    <!-- Generator: Sketch 59.1 (86144) - https://sketch.com -->
    <title>266-B40px</title>
    <desc>Created with Sketch.</desc>
    <g id="266-B40px" stroke="none" stroke-width="1" fill="none" fill-rule="evenodd">
        <g>
            <rect id="Rectangle" x="0" y="0" width="40" height="40"></rect>
            <g id="Group" transform="translate(8.750000, 3.750000)" fill="#101828" fill-rule="nonzero">
                <g transform="translate(3.750000, 0.000000)" id="Path">
                    <path d="M0.625,3.5 L1.375,4.125 C2.875,2.5 5.125,1.375 7.5,1.5 C9.875,1.5 12,2.75 13.5,4.5 L14.375,4 C12.75,2 10.375,0.75 7.625,0.625 C4.875,0.375 2.375,1.625 0.625,3.5 Z"></path>
                    <path d="M2.625,4.5 L3.375,5.125 C4.375,4 5.875,3.375 7.5,3.5 C9.125,3.5 10.5,4.25 11.5,5.375 L12.375,4.875 C11.125,3.375 9.5,2.5 7.5,2.5 C5.625,2.375 3.875,3.25 2.625,4.5 Z"></path>
                    <path d="M4.75,5.5 L5.5,6.125 C6,5.625 6.75,5.375 7.5,5.375 C8.25,5.375 8.875,5.75 9.375,6.125 L10.25,5.5 C9.5,4.75 8.625,4.375 7.5,4.25 C6.5,4.375 5.375,4.875 4.75,5.5 Z"></path>
                </g>
                <polygon id="Path" points="10.5 25.5 12 25.5 14.375 23.375 10.75 23.375 12.25 21.875 11.375 21.125 8.125 24.375 11.625 24.375"></polygon>
                <path d="M11.25,9 C16.375,9 20.625,13.25 20.625,18.375 C20.625,23.5 16.375,27.75 11.25,27.75 C6.125,27.75 1.875,23.5 1.875,18.375 C1.875,13.25 6.125,9 11.25,9 M11.25,8 C5.5,8 0.875,12.625 0.875,18.375 C0.875,24.125 5.5,28.75 11.25,28.75 C17,28.75 21.625,24.125 21.625,18.375 C21.625,12.625 17,8 11.25,8 L11.25,8 Z" id="Shape"></path>
                <path d="M15.75,32 L6.875,32 C6.625,32 6.5,31.875 6.375,31.625 L4.25,26.25 C4.125,26 4.25,25.625 4.5,25.625 C4.75,25.5 5.125,25.625 5.125,25.875 L7.125,31 L15.375,31 L17.25,25.875 C17.375,25.625 17.625,25.5 17.875,25.625 C18.125,25.75 18.25,26 18.125,26.25 L16.25,31.75 C16.25,31.875 16,32 15.75,32 Z" id="Path"></path>
                <g transform="translate(2.500000, 13.750000)">
                    <path d="M4.375,4.125 L4.375,4.125 C4.125,4.125 3.875,3.875 3.875,3.625 L3.875,2.5 C3.875,2.25 4.125,2 4.375,2 L4.375,2 C4.625,2 4.875,2.25 4.875,2.5 L4.875,3.625 C4.875,3.875 4.75,4.125 4.375,4.125 Z" id="Path"></path>
                    <path d="M6.625,4.125 L6.625,4.125 C6.375,4.125 6.125,3.875 6.125,3.625 L6.125,2.5 C6.125,2.25 6.375,2 6.625,2 L6.625,2 C6.875,2 7.125,2.25 7.125,2.5 L7.125,3.625 C7.125,3.875 6.875,4.125 6.625,4.125 Z" id="Path"></path>
                    <path d="M8.75,4.125 L8.75,4.125 C8.5,4.125 8.25,3.875 8.25,3.625 L8.25,2.5 C8.25,2.25 8.5,2 8.75,2 L8.75,2 C9,2 9.25,2.25 9.25,2.5 L9.25,3.625 C9.25,3.875 9,4.125 8.75,4.125 Z" id="Path"></path>
                    <path d="M10.875,4.125 L10.875,4.125 C10.625,4.125 10.375,3.875 10.375,3.625 L10.375,2.5 C10.375,2.25 10.625,2 10.875,2 L10.875,2 C11.125,2 11.375,2.25 11.375,2.5 L11.375,3.625 C11.5,3.875 11.25,4.125 10.875,4.125 Z" id="Path"></path>
                    <path d="M13.125,4.125 L13.125,4.125 C12.875,4.125 12.625,3.875 12.625,3.625 L12.625,2.5 C12.625,2.25 12.875,2 13.125,2 L13.125,2 C13.375,2 13.625,2.25 13.625,2.5 L13.625,3.625 C13.625,3.875 13.375,4.125 13.125,4.125 Z" id="Path"></path>
                    <path d="M13.625,5.75 L3.875,5.75 C2.375,5.75 1.125,4.5 1.125,3 C1.125,1.5 2.375,0.25 3.875,0.25 L13.625,0.25 C15.125,0.25 16.375,1.5 16.375,3 C16.375,4.5 15.125,5.75 13.625,5.75 Z M3.875,1.375 C3,1.375 2.25,2.125 2.25,3 C2.25,3.875 3,4.625 3.875,4.625 L13.625,4.625 C14.5,4.625 15.25,3.875 15.25,3 C15.25,2.125 14.5,1.375 13.625,1.375 L3.875,1.375 L3.875,1.375 Z" id="Shape"></path>
                </g>
            </g>
        </g>
    </g>
</svg>