<?xml version="1.0" encoding="UTF-8"?>
<svg width="56px" height="56px" viewBox="0 0 56 56" version="1.1" xmlns="http://www.w3.org/2000/svg" xmlns:xlink="http://www.w3.org/1999/xlink">
    <!-- Generator: Sketch 56.3 (81716) - https://sketch.com -->
    <title>036-W56px</title>
    <desc>Created with Sketch.</desc>
    <g id="NEW_icons" stroke="none" stroke-width="1" fill="none" fill-rule="evenodd">
        <g id="icons_UD_new-Copy" transform="translate(-532.000000, -4867.000000)">
            <g id="036-W56px" transform="translate(532.000000, 4867.000000)">
                <circle id="Oval-Copy-324" fill="#101828" cx="28" cy="28" r="28"></circle>
                <g id="036-B32px-Copy-6" transform="translate(8.000000, 8.000000)">
                    <path d="M33.75,8.75 L21.25,8.75 L21.25,6.25 L5,8.75 L5,31.25 L21.25,33.75 L21.25,31.25 L33.75,31.25 C34.4375,31.25 35,30.6875 35,30 L35,10 C35,9.3125 34.4375,8.75 33.75,8.75 Z M14.6,24.7375 L13.2375,21.2625 L11.775,24.55 L9.9625,24.4125 L12.0375,19.85 L10.2,15.1875 L12.05,15.1 L13.2,18.3 L14.675,14.8875 L16.5875,14.75 L14.4125,19.825 L16.675,24.85 L14.6,24.7375 Z M33.75,30 L21.25,30 L21.25,28.75 L25,28.75 L25,26.25 L21.25,26.25 L21.25,25 L25,25 L25,22.5 L21.25,22.5 L21.25,21.25 L25,21.25 L25,18.75 L21.25,18.75 L21.25,17.5 L25,17.5 L25,15 L21.25,15 L21.25,13.75 L25,13.75 L25,11.25 L21.25,11.25 L21.25,10 L33.75,10 L33.75,30 Z" id="Shape" fill="#FFFFFF"></path>
                    <rect id="Rectangle" fill="#FFFFFF" x="26.25" y="11.25" width="5" height="2.5"></rect>
                    <rect id="Rectangle" fill="#FFFFFF" x="26.25" y="15" width="5" height="2.5"></rect>
                    <rect id="Rectangle" fill="#FFFFFF" x="26.25" y="18.75" width="5" height="2.5"></rect>
                    <rect id="Rectangle" fill="#FFFFFF" x="26.25" y="22.5" width="5" height="2.5"></rect>
                    <rect id="Rectangle" fill="#FFFFFF" x="26.25" y="26.25" width="5" height="2.5"></rect>
                    <rect id="Rectangle" x="0" y="0" width="40" height="40"></rect>
                </g>
            </g>
        </g>
    </g>
</svg>