<?xml version="1.0" encoding="UTF-8"?>
<svg width="80px" height="80px" viewBox="0 0 80 80" version="1.1" xmlns="http://www.w3.org/2000/svg" xmlns:xlink="http://www.w3.org/1999/xlink">
    <!-- Generator: Sketch 57.1 (83088) - https://sketch.com -->
    <title>050-B80px</title>
    <desc>Created with Sketch.</desc>
    <g id="050-B80px" stroke="none" stroke-width="1" fill="none" fill-rule="evenodd">
        <g>
            <path d="M67.5,15 L12.5,15 C11.125,15 10,16.125 10,17.5 L10,55 C10,56.375 11.125,57.5 12.5,57.5 L27.325,57.5 C26.7,56.675 26.15,55.825 25.625,55 L12.5,55 L12.5,17.5 L67.5,17.5 L67.5,55 L54.375,55 C53.85,55.825 53.275,56.675 52.675,57.5 L67.5,57.5 C68.875,57.5 70,56.375 70,55 L70,17.5 C70,16.125 68.875,15 67.5,15 Z" id="Path" fill="#101828" fill-rule="nonzero"></path>
            <path d="M55,32.5 L55,34.375 C55,38.825 54.1,45.425 52.575,48.775 C50.525,53.3 46.7,59.225 40,62.275 C33.3,59.225 29.475,53.3 27.425,48.775 C25.9,45.425 25,38.825 25,34.375 L25,32.5 L55,32.5 L55,32.5 Z M57.5,30 L22.5,30 L22.5,34.375 C22.5,38.7 23.375,45.875 25.15,49.825 C27.575,55.2 32.075,61.85 40,65.025 C47.925,61.85 52.425,55.225 54.85,49.825 C56.625,45.9 57.5,38.7 57.5,34.375 L57.5,30 L57.5,30 Z" id="Shape" fill="#101828" fill-rule="nonzero"></path>
            <path d="M27.425,21.25 C28.1,21.25 28.675,20.7 28.675,20 C28.675,19.325 28.125,18.75 27.425,18.75 C26.725,18.75 26.175,19.3 26.175,20 C26.175,20.7 26.75,21.25 27.425,21.25" id="Path" fill="#101828" fill-rule="nonzero"></path>
            <path d="M17.475,21.25 C18.15,21.25 18.725,20.7 18.725,20 C18.725,19.325 18.175,18.75 17.475,18.75 C16.8,18.75 16.25,19.325 16.25,20 C16.25,20.7 16.8,21.25 17.475,21.25" id="Path" fill="#101828" fill-rule="nonzero"></path>
            <path d="M22.475,21.25 C23.15,21.25 23.725,20.7 23.725,20 C23.725,19.325 23.175,18.75 22.475,18.75 C21.8,18.75 21.25,19.325 21.25,20 C21.25,20.7 21.8,21.25 22.475,21.25" id="Path" fill="#101828" fill-rule="nonzero"></path>
            <rect id="Rectangle" fill="#101828" fill-rule="nonzero" x="12.5" y="22.5" width="55" height="2.5"></rect>
            <path d="M44.3,42.625 C44.3,44.425 44.3,46.25 44.3,48.05 C44.3,48.275 44.3,48.475 44.575,48.525 C44.825,48.575 44.975,48.45 45.075,48.225 C45.6,47.075 46.15,45.95 46.675,44.8 C47.025,44.025 48,43.9 48.525,44.6 C48.7,44.85 48.775,45.125 48.65,45.4 C47.9,47.275 47.225,49.175 46.35,51 C45.325,53.15 43.55,54.475 41.175,54.9 C39.875,55.125 38.625,55.025 37.425,54.45 C35.9,53.725 35,52.475 34.55,50.85 C34.2,49.55 34.025,48.25 34.05,46.9 C34.125,44.225 34.175,41.525 34.25,38.85 C34.25,38.375 34.55,38.075 35.025,38.025 C35.575,37.975 36,38.225 36.1,38.675 C36.125,38.825 36.15,38.975 36.15,39.125 C36.15,40.525 36.15,41.925 36.15,43.325 C36.15,43.4 36.15,43.475 36.15,43.55 C36.15,43.775 36.3,43.9 36.5,43.9 C36.7,43.9 36.85,43.8 36.85,43.55 C36.85,43.3 36.85,43.05 36.85,42.8 C36.85,40.975 36.85,39.15 36.85,37.325 C36.85,36.725 37.225,36.35 37.825,36.35 C38.45,36.35 38.85,36.7 38.85,37.325 C38.85,39.2 38.85,41.075 38.85,42.95 C38.85,43.075 38.825,43.225 38.9,43.275 C39,43.375 39.175,43.425 39.3,43.425 C39.4,43.4 39.525,43.25 39.55,43.125 C39.6,42.95 39.575,42.775 39.575,42.6 C39.575,40.4 39.575,38.225 39.575,36.025 C39.575,35.625 39.675,35.3 40.05,35.125 C40.45,34.925 40.85,34.95 41.25,35.15 C41.575,35.325 41.575,35.675 41.575,35.975 C41.575,38.15 41.575,40.3 41.575,42.475 C41.575,42.675 41.575,42.85 41.575,43.05 C41.575,43.375 41.675,43.5 41.95,43.5 C42.225,43.5 42.3,43.325 42.3,43.075 C42.3,41.25 42.3,39.4 42.3,37.575 C42.3,37.4 42.3,37.25 42.325,37.075 C42.425,36.45 42.8,36.175 43.475,36.225 C44,36.275 44.3,36.65 44.3,37.225 C44.3,39.025 44.3,40.825 44.3,42.625 Z" id="Path" fill="#101828" fill-rule="nonzero"></path>
            <rect id="Rectangle" x="0" y="0" width="80" height="80"></rect>
        </g>
    </g>
</svg>