<?xml version="1.0" encoding="UTF-8"?>
<svg width="80px" height="80px" viewBox="0 0 80 80" version="1.1" xmlns="http://www.w3.org/2000/svg" xmlns:xlink="http://www.w3.org/1999/xlink">
    <!-- Generator: Sketch 57.1 (83088) - https://sketch.com -->
    <title>205-B80px</title>
    <desc>Created with Sketch.</desc>
    <g id="205-B80px" stroke="none" stroke-width="1" fill="none" fill-rule="evenodd">
        <g>
            <path d="M67.45,25 L67.5,25.05 L67.45,52.5 L12.5,52.45 L12.55,25 L67.45,25 L67.45,25 Z M67.45,22.5 L12.55,22.5 C11.15,22.5 10,23.65 10,25.05 L10,52.45 C10,53.85 11.15,55 12.55,55 L67.45,55 C68.85,55 70,53.85 70,52.45 L70,25.05 C70,23.65 68.85,22.5 67.45,22.5 L67.45,22.5 Z" id="Shape" fill="#101828" fill-rule="nonzero"></path>
            <path d="M39.95,54.875 C29.175,54.875 21.1,56.525 17.5,57.425 L17.5,60 C20.6,59.2 28.85,57.375 39.95,57.375 C51.15,57.375 59.475,59.225 62.5,60.025 L62.5,57.45 C58.925,56.525 50.825,54.875 39.95,54.875 Z" id="Path" fill="#101828" fill-rule="nonzero"></path>
            <g id="Group" transform="translate(25.000000, 27.500000)" fill="#101828" fill-rule="nonzero">
                <path d="M5.925,19.625 C5.775,19.625 5.6,19.6 5.45,19.525 C4.8,19.275 4.5,18.55 4.75,17.9 L8.575,8.35 C8.825,7.7 9.55,7.4 10.2,7.65 C10.85,7.9 11.15,8.625 10.9,9.275 L7.075,18.825 C6.9,19.325 6.425,19.625 5.925,19.625 Z" id="Path"></path>
                <path d="M15.025,22.525 C6.85,22.525 1.3,18.9 0.95,18.675 C0.375,18.3 0.225,17.525 0.6,16.95 C0.975,16.375 1.75,16.225 2.325,16.6 C2.8,16.9 14.05,24.175 28.075,16.55 C28.675,16.225 29.425,16.45 29.775,17.05 C30.1,17.65 29.875,18.425 29.275,18.75 C24.1,21.575 19.225,22.525 15.025,22.525 Z" id="Path"></path>
                <path d="M27.625,6.45 C27.625,4.6 24.55,3.85 24.275,3.375 C24,2.9 24.225,0.875 24.225,0.875 L22.975,0.875 C19.425,0.875 16.55,3.75 16.55,7.3 C16.55,7.425 16.45,7.525 16.325,7.525 L6.65,7.525 C4.725,7.525 3.175,9.075 3.175,11 C3.175,11.7 3.725,12.25 4.425,12.25 C5.125,12.25 5.675,11.7 5.675,11 C5.675,10.475 6.1,10.025 6.65,10.025 L16.325,10.025 C17.825,10.025 19.05,8.8 19.05,7.3 C19.05,5.55 20.2,4.075 21.775,3.575 C21.875,4.225 21.925,4.775 22.55,5.05 C22.9,5.2 24.575,5.825 24.775,5.9 C25.05,6 25.25,6.1 25.25,6.375 C25.25,6.65 25,6.8 24.775,6.85 C24.6,6.875 22.45,7.275 22.25,7.375 C22.075,7.475 21.925,7.55 21.8,7.7 C21.35,8.225 21.175,8.9 21.3,9.7 L23.225,18.675 C23.35,19.25 23.875,19.65 24.45,19.65 C24.55,19.65 24.625,19.65 24.725,19.625 C25.4,19.475 25.825,18.825 25.675,18.15 L23.725,9.375 C24.35,9.3 26,8.725 26.625,8.325 C27.5,7.7 27.625,7.15 27.625,6.45 Z" id="Path"></path>
                <path d="M9.375,21.625 C9.325,21.625 9.3,21.625 9.25,21.625 C8.55,21.55 8.05,20.95 8.125,20.275 C8.475,16.6 11.525,13.85 15.225,13.85 C18.875,13.85 21.925,16.575 22.325,20.2 C22.4,20.875 21.9,21.5 21.225,21.575 C20.55,21.65 19.925,21.15 19.85,20.475 C19.6,18.125 17.625,16.35 15.25,16.35 C12.85,16.35 10.875,18.15 10.65,20.525 C10.55,21.125 10.025,21.625 9.375,21.625 Z" id="Path"></path>
            </g>
            <rect id="Rectangle" x="0" y="0" width="80" height="80"></rect>
        </g>
    </g>
</svg>