<?xml version="1.0" encoding="UTF-8"?>
<svg width="42px" height="42px" viewBox="0 0 42 42" version="1.1" xmlns="http://www.w3.org/2000/svg" xmlns:xlink="http://www.w3.org/1999/xlink">
    <!-- Generator: Sketch 57.1 (83088) - https://sketch.com -->
    <title>058-G40px</title>
    <desc>Created with Sketch.</desc>
    <g id="NEW_icons" stroke="none" stroke-width="1" fill="none" fill-rule="evenodd">
        <g id="icons_UD_new-Copy" transform="translate(-244.000000, -7650.000000)">
            <g id="058-G40px" transform="translate(245.000000, 7651.000000)">
                <circle id="Oval-Copy-421" stroke="#E3E8EC" cx="20" cy="20" r="20"></circle>
                <g id="058-B32px-Copy-4" transform="translate(4.000000, 4.000000)">
                    <path d="M15.51,7 L15.53,8 C17.76,8.01 19.74,9.44 20.6,11.65 L20.87,12.35 L21.62,12.29 C21.75,12.28 21.88,12.27 22.02,12.27 C23.34,12.27 24.59,12.83 25.53,13.83 C26.48,14.85 27,16.2 27,17.65 C26.99,20.6 24.75,23 21.98,23 L10.43,22.97 L10.43,22.97 L9.5,22.97 L9.45,22.97 L9.45,22.97 C6.98,22.94 4.99,20.77 4.99996248,18.12 C5.01,15.56 6.88,13.45 9.25,13.31 L10,13.27 L10.16,12.53 C10.77,9.86 12.96,8 15.51,8 L15.51,7 L15.51,7 Z M15.51,7 C12.44,7 9.87,9.26 9.19,12.3 C6.31,12.47 4.01,15 3.9999695,18.11 C3.99,21.33 6.44,23.95 9.48,23.96 C9.48,23.96 9.48,23.96 9.48,23.96 C9.49,23.96 9.49,23.96 9.5,23.96 C9.5,23.96 9.5,23.96 9.5,23.96 L9.5,23.96 L21.98,24 C21.99,24 21.99,24 22,24 C25.31,24 27.99,21.16 28.0000279,17.65 C28.01,14.13 25.33,11.27 22.02,11.26 C22.02,11.26 22.01,11.26 22.01,11.26 C21.85,11.26 21.69,11.27 21.53,11.28 C20.56,8.77 18.25,7 15.53,6.99 C15.53,7 15.52,7 15.51,7 L15.51,7 Z" id="Shape" fill="#101828" fill-rule="nonzero"></path>
                    <path d="M18.64,19.97 C18,19.97 17.4,19.71 16.96,19.22 L16,18.2 L15.05,19.22 C14.15,20.18 12.58,20.18 11.68,19.22 C10.78,18.25 10.78,16.68 11.68,15.71 C12.58,14.75 14.15,14.75 15.05,15.71 L16,16.73 L16.95,15.71 C17.85,14.75 19.42,14.75 20.32,15.71 C21.22,16.68 21.22,18.25 20.32,19.22 C19.87,19.71 19.27,19.97 18.64,19.97 Z M16.68,17.47 L17.68,18.55 C18.19,19.1 19.07,19.1 19.58,18.55 C20.13,17.96 20.13,16.99 19.58,16.4 C19.07,15.85 18.19,15.85 17.68,16.4 L16.68,17.47 Z M13.36,15.97 C13,15.97 12.66,16.12 12.41,16.4 C11.86,16.99 11.86,17.96 12.41,18.55 C12.92,19.1 13.8,19.1 14.31,18.55 L15.31,17.47 L14.31,16.4 C14.06,16.12 13.72,15.97 13.36,15.97 Z" id="Shape" fill="#101828" fill-rule="nonzero"></path>
                    <rect id="Rectangle" x="0" y="0" width="32" height="32"></rect>
                </g>
            </g>
        </g>
    </g>
</svg>