<?xml version="1.0" encoding="UTF-8"?>
<svg width="32px" height="32px" viewBox="0 0 32 32" version="1.1" xmlns="http://www.w3.org/2000/svg" xmlns:xlink="http://www.w3.org/1999/xlink">
    <!-- Generator: Sketch 57.1 (83088) - https://sketch.com -->
    <title>084-B32px</title>
    <desc>Created with Sketch.</desc>
    <g id="084-B32px" stroke="none" stroke-width="1" fill="none" fill-rule="evenodd">
        <g>
            <path d="M14.01,26 C14.28,26 14.51,25.78 14.51,25.5 C14.51,25.22 14.29,25 14.01,25 C13.73,25 13.51,25.22 13.51,25.5 C13.51,25.78 13.73,26 14.01,26" id="Path" fill="#101828" fill-rule="nonzero"></path>
            <path d="M14.01,8 C16.77,8 19.02,10.24 19.02,13 C19.02,15.76 16.77,18 14.01,18 C11.25,18 9,15.76 9,13 C9,10.24 11.25,8 14.01,8 L14.01,8 Z M14.01,7 C10.69,7 8,9.69 8,13 C8,16.31 10.69,19 14.01,19 C17.33,19 20.02,16.31 20.02,13 C20.02,9.69 17.32,7 14.01,7 L14.01,7 Z" id="Shape" fill="#101828" fill-rule="nonzero"></path>
            <path d="M14,8 C15.18,8 16.49,10.05 16.49,13 C16.49,15.95 15.18,18 14,18 C12.82,18 11.51,15.95 11.51,13 C11.51,10.05 12.82,8 14,8 L14,8 Z M14,7 C12.07,7 10.51,9.69 10.51,13 C10.51,16.31 12.07,19 14,19 C15.93,19 17.49,16.31 17.49,13 C17.49,9.69 15.92,7 14,7 L14,7 Z" id="Shape" fill="#101828" fill-rule="nonzero"></path>
            <rect id="Rectangle" fill="#101828" fill-rule="nonzero" x="8.95" y="15.03" width="10.11" height="1"></rect>
            <rect id="Rectangle" fill="#101828" fill-rule="nonzero" x="8.95" y="9.97" width="10.11" height="1"></rect>
            <rect id="Rectangle" fill="#101828" fill-rule="nonzero" x="8.32" y="12.5" width="11.38" height="1"></rect>
            <rect id="Rectangle" fill="#101828" fill-rule="nonzero" x="13.51" y="7.18" width="1" height="11.19"></rect>
            <path d="M21.23,24.94 L21.01,24.7 L21,24.71 L21,26.94 C21,26.97 20.98,26.99 20.95,26.99 L7.05,26.99 C7.02,27 7,26.98 7,26.95 L7,24 L15.34,24 C15.19,23.68 15.09,23.34 15.04,23 L7,23 L7,5.05 C7,5.02 7.02,5 7.05,5 L20.95,5 C20.98,5 21,5.02 21,5.05 L21,20.28 L21.01,20.29 L21.23,20.05 C21.46,19.81 21.72,19.62 22,19.47 L22,5.05 C22,4.47 21.53,4 20.95,4 L7.05,4 C6.47,4 6,4.47 6,5.05 L6,23 L6,24 L6,26.95 C6,27.53 6.47,28 7.05,28 L20.95,28 C21.53,28 22,27.53 22,26.95 L22,25.54 C21.72,25.37 21.46,25.18 21.23,24.94 Z" id="Path" fill="#101828" fill-rule="nonzero"></path>
            <path d="M23.65,25 C23.01,25 22.41,24.73 21.97,24.25 L21.02,23.23 L20.07,24.25 C19.17,25.21 17.6,25.21 16.7,24.25 C15.8,23.28 15.8,21.71 16.7,20.74 C17.6,19.78 19.17,19.78 20.07,20.74 L21.02,21.76 L21.97,20.74 C22.87,19.78 24.44,19.78 25.34,20.74 C26.24,21.71 26.24,23.28 25.34,24.25 C24.89,24.74 24.29,25 23.65,25 Z M21.7,22.5 L22.7,23.58 C23.21,24.13 24.09,24.13 24.61,23.58 C25.16,22.99 25.16,22.02 24.61,21.43 C24.1,20.88 23.22,20.88 22.7,21.43 L22.7,21.43 L21.7,22.5 Z M18.37,21 C18.01,21 17.67,21.15 17.42,21.43 C16.87,22.02 16.87,22.99 17.42,23.58 C17.94,24.13 18.81,24.13 19.33,23.58 L20.33,22.5 L19.33,21.42 C19.07,21.15 18.73,21 18.37,21 Z" id="Shape" fill="#101828" fill-rule="nonzero"></path>
            <rect id="Rectangle" x="0" y="0" width="32" height="32"></rect>
        </g>
    </g>
</svg>