<?xml version="1.0" encoding="UTF-8"?>
<svg width="56px" height="56px" viewBox="0 0 56 56" version="1.1" xmlns="http://www.w3.org/2000/svg" xmlns:xlink="http://www.w3.org/1999/xlink">
    <!-- Generator: Sketch 54.1 (76490) - https://sketchapp.com -->
    <title>002-G56px</title>
    <desc>Created with Sketch.</desc>
    <g id="NEW_icons" stroke="none" stroke-width="1" fill="none" fill-rule="evenodd">
        <g id="icons_UD_new-Copy" transform="translate(-446.000000, -600.000000)">
            <g id="002-G56px" transform="translate(446.000000, 600.000000)">
                <circle id="Oval-Copy-86" fill="#E3E8EC" cx="28" cy="28" r="28"></circle>
                <g id="002-B32px-Copy-4" transform="translate(8.000000, 8.000000)">
                    <g id="Group" transform="translate(5.000000, 5.000000)" fill="#101828" fill-rule="nonzero">
                        <path d="M25,13.75 L25,15 L25,28.75 L5,28.75 L5,15 L5,13.75 L5,12.5 L3.75,12.5 L3.75,28.75 C3.75,29.4375 4.3125,30 5,30 L25,30 C25.6875,30 26.25,29.4375 26.25,28.75 L26.25,12.5 L25,12.5 L25,13.75 Z" id="Path"></path>
                        <polygon id="Path" points="15 0.0125 0.225 12.2125 1.025 13.175 15 1.625 28.975 13.175 29.775 12.2125"></polygon>
                        <path d="M8.0375,17.625 C7.725,17.7125 7.5,18 7.5,18.325 L7.5,19.2125 C7.5,19.5375 7.725,19.825 8.0375,19.9125 L9.375,20.2625 C9.5125,20.7625 9.7125,21.25 9.9625,21.6875 L9.275,22.875 C9.1125,23.1625 9.1625,23.5125 9.3875,23.75 L10.0125,24.375 C10.15,24.5125 10.3375,24.5875 10.525,24.5875 C10.65,24.5875 10.775,24.55 10.8875,24.4875 L12.075,23.8 C12.525,24.0625 13,24.25 13.5125,24.3875 L13.875,25.7125 C13.9625,26.025 14.25,26.25 14.575,26.25 L15.4625,26.25 C15.7875,26.25 16.075,26.025 16.1625,25.7125 L16.5125,24.3875 C17.025,24.25 17.5,24.05 17.95,23.7875 L19.1375,24.475 C19.25,24.5375 19.375,24.575 19.5,24.575 C19.6875,24.575 19.875,24.5 20.0125,24.3625 L20.6375,23.7375 C20.8625,23.5 20.9125,23.15 20.75,22.8625 L20.0625,21.675 C20.325,21.225 20.5125,20.75 20.65,20.2375 L21.975,19.8875 C22.2875,19.8 22.5125,19.5125 22.5125,19.1875 L22.5125,18.3 C22.5125,17.975 22.2875,17.6875 21.975,17.6 L20.65,17.25 C20.5125,16.7375 20.3125,16.2625 20.05,15.825 L20.7375,14.6375 C20.9,14.35 20.85,14 20.625,13.7625 L20,13.1375 C19.8625,13 19.675,12.925 19.4875,12.925 C19.3625,12.925 19.2375,12.9625 19.125,13.025 L17.9375,13.7125 C17.5,13.4625 17.0125,13.2625 16.5125,13.125 L16.15,11.8 C16.0625,11.4875 15.775,11.2625 15.45,11.2625 L14.5625,11.2625 C14.2375,11.2625 13.95,11.4875 13.8625,11.8 L13.5125,13.1375 C13.0125,13.275 12.525,13.475 12.0875,13.725 L10.8875,13.0375 C10.775,12.975 10.65,12.9375 10.525,12.9375 C10.3375,12.9375 10.15,13.0125 10.0125,13.15 L9.3875,13.775 C9.1625,14.0125 9.1125,14.3625 9.275,14.65 L9.9625,15.8375 C9.7125,16.275 9.5125,16.7625 9.375,17.2625 L8.0375,17.625 Z M10.3125,18.2 L10.4875,17.55 C10.5875,17.15 10.75,16.7625 10.9625,16.4125 L11.3,15.8375 L10.9625,15.2625 L10.4375,14.3625 L10.6,14.2 L11.5125,14.725 L12.0875,15.0625 L12.6625,14.725 C13.0125,14.5125 13.4,14.3625 13.8,14.25 L14.45,14.075 L14.625,13.425 L14.8875,12.4125 L15.1125,12.4125 L15.3875,13.425 L15.5625,14.075 L16.2125,14.25 C16.6125,14.35 17,14.5125 17.3625,14.725 L17.9375,15.0625 L18.5125,14.725 L19.4125,14.2 L19.575,14.3625 L19.05,15.2625 L18.7125,15.8375 L19.05,16.4125 C19.2625,16.775 19.425,17.15 19.525,17.5625 L19.7,18.2125 L20.35,18.3875 L21.3625,18.65 L21.3625,18.875 L20.3625,19.15 L19.7125,19.325 L19.5375,19.975 C19.425,20.375 19.275,20.7625 19.0625,21.125 L18.725,21.7 L19.0625,22.275 L19.5875,23.175 L19.425,23.3375 L18.525,22.825 L17.95,22.4875 L17.375,22.825 C17.0125,23.0375 16.6375,23.2 16.225,23.3 L15.575,23.475 L15.4,24.125 L15.1375,25.125 L14.9125,25.125 L14.6375,24.125 L14.4625,23.475 L13.8125,23.3 C13.4125,23.1875 13.025,23.0375 12.6625,22.825 L12.0875,22.4875 L11.5125,22.825 L10.6125,23.35 L10.45,23.1875 L10.975,22.2875 L11.3125,21.7125 L10.975,21.1375 C10.7625,20.7875 10.6125,20.4 10.5,20 L10.325,19.35 L9.675,19.175 L8.6625,18.9125 L8.6625,18.6875 L9.675,18.4125 L10.3125,18.2 Z" id="Shape"></path>
                        <path d="M15.0125,21.675 C16.625,21.675 17.925,20.3625 17.925,18.75 C17.925,17.1375 16.6125,15.8375 15,15.8375 C13.3875,15.8375 12.0875,17.15 12.0875,18.7625 C12.0875,20.375 13.4,21.675 15.0125,21.675 Z M15,16.9875 C15.975,16.9875 16.7625,17.775 16.7625,18.75 C16.7625,19.725 15.975,20.5125 15,20.5125 C14.025,20.5125 13.2375,19.725 13.2375,18.75 C13.2375,17.7875 14.025,16.9875 15,16.9875 Z" id="Shape"></path>
                    </g>
                    <rect id="Rectangle" x="0" y="0" width="40" height="40"></rect>
                </g>
            </g>
        </g>
    </g>
</svg>