<?xml version="1.0" encoding="UTF-8"?>
<svg width="32px" height="32px" viewBox="0 0 32 32" version="1.1" xmlns="http://www.w3.org/2000/svg" xmlns:xlink="http://www.w3.org/1999/xlink">
    <!-- Generator: Sketch 57.1 (83088) - https://sketch.com -->
    <title>043-B32px</title>
    <desc>Created with Sketch.</desc>
    <g id="043-B32px" stroke="none" stroke-width="1" fill="none" fill-rule="evenodd">
        <g>
            <path d="M20,17 C19.45,17 19,17.45 19,18 C19,18.55 19.45,19 20,19 C20.55,19 21,18.55 21,18 C21,17.45 20.55,17 20,17 L20,17 Z" id="Path" fill="#101828" fill-rule="nonzero"></path>
            <path d="M24,17 C23.45,17 23,17.45 23,18 C23,18.55 23.45,19 24,19 C24.55,19 25,18.55 25,18 C25,17.45 24.55,17 24,17 L24,17 Z" id="Path" fill="#101828" fill-rule="nonzero"></path>
            <path d="M22,19 C21.45,19 21,19.45 21,20 C21,20.55 21.45,21 22,21 C22.55,21 23,20.55 23,20 C23,19.45 22.55,19 22,19 L22,19 Z" id="Path" fill="#101828" fill-rule="nonzero"></path>
            <path d="M22,15 C21.45,15 21,15.45 21,16 C21,16.55 21.45,17 22,17 C22.55,17 23,16.55 23,16 C23,15.45 22.55,15 22,15 L22,15 Z" id="Path" fill="#101828" fill-rule="nonzero"></path>
            <polygon id="Path" fill="#101828" fill-rule="nonzero" points="8 17 8 18 10 18 10 20 11 20 11 18 13 18 13 17 11 17 11 15 10 15 10 17"></polygon>
            <path d="M16.5,12 L15.5,12 L15.5,11 C15.5,10.91 15.53,8.68 17.78,7.55 C19.48,6.7 19.5,5.02 19.5,5 L20.5,5 C20.5,5.09 20.47,7.32 18.22,8.45 C16.52,9.3 16.5,10.98 16.5,11 L16.5,12 Z" id="Path" fill="#101828" fill-rule="nonzero"></path>
            <path d="M25.13,13 C25.15,13 25.18,13.02 25.18,13.05 L26.8,20.55 C27.07,21.86 27.1,22.64 26.59,23.76 C26,25.08 24.51,26 22.98,26 L22.91,26 C20.75,25.96 18.99,24.17 18.99,22 L18.99,21 L17.99,21 L14,21 L13,21 L13,22 C13,24.17 11.24,25.96 9.08,26 L9.01,26 C7.49,26 6,25.08 5.4,23.76 C4.89,22.64 4.92,21.87 5.19,20.56 L6.82,13.03 C6.82,13.02 6.85,13 6.87,13 L14,13 L18,13 L25.13,13 L25.13,13 Z M25.13,12 L18,12 L14,12 L6.87,12 C6.37,12 5.94,12.35 5.84,12.84 L4.21,20.35 C3.92,21.8 3.86,22.79 4.49,24.17 C5.27,25.88 7.15,27 9.02,27 C9.05,27 9.08,27 9.11,27 C11.83,26.95 14.01,24.73 14.01,22 L18,22 C18,24.73 20.19,26.95 22.9,27 C22.93,27 22.96,27 22.99,27 C24.86,27 26.74,25.88 27.51,24.18 C28.14,22.8 28.09,21.81 27.79,20.36 L26.16,12.85 C26.06,12.35 25.63,12 25.13,12 L25.13,12 Z" id="Shape" fill="#101828" fill-rule="nonzero"></path>
            <rect id="Rectangle" x="0" y="0" width="32" height="32"></rect>
        </g>
    </g>
</svg>