<?xml version="1.0" encoding="UTF-8"?>
<svg width="56px" height="56px" viewBox="0 0 56 56" version="1.1" xmlns="http://www.w3.org/2000/svg" xmlns:xlink="http://www.w3.org/1999/xlink">
    <!-- Generator: Sketch 57.1 (83088) - https://sketch.com -->
    <title>103-W56px</title>
    <desc>Created with Sketch.</desc>
    <g id="NEW_icons" stroke="none" stroke-width="1" fill="none" fill-rule="evenodd">
        <g id="icons_UD_new-Copy" transform="translate(-1814.000000, -13307.000000)">
            <g id="103-W56px" transform="translate(1814.000000, 13307.000000)">
                <g id="003-B32px-Copy-133" transform="translate(8.000000, 8.000000)">
                    <g id="Group" transform="translate(10.000000, 5.000000)" fill="#FFFFFF" fill-rule="nonzero">
                        <path d="M18.6875,0 L1.3125,0 C0.5875,0 0,0.5875 0,1.3125 L0,23.75 L0,25 L0,28.6875 C0,29.4125 0.5875,30 1.3125,30 L18.6875,30 C19.4125,30 20,29.4125 20,28.6875 L20,25 L20,23.75 L20,1.3125 C20,0.5875 19.4125,0 18.6875,0 Z M18.75,28.6875 C18.75,28.725 18.725,28.75 18.6875,28.75 L1.3125,28.75 C1.275,28.75 1.25,28.725 1.25,28.6875 L1.25,25 L18.75,25 L18.75,28.6875 Z M1.25,23.75 L1.25,1.3125 C1.25,1.275 1.275,1.25 1.3125,1.25 L18.6875,1.25 C18.725,1.25 18.75,1.275 18.75,1.3125 L18.75,23.75 L1.25,23.75 Z" id="Shape"></path>
                        <path d="M10,27.4875 C10.3375,27.4875 10.625,27.2125 10.625,26.8625 C10.625,26.525 10.35,26.2375 10,26.2375 C9.65,26.2375 9.375,26.5125 9.375,26.8625 C9.375,27.2125 9.6625,27.4875 10,27.4875 Z" id="Path"></path>
                        <path d="M12.5125,20 L7.5,20.0125 L7.5,16.25 L6.25,16.25 L6.25,20.0125 C6.25,20.6875 6.8,21.25 7.4875,21.25 L12.525,21.25 C13.2,21.25 13.7625,20.7 13.7625,20.0125 L13.7625,16.25 L12.5125,16.25 L12.5125,20 Z" id="Path"></path>
                        <polygon id="Path" points="4.775 15.575 5.5625 16.5375 10 12.875 14.4375 16.5375 15.225 15.575 10 11.2625"></polygon>
                        <path d="M12.6,7.3125 C11.925,6.65 11.0125,6.25 10,6.25 C8.9625,6.25 8.025,6.675 7.35,7.35 L8.2375,8.2375 C8.6875,7.775 9.3125,7.5 10,7.5 C10.6625,7.5 11.275,7.7625 11.7125,8.1875 L12.6,7.3125 Z" id="Path"></path>
                        <path d="M9.1125,9.1125 L9.95,9.95 L10.825,9.075 C10.6125,8.875 10.325,8.75 10,8.75 C9.65,8.75 9.3375,8.8875 9.1125,9.1125 Z" id="Path"></path>
                        <path d="M10,5 C11.35,5 12.5875,5.55 13.4875,6.425 L14.375,5.5375 C13.2375,4.4375 11.7,3.75 10,3.75 C8.275,3.75 6.7125,4.45 5.575,5.575 L6.4625,6.4625 C7.375,5.5625 8.625,5 10,5 Z" id="Path"></path>
                    </g>
                    <rect id="Rectangle" x="0" y="0" width="40" height="40"></rect>
                </g>
                <circle id="Oval-Copy-686" fill="#101828" cx="28" cy="28" r="28"></circle>
                <g id="103-B32px-Copy-5" transform="translate(8.000000, 8.000000)">
                    <path d="M10,28.75 L10,33.75 L8.75,33.75 L8.75,28.75 L10,28.75 L10,28.75 Z M10,27.5 L8.75,27.5 C8.0625,27.5 7.5,28.0625 7.5,28.75 L7.5,33.75 C7.5,34.4375 8.0625,35 8.75,35 L10,35 C10.6875,35 11.25,34.4375 11.25,33.75 L11.25,28.75 C11.25,28.0625 10.6875,27.5 10,27.5 L10,27.5 Z" id="Shape" fill="#FFFFFF" fill-rule="nonzero"></path>
                    <path d="M12.5,23.75 L6.25,23.75 C5.5625,23.75 5,24.3125 5,25 L5,31.25 C5,31.9375 5.5625,32.5 6.25,32.5 L8.75,32.5 L8.75,31.25 L6.25,31.25 L6.25,25 L12.5,25 L12.5,31.25 L10,31.25 L10,32.5 L12.5,32.5 C13.1875,32.5 13.75,31.9375 13.75,31.25 L13.75,25 C13.75,24.3125 13.1875,23.75 12.5,23.75 Z" id="Path" fill="#FFFFFF" fill-rule="nonzero"></path>
                    <path d="M31.25,6.25 L31.25,11.25 L30,11.25 L30,6.25 L31.25,6.25 L31.25,6.25 Z M31.25,5 L30,5 C29.3125,5 28.75,5.5625 28.75,6.25 L28.75,11.25 C28.75,11.9375 29.3125,12.5 30,12.5 L31.25,12.5 C31.9375,12.5 32.5,11.9375 32.5,11.25 L32.5,6.25 C32.5,5.5625 31.9375,5 31.25,5 L31.25,5 Z" id="Shape" fill="#FFFFFF" fill-rule="nonzero"></path>
                    <path d="M33.75,7.5 L31.25,7.5 L31.25,8.75 L33.75,8.75 L33.75,15 L27.5,15 L27.5,8.75 L30,8.75 L30,7.5 L27.5,7.5 C26.8125,7.5 26.25,8.0625 26.25,8.75 L26.25,15 C26.25,15.6875 26.8125,16.25 27.5,16.25 L33.75,16.25 C34.4375,16.25 35,15.6875 35,15 L35,8.75 C35,8.0625 34.4375,7.5 33.75,7.5 Z" id="Path" fill="#FFFFFF" fill-rule="nonzero"></path>
                    <path d="M10,24.375 L8.75,24.375 L8.75,21.45 C8.75,19.125 10.075,17.1375 12.225,16.25 C14.3625,15.3625 16.7125,15.825 18.35,17.475 L22.525,21.65 C23.8,22.925 25.625,23.2875 27.2875,22.6 C28.95,21.9125 29.9875,20.3625 29.9875,18.5625 L29.9875,15.625 L31.2375,15.625 L31.2375,18.55 C31.2375,20.875 29.9125,22.8625 27.7625,23.75 C25.625,24.6375 23.275,24.1625 21.6375,22.525 L17.4625,18.35 C16.1875,17.075 14.3625,16.7125 12.7,17.4 C11.0375,18.1 10,19.6375 10,21.45 L10,24.375 Z" id="Path" fill="#FFFFFF" fill-rule="nonzero"></path>
                    <rect id="Rectangle" x="0" y="0" width="40" height="40"></rect>
                </g>
            </g>
        </g>
    </g>
</svg>