<?xml version="1.0" encoding="UTF-8"?>
<svg width="56px" height="56px" viewBox="0 0 56 56" version="1.1" xmlns="http://www.w3.org/2000/svg" xmlns:xlink="http://www.w3.org/1999/xlink">
    <!-- Generator: Sketch 57.1 (83088) - https://sketch.com -->
    <title>152-G56px</title>
    <desc>Created with Sketch.</desc>
    <g id="NEW_icons" stroke="none" stroke-width="1" fill="none" fill-rule="evenodd">
        <g id="icons_UD_new-Copy" transform="translate(-446.000000, -19581.000000)">
            <g id="152-G56px" transform="translate(446.000000, 19581.000000)">
                <circle id="Oval-Copy-916" fill="#E3E8EC" cx="28" cy="28" r="28"></circle>
                <g id="152-B32px-Copy-3" transform="translate(8.000000, 8.000000)">
                    <path d="M33.725,12.5 L33.75,12.525 L33.725,26.275 L6.25,26.25 L6.275,12.5 L33.725,12.5 L33.725,12.5 Z M33.725,11.25 L6.275,11.25 C5.575,11.25 5,11.825 5,12.525 L5,26.25 C5,26.95 5.575,27.525 6.275,27.525 L33.725,27.525 C34.425,27.525 35,26.95 35,26.25 L35,12.525 C35,11.825 34.425,11.25 33.725,11.25 L33.725,11.25 Z" id="Shape" fill="#101828" fill-rule="nonzero"></path>
                    <g id="Group" transform="translate(8.750000, 15.000000)" fill="#101828" fill-rule="nonzero">
                        <rect id="Rectangle" x="0.025" y="1.075" width="1.05" height="1"></rect>
                        <path d="M0.025,2.4875 L1.075,2.4875 L1.075,4.1 C1.075,4.1 1.075,5.425 2.4875,5.3375 C2.4875,5.3375 2.7625,6.0375 3.275,6.25 L2.1125,6.25 C2.1125,6.25 0,6.3125 0,4.075 L0.025,2.4875 Z" id="Path"></path>
                        <path d="M1.5375,1.075 L2.5875,1.075 L2.5875,0 L3.6375,0 L3.6375,1.075 L4.375,1.075 C4.375,1.075 5.6125,0.9625 6.1375,2.275 C6.6,3.4375 7.1125,4.925 7.1125,4.925 L8.8125,0 L9.95,0 L7.8,6.25 L6.4375,6.25 L5.1625,2.625 C5.1625,2.625 5,2 4.3375,2 C3.9125,2 3.675,2 3.675,2 L3.675,4.1125 C3.675,4.1125 3.7125,5.3125 4.85,5.3125 L5.675,5.3125 L5.9875,6.25 C5.9875,6.25 4.725,6.2375 4.6,6.2375 C4.0875,6.2375 2.6125,5.9625 2.6125,4.1125 L2.6125,2 L1.525,2 L1.5375,1.075 Z" id="Path"></path>
                    </g>
                    <g id="Group" transform="translate(18.750000, 18.750000)" fill="#101828" fill-rule="nonzero">
                        <path d="M11.1,1.2375 C11.1,1.25 11.1125,1.275 11.1125,1.2875 C11.575,2.5125 12.025,3.7375 12.4875,4.9625 C12.4875,4.975 12.4875,4.975 12.5,4.9875 C12.1,4.9875 11.7,4.9875 11.3,4.9875 C11.275,4.9 11.2375,4.8 11.2125,4.7125 C11.1875,4.65 11.175,4.575 11.15,4.5125 C11.15,4.4875 11.1375,4.4875 11.1125,4.4875 C10.675,4.4875 10.2375,4.4875 9.8,4.4875 C9.775,4.4875 9.775,4.5 9.7625,4.5125 C9.7125,4.6625 9.675,4.8125 9.625,4.9625 C9.625,4.975 9.625,4.975 9.6125,4.9875 C9.225,4.9875 8.8375,4.9875 8.4375,4.9875 C8.9,3.7375 9.3625,2.4875 9.8375,1.2375 C10.2625,1.2375 10.6875,1.2375 11.1,1.2375 Z M9.9875,3.775 C10.3125,3.775 10.625,3.775 10.95,3.775 C10.7875,3.25 10.625,2.7375 10.4625,2.2125 C10.4625,2.2125 10.4625,2.2125 10.45,2.2125 C10.2875,2.7375 10.1375,3.25 9.9875,3.775 Z" id="Shape"></path>
                        <path d="M3.6125,1.25 C3.5375,1.4375 3.4625,1.6375 3.3875,1.825 C3.3625,1.8875 3.3375,1.9625 3.3125,2.025 C3.3,2.05 3.2875,2.0625 3.2625,2.0625 C2.8125,2.0625 2.35,2.0625 1.9,2.0625 C1.85,2.0625 1.85,2.0625 1.85,2.1125 C1.85,2.3375 1.85,2.575 1.85,2.8 C1.85,2.8375 1.85,2.8375 1.8875,2.8375 C2.25,2.8375 2.625,2.8375 2.9875,2.8375 C3,2.8375 3.0125,2.8375 3.025,2.8375 C3.025,2.85 3.025,2.8625 3.0125,2.8625 C2.9125,3.1125 2.8125,3.375 2.7,3.625 C2.6875,3.65 2.6875,3.65 2.6625,3.65 C2.4,3.65 2.1375,3.65 1.875,3.65 C1.8625,3.65 1.85,3.65 1.8375,3.65 C1.8375,4.1 1.8375,4.55 1.8375,5 C1.825,5 1.8125,5 1.8,5 C1.4125,5 1.0375,5 0.65,5 C0.6375,5 0.625,5 0.6125,5 C0.6125,3.75 0.6125,2.5 0.6125,1.25 C1.625,1.25 2.625,1.25 3.6125,1.25 Z" id="Path"></path>
                        <path d="M9.0375,1.2375 C8.9625,1.425 8.9,1.6125 8.825,1.8 C8.8,1.875 8.7625,1.95 8.7375,2.025 C8.725,2.05 8.7125,2.0625 8.6875,2.0625 C8.2375,2.0625 7.7875,2.0625 7.325,2.0625 C7.2625,2.0625 7.275,2.0625 7.275,2.1125 C7.275,2.3375 7.275,2.5625 7.275,2.8 C7.275,2.8125 7.275,2.825 7.275,2.8375 C7.675,2.8375 8.0625,2.8375 8.4625,2.8375 C8.4625,2.85 8.45,2.8625 8.45,2.8625 C8.35,3.1125 8.25,3.3625 8.1375,3.625 C8.125,3.65 8.1125,3.65 8.0875,3.65 C7.825,3.65 7.5625,3.65 7.3125,3.65 C7.3,3.65 7.2875,3.65 7.275,3.65 C7.275,4.1 7.275,4.55 7.275,5 C6.8625,5 6.4625,5 6.05,5 C6.05,4.9875 6.05,4.975 6.05,4.9625 C6.05,3.7375 6.05,2.5125 6.05,1.3 C6.05,1.2875 6.05,1.275 6.05,1.25 C7.05,1.25 8.0375,1.25 9.0375,1.2375 Z" id="Path"></path>
                        <path d="M5.2125,1.25 C5.2125,1.7625 5.2125,2.2875 5.2125,2.8 C5.2125,3.525 5.2125,4.2375 5.2125,4.9625 C5.2125,4.975 5.2125,4.9875 5.2125,5 C4.8125,5 4.4125,5 4,5 C4,4.9875 4,4.975 4,4.975 C4,3.7375 4,2.5125 4,1.275 C4,1.2625 4,1.2625 4,1.25 C4.4,1.25 4.8,1.25 5.2125,1.25 Z" id="Path"></path>
                    </g>
                    <polygon id="Path" fill="#101828" fill-rule="nonzero" points="23.75 16.25 22.5 16.25 22.5 15 21.25 15 21.25 16.25 20 16.25 20 17.5 21.25 17.5 21.25 18.75 22.5 18.75 22.5 17.5 23.75 17.5"></polygon>
                    <path d="M19.975,27.4375 C14.5875,27.4375 10.55,28.2625 8.75,28.7125 L8.75,30 C10.2875,29.6 14.425,28.6875 19.975,28.6875 C25.575,28.6875 29.7375,29.6125 31.25,30.0125 L31.25,28.725 C29.4625,28.2625 25.4125,27.4375 19.975,27.4375 Z" id="Path" fill="#101828" fill-rule="nonzero"></path>
                    <rect id="Rectangle" x="0" y="0" width="40" height="40"></rect>
                </g>
            </g>
        </g>
    </g>
</svg>