<?xml version="1.0" encoding="UTF-8"?>
<svg width="80px" height="80px" viewBox="0 0 80 80" version="1.1" xmlns="http://www.w3.org/2000/svg" xmlns:xlink="http://www.w3.org/1999/xlink">
    <!-- Generator: Sketch 57.1 (83088) - https://sketch.com -->
    <title>002-B80px</title>
    <desc>Created with Sketch.</desc>
    <g id="002-B80px" stroke="none" stroke-width="1" fill="none" fill-rule="evenodd">
        <g>
            <g id="Group" transform="translate(10.000000, 10.000000)" fill="#101828" fill-rule="nonzero">
                <path d="M50,27.5 L50,30 L50,57.5 L10,57.5 L10,30 L10,27.5 L10,25 L7.5,25 L7.5,57.5 C7.5,58.875 8.625,60 10,60 L50,60 C51.375,60 52.5,58.875 52.5,57.5 L52.5,25 L50,25 L50,27.5 Z" id="Path"></path>
                <polygon id="Path" points="30 0.025 0.45 24.425 2.05 26.35 30 3.25 57.95 26.35 59.55 24.425"></polygon>
                <path d="M16.075,35.25 C15.45,35.425 15,36 15,36.65 L15,38.425 C15,39.075 15.45,39.65 16.075,39.825 L18.75,40.525 C19.025,41.525 19.425,42.5 19.925,43.375 L18.55,45.75 C18.225,46.325 18.325,47.025 18.775,47.5 L20.025,48.75 C20.3,49.025 20.675,49.175 21.05,49.175 C21.3,49.175 21.55,49.1 21.775,48.975 L24.15,47.6 C25.05,48.125 26,48.5 27.025,48.775 L27.75,51.425 C27.925,52.05 28.5,52.5 29.15,52.5 L30.925,52.5 C31.575,52.5 32.15,52.05 32.325,51.425 L33.025,48.775 C34.05,48.5 35,48.1 35.9,47.575 L38.275,48.95 C38.5,49.075 38.75,49.15 39,49.15 C39.375,49.15 39.75,49 40.025,48.725 L41.275,47.475 C41.725,47 41.825,46.3 41.5,45.725 L40.125,43.35 C40.65,42.45 41.025,41.5 41.3,40.475 L43.95,39.775 C44.575,39.6 45.025,39.025 45.025,38.375 L45.025,36.6 C45.025,35.95 44.575,35.375 43.95,35.2 L41.3,34.5 C41.025,33.475 40.625,32.525 40.1,31.65 L41.475,29.275 C41.8,28.7 41.7,28 41.25,27.525 L40,26.275 C39.725,26 39.35,25.85 38.975,25.85 C38.725,25.85 38.475,25.925 38.25,26.05 L35.875,27.425 C35,26.925 34.025,26.525 33.025,26.25 L32.3,23.6 C32.125,22.975 31.55,22.525 30.9,22.525 L29.125,22.525 C28.475,22.525 27.9,22.975 27.725,23.6 L27.025,26.275 C26.025,26.55 25.05,26.95 24.175,27.45 L21.775,26.075 C21.55,25.95 21.3,25.875 21.05,25.875 C20.675,25.875 20.3,26.025 20.025,26.3 L18.775,27.55 C18.325,28.025 18.225,28.725 18.55,29.3 L19.925,31.675 C19.425,32.55 19.025,33.525 18.75,34.525 L16.075,35.25 Z M20.625,36.4 L20.975,35.1 C21.175,34.3 21.5,33.525 21.925,32.825 L22.6,31.675 L21.925,30.525 L20.875,28.725 L21.2,28.4 L23.025,29.45 L24.175,30.125 L25.325,29.45 C26.025,29.025 26.8,28.725 27.6,28.5 L28.9,28.15 L29.25,26.85 L29.775,24.825 L30.225,24.825 L30.775,26.85 L31.125,28.15 L32.425,28.5 C33.225,28.7 34,29.025 34.725,29.45 L35.875,30.125 L37.025,29.45 L38.825,28.4 L39.15,28.725 L38.1,30.525 L37.425,31.675 L38.1,32.825 C38.525,33.55 38.85,34.3 39.05,35.125 L39.4,36.425 L40.7,36.775 L42.725,37.3 L42.725,37.75 L40.725,38.3 L39.425,38.65 L39.075,39.95 C38.85,40.75 38.55,41.525 38.125,42.25 L37.45,43.4 L38.125,44.55 L39.175,46.35 L38.85,46.675 L37.05,45.65 L35.9,44.975 L34.75,45.65 C34.025,46.075 33.275,46.4 32.45,46.6 L31.15,46.95 L30.8,48.25 L30.275,50.25 L29.825,50.25 L29.275,48.25 L28.925,46.95 L27.625,46.6 C26.825,46.375 26.05,46.075 25.325,45.65 L24.175,44.975 L23.025,45.65 L21.225,46.7 L20.9,46.375 L21.95,44.575 L22.625,43.425 L21.95,42.275 C21.525,41.575 21.225,40.8 21,40 L20.65,38.7 L19.35,38.35 L17.325,37.825 L17.325,37.375 L19.35,36.825 L20.625,36.4 Z" id="Shape"></path>
                <path d="M30.025,43.35 C33.25,43.35 35.85,40.725 35.85,37.5 C35.85,34.275 33.225,31.675 30,31.675 C26.775,31.675 24.175,34.3 24.175,37.525 C24.175,40.75 26.8,43.35 30.025,43.35 Z M30,33.975 C31.95,33.975 33.525,35.55 33.525,37.5 C33.525,39.45 31.95,41.025 30,41.025 C28.05,41.025 26.475,39.45 26.475,37.5 C26.475,35.575 28.05,33.975 30,33.975 Z" id="Shape"></path>
            </g>
            <rect id="Rectangle" x="0" y="0" width="80" height="80"></rect>
        </g>
    </g>
</svg>