<?xml version="1.0" encoding="UTF-8"?>
<svg width="80px" height="80px" viewBox="0 0 80 80" version="1.1" xmlns="http://www.w3.org/2000/svg" xmlns:xlink="http://www.w3.org/1999/xlink">
    <!-- Generator: Sketch 57.1 (83088) - https://sketch.com -->
    <title>157-B80px</title>
    <desc>Created with Sketch.</desc>
    <g id="157-B80px" stroke="none" stroke-width="1" fill="none" fill-rule="evenodd">
        <g>
            <path d="M51.2,45.075 L62.875,62.575 L17.175,62.575 L28.85,45.075 L51.2,45.075 L51.2,45.075 Z M52.525,42.575 L27.5,42.575 L12.5,65.075 L67.525,65.075 L52.525,42.575 L52.525,42.575 Z" id="Shape" fill="#101828" fill-rule="nonzero"></path>
            <path d="M23.75,20.075 C22.375,20.075 21.25,21.2 21.25,22.575 C21.25,23.95 22.375,25.075 23.75,25.075 C25.125,25.075 26.25,23.95 26.25,22.575 C26.25,21.2 25.15,20.075 23.75,20.075 L23.75,20.075 Z" id="Path" fill="#101828" fill-rule="nonzero"></path>
            <polygon id="Path" fill="#101828" fill-rule="nonzero" points="25 22.575 22.5 22.575 22.5 42.575 25 42.575"></polygon>
            <path d="M12.5,35.075 C11.125,35.075 10,36.2 10,37.575 C10,38.95 11.125,40.075 12.5,40.075 C13.875,40.075 15,38.95 15,37.575 C15,36.2 13.875,35.075 12.5,35.075 L12.5,35.075 Z" id="Path" fill="#101828" fill-rule="nonzero"></path>
            <path d="M56.275,20.075 C54.9,20.075 53.775,21.2 53.775,22.575 C53.775,23.95 54.9,25.075 56.275,25.075 C57.65,25.075 58.775,23.95 58.775,22.575 C58.775,21.2 57.65,20.075 56.275,20.075 L56.275,20.075 Z" id="Path" fill="#101828" fill-rule="nonzero"></path>
            <polygon id="Path" fill="#101828" fill-rule="nonzero" points="57.525 22.575 55.025 22.575 55.025 42.575 57.525 42.575"></polygon>
            <path d="M67.525,35.075 C66.15,35.075 65.025,36.2 65.025,37.575 C65.025,38.95 66.15,40.075 67.525,40.075 C68.9,40.075 70.025,38.95 70.025,37.575 C70.05,36.2 68.925,35.075 67.525,35.075 L67.525,35.075 Z" id="Path" fill="#101828" fill-rule="nonzero"></path>
            <polygon id="Path" fill="#101828" fill-rule="nonzero" points="68.8 37.575 66.275 37.575 66.275 57.575 68.8 57.575"></polygon>
            <polygon id="Path" fill="#101828" fill-rule="nonzero" points="13.75 37.575 11.25 37.575 11.25 57.575 13.75 57.575"></polygon>
            <path d="M40.025,23.925 L40.875,25.65 L41.45,26.825 L42.75,27.025 L44.65,27.3 L43.275,28.625 L42.325,29.55 L42.55,30.85 L42.875,32.75 L41.175,31.85 L40,31.25 L38.825,31.85 L37.125,32.75 L37.45,30.85 L37.675,29.55 L36.725,28.625 L35.35,27.3 L37.25,27.025 L38.55,26.825 L39.125,25.65 L40.025,23.925 L40.025,23.925 Z M40.025,18.3 L36.925,24.55 L30,25.55 L35,30.425 L33.825,37.3 L40,34.05 L46.175,37.3 L45,30.425 L50,25.55 L43.075,24.55 L40.025,18.3 L40.025,18.3 Z" id="Shape" fill="#101828" fill-rule="nonzero"></path>
            <path d="M64.775,43.625 C64.625,43.625 64.475,43.625 64.3,43.6 C59.4,42.875 55.975,29.45 55.05,25.375 L57.5,24.8 C59.225,32.4 62.45,40.775 64.675,41.1 C65.125,41.175 65.8,40.55 66.45,39.4 L68.625,40.625 C67.5,42.625 66.2,43.625 64.775,43.625 Z" id="Path" fill="#101828" fill-rule="nonzero"></path>
            <path d="M15.275,43.625 C13.825,43.625 12.55,42.625 11.425,40.625 L13.6,39.4 C14.25,40.55 14.95,41.175 15.375,41.1 C17.6,40.775 20.825,32.375 22.55,24.8 L24.975,25.35 C24.05,29.45 20.65,42.85 15.725,43.575 C15.575,43.625 15.425,43.625 15.275,43.625 Z" id="Path" fill="#101828" fill-rule="nonzero"></path>
            <rect id="Rectangle" x="0" y="0" width="80" height="80"></rect>
        </g>
    </g>
</svg>