<?xml version="1.0" encoding="UTF-8"?>
<svg width="42px" height="42px" viewBox="0 0 42 42" version="1.1" xmlns="http://www.w3.org/2000/svg" xmlns:xlink="http://www.w3.org/1999/xlink">
    <!-- Generator: Sketch 57.1 (83088) - https://sketch.com -->
    <title>120-G40px</title>
    <desc>Created with Sketch.</desc>
    <g id="NEW_icons" stroke="none" stroke-width="1" fill="none" fill-rule="evenodd">
        <g id="icons_UD_new-Copy" transform="translate(-244.000000, -15581.000000)">
            <g id="120-G40px" transform="translate(245.000000, 15582.000000)">
                <circle id="Oval-Copy-740" stroke="#E3E8EC" cx="20" cy="20" r="20"></circle>
                <g id="120-B32px-Copy" transform="translate(4.000000, 4.000000)">
                    <path d="M16,5 C18.76,5 21,7.24 21,10 C21,12.76 18.76,15 16,15 C13.24,15 11,12.76 11,10 C11,7.24 13.24,5 16,5 L16,5 Z M16,4 C12.69,4 10,6.69 10,10 C10,13.31 12.69,16 16,16 C19.31,16 22,13.31 22,10 C22,6.69 19.31,4 16,4 L16,4 Z" id="Shape" fill="#101828" fill-rule="nonzero"></path>
                    <path d="M16.62,20 L17.37,26 L14.64,26 L15.39,20 L16.62,20 L16.62,20 Z M17.5,19 L14.5,19 L13.5,27 L18.5,27 L17.5,19 L17.5,19 Z" id="Shape" fill="#101828" fill-rule="nonzero"></path>
                    <path d="M16,20 L16,20 C15.17,20 14.5,19.33 14.5,18.5 L14.5,18.5 C14.5,17.67 15.17,17 16,17 L16,17 C16.83,17 17.5,17.67 17.5,18.5 L17.5,18.5 C17.5,19.33 16.83,20 16,20 Z" id="Path" fill="#101828" fill-rule="nonzero"></path>
                    <path d="M16.5,18 L16.5,19 L15.5,19 L15.5,18 L16.5,18 L16.5,18 Z M16.5,17 L15.5,17 C14.95,17 14.5,17.45 14.5,18 L14.5,19 C14.5,19.55 14.95,20 15.5,20 L16.5,20 C17.05,20 17.5,19.55 17.5,19 L17.5,18 C17.5,17.45 17.05,17 16.5,17 L16.5,17 Z" id="Shape" fill="#101828" fill-rule="nonzero"></path>
                    <path d="M7,28 L7,22 C7,20.35 8.35,19 10,19 L22,19 C23.65,19 25,20.35 25,22 L25,28 L26,28 L26,22 C26,19.79 24.21,18 22,18 L10,18 C7.79,18 6,19.79 6,22 L6,28 L7,28 Z" id="Path" fill="#101828" fill-rule="nonzero"></path>
                    <rect id="Rectangle" x="0" y="0" width="32" height="32"></rect>
                </g>
            </g>
        </g>
    </g>
</svg>