<?xml version="1.0" encoding="UTF-8"?>
<svg width="40px" height="40px" viewBox="0 0 40 40" version="1.1" xmlns="http://www.w3.org/2000/svg" xmlns:xlink="http://www.w3.org/1999/xlink">
    <!-- Generator: Sketch 57.1 (83088) - https://sketch.com -->
    <title>242-B40px</title>
    <desc>Created with Sketch.</desc>
    <g id="242-B40px" stroke="none" stroke-width="1" fill="none" fill-rule="evenodd">
        <g>
            <path d="M18.7375,6.575 L21.4,10.4125 L22.425,11.9 L23.45,10.4125 L26.0875,6.6 L28.75,11.275 L28.75,33.75 L8.75,33.75 L8.75,11.275 L11.2875,6.7375 L13.9875,10.45 L15.0125,11.8625 L16.025,10.4375 L18.7375,6.575 L18.7375,6.575 Z M26.125,5 C25.9,5 25.675,5.0875 25.5125,5.2625 L22.4375,9.7125 L19.3375,5.25 C19.175,5.0875 18.9625,5 18.75,5 C18.5375,5 18.325,5.0875 18.1625,5.25 L15,9.7 L11.7625,5.2625 C11.625,5.1125 11.425,5.0375 11.2375,5.0375 C11,5.0375 10.775,5.15 10.625,5.35 L7.6,10.7625 C7.5375,10.875 7.5,11.0125 7.5,11.1625 L7.5,34.175 C7.5,34.625 7.875,35 8.325,35 L29.2125,35 C29.65,35 30,34.65 30,34.2125 L30,11.15 C30,11.0125 29.9625,10.8875 29.9,10.7625 L26.825,5.35 C26.65,5.1125 26.3875,5 26.125,5 L26.125,5 Z" id="Shape" fill="#101828" fill-rule="nonzero"></path>
            <path d="M17.5,27.5 L16.25,27.5 L16.25,22.5 L15,22.5 L15,21.25 L16.25,21.25 L16.25,16.25 L20.675,16.25 C22.375,16.25 23.75,17.625 23.75,19.325 C23.75,21.075 22.325,22.5 20.575,22.5 L17.5,22.5 L17.5,27.5 Z M17.5,21.25 L20.575,21.25 C21.6375,21.25 22.5,20.3875 22.5,19.325 C22.5,18.3125 21.675,17.5 20.675,17.5 L17.5,17.5 L17.5,21.25 Z" id="Shape" fill="#101828" fill-rule="nonzero"></path>
            <rect id="Rectangle" fill="#101828" fill-rule="nonzero" x="15.0125" y="23.75" width="6.25" height="1.25"></rect>
            <rect id="Rectangle" x="0" y="0" width="40" height="40"></rect>
        </g>
    </g>
</svg>