<?xml version="1.0" encoding="UTF-8"?>
<svg width="40px" height="40px" viewBox="0 0 40 40" version="1.1" xmlns="http://www.w3.org/2000/svg" xmlns:xlink="http://www.w3.org/1999/xlink">
    <!-- Generator: Sketch 57.1 (83088) - https://sketch.com -->
    <title>115-B40px</title>
    <desc>Created with Sketch.</desc>
    <g id="115-B40px" stroke="none" stroke-width="1" fill="none" fill-rule="evenodd">
        <g>
            <polygon id="Path" fill="#101828" fill-rule="nonzero" points="30 12.5 28.75 12.5 28.75 28.75 30 28.75"></polygon>
            <rect id="Rectangle" fill="#101828" fill-rule="nonzero" x="13.125" y="5" width="18.75" height="1.25"></rect>
            <rect id="Rectangle" fill="#101828" fill-rule="nonzero" x="10" y="12.5" width="1.25" height="15"></rect>
            <path d="M31.875,6.25 C32.9125,6.25 33.75,7.0875 33.75,8.125 L33.75,11.25 L30,11.25 L30,8.125 C30,7.0875 30.8375,6.25 31.875,6.25 L31.875,6.25 Z M31.875,5 C30.15,5 28.75,6.4 28.75,8.125 L28.75,12.5 L33.7875,12.5 C34.4625,12.5 35,11.9625 35,11.2875 L35,8.125 C35,6.4 33.6,5 31.875,5 L31.875,5 Z" id="Shape" fill="#101828" fill-rule="nonzero"></path>
            <rect id="Rectangle" fill="#101828" fill-rule="nonzero" x="8.125" y="33.75" width="18.75" height="1.25"></rect>
            <path d="M13.125,5 C11.4,5 10,6.4 10,8.125 L10,12.5 L11.25,12.5 L11.25,11.25 L11.25,8.75 L11.25,8.125 C11.25,7.0875 12.0875,6.25 13.125,6.25 L13.125,5 Z" id="Path" fill="#101828" fill-rule="nonzero"></path>
            <path d="M22.4875,11.25 C22.45,12.1 22.275,13.2 22.0375,13.725 C21.6875,14.5125 21.05,15.5125 20,16.1125 C18.95,15.5125 18.3125,14.5125 17.9625,13.725 C17.725,13.1875 17.55,12.0875 17.5125,11.25 L22.4875,11.25 L22.4875,11.25 Z M23.75,10 L16.25,10 L16.25,10.9375 C16.25,11.8625 16.4375,13.4 16.8125,14.25 C17.3375,15.4 18.3,16.825 20,17.5 C21.7,16.825 22.6625,15.4 23.1875,14.25 C23.5625,13.4 23.75,11.8625 23.75,10.9375 L23.75,10 L23.75,10 Z" id="Shape" fill="#101828" fill-rule="nonzero"></path>
            <polygon id="Path" fill="#101828" fill-rule="nonzero" points="26.25 22.5 13.75 22.5 13.75 23.75 26.25 23.75"></polygon>
            <polygon id="Path" fill="#101828" fill-rule="nonzero" points="26.25 20 13.75 20 13.75 21.25 26.25 21.25"></polygon>
            <g id="Group" transform="translate(5.000000, 27.500000)" fill="#101828" fill-rule="nonzero">
                <path d="M18.75,0 L6.25,0 L1.2875,0 C0.575,0 0,0.575 0,1.2875 L0,4.375 C0,6.1 1.4,7.5 3.125,7.5 L3.125,6.25 C2.0875,6.25 1.25,5.4125 1.25,4.375 L1.25,1.25 L3.125,1.25 L5,1.25 L6.25,1.25 L17.5,1.25 C17.5,0.5625 18.0625,0 18.75,0 Z" id="Path"></path>
                <path d="M23.75,0 L23.75,1.25 L23.75,2.5 L23.75,4.375 C23.75,5.4125 22.9125,6.25 21.875,6.25 C20.8375,6.25 20,5.4125 20,4.375 L20,2.5 L20,1.25 C20,1.9375 19.4375,2.5 18.75,2.5 L18.75,4.375 C18.75,6.1 20.15,7.5 21.875,7.5 C23.6,7.5 25,6.1 25,4.375 L25,0 L23.75,0 Z" id="Path"></path>
                <path d="M20,1.25 C20,0.5625 19.4375,0 18.75,0 C18.0625,0 17.5,0.5625 17.5,1.25 L18.75,1.25 L18.75,2.5 C19.4375,2.5 20,1.9375 20,1.25 Z" id="Path"></path>
            </g>
            <rect id="Rectangle" x="0" y="0" width="40" height="40"></rect>
        </g>
    </g>
</svg>