<?xml version="1.0" encoding="UTF-8"?>
<svg width="56px" height="56px" viewBox="0 0 56 56" version="1.1" xmlns="http://www.w3.org/2000/svg" xmlns:xlink="http://www.w3.org/1999/xlink">
    <!-- Generator: Sketch 57.1 (83088) - https://sketch.com -->
    <title>157-G56px</title>
    <desc>Created with Sketch.</desc>
    <g id="NEW_icons" stroke="none" stroke-width="1" fill="none" fill-rule="evenodd">
        <g id="icons_UD_new-Copy" transform="translate(-1728.000000, -20081.000000)">
            <g id="157-G56px" transform="translate(1728.000000, 20081.000000)">
                <circle id="Oval-Copy-1054" fill="#E3E8EC" cx="28" cy="28" r="28"></circle>
                <g id="157-B32px-Copy-3" transform="translate(8.000000, 8.000000)">
                    <path d="M25.6,22.5375 L31.4375,31.2875 L8.5875,31.2875 L14.425,22.5375 L25.6,22.5375 L25.6,22.5375 Z M26.2625,21.2875 L13.75,21.2875 L6.25,32.5375 L33.7625,32.5375 L26.2625,21.2875 L26.2625,21.2875 Z" id="Shape" fill="#101828" fill-rule="nonzero"></path>
                    <path d="M11.875,10.0375 C11.1875,10.0375 10.625,10.6 10.625,11.2875 C10.625,11.975 11.1875,12.5375 11.875,12.5375 C12.5625,12.5375 13.125,11.975 13.125,11.2875 C13.125,10.6 12.575,10.0375 11.875,10.0375 L11.875,10.0375 Z" id="Path" fill="#101828" fill-rule="nonzero"></path>
                    <polygon id="Path" fill="#101828" fill-rule="nonzero" points="12.5 11.2875 11.25 11.2875 11.25 21.2875 12.5 21.2875"></polygon>
                    <path d="M6.25,17.5375 C5.5625,17.5375 5,18.1 5,18.7875 C5,19.475 5.5625,20.0375 6.25,20.0375 C6.9375,20.0375 7.5,19.475 7.5,18.7875 C7.5,18.1 6.9375,17.5375 6.25,17.5375 L6.25,17.5375 Z" id="Path" fill="#101828" fill-rule="nonzero"></path>
                    <path d="M28.1375,10.0375 C27.45,10.0375 26.8875,10.6 26.8875,11.2875 C26.8875,11.975 27.45,12.5375 28.1375,12.5375 C28.825,12.5375 29.3875,11.975 29.3875,11.2875 C29.3875,10.6 28.825,10.0375 28.1375,10.0375 L28.1375,10.0375 Z" id="Path" fill="#101828" fill-rule="nonzero"></path>
                    <polygon id="Path" fill="#101828" fill-rule="nonzero" points="28.7625 11.2875 27.5125 11.2875 27.5125 21.2875 28.7625 21.2875"></polygon>
                    <path d="M33.7625,17.5375 C33.075,17.5375 32.5125,18.1 32.5125,18.7875 C32.5125,19.475 33.075,20.0375 33.7625,20.0375 C34.45,20.0375 35.0125,19.475 35.0125,18.7875 C35.025,18.1 34.4625,17.5375 33.7625,17.5375 L33.7625,17.5375 Z" id="Path" fill="#101828" fill-rule="nonzero"></path>
                    <polygon id="Path" fill="#101828" fill-rule="nonzero" points="34.4 18.7875 33.1375 18.7875 33.1375 28.7875 34.4 28.7875"></polygon>
                    <polygon id="Path" fill="#101828" fill-rule="nonzero" points="6.875 18.7875 5.625 18.7875 5.625 28.7875 6.875 28.7875"></polygon>
                    <path d="M20.0125,11.9625 L20.4375,12.825 L20.725,13.4125 L21.375,13.5125 L22.325,13.65 L21.6375,14.3125 L21.1625,14.775 L21.275,15.425 L21.4375,16.375 L20.5875,15.925 L20,15.625 L19.4125,15.925 L18.5625,16.375 L18.725,15.425 L18.8375,14.775 L18.3625,14.3125 L17.675,13.65 L18.625,13.5125 L19.275,13.4125 L19.5625,12.825 L20.0125,11.9625 L20.0125,11.9625 Z M20.0125,9.15 L18.4625,12.275 L15,12.775 L17.5,15.2125 L16.9125,18.65 L20,17.025 L23.0875,18.65 L22.5,15.2125 L25,12.775 L21.5375,12.275 L20.0125,9.15 L20.0125,9.15 Z" id="Shape" fill="#101828" fill-rule="nonzero"></path>
                    <path d="M32.3875,21.8125 C32.3125,21.8125 32.2375,21.8125 32.15,21.8 C29.7,21.4375 27.9875,14.725 27.525,12.6875 L28.75,12.4 C29.6125,16.2 31.225,20.3875 32.3375,20.55 C32.5625,20.5875 32.9,20.275 33.225,19.7 L34.3125,20.3125 C33.75,21.3125 33.1,21.8125 32.3875,21.8125 Z" id="Path" fill="#101828" fill-rule="nonzero"></path>
                    <path d="M7.6375,21.8125 C6.9125,21.8125 6.275,21.3125 5.7125,20.3125 L6.8,19.7 C7.125,20.275 7.475,20.5875 7.6875,20.55 C8.8,20.3875 10.4125,16.1875 11.275,12.4 L12.4875,12.675 C12.025,14.725 10.325,21.425 7.8625,21.7875 C7.7875,21.8125 7.7125,21.8125 7.6375,21.8125 Z" id="Path" fill="#101828" fill-rule="nonzero"></path>
                    <rect id="Rectangle" x="0" y="0" width="40" height="40"></rect>
                </g>
            </g>
        </g>
    </g>
</svg>