<?xml version="1.0" encoding="UTF-8"?>
<svg width="40px" height="40px" viewBox="0 0 40 40" version="1.1" xmlns="http://www.w3.org/2000/svg" xmlns:xlink="http://www.w3.org/1999/xlink">
    <!-- Generator: Sketch 57.1 (83088) - https://sketch.com -->
    <title>086-B40px</title>
    <desc>Created with Sketch.</desc>
    <g id="086-B40px" stroke="none" stroke-width="1" fill="none" fill-rule="evenodd">
        <g>
            <polygon id="Path" fill="#101828" fill-rule="nonzero" points="16.5 17.5 16.5 20 16.5 21.25 16.5 23.75 17.75 23.75 17.75 21.25 17.75 20 17.75 17.5"></polygon>
            <polygon id="Path" fill="#101828" fill-rule="nonzero" points="19.375 18.75 19.375 20 19.375 21.25 19.375 22.5 20.625 22.5 20.625 21.25 20.625 20 20.625 18.75"></polygon>
            <polygon id="Path" fill="#101828" fill-rule="nonzero" points="33.75 19.5 33.75 20.25 33.75 21 33.75 21.75 35 21.75 35 21 35 20.25 35 19.5"></polygon>
            <polygon id="Path" fill="#101828" fill-rule="nonzero" points="30.875 18 30.875 20.25 30.875 21 30.875 23.25 32.125 23.25 32.125 21 32.125 20.25 32.125 18"></polygon>
            <polygon id="Path" fill="#101828" fill-rule="nonzero" points="22.25 19.375 22.25 20.375 22.25 20.875 22.25 21.875 23.5 21.875 23.5 20.875 23.5 20.375 23.5 19.375"></polygon>
            <polygon id="Path" fill="#101828" fill-rule="nonzero" points="10.75 13.75 10.75 20 10.75 21.25 10.75 27.5 12 27.5 12 21.25 12 20 12 13.75"></polygon>
            <polygon id="Path" fill="#101828" fill-rule="nonzero" points="13.625 16.25 13.625 20 13.625 21.25 13.625 25 14.875 25 14.875 21.25 14.875 20 14.875 16.25"></polygon>
            <polygon id="Path" fill="#101828" fill-rule="nonzero" points="25.125 17.25 25.125 20.25 25.125 21 25.125 24 26.375 24 26.375 21 26.375 20.25 26.375 17.25"></polygon>
            <polygon id="Path" fill="#101828" fill-rule="nonzero" points="28 15.8125 28 20.25 28 21 28 25.4375 29.25 25.4375 29.25 21 29.25 20.25 29.25 15.8125"></polygon>
            <polygon id="Path" fill="#101828" fill-rule="nonzero" points="5 18.75 5 19.5 5 21.75 5 22.5 6.25 22.5 6.25 21.75 6.25 19.5 6.25 18.75"></polygon>
            <polygon id="Path" fill="#101828" fill-rule="nonzero" points="7.875 16.25 7.875 20 7.875 21.25 7.875 25 9.125 25 9.125 21.25 9.125 20 9.125 16.25"></polygon>
            <rect id="Rectangle" x="0" y="0" width="40" height="40"></rect>
        </g>
    </g>
</svg>