<?xml version="1.0" encoding="UTF-8"?>
<svg width="80px" height="80px" viewBox="0 0 80 80" version="1.1" xmlns="http://www.w3.org/2000/svg" xmlns:xlink="http://www.w3.org/1999/xlink">
    <!-- Generator: Sketch 56.3 (81716) - https://sketch.com -->
    <title>040-W80px</title>
    <desc>Created with Sketch.</desc>
    <g id="NEW_icons" stroke="none" stroke-width="1" fill="none" fill-rule="evenodd">
        <g id="icons_UD_new-Copy" transform="translate(-869.000000, -5346.000000)">
            <g id="040-W80px" transform="translate(869.000000, 5346.000000)">
                <circle id="Oval-Copy-302" fill="#101828" cx="40" cy="40" r="40"></circle>
                <g id="040-B32px-Copy-5" transform="translate(12.000000, 12.000000)">
                    <g id="Group" transform="translate(7.000000, 8.750000)" fill="#FFFFFF" fill-rule="nonzero">
                        <path d="M8.645,21.0525 C9.7475,26.3375 16.7475,25.06 15.4175,17.9025 C14.385,12.215 7.2275,14.245 8.645,21.0525 Z" id="Path"></path>
                        <path d="M40.25,8.75 L24.5,8.75 L24.5,0 L0,3.5 L0,35 L24.5,38.5 L24.5,29.75 L40.25,29.75 C41.2125,29.75 42,28.9625 42,28 L42,10.5 C42,9.5375 41.2125,8.75 40.25,8.75 Z M39.7075,10.5 L28.84,19.005 L24.5,15.5925 L24.5,10.5 L39.7075,10.5 Z M14.525,25.515 C11.8825,26.8975 8.8725,25.655 7.77,24.01 C5.0225,19.9325 6.5975,12.8275 12.145,12.8275 C15.8725,12.8275 17.5525,15.785 17.5525,19.4425 C17.5525,22.2775 16.415,24.5175 14.525,25.515 Z M24.5,28 L24.5,17.815 L27.755,20.37 C28.0875,20.6325 28.49,20.755 28.875,20.755 C29.26,20.755 29.6625,20.6325 29.995,20.37 L40.25,12.3025 L40.25,28 L24.5,28 Z" id="Shape"></path>
                    </g>
                    <rect id="Rectangle" x="0" y="0" width="56" height="56"></rect>
                </g>
            </g>
        </g>
    </g>
</svg>