<?xml version="1.0" encoding="UTF-8"?>
<svg width="80px" height="80px" viewBox="0 0 80 80" version="1.1" xmlns="http://www.w3.org/2000/svg" xmlns:xlink="http://www.w3.org/1999/xlink">
    <!-- Generator: Sketch 57.1 (83088) - https://sketch.com -->
    <title>089-B80px</title>
    <desc>Created with Sketch.</desc>
    <g id="089-B80px" stroke="none" stroke-width="1" fill="none" fill-rule="evenodd">
        <g>
            <path d="M57.375,12.5 C57.45,12.5 57.5,12.55 57.5,12.625 L57.5,67.375 C57.5,67.45 57.45,67.5 57.375,67.5 L22.625,67.5 C22.55,67.5 22.5,67.45 22.5,67.375 L22.5,12.625 C22.5,12.55 22.55,12.5 22.625,12.5 L57.375,12.5 L57.375,12.5 Z M57.375,10 L22.625,10 C21.175,10 20,11.175 20,12.625 L20,67.375 C20,68.825 21.175,70 22.625,70 L57.375,70 C58.825,70 60,68.825 60,67.375 L60,12.625 C60,11.175 58.825,10 57.375,10 L57.375,10 Z" id="Shape" fill="#101828" fill-rule="nonzero"></path>
            <path d="M40,65 C40.675,65 41.25,64.45 41.25,63.75 C41.25,63.05 40.675,62.5 40,62.5 C39.325,62.5 38.75,63.05 38.75,63.75 C38.75,64.45 39.325,65 40,65" id="Path" fill="#101828" fill-rule="nonzero"></path>
            <rect id="Rectangle" fill="#101828" fill-rule="nonzero" x="20" y="57.5" width="40" height="2.5"></rect>
            <path d="M40,27.5 C41.375,27.5 42.5,28.625 42.5,30 C42.5,31.375 41.375,32.5 40,32.5 C38.625,32.5 37.5,31.375 37.5,30 C37.5,28.625 38.625,27.5 40,27.5 L40,27.5 Z M40,25 C37.25,25 35,27.25 35,30 C35,32.75 37.25,35 40,35 C42.75,35 45,32.75 45,30 C45,27.25 42.75,25 40,25 L40,25 Z" id="Shape" fill="#101828" fill-rule="nonzero"></path>
            <path d="M35,45 L35,42.5 C35,41.125 36.125,40 37.5,40 L42.5,40 C43.875,40 45,41.125 45,42.5 L45,45 L47.5,45 L47.5,42.5 C47.5,39.75 45.25,37.5 42.5,37.5 L37.5,37.5 C34.75,37.5 32.5,39.75 32.5,42.5 L32.5,45 L35,45 Z" id="Path" fill="#101828" fill-rule="nonzero"></path>
            <rect id="Rectangle" x="0" y="0" width="80" height="80"></rect>
        </g>
    </g>
</svg>