<?xml version="1.0" encoding="UTF-8"?>
<svg width="80px" height="80px" viewBox="0 0 80 80" version="1.1" xmlns="http://www.w3.org/2000/svg" xmlns:xlink="http://www.w3.org/1999/xlink">
    <!-- Generator: Sketch 57.1 (83088) - https://sketch.com -->
    <title>080-G80px</title>
    <desc>Created with Sketch.</desc>
    <g id="NEW_icons" stroke="none" stroke-width="1" fill="none" fill-rule="evenodd">
        <g id="icons_UD_new-Copy" transform="translate(-768.000000, -10521.000000)">
            <g id="080-G80px" transform="translate(768.000000, 10521.000000)">
                <circle id="Oval-Copy-512" fill="#E3E8EC" cx="40" cy="40" r="40"></circle>
                <g id="080-B32px-Copy-3" transform="translate(12.000000, 12.000000)">
                    <path d="M24.5,45.5 C24.9725,45.5 25.375,45.115 25.375,44.625 C25.375,44.135 24.9725,43.75 24.5,43.75 C24.0275,43.75 23.625,44.135 23.625,44.625 C23.625,45.115 24.0275,45.5 24.5,45.5" id="Path" fill="#101828" fill-rule="nonzero"></path>
                    <path d="M37.625,45.5 C37.3275,45.5 37.0475,45.4825 36.75,45.4475 L36.75,47.145 C36.75,47.1975 36.715,47.2325 36.6625,47.2325 L12.3375,47.2325 C12.285,47.25 12.25,47.215 12.25,47.1625 L12.25,42 L29.435,42 C28.9275,41.4575 28.455,40.88 28.0525,40.25 L12.25,40.25 L12.25,8.8375 C12.25,8.785 12.285,8.75 12.3375,8.75 L36.6625,8.75 C36.715,8.75 36.75,8.785 36.75,8.8375 L36.75,22.785 C37.0475,22.7675 37.3275,22.7325 37.625,22.7325 C37.9225,22.7325 38.2025,22.75 38.5,22.785 L38.5,8.8375 C38.5,7.8225 37.6775,7 36.6625,7 L12.3375,7 C11.3225,7 10.5,7.8225 10.5,8.8375 L10.5,40.25 L10.5,42 L10.5,47.1625 C10.5,48.1775 11.3225,49 12.3375,49 L36.6625,49 C37.6775,49 38.5,48.1775 38.5,47.1625 L38.5,45.465 C38.2025,45.4825 37.9225,45.5 37.625,45.5 Z" id="Path" fill="#101828" fill-rule="nonzero"></path>
                    <path d="M24.5,14 C25.4625,14 26.25,14.7875 26.25,15.75 C26.25,16.7125 25.4625,17.5 24.5,17.5 C23.5375,17.5 22.75,16.7125 22.75,15.75 C22.75,14.7875 23.5375,14 24.5,14 L24.5,14 Z M24.5,12.25 C22.575,12.25 21,13.825 21,15.75 C21,17.675 22.575,19.25 24.5,19.25 C26.425,19.25 28,17.675 28,15.75 C28,13.825 26.425,12.25 24.5,12.25 L24.5,12.25 Z" id="Shape" fill="#101828" fill-rule="nonzero"></path>
                    <path d="M21,26.25 L21,24.5 C21,23.5375 21.7875,22.75 22.75,22.75 L26.25,22.75 C27.2125,22.75 28,23.5375 28,24.5 L28,26.25 L29.75,26.25 L29.75,24.5 C29.75,22.575 28.175,21 26.25,21 L22.75,21 C20.825,21 19.25,22.575 19.25,24.5 L19.25,26.25 L21,26.25 Z" id="Path" fill="#101828" fill-rule="nonzero"></path>
                    <path d="M37.625,26.25 C41.965,26.25 45.5,29.785 45.5,34.125 C45.5,38.465 41.965,42 37.625,42 C33.285,42 29.75,38.465 29.75,34.125 C29.75,29.785 33.285,26.25 37.625,26.25 L37.625,26.25 Z M37.625,24.5 C32.305,24.5 28,28.805 28,34.125 C28,39.445 32.305,43.75 37.625,43.75 C42.945,43.75 47.25,39.445 47.25,34.125 C47.25,28.805 42.945,24.5 37.625,24.5 L37.625,24.5 Z" id="Shape" fill="#101828" fill-rule="nonzero"></path>
                    <g id="Group" transform="translate(33.250000, 28.000000)" fill="#101828" fill-rule="nonzero">
                        <path d="M3.395,7.875 C3.395,7.035 3.7275,6.2825 4.5675,5.5475 C5.425,4.8125 5.7575,4.3225 5.7575,3.6225 C5.7575,2.905 5.1975,2.45 4.41,2.45 C3.6225,2.45 2.9575,2.9575 2.9575,3.815 C2.9575,3.99 2.9925,4.1825 3.045,4.3225 L1.5575,4.655 C1.435,4.3925 1.3825,4.0775 1.3825,3.6575 C1.3825,2.275 2.5375,0.8575 4.375,0.8575 C6.2475,0.8575 7.35,1.925 7.35,3.4825 C7.35,4.585 6.9825,5.2675 5.6875,6.4575 C5.2325,6.895 5.1275,7.245 5.1275,7.8575 L3.395,7.8575 L3.395,7.875 Z" id="Path"></path>
                        <rect id="Rectangle" x="3.395" y="9.625" width="1.75" height="1.75"></rect>
                    </g>
                    <rect id="Rectangle" x="0" y="0" width="56" height="56"></rect>
                </g>
            </g>
        </g>
    </g>
</svg>