<?xml version="1.0" encoding="UTF-8"?>
<svg width="32px" height="32px" viewBox="0 0 32 32" version="1.1" xmlns="http://www.w3.org/2000/svg" xmlns:xlink="http://www.w3.org/1999/xlink">
    <!-- Generator: Sketch 57.1 (83088) - https://sketch.com -->
    <title>177-B32px</title>
    <desc>Created with Sketch.</desc>
    <g id="177-B32px" stroke="none" stroke-width="1" fill="none" fill-rule="evenodd">
        <g>
            <polygon id="Path" fill="#101828" fill-rule="nonzero" points="20 20 20 21 22 21 22 23 23 23 23 21 25 21 25 20 23 20 23 18 22 18 22 20"></polygon>
            <path d="M22.5,6 C23.33,6 24,6.67 24,7.5 C24,8.33 23.33,9 22.5,9 C21.67,9 21,8.33 21,7.5 C21,6.67 21.67,6 22.5,6 L22.5,6 Z M22.5,5 C21.12,5 20,6.12 20,7.5 C20,8.88 21.12,10 22.5,10 C23.88,10 25,8.88 25,7.5 C25,6.12 23.88,5 22.5,5 L22.5,5 Z" id="Shape" fill="#101828" fill-rule="nonzero"></path>
            <path d="M15.5,6 C16.33,6 17,6.67 17,7.5 C17,8.33 16.33,9 15.5,9 C14.67,9 14,8.33 14,7.5 C14,6.67 14.67,6 15.5,6 L15.5,6 Z M15.5,5 C14.12,5 13,6.12 13,7.5 C13,8.88 14.12,10 15.5,10 C16.88,10 18,8.88 18,7.5 C18,6.12 16.88,5 15.5,5 L15.5,5 Z" id="Shape" fill="#101828" fill-rule="nonzero"></path>
            <path d="M8.5,6 C9.33,6 10,6.67 10,7.5 C10,8.33 9.33,9 8.5,9 C7.67,9 7,8.33 7,7.5 C7,6.67 7.67,6 8.5,6 L8.5,6 Z M8.5,5 C7.12,5 6,6.12 6,7.5 C6,8.88 7.12,10 8.5,10 C9.88,10 11,8.88 11,7.5 C11,6.12 9.88,5 8.5,5 L8.5,5 Z" id="Shape" fill="#101828" fill-rule="nonzero"></path>
            <path d="M25,12 C25.55,12 26,12.45 26,13 L26,15 L27,15 L27,13 C27,11.9 26.1,11 25,11 L20.2,11 C20.46,11.29 20.67,11.63 20.81,12 L25,12 Z" id="Path" fill="#101828" fill-rule="nonzero"></path>
            <path d="M5,15 L5,13 C5,12.45 5.45,12 6,12 L11,12 C11.55,12 12,12.45 12,13 L12,15 L13,15 L13,13 C13,11.9 12.1,11 11,11 L6,11 C4.9,11 4,11.9 4,13 L4,15 L5,15 Z" id="Path" fill="#101828" fill-rule="nonzero"></path>
            <path d="M19,13 L19,15 L19.05,15 C19.35,14.81 19.67,14.64 20,14.5 L20,13 C20,11.9 19.1,11 18,11 L13.2,11 C13.46,11.29 13.67,11.63 13.81,12 L18,12 C18.55,12 19,12.45 19,13 Z" id="Path" fill="#101828" fill-rule="nonzero"></path>
            <path d="M22.5,16 C24.98,16 27,18.02 27,20.5 C27,22.98 24.98,25 22.5,25 C20.02,25 18,22.98 18,20.5 C18,18.02 20.02,16 22.5,16 L22.5,16 Z M22.5,15 C19.46,15 17,17.46 17,20.5 C17,23.54 19.46,26 22.5,26 C25.54,26 28,23.54 28,20.5 C28,17.46 25.54,15 22.5,15 L22.5,15 Z" id="Shape" fill="#101828" fill-rule="nonzero"></path>
            <polygon id="Path" fill="#101828" fill-rule="nonzero" points="20 20 20 21 22 21 22 23 23 23 23 21 25 21 25 20 23 20 23 18 22 18 22 20"></polygon>
            <rect id="Rectangle" x="0" y="0" width="32" height="32"></rect>
        </g>
    </g>
</svg>