<?xml version="1.0" encoding="UTF-8"?>
<svg width="32px" height="32px" viewBox="0 0 32 32" version="1.1" xmlns="http://www.w3.org/2000/svg" xmlns:xlink="http://www.w3.org/1999/xlink">
    <!-- Generator: Sketch 57.1 (83088) - https://sketch.com -->
    <title>127-B32px</title>
    <desc>Created with Sketch.</desc>
    <g id="127-B32px" stroke="none" stroke-width="1" fill="none" fill-rule="evenodd">
        <g>
            <path d="M24.5,4.2 C24.49,4.17 24.49,4.15 24.47,4.12 C24.46,4.1 24.44,4.08 24.42,4.07 C24.41,4.06 24.4,4.04 24.39,4.03 C24.38,4.02 24.36,4.03 24.35,4.02 C24.34,4.02 24.33,4 24.32,4 C24.31,4 24.3,4.01 24.29,4.01 C24.25,4.01 24.22,4.01 24.19,4.03 C24.17,4.04 24.16,4.05 24.14,4.06 C24.13,4.07 24.11,4.07 24.1,4.08 L8.48,21.23 C8.47,21.24 8.47,21.25 8.47,21.26 C7.86,21.97 7.49,22.89 7.49,23.9 C7.49,26.06 9.17,27.85 11.36,28 L24.19,28 C24.32,28 24.43,27.89 24.43,27.76 L24.5,4.25 C24.51,4.23 24.5,4.22 24.5,4.2 Z M14.69,21.21 C13.91,20.31 12.78,19.79 11.59,19.79 C11.13,19.79 10.7,19.88 10.29,20.02 L23.07,5.98 C21.94,8.07 19.56,12.41 14.69,21.21 Z" id="Shape" fill="#101828" fill-rule="nonzero"></path>
            <rect id="Rectangle" x="0" y="0" width="32" height="32"></rect>
        </g>
    </g>
</svg>