<?xml version="1.0" encoding="UTF-8"?>
<svg width="56px" height="56px" viewBox="0 0 56 56" version="1.1" xmlns="http://www.w3.org/2000/svg" xmlns:xlink="http://www.w3.org/1999/xlink">
    <!-- Generator: Sketch 56.3 (81716) - https://sketch.com -->
    <title>037-W56px</title>
    <desc>Created with Sketch.</desc>
    <g id="NEW_icons" stroke="none" stroke-width="1" fill="none" fill-rule="evenodd">
        <g id="icons_UD_new-Copy" transform="translate(-1814.000000, -4867.000000)">
            <g id="037-W56px" transform="translate(1814.000000, 4867.000000)">
                <g id="003-B32px-Copy-71" transform="translate(8.000000, 8.000000)">
                    <g id="Group" transform="translate(10.000000, 5.000000)" fill="#FFFFFF" fill-rule="nonzero">
                        <path d="M18.6875,0 L1.3125,0 C0.5875,0 0,0.5875 0,1.3125 L0,23.75 L0,25 L0,28.6875 C0,29.4125 0.5875,30 1.3125,30 L18.6875,30 C19.4125,30 20,29.4125 20,28.6875 L20,25 L20,23.75 L20,1.3125 C20,0.5875 19.4125,0 18.6875,0 Z M18.75,28.6875 C18.75,28.725 18.725,28.75 18.6875,28.75 L1.3125,28.75 C1.275,28.75 1.25,28.725 1.25,28.6875 L1.25,25 L18.75,25 L18.75,28.6875 Z M1.25,23.75 L1.25,1.3125 C1.25,1.275 1.275,1.25 1.3125,1.25 L18.6875,1.25 C18.725,1.25 18.75,1.275 18.75,1.3125 L18.75,23.75 L1.25,23.75 Z" id="Shape"></path>
                        <path d="M10,27.4875 C10.3375,27.4875 10.625,27.2125 10.625,26.8625 C10.625,26.525 10.35,26.2375 10,26.2375 C9.65,26.2375 9.375,26.5125 9.375,26.8625 C9.375,27.2125 9.6625,27.4875 10,27.4875 Z" id="Path"></path>
                        <path d="M12.5125,20 L7.5,20.0125 L7.5,16.25 L6.25,16.25 L6.25,20.0125 C6.25,20.6875 6.8,21.25 7.4875,21.25 L12.525,21.25 C13.2,21.25 13.7625,20.7 13.7625,20.0125 L13.7625,16.25 L12.5125,16.25 L12.5125,20 Z" id="Path"></path>
                        <polygon id="Path" points="4.775 15.575 5.5625 16.5375 10 12.875 14.4375 16.5375 15.225 15.575 10 11.2625"></polygon>
                        <path d="M12.6,7.3125 C11.925,6.65 11.0125,6.25 10,6.25 C8.9625,6.25 8.025,6.675 7.35,7.35 L8.2375,8.2375 C8.6875,7.775 9.3125,7.5 10,7.5 C10.6625,7.5 11.275,7.7625 11.7125,8.1875 L12.6,7.3125 Z" id="Path"></path>
                        <path d="M9.1125,9.1125 L9.95,9.95 L10.825,9.075 C10.6125,8.875 10.325,8.75 10,8.75 C9.65,8.75 9.3375,8.8875 9.1125,9.1125 Z" id="Path"></path>
                        <path d="M10,5 C11.35,5 12.5875,5.55 13.4875,6.425 L14.375,5.5375 C13.2375,4.4375 11.7,3.75 10,3.75 C8.275,3.75 6.7125,4.45 5.575,5.575 L6.4625,6.4625 C7.375,5.5625 8.625,5 10,5 Z" id="Path"></path>
                    </g>
                    <rect id="Rectangle" x="0" y="0" width="40" height="40"></rect>
                </g>
                <circle id="Oval-Copy-327" fill="#101828" cx="28" cy="28" r="28"></circle>
                <g id="037-B32px-Copy-6" transform="translate(8.000000, 8.000000)">
                    <path d="M12.4,19.9125 C13.575,19.975 14.2375,19.75 14.275,18.5625 C14.325,17.1625 13.7125,16.9125 12.4125,17.0625 L12.4,19.9125 Z" id="Path" fill="#FFFFFF" fill-rule="nonzero"></path>
                    <path d="M12.4125,17.05 L12.4,19.9 C13.575,19.9625 14.2375,19.7375 14.275,18.55 C14.325,17.1625 13.725,16.9125 12.4125,17.05 Z" id="Path" fill="#FFFFFF"></path>
                    <path d="M5,8.75 L5,31.25 L21.25,33.75 L21.25,6.25 L5,8.75 Z M12.3875,21.6125 L12.3375,24.8375 L10.8,24.7625 L10.8125,15.4375 C13.175,15.325 16.05,14.6125 16.05,18.1375 C16.0625,21.4 14.275,21.4375 12.3875,21.6125 Z" id="Shape" fill="#FFFFFF"></path>
                    <rect id="Rectangle" fill="#FFFFFF" x="20" y="16.25" width="7.5" height="3.75"></rect>
                    <polygon id="Path" fill="#FFFFFF" fill-rule="nonzero" points="27.5 26.25 20 26.25 20 27.5 27.5 27.5"></polygon>
                    <polygon id="Path" fill="#FFFFFF" fill-rule="nonzero" points="27.5 23.75 20 23.75 20 25 27.5 25"></polygon>
                    <polygon id="Path" fill="#FFFFFF" fill-rule="nonzero" points="27.5 21.25 20 21.25 20 22.5 27.5 22.5"></polygon>
                    <path d="M33.75,8.75 L26.25,8.75 C25.5625,8.75 25,9.3125 25,10 L25,10.6375 L25,12.5 L20,12.5 L20,31.25 L30,31.25 C30.6875,31.25 31.25,30.6875 31.25,30 L31.25,25 L33.75,25 C34.4375,25 35,24.4375 35,23.75 L35,10 C35,9.3125 34.4375,8.75 33.75,8.75 Z M30,23.75 L30,25 L30,30 L21.25,30 L21.25,13.75 L25,13.75 L26.25,13.75 L30,13.75 L30,23.75 Z M33.75,23.75 L31.25,23.75 L31.25,13.75 C31.25,13.575 31.2125,13.425 31.15,13.2875 C31.15,13.275 31.1375,13.2625 31.1375,13.25 C30.8875,12.6875 30.2375,12.4125 29.7,12.075 L26.5875,10 L33.75,10 L33.75,23.75 Z" id="Shape" fill="#FFFFFF"></path>
                    <rect id="Rectangle" x="0" y="0" width="40" height="40"></rect>
                </g>
            </g>
        </g>
    </g>
</svg>