<?xml version="1.0" encoding="UTF-8"?>
<svg width="56px" height="56px" viewBox="0 0 56 56" version="1.1" xmlns="http://www.w3.org/2000/svg" xmlns:xlink="http://www.w3.org/1999/xlink">
    <!-- Generator: Sketch 57.1 (83088) - https://sketch.com -->
    <title>172-W56px</title>
    <desc>Created with Sketch.</desc>
    <g id="NEW_icons" stroke="none" stroke-width="1" fill="none" fill-rule="evenodd">
        <g id="icons_UD_new-Copy" transform="translate(-532.000000, -22094.000000)">
            <g id="172-W56px" transform="translate(532.000000, 22094.000000)">
                <circle id="Oval-Copy-977" fill="#101828" cx="28" cy="28" r="28"></circle>
                <g id="172-B32px-Copy-5" transform="translate(8.000000, 8.000000)">
                    <g id="Group" transform="translate(7.500000, 8.750000)" fill="#FFFFFF" fill-rule="nonzero">
                        <path d="M5.2125,2.8125 C5.625,3.775 6.05,4.75 6.475,5.725 C7.9,9.0125 9.325,12.3125 10.75,15.6 C10.8,15.7125 10.9875,15.8375 11.1125,15.8375 C12.0875,15.85 13.075,15.8125 14.05,15.825 C14.325,15.825 14.45,15.725 14.5625,15.475 C16.3375,11.45 18.125,7.425 19.9125,3.4 C19.9625,3.2875 20.025,3.1625 20.0875,3.0125 C20.85,3.7375 21.525,4.5125 22.0625,5.4 C25.0125,10.3625 24.225,16.8875 18.7,20.6125 C13.55,24.0875 6.85,22.625 3.2625,17.5375 C1.925,15.6375 1.1625,13.5375 1.25,11.175 C1.375,7.875 2.6625,5.1125 5.05,2.8875 C5.075,2.8625 5.1,2.85 5.1375,2.825 C5.15,2.8125 5.1625,2.8125 5.2125,2.8125 Z" id="Path"></path>
                        <path d="M12.525,8.3375 C11.6125,5.6375 10.7375,3.0375 9.8375,0.3875 C11.6875,-0.175 13.5,-0.0625 15.375,0.375 C14.425,3.0125 13.4875,5.6375 12.525,8.3375 Z" id="Path"></path>
                    </g>
                    <rect id="Rectangle" x="0" y="0" width="40" height="40"></rect>
                </g>
            </g>
        </g>
    </g>
</svg>