<?xml version="1.0" encoding="UTF-8"?>
<svg width="32px" height="32px" viewBox="0 0 32 32" version="1.1" xmlns="http://www.w3.org/2000/svg" xmlns:xlink="http://www.w3.org/1999/xlink">
    <!-- Generator: Sketch 57.1 (83088) - https://sketch.com -->
    <title>236-B32px</title>
    <desc>Created with Sketch.</desc>
    <g id="236-B32px" stroke="none" stroke-width="1" fill="none" fill-rule="evenodd">
        <g>
            <path d="M16,10 C17.38,10 18.5,11.12 18.5,12.5 C18.5,13.31 18.1,14.08 17.43,14.55 L17,14.85 L17,15.37 L17,20 L15,20 L15,15.37 L15,14.85 L14.57,14.55 C13.9,14.08 13.5,13.31 13.5,12.5 C13.5,11.12 14.62,10 16,10 L16,10 Z M16,9 C14.07,9 12.5,10.57 12.5,12.5 C12.5,13.69 13.1,14.73 14,15.37 L14,21 L18,21 L18,15.37 C18.91,14.74 19.5,13.69 19.5,12.5 C19.5,10.57 17.93,9 16,9 L16,9 Z" id="Shape" fill="#101828" fill-rule="nonzero"></path>
            <path d="M27,5 L27,7 C27,10.13 26.35,14.79 25.27,17.18 C23.78,20.46 20.98,24.78 16,26.92 C11.02,24.78 8.21,20.46 6.73,17.18 C5.65,14.79 5,10.12 5,7 L5,5 L27,5 L27,5 Z M28,4 L4,4 L4,7 C4,9.96 4.6,14.89 5.82,17.59 C7.49,21.28 10.56,25.82 16,28 C21.44,25.82 24.51,21.28 26.18,17.59 C27.4,14.89 28,9.96 28,7 L28,4 L28,4 Z" id="Shape" fill="#101828" fill-rule="nonzero"></path>
            <rect id="Rectangle" x="0" y="0" width="32" height="32"></rect>
        </g>
    </g>
</svg>