<?xml version="1.0" encoding="UTF-8"?>
<svg width="32px" height="32px" viewBox="0 0 32 32" version="1.1" xmlns="http://www.w3.org/2000/svg" xmlns:xlink="http://www.w3.org/1999/xlink">
    <!-- Generator: Sketch 57.1 (83088) - https://sketch.com -->
    <title>031-B32px</title>
    <desc>Created with Sketch.</desc>
    <g id="031-B32px" stroke="none" stroke-width="1" fill="none" fill-rule="evenodd">
        <g>
            <polygon id="Path" fill="#101828" fill-rule="nonzero" points="23 14 22.52 16.3 22 14 21 14 20.47 16.3 20 14 20 14 19 14 19.96 17.9 19.99 18 21 18 21.49 15.69 22 18 23 18 24 14 24 14"></polygon>
            <polygon id="Path" fill="#101828" fill-rule="nonzero" points="17.5 14 17.02 16.3 16.5 14 15.5 14 14.97 16.3 14.5 14 14.5 14 13.5 14 14.46 17.9 14.49 18 15.5 18 15.99 15.69 16.5 18 17.5 18 18.5 14 18.5 14"></polygon>
            <polygon id="Path" fill="#101828" fill-rule="nonzero" points="12 14 11.52 16.3 11 14 10 14 9.47 16.3 9 14 9 14 8 14 8.96 17.9 8.99 18 10 18 10.49 15.69 11 18 12 18 13 14 13 14"></polygon>
            <path d="M16,4 C16,4 15.99,4 15.99,4 C15.99,4 15.99,4 15.98,4 C15.97,4 15.96,4 15.95,4 C9.35,4.03 4,9.39 4,16 C4,22.61 9.35,27.97 15.96,28 C15.97,28 15.98,28 15.99,28 C15.99,28 15.99,28 16,28 C16,28 16.01,28 16.01,28 C22.64,28 28.01,22.63 28.01,16 C28.01,9.37 22.63,4 16,4 Z M25.48,10.45 L22.15,10.45 C21.52,8.39 20.56,6.68 19.39,5.54 C21.97,6.38 24.13,8.15 25.48,10.45 Z M16.5,5.05 C18.43,5.37 20.13,7.48 21.1,10.45 L16.5,10.45 L16.5,5.05 Z M15.5,5.05 L15.5,10.45 L10.87,10.45 C11.84,7.46 13.55,5.35 15.5,5.05 Z M12.55,5.56 C11.38,6.7 10.43,8.4 9.81,10.45 L6.52,10.45 C7.86,8.16 10,6.41 12.55,5.56 Z M6.52,21.55 L9.81,21.55 C10.43,23.6 11.39,25.3 12.55,26.44 C10,25.59 7.86,23.84 6.52,21.55 Z M15.5,26.95 C13.55,26.65 11.84,24.53 10.87,21.55 L15.5,21.55 L15.5,26.95 Z M16.5,26.95 L16.5,21.55 L21.1,21.55 C20.13,24.52 18.43,26.63 16.5,26.95 Z M19.39,26.46 C20.57,25.32 21.53,23.61 22.15,21.55 L25.48,21.55 C24.13,23.85 21.97,25.62 19.39,26.46 Z M26,20.55 L25.95,20.55 L22.42,20.55 L21.38,20.55 L16.5,20.55 L15.5,20.55 L10.58,20.55 L9.54,20.55 L6,20.55 L6,20.55 C5.43,19.3 5.09,17.94 5.03,16.5 L7,16.5 L7,15.5 L5.03,15.5 C5.1,14.06 5.43,12.69 6,11.45 L6,11.45 L9.54,11.45 L10.58,11.45 L15.5,11.45 L16.5,11.45 L21.39,11.45 L22.43,11.45 L25.96,11.45 L26,11.45 C26.57,12.7 26.91,14.06 26.97,15.5 L25,15.5 L25,16.5 L26.97,16.5 C26.91,17.94 26.57,19.31 26,20.55 Z" id="Shape" fill="#101828" fill-rule="nonzero"></path>
            <rect id="Rectangle" x="0" y="0" width="32" height="32"></rect>
        </g>
    </g>
</svg>