<?xml version="1.0" encoding="UTF-8"?>
<svg width="80px" height="80px" viewBox="0 0 80 80" version="1.1" xmlns="http://www.w3.org/2000/svg" xmlns:xlink="http://www.w3.org/1999/xlink">
    <!-- Generator: Sketch 57.1 (83088) - https://sketch.com -->
    <title>235-G80px</title>
    <desc>Created with Sketch.</desc>
    <g id="NEW_icons" stroke="none" stroke-width="1" fill="none" fill-rule="evenodd">
        <g id="icons_UD_new-Copy" transform="translate(-2050.000000, -29864.000000)">
            <g id="235-G80px" transform="translate(2050.000000, 29864.000000)">
                <circle id="Oval-Copy-792" fill="#E3E8EC" cx="40" cy="40" r="40"></circle>
                <g id="235-B32px-Copy-6" transform="translate(12.000000, 17.000000)">
                    <path d="M47.25,8.75 L47.25,12.25 C47.25,17.7275 46.1125,25.8825 44.2225,30.065 C41.615,35.805 36.715,43.365 28,47.11 C19.285,43.365 14.3675,35.805 11.7775,30.065 C9.8875,25.8825 8.75,17.71 8.75,12.25 L8.75,8.75 L47.25,8.75 L47.25,8.75 Z M49,7 L7,7 L7,12.25 C7,17.43 8.05,26.0575 10.185,30.7825 C13.1075,37.24 18.48,45.185 28,49 C37.52,45.185 42.8925,37.24 45.815,30.7825 C47.95,26.0575 49,17.43 49,12.25 L49,7 L49,7 Z" id="Shape" fill="#101828" fill-rule="nonzero"></path>
                    <rect id="Rectangle" fill="#101828" fill-rule="nonzero" x="35.875" y="21" width="1.75" height="5.4775"></rect>
                    <path d="M28,26.355 L17.29,21 L28,15.645 L38.71,21 L28,26.355 Z M21.21,21 L28,24.395 L34.79,21 L28,17.605 L21.21,21 Z" id="Shape" fill="#101828" fill-rule="nonzero"></path>
                    <polygon id="Path" fill="#101828" fill-rule="nonzero" points="28.2275 30.7125 21.0175 27.37 21.0175 22.435 22.7675 22.435 22.7675 26.25 28.2275 28.7875 33.285 26.4425 33.285 22.6275 35.035 22.6275 35.035 27.5625"></polygon>
                    <rect id="Rectangle" x="0" y="0" width="56" height="56"></rect>
                </g>
            </g>
        </g>
    </g>
</svg>