<?xml version="1.0" encoding="UTF-8"?>
<svg width="56px" height="56px" viewBox="0 0 56 56" version="1.1" xmlns="http://www.w3.org/2000/svg" xmlns:xlink="http://www.w3.org/1999/xlink">
    <!-- Generator: Sketch 57.1 (83088) - https://sketch.com -->
    <title>193-W56px</title>
    <desc>Created with Sketch.</desc>
    <g id="NEW_icons" stroke="none" stroke-width="1" fill="none" fill-rule="evenodd">
        <g id="icons_UD_new-Copy" transform="translate(-1814.000000, -24607.000000)">
            <g id="193-W56px" transform="translate(1814.000000, 24607.000000)">
                <circle id="Oval-Copy-1181" fill="#101828" cx="28" cy="28" r="28"></circle>
                <g id="193-B32px-Copy-4" transform="translate(8.000000, 8.000000)">
                    <path d="M33.75,9.9875 L33.775,31.25 L6.25,31.275 L6.275,9.9875 L33.75,9.9875 L33.75,9.9875 Z M33.7625,8.7375 L6.275,8.7375 C5.575,8.7375 5,9.3125 5,10.0125 L5,31.275 C5,31.95 5.55,32.5 6.225,32.5 L33.775,32.5 C34.45,32.5 35,31.95 35,31.275 L35,9.975 C35,9.3 34.45,8.7375 33.7625,8.7375 L33.7625,8.7375 Z" id="Shape" fill="#FFFFFF" fill-rule="nonzero"></path>
                    <rect id="Rectangle" fill="#FFFFFF" fill-rule="nonzero" x="28.75" y="6.2375" width="1.25" height="6.25"></rect>
                    <rect id="Rectangle" fill="#FFFFFF" fill-rule="nonzero" x="25" y="6.2375" width="1.25" height="6.25"></rect>
                    <rect id="Rectangle" fill="#FFFFFF" fill-rule="nonzero" x="21.25" y="6.2375" width="1.25" height="6.25"></rect>
                    <rect id="Rectangle" fill="#FFFFFF" fill-rule="nonzero" x="17.5" y="6.2375" width="1.25" height="6.25"></rect>
                    <rect id="Rectangle" fill="#FFFFFF" fill-rule="nonzero" x="13.75" y="6.2375" width="1.25" height="6.25"></rect>
                    <rect id="Rectangle" fill="#FFFFFF" fill-rule="nonzero" x="10" y="6.2375" width="1.25" height="6.25"></rect>
                    <rect id="Rectangle" fill="#FFFFFF" fill-rule="nonzero" x="13.75" y="26.25" width="12.5" height="1.25"></rect>
                    <path d="M14.375,22.5 L17.175,20.025 C17.775,19.4375 18.0375,19.0625 18.0375,18.525 C18.0375,17.9 17.6125,17.475 16.9125,17.475 C16.2375,17.475 15.7625,17.8625 15.7625,18.5125 C15.7625,18.725 15.7875,18.8625 15.8125,19.0125 L14.45,19.1125 C14.4,18.875 14.375,18.6625 14.375,18.4375 C14.375,17.2875 15.325,16.25 16.9,16.25 C18.5125,16.25 19.375,17.1625 19.375,18.3625 C19.375,19.325 19.05,19.9375 18.0875,20.8625 L16.175,22.5 L19.375,22.5 L19.375,23.75 L14.375,23.75 L14.375,22.5 Z" id="Path" fill="#FFFFFF" fill-rule="nonzero"></path>
                    <path d="M23.125,18.75 C22.375,18.75 22.1,18.8625 21.875,18.975 L21.875,17.4875 L25.025,17.5125 L25.025,16.2375 L20.625,16.2375 L20.625,20.3125 L21.875,20.5875 C21.9875,20.4375 22.35,19.9875 23.125,19.9875 C23.8125,19.9875 24.375,20.5125 24.375,21.175 C24.375,22.0375 23.7125,22.4875 23.125,22.4875 C22.4625,22.4875 22.025,22.025 21.9,21.675 L20.6,21.9625 C20.75,22.8375 21.4625,23.75 23.125,23.75 C24.575,23.75 25.625,22.675 25.625,21.1875 C25.625,19.7 24.625,18.75 23.125,18.75 Z" id="Path" fill="#FFFFFF" fill-rule="nonzero"></path>
                    <rect id="Rectangle" x="0" y="0" width="40" height="40"></rect>
                </g>
            </g>
        </g>
    </g>
</svg>