<?xml version="1.0" encoding="UTF-8"?>
<svg width="42px" height="42px" viewBox="0 0 42 42" version="1.1" xmlns="http://www.w3.org/2000/svg" xmlns:xlink="http://www.w3.org/1999/xlink">
    <!-- Generator: Sketch 57.1 (83088) - https://sketch.com -->
    <title>061-G40px</title>
    <desc>Created with Sketch.</desc>
    <g id="NEW_icons" stroke="none" stroke-width="1" fill="none" fill-rule="evenodd">
        <g id="061-G40px" transform="translate(1.000000, 1.000000)">
            <circle id="Oval-Copy-37" stroke="#E3E8EC" cx="20" cy="20" r="20"></circle>
            <g transform="translate(4.000000, 4.000000)">
                <path d="M10,19 L10,23 L6,23 L6,19 L10,19 L10,19 Z M11,18 L5,18 L5,24 L11,24 L11,18 L11,18 Z" id="Shape" fill="#101828" fill-rule="nonzero"></path>
                <rect id="Rectangle" fill="#101828" fill-rule="nonzero" x="15" y="18" width="1" height="6"></rect>
                <rect id="Rectangle" fill="#101828" fill-rule="nonzero" x="17" y="18" width="1" height="6"></rect>
                <path d="M23,19.8 L25.1,21 L23,22.2 L23,19.8 L23,19.8 Z M22,18 L22,24 L27,21 L22,18 L22,18 Z" id="Shape" fill="#101828" fill-rule="nonzero"></path>
                <path d="M16,8 C16.1,8 23,8 26.9,11.1 C26.9,11.1 27,11.2 27,11.2 L27,14.9 C27,15 27,15 26.9,15 L21.1,15 C21,15 21,14.9 21,14.9 L21,12.4 L21,11.7 L20.4,11.4 C20.3,11.4 18,10.4 16,10.4 C14,10.4 11.7,11.3 11.6,11.4 L11,11.7 L11,12.4 L11,14.9 C11,15 11,15 10.9,15 L5.1,15 C5,15 5,14.9 5,14.9 L5,11.2 C5,11.2 5,11.1 5,11.1 C9.1,8.1 15.9,8 16,8 L16,8 Z M16,7 C16,7 8.8,7 4.4,10.3 C4.2,10.5 4,10.8 4,11.2 L4,14.9 C4,15.5 4.5,16 5.1,16 L10.9,16 C11.5,16 12,15.5 12,14.9 L12,12.4 C12,12.4 14.2,11.5 16,11.5 C17.8,11.5 20,12.4 20,12.4 L20,14.9 C20,15.5 20.5,16 21.1,16 L26.9,16 C27.5,16 28,15.5 28,14.9 L28,11.2 C28,10.8 27.8,10.5 27.5,10.3 C23.3,7 16,7 16,7 L16,7 Z" id="Shape" fill="#101828" fill-rule="nonzero"></path>
                <rect id="Rectangle" x="0" y="0" width="32" height="32"></rect>
            </g>
        </g>
    </g>
</svg>