<?xml version="1.0" encoding="UTF-8"?>
<svg width="80px" height="80px" viewBox="0 0 80 80" version="1.1" xmlns="http://www.w3.org/2000/svg" xmlns:xlink="http://www.w3.org/1999/xlink">
    <!-- Generator: Sketch 57.1 (83088) - https://sketch.com -->
    <title>116-B80px</title>
    <desc>Created with Sketch.</desc>
    <g id="116-B80px" stroke="none" stroke-width="1" fill="none" fill-rule="evenodd">
        <g>
            <g id="Group" transform="translate(10.000000, 12.500000)" fill="#101828" fill-rule="nonzero">
                <path d="M32.8,2.5 L32.8,2.5 C33.325,2.5 33.85,2.65 34.425,2.925 C35.1,4 36.6,6.65 37.425,9.975 C37.6,10.65 37.625,11.35 37.5,12.05 L35.8,21.625 C35.65,22.45 35.875,23.3 36.425,23.95 C36.975,24.6 37.775,24.975 38.6,24.975 L55.65,24.975 C56.5,24.975 57.25,25.525 57.425,26.275 C57.475,26.525 57.5,26.825 57.5,27.125 C57.5,28.15 57.15,28.775 56.325,29.2 C55.425,29.65 54.8,30.5 54.65,31.5 C54.5,32.5 54.85,33.5 55.575,34.2 C56.125,34.725 56.125,35.225 56.125,35.4 C56.125,36.05 55.525,36.75 54.95,37.175 C54.3,37.675 53.9,38.4 53.825,39.2 C53.75,40 54.025,40.8 54.55,41.4 C54.7,41.575 54.975,41.95 54.975,42.625 C54.975,43.325 54.25,44.15 53.75,44.45 C52.325,45.375 51.9,47.3 52.8,48.75 C52.975,49.025 53.275,49.625 53.275,50.575 C53.275,51.525 52,52.525 50.8,52.525 L21.3,52.525 L17.5,50.65 L17.5,30.45 L19.825,28.7 C20.075,28.5 20.3,28.3 20.525,28.05 C22.45,25.85 28.825,18.25 30.45,12.875 C30.575,12.475 30.625,12.05 30.625,11.6 L30.625,3.425 C30.625,3.35 30.7,3.275 30.725,3.25 C31.4,2.75 32.1,2.5 32.8,2.5 L32.8,2.5 Z M32.8,0 C31.275,0 30.05,0.65 29.25,1.225 C28.55,1.75 28.125,2.55 28.125,3.4 L28.125,11.6 C28.125,11.775 28.1,11.975 28.05,12.15 C26.525,17.225 19.7,25.175 18.625,26.4 C18.525,26.5 18.425,26.6 18.325,26.675 L15.8,28.575 C15.3,28.95 15,29.525 15,30.15 L15,50.975 C15,51.725 15.425,52.425 16.125,52.75 L20.3,54.775 C20.575,54.925 20.9,54.975 21.2,54.975 L50.8,54.975 C53.225,54.975 55.775,53 55.775,50.525 C55.775,49 55.3,47.95 54.925,47.375 C54.75,47.075 54.8,46.7 55.1,46.5 C56.1,45.85 57.45,44.35 57.45,42.575 C57.45,41.1 56.8,40.125 56.4,39.675 C56.25,39.5 56.275,39.225 56.45,39.1 C57.15,38.55 58.6,37.2 58.6,35.325 C58.6,33.875 57.875,32.875 57.275,32.3 C56.975,32.025 57.05,31.525 57.425,31.35 C58.45,30.825 59.975,29.625 59.975,27.05 C59.975,26.525 59.925,26.075 59.825,25.65 C59.4,23.725 57.625,22.4 55.625,22.4 L38.575,22.4 C38.35,22.4 38.2,22.2 38.225,22 L39.925,12.425 C40.1,11.4 40.075,10.35 39.825,9.325 C38.875,5.475 37.125,2.475 36.425,1.425 C36.225,1.125 35.975,0.9 35.65,0.725 C34.65,0.2 33.675,0 32.8,0 L32.8,0 Z" id="Shape"></path>
                <path d="M15,28.1 L15,52.5 L2.5,52.5 L2.5,28.1 L15,28.1 L15,28.1 Z M15,25.6 L2.5,25.6 C1.125,25.6 0,26.725 0,28.1 L0,52.5 C0,53.875 1.125,55 2.5,55 L15,55 C16.375,55 17.5,53.875 17.5,52.5 L17.5,28.1 C17.5,26.725 16.375,25.6 15,25.6 L15,25.6 Z" id="Shape"></path>
            </g>
            <rect id="Rectangle" x="0" y="0" width="80" height="80"></rect>
        </g>
    </g>
</svg>