<?xml version="1.0" encoding="UTF-8"?>
<svg width="80px" height="80px" viewBox="0 0 80 80" version="1.1" xmlns="http://www.w3.org/2000/svg" xmlns:xlink="http://www.w3.org/1999/xlink">
    <!-- Generator: Sketch 57.1 (83088) - https://sketch.com -->
    <title>174-C80px</title>
    <desc>Created with Sketch.</desc>
    <g id="NEW_icons" stroke="none" stroke-width="1" fill="none" fill-rule="evenodd">
        <g id="icons_UD_new-Copy" transform="translate(-1002.000000, -22322.000000)">
            <g id="174-C80px" transform="translate(1002.000000, 22322.000000)">
                <circle id="Oval-Copy-980" fill="#FF4F12" cx="40" cy="40" r="40"></circle>
                <g id="174-B32px-Copy-6" transform="translate(12.000000, 12.000000)">
                    <path d="M17.535,34.1075 C17.1325,34.1075 16.8,34.1075 16.415,34.1075 C16.415,33.6875 16.415,33.285 16.415,32.8825 C16.415,32.8475 16.4675,32.795 16.5025,32.795 C16.8175,32.795 17.115,32.795 17.43,32.795 C17.465,32.795 17.5175,32.8475 17.5175,32.8825 C17.535,33.2675 17.535,33.6875 17.535,34.1075 Z" id="Path" fill="#FFFFFF" fill-rule="nonzero"></path>
                    <path d="M34.8775,35.4375 C34.5275,35.4375 34.195,35.4375 33.88,35.4375 C33.845,35.4375 33.775,35.3675 33.775,35.3325 C33.775,34.965 33.775,34.58 33.775,34.2125 C33.775,34.1775 33.845,34.1075 33.88,34.1075 C34.1775,34.09 34.475,34.1075 34.7725,34.1075 C34.8075,34.1075 34.8775,34.1775 34.8775,34.2125 C34.8775,34.5975 34.8775,35.0175 34.8775,35.4375 Z" id="Path" fill="#FFFFFF" fill-rule="nonzero"></path>
                    <path d="M45.0975,34.125 C44.7475,34.125 44.415,34.125 44.1,34.125 C44.065,34.125 43.995,34.0375 43.995,34.0025 C43.9775,33.635 43.9775,33.285 43.995,32.9175 C43.995,32.865 44.0825,32.795 44.135,32.795 C44.415,32.7775 44.695,32.7775 44.975,32.795 C45.0275,32.795 45.115,32.865 45.115,32.9 C45.0975,33.285 45.0975,33.6875 45.0975,34.125 Z" id="Path" fill="#FFFFFF" fill-rule="nonzero"></path>
                    <g id="Group" transform="translate(8.750000, 15.750000)" fill="#FFFFFF" fill-rule="nonzero">
                        <path d="M20.6325,3.92 C20.58,3.92 20.545,3.92 20.51,3.92 C20.0025,3.92 19.5125,3.92 19.005,3.92 C18.9,3.92 18.8825,3.955 18.8825,4.0425 C18.8825,6.3875 18.8825,8.75 18.8825,11.095 C18.8825,11.1475 18.8825,11.2 18.8825,11.2525 C17.8325,11.2525 16.7825,11.2525 15.7325,11.2525 C15.7325,11.2 15.7325,11.165 15.7325,11.1125 C15.7325,10.465 15.7325,9.8175 15.75,9.17 C15.75,9.065 15.715,9.0475 15.6275,9.0475 C14.5425,9.0475 13.4575,9.0475 12.355,9.0475 C12.2675,9.0475 12.2325,9.0825 12.18,9.1525 C11.76,9.8175 11.3575,10.4825 10.9375,11.1475 C10.885,11.2175 10.8325,11.2525 10.745,11.2525 C9.765,11.2525 8.785,11.2525 7.805,11.2525 C7.77,11.2525 7.7175,11.2525 7.6825,11.2525 C7.6825,9.4325 7.6825,7.6125 7.6825,5.7925 C7.665,5.7925 7.665,5.775 7.6475,5.775 C6.9125,6.72 6.1775,7.665 5.425,8.6275 C4.69,7.665 3.955,6.72 3.22,5.775 C3.2025,5.775 3.2025,5.775 3.185,5.7925 C3.185,5.845 3.185,5.88 3.185,5.9325 C3.185,7.6475 3.185,9.38 3.185,11.095 C3.185,11.2525 3.185,11.2525 3.045,11.2525 C2.0825,11.2525 1.12,11.2525 0.1575,11.2525 C0.105,11.2525 0.07,11.2525 0.0175,11.2525 C0.0175,7.8225 0.0175,4.3925 0.0175,0.9625 C0.0525,0.9625 0.0875,0.9625 0.1225,0.9625 C1.12,0.9625 2.1175,0.9625 3.115,0.9625 C3.185,0.9625 3.2375,0.98 3.2725,1.05 C3.955,1.96 4.655,2.8525 5.3375,3.7625 C5.3725,3.7975 5.39,3.8325 5.425,3.885 C5.46,3.85 5.4775,3.815 5.5125,3.7975 C6.2125,2.8875 6.895,1.9775 7.595,1.0675 C7.63,1.0325 7.6825,0.98 7.735,0.98 C8.7675,0.98 9.7825,0.98 10.815,0.98 C10.8325,0.98 10.85,0.98 10.8675,0.98 C10.8675,2.555 10.8675,4.1475 10.8675,5.7225 C10.885,5.7225 10.885,5.7225 10.9025,5.7225 C10.92,5.6875 10.955,5.6525 10.9725,5.6 C11.9175,4.095 12.8625,2.5725 13.79,1.0675 C13.8425,0.9975 13.895,0.9625 13.9825,0.9625 C18.8475,0.9625 23.73,0.9625 28.595,0.9625 C28.735,0.9625 28.735,0.9625 28.735,1.12 C28.735,2.7475 28.735,4.3925 28.735,6.02 C28.735,6.16 28.735,6.16 28.875,6.16 C29.365,6.16 29.855,6.16 30.3625,6.16 C30.5025,6.16 30.5025,6.16 30.5025,6.0025 C30.5025,4.375 30.5025,2.73 30.5025,1.1025 C30.5025,1.05 30.5025,1.015 30.5025,0.9625 C31.5525,0.9625 32.6025,0.9625 33.6525,0.9625 C33.6525,4.3925 33.6525,7.8225 33.6525,11.2525 C32.6025,11.2525 31.57,11.2525 30.5025,11.2525 C30.5025,11.2175 30.5025,11.165 30.5025,11.13 C30.5025,10.5 30.5025,9.8525 30.5025,9.2225 C30.5025,9.0825 30.5025,9.0825 30.345,9.0825 C28.805,9.0825 27.265,9.0825 25.725,9.0825 C25.6725,9.0825 25.62,9.0825 25.5675,9.0825 C25.5675,7.3675 25.5675,5.6525 25.5675,3.9375 C25.515,3.9375 25.48,3.9375 25.4275,3.9375 C24.9375,3.9375 24.4475,3.9375 23.975,3.9375 C23.8,3.9375 23.8,3.9375 23.8,4.095 C23.8,6.44 23.8,8.7675 23.8,11.1125 C23.8,11.165 23.8,11.2175 23.8,11.27 C22.7325,11.27 21.6825,11.27 20.615,11.27 C20.6325,8.82 20.6325,6.3875 20.6325,3.92 Z M14.0525,6.16 C14.0875,6.16 14.105,6.1775 14.1225,6.1775 C14.63,6.1775 15.1375,6.1775 15.6275,6.1775 C15.715,6.1775 15.715,6.125 15.715,6.0725 C15.715,5.2675 15.715,4.4625 15.715,3.6575 C15.715,3.6225 15.715,3.605 15.6975,3.535 C15.1375,4.41 14.6125,5.285 14.0525,6.16 Z" id="Shape"></path>
                        <path d="M35.0525,0.9975 C36.1025,0.9975 37.135,0.9975 38.185,0.9975 C38.185,1.0325 38.185,1.0675 38.185,1.12 C38.185,2.485 38.185,3.8325 38.185,5.1975 C38.185,5.2675 38.1675,5.3025 38.115,5.355 C37.1175,5.95 36.12,6.5625 35.1225,7.1575 C35.105,7.175 35.0875,7.175 35.0525,7.1925 C35.0525,5.1275 35.0525,3.0625 35.0525,0.9975 Z" id="Path"></path>
                        <path d="M36.61,7.6825 C37.695,7.665 38.5,8.5225 38.5,9.45 C38.5175,10.64 37.6075,11.3925 36.61,11.3925 C35.5775,11.3925 34.72,10.5175 34.7375,9.4675 C34.7375,8.47 35.5775,7.6825 36.61,7.6825 Z" id="Path"></path>
                    </g>
                    <path d="M49,28.8925 C35,28.8925 21.0175,28.8925 7.0175,28.8925 C7.0175,28.945 7,29.015 7,29.0675 C7,32.41 7,35.7525 7,39.1125 C7,39.1825 7,39.235 7.0175,39.2875 C21.0175,39.2875 35,39.2875 49,39.2875 C49,39.2 49,39.13 49,39.06 C49,38.3775 49,37.695 49,36.995 C49,34.3175 49,31.605 49,28.8925 Z M13.9475,37.2575 C13.86,37.2575 13.8075,37.275 13.7375,37.275 C13.2475,37.275 12.74,37.275 12.25,37.275 C12.0925,37.275 12.04,37.2225 12.04,37.065 C12.04,35.7175 12.04,34.3525 12.04,33.005 C12.04,32.83 12.005,32.76 11.8125,32.7775 C11.62,32.795 11.41,32.7775 11.2175,32.7775 C10.9025,32.7775 10.9375,32.7425 10.9375,33.0575 C10.9375,34.37 10.9375,35.7 10.9375,37.0125 C10.9375,37.0825 10.9375,37.17 10.9375,37.2575 C10.29,37.2575 9.66,37.2575 9.0125,37.2575 C9.0125,35.1575 9.0125,33.075 9.0125,30.975 C10.6575,30.975 12.3025,30.975 13.965,30.975 C13.9475,33.0575 13.9475,35.1575 13.9475,37.2575 Z M19.25,35.945 C18.41,35.945 17.5525,35.945 16.7125,35.945 C16.625,35.945 16.555,35.945 16.4325,35.945 C16.4325,36.33 16.4325,36.68 16.4325,37.0475 C16.4325,37.205 16.38,37.275 16.205,37.275 C15.6975,37.2575 15.19,37.275 14.7,37.275 C14.5775,37.275 14.5075,37.2575 14.5075,37.1175 C14.5075,35.105 14.5075,33.0925 14.5075,31.08 C14.5075,31.0625 14.5075,31.0275 14.525,30.9925 C16.17,30.9925 17.7975,30.9925 19.4775,30.9925 C19.4775,31.045 19.4775,31.115 19.4775,31.1675 C19.4775,32.69 19.4775,34.2125 19.4775,35.7525 C19.4775,35.91 19.4075,35.945 19.25,35.945 Z M24.0275,37.2575 C22.7325,37.2575 21.42,37.2575 20.125,37.2575 C20.0025,37.2575 19.9325,37.2225 19.9325,37.0825 C19.9325,35.07 19.9325,33.075 19.9325,31.0625 C19.9325,31.045 19.9325,31.01 19.95,30.975 C21.35,30.975 22.7675,30.975 24.185,30.975 C24.185,31.57 24.185,32.165 24.185,32.76 C23.415,32.76 22.645,32.76 21.875,32.76 C21.8575,32.8125 21.84,32.83 21.84,32.8475 C21.805,33.18 21.805,33.18 22.1375,33.18 C22.5225,33.18 22.9075,33.18 23.3275,33.18 C23.17,33.7925 23.0125,34.3525 22.855,34.93 C22.8375,34.965 22.7675,35.0175 22.715,35.0175 C22.505,35.035 22.295,35.0175 22.1025,35.0175 C21.8225,35.0175 21.805,35.0175 21.84,35.315 C21.84,35.35 21.8575,35.385 21.8575,35.42 C22.6275,35.42 23.38,35.42 24.1675,35.42 C24.1675,35.49 24.185,35.5425 24.185,35.595 C24.185,36.085 24.185,36.5575 24.185,37.0475 C24.22,37.205 24.185,37.2575 24.0275,37.2575 Z M31.045,37.2575 C30.5725,37.2575 30.1,37.24 29.6275,37.2575 C29.435,37.2575 29.365,37.205 29.365,37.0125 C29.3825,36.0325 29.365,35.0525 29.365,34.055 C29.365,33.985 29.365,33.8975 29.365,33.8275 C29.3475,33.8275 29.33,33.8275 29.295,33.81 C28.8575,34.44 28.42,35.07 27.965,35.735 C27.51,35.0875 27.0725,34.44 26.635,33.81 C26.6175,33.81 26.6,33.8275 26.5825,33.8275 C26.5825,33.8975 26.5825,33.9675 26.5825,34.055 C26.5825,35.0525 26.5825,36.05 26.5825,37.0475 C26.5825,37.24 26.53,37.2925 26.3375,37.275 C25.795,37.2575 25.2525,37.275 24.6925,37.275 C24.6925,35.175 24.6925,33.0925 24.6925,30.975 C24.71,30.975 24.745,30.9575 24.78,30.9575 C25.3575,30.9575 25.9175,30.9575 26.495,30.9575 C26.565,30.9575 26.6525,31.0275 26.705,31.0975 C27.09,31.64 27.4575,32.1825 27.825,32.725 C27.86,32.795 27.9125,32.8475 27.9825,32.935 C28.035,32.8475 28.0875,32.795 28.14,32.725 C28.5075,32.1825 28.8925,31.64 29.26,31.0975 C29.33,30.9925 29.4,30.9575 29.5225,30.9575 C30.1,30.9575 30.6775,30.9575 31.2725,30.9575 C31.2725,31.045 31.29,31.115 31.29,31.185 C31.29,33.1275 31.29,35.0875 31.29,37.03 C31.29,37.2225 31.22,37.2575 31.045,37.2575 Z M36.785,37.03 C36.785,37.205 36.7325,37.2575 36.5575,37.2575 C35.07,37.2575 33.5825,37.2575 32.095,37.2575 C31.9025,37.2575 31.85,37.205 31.85,37.0125 C31.85,36.0325 31.85,35.0525 31.85,34.09 C31.85,34.09 31.85,34.09 31.85,34.09 C31.85,33.1275 31.85,32.165 31.85,31.2025 C31.85,31.0275 31.9025,30.975 32.0775,30.975 C32.5675,30.9925 33.0575,30.9925 33.5475,30.975 C33.705,30.975 33.7575,31.0275 33.7575,31.185 C33.74,31.4825 33.7575,31.7975 33.7575,32.095 C33.7575,32.2525 33.81,32.305 33.9675,32.305 C34.8425,32.305 35.7,32.305 36.575,32.305 C36.75,32.305 36.8025,32.3575 36.8025,32.515 C36.785,34.0025 36.785,35.525 36.785,37.03 Z M39.4625,33.215 C39.865,33.1975 40.2675,33.215 40.7225,33.215 C40.565,33.81 40.425,34.37 40.285,34.9125 C40.2675,34.965 40.18,35 40.1275,35 C39.9175,35.0175 39.7075,35.0175 39.48,35 C39.2875,34.9825 39.2175,35.0525 39.2525,35.245 C39.2525,35.2975 39.2525,35.35 39.27,35.4375 C39.3575,35.4375 39.4275,35.4375 39.4975,35.4375 C40.1275,35.4375 40.7575,35.4375 41.405,35.4375 C41.545,35.4375 41.5975,35.4725 41.5975,35.63 C41.5975,36.1025 41.5975,36.5925 41.5975,37.065 C41.5975,37.205 41.545,37.24 41.4225,37.24 C40.1275,37.24 38.8325,37.24 37.5375,37.24 C37.415,37.24 37.3625,37.205 37.3625,37.065 C37.3625,35.0875 37.3625,33.11 37.3625,31.1325 C37.3625,31.01 37.3975,30.975 37.52,30.975 C38.8325,30.975 40.145,30.975 41.4575,30.975 C41.5975,30.975 41.615,31.045 41.615,31.1675 C41.615,31.64 41.615,32.1125 41.615,32.585 C41.615,32.7425 41.58,32.795 41.4225,32.7775 C40.775,32.7775 40.145,32.7775 39.4975,32.7775 C39.3225,32.7775 39.27,32.8125 39.27,32.9875 C39.235,33.1625 39.27,33.215 39.4625,33.215 Z M46.8475,35.945 C46.0075,35.945 45.15,35.945 44.31,35.945 C44.24,35.945 44.1525,35.945 44.065,35.945 C44.0475,35.945 44.03,35.945 44.03,35.9625 C44.03,36.3475 44.03,36.6975 44.03,37.0475 C44.03,37.205 43.9775,37.275 43.8025,37.275 C43.295,37.2575 42.7875,37.275 42.2975,37.275 C42.175,37.275 42.105,37.2575 42.105,37.1175 C42.105,37.1 42.105,37.1 42.105,37.0825 C42.105,37.0825 42.105,37.0825 42.105,37.065 C42.105,35.105 42.105,33.145 42.105,31.185 C42.105,31.1675 42.1225,31.1675 42.1225,31.15 C42.1225,31.1325 42.1225,31.0975 42.1225,31.08 C42.1225,31.0625 42.1225,31.0275 42.14,30.9925 C42.1925,30.9925 42.2625,30.9925 42.315,30.9925 C42.315,30.9925 42.315,30.9925 42.3325,30.9925 C43.085,30.9925 43.8375,30.9925 44.59,30.9925 C44.59,30.9925 44.59,30.9925 44.59,30.9925 C45.08,30.9925 45.57,30.9925 46.0775,30.9925 C46.3225,30.9925 46.5675,30.9925 46.8125,30.9925 C46.8125,30.9925 46.8125,30.9925 46.8125,30.9925 C46.9,30.9925 46.9875,30.9925 47.075,30.9925 C47.075,31.045 47.075,31.115 47.075,31.1675 C47.075,32.69 47.075,34.2125 47.075,35.7525 C47.075,35.91 47.005,35.945 46.8475,35.945 Z" id="Shape" fill="#FFFFFF" fill-rule="nonzero"></path>
                    <rect id="Rectangle" x="0" y="0" width="56" height="56"></rect>
                </g>
            </g>
        </g>
    </g>
</svg>