<?xml version="1.0" encoding="UTF-8"?>
<svg width="56px" height="56px" viewBox="0 0 56 56" version="1.1" xmlns="http://www.w3.org/2000/svg" xmlns:xlink="http://www.w3.org/1999/xlink">
    <!-- Generator: Sketch 57.1 (83088) - https://sketch.com -->
    <title>115-W56px</title>
    <desc>Created with Sketch.</desc>
    <g id="NEW_icons" stroke="none" stroke-width="1" fill="none" fill-rule="evenodd">
        <g id="icons_UD_new-Copy" transform="translate(-1814.000000, -14665.000000)">
            <g id="115-W56px" transform="translate(1814.000000, 14665.000000)">
                <g id="003-B32px-Copy-144" transform="translate(8.000000, 8.000000)">
                    <g id="Group" transform="translate(10.000000, 5.000000)" fill="#FFFFFF" fill-rule="nonzero">
                        <path d="M18.6875,0 L1.3125,0 C0.5875,0 0,0.5875 0,1.3125 L0,23.75 L0,25 L0,28.6875 C0,29.4125 0.5875,30 1.3125,30 L18.6875,30 C19.4125,30 20,29.4125 20,28.6875 L20,25 L20,23.75 L20,1.3125 C20,0.5875 19.4125,0 18.6875,0 Z M18.75,28.6875 C18.75,28.725 18.725,28.75 18.6875,28.75 L1.3125,28.75 C1.275,28.75 1.25,28.725 1.25,28.6875 L1.25,25 L18.75,25 L18.75,28.6875 Z M1.25,23.75 L1.25,1.3125 C1.25,1.275 1.275,1.25 1.3125,1.25 L18.6875,1.25 C18.725,1.25 18.75,1.275 18.75,1.3125 L18.75,23.75 L1.25,23.75 Z" id="Shape"></path>
                        <path d="M10,27.4875 C10.3375,27.4875 10.625,27.2125 10.625,26.8625 C10.625,26.525 10.35,26.2375 10,26.2375 C9.65,26.2375 9.375,26.5125 9.375,26.8625 C9.375,27.2125 9.6625,27.4875 10,27.4875 Z" id="Path"></path>
                        <path d="M12.5125,20 L7.5,20.0125 L7.5,16.25 L6.25,16.25 L6.25,20.0125 C6.25,20.6875 6.8,21.25 7.4875,21.25 L12.525,21.25 C13.2,21.25 13.7625,20.7 13.7625,20.0125 L13.7625,16.25 L12.5125,16.25 L12.5125,20 Z" id="Path"></path>
                        <polygon id="Path" points="4.775 15.575 5.5625 16.5375 10 12.875 14.4375 16.5375 15.225 15.575 10 11.2625"></polygon>
                        <path d="M12.6,7.3125 C11.925,6.65 11.0125,6.25 10,6.25 C8.9625,6.25 8.025,6.675 7.35,7.35 L8.2375,8.2375 C8.6875,7.775 9.3125,7.5 10,7.5 C10.6625,7.5 11.275,7.7625 11.7125,8.1875 L12.6,7.3125 Z" id="Path"></path>
                        <path d="M9.1125,9.1125 L9.95,9.95 L10.825,9.075 C10.6125,8.875 10.325,8.75 10,8.75 C9.65,8.75 9.3375,8.8875 9.1125,9.1125 Z" id="Path"></path>
                        <path d="M10,5 C11.35,5 12.5875,5.55 13.4875,6.425 L14.375,5.5375 C13.2375,4.4375 11.7,3.75 10,3.75 C8.275,3.75 6.7125,4.45 5.575,5.575 L6.4625,6.4625 C7.375,5.5625 8.625,5 10,5 Z" id="Path"></path>
                    </g>
                    <rect id="Rectangle" x="0" y="0" width="40" height="40"></rect>
                </g>
                <circle id="Oval-Copy-779" fill="#101828" cx="28" cy="28" r="28"></circle>
                <g id="115-B32px-Copy-7" transform="translate(8.000000, 8.000000)">
                    <polygon id="Path" fill="#FFFFFF" fill-rule="nonzero" points="30 12.5 28.75 12.5 28.75 28.75 30 28.75"></polygon>
                    <rect id="Rectangle" fill="#FFFFFF" fill-rule="nonzero" x="13.125" y="5" width="18.75" height="1.25"></rect>
                    <rect id="Rectangle" fill="#FFFFFF" fill-rule="nonzero" x="10" y="12.5" width="1.25" height="15"></rect>
                    <path d="M31.875,6.25 C32.9125,6.25 33.75,7.0875 33.75,8.125 L33.75,11.25 L30,11.25 L30,8.125 C30,7.0875 30.8375,6.25 31.875,6.25 L31.875,6.25 Z M31.875,5 C30.15,5 28.75,6.4 28.75,8.125 L28.75,12.5 L33.7875,12.5 C34.4625,12.5 35,11.9625 35,11.2875 L35,8.125 C35,6.4 33.6,5 31.875,5 L31.875,5 Z" id="Shape" fill="#FFFFFF" fill-rule="nonzero"></path>
                    <rect id="Rectangle" fill="#FFFFFF" fill-rule="nonzero" x="8.125" y="33.75" width="18.75" height="1.25"></rect>
                    <path d="M13.125,5 C11.4,5 10,6.4 10,8.125 L10,12.5 L11.25,12.5 L11.25,11.25 L11.25,8.75 L11.25,8.125 C11.25,7.0875 12.0875,6.25 13.125,6.25 L13.125,5 Z" id="Path" fill="#FFFFFF" fill-rule="nonzero"></path>
                    <path d="M22.4875,11.25 C22.45,12.1 22.275,13.2 22.0375,13.725 C21.6875,14.5125 21.05,15.5125 20,16.1125 C18.95,15.5125 18.3125,14.5125 17.9625,13.725 C17.725,13.1875 17.55,12.0875 17.5125,11.25 L22.4875,11.25 L22.4875,11.25 Z M23.75,10 L16.25,10 L16.25,10.9375 C16.25,11.8625 16.4375,13.4 16.8125,14.25 C17.3375,15.4 18.3,16.825 20,17.5 C21.7,16.825 22.6625,15.4 23.1875,14.25 C23.5625,13.4 23.75,11.8625 23.75,10.9375 L23.75,10 L23.75,10 Z" id="Shape" fill="#FFFFFF" fill-rule="nonzero"></path>
                    <polygon id="Path" fill="#FFFFFF" fill-rule="nonzero" points="26.25 22.5 13.75 22.5 13.75 23.75 26.25 23.75"></polygon>
                    <polygon id="Path" fill="#FFFFFF" fill-rule="nonzero" points="26.25 20 13.75 20 13.75 21.25 26.25 21.25"></polygon>
                    <g id="Group" transform="translate(5.000000, 27.500000)" fill="#FFFFFF" fill-rule="nonzero">
                        <path d="M18.75,0 L6.25,0 L1.2875,0 C0.575,0 0,0.575 0,1.2875 L0,4.375 C0,6.1 1.4,7.5 3.125,7.5 L3.125,6.25 C2.0875,6.25 1.25,5.4125 1.25,4.375 L1.25,1.25 L3.125,1.25 L5,1.25 L6.25,1.25 L17.5,1.25 C17.5,0.5625 18.0625,0 18.75,0 Z" id="Path"></path>
                        <path d="M23.75,0 L23.75,1.25 L23.75,2.5 L23.75,4.375 C23.75,5.4125 22.9125,6.25 21.875,6.25 C20.8375,6.25 20,5.4125 20,4.375 L20,2.5 L20,1.25 C20,1.9375 19.4375,2.5 18.75,2.5 L18.75,4.375 C18.75,6.1 20.15,7.5 21.875,7.5 C23.6,7.5 25,6.1 25,4.375 L25,0 L23.75,0 Z" id="Path"></path>
                        <path d="M20,1.25 C20,0.5625 19.4375,0 18.75,0 C18.0625,0 17.5,0.5625 17.5,1.25 L18.75,1.25 L18.75,2.5 C19.4375,2.5 20,1.9375 20,1.25 Z" id="Path"></path>
                    </g>
                    <rect id="Rectangle" x="0" y="0" width="40" height="40"></rect>
                </g>
            </g>
        </g>
    </g>
</svg>