<?xml version="1.0" encoding="UTF-8"?>
<svg width="42px" height="42px" viewBox="0 0 42 42" version="1.1" xmlns="http://www.w3.org/2000/svg" xmlns:xlink="http://www.w3.org/1999/xlink">
    <!-- Generator: Sketch 54.1 (76490) - https://sketchapp.com -->
    <title>002-G40px</title>
    <desc>Created with Sketch.</desc>
    <g id="NEW_icons" stroke="none" stroke-width="1" fill="none" fill-rule="evenodd">
        <g id="icons_UD_new-Copy" transform="translate(-244.000000, -615.000000)">
            <g id="002-G40px" transform="translate(245.000000, 616.000000)">
                <circle id="Oval-Copy-84" stroke="#E3E8EC" cx="20" cy="20" r="20"></circle>
                <g id="002-B32px-Copy-2" transform="translate(4.000000, 4.000000)">
                    <g id="Group" transform="translate(4.000000, 4.000000)" fill="#101828" fill-rule="nonzero">
                        <path d="M20,11 L20,12 L20,23 L4,23 L4,12 L4,11 L4,10 L3,10 L3,23 C3,23.55 3.45,24 4,24 L20,24 C20.55,24 21,23.55 21,23 L21,10 L20,10 L20,11 Z" id="Path"></path>
                        <polygon id="Path" points="12 0.01 0.18 9.77 0.82 10.54 12 1.3 23.18 10.54 23.82 9.77"></polygon>
                        <path d="M6.43,14.1 C6.18,14.17 6,14.4 6,14.66 L6,15.37 C6,15.63 6.18,15.86 6.43,15.93 L7.5,16.21 C7.61,16.61 7.77,17 7.97,17.35 L7.42,18.3 C7.29,18.53 7.33,18.81 7.51,19 L8.01,19.5 C8.12,19.61 8.27,19.67 8.42,19.67 C8.52,19.67 8.62,19.64 8.71,19.59 L9.66,19.04 C10.02,19.25 10.4,19.4 10.81,19.51 L11.1,20.57 C11.17,20.82 11.4,21 11.66,21 L12.37,21 C12.63,21 12.86,20.82 12.93,20.57 L13.21,19.51 C13.62,19.4 14,19.24 14.36,19.03 L15.31,19.58 C15.4,19.63 15.5,19.66 15.6,19.66 C15.75,19.66 15.9,19.6 16.01,19.49 L16.51,18.99 C16.69,18.8 16.73,18.52 16.6,18.29 L16.05,17.34 C16.26,16.98 16.41,16.6 16.52,16.19 L17.58,15.91 C17.83,15.84 18.01,15.61 18.01,15.35 L18.01,14.64 C18.01,14.38 17.83,14.15 17.58,14.08 L16.52,13.8 C16.41,13.39 16.25,13.01 16.04,12.66 L16.59,11.71 C16.72,11.48 16.68,11.2 16.5,11.01 L16,10.51 C15.89,10.4 15.74,10.34 15.59,10.34 C15.49,10.34 15.39,10.37 15.3,10.42 L14.35,10.97 C14,10.77 13.61,10.61 13.21,10.5 L12.92,9.44 C12.85,9.19 12.62,9.01 12.36,9.01 L11.65,9.01 C11.39,9.01 11.16,9.19 11.09,9.44 L10.81,10.51 C10.41,10.62 10.02,10.78 9.67,10.98 L8.71,10.43 C8.62,10.38 8.52,10.35 8.42,10.35 C8.27,10.35 8.12,10.41 8.01,10.52 L7.51,11.02 C7.33,11.21 7.29,11.49 7.42,11.72 L7.97,12.67 C7.77,13.02 7.61,13.41 7.5,13.81 L6.43,14.1 Z M8.25,14.56 L8.39,14.04 C8.47,13.72 8.6,13.41 8.77,13.13 L9.04,12.67 L8.77,12.21 L8.35,11.49 L8.48,11.36 L9.21,11.78 L9.67,12.05 L10.13,11.78 C10.41,11.61 10.72,11.49 11.04,11.4 L11.56,11.26 L11.7,10.74 L11.91,9.93 L12.09,9.93 L12.31,10.74 L12.45,11.26 L12.97,11.4 C13.29,11.48 13.6,11.61 13.89,11.78 L14.35,12.05 L14.81,11.78 L15.53,11.36 L15.66,11.49 L15.24,12.21 L14.97,12.67 L15.24,13.13 C15.41,13.42 15.54,13.72 15.62,14.05 L15.76,14.57 L16.28,14.71 L17.09,14.92 L17.09,15.1 L16.29,15.32 L15.77,15.46 L15.63,15.98 C15.54,16.3 15.42,16.61 15.25,16.9 L14.98,17.36 L15.25,17.82 L15.67,18.54 L15.54,18.67 L14.82,18.26 L14.36,17.99 L13.9,18.26 C13.61,18.43 13.31,18.56 12.98,18.64 L12.46,18.78 L12.32,19.3 L12.11,20.1 L11.93,20.1 L11.71,19.3 L11.57,18.78 L11.05,18.64 C10.73,18.55 10.42,18.43 10.13,18.26 L9.67,17.99 L9.21,18.26 L8.49,18.68 L8.36,18.55 L8.78,17.83 L9.05,17.37 L8.78,16.91 C8.61,16.63 8.49,16.32 8.4,16 L8.26,15.48 L7.74,15.34 L6.93,15.13 L6.93,14.95 L7.74,14.73 L8.25,14.56 Z" id="Shape"></path>
                        <path d="M12.01,17.34 C13.3,17.34 14.34,16.29 14.34,15 C14.34,13.71 13.29,12.67 12,12.67 C10.71,12.67 9.67,13.72 9.67,15.01 C9.67,16.3 10.72,17.34 12.01,17.34 Z M12,13.59 C12.78,13.59 13.41,14.22 13.41,15 C13.41,15.78 12.78,16.41 12,16.41 C11.22,16.41 10.59,15.78 10.59,15 C10.59,14.23 11.22,13.59 12,13.59 Z" id="Shape"></path>
                    </g>
                    <rect id="Rectangle" x="0" y="0" width="32" height="32"></rect>
                </g>
            </g>
        </g>
    </g>
</svg>