<?xml version="1.0" encoding="UTF-8"?>
<svg width="32px" height="32px" viewBox="0 0 32 32" version="1.1" xmlns="http://www.w3.org/2000/svg" xmlns:xlink="http://www.w3.org/1999/xlink">
    <!-- Generator: Sketch 57.1 (83088) - https://sketch.com -->
    <title>199-B32px</title>
    <desc>Created with Sketch.</desc>
    <g id="199-B32px" stroke="none" stroke-width="1" fill="none" fill-rule="evenodd">
        <g>
            <path d="M26.98,10 L27,10.02 L26.98,20.99 L5,20.97 L5.02,10 L26.98,10 L26.98,10 Z M26.98,9 L5.02,9 C4.46,9 4,9.46 4,10.02 L4,20.97 C4,21.53 4.46,21.99 5.02,21.99 L26.98,21.99 C27.54,21.99 28,21.53 28,20.97 L28,10.02 C28,9.46 27.54,9 26.98,9 L26.98,9 Z" id="Shape" fill="#101828" fill-rule="nonzero"></path>
            <path d="M15.98,21.94 C11.67,21.94 8.44,22.6 7,22.96 L7,23.99 C8.24,23.67 11.54,22.94 15.98,22.94 C20.46,22.94 23.79,23.68 25,24 L25,22.97 C23.57,22.61 20.33,21.94 15.98,21.94 Z" id="Path" fill="#101828" fill-rule="nonzero"></path>
            <path d="M9.36,14.95 C8.44,14.77 8.32,14.55 8.32,14.36 C8.32,14.1 8.68,14.01 8.99,14.01 C9.39,14.01 9.68,14.17 9.92,14.54 L9.98,14.63 L10.91,14.13 L10.85,14.02 C10.5,13.34 9.89,13 9.01,13 C7.95,13 7.23,13.55 7.23,14.38 C7.23,15.15 7.79,15.68 8.8,15.87 C9.57,16.01 9.86,16.19 9.86,16.51 C9.86,16.81 9.56,17 9.11,17 C8.56,17 8.24,16.78 8.02,16.26 L7.97,16.14 L7,16.59 L7.03,16.69 C7.28,17.51 8.06,18 9.12,18 C10.35,18 11,17.23 11,16.47 C11,15.66 10.48,15.18 9.36,14.95 Z" id="Path" fill="#101828" fill-rule="nonzero"></path>
            <path d="M14,13 L12,18 L13.21,18 L13.68,16.76 L15.32,16.76 L15.79,18 L17,18 L15,13 L14,13 Z M14.5,14.57 C14.54,14.68 14.56,14.74 14.56,14.74 L14.92,15.7 L14.07,15.7 L14.43,14.74 C14.44,14.74 14.46,14.68 14.5,14.57 Z" id="Shape" fill="#101828" fill-rule="nonzero"></path>
            <polygon id="Path" fill="#101828" fill-rule="nonzero" points="19 13 18 13 18 17.99 21 17.99 21 16.99 19 16.99"></polygon>
            <polygon id="Path" fill="#101828" fill-rule="nonzero" points="23 16.99 23 15.99 25 15.99 25 14.99 23 14.99 23 13.99 25 13.99 24.98 13 22 13 22 17.99 25 17.99 25 16.99"></polygon>
            <rect id="Rectangle" x="0" y="0" width="32" height="32"></rect>
        </g>
    </g>
</svg>