<?xml version="1.0" encoding="UTF-8"?>
<svg width="80px" height="80px" viewBox="0 0 80 80" version="1.1" xmlns="http://www.w3.org/2000/svg" xmlns:xlink="http://www.w3.org/1999/xlink">
    <!-- Generator: Sketch 57.1 (83088) - https://sketch.com -->
    <title>221-W80px</title>
    <desc>Created with Sketch.</desc>
    <g id="NEW_icons" stroke="none" stroke-width="1" fill="none" fill-rule="evenodd">
        <g id="icons_UD_new-Copy" transform="translate(-2148.000000, -28106.000000)">
            <g id="221-W80px" transform="translate(2148.000000, 28106.000000)">
                <circle id="Oval-Copy-16" fill="#101828" cx="40" cy="40" r="40"></circle>
                <g id="221-B32px-Copy-7" transform="translate(12.000000, 12.000000)">
                    <path d="M47.25,8.75 L47.25,22.75 L33.25,22.75 L33.25,8.75 L47.25,8.75 L47.25,8.75 Z M49,7 L31.5,7 L31.5,24.5 L49,24.5 L49,7 L49,7 Z" id="Shape" fill="#FFFFFF" fill-rule="nonzero"></path>
                    <path d="M38.5,33.425 L46.025,47.25 L30.975,47.25 L38.5,33.425 L38.5,33.425 Z M38.5,29.75 L28,49 L49,49 L38.5,29.75 L38.5,29.75 Z" id="Shape" fill="#FFFFFF" fill-rule="nonzero"></path>
                    <path d="M20.475,8.75 L24.325,15.75 L20.475,22.75 L12.775,22.75 L8.925,15.75 L12.775,8.75 L20.475,8.75 L20.475,8.75 Z M21.35,7 L11.9,7 L7,15.75 L11.9,24.5 L21.525,24.5 L26.25,15.75 L21.35,7 L21.35,7 Z" id="Shape" fill="#FFFFFF" fill-rule="nonzero"></path>
                    <path d="M16.625,31.5 C21,31.5 24.5,35 24.5,39.375 C24.5,43.75 21,47.25 16.625,47.25 C12.25,47.25 8.75,43.75 8.75,39.375 C8.75,35 12.25,31.5 16.625,31.5 L16.625,31.5 Z M16.625,29.75 C11.375,29.75 7,34.125 7,39.375 C7,44.625 11.375,49 16.625,49 C21.875,49 26.25,44.625 26.25,39.375 C26.25,34.125 21.875,29.75 16.625,29.75 L16.625,29.75 Z" id="Shape" fill="#FFFFFF" fill-rule="nonzero"></path>
                    <rect id="Rectangle" x="0" y="0" width="56" height="56"></rect>
                </g>
            </g>
        </g>
    </g>
</svg>