<?xml version="1.0" encoding="UTF-8"?>
<svg width="80px" height="80px" viewBox="0 0 80 80" version="1.1" xmlns="http://www.w3.org/2000/svg" xmlns:xlink="http://www.w3.org/1999/xlink">
    <!-- Generator: Sketch 57.1 (83088) - https://sketch.com -->
    <title>159-B80px</title>
    <desc>Created with Sketch.</desc>
    <g id="159-B80px" stroke="none" stroke-width="1" fill="none" fill-rule="evenodd">
        <g>
            <polygon id="Path" fill="#101828" fill-rule="nonzero" points="40 32.5 40 35 42.475 35 42.475 45 45 45 45 35 47.5 35 47.5 32.5"></polygon>
            <polygon id="Path" fill="#101828" fill-rule="nonzero" points="48.75 32.5 52.5 45 55 45 58.75 32.5 56.25 32.5 53.75 41.225 51.25 32.5"></polygon>
            <path d="M48.725,52.05 C42.85,52.05 38.1,52.975 35,53.825 L35,56.275 C38,55.425 42.8,54.425 48.725,54.425 C56.8,54.425 62.825,56.275 65,57.075 L65,54.6 C62.425,53.725 56.575,52.05 48.725,52.05 Z" id="Path" fill="#101828" fill-rule="nonzero"></path>
            <path d="M67.45,25 L30.05,25 C28.65,25 27.5,26.125 27.5,27.55 L27.5,32.5 L30.05,32.5 L30.05,27.5 L67.45,27.5 L67.5,27.55 L67.45,49.975 L35,49.925 L35,52.475 L67.45,52.475 C68.85,52.475 70,51.325 70,49.925 L70,27.55 C70,26.125 68.85,25 67.45,25 Z" id="Path" fill="#101828" fill-rule="nonzero"></path>
            <path d="M59.95,17.5 L22.55,17.5 C21.15,17.5 20,18.625 20,20.05 L20,32.5 L22.525,32.5 L22.55,20 L59.95,20 L60,20.05 L60,22.5 L62.5,22.5 L62.5,20.05 C62.5,18.625 61.35,17.5 59.95,17.5 Z" id="Path" fill="#101828" fill-rule="nonzero"></path>
            <path d="M52.45,10 L15.05,10 C13.65,10 12.5,11.15 12.5,12.55 L12.5,32.5 L15,32.5 L15.05,12.5 L52.45,12.5 L52.5,12.55 L52.5,15 L55,15 L55,12.55 C55,11.15 53.85,10 52.45,10 Z" id="Path" fill="#101828" fill-rule="nonzero"></path>
            <path d="M30,37.5 L30,67.5 L12.5,67.5 L12.5,37.5 L30,37.5 L30,37.5 Z M30,35 L12.5,35 C11.125,35 10,36.125 10,37.5 L10,67.5 C10,68.875 11.125,70 12.5,70 L30,70 C31.375,70 32.5,68.875 32.5,67.5 L32.5,37.5 C32.5,36.125 31.375,35 30,35 L30,35 Z" id="Shape" fill="#101828" fill-rule="nonzero"></path>
            <polygon id="Path" fill="#101828" fill-rule="nonzero" points="27.5 62.5 25 62.5 25 65 27.5 65"></polygon>
            <polygon id="Path" fill="#101828" fill-rule="nonzero" points="27.5 57.5 25 57.5 25 60 27.5 60"></polygon>
            <polygon id="Path" fill="#101828" fill-rule="nonzero" points="27.5 40 25 40 25 42.5 27.5 42.5"></polygon>
            <polygon id="Path" fill="#101828" fill-rule="nonzero" points="22.5 40 20 40 20 42.5 22.5 42.5"></polygon>
            <polygon id="Path" fill="#101828" fill-rule="nonzero" points="17.5 40 15 40 15 42.5 17.5 42.5"></polygon>
            <polygon id="Path" fill="#101828" fill-rule="nonzero" points="27.5 45 25 45 25 47.5 27.5 47.5"></polygon>
            <polygon id="Path" fill="#101828" fill-rule="nonzero" points="22.5 62.5 20 62.5 20 65 22.5 65"></polygon>
            <polygon id="Path" fill="#101828" fill-rule="nonzero" points="22.5 57.5 20 57.5 20 60 22.5 60"></polygon>
            <polygon id="Path" fill="#101828" fill-rule="nonzero" points="22.5 45 20 45 20 47.5 22.5 47.5"></polygon>
            <polygon id="Path" fill="#101828" fill-rule="nonzero" points="17.5 62.5 15 62.5 15 65 17.5 65"></polygon>
            <polygon id="Path" fill="#101828" fill-rule="nonzero" points="17.5 57.5 15 57.5 15 60 17.5 60"></polygon>
            <polygon id="Path" fill="#101828" fill-rule="nonzero" points="17.5 45 15 45 15 47.5 17.5 47.5"></polygon>
            <path d="M21.25,56.025 C20.525,56.025 19.85,55.8 19.25,55.4 C18.475,54.875 17.95,54.05 17.8,53.125 C17.625,52.2 17.825,51.25 18.375,50.5 C18.9,49.725 19.725,49.2 20.65,49.05 C21.55,48.85 22.5,49.075 23.25,49.6 C24.025,50.125 24.55,50.95 24.7,51.875 C24.875,52.8 24.675,53.75 24.125,54.5 C23.6,55.275 22.775,55.8 21.85,55.95 C21.675,56 21.45,56.025 21.25,56.025 Z M21.25,51.475 C21.2,51.475 21.125,51.475 21.075,51.5 C20.8,51.55 20.575,51.7 20.425,51.925 C20.275,52.15 20.2,52.425 20.25,52.7 C20.3,52.975 20.45,53.2 20.675,53.35 C20.9,53.5 21.175,53.55 21.45,53.525 C21.725,53.475 21.95,53.325 22.1,53.1 L22.1,53.1 C22.25,52.875 22.325,52.6 22.275,52.325 C22.225,52.05 22.075,51.825 21.85,51.675 C21.65,51.525 21.45,51.475 21.25,51.475 Z" id="Shape" fill="#101828" fill-rule="nonzero"></path>
            <rect id="Rectangle" x="0" y="0" width="80" height="80"></rect>
        </g>
    </g>
</svg>