<?xml version="1.0" encoding="UTF-8"?>
<svg width="80px" height="80px" viewBox="0 0 80 80" version="1.1" xmlns="http://www.w3.org/2000/svg" xmlns:xlink="http://www.w3.org/1999/xlink">
    <!-- Generator: Sketch 57.1 (83088) - https://sketch.com -->
    <title>201-G80px</title>
    <desc>Created with Sketch.</desc>
    <g id="NEW_icons" stroke="none" stroke-width="1" fill="none" fill-rule="evenodd">
        <g id="icons_UD_new-Copy" transform="translate(-2050.000000, -25588.000000)">
            <g id="201-G80px" transform="translate(2050.000000, 25588.000000)">
                <circle id="Oval-Copy-1200" fill="#E3E8EC" cx="40" cy="40" r="40"></circle>
                <g id="201-B32px-Copy-6" transform="translate(12.000000, 12.000000)">
                    <path d="M47.215,17.5 L47.25,17.535 L47.215,36.7675 L8.75,36.7325 L8.785,17.5 L47.215,17.5 L47.215,17.5 Z M47.215,15.75 L8.785,15.75 C7.805,15.75 7,16.555 7,17.535 L7,36.7325 C7,37.7125 7.805,38.5175 8.785,38.5175 L47.215,38.5175 C48.195,38.5175 49,37.7125 49,36.7325 L49,17.535 C49,16.555 48.195,15.75 47.215,15.75 L47.215,15.75 Z" id="Shape" fill="#101828" fill-rule="nonzero"></path>
                    <path d="M20.825,27.6325 L20.16,27.1075 L19.25,27.1075 C19.25,26.775 19.425,26.5825 19.5825,26.39 L20.3875,27.09 L21,27.125 L20.405,27.125 L20.895,27.5625 L20.3525,27.125 L20.825,27.6325 Z M22.0675,26.46 L20.9825,25.0775 C21.4725,24.6925 22.015,24.3425 22.575,24.045 L23.3975,25.585 C22.925,25.8475 22.4875,26.145 22.0675,26.46 Z M32.6375,25.62 C32.165,25.3575 31.675,25.1475 31.1675,24.9725 L31.745,23.3275 C32.34,23.5375 32.9175,23.8 33.4775,24.0975 L32.6375,25.62 Z M24.8675,24.955 L24.3075,23.2925 C24.9025,23.0825 25.515,22.9425 26.145,22.8375 L26.425,24.57 C25.9,24.6575 25.375,24.78 24.8675,24.955 Z M29.6275,24.5875 C29.1025,24.5 28.56,24.4475 28.0175,24.4475 L28.035,22.6975 C28.665,22.6975 29.295,22.75 29.9075,22.855 L29.6275,24.5875 Z" id="Shape" fill="#101828" fill-rule="nonzero"></path>
                    <path d="M34.755,33.2325 L21.245,33.2325 L19.145,26.95 L19.425,26.5825 C19.4425,26.5475 19.9675,25.865 20.9825,25.0775 L22.0675,26.46 C21.6475,26.7925 21.3325,27.09 21.1225,27.3175 L22.5225,31.4825 L33.5125,31.4825 L34.9125,27.3175 C34.44,26.8275 33.425,25.9 31.885,25.235 L32.585,23.625 C35.175,24.745 36.54,26.495 36.5925,26.565 L36.8725,26.9325 L34.755,33.2325 Z" id="Path" fill="#101828" fill-rule="nonzero"></path>
                    <path d="M27.965,38.395 C20.4225,38.395 14.77,39.55 12.25,40.18 L12.25,41.9825 C14.42,41.4225 20.195,40.145 27.965,40.145 C35.805,40.145 41.6325,41.44 43.75,42 L43.75,40.1975 C41.2475,39.5675 35.5775,38.395 27.965,38.395 Z" id="Path" fill="#101828" fill-rule="nonzero"></path>
                    <polygon id="Path" fill="#101828" fill-rule="nonzero" points="29.19 28 27.825 32.095 29.47 32.6375 31.0275 28"></polygon>
                    <rect id="Rectangle" x="0" y="0" width="56" height="56"></rect>
                </g>
            </g>
        </g>
    </g>
</svg>