<?xml version="1.0" encoding="UTF-8"?>
<svg width="42px" height="42px" viewBox="0 0 42 42" version="1.1" xmlns="http://www.w3.org/2000/svg" xmlns:xlink="http://www.w3.org/1999/xlink">
    <!-- Generator: Sketch 57.1 (83088) - https://sketch.com -->
    <title>227-G40px</title>
    <desc>Created with Sketch.</desc>
    <g id="NEW_icons" stroke="none" stroke-width="1" fill="none" fill-rule="evenodd">
        <g id="icons_UD_new-Copy" transform="translate(-1526.000000, -28892.000000)">
            <g id="227-G40px" transform="translate(1527.000000, 28893.000000)">
                <circle id="Oval-Copy-1428" stroke="#E3E8EC" cx="20" cy="20" r="20"></circle>
                <g id="227-B32px-Copy" transform="translate(4.000000, 4.000000)">
                    <path d="M18,6.9 L23.24,10.5 L18,14.1 L18,13 L18,12 L17,12 L13,12 L13,9 L17,9 L18,9 L18,8 L18,6.9 L18,6.9 Z M17,5 L17,8 L12,8 L12,13 L17,13 L17,16 L25,10.5 L17,5 L17,5 Z" id="Shape" fill="#101828" fill-rule="nonzero"></path>
                    <path d="M14,17.9 L14,19 L14,20 L15,20 L19,20 L19,23 L15,23 L14,23 L14,24 L14,25.1 L8.76,21.5 L14,17.9 L14,17.9 Z M15,16 L7,21.5 L15,27 L15,24 L20,24 L20,19 L15,19 L15,16 L15,16 Z" id="Shape" fill="#101828" fill-rule="nonzero"></path>
                    <rect id="Rectangle" fill="#101828" fill-rule="nonzero" x="4" y="8" width="7" height="1"></rect>
                    <rect id="Rectangle" fill="#101828" fill-rule="nonzero" x="6" y="10" width="5" height="1"></rect>
                    <rect id="Rectangle" fill="#101828" fill-rule="nonzero" x="9.02" y="12" width="1.98" height="1"></rect>
                    <rect id="Rectangle" fill="#101828" fill-rule="nonzero" x="21" y="19" width="7" height="1"></rect>
                    <rect id="Rectangle" fill="#101828" fill-rule="nonzero" x="21" y="21" width="5" height="1"></rect>
                    <rect id="Rectangle" fill="#101828" fill-rule="nonzero" x="21" y="23" width="1.98" height="1"></rect>
                    <rect id="Rectangle" x="0" y="0" width="32" height="32"></rect>
                </g>
            </g>
        </g>
    </g>
</svg>