<?xml version="1.0" encoding="UTF-8"?>
<svg width="56px" height="56px" viewBox="0 0 56 56" version="1.1" xmlns="http://www.w3.org/2000/svg" xmlns:xlink="http://www.w3.org/1999/xlink">
    <!-- Generator: Sketch 57.1 (83088) - https://sketch.com -->
    <title>240-B56px</title>
    <desc>Created with Sketch.</desc>
    <g id="240-B56px" stroke="none" stroke-width="1" fill="none" fill-rule="evenodd">
        <g>
            <path d="M47.25,8.75 L47.25,12.25 C47.25,17.7275 46.1125,25.8825 44.2225,30.065 C41.615,35.805 36.715,43.365 28,47.11 C19.285,43.365 14.3675,35.805 11.7775,30.065 C9.8875,25.8825 8.75,17.71 8.75,12.25 L8.75,8.75 L47.25,8.75 L47.25,8.75 Z M49,7 L7,7 L7,12.25 C7,17.43 8.05,26.0575 10.185,30.7825 C13.1075,37.24 18.48,45.185 28,49 C37.52,45.185 42.8925,37.24 45.815,30.7825 C47.95,26.0575 49,17.43 49,12.25 L49,7 L49,7 Z" id="Shape" fill="#101828" fill-rule="nonzero"></path>
            <rect id="Rectangle" x="0" y="0" width="56" height="56"></rect>
        </g>
    </g>
</svg>