<?xml version="1.0" encoding="UTF-8"?>
<svg width="56px" height="56px" viewBox="0 0 56 56" version="1.1" xmlns="http://www.w3.org/2000/svg" xmlns:xlink="http://www.w3.org/1999/xlink">
    <!-- Generator: Sketch 57.1 (83088) - https://sketch.com -->
    <title>106-B56px</title>
    <desc>Created with Sketch.</desc>
    <g id="106-B56px" stroke="none" stroke-width="1" fill="none" fill-rule="evenodd">
        <g>
            <path d="M37.625,28.035 C42.9275,28.035 47.25,32.3575 47.25,37.66 C47.25,42.9625 42.9275,47.285 37.625,47.285 C32.3225,47.285 28,42.9625 28,37.66 C28,32.3575 32.3225,28.035 37.625,28.035 L37.625,28.035 Z M37.625,26.285 C31.3425,26.285 26.25,31.3775 26.25,37.66 C26.25,43.9425 31.3425,49.035 37.625,49.035 C43.9075,49.035 49,43.9425 49,37.66 C49,31.3775 43.9075,26.285 37.625,26.285 L37.625,26.285 Z" id="Shape" fill="#101828" fill-rule="nonzero"></path>
            <rect id="Rectangle" fill="#101828" fill-rule="nonzero" x="12.25" y="38.465" width="10.5" height="1.75"></rect>
            <rect id="Rectangle" fill="#101828" fill-rule="nonzero" x="12.25" y="41.965" width="10.5" height="1.75"></rect>
            <path d="M37.625,28.035 C42.9275,28.035 47.25,32.3575 47.25,37.66 C47.25,42.9625 42.9275,47.285 37.625,47.285 C32.3225,47.285 28,42.9625 28,37.66 C28,32.3575 32.3225,28.035 37.625,28.035 L37.625,28.035 Z M37.625,26.285 C31.3425,26.285 26.25,31.3775 26.25,37.66 C26.25,43.9425 31.3425,49.035 37.625,49.035 C43.9075,49.035 49,43.9425 49,37.66 C49,31.3775 43.9075,26.285 37.625,26.285 L37.625,26.285 Z" id="Shape" fill="#101828" fill-rule="nonzero"></path>
            <path d="M41.09,43.6975 C39.6375,43.6975 38.465,42.525 38.465,41.0725 C38.465,39.62 39.6375,38.4475 41.09,38.4475 C42.5425,38.4475 43.715,39.62 43.715,41.0725 C43.715,42.525 42.5425,43.6975 41.09,43.6975 Z M41.09,40.1975 C40.6,40.1975 40.215,40.5825 40.215,41.0725 C40.215,41.5625 40.6,41.9475 41.09,41.9475 C41.58,41.9475 41.965,41.5625 41.965,41.0725 C41.965,40.5825 41.58,40.1975 41.09,40.1975 Z" id="Shape" fill="#101828" fill-rule="nonzero"></path>
            <path d="M34.1425,36.7325 C32.69,36.7325 31.5175,35.56 31.5175,34.1075 C31.5175,32.655 32.69,31.4825 34.1425,31.4825 C35.595,31.4825 36.7675,32.655 36.7675,34.1075 C36.7675,35.56 35.595,36.7325 34.1425,36.7325 Z M34.1425,33.2325 C33.6525,33.2325 33.2675,33.6175 33.2675,34.1075 C33.2675,34.5975 33.6525,34.9825 34.1425,34.9825 C34.6325,34.9825 35.0175,34.5975 35.0175,34.1075 C35.0175,33.6175 34.615,33.2325 34.1425,33.2325 Z" id="Shape" fill="#101828" fill-rule="nonzero"></path>
            <polygon id="Rectangle" fill="#101828" fill-rule="nonzero" transform="translate(37.628636, 37.594014) rotate(45.000000) translate(-37.628636, -37.594014) " points="36.7448941 30.1740848 38.5123771 30.1740848 38.5123771 45.0139425 36.7448941 45.0139425"></polygon>
            <path d="M35.91,8.715 L33.81,13.965 L11.69,13.965 L9.59,8.715 L35.91,8.715 L35.91,8.715 Z M38.5,6.965 L7,6.965 L10.5,15.715 L35,15.715 L38.5,6.965 L38.5,6.965 Z" id="Shape" fill="#101828" fill-rule="nonzero"></path>
            <path d="M36.7325,10.465 L36.7325,24.57 C37.03,24.5525 37.3275,24.5175 37.625,24.5175 C37.9225,24.5175 38.2025,24.535 38.4825,24.5525 L38.4825,12.215 L40.2325,12.215 L40.2325,24.78 C40.8275,24.9025 41.4225,25.0775 41.9825,25.27 L41.9825,10.465 L36.7325,10.465 Z" id="Path" fill="#101828" fill-rule="nonzero"></path>
            <path d="M41.965,25.2875 L41.965,15.715 L43.715,15.715 L43.715,26.04 C44.3275,26.355 44.905,26.74 45.465,27.16 L45.465,13.965 L40.215,13.965 L40.215,24.78 C40.8275,24.92 41.405,25.0775 41.965,25.2875 Z" id="Path" fill="#101828" fill-rule="nonzero"></path>
            <path d="M28.6475,47.215 L8.75,47.215 L8.75,8.715 L36.75,8.715 L36.75,24.57 C37.0475,24.5525 37.3275,24.5175 37.625,24.5175 C37.9225,24.5175 38.2025,24.535 38.5,24.57 L38.5,6.965 L7,6.965 L7,48.965 L30.9925,48.965 C30.1525,48.475 29.365,47.88 28.6475,47.215 Z" id="Path" fill="#101828" fill-rule="nonzero"></path>
            <rect id="Rectangle" x="0" y="0" width="56" height="56"></rect>
        </g>
    </g>
</svg>