<?xml version="1.0" encoding="UTF-8"?>
<svg width="80px" height="80px" viewBox="0 0 80 80" version="1.1" xmlns="http://www.w3.org/2000/svg" xmlns:xlink="http://www.w3.org/1999/xlink">
    <!-- Generator: Sketch 57.1 (83088) - https://sketch.com -->
    <title>029-B80px</title>
    <desc>Created with Sketch.</desc>
    <g id="029-B80px" stroke="none" stroke-width="1" fill="none" fill-rule="evenodd">
        <g>
            <path d="M40,25 C41.375,25 42.5,26.125 42.5,27.5 C42.5,28.875 41.375,30 40,30 C38.625,30 37.5,28.875 37.5,27.5 C37.5,26.125 38.625,25 40,25 L40,25 Z M40,22.5 C37.25,22.5 35,24.75 35,27.5 C35,30.25 37.25,32.5 40,32.5 C42.75,32.5 45,30.25 45,27.5 C45,24.75 42.75,22.5 40,22.5 L40,22.5 Z" id="Shape" fill="#101828" fill-rule="nonzero"></path>
            <path d="M52.5,40.125 L52.5,27.5 C52.5,16.4 40.075,10 40.075,10 C40.075,10 27.5,16.2 27.5,27.5 C27.5,30.675 27.5,35.225 27.5,40.1 C21.875,40.65 17.5,44.85 17.5,50 L17.5,65 L27.5,61.675 L27.5,61.675 L30,60.85 L30,58.225 L30,42.5 L30,40 L30,35 L30,27.5 C30,19.75 37.225,14.6 40.05,12.875 C42.875,14.65 50,19.875 50,27.5 L50,35 L50,40 L50,42.5 L50,58.2 L50,60.825 L62.5,65 L62.5,50 C62.5,44.875 58.125,40.675 52.5,40.125 Z M27.5,59.05 L20,61.55 L20,50 C20,46.225 23.275,43.125 27.5,42.6 C27.5,48.375 27.5,54.375 27.5,59.05 Z M60,61.55 L52.5,59.05 L52.5,42.625 C56.725,43.15 60,46.25 60,50.025 L60,61.55 Z" id="Shape" fill="#101828" fill-rule="nonzero"></path>
            <rect id="Rectangle" fill="#101828" fill-rule="nonzero" x="38.75" y="47.575" width="2.5" height="22.425"></rect>
            <rect id="Rectangle" x="0" y="0" width="80" height="80"></rect>
        </g>
    </g>
</svg>