<?xml version="1.0" encoding="UTF-8"?>
<svg width="80px" height="80px" viewBox="0 0 80 80" version="1.1" xmlns="http://www.w3.org/2000/svg" xmlns:xlink="http://www.w3.org/1999/xlink">
    <!-- Generator: Sketch 58 (84663) - https://sketch.com -->
    <title>258-C80px</title>
    <desc>Created with Sketch.</desc>
    <g id="NEW_icons" stroke="none" stroke-width="1" fill="none" fill-rule="evenodd">
        <g id="icons_UD_new-Copy" transform="translate(-1001.000000, -32873.000000)">
            <g id="258-C80px" transform="translate(1001.000000, 32873.000000)">
                <circle id="Oval-Copy-1674" fill="#FF4F12" cx="40" cy="40" r="40"></circle>
                <g id="258-B32px-Copy-9" transform="translate(12.000000, 12.000000)">
                    <path d="M27.9825,39.3575 C27.9825,38.8675 28.0175,38.3775 28.0875,37.8875 C22.435,34.9475 18.06,30.485 18.0075,30.4325 C17.92,30.345 9.7475,21.805 8.75,13.3875 C8.75,13.335 8.75,13.2475 8.8025,13.195 L13.3875,8.7675 C13.4225,8.7325 13.4575,8.715 13.51,8.715 C13.5625,8.715 13.5975,8.75 13.5975,8.75 L20.51,15.89 C20.5625,15.9425 20.545,16.0475 20.4925,16.1 L17.43,19.0575 L16.59,19.88 L17.0275,20.965 C17.0975,21.14 18.725,25.1125 21.0525,27.51 C23.38,29.9075 27.3,31.675 27.475,31.745 L28.56,32.2175 L29.4,31.395 L32.4625,28.4375 C32.4975,28.4025 32.5325,28.385 32.585,28.385 C32.6375,28.385 32.6725,28.42 32.6725,28.42 L33.7225,29.505 C34.2475,29.19 34.8075,28.9275 35.4025,28.7175 L33.9325,27.195 C33.565,26.81 33.075,26.6175 32.585,26.6175 C32.1125,26.6175 31.6225,26.7925 31.255,27.16 L28.1925,30.1175 C28.1925,30.1175 24.4475,28.455 22.33,26.2675 C20.2125,24.08 18.6725,20.2825 18.6725,20.2825 L21.735,17.325 C22.4875,16.59 22.5225,15.4 21.7875,14.6475 L14.84,7.525 C14.4725,7.1575 13.9825,6.965 13.4925,6.965 C13.02,6.965 12.53,7.14 12.1625,7.5075 L7.5775,11.935 C7.14,12.3725 6.9475,12.9675 7.0175,13.58 C8.1025,22.715 16.7475,31.64 16.7475,31.64 C16.7475,31.64 21.6475,36.6975 28.0175,39.8125 C28,39.6725 27.9825,39.515 27.9825,39.3575 Z" id="Path" fill="#FFFFFF" fill-rule="nonzero"></path>
                    <path d="M39.3575,31.5 C43.6975,31.5 47.2325,35.035 47.2325,39.375 C47.2325,43.715 43.6975,47.25 39.3575,47.25 C35.0175,47.25 31.4825,43.715 31.4825,39.375 C31.4825,35.035 35.0175,31.5 39.3575,31.5 L39.3575,31.5 Z M39.3575,29.75 C34.0375,29.75 29.7325,34.055 29.7325,39.375 C29.7325,44.695 34.0375,49 39.3575,49 C44.6775,49 48.9825,44.695 48.9825,39.375 C48.9825,34.055 44.6775,29.75 39.3575,29.75 L39.3575,29.75 Z" id="Shape" fill="#FFFFFF" fill-rule="nonzero"></path>
                    <rect id="Rectangle" fill="#FFFFFF" fill-rule="nonzero" x="38.5" y="37.6075" width="1.75" height="7"></rect>
                    <rect id="Rectangle" fill="#FFFFFF" fill-rule="nonzero" x="38.5" y="34.1075" width="1.75" height="1.75"></rect>
                    <rect id="Rectangle" x="0" y="0" width="56" height="56"></rect>
                </g>
            </g>
        </g>
    </g>
</svg>