<?xml version="1.0" encoding="UTF-8"?>
<svg width="32px" height="32px" viewBox="0 0 32 32" version="1.1" xmlns="http://www.w3.org/2000/svg" xmlns:xlink="http://www.w3.org/1999/xlink">
    <!-- Generator: Sketch 57.1 (83088) - https://sketch.com -->
    <title>153-B32px</title>
    <desc>Created with Sketch.</desc>
    <g id="153-B32px" stroke="none" stroke-width="1" fill="none" fill-rule="evenodd">
        <g>
            <g id="Group" transform="translate(4.000000, 8.000000)" fill="#101828" fill-rule="nonzero">
                <path d="M6,12.99 L1,12.99 L1.02,1.99 L23,1.99 L23,0.99 L1.02,0.99 C0.46,0.99 0,1.45 0,2.01 L0,12.99 C0,13.55 0.46,14.01 1.02,14.01 L6,14.01 L6,12.99 Z" id="Path"></path>
                <rect id="Rectangle" x="4.73" y="13" width="14.12" height="1.01"></rect>
            </g>
            <path d="M26.98,8.99 L26,8.99 L26,9.99 L26.98,9.99 L27,10.01 L26.98,21.01 L21,21 L21,22.01 L26.98,22.01 C27.54,22.01 28,21.55 28,20.99 L28,10.01 C28,9.45 27.54,8.99 26.98,8.99 Z" id="Path" fill="#101828" fill-rule="nonzero"></path>
            <path d="M15.98,21.94 C11.67,21.94 8.44,22.6 7,22.96 L7,23.99 C8.24,23.67 11.54,22.94 15.98,22.94 C20.46,22.94 23.79,23.68 25,24 L25,22.97 C23.57,22.61 20.33,21.94 15.98,21.94 Z" id="Path" fill="#101828" fill-rule="nonzero"></path>
            <polygon id="Path" fill="#101828" fill-rule="nonzero" points="20 15 20 14 19 14 19 15 18 15 18 16 19 16 19 17 20 17 20 16 21 16 21 15"></polygon>
            <path d="M14.5,13 C15.33,13 16,13.67 16,14.5 L16,16.5 C16,17.33 15.33,18 14.5,18 C13.67,18 13,17.33 13,16.5 L13,14.5 C13,13.67 13.67,13 14.5,13 L14.5,13 Z M14.5,12 C13.12,12 12,13.12 12,14.5 L12,16.5 C12,17.88 13.12,19 14.5,19 C15.88,19 17,17.88 17,16.5 L17,14.5 C17,13.12 15.88,12 14.5,12 L14.5,12 Z" id="Shape" fill="#101828" fill-rule="nonzero"></path>
            <rect id="Rectangle" x="0" y="0" width="32" height="32"></rect>
        </g>
    </g>
</svg>