<?xml version="1.0" encoding="UTF-8"?>
<svg width="40px" height="40px" viewBox="0 0 40 40" version="1.1" xmlns="http://www.w3.org/2000/svg" xmlns:xlink="http://www.w3.org/1999/xlink">
    <!-- Generator: Sketch 57.1 (83088) - https://sketch.com -->
    <title>031-B40px</title>
    <desc>Created with Sketch.</desc>
    <g id="031-B40px" stroke="none" stroke-width="1" fill="none" fill-rule="evenodd">
        <g>
            <polygon id="Path" fill="#101828" fill-rule="nonzero" points="28.75 17.5 28.15 20.375 27.5 17.5 26.25 17.5 25.5875 20.375 25 17.5 25 17.5 23.75 17.5 24.95 22.375 24.9875 22.5 26.25 22.5 26.8625 19.6125 27.5 22.5 28.75 22.5 30 17.5 30 17.5"></polygon>
            <polygon id="Path" fill="#101828" fill-rule="nonzero" points="21.875 17.5 21.275 20.375 20.625 17.5 19.375 17.5 18.7125 20.375 18.125 17.5 18.125 17.5 16.875 17.5 18.075 22.375 18.1125 22.5 19.375 22.5 19.9875 19.6125 20.625 22.5 21.875 22.5 23.125 17.5 23.125 17.5"></polygon>
            <polygon id="Path" fill="#101828" fill-rule="nonzero" points="15 17.5 14.4 20.375 13.75 17.5 12.5 17.5 11.8375 20.375 11.25 17.5 11.25 17.5 10 17.5 11.2 22.375 11.2375 22.5 12.5 22.5 13.1125 19.6125 13.75 22.5 15 22.5 16.25 17.5 16.25 17.5"></polygon>
            <path d="M20,5 C20,5 19.9875,5 19.9875,5 C19.9875,5 19.9875,5 19.975,5 C19.9625,5 19.95,5 19.9375,5 C11.6875,5.0375 5,11.7375 5,20 C5,28.2625 11.6875,34.9625 19.95,35 C19.9625,35 19.975,35 19.9875,35 C19.9875,35 19.9875,35 20,35 C20,35 20.0125,35 20.0125,35 C28.3,35 35.0125,28.2875 35.0125,20 C35.0125,11.7125 28.2875,5 20,5 Z M31.85,13.0625 L27.6875,13.0625 C26.9,10.4875 25.7,8.35 24.2375,6.925 C27.4625,7.975 30.1625,10.1875 31.85,13.0625 Z M20.625,6.3125 C23.0375,6.7125 25.1625,9.35 26.375,13.0625 L20.625,13.0625 L20.625,6.3125 Z M19.375,6.3125 L19.375,13.0625 L13.5875,13.0625 C14.8,9.325 16.9375,6.6875 19.375,6.3125 Z M15.6875,6.95 C14.225,8.375 13.0375,10.5 12.2625,13.0625 L8.15,13.0625 C9.825,10.2 12.5,8.0125 15.6875,6.95 Z M8.15,26.9375 L12.2625,26.9375 C13.0375,29.5 14.2375,31.625 15.6875,33.05 C12.5,31.9875 9.825,29.8 8.15,26.9375 Z M19.375,33.6875 C16.9375,33.3125 14.8,30.6625 13.5875,26.9375 L19.375,26.9375 L19.375,33.6875 Z M20.625,33.6875 L20.625,26.9375 L26.375,26.9375 C25.1625,30.65 23.0375,33.2875 20.625,33.6875 Z M24.2375,33.075 C25.7125,31.65 26.9125,29.5125 27.6875,26.9375 L31.85,26.9375 C30.1625,29.8125 27.4625,32.025 24.2375,33.075 Z M32.5,25.6875 L32.4375,25.6875 L28.025,25.6875 L26.725,25.6875 L20.625,25.6875 L19.375,25.6875 L13.225,25.6875 L11.925,25.6875 L7.5,25.6875 L7.5,25.6875 C6.7875,24.125 6.3625,22.425 6.2875,20.625 L8.75,20.625 L8.75,19.375 L6.2875,19.375 C6.375,17.575 6.7875,15.8625 7.5,14.3125 L7.5,14.3125 L11.925,14.3125 L13.225,14.3125 L19.375,14.3125 L20.625,14.3125 L26.7375,14.3125 L28.0375,14.3125 L32.45,14.3125 L32.5,14.3125 C33.2125,15.875 33.6375,17.575 33.7125,19.375 L31.25,19.375 L31.25,20.625 L33.7125,20.625 C33.6375,22.425 33.2125,24.1375 32.5,25.6875 Z" id="Shape" fill="#101828" fill-rule="nonzero"></path>
            <rect id="Rectangle" x="0" y="0" width="40" height="40"></rect>
        </g>
    </g>
</svg>