<?xml version="1.0" encoding="UTF-8"?>
<svg width="42px" height="42px" viewBox="0 0 42 42" version="1.1" xmlns="http://www.w3.org/2000/svg" xmlns:xlink="http://www.w3.org/1999/xlink">
    <!-- Generator: Sketch 54.1 (76490) - https://sketchapp.com -->
    <title>222-G40px</title>
    <desc>Created with Sketch.</desc>
    <g id="NEW_icons" stroke="none" stroke-width="1" fill="none" fill-rule="evenodd">
        <g id="icons_UD_new-Copy" transform="translate(-244.000000, -28237.000000)">
            <g id="222-G40px" transform="translate(245.000000, 28238.000000)">
                <circle id="Oval-Copy-740" stroke="#E3E8EC" cx="20" cy="20" r="20"></circle>
                <g id="222-B32px-Copy-2" transform="translate(4.000000, 4.000000)">
                    <polygon id="Path" fill="#101828" fill-rule="nonzero" points="14 15.09 4.26 8.92 4.79 8.08 14 13.91 23.21 8.08 23.74 8.92"></polygon>
                    <path d="M23.02,8 L4.98,8 C4.44,8 4,8.44 4,8.98 L4,20.01 C4,20.56 4.44,21 4.98,21 L19,21 L19,20 L5,20.02 L4.98,9 L23,9 L23,12 L24,12 L24,8.98 C24,8.44 23.56,8 23.02,8 Z" id="Path" fill="#101828" fill-rule="nonzero"></path>
                    <path d="M25,17 L25,17 L22,17 L22,16 C22,14.9 22.9,14 24,14 C25.1,14 26,14.9 26,16 L26,17 L27,17 L27,16 C27,14.34 25.66,13 24,13 C22.34,13 21,14.34 21,16 L21,18 L27,18 L27,17 L25,17 Z" id="Path" fill="#101828" fill-rule="nonzero"></path>
                    <path d="M27,18 L27,24 L21,24 L21,18 L27,18 L27,18 Z M27.04,17 L20.96,17 C20.43,17 20,17.43 20,17.96 L20,24.05 C20,24.58 20.43,25.01 20.96,25.01 L27.04,25.01 C27.57,25.01 28,24.58 28,24.05 L28,17.96 C28,17.43 27.57,17 27.04,17 L27.04,17 Z" id="Shape" fill="#101828" fill-rule="nonzero"></path>
                    <path d="M24,22 C23.72,22 23.5,21.78 23.5,21.5 L23.5,20.5 C23.5,20.22 23.72,20 24,20 C24.28,20 24.5,20.22 24.5,20.5 L24.5,21.5 C24.5,21.78 24.28,22 24,22 Z" id="Path" fill="#101828" fill-rule="nonzero"></path>
                    <rect id="Rectangle" x="0" y="0" width="32" height="32"></rect>
                </g>
            </g>
        </g>
    </g>
</svg>