<?xml version="1.0" encoding="UTF-8"?>
<svg width="42px" height="42px" viewBox="0 0 42 42" version="1.1" xmlns="http://www.w3.org/2000/svg" xmlns:xlink="http://www.w3.org/1999/xlink">
    <!-- Generator: Sketch 56.3 (81716) - https://sketch.com -->
    <title>019-G40px</title>
    <desc>Created with Sketch.</desc>
    <g id="NEW_icons" stroke="none" stroke-width="1" fill="none" fill-rule="evenodd">
        <g id="icons_UD_new-Copy" transform="translate(-1526.000000, -2623.000000)">
            <g id="019-G40px" transform="translate(1527.000000, 2624.000000)">
                <circle id="Oval-Copy-193" stroke="#E3E8EC" cx="20" cy="20" r="20"></circle>
                <g id="019-B32px-Copy-2" transform="translate(4.000000, 4.000000)">
                    <rect id="Rectangle" fill="#101828" fill-rule="nonzero" x="15.5" y="4.66" width="1" height="2.34"></rect>
                    <g id="Group" transform="translate(7.000000, 7.000000)" fill="#101828" fill-rule="nonzero">
                        <rect id="Rectangle" transform="translate(16.197969, 16.186829) rotate(-45.000000) translate(-16.197969, -16.186829) " x="15.6979738" y="15.0168402" width="1" height="2.33997756"></rect>
                        <rect id="Rectangle" transform="translate(1.811902, 1.812000) rotate(-45.000000) translate(-1.811902, -1.812000) " x="1.3119068" y="0.64201122" width="1" height="2.33997756"></rect>
                    </g>
                    <g id="Group" transform="translate(7.000000, 7.000000)" fill="#101828" fill-rule="nonzero">
                        <rect id="Rectangle" transform="translate(16.199371, 1.806331) rotate(-45.000000) translate(-16.199371, -1.806331) " x="15.0293822" y="1.3063358" width="2.33997756" height="1"></rect>
                        <rect id="Rectangle" transform="translate(1.810500, 16.192498) rotate(-45.000000) translate(-1.810500, -16.192498) " x="0.64051122" y="15.6925028" width="2.33997756" height="1"></rect>
                    </g>
                    <g id="Group" transform="translate(15.000000, 4.000000)" fill="#101828" fill-rule="nonzero">
                        <rect id="Rectangle" x="0.5" y="0.66" width="1" height="2.34"></rect>
                        <rect id="Rectangle" x="0.5" y="21" width="1" height="2.34"></rect>
                    </g>
                    <rect id="Rectangle" fill="#101828" fill-rule="nonzero" x="4.42" y="15.5" width="2.58" height="1"></rect>
                    <rect id="Rectangle" fill="#101828" fill-rule="nonzero" x="25" y="15.5" width="2.59" height="1"></rect>
                    <rect id="Rectangle" fill="#101828" fill-rule="nonzero" transform="translate(18.339371, 13.666043) rotate(-45.000000) translate(-18.339371, -13.666043) " x="16.2093914" y="13.1660478" width="4.25995915" height="1"></rect>
                    <path d="M16,15.51 C16.27,15.51 16.49,15.73 16.49,16 C16.49,16.27 16.27,16.49 16,16.49 C15.73,16.49 15.51,16.27 15.51,16 C15.51,15.73 15.73,15.51 16,15.51 L16,15.51 Z M16,14.51 C15.18,14.51 14.51,15.18 14.51,16 C14.51,16.82 15.18,17.49 16,17.49 C16.82,17.49 17.49,16.82 17.49,16 C17.49,15.18 16.83,14.51 16,14.51 L16,14.51 Z" id="Shape" fill="#101828" fill-rule="nonzero"></path>
                    <path d="M16,5 C22.07,5 27,9.93 27,16 C27,22.07 22.07,27 16,27 C9.93,27 5,22.07 5,16 C5,9.93 9.93,5 16,5 L16,5 Z M16,4 C9.37,4 4,9.37 4,16 C4,22.63 9.37,28 16,28 C22.63,28 28,22.63 28,16 C28,9.37 22.63,4 16,4 L16,4 Z" id="Shape" fill="#101828" fill-rule="nonzero"></path>
                    <path d="M19,20 L19,22 L13,22 L13,20 L19,20 L19,20 Z M19,19 L13,19 C12.45,19 12,19.45 12,20 L12,22 C12,22.55 12.45,23 13,23 L19,23 C19.55,23 20,22.55 20,22 L20,20 C20,19.45 19.55,19 19,19 L19,19 Z" id="Shape" fill="#101828" fill-rule="nonzero"></path>
                    <rect id="Rectangle" x="0" y="0" width="32" height="32"></rect>
                </g>
            </g>
        </g>
    </g>
</svg>