<?xml version="1.0" encoding="UTF-8"?>
<svg width="42px" height="42px" viewBox="0 0 42 42" version="1.1" xmlns="http://www.w3.org/2000/svg" xmlns:xlink="http://www.w3.org/1999/xlink">
    <!-- Generator: Sketch 57.1 (83088) - https://sketch.com -->
    <title>110-G40px</title>
    <desc>Created with Sketch.</desc>
    <g id="NEW_icons" stroke="none" stroke-width="1" fill="none" fill-rule="evenodd">
        <g id="icons_UD_new-Copy" transform="translate(-244.000000, -14324.000000)">
            <g id="110-G40px" transform="translate(245.000000, 14325.000000)">
                <circle id="Oval-Copy-738" stroke="#E3E8EC" cx="20" cy="20" r="20"></circle>
                <g id="110-B32px-Copy" transform="translate(4.000000, 4.000000)">
                    <polygon id="Path" fill="#101828" fill-rule="nonzero" points="11.61 25 12.7 24 11.22 24 9.04 26 12.47 26 11.09 27.38 11.8 28.08 14.88 25"></polygon>
                    <polygon id="Path" fill="#101828" fill-rule="nonzero" points="21.36 8 22.84 8 25.02 5.99 21.6 5.99 22.98 4.61 22.27 3.91 19.18 6.99 22.46 6.99"></polygon>
                    <path d="M23.36,12.65 C23.48,12.41 23.56,12.14 23.56,11.85 L23.56,11.46 C23.56,10.5 22.78,9.72 21.82,9.72 L18.09,9.72 C18.03,9.72 17.97,9.74 17.9,9.75 L16.3,8.03 L12.23,8.03 L7.3,11.87 L7.3,18.57 L10.33,22.01 L18.47,22.01 L19.09,22.01 L20.95,22.01 C21.91,22.01 22.69,21.23 22.69,20.27 L22.69,19.95 C22.69,19.63 22.6,19.34 22.45,19.08 C23.09,18.82 23.55,18.2 23.55,17.47 L23.55,17.15 C23.55,16.86 23.47,16.59 23.35,16.35 C24.11,16.16 24.6801296,15.48 24.6801296,14.66 L24.6801296,14.34 C24.69,13.51 24.12,12.83 23.36,12.65 Z M22.56,11.46 L22.56,11.85 C22.56,12.26 22.23,12.59 21.82,12.59 L20.57,12.59 L20.57,12.61 L18.81,10.71 L21.83,10.71 C22.23,10.72 22.56,11.05 22.56,11.46 Z M8.31,18.19 L8.31,12.36 L12.58,9.04 L15.87,9.04 L19.75,13.21 L19.75,14.05 C19.77,14.23 19.76,14.78 19.47,15.1 C19.29,15.3 19.01,15.4 18.63,15.4 C18.25,15.4 17.97,15.3 17.79,15.1 C17.5,14.78 17.49,14.23 17.5,14.05 L17.53,13.81 L15.48,11.7 L14.76,12.4 L15.8,13.47 C14.84,15.78 11.3,15.98 11.26,15.98 L11.31,16.98 C11.48,16.97 15.1,16.77 16.51,14.31 C16.53,14.69 16.62,15.29 17.05,15.77 C17.14,15.87 17.24,15.96 17.35,16.04 C17.1,16.34 16.94,16.73 16.94,17.15 L16.94,17.47 C16.94,17.91 17.11,18.31 17.39,18.62 C17.01,18.94 16.76,19.41 16.76,19.95 L16.76,20.27 C16.76,20.54 16.82,20.79 16.93,21.01 L10.81,21.01 L8.31,18.19 Z M21.71,20.26 C21.71,20.67 21.38,21 20.97,21 L19.11,21 L18.49,21 C18.08,21 17.75,20.67 17.75,20.26 L17.75,19.94 C17.75,19.53 18.08,19.2 18.49,19.2 L18.68,19.2 L20.97,19.2 C21.38,19.2 21.71,19.53 21.71,19.94 L21.71,20.26 Z M22.56,17.46 C22.56,17.87 22.23,18.2 21.82,18.2 L20.96,18.2 L18.67,18.2 C18.26,18.2 17.93,17.87 17.93,17.46 L17.93,17.14 C17.93,16.73 18.26,16.4 18.67,16.4 L20.57,16.4 L21.82,16.4 C22.23,16.4 22.56,16.73 22.56,17.14 L22.56,17.46 Z M23.69,14.65 C23.69,15.06 23.36,15.39 22.95,15.39 L21.82,15.39 L20.57,15.39 L20.47,15.39 C20.82,14.74 20.76,14.03 20.75,13.98 L20.75,13.58 L21.82,13.58 L22.95,13.58 C23.36,13.58 23.69,13.91 23.69,14.32 L23.69,14.65 Z" id="Shape" fill="#101828" fill-rule="nonzero"></path>
                    <rect id="Rectangle" x="0" y="0" width="32" height="32"></rect>
                </g>
            </g>
        </g>
    </g>
</svg>