<?xml version="1.0" encoding="UTF-8"?>
<svg width="80px" height="80px" viewBox="0 0 80 80" version="1.1" xmlns="http://www.w3.org/2000/svg" xmlns:xlink="http://www.w3.org/1999/xlink">
    <!-- Generator: Sketch 59.1 (86144) - https://sketch.com -->
    <title>268-B80px</title>
    <desc>Created with Sketch.</desc>
    <g id="268-B80px" stroke="none" stroke-width="1" fill="none" fill-rule="evenodd">
        <g>
            <rect id="Rectangle" x="0" y="0" width="80" height="80"></rect>
            <g id="Group" transform="translate(5.000000, 10.000000)" fill="#101828" fill-rule="nonzero">
                <g transform="translate(27.500000, 25.000000)" id="Path">
                    <path d="M33.75,8 L32,6.5 C28.5,10.25 23.5,12.75 18,12.5 C12.5,12.25 7.5,9.75 4.25,5.75 L2.25,7 C6,11.5 11.5,14.5 17.75,14.75 C24,15.25 29.75,12.5 33.75,8 Z"></path>
                    <path d="M29,5.75 L27.25,4.25 C25,6.75 21.5,8.25 18,8 C14.25,8 11,6.25 9,3.75 L7,5 C9.75,8.25 13.5,10.25 18,10.25 C22.25,10.5 26.25,8.75 29,5.75 Z"></path>
                    <path d="M24.5,3.25 L22.5,2 C21.25,3 19.5,3.75 17.75,3.75 C16,3.75 14.5,3 13.25,2 L11.25,3.25 C12.75,5 15,6 17.5,6 C20.5,6 22.75,5 24.5,3.25 Z"></path>
                </g>
                <path d="M22.75,25.5 L2.25,25.5 L2.25,6.75 L22.75,6.75 L22.75,25.5 Z M4.5,23.25 L20.5,23.25 L20.5,9 L4.5,9 L4.5,23.25 Z" id="Shape"></path>
                <path d="M22.75,58.75 L2.25,58.75 L2.25,43.25 L22.75,43.25 L22.75,58.75 Z M4.5,56.25 L20.5,56.25 L20.5,45.25 L4.5,45.25 L4.5,56.25 Z" id="Shape"></path>
                <path d="M18.5,45.5 L6.25,45.5 L6.25,23.25 L18.5,23.25 L18.5,45.5 Z M8.5,43 L16.25,43 L16.25,25.5 L8.5,25.5 L8.5,43 Z" id="Shape"></path>
                <path d="M17.25,9 L7.5,9 L7.25,8.25 C7.25,7.5 7.25,7 7.25,6.75 C7.25,3.75 9.5,1.5 12.5,1.5 C15.5,1.5 17.75,3.75 17.75,6.75 C17.75,7 17.5,7.5 17.5,8.25 L17.25,9 Z M9.5,6.75 L15.5,6.75 C15.5,6.75 15.5,6.75 15.5,6.75 C15.5,5 14,3.75 12.5,3.75 C10.75,3.75 9.5,5 9.5,6.75 C9.5,6.75 9.5,6.75 9.5,6.75 Z" id="Shape"></path>
                <path d="M67.75,22.25 L20.75,22.25 L20.75,10 L67.75,10 L67.75,22.25 Z M23.25,20 L65.75,20 L65.75,12.25 L23.25,12.25 L23.25,20 Z" id="Shape"></path>
                <polygon id="Rectangle" transform="translate(29.424625, 16.340275) rotate(-62.056261) translate(-29.424625, -16.340275) " points="24.1746735 15.2152854 34.6745765 15.2152854 34.6745765 17.4652646 24.1746735 17.4652646"></polygon>
                <polygon id="Rectangle" transform="translate(39.273429, 16.504125) rotate(-62.056261) translate(-39.273429, -16.504125) " points="34.0234777 15.3791354 44.5233807 15.3791354 44.5233807 17.6291146 34.0234777 17.6291146"></polygon>
                <polygon id="Rectangle" transform="translate(49.239975, 16.448375) rotate(-62.056261) translate(-49.239975, -16.448375) " points="43.9900235 15.3233854 54.4899265 15.3233854 54.4899265 17.5733646 43.9900235 17.5733646"></polygon>
                <polygon id="Rectangle" transform="translate(59.204975, 16.390375) rotate(-62.056261) translate(-59.204975, -16.390375) " points="53.9550235 15.2653854 64.4549265 15.2653854 64.4549265 17.5153646 53.9550235 17.5153646"></polygon>
            </g>
        </g>
    </g>
</svg>