<?xml version="1.0" encoding="UTF-8"?>
<svg width="56px" height="56px" viewBox="0 0 56 56" version="1.1" xmlns="http://www.w3.org/2000/svg" xmlns:xlink="http://www.w3.org/1999/xlink">
    <!-- Generator: Sketch 54.1 (76490) - https://sketchapp.com -->
    <title>008-G56px</title>
    <desc>Created with Sketch.</desc>
    <g id="NEW_icons" stroke="none" stroke-width="1" fill="none" fill-rule="evenodd">
        <g id="icons_UD_new-Copy" transform="translate(-446.000000, -1353.000000)">
            <g id="008-G56px" transform="translate(446.000000, 1353.000000)">
                <circle id="Oval-Copy-134" fill="#E3E8EC" cx="28" cy="28" r="28"></circle>
                <g id="008-B32px-Copy-4" transform="translate(8.000000, 8.000000)">
                    <g id="Group" transform="translate(5.000000, 5.000000)" fill="#101828" fill-rule="nonzero">
                        <path d="M17.225,13.9375 C17.2,14.0875 17.2,14.225 17.15,14.3625 C16.825,15.2875 15.9625,15.9125 15,15.9125 C13.7375,15.9125 12.7125,14.8625 12.7125,13.5625 C12.7125,13.275 12.7625,12.9875 12.8625,12.725 C12.8875,12.6625 12.925,12.6125 12.9625,12.55 L11.75,12.1625 C11.7375,12.2125 11.7125,12.25 11.6875,12.2875 C11.5375,12.6875 11.4625,13.1125 11.4625,13.5625 C11.4625,15.55 13.05,17.1625 15,17.1625 C16.5375,17.1625 17.8375,16.175 18.325,14.775 C18.375,14.625 18.4125,14.475 18.4375,14.325 L17.225,13.9375 Z" id="Path"></path>
                        <path d="M27.0125,11.9125 L25.6125,16.25 L4.1875,9.3375 L4.7125,7.725 L4.5625,7.675 C4.175,7.55 3.8625,7.3 3.6375,6.9875 L3,8.95 C2.7875,9.6125 3.15,10.3125 3.8,10.525 L25.2125,17.4375 C25.3375,17.475 25.475,17.5 25.6,17.5 C26.125,17.5 26.6125,17.1625 26.7875,16.6375 L28.275,12.0125 C28.3625,11.725 28.3375,11.45 28.2375,11.1875 L27.0125,11.9125 Z" id="Path"></path>
                        <path d="M2.5,20.725 L2.5,28.1625 C2.5,28.2 2.475,28.225 2.4375,28.225 L1.25,28.225 L1.25,20.725 L2.5,20.725 L2.5,20.725 Z M2.5125,19.475 L0,19.475 L0,29.475 L2.425,29.475 C3.15,29.475 3.7375,28.8875 3.7375,28.1625 L3.7375,20.7125 C3.75,20.025 3.1875,19.475 2.5125,19.475 L2.5125,19.475 Z" id="Shape"></path>
                        <path d="M6.1125,1.775 C6.15,1.775 6.1875,1.775 6.225,1.7875 L28.5,8.975 C28.675,9.0375 28.725,9.175 28.7375,9.275 C28.75,9.375 28.725,9.525 28.5625,9.625 L23.75,12.425 C23.7,12.4625 23.6375,12.475 23.575,12.475 C23.5375,12.475 23.5,12.475 23.4625,12.4625 L4.7375,6.4125 C4.55,6.3625 4.45,6.15 4.5,5.9625 L5.775,2.025 C5.8375,1.8625 5.9875,1.775 6.1125,1.775 L6.1125,1.775 Z M6.1125,0.525 C5.4375,0.525 4.8,0.9625 4.5875,1.6375 L3.3125,5.5875 C3.0375,6.4375 3.5,7.3375 4.35,7.6125 L23.0875,13.6625 C23.25,13.7125 23.4125,13.7375 23.575,13.7375 C23.85,13.7375 24.1375,13.6625 24.375,13.525 L29.1875,10.725 C30.3875,10.025 30.2,8.2375 28.875,7.8125 L6.6125,0.6125 C6.4375,0.55 6.275,0.525 6.1125,0.525 L6.1125,0.525 Z" id="Shape"></path>
                        <polygon id="Path" points="27.125 11.5625 25.775 15.75 27.875 16.4375 29.225 12.2375"></polygon>
                        <path d="M5.375,25.1 L2.4875,25.1 L2.4875,23.85 L5.375,23.85 C7.9875,23.85 10.325,22.4 11.475,20.0625 L13.675,15.6 L14.8,16.15 L12.6,20.6125 C11.2375,23.375 8.4625,25.1 5.375,25.1 Z" id="Path"></path>
                    </g>
                    <rect id="Rectangle" x="0" y="0" width="40" height="40"></rect>
                </g>
            </g>
        </g>
    </g>
</svg>