<?xml version="1.0" encoding="UTF-8"?>
<svg width="80px" height="80px" viewBox="0 0 80 80" version="1.1" xmlns="http://www.w3.org/2000/svg" xmlns:xlink="http://www.w3.org/1999/xlink">
    <!-- Generator: Sketch 57.1 (83088) - https://sketch.com -->
    <title>082-B80px</title>
    <desc>Created with Sketch.</desc>
    <g id="082-B80px" stroke="none" stroke-width="1" fill="none" fill-rule="evenodd">
        <g>
            <path d="M57.375,12.5 C57.45,12.5 57.5,12.55 57.5,12.625 L57.5,67.375 C57.5,67.45 57.45,67.5 57.375,67.5 L22.625,67.5 C22.55,67.5 22.5,67.45 22.5,67.375 L22.5,12.625 C22.5,12.55 22.55,12.5 22.625,12.5 L57.375,12.5 L57.375,12.5 Z M57.375,10 L22.625,10 C21.175,10 20,11.175 20,12.625 L20,67.375 C20,68.825 21.175,70 22.625,70 L57.375,70 C58.825,70 60,68.825 60,67.375 L60,12.625 C60,11.175 58.825,10 57.375,10 L57.375,10 Z" id="Shape" fill="#101828" fill-rule="nonzero"></path>
            <path d="M40,65 C40.675,65 41.25,64.45 41.25,63.75 C41.25,63.05 40.675,62.5 40,62.5 C39.325,62.5 38.75,63.05 38.75,63.75 C38.75,64.45 39.325,65 40,65" id="Path" fill="#101828" fill-rule="nonzero"></path>
            <rect id="Rectangle" fill="#101828" fill-rule="nonzero" x="20" y="57.5" width="40" height="2.5"></rect>
            <path d="M52.5,33.725 L40,26.225 L40,30 C38.925,30 37.875,30 37.625,30 C36.725,30.025 35.8,29.975 34.9,30.1 C32.4,30.45 30.65,31.9 29.4,34.05 C28.5,35.625 28,37.35 27.725,39.15 C27.6,39.9 27.525,40.675 27.45,41.45 C27.475,41.45 27.525,41.475 27.55,41.475 C28.325,40.375 29.425,39.65 30.575,39.05 C31.925,38.325 34.475,37.575 36,37.5 C36.325,37.475 36.75,37.475 37.25,37.475 C38.075,37.475 39.05,37.5 39.975,37.5 L39.975,41.2 L52.5,33.725 Z M37.5,35 C36.875,35 36.725,35 36.7,35 C36.7,35 36.7,35 36.7,35 C36.7,35 36.65,35 36.35,35 C34.7,35 33.35,35.475 32.775,35.625 C32.3,35.75 31.8,35.925 31.275,36.075 C32.125,33.975 34.05,32.5 36.425,32.5 C36.425,32.5 36.45,32.5 36.45,32.5 C36.475,32.5 36.5,32.5 36.525,32.5 C36.95,32.5 37.275,32.475 38.9,32.475 C39.225,32.475 39.6,32.475 40.025,32.475 L40.025,32.5 L42.525,32.5 L42.525,32.5 L42.525,30.625 L47.675,33.7 L42.5,36.8 L42.5,35 L40,35 C38.75,35 37.975,35 37.5,35 Z" id="Shape" fill="#101828" fill-rule="nonzero"></path>
            <rect id="Rectangle" x="0" y="0" width="80" height="80"></rect>
        </g>
    </g>
</svg>