<?xml version="1.0" encoding="UTF-8"?>
<svg width="80px" height="80px" viewBox="0 0 80 80" version="1.1" xmlns="http://www.w3.org/2000/svg" xmlns:xlink="http://www.w3.org/1999/xlink">
    <!-- Generator: Sketch 57.1 (83088) - https://sketch.com -->
    <title>195-B80px</title>
    <desc>Created with Sketch.</desc>
    <g id="195-B80px" stroke="none" stroke-width="1" fill="none" fill-rule="evenodd">
        <g>
            <rect id="Rectangle" fill="#101828" fill-rule="nonzero" x="47.5" y="30" width="2.5" height="17.475"></rect>
            <rect id="Rectangle" fill="#101828" fill-rule="nonzero" x="42.5" y="32.5" width="2.5" height="15"></rect>
            <rect id="Rectangle" fill="#101828" fill-rule="nonzero" x="37.5" y="35" width="2.5" height="12.5"></rect>
            <rect id="Rectangle" fill="#101828" fill-rule="nonzero" x="27.5" y="39.975" width="2.5" height="7.5"></rect>
            <rect id="Rectangle" fill="#101828" fill-rule="nonzero" x="32.5" y="37.5" width="2.5" height="10"></rect>
            <path d="M67.45,25 L67.5,25.05 L67.45,52.525 L12.5,52.475 L12.55,25 L67.45,25 L67.45,25 Z M67.45,22.5 L12.55,22.5 C11.15,22.5 10,23.65 10,25.05 L10,52.475 C10,53.875 11.15,55.025 12.55,55.025 L67.45,55.025 C68.85,55.025 70,53.875 70,52.475 L70,25.05 C70,23.65 68.85,22.5 67.45,22.5 L67.45,22.5 Z" id="Shape" fill="#101828" fill-rule="nonzero"></path>
            <path d="M39.95,54.85 C29.175,54.85 21.1,56.5 17.5,57.4 L17.5,59.975 C20.6,59.175 28.85,57.35 39.95,57.35 C51.15,57.35 59.475,59.2 62.5,60 L62.5,57.425 C58.925,56.525 50.825,54.85 39.95,54.85 Z" id="Path" fill="#101828" fill-rule="nonzero"></path>
            <rect id="Rectangle" x="0" y="0" width="80" height="80"></rect>
        </g>
    </g>
</svg>