<?xml version="1.0" encoding="UTF-8"?>
<svg width="80px" height="80px" viewBox="0 0 80 80" version="1.1" xmlns="http://www.w3.org/2000/svg" xmlns:xlink="http://www.w3.org/1999/xlink">
    <!-- Generator: Sketch 57.1 (83088) - https://sketch.com -->
    <title>073-B80px</title>
    <desc>Created with Sketch.</desc>
    <g id="073-B80px" stroke="none" stroke-width="1" fill="none" fill-rule="evenodd">
        <g>
            <path d="M35,65 C35.675,65 36.25,64.45 36.25,63.75 C36.25,63.05 35.675,62.5 35,62.5 C34.325,62.5 33.75,63.05 33.75,63.75 C33.75,64.45 34.325,65 35,65" id="Path" fill="#101828" fill-rule="nonzero"></path>
            <path d="M53.75,65 C53.325,65 52.925,64.975 52.5,64.925 L52.5,67.35 C52.5,67.425 52.45,67.475 52.375,67.475 L17.625,67.475 C17.55,67.5 17.5,67.45 17.5,67.375 L17.5,60 L42.05,60 C41.325,59.225 40.65,58.4 40.075,57.5 L17.5,57.5 L17.5,12.625 C17.5,12.55 17.55,12.5 17.625,12.5 L52.375,12.5 C52.45,12.5 52.5,12.55 52.5,12.625 L52.5,32.55 C52.925,32.525 53.325,32.475 53.75,32.475 C54.175,32.475 54.575,32.5 55,32.55 L55,12.625 C55,11.175 53.825,10 52.375,10 L17.625,10 C16.175,10 15,11.175 15,12.625 L15,57.5 L15,60 L15,67.375 C15,68.825 16.175,70 17.625,70 L52.375,70 C53.825,70 55,68.825 55,67.375 L55,64.95 C54.575,64.975 54.175,65 53.75,65 Z" id="Path" fill="#101828" fill-rule="nonzero"></path>
            <path d="M53.75,37.5 C59.95,37.5 65,42.55 65,48.75 C65,54.95 59.95,60 53.75,60 C47.55,60 42.5,54.95 42.5,48.75 C42.5,42.55 47.55,37.5 53.75,37.5 L53.75,37.5 Z M53.75,35 C46.15,35 40,41.15 40,48.75 C40,56.35 46.15,62.5 53.75,62.5 C61.35,62.5 67.5,56.35 67.5,48.75 C67.5,41.15 61.35,35 53.75,35 L53.75,35 Z" id="Shape" fill="#101828" fill-rule="nonzero"></path>
            <polygon id="Path" fill="#101828" fill-rule="nonzero" points="58.725 50 52.475 50 52.475 41.25 54.975 41.25 54.975 47.5 58.725 47.5"></polygon>
            <rect id="Rectangle" x="0" y="0" width="80" height="80"></rect>
        </g>
    </g>
</svg>