<?xml version="1.0" encoding="UTF-8"?>
<svg width="80px" height="80px" viewBox="0 0 80 80" version="1.1" xmlns="http://www.w3.org/2000/svg" xmlns:xlink="http://www.w3.org/1999/xlink">
    <!-- Generator: Sketch 57.1 (83088) - https://sketch.com -->
    <title>013-B80px</title>
    <desc>Created with Sketch.</desc>
    <g id="013-B80px" stroke="none" stroke-width="1" fill="none" fill-rule="evenodd">
        <g>
            <path d="M48.75,55.275 L47,52.5 L50.475,52.5 L48.75,55.275 L48.75,55.275 Z M48.75,60 L55,50 L42.5,50 L48.75,60 L48.75,60 Z" id="Shape" fill="#101828" fill-rule="nonzero"></path>
            <polygon id="Path" fill="#101828" fill-rule="nonzero" points="50 40 47.5 40 47.5 50 50 50"></polygon>
            <path d="M31.25,44.725 L33,47.5 L29.5,47.5 L31.25,44.725 L31.25,44.725 Z M31.25,40 L25,50 L37.5,50 L31.25,40 L31.25,40 Z" id="Shape" fill="#101828" fill-rule="nonzero"></path>
            <rect id="Rectangle" fill="#101828" fill-rule="nonzero" x="30" y="50" width="2.5" height="10"></rect>
            <path d="M55,28.125 C54.575,28.125 54.175,28.15 53.775,28.2 C51.35,21.925 45.525,17.5 38.75,17.5 C31.05,17.5 24.625,23.2 22.95,30.825 C15.725,31.275 10,37.6 10,45.375 C10,53.45 16.15,59.975 23.75,59.975 C23.775,59.975 23.775,59.975 23.8,59.975 L23.8,59.975 L25,59.975 L25,57.475 L23.8,57.475 L23.675,57.475 L23.675,57.475 C17.5,57.425 12.5,52.025 12.5,45.375 C12.5,38.975 17.15,33.675 23.1,33.3 L24.975,33.175 L25.375,31.325 C26.85,24.675 32.35,20 38.75,20 C44.325,20 49.3,23.575 51.45,29.1 L52.125,30.85 L54,30.7 C54.325,30.675 54.675,30.65 55,30.65 C61.9,30.65 67.5,36.675 67.5,44.075 C67.5,51.475 61.9,57.5 55,57.5 L55,60 C63.275,60 70,52.875 70,44.075 C70,35.25 63.275,28.125 55,28.125 Z" id="Path" fill="#101828" fill-rule="nonzero"></path>
            <rect id="Rectangle" fill="#101828" fill-rule="nonzero" x="37.5" y="57.475" width="5" height="2.5"></rect>
            <rect id="Rectangle" x="0" y="0" width="80" height="80"></rect>
        </g>
    </g>
</svg>