<?xml version="1.0" encoding="UTF-8"?>
<svg width="40px" height="40px" viewBox="0 0 40 40" version="1.1" xmlns="http://www.w3.org/2000/svg" xmlns:xlink="http://www.w3.org/1999/xlink">
    <!-- Generator: Sketch 57.1 (83088) - https://sketch.com -->
    <title>030-B40px</title>
    <desc>Created with Sketch.</desc>
    <g id="030-B40px" stroke="none" stroke-width="1" fill="none" fill-rule="evenodd">
        <g>
            <path d="M28.125,10 C28.625,10 29.1,10.2 29.45,10.55 C29.8,10.9 30,11.375 30,11.875 C30,12.375 29.8,12.85 29.45,13.2 C29.1,13.55 28.625,13.75 28.125,13.75 C27.625,13.75 27.15,13.55 26.8,13.2 C26.45,12.85 26.25,12.375 26.25,11.875 C26.25,11.375 26.45,10.9 26.8,10.55 C27.15,10.2 27.625,10 28.125,10 L28.125,10 Z M28.125,8.75 C27.325,8.75 26.525,9.05 25.9125,9.6625 C24.6875,10.8875 24.6875,12.8625 25.9125,14.0875 C26.525,14.7 27.325,15 28.125,15 C28.925,15 29.725,14.7 30.3375,14.0875 C31.5625,12.8625 31.5625,10.8875 30.3375,9.6625 C29.725,9.05 28.925,8.75 28.125,8.75 L28.125,8.75 Z" id="Shape" fill="#101828" fill-rule="nonzero"></path>
            <path d="M34.5875,5.475 C34.5875,5.475 33.05,5 31,5 C28.85,5 26.15,5.5125 24.05,7.6125 C22.9875,8.675 21.5125,10.15 19.9,11.7625 C18.95,11.0375 17.825,10.6375 16.725,10.6375 C15.5125,10.6375 14.3125,11.0875 13.4125,11.9875 L8.3125,17.0875 L13.9,19.5375 L24.9375,8.5 C26.4125,7 28.45,6.25 30.9875,6.25 C32.0375,6.25 32.9375,6.3875 33.525,6.5 C33.825,8.15 34.2375,12.3375 31.5,15.075 L20.4625,26.1125 L22.9125,31.7 L28.0125,26.6 C29.725,24.8875 29.7625,22.125 28.2375,20.1125 L32.3875,15.9625 C36.4125,11.9375 34.5875,5.475 34.5875,5.475 Z M13.45,18.2 L10.4125,16.7375 L14.2875,12.8625 C14.9125,12.2375 15.775,11.8875 16.7125,11.8875 C17.525,11.8875 18.325,12.1625 19,12.65 C17.1125,14.5375 15.125,16.525 13.45,18.2 Z M27.1375,25.7125 L23.2625,29.5875 L21.8,26.55 L27.35,21 C28.4125,22.5 28.3625,24.4875 27.1375,25.7125 Z" id="Shape" fill="#101828" fill-rule="nonzero"></path>
            <path d="M14.775,27.8 L13.5625,29.0125 C11.875,30.7 9.9,31.125 8.725,31.225 C8.8375,30.025 9.2875,28.0625 10.95,26.4 L12.1625,25.1875 L11.275,24.3 L10.0625,25.5125 C7.025,28.55 7.4625,32.4625 7.4625,32.4625 C7.4625,32.4625 7.7125,32.5 8.125,32.5 C9.3625,32.5 12.125,32.2125 14.45,29.8875 C14.95,29.3875 15.35,28.9875 15.6625,28.675 L14.775,27.8 Z" id="Path" fill="#101828" fill-rule="nonzero"></path>
            <path d="M16.5875,29.6 L14.875,31.3125 C12.8625,33.325 10.2375,33.75 8.4,33.75 C7.5875,33.75 6.875,33.6625 6.3875,33.5875 C6.15,31.925 5.925,27.8875 8.6875,25.125 L10.4,23.4125 L9.5125,22.525 L7.8,24.25 C3.7125,28.3375 5.3125,34.65 5.3125,34.65 C5.3125,34.65 6.6,35 8.4,35 C10.575,35 13.475,34.4875 15.7625,32.2 C16.4875,31.475 17.0375,30.925 17.475,30.4875 L16.5875,29.6 Z" id="Path" fill="#101828" fill-rule="nonzero"></path>
            <polygon id="Rectangle" fill="#101828" fill-rule="nonzero" transform="translate(16.820544, 23.182093) rotate(-45.000000) translate(-16.820544, -23.182093) " points="12.3893369 22.5570991 21.2517519 22.5570991 21.2517519 23.8070871 12.3893369 23.8070871"></polygon>
            <rect id="Rectangle" x="0" y="0" width="40" height="40"></rect>
        </g>
    </g>
</svg>