<?xml version="1.0" encoding="UTF-8"?>
<svg width="80px" height="80px" viewBox="0 0 80 80" version="1.1" xmlns="http://www.w3.org/2000/svg" xmlns:xlink="http://www.w3.org/1999/xlink">
    <!-- Generator: Sketch 58 (84663) - https://sketch.com -->
    <title>254-W80px</title>
    <desc>Created with Sketch.</desc>
    <g id="NEW_icons" stroke="none" stroke-width="1" fill="none" fill-rule="evenodd">
        <g id="icons_UD_new-Copy" transform="translate(-868.000000, -32368.000000)">
            <g id="254-W80px" transform="translate(868.000000, 32368.000000)">
                <circle id="Oval-Copy-1650" fill="#101828" cx="40" cy="40" r="40"></circle>
                <g id="254-B32px-Copy-8" transform="translate(12.000000, 13.000000)">
                    <path d="M14.525,9.9225 C14.6125,9.9225 14.735,9.94 14.84,10.045 L22.8725,18.3575 C23.0475,18.5325 23.03,18.83 22.8375,19.005 L19.285,22.4525 L18.445,23.275 L18.8825,24.36 C18.9525,24.5525 20.825,29.1375 23.5025,31.9025 C26.18,34.6675 30.695,36.68 30.8875,36.7675 L31.9725,37.24 L32.8125,36.4175 L36.365,32.97 C36.4875,32.8475 36.61,32.83 36.6975,32.83 C36.785,32.83 36.9075,32.8475 37.0125,32.9525 L45.045,41.265 C45.15,41.37 45.1675,41.4925 45.1675,41.58 C45.1675,41.65 45.15,41.79 45.01,41.9125 L39.6725,47.075 C39.585,47.1625 39.4625,47.215 39.2875,47.215 C39.2875,47.215 39.27,47.215 39.27,47.215 C29.295,45.6225 19.6525,35.7875 19.565,35.6825 C19.46,35.5775 9.8875,25.585 8.715,15.6625 C8.715,15.575 8.715,15.365 8.8725,15.225 L14.21,10.0625 C14.315,9.9575 14.4375,9.9225 14.525,9.9225 L14.525,9.9225 Z M14.525,8.1725 C13.965,8.1725 13.405,8.3825 12.9675,8.8025 L7.6475,13.965 C7.1225,14.4725 6.895,15.1725 6.9825,15.89 C8.2425,26.5125 18.305,36.925 18.305,36.925 C18.305,36.925 28.2975,47.25 38.99,48.965 C39.095,48.9825 39.2175,48.9825 39.3225,48.9825 C39.9,48.9825 40.46,48.755 40.88,48.335 L46.2175,43.1725 C47.0925,42.315 47.1275,40.915 46.2875,40.0575 L38.255,31.745 C37.835,31.3075 37.2575,31.08 36.68,31.08 C36.12,31.08 35.56,31.29 35.1225,31.71 L31.57,35.1575 C31.57,35.1575 27.195,33.215 24.745,30.6775 C22.2775,28.14 20.4925,23.695 20.4925,23.695 L24.045,20.2475 C24.92,19.39 24.955,17.99 24.115,17.1325 L16.1,8.8375 C15.68,8.4 15.1025,8.1725 14.525,8.1725 L14.525,8.1725 Z" id="Shape" fill="#FFFFFF" fill-rule="nonzero"></path>
                    <path d="M42,20.9825 C41.0375,20.9825 40.25,21.77 40.25,22.7325 C40.25,23.695 41.0375,24.4825 42,24.4825 C42.9625,24.4825 43.75,23.695 43.75,22.7325 C43.75,21.77 42.9625,20.9825 42,20.9825 L42,20.9825 Z" id="Path" fill="#FFFFFF" fill-rule="nonzero"></path>
                    <path d="M36.75,20.9825 C35.7875,20.9825 35,21.77 35,22.7325 C35,23.695 35.7875,24.4825 36.75,24.4825 C37.7125,24.4825 38.5,23.695 38.5,22.7325 C38.5,21.77 37.73,20.9825 36.75,20.9825 L36.75,20.9825 Z" id="Path" fill="#FFFFFF" fill-rule="nonzero"></path>
                    <path d="M31.5,20.9825 C30.5375,20.9825 29.75,21.77 29.75,22.7325 C29.75,23.695 30.5375,24.4825 31.5,24.4825 C32.4625,24.4825 33.25,23.695 33.25,22.7325 C33.25,21.77 32.48,20.9825 31.5,20.9825 L31.5,20.9825 Z" id="Path" fill="#FFFFFF" fill-rule="nonzero"></path>
                    <rect id="Rectangle" x="0" y="0" width="56" height="56"></rect>
                </g>
            </g>
        </g>
    </g>
</svg>