<?xml version="1.0" encoding="UTF-8"?>
<svg width="80px" height="80px" viewBox="0 0 80 80" version="1.1" xmlns="http://www.w3.org/2000/svg" xmlns:xlink="http://www.w3.org/1999/xlink">
    <!-- Generator: Sketch 57.1 (83088) - https://sketch.com -->
    <title>142-W80px</title>
    <desc>Created with Sketch.</desc>
    <g id="NEW_icons" stroke="none" stroke-width="1" fill="none" fill-rule="evenodd">
        <g id="icons_UD_new-Copy" transform="translate(-869.000000, -18300.000000)">
            <g id="142-W80px" transform="translate(869.000000, 18300.000000)">
                <circle id="Oval-Copy-889" fill="#101828" cx="40" cy="40" r="40"></circle>
                <g id="142-B32px-Copy-8" transform="translate(12.000000, 12.000000)">
                    <path d="M23.7825,31.5 L15.75,31.5 C10.92,31.5 7,35.42 7,40.25 L7,49 L8.75,49 L8.75,40.25 C8.75,36.3825 11.8825,33.25 15.75,33.25 L23.205,33.25 C23.3625,32.655 23.555,32.06 23.7825,31.5 Z" id="Path" fill="#FFFFFF" fill-rule="nonzero"></path>
                    <path d="M36.75,46.375 C31.4475,46.375 27.125,42.0525 27.125,36.75 L28.875,36.75 C28.875,41.09 32.41,44.625 36.75,44.625 L36.75,46.375 Z" id="Path" fill="#FFFFFF" fill-rule="nonzero"></path>
                    <path d="M46.375,36.75 L44.625,36.75 C44.625,32.41 41.09,28.875 36.75,28.875 L36.75,27.125 C42.0525,27.125 46.375,31.4475 46.375,36.75 Z" id="Path" fill="#FFFFFF" fill-rule="nonzero"></path>
                    <path d="M36.75,26.25 C42.5425,26.25 47.25,30.9575 47.25,36.75 C47.25,42.5425 42.5425,47.25 36.75,47.25 C30.9575,47.25 26.25,42.5425 26.25,36.75 C26.25,30.9575 30.9575,26.25 36.75,26.25 L36.75,26.25 Z M36.75,24.5 C29.9775,24.5 24.5,29.9775 24.5,36.75 C24.5,43.5225 29.9775,49 36.75,49 C43.5225,49 49,43.5225 49,36.75 C49,29.9775 43.5225,24.5 36.75,24.5 L36.75,24.5 Z" id="Shape" fill="#FFFFFF" fill-rule="nonzero"></path>
                    <path d="M41.1425,34.86 L37.24,30.94 C37.1,30.8 36.855,30.8 36.715,30.94 L34.51,33.145 C33.845,33.81 33.8624562,34.475 33.8624562,35.245 L33.8624562,41.475 C33.8624562,41.79 33.9675,42.105 34.195,42.315 C34.405,42.525 34.7025,42.665 34.9825,42.665 L39.515,42.665 C39.6725,42.665 39.795,42.5775 39.865,42.4375 C39.9175,42.2975 39.8825,42.14 39.7775,42.035 L37.135,39.3925 L41.1425,35.385 C41.2825,35.2275 41.2825,35 41.1425,34.86 Z M38.2375,41.755 L35,41.755 C34.965,41.755 34.93,41.7375 34.93,41.7375 C34.9125,41.7025 34.895,41.685 34.895,41.6675 L34.895,41.615 C35.035,41.4575 35.455,41.0375 35.49,41.0025 L36.4875,40.005 L38.2375,41.755 Z" id="Shape" fill="#FFFFFF" fill-rule="nonzero"></path>
                    <path d="M22.75,8.75 C27.58,8.75 31.5,12.67 31.5,17.5 C31.5,22.33 27.58,26.25 22.75,26.25 C17.92,26.25 14,22.33 14,17.5 C14,12.67 17.92,8.75 22.75,8.75 L22.75,8.75 Z M22.75,7 C16.9575,7 12.25,11.7075 12.25,17.5 C12.25,23.2925 16.9575,28 22.75,28 C28.5425,28 33.25,23.2925 33.25,17.5 C33.25,11.7075 28.5425,7 22.75,7 L22.75,7 Z" id="Shape" fill="#FFFFFF" fill-rule="nonzero"></path>
                    <rect id="Rectangle" x="0" y="0" width="56" height="56"></rect>
                </g>
            </g>
        </g>
    </g>
</svg>