<?xml version="1.0" encoding="UTF-8"?>
<svg width="80px" height="80px" viewBox="0 0 80 80" version="1.1" xmlns="http://www.w3.org/2000/svg" xmlns:xlink="http://www.w3.org/1999/xlink">
    <!-- Generator: Sketch 57.1 (83088) - https://sketch.com -->
    <title>123-B80px</title>
    <desc>Created with Sketch.</desc>
    <g id="123-B80px" stroke="none" stroke-width="1" fill="none" fill-rule="evenodd">
        <g>
            <path d="M40,32.5 C44.125,32.5 47.5,35.875 47.5,40 C47.5,44.125 44.125,47.5 40,47.5 C35.875,47.5 32.5,44.125 32.5,40 C32.5,35.875 35.875,32.5 40,32.5 L40,32.5 Z M40,30 C34.475,30 30,34.475 30,40 C30,45.525 34.475,50 40,50 C45.525,50 50,45.525 50,40 C50,34.475 45.525,30 40,30 L40,30 Z" id="Shape" fill="#101828" fill-rule="nonzero"></path>
            <polygon id="Path" fill="#101828" fill-rule="nonzero" points="67.95 36.35 40 13.25 12.05 36.35 10.45 34.425 40 10.025 69.55 34.425"></polygon>
            <path d="M25,70 L25,65 C25,60.875 28.375,57.5 32.5,57.5 L47.5,57.5 C51.625,57.5 55,60.875 55,65 L55,70 L57.5,70 L57.5,65 C57.5,59.475 53.025,55 47.5,55 L32.5,55 C26.975,55 22.5,59.475 22.5,65 L22.5,70 L25,70 Z" id="Path" fill="#101828" fill-rule="nonzero"></path>
            <rect id="Rectangle" x="0" y="0" width="80" height="80"></rect>
        </g>
    </g>
</svg>