<?xml version="1.0" encoding="UTF-8"?>
<svg width="56px" height="56px" viewBox="0 0 56 56" version="1.1" xmlns="http://www.w3.org/2000/svg" xmlns:xlink="http://www.w3.org/1999/xlink">
    <!-- Generator: Sketch 56.3 (81716) - https://sketch.com -->
    <title>043-W56px</title>
    <desc>Created with Sketch.</desc>
    <g id="NEW_icons" stroke="none" stroke-width="1" fill="none" fill-rule="evenodd">
        <g id="icons_UD_new-Copy" transform="translate(-1814.000000, -5620.000000)">
            <g id="043-W56px" transform="translate(1814.000000, 5620.000000)">
                <g id="003-B32px-Copy-80" transform="translate(8.000000, 8.000000)">
                    <g id="Group" transform="translate(10.000000, 5.000000)" fill="#FFFFFF" fill-rule="nonzero">
                        <path d="M18.6875,0 L1.3125,0 C0.5875,0 0,0.5875 0,1.3125 L0,23.75 L0,25 L0,28.6875 C0,29.4125 0.5875,30 1.3125,30 L18.6875,30 C19.4125,30 20,29.4125 20,28.6875 L20,25 L20,23.75 L20,1.3125 C20,0.5875 19.4125,0 18.6875,0 Z M18.75,28.6875 C18.75,28.725 18.725,28.75 18.6875,28.75 L1.3125,28.75 C1.275,28.75 1.25,28.725 1.25,28.6875 L1.25,25 L18.75,25 L18.75,28.6875 Z M1.25,23.75 L1.25,1.3125 C1.25,1.275 1.275,1.25 1.3125,1.25 L18.6875,1.25 C18.725,1.25 18.75,1.275 18.75,1.3125 L18.75,23.75 L1.25,23.75 Z" id="Shape"></path>
                        <path d="M10,27.4875 C10.3375,27.4875 10.625,27.2125 10.625,26.8625 C10.625,26.525 10.35,26.2375 10,26.2375 C9.65,26.2375 9.375,26.5125 9.375,26.8625 C9.375,27.2125 9.6625,27.4875 10,27.4875 Z" id="Path"></path>
                        <path d="M12.5125,20 L7.5,20.0125 L7.5,16.25 L6.25,16.25 L6.25,20.0125 C6.25,20.6875 6.8,21.25 7.4875,21.25 L12.525,21.25 C13.2,21.25 13.7625,20.7 13.7625,20.0125 L13.7625,16.25 L12.5125,16.25 L12.5125,20 Z" id="Path"></path>
                        <polygon id="Path" points="4.775 15.575 5.5625 16.5375 10 12.875 14.4375 16.5375 15.225 15.575 10 11.2625"></polygon>
                        <path d="M12.6,7.3125 C11.925,6.65 11.0125,6.25 10,6.25 C8.9625,6.25 8.025,6.675 7.35,7.35 L8.2375,8.2375 C8.6875,7.775 9.3125,7.5 10,7.5 C10.6625,7.5 11.275,7.7625 11.7125,8.1875 L12.6,7.3125 Z" id="Path"></path>
                        <path d="M9.1125,9.1125 L9.95,9.95 L10.825,9.075 C10.6125,8.875 10.325,8.75 10,8.75 C9.65,8.75 9.3375,8.8875 9.1125,9.1125 Z" id="Path"></path>
                        <path d="M10,5 C11.35,5 12.5875,5.55 13.4875,6.425 L14.375,5.5375 C13.2375,4.4375 11.7,3.75 10,3.75 C8.275,3.75 6.7125,4.45 5.575,5.575 L6.4625,6.4625 C7.375,5.5625 8.625,5 10,5 Z" id="Path"></path>
                    </g>
                    <rect id="Rectangle" x="0" y="0" width="40" height="40"></rect>
                </g>
                <circle id="Oval-Copy-363" fill="#101828" cx="28" cy="28" r="28"></circle>
                <g id="043-B32px-Copy-6" transform="translate(8.000000, 8.000000)">
                    <path d="M25,21.25 C24.3125,21.25 23.75,21.8125 23.75,22.5 C23.75,23.1875 24.3125,23.75 25,23.75 C25.6875,23.75 26.25,23.1875 26.25,22.5 C26.25,21.8125 25.6875,21.25 25,21.25 L25,21.25 Z" id="Path" fill="#FFFFFF" fill-rule="nonzero"></path>
                    <path d="M30,21.25 C29.3125,21.25 28.75,21.8125 28.75,22.5 C28.75,23.1875 29.3125,23.75 30,23.75 C30.6875,23.75 31.25,23.1875 31.25,22.5 C31.25,21.8125 30.6875,21.25 30,21.25 L30,21.25 Z" id="Path" fill="#FFFFFF" fill-rule="nonzero"></path>
                    <path d="M27.5,23.75 C26.8125,23.75 26.25,24.3125 26.25,25 C26.25,25.6875 26.8125,26.25 27.5,26.25 C28.1875,26.25 28.75,25.6875 28.75,25 C28.75,24.3125 28.1875,23.75 27.5,23.75 L27.5,23.75 Z" id="Path" fill="#FFFFFF" fill-rule="nonzero"></path>
                    <path d="M27.5,18.75 C26.8125,18.75 26.25,19.3125 26.25,20 C26.25,20.6875 26.8125,21.25 27.5,21.25 C28.1875,21.25 28.75,20.6875 28.75,20 C28.75,19.3125 28.1875,18.75 27.5,18.75 L27.5,18.75 Z" id="Path" fill="#FFFFFF" fill-rule="nonzero"></path>
                    <polygon id="Path" fill="#FFFFFF" fill-rule="nonzero" points="10 21.25 10 22.5 12.5 22.5 12.5 25 13.75 25 13.75 22.5 16.25 22.5 16.25 21.25 13.75 21.25 13.75 18.75 12.5 18.75 12.5 21.25"></polygon>
                    <path d="M20.625,15 L19.375,15 L19.375,13.75 C19.375,13.6375 19.4125,10.85 22.225,9.4375 C24.35,8.375 24.375,6.275 24.375,6.25 L25.625,6.25 C25.625,6.3625 25.5875,9.15 22.775,10.5625 C20.65,11.625 20.625,13.725 20.625,13.75 L20.625,15 Z" id="Path" fill="#FFFFFF" fill-rule="nonzero"></path>
                    <path d="M31.4125,16.25 C31.4375,16.25 31.475,16.275 31.475,16.3125 L33.5,25.6875 C33.8375,27.325 33.875,28.3 33.2375,29.7 C32.5,31.35 30.6375,32.5 28.725,32.5 L28.6375,32.5 C25.9375,32.45 23.7375,30.2125 23.7375,27.5 L23.7375,26.25 L22.4875,26.25 L17.5,26.25 L16.25,26.25 L16.25,27.5 C16.25,30.2125 14.05,32.45 11.35,32.5 L11.2625,32.5 C9.3625,32.5 7.5,31.35 6.75,29.7 C6.1125,28.3 6.15,27.3375 6.4875,25.7 L8.525,16.2875 C8.525,16.275 8.5625,16.25 8.5875,16.25 L17.5,16.25 L22.5,16.25 L31.4125,16.25 L31.4125,16.25 Z M31.4125,15 L22.5,15 L17.5,15 L8.5875,15 C7.9625,15 7.425,15.4375 7.3,16.05 L5.2625,25.4375 C4.9,27.25 4.825,28.4875 5.6125,30.2125 C6.5875,32.35 8.9375,33.75 11.275,33.75 C11.3125,33.75 11.35,33.75 11.3875,33.75 C14.7875,33.6875 17.5125,30.9125 17.5125,27.5 L22.5,27.5 C22.5,30.9125 25.2375,33.6875 28.625,33.75 C28.6625,33.75 28.7,33.75 28.7375,33.75 C31.075,33.75 33.425,32.35 34.3875,30.225 C35.175,28.5 35.1125,27.2625 34.7375,25.45 L32.7,16.0625 C32.575,15.4375 32.0375,15 31.4125,15 L31.4125,15 Z" id="Shape" fill="#FFFFFF" fill-rule="nonzero"></path>
                    <rect id="Rectangle" x="0" y="0" width="40" height="40"></rect>
                </g>
            </g>
        </g>
    </g>
</svg>