<?xml version="1.0" encoding="UTF-8"?>
<svg width="80px" height="80px" viewBox="0 0 80 80" version="1.1" xmlns="http://www.w3.org/2000/svg" xmlns:xlink="http://www.w3.org/1999/xlink">
    <!-- Generator: Sketch 57.1 (83088) - https://sketch.com -->
    <title>184-W80px</title>
    <desc>Created with Sketch.</desc>
    <g id="NEW_icons" stroke="none" stroke-width="1" fill="none" fill-rule="evenodd">
        <g id="icons_UD_new-Copy" transform="translate(-869.000000, -23580.000000)">
            <g id="184-W80px" transform="translate(869.000000, 23580.000000)">
                <circle id="Oval-Copy-1238" fill="#101828" cx="40" cy="40" r="40"></circle>
                <g id="184-B32px-Copy-6" transform="translate(12.000000, 12.000000)">
                    <rect id="Rectangle" fill="#FFFFFF" fill-rule="nonzero" x="29.645" y="45.5" width="12.355" height="1.75"></rect>
                    <rect id="Rectangle" fill="#FFFFFF" fill-rule="nonzero" x="14.175" y="45.5" width="12.18" height="1.75"></rect>
                    <path d="M28.105,31.4825 C28.5775,31.4825 28.98,31.8675 28.98,32.3575 C28.98,32.8475 28.595,33.2325 28.105,33.2325 C27.6325,33.2325 27.23,32.8475 27.23,32.3575 C27.23,31.885 27.615,31.4825 28.105,31.4825 L28.105,31.4825 Z M28.07,29.7325 C26.635,29.7325 25.4625,30.905 25.4625,32.3575 C25.4625,33.81 26.635,34.9825 28.07,34.9825 C29.505,34.9825 30.6775,33.81 30.6775,32.3575 C30.695,30.9225 29.5225,29.7325 28.07,29.7325 L28.07,29.7325 Z" id="Shape" fill="#FFFFFF" fill-rule="nonzero"></path>
                    <path d="M25.4975,38.4825 C25.97,38.4825 26.3725,38.8675 26.3725,39.3575 C26.3725,39.8475 25.9875,40.2325 25.4975,40.2325 C25.025,40.2325 24.6225,39.8475 24.6225,39.3575 C24.6225,38.885 25.0075,38.4825 25.4975,38.4825 L25.4975,38.4825 Z M25.48,36.7325 C24.045,36.7325 22.8725,37.905 22.8725,39.3575 C22.8725,40.81 24.045,41.9825 25.48,41.9825 C26.915,41.9825 28.0875,40.81 28.0875,39.3575 C28.0875,37.9225 26.915,36.7325 25.48,36.7325 L25.48,36.7325 Z" id="Shape" fill="#FFFFFF" fill-rule="nonzero"></path>
                    <path d="M28.175,45.5 C28.6475,45.5 29.05,45.885 29.05,46.375 C29.05,46.865 28.665,47.25 28.175,47.25 C27.685,47.25 27.3,46.865 27.3,46.375 C27.3,45.885 27.7025,45.5 28.175,45.5 L28.175,45.5 Z M28.1575,43.75 C26.7225,43.75 25.55,44.9225 25.55,46.375 C25.55,47.8275 26.7225,49 28.1575,49 C29.5925,49 30.765,47.8275 30.765,46.375 C30.765,44.9225 29.5925,43.75 28.1575,43.75 L28.1575,43.75 Z" id="Shape" fill="#FFFFFF" fill-rule="nonzero"></path>
                    <rect id="Rectangle" fill="#FFFFFF" fill-rule="nonzero" x="29.82" y="31.4825" width="12.18" height="1.75"></rect>
                    <rect id="Rectangle" fill="#FFFFFF" fill-rule="nonzero" x="14.175" y="31.4825" width="11.55" height="1.75"></rect>
                    <rect id="Rectangle" fill="#FFFFFF" fill-rule="nonzero" x="26.8625" y="38.4825" width="15.1375" height="1.75"></rect>
                    <rect id="Rectangle" fill="#FFFFFF" fill-rule="nonzero" x="14.175" y="38.4825" width="9.38" height="1.75"></rect>
                    <g id="Group" transform="translate(14.000000, 7.000000)" fill="#FFFFFF" fill-rule="nonzero">
                        <path d="M9.6075,14.4375 L8.365,13.2125 L8.9775,12.5825 C10.325,11.2 12.145,10.43 14.07,10.43 C15.9775,10.43 17.78,11.1825 19.1275,12.5475 L19.74,13.1775 L18.4975,14.4025 L17.885,13.79 C15.8375,11.7075 12.25,11.725 10.2025,13.825 L9.6075,14.4375 Z" id="Path"></path>
                        <path d="M5.495,10.9375 L4.2525,9.7125 L4.865,9.0825 C7.315,6.5625 10.605,5.18 14.0875,5.18 C17.5525,5.18 20.8075,6.545 23.2575,9.03 L23.87,9.6425 L22.645,10.885 L22.0325,10.2725 C19.915,8.12 17.0975,6.9475 14.105,6.9475 C11.0775,6.9475 8.2425,8.155 6.1075,10.325 L5.495,10.9375 Z" id="Path"></path>
                        <path d="M1.2425,7.5075 L0,6.2825 L0.6125,5.6525 C4.165,2.0125 8.9075,0 13.965,0 C18.97,0 23.695,1.9775 27.23,5.565 L27.8425,6.1775 L26.6175,7.42 L26.005,6.8075 C22.785,3.5525 18.515,1.75 13.965,1.75 C9.38,1.75 5.075,3.57 1.8375,6.895 L1.2425,7.5075 Z" id="Path"></path>
                    </g>
                    <rect id="Rectangle" x="0" y="0" width="56" height="56"></rect>
                </g>
            </g>
        </g>
    </g>
</svg>