<?xml version="1.0" encoding="UTF-8"?>
<svg width="80px" height="80px" viewBox="0 0 80 80" version="1.1" xmlns="http://www.w3.org/2000/svg" xmlns:xlink="http://www.w3.org/1999/xlink">
    <!-- Generator: Sketch 57.1 (83088) - https://sketch.com -->
    <title>199-B80px</title>
    <desc>Created with Sketch.</desc>
    <g id="199-B80px" stroke="none" stroke-width="1" fill="none" fill-rule="evenodd">
        <g>
            <path d="M67.45,25 L67.5,25.05 L67.45,52.475 L12.5,52.425 L12.55,25 L67.45,25 L67.45,25 Z M67.45,22.5 L12.55,22.5 C11.15,22.5 10,23.65 10,25.05 L10,52.425 C10,53.825 11.15,54.975 12.55,54.975 L67.45,54.975 C68.85,54.975 70,53.825 70,52.425 L70,25.05 C70,23.65 68.85,22.5 67.45,22.5 L67.45,22.5 Z" id="Shape" fill="#101828" fill-rule="nonzero"></path>
            <path d="M39.95,54.85 C29.175,54.85 21.1,56.5 17.5,57.4 L17.5,59.975 C20.6,59.175 28.85,57.35 39.95,57.35 C51.15,57.35 59.475,59.2 62.5,60 L62.5,57.425 C58.925,56.525 50.825,54.85 39.95,54.85 Z" id="Path" fill="#101828" fill-rule="nonzero"></path>
            <path d="M23.4,37.375 C21.1,36.925 20.8,36.375 20.8,35.9 C20.8,35.25 21.7,35.025 22.475,35.025 C23.475,35.025 24.2,35.425 24.8,36.35 L24.95,36.575 L27.275,35.325 L27.125,35.05 C26.25,33.35 24.725,32.5 22.525,32.5 C19.875,32.5 18.075,33.875 18.075,35.95 C18.075,37.875 19.475,39.2 22,39.675 C23.925,40.025 24.65,40.475 24.65,41.275 C24.65,42.025 23.9,42.5 22.775,42.5 C21.4,42.5 20.6,41.95 20.05,40.65 L19.925,40.35 L17.5,41.475 L17.575,41.725 C18.2,43.775 20.15,45 22.8,45 C25.875,45 27.5,43.075 27.5,41.175 C27.5,39.15 26.2,37.95 23.4,37.375 Z" id="Path" fill="#101828" fill-rule="nonzero"></path>
            <path d="M35,32.5 L30,45 L33.025,45 L34.2,41.9 L38.3,41.9 L39.475,45 L42.5,45 L37.5,32.5 L35,32.5 Z M36.25,36.425 C36.35,36.7 36.4,36.85 36.4,36.85 L37.3,39.25 L35.175,39.25 L36.075,36.85 C36.1,36.85 36.15,36.7 36.25,36.425 Z" id="Shape" fill="#101828" fill-rule="nonzero"></path>
            <polygon id="Path" fill="#101828" fill-rule="nonzero" points="47.5 32.5 45 32.5 45 44.975 52.5 44.975 52.5 42.475 47.5 42.475"></polygon>
            <polygon id="Path" fill="#101828" fill-rule="nonzero" points="57.5 42.475 57.5 39.975 62.5 39.975 62.5 37.475 57.5 37.475 57.5 34.975 62.5 34.975 62.45 32.5 55 32.5 55 44.975 62.5 44.975 62.5 42.475"></polygon>
            <rect id="Rectangle" x="0" y="0" width="80" height="80"></rect>
        </g>
    </g>
</svg>