<?xml version="1.0" encoding="UTF-8"?>
<svg width="40px" height="40px" viewBox="0 0 40 40" version="1.1" xmlns="http://www.w3.org/2000/svg" xmlns:xlink="http://www.w3.org/1999/xlink">
    <!-- Generator: Sketch 57.1 (83088) - https://sketch.com -->
    <title>130-B40px</title>
    <desc>Created with Sketch.</desc>
    <g id="130-B40px" stroke="none" stroke-width="1" fill="none" fill-rule="evenodd">
        <g>
            <path d="M20.0375,28.8875 C18.725,29.6 17.225,30 15.625,30 C10.45,30 6.25,25.8 6.25,20.625 C6.25,15.45 10.45,11.25 15.625,11.25 C20.8,11.25 25,15.45 25,20.625 C25.4,20.4625 25.8125,20.3375 26.225,20.2375 C26.025,14.55 21.3625,10 15.625,10 C9.7625,10 5,14.7625 5,20.625 C5,26.4875 9.7625,31.25 15.625,31.25 C17.2875,31.25 18.8625,30.85 20.275,30.175 C20.1625,29.75 20.075,29.325 20.0375,28.8875 Z" id="Path" fill="#101828" fill-rule="nonzero"></path>
            <path d="M28.125,22.5 C31.225,22.5 33.75,25.025 33.75,28.125 C33.75,31.225 31.225,33.75 28.125,33.75 C25.025,33.75 22.5,31.225 22.5,28.125 C22.5,25.025 25.025,22.5 28.125,22.5 L28.125,22.5 Z M28.125,21.25 C24.325,21.25 21.25,24.325 21.25,28.125 C21.25,31.925 24.325,35 28.125,35 C31.925,35 35,31.925 35,28.125 C35,24.325 31.925,21.25 28.125,21.25 L28.125,21.25 Z" id="Shape" fill="#101828" fill-rule="nonzero"></path>
            <polygon id="Path" fill="#101828" fill-rule="nonzero" points="25 27.5 25 28.75 27.5 28.75 27.5 31.25 28.75 31.25 28.75 28.75 31.25 28.75 31.25 27.5 28.75 27.5 28.75 25 27.5 25 27.5 27.5"></polygon>
            <g id="Group" transform="translate(11.250000, 15.000000)" fill="#101828" fill-rule="nonzero">
                <path d="M2.5,11.25 L1.25,11.25 L1.25,6.25 L0,6.25 L0,5 L1.25,5 L1.25,0 L5.675,0 C7.375,0 8.75,1.375 8.75,3.075 C8.75,4.825 7.325,6.25 5.575,6.25 L2.5,6.25 L2.5,11.25 Z M2.5,5 L5.575,5 C6.6375,5 7.5,4.1375 7.5,3.075 C7.5,2.0625 6.675,1.25 5.675,1.25 L2.5,1.25 L2.5,5 Z" id="Shape"></path>
                <rect id="Rectangle" x="0" y="7.5" width="6.25" height="1.25"></rect>
            </g>
            <rect id="Rectangle" x="0" y="0" width="40" height="40"></rect>
        </g>
    </g>
</svg>