<?xml version="1.0" encoding="UTF-8"?>
<svg width="80px" height="80px" viewBox="0 0 80 80" version="1.1" xmlns="http://www.w3.org/2000/svg" xmlns:xlink="http://www.w3.org/1999/xlink">
    <!-- Generator: Sketch 57.1 (83088) - https://sketch.com -->
    <title>130-B80px</title>
    <desc>Created with Sketch.</desc>
    <g id="130-B80px" stroke="none" stroke-width="1" fill="none" fill-rule="evenodd">
        <g>
            <path d="M40.075,57.775 C37.45,59.2 34.45,60 31.25,60 C20.9,60 12.5,51.6 12.5,41.25 C12.5,30.9 20.9,22.5 31.25,22.5 C41.6,22.5 50,30.9 50,41.25 C50.8,40.925 51.625,40.675 52.45,40.475 C52.05,29.1 42.725,20 31.25,20 C19.525,20 10,29.525 10,41.25 C10,52.975 19.525,62.5 31.25,62.5 C34.575,62.5 37.725,61.7 40.55,60.35 C40.325,59.5 40.15,58.65 40.075,57.775 Z" id="Path" fill="#101828" fill-rule="nonzero"></path>
            <path d="M56.25,45 C62.45,45 67.5,50.05 67.5,56.25 C67.5,62.45 62.45,67.5 56.25,67.5 C50.05,67.5 45,62.45 45,56.25 C45,50.05 50.05,45 56.25,45 L56.25,45 Z M56.25,42.5 C48.65,42.5 42.5,48.65 42.5,56.25 C42.5,63.85 48.65,70 56.25,70 C63.85,70 70,63.85 70,56.25 C70,48.65 63.85,42.5 56.25,42.5 L56.25,42.5 Z" id="Shape" fill="#101828" fill-rule="nonzero"></path>
            <polygon id="Path" fill="#101828" fill-rule="nonzero" points="50 55 50 57.5 55 57.5 55 62.5 57.5 62.5 57.5 57.5 62.5 57.5 62.5 55 57.5 55 57.5 50 55 50 55 55"></polygon>
            <g id="Group" transform="translate(22.500000, 30.000000)" fill="#101828" fill-rule="nonzero">
                <path d="M5,22.5 L2.5,22.5 L2.5,12.5 L0,12.5 L0,10 L2.5,10 L2.5,0 L11.35,0 C14.75,0 17.5,2.75 17.5,6.15 C17.5,9.65 14.65,12.5 11.15,12.5 L5,12.5 L5,22.5 Z M5,10 L11.15,10 C13.275,10 15,8.275 15,6.15 C15,4.125 13.35,2.5 11.35,2.5 L5,2.5 L5,10 Z" id="Shape"></path>
                <rect id="Rectangle" x="0" y="15" width="12.5" height="2.5"></rect>
            </g>
            <rect id="Rectangle" x="0" y="0" width="80" height="80"></rect>
        </g>
    </g>
</svg>