<?xml version="1.0" encoding="UTF-8"?>
<svg width="80px" height="80px" viewBox="0 0 80 80" version="1.1" xmlns="http://www.w3.org/2000/svg" xmlns:xlink="http://www.w3.org/1999/xlink">
    <!-- Generator: Sketch 57.1 (83088) - https://sketch.com -->
    <title>203-W80px</title>
    <desc>Created with Sketch.</desc>
    <g id="NEW_icons" stroke="none" stroke-width="1" fill="none" fill-rule="evenodd">
        <g id="icons_UD_new-Copy" transform="translate(-2151.000000, -25839.000000)">
            <g id="203-W80px" transform="translate(2151.000000, 25839.000000)">
                <circle id="Oval-Copy-1207" fill="#101828" cx="40" cy="40" r="40"></circle>
                <g id="203-B32px-Copy-8" transform="translate(12.000000, 12.000000)">
                    <path d="M47.215,17.5 L47.25,17.535 L47.215,36.75 L8.75,36.715 L8.785,17.5 L47.215,17.5 L47.215,17.5 Z M47.215,15.75 L8.785,15.75 C7.805,15.75 7,16.555 7,17.535 L7,36.715 C7,37.695 7.805,38.5 8.785,38.5 L47.215,38.5 C48.195,38.5 49,37.695 49,36.715 L49,17.535 C49,16.555 48.195,15.75 47.215,15.75 L47.215,15.75 Z" id="Shape" fill="#FFFFFF" fill-rule="nonzero"></path>
                    <path d="M27.965,38.4125 C20.4225,38.4125 14.77,39.5675 12.25,40.1975 L12.25,42 C14.42,41.44 20.195,40.1625 27.965,40.1625 C35.805,40.1625 41.6325,41.4575 43.75,42.0175 L43.75,40.215 C41.2475,39.5675 35.5775,38.4125 27.965,38.4125 Z" id="Path" fill="#FFFFFF" fill-rule="nonzero"></path>
                    <polygon id="Path" fill="#FFFFFF" fill-rule="nonzero" points="15.75 22.7675 15.75 26.2675 13.9475 22.7675 12.25 22.7675 12.25 29.75 14 29.75 14 26.7925 15.75 29.645 15.82 29.75 17.5 29.75 17.5 22.7675"></polygon>
                    <polygon id="Path" fill="#FFFFFF" fill-rule="nonzero" points="20.0725 28.0175 20.0725 27.0375 22.75 27.0375 22.75 25.48 20.0725 25.48 20.0725 24.5175 22.75 24.5175 22.75 22.7675 18.3225 22.7675 18.3225 29.75 22.75 29.75 22.75 28.0175"></polygon>
                    <polygon id="Path" fill="#FFFFFF" fill-rule="nonzero" points="30.4325 22.7675 29.575 26.775 28.6825 22.7675 26.9325 22.7675 26.005 26.775 25.1825 22.7675 25.1825 22.7675 23.4325 22.7675 25.1125 29.575 25.165 29.75 26.9325 29.75 27.79 25.725 28.6825 29.75 30.4325 29.75 32.1825 22.7675 32.1825 22.7675"></polygon>
                    <path d="M35.21,25.4625 C34.0725,25.2175 33.915,24.9375 33.915,24.6925 C33.915,24.3775 34.335,24.255 34.7025,24.255 C35.1925,24.255 35.5425,24.465 35.84,24.955 L35.945,25.13 L37.24,24.3775 L37.1525,24.2025 C36.68,23.24 35.8925,22.7675 34.72,22.7675 C33.32,22.7675 32.375,23.555 32.375,24.71 C32.375,25.795 33.11,26.53 34.4575,26.81 C35.56,27.0375 35.7875,27.2825 35.7875,27.6325 C35.7875,28.0175 35.4375,28.2625 34.8775,28.2625 C34.2125,28.2625 33.81,27.965 33.5475,27.2825 L33.46,27.055 L32.0775,27.72 L32.13,27.895 C32.4625,29.05 33.495,29.7325 34.895,29.7325 C36.5225,29.7325 37.38,28.6475 37.38,27.58 C37.38,26.46 36.6975,25.7775 35.21,25.4625 Z" id="Path" fill="#FFFFFF" fill-rule="nonzero"></path>
                    <polygon id="Path" fill="#FFFFFF" fill-rule="nonzero" points="40.2325 23.6425 41.9825 23.6425 41.9825 25.3925 43.7325 25.3925 43.7325 27.1425 41.9825 27.1425 41.9825 28.8925 40.2325 28.8925 40.2325 27.1425 38.4825 27.1425 38.4825 25.3925 40.2325 25.3925"></polygon>
                    <rect id="Rectangle" x="0" y="0" width="56" height="56"></rect>
                </g>
            </g>
        </g>
    </g>
</svg>