<?xml version="1.0" encoding="UTF-8"?>
<svg width="80px" height="80px" viewBox="0 0 80 80" version="1.1" xmlns="http://www.w3.org/2000/svg" xmlns:xlink="http://www.w3.org/1999/xlink">
    <!-- Generator: Sketch 57.1 (83088) - https://sketch.com -->
    <title>100-W80px</title>
    <desc>Created with Sketch.</desc>
    <g id="NEW_icons" stroke="none" stroke-width="1" fill="none" fill-rule="evenodd">
        <g id="icons_UD_new-Copy" transform="translate(-869.000000, -13031.000000)">
            <g id="100-W80px" transform="translate(869.000000, 13031.000000)">
                <circle id="Oval-Copy-616" fill="#101828" cx="40" cy="40" r="40"></circle>
                <g id="100-B32px-Copy-8" transform="translate(12.000000, 12.000000)">
                    <path d="M32.3225,22.75 L32.3225,31.5 L30.5725,31.5 L30.5725,22.75 L32.3225,22.75 L32.3225,22.75 Z M34.0725,21 L28.8225,21 L28.8225,33.25 L34.0725,33.25 L34.0725,21 L34.0725,21 Z" id="Shape" fill="#FFFFFF" fill-rule="nonzero"></path>
                    <path d="M25.3575,22.75 L25.3575,31.5 L23.6075,31.5 L23.6075,22.75 L25.3575,22.75 L25.3575,22.75 Z M27.1075,21 L21.8575,21 L21.8575,33.25 L27.1075,33.25 L27.1075,21 L27.1075,21 Z" id="Shape" fill="#FFFFFF" fill-rule="nonzero"></path>
                    <path d="M47.215,17.5 L47.25,17.535 L47.215,36.785 L8.75,36.75 L8.785,17.5 L47.215,17.5 L47.215,17.5 Z M47.215,15.75 L8.785,15.75 C7.805,15.75 7,16.555 7,17.535 L7,36.75 C7,37.73 7.805,38.535 8.785,38.535 L47.215,38.535 C48.195,38.535 49,37.73 49,36.75 L49,17.535 C49,16.555 48.195,15.75 47.215,15.75 L47.215,15.75 Z" id="Shape" fill="#FFFFFF" fill-rule="nonzero"></path>
                    <path d="M27.965,38.4125 C20.4225,38.4125 14.77,39.5675 12.25,40.1975 L12.25,42 C14.4025,41.44 20.195,40.1625 27.965,40.1625 C35.805,40.1625 41.6325,41.4575 43.75,42.0175 L43.75,40.215 C41.2475,39.5675 35.5775,38.4125 27.965,38.4125 Z" id="Path" fill="#FFFFFF" fill-rule="nonzero"></path>
                    <rect id="Rectangle" x="0" y="0" width="56" height="56"></rect>
                </g>
            </g>
        </g>
    </g>
</svg>