<?xml version="1.0" encoding="UTF-8"?>
<svg width="80px" height="80px" viewBox="0 0 80 80" version="1.1" xmlns="http://www.w3.org/2000/svg" xmlns:xlink="http://www.w3.org/1999/xlink">
    <!-- Generator: Sketch 57.1 (83088) - https://sketch.com -->
    <title>243-G80px</title>
    <desc>Created with Sketch.</desc>
    <g id="NEW_icons" stroke="none" stroke-width="1" fill="none" fill-rule="evenodd">
        <g id="icons_UD_new-Copy" transform="translate(-2050.000000, -30873.000000)">
            <g id="243-G80px" transform="translate(2050.000000, 30873.000000)">
                <circle id="Oval-Copy-806" fill="#E3E8EC" cx="40" cy="40" r="40"></circle>
                <g id="243-B32px-Copy-6" transform="translate(12.000000, 12.000000)">
                    <polygon id="Rectangle" fill="#101828" fill-rule="nonzero" transform="translate(25.368288, 14.880487) rotate(-45.000000) translate(-25.368288, -14.880487) " points="15.4721328 14.0054955 35.264443 14.0054955 35.264443 15.7554787 15.4721328 15.7554787"></polygon>
                    <polygon id="Path" fill="#101828" fill-rule="nonzero" points="33.25 14 31.5 14 31.5 8.75 26.25 8.75 26.25 7 33.25 7"></polygon>
                    <rect id="Rectangle" fill="#101828" fill-rule="nonzero" x="7" y="47.25" width="42" height="1.75"></rect>
                    <path d="M45.5,19.25 L45.5,47.25 L38.5,47.25 L38.5,19.25 L45.5,19.25 L45.5,19.25 Z M45.5,17.5 L38.5,17.5 C37.5375,17.5 36.75,18.2875 36.75,19.25 L36.75,47.25 C36.75,48.2125 37.5375,49 38.5,49 L45.5,49 C46.4625,49 47.25,48.2125 47.25,47.25 L47.25,19.25 C47.25,18.2875 46.4625,17.5 45.5,17.5 L45.5,17.5 Z" id="Shape" fill="#101828" fill-rule="nonzero"></path>
                    <path d="M31.5,28 L31.5,47.25 L24.5,47.25 L24.5,28 L31.5,28 L31.5,28 Z M31.5,26.25 L24.5,26.25 C23.5375,26.25 22.75,27.0375 22.75,28 L22.75,47.25 C22.75,48.2125 23.5375,49 24.5,49 L31.5,49 C32.4625,49 33.25,48.2125 33.25,47.25 L33.25,28 C33.25,27.0375 32.4625,26.25 31.5,26.25 L31.5,26.25 Z" id="Shape" fill="#101828" fill-rule="nonzero"></path>
                    <path d="M17.5,36.75 L17.5,47.25 L10.5,47.25 L10.5,36.75 L17.5,36.75 L17.5,36.75 Z M17.5,35 L10.5,35 C9.5375,35 8.75,35.7875 8.75,36.75 L8.75,47.25 C8.75,48.2125 9.5375,49 10.5,49 L17.5,49 C18.4625,49 19.25,48.2125 19.25,47.25 L19.25,36.75 C19.25,35.7875 18.4625,35 17.5,35 L17.5,35 Z" id="Shape" fill="#101828" fill-rule="nonzero"></path>
                    <rect id="Rectangle" x="0" y="0" width="56" height="56"></rect>
                </g>
            </g>
        </g>
    </g>
</svg>