<?xml version="1.0" encoding="UTF-8"?>
<svg width="56px" height="56px" viewBox="0 0 56 56" version="1.1" xmlns="http://www.w3.org/2000/svg" xmlns:xlink="http://www.w3.org/1999/xlink">
    <!-- Generator: Sketch 56.3 (81716) - https://sketch.com -->
    <title>017-W56px</title>
    <desc>Created with Sketch.</desc>
    <g id="NEW_icons" stroke="none" stroke-width="1" fill="none" fill-rule="evenodd">
        <g id="icons_UD_new-Copy" transform="translate(-1814.000000, -2357.000000)">
            <g id="017-W56px" transform="translate(1814.000000, 2357.000000)">
                <g id="003-B32px-Copy-39" transform="translate(8.000000, 8.000000)">
                    <g id="Group" transform="translate(10.000000, 5.000000)" fill="#FFFFFF" fill-rule="nonzero">
                        <path d="M18.6875,0 L1.3125,0 C0.5875,0 0,0.5875 0,1.3125 L0,23.75 L0,25 L0,28.6875 C0,29.4125 0.5875,30 1.3125,30 L18.6875,30 C19.4125,30 20,29.4125 20,28.6875 L20,25 L20,23.75 L20,1.3125 C20,0.5875 19.4125,0 18.6875,0 Z M18.75,28.6875 C18.75,28.725 18.725,28.75 18.6875,28.75 L1.3125,28.75 C1.275,28.75 1.25,28.725 1.25,28.6875 L1.25,25 L18.75,25 L18.75,28.6875 Z M1.25,23.75 L1.25,1.3125 C1.25,1.275 1.275,1.25 1.3125,1.25 L18.6875,1.25 C18.725,1.25 18.75,1.275 18.75,1.3125 L18.75,23.75 L1.25,23.75 Z" id="Shape"></path>
                        <path d="M10,27.4875 C10.3375,27.4875 10.625,27.2125 10.625,26.8625 C10.625,26.525 10.35,26.2375 10,26.2375 C9.65,26.2375 9.375,26.5125 9.375,26.8625 C9.375,27.2125 9.6625,27.4875 10,27.4875 Z" id="Path"></path>
                        <path d="M12.5125,20 L7.5,20.0125 L7.5,16.25 L6.25,16.25 L6.25,20.0125 C6.25,20.6875 6.8,21.25 7.4875,21.25 L12.525,21.25 C13.2,21.25 13.7625,20.7 13.7625,20.0125 L13.7625,16.25 L12.5125,16.25 L12.5125,20 Z" id="Path"></path>
                        <polygon id="Path" points="4.775 15.575 5.5625 16.5375 10 12.875 14.4375 16.5375 15.225 15.575 10 11.2625"></polygon>
                        <path d="M12.6,7.3125 C11.925,6.65 11.0125,6.25 10,6.25 C8.9625,6.25 8.025,6.675 7.35,7.35 L8.2375,8.2375 C8.6875,7.775 9.3125,7.5 10,7.5 C10.6625,7.5 11.275,7.7625 11.7125,8.1875 L12.6,7.3125 Z" id="Path"></path>
                        <path d="M9.1125,9.1125 L9.95,9.95 L10.825,9.075 C10.6125,8.875 10.325,8.75 10,8.75 C9.65,8.75 9.3375,8.8875 9.1125,9.1125 Z" id="Path"></path>
                        <path d="M10,5 C11.35,5 12.5875,5.55 13.4875,6.425 L14.375,5.5375 C13.2375,4.4375 11.7,3.75 10,3.75 C8.275,3.75 6.7125,4.45 5.575,5.575 L6.4625,6.4625 C7.375,5.5625 8.625,5 10,5 Z" id="Path"></path>
                    </g>
                    <rect id="Rectangle" x="0" y="0" width="40" height="40"></rect>
                </g>
                <circle id="Oval-Copy-185" fill="#101828" cx="28" cy="28" r="28"></circle>
                <g id="017-B32px-Copy-5" transform="translate(8.000000, 8.000000)">
                    <g id="Group" transform="translate(5.000000, 6.250000)" fill="#FFFFFF" fill-rule="nonzero">
                        <path d="M12.45,24.9125 C10.4625,24.5125 8.7125,22.3375 7.6875,19.275 L10.05,19.275 C10.025,18.9 10,18.5125 10,18.125 C10,18.0875 10,18.0625 10,18.025 L7.3375,18.025 C7,16.7 6.8,15.2625 6.75,13.75 L10.95,13.75 C11.15,13.3125 11.375,12.9 11.625,12.5 L6.75,12.5 C6.8,10.9875 7,9.55 7.325,8.225 L16.7875,8.225 C17.7875,7.8375 18.8625,7.6 19.975,7.5375 C19.3375,5.225 18.325,3.275 17.075,1.95 C20.0375,3 22.4625,5.2 23.8125,8 C24.3875,8.175 24.925,8.4125 25.45,8.675 C23.6375,3.6125 18.8125,0 13.125,0 C13.125,0 13.1125,0 13.1125,0 C13.1125,0 13.1125,0 13.1,0 C13.0875,0 13.0875,0 13.075,0 C5.85,0.025 0,5.8875 0,13.125 C0,20.3625 5.85,26.225 13.075,26.25 C13.0875,26.25 13.0875,26.25 13.1,26.25 C13.1,26.25 13.1,26.25 13.1125,26.25 C13.1125,26.25 13.125,26.25 13.125,26.25 C13.3375,26.25 13.5375,26.225 13.75,26.2125 C13.2875,25.825 12.85,25.3875 12.45,24.9125 Z M13.75,1.3125 C15.7375,1.7 17.4875,3.9 18.5125,6.975 L13.75,6.975 L13.75,1.3125 Z M12.5,1.3125 L12.5,6.975 L7.7,6.975 C8.725,3.8875 10.4875,1.675 12.5,1.3125 Z M9.1125,1.9625 C7.9625,3.1875 7.0125,4.9125 6.375,6.975 L2.9875,6.975 C4.3875,4.675 6.5375,2.8875 9.1125,1.9625 Z M2.325,8.225 L6.05,8.225 C5.725,9.55 5.55,11 5.5,12.5 L1.2875,12.5 C1.3625,10.9875 1.725,9.5375 2.325,8.225 Z M1.2875,13.75 L5.5,13.75 C5.5375,15.25 5.725,16.7 6.0375,18.025 L2.325,18.025 C1.725,16.7125 1.3625,15.2625 1.2875,13.75 Z M2.9875,19.275 L6.375,19.275 C7.0125,21.3375 7.9625,23.0625 9.1125,24.2875 C6.5375,23.3625 4.3875,21.575 2.9875,19.275 Z" id="Shape"></path>
                        <polygon id="Rectangle" transform="translate(26.245040, 23.734782) rotate(-44.975691) translate(-26.245040, -23.734782) " points="25.6200459 22.8222912 26.8700341 22.8222912 26.8700341 24.6472738 25.6200459 24.6472738"></polygon>
                        <polygon id="Rectangle" transform="translate(15.006839, 12.500411) rotate(-45.000000) translate(-15.006839, -12.500411) " points="14.3818447 11.58792 15.6318328 11.58792 15.6318328 13.4129025 14.3818447 13.4129025"></polygon>
                        <polygon id="Rectangle" transform="translate(26.252839, 12.508714) rotate(-45.000000) translate(-26.252839, -12.508714) " points="25.3403475 11.8837197 27.16533 11.8837197 27.16533 13.1337078 25.3403475 13.1337078"></polygon>
                        <polygon id="Rectangle" transform="translate(15.007875, 23.737448) rotate(-45.000000) translate(-15.007875, -23.737448) " points="14.0953838 23.1124535 15.9203662 23.1124535 15.9203662 24.3624415 14.0953838 24.3624415"></polygon>
                        <rect id="Rectangle" x="20" y="9.2625" width="1.25" height="1.825"></rect>
                        <rect id="Rectangle" x="20" y="25.15" width="1.25" height="1.825"></rect>
                        <rect id="Rectangle" x="11.575" y="17.5" width="2.0125" height="1.25"></rect>
                        <rect id="Rectangle" x="27.65" y="17.5" width="2.025" height="1.25"></rect>
                        <polygon id="Rectangle" transform="translate(22.447250, 16.300460) rotate(-45.000000) translate(-22.447250, -16.300460) " points="20.7847659 15.675466 24.1097341 15.675466 24.1097341 16.925454 20.7847659 16.925454"></polygon>
                        <path d="M20.625,16.9625 C19.9875,16.9625 19.4625,17.4875 19.4625,18.125 C19.4625,18.7625 19.9875,19.2875 20.625,19.2875 C21.2625,19.2875 21.7875,18.7625 21.7875,18.125 C21.7875,17.4875 21.275,16.9625 20.625,16.9625 L20.625,16.9625 Z" id="Path"></path>
                        <path d="M20.625,10 C25.1,10 28.75,13.65 28.75,18.125 C28.75,22.6 25.1,26.25 20.625,26.25 C16.15,26.25 12.5,22.6 12.5,18.125 C12.5,13.65 16.15,10 20.625,10 L20.625,10 Z M20.625,8.75 C15.45,8.75 11.25,12.95 11.25,18.125 C11.25,23.3 15.45,27.5 20.625,27.5 C25.8,27.5 30,23.3 30,18.125 C30,12.95 25.8,8.75 20.625,8.75 L20.625,8.75 Z" id="Shape"></path>
                        <path d="M22.5,21.25 L22.5,22.5 L18.75,22.5 L18.75,21.25 L22.5,21.25 L22.5,21.25 Z M22.7125,20 L18.55,20 C17.9625,20 17.5,20.4625 17.5,21.0375 L17.5,22.7 C17.5,23.275 17.9625,23.7375 18.5375,23.7375 L22.7,23.7375 C23.275,23.7375 23.7375,23.275 23.7375,22.7 L23.7375,21.0375 C23.75,20.4625 23.2875,20 22.7125,20 L22.7125,20 Z" id="Shape"></path>
                    </g>
                    <rect id="Rectangle" x="0" y="0" width="40" height="40"></rect>
                </g>
            </g>
        </g>
    </g>
</svg>