<?xml version="1.0" encoding="UTF-8"?>
<svg width="80px" height="80px" viewBox="0 0 80 80" version="1.1" xmlns="http://www.w3.org/2000/svg" xmlns:xlink="http://www.w3.org/1999/xlink">
    <!-- Generator: Sketch 57.1 (83088) - https://sketch.com -->
    <title>217-B80px</title>
    <desc>Created with Sketch.</desc>
    <g id="217-B80px" stroke="none" stroke-width="1" fill="none" fill-rule="evenodd">
        <g>
            <rect id="Rectangle" fill="#101828" fill-rule="nonzero" x="52.5" y="30" width="2.5" height="17.5"></rect>
            <rect id="Rectangle" fill="#101828" fill-rule="nonzero" x="47.5" y="32.5" width="2.5" height="15"></rect>
            <rect id="Rectangle" fill="#101828" fill-rule="nonzero" x="42.5" y="35" width="2.5" height="12.5"></rect>
            <rect id="Rectangle" fill="#101828" fill-rule="nonzero" x="32.5" y="40" width="2.5" height="7.5"></rect>
            <rect id="Rectangle" fill="#101828" fill-rule="nonzero" x="37.5" y="37.5" width="2.5" height="10"></rect>
            <rect id="Rectangle" fill="#101828" fill-rule="nonzero" x="27.5" y="45" width="32.5" height="2.5"></rect>
            <polygon id="Rectangle" fill="#101828" fill-rule="nonzero" transform="translate(28.216865, 31.898089) rotate(-45.474044) translate(-28.216865, -31.898089) " points="20.3297284 30.6481463 36.1040016 30.6481463 36.1040016 33.1480312 20.3297284 33.1480312"></polygon>
            <polygon id="Path" fill="#101828" fill-rule="nonzero" points="35 32.5 32.5 32.5 32.5 27.525 27.5 27.525 27.5 25.025 35 25.025"></polygon>
            <path d="M67.525,17.5 L12.475,17.5 C11.1,17.5 10,18.6 10,19.975 L10,47.5 L12.475,47.5 L12.475,20 L67.5,20 L67.525,52.5 L25.675,52.5 C24.7,52.5 23.725,52.8 22.925,53.35 L16.65,57.55 L10,62.075 L10,65 L24.3,55.425 C24.725,55.15 25.2,55 25.675,55 L67.525,55 C68.875,55 70,53.9 70,52.525 L70,19.975 C70,18.6 68.9,17.5 67.525,17.5 Z" id="Path" fill="#101828" fill-rule="nonzero"></path>
            <rect id="Rectangle" x="0" y="0" width="80" height="80"></rect>
        </g>
    </g>
</svg>