<?xml version="1.0" encoding="UTF-8"?>
<svg width="80px" height="80px" viewBox="0 0 80 80" version="1.1" xmlns="http://www.w3.org/2000/svg" xmlns:xlink="http://www.w3.org/1999/xlink">
    <!-- Generator: Sketch 57.1 (83088) - https://sketch.com -->
    <title>184-B80px</title>
    <desc>Created with Sketch.</desc>
    <g id="184-B80px" stroke="none" stroke-width="1" fill="none" fill-rule="evenodd">
        <g>
            <rect id="Rectangle" fill="#101828" fill-rule="nonzero" x="42.35" y="65" width="17.65" height="2.5"></rect>
            <rect id="Rectangle" fill="#101828" fill-rule="nonzero" x="20.25" y="65" width="17.4" height="2.5"></rect>
            <path d="M40.15,44.975 C40.825,44.975 41.4,45.525 41.4,46.225 C41.4,46.925 40.85,47.475 40.15,47.475 C39.475,47.475 38.9,46.925 38.9,46.225 C38.9,45.55 39.45,44.975 40.15,44.975 L40.15,44.975 Z M40.1,42.475 C38.05,42.475 36.375,44.15 36.375,46.225 C36.375,48.3 38.05,49.975 40.1,49.975 C42.15,49.975 43.825,48.3 43.825,46.225 C43.85,44.175 42.175,42.475 40.1,42.475 L40.1,42.475 Z" id="Shape" fill="#101828" fill-rule="nonzero"></path>
            <path d="M36.425,54.975 C37.1,54.975 37.675,55.525 37.675,56.225 C37.675,56.925 37.125,57.475 36.425,57.475 C35.75,57.475 35.175,56.925 35.175,56.225 C35.175,55.55 35.725,54.975 36.425,54.975 L36.425,54.975 Z M36.4,52.475 C34.35,52.475 32.675,54.15 32.675,56.225 C32.675,58.3 34.35,59.975 36.4,59.975 C38.45,59.975 40.125,58.3 40.125,56.225 C40.125,54.175 38.45,52.475 36.4,52.475 L36.4,52.475 Z" id="Shape" fill="#101828" fill-rule="nonzero"></path>
            <path d="M40.25,65 C40.925,65 41.5,65.55 41.5,66.25 C41.5,66.95 40.95,67.5 40.25,67.5 C39.55,67.5 39,66.95 39,66.25 C39,65.55 39.575,65 40.25,65 L40.25,65 Z M40.225,62.5 C38.175,62.5 36.5,64.175 36.5,66.25 C36.5,68.325 38.175,70 40.225,70 C42.275,70 43.95,68.325 43.95,66.25 C43.95,64.175 42.275,62.5 40.225,62.5 L40.225,62.5 Z" id="Shape" fill="#101828" fill-rule="nonzero"></path>
            <rect id="Rectangle" fill="#101828" fill-rule="nonzero" x="42.6" y="44.975" width="17.4" height="2.5"></rect>
            <rect id="Rectangle" fill="#101828" fill-rule="nonzero" x="20.25" y="44.975" width="16.5" height="2.5"></rect>
            <rect id="Rectangle" fill="#101828" fill-rule="nonzero" x="38.375" y="54.975" width="21.625" height="2.5"></rect>
            <rect id="Rectangle" fill="#101828" fill-rule="nonzero" x="20.25" y="54.975" width="13.4" height="2.5"></rect>
            <g id="Group" transform="translate(20.000000, 10.000000)" fill="#101828" fill-rule="nonzero">
                <path d="M13.725,20.625 L11.95,18.875 L12.825,17.975 C14.75,16 17.35,14.9 20.1,14.9 C22.825,14.9 25.4,15.975 27.325,17.925 L28.2,18.825 L26.425,20.575 L25.55,19.7 C22.625,16.725 17.5,16.75 14.575,19.75 L13.725,20.625 Z" id="Path"></path>
                <path d="M7.85,15.625 L6.075,13.875 L6.95,12.975 C10.45,9.375 15.15,7.4 20.125,7.4 C25.075,7.4 29.725,9.35 33.225,12.9 L34.1,13.775 L32.35,15.55 L31.475,14.675 C28.45,11.6 24.425,9.925 20.15,9.925 C15.825,9.925 11.775,11.65 8.725,14.75 L7.85,15.625 Z" id="Path"></path>
                <path d="M1.775,10.725 L0,8.975 L0.875,8.075 C5.95,2.875 12.725,0 19.95,0 C27.1,0 33.85,2.825 38.9,7.95 L39.775,8.825 L38.025,10.6 L37.15,9.725 C32.55,5.075 26.45,2.5 19.95,2.5 C13.4,2.5 7.25,5.1 2.625,9.85 L1.775,10.725 Z" id="Path"></path>
            </g>
            <rect id="Rectangle" x="0" y="0" width="80" height="80"></rect>
        </g>
    </g>
</svg>