<?xml version="1.0" encoding="UTF-8"?>
<svg width="80px" height="80px" viewBox="0 0 80 80" version="1.1" xmlns="http://www.w3.org/2000/svg" xmlns:xlink="http://www.w3.org/1999/xlink">
    <!-- Generator: Sketch 58 (84663) - https://sketch.com -->
    <title>259-B80px</title>
    <desc>Created with Sketch.</desc>
    <g id="259-B80px" stroke="none" stroke-width="1" fill="none" fill-rule="evenodd">
        <g id="259-B32px">
            <g>
                <path d="M40,56.25 C40,55.55 40.05,54.85 40.15,54.175 C32.075,49.975 25.8,43.6 25.725,43.5 C25.6,43.35 13.925,31.15 12.5,19.125 C12.5,19.05 12.5,18.925 12.575,18.85 L19.125,12.525 C19.175,12.475 19.225,12.45 19.3,12.45 C19.375,12.45 19.425,12.5 19.425,12.5 L29.3,22.7 C29.375,22.775 29.35,22.925 29.275,23 L24.9,27.225 L23.7,28.4 L24.325,29.95 C24.425,30.2 26.75,35.875 30.075,39.3 C33.4,42.725 39,45.25 39.25,45.35 L40.8,46.025 L42,44.85 L46.375,40.625 C46.425,40.575 46.475,40.55 46.55,40.55 C46.625,40.55 46.675,40.6 46.675,40.6 L48.175,42.15 C48.925,41.7 49.725,41.325 50.55,41.025 L48.45,38.85 C47.925,38.3 47.225,38.025 46.525,38.025 C45.85,38.025 45.15,38.275 44.625,38.8 L40.25,43.025 C40.25,43.025 34.9,40.65 31.875,37.525 C28.85,34.4 26.65,28.975 26.65,28.975 L31.025,24.75 C32.1,23.7 32.15,22 31.1,20.925 L21.2,10.75 C20.675,10.225 19.975,9.95 19.275,9.95 C18.6,9.95 17.9,10.2 17.375,10.725 L10.825,17.05 C10.2,17.675 9.925,18.525 10.025,19.4 C11.575,32.45 23.925,45.2 23.925,45.2 C23.925,45.2 30.95,52.45 40.025,56.875 C40.025,56.675 40,56.475 40,56.25 Z" id="Path" fill="#101828" fill-rule="nonzero"></path>
                <path d="M57.1,66.775 C50.8,66.775 45.7,61.65 45.7,55.375 L48.2,55.375 C48.2,60.275 52.2,64.275 57.1,64.275 L57.1,66.775 Z" id="Path" fill="#101828" fill-rule="nonzero"></path>
                <path d="M66.925,56.975 L64.425,56.975 C64.425,52.075 60.425,48.075 55.525,48.075 L55.525,45.575 C61.8,45.575 66.925,50.675 66.925,56.975 Z" id="Path" fill="#101828" fill-rule="nonzero"></path>
                <path d="M56.25,45 C62.45,45 67.5,50.05 67.5,56.25 C67.5,62.45 62.45,67.5 56.25,67.5 C50.05,67.5 45,62.45 45,56.25 C45,50.05 50.05,45 56.25,45 L56.25,45 Z M56.25,42.5 C48.65,42.5 42.5,48.65 42.5,56.25 C42.5,63.85 48.65,70 56.25,70 C63.85,70 70,63.85 70,56.25 C70,48.65 63.85,42.5 56.25,42.5 L56.25,42.5 Z" id="Shape" fill="#101828" fill-rule="nonzero"></path>
                <path d="M56.225,45 C62.425,45 67.475,50.05 67.475,56.25 C67.475,62.45 62.425,67.5 56.225,67.5 C50.025,67.5 44.975,62.45 44.975,56.25 C44.975,50.05 50.025,45 56.225,45 L56.225,45 Z M56.225,42.5 C48.625,42.5 42.475,48.65 42.475,56.25 C42.475,63.85 48.625,70 56.225,70 C63.825,70 69.975,63.85 69.975,56.25 C69.975,48.65 63.825,42.5 56.225,42.5 L56.225,42.5 Z" id="Shape" fill="#101828" fill-rule="nonzero"></path>
                <rect id="Rectangle" fill="#101828" fill-rule="nonzero" x="55" y="55" width="2.5" height="7.5"></rect>
                <rect id="Rectangle" fill="#101828" fill-rule="nonzero" x="55" y="51.25" width="2.5" height="2.5"></rect>
                <rect id="Rectangle" x="0" y="0" width="80" height="80"></rect>
            </g>
        </g>
    </g>
</svg>