<?xml version="1.0" encoding="UTF-8"?>
<svg width="80px" height="80px" viewBox="0 0 80 80" version="1.1" xmlns="http://www.w3.org/2000/svg" xmlns:xlink="http://www.w3.org/1999/xlink">
    <!-- Generator: Sketch 57.1 (83088) - https://sketch.com -->
    <title>114-B80px</title>
    <desc>Created with Sketch.</desc>
    <g id="114-B80px" stroke="none" stroke-width="1" fill="none" fill-rule="evenodd">
        <g>
            <path d="M67.5,22.5 L57.475,22.5 C57.475,19.175 57.1,16.325 56.7,14.175 C56.4,12.625 55.125,11.65 53.75,11.65 C53.225,11.65 52.675,11.8 52.175,12.125 L44.375,17.175 C43.925,16.65 43.275,16.275 42.5,16.275 L37.5,16.275 C36.725,16.275 36.075,16.625 35.625,17.175 L27.825,12.125 C27.325,11.8 26.775,11.65 26.25,11.65 C24.9,11.65 23.6,12.625 23.3,14.175 C22.875,16.325 22.525,19.175 22.525,22.5 L12.5,22.5 C11.125,22.5 10,23.625 10,25 L10,32.5 C10,33.875 11.125,35 12.5,35 L12.5,65 C12.5,66.375 13.625,67.5 15,67.5 L35,67.5 L45,67.5 L65,67.5 C66.375,67.5 67.5,66.375 67.5,65 L67.5,35 C68.875,35 70,33.875 70,32.5 L70,25 C70,23.625 68.875,22.5 67.5,22.5 Z M35,65 L15,65 L15,35 L35,35 L35,65 Z M35,25.525 L35,28.5 L35,32.5 L28.85,32.5 L24,32.5 L20,32.5 L15,32.5 L12.5,32.5 L12.5,25 L20,25 L22.575,25 L25.075,25 L35,25 L35,25.525 Z M35,22.5 L25,22.5 C25,19.375 25.35,16.7 25.75,14.65 C25.825,14.25 26.1,14.125 26.25,14.125 C26.325,14.125 26.4,14.15 26.475,14.2 L35,19.75 L35,22.5 Z M42.5,26.5 L42.5,29 L42.5,32.5 L42.5,35 L42.5,37.5 L42.5,65 L37.5,65 L37.5,37.5 L37.5,35 L37.5,32.5 L37.5,29 L37.5,26.5 L37.5,25 L42.5,25 L42.5,26.5 Z M42.5,22.5 L37.5,22.5 L37.5,18.775 L42.5,18.775 L42.5,22.5 Z M45,19.75 L53.55,14.2 C53.625,14.15 53.7,14.125 53.775,14.125 C53.9,14.125 54.175,14.225 54.275,14.65 C54.65,16.7 54.975,19.375 55,22.5 L45,22.5 L45,19.75 Z M65,65 L45,65 L45,35 L65,35 L65,65 Z M67.5,32.5 L65,32.5 L60,32.5 L56,32.5 L51.15,32.5 L45,32.5 L45,28.5 L45,25.525 L45,25 L54.925,25 L57.425,25 L60,25 L67.5,25 L67.5,32.5 Z" id="Shape" fill="#101828" fill-rule="nonzero"></path>
            <rect id="Rectangle" x="0" y="0" width="80" height="80"></rect>
        </g>
    </g>
</svg>