<?xml version="1.0" encoding="UTF-8"?>
<svg width="80px" height="80px" viewBox="0 0 80 80" version="1.1" xmlns="http://www.w3.org/2000/svg" xmlns:xlink="http://www.w3.org/1999/xlink">
    <!-- Generator: Sketch 56.3 (81716) - https://sketch.com -->
    <title>039-W80px</title>
    <desc>Created with Sketch.</desc>
    <g id="NEW_icons" stroke="none" stroke-width="1" fill="none" fill-rule="evenodd">
        <g id="icons_UD_new-Copy" transform="translate(-2151.000000, -5095.000000)">
            <g id="039-W80px" transform="translate(2151.000000, 5095.000000)">
                <circle id="Oval-Copy-304" fill="#101828" cx="40" cy="40" r="40"></circle>
                <g id="039-B32px-Copy-8" transform="translate(12.000000, 12.000000)">
                    <path d="M7,12.25 L7,43.75 L29.75,47.25 L29.75,8.75 L7,12.25 Z M22.54,35.07 L20.2125,35.0175 L15.5925,26.005 L15.5925,34.685 L13.475,34.615 L13.5275,21.6475 L15.8375,21.6125 L17.9725,25.83 L20.23,30.0475 L20.23,21.3325 L22.575,21.1925 L22.54,35.07 Z" id="Shape" fill="#FFFFFF"></path>
                    <path d="M43.75,14 L43.75,15.75 L45.5,15.75 L47.25,15.7325 L47.25,22.75 L45.5,22.75 L43.75,22.75 L43.75,24.5 L43.75,42 L29.75,42 L29.75,14 L43.75,14 L43.75,14 Z M45.5,12.25 L43.785,12.25 L28,12.25 L28,43.75 L45.5,43.75 L45.5,24.5 L47.25,24.5 C48.2125,24.5 49,23.7125 49,22.75 L49,15.7325 C49,14.77 48.23,14 47.2675,14 L45.5,14 L45.5,12.25 L45.5,12.25 Z" id="Shape" fill="#FFFFFF" fill-rule="nonzero"></path>
                    <path d="M47.25,33.25 L47.25,40.25 L45.5,40.25 L45.5,33.25 L47.25,33.25 L47.25,33.25 Z M47.25,31.5 L43.75,31.5 L43.75,42 L47.25,42 C48.2125,42 49,41.2125 49,40.25 L49,33.25 C49,32.2875 48.2125,31.5 47.25,31.5 L47.25,31.5 Z" id="Shape" fill="#FFFFFF" fill-rule="nonzero"></path>
                    <path d="M47.25,24.5 L47.25,31.5 L45.5,31.5 L45.5,24.5 L47.25,24.5 L47.25,24.5 Z M47.25,22.75 L43.75,22.75 L43.75,33.25 L47.25,33.25 C48.2125,33.25 49,32.4625 49,31.5 L49,24.5 C49,23.5375 48.2125,22.75 47.25,22.75 L47.25,22.75 Z" id="Shape" fill="#FFFFFF" fill-rule="nonzero"></path>
                    <polygon id="Path" fill="#FFFFFF" fill-rule="nonzero" points="40.25 36.75 28 36.75 28 38.5 40.25 38.5"></polygon>
                    <polygon id="Path" fill="#FFFFFF" fill-rule="nonzero" points="40.25 32.9 28 32.9 28 34.65 40.25 34.65"></polygon>
                    <polygon id="Path" fill="#FFFFFF" fill-rule="nonzero" points="40.25 29.05 28 29.05 28 30.8 40.25 30.8"></polygon>
                    <polygon id="Path" fill="#FFFFFF" fill-rule="nonzero" points="40.25 25.2 28 25.2 28 26.95 40.25 26.95"></polygon>
                    <polygon id="Path" fill="#FFFFFF" fill-rule="nonzero" points="40.25 21.35 28 21.35 28 23.1 40.25 23.1"></polygon>
                    <polygon id="Path" fill="#FFFFFF" fill-rule="nonzero" points="40.25 17.5 28 17.5 28 19.25 40.25 19.25"></polygon>
                    <rect id="Rectangle" x="0" y="0" width="56" height="56"></rect>
                </g>
            </g>
        </g>
    </g>
</svg>