<?xml version="1.0" encoding="UTF-8"?>
<svg width="56px" height="56px" viewBox="0 0 56 56" version="1.1" xmlns="http://www.w3.org/2000/svg" xmlns:xlink="http://www.w3.org/1999/xlink">
    <!-- Generator: Sketch 57.1 (83088) - https://sketch.com -->
    <title>171-W56px</title>
    <desc>Created with Sketch.</desc>
    <g id="NEW_icons" stroke="none" stroke-width="1" fill="none" fill-rule="evenodd">
        <g id="icons_UD_new-Copy" transform="translate(-1814.000000, -21844.000000)">
            <g id="171-W56px" transform="translate(1814.000000, 21844.000000)">
                <circle id="Oval-Copy-1076" fill="#101828" cx="28" cy="28" r="28"></circle>
                <g id="171-B32px-Copy-4" transform="translate(8.000000, 8.000000)">
                    <g id="ViP" transform="translate(3.931819, 11.681819)" fill="#FFFFFF">
                        <g id="Shape_3_" transform="translate(17.500000, 0.000000)">
                            <path d="M13.5125,4.775 C13.5125,4.6875 13.5125,4.5875 13.475,4.5125 C13.4125,3.9875 13.2625,3.475 13.0625,3 C12.5125,1.725 11.275,0.875 9.8875,0.825 L4.5875,0.825 C3.1875,0.875 1.95,1.725 1.4,3 C1.2,3.4625 1.0625,3.95 0.9875,4.4375 C0.9375,4.725 0.9125,5.0125 0.8875,5.3125 L0.8875,15.05 C2.3875,15.05 3.6,13.85 3.6,12.3625 L3.6,11.2875 C4.725,11.35 5.725,11.35 6.375,11.35 C8.2625,11.4375 10.125,10.9125 11.6875,9.8625 C12.85,8.9875 13.55,7.6375 13.5625,6.1875 C13.5625,6.1375 13.5625,6.0875 13.5625,6.0375 C13.575,5.6375 13.5625,5.2 13.5125,4.775 Z M3.6,8.6 L3.6,5.55 C3.6,4.35 4.1,3.5375 4.875,3.5 L9.625,3.5 C10.2,3.5375 10.625,4.025 10.8,4.775 C10.85,5.1875 10.875,5.6125 10.8625,6.0375 C10.8875,6.7 10.575,7.3375 10.0375,7.7375 C9.75,7.9375 9.4375,8.1 9.1125,8.2 C7.3125,8.6875 5.45,8.825 3.6,8.6 Z" id="Shape"></path>
                        </g>
                        <g id="Group" transform="translate(13.750000, 6.250000)">
                            <path d="M1.175,1.1 L1.175,6.0875 C1.175,7.5875 2.3875,8.8 3.8875,8.8 L3.8875,1.7625 C2.975,1.5875 2.0625,1.35 1.175,1.0625" id="Path"></path>
                        </g>
                        <g id="Group" transform="translate(13.750000, 0.000000)">
                            <path d="M3.8875,0.8125 C3.175,0.8125 2.475,1.1 1.975,1.6 C1.4625,2.1125 1.175,2.8 1.175,3.525 L1.175,5.6125 C2.675,5.6125 3.8875,4.4 3.8875,2.9 L3.8875,0.8125 Z" id="Path"></path>
                        </g>
                        <g id="Group">
                            <path d="M11.6375,3.3375 L10.7625,5.4875 L8.05,12.1 C8,12.225 7.8875,12.3125 7.7625,12.325 L7.55,12.325 C7.4125,12.3125 7.3,12.225 7.25,12.1 L3.5875,3.2125 C3.225,2.2125 2.125,0.9375 1.0625,0.8125 L1.0625,4.025 L4.725,13.175 C5.125,14.2875 6.175,15.0375 7.3625,15.0375 L7.9,15.0375 C9.075,15.0375 10.1375,14.2875 10.5375,13.175 L13.1625,6.6375 L14.2125,4 L14.2125,0.8125 C13.1625,0.95 12,2.3375 11.6375,3.3375 Z" id="Path"></path>
                        </g>
                    </g>
                    <rect id="Rectangle" x="0" y="0" width="40" height="40"></rect>
                </g>
            </g>
        </g>
    </g>
</svg>