<?xml version="1.0" encoding="UTF-8"?>
<svg width="80px" height="80px" viewBox="0 0 80 80" version="1.1" xmlns="http://www.w3.org/2000/svg" xmlns:xlink="http://www.w3.org/1999/xlink">
    <!-- Generator: Sketch 57.1 (83088) - https://sketch.com -->
    <title>081-G80px</title>
    <desc>Created with Sketch.</desc>
    <g id="NEW_icons" stroke="none" stroke-width="1" fill="none" fill-rule="evenodd">
        <g id="icons_UD_new-Copy" transform="translate(-2051.000000, -10517.000000)">
            <g id="081-G80px" transform="translate(2051.000000, 10517.000000)">
                <circle id="Oval-Copy-516" fill="#E3E8EC" cx="40" cy="40" r="40"></circle>
                <g id="081-B32px-Copy-5" transform="translate(14.000000, 12.000000)">
                    <path d="M24.5,45.5 C24.9725,45.5 25.375,45.115 25.375,44.625 C25.375,44.135 24.9725,43.75 24.5,43.75 C24.0275,43.75 23.625,44.135 23.625,44.625 C23.625,45.115 24.0275,45.5 24.5,45.5" id="Path" fill="#101828" fill-rule="nonzero"></path>
                    <path d="M36.75,45.185 L36.75,47.1625 C36.75,47.215 36.715,47.25 36.6625,47.25 L12.3375,47.25 C12.285,47.25 12.25,47.215 12.25,47.1625 L12.25,8.8375 C12.25,8.785 12.285,8.75 12.3375,8.75 L36.6625,8.75 C36.715,8.75 36.75,8.785 36.75,8.8375 L36.75,23.065 C37.31,22.925 37.905,22.8375 38.5,22.785 L38.5,8.8375 C38.5,7.8225 37.6775,7 36.6625,7 L12.3375,7 C11.3225,7 10.5,7.8225 10.5,8.8375 L10.5,47.1625 C10.5,48.1775 11.3225,49 12.3375,49 L36.6625,49 C37.6775,49 38.5,48.1775 38.5,47.1625 L38.5,45.465 C37.905,45.4125 37.31,45.325 36.75,45.185 Z" id="Path" fill="#101828" fill-rule="nonzero"></path>
                    <path d="M29.8025,40.25 L10.5,40.25 L10.5,42 L31.185,42 C30.66,41.4575 30.205,40.88 29.8025,40.25 Z" id="Path" fill="#101828" fill-rule="nonzero"></path>
                    <path d="M39.375,26.25 C43.715,26.25 47.25,29.785 47.25,34.125 C47.25,38.465 43.715,42 39.375,42 C35.035,42 31.5,38.465 31.5,34.125 C31.5,29.785 35.035,26.25 39.375,26.25 L39.375,26.25 Z M39.375,24.5 C34.055,24.5 29.75,28.805 29.75,34.125 C29.75,39.445 34.055,43.75 39.375,43.75 C44.695,43.75 49,39.445 49,34.125 C49,28.805 44.695,24.5 39.375,24.5 L39.375,24.5 Z" id="Shape" fill="#101828" fill-rule="nonzero"></path>
                    <g id="Group" transform="translate(33.250000, 26.250000)" fill="#101828" fill-rule="nonzero">
                        <path d="M3.7975,7.0175 L2.03,5.18 C1.8375,4.9875 1.54,4.9875 1.3475,5.18 L0.175,6.3175 C0.0525,6.4225 0.0175,6.58 0.035,6.7375 C0.315,9.0825 2.5375,11.375 2.5375,11.375 C2.5375,11.375 4.7425,13.65 7.105,14.035 C7.2625,14.0525 7.4025,14 7.525,13.895 L8.6975,12.7575 C8.89,12.565 8.89,12.2675 8.715,12.075 L6.9475,10.2375 C6.755,10.045 6.4575,10.045 6.265,10.2375 L5.4775,10.99 C5.4775,10.99 4.515,10.57 3.9725,10.01 C3.43,9.45 3.0275,8.47 3.0275,8.47 L3.815,7.7175 C3.9725,7.5075 3.99,7.21 3.7975,7.0175 Z" id="Path"></path>
                        <path d="M12.2325,7.91 C11.795,4.76 9.1875,2.1525 6.055,1.715 L5.8975,3.4125 C8.2775,3.6925 10.255,5.6875 10.535,8.0675 L12.2325,7.91 Z" id="Path"></path>
                        <path d="M8.995,8.19 C8.68,6.5975 7.3675,5.2675 5.7575,4.9525 L5.6,6.6675 C6.4225,6.8425 7.0875,7.5075 7.2625,8.3475 L8.995,8.19 Z" id="Path"></path>
                    </g>
                    <rect id="Rectangle" x="0" y="0" width="56" height="56"></rect>
                </g>
            </g>
        </g>
    </g>
</svg>