<?xml version="1.0" encoding="UTF-8"?>
<svg width="80px" height="80px" viewBox="0 0 80 80" version="1.1" xmlns="http://www.w3.org/2000/svg" xmlns:xlink="http://www.w3.org/1999/xlink">
    <!-- Generator: Sketch 57.1 (83088) - https://sketch.com -->
    <title>229-B80px</title>
    <desc>Created with Sketch.</desc>
    <g id="229-B80px" stroke="none" stroke-width="1" fill="none" fill-rule="evenodd">
        <g>
            <path d="M12.5,10 L47.5,10 C48.875,10 50,11.125 50,12.5 L50,30 L47.5,30 L47.5,12.5 L12.5,12.5 L12.5,67.5 L47.5,67.5 L47.5,65 L50,64.95 L50,67.5 C50,68.875 48.875,70 47.5,70 L12.5,70 C11.125,70 10,68.875 10,67.5 L10,12.5 C10,11.125 11.125,10 12.5,10 Z" id="Path" fill="#101828" fill-rule="nonzero"></path>
            <circle id="Oval" fill="#101828" fill-rule="nonzero" cx="30" cy="63.75" r="1.25"></circle>
            <path d="M65,35 L65,36.25 C65,39.95 64.225,45.65 62.95,48.45 C61.225,52.25 58.05,57.175 52.5,59.775 C46.95,57.175 43.75,52.25 42.05,48.45 C40.775,45.65 40,39.95 40,36.25 L40,35 L65,35 L65,35 Z M67.5,32.5 L37.5,32.5 L37.5,36.25 C37.5,39.95 38.25,46.125 39.775,49.475 C41.875,54.1 45.7,59.775 52.5,62.5 C59.3,59.775 63.15,54.1 65.225,49.475 C66.75,46.1 67.5,39.95 67.5,36.25 L67.5,32.5 L67.5,32.5 Z" id="Shape" fill="#101828" fill-rule="nonzero"></path>
            <path d="M42.45,57.5 C43.175,58.35 43.925,59.2 44.775,60 L12.5,60 L12.5,57.5 L42.45,57.5 Z" id="Path" fill="#101828" fill-rule="nonzero"></path>
            <g id="Group" transform="translate(20.000000, 17.500000)" fill="#101828" fill-rule="nonzero">
                <path d="M10,7.5 C11.325,7.5 12.55,8.025 13.425,8.875 L15.2,7.1 C13.85,5.8 12.025,5 10,5 C7.925,5 6.05,5.85 4.7,7.2 L6.475,8.975 C7.375,8.05 8.625,7.5 10,7.5 Z" id="Path"></path>
                <path d="M11.65,10.65 C11.225,10.25 10.65,10 10,10 C9.3,10 8.675,10.275 8.225,10.725 L9.9,12.4 L11.65,10.65 Z" id="Path"></path>
                <path d="M10,2.5 C12.7,2.5 15.175,3.6 16.975,5.35 L18.75,3.575 C16.475,1.375 13.4,0 10,0 C6.55,0 3.425,1.4 1.15,3.65 L2.925,5.425 C4.75,3.625 7.25,2.5 10,2.5 Z" id="Path"></path>
            </g>
            <rect id="Rectangle" x="0" y="0" width="80" height="80"></rect>
        </g>
    </g>
</svg>