<?xml version="1.0" encoding="UTF-8"?>
<svg width="80px" height="80px" viewBox="0 0 80 80" version="1.1" xmlns="http://www.w3.org/2000/svg" xmlns:xlink="http://www.w3.org/1999/xlink">
    <!-- Generator: Sketch 57.1 (83088) - https://sketch.com -->
    <title>066-G80px</title>
    <desc>Created with Sketch.</desc>
    <g id="NEW_icons" stroke="none" stroke-width="1" fill="none" fill-rule="evenodd">
        <g id="icons_UD_new-Copy" transform="translate(-767.000000, -8766.000000)">
            <g id="066-G80px" transform="translate(767.000000, 8766.000000)">
                <circle id="Oval-Copy-20" fill="#E3E8EC" cx="40" cy="40" r="40"></circle>
                <path d="M27.575,21.275 C27.575,21.275 27.75,21.275 27.925,21.45 L35.975,29.675 C36.15,29.85 36.15,29.85 36.15,30.025 C36.15,30.025 36.15,30.2 35.975,30.375 L32.475,33.875 L31.425,34.75 L31.95,35.8 C31.95,35.975 33.875,40.525 36.5,43.325 C39.125,46.125 43.675,48.05 43.85,48.225 L44.9,48.75 L45.775,47.875 L49.275,44.375 C49.45,44.2 49.45,44.2 49.625,44.2 C49.625,44.2 49.8,44.2 49.975,44.375 L58.025,52.6 C58.2,52.775 58.2,52.775 58.2,52.95 C58.2,52.95 58.2,53.125 58.025,53.3 L52.6,58.55 C52.425,58.725 52.425,58.725 52.25,58.725 C52.25,58.725 52.25,58.725 52.25,58.725 C42.275,57.15 32.65,47.35 32.475,47.175 C32.475,47 23.025,37.025 21.8,27.05 C21.8,26.875 21.8,26.7 21.975,26.525 L27.225,21.45 C27.4,21.45 27.575,21.275 27.575,21.275 L27.575,21.275 Z M27.575,19.525 C27.05,19.525 26.525,19.875 26,20.225 L20.75,25.3 C20.225,25.825 19.875,26.525 20.05,27.225 C21.275,37.9 31.425,48.225 31.425,48.225 C31.425,48.225 41.4,58.55 52.075,60.3 C52.25,60.3 52.25,60.3 52.425,60.3 C52.95,60.3 53.65,60.125 54,59.6 L59.425,54.35 C60.3,53.475 60.3,52.075 59.425,51.2 L51.375,42.975 C51.025,42.45 50.325,42.275 49.8,42.275 C49.275,42.275 48.75,42.45 48.225,42.975 L44.725,46.475 C44.725,46.475 40.35,44.55 37.9,41.925 C35.45,39.3 33.7,34.925 33.7,34.925 L37.2,31.425 C38.075,30.55 38.075,29.15 37.2,28.275 L29.15,20.225 C28.8,19.875 28.1,19.525 27.575,19.525 L27.575,19.525 Z" id="Shape" fill="#101828" fill-rule="nonzero"></path>
                <rect id="Rectangle" x="12" y="12" width="56" height="56"></rect>
            </g>
        </g>
    </g>
</svg>