<?xml version="1.0" encoding="UTF-8"?>
<svg width="56px" height="56px" viewBox="0 0 56 56" version="1.1" xmlns="http://www.w3.org/2000/svg" xmlns:xlink="http://www.w3.org/1999/xlink">
    <!-- Generator: Sketch 57.1 (83088) - https://sketch.com -->
    <title>121-W56px</title>
    <desc>Created with Sketch.</desc>
    <g id="NEW_icons" stroke="none" stroke-width="1" fill="none" fill-rule="evenodd">
        <g id="icons_UD_new-Copy" transform="translate(-1814.000000, -15569.000000)">
            <g id="121-W56px" transform="translate(1814.000000, 15569.000000)">
                <g id="003-B32px-Copy-145" transform="translate(8.000000, 8.000000)">
                    <g id="Group" transform="translate(10.000000, 5.000000)" fill="#FFFFFF" fill-rule="nonzero">
                        <path d="M18.6875,0 L1.3125,0 C0.5875,0 0,0.5875 0,1.3125 L0,23.75 L0,25 L0,28.6875 C0,29.4125 0.5875,30 1.3125,30 L18.6875,30 C19.4125,30 20,29.4125 20,28.6875 L20,25 L20,23.75 L20,1.3125 C20,0.5875 19.4125,0 18.6875,0 Z M18.75,28.6875 C18.75,28.725 18.725,28.75 18.6875,28.75 L1.3125,28.75 C1.275,28.75 1.25,28.725 1.25,28.6875 L1.25,25 L18.75,25 L18.75,28.6875 Z M1.25,23.75 L1.25,1.3125 C1.25,1.275 1.275,1.25 1.3125,1.25 L18.6875,1.25 C18.725,1.25 18.75,1.275 18.75,1.3125 L18.75,23.75 L1.25,23.75 Z" id="Shape"></path>
                        <path d="M10,27.4875 C10.3375,27.4875 10.625,27.2125 10.625,26.8625 C10.625,26.525 10.35,26.2375 10,26.2375 C9.65,26.2375 9.375,26.5125 9.375,26.8625 C9.375,27.2125 9.6625,27.4875 10,27.4875 Z" id="Path"></path>
                        <path d="M12.5125,20 L7.5,20.0125 L7.5,16.25 L6.25,16.25 L6.25,20.0125 C6.25,20.6875 6.8,21.25 7.4875,21.25 L12.525,21.25 C13.2,21.25 13.7625,20.7 13.7625,20.0125 L13.7625,16.25 L12.5125,16.25 L12.5125,20 Z" id="Path"></path>
                        <polygon id="Path" points="4.775 15.575 5.5625 16.5375 10 12.875 14.4375 16.5375 15.225 15.575 10 11.2625"></polygon>
                        <path d="M12.6,7.3125 C11.925,6.65 11.0125,6.25 10,6.25 C8.9625,6.25 8.025,6.675 7.35,7.35 L8.2375,8.2375 C8.6875,7.775 9.3125,7.5 10,7.5 C10.6625,7.5 11.275,7.7625 11.7125,8.1875 L12.6,7.3125 Z" id="Path"></path>
                        <path d="M9.1125,9.1125 L9.95,9.95 L10.825,9.075 C10.6125,8.875 10.325,8.75 10,8.75 C9.65,8.75 9.3375,8.8875 9.1125,9.1125 Z" id="Path"></path>
                        <path d="M10,5 C11.35,5 12.5875,5.55 13.4875,6.425 L14.375,5.5375 C13.2375,4.4375 11.7,3.75 10,3.75 C8.275,3.75 6.7125,4.45 5.575,5.575 L6.4625,6.4625 C7.375,5.5625 8.625,5 10,5 Z" id="Path"></path>
                    </g>
                    <rect id="Rectangle" x="0" y="0" width="40" height="40"></rect>
                </g>
                <circle id="Oval-Copy-780" fill="#101828" cx="28" cy="28" r="28"></circle>
                <g id="121-B32px-Copy-7" transform="translate(8.000000, 8.000000)">
                    <path d="M33.7375,7.5 L33.75,7.5125 L33.7375,32.5 L6.25,32.475 L6.2625,7.5 L33.7375,7.5 L33.7375,7.5 Z M33.7375,6.25 L6.2625,6.25 C5.5625,6.25 5,6.8125 5,7.5125 L5,32.4875 C5,33.175 5.5625,33.75 6.2625,33.75 L33.7375,33.75 C34.4375,33.75 35,33.1875 35,32.4875 L35,7.5125 C35,6.8125 34.4375,6.25 33.7375,6.25 L33.7375,6.25 Z" id="Shape" fill="#FFFFFF" fill-rule="nonzero"></path>
                    <rect id="Rectangle" fill="#FFFFFF" fill-rule="nonzero" x="16.25" y="10" width="15" height="1.25"></rect>
                    <rect id="Rectangle" fill="#FFFFFF" fill-rule="nonzero" x="16.25" y="12.5" width="15" height="1.25"></rect>
                    <rect id="Rectangle" fill="#FFFFFF" fill-rule="nonzero" x="8.75" y="10" width="5" height="1.25"></rect>
                    <rect id="Rectangle" fill="#FFFFFF" fill-rule="nonzero" x="8.75" y="12.5" width="5" height="1.25"></rect>
                    <rect id="Rectangle" fill="#FFFFFF" fill-rule="nonzero" x="8.75" y="28.75" width="5" height="1.25"></rect>
                    <path d="M30.0625,16.25 L17.4375,16.25 C16.7875,16.25 16.25,16.775 16.25,17.4375 L16.25,18.75 L17.5,18.75 L17.5,17.5 L30,17.5 L30,28.75 L17.5,28.75 L17.5,27.5 L16.25,27.5 L16.25,28.8125 C16.25,29.475 16.7875,30 17.4375,30 L30.05,30 C30.7125,30 31.2375,29.4625 31.2375,28.8125 L31.2375,17.45 C31.25,16.775 30.7125,16.25 30.0625,16.25 Z" id="Path" fill="#FFFFFF" fill-rule="nonzero"></path>
                    <path d="M11.8625,17.4 L11.9,17.4125 L20,25.5125 L20,26.25 L19.2625,26.25 L11.1625,18.15 C11.15,18.1375 11.15,18.0875 11.1625,18.075 L11.825,17.4125 C11.825,17.4125 11.8375,17.4 11.8625,17.4 L11.8625,17.4 Z M11.8625,16.15 C11.525,16.15 11.2,16.275 10.9375,16.5375 L10.275,17.2 C9.7625,17.7125 9.7625,18.5375 10.275,19.0375 L18.75,27.5 L21.25,27.5 L21.25,25 L12.7875,16.5375 C12.525,16.275 12.2,16.15 11.8625,16.15 L11.8625,16.15 Z" id="Shape" fill="#FFFFFF" fill-rule="nonzero"></path>
                    <polygon id="Rectangle" fill="#FFFFFF" fill-rule="nonzero" transform="translate(12.869442, 19.110956) rotate(-45.000000) translate(-12.869442, -19.110956) " points="12.1381989 18.4859616 13.6006849 18.4859616 13.6006849 19.7359496 12.1381989 19.7359496"></polygon>
                    <rect id="Rectangle" x="0" y="0" width="40" height="40"></rect>
                </g>
            </g>
        </g>
    </g>
</svg>