<?xml version="1.0" encoding="UTF-8"?>
<svg width="42px" height="42px" viewBox="0 0 42 42" version="1.1" xmlns="http://www.w3.org/2000/svg" xmlns:xlink="http://www.w3.org/1999/xlink">
    <!-- Generator: Sketch 56.3 (81716) - https://sketch.com -->
    <title>026-G40px</title>
    <desc>Created with Sketch.</desc>
    <g id="NEW_icons" stroke="none" stroke-width="1" fill="none" fill-rule="evenodd">
        <g id="icons_UD_new-Copy" transform="translate(-244.000000, -3628.000000)">
            <g id="026-G40px" transform="translate(245.000000, 3629.000000)">
                <circle id="Oval-Copy-240" stroke="#E3E8EC" cx="20" cy="20" r="20"></circle>
                <g id="026-B32px-Copy-5" transform="translate(4.000000, 6.000000)">
                    <path d="M27,5 L27,7 C27,10.13 26.35,14.79 25.27,17.18 C23.78,20.46 20.98,24.78 16,26.92 C11.02,24.78 8.21,20.46 6.73,17.18 C5.65,14.78 5,10.12 5,7 L5,5 L27,5 L27,5 Z M28,4 L4,4 L4,7 C4,9.96 4.6,14.89 5.82,17.59 C7.49,21.28 10.56,25.82 16,28 C21.44,25.82 24.51,21.28 26.18,17.59 C27.4,14.89 28,9.96 28,7 L28,4 L28,4 Z" id="Shape" fill="#101828" fill-rule="nonzero"></path>
                    <polygon id="Path" fill="#101828" fill-rule="nonzero" points="20 13 20 12 19 12 19 13 18 13 18 14 19 14 19 15 20 15 20 14 21 14 21 13"></polygon>
                    <path d="M14.5,11 C15.33,11 16,11.67 16,12.5 L16,14.5 C16,15.33 15.33,16 14.5,16 C13.67,16 13,15.33 13,14.5 L13,12.5 C13,11.67 13.67,11 14.5,11 L14.5,11 Z M14.5,10 C13.12,10 12,11.12 12,12.5 L12,14.5 C12,15.88 13.12,17 14.5,17 C15.88,17 17,15.88 17,14.5 L17,12.5 C17,11.12 15.88,10 14.5,10 L14.5,10 Z" id="Shape" fill="#101828" fill-rule="nonzero"></path>
                    <rect id="Rectangle" x="0" y="0" width="32" height="32"></rect>
                </g>
            </g>
        </g>
    </g>
</svg>