<?xml version="1.0" encoding="UTF-8"?>
<svg width="40px" height="40px" viewBox="0 0 40 40" version="1.1" xmlns="http://www.w3.org/2000/svg" xmlns:xlink="http://www.w3.org/1999/xlink">
    <!-- Generator: Sketch 57.1 (83088) - https://sketch.com -->
    <title>107-B40px</title>
    <desc>Created with Sketch.</desc>
    <g id="107-B40px" stroke="none" stroke-width="1" fill="none" fill-rule="evenodd">
        <g>
            <path d="M33.75,12.5 L33.775,31.25 L6.25,31.275 L6.225,12.5 L33.75,12.5 L33.75,12.5 Z M33.775,11.25 L6.225,11.25 C5.55,11.25 5,11.8 5,12.475 L5,31.275 C5,31.95 5.55,32.5 6.225,32.5 L33.775,32.5 C34.45,32.5 35,31.95 35,31.275 L35,12.475 C35,11.8 34.45,11.25 33.775,11.25 L33.775,11.25 Z" id="Shape" fill="#101828" fill-rule="nonzero"></path>
            <path d="M20,16.25 C23.1,16.25 25.625,18.775 25.625,21.875 C25.625,24.975 23.1,27.5 20,27.5 C16.9,27.5 14.375,24.975 14.375,21.875 C14.375,18.775 16.9,16.25 20,16.25 L20,16.25 Z M20,15 C16.2,15 13.125,18.075 13.125,21.875 C13.125,25.675 16.2,28.75 20,28.75 C23.8,28.75 26.875,25.675 26.875,21.875 C26.875,18.075 23.8,15 20,15 L20,15 Z" id="Shape" fill="#101828" fill-rule="nonzero"></path>
            <polygon id="Path" fill="#101828" fill-rule="nonzero" points="16.875 21.25 16.875 22.5 19.375 22.5 19.375 25 20.625 25 20.625 22.5 23.125 22.5 23.125 21.25 20.625 21.25 20.625 18.75 19.375 18.75 19.375 21.25"></polygon>
            <path d="M20,7.5 C22.325,7.5 24.2875,9.1 24.8375,11.25 L15.15,11.25 C15.7125,9.1 17.675,7.5 20,7.5 L20,7.5 Z M20,6.25 C16.55,6.25 13.75,9.05 13.75,12.5 L26.25,12.5 C26.25,9.05 23.45,6.25 20,6.25 L20,6.25 Z" id="Shape" fill="#101828" fill-rule="nonzero"></path>
            <rect id="Rectangle" x="0" y="0" width="40" height="40"></rect>
        </g>
    </g>
</svg>