<?xml version="1.0" encoding="UTF-8"?>
<svg width="32px" height="32px" viewBox="0 0 32 32" version="1.1" xmlns="http://www.w3.org/2000/svg" xmlns:xlink="http://www.w3.org/1999/xlink">
    <!-- Generator: Sketch 57.1 (83088) - https://sketch.com -->
    <title>146-B32px</title>
    <desc>Created with Sketch.</desc>
    <g id="146-B32px" stroke="none" stroke-width="1" fill="none" fill-rule="evenodd">
        <g>
            <path d="M26.98,10 L27,10.02 L26.98,21.02 L5,21 L5.02,10 L26.98,10 L26.98,10 Z M26.98,9 L5.02,9 C4.46,9 4,9.46 4,10.02 L4,21 C4,21.56 4.46,22.02 5.02,22.02 L26.98,22.02 C27.54,22.02 28,21.56 28,21 L28,10.02 C28,9.46 27.54,9 26.98,9 L26.98,9 Z" id="Shape" fill="#101828" fill-rule="nonzero"></path>
            <path d="M15.98,21.95 C11.67,21.95 8.44,22.61 7,22.97 L7,24 C8.23,23.68 11.54,22.95 15.98,22.95 C20.46,22.95 23.79,23.69 25,24.01 L25,22.98 C23.57,22.61 20.33,21.95 15.98,21.95 Z" id="Path" fill="#101828" fill-rule="nonzero"></path>
            <rect id="Rectangle" x="0" y="0" width="32" height="32"></rect>
        </g>
    </g>
</svg>