<?xml version="1.0" encoding="UTF-8"?>
<svg width="80px" height="80px" viewBox="0 0 80 80" version="1.1" xmlns="http://www.w3.org/2000/svg" xmlns:xlink="http://www.w3.org/1999/xlink">
    <!-- Generator: Sketch 57.1 (83088) - https://sketch.com -->
    <title>102-B80px</title>
    <desc>Created with Sketch.</desc>
    <g id="102-B80px" stroke="none" stroke-width="1" fill="none" fill-rule="evenodd">
        <g>
            <path d="M67.5,12.5 L67.5,67.5 L50,67.5 L50,12.5 L67.5,12.5 L67.5,12.5 Z M67.5,10 L50,10 C48.625,10 47.5,11.125 47.5,12.5 L47.5,67.5 C47.5,68.875 48.625,70 50,70 L67.5,70 C68.875,70 70,68.875 70,67.5 L70,12.5 C70,11.125 68.875,10 67.5,10 L67.5,10 Z" id="Shape" fill="#101828" fill-rule="nonzero"></path>
            <path d="M30,12.5 L30,67.5 L12.5,67.5 L12.5,12.5 L30,12.5 L30,12.5 Z M30,10 L12.5,10 C11.125,10 10,11.125 10,12.5 L10,67.5 C10,68.875 11.125,70 12.5,70 L30,70 C31.375,70 32.5,68.875 32.5,67.5 L32.5,12.5 C32.5,11.125 31.375,10 30,10 L30,10 Z" id="Shape" fill="#101828" fill-rule="nonzero"></path>
            <rect id="Rectangle" x="0" y="0" width="80" height="80"></rect>
        </g>
    </g>
</svg>