<?xml version="1.0" encoding="UTF-8"?>
<svg width="80px" height="80px" viewBox="0 0 80 80" version="1.1" xmlns="http://www.w3.org/2000/svg" xmlns:xlink="http://www.w3.org/1999/xlink">
    <!-- Generator: Sketch 57.1 (83088) - https://sketch.com -->
    <title>099-G80px</title>
    <desc>Created with Sketch.</desc>
    <g id="NEW_icons" stroke="none" stroke-width="1" fill="none" fill-rule="evenodd">
        <g id="icons_UD_new-Copy" transform="translate(-2051.000000, -12779.000000)">
            <g id="099-G80px" transform="translate(2051.000000, 12779.000000)">
                <circle id="Oval-Copy-603" fill="#E3E8EC" cx="40" cy="40" r="40"></circle>
                <g id="099-B32px-Copy-7" transform="translate(12.000000, 12.000000)">
                    <path d="M28,40.25 C28.49,40.25 28.875,40.635 28.875,41.125 C28.875,41.615 28.49,42 28,42 C27.51,42 27.125,41.615 27.125,41.125 C27.125,40.635 27.51,40.25 28,40.25 L28,40.25 Z M28,38.5 C26.5475,38.5 25.375,39.6725 25.375,41.125 C25.375,42.5775 26.5475,43.75 28,43.75 C29.4525,43.75 30.625,42.5775 30.625,41.125 C30.625,39.6725 29.4525,38.5 28,38.5 L28,38.5 Z" id="Shape" fill="#101828" fill-rule="nonzero"></path>
                    <path d="M45.5,12.25 C45.99,12.25 46.375,12.635 46.375,13.125 C46.375,13.615 45.99,14 45.5,14 C45.01,14 44.625,13.615 44.625,13.125 C44.625,12.635 45.01,12.25 45.5,12.25 L45.5,12.25 Z M45.5,10.5 C44.0475,10.5 42.875,11.6725 42.875,13.125 C42.875,14.5775 44.0475,15.75 45.5,15.75 C46.9525,15.75 48.125,14.5775 48.125,13.125 C48.125,11.6725 46.9525,10.5 45.5,10.5 L45.5,10.5 Z" id="Shape" fill="#101828" fill-rule="nonzero"></path>
                    <path d="M43.75,21 L43.75,19.25 L47.25,19.25 L47.25,21 L49,21 L49,19.25 C49,18.2875 48.2125,17.5 47.25,17.5 L43.75,17.5 C42.7875,17.5 42,18.2875 42,19.25 L42,21 L43.75,21 Z" id="Path" fill="#101828" fill-rule="nonzero"></path>
                    <path d="M10.5,12.25 C10.99,12.25 11.375,12.635 11.375,13.125 C11.375,13.615 10.99,14 10.5,14 C10.01,14 9.625,13.615 9.625,13.125 C9.625,12.635 10.01,12.25 10.5,12.25 L10.5,12.25 Z M10.5,10.5 C9.0475,10.5 7.875,11.6725 7.875,13.125 C7.875,14.5775 9.0475,15.75 10.5,15.75 C11.9525,15.75 13.125,14.5775 13.125,13.125 C13.125,11.6725 11.9525,10.5 10.5,10.5 L10.5,10.5 Z" id="Shape" fill="#101828" fill-rule="nonzero"></path>
                    <path d="M8.75,21 L8.75,19.25 L12.25,19.25 L12.25,21 L14,21 L14,19.25 C14,18.2875 13.2125,17.5 12.25,17.5 L8.75,17.5 C7.7875,17.5 7,18.2875 7,19.25 L7,21 L8.75,21 Z" id="Path" fill="#101828" fill-rule="nonzero"></path>
                    <path d="M26.25,49 L26.25,47.25 L29.75,47.25 L29.75,49 L31.5,49 L31.5,47.25 C31.5,46.2875 30.7125,45.5 29.75,45.5 L26.25,45.5 C25.2875,45.5 24.5,46.2875 24.5,47.25 L24.5,49 L26.25,49 Z" id="Path" fill="#101828" fill-rule="nonzero"></path>
                    <path d="M21.5775,17.7275 L24.8675,21.1225 L23.4675,22.4875 L22.6275,23.31 L23.065,24.395 C23.17,24.6575 24.1675,27.0375 25.62,28.56 C27.0725,30.0825 29.435,31.1325 29.6975,31.255 L30.7825,31.7275 L31.6225,30.905 L33.0225,29.54 L36.3125,32.935 L34.2125,34.9825 C29.4525,34.055 24.8675,29.3825 24.815,29.33 C24.7625,29.2775 20.195,24.5 19.4775,19.7575 L21.5775,17.7275 L21.5775,17.7275 Z M21.595,15.715 C21.315,15.715 21.0175,15.82 20.79,16.0475 L18.0425,18.7075 C17.78,18.97 17.6575,19.3375 17.71,19.705 C18.3575,25.1825 23.555,30.555 23.555,30.555 C23.555,30.555 28.7175,35.8925 34.23,36.7675 C34.2825,36.785 34.335,36.785 34.405,36.785 C34.7025,36.785 35,36.6625 35.21,36.4525 L37.9575,33.7925 C38.4125,33.355 38.43,32.6375 37.9925,32.1825 L33.845,27.895 C33.6175,27.6675 33.3375,27.545 33.04,27.545 C32.76,27.545 32.4625,27.65 32.235,27.8775 L30.3975,29.6625 C30.3975,29.6625 28.14,28.665 26.88,27.3525 C25.62,26.04 24.6925,23.7475 24.6925,23.7475 L26.53,21.9625 C26.985,21.525 27.0025,20.8075 26.565,20.3525 L22.4,16.065 C22.19,15.8375 21.8925,15.715 21.595,15.715 L21.595,15.715 Z" id="Shape" fill="#101828" fill-rule="nonzero"></path>
                    <path d="M14.77,14.035 C18.235,10.7625 22.8725,8.75 28,8.75 C33.1275,8.75 37.7825,10.78 41.2475,14.07 C41.1775,13.755 41.125,13.4575 41.125,13.125 C41.125,12.6525 41.2125,12.215 41.3525,11.795 C37.73,8.8025 33.075,7 28,7 C22.925,7 18.2875,8.82 14.665,11.83 C14.7875,12.25 14.875,12.67 14.875,13.125 C14.875,13.44 14.84,13.755 14.77,14.035 Z" id="Path" fill="#101828" fill-rule="nonzero"></path>
                    <g id="Group" transform="translate(7.000000, 22.750000)" fill="#101828" fill-rule="nonzero">
                        <path d="M41.3175,0 L39.515,0 C39.9875,1.68 40.2675,3.43 40.2675,5.25 C40.2675,14.035 34.335,21.455 26.2675,23.7475 L26.2675,25.55 C35.315,23.2225 42.0175,15.015 42.0175,5.2325 C42,3.43 41.7375,1.68 41.3175,0 Z" id="Path"></path>
                        <path d="M15.75,23.7475 C7.6825,21.455 1.75,14.035 1.75,5.25 C1.75,3.43 2.0125,1.68 2.5025,0 L0.6825,0 C0.2625,1.68 0,3.43 0,5.25 C0,15.0325 6.7025,23.2225 15.75,25.5675 L15.75,23.7475 Z" id="Path"></path>
                    </g>
                    <rect id="Rectangle" x="0" y="0" width="56" height="56"></rect>
                </g>
            </g>
        </g>
    </g>
</svg>