<?xml version="1.0" encoding="UTF-8"?>
<svg width="40px" height="40px" viewBox="0 0 40 40" version="1.1" xmlns="http://www.w3.org/2000/svg" xmlns:xlink="http://www.w3.org/1999/xlink">
    <!-- Generator: Sketch 57.1 (83088) - https://sketch.com -->
    <title>102-B40px</title>
    <desc>Created with Sketch.</desc>
    <g id="102-B40px" stroke="none" stroke-width="1" fill="none" fill-rule="evenodd">
        <g>
            <path d="M33.75,6.25 L33.75,33.75 L25,33.75 L25,6.25 L33.75,6.25 L33.75,6.25 Z M33.75,5 L25,5 C24.3125,5 23.75,5.5625 23.75,6.25 L23.75,33.75 C23.75,34.4375 24.3125,35 25,35 L33.75,35 C34.4375,35 35,34.4375 35,33.75 L35,6.25 C35,5.5625 34.4375,5 33.75,5 L33.75,5 Z" id="Shape" fill="#101828" fill-rule="nonzero"></path>
            <path d="M15,6.25 L15,33.75 L6.25,33.75 L6.25,6.25 L15,6.25 L15,6.25 Z M15,5 L6.25,5 C5.5625,5 5,5.5625 5,6.25 L5,33.75 C5,34.4375 5.5625,35 6.25,35 L15,35 C15.6875,35 16.25,34.4375 16.25,33.75 L16.25,6.25 C16.25,5.5625 15.6875,5 15,5 L15,5 Z" id="Shape" fill="#101828" fill-rule="nonzero"></path>
            <rect id="Rectangle" x="0" y="0" width="40" height="40"></rect>
        </g>
    </g>
</svg>