<?xml version="1.0" encoding="UTF-8"?>
<svg width="80px" height="80px" viewBox="0 0 80 80" version="1.1" xmlns="http://www.w3.org/2000/svg" xmlns:xlink="http://www.w3.org/1999/xlink">
    <!-- Generator: Sketch 57.1 (83088) - https://sketch.com -->
    <title>075-B80px</title>
    <desc>Created with Sketch.</desc>
    <g id="075-B80px" stroke="none" stroke-width="1" fill="none" fill-rule="evenodd">
        <g>
            <path d="M56.0727273,12.4848485 C56.1454545,12.4848485 56.1939394,12.5333333 56.1939394,12.6060606 L55.830303,65.6969697 C55.830303,65.769697 55.7818182,65.8181818 55.7090909,65.8181818 L22.0121212,65.6 C21.9393939,65.6 21.8909091,65.5515152 21.8909091,65.4787879 L22.2545455,12.3878788 C22.2545455,12.3151515 22.3030303,12.2666667 22.3757576,12.2666667 L56.0727273,12.4848485 L56.0727273,12.4848485 Z M56.0969697,10.0606061 L22.4,9.84242424 C20.9939394,9.84242424 19.830303,10.9575758 19.830303,12.3636364 L19.4666667,65.4545455 C19.4666667,66.8606061 20.5818182,68.0242424 21.9878788,68.0242424 L55.6848485,68.2424242 C57.0909091,68.2424242 58.2545455,67.1272727 58.2545455,65.7212121 L58.6181818,12.630303 C58.6181818,11.2242424 57.5030303,10.0848485 56.0969697,10.0606061 L56.0969697,10.0606061 Z" id="Shape" fill="#101828" fill-rule="nonzero"></path>
            <path d="M38.8848485,63.2727273 C39.5393939,63.2727273 40.0969697,62.7393939 40.0969697,62.0848485 C40.0969697,61.430303 39.5636364,60.8727273 38.9090909,60.8727273 C38.2545455,60.8727273 37.6969697,61.4060606 37.6969697,62.0606061 C37.6727273,62.7393939 38.230303,63.2727273 38.8848485,63.2727273" id="Path" fill="#101828" fill-rule="nonzero"></path>
            <polygon id="Rectangle" fill="#101828" fill-rule="nonzero" transform="translate(38.934213, 57.219694) rotate(-89.615550) translate(-38.934213, -57.219694) " points="37.7220648 37.8253178 40.1463618 37.8253178 40.1463618 76.6140698 37.7220648 76.6140698"></polygon>
            <path d="M39.1515152,22.0848485 C45.8424242,22.1333333 51.2242424,27.6121212 51.2000816,34.2787879 C51.1757576,40.9454545 45.6727273,46.3515152 39.0060606,46.3273539 C32.3151515,46.2787879 26.9333333,40.8 26.9574942,34.1333333 C26.9818182,27.4666667 32.4848485,22.0363636 39.1515152,22.0848485 L39.1515152,22.0848485 Z M39.1757576,19.6603354 C31.1515152,19.6121212 24.5818182,26.0848485 24.5330627,34.1090909 C24.4848485,42.1333333 30.9575758,48.7030303 38.9818182,48.7517858 C47.0060606,48.8 53.5757576,42.3272727 53.624513,34.3030303 C53.6727273,26.2787879 47.2,19.7090909 39.1757576,19.6603354 L39.1757576,19.6603354 Z" id="Shape" fill="#101828" fill-rule="nonzero"></path>
            <path d="M39.1272727,22.0847598 C41.9636364,22.1090909 45.1151515,27.1030303 45.0666667,34.2545455 C45.0181818,41.4060606 41.8181818,46.3515152 38.9575758,46.3273615 C36.1212121,46.3030303 32.969697,41.3090909 33.0181818,34.1575758 C33.0666667,27.0060606 36.2909091,22.0606061 39.1272727,22.0847598 L39.1272727,22.0847598 Z M39.1515152,19.6605382 C34.4969697,19.6363636 30.6666667,26.1090909 30.6181818,34.1575758 C30.569697,42.2060606 34.3030303,48.7272727 38.9575758,48.751583 C43.6121212,48.7757576 47.4424242,42.3030303 47.4909091,34.2545455 C47.5393939,26.2060606 43.8060606,19.6848485 39.1515152,19.6605382 L39.1515152,19.6605382 Z" id="Shape" fill="#101828" fill-rule="nonzero"></path>
            <polygon id="Rectangle" fill="#101828" fill-rule="nonzero" transform="translate(39.043470, 40.330961) rotate(-89.615550) translate(-39.043470, -40.330961) " points="37.8313216 28.0761393 40.2556186 28.0761393 40.2556186 52.585782 37.8313216 52.585782"></polygon>
            <polygon id="Rectangle" fill="#101828" fill-rule="nonzero" transform="translate(39.131878, 28.067238) rotate(-89.615550) translate(-39.131878, -28.067238) " points="37.9197298 15.8124166 40.3440268 15.8124166 40.3440268 40.3220592 37.9197298 40.3220592"></polygon>
            <polygon id="Rectangle" fill="#101828" fill-rule="nonzero" transform="translate(39.076280, 34.199624) rotate(-89.615550) translate(-39.076280, -34.199624) " points="37.8641318 20.4174956 40.2884287 20.4174956 40.2884287 47.9817524 37.8641318 47.9817524"></polygon>
            <polygon id="Rectangle" fill="#101828" fill-rule="nonzero" transform="translate(39.074907, 34.630270) rotate(-89.615550) translate(-39.074907, -34.630270) " points="26.5049271 33.4181212 51.644887 33.4181212 51.644887 35.8424182 26.5049271 35.8424182"></polygon>
            <polygon id="Rectangle" transform="translate(39.055276, 39.055512) rotate(0.384450) translate(-39.055276, -39.055512) " points="0.266524378 0.266759543 77.8440283 0.266759543 77.8440283 77.8442635 0.266524378 77.8442635"></polygon>
        </g>
    </g>
</svg>