<?xml version="1.0" encoding="UTF-8"?>
<svg width="56px" height="56px" viewBox="0 0 56 56" version="1.1" xmlns="http://www.w3.org/2000/svg" xmlns:xlink="http://www.w3.org/1999/xlink">
    <!-- Generator: Sketch 57.1 (83088) - https://sketch.com -->
    <title>003-B56px</title>
    <desc>Created with Sketch.</desc>
    <g id="003-B56px" stroke="none" stroke-width="1" fill="none" fill-rule="evenodd">
        <g>
            <g id="Group" transform="translate(14.000000, 7.000000)" fill="#101828" fill-rule="nonzero">
                <path d="M26.1625,0 L1.8375,0 C0.8225,0 0,0.8225 0,1.8375 L0,33.25 L0,35 L0,40.1625 C0,41.1775 0.8225,42 1.8375,42 L26.1625,42 C27.1775,42 28,41.1775 28,40.1625 L28,35 L28,33.25 L28,1.8375 C28,0.8225 27.1775,0 26.1625,0 Z M26.25,40.1625 C26.25,40.215 26.215,40.25 26.1625,40.25 L1.8375,40.25 C1.785,40.25 1.75,40.215 1.75,40.1625 L1.75,35 L26.25,35 L26.25,40.1625 Z M1.75,33.25 L1.75,1.8375 C1.75,1.785 1.785,1.75 1.8375,1.75 L26.1625,1.75 C26.215,1.75 26.25,1.785 26.25,1.8375 L26.25,33.25 L1.75,33.25 Z" id="Shape"></path>
                <path d="M14,38.4825 C14.4725,38.4825 14.875,38.0975 14.875,37.6075 C14.875,37.135 14.49,36.7325 14,36.7325 C13.51,36.7325 13.125,37.1175 13.125,37.6075 C13.125,38.0975 13.5275,38.4825 14,38.4825 Z" id="Path"></path>
                <path d="M17.5175,28 L10.5,28.0175 L10.5,22.75 L8.75,22.75 L8.75,28.0175 C8.75,28.9625 9.52,29.75 10.4825,29.75 L17.535,29.75 C18.48,29.75 19.2675,28.98 19.2675,28.0175 L19.2675,22.75 L17.5175,22.75 L17.5175,28 Z" id="Path"></path>
                <polygon id="Path" points="6.685 21.805 7.7875 23.1525 14 18.025 20.2125 23.1525 21.315 21.805 14 15.7675"></polygon>
                <path d="M17.64,10.2375 C16.695,9.31 15.4175,8.75 14,8.75 C12.5475,8.75 11.235,9.345 10.29,10.29 L11.5325,11.5325 C12.1625,10.885 13.0375,10.5 14,10.5 C14.9275,10.5 15.785,10.8675 16.3975,11.4625 L17.64,10.2375 Z" id="Path"></path>
                <path d="M12.7575,12.7575 L13.93,13.93 L15.155,12.705 C14.8575,12.425 14.455,12.25 14,12.25 C13.51,12.25 13.0725,12.4425 12.7575,12.7575 Z" id="Path"></path>
                <path d="M14,7 C15.89,7 17.6225,7.77 18.8825,8.995 L20.125,7.7525 C18.5325,6.2125 16.38,5.25 14,5.25 C11.585,5.25 9.3975,6.23 7.805,7.805 L9.0475,9.0475 C10.325,7.7875 12.075,7 14,7 Z" id="Path"></path>
            </g>
            <rect id="Rectangle" x="0" y="0" width="56" height="56"></rect>
        </g>
    </g>
</svg>