<?xml version="1.0" encoding="UTF-8"?>
<svg width="80px" height="80px" viewBox="0 0 80 80" version="1.1" xmlns="http://www.w3.org/2000/svg" xmlns:xlink="http://www.w3.org/1999/xlink">
    <!-- Generator: Sketch 57.1 (83088) - https://sketch.com -->
    <title>136-C80px</title>
    <desc>Created with Sketch.</desc>
    <g id="NEW_icons" stroke="none" stroke-width="1" fill="none" fill-rule="evenodd">
        <g id="icons_UD_new-Copy" transform="translate(-1002.000000, -17547.000000)">
            <g id="136-C80px" transform="translate(1002.000000, 17547.000000)">
                <circle id="Oval-Copy-878" fill="#FF4F12" cx="40" cy="40" r="40"></circle>
                <g id="136-B32px-Copy-7" transform="translate(12.000000, 12.000000)">
                    <path d="M38.5,14 L38.5,47.25 L19.25,47.25 L19.25,14 L38.5,14 L38.5,14 Z M38.5,12.25 L19.25,12.25 C18.2875,12.25 17.5,13.0375 17.5,14 L17.5,47.25 C17.5,48.2125 18.2875,49 19.25,49 L38.5,49 C39.4625,49 40.25,48.2125 40.25,47.25 L40.25,14 C40.25,13.0375 39.4625,12.25 38.5,12.25 L38.5,12.25 Z" id="Shape" fill="#FFFFFF" fill-rule="nonzero"></path>
                    <path d="M35,8.75 L35,12.25 L22.8375,12.25 L22.8375,8.75 L35,8.75 L35,8.75 Z M35,7 L22.8375,7 C21.875,7 21.0875,7.7875 21.0875,8.75 L21.0875,12.25 C21.0875,13.2125 21.875,14 22.8375,14 L35,14 C35.9625,14 36.75,13.2125 36.75,12.25 L36.75,8.75 C36.75,7.7875 35.9625,7 35,7 L35,7 Z" id="Shape" fill="#FFFFFF" fill-rule="nonzero"></path>
                    <path d="M34.51,28 C34.7025,28 35,28.1575 35,28.525 L35,43.2425 C35,43.5225 34.7725,43.7675 34.4925,43.7675 L23.24,43.7675 C22.9775,43.75 22.75,43.5225 22.75,43.225 L22.75,33.3725 C22.75,33.1625 22.8725,32.97 23.065,32.9 L34.3175,28.035 C34.37,28.0175 34.44,28 34.51,28 L34.51,28 Z M34.4925,26.25 C34.195,26.25 33.8975,26.3025 33.6,26.4425 L22.3475,31.3075 C21.525,31.6575 20.9825,32.48 20.9825,33.39 L20.9825,43.2425 C20.9825,44.5025 21.9975,45.5175 23.24,45.5175 L34.4925,45.5175 C35.735,45.5175 36.75,44.5025 36.75,43.2425 L36.75,28.525 C36.75,27.2125 35.6825,26.25 34.4925,26.25 L34.4925,26.25 Z" id="Shape" fill="#FFFFFF" fill-rule="nonzero"></path>
                    <rect id="Rectangle" x="0" y="0" width="56" height="56"></rect>
                </g>
            </g>
        </g>
    </g>
</svg>