<?xml version="1.0" encoding="UTF-8"?>
<svg width="42px" height="42px" viewBox="0 0 42 42" version="1.1" xmlns="http://www.w3.org/2000/svg" xmlns:xlink="http://www.w3.org/1999/xlink">
    <!-- Generator: Sketch 57.1 (83088) - https://sketch.com -->
    <title>125-G40px</title>
    <desc>Created with Sketch.</desc>
    <g id="NEW_icons" stroke="none" stroke-width="1" fill="none" fill-rule="evenodd">
        <g id="icons_UD_new-Copy" transform="translate(-1526.000000, -16081.000000)">
            <g id="125-G40px" transform="translate(1527.000000, 16082.000000)">
                <circle id="Oval-Copy-1119" stroke="#E3E8EC" cx="20" cy="20" r="20"></circle>
                <g id="125-B32px-Copy" transform="translate(4.000000, 4.000000)">
                    <path d="M16.71,5 C16.78,5 16.84,5.05 16.86,5.12 L17.43,7.25 L17.58,7.81 L18.14,7.96 C18.86,8.15 19.54,8.43 20.18,8.8 L20.68,9.09 L21.18,8.8 L23.08,7.7 C23.1,7.69 23.13,7.68 23.16,7.68 C23.18,7.68 23.23,7.69 23.27,7.73 L24.28,8.74 C24.33,8.79 24.34,8.87 24.3,8.93 L23.2,10.83 L22.91,11.33 L23.2,11.83 C23.57,12.47 23.86,13.15 24.05,13.87 L24.2,14.43 L24.76,14.58 L26.88,15.15 C26.95,15.17 27,15.23 27,15.3 L27,16.72 C27,16.79 26.95,16.85 26.88,16.87 L24.76,17.44 L24.2,17.59 L24.05,18.15 C23.86,18.87 23.57,19.56 23.2,20.2 L22.91,20.7 L23.2,21.2 L24.3,23.1 C24.34,23.16 24.33,23.24 24.28,23.29 L23.27,24.3 C23.23,24.34 23.18,24.35 23.16,24.35 C23.13,24.35 23.11,24.34 23.08,24.33 L21.18,23.23 L20.68,22.94 L20.18,23.23 C19.54,23.6 18.85,23.89 18.13,24.08 L17.57,24.23 L17.42,24.79 L16.85,26.91 C16.84,26.95 16.78,27 16.71,27 L15.29,27 C15.22,27 15.16,26.95 15.14,26.88 L14.57,24.76 L14.42,24.2 L13.86,24.05 C13.14,23.86 12.45,23.57 11.82,23.2 L11.32,22.91 L10.82,23.2 L8.92,24.3 C8.9,24.31 8.87,24.32 8.84,24.32 C8.82,24.32 8.77,24.31 8.73,24.27 L7.72,23.26 C7.67,23.21 7.66,23.13 7.7,23.07 L8.8,21.17 L9.09,20.67 L8.8,20.17 C8.43,19.54 8.15,18.85 7.96,18.13 L7.81,17.57 L7.25,17.42 L5.12,16.85 C5.05,16.84 5,16.78 5,16.71 L5,15.29 C5,15.22 5.05,15.16 5.12,15.14 L7.25,14.57 L7.81,14.42 L7.96,13.86 C8.15,13.14 8.43,12.46 8.8,11.83 L9.09,11.33 L8.8,10.83 L7.7,8.92 C7.66,8.85 7.67,8.77 7.72,8.72 L8.73,7.71 C8.77,7.67 8.82,7.66 8.84,7.66 C8.87,7.66 8.89,7.67 8.92,7.68 L10.83,8.78 L11.33,9.07 L11.83,8.78 C12.46,8.41 13.15,8.13 13.86,7.94 L14.42,7.79 L14.57,7.23 L15.14,5.1 C15.16,5.05 15.22,5 15.29,5 L16.71,5 L16.71,5 Z M16.71,4 L15.29,4 C14.77,4 14.31,4.35 14.17,4.86 L13.6,6.99 C12.79,7.2 12.03,7.52 11.32,7.93 L9.41,6.83 C9.23,6.73 9.03,6.67 8.83,6.67 C8.53,6.67 8.23,6.79 8.01,7.01 L7.01,8.02 C6.64,8.39 6.56,8.96 6.83,9.42 L7.93,11.33 C7.52,12.04 7.2,12.8 6.99,13.61 L4.86,14.18 C4.35,14.31 4,14.76 4,15.29 L4,16.71 C4,17.23 4.35,17.69 4.86,17.83 L6.99,18.4 C7.2,19.21 7.52,19.98 7.93,20.68 L6.83,22.58 C6.57,23.03 6.64,23.61 7.01,23.98 L8.02,24.99 C8.24,25.21 8.54,25.33 8.84,25.33 C9.04,25.33 9.24,25.28 9.42,25.17 L11.32,24.07 C12.03,24.48 12.8,24.8 13.61,25.02 L14.18,27.14 C14.32,27.65 14.77,28 15.3,28 L16.72,28 C17.24,28 17.7,27.65 17.84,27.14 L18.41,25.02 C19.22,24.8 19.99,24.49 20.71,24.07 L22.61,25.17 C22.79,25.27 22.99,25.33 23.19,25.33 C23.49,25.33 23.79,25.21 24.01,24.99 L25.02,23.98 C25.39,23.61 25.47,23.04 25.2,22.58 L24.1,20.68 C24.51,19.97 24.83,19.2 25.05,18.38 L27.17,17.81 C27.68,17.67 28.03,17.22 28.03,16.69 L28.03,15.27 C28.03,14.75 27.68,14.29 27.17,14.15 L25.05,13.58 C24.83,12.77 24.51,12 24.1,11.29 L25.2,9.39 C25.46,8.94 25.39,8.36 25.02,7.99 L24.01,6.98 C23.79,6.76 23.49,6.64 23.19,6.64 C22.99,6.64 22.79,6.69 22.61,6.8 L20.71,7.9 C20,7.49 19.24,7.17 18.43,6.96 L17.86,4.83 C17.69,4.35 17.24,4 16.71,4 L16.71,4 Z" id="Shape" fill="#101828" fill-rule="nonzero"></path>
                    <g id="Group" transform="translate(10.000000, 10.000000)" fill="#101828" fill-rule="nonzero">
                        <path d="M3.03,2 C3.86,1.38 4.88,1 6,1 C7.12,1 8.14,1.38 8.97,2 L10.46,2 C9.36,0.78 7.77,0 6,0 C4.23,0 2.64,0.78 1.54,2 L3.03,2 Z" id="Path"></path>
                        <path d="M9.97,9 C9.06,10.21 7.62,11 6,11 C4.38,11 2.94,10.21 2.03,9 L0.81,9 C1.85,10.79 3.78,12 6,12 C8.22,12 10.15,10.79 11.19,9 L9.97,9 Z" id="Path"></path>
                    </g>
                    <g id="Group" transform="translate(8.000000, 12.000000)" fill="#101828" fill-rule="nonzero">
                        <path d="M7.62,0.99 L6.62,0.99 L4.62,3.99 L4.62,4.21 L4.62,5 L6.62,4.99 L6.62,5.98 L7.62,5.99 L7.62,4.99 L8.62,5 L8.62,3.99 L7.62,3.99 L7.62,0.99 L7.62,0.99 Z M5.73,3.99 L6.61,2.69 L6.61,3.99 L5.73,3.99 L5.73,3.99 Z" id="Shape"></path>
                        <polygon id="Path" points="11.75 0.99 10.75 0.99 8.92 6 9.91 6"></polygon>
                        <polygon id="Path" points="15.25 0.99 12.25 1 12.25 1.99 14.08 2 12.26 5.99 13.43 5.99 15.24 1.95"></polygon>
                        <path d="M2.43,0.97 C1.34,0.97 0.76,1.75 0.76,2.48 C0.76,2.64 0.78,2.78 0.81,2.93 L0.83,3.01 L1.86,2.93 L1.84,2.83 C1.82,2.73 1.81,2.65 1.81,2.52 C1.81,2.16 2.05,1.94 2.44,1.94 C2.81,1.94 3.05,2.17 3.05,2.53 C3.05,2.82 2.93,3.04 2.54,3.44 L0.77,5.24 L0.77,6.01 L4.07,6.01 L4.07,5 L2.37,5 L3.25,4.11 C3.88,3.48 4.08,3.07 4.08,2.43 C4.06,1.54 3.42,0.97 2.43,0.97 L2.43,0.97 Z" id="Path"></path>
                    </g>
                    <rect id="Rectangle" x="0" y="0" width="32" height="32"></rect>
                </g>
            </g>
        </g>
    </g>
</svg>