<?xml version="1.0" encoding="UTF-8"?>
<svg width="40px" height="40px" viewBox="0 0 40 40" version="1.1" xmlns="http://www.w3.org/2000/svg" xmlns:xlink="http://www.w3.org/1999/xlink">
    <!-- Generator: Sketch 57.1 (83088) - https://sketch.com -->
    <title>109-B40px</title>
    <desc>Created with Sketch.</desc>
    <g id="109-B40px" stroke="none" stroke-width="1" fill="none" fill-rule="evenodd">
        <g>
            <path d="M17.475,26.875 C17.475,26.675 17.4875,26.4625 17.5,26.2625 L6.25,26.275 L6.225,23.75 L8.725,23.75 L18.0125,23.75 C18.1625,23.325 18.3375,22.9 18.55,22.5 L8.75,22.5 L8.725,8.75 L32.5,8.75 L32.525,19.425 C32.9625,19.7625 33.375,20.1375 33.75,20.55 L33.75,8.725 C33.75,8.05 33.2,7.5 32.525,7.5 L8.725,7.5 C8.05,7.5 7.5,8.05 7.5,8.725 L7.5,22.5 L6.225,22.5 C5.55,22.5 5,23.05 5,23.725 L5,26.275 C5,26.95 5.55,27.5 6.225,27.5 L17.5,27.5 C17.4875,27.2875 17.475,27.0875 17.475,26.875 Z" id="Path" fill="#101828" fill-rule="nonzero"></path>
            <path d="M26.8375,20 C30.625,20 33.7125,23.0875 33.7125,26.875 C33.7125,30.6625 30.625,33.75 26.8375,33.75 C23.05,33.75 19.9625,30.6625 19.9625,26.875 C19.9625,23.0875 23.05,20 26.8375,20 L26.8375,20 Z M26.8375,18.75 C22.35,18.75 18.7125,22.3875 18.7125,26.875 C18.7125,31.3625 22.35,35 26.8375,35 C31.325,35 34.9625,31.3625 34.9625,26.875 C34.9625,22.3875 31.325,18.75 26.8375,18.75 L26.8375,18.75 Z" id="Shape" fill="#101828" fill-rule="nonzero"></path>
            <rect id="Rectangle" fill="#101828" fill-rule="nonzero" x="22.1875" y="25.925" width="1.25" height="3.125"></rect>
            <rect id="Rectangle" fill="#101828" fill-rule="nonzero" x="21.25" y="26.8625" width="3.125" height="1.25"></rect>
            <g id="Group" transform="translate(25.000000, 22.500000)" fill="#101828" fill-rule="nonzero">
                <path d="M3.1375,8.025 L1.8875,8.025 L1.8875,5.0125 L0.65,5.0125 L0.65,3.7625 L1.8875,3.7625 L1.8875,0.5375 L4.9625,0.5375 C6.175,0.5375 7.175,1.525 7.175,2.75 C7.175,4 6.1625,5.025 4.9,5.025 L3.1375,5.025 L3.1375,8.025 Z M3.1375,3.7625 L4.9,3.7625 C5.4625,3.7625 5.925,3.3 5.925,2.7375 C5.925,2.2125 5.5,1.775 4.9625,1.775 L3.1375,1.775 L3.1375,3.7625 Z" id="Shape"></path>
                <rect id="Rectangle" x="0.6375" y="5.525" width="5" height="1.25"></rect>
            </g>
            <g id="Group" transform="translate(15.000000, 11.250000)" fill="#101828" fill-rule="nonzero">
                <path d="M5.65,3.75 C6.3125,3.75 6.925,4.0125 7.3625,4.4375 L8.25,3.55 C7.575,2.9 6.6625,2.5 5.65,2.5 C4.6125,2.5 3.675,2.925 3,3.6 L3.8875,4.4875 C4.3375,4.025 4.9625,3.75 5.65,3.75 Z" id="Path"></path>
                <path d="M6.475,5.325 C6.2625,5.125 5.975,5 5.65,5 C5.3,5 4.9875,5.1375 4.7625,5.3625 L5.6,6.2 L6.475,5.325 Z" id="Path"></path>
                <path d="M5.65,1.25 C7,1.25 8.2375,1.8 9.1375,2.675 L10.025,1.7875 C8.8875,0.6875 7.35,0 5.65,0 C3.925,0 2.3625,0.7 1.225,1.825 L2.1125,2.7125 C3.025,1.8125 4.275,1.25 5.65,1.25 Z" id="Path"></path>
            </g>
            <rect id="Rectangle" x="0" y="0" width="40" height="40"></rect>
        </g>
    </g>
</svg>