<?xml version="1.0" encoding="UTF-8"?>
<svg width="80px" height="80px" viewBox="0 0 80 80" version="1.1" xmlns="http://www.w3.org/2000/svg" xmlns:xlink="http://www.w3.org/1999/xlink">
    <!-- Generator: Sketch 57.1 (83088) - https://sketch.com -->
    <title>212-B80px</title>
    <desc>Created with Sketch.</desc>
    <g id="212-B80px" stroke="none" stroke-width="1" fill="none" fill-rule="evenodd">
        <g>
            <path d="M40,30 C41.375,30 42.5,31.125 42.5,32.5 C42.5,33.875 41.375,35 40,35 C38.625,35 37.5,33.875 37.5,32.5 C37.5,31.125 38.625,30 40,30 L40,30 Z M40,27.5 C37.25,27.5 35,29.75 35,32.5 C35,35.25 37.25,37.5 40,37.5 C42.75,37.5 45,35.25 45,32.5 C45,29.75 42.75,27.5 40,27.5 L40,27.5 Z" id="Shape" fill="#101828" fill-rule="nonzero"></path>
            <path d="M35,47.5 L35,45 C35,43.625 36.125,42.5 37.5,42.5 L42.5,42.5 C43.875,42.5 45,43.625 45,45 L45,47.5 L47.5,47.5 L47.5,45 C47.5,42.25 45.25,40 42.5,40 L37.5,40 C34.75,40 32.5,42.25 32.5,45 L32.5,47.5 L35,47.5 Z" id="Path" fill="#101828" fill-rule="nonzero"></path>
            <path d="M67.525,17.5 L12.475,17.5 C11.1,17.5 10,18.6 10,19.975 L10,47.5 L12.475,47.5 L12.475,20 L67.5,20 L67.525,52.5 L25.675,52.5 C24.7,52.5 23.725,52.8 22.925,53.35 L14.175,59.2 L10,62.025 L10,65 L24.3,55.425 C24.725,55.15 25.2,55 25.675,55 L67.525,55 C68.875,55 70,53.9 70,52.525 L70,19.975 C70,18.6 68.9,17.5 67.525,17.5 Z" id="Path" fill="#101828" fill-rule="nonzero"></path>
            <rect id="Rectangle" x="0" y="0" width="80" height="80"></rect>
        </g>
    </g>
</svg>