<?xml version="1.0" encoding="UTF-8"?>
<svg width="80px" height="80px" viewBox="0 0 80 80" version="1.1" xmlns="http://www.w3.org/2000/svg" xmlns:xlink="http://www.w3.org/1999/xlink">
    <!-- Generator: Sketch 57.1 (83088) - https://sketch.com -->
    <title>158-B80px</title>
    <desc>Created with Sketch.</desc>
    <g id="158-B80px" stroke="none" stroke-width="1" fill="none" fill-rule="evenodd">
        <g>
            <path d="M57.5,25 L57.5,57.5 L25,57.5 L25,25 L57.5,25 L57.5,25 Z M57.5,22.5 L25,22.5 C23.625,22.5 22.5,23.625 22.5,25 L22.5,57.5 C22.5,58.875 23.625,60 25,60 L57.5,60 C58.875,60 60,58.875 60,57.5 L60,25 C60,23.625 58.875,22.5 57.5,22.5 L57.5,22.5 Z" id="Shape" fill="#101828" fill-rule="nonzero"></path>
            <path d="M41.25,32.5 C46.075,32.5 50,36.425 50,41.25 C50,46.075 46.075,50 41.25,50 C36.425,50 32.5,46.075 32.5,41.25 C32.5,36.425 36.425,32.5 41.25,32.5 L41.25,32.5 Z M41.25,30 C35.025,30 30,35.025 30,41.25 C30,47.475 35.025,52.5 41.25,52.5 C47.475,52.5 52.5,47.475 52.5,41.25 C52.5,35.025 47.475,30 41.25,30 L41.25,30 Z" id="Shape" fill="#101828" fill-rule="nonzero"></path>
            <polygon id="Path" fill="#101828" fill-rule="nonzero" points="44.125 45.875 40 41.775 40 36.275 42.5 36.275 42.5 40.725 45.875 44.125"></polygon>
            <path d="M41.975,17.5 L53.65,22.5 L28.85,22.5 L40.525,17.5 L41.975,17.5 L41.975,17.5 Z M42.5,15 L40,15 L22.5,22.5 L22.5,25 L60,25 L60,22.5 L42.5,15 L42.5,15 Z" id="Shape" fill="#101828" fill-rule="nonzero"></path>
            <rect id="Rectangle" fill="#101828" fill-rule="nonzero" x="40" y="10" width="2.5" height="5"></rect>
            <rect id="Rectangle" fill="#101828" fill-rule="nonzero" x="55" y="60" width="2.5" height="10"></rect>
            <rect id="Rectangle" fill="#101828" fill-rule="nonzero" x="47.5" y="60" width="2.5" height="10"></rect>
            <rect id="Rectangle" fill="#101828" fill-rule="nonzero" x="40" y="60" width="2.5" height="10"></rect>
            <rect id="Rectangle" fill="#101828" fill-rule="nonzero" x="32.5" y="60" width="2.5" height="10"></rect>
            <rect id="Rectangle" fill="#101828" fill-rule="nonzero" x="25" y="60" width="2.5" height="10"></rect>
            <rect id="Rectangle" x="0" y="0" width="80" height="80"></rect>
        </g>
    </g>
</svg>