<?xml version="1.0" encoding="UTF-8"?>
<svg width="80px" height="80px" viewBox="0 0 80 80" version="1.1" xmlns="http://www.w3.org/2000/svg" xmlns:xlink="http://www.w3.org/1999/xlink">
    <!-- Generator: Sketch 57.1 (83088) - https://sketch.com -->
    <title>163-W80px</title>
    <desc>Created with Sketch.</desc>
    <g id="NEW_icons" stroke="none" stroke-width="1" fill="none" fill-rule="evenodd">
        <g id="icons_UD_new-Copy" transform="translate(-2151.000000, -20812.000000)">
            <g id="163-W80px" transform="translate(2151.000000, 20812.000000)">
                <circle id="Oval-Copy-1012" fill="#101828" cx="40" cy="40" r="40"></circle>
                <g id="163-B32px-Copy-8" transform="translate(12.000000, 12.000000)">
                    <path d="M26.25,24.92 L31.535,28 L26.25,31.08 L26.25,24.92 L26.25,24.92 Z M24.5,21.8575 L24.5,34.125 L35,28 L24.5,21.8575 L24.5,21.8575 Z" id="Shape" fill="#FFFFFF" fill-rule="nonzero"></path>
                    <path d="M27.125,12.25 C31.0275,12.25 34.51,14.7525 36.015,18.62 L36.4875,19.845 L37.8,19.74 C38.0275,19.7225 38.2725,19.705 38.5,19.705 C43.33,19.705 47.25,23.9225 47.25,29.1025 C47.25,34.2825 43.33,38.5 38.5,38.5 L18.41,38.5 L18.41,38.5 L16.66,38.5 L16.5725,38.5 L16.5725,38.5 C12.25,38.465 8.75,34.6675 8.75,30.03 C8.75,25.55 12.005,21.84 16.17,21.5775 L17.4825,21.49 L17.7625,20.195 C18.795,15.5225 22.645,12.25 27.125,12.25 L27.125,12.25 Z M27.125,10.5 C21.735,10.5 17.2375,14.49 16.065,19.8275 C11.0075,20.1425 7,24.57 7,30.03 C7,35.665 11.305,40.25 16.625,40.25 C16.6425,40.25 16.6425,40.25 16.66,40.25 L16.66,40.25 L38.5,40.25 C44.2925,40.25 49,35.2625 49,29.1025 C49,22.9425 44.2925,17.9375 38.5,17.9375 C38.2025,17.9375 37.9225,17.955 37.6425,17.99 C35.945,13.5975 31.8675,10.5 27.125,10.5 L27.125,10.5 Z" id="Shape" fill="#FFFFFF" fill-rule="nonzero"></path>
                    <rect id="Rectangle" x="0" y="0" width="56" height="56"></rect>
                </g>
            </g>
        </g>
    </g>
</svg>