<?xml version="1.0" encoding="UTF-8"?>
<svg width="80px" height="80px" viewBox="0 0 80 80" version="1.1" xmlns="http://www.w3.org/2000/svg" xmlns:xlink="http://www.w3.org/1999/xlink">
    <!-- Generator: Sketch 57.1 (83088) - https://sketch.com -->
    <title>068-B80px</title>
    <desc>Created with Sketch.</desc>
    <g id="068-B80px" stroke="none" stroke-width="1" fill="none" fill-rule="evenodd">
        <g>
            <path d="M40,56.25 C40,55.5 40,54.75 40.25,54.25 C32.25,50 26,43.75 25.75,43.5 C25.75,43.5 14,31.25 12.5,19.25 C12.5,19.25 12.5,19 12.5,19 L19,12.5 C19,12.5 19,12.5 19.25,12.5 C19.25,12.5 19.25,12.5 19.5,12.5 L29.25,22.75 C29.25,22.75 29.25,23 29.25,23 L25,27.25 L23.75,28.5 L24.25,30 C24.25,30.25 26.75,36 30,39.25 C33.25,42.75 39,45.25 39.25,45.25 L40.75,46 L42,44.75 L46.25,40.5 C46.25,40.5 46.25,40.5 46.5,40.5 C46.5,40.5 46.5,40.5 46.75,40.5 L48.25,42 C49,41.5 49.75,41.25 50.75,40.75 L48.75,38.5 C48.25,38 47.5,37.75 46.75,37.75 C46,37.75 45.5,38 44.75,38.5 L40.5,42.75 C40.5,42.75 35.25,40.5 32,37.25 C29,34.25 26.75,28.75 26.75,28.75 L31,24.5 C32,23.5 32,21.75 31,20.75 L21.25,10.75 C20.75,10.25 20,10 19.25,10 C18.5,10 18,10.25 17.25,10.75 L10.75,17 C10.25,17.75 10,18.5 10,19.5 C11.5,32.5 24,45.25 24,45.25 C24,45.25 31,52.5 40,57 C40,56.75 40,56.5 40,56.25 Z" id="Path" fill="#101828" fill-rule="nonzero"></path>
            <path d="M56.25,45 C62.5,45 67.5,50 67.5,56.25 C67.5,62.5 62.5,67.5 56.25,67.5 C50,67.5 45,62.5 45,56.25 C45,50 50,45 56.25,45 L56.25,45 Z M56.25,42.5 C48.75,42.5 42.5,48.75 42.5,56.25 C42.5,63.75 48.75,70 56.25,70 C63.75,70 70,63.75 70,56.25 C70,48.75 63.75,42.5 56.25,42.5 L56.25,42.5 Z" id="Shape" fill="#101828" fill-rule="nonzero"></path>
            <polygon id="Path" fill="#101828" fill-rule="nonzero" points="50 55 50 57.5 55 57.5 55 62.5 57.5 62.5 57.5 57.5 62.5 57.5 62.5 55 57.5 55 57.5 50 55 50 55 55"></polygon>
            <rect id="Rectangle" x="0" y="0" width="80" height="80"></rect>
        </g>
    </g>
</svg>