<?xml version="1.0" encoding="UTF-8"?>
<svg width="80px" height="80px" viewBox="0 0 80 80" version="1.1" xmlns="http://www.w3.org/2000/svg" xmlns:xlink="http://www.w3.org/1999/xlink">
    <!-- Generator: Sketch 57.1 (83088) - https://sketch.com -->
    <title>186-W80px</title>
    <desc>Created with Sketch.</desc>
    <g id="NEW_icons" stroke="none" stroke-width="1" fill="none" fill-rule="evenodd">
        <g id="icons_UD_new-Copy" transform="translate(-869.000000, -23831.000000)">
            <g id="186-W80px" transform="translate(869.000000, 23831.000000)">
                <circle id="Oval-Copy-1239" fill="#101828" cx="40" cy="40" r="40"></circle>
                <g id="186-B32px-Copy-8" transform="translate(12.000000, 12.000000)">
                    <path d="M37.625,22.75 C38.0975,22.75 38.5,22.365 38.5,21.875 C38.5,21.385 38.115,21 37.625,21 C37.135,21 36.75,21.385 36.75,21.875 C36.7675,22.365 37.1525,22.75 37.625,22.75" id="Path" fill="#FFFFFF" fill-rule="nonzero"></path>
                    <path d="M30.625,22.75 C31.0975,22.75 31.5,22.365 31.5,21.875 C31.5,21.385 31.115,21 30.625,21 C30.135,21 29.75,21.385 29.75,21.875 C29.7675,22.365 30.1525,22.75 30.625,22.75" id="Path" fill="#FFFFFF" fill-rule="nonzero"></path>
                    <path d="M34.125,22.75 C34.5975,22.75 35,22.365 35,21.875 C35,21.385 34.615,21 34.125,21 C33.635,21 33.25,21.385 33.25,21.875 C33.2675,22.365 33.6525,22.75 34.125,22.75" id="Path" fill="#FFFFFF" fill-rule="nonzero"></path>
                    <rect id="Rectangle" fill="#FFFFFF" fill-rule="nonzero" x="12.25" y="14" width="7" height="1.75"></rect>
                    <rect id="Rectangle" fill="#FFFFFF" fill-rule="nonzero" x="12.25" y="17.5" width="8.75" height="1.75"></rect>
                    <rect id="Rectangle" fill="#FFFFFF" fill-rule="nonzero" x="12.25" y="21" width="8.75" height="1.75"></rect>
                    <rect id="Rectangle" fill="#FFFFFF" fill-rule="nonzero" x="12.25" y="24.5" width="8.75" height="1.75"></rect>
                    <rect id="Rectangle" fill="#FFFFFF" fill-rule="nonzero" x="12.25" y="28" width="5.25" height="1.75"></rect>
                    <path d="M42,15.75 L42,29.75 L26.25,29.75 L26.25,15.75 L42,15.75 L42,15.75 Z M42,14 L26.25,14 C25.2875,14 24.5,14.7875 24.5,15.75 L24.5,29.75 C24.5,30.7125 25.2875,31.5 26.25,31.5 L42,31.5 C42.9625,31.5 43.75,30.7125 43.75,29.75 L43.75,15.75 C43.75,14.7875 42.9625,14 42,14 L42,14 Z" id="Shape" fill="#FFFFFF" fill-rule="nonzero"></path>
                    <path d="M29.7675,36.3475 L35.0875,39.3575 L34.7025,39.585 L33.18,40.4775 L34.055,42 L36.2775,45.745 L34.7725,46.62 L32.5325,42.8575 L31.64,41.37 L30.135,42.245 L29.75,42.455 L29.7675,36.3475 L29.7675,36.3475 Z M28.0175,33.3375 L28,45.5 L31.0275,43.75 L34.1425,49 L38.675,46.3575 L35.56,41.09 L38.5875,39.34 L28.0175,33.3375 L28.0175,33.3375 Z" id="Shape" fill="#FFFFFF" fill-rule="nonzero"></path>
                    <path d="M47.1975,8.75 L8.8025,8.75 C7.805,8.75 7,9.555 7,10.5525 L7,36.68 C7,37.695 7.805,38.5 8.8025,38.5 L26.25,38.5 L26.25,36.715 L8.75,36.6975 L8.8025,10.5 L47.18,10.5 L47.25,10.5525 L47.1975,36.75 L37.1525,36.7325 L40.25,38.5 L47.1975,38.5 C48.195,38.5 49,37.695 49,36.6975 L49,10.5525 C49,9.555 48.195,8.75 47.1975,8.75 Z" id="Path" fill="#FFFFFF" fill-rule="nonzero"></path>
                    <rect id="Rectangle" x="0" y="0" width="56" height="56"></rect>
                </g>
            </g>
        </g>
    </g>
</svg>