<?xml version="1.0" encoding="UTF-8"?>
<svg width="56px" height="56px" viewBox="0 0 56 56" version="1.1" xmlns="http://www.w3.org/2000/svg" xmlns:xlink="http://www.w3.org/1999/xlink">
    <!-- Generator: Sketch 58 (84663) - https://sketch.com -->
    <title>257-B56px</title>
    <desc>Created with Sketch.</desc>
    <g id="257-B56px" stroke="none" stroke-width="1" fill="none" fill-rule="evenodd">
        <g id="257-B32px">
            <g>
                <rect id="Rectangle" x="0" y="0" width="56" height="56"></rect>
                <path d="M29.6275,38.6925 C23.135,35.945 17.78,30.6425 17.7275,30.59 C17.64,30.5025 9.345,22.0675 8.225,13.6675 C8.225,13.615 8.2075,13.5275 8.26,13.475 L12.775,8.9775 C12.81,8.9425 12.845,8.925 12.8975,8.925 C12.95,8.925 12.985,8.9425 12.985,8.96 L19.985,15.995 C20.0375,16.0475 20.0375,16.135 19.9675,16.205 L16.9575,19.215 L16.1175,20.055 L16.5725,21.14 C16.6425,21.315 18.3225,25.27 20.685,27.6325 C23.0475,29.995 27.0025,31.6925 27.16,31.7625 L28.245,32.2175 L29.085,31.3775 L32.095,28.3675 C32.13,28.3325 32.165,28.315 32.2175,28.315 C32.27,28.315 32.305,28.3325 32.305,28.35 L33.565,29.61 C34.055,29.26 34.58,28.9625 35.1225,28.7 L33.5475,27.1075 C33.18,26.74 32.69,26.5475 32.2,26.565 C31.7275,26.565 31.2375,26.7575 30.87,27.125 L27.86,30.135 C27.86,30.135 24.08,28.525 21.9275,26.3725 C19.775,24.22 18.1825,20.44 18.1825,20.44 L21.1925,17.43 C21.945,16.695 21.945,15.4875 21.21,14.7525 L14.21,7.7175 C13.86,7.35 13.37,7.175 12.8625,7.175 C12.39,7.175 11.9,7.3675 11.5325,7.735 L7.035,12.2325 C6.5975,12.67 6.405,13.2825 6.4925,13.895 C7.7,23.0125 16.485,31.815 16.485,31.815 C16.485,31.815 22.68,38.01 30.1525,40.775 C29.9075,40.11 29.7325,39.41 29.6275,38.6925 Z" id="Path" fill="#000000" fill-rule="nonzero"></path>
                <path d="M38.2025,29.2425 L40.1625,30.4325 L38.2375,31.675 L38.2025,29.2425 L38.2025,29.2425 Z M36.4,26.11 L36.5225,34.86 L43.4525,30.38 L36.4,26.11 L36.4,26.11 Z" id="Shape" fill="#000000" fill-rule="nonzero"></path>
                <g id="Group" transform="translate(29.750000, 29.750000)" fill="#000000" fill-rule="nonzero">
                    <path d="M4.2875,13.6325 L5.8275,12.6175 C4.3225,11.515 3.325,9.7825 3.29,7.77 C3.255,5.32 4.6725,3.2025 6.7375,2.1875 L6.7025,0.315 C3.6575,1.435 1.4875,4.3575 1.54,7.7875 C1.575,10.15 2.66,12.215 4.2875,13.6325 Z" id="Path"></path>
                    <path d="M14.56,1.7675 L13.02,2.7825 C14.5075,3.885 15.505,5.6175 15.54,7.6125 C15.575,10.045 14.175,12.1625 12.1275,13.1775 L12.1625,15.0675 C15.19,13.93 17.36,11.025 17.3075,7.595 C17.255,5.25 16.1875,3.185 14.56,1.7675 Z" id="Path"></path>
                </g>
                <path d="M40.1275,43.2075 L40.1625,45.64 L38.2025,44.45 L40.1275,43.2075 L40.1275,43.2075 Z M41.825,40.04 L34.895,44.52 L41.965,48.79 L41.825,40.04 L41.825,40.04 Z" id="Shape" fill="#101828" fill-rule="nonzero"></path>
            </g>
        </g>
    </g>
</svg>