<?xml version="1.0" encoding="UTF-8"?>
<svg width="56px" height="56px" viewBox="0 0 56 56" version="1.1" xmlns="http://www.w3.org/2000/svg" xmlns:xlink="http://www.w3.org/1999/xlink">
    <!-- Generator: Sketch 57.1 (83088) - https://sketch.com -->
    <title>245-B56px</title>
    <desc>Created with Sketch.</desc>
    <g id="245-B56px" stroke="none" stroke-width="1" fill="none" fill-rule="evenodd">
        <g>
            <path d="M42,49.4375 L14,49.4375 C12.5475,49.4375 11.375,48.265 11.375,46.8125 L11.375,42.4375 L16.625,42.4375 L16.625,44.1875 L18.375,44.1875 L18.375,42.4375 L23.625,42.4375 L23.625,44.1875 L25.375,44.1875 L25.375,42.4375 L30.625,42.4375 L30.625,44.1875 L32.375,44.1875 L32.375,42.4375 L37.625,42.4375 L37.625,44.1875 L39.375,44.1875 L39.375,42.4375 L44.625,42.4375 L44.625,46.8125 C44.625,48.265 43.4525,49.4375 42,49.4375 Z M13.125,44.1875 L13.125,46.8125 C13.125,47.3025 13.51,47.6875 14,47.6875 L42,47.6875 C42.49,47.6875 42.875,47.3025 42.875,46.8125 L42.875,44.1875 L41.125,44.1875 L41.125,45.9375 L35.875,45.9375 L35.875,44.1875 L34.125,44.1875 L34.125,45.9375 L28.875,45.9375 L28.875,44.1875 L27.125,44.1875 L27.125,45.9375 L21.875,45.9375 L21.875,44.1875 L20.125,44.1875 L20.125,45.9375 L14.875,45.9375 L14.875,44.1875 L13.125,44.1875 Z" id="Shape" fill="#101828" fill-rule="nonzero"></path>
            <path d="M24.08,9.5375 C26.1625,10.1325 29.855,11.6025 32.0075,14.77 L34.405,18.2875 L35.07,14.6825 C37.4325,17.045 40.4775,21.2275 40.3025,26.985 C40.145,31.7275 38.1675,35.0175 36.2075,37.135 C36.6975,32.83 36.26,26.11 30.7825,19.8625 L28.0525,16.7475 L27.72,20.8775 C27.72,20.895 27.5975,22.3125 27.195,24.0975 C27.1425,24.01 27.09,23.9225 27.055,23.835 L24.2025,18.9525 L23.8,24.5875 C23.73,25.55 23.3275,28.385 22.225,29.9425 L21.945,30.3275 C21.035,31.57 19.81,33.285 19.845,36.4525 C19.845,36.6625 19.8625,36.8725 19.8625,37.0825 C17.8675,35.175 16.6425,33.215 16.1175,31.1325 C15.1025,27.125 16.7825,24.29 19.0925,20.37 C20.755,17.5525 22.7675,14.1225 24.08,9.5375 L24.08,9.5375 Z M22.8025,7.4375 C20.09,19.285 12.3025,23.1875 14.42,31.5525 C15.435,35.56 18.4625,38.465 21.3325,40.565 C21.4375,40.6525 21.56,40.6875 21.6825,40.6875 C22.085,40.6875 22.435,40.2325 22.225,39.7425 C21.875,38.8675 21.6125,37.765 21.595,36.4175 C21.56,33.53 22.7675,32.2 23.6425,30.9575 C25.2525,28.6475 25.5325,24.7275 25.5325,24.7275 C26.495,26.355 26.5475,28.035 26.4075,29.26 C26.3725,29.5225 26.565,29.6975 26.7575,29.6975 C26.8625,29.6975 26.9675,29.645 27.0375,29.5225 C29.0675,26.005 29.47,21.035 29.47,21.035 C35.8925,28.3675 34.86,36.2775 33.95,39.7775 C33.8275,40.285 34.195,40.705 34.615,40.705 C34.7375,40.705 34.8775,40.67 34.9825,40.5825 C37.4325,38.78 41.8075,34.5275 42.0525,27.055 C42.385,16.6425 33.32,10.9725 33.32,10.9725 C33.6875,12.635 33.46,13.8075 33.46,13.8075 C29.89,8.54 22.8025,7.4375 22.8025,7.4375 L22.8025,7.4375 Z" id="Shape" fill="#101828" fill-rule="nonzero"></path>
            <rect id="Rectangle" x="0" y="0" width="56" height="56"></rect>
        </g>
    </g>
</svg>