<?xml version="1.0" encoding="UTF-8"?>
<svg width="80px" height="80px" viewBox="0 0 80 80" version="1.1" xmlns="http://www.w3.org/2000/svg" xmlns:xlink="http://www.w3.org/1999/xlink">
    <!-- Generator: Sketch 57.1 (83088) - https://sketch.com -->
    <title>096-B80px</title>
    <desc>Created with Sketch.</desc>
    <g id="096-B80px" stroke="none" stroke-width="1" fill="none" fill-rule="evenodd">
        <g>
            <g id="Group" transform="translate(10.000000, 10.000000)" fill="#101828" fill-rule="nonzero">
                <path d="M5.825,59.325 L4.55,57.175 C13.775,51.725 10.075,42 7.075,36.7 L2.45,28.575 C-2.625,19.625 0.475,8.175 9.375,3.025 C18.325,-2.15 29.825,0.9 35.025,9.825 L39.6,17.675 C42.7,22.975 49.275,31.075 58.65,25.65 L59.9,27.8 L59.9,27.8 L5.825,59.325 Z M18.75,3 C15.975,3 13.175,3.7 10.625,5.2 C2.925,9.675 0.225,19.6 4.625,27.35 L9.25,35.475 C13.1,42.225 13.9,48.275 11.8,52.975 L51.45,29.85 C46.25,29.35 41.325,25.625 37.45,18.95 L32.875,11.1 C29.85,5.9 24.375,3 18.75,3 Z" id="Shape"></path>
                <path d="M32.425,57.275 C27.425,57.275 22.525,54.675 19.85,50.05 L22.025,48.8 C25.35,54.525 32.725,56.5 38.45,53.175 C41.225,51.575 43.2,48.975 44.025,45.875 C44.85,42.775 44.425,39.55 42.8,36.775 L44.975,35.525 C46.925,38.875 47.45,42.8 46.45,46.525 C45.45,50.275 43.05,53.4 39.7,55.35 C37.4,56.65 34.9,57.275 32.425,57.275 Z" id="Path"></path>
            </g>
            <rect id="Rectangle" x="0" y="0" width="80" height="80"></rect>
        </g>
    </g>
</svg>