<?xml version="1.0" encoding="UTF-8"?>
<svg width="80px" height="80px" viewBox="0 0 80 80" version="1.1" xmlns="http://www.w3.org/2000/svg" xmlns:xlink="http://www.w3.org/1999/xlink">
    <!-- Generator: Sketch 57.1 (83088) - https://sketch.com -->
    <title>086-C80px</title>
    <desc>Created with Sketch.</desc>
    <g id="NEW_icons" stroke="none" stroke-width="1" fill="none" fill-rule="evenodd">
        <g id="icons_UD_new-Copy" transform="translate(-1002.000000, -11269.000000)">
            <g id="086-C80px" transform="translate(1002.000000, 11269.000000)">
                <circle id="Oval-Copy-571" fill="#FF4F12" cx="40" cy="40" r="40"></circle>
                <g id="086-B32px-Copy-9" transform="translate(12.000000, 12.000000)">
                    <polygon id="Path" fill="#FFFFFF" fill-rule="nonzero" points="23.1 24.5 23.1 28 23.1 29.75 23.1 33.25 24.85 33.25 24.85 29.75 24.85 28 24.85 24.5"></polygon>
                    <polygon id="Path" fill="#FFFFFF" fill-rule="nonzero" points="27.125 26.25 27.125 28 27.125 29.75 27.125 31.5 28.875 31.5 28.875 29.75 28.875 28 28.875 26.25"></polygon>
                    <polygon id="Path" fill="#FFFFFF" fill-rule="nonzero" points="47.25 27.3 47.25 28.35 47.25 29.4 47.25 30.45 49 30.45 49 29.4 49 28.35 49 27.3"></polygon>
                    <polygon id="Path" fill="#FFFFFF" fill-rule="nonzero" points="43.225 25.2 43.225 28.35 43.225 29.4 43.225 32.55 44.975 32.55 44.975 29.4 44.975 28.35 44.975 25.2"></polygon>
                    <polygon id="Path" fill="#FFFFFF" fill-rule="nonzero" points="31.15 27.125 31.15 28.525 31.15 29.225 31.15 30.625 32.9 30.625 32.9 29.225 32.9 28.525 32.9 27.125"></polygon>
                    <polygon id="Path" fill="#FFFFFF" fill-rule="nonzero" points="15.05 19.25 15.05 28 15.05 29.75 15.05 38.5 16.8 38.5 16.8 29.75 16.8 28 16.8 19.25"></polygon>
                    <polygon id="Path" fill="#FFFFFF" fill-rule="nonzero" points="19.075 22.75 19.075 28 19.075 29.75 19.075 35 20.825 35 20.825 29.75 20.825 28 20.825 22.75"></polygon>
                    <polygon id="Path" fill="#FFFFFF" fill-rule="nonzero" points="35.175 24.15 35.175 28.35 35.175 29.4 35.175 33.6 36.925 33.6 36.925 29.4 36.925 28.35 36.925 24.15"></polygon>
                    <polygon id="Path" fill="#FFFFFF" fill-rule="nonzero" points="39.2 22.1375 39.2 28.35 39.2 29.4 39.2 35.6125 40.95 35.6125 40.95 29.4 40.95 28.35 40.95 22.1375"></polygon>
                    <polygon id="Path" fill="#FFFFFF" fill-rule="nonzero" points="7 26.25 7 27.3 7 30.45 7 31.5 8.75 31.5 8.75 30.45 8.75 27.3 8.75 26.25"></polygon>
                    <polygon id="Path" fill="#FFFFFF" fill-rule="nonzero" points="11.025 22.75 11.025 28 11.025 29.75 11.025 35 12.775 35 12.775 29.75 12.775 28 12.775 22.75"></polygon>
                    <rect id="Rectangle" x="0" y="0" width="56" height="56"></rect>
                </g>
            </g>
        </g>
    </g>
</svg>