<?xml version="1.0" encoding="UTF-8"?>
<svg width="56px" height="56px" viewBox="0 0 56 56" version="1.1" xmlns="http://www.w3.org/2000/svg" xmlns:xlink="http://www.w3.org/1999/xlink">
    <!-- Generator: Sketch 57.1 (83088) - https://sketch.com -->
    <title>133-W56px</title>
    <desc>Created with Sketch.</desc>
    <g id="NEW_icons" stroke="none" stroke-width="1" fill="none" fill-rule="evenodd">
        <g id="icons_UD_new-Copy" transform="translate(-1814.000000, -17075.000000)">
            <g id="133-W56px" transform="translate(1814.000000, 17075.000000)">
                <circle id="Oval-Copy-1112" fill="#101828" cx="28" cy="28" r="28"></circle>
                <g id="133-B32px-Copy-4" transform="translate(8.000000, 8.000000)">
                    <path d="M29.4,12.5 L32.4,16.25 L25,16.25 L25,12.5 L29.4,12.5 L29.4,12.5 Z M29.4,11.25 L23.75,11.25 L23.75,17.5 L35,17.5 L30.375,11.7125 C30.1375,11.425 29.775,11.25 29.4,11.25 L29.4,11.25 Z" id="Shape" fill="#FFFFFF" fill-rule="nonzero"></path>
                    <path d="M33.75,16.25 L25.0125,16.25 C24.3125,16.25 23.75,16.8125 23.75,17.5125 L23.75,23.75 L26.875,23.75 C26.525,23.75 26.25,23.475 26.25,23.125 C26.25,22.775 26.525,22.5 26.875,22.5 L25,22.5 L25.0125,17.5 L33.75,17.5 L33.7375,22.5 L31.875,22.5 C32.225,22.5 32.5,22.775 32.5,23.125 C32.5,23.475 32.225,23.75 31.875,23.75 L33.7375,23.75 C34.4375,23.75 35,23.1875 35,22.4875 L35,17.5 C35,16.8125 34.4375,16.25 33.75,16.25 Z" id="Path" fill="#FFFFFF" fill-rule="nonzero"></path>
                    <path d="M23.75,10 L6.25,10 C5.5625,10 5,10.5625 5,11.25 L5,22.5 C5,23.1875 5.5625,23.75 6.25,23.75 L8.125,23.75 C7.775,23.75 7.5,23.475 7.5,23.125 C7.5,22.775 7.775,22.5 8.125,22.5 L6.25,22.5 L6.25,11.25 L23.75,11.25 L23.75,22.5 L13.125,22.5 C13.475,22.5 13.75,22.775 13.75,23.125 C13.75,23.475 13.475,23.75 13.125,23.75 L23.75,23.75 C24.4375,23.75 25,23.1875 25,22.5 L25,11.25 C25,10.5625 24.4375,10 23.75,10 Z" id="Path" fill="#FFFFFF" fill-rule="nonzero"></path>
                    <path d="M10.625,21.25 C11.6625,21.25 12.5,22.0875 12.5,23.125 C12.5,24.1625 11.6625,25 10.625,25 C9.5875,25 8.75,24.1625 8.75,23.125 C8.75,22.0875 9.5875,21.25 10.625,21.25 L10.625,21.25 Z M10.625,20 C8.9,20 7.5,21.4 7.5,23.125 C7.5,24.85 8.9,26.25 10.625,26.25 C12.35,26.25 13.75,24.85 13.75,23.125 C13.75,21.4 12.35,20 10.625,20 L10.625,20 Z" id="Shape" fill="#FFFFFF" fill-rule="nonzero"></path>
                    <path d="M29.375,21.25 C30.4125,21.25 31.25,22.0875 31.25,23.125 C31.25,24.1625 30.4125,25 29.375,25 C28.3375,25 27.5,24.1625 27.5,23.125 C27.5,22.0875 28.3375,21.25 29.375,21.25 L29.375,21.25 Z M29.375,20 C27.65,20 26.25,21.4 26.25,23.125 C26.25,24.85 27.65,26.25 29.375,26.25 C31.1,26.25 32.5,24.85 32.5,23.125 C32.5,21.4 31.1,20 29.375,20 L29.375,20 Z" id="Shape" fill="#FFFFFF" fill-rule="nonzero"></path>
                    <circle id="Oval" fill="#FFFFFF" fill-rule="nonzero" cx="10.625" cy="23.125" r="1"></circle>
                    <circle id="Oval" fill="#FFFFFF" fill-rule="nonzero" cx="29.375" cy="23.125" r="1"></circle>
                    <rect id="Rectangle" x="0" y="0" width="40" height="40"></rect>
                </g>
            </g>
        </g>
    </g>
</svg>