<?xml version="1.0" encoding="UTF-8"?>
<svg width="56px" height="56px" viewBox="0 0 56 56" version="1.1" xmlns="http://www.w3.org/2000/svg" xmlns:xlink="http://www.w3.org/1999/xlink">
    <!-- Generator: Sketch 54.1 (76490) - https://sketchapp.com -->
    <title>013-W56px</title>
    <desc>Created with Sketch.</desc>
    <g id="NEW_icons" stroke="none" stroke-width="1" fill="none" fill-rule="evenodd">
        <g id="icons_UD_new-Copy" transform="translate(-1814.000000, -1855.000000)">
            <g id="013-W56px" transform="translate(1814.000000, 1855.000000)">
                <g id="003-B32px-Copy-33" transform="translate(8.000000, 8.000000)">
                    <g id="Group" transform="translate(10.000000, 5.000000)" fill="#FFFFFF" fill-rule="nonzero">
                        <path d="M18.6875,0 L1.3125,0 C0.5875,0 0,0.5875 0,1.3125 L0,23.75 L0,25 L0,28.6875 C0,29.4125 0.5875,30 1.3125,30 L18.6875,30 C19.4125,30 20,29.4125 20,28.6875 L20,25 L20,23.75 L20,1.3125 C20,0.5875 19.4125,0 18.6875,0 Z M18.75,28.6875 C18.75,28.725 18.725,28.75 18.6875,28.75 L1.3125,28.75 C1.275,28.75 1.25,28.725 1.25,28.6875 L1.25,25 L18.75,25 L18.75,28.6875 Z M1.25,23.75 L1.25,1.3125 C1.25,1.275 1.275,1.25 1.3125,1.25 L18.6875,1.25 C18.725,1.25 18.75,1.275 18.75,1.3125 L18.75,23.75 L1.25,23.75 Z" id="Shape"></path>
                        <path d="M10,27.4875 C10.3375,27.4875 10.625,27.2125 10.625,26.8625 C10.625,26.525 10.35,26.2375 10,26.2375 C9.65,26.2375 9.375,26.5125 9.375,26.8625 C9.375,27.2125 9.6625,27.4875 10,27.4875 Z" id="Path"></path>
                        <path d="M12.5125,20 L7.5,20.0125 L7.5,16.25 L6.25,16.25 L6.25,20.0125 C6.25,20.6875 6.8,21.25 7.4875,21.25 L12.525,21.25 C13.2,21.25 13.7625,20.7 13.7625,20.0125 L13.7625,16.25 L12.5125,16.25 L12.5125,20 Z" id="Path"></path>
                        <polygon id="Path" points="4.775 15.575 5.5625 16.5375 10 12.875 14.4375 16.5375 15.225 15.575 10 11.2625"></polygon>
                        <path d="M12.6,7.3125 C11.925,6.65 11.0125,6.25 10,6.25 C8.9625,6.25 8.025,6.675 7.35,7.35 L8.2375,8.2375 C8.6875,7.775 9.3125,7.5 10,7.5 C10.6625,7.5 11.275,7.7625 11.7125,8.1875 L12.6,7.3125 Z" id="Path"></path>
                        <path d="M9.1125,9.1125 L9.95,9.95 L10.825,9.075 C10.6125,8.875 10.325,8.75 10,8.75 C9.65,8.75 9.3375,8.8875 9.1125,9.1125 Z" id="Path"></path>
                        <path d="M10,5 C11.35,5 12.5875,5.55 13.4875,6.425 L14.375,5.5375 C13.2375,4.4375 11.7,3.75 10,3.75 C8.275,3.75 6.7125,4.45 5.575,5.575 L6.4625,6.4625 C7.375,5.5625 8.625,5 10,5 Z" id="Path"></path>
                    </g>
                    <rect id="Rectangle" x="0" y="0" width="40" height="40"></rect>
                </g>
                <circle id="Oval-Copy-161" fill="#101828" cx="28" cy="28" r="28"></circle>
                <g id="013-B32px-Copy-5" transform="translate(8.000000, 8.000000)">
                    <path d="M24.375,27.6375 L23.5,26.25 L25.2375,26.25 L24.375,27.6375 L24.375,27.6375 Z M24.375,30 L27.5,25 L21.25,25 L24.375,30 L24.375,30 Z" id="Shape" fill="#FFFFFF" fill-rule="nonzero"></path>
                    <polygon id="Path" fill="#FFFFFF" fill-rule="nonzero" points="25 20 23.75 20 23.75 25 25 25"></polygon>
                    <path d="M15.625,22.3625 L16.5,23.75 L14.75,23.75 L15.625,22.3625 L15.625,22.3625 Z M15.625,20 L12.5,25 L18.75,25 L15.625,20 L15.625,20 Z" id="Shape" fill="#FFFFFF" fill-rule="nonzero"></path>
                    <rect id="Rectangle" fill="#FFFFFF" fill-rule="nonzero" x="15" y="25" width="1.25" height="5"></rect>
                    <path d="M27.5,14.0625 C27.2875,14.0625 27.0875,14.075 26.8875,14.1 C25.675,10.9625 22.7625,8.75 19.375,8.75 C15.525,8.75 12.3125,11.6 11.475,15.4125 C7.8625,15.6375 5,18.8 5,22.6875 C5,26.725 8.075,29.9875 11.875,29.9875 C11.8875,29.9875 11.8875,29.9875 11.9,29.9875 L11.9,29.9875 L12.5,29.9875 L12.5,28.7375 L11.9,28.7375 L11.8375,28.7375 L11.8375,28.7375 C8.75,28.7125 6.25,26.0125 6.25,22.6875 C6.25,19.4875 8.575,16.8375 11.55,16.65 L12.4875,16.5875 L12.6875,15.6625 C13.425,12.3375 16.175,10 19.375,10 C22.1625,10 24.65,11.7875 25.725,14.55 L26.0625,15.425 L27,15.35 C27.1625,15.3375 27.3375,15.325 27.5,15.325 C30.95,15.325 33.75,18.3375 33.75,22.0375 C33.75,25.7375 30.95,28.75 27.5,28.75 L27.5,30 C31.6375,30 35,26.4375 35,22.0375 C35,17.625 31.6375,14.0625 27.5,14.0625 Z" id="Path" fill="#FFFFFF" fill-rule="nonzero"></path>
                    <rect id="Rectangle" fill="#FFFFFF" fill-rule="nonzero" x="18.75" y="28.7375" width="2.5" height="1.25"></rect>
                    <rect id="Rectangle" x="0" y="0" width="40" height="40"></rect>
                </g>
            </g>
        </g>
    </g>
</svg>