<?xml version="1.0" encoding="UTF-8"?>
<svg width="40px" height="40px" viewBox="0 0 40 40" version="1.1" xmlns="http://www.w3.org/2000/svg" xmlns:xlink="http://www.w3.org/1999/xlink">
    <!-- Generator: Sketch 57.1 (83088) - https://sketch.com -->
    <title>007-B40px</title>
    <desc>Created with Sketch.</desc>
    <g id="007-B40px" stroke="none" stroke-width="1" fill="none" fill-rule="evenodd">
        <g>
            <path d="M26.85,29.3 C26.4875,29.525 26.1125,29.725 25.7375,29.9125 L27.0125,33.75 L12.9875,33.75 L14.2625,29.9125 C13.875,29.725 13.5125,29.525 13.15,29.3 L11.8,33.35 C11.525,34.1625 12.125,35 12.9875,35 L27.025,35 C27.875,35 28.475,34.1625 28.2125,33.35 L26.85,29.3 Z" id="Path" fill="#101828" fill-rule="nonzero"></path>
            <path d="M20,6.25 C26.55,6.25 31.875,11.575 31.875,18.125 C31.875,24.675 26.55,30 20,30 C13.45,30 8.125,24.675 8.125,18.125 C8.125,11.575 13.45,6.25 20,6.25 L20,6.25 Z M20,5 C12.75,5 6.875,10.875 6.875,18.125 C6.875,25.375 12.75,31.25 20,31.25 C27.25,31.25 33.125,25.375 33.125,18.125 C33.125,10.875 27.25,5 20,5 L20,5 Z" id="Shape" fill="#101828" fill-rule="nonzero"></path>
            <path d="M20,11.25 C20.35,11.25 20.625,10.975 20.625,10.625 C20.625,10.275 20.35,10 20,10 C19.65,10 19.375,10.275 19.375,10.625 C19.375,10.975 19.65,11.25 20,11.25" id="Path" fill="#101828" fill-rule="nonzero"></path>
            <path d="M20,20 L20,20 C20.55,20 21.025,20.35 21.1875,20.875 C21.2875,21.1875 21.2625,21.5375 21.1125,21.825 C20.9625,22.125 20.7,22.3375 20.375,22.4375 C20.25,22.475 20.125,22.5 20,22.5 C19.45,22.5 18.975,22.15 18.8125,21.625 C18.7125,21.3125 18.7375,20.9625 18.8875,20.675 C19.0375,20.375 19.3,20.1625 19.625,20.0625 C19.75,20.025 19.875,20 20,20 L20,20 Z M20,18.75 C19.75,18.75 19.4875,18.7875 19.2375,18.8625 C17.925,19.275 17.2,20.6875 17.6125,22 C17.95,23.075 18.9375,23.75 20,23.75 C20.25,23.75 20.5125,23.7125 20.7625,23.6375 C22.075,23.225 22.8,21.8125 22.3875,20.5 C22.05,19.425 21.0625,18.75 20,18.75 L20,18.75 Z" id="Shape" fill="#101828" fill-rule="nonzero"></path>
            <path d="M20,16.25 C22.7625,16.25 25,18.4875 25,21.25 C25,24.0125 22.7625,26.25 20,26.25 C17.2375,26.25 15,24.0125 15,21.25 C15,18.4875 17.2375,16.25 20,16.25 L20,16.25 Z M20,15 C16.55,15 13.75,17.8 13.75,21.25 C13.75,24.7 16.55,27.5 20,27.5 C23.45,27.5 26.25,24.7 26.25,21.25 C26.25,17.8 23.45,15 20,15 L20,15 Z" id="Shape" fill="#101828" fill-rule="nonzero"></path>
            <rect id="Rectangle" x="0" y="0" width="40" height="40"></rect>
        </g>
    </g>
</svg>