<?xml version="1.0" encoding="UTF-8"?>
<svg width="42px" height="42px" viewBox="0 0 42 42" version="1.1" xmlns="http://www.w3.org/2000/svg" xmlns:xlink="http://www.w3.org/1999/xlink">
    <!-- Generator: Sketch 54.1 (76490) - https://sketchapp.com -->
    <title>003-G40px</title>
    <desc>Created with Sketch.</desc>
    <g id="NEW_icons" stroke="none" stroke-width="1" fill="none" fill-rule="evenodd">
        <g id="icons_UD_new-Copy" transform="translate(-1526.000000, -615.000000)">
            <g id="003-G40px" transform="translate(1527.000000, 616.000000)">
                <circle id="Oval-Copy-85" stroke="#E3E8EC" cx="20" cy="20" r="20"></circle>
                <g id="003-B32px-Copy-2" transform="translate(4.000000, 4.000000)">
                    <g id="Group" transform="translate(8.000000, 4.000000)" fill="#101828" fill-rule="nonzero">
                        <path d="M14.95,0 L1.05,0 C0.47,0 0,0.47 0,1.05 L0,19 L0,20 L0,22.95 C0,23.53 0.47,24 1.05,24 L14.95,24 C15.53,24 16,23.53 16,22.95 L16,20 L16,19 L16,1.05 C16,0.47 15.53,0 14.95,0 Z M15,22.95 C15,22.98 14.98,23 14.95,23 L1.05,23 C1.02,23 1,22.98 1,22.95 L1,20 L15,20 L15,22.95 Z M1,19 L1,1.05 C1,1.02 1.02,1 1.05,1 L14.95,1 C14.98,1 15,1.02 15,1.05 L15,19 L1,19 Z" id="Shape"></path>
                        <path d="M8,21.99 C8.27,21.99 8.5,21.77 8.5,21.49 C8.5,21.22 8.28,20.99 8,20.99 C7.72,20.99 7.5,21.21 7.5,21.49 C7.5,21.77 7.73,21.99 8,21.99 Z" id="Path"></path>
                        <path d="M10.01,16 L6,16.01 L6,13 L5,13 L5,16.01 C5,16.55 5.44,17 5.99,17 L10.02,17 C10.56,17 11.01,16.56 11.01,16.01 L11.01,13 L10.01,13 L10.01,16 Z" id="Path"></path>
                        <polygon id="Path" points="3.82 12.46 4.45 13.23 8 10.3 11.55 13.23 12.18 12.46 8 9.01"></polygon>
                        <path d="M10.08,5.85 C9.54,5.32 8.81,5 8,5 C7.17,5 6.42,5.34 5.88,5.88 L6.59,6.59 C6.95,6.22 7.45,6 8,6 C8.53,6 9.02,6.21 9.37,6.55 L10.08,5.85 Z" id="Path"></path>
                        <path d="M7.29,7.29 L7.96,7.96 L8.66,7.26 C8.49,7.1 8.26,7 8,7 C7.72,7 7.47,7.11 7.29,7.29 Z" id="Path"></path>
                        <path d="M8,4 C9.08,4 10.07,4.44 10.79,5.14 L11.5,4.43 C10.59,3.55 9.36,3 8,3 C6.62,3 5.37,3.56 4.46,4.46 L5.17,5.17 C5.9,4.45 6.9,4 8,4 Z" id="Path"></path>
                    </g>
                    <rect id="Rectangle" x="0" y="0" width="32" height="32"></rect>
                </g>
            </g>
        </g>
    </g>
</svg>