<?xml version="1.0" encoding="UTF-8"?>
<svg width="56px" height="56px" viewBox="0 0 56 56" version="1.1" xmlns="http://www.w3.org/2000/svg" xmlns:xlink="http://www.w3.org/1999/xlink">
    <!-- Generator: Sketch 58 (84663) - https://sketch.com -->
    <title>251-W56px</title>
    <desc>Created with Sketch.</desc>
    <g id="NEW_icons" stroke="none" stroke-width="1" fill="none" fill-rule="evenodd">
        <g id="icons_UD_new-Copy" transform="translate(-1814.000000, -31893.000000)">
            <g id="251-W56px" transform="translate(1814.000000, 31893.000000)">
                <circle id="Oval-Copy-1451" fill="#101828" cx="28" cy="28" r="28"></circle>
                <g id="251-B32px-Copy" transform="translate(8.000000, 8.000000)">
                    <path d="M27.75,24.075 L28.8625,26.3375 L29.15,26.925 L29.8,27.025 L32.2875,27.3875 L30.4875,29.1375 L30.0125,29.6 L30.125,30.25 L30.55,32.725 L28.325,31.55 L27.7375,31.25 L27.15,31.55 L24.925,32.725 L25.35,30.25 L25.4625,29.6 L24.9875,29.1375 L23.1875,27.3875 L25.675,27.025 L26.325,26.925 L26.6125,26.3375 L27.75,24.075 L27.75,24.075 Z M27.75,21.25 L25.5125,25.775 L20.5125,26.5 L24.125,30.025 L23.2875,35 L27.7625,32.65 L32.225,35 L31.375,30.025 L34.9875,26.5 L29.9875,25.775 L27.75,21.25 L27.75,21.25 Z" id="Shape" fill="#FFFFFF" fill-rule="nonzero"></path>
                    <path d="M24.2125,19.4375 C23.95,19.1625 23.6,19.025 23.25,19.025 C22.9125,19.025 22.5625,19.15 22.3,19.4125 L20.1125,21.525 C20.1125,21.525 17.4375,20.3375 15.925,18.775 C14.4125,17.2125 13.3125,14.5 13.3125,14.5 L15.5,12.3875 C16.0375,11.8625 16.0625,11.0125 15.5375,10.475 L10.6,5.3875 C10.3375,5.1125 9.9875,4.975 9.6375,4.975 C9.3,4.975 8.95,5.1 8.6875,5.3625 L5.4125,8.525 C5.1,8.8375 4.9625,9.275 5.0125,9.7125 C5.7875,16.2375 11.9625,22.6125 11.9625,22.6125 C11.9625,22.6125 15,25.7375 19.075,27.9625 L19.075,26.525 C15.525,24.4625 12.9,21.775 12.85,21.7375 C12.8,21.6875 6.9625,15.6 6.25,9.5625 C6.25,9.525 6.25,9.4625 6.2875,9.425 L9.5625,6.2625 C9.5875,6.2375 9.6125,6.225 9.65,6.225 C9.675,6.225 9.7,6.25 9.7,6.25 L14.6375,11.35 C14.675,11.3875 14.6625,11.4625 14.625,11.5 L12.4375,13.6125 L11.8375,14.2 L12.15,14.975 C12.2,15.1 13.3625,17.9375 15.025,19.65 C16.6875,21.3625 19.4875,22.625 19.6125,22.675 L20.3875,23.0125 L20.9875,22.425 L23.175,20.3125 C23.2,20.2875 23.225,20.275 23.2625,20.275 C23.3,20.275 23.325,20.3 23.325,20.3 L25.7625,22.8125 L26.35,21.625 L24.2125,19.4375 Z" id="Path" fill="#FFFFFF" fill-rule="nonzero"></path>
                    <rect id="Rectangle" x="0" y="0" width="40" height="40"></rect>
                </g>
            </g>
        </g>
    </g>
</svg>