<?xml version="1.0" encoding="UTF-8"?>
<svg width="80px" height="80px" viewBox="0 0 80 80" version="1.1" xmlns="http://www.w3.org/2000/svg" xmlns:xlink="http://www.w3.org/1999/xlink">
    <!-- Generator: Sketch 57.1 (83088) - https://sketch.com -->
    <title>082-G80px</title>
    <desc>Created with Sketch.</desc>
    <g id="NEW_icons" stroke="none" stroke-width="1" fill="none" fill-rule="evenodd">
        <g id="icons_UD_new-Copy" transform="translate(-768.000000, -10767.000000)">
            <g id="082-G80px" transform="translate(768.000000, 10767.000000)">
                <circle id="Oval-Copy-511" fill="#E3E8EC" cx="40" cy="40" r="40"></circle>
                <g id="082-B32px-Copy-3" transform="translate(12.000000, 12.000000)">
                    <path d="M40.1625,8.75 C40.215,8.75 40.25,8.785 40.25,8.8375 L40.25,47.1625 C40.25,47.215 40.215,47.25 40.1625,47.25 L15.8375,47.25 C15.785,47.25 15.75,47.215 15.75,47.1625 L15.75,8.8375 C15.75,8.785 15.785,8.75 15.8375,8.75 L40.1625,8.75 L40.1625,8.75 Z M40.1625,7 L15.8375,7 C14.8225,7 14,7.8225 14,8.8375 L14,47.1625 C14,48.1775 14.8225,49 15.8375,49 L40.1625,49 C41.1775,49 42,48.1775 42,47.1625 L42,8.8375 C42,7.8225 41.1775,7 40.1625,7 L40.1625,7 Z" id="Shape" fill="#101828" fill-rule="nonzero"></path>
                    <path d="M28,45.5 C28.4725,45.5 28.875,45.115 28.875,44.625 C28.875,44.135 28.4725,43.75 28,43.75 C27.5275,43.75 27.125,44.135 27.125,44.625 C27.125,45.115 27.5275,45.5 28,45.5" id="Path" fill="#101828" fill-rule="nonzero"></path>
                    <rect id="Rectangle" fill="#101828" fill-rule="nonzero" x="14" y="40.25" width="28" height="1.75"></rect>
                    <path d="M36.75,23.6075 L28,18.3575 L28,21 C27.2475,21 26.5125,21 26.3375,21 C25.7075,21.0175 25.06,20.9825 24.43,21.07 C22.68,21.315 21.455,22.33 20.58,23.835 C19.95,24.9375 19.6,26.145 19.4075,27.405 C19.32,27.93 19.2675,28.4725 19.215,29.015 C19.2325,29.015 19.2675,29.0325 19.285,29.0325 C19.8275,28.2625 20.5975,27.755 21.4025,27.335 C22.3475,26.8275 24.1325,26.3025 25.2,26.25 C25.4275,26.2325 25.725,26.2325 26.075,26.2325 C26.6525,26.2325 27.335,26.25 27.9825,26.25 L27.9825,28.84 L36.75,23.6075 Z M26.25,24.5 C25.8125,24.5 25.7075,24.5 25.69,24.5 C25.69,24.5 25.69,24.5 25.69,24.5 C25.69,24.5 25.655,24.5 25.445,24.5 C24.29,24.5 23.345,24.8325 22.9425,24.9375 C22.61,25.025 22.26,25.1475 21.8925,25.2525 C22.4875,23.7825 23.835,22.75 25.4975,22.75 C25.4975,22.75 25.515,22.75 25.515,22.75 C25.5325,22.75 25.55,22.75 25.5675,22.75 C25.865,22.75 26.0925,22.7325 27.23,22.7325 C27.4575,22.7325 27.72,22.7325 28.0175,22.7325 L28.0175,22.75 L29.7675,22.75 L29.7675,22.75 L29.7675,21.4375 L33.3725,23.59 L29.75,25.76 L29.75,24.5 L28,24.5 C27.125,24.5 26.5825,24.5 26.25,24.5 Z" id="Shape" fill="#101828" fill-rule="nonzero"></path>
                    <rect id="Rectangle" x="0" y="0" width="56" height="56"></rect>
                </g>
            </g>
        </g>
    </g>
</svg>