<?xml version="1.0" encoding="UTF-8"?>
<svg width="56px" height="56px" viewBox="0 0 56 56" version="1.1" xmlns="http://www.w3.org/2000/svg" xmlns:xlink="http://www.w3.org/1999/xlink">
    <!-- Generator: Sketch 57.1 (83088) - https://sketch.com -->
    <title>071-C56px</title>
    <desc>Created with Sketch.</desc>
    <g id="071-C56px" stroke="none" stroke-width="1" fill="none" fill-rule="evenodd">
        <g id="071-B56px">
            <g>
                <path d="M40.1625,8.75 C40.215,8.75 40.25,8.785 40.25,8.8375 L40.25,47.1625 C40.25,47.215 40.215,47.25 40.1625,47.25 L15.8375,47.25 C15.785,47.25 15.75,47.215 15.75,47.1625 L15.75,8.8375 C15.75,8.785 15.785,8.75 15.8375,8.75 L40.1625,8.75 L40.1625,8.75 Z M40.1625,7 L15.8375,7 C14.8225,7 14,7.8225 14,8.8375 L14,47.1625 C14,48.1775 14.8225,49 15.8375,49 L40.1625,49 C41.1775,49 42,48.1775 42,47.1625 L42,8.8375 C42,7.8225 41.1775,7 40.1625,7 L40.1625,7 Z" id="Shape" fill="#BC104B" fill-rule="nonzero"></path>
                <path d="M28,45.5 C28.4725,45.5 28.875,45.115 28.875,44.625 C28.875,44.135 28.4725,43.75 28,43.75 C27.5275,43.75 27.125,44.135 27.125,44.625 C27.125,45.115 27.5275,45.5 28,45.5" id="Path" fill="#BC104B" fill-rule="nonzero"></path>
                <rect id="Rectangle" fill="#BC104B" fill-rule="nonzero" x="14" y="40.25" width="28" height="1.75"></rect>
                <rect id="Rectangle" x="0" y="0" width="56" height="56"></rect>
            </g>
        </g>
    </g>
</svg>