<?xml version="1.0" encoding="UTF-8"?>
<svg width="32px" height="32px" viewBox="0 0 32 32" version="1.1" xmlns="http://www.w3.org/2000/svg" xmlns:xlink="http://www.w3.org/1999/xlink">
    <!-- Generator: Sketch 57.1 (83088) - https://sketch.com -->
    <title>204-B32px</title>
    <desc>Created with Sketch.</desc>
    <g id="204-B32px" stroke="none" stroke-width="1" fill="none" fill-rule="evenodd">
        <g>
            <path d="M26.98,10 L27,10.02 L26.98,21.01 L5,20.99 L5.02,10 L26.98,10 L26.98,10 Z M26.98,9 L5.02,9 C4.46,9 4,9.46 4,10.02 L4,20.99 C4,21.55 4.46,22.01 5.02,22.01 L26.98,22.01 C27.54,22.01 28,21.55 28,20.99 L28,10.02 C28,9.46 27.54,9 26.98,9 L26.98,9 Z" id="Shape" fill="#101828" fill-rule="nonzero"></path>
            <path d="M15.99,21.94 C11.68,21.94 8.45,22.6 7.01,22.96 L7.01,23.99 C8.25,23.67 11.55,22.94 15.99,22.94 C20.47,22.94 23.8,23.68 25.01,24 L25.01,22.97 C23.58,22.61 20.34,21.94 15.99,21.94 Z" id="Path" fill="#101828" fill-rule="nonzero"></path>
            <path d="M11.93,13 L10.69,13 L10.69,16.99 L11.93,16.99 C13.22,16.99 14.01,16.23 14.01,15 C14.01,13.77 13.21,13 11.93,13 Z M12.03,15.96 L11.68,15.96 L11.68,14.02 L12.03,14.02 C12.66,14.02 13.01,14.36 13.01,14.99 C13.01,15.62 12.66,15.96 12.03,15.96 Z" id="Shape" fill="#101828" fill-rule="nonzero"></path>
            <polygon id="Path" fill="#101828" fill-rule="nonzero" points="9.01 13 9.01 14.45 8.01 14.45 8.01 13 7.01 13 7.01 16.99 8.01 16.99 8.01 15.47 9.01 15.47 9.01 16.99 10.01 16.99 10.01 13"></polygon>
            <path d="M20.74,15.37 L20.74,13 L19.78,13 L18,15.51 L18,16.4 L19.69,16.4 L19.69,16.99 L20.74,16.99 L20.74,16.4 L21.27,16.4 L21.27,15.38 L20.74,15.38 L20.74,15.37 Z M19.28,15.37 L19.69,14.79 L19.69,15.37 L19.28,15.37 Z" id="Shape" fill="#101828" fill-rule="nonzero"></path>
            <polygon id="Path" fill="#101828" fill-rule="nonzero" points="25.01 13 23.64 13 22.69 14.05 22.69 13 21.63 13 21.63 16.99 22.69 16.99 22.69 15.52 22.82 15.37 23.76 16.99 24.98 16.99 23.58 14.56"></polygon>
            <polygon id="Path" fill="#101828" fill-rule="nonzero" points="15.51 13.65 16.51 13.65 16.51 14.65 17.51 14.65 17.51 15.65 16.51 15.65 16.51 16.65 15.51 16.65 15.51 15.65 14.51 15.65 14.51 14.65 15.51 14.65"></polygon>
            <rect id="Rectangle" x="0" y="0" width="32" height="32"></rect>
        </g>
    </g>
</svg>