<?xml version="1.0" encoding="UTF-8"?>
<svg width="32px" height="32px" viewBox="0 0 32 32" version="1.1" xmlns="http://www.w3.org/2000/svg" xmlns:xlink="http://www.w3.org/1999/xlink">
    <!-- Generator: Sketch 57.1 (83088) - https://sketch.com -->
    <title>185-B32px</title>
    <desc>Created with Sketch.</desc>
    <g id="185-B32px" stroke="none" stroke-width="1" fill="none" fill-rule="evenodd">
        <g>
            <path d="M27,8 L27.01,21 L5,21.01 L4.99,8 L27,8 L27,8 Z M27.01,7 L4.99,7 C4.45,7 4,7.45 4,7.99 L4,21 C4,21.55 4.45,22 4.99,22 L27,22 C27.55,22 27.9901635,21.55 27.9901635,21.01 L27.9901635,7.99 C28,7.45 27.55,7 27.01,7 L27.01,7 Z" id="Shape" fill="#101828" fill-rule="nonzero"></path>
            <rect id="Rectangle" fill="#101828" fill-rule="nonzero" x="5" y="18" width="22" height="1"></rect>
            <rect id="Rectangle" fill="#101828" fill-rule="nonzero" x="17" y="22" width="1" height="3"></rect>
            <rect id="Rectangle" fill="#101828" fill-rule="nonzero" x="14" y="22" width="1" height="3"></rect>
            <rect id="Rectangle" fill="#101828" fill-rule="nonzero" x="12.02" y="24" width="7.98" height="1"></rect>
            <path d="M16,20.49 C16.27,20.49 16.5,20.27 16.5,19.99 C16.5,19.71 16.28,19.49 16,19.49 C15.72,19.49 15.5,19.71 15.5,19.99 C15.5,20.27 15.73,20.49 16,20.49" id="Path" fill="#101828" fill-rule="nonzero"></path>
            <path d="M9.49,14.01 C9.76,14.01 9.98,14.23 9.98,14.5 C9.98,14.77 9.76,14.99 9.49,14.99 C9.22,14.99 9,14.77 9,14.5 C9,14.23 9.22,14.01 9.49,14.01 L9.49,14.01 Z M9.49,13.01 C8.67,13.01 8,13.68 8,14.5 C8,15.32 8.67,15.99 9.49,15.99 C10.31,15.99 10.98,15.32 10.98,14.5 C10.98,13.68 10.31,13.01 9.49,13.01 L9.49,13.01 Z" id="Shape" fill="#101828" fill-rule="nonzero"></path>
            <path d="M22.49,11.01 C22.76,11.01 22.98,11.23 22.98,11.5 C22.98,11.77 22.76,11.99 22.49,11.99 C22.22,11.99 22,11.77 22,11.5 C22,11.23 22.22,11.01 22.49,11.01 L22.49,11.01 Z M22.49,10.01 C21.67,10.01 21,10.68 21,11.5 C21,12.32 21.67,12.99 22.49,12.99 C23.31,12.99 23.98,12.32 23.98,11.5 C23.98,10.67 23.31,10.01 22.49,10.01 L22.49,10.01 Z" id="Shape" fill="#101828" fill-rule="nonzero"></path>
            <path d="M21.24,11.56 L16.79,13.8 L15.79,10.8 L10.32,13.56 C10.56,13.79 10.72,14.11 10.76,14.46 L15.21,12.21 L16.21,15.21 L21.68,12.46 C21.44,12.22 21.28,11.91 21.24,11.56 Z" id="Path" fill="#101828" fill-rule="nonzero"></path>
            <rect id="Rectangle" x="0" y="0" width="32" height="32"></rect>
        </g>
    </g>
</svg>