<?xml version="1.0" encoding="UTF-8"?>
<svg width="56px" height="56px" viewBox="0 0 56 56" version="1.1" xmlns="http://www.w3.org/2000/svg" xmlns:xlink="http://www.w3.org/1999/xlink">
    <!-- Generator: Sketch 57.1 (83088) - https://sketch.com -->
    <title>073-W56px</title>
    <desc>Created with Sketch.</desc>
    <g id="NEW_icons" stroke="none" stroke-width="1" fill="none" fill-rule="evenodd">
        <g id="icons_UD_new-Copy" transform="translate(-1814.000000, -9536.000000)">
            <g id="073-W56px" transform="translate(1814.000000, 9536.000000)">
                <g id="003-B32px-Copy-106" transform="translate(8.000000, 8.000000)">
                    <g id="Group" transform="translate(10.000000, 5.000000)" fill="#FFFFFF" fill-rule="nonzero">
                        <path d="M18.6875,0 L1.3125,0 C0.5875,0 0,0.5875 0,1.3125 L0,23.75 L0,25 L0,28.6875 C0,29.4125 0.5875,30 1.3125,30 L18.6875,30 C19.4125,30 20,29.4125 20,28.6875 L20,25 L20,23.75 L20,1.3125 C20,0.5875 19.4125,0 18.6875,0 Z M18.75,28.6875 C18.75,28.725 18.725,28.75 18.6875,28.75 L1.3125,28.75 C1.275,28.75 1.25,28.725 1.25,28.6875 L1.25,25 L18.75,25 L18.75,28.6875 Z M1.25,23.75 L1.25,1.3125 C1.25,1.275 1.275,1.25 1.3125,1.25 L18.6875,1.25 C18.725,1.25 18.75,1.275 18.75,1.3125 L18.75,23.75 L1.25,23.75 Z" id="Shape"></path>
                        <path d="M10,27.4875 C10.3375,27.4875 10.625,27.2125 10.625,26.8625 C10.625,26.525 10.35,26.2375 10,26.2375 C9.65,26.2375 9.375,26.5125 9.375,26.8625 C9.375,27.2125 9.6625,27.4875 10,27.4875 Z" id="Path"></path>
                        <path d="M12.5125,20 L7.5,20.0125 L7.5,16.25 L6.25,16.25 L6.25,20.0125 C6.25,20.6875 6.8,21.25 7.4875,21.25 L12.525,21.25 C13.2,21.25 13.7625,20.7 13.7625,20.0125 L13.7625,16.25 L12.5125,16.25 L12.5125,20 Z" id="Path"></path>
                        <polygon id="Path" points="4.775 15.575 5.5625 16.5375 10 12.875 14.4375 16.5375 15.225 15.575 10 11.2625"></polygon>
                        <path d="M12.6,7.3125 C11.925,6.65 11.0125,6.25 10,6.25 C8.9625,6.25 8.025,6.675 7.35,7.35 L8.2375,8.2375 C8.6875,7.775 9.3125,7.5 10,7.5 C10.6625,7.5 11.275,7.7625 11.7125,8.1875 L12.6,7.3125 Z" id="Path"></path>
                        <path d="M9.1125,9.1125 L9.95,9.95 L10.825,9.075 C10.6125,8.875 10.325,8.75 10,8.75 C9.65,8.75 9.3375,8.8875 9.1125,9.1125 Z" id="Path"></path>
                        <path d="M10,5 C11.35,5 12.5875,5.55 13.4875,6.425 L14.375,5.5375 C13.2375,4.4375 11.7,3.75 10,3.75 C8.275,3.75 6.7125,4.45 5.575,5.575 L6.4625,6.4625 C7.375,5.5625 8.625,5 10,5 Z" id="Path"></path>
                    </g>
                    <rect id="Rectangle" x="0" y="0" width="40" height="40"></rect>
                </g>
                <circle id="Oval-Copy-485" fill="#101828" cx="28" cy="28" r="28"></circle>
                <g id="073-B32px-Copy-7" transform="translate(8.000000, 8.000000)">
                    <path d="M17.5,32.5 C17.8375,32.5 18.125,32.225 18.125,31.875 C18.125,31.525 17.8375,31.25 17.5,31.25 C17.1625,31.25 16.875,31.525 16.875,31.875 C16.875,32.225 17.1625,32.5 17.5,32.5" id="Path" fill="#FFFFFF" fill-rule="nonzero"></path>
                    <path d="M26.875,32.5 C26.6625,32.5 26.4625,32.4875 26.25,32.4625 L26.25,33.675 C26.25,33.7125 26.225,33.7375 26.1875,33.7375 L8.8125,33.7375 C8.775,33.75 8.75,33.725 8.75,33.6875 L8.75,30 L21.025,30 C20.6625,29.6125 20.325,29.2 20.0375,28.75 L8.75,28.75 L8.75,6.3125 C8.75,6.275 8.775,6.25 8.8125,6.25 L26.1875,6.25 C26.225,6.25 26.25,6.275 26.25,6.3125 L26.25,16.275 C26.4625,16.2625 26.6625,16.2375 26.875,16.2375 C27.0875,16.2375 27.2875,16.25 27.5,16.275 L27.5,6.3125 C27.5,5.5875 26.9125,5 26.1875,5 L8.8125,5 C8.0875,5 7.5,5.5875 7.5,6.3125 L7.5,28.75 L7.5,30 L7.5,33.6875 C7.5,34.4125 8.0875,35 8.8125,35 L26.1875,35 C26.9125,35 27.5,34.4125 27.5,33.6875 L27.5,32.475 C27.2875,32.4875 27.0875,32.5 26.875,32.5 Z" id="Path" fill="#FFFFFF" fill-rule="nonzero"></path>
                    <path d="M26.875,18.75 C29.975,18.75 32.5,21.275 32.5,24.375 C32.5,27.475 29.975,30 26.875,30 C23.775,30 21.25,27.475 21.25,24.375 C21.25,21.275 23.775,18.75 26.875,18.75 L26.875,18.75 Z M26.875,17.5 C23.075,17.5 20,20.575 20,24.375 C20,28.175 23.075,31.25 26.875,31.25 C30.675,31.25 33.75,28.175 33.75,24.375 C33.75,20.575 30.675,17.5 26.875,17.5 L26.875,17.5 Z" id="Shape" fill="#FFFFFF" fill-rule="nonzero"></path>
                    <polygon id="Path" fill="#FFFFFF" fill-rule="nonzero" points="29.3625 25 26.2375 25 26.2375 20.625 27.4875 20.625 27.4875 23.75 29.3625 23.75"></polygon>
                    <rect id="Rectangle" x="0" y="0" width="40" height="40"></rect>
                </g>
            </g>
        </g>
    </g>
</svg>