<?xml version="1.0" encoding="UTF-8"?>
<svg width="32px" height="32px" viewBox="0 0 32 32" version="1.1" xmlns="http://www.w3.org/2000/svg" xmlns:xlink="http://www.w3.org/1999/xlink">
    <!-- Generator: Sketch 59.1 (86144) - https://sketch.com -->
    <title>265-B32px</title>
    <desc>Created with Sketch.</desc>
    <g id="265-B32px" stroke="none" stroke-width="1" fill="none" fill-rule="evenodd">
        <g>
            <rect id="Rectangle" x="0" y="0" width="32" height="32"></rect>
            <g id="Group" transform="translate(4.000000, 4.000000)" fill="#101828" fill-rule="nonzero">
                <rect id="Rectangle" x="17" y="3.6" width="4" height="1"></rect>
                <rect id="Rectangle" x="17" y="9.5" width="4" height="1"></rect>
                <rect id="Rectangle" x="17" y="5.5" width="1" height="1.1"></rect>
                <rect id="Rectangle" x="18.6" y="5.5" width="1" height="1.1"></rect>
                <rect id="Rectangle" x="20.2" y="5.5" width="1" height="1.1"></rect>
                <rect id="Rectangle" x="17" y="7.5" width="1" height="1.1"></rect>
                <rect id="Rectangle" x="18.6" y="7.5" width="1" height="1.1"></rect>
                <rect id="Rectangle" x="20.2" y="7.5" width="1" height="1.1"></rect>
                <g transform="translate(5.000000, 5.000000)">
                    <g transform="translate(0.000000, 3.000000)" id="Path">
                        <path d="M1.3,3.5 L1.3,2 C1.3,1.6 1.6,1.3 2,1.3 L5,1.3 C5.4,1.3 5.7,1.6 5.7,2 L5.7,3.5 L6,3.5 L6,2 C6,1.5 5.6,1 5,1 L2.1,1 C1.6,1 1.1,1.4 1.1,2 L1.1,3.5 L1.3,3.5 Z"></path>
                        <path d="M6.3,3.8 L5.4,3.8 L5.4,2 C5.4,1.8 5.2,1.6 5,1.6 L2.1,1.6 C1.9,1.6 1.7,1.8 1.7,2 L1.7,3.8 L0.8,3.8 L0.8,2 C0.8,1.3 1.4,0.7 2.1,0.7 L5,0.7 C5.7,0.7 6.3,1.3 6.3,2 L6.3,3.8 Z"></path>
                    </g>
                    <g transform="translate(1.000000, 0.000000)" id="Shape">
                        <path d="M2.5,0.9 C3.2,0.9 3.7,1.4 3.7,2.1 C3.7,2.8 3.2,3.3 2.5,3.3 C1.8,3.3 1.3,2.8 1.3,2.1 C1.3,1.4 1.9,0.9 2.5,0.9 M2.5,0.6 C1.7,0.6 1,1.3 1,2.1 C1,2.9 1.7,3.6 2.5,3.6 C3.3,3.6 4,2.9 4,2.1 C4,1.3 3.4,0.6 2.5,0.6 L2.5,0.6 Z"></path>
                        <path d="M2.5,3.9 C1.5,3.9 0.7,3.1 0.7,2.1 C0.7,1.1 1.5,0.3 2.5,0.3 C3.5,0.3 4.3,1.1 4.3,2.1 C4.4,3.1 3.6,3.9 2.5,3.9 Z M2.5,1.2 C2,1.2 1.6,1.6 1.6,2.1 C1.6,2.6 2,3 2.5,3 C3,3 3.4,2.6 3.4,2.1 C3.4,1.6 3,1.2 2.5,1.2 Z"></path>
                    </g>
                </g>
                <path d="M13.8,4.4 L13.8,11.6 L3.8,11.6 L3.8,4.4 L13.8,4.4 M13.8,3.5 L3.8,3.5 C3.2,3.5 2.7,3.9 2.7,4.4 L2.7,11.6 C2.7,12.1 3.2,12.5 3.8,12.5 L13.8,12.5 C14.4,12.5 14.9,12.1 14.9,11.6 L14.9,4.4 C14.9,3.9 14.4,3.5 13.8,3.5 L13.8,3.5 Z" id="Shape"></path>
                <path d="M21.8,15.5 L22.9,15.5 C22.9,15.5 23,15.5 23,15.4 L23,1.6 C23,1.6 23,1.5 22.9,1.5 L1.1,1.5 C1.1,1.5 1,1.5 1,1.6 L1,15.5 C1,15.5 1,15.6 1.1,15.6 L9.2,15.6 C9.1,15.9 9.1,16.3 9,16.6 L1,16.6 C0.5,16.5 0,16 0,15.4 L0,1.6 C0,1 0.5,0.5 1.1,0.5 L23,0.5 C23.5,0.5 24,1 24,1.6 L24,15.5 C24,16.1 23.5,16.6 22.9,16.6 L21.9,16.6 C21.9,16.2 21.9,15.8 21.8,15.5 Z" id="Path"></path>
                <path d="M11,18 C11,15.5 13,13.5 15.5,13.5 C18,13.5 20,15.5 20,18 C20,20.5 18,22.5 15.5,22.5 C13,22.5 11,20.5 11,18 M10,18 C10,21 12.5,23.5 15.5,23.5 C18.5,23.5 21,21 21,18 C21,15 18.5,12.5 15.5,12.5 C12.5,12.5 10,15 10,18 L10,18 Z" id="Shape"></path>
                <g transform="translate(12.000000, 14.000000)" id="Path">
                    <path d="M2.2,3 L1.8,1.6 C1.8,1.5 1.6,1.4 1.5,1.4 L0.6,1.7 C0.5,1.7 0.4,1.8 0.4,1.9 C-0.1,3.2 0.5,4.9 0.5,4.9 C0.5,4.9 1,6.6 2.1,7.4 C2.2,7.5 2.3,7.5 2.3,7.4 L3.2,7.1 C3.3,7.1 3.4,6.9 3.4,6.8 L3,5.4 C3,5.3 2.8,5.2 2.7,5.2 L2,5.4 C2,5.4 1.6,4.9 1.5,4.5 C1.4,4.1 1.4,3.5 1.4,3.5 L2,3.3 C2.2,3.3 2.3,3.1 2.2,3 Z"></path>
                    <path d="M6.3,5.6 C6.9,3.9 6.3,1.9 4.8,0.8 L4.3,1.6 C5.4,2.4 5.9,3.9 5.4,5.2 L6.3,5.6 Z"></path>
                    <path d="M4.6,4.9 C4.9,4 4.5,3 3.8,2.4 L3.3,3.2 C3.7,3.5 3.8,4 3.7,4.5 L4.6,4.9 Z"></path>
                </g>
            </g>
        </g>
    </g>
</svg>