<?xml version="1.0" encoding="UTF-8"?>
<svg width="56px" height="56px" viewBox="0 0 56 56" version="1.1" xmlns="http://www.w3.org/2000/svg" xmlns:xlink="http://www.w3.org/1999/xlink">
    <!-- Generator: Sketch 56.3 (81716) - https://sketch.com -->
    <title>047-G56px</title>
    <desc>Created with Sketch.</desc>
    <g id="NEW_icons" stroke="none" stroke-width="1" fill="none" fill-rule="evenodd">
        <g id="icons_UD_new-Copy" transform="translate(-1728.000000, -6123.000000)">
            <g id="047-G56px" transform="translate(1728.000000, 6123.000000)">
                <circle id="Oval-Copy-359" fill="#E3E8EC" cx="28" cy="28" r="28"></circle>
                <g id="047-B32px-Copy-6" transform="translate(8.000000, 8.000000)">
                    <path d="M27.7375,21.5375 L27.7375,18.4875 L29.5875,20.0125 C28.975,20.525 28.3625,21.025 27.7375,21.5375 M20,29.6125 C19.4875,28.9875 18.9875,28.375 18.475,27.7625 L21.525,27.7625 C21.0125,28.375 20.5125,28.9875 20,29.6125 M20,10.4625 C20.5125,11.0875 21.0125,11.7 21.525,12.3125 L18.475,12.3125 C18.9875,11.7 19.4875,11.0875 20,10.4625 M12.3125,21.5375 C11.6875,21.025 11.075,20.525 10.4625,20.0125 C11.075,19.5 11.6875,19 12.3125,18.4875 M31.25,19.9625 C31.2375,19.2625 31.1375,18.5625 30.925,17.8875 C30.825,17.575 30.725,17.25 30.575,16.9625 C30.425,16.6875 30.2125,16.4625 29.9125,16.3375 C29.7125,16.2625 29.5125,16.25 29.3,16.25 C28.475,16.25 27.65,16.25 26.825,16.25 C26.1625,16.25 25.5,16.25 24.8375,16.25 C24.675,16.25 24.5,16.225 24.35,16.1875 C24,16.1 23.8,15.8625 23.7625,15.5 C23.75,15.3875 23.75,15.275 23.75,15.15 C23.75,13.6625 23.7625,12.175 23.7625,10.675 C23.7625,10.3375 23.6875,10.025 23.475,9.75 C23.3,9.525 23.075,9.375 22.825,9.2625 C22.425,9.075 22,8.975 21.5625,8.8875 C20.85,8.75 20.125,8.725 19.4,8.7625 C18.9375,8.8 18.4625,8.85 18.0125,8.95 C17.8375,8.975 17.675,9.0625 17.525,9.15 C17.0625,9.4125 16.65,9.7375 16.2375,10.0625 C15.4375,10.7125 14.675,11.425 13.925,12.15 C12.825,13.2125 11.775,14.325 10.775,15.475 C10.275,16.05 9.7875,16.625 9.3625,17.25 C9.3125,17.3375 9.25,17.425 9.2,17.5 C9,17.775 8.9375,18.1 8.8875,18.425 C8.825,18.8375 8.775,19.25 8.7625,19.675 C8.7625,19.6875 8.7625,19.7125 8.75,19.725 L8.75,20.3375 C8.7625,20.45 8.7625,20.5625 8.775,20.675 C8.8,21.1375 8.85,21.6 8.9625,22.0625 C9.0625,22.4875 9.2125,22.9125 9.5,23.2625 C9.7375,23.55 10.05,23.7125 10.4375,23.75 C10.5375,23.7625 10.65,23.7625 10.7625,23.7625 C12.2375,23.75 13.7,23.75 15.175,23.75 C15.5875,23.75 15.925,23.9375 16.125,24.3 C16.2125,24.475 16.25,24.6625 16.25,24.8625 C16.25,26.3375 16.25,27.8125 16.25,29.2875 C16.25,29.525 16.275,29.775 16.375,30 C16.525,30.3375 16.775,30.575 17.1,30.7375 C17.45,30.9125 17.825,31.0125 18.2125,31.0875 C18.6875,31.175 19.1625,31.2375 19.6375,31.25 C19.65,31.25 19.675,31.25 19.6875,31.2625 L20.3,31.2625 C20.4125,31.25 20.525,31.25 20.625,31.2375 C21.0875,31.2125 21.55,31.1625 22.0125,31.05 C22.4375,30.95 22.85,30.8 23.2125,30.525 C23.5375,30.275 23.7,29.925 23.725,29.525 C23.75,29.4125 23.75,29.3 23.75,29.2 C23.75,27.775 23.75,26.35 23.75,24.925 C23.75,24.7375 23.7625,24.55 23.8125,24.3625 C23.9125,24 24.15,23.8 24.525,23.775 C24.6625,23.7625 24.8,23.7625 24.9375,23.7625 C26.3625,23.7625 27.7875,23.7625 29.2125,23.7625 C29.55,23.7625 29.8625,23.7 30.15,23.525 C30.45,23.3375 30.6625,23.0625 30.8125,22.75 C30.975,22.4 31.0625,22.025 31.1375,21.65 C31.2,21.0875 31.25,20.525 31.25,19.9625" id="Shape" fill="#101828"></path>
                    <rect id="Rectangle" x="0" y="0" width="40" height="40"></rect>
                </g>
            </g>
        </g>
    </g>
</svg>