<?xml version="1.0" encoding="UTF-8"?>
<svg width="56px" height="56px" viewBox="0 0 56 56" version="1.1" xmlns="http://www.w3.org/2000/svg" xmlns:xlink="http://www.w3.org/1999/xlink">
    <!-- Generator: Sketch 57.1 (83088) - https://sketch.com -->
    <title>164-G56px</title>
    <desc>Created with Sketch.</desc>
    <g id="NEW_icons" stroke="none" stroke-width="1" fill="none" fill-rule="evenodd">
        <g id="icons_UD_new-Copy" transform="translate(-446.000000, -21092.000000)">
            <g id="164-G56px" transform="translate(446.000000, 21092.000000)">
                <circle id="Oval-Copy-952" fill="#E3E8EC" cx="28" cy="28" r="28"></circle>
                <g id="164-B32px-Copy-3" transform="translate(8.000000, 8.000000)">
                    <g id="Fill-285" transform="translate(8.750000, 7.500000)" fill="#101828">
                        <path d="M13.5,0.625 C13.7625,1.3625 14.025,2.1 14.2875,2.8375 C15.6125,6.5875 16.925,10.3375 18.25,14.075 C18.4375,14.6125 18.8375,14.9625 19.3375,15.2 C19.5625,15.3125 19.7875,15.4 20.0125,15.5125 C20.1,15.55 20.175,15.6125 20.25,15.675 C20.3375,15.75 20.3375,15.85 20.25,15.925 C20.175,15.9875 20.0875,16.05 20,16.1 C19.675,16.2625 19.35,16.425 19.025,16.5875 C18.9375,16.625 18.8625,16.675 18.775,16.7375 C18.5625,16.875 18.5625,17.075 18.775,17.2125 C18.8875,17.2875 19.0125,17.325 19.125,17.3875 C19.375,17.5 19.5375,17.6875 19.625,17.95 C20.35,20.0375 21.075,22.125 21.8125,24.2125 C21.825,24.25 21.8375,24.3 21.85,24.35 L17.3625,24.35 C17.2125,23.9375 17.075,23.525 16.925,23.1125 C16.4125,21.675 15.9125,20.225 15.4,18.7875 C15.3625,18.675 15.3125,18.65 15.2,18.65 C13.675,18.65 12.15,18.65 10.625,18.65 C9.9625,18.65 9.3,18.65 8.6375,18.65 L8.5,18.65 C8.5875,18.4 8.675,18.15 8.7625,17.9125 C8.8,17.7875 8.8375,17.675 8.85,17.55 C8.8625,17.375 8.7875,17.2875 8.625,17.2375 C8.425,17.175 8.3875,17.0125 8.55,16.875 C8.625,16.8125 8.7125,16.7625 8.8,16.725 C9.25,16.5125 9.7125,16.3125 10.1625,16.0875 C10.325,16.0125 10.4625,15.9125 10.6,15.7875 C10.75,15.6625 10.75,15.5125 10.6125,15.375 C10.525,15.275 10.4125,15.1875 10.3,15.1 C10.0375,14.9 9.975,14.7625 10.0125,14.425 L13.85,14.425 C12.975,11.95 12.1125,9.4875 11.2375,7 C11.125,7.3125 11.025,7.5875 10.925,7.875 C10.2,9.9375 9.4625,12.0125 8.75,14.075 C8.6875,14.2625 8.675,14.4625 8.6625,14.6625 C8.65,14.825 8.75,14.95 8.875,15.05 C8.975,15.125 9.075,15.2 9.175,15.2875 C9.4125,15.5 9.4125,15.7125 9.15,15.8875 C8.975,16.0125 8.775,16.1125 8.575,16.2125 C8.175,16.4125 7.7625,16.5875 7.3625,16.7875 C7.275,16.825 7.2,16.8875 7.1375,16.9625 C7.0375,17.075 7.0875,17.1875 7.225,17.2375 C7.4875,17.3375 7.5625,17.45 7.475,17.7375 C7.3625,18.1 7.2125,18.45 7.0875,18.8125 C6.45,20.6125 5.8125,22.425 5.1875,24.225 C5.15,24.3375 5.1,24.3875 4.975,24.3875 C3.5875,24.3875 2.2,24.3875 0.8125,24.3875 L0.65,24.3875 C0.675,24.3 0.7,24.2375 0.7125,24.175 C1.3875,22.275 2.05,20.3625 2.725,18.4625 C2.7875,18.2875 2.875,18.1125 2.9375,17.9375 C2.975,17.8125 3.0125,17.7 3.025,17.575 C3.0375,17.4125 2.95,17.325 2.8,17.275 C2.7375,17.25 2.625,17.1875 2.625,17.1375 C2.625,17.0625 2.675,16.9625 2.725,16.9125 C2.7875,16.85 2.875,16.8125 2.95,16.775 C3.4125,16.5625 3.875,16.35 4.3375,16.125 C4.475,16.0625 4.6125,15.975 4.7375,15.8625 C4.9125,15.7125 4.9125,15.55 4.75,15.375 C4.6875,15.3 4.6,15.2375 4.525,15.1875 C4.1875,14.975 4.0875,14.7625 4.2125,14.3 C4.325,13.8625 4.5,13.4375 4.65,13.0125 C6.0875,8.9125 7.5375,4.825 8.975,0.7375 C8.9875,0.7125 9,0.6875 9,0.6625 L13.5,0.6625 L13.5,0.625 Z" id="Path"></path>
                    </g>
                    <rect id="Rectangle" x="0" y="0" width="40" height="40"></rect>
                </g>
            </g>
        </g>
    </g>
</svg>