<?xml version="1.0" encoding="UTF-8"?>
<svg width="56px" height="56px" viewBox="0 0 56 56" version="1.1" xmlns="http://www.w3.org/2000/svg" xmlns:xlink="http://www.w3.org/1999/xlink">
    <!-- Generator: Sketch 57.1 (83088) - https://sketch.com -->
    <title>151-B56px</title>
    <desc>Created with Sketch.</desc>
    <g id="151-B56px" stroke="none" stroke-width="1" fill="none" fill-rule="evenodd">
        <g>
            <path d="M41.9125,8.75 C41.965,8.75 42,8.785 42,8.8375 L42,47.1625 C42,47.215 41.965,47.25 41.9125,47.25 L17.5875,47.25 C17.535,47.25 17.5,47.215 17.5,47.1625 L17.5,8.8375 C17.5,8.785 17.535,8.75 17.5875,8.75 L41.9125,8.75 L41.9125,8.75 Z M41.9125,7 L17.5875,7 C16.5725,7 15.75,7.8225 15.75,8.8375 L15.75,47.1625 C15.75,48.1775 16.5725,49 17.5875,49 L41.9125,49 C42.9275,49 43.75,48.1775 43.75,47.1625 L43.75,8.8375 C43.75,7.8225 42.9275,7 41.9125,7 L41.9125,7 Z" id="Shape" fill="#101828" fill-rule="nonzero"></path>
            <path d="M29.75,45.5 C30.2225,45.5 30.625,45.115 30.625,44.625 C30.625,44.135 30.2225,43.75 29.75,43.75 C29.2775,43.75 28.875,44.135 28.875,44.625 C28.875,45.115 29.2775,45.5 29.75,45.5" id="Path" fill="#101828" fill-rule="nonzero"></path>
            <rect id="Rectangle" fill="#101828" fill-rule="nonzero" x="15.75" y="40.25" width="28" height="1.75"></rect>
            <path d="M28,20.545 L33.285,23.625 L28,26.705 L28,20.545 L28,20.545 Z M26.25,17.5 L26.25,29.75 L36.75,23.625 L26.25,17.5 L26.25,17.5 Z" id="Shape" fill="#101828" fill-rule="nonzero"></path>
            <rect id="Rectangle" x="0" y="0" width="56" height="56"></rect>
        </g>
    </g>
</svg>