<?xml version="1.0" encoding="UTF-8"?>
<svg width="80px" height="80px" viewBox="0 0 80 80" version="1.1" xmlns="http://www.w3.org/2000/svg" xmlns:xlink="http://www.w3.org/1999/xlink">
    <!-- Generator: Sketch 57.1 (83088) - https://sketch.com -->
    <title>156-B80px</title>
    <desc>Created with Sketch.</desc>
    <g id="156-B80px" stroke="none" stroke-width="1" fill="none" fill-rule="evenodd">
        <g>
            <path d="M67.45,22.5 L37.15,22.5 C37.35,23.325 37.5,24.15 37.5,25 L67.45,25 L67.5,25.05 L67.45,52.55 L12.5,52.5 L12.55,25 L17.5,25 C17.5,24.15 17.65,23.325 17.85,22.5 L12.55,22.5 C11.15,22.5 10,23.625 10,25.05 L10,52.5 C10,53.9 11.15,55.05 12.55,55.05 L67.45,55.05 C68.85,55.05 70,53.9 70,52.5 L70,25.05 C70,23.625 68.85,22.5 67.45,22.5 Z" id="Path" fill="#101828" fill-rule="nonzero"></path>
            <path d="M27.5,20 C28.825,20 30.1,20.525 31.025,21.475 C31.95,22.425 32.5,23.675 32.5,25 C32.5,26.325 31.975,27.6 31.025,28.525 C30.1,29.475 28.825,30 27.5,30 C26.175,30 24.9,29.475 23.975,28.525 C22.025,26.575 22.025,23.4 23.975,21.45 C24.9,20.525 26.175,20 27.5,20 L27.5,20 Z M27.5,17.5 C25.575,17.5 23.65,18.225 22.2,19.7 C19.275,22.625 19.275,27.375 22.2,30.3 C23.65,31.775 25.575,32.5 27.5,32.5 C29.425,32.5 31.35,31.775 32.8,30.3 C35.725,27.375 35.725,22.625 32.8,19.7 C31.35,18.225 29.425,17.5 27.5,17.5 L27.5,17.5 Z" id="Shape" fill="#101828" fill-rule="nonzero"></path>
            <polygon id="Path" fill="#101828" fill-rule="nonzero" points="39.85 42.525 27.275 32.125 28.85 30.2 39.675 39.15 41.275 37.55 32.4 26.65 34.35 25.075 44.65 37.725"></polygon>
            <path d="M48.7,45.35 C48.675,45.35 48.675,45.35 48.65,45.35 C45.725,45.325 43.6,43.2 43.525,43.1 L40.55,40.125 L42.325,38.35 L45.3,41.325 C45.325,41.35 46.8,42.825 48.7,42.825 C48.7,42.825 48.7,42.825 48.7,42.825 C49.775,42.825 50.85,42.325 51.825,41.325 C55.775,37.375 59.8,38.7 61.35,39.95 L59.8,41.9 C59.525,41.675 56.85,39.825 53.6,43.075 C52.1,44.6 50.45,45.35 48.7,45.35 Z" id="Path" fill="#101828" fill-rule="nonzero"></path>
            <path d="M39.95,54.875 C29.175,54.875 21.1,56.525 17.5,57.425 L17.5,60 C20.575,59.2 28.85,57.375 39.95,57.375 C51.15,57.375 59.475,59.225 62.5,60.025 L62.5,57.45 C58.925,56.525 50.825,54.875 39.95,54.875 Z" id="Path" fill="#101828" fill-rule="nonzero"></path>
            <rect id="Rectangle" x="0" y="0" width="80" height="80"></rect>
        </g>
    </g>
</svg>