<?xml version="1.0" encoding="UTF-8"?>
<svg width="32px" height="32px" viewBox="0 0 32 32" version="1.1" xmlns="http://www.w3.org/2000/svg" xmlns:xlink="http://www.w3.org/1999/xlink">
    <!-- Generator: Sketch 57.1 (83088) - https://sketch.com -->
    <title>072-B32px</title>
    <desc>Created with Sketch.</desc>
    <g id="072-B32px" stroke="none" stroke-width="1" fill="none" fill-rule="evenodd">
        <g>
            <path d="M18.95,5 C18.98,5 19,5.02 19,5.05 L19,26.95 C19,26.98 18.98,27 18.95,27 L5.05,27 C5.02,27 5,26.98 5,26.95 L5,5.05 C5,5.02 5.02,5 5.05,5 L18.95,5 L18.95,5 Z M18.95,4 L5.05,4 C4.47,4 4,4.47 4,5.05 L4,26.95 C4,27.53 4.47,28 5.05,28 L18.95,28 C19.53,28 20,27.53 20,26.95 L20,5.05 C20,4.47 19.53,4 18.95,4 L18.95,4 Z" id="Shape" fill="#101828" fill-rule="nonzero"></path>
            <path d="M12,26 C12.27,26 12.5,25.78 12.5,25.5 C12.5,25.22 12.27,25 12,25 C11.73,25 11.5,25.22 11.5,25.5 C11.5,25.78 11.73,26 12,26" id="Path" fill="#101828" fill-rule="nonzero"></path>
            <rect id="Rectangle" fill="#101828" fill-rule="nonzero" x="4" y="23" width="16" height="1"></rect>
            <path d="M24.76,7.02 L24.17,7.84 C25.9,9.32 27,11.51 27,13.95 C27,16.4 25.9,18.59 24.17,20.06 L24.76,20.88 C26.74,19.23 28.01,16.73 28.01,13.95 C28,11.17 26.74,8.68 24.76,7.02 Z" id="Path" fill="#101828" fill-rule="nonzero"></path>
            <path d="M23.79,9.07 L23.2,9.89 C24.3,10.9 25,12.34 25,13.95 C25,15.56 24.3,17.01 23.2,18.02 L23.79,18.84 C25.14,17.65 26,15.9 26,13.95 C26,12.01 25.14,10.26 23.79,9.07 Z" id="Path" fill="#101828" fill-rule="nonzero"></path>
            <path d="M22.79,11.16 L22.19,11.99 C22.69,12.53 23,13.24 23,14.02 C23,14.78 22.71,15.46 22.25,15.99 L22.85,16.83 C23.56,16.11 24,15.12 24,14.02 C24,12.9 23.53,11.89 22.79,11.16 Z" id="Path" fill="#101828" fill-rule="nonzero"></path>
            <rect id="Rectangle" x="0" y="0" width="32" height="32"></rect>
        </g>
    </g>
</svg>