<?xml version="1.0" encoding="UTF-8"?>
<svg width="32px" height="32px" viewBox="0 0 32 32" version="1.1" xmlns="http://www.w3.org/2000/svg" xmlns:xlink="http://www.w3.org/1999/xlink">
    <!-- Generator: Sketch 57.1 (83088) - https://sketch.com -->
    <title>215-B32px</title>
    <desc>Created with Sketch.</desc>
    <g id="215-B32px" stroke="none" stroke-width="1" fill="none" fill-rule="evenodd">
        <g>
            <path d="M12,14 C12.55,14 13,14.45 13,15 C13,15.55 12.55,16 12,16 C11.45,16 11,15.55 11,15 C11,14.45 11.45,14 12,14 L12,14 Z M12,13 C10.9,13 10,13.9 10,15 C10,16.1 10.9,17 12,17 C13.1,17 14,16.1 14,15 C14,13.9 13.1,13 12,13 L12,13 Z" id="Shape" fill="#101828" fill-rule="nonzero"></path>
            <path d="M10,21 L10,20 C10,19.45 10.45,19 11,19 L13,19 C13.55,19 14,19.45 14,20 L14,21 L15,21 L15,20 C15,18.9 14.1,18 13,18 L11,18 C9.9,18 9,18.9 9,20 L9,21 L10,21 Z" id="Path" fill="#101828" fill-rule="nonzero"></path>
            <path d="M20,14 C20.55,14 21,14.45 21,15 C21,15.55 20.55,16 20,16 C19.45,16 19,15.55 19,15 C19,14.45 19.45,14 20,14 L20,14 Z M20,13 C18.9,13 18,13.9 18,15 C18,16.1 18.9,17 20,17 C21.1,17 22,16.1 22,15 C22,13.9 21.1,13 20,13 L20,13 Z" id="Shape" fill="#101828" fill-rule="nonzero"></path>
            <path d="M18,21 L18,20 C18,19.45 18.45,19 19,19 L21,19 C21.55,19 22,19.45 22,20 L22,21 L23,21 L23,20 C23,18.9 22.1,18 21,18 L19,18 C17.9,18 17,18.9 17,20 L17,21 L18,21 Z" id="Path" fill="#101828" fill-rule="nonzero"></path>
            <path d="M18.2,8 L18.23,8.01 L20.81,10.49 C21.16,10.82 21.61,11 22.09,11 L26.95,11 C26.98,11 27,11.01 27.01,11.01 C27.01,11.01 27.01,11.01 27.01,11.01 L26.98,23 L5,23.02 L5,8 L18.2,8 L18.2,8 Z M18.2,7 L5,7 C4.45,7 4,7.43 4,7.96 L4,23.01 C4,23.56 4.46,24 5.03,24 L26.98,24 C27.54,24 28,23.56 28,23.02 L28,11.01 C28,10.45 27.53,10 26.94,10 L22.08,10 C21.86,10 21.64,9.92 21.49,9.76 L18.91,7.28 C18.72,7.1 18.46,7 18.2,7 L18.2,7 Z" id="Shape" fill="#101828" fill-rule="nonzero"></path>
            <rect id="Rectangle" x="0" y="0" width="32" height="32"></rect>
        </g>
    </g>
</svg>