<?xml version="1.0" encoding="UTF-8"?>
<svg width="80px" height="80px" viewBox="0 0 80 80" version="1.1" xmlns="http://www.w3.org/2000/svg" xmlns:xlink="http://www.w3.org/1999/xlink">
    <!-- Generator: Sketch 57.1 (83088) - https://sketch.com -->
    <title>139-G80px</title>
    <desc>Created with Sketch.</desc>
    <g id="NEW_icons" stroke="none" stroke-width="1" fill="none" fill-rule="evenodd">
        <g id="icons_UD_new-Copy" transform="translate(-2050.000000, -17798.000000)">
            <g id="139-G80px" transform="translate(2050.000000, 17798.000000)">
                <circle id="Oval-Copy-1090" fill="#E3E8EC" cx="40" cy="40" r="40"></circle>
                <g id="139-B32px-Copy-8" transform="translate(12.000000, 12.000000)">
                    <g id="Group" transform="translate(8.750000, 7.000000)" fill="#101828" fill-rule="nonzero">
                        <path d="M7.4375,34.125 C5.215,34.125 3.395,35.8925 3.395,38.0625 C3.395,40.2325 5.1975,42 7.4375,42 C9.66,42 11.48,40.2325 11.48,38.0625 C11.48,35.8925 9.66,34.125 7.4375,34.125 Z" id="Path"></path>
                        <path d="M30.6775,34.125 C28.455,34.125 26.635,35.8925 26.635,38.0625 C26.635,40.2325 28.455,42 30.6775,42 C32.9,42 34.72,40.2325 34.72,38.0625 C34.72,35.8925 32.9,34.125 30.6775,34.125 Z" id="Path"></path>
                        <path d="M37.1875,17.045 L35.4375,17.045 L21.28,17.045 L24.1325,0.35 C24.115,0.175 24.01,0.035 23.835,0 C23.8175,0 23.765,0 23.765,0 L22.89,0 L21.6825,0 L21.175,0 C9.6075,0 2.2575,6.79 1.3825,15.505 C0.5775,23.3975 5.425,30.625 12.6,33.39 C14.7875,34.3875 17.2025,34.9475 19.7575,34.9475 C29.3475,34.9475 37.1175,27.2125 37.1875,17.64 C37.1875,17.6225 37.1875,17.6225 37.1875,17.605 L37.1875,17.0625 L37.1875,17.0625 L37.1875,17.045 Z M30.205,29.155 C30.205,29.155 26.2325,32.9175 22.3475,30.6775 C19.005,28.7525 20.405,21.3325 20.86,19.3025 L20.9825,18.7775 L35.3675,18.7775 C34.7025,25.7425 30.205,29.155 30.205,29.155 Z" id="Shape"></path>
                    </g>
                    <rect id="Rectangle" x="0" y="0" width="56" height="56"></rect>
                </g>
            </g>
        </g>
    </g>
</svg>