<?xml version="1.0" encoding="UTF-8"?>
<svg width="80px" height="80px" viewBox="0 0 80 80" version="1.1" xmlns="http://www.w3.org/2000/svg" xmlns:xlink="http://www.w3.org/1999/xlink">
    <!-- Generator: Sketch 59.1 (86144) - https://sketch.com -->
    <title>267-B80px</title>
    <desc>Created with Sketch.</desc>
    <g id="267-B80px" stroke="none" stroke-width="1" fill="none" fill-rule="evenodd">
        <g>
            <rect id="Rectangle" x="0" y="0" width="80" height="80"></rect>
            <g id="Group" transform="translate(5.000000, 10.000000)" fill="#101828" fill-rule="nonzero">
                <path d="M38,11.75 L38,16 L33.75,16 L33.75,11.75 L38,11.75 M40.25,9.75 L32,9.75 L32,18 L40.25,18 L40.25,9.75 L40.25,9.75 Z" id="Shape"></path>
                <path d="M49.25,11.75 L49.25,16 L45,16 L45,11.75 L49.25,11.75 M51.5,9.75 L43.25,9.75 L43.25,18 L51.5,18 L51.5,9.75 L51.5,9.75 Z" id="Shape"></path>
                <path d="M26.75,11.75 L26.75,16 L22.5,16 L22.5,11.75 L26.75,11.75 M28.75,9.75 L20.5,9.75 L20.5,18 L28.75,18 L28.75,9.75 L28.75,9.75 Z" id="Shape"></path>
                <path d="M15.5,25.75 L15.5,30 L11.25,30 L11.25,25.75 L15.5,25.75 M17.5,23.5 L9.25,23.5 L9.25,31.75 L17.5,31.75 L17.5,23.5 L17.5,23.5 Z" id="Shape"></path>
                <path d="M26.75,25.75 L26.75,30 L22.5,30 L22.5,25.75 L26.75,25.75 M28.75,23.5 L20.5,23.5 L20.5,31.75 L28.75,31.75 L28.75,23.5 L28.75,23.5 Z" id="Shape"></path>
                <path d="M38,25.75 L38,30 L33.75,30 L33.75,25.75 L38,25.75 M40.25,23.5 L32,23.5 L32,31.75 L40.25,31.75 L40.25,23.5 L40.25,23.5 Z" id="Shape"></path>
                <path d="M45,32 L45,30 L45,25.75 L49.25,25.75 L49.25,29.25 C49.75,29 50,29 51.25,29 C51.25,29 51.25,29 51.5,29 L51.5,23.75 L43.25,23.75 L43.25,32" id="Path"></path>
                <path d="M15.5,11.75 L15.5,16 L11.25,16 L11.25,11.75 L15.5,11.75 M17.5,9.75 L9.25,9.75 L9.25,18 L17.5,18 L17.5,9.75 L17.5,9.75 Z" id="Shape"></path>
                <g transform="translate(40.000000, 30.000000)">
                    <polygon id="Path" points="17 15 17 8.75 14.5 8.75 14.5 16.25 14.5 16.25 19.5 21.25 21.25 19.5"></polygon>
                    <path d="M15.75,3.75 C22,3.75 27,8.75 27,15 C27,21.25 22,26.25 15.75,26.25 C9.5,26.25 4.5,21.25 4.5,15 C4.5,8.75 9.5,3.75 15.75,3.75 M15.75,1.25 C8.25,1.25 2,7.5 2,15 C2,22.5 8.25,28.75 15.75,28.75 C23.25,28.75 29.5,22.5 29.5,15 C29.75,7.25 23.5,1.25 15.75,1.25 L15.75,1.25 Z" id="Shape"></path>
                </g>
                <path d="M3,39 L3,4 C3,4 3,3.75 3.25,3.75 L58.5,3.75 C58.5,3.75 58.75,3.75 58.75,4 L58.75,29 L61.25,29 L61.25,4 C61.25,2.5 60,1.25 58.5,1.25 L3,1.25 C1.5,1.25 0.25,2.5 0.25,4 L0.25,39 C0.25,40.5 1.5,41.75 3,41.75 L40.75,41.75 C40.75,41 41,40 41.25,39.25 L3,39 C3,39 3,39 3,39 Z" id="Path"></path>
            </g>
        </g>
    </g>
</svg>