<?xml version="1.0" encoding="UTF-8"?>
<svg width="80px" height="80px" viewBox="0 0 80 80" version="1.1" xmlns="http://www.w3.org/2000/svg" xmlns:xlink="http://www.w3.org/1999/xlink">
    <!-- Generator: Sketch 57.1 (83088) - https://sketch.com -->
    <title>131-B80px</title>
    <desc>Created with Sketch.</desc>
    <g id="131-B80px" stroke="none" stroke-width="1" fill="none" fill-rule="evenodd">
        <g>
            <path d="M57.5,45 C59,45 60,46 60,47.5 C60,49 59,50 57.5,50 C56,50 55,49 55,47.5 C55,46 56,45 57.5,45 L57.5,45 Z M57.5,42.5 C54.75,42.5 52.5,44.75 52.5,47.5 C52.5,50.25 54.75,52.5 57.5,52.5 C60.25,52.5 62.5,50.25 62.5,47.5 C62.5,44.75 60.25,42.5 57.5,42.5 L57.5,42.5 Z" id="Shape" fill="#101828" fill-rule="nonzero"></path>
            <path d="M42.5,30 C44,30 45,31 45,32.5 C45,34 44,35 42.5,35 C41,35 40,34 40,32.5 C40,31 41,30 42.5,30 L42.5,30 Z M42.5,27.5 C39.75,27.5 37.5,29.75 37.5,32.5 C37.5,35.25 39.75,37.5 42.5,37.5 C45.25,37.5 47.5,35.25 47.5,32.5 C47.5,29.75 45.25,27.5 42.5,27.5 L42.5,27.5 Z" id="Shape" fill="#101828" fill-rule="nonzero"></path>
            <polygon id="Rectangle" fill="#101828" fill-rule="nonzero" transform="translate(49.895112, 40.081888) rotate(-45.000000) translate(-49.895112, -40.081888) " points="33.5202695 38.8318995 66.2699555 38.8318995 66.2699555 41.3318755 33.5202695 41.3318755"></polygon>
            <path d="M67.5,22.5 L67.5,57.5 L20.75,57.5 L12.5,51.25 L12.5,28.75 L20.75,22.5 L67.5,22.5 L67.5,22.5 Z M67.5,20 L20.75,20 C20.25,20 19.75,20.25 19.25,20.5 L11,26.75 C10.25,27.25 10,28 10,28.75 L10,51.25 C10,52 10.25,52.75 11,53.25 L19.25,59.5 C19.75,59.75 20.25,60 20.75,60 L67.5,60 C69,60 70,59 70,57.5 L70,22.5 C70,21 69,20 67.5,20 L67.5,20 Z" id="Shape" fill="#101828" fill-rule="nonzero"></path>
            <path d="M21.25,38.75 C22,38.75 22.5,39.25 22.5,40 C22.5,40.75 22,41.25 21.25,41.25 C20.5,41.25 20,40.75 20,40 C20,39.25 20.5,38.75 21.25,38.75 L21.25,38.75 Z M21.25,36.25 C19.25,36.25 17.5,38 17.5,40 C17.5,42 19.25,43.75 21.25,43.75 C23.25,43.75 25,42 25,40 C25,38 23.25,36.25 21.25,36.25 L21.25,36.25 Z" id="Shape" fill="#101828" fill-rule="nonzero"></path>
            <rect id="Rectangle" x="0" y="0" width="80" height="80"></rect>
        </g>
    </g>
</svg>