<?xml version="1.0" encoding="UTF-8"?>
<svg width="56px" height="56px" viewBox="0 0 56 56" version="1.1" xmlns="http://www.w3.org/2000/svg" xmlns:xlink="http://www.w3.org/1999/xlink">
    <!-- Generator: Sketch 57.1 (83088) - https://sketch.com -->
    <title>212-B56px</title>
    <desc>Created with Sketch.</desc>
    <g id="212-B56px" stroke="none" stroke-width="1" fill="none" fill-rule="evenodd">
        <g>
            <path d="M28,21 C28.9625,21 29.75,21.7875 29.75,22.75 C29.75,23.7125 28.9625,24.5 28,24.5 C27.0375,24.5 26.25,23.7125 26.25,22.75 C26.25,21.7875 27.0375,21 28,21 L28,21 Z M28,19.25 C26.075,19.25 24.5,20.825 24.5,22.75 C24.5,24.675 26.075,26.25 28,26.25 C29.925,26.25 31.5,24.675 31.5,22.75 C31.5,20.825 29.925,19.25 28,19.25 L28,19.25 Z" id="Shape" fill="#101828" fill-rule="nonzero"></path>
            <path d="M24.5,33.25 L24.5,31.5 C24.5,30.5375 25.2875,29.75 26.25,29.75 L29.75,29.75 C30.7125,29.75 31.5,30.5375 31.5,31.5 L31.5,33.25 L33.25,33.25 L33.25,31.5 C33.25,29.575 31.675,28 29.75,28 L26.25,28 C24.325,28 22.75,29.575 22.75,31.5 L22.75,33.25 L24.5,33.25 Z" id="Path" fill="#101828" fill-rule="nonzero"></path>
            <path d="M47.2675,12.25 L8.7325,12.25 C7.77,12.25 7,13.02 7,13.9825 L7,33.25 L8.7325,33.25 L8.7325,14 L47.25,14 L47.2675,36.75 L17.9725,36.75 C17.29,36.75 16.6075,36.96 16.0475,37.345 L9.9225,41.44 L7,43.4175 L7,45.5 L17.01,38.7975 C17.3075,38.605 17.64,38.5 17.9725,38.5 L47.2675,38.5 C48.2125,38.5 49,37.73 49,36.7675 L49,13.9825 C49,13.02 48.23,12.25 47.2675,12.25 Z" id="Path" fill="#101828" fill-rule="nonzero"></path>
            <rect id="Rectangle" x="0" y="0" width="56" height="56"></rect>
        </g>
    </g>
</svg>