<?xml version="1.0" encoding="UTF-8"?>
<svg width="80px" height="80px" viewBox="0 0 80 80" version="1.1" xmlns="http://www.w3.org/2000/svg" xmlns:xlink="http://www.w3.org/1999/xlink">
    <!-- Generator: Sketch 57.1 (83088) - https://sketch.com -->
    <title>004-B80px</title>
    <desc>Created with Sketch.</desc>
    <g id="004-B80px" stroke="none" stroke-width="1" fill="none" fill-rule="evenodd">
        <g>
            <path d="M67.825,29.925 L55.25,14.9 C53.25,12.5 49.9,11.75 47.075,13.075 L26.325,22.85 L22.175,24.725 C19.525,25.925 16.875,27.125 14.225,28.275 C11.5,29.45 10.1,31.3 10.05,33.725 C9.975,39.775 10,45.8 10.05,51.8 C10.05,53.85 11.2,55.5 13.125,56.275 C15.35,57.15 17.625,57.975 19.825,58.775 C21.075,59.225 22.3,59.675 23.55,60.125 L24.6,60.525 C29.7,62.425 34.825,64.325 39.925,66.25 C40.925,66.625 41.825,66.925 42.675,67.125 C43.55,67.35 44.475,67.475 45.35,67.475 C45.35,67.475 45.4,67.475 45.425,67.475 C45.475,67.475 45.5,67.475 45.55,67.475 C45.55,67.475 45.575,67.475 45.575,67.475 C45.6,67.475 45.625,67.475 45.625,67.475 L45.625,67.475 L45.625,67.475 L45.625,67.475 L45.825,67.475 C45.95,67.475 46.05,67.45 46.175,67.425 C46.2,67.425 46.2,67.425 46.225,67.425 C47.4,67.35 48.525,67.125 49.6,66.65 C52.375,65.425 55.15,64.125 57.85,62.875 L58.05,62.775 C60.125,61.825 62.175,60.85 64.275,59.9 C64.725,59.7 65.125,59.425 65.475,59.1 L65.9,58.9 C68.4,57.75 70,55.225 70,52.45 L70,35.95 C70,33.75 69.225,31.6 67.825,29.925 Z M35.9,36.425 L35.9,33.2 L43.225,41.95 C44.175,43.075 44.775,44.475 44.975,45.925 L38.3,43.5 C36.625,42.9 35.825,41.75 35.9,40.075 C35.95,39.225 35.925,38.35 35.925,37.525 C35.9,37.175 35.9,36.8 35.9,36.425 Z M40.775,64.05 C35.675,62.1 30.55,60.2 25.45,58.3 L24.4,57.9 C23.15,57.425 21.9,56.975 20.6,56.5 C18.425,55.725 16.2,54.9 14.025,54.05 C13.025,53.65 12.45,52.85 12.45,51.775 C12.4,46.25 12.375,40.025 12.45,33.75 C12.45,32.825 12.75,31.475 15.2,30.425 C17.95,29.225 20.675,28 23.4,26.75 L27.225,25.025 C28.575,25.175 29.8,25.825 30.7,26.9 L33.575,30.325 L33.575,37.55 C33.575,38.325 33.6,39.15 33.55,39.95 C33.4,42.65 34.85,44.75 37.5,45.7 C39.825,46.55 42.175,47.4 44.5,48.25 L45,48.475 L45.025,62.925 C45.025,63.775 44.6,64.525 43.875,64.975 C42.95,64.8 41.95,64.5 40.775,64.05 Z" id="Shape" fill="#101828" fill-rule="nonzero"></path>
            <rect id="Rectangle" x="0" y="0" width="80" height="80"></rect>
        </g>
    </g>
</svg>