<?xml version="1.0" encoding="UTF-8"?>
<svg width="80px" height="80px" viewBox="0 0 80 80" version="1.1" xmlns="http://www.w3.org/2000/svg" xmlns:xlink="http://www.w3.org/1999/xlink">
    <!-- Generator: Sketch 57.1 (83088) - https://sketch.com -->
    <title>164-G80px</title>
    <desc>Created with Sketch.</desc>
    <g id="NEW_icons" stroke="none" stroke-width="1" fill="none" fill-rule="evenodd">
        <g id="icons_UD_new-Copy" transform="translate(-768.000000, -21068.000000)">
            <g id="164-G80px" transform="translate(768.000000, 21068.000000)">
                <circle id="Oval-Copy-948" fill="#E3E8EC" cx="40" cy="40" r="40"></circle>
                <g id="164-B32px-Copy-9" transform="translate(12.000000, 12.000000)">
                    <g id="Fill-285" transform="translate(12.250000, 10.500000)" fill="#101828">
                        <path d="M18.9,0.875 C19.2675,1.9075 19.635,2.94 20.0025,3.9725 C21.8575,9.2225 23.695,14.4725 25.55,19.705 C25.8125,20.4575 26.3725,20.9475 27.0725,21.28 C27.3875,21.4375 27.7025,21.56 28.0175,21.7175 C28.14,21.77 28.245,21.8575 28.35,21.945 C28.4725,22.05 28.4725,22.19 28.35,22.295 C28.245,22.3825 28.1225,22.47 28,22.54 C27.545,22.7675 27.09,22.995 26.635,23.2225 C26.5125,23.275 26.4075,23.345 26.285,23.4325 C25.9875,23.625 25.9875,23.905 26.285,24.0975 C26.4425,24.2025 26.6175,24.255 26.775,24.3425 C27.125,24.5 27.3525,24.7625 27.475,25.13 C28.49,28.0525 29.505,30.975 30.5375,33.8975 C30.555,33.95 30.5725,34.02 30.59,34.09 L24.3075,34.09 C24.0975,33.5125 23.905,32.935 23.695,32.3575 C22.9775,30.345 22.2775,28.315 21.56,26.3025 C21.5075,26.145 21.4375,26.11 21.28,26.11 C19.145,26.11 17.01,26.11 14.875,26.11 C13.9475,26.11 13.02,26.11 12.0925,26.11 L11.9,26.11 C12.0225,25.76 12.145,25.41 12.2675,25.0775 C12.32,24.9025 12.3725,24.745 12.39,24.57 C12.4075,24.325 12.3025,24.2025 12.075,24.1325 C11.795,24.045 11.7425,23.8175 11.97,23.625 C12.075,23.5375 12.1975,23.4675 12.32,23.415 C12.95,23.1175 13.5975,22.8375 14.2275,22.5225 C14.455,22.4175 14.6475,22.2775 14.84,22.1025 C15.05,21.9275 15.05,21.7175 14.8575,21.525 C14.735,21.385 14.5775,21.2625 14.42,21.14 C14.0525,20.86 13.965,20.6675 14.0175,20.195 L19.39,20.195 C18.165,16.73 16.9575,13.2825 15.7325,9.8 C15.575,10.2375 15.435,10.6225 15.295,11.025 C14.28,13.9125 13.2475,16.8175 12.25,19.705 C12.1625,19.9675 12.145,20.2475 12.1275,20.5275 C12.11,20.755 12.25,20.93 12.425,21.07 C12.565,21.175 12.705,21.28 12.845,21.4025 C13.1775,21.7 13.1775,21.9975 12.81,22.2425 C12.565,22.4175 12.285,22.5575 12.005,22.6975 C11.445,22.9775 10.8675,23.2225 10.3075,23.5025 C10.185,23.555 10.08,23.6425 9.9925,23.7475 C9.8525,23.905 9.9225,24.0625 10.115,24.1325 C10.4825,24.2725 10.5875,24.43 10.465,24.8325 C10.3075,25.34 10.0975,25.83 9.9225,26.3375 C9.03,28.8575 8.1375,31.395 7.2625,33.915 C7.21,34.0725 7.14,34.1425 6.965,34.1425 C5.0225,34.1425 3.08,34.1425 1.1375,34.1425 L0.91,34.1425 C0.945,34.02 0.98,33.9325 0.9975,33.845 C1.9425,31.185 2.87,28.5075 3.815,25.8475 C3.9025,25.6025 4.025,25.3575 4.1125,25.1125 C4.165,24.9375 4.2175,24.78 4.235,24.605 C4.2525,24.3775 4.13,24.255 3.92,24.185 C3.8325,24.15 3.675,24.0625 3.675,23.9925 C3.675,23.8875 3.745,23.7475 3.815,23.6775 C3.9025,23.59 4.025,23.5375 4.13,23.485 C4.7775,23.1875 5.425,22.89 6.0725,22.575 C6.265,22.4875 6.4575,22.365 6.6325,22.2075 C6.8775,21.9975 6.8775,21.77 6.65,21.525 C6.5625,21.42 6.44,21.3325 6.335,21.2625 C5.8625,20.965 5.7225,20.6675 5.8975,20.02 C6.055,19.4075 6.3,18.8125 6.51,18.2175 C8.5225,12.4775 10.5525,6.755 12.565,1.0325 C12.5825,0.9975 12.6,0.9625 12.6,0.9275 L18.9,0.9275 L18.9,0.875 Z" id="Path"></path>
                    </g>
                    <rect id="Rectangle" x="0" y="0" width="56" height="56"></rect>
                </g>
            </g>
        </g>
    </g>
</svg>