<?xml version="1.0" encoding="UTF-8"?>
<svg width="80px" height="80px" viewBox="0 0 80 80" version="1.1" xmlns="http://www.w3.org/2000/svg" xmlns:xlink="http://www.w3.org/1999/xlink">
    <!-- Generator: Sketch 57.1 (83088) - https://sketch.com -->
    <title>007-B80px</title>
    <desc>Created with Sketch.</desc>
    <g id="007-B80px" stroke="none" stroke-width="1" fill="none" fill-rule="evenodd">
        <g>
            <path d="M53.7,58.6 C52.975,59.05 52.225,59.45 51.475,59.825 L54.025,67.5 L25.975,67.5 L28.525,59.825 C27.75,59.45 27.025,59.05 26.3,58.6 L23.6,66.7 C23.05,68.325 24.25,70 25.975,70 L54.05,70 C55.75,70 56.95,68.325 56.425,66.7 L53.7,58.6 Z" id="Path" fill="#101828" fill-rule="nonzero"></path>
            <path d="M40,12.5 C53.1,12.5 63.75,23.15 63.75,36.25 C63.75,49.35 53.1,60 40,60 C26.9,60 16.25,49.35 16.25,36.25 C16.25,23.15 26.9,12.5 40,12.5 L40,12.5 Z M40,10 C25.5,10 13.75,21.75 13.75,36.25 C13.75,50.75 25.5,62.5 40,62.5 C54.5,62.5 66.25,50.75 66.25,36.25 C66.25,21.75 54.5,10 40,10 L40,10 Z" id="Shape" fill="#101828" fill-rule="nonzero"></path>
            <path d="M40,22.5 C40.7,22.5 41.25,21.95 41.25,21.25 C41.25,20.55 40.7,20 40,20 C39.3,20 38.75,20.55 38.75,21.25 C38.75,21.95 39.3,22.5 40,22.5" id="Path" fill="#101828" fill-rule="nonzero"></path>
            <path d="M40,40 L40,40 C41.1,40 42.05,40.7 42.375,41.75 C42.575,42.375 42.525,43.075 42.225,43.65 C41.925,44.25 41.4,44.675 40.75,44.875 C40.5,44.95 40.25,45 40,45 C38.9,45 37.95,44.3 37.625,43.25 C37.425,42.625 37.475,41.925 37.775,41.35 C38.075,40.75 38.6,40.325 39.25,40.125 C39.5,40.05 39.75,40 40,40 L40,40 Z M40,37.5 C39.5,37.5 38.975,37.575 38.475,37.725 C35.85,38.55 34.4,41.375 35.225,44 C35.9,46.15 37.875,47.5 40,47.5 C40.5,47.5 41.025,47.425 41.525,47.275 C44.15,46.45 45.6,43.625 44.775,41 C44.1,38.85 42.125,37.5 40,37.5 L40,37.5 Z" id="Shape" fill="#101828" fill-rule="nonzero"></path>
            <path d="M40,32.5 C45.525,32.5 50,36.975 50,42.5 C50,48.025 45.525,52.5 40,52.5 C34.475,52.5 30,48.025 30,42.5 C30,36.975 34.475,32.5 40,32.5 L40,32.5 Z M40,30 C33.1,30 27.5,35.6 27.5,42.5 C27.5,49.4 33.1,55 40,55 C46.9,55 52.5,49.4 52.5,42.5 C52.5,35.6 46.9,30 40,30 L40,30 Z" id="Shape" fill="#101828" fill-rule="nonzero"></path>
            <rect id="Rectangle" x="0" y="0" width="80" height="80"></rect>
        </g>
    </g>
</svg>