<?xml version="1.0" encoding="UTF-8"?>
<svg width="56px" height="56px" viewBox="0 0 56 56" version="1.1" xmlns="http://www.w3.org/2000/svg" xmlns:xlink="http://www.w3.org/1999/xlink">
    <!-- Generator: Sketch 57.1 (83088) - https://sketch.com -->
    <title>216-W56px</title>
    <desc>Created with Sketch.</desc>
    <g id="NEW_icons" stroke="none" stroke-width="1" fill="none" fill-rule="evenodd">
        <g id="icons_UD_new-Copy" transform="translate(-541.000000, -27623.000000)">
            <g id="216-W56px" transform="translate(541.000000, 27623.000000)">
                <circle id="Oval-Copy-1323" fill="#101828" cx="28" cy="28" r="28"></circle>
                <g id="216-B32px-Copy-4" transform="translate(8.000000, 8.000000)">
                    <polygon id="Path" fill="#FFFFFF" fill-rule="nonzero" points="16.0375 15.7 15.8375 16.95 25.8375 16.95 26.0375 15.7"></polygon>
                    <polygon id="Path" fill="#FFFFFF" fill-rule="nonzero" points="22.5 23.2 23.75 13.2 22.5 13.2 21.25 23.2"></polygon>
                    <polygon id="Path" fill="#FFFFFF" fill-rule="nonzero" points="18.75 23.2 20 13.2 18.75 13.2 17.5 23.2"></polygon>
                    <polygon id="Path" fill="#FFFFFF" fill-rule="nonzero" points="15.4125 19.45 15.2125 20.7 25.2125 20.7 25.4125 19.45"></polygon>
                    <path d="M33.7625,8.75 L6.2375,8.75 C5.55,8.75 5,9.3 5,9.9875 L5,23.75 L6.2375,23.75 L6.2375,10 L33.75,10 L33.7625,26.25 L12.8375,26.25 C12.35,26.25 11.8625,26.4 11.4625,26.675 L7.0875,29.6 L5,31.0125 L5,32.5 L12.15,27.7125 C12.3625,27.575 12.6,27.5 12.8375,27.5 L33.7625,27.5 C34.4375,27.5 35,26.95 35,26.2625 L35,9.9875 C35,9.3 34.45,8.75 33.7625,8.75 Z" id="Path" fill="#FFFFFF" fill-rule="nonzero"></path>
                    <rect id="Rectangle" x="0" y="0" width="40" height="40"></rect>
                </g>
            </g>
        </g>
    </g>
</svg>