<?xml version="1.0" encoding="UTF-8"?>
<svg width="80px" height="80px" viewBox="0 0 80 80" version="1.1" xmlns="http://www.w3.org/2000/svg" xmlns:xlink="http://www.w3.org/1999/xlink">
    <!-- Generator: Sketch 57.1 (83088) - https://sketch.com -->
    <title>094-B80px</title>
    <desc>Created with Sketch.</desc>
    <g id="094-B80px" stroke="none" stroke-width="1" fill="none" fill-rule="evenodd">
        <g>
            <path d="M39.975,56.25 C39.975,55.55 40.025,54.85 40.125,54.15 C32.05,49.95 25.8,43.575 25.725,43.5 C25.6,43.375 13.925,31.15 12.5,19.125 C12.5,19.05 12.5,18.925 12.575,18.85 L19.125,12.525 C19.175,12.475 19.225,12.45 19.3,12.45 C19.35,12.45 19.4,12.5 19.4,12.5 L29.275,22.7 C29.35,22.775 29.325,22.925 29.25,23 L24.875,27.225 L23.675,28.4 L24.3,29.95 C24.4,30.2 26.725,35.875 30.05,39.3 C33.375,42.725 38.975,45.25 39.225,45.35 L40.775,46.025 L41.975,44.85 L46.35,40.625 C46.4,40.575 46.45,40.55 46.525,40.55 C46.6,40.55 46.65,40.6 46.65,40.6 L48.15,42.15 C48.9,41.7 49.7,41.325 50.55,41.025 L48.45,38.85 C47.925,38.3 47.225,38.025 46.525,38.025 C45.85,38.025 45.15,38.275 44.625,38.8 L40.25,43.025 C40.25,43.025 34.9,40.65 31.875,37.525 C28.85,34.4 26.65,28.975 26.65,28.975 L31.025,24.75 C32.1,23.7 32.15,22 31.1,20.925 L21.2,10.775 C20.675,10.225 19.975,9.95 19.275,9.95 C18.6,9.95 17.9,10.2 17.375,10.725 L10.825,17.05 C10.2,17.675 9.925,18.55 10.025,19.425 C11.575,32.475 23.925,45.225 23.925,45.225 C23.925,45.225 30.925,52.45 40.025,56.9 C40,56.675 39.975,56.475 39.975,56.25 Z" id="Path" fill="#101828" fill-rule="nonzero"></path>
            <path d="M56.225,45 C62.425,45 67.475,50.05 67.475,56.25 C67.475,62.45 62.425,67.5 56.225,67.5 C50.025,67.5 44.975,62.45 44.975,56.25 C44.975,50.05 50.025,45 56.225,45 L56.225,45 Z M56.225,42.5 C48.625,42.5 42.475,48.65 42.475,56.25 C42.475,63.85 48.625,70 56.225,70 C63.825,70 69.975,63.85 69.975,56.25 C69.975,48.65 63.825,42.5 56.225,42.5 L56.225,42.5 Z" id="Shape" fill="#101828" fill-rule="nonzero"></path>
            <path d="M52.225,56.375 L55,54.625 L55,58.1 L52.225,56.375 L52.225,56.375 Z M47.5,56.4 L57.5,62.625 L57.475,50.125 L47.5,56.4 L47.5,56.4 Z" id="Shape" fill="#101828" fill-rule="nonzero"></path>
            <polygon id="Rectangle" fill="#101828" fill-rule="nonzero" transform="translate(60.612524, 56.250213) rotate(-0.111814) translate(-60.612524, -56.250213) " points="56.2250153 55.0002104 65.000032 55.0002104 65.000032 57.5002151 56.2250153 57.5002151"></polygon>
            <rect id="Rectangle" x="0" y="0" width="80" height="80"></rect>
        </g>
    </g>
</svg>