<?xml version="1.0" encoding="UTF-8"?>
<svg width="80px" height="80px" viewBox="0 0 80 80" version="1.1" xmlns="http://www.w3.org/2000/svg" xmlns:xlink="http://www.w3.org/1999/xlink">
    <!-- Generator: Sketch 57.1 (83088) - https://sketch.com -->
    <title>092-B80px</title>
    <desc>Created with Sketch.</desc>
    <g id="092-B80px" stroke="none" stroke-width="1" fill="none" fill-rule="evenodd">
        <g>
            <path d="M40,65 C40.675,65 41.225,64.45 41.225,63.75 C41.225,63.05 40.675,62.5 40,62.5 C39.325,62.5 38.775,63.05 38.775,63.75 C38.775,64.45 39.325,65 40,65" id="Path" fill="#101828" fill-rule="nonzero"></path>
            <rect id="Rectangle" fill="#101828" fill-rule="nonzero" x="20" y="57.5" width="39.425" height="2.5"></rect>
            <path d="M31.1,30 C31.75,30 32.3,30.55 32.3,31.25 C32.3,31.95 31.75,32.5 31.1,32.5 C30.45,32.5 29.9,31.95 29.9,31.25 C29.9,30.55 30.425,30 31.1,30 L31.1,30 Z M31.1,27.5 C29.05,27.5 27.4,29.175 27.4,31.25 C27.4,33.325 29.05,35 31.1,35 C33.15,35 34.8,33.325 34.8,31.25 C34.8,29.175 33.125,27.5 31.1,27.5 L31.1,27.5 Z" id="Shape" fill="#101828" fill-rule="nonzero"></path>
            <path d="M31.1,35 C31.75,35 32.3,35.55 32.3,36.25 C32.3,36.95 31.75,37.5 31.1,37.5 C30.45,37.5 29.9,36.95 29.9,36.25 C29.9,35.55 30.425,35 31.1,35 L31.1,35 Z M31.1,32.5 C29.05,32.5 27.4,34.175 27.4,36.25 C27.4,38.325 29.05,40 31.1,40 C33.15,40 34.8,38.325 34.8,36.25 C34.8,34.175 33.125,32.5 31.1,32.5 L31.1,32.5 Z" id="Shape" fill="#101828" fill-rule="nonzero"></path>
            <path d="M57.5,42.5 L57.5,67.375 C57.5,67.45 57.45,67.5 57.375,67.5 L22.625,67.5 C22.55,67.5 22.5,67.45 22.5,67.375 L22.5,12.625 C22.5,12.55 22.55,12.5 22.625,12.5 L57.375,12.5 C57.45,12.5 57.5,12.55 57.5,12.625 L57.5,25 L60,25 L60,12.625 C60,11.175 58.825,10 57.375,10 L22.625,10 C21.175,10 20,11.175 20,12.625 L20,67.375 C20,68.825 21.175,70 22.625,70 L57.375,70 C58.825,70 60,68.825 60,67.375 L60,42.5 L57.5,42.5 Z" id="Path" fill="#101828" fill-rule="nonzero"></path>
            <polygon id="Path" fill="#101828" fill-rule="nonzero" points="36.275 40 39.075 40 40.9 36.45 42.75 40 45.525 40 42.3 33.775 45.55 27.5 42.775 27.5 40.9 31.075 39.05 27.5 36.25 27.5 39.5 33.775"></polygon>
            <polygon id="Path" fill="#101828" fill-rule="nonzero" points="47.125 40 49.925 40 51.75 36.45 53.6 40 56.4 40 53.15 33.775 56.4 27.5 53.625 27.5 51.75 31.075 49.9 27.5 47.1 27.5 50.375 33.775"></polygon>
            <polygon id="Path" fill="#101828" fill-rule="nonzero" points="58.225 40 61 40 62.85 36.45 64.7 40 67.475 40 64.25 33.775 67.5 27.5 64.725 27.5 62.85 31.075 61 27.5 58.2 27.5 61.45 33.775"></polygon>
            <rect id="Rectangle" x="0" y="0" width="80" height="80"></rect>
        </g>
    </g>
</svg>