<?xml version="1.0" encoding="UTF-8"?>
<svg width="80px" height="80px" viewBox="0 0 80 80" version="1.1" xmlns="http://www.w3.org/2000/svg" xmlns:xlink="http://www.w3.org/1999/xlink">
    <!-- Generator: Sketch 57.1 (83088) - https://sketch.com -->
    <title>103-W80px</title>
    <desc>Created with Sketch.</desc>
    <g id="NEW_icons" stroke="none" stroke-width="1" fill="none" fill-rule="evenodd">
        <g id="icons_UD_new-Copy" transform="translate(-2151.000000, -13280.000000)">
            <g id="103-W80px" transform="translate(2151.000000, 13280.000000)">
                <circle id="Oval-Copy-622" fill="#101828" cx="40" cy="40" r="40"></circle>
                <g id="103-B32px-Copy-7" transform="translate(12.000000, 12.000000)">
                    <path d="M14,40.25 L14,47.25 L12.25,47.25 L12.25,40.25 L14,40.25 L14,40.25 Z M14,38.5 L12.25,38.5 C11.2875,38.5 10.5,39.2875 10.5,40.25 L10.5,47.25 C10.5,48.2125 11.2875,49 12.25,49 L14,49 C14.9625,49 15.75,48.2125 15.75,47.25 L15.75,40.25 C15.75,39.2875 14.9625,38.5 14,38.5 L14,38.5 Z" id="Shape" fill="#FFFFFF" fill-rule="nonzero"></path>
                    <path d="M17.5,33.25 L8.75,33.25 C7.7875,33.25 7,34.0375 7,35 L7,43.75 C7,44.7125 7.7875,45.5 8.75,45.5 L12.25,45.5 L12.25,43.75 L8.75,43.75 L8.75,35 L17.5,35 L17.5,43.75 L14,43.75 L14,45.5 L17.5,45.5 C18.4625,45.5 19.25,44.7125 19.25,43.75 L19.25,35 C19.25,34.0375 18.4625,33.25 17.5,33.25 Z" id="Path" fill="#FFFFFF" fill-rule="nonzero"></path>
                    <path d="M43.75,8.75 L43.75,15.75 L42,15.75 L42,8.75 L43.75,8.75 L43.75,8.75 Z M43.75,7 L42,7 C41.0375,7 40.25,7.7875 40.25,8.75 L40.25,15.75 C40.25,16.7125 41.0375,17.5 42,17.5 L43.75,17.5 C44.7125,17.5 45.5,16.7125 45.5,15.75 L45.5,8.75 C45.5,7.7875 44.7125,7 43.75,7 L43.75,7 Z" id="Shape" fill="#FFFFFF" fill-rule="nonzero"></path>
                    <path d="M47.25,10.5 L43.75,10.5 L43.75,12.25 L47.25,12.25 L47.25,21 L38.5,21 L38.5,12.25 L42,12.25 L42,10.5 L38.5,10.5 C37.5375,10.5 36.75,11.2875 36.75,12.25 L36.75,21 C36.75,21.9625 37.5375,22.75 38.5,22.75 L47.25,22.75 C48.2125,22.75 49,21.9625 49,21 L49,12.25 C49,11.2875 48.2125,10.5 47.25,10.5 Z" id="Path" fill="#FFFFFF" fill-rule="nonzero"></path>
                    <path d="M14,34.125 L12.25,34.125 L12.25,30.03 C12.25,26.775 14.105,23.9925 17.115,22.75 C20.1075,21.5075 23.3975,22.155 25.69,24.465 L31.535,30.31 C33.32,32.095 35.875,32.6025 38.2025,31.64 C40.53,30.6775 41.9825,28.5075 41.9825,25.9875 L41.9825,21.875 L43.7325,21.875 L43.7325,25.97 C43.7325,29.225 41.8775,32.0075 38.8675,33.25 C35.875,34.4925 32.585,33.8275 30.2925,31.535 L24.4475,25.69 C22.6625,23.905 20.1075,23.3975 17.78,24.36 C15.4525,25.34 14,27.4925 14,30.03 L14,34.125 Z" id="Path" fill="#FFFFFF" fill-rule="nonzero"></path>
                    <rect id="Rectangle" x="0" y="0" width="56" height="56"></rect>
                </g>
            </g>
        </g>
    </g>
</svg>