<?xml version="1.0" encoding="UTF-8"?>
<svg width="56px" height="56px" viewBox="0 0 56 56" version="1.1" xmlns="http://www.w3.org/2000/svg" xmlns:xlink="http://www.w3.org/1999/xlink">
    <!-- Generator: Sketch 54.1 (76490) - https://sketchapp.com -->
    <title>015-G56px</title>
    <desc>Created with Sketch.</desc>
    <g id="NEW_icons" stroke="none" stroke-width="1" fill="none" fill-rule="evenodd">
        <g id="icons_UD_new-Copy" transform="translate(-1728.000000, -2106.000000)">
            <g id="015-G56px" transform="translate(1728.000000, 2106.000000)">
                <circle id="Oval-Copy-171" fill="#E3E8EC" cx="28" cy="28" r="28"></circle>
                <g id="015-B32px-Copy-4" transform="translate(8.000000, 8.000000)">
                    <path d="M15.625,32.4875 C15.9625,32.4875 16.25,32.2125 16.25,31.8625 C16.25,31.5125 15.9625,31.25 15.625,31.25 C15.2875,31.25 15,31.525 15,31.875 C15,32.225 15.2875,32.4875 15.625,32.4875" id="Path" fill="#101828" fill-rule="nonzero"></path>
                    <rect id="Rectangle" fill="#101828" fill-rule="nonzero" x="5.375" y="28.75" width="15" height="1.25"></rect>
                    <path d="M20.0125,33.75 L6.25,33.7625 L6.2375,6.25 L23.75,6.25 L23.75,11.25 L25,11.25 L25,6.2375 C25,5.5625 24.4375,5 23.7625,5 L6.2375,5 C5.5625,5 5,5.5625 5,6.2375 L5,33.75 C5,34.4375 5.5625,35 6.2375,35 L20.3875,35 C20.1625,34.6375 20.025,34.2125 20.0125,33.75 Z" id="Path" fill="#101828" fill-rule="nonzero"></path>
                    <path d="M33.725,13.75 L33.7375,33.7375 L22.5,33.75 L22.4875,13.75 L33.725,13.75 L33.725,13.75 Z M33.7375,12.5 L22.5,12.5 C21.8125,12.5 21.25,13.0625 21.25,13.7375 L21.25,33.7375 C21.25,34.425 21.8125,34.975 22.4875,34.975 L33.725,34.975 C34.4125,34.975 34.9625,34.4125 34.9625,33.7375 L34.9625,13.7375 C34.975,13.0625 34.425,12.5 33.7375,12.5 L33.7375,12.5 Z" id="Shape" fill="#101828" fill-rule="nonzero"></path>
                    <path d="M27.4875,32.4875 C27.825,32.4875 28.1125,32.2125 28.1125,31.8625 C28.1125,31.5125 27.8375,31.2375 27.4875,31.2375 C27.1375,31.2375 26.8625,31.5125 26.8625,31.8625 C26.8625,32.2125 27.15,32.4875 27.4875,32.4875" id="Path" fill="#101828" fill-rule="nonzero"></path>
                    <rect id="Rectangle" fill="#101828" fill-rule="nonzero" x="22.5" y="28.75" width="11.25" height="1.25"></rect>
                    <path d="M20,19.125 C19.5625,19.6625 19.05,20.1125 18.45,20.4625 C19.1625,19.225 19.6,17.5125 19.6,15.625 C19.6,13.7375 19.1625,12.025 18.45,10.7875 C19.2125,11.2375 19.85,11.8625 20.3375,12.6 C20.55,12.2125 20.85,11.8875 21.225,11.65 C19.9875,9.9 17.9375,8.75 15.625,8.75 C15.625,8.75 15.625,8.75 15.6125,8.75 C15.6125,8.75 15.6125,8.75 15.6125,8.75 C15.6125,8.75 15.6,8.75 15.6,8.75 C11.8125,8.7625 8.75,11.8375 8.75,15.625 C8.75,19.4125 11.8125,22.4875 15.6,22.5 C15.6,22.5 15.6125,22.5 15.6125,22.5 C15.6125,22.5 15.6125,22.5 15.6125,22.5 C15.6125,22.5 15.6125,22.5 15.625,22.5 C17.2875,22.5 18.8125,21.9125 20,20.925 L20,19.125 Z M10.4875,13.35 L11.85,13.35 C11.75,13.875 11.675,14.425 11.6375,15 L10.0625,15 C10.125,14.425 10.2625,13.8625 10.4875,13.35 Z M10.4875,17.9 C10.2625,17.3875 10.125,16.825 10.0625,16.25 L11.6375,16.25 C11.6625,16.825 11.7375,17.375 11.85,17.9 L10.4875,17.9 Z M11.275,19.15 L12.1875,19.15 C12.35,19.625 12.55,20.0625 12.7625,20.45 C12.2,20.1 11.6875,19.6625 11.275,19.15 Z M12.1875,12.1 L11.275,12.1 C11.7,11.5875 12.2,11.1375 12.775,10.8 C12.55,11.2 12.35,11.6375 12.1875,12.1 Z M15,21.0625 C14.45,20.7625 13.9375,20.0875 13.5375,19.15 L15,19.15 L15,21.0625 Z M15,17.9 L13.125,17.9 C13.0125,17.4 12.9375,16.8375 12.9,16.25 L15,16.25 L15,17.9 Z M15,15 L12.9125,15 C12.95,14.425 13.0125,13.8625 13.1375,13.35 L15,13.35 L15,15 Z M15,12.1 L13.5375,12.1 C13.925,11.1625 14.45,10.4875 15,10.1875 L15,12.1 Z M16.25,10.2 C16.7875,10.5 17.3,11.175 17.6875,12.1 L16.25,12.1 L16.25,10.2 Z M16.25,21.05 L16.25,19.15 L17.6875,19.15 C17.3,20.075 16.7875,20.7375 16.25,21.05 Z M18.1,17.9 L16.25,17.9 L16.25,16.25 L18.325,16.25 C18.2875,16.8375 18.2125,17.3875 18.1,17.9 Z M16.25,15 L16.25,13.35 L18.1,13.35 C18.2125,13.85 18.2875,14.4125 18.325,15 L16.25,15 Z" id="Shape" fill="#101828" fill-rule="nonzero"></path>
                    <rect id="Rectangle" x="0" y="0" width="40" height="40"></rect>
                </g>
            </g>
        </g>
    </g>
</svg>