<?xml version="1.0" encoding="UTF-8"?>
<svg width="32px" height="32px" viewBox="0 0 32 32" version="1.1" xmlns="http://www.w3.org/2000/svg" xmlns:xlink="http://www.w3.org/1999/xlink">
    <!-- Generator: Sketch 57.1 (83088) - https://sketch.com -->
    <title>016-B32px</title>
    <desc>Created with Sketch.</desc>
    <g id="016-B32px" stroke="none" stroke-width="1" fill="none" fill-rule="evenodd">
        <g>
            <rect id="Rectangle" fill="#101828" fill-rule="nonzero" x="15.5" y="5" width="1" height="22.74"></rect>
            <path d="M16,5 C22.07,5 27,9.93 27,16 C27,22.07 22.07,27 16,27 C9.93,27 5,22.07 5,16 C5,9.93 9.93,5 16,5 L16,5 Z M16,4 C9.37,4 4,9.37 4,16 C4,22.63 9.37,28 16,28 C22.63,28 28,22.63 28,16 C28,9.37 22.63,4 16,4 L16,4 Z" id="Shape" fill="#101828" fill-rule="nonzero"></path>
            <path d="M16,5 C19.25,5 22,10.04 22,16 C22,21.96 19.25,27 16,27 C12.75,27 10,21.96 10,16 C10,10.04 12.75,5 16,5 L16,5 Z M16,4 C12.13,4 9,9.37 9,16 C9,22.63 12.13,28 16,28 C19.87,28 23,22.63 23,16 C23,9.37 19.87,4 16,4 L16,4 Z" id="Shape" fill="#101828" fill-rule="nonzero"></path>
            <rect id="Rectangle" fill="#101828" fill-rule="nonzero" x="5.89" y="20.55" width="20.21" height="1"></rect>
            <rect id="Rectangle" fill="#101828" fill-rule="nonzero" x="5.89" y="10.45" width="20.21" height="1"></rect>
            <rect id="Rectangle" fill="#101828" fill-rule="nonzero" x="4.63" y="15.5" width="22.74" height="1"></rect>
            <rect id="Rectangle" x="0" y="0" width="32" height="32"></rect>
        </g>
    </g>
</svg>