<?xml version="1.0" encoding="UTF-8"?>
<svg width="80px" height="80px" viewBox="0 0 80 80" version="1.1" xmlns="http://www.w3.org/2000/svg" xmlns:xlink="http://www.w3.org/1999/xlink">
    <!-- Generator: Sketch 57.1 (83088) - https://sketch.com -->
    <title>130-G80px</title>
    <desc>Created with Sketch.</desc>
    <g id="NEW_icons" stroke="none" stroke-width="1" fill="none" fill-rule="evenodd">
        <g id="icons_UD_new-Copy" transform="translate(-768.000000, -16793.000000)">
            <g id="130-G80px" transform="translate(768.000000, 16793.000000)">
                <circle id="Oval-Copy-858" fill="#E3E8EC" cx="40" cy="40" r="40"></circle>
                <g id="130-B32px-Copy-6" transform="translate(12.000000, 12.000000)">
                    <path d="M28.0525,40.4425 C26.215,41.44 24.115,42 21.875,42 C14.63,42 8.75,36.12 8.75,28.875 C8.75,21.63 14.63,15.75 21.875,15.75 C29.12,15.75 35,21.63 35,28.875 C35.56,28.6475 36.1375,28.4725 36.715,28.3325 C36.435,20.37 29.9075,14 21.875,14 C13.6675,14 7,20.6675 7,28.875 C7,37.0825 13.6675,43.75 21.875,43.75 C24.2025,43.75 26.4075,43.19 28.385,42.245 C28.2275,41.65 28.105,41.055 28.0525,40.4425 Z" id="Path" fill="#101828" fill-rule="nonzero"></path>
                    <path d="M39.375,31.5 C43.715,31.5 47.25,35.035 47.25,39.375 C47.25,43.715 43.715,47.25 39.375,47.25 C35.035,47.25 31.5,43.715 31.5,39.375 C31.5,35.035 35.035,31.5 39.375,31.5 L39.375,31.5 Z M39.375,29.75 C34.055,29.75 29.75,34.055 29.75,39.375 C29.75,44.695 34.055,49 39.375,49 C44.695,49 49,44.695 49,39.375 C49,34.055 44.695,29.75 39.375,29.75 L39.375,29.75 Z" id="Shape" fill="#101828" fill-rule="nonzero"></path>
                    <polygon id="Path" fill="#101828" fill-rule="nonzero" points="35 38.5 35 40.25 38.5 40.25 38.5 43.75 40.25 43.75 40.25 40.25 43.75 40.25 43.75 38.5 40.25 38.5 40.25 35 38.5 35 38.5 38.5"></polygon>
                    <g id="Group" transform="translate(15.750000, 21.000000)" fill="#101828" fill-rule="nonzero">
                        <path d="M3.5,15.75 L1.75,15.75 L1.75,8.75 L0,8.75 L0,7 L1.75,7 L1.75,0 L7.945,0 C10.325,0 12.25,1.925 12.25,4.305 C12.25,6.755 10.255,8.75 7.805,8.75 L3.5,8.75 L3.5,15.75 Z M3.5,7 L7.805,7 C9.2925,7 10.5,5.7925 10.5,4.305 C10.5,2.8875 9.345,1.75 7.945,1.75 L3.5,1.75 L3.5,7 Z" id="Shape"></path>
                        <rect id="Rectangle" x="0" y="10.5" width="8.75" height="1.75"></rect>
                    </g>
                    <rect id="Rectangle" x="0" y="0" width="56" height="56"></rect>
                </g>
            </g>
        </g>
    </g>
</svg>