<?xml version="1.0" encoding="UTF-8"?>
<svg width="80px" height="80px" viewBox="0 0 80 80" version="1.1" xmlns="http://www.w3.org/2000/svg" xmlns:xlink="http://www.w3.org/1999/xlink">
    <!-- Generator: Sketch 57.1 (83088) - https://sketch.com -->
    <title>067-B80px</title>
    <desc>Created with Sketch.</desc>
    <g id="067-B80px" stroke="none" stroke-width="1" fill="none" fill-rule="evenodd">
        <g>
            <path d="M47.5,57.075 C36.2,54.175 25.825,43.6 25.725,43.5 C25.6,43.375 13.925,31.15 12.5,19.125 C12.5,19.05 12.5,18.925 12.575,18.85 L19.125,12.525 C19.175,12.475 19.225,12.45 19.3,12.45 C19.35,12.45 19.4,12.5 19.4,12.5 L29.275,22.7 C29.35,22.775 29.325,22.9 29.25,23 L24.875,27.225 L23.675,28.4 L24.3,29.95 C24.4,30.2 26.725,35.875 30.05,39.3 C33.375,42.725 38.975,45.25 39.225,45.35 L40.775,46.025 L41.975,44.85 L46.35,40.625 C46.4,40.575 46.45,40.55 46.525,40.55 C46.6,40.55 46.65,40.6 46.65,40.6 L47.5,41.55 L47.5,38.3 C47.175,38.175 46.825,38.1 46.5,38.1 C45.825,38.1 45.125,38.35 44.6,38.875 L40.225,43.1 C40.225,43.1 34.875,40.725 31.85,37.6 C28.825,34.475 26.625,29.05 26.625,29.05 L31,24.825 C32.075,23.775 32.125,22.075 31.075,21 L21.2,10.775 C20.675,10.225 19.975,9.95 19.275,9.95 C18.6,9.95 17.9,10.2 17.375,10.725 L10.825,17.05 C10.2,17.675 9.925,18.55 10.025,19.425 C11.575,32.475 23.925,45.225 23.925,45.225 C23.925,45.225 35.075,56.725 47.5,59.625 L47.5,57.075 Z" id="Path" fill="#101828" fill-rule="nonzero"></path>
            <path d="M67.375,40 C67.45,40 67.5,40.05 67.5,40.125 L67.5,67.375 C67.5,67.45 67.45,67.5 67.375,67.5 L52.625,67.5 C52.55,67.5 52.5,67.45 52.5,67.375 L52.5,40.125 C52.5,40.05 52.55,40 52.625,40 L67.375,40 L67.375,40 Z M67.375,37.5 L52.625,37.5 C51.175,37.5 50,38.675 50,40.125 L50,67.375 C50,68.825 51.175,70 52.625,70 L67.375,70 C68.825,70 70,68.825 70,67.375 L70,40.125 C70,38.675 68.825,37.5 67.375,37.5 L67.375,37.5 Z" id="Shape" fill="#101828" fill-rule="nonzero"></path>
            <rect id="Rectangle" fill="#101828" fill-rule="nonzero" x="50" y="60" width="20" height="2.5"></rect>
            <circle id="Oval" fill="#101828" fill-rule="nonzero" cx="60" cy="65" r="1.25"></circle>
            <rect id="Rectangle" x="0" y="0" width="80" height="80"></rect>
        </g>
    </g>
</svg>