<?xml version="1.0" encoding="UTF-8"?>
<svg width="56px" height="56px" viewBox="0 0 56 56" version="1.1" xmlns="http://www.w3.org/2000/svg" xmlns:xlink="http://www.w3.org/1999/xlink">
    <!-- Generator: Sketch 57.1 (83088) - https://sketch.com -->
    <title>155-W56px</title>
    <desc>Created with Sketch.</desc>
    <g id="NEW_icons" stroke="none" stroke-width="1" fill="none" fill-rule="evenodd">
        <g id="icons_UD_new-Copy" transform="translate(-1814.000000, -19830.000000)">
            <g id="155-W56px" transform="translate(1814.000000, 19830.000000)">
                <circle id="Oval-Copy-1068" fill="#101828" cx="28" cy="28" r="28"></circle>
                <g id="155-B32px-Copy-4" transform="translate(8.000000, 8.000000)">
                    <path d="M33.725,11.275 L30,11.275 L30,12.525 L33.725,12.525 L33.75,12.55 L33.725,26.3 L6.25,26.275 L6.275,12.525 L10,12.525 L10,11.275 L6.275,11.275 C5.575,11.275 5,11.85 5,12.55 L5,26.275 C5,26.975 5.575,27.55 6.275,27.55 L33.725,27.55 C34.425,27.55 35,26.975 35,26.275 L35,12.55 C35,11.85 34.425,11.275 33.725,11.275 Z" id="Path" fill="#FFFFFF" fill-rule="nonzero"></path>
                    <path d="M27.5,12.525 L27.5,13.75 L12.5,13.75 L12.5,12.525 L27.5,12.525 L27.5,12.525 Z M28.75,11.275 L11.25,11.275 L11.25,15 L28.75,15 L28.75,11.275 L28.75,11.275 Z" id="Shape" fill="#FFFFFF" fill-rule="nonzero"></path>
                    <path d="M26.9125,6.475 C26.9375,6.475 26.975,6.4875 26.975,6.525 L27.2125,7.8375 L12.375,10.6625 L12.1375,9.3625 C12.1375,9.325 12.1625,9.275 12.2125,9.2625 L26.9,6.475 L26.9125,6.475 L26.9125,6.475 Z M26.9125,5.225 C26.825,5.225 26.75,5.2375 26.6625,5.25 L11.975,8.0375 C11.25,8.175 10.775,8.875 10.9125,9.5875 L11.375,12.125 L28.675,8.8375 L28.2,6.3 C28.1,5.6625 27.5375,5.225 26.9125,5.225 L26.9125,5.225 Z" id="Shape" fill="#FFFFFF" fill-rule="nonzero"></path>
                    <path d="M27.5,12.525 L27.5,22.5125 L12.5,22.5125 L12.5,12.525 L27.5,12.525 L27.5,12.525 Z M28.75,11.275 L11.25,11.275 L11.25,22.5125 C11.25,23.2 11.8125,23.7625 12.5,23.7625 L27.5,23.7625 C28.1875,23.7625 28.75,23.2 28.75,22.5125 L28.75,11.275 L28.75,11.275 Z" id="Shape" fill="#FFFFFF" fill-rule="nonzero"></path>
                    <polygon id="Rectangle" fill="#FFFFFF" fill-rule="nonzero" transform="translate(14.244736, 9.611381) rotate(-55.907869) translate(-14.244736, -9.611381) " points="12.1823292 8.98640942 16.3071433 8.98640942 16.3071433 10.2363531 12.1823292 10.2363531"></polygon>
                    <polygon id="Rectangle" fill="#FFFFFF" fill-rule="nonzero" transform="translate(17.912921, 8.897109) rotate(-55.907869) translate(-17.912921, -8.897109) " points="15.8505142 8.27213692 19.9753283 8.27213692 19.9753283 9.52208058 15.8505142 9.52208058"></polygon>
                    <polygon id="Rectangle" fill="#FFFFFF" fill-rule="nonzero" transform="translate(21.695818, 8.175568) rotate(-55.907869) translate(-21.695818, -8.175568) " points="19.6334105 7.55059567 23.7582245 7.55059567 23.7582245 8.80053933 19.6334105 8.80053933"></polygon>
                    <polygon id="Rectangle" fill="#FFFFFF" fill-rule="nonzero" transform="translate(25.490065, 7.460908) rotate(-55.907869) translate(-25.490065, -7.460908) " points="23.427658 6.83593567 27.552472 6.83593567 27.552472 8.08587933 23.427658 8.08587933"></polygon>
                    <polygon id="Rectangle" fill="#FFFFFF" fill-rule="nonzero" transform="translate(14.110630, 13.124904) rotate(-43.731830) translate(-14.110630, -13.124904) " points="12.1105836 12.4998892 16.1106764 12.4998892 16.1106764 13.7499183 12.1105836 13.7499183"></polygon>
                    <polygon id="Rectangle" fill="#FFFFFF" fill-rule="nonzero" transform="translate(17.962140, 13.128274) rotate(-43.731830) translate(-17.962140, -13.128274) " points="15.9620936 12.5032592 19.9621864 12.5032592 19.9621864 13.7532883 15.9620936 13.7532883"></polygon>
                    <polygon id="Rectangle" fill="#FFFFFF" fill-rule="nonzero" transform="translate(21.822682, 13.122878) rotate(-43.731830) translate(-21.822682, -13.122878) " points="19.8226361 12.497863 23.8227289 12.497863 23.8227289 13.747892 19.8226361 13.747892"></polygon>
                    <polygon id="Rectangle" fill="#FFFFFF" fill-rule="nonzero" transform="translate(25.673943, 13.125747) rotate(-43.731830) translate(-25.673943, -13.125747) " points="23.6738961 12.500733 27.6739889 12.500733 27.6739889 13.750762 23.6738961 13.750762"></polygon>
                    <path d="M19.975,27.4625 C14.5875,27.4625 10.55,28.2875 8.75,28.7375 L8.75,30.025 C10.2875,29.625 14.425,28.7125 19.975,28.7125 C25.575,28.7125 29.7375,29.6375 31.25,30.0375 L31.25,28.75 C29.4625,28.2875 25.4125,27.4625 19.975,27.4625 Z" id="Path" fill="#FFFFFF" fill-rule="nonzero"></path>
                    <rect id="Rectangle" x="0" y="0" width="40" height="40"></rect>
                </g>
            </g>
        </g>
    </g>
</svg>