<?xml version="1.0" encoding="UTF-8"?>
<svg width="32px" height="32px" viewBox="0 0 32 32" version="1.1" xmlns="http://www.w3.org/2000/svg" xmlns:xlink="http://www.w3.org/1999/xlink">
    <!-- Generator: Sketch 57.1 (83088) - https://sketch.com -->
    <title>175-B32px</title>
    <desc>Created with Sketch.</desc>
    <g id="175-B32px" stroke="none" stroke-width="1" fill="none" fill-rule="evenodd">
        <g>
            <polygon id="Path" fill="#101828" fill-rule="nonzero" points="27.97 28 20.19 21.35 20.84 20.59 28 26.7"></polygon>
            <path d="M14,5 C18.96,5 23,9.04 23,14 C23,18.96 18.96,23 14,23 C9.04,23 5,18.96 5,14 C5,9.04 9.04,5 14,5 L14,5 Z M14,4 C8.48,4 4,8.48 4,14 C4,19.52 8.48,24 14,24 C19.52,24 24,19.52 24,14 C24,8.48 19.52,4 14,4 L14,4 Z" id="Shape" fill="#101828" fill-rule="nonzero"></path>
            <g id="Group" transform="translate(11.000000, 10.000000)" fill="#101828" fill-rule="nonzero">
                <path d="M2,9 L1,9 L1,5 L0,5 L0,4 L1,4 L1,0 L4.54,0 C5.9,0 7,1.1 7,2.46 C7,3.86 5.86,5 4.46,5 L2,5 L2,9 Z M2,4 L4.46,4 C5.31,4 6,3.31 6,2.46 C6,1.65 5.34,1 4.54,1 L2,1 L2,4 Z" id="Shape"></path>
                <rect id="Rectangle" x="0" y="6" width="5" height="1"></rect>
            </g>
            <rect id="Rectangle" x="0" y="0" width="32" height="32"></rect>
        </g>
    </g>
</svg>