<?xml version="1.0" encoding="UTF-8"?>
<svg width="42px" height="42px" viewBox="0 0 42 42" version="1.1" xmlns="http://www.w3.org/2000/svg" xmlns:xlink="http://www.w3.org/1999/xlink">
    <!-- Generator: Sketch 57.1 (83088) - https://sketch.com -->
    <title>198-G40px</title>
    <desc>Created with Sketch.</desc>
    <g id="NEW_icons" stroke="none" stroke-width="1" fill="none" fill-rule="evenodd">
        <g id="icons_UD_new-Copy" transform="translate(-253.000000, -25375.000000)">
            <g id="198-G40px" transform="translate(254.000000, 25376.000000)">
                <circle id="Oval-Copy-1263" stroke="#E3E8EC" cx="20" cy="20" r="20"></circle>
                <g id="198-B32px-Copy" transform="translate(4.000000, 4.000000)">
                    <path d="M19.61,14.51 C20.49,15.79 21,17.34 21,19 C21,23.41 17.41,27 13,27 C8.59,27 5,23.41 5,19 C5,14.59 8.59,11 13,11 C14.66,11 16.21,11.51 17.49,12.39 L18.21,11.67 C16.74,10.62 14.94,10 13,10 C8.03,10 4,14.03 4,19 C4,23.97 8.03,28 13,28 C17.97,28 22,23.97 22,19 C22,17.06 21.38,15.26 20.33,13.79 L19.61,14.51 Z" id="Path" fill="#101828" fill-rule="nonzero"></path>
                    <path d="M17.97,16.18 C18.42,16.98 18.68,17.91 18.68,18.89 C18.68,21.96 16.18,24.46 13.11,24.46 C10.04,24.46 7.54,21.96 7.54,18.89 C7.54,15.82 10.04,13.32 13.11,13.32 C14.09,13.32 15.02,13.58 15.82,14.03 L16.56,13.29 C15.56,12.67 14.38,12.31 13.11,12.31 C9.48,12.31 6.53,15.26 6.53,18.89 C6.53,22.52 9.48,25.47 13.11,25.47 C16.74,25.47 19.69,22.52 19.69,18.89 C19.69,17.62 19.33,16.44 18.71,15.44 L17.97,16.18 Z" id="Path" fill="#101828" fill-rule="nonzero"></path>
                    <path d="M15.87,18.18 C15.95,18.44 16,18.71 16,19 C16,20.65 14.65,22 13,22 C11.35,22 10,20.65 10,19 C10,17.35 11.35,16 13,16 C13.25,16 13.48,16.04 13.71,16.09 L14.51,15.29 C14.04,15.11 13.53,15 13,15 C10.79,15 9,16.79 9,19 C9,21.21 10.79,23 13,23 C15.21,23 17,21.21 17,19 C17,18.43 16.87,17.88 16.66,17.39 L15.87,18.18 Z" id="Path" fill="#101828" fill-rule="nonzero"></path>
                    <path d="M24.25,7.75 L24.25,7.04 L12.75,18.53 C12.55,18.73 12.55,19.05 12.75,19.25 C12.85,19.35 12.98,19.4 13.11,19.4 C13.24,19.4 13.37,19.35 13.47,19.25 L24.96,7.75 L24.25,7.75 Z" id="Path" fill="#101828" fill-rule="nonzero"></path>
                    <polygon id="Path" fill="#101828" fill-rule="nonzero" points="23.95 11.8 28 7.75 26.57 7.75 22.52 11.8"></polygon>
                    <polygon id="Path" fill="#101828" fill-rule="nonzero" points="20.2 8.05 20.2 9.48 24.25 5.43 24.25 4"></polygon>
                    <rect id="Rectangle" x="0" y="0" width="32" height="32"></rect>
                </g>
            </g>
        </g>
    </g>
</svg>