<?xml version="1.0" encoding="UTF-8"?>
<svg width="80px" height="80px" viewBox="0 0 80 80" version="1.1" xmlns="http://www.w3.org/2000/svg" xmlns:xlink="http://www.w3.org/1999/xlink">
    <!-- Generator: Sketch 57.1 (83088) - https://sketch.com -->
    <title>169-B80px</title>
    <desc>Created with Sketch.</desc>
    <g id="169-B80px" stroke="none" stroke-width="1" fill="none" fill-rule="evenodd">
        <g>
            <path d="M67.45,22.5 L12.55,22.5 C11.15,22.5 10,23.625 10,25.05 L10,52.5 C10,53.9 11.15,55.05 12.55,55.05 L34.025,55.05 C26.25,55.5 20.425,56.675 17.5,57.4 L17.5,60 C20.2,59.3 26.825,57.825 35.85,57.45 C35.3,55.9 35,54.25 35,52.525 L12.5,52.5 L12.55,25 L67.45,25 L67.5,25.05 L67.45,52.55 L65,52.55 C65,53.4 64.9,54.225 64.775,55.05 L67.45,55.05 C68.85,55.05 70,53.9 70,52.5 L70,25.05 C70,23.625 68.85,22.5 67.45,22.5 Z" id="Path" fill="#101828" fill-rule="nonzero"></path>
            <g id="Group" transform="translate(37.500000, 40.000000)" fill="#101828" fill-rule="nonzero">
                <path d="M12.5,2.525 C18,2.525 22.5,7 22.5,12.525 C22.5,18.025 18.025,22.525 12.5,22.525 C6.975,22.525 2.5,18.05 2.5,12.525 C2.5,7 7,2.525 12.5,2.525 L12.5,2.525 Z M12.5,0.025 C5.6,0.025 0,5.625 0,12.525 C0,19.425 5.6,25.025 12.5,25.025 C19.4,25.025 25,19.425 25,12.525 C25,5.6 19.4,0.025 12.5,0.025 L12.5,0.025 Z" id="Shape"></path>
                <path d="M17.15,18.475 L7.85,18.475 L5.525,10.1 L12.5,4.525 L19.475,10.1 L17.15,18.475 Z M9.75,15.975 L15.25,15.975 L16.625,11.025 L12.5,7.725 L8.375,11.025 L9.75,15.975 Z" id="Shape"></path>
                <rect id="Rectangle" x="11.25" y="0.25" width="2.5" height="5.875"></rect>
                <polygon id="Rectangle" transform="translate(6.543210, 19.427165) rotate(-44.521939) translate(-6.543210, -19.427165) " points="3.39313056 18.1771335 9.69328944 18.1771335 9.69328944 20.6771965 3.39313056 20.6771965"></polygon>
                <polygon id="Rectangle" transform="translate(18.308180, 19.438265) rotate(-43.456221) translate(-18.308180, -19.438265) " points="17.0581802 16.3882655 19.5581798 16.3882655 19.5581798 22.4882645 17.0581802 22.4882645"></polygon>
                <polygon id="Path" points="6.475 11.725 0.925 9.475 1.875 7.15 7.425 9.4"></polygon>
                <polygon id="Rectangle" transform="translate(21.027338, 9.371253) rotate(-21.801409) translate(-21.027338, -9.371253) " points="17.8272572 8.12122112 24.2274178 8.12122112 24.2274178 10.6212839 17.8272572 10.6212839"></polygon>
            </g>
            <rect id="Rectangle" x="0" y="0" width="80" height="80"></rect>
        </g>
    </g>
</svg>