<?xml version="1.0" encoding="UTF-8"?>
<svg width="32px" height="32px" viewBox="0 0 32 32" version="1.1" xmlns="http://www.w3.org/2000/svg" xmlns:xlink="http://www.w3.org/1999/xlink">
    <!-- Generator: Sketch 57.1 (83088) - https://sketch.com -->
    <title>093-B32px</title>
    <desc>Created with Sketch.</desc>
    <g id="093-B32px" stroke="none" stroke-width="1" fill="none" fill-rule="evenodd">
        <g>
            <path d="M15,26 C15.27,26 15.5,25.78 15.5,25.5 C15.5,25.22 15.27,25 15,25 C14.73,25 14.5,25.22 14.5,25.5 C14.5,25.78 14.73,26 15,26" id="Path" fill="#101828" fill-rule="nonzero"></path>
            <rect id="Rectangle" fill="#101828" fill-rule="nonzero" x="7" y="23" width="16" height="1"></rect>
            <g id="Shape_8_" transform="translate(17.000000, 10.000000)" fill="#101828" fill-rule="nonzero">
                <rect id="Rectangle" x="0.5" y="0" width="1" height="6.71"></rect>
            </g>
            <rect id="Rectangle" fill="#101828" fill-rule="nonzero" x="17" y="16.21" width="2" height="1"></rect>
            <rect id="Rectangle" fill="#101828" fill-rule="nonzero" x="17" y="9.5" width="2" height="1"></rect>
            <path d="M11.5,12 C11.78,12 12,12.22 12,12.5 C12,12.78 11.78,13 11.5,13 C11.22,13 11,12.78 11,12.5 C11,12.22 11.22,12 11.5,12 L11.5,12 Z M11.5,11 C10.67,11 10,11.67 10,12.5 C10,13.33 10.67,14 11.5,14 C12.33,14 13,13.33 13,12.5 C13,11.67 12.33,11 11.5,11 L11.5,11 Z" id="Shape" fill="#101828" fill-rule="nonzero"></path>
            <path d="M11.5,14 C11.78,14 12,14.22 12,14.5 C12,14.78 11.78,15 11.5,15 C11.22,15 11,14.78 11,14.5 C11,14.22 11.22,14 11.5,14 L11.5,14 Z M11.5,13 C10.67,13 10,13.67 10,14.5 C10,15.33 10.67,16 11.5,16 C12.33,16 13,15.33 13,14.5 C13,13.67 12.33,13 11.5,13 L11.5,13 Z" id="Shape" fill="#101828" fill-rule="nonzero"></path>
            <path d="M22,17 L22,26.95 C22,26.98 21.98,27 21.95,27 L8.05,27 C8.02,27 8,26.98 8,26.95 L8,5.05 C8,5.02 8.02,5 8.05,5 L21.95,5 C21.98,5 22,5.02 22,5.05 L22,10 L23,10 L23,5.05 C23,4.47 22.53,4 21.95,4 L8.05,4 C7.47,4 7,4.47 7,5.05 L7,26.95 C7,27.53 7.47,28 8.05,28 L21.95,28 C22.53,28 23,27.53 23,26.95 L23,17 L22,17 Z" id="Path" fill="#101828" fill-rule="nonzero"></path>
            <polygon id="Path" fill="#101828" fill-rule="nonzero" points="19.38 16 20.51 16 21.26 14.58 22 16 23.13 16 21.82 13.51 23.14 11 22.01 11 21.26 12.43 20.5 11 19.37 11 20.69 13.51"></polygon>
            <polygon id="Path" fill="#101828" fill-rule="nonzero" points="23.59 16 24.72 16 25.47 14.58 26.22 16 27.35 16 26.03 13.51 27.36 11 26.23 11 25.47 12.43 24.71 11 23.58 11 24.9 13.51"></polygon>
            <path d="M16.7,12.54 C16.7,12.52 16.71,12.5 16.71,12.48 C16.71,11.66 16.04,11 15.21,11 C14.38,11 13.71,11.66 13.71,12.48 C13.71,13.3 14.38,13.96 15.21,13.96 C15.39,13.96 15.56,13.92 15.72,13.87 L15.72,14.43 C15.72,14.53 15.69,15.02 15.2,15.02 C14.98,15.02 14.9,14.94 14.87,14.92 C14.75,14.8 14.72,14.56 14.72,14.49 L14.22,14.48 L13.72,14.47 C13.72,14.54 13.72,15.16 14.15,15.6 C14.33,15.78 14.66,16 15.19,16 C16.29,16 16.7,15.07 16.71,14.43 L16.71,12.53 L16.7,12.53 L16.7,12.54 Z M15.2,12.97 C14.92,12.97 14.7,12.75 14.7,12.48 C14.7,12.21 14.92,11.99 15.2,11.99 C15.48,11.99 15.7,12.21 15.7,12.48 C15.7,12.75 15.48,12.97 15.2,12.97 Z" id="Shape" fill="#101828" fill-rule="nonzero"></path>
            <rect id="Rectangle" x="0" y="0" width="32" height="32"></rect>
        </g>
    </g>
</svg>