<?xml version="1.0" encoding="UTF-8"?>
<svg width="80px" height="80px" viewBox="0 0 80 80" version="1.1" xmlns="http://www.w3.org/2000/svg" xmlns:xlink="http://www.w3.org/1999/xlink">
    <!-- Generator: Sketch 57.1 (83088) - https://sketch.com -->
    <title>022-B80px</title>
    <desc>Created with Sketch.</desc>
    <g id="022-B80px" stroke="none" stroke-width="1" fill="none" fill-rule="evenodd">
        <g>
            <g id="Group" transform="translate(42.500000, 55.000000)" fill="#101828" fill-rule="nonzero">
                <path d="M13.9,0 C11.15,0 8.9,2.25 8.9,5 L8.9,7.5 C8.9,10.25 11.15,12.5 13.9,12.5 C16.65,12.5 18.9,10.25 18.9,7.5 L18.9,5 C18.9,2.25 16.65,0 13.9,0 Z M16.4,7.5 C16.4,8.875 15.275,10 13.9,10 C12.525,10 11.4,8.875 11.4,7.5 L11.4,5 C11.4,3.625 12.525,2.5 13.9,2.5 C15.275,2.5 16.4,3.625 16.4,5 L16.4,7.5 Z" id="Shape"></path>
                <polygon id="Path" points="25.025 5 25.025 2.5 22.525 2.5 22.525 5 20.025 5 20.025 7.5 22.525 7.5 22.525 10 25.025 10 25.025 7.5 27.525 7.5 27.525 5"></polygon>
                <path d="M3.75,5 C3.3,5 2.9,5.1 2.5,5.225 L2.5,3.975 C2.5,3.725 2.575,2.475 3.8,2.475 C4.35,2.475 4.55,2.675 4.625,2.725 C4.925,3.025 5,3.625 5,3.8 L7.5,3.85 C7.5,3.675 7.5,2.1 6.425,0.975 C5.95,0.55 5.125,0 3.8,0 C1.05,0 0.025,2.375 0,3.975 L0,8.775 L0,8.775 C0.025,10.825 1.7,12.5 3.75,12.5 C5.825,12.5 7.5,10.825 7.5,8.75 C7.5,6.675 5.825,5 3.75,5 Z M3.75,10 C3.05,10 2.5,9.45 2.5,8.75 C2.5,8.05 3.05,7.5 3.75,7.5 C4.45,7.5 5,8.05 5,8.75 C5,9.45 4.45,10 3.75,10 Z" id="Shape"></path>
            </g>
            <path d="M40,63.8 L40,62.125 C39.175,62.25 38.35,62.375 37.5,62.425 L37.5,51.05 L56.5,51.05 C56.175,51.575 55.8,52.1 55.425,52.6 C55.75,52.55 56.05,52.5 56.4,52.5 C57.1,52.5 57.775,52.625 58.4,52.8 C60.975,48.725 62.5,43.925 62.5,38.75 C62.5,24.25 50.75,12.5 36.25,12.5 C36.25,12.5 36.225,12.5 36.225,12.5 C36.225,12.5 36.225,12.5 36.2,12.5 C36.175,12.5 36.175,12.5 36.15,12.5 C21.7,12.55 10,24.275 10,38.75 C10,53.225 21.7,64.95 36.15,65 C36.175,65 36.175,65 36.2,65 L36.2,65 C36.225,65 36.225,65 36.25,65 C37.55,65 38.85,64.875 40.1,64.675 C40.05,64.4 40,64.1 40,63.8 Z M57.85,48.55 L50.325,48.55 C50.95,45.875 51.3,43 51.4,40 L59.925,40 C59.775,43.025 59.05,45.925 57.85,48.55 Z M59.925,37.5 L51.4,37.5 C51.325,34.5 50.95,31.6 50.325,28.95 L57.85,28.95 C59.05,31.575 59.775,34.475 59.925,37.5 Z M56.525,26.45 L49.675,26.45 C48.4,22.3 46.475,18.825 44.15,16.375 C49.35,18.225 53.7,21.8 56.525,26.45 Z M37.5,15.125 C41.475,15.9 44.975,20.3 47.025,26.45 L37.5,26.45 L37.5,15.125 Z M37.5,28.95 L47.75,28.95 C48.425,31.6 48.825,34.475 48.9,37.5 L37.5,37.5 L37.5,28.95 Z M37.5,40 L48.9,40 C48.8,43.025 48.4,45.9 47.75,48.55 L37.5,48.55 L37.5,40 Z M28.225,16.425 C25.925,18.875 24.025,22.325 22.75,26.45 L15.975,26.45 C18.775,21.85 23.075,18.275 28.225,16.425 Z M14.65,28.95 L22.1,28.95 C21.45,31.6 21.1,34.5 21,37.5 L12.575,37.5 C12.725,34.475 13.45,31.575 14.65,28.95 Z M12.575,40 L21,40 C21.075,43.025 21.475,45.875 22.1,48.55 L14.725,48.55 C13.525,45.925 12.725,43.05 12.575,40 Z M16.05,51.05 L22.8,51.05 C24.075,55.15 25.925,58.625 28.225,61.075 C23.1,59.225 18.825,55.625 16.05,51.05 Z M35,62.375 C30.975,61.625 27.475,57.225 25.4,51.05 L35,51.05 L35,62.375 Z M35,48.55 L24.675,48.55 C24,45.9 23.6,43.025 23.5,40 L35,40 L35,48.55 Z M35,37.5 L23.5,37.5 C23.6,34.475 24,31.6 24.65,28.95 L35,28.95 L35,37.5 Z M35,26.45 L25.4,26.45 C27.475,20.275 31,15.875 35,15.125 L35,26.45 Z" id="Shape" fill="#101828" fill-rule="nonzero"></path>
            <rect id="Rectangle" x="0" y="0" width="80" height="80"></rect>
        </g>
    </g>
</svg>