<?xml version="1.0" encoding="UTF-8"?>
<svg width="80px" height="80px" viewBox="0 0 80 80" version="1.1" xmlns="http://www.w3.org/2000/svg" xmlns:xlink="http://www.w3.org/1999/xlink">
    <!-- Generator: Sketch 57.1 (83088) - https://sketch.com -->
    <title>230-W80px</title>
    <desc>Created with Sketch.</desc>
    <g id="NEW_icons" stroke="none" stroke-width="1" fill="none" fill-rule="evenodd">
        <g id="icons_UD_new-Copy" transform="translate(-869.000000, -29357.000000)">
            <g id="230-W80px" transform="translate(869.000000, 29357.000000)">
                <circle id="Oval-Copy-1341" fill="#101828" cx="40" cy="40" r="40"></circle>
                <g id="230-B32px-Copy-8" transform="translate(12.000000, 16.000000)">
                    <path d="M35,10.5 L35,12.25 L45.5,12.25 L45.5,15.3125 C45.5,20.3175 44.4675,27.755 42.735,31.57 C40.3725,36.8025 35.91,43.68 28,47.11 C20.09,43.68 15.6275,36.8025 13.265,31.57 C11.5325,27.755 10.5,20.3 10.5,15.3125 L10.5,12.25 L21,12.25 L21,10.5 L8.75,10.5 L8.75,15.3125 C8.75,20.055 9.7125,27.9825 11.655,32.305 C14.35,38.22 19.2675,45.5 28,49 C36.7325,45.5 41.65,38.22 44.345,32.2875 C46.2875,27.965 47.25,20.055 47.25,15.3125 L47.25,10.5 L35,10.5 Z" id="Path" fill="#FFFFFF" fill-rule="nonzero"></path>
                    <path d="M28.0175,36.785 C24.6225,36.785 21.875,34.1775 21.875,30.9575 L21.875,23.9925 L26.7225,19.425 L23.625,16.52 L23.625,7 L28,11.305 L32.375,7 L32.375,16.52 L29.2775,19.4425 L34.125,24.01 L34.125,30.9925 C34.125,34.1775 31.395,36.785 28.0175,36.785 Z M23.625,24.7625 L23.625,30.9575 C23.625,33.1975 25.6025,35.035 28.0175,35.035 C30.4325,35.035 32.3925,33.215 32.3925,30.975 L32.3925,24.7625 L28,20.6325 L23.625,24.7625 Z M25.375,15.7675 L28,18.235 L30.625,15.7675 L30.625,11.2 L28,13.7725 L25.375,11.1825 L25.375,15.7675 Z" id="Shape" fill="#FFFFFF" fill-rule="nonzero"></path>
                    <rect id="Rectangle" x="0" y="0" width="56" height="56"></rect>
                </g>
            </g>
        </g>
    </g>
</svg>