<?xml version="1.0" encoding="UTF-8"?>
<svg width="80px" height="80px" viewBox="0 0 80 80" version="1.1" xmlns="http://www.w3.org/2000/svg" xmlns:xlink="http://www.w3.org/1999/xlink">
    <!-- Generator: Sketch 57.1 (83088) - https://sketch.com -->
    <title>247-W80px</title>
    <desc>Created with Sketch.</desc>
    <g id="NEW_icons" stroke="none" stroke-width="1" fill="none" fill-rule="evenodd">
        <g id="icons_UD" transform="translate(-2146.000000, -2337.000000)">
            <g id="247-W80px" transform="translate(2146.000000, 2337.000000)">
                <circle id="Oval-Copy-1435" fill="#101828" cx="40" cy="40" r="40"></circle>
                <g id="247-B32px-Copy-8" transform="translate(12.000000, 12.000000)">
                    <path d="M47.25,8.75 L47.25,47.25 L8.75,47.25 L8.75,8.75 L47.25,8.75 L47.25,8.75 Z M47.25,7 L8.75,7 C7.7875,7 7,7.7875 7,8.75 L7,47.25 C7,48.2125 7.7875,49 8.75,49 L47.25,49 C48.2125,49 49,48.2125 49,47.25 L49,8.75 C49,7.7875 48.2125,7 47.25,7 L47.25,7 Z" id="Shape" fill="#FFFFFF" fill-rule="nonzero"></path>
                    <path d="M43.75,12.25 L43.75,43.75 L12.25,43.75 L12.25,12.25 L43.75,12.25 L43.75,12.25 Z M43.75,10.5 L12.25,10.5 C11.2875,10.5 10.5,11.2875 10.5,12.25 L10.5,43.75 C10.5,44.7125 11.2875,45.5 12.25,45.5 L43.75,45.5 C44.7125,45.5 45.5,44.7125 45.5,43.75 L45.5,12.25 C45.5,11.2875 44.7125,10.5 43.75,10.5 L43.75,10.5 Z" id="Shape" fill="#FFFFFF" fill-rule="nonzero"></path>
                    <path d="M34.125,27.125 C34.615,27.125 35,27.51 35,28 C35,28.49 34.615,28.875 34.125,28.875 C33.635,28.875 33.25,28.49 33.25,28 C33.25,27.51 33.635,27.125 34.125,27.125 L34.125,27.125 Z M34.125,25.375 C32.6725,25.375 31.5,26.5475 31.5,28 C31.5,29.4525 32.6725,30.625 34.125,30.625 C35.5775,30.625 36.75,29.4525 36.75,28 C36.75,26.5475 35.5775,25.375 34.125,25.375 L34.125,25.375 Z" id="Shape" fill="#FFFFFF" fill-rule="nonzero"></path>
                    <path d="M21.875,27.125 C22.365,27.125 22.75,27.51 22.75,28 C22.75,28.49 22.365,28.875 21.875,28.875 C21.385,28.875 21,28.49 21,28 C21,27.51 21.385,27.125 21.875,27.125 L21.875,27.125 Z M21.875,25.375 C20.4225,25.375 19.25,26.5475 19.25,28 C19.25,29.4525 20.4225,30.625 21.875,30.625 C23.3275,30.625 24.5,29.4525 24.5,28 C24.5,26.5475 23.3275,25.375 21.875,25.375 L21.875,25.375 Z" id="Shape" fill="#FFFFFF" fill-rule="nonzero"></path>
                    <path d="M28.875,42.0175 L28.875,38.5 L27.125,38.5 L27.125,42.0175 L26.1275,41.8775 C19.215,40.95 14,34.9825 14,28 C14,21.0175 19.215,15.05 26.1275,14.1225 L27.125,13.9825 L27.125,17.5 L28.875,17.5 L28.875,13.9825 L29.8725,14.1225 C36.785,15.05 42,21.0175 42,28 C42,34.9825 36.785,40.95 29.8725,41.8775 L28.875,42.0175 Z M25.375,36.75 L30.625,36.75 L30.625,39.97 C36.1725,38.7625 40.25,33.775 40.25,28 C40.25,22.225 36.1725,17.2375 30.625,16.03 L30.625,19.25 L25.375,19.25 L25.375,16.03 C19.8275,17.2375 15.75,22.225 15.75,28 C15.75,33.775 19.8275,38.7625 25.375,39.97 L25.375,36.75 Z" id="Shape" fill="#FFFFFF" fill-rule="nonzero"></path>
                    <circle id="Oval" fill="#FFFFFF" fill-rule="nonzero" cx="28" cy="28" r="1"></circle>
                    <rect id="Rectangle" x="0" y="0" width="56" height="56"></rect>
                </g>
            </g>
        </g>
    </g>
</svg>