<?xml version="1.0" encoding="UTF-8"?>
<svg width="80px" height="80px" viewBox="0 0 80 80" version="1.1" xmlns="http://www.w3.org/2000/svg" xmlns:xlink="http://www.w3.org/1999/xlink">
    <!-- Generator: Sketch 54.1 (76490) - https://sketchapp.com -->
    <title>244-W80px</title>
    <desc>Created with Sketch.</desc>
    <g id="NEW_icons" stroke="none" stroke-width="1" fill="none" fill-rule="evenodd">
        <g id="icons_UD_new-Copy" transform="translate(-869.000000, -30965.000000)">
            <g id="244-W80px" transform="translate(869.000000, 30965.000000)">
                <circle id="Oval-Copy-713" fill="#101828" cx="40" cy="40" r="40"></circle>
                <g id="244-B32px-Copy-5" transform="translate(12.000000, 12.000000)">
                    <path d="M47.25,33.25 L47.25,36.75 L40.25,36.75 L40.25,33.25 L47.25,33.25 L47.25,33.25 Z M49,31.5 L38.5,31.5 L38.5,38.5 L49,38.5 L49,31.5 L49,31.5 Z" id="Shape" fill="#FFFFFF" fill-rule="nonzero"></path>
                    <polygon id="Path" fill="#FFFFFF" fill-rule="nonzero" points="43.75 40.25 36.75 40.25 36.75 42 43.75 42"></polygon>
                    <polygon id="Path" fill="#FFFFFF" fill-rule="nonzero" points="43.75 43.75 31.5 43.75 31.5 45.5 43.75 45.5"></polygon>
                    <path d="M34.965,31.5 L34.3,31.5 L33.53,31.5 C33.0575,31.5 32.62,31.6925 32.2875,32.025 L26.74,37.6775 C26.425,38.01 26.25,38.4475 26.25,38.9025 L26.25,39.55 L26.25,40.25 L26.25,49 L49,49 L49,31.5 L34.965,31.5 Z M33.215,33.565 L33.215,38.5 L28.385,38.5 L33.215,33.565 Z M47.25,47.25 L28,47.25 L28,40.25 L33.215,40.25 C34.1775,40.25 34.965,39.4625 34.965,38.5 L34.965,33.25 L47.25,33.25 L47.25,47.25 Z" id="Shape" fill="#FFFFFF" fill-rule="nonzero"></path>
                    <path d="M25.5325,36.435 C21.175,33.67 18.0425,30.5025 17.99,30.45 C17.92,30.3625 9.7475,21.805 8.75,13.3875 C8.75,13.335 8.75,13.2475 8.8025,13.195 L13.3875,8.7675 C13.4225,8.7325 13.4575,8.715 13.51,8.715 C13.545,8.715 13.58,8.75 13.58,8.75 L20.4925,15.89 C20.545,15.9425 20.5275,16.0475 20.475,16.1 L17.4125,19.0575 L16.5725,19.88 L17.01,20.965 C17.08,21.14 18.7075,25.1125 21.035,27.51 C23.3625,29.9075 27.2825,31.675 27.4575,31.745 L28.5425,32.2175 L29.3825,31.395 L32.445,28.4375 C32.48,28.4025 32.515,28.385 32.5675,28.385 C32.62,28.385 32.655,28.42 32.655,28.42 L33.915,29.715 L36.3475,29.715 L33.915,27.195 C33.5475,26.81 33.0575,26.6175 32.5675,26.6175 C32.095,26.6175 31.605,26.7925 31.2375,27.16 L28.175,30.1175 C28.175,30.1175 24.43,28.455 22.3125,26.2675 C20.195,24.08 18.655,20.2825 18.655,20.2825 L21.7175,17.325 C22.47,16.59 22.505,15.4 21.77,14.6475 L14.84,7.5425 C14.4725,7.1575 13.9825,6.965 13.4925,6.965 C13.02,6.965 12.53,7.14 12.1625,7.5075 L7.5775,11.935 C7.14,12.3725 6.9475,12.985 7.0175,13.5975 C8.1025,22.7325 16.7475,31.6575 16.7475,31.6575 C16.7475,31.6575 19.8275,34.825 24.255,37.6775 L25.5325,36.435 Z" id="Path" fill="#FFFFFF" fill-rule="nonzero"></path>
                    <rect id="Rectangle" x="0" y="0" width="56" height="56"></rect>
                </g>
            </g>
        </g>
    </g>
</svg>