<?xml version="1.0" encoding="UTF-8"?>
<svg width="56px" height="56px" viewBox="0 0 56 56" version="1.1" xmlns="http://www.w3.org/2000/svg" xmlns:xlink="http://www.w3.org/1999/xlink">
    <!-- Generator: Sketch 57.1 (83088) - https://sketch.com -->
    <title>062-B56px</title>
    <desc>Created with Sketch.</desc>
    <g id="062-B56px" stroke="none" stroke-width="1" fill="none" fill-rule="evenodd">
        <g>
            <g id="Group" transform="translate(14.000000, 12.250000)" fill="#101828" fill-rule="nonzero">
                <path d="M8.1025,31.5 C7.6125,31.5 7.105,31.3075 6.7375,30.94 C3.3775,27.58 1.54,23.065 1.54,18.235 C1.54,8.1725 9.6775,0 19.705,0 C20.7725,0 21.63,0.875 21.63,1.9425 C21.63,3.01 20.7725,3.885 19.705,3.885 C11.8125,3.885 5.4075,10.325 5.4075,18.235 C5.4075,22.0325 6.86,25.5675 9.485,28.21 C10.2375,28.9625 10.2375,30.1875 9.485,30.9575 C9.1,31.3075 8.5925,31.5 8.1025,31.5 Z" id="Path"></path>
                <path d="M13.8075,25.095 C13.265,25.095 12.7225,24.8675 12.3375,24.4125 C10.8325,22.645 10.0275,20.475 10.0275,18.1125 C10.0275,12.67 14.455,8.225 19.88,8.225 C20.9475,8.225 21.805,9.1 21.805,10.1675 C21.805,11.235 20.9475,12.11 19.88,12.11 C16.5725,12.11 13.895,14.805 13.895,18.1125 C13.895,19.53 14.3675,20.8425 15.26,21.8925 C15.96,22.6975 15.855,23.9225 15.05,24.6225 C14.7,24.955 14.245,25.095 13.8075,25.095 Z" id="Path"></path>
                <path d="M24.535,25.585 C23.4675,25.585 22.61,24.71 22.61,23.6425 L22.61,20.44 L19.5125,20.44 C18.445,20.44 17.5875,19.565 17.5875,18.4975 C17.5875,17.43 18.445,16.555 19.5125,16.555 L24.535,16.555 C25.6025,16.555 26.46,17.43 26.46,18.4975 L26.46,23.6425 C26.46,24.7275 25.6025,25.585 24.535,25.585 Z" id="Path"></path>
            </g>
            <rect id="Rectangle" x="0" y="0" width="56" height="56"></rect>
        </g>
    </g>
</svg>