<?xml version="1.0" encoding="UTF-8"?>
<svg width="80px" height="80px" viewBox="0 0 80 80" version="1.1" xmlns="http://www.w3.org/2000/svg" xmlns:xlink="http://www.w3.org/1999/xlink">
    <!-- Generator: Sketch 57.1 (83088) - https://sketch.com -->
    <title>065-G80px</title>
    <desc>Created with Sketch.</desc>
    <g id="NEW_icons" stroke="none" stroke-width="1" fill="none" fill-rule="evenodd">
        <g id="icons_UD_new-Copy" transform="translate(-2051.000000, -8515.000000)">
            <g id="065-G80px" transform="translate(2051.000000, 8515.000000)">
                <circle id="Oval-Copy-429" fill="#E3E8EC" cx="40" cy="40" r="40"></circle>
                <g id="065-B32px-Copy-9" transform="translate(12.000000, 12.000000)">
                    <rect id="Rectangle" fill="#101828" fill-rule="nonzero" x="14" y="40.25" width="28" height="1.75"></rect>
                    <path d="M28,45.5 C28.4725,45.5 28.875,45.115 28.875,44.625 C28.875,44.135 28.4725,43.75 28,43.75 C27.5275,43.75 27.125,44.135 27.125,44.625 C27.125,45.115 27.5275,45.5 28,45.5" id="Path" fill="#101828" fill-rule="nonzero"></path>
                    <path d="M40.25,35 L40.25,47.1625 C40.25,47.215 40.215,47.25 40.1625,47.25 L15.8375,47.25 C15.785,47.25 15.75,47.215 15.75,47.1625 L15.75,24.5 L14,24.5 L14,47.1625 C14,48.1775 14.8225,49 15.8375,49 L40.1625,49 C41.1775,49 42,48.1775 42,47.1625 L42,35 L40.25,35 Z" id="Path" fill="#101828" fill-rule="nonzero"></path>
                    <path d="M15.75,8.8375 C15.75,8.785 15.785,8.75 15.8375,8.75 L40.1625,8.75 C40.215,8.75 40.25,8.785 40.25,8.8375 L40.25,21 L42,21 L42,8.8375 C42,7.8225 41.1775,7 40.1625,7 L15.8375,7 C14.8225,7 14,7.8225 14,8.8375 L14,10.5 L15.75,10.5 L15.75,8.8375 Z" id="Path" fill="#101828" fill-rule="nonzero"></path>
                    <path d="M22.96,21.945 L21.9975,21.2975 L21.56,21 L21.035,21 L10.5,21 L10.5,14 L24.5,14 L24.5,19.25 L26.25,19.25 L26.25,14 C26.25,13.0375 25.4625,12.25 24.5,12.25 L10.5,12.25 C9.5375,12.25 8.75,13.0375 8.75,14 L8.75,21 C8.75,21.9625 9.5375,22.75 10.5,22.75 L21.035,22.75 L26.25,26.25 L26.25,24.5 L26.25,24.185 L22.96,21.945 Z" id="Path" fill="#101828" fill-rule="nonzero"></path>
                    <path d="M45.5,22.75 L31.5,22.75 C30.5375,22.75 29.75,23.5375 29.75,24.5 L29.75,29.75 L31.5,29.75 L31.5,24.5 L45.5,24.5 L45.5,31.5 L34.965,31.5 L34.44,31.5 L34.0025,31.7975 L32.5325,32.7775 L29.75,34.685 L29.75,35 L29.75,36.75 L34.9825,33.25 L45.5,33.25 C46.4625,33.25 47.25,32.4625 47.25,31.5 L47.25,24.5 C47.25,23.5375 46.4625,22.75 45.5,22.75 Z" id="Path" fill="#101828" fill-rule="nonzero"></path>
                    <rect id="Rectangle" x="0" y="0" width="56" height="56"></rect>
                </g>
            </g>
        </g>
    </g>
</svg>