<?xml version="1.0" encoding="UTF-8"?>
<svg width="80px" height="80px" viewBox="0 0 80 80" version="1.1" xmlns="http://www.w3.org/2000/svg" xmlns:xlink="http://www.w3.org/1999/xlink">
    <!-- Generator: Sketch 57.1 (83088) - https://sketch.com -->
    <title>118-C80px</title>
    <desc>Created with Sketch.</desc>
    <g id="NEW_icons" stroke="none" stroke-width="1" fill="none" fill-rule="evenodd">
        <g id="icons_UD_new-Copy" transform="translate(-1002.000000, -15287.000000)">
            <g id="118-C80px" transform="translate(1002.000000, 15287.000000)">
                <circle id="Oval-Copy-726" fill="#FF4F12" cx="40" cy="40" r="40"></circle>
                <g id="118-B32px-Copy-9" transform="translate(12.000000, 12.000000)">
                    <path d="M15.75,22.7325 L15.75,33.2325 L14,33.2325 C13.055,33.2325 12.25,32.6025 12.25,31.8675 L12.25,24.0975 C12.25,23.3625 13.055,22.7325 14.0175,22.7325 L15.75,22.7325 L15.75,22.7325 Z M17.5,20.9825 L14.0175,20.9825 C12.075,20.9825 10.5,22.3825 10.5,24.0975 L10.5,31.8675 C10.5,33.5825 12.0575,34.9825 14,34.9825 L17.5,34.9825 L17.5,20.9825 L17.5,20.9825 Z" id="Shape" fill="#FFFFFF" fill-rule="nonzero"></path>
                    <path d="M32.8475,48.965 L29.2775,48.965 L29.2775,47.215 L32.8475,47.215 C37.7125,47.215 40.25,41.055 40.25,34.9825 L40.25,34.1075 L42,34.1075 L42,34.9825 C42,41.93 38.8675,48.965 32.8475,48.965 Z" id="Path" fill="#FFFFFF" fill-rule="nonzero"></path>
                    <path d="M42,21.8575 L40.25,21.8575 L40.25,20.9825 C40.25,19.11 39.6025,17.115 38.325,15.0675 C35.8575,11.06 32.0775,8.7675 28,8.7675 C23.9225,8.7675 20.16,11.06 17.675,15.05 C16.3975,17.115 15.75,19.11 15.75,20.965 L15.75,21.84 L14,21.84 L14,20.965 C14,18.76 14.735,16.4675 16.1875,14.1225 C18.9875,9.6075 23.2925,7.0175 28,7.0175 L28,7.0175 C32.7075,7.0175 37.0125,9.6075 39.83,14.14 C41.265,16.485 42,18.7775 42,20.9825 L42,21.8575 Z" id="Path" fill="#FFFFFF" fill-rule="nonzero"></path>
                    <path d="M32.8125,45.4825 C32.935,45.4825 33.25,45.78 33.25,46.3575 C33.25,46.9175 32.935,47.2325 32.8125,47.2325 L28.4375,47.215 C28.315,47.215 28,46.9175 28,46.34 C28,45.78 28.315,45.465 28.4375,45.465 L32.8125,45.465 L32.8125,45.4825 Z M32.8125,43.7325 L28.4375,43.7325 C27.23,43.7325 26.25,44.905 26.25,46.3575 C26.25,47.7925 27.23,48.965 28.4375,48.9825 L32.8125,49 C32.8125,49 32.8125,49 32.8125,49 C34.02,49 35,47.8275 35,46.375 L35,46.3575 C35,44.905 34.02,43.7325 32.8125,43.7325 L32.8125,43.7325 Z" id="Shape" fill="#FFFFFF" fill-rule="nonzero"></path>
                    <path d="M42,22.7325 C42.945,22.7325 43.75,23.3625 43.75,24.0975 L43.75,31.8675 C43.75,32.6025 42.945,33.2325 41.9825,33.2325 L40.25,33.2325 L40.25,22.7325 L42,22.7325 L42,22.7325 Z M42,20.9825 L38.5,20.9825 L38.5,34.9825 L41.9825,34.9825 C43.925,34.9825 45.5,33.5825 45.5,31.8675 L45.5,24.0975 C45.5,22.3825 43.9425,20.9825 42,20.9825 L42,20.9825 Z" id="Shape" fill="#FFFFFF" fill-rule="nonzero"></path>
                    <rect id="Rectangle" x="0" y="0" width="56" height="56"></rect>
                </g>
            </g>
        </g>
    </g>
</svg>