<?xml version="1.0" encoding="UTF-8"?>
<svg width="40px" height="40px" viewBox="0 0 40 40" version="1.1" xmlns="http://www.w3.org/2000/svg" xmlns:xlink="http://www.w3.org/1999/xlink">
    <!-- Generator: Sketch 57.1 (83088) - https://sketch.com -->
    <title>238-B40px</title>
    <desc>Created with Sketch.</desc>
    <g id="238-B40px" stroke="none" stroke-width="1" fill="none" fill-rule="evenodd">
        <g>
            <path d="M16.875,10.0125 C22.7375,10.0125 27.5,14.775 27.5,20.6375 C27.5,26.5 22.725,31.25 16.875,31.25 C11.0125,31.25 6.25,26.4875 6.25,20.625 C6.25,14.7625 11.0125,10.0125 16.875,10.0125 L16.875,10.0125 Z M16.875,8.7625 C10.3125,8.7625 5,14.075 5,20.6375 C5,27.2 10.3125,32.5 16.875,32.5 C23.4375,32.5 28.75,27.1875 28.75,20.625 C28.75,14.0625 23.425,8.7625 16.875,8.7625 L16.875,8.7625 Z" id="Shape" fill="#101828" fill-rule="nonzero"></path>
            <path d="M31.875,8.75 C32.9125,8.75 33.75,9.5875 33.75,10.625 C33.75,11.6625 32.9125,12.5 31.875,12.5 C30.8375,12.5 30,11.6625 30,10.625 C30,9.5875 30.8375,8.75 31.875,8.75 L31.875,8.75 Z M31.875,7.5 C30.15,7.5 28.75,8.9 28.75,10.625 C28.75,12.35 30.15,13.75 31.875,13.75 C33.6,13.75 35,12.35 35,10.625 C35,8.9 33.6,7.5 31.875,7.5 L31.875,7.5 Z" id="Shape" fill="#101828" fill-rule="nonzero"></path>
            <rect id="Rectangle" x="0" y="0" width="40" height="40"></rect>
        </g>
    </g>
</svg>