<?xml version="1.0" encoding="UTF-8"?>
<svg width="80px" height="80px" viewBox="0 0 80 80" version="1.1" xmlns="http://www.w3.org/2000/svg" xmlns:xlink="http://www.w3.org/1999/xlink">
    <!-- Generator: Sketch 57.1 (83088) - https://sketch.com -->
    <title>089-G80px</title>
    <desc>Created with Sketch.</desc>
    <g id="NEW_icons" stroke="none" stroke-width="1" fill="none" fill-rule="evenodd">
        <g id="icons_UD_new-Copy" transform="translate(-2051.000000, -11515.000000)">
            <g id="089-G80px" transform="translate(2051.000000, 11515.000000)">
                <circle id="Oval-Copy-561" fill="#E3E8EC" cx="40" cy="40" r="40"></circle>
                <g id="089-B32px-Copy-6" transform="translate(12.000000, 12.000000)">
                    <path d="M40.1625,8.75 C40.215,8.75 40.25,8.785 40.25,8.8375 L40.25,47.1625 C40.25,47.215 40.215,47.25 40.1625,47.25 L15.8375,47.25 C15.785,47.25 15.75,47.215 15.75,47.1625 L15.75,8.8375 C15.75,8.785 15.785,8.75 15.8375,8.75 L40.1625,8.75 L40.1625,8.75 Z M40.1625,7 L15.8375,7 C14.8225,7 14,7.8225 14,8.8375 L14,47.1625 C14,48.1775 14.8225,49 15.8375,49 L40.1625,49 C41.1775,49 42,48.1775 42,47.1625 L42,8.8375 C42,7.8225 41.1775,7 40.1625,7 L40.1625,7 Z" id="Shape" fill="#101828" fill-rule="nonzero"></path>
                    <path d="M28,45.5 C28.4725,45.5 28.875,45.115 28.875,44.625 C28.875,44.135 28.4725,43.75 28,43.75 C27.5275,43.75 27.125,44.135 27.125,44.625 C27.125,45.115 27.5275,45.5 28,45.5" id="Path" fill="#101828" fill-rule="nonzero"></path>
                    <rect id="Rectangle" fill="#101828" fill-rule="nonzero" x="14" y="40.25" width="28" height="1.75"></rect>
                    <path d="M28,19.25 C28.9625,19.25 29.75,20.0375 29.75,21 C29.75,21.9625 28.9625,22.75 28,22.75 C27.0375,22.75 26.25,21.9625 26.25,21 C26.25,20.0375 27.0375,19.25 28,19.25 L28,19.25 Z M28,17.5 C26.075,17.5 24.5,19.075 24.5,21 C24.5,22.925 26.075,24.5 28,24.5 C29.925,24.5 31.5,22.925 31.5,21 C31.5,19.075 29.925,17.5 28,17.5 L28,17.5 Z" id="Shape" fill="#101828" fill-rule="nonzero"></path>
                    <path d="M24.5,31.5 L24.5,29.75 C24.5,28.7875 25.2875,28 26.25,28 L29.75,28 C30.7125,28 31.5,28.7875 31.5,29.75 L31.5,31.5 L33.25,31.5 L33.25,29.75 C33.25,27.825 31.675,26.25 29.75,26.25 L26.25,26.25 C24.325,26.25 22.75,27.825 22.75,29.75 L22.75,31.5 L24.5,31.5 Z" id="Path" fill="#101828" fill-rule="nonzero"></path>
                    <rect id="Rectangle" x="0" y="0" width="56" height="56"></rect>
                </g>
            </g>
        </g>
    </g>
</svg>