<?xml version="1.0" encoding="UTF-8"?>
<svg width="80px" height="80px" viewBox="0 0 80 80" version="1.1" xmlns="http://www.w3.org/2000/svg" xmlns:xlink="http://www.w3.org/1999/xlink">
    <!-- Generator: Sketch 57.1 (83088) - https://sketch.com -->
    <title>111-B80px</title>
    <desc>Created with Sketch.</desc>
    <g id="111-B80px" stroke="none" stroke-width="1" fill="none" fill-rule="evenodd">
        <g>
            <g id="Group" transform="translate(10.000000, 12.500000)" fill="#101828" fill-rule="nonzero">
                <path d="M42.5,35.75 L45.275,37.5 L42.5,39.25 L42.5,35.75 L42.5,35.75 Z M40,31.25 L40,43.75 L50,37.5 L40,31.25 L40,31.25 Z" id="Shape"></path>
                <rect id="Rectangle" x="25" y="36.25" width="15" height="2.5"></rect>
                <path d="M57.5,7.5 L57.55,50 L2.5,50.05 L2.55,7.5 L57.5,7.5 L57.5,7.5 Z M57.525,5 L2.55,5 C1.15,5 0,6.15 0,7.55 L0,50.075 C0,51.4 1.1,52.5 2.45,52.5 L57.55,52.5 C58.9,52.5 60,51.4 60,50.05 L60,7.475 C60,6.1 58.9,5 57.525,5 L57.525,5 Z" id="Shape"></path>
                <rect id="Rectangle" x="47.5" y="0" width="2.5" height="12.5"></rect>
                <rect id="Rectangle" x="40" y="0" width="2.5" height="12.5"></rect>
                <rect id="Rectangle" x="32.5" y="0" width="2.5" height="12.5"></rect>
                <rect id="Rectangle" x="25" y="0" width="2.5" height="12.5"></rect>
                <rect id="Rectangle" x="17.5" y="0" width="2.5" height="12.5"></rect>
                <rect id="Rectangle" x="10" y="0" width="2.5" height="12.5"></rect>
                <path d="M47.5,20 L47.5,25 L42.5,25 L42.5,20 L47.5,20 L47.5,20 Z M50,17.5 L40,17.5 L40,27.5 L50,27.5 L50,17.5 L50,17.5 Z" id="Shape"></path>
                <path d="M32.5,20 L32.5,25 L27.5,25 L27.5,20 L32.5,20 L32.5,20 Z M35,17.5 L25,17.5 L25,27.5 L35,27.5 L35,17.5 L35,17.5 Z" id="Shape"></path>
                <path d="M17.5,35 L17.5,40 L12.5,40 L12.5,35 L17.5,35 L17.5,35 Z M20,32.5 L10,32.5 L10,42.5 L20,42.5 L20,32.5 L20,32.5 Z" id="Shape"></path>
                <path d="M17.5,20 L17.5,25 L12.5,25 L12.5,20 L17.5,20 L17.5,20 Z M20,17.5 L10,17.5 L10,27.5 L20,27.5 L20,17.5 L20,17.5 Z" id="Shape"></path>
            </g>
            <rect id="Rectangle" x="0" y="0" width="80" height="80"></rect>
        </g>
    </g>
</svg>