<?xml version="1.0" encoding="UTF-8"?>
<svg width="80px" height="80px" viewBox="0 0 80 80" version="1.1" xmlns="http://www.w3.org/2000/svg" xmlns:xlink="http://www.w3.org/1999/xlink">
    <!-- Generator: Sketch 54.1 (76490) - https://sketchapp.com -->
    <title>052-G80px</title>
    <desc>Created with Sketch.</desc>
    <g id="NEW_icons" stroke="none" stroke-width="1" fill="none" fill-rule="evenodd">
        <g id="icons_UD_new-Copy" transform="translate(-768.000000, -6853.000000)">
            <g id="052-G80px" transform="translate(768.000000, 6853.000000)">
                <circle id="Oval-Copy-368" fill="#E3E8EC" cx="40" cy="40" r="40"></circle>
                <g id="052-B32px-Copy-7" transform="translate(12.000000, 15.000000)">
                    <path d="M47.25,8.75 L47.25,12.25 C47.25,17.7275 46.1125,25.8825 44.2225,30.065 C41.615,35.805 36.715,43.365 28,47.11 C19.285,43.365 14.3675,35.805 11.7775,30.065 C9.8875,25.8825 8.75,17.71 8.75,12.25 L8.75,8.75 L47.25,8.75 L47.25,8.75 Z M49,7 L7,7 L7,12.25 C7,17.43 8.05,26.0575 10.185,30.7825 C13.1075,37.24 18.48,45.185 28,49 C37.52,45.185 42.8925,37.24 45.815,30.7825 C47.95,26.0575 49,17.43 49,12.25 L49,7 L49,7 Z" id="Shape" fill="#101828" fill-rule="nonzero"></path>
                    <polygon id="Path" fill="#101828" fill-rule="nonzero" points="25.7775 32.2525 17.7275 23.485 19.0225 22.295 25.7775 29.6625 36.9775 17.4475 38.2725 18.6375"></polygon>
                    <rect id="Rectangle" x="0" y="0" width="56" height="56"></rect>
                </g>
            </g>
        </g>
    </g>
</svg>