<?xml version="1.0" encoding="UTF-8"?>
<svg width="80px" height="80px" viewBox="0 0 80 80" version="1.1" xmlns="http://www.w3.org/2000/svg" xmlns:xlink="http://www.w3.org/1999/xlink">
    <!-- Generator: Sketch 57.1 (83088) - https://sketch.com -->
    <title>223-W80px</title>
    <desc>Created with Sketch.</desc>
    <g id="NEW_icons" stroke="none" stroke-width="1" fill="none" fill-rule="evenodd">
        <g id="icons_UD_new-Copy" transform="translate(-2151.000000, -28349.000000)">
            <g id="223-W80px" transform="translate(2151.000000, 28349.000000)">
                <circle id="Oval-Copy-1412" fill="#101828" cx="40" cy="40" r="40"></circle>
                <g id="223-B32px-Copy-8" transform="translate(12.000000, 12.000000)">
                    <rect id="Rectangle" fill="#FFFFFF" fill-rule="nonzero" x="8.75" y="31.5" width="38.5" height="1.75"></rect>
                    <rect id="Rectangle" fill="#FFFFFF" fill-rule="nonzero" x="29.75" y="38.5" width="1.75" height="5.25"></rect>
                    <rect id="Rectangle" fill="#FFFFFF" fill-rule="nonzero" x="24.5" y="38.5" width="1.75" height="5.25"></rect>
                    <rect id="Rectangle" fill="#FFFFFF" fill-rule="nonzero" x="21.035" y="42" width="13.965" height="1.75"></rect>
                    <path d="M28,35.8575 C28.4725,35.8575 28.875,35.4725 28.875,34.9825 C28.875,34.4925 28.49,34.1075 28,34.1075 C27.5275,34.1075 27.125,34.4925 27.125,34.9825 C27.125,35.4725 27.5275,35.8575 28,35.8575" id="Path" fill="#FFFFFF" fill-rule="nonzero"></path>
                    <path d="M47.2675,12.25 L37.625,12.25 L38.5175,14 L47.25,14 L47.2675,36.75 L8.75,36.7675 L8.7325,14 L19.25,14 L19.25,12.25 L8.7325,12.25 C7.7875,12.25 7,13.0375 7,13.9825 L7,36.75 C7,37.73 7.7875,38.5 8.7325,38.5 L47.25,38.5 C48.2125,38.5 48.9827862,37.7125 48.9827862,36.7675 L48.9827862,13.9825 C49,13.0375 48.2125,12.25 47.2675,12.25 Z" id="Path" fill="#FFFFFF" fill-rule="nonzero"></path>
                    <path d="M23.1175,19.25 L21.8925,21.1925 L20.6675,19.25 L23.1175,19.25 L23.1175,19.25 Z M26.2675,17.5 L17.5175,17.5 L21.8925,24.5 L26.2675,17.5 L26.2675,17.5 Z" id="Shape" fill="#FFFFFF" fill-rule="nonzero"></path>
                    <path d="M34.1425,13.8075 L35.3675,15.75 L32.935,15.75 L34.1425,13.8075 L34.1425,13.8075 Z M34.1425,10.5 L29.7675,17.5 L38.5175,17.5 L34.1425,10.5 L34.1425,10.5 Z" id="Shape" fill="#FFFFFF" fill-rule="nonzero"></path>
                    <rect id="Rectangle" fill="#FFFFFF" fill-rule="nonzero" x="33.2675" y="17.5" width="1.75" height="7"></rect>
                    <rect id="Rectangle" fill="#FFFFFF" fill-rule="nonzero" x="21.0175" y="10.5" width="1.75" height="7"></rect>
                    <polygon id="Path" fill="#FFFFFF" fill-rule="nonzero" points="29.7675 14 24.5 14 24.5 12.2325 30.975 12.2325"></polygon>
                    <rect id="Rectangle" x="0" y="0" width="56" height="56"></rect>
                </g>
            </g>
        </g>
    </g>
</svg>