<?xml version="1.0" encoding="UTF-8"?>
<svg width="32px" height="32px" viewBox="0 0 32 32" version="1.1" xmlns="http://www.w3.org/2000/svg" xmlns:xlink="http://www.w3.org/1999/xlink">
    <!-- Generator: Sketch 57.1 (83088) - https://sketch.com -->
    <title>056-B32px</title>
    <desc>Created with Sketch.</desc>
    <g id="056-B32px" stroke="none" stroke-width="1" fill="none" fill-rule="evenodd">
        <g>
            <path d="M18,17.82 L18,9 L13,9 L13,19 L11,19 L11,13 L6,13 L6,19 L4,19 L4,20 L6,20 L11,20 L13,20 L16.5,20 C16.85,19.17 17.36,18.43 18,17.82 Z M10,19 L7,19 L7,14 L10,14 L10,19 Z M14,10 L17,10 L17,19 L14,19 L14,10 Z" id="Shape" fill="#101828" fill-rule="nonzero"></path>
            <polygon id="Path" fill="#101828" fill-rule="nonzero" points="21 15 21 5 24 5 24 15 25 15 25 4 20 4 20 15"></polygon>
            <path d="M22.5,18 C24.98,18 27,20.02 27,22.5 C27,24.98 24.98,27 22.5,27 C20.02,27 18,24.98 18,22.5 C18,20.02 20.02,18 22.5,18 L22.5,18 Z M22.5,17 C19.46,17 17,19.46 17,22.5 C17,25.54 19.46,28 22.5,28 C25.54,28 28,25.54 28,22.5 C28,19.46 25.54,17 22.5,17 L22.5,17 Z" id="Shape" fill="#101828" fill-rule="nonzero"></path>
            <path d="M20.5,22 C20.22,22 20,22.22 20,22.5 C20,22.78 20.22,23 20.5,23 C20.78,23 21,22.78 21,22.5 C21,22.22 20.78,22 20.5,22 L20.5,22 Z" id="Path" fill="#101828" fill-rule="nonzero"></path>
            <path d="M24.5,22 C24.22,22 24,22.22 24,22.5 C24,22.78 24.22,23 24.5,23 C24.78,23 25,22.78 25,22.5 C25,22.22 24.78,22 24.5,22 L24.5,22 Z" id="Path" fill="#101828" fill-rule="nonzero"></path>
            <path d="M20.1,25.12 C21.49,26.29 23.52,26.29 24.9,25.12 L24.3,24.32 C23.27,25.23 21.72,25.22 20.69,24.32 L20.1,25.12 Z" id="Path" fill="#101828" fill-rule="nonzero"></path>
            <path d="M23,18 L22,18 C22,17.14 22.52,15.5 24.5,15.5 L24.5,16.5 C23.09,16.5 23,17.75 23,18 Z" id="Path" fill="#101828" fill-rule="nonzero"></path>
            <path d="M22,18 C22,17.75 21.91,16.5 20.5,16.5 L20.5,15.5 C22.48,15.5 23,17.14 23,18 L22,18 L22.5,18 L22,18 Z" id="Path" fill="#101828" fill-rule="nonzero"></path>
            <polygon id="Path" fill="#101828" fill-rule="nonzero" points="27 21 22.29 21 21.5 20.21 20.71 21 18 21 18 20 20.29 20 21.5 18.79 22.71 20 27 20"></polygon>
            <rect id="Rectangle" x="0" y="0" width="32" height="32"></rect>
        </g>
    </g>
</svg>