<?xml version="1.0" encoding="UTF-8"?>
<svg width="80px" height="80px" viewBox="0 0 80 80" version="1.1" xmlns="http://www.w3.org/2000/svg" xmlns:xlink="http://www.w3.org/1999/xlink">
    <!-- Generator: Sketch 57.1 (83088) - https://sketch.com -->
    <title>075-G80px</title>
    <desc>Created with Sketch.</desc>
    <g id="NEW_icons" stroke="none" stroke-width="1" fill="none" fill-rule="evenodd">
        <g id="icons_UD_new-Copy" transform="translate(-2051.000000, -9763.000000)">
            <g id="075-G80px" transform="translate(2051.000000, 9763.000000)">
                <circle id="Oval-Copy-488" fill="#E3E8EC" cx="40" cy="40" r="40"></circle>
                <g id="075-B32px-Copy-7" transform="translate(12.000000, 12.000000)">
                    <path d="M39.2509091,8.73939394 C39.3018182,8.73939394 39.3357576,8.77333333 39.3357576,8.82424242 L39.0812121,45.9878788 C39.0812121,46.0387879 39.0472727,46.0727273 38.9963636,46.0727273 L15.4084848,45.92 C15.3575758,45.92 15.3236364,45.8860606 15.3236364,45.8351515 L15.5781818,8.67151515 C15.5781818,8.62060606 15.6121212,8.58666667 15.6630303,8.58666667 L39.2509091,8.73939394 L39.2509091,8.73939394 Z M39.2678788,7.04242424 L15.68,6.88969697 C14.6957576,6.88969697 13.8812121,7.67030303 13.8812121,8.65454545 L13.6266667,45.8181818 C13.6266667,46.8024242 14.4072727,47.6169697 15.3915152,47.6169697 L38.9793939,47.769697 C39.9636364,47.769697 40.7781818,46.9890909 40.7781818,46.0048485 L41.0327273,8.84121212 C41.0327273,7.8569697 40.2521212,7.05939394 39.2678788,7.04242424 L39.2678788,7.04242424 Z" id="Shape" fill="#101828" fill-rule="nonzero"></path>
                    <path d="M27.2193939,44.2909091 C27.6775758,44.2909091 28.0678788,43.9175758 28.0678788,43.4593939 C28.0678788,43.0012121 27.6945455,42.6109091 27.2363636,42.6109091 C26.7781818,42.6109091 26.3878788,42.9842424 26.3878788,43.4424242 C26.3709091,43.9175758 26.7612121,44.2909091 27.2193939,44.2909091" id="Path" fill="#101828" fill-rule="nonzero"></path>
                    <polygon id="Rectangle" fill="#101828" fill-rule="nonzero" transform="translate(27.253949, 40.053786) rotate(-89.615550) translate(-27.253949, -40.053786) " points="26.4054454 26.4777225 28.1024533 26.4777225 28.1024533 53.6298488 26.4054454 53.6298488"></polygon>
                    <path d="M27.4060606,15.4593939 C32.089697,15.4933333 35.8569697,19.3284848 35.8400571,23.9951515 C35.8230303,28.6618182 31.9709091,32.4460606 27.3042424,32.4291478 C22.6206061,32.3951515 18.8533333,28.56 18.8702459,23.8933333 C18.8872727,19.2266667 22.7393939,15.4254545 27.4060606,15.4593939 L27.4060606,15.4593939 Z M27.4230303,13.7622348 C21.8060606,13.7284848 17.2072727,18.2593939 17.1731439,23.8763636 C17.1393939,29.4933333 21.670303,34.0921212 27.2872727,34.12625 C32.9042424,34.16 37.5030303,29.6290909 37.5371591,24.0121212 C37.5709091,18.3951515 33.04,13.7963636 27.4230303,13.7622348 L27.4230303,13.7622348 Z" id="Shape" fill="#101828" fill-rule="nonzero"></path>
                    <path d="M27.3890909,15.4593318 C29.3745455,15.4763636 31.5806061,18.9721212 31.5466667,23.9781818 C31.5127273,28.9842424 29.2727273,32.4460606 27.270303,32.429153 C25.2848485,32.4121212 23.0787879,28.9163636 23.1127273,23.910303 C23.1466667,18.9042424 25.4036364,15.4424242 27.3890909,15.4593318 L27.3890909,15.4593318 Z M27.4060606,13.7623767 C24.1478788,13.7454545 21.4666667,18.2763636 21.4327273,23.910303 C21.3987879,29.5442424 24.0121212,34.1090909 27.270303,34.1261081 C30.5284848,34.1430303 33.209697,29.6121212 33.2436364,23.9781818 C33.2775758,18.3442424 30.6642424,13.7793939 27.4060606,13.7623767 L27.4060606,13.7623767 Z" id="Shape" fill="#101828" fill-rule="nonzero"></path>
                    <polygon id="Rectangle" fill="#101828" fill-rule="nonzero" transform="translate(27.330429, 28.231672) rotate(-89.615550) translate(-27.330429, -28.231672) " points="26.4819251 19.6532975 28.178933 19.6532975 28.178933 36.8100474 26.4819251 36.8100474"></polygon>
                    <polygon id="Rectangle" fill="#101828" fill-rule="nonzero" transform="translate(27.392315, 19.647067) rotate(-89.615550) translate(-27.392315, -19.647067) " points="26.5438109 11.0686916 28.2408188 11.0686916 28.2408188 28.2254415 26.5438109 28.2254415"></polygon>
                    <polygon id="Rectangle" fill="#101828" fill-rule="nonzero" transform="translate(27.353396, 23.939737) rotate(-89.615550) translate(-27.353396, -23.939737) " points="26.5048922 14.2922469 28.2019001 14.2922469 28.2019001 33.5872267 26.5048922 33.5872267"></polygon>
                    <polygon id="Rectangle" fill="#101828" fill-rule="nonzero" transform="translate(27.352435, 24.241189) rotate(-89.615550) translate(-27.352435, -24.241189) " points="18.553449 23.3926849 36.1514209 23.3926849 36.1514209 25.0896927 18.553449 25.0896927"></polygon>
                    <polygon id="Rectangle" transform="translate(27.338693, 27.338858) rotate(0.384450) translate(-27.338693, -27.338858) " points="0.186567064 0.18673168 54.4908198 0.18673168 54.4908198 54.4909845 0.186567064 54.4909845"></polygon>
                </g>
            </g>
        </g>
    </g>
</svg>