<?xml version="1.0" encoding="UTF-8"?>
<svg width="56px" height="56px" viewBox="0 0 56 56" version="1.1" xmlns="http://www.w3.org/2000/svg" xmlns:xlink="http://www.w3.org/1999/xlink">
    <!-- Generator: Sketch 57.1 (83088) - https://sketch.com -->
    <title>136-G56px</title>
    <desc>Created with Sketch.</desc>
    <g id="NEW_icons" stroke="none" stroke-width="1" fill="none" fill-rule="evenodd">
        <g id="icons_UD_new-Copy" transform="translate(-446.000000, -17571.000000)">
            <g id="136-G56px" transform="translate(446.000000, 17571.000000)">
                <circle id="Oval-Copy-880" fill="#E3E8EC" cx="28" cy="28" r="28"></circle>
                <g id="136-B32px-Copy-3" transform="translate(8.000000, 8.000000)">
                    <path d="M27.5,10 L27.5,33.75 L13.75,33.75 L13.75,10 L27.5,10 L27.5,10 Z M27.5,8.75 L13.75,8.75 C13.0625,8.75 12.5,9.3125 12.5,10 L12.5,33.75 C12.5,34.4375 13.0625,35 13.75,35 L27.5,35 C28.1875,35 28.75,34.4375 28.75,33.75 L28.75,10 C28.75,9.3125 28.1875,8.75 27.5,8.75 L27.5,8.75 Z" id="Shape" fill="#101828" fill-rule="nonzero"></path>
                    <path d="M25,6.25 L25,8.75 L16.3125,8.75 L16.3125,6.25 L25,6.25 L25,6.25 Z M25,5 L16.3125,5 C15.625,5 15.0625,5.5625 15.0625,6.25 L15.0625,8.75 C15.0625,9.4375 15.625,10 16.3125,10 L25,10 C25.6875,10 26.25,9.4375 26.25,8.75 L26.25,6.25 C26.25,5.5625 25.6875,5 25,5 L25,5 Z" id="Shape" fill="#101828" fill-rule="nonzero"></path>
                    <path d="M24.65,20 C24.7875,20 25,20.1125 25,20.375 L25,30.8875 C25,31.0875 24.8375,31.2625 24.6375,31.2625 L16.6,31.2625 C16.4125,31.25 16.25,31.0875 16.25,30.875 L16.25,23.8375 C16.25,23.6875 16.3375,23.55 16.475,23.5 L24.5125,20.025 C24.55,20.0125 24.6,20 24.65,20 L24.65,20 Z M24.6375,18.75 C24.425,18.75 24.2125,18.7875 24,18.8875 L15.9625,22.3625 C15.375,22.6125 14.9875,23.2 14.9875,23.85 L14.9875,30.8875 C14.9875,31.7875 15.7125,32.5125 16.6,32.5125 L24.6375,32.5125 C25.525,32.5125 26.25,31.7875 26.25,30.8875 L26.25,20.375 C26.25,19.4375 25.4875,18.75 24.6375,18.75 L24.6375,18.75 Z" id="Shape" fill="#101828" fill-rule="nonzero"></path>
                    <rect id="Rectangle" x="0" y="0" width="40" height="40"></rect>
                </g>
            </g>
        </g>
    </g>
</svg>