<?xml version="1.0" encoding="UTF-8"?>
<svg width="40px" height="40px" viewBox="0 0 40 40" version="1.1" xmlns="http://www.w3.org/2000/svg" xmlns:xlink="http://www.w3.org/1999/xlink">
    <!-- Generator: Sketch 57.1 (83088) - https://sketch.com -->
    <title>081-B40px</title>
    <desc>Created with Sketch.</desc>
    <g id="081-B40px" stroke="none" stroke-width="1" fill="none" fill-rule="evenodd">
        <g>
            <path d="M17.5,32.5 C17.8375,32.5 18.125,32.225 18.125,31.875 C18.125,31.525 17.8375,31.25 17.5,31.25 C17.1625,31.25 16.875,31.525 16.875,31.875 C16.875,32.225 17.1625,32.5 17.5,32.5" id="Path" fill="#101828" fill-rule="nonzero"></path>
            <path d="M26.25,32.275 L26.25,33.6875 C26.25,33.725 26.225,33.75 26.1875,33.75 L8.8125,33.75 C8.775,33.75 8.75,33.725 8.75,33.6875 L8.75,6.3125 C8.75,6.275 8.775,6.25 8.8125,6.25 L26.1875,6.25 C26.225,6.25 26.25,6.275 26.25,6.3125 L26.25,16.475 C26.65,16.375 27.075,16.3125 27.5,16.275 L27.5,6.3125 C27.5,5.5875 26.9125,5 26.1875,5 L8.8125,5 C8.0875,5 7.5,5.5875 7.5,6.3125 L7.5,33.6875 C7.5,34.4125 8.0875,35 8.8125,35 L26.1875,35 C26.9125,35 27.5,34.4125 27.5,33.6875 L27.5,32.475 C27.075,32.4375 26.65,32.375 26.25,32.275 Z" id="Path" fill="#101828" fill-rule="nonzero"></path>
            <path d="M21.2875,28.75 L7.5,28.75 L7.5,30 L22.275,30 C21.9,29.6125 21.575,29.2 21.2875,28.75 Z" id="Path" fill="#101828" fill-rule="nonzero"></path>
            <path d="M28.125,18.75 C31.225,18.75 33.75,21.275 33.75,24.375 C33.75,27.475 31.225,30 28.125,30 C25.025,30 22.5,27.475 22.5,24.375 C22.5,21.275 25.025,18.75 28.125,18.75 L28.125,18.75 Z M28.125,17.5 C24.325,17.5 21.25,20.575 21.25,24.375 C21.25,28.175 24.325,31.25 28.125,31.25 C31.925,31.25 35,28.175 35,24.375 C35,20.575 31.925,17.5 28.125,17.5 L28.125,17.5 Z" id="Shape" fill="#101828" fill-rule="nonzero"></path>
            <g id="Group" transform="translate(23.750000, 18.750000)" fill="#101828" fill-rule="nonzero">
                <path d="M2.7125,5.0125 L1.45,3.7 C1.3125,3.5625 1.1,3.5625 0.9625,3.7 L0.125,4.5125 C0.0375,4.5875 0.0125,4.7 0.025,4.8125 C0.225,6.4875 1.8125,8.125 1.8125,8.125 C1.8125,8.125 3.3875,9.75 5.075,10.025 C5.1875,10.0375 5.2875,10 5.375,9.925 L6.2125,9.1125 C6.35,8.975 6.35,8.7625 6.225,8.625 L4.9625,7.3125 C4.825,7.175 4.6125,7.175 4.475,7.3125 L3.9125,7.85 C3.9125,7.85 3.225,7.55 2.8375,7.15 C2.45,6.75 2.1625,6.05 2.1625,6.05 L2.725,5.5125 C2.8375,5.3625 2.85,5.15 2.7125,5.0125 Z" id="Path"></path>
                <path d="M8.7375,5.65 C8.425,3.4 6.5625,1.5375 4.325,1.225 L4.2125,2.4375 C5.9125,2.6375 7.325,4.0625 7.525,5.7625 L8.7375,5.65 Z" id="Path"></path>
                <path d="M6.425,5.85 C6.2,4.7125 5.2625,3.7625 4.1125,3.5375 L4,4.7625 C4.5875,4.8875 5.0625,5.3625 5.1875,5.9625 L6.425,5.85 Z" id="Path"></path>
            </g>
            <rect id="Rectangle" x="0" y="0" width="40" height="40"></rect>
        </g>
    </g>
</svg>