<?xml version="1.0" encoding="UTF-8"?>
<svg width="80px" height="80px" viewBox="0 0 80 80" version="1.1" xmlns="http://www.w3.org/2000/svg" xmlns:xlink="http://www.w3.org/1999/xlink">
    <!-- Generator: Sketch 57.1 (83088) - https://sketch.com -->
    <title>215-G80px</title>
    <desc>Created with Sketch.</desc>
    <g id="NEW_icons" stroke="none" stroke-width="1" fill="none" fill-rule="evenodd">
        <g id="icons_UD_new-Copy" transform="translate(-2050.000000, -27345.000000)">
            <g id="215-G80px" transform="translate(2050.000000, 27345.000000)">
                <circle id="Oval-Copy-1387" fill="#E3E8EC" cx="40" cy="40" r="40"></circle>
                <g id="215-B32px-Copy-6" transform="translate(12.000000, 12.000000)">
                    <path d="M21,24.5 C21.9625,24.5 22.75,25.2875 22.75,26.25 C22.75,27.2125 21.9625,28 21,28 C20.0375,28 19.25,27.2125 19.25,26.25 C19.25,25.2875 20.0375,24.5 21,24.5 L21,24.5 Z M21,22.75 C19.075,22.75 17.5,24.325 17.5,26.25 C17.5,28.175 19.075,29.75 21,29.75 C22.925,29.75 24.5,28.175 24.5,26.25 C24.5,24.325 22.925,22.75 21,22.75 L21,22.75 Z" id="Shape" fill="#101828" fill-rule="nonzero"></path>
                    <path d="M17.5,36.75 L17.5,35 C17.5,34.0375 18.2875,33.25 19.25,33.25 L22.75,33.25 C23.7125,33.25 24.5,34.0375 24.5,35 L24.5,36.75 L26.25,36.75 L26.25,35 C26.25,33.075 24.675,31.5 22.75,31.5 L19.25,31.5 C17.325,31.5 15.75,33.075 15.75,35 L15.75,36.75 L17.5,36.75 Z" id="Path" fill="#101828" fill-rule="nonzero"></path>
                    <path d="M35,24.5 C35.9625,24.5 36.75,25.2875 36.75,26.25 C36.75,27.2125 35.9625,28 35,28 C34.0375,28 33.25,27.2125 33.25,26.25 C33.25,25.2875 34.0375,24.5 35,24.5 L35,24.5 Z M35,22.75 C33.075,22.75 31.5,24.325 31.5,26.25 C31.5,28.175 33.075,29.75 35,29.75 C36.925,29.75 38.5,28.175 38.5,26.25 C38.5,24.325 36.925,22.75 35,22.75 L35,22.75 Z" id="Shape" fill="#101828" fill-rule="nonzero"></path>
                    <path d="M31.5,36.75 L31.5,35 C31.5,34.0375 32.2875,33.25 33.25,33.25 L36.75,33.25 C37.7125,33.25 38.5,34.0375 38.5,35 L38.5,36.75 L40.25,36.75 L40.25,35 C40.25,33.075 38.675,31.5 36.75,31.5 L33.25,31.5 C31.325,31.5 29.75,33.075 29.75,35 L29.75,36.75 L31.5,36.75 Z" id="Path" fill="#101828" fill-rule="nonzero"></path>
                    <path d="M31.85,14 L31.9025,14.0175 L36.4175,18.3575 C37.03,18.935 37.8175,19.25 38.6575,19.25 L47.1625,19.25 C47.215,19.25 47.25,19.2675 47.2675,19.2675 C47.2675,19.2675 47.2675,19.2675 47.2675,19.2675 L47.215,40.25 L8.75,40.285 L8.75,14 L31.85,14 L31.85,14 Z M31.85,12.25 L8.75,12.25 C7.7875,12.25 7,13.0025 7,13.93 L7,40.2675 C7,41.23 7.805,42 8.8025,42 L47.215,42 C48.195,42 49,41.23 49,40.285 L49,19.2675 C49,18.2875 48.1775,17.5 47.145,17.5 L38.64,17.5 C38.255,17.5 37.87,17.36 37.6075,17.08 L33.0925,12.74 C32.76,12.425 32.305,12.25 31.85,12.25 L31.85,12.25 Z" id="Shape" fill="#101828" fill-rule="nonzero"></path>
                    <rect id="Rectangle" x="0" y="0" width="56" height="56"></rect>
                </g>
            </g>
        </g>
    </g>
</svg>