<?xml version="1.0" encoding="UTF-8"?>
<svg width="80px" height="80px" viewBox="0 0 80 80" version="1.1" xmlns="http://www.w3.org/2000/svg" xmlns:xlink="http://www.w3.org/1999/xlink">
    <!-- Generator: Sketch 57.1 (83088) - https://sketch.com -->
    <title>225-B80px</title>
    <desc>Created with Sketch.</desc>
    <g id="225-B80px" stroke="none" stroke-width="1" fill="none" fill-rule="evenodd">
        <g>
            <path d="M40.175,22.5 C42.825,22.5 45,24.675 45,27.325 L45,30 L35,30 L35,27.325 C35,24.675 37.175,22.5 39.825,22.5 L40.175,22.5 L40.175,22.5 Z M40.175,20 L39.85,20 C35.775,20 32.5,23.275 32.5,27.325 L32.5,32.5 L47.5,32.5 L47.5,27.325 C47.5,23.275 44.225,20 40.175,20 L40.175,20 Z" id="Shape" fill="#101828" fill-rule="nonzero"></path>
            <path d="M47.5,32.5 L47.5,47.5 L32.5,47.5 L32.5,32.5 L47.5,32.5 L47.5,32.5 Z M47.6,30 L32.4,30 C31.075,30 30,31.075 30,32.4 L30,47.625 C30,48.95 31.075,50.025 32.4,50.025 L47.6,50.025 C48.925,50.025 50,48.95 50,47.625 L50,32.4 C50,31.075 48.925,30 47.6,30 L47.6,30 Z" id="Shape" fill="#101828" fill-rule="nonzero"></path>
            <path d="M40,42.5 C39.3,42.5 38.75,41.95 38.75,41.25 L38.75,38.75 C38.75,38.05 39.3,37.5 40,37.5 C40.7,37.5 41.25,38.05 41.25,38.75 L41.25,41.25 C41.25,41.95 40.7,42.5 40,42.5 Z" id="Path" fill="#101828" fill-rule="nonzero"></path>
            <path d="M67.5,12.5 L67.5,17.5 C67.5,25.325 65.875,36.975 63.175,42.95 C59.45,51.15 52.45,61.95 40,67.3 C27.55,61.95 20.525,51.15 16.825,42.95 C14.125,36.975 12.5,25.3 12.5,17.5 L12.5,12.5 L67.5,12.5 L67.5,12.5 Z M70,10 L10,10 L10,17.5 C10,24.9 11.5,37.225 14.55,43.975 C18.725,53.2 26.4,64.55 40,70 C53.6,64.55 61.275,53.2 65.45,43.975 C68.5,37.225 70,24.9 70,17.5 L70,10 L70,10 Z" id="Shape" fill="#101828" fill-rule="nonzero"></path>
            <rect id="Rectangle" x="0" y="0" width="80" height="80"></rect>
        </g>
    </g>
</svg>