<?xml version="1.0" encoding="UTF-8"?>
<svg width="56px" height="56px" viewBox="0 0 56 56" version="1.1" xmlns="http://www.w3.org/2000/svg" xmlns:xlink="http://www.w3.org/1999/xlink">
    <!-- Generator: Sketch 57.1 (83088) - https://sketch.com -->
    <title>099-G56px</title>
    <desc>Created with Sketch.</desc>
    <g id="NEW_icons" stroke="none" stroke-width="1" fill="none" fill-rule="evenodd">
        <g id="icons_UD_new-Copy" transform="translate(-1728.000000, -12803.000000)">
            <g id="099-G56px" transform="translate(1728.000000, 12803.000000)">
                <circle id="Oval-Copy-667" fill="#E3E8EC" cx="28" cy="28" r="28"></circle>
                <g id="099-B32px-Copy-5" transform="translate(8.000000, 8.000000)">
                    <path d="M20,28.75 C20.35,28.75 20.625,29.025 20.625,29.375 C20.625,29.725 20.35,30 20,30 C19.65,30 19.375,29.725 19.375,29.375 C19.375,29.025 19.65,28.75 20,28.75 L20,28.75 Z M20,27.5 C18.9625,27.5 18.125,28.3375 18.125,29.375 C18.125,30.4125 18.9625,31.25 20,31.25 C21.0375,31.25 21.875,30.4125 21.875,29.375 C21.875,28.3375 21.0375,27.5 20,27.5 L20,27.5 Z" id="Shape" fill="#101828" fill-rule="nonzero"></path>
                    <path d="M32.5,8.75 C32.85,8.75 33.125,9.025 33.125,9.375 C33.125,9.725 32.85,10 32.5,10 C32.15,10 31.875,9.725 31.875,9.375 C31.875,9.025 32.15,8.75 32.5,8.75 L32.5,8.75 Z M32.5,7.5 C31.4625,7.5 30.625,8.3375 30.625,9.375 C30.625,10.4125 31.4625,11.25 32.5,11.25 C33.5375,11.25 34.375,10.4125 34.375,9.375 C34.375,8.3375 33.5375,7.5 32.5,7.5 L32.5,7.5 Z" id="Shape" fill="#101828" fill-rule="nonzero"></path>
                    <path d="M31.25,15 L31.25,13.75 L33.75,13.75 L33.75,15 L35,15 L35,13.75 C35,13.0625 34.4375,12.5 33.75,12.5 L31.25,12.5 C30.5625,12.5 30,13.0625 30,13.75 L30,15 L31.25,15 Z" id="Path" fill="#101828" fill-rule="nonzero"></path>
                    <path d="M7.5,8.75 C7.85,8.75 8.125,9.025 8.125,9.375 C8.125,9.725 7.85,10 7.5,10 C7.15,10 6.875,9.725 6.875,9.375 C6.875,9.025 7.15,8.75 7.5,8.75 L7.5,8.75 Z M7.5,7.5 C6.4625,7.5 5.625,8.3375 5.625,9.375 C5.625,10.4125 6.4625,11.25 7.5,11.25 C8.5375,11.25 9.375,10.4125 9.375,9.375 C9.375,8.3375 8.5375,7.5 7.5,7.5 L7.5,7.5 Z" id="Shape" fill="#101828" fill-rule="nonzero"></path>
                    <path d="M6.25,15 L6.25,13.75 L8.75,13.75 L8.75,15 L10,15 L10,13.75 C10,13.0625 9.4375,12.5 8.75,12.5 L6.25,12.5 C5.5625,12.5 5,13.0625 5,13.75 L5,15 L6.25,15 Z" id="Path" fill="#101828" fill-rule="nonzero"></path>
                    <path d="M18.75,35 L18.75,33.75 L21.25,33.75 L21.25,35 L22.5,35 L22.5,33.75 C22.5,33.0625 21.9375,32.5 21.25,32.5 L18.75,32.5 C18.0625,32.5 17.5,33.0625 17.5,33.75 L17.5,35 L18.75,35 Z" id="Path" fill="#101828" fill-rule="nonzero"></path>
                    <path d="M15.4125,12.6625 L17.7625,15.0875 L16.7625,16.0625 L16.1625,16.65 L16.475,17.425 C16.55,17.6125 17.2625,19.3125 18.3,20.4 C19.3375,21.4875 21.025,22.2375 21.2125,22.325 L21.9875,22.6625 L22.5875,22.075 L23.5875,21.1 L25.9375,23.525 L24.4375,24.9875 C21.0375,24.325 17.7625,20.9875 17.725,20.95 C17.6875,20.9125 14.425,17.5 13.9125,14.1125 L15.4125,12.6625 L15.4125,12.6625 Z M15.425,11.225 C15.225,11.225 15.0125,11.3 14.85,11.4625 L12.8875,13.3625 C12.7,13.55 12.6125,13.8125 12.65,14.075 C13.1125,17.9875 16.825,21.825 16.825,21.825 C16.825,21.825 20.5125,25.6375 24.45,26.2625 C24.4875,26.275 24.525,26.275 24.575,26.275 C24.7875,26.275 25,26.1875 25.15,26.0375 L27.1125,24.1375 C27.4375,23.825 27.45,23.3125 27.1375,22.9875 L24.175,19.925 C24.0125,19.7625 23.8125,19.675 23.6,19.675 C23.4,19.675 23.1875,19.75 23.025,19.9125 L21.7125,21.1875 C21.7125,21.1875 20.1,20.475 19.2,19.5375 C18.3,18.6 17.6375,16.9625 17.6375,16.9625 L18.95,15.6875 C19.275,15.375 19.2875,14.8625 18.975,14.5375 L16,11.475 C15.85,11.3125 15.6375,11.225 15.425,11.225 L15.425,11.225 Z" id="Shape" fill="#101828" fill-rule="nonzero"></path>
                    <path d="M10.55,10.025 C13.025,7.6875 16.3375,6.25 20,6.25 C23.6625,6.25 26.9875,7.7 29.4625,10.05 C29.4125,9.825 29.375,9.6125 29.375,9.375 C29.375,9.0375 29.4375,8.725 29.5375,8.425 C26.95,6.2875 23.625,5 20,5 C16.375,5 13.0625,6.3 10.475,8.45 C10.5625,8.75 10.625,9.05 10.625,9.375 C10.625,9.6 10.6,9.825 10.55,10.025 Z" id="Path" fill="#101828" fill-rule="nonzero"></path>
                    <g id="Group" transform="translate(5.000000, 16.250000)" fill="#101828" fill-rule="nonzero">
                        <path d="M29.5125,0 L28.225,0 C28.5625,1.2 28.7625,2.45 28.7625,3.75 C28.7625,10.025 24.525,15.325 18.7625,16.9625 L18.7625,18.25 C25.225,16.5875 30.0125,10.725 30.0125,3.7375 C30,2.45 29.8125,1.2 29.5125,0 Z" id="Path"></path>
                        <path d="M11.25,16.9625 C5.4875,15.325 1.25,10.025 1.25,3.75 C1.25,2.45 1.4375,1.2 1.7875,0 L0.4875,0 C0.1875,1.2 0,2.45 0,3.75 C0,10.7375 4.7875,16.5875 11.25,18.2625 L11.25,16.9625 Z" id="Path"></path>
                    </g>
                    <rect id="Rectangle" x="0" y="0" width="40" height="40"></rect>
                </g>
            </g>
        </g>
    </g>
</svg>