<?xml version="1.0" encoding="UTF-8"?>
<svg width="80px" height="80px" viewBox="0 0 80 80" version="1.1" xmlns="http://www.w3.org/2000/svg" xmlns:xlink="http://www.w3.org/1999/xlink">
    <!-- Generator: Sketch 57.1 (83088) - https://sketch.com -->
    <title>079-B80px</title>
    <desc>Created with Sketch.</desc>
    <g id="079-B80px" stroke="none" stroke-width="1" fill="none" fill-rule="evenodd">
        <g>
            <path d="M30,65 C30.675,65 31.25,64.45 31.25,63.75 C31.25,63.05 30.675,62.5 30,62.5 C29.325,62.5 28.75,63.05 28.75,63.75 C28.75,64.45 29.325,65 30,65" id="Path" fill="#101828" fill-rule="nonzero"></path>
            <path d="M47.5,65 L47.5,67.375 C47.5,67.45 47.45,67.5 47.375,67.5 L12.625,67.5 C12.55,67.5 12.5,67.45 12.5,67.375 L12.5,60 L32.5,60 L32.5,57.5 L12.5,57.5 L12.5,12.625 C12.5,12.55 12.55,12.5 12.625,12.5 L47.375,12.5 C47.45,12.5 47.5,12.55 47.5,12.625 L47.5,35 L50,35 L50,12.625 C50,11.175 48.825,10 47.375,10 L12.625,10 C11.175,10 10,11.175 10,12.625 L10,57.5 L10,60 L10,67.375 C10,68.825 11.175,70 12.625,70 L47.375,70 C48.825,70 50,68.825 50,67.375 L50,65 L47.5,65 Z" id="Path" fill="#101828" fill-rule="nonzero"></path>
            <path d="M67.5,40 L67.5,60 L37.5,60 L37.5,40 L67.5,40 L67.5,40 Z M67.5,37.5 L37.5,37.5 C36.125,37.5 35,38.625 35,40 L35,60 C35,61.375 36.125,62.5 37.5,62.5 L67.5,62.5 C68.875,62.5 70,61.375 70,60 L70,40 C70,38.625 68.875,37.5 67.5,37.5 L67.5,37.5 Z" id="Shape" fill="#101828" fill-rule="nonzero"></path>
            <polygon id="Path" fill="#101828" fill-rule="nonzero" points="52.5 51.5 36.05 40.325 37.45 38.25 52.5 48.5 67.55 38.25 68.95 40.325"></polygon>
            <rect id="Rectangle" x="0" y="0" width="80" height="80"></rect>
        </g>
    </g>
</svg>