<?xml version="1.0" encoding="UTF-8"?>
<svg width="56px" height="56px" viewBox="0 0 56 56" version="1.1" xmlns="http://www.w3.org/2000/svg" xmlns:xlink="http://www.w3.org/1999/xlink">
    <!-- Generator: Sketch 57.1 (83088) - https://sketch.com -->
    <title>118-G56px</title>
    <desc>Created with Sketch.</desc>
    <g id="NEW_icons" stroke="none" stroke-width="1" fill="none" fill-rule="evenodd">
        <g id="icons_UD_new-Copy" transform="translate(-446.000000, -15314.000000)">
            <g id="118-G56px" transform="translate(446.000000, 15314.000000)">
                <circle id="Oval-Copy-758" fill="#E3E8EC" cx="28" cy="28" r="28"></circle>
                <g id="118-B32px-Copy-3" transform="translate(8.000000, 8.000000)">
                    <path d="M11.25,16.2375 L11.25,23.7375 L10,23.7375 C9.325,23.7375 8.75,23.2875 8.75,22.7625 L8.75,17.2125 C8.75,16.6875 9.325,16.2375 10.0125,16.2375 L11.25,16.2375 L11.25,16.2375 Z M12.5,14.9875 L10.0125,14.9875 C8.625,14.9875 7.5,15.9875 7.5,17.2125 L7.5,22.7625 C7.5,23.9875 8.6125,24.9875 10,24.9875 L12.5,24.9875 L12.5,14.9875 L12.5,14.9875 Z" id="Shape" fill="#101828" fill-rule="nonzero"></path>
                    <path d="M23.4625,34.975 L20.9125,34.975 L20.9125,33.725 L23.4625,33.725 C26.9375,33.725 28.75,29.325 28.75,24.9875 L28.75,24.3625 L30,24.3625 L30,24.9875 C30,29.95 27.7625,34.975 23.4625,34.975 Z" id="Path" fill="#101828" fill-rule="nonzero"></path>
                    <path d="M30,15.6125 L28.75,15.6125 L28.75,14.9875 C28.75,13.65 28.2875,12.225 27.375,10.7625 C25.6125,7.9 22.9125,6.2625 20,6.2625 C17.0875,6.2625 14.4,7.9 12.625,10.75 C11.7125,12.225 11.25,13.65 11.25,14.975 L11.25,15.6 L10,15.6 L10,14.975 C10,13.4 10.525,11.7625 11.5625,10.0875 C13.5625,6.8625 16.6375,5.0125 20,5.0125 L20,5.0125 C23.3625,5.0125 26.4375,6.8625 28.45,10.1 C29.475,11.775 30,13.4125 30,14.9875 L30,15.6125 Z" id="Path" fill="#101828" fill-rule="nonzero"></path>
                    <path d="M23.4375,32.4875 C23.525,32.4875 23.75,32.7 23.75,33.1125 C23.75,33.5125 23.525,33.7375 23.4375,33.7375 L20.3125,33.725 C20.225,33.725 20,33.5125 20,33.1 C20,32.7 20.225,32.475 20.3125,32.475 L23.4375,32.475 L23.4375,32.4875 Z M23.4375,31.2375 L20.3125,31.2375 C19.45,31.2375 18.75,32.075 18.75,33.1125 C18.75,34.1375 19.45,34.975 20.3125,34.9875 L23.4375,35 C23.4375,35 23.4375,35 23.4375,35 C24.3,35 25,34.1625 25,33.125 L25,33.1125 C25,32.075 24.3,31.2375 23.4375,31.2375 L23.4375,31.2375 Z" id="Shape" fill="#101828" fill-rule="nonzero"></path>
                    <path d="M30,16.2375 C30.675,16.2375 31.25,16.6875 31.25,17.2125 L31.25,22.7625 C31.25,23.2875 30.675,23.7375 29.9875,23.7375 L28.75,23.7375 L28.75,16.2375 L30,16.2375 L30,16.2375 Z M30,14.9875 L27.5,14.9875 L27.5,24.9875 L29.9875,24.9875 C31.375,24.9875 32.5,23.9875 32.5,22.7625 L32.5,17.2125 C32.5,15.9875 31.3875,14.9875 30,14.9875 L30,14.9875 Z" id="Shape" fill="#101828" fill-rule="nonzero"></path>
                    <rect id="Rectangle" x="0" y="0" width="40" height="40"></rect>
                </g>
            </g>
        </g>
    </g>
</svg>