<?xml version="1.0" encoding="UTF-8"?>
<svg width="80px" height="80px" viewBox="0 0 80 80" version="1.1" xmlns="http://www.w3.org/2000/svg" xmlns:xlink="http://www.w3.org/1999/xlink">
    <!-- Generator: Sketch 58 (84663) - https://sketch.com -->
    <title>249-G80px</title>
    <desc>Created with Sketch.</desc>
    <g id="NEW_icons" stroke="none" stroke-width="1" fill="none" fill-rule="evenodd">
        <g id="icons_UD_new-Copy" transform="translate(-2050.000000, -31615.000000)">
            <g id="249-G80px" transform="translate(2050.000000, 31615.000000)">
                <circle id="Oval-Copy-1440" fill="#E3E8EC" cx="40" cy="40" r="40"></circle>
                <g id="249-B32px" transform="translate(12.000000, 12.000000)">
                    <g>
                        <path d="M39.375,31.5 C43.715,31.5 47.25,35.035 47.25,39.375 C47.25,43.715 43.715,47.25 39.375,47.25 C35.035,47.25 31.5,43.715 31.5,39.375 C31.5,35.035 35.035,31.5 39.375,31.5 L39.375,31.5 Z M39.375,29.75 C34.055,29.75 29.75,34.055 29.75,39.375 C29.75,44.695 34.055,49 39.375,49 C44.695,49 49,44.695 49,39.375 C49,34.055 44.695,29.75 39.375,29.75 L39.375,29.75 Z" id="Shape" fill="#101828" fill-rule="nonzero"></path>
                        <path d="M38.6225,36.33 L36.4875,34.125 C36.26,33.8975 35.8925,33.8975 35.665,34.125 L34.2475,35.49 C34.1075,35.63 34.055,35.805 34.0725,35.9975 C34.405,38.815 37.065,41.5625 37.065,41.5625 C37.065,41.5625 39.7075,44.2925 42.5425,44.7475 C42.7175,44.7825 42.91,44.7125 43.05,44.59 L44.4675,43.225 C44.695,42.9975 44.7125,42.63 44.485,42.4025 L42.35,40.1975 C42.1225,39.97 41.755,39.97 41.5275,40.1975 L40.5825,41.1075 C40.5825,41.1075 39.4275,40.6 38.78,39.9175 C38.1325,39.235 37.66,38.0625 37.66,38.0625 L38.605,37.1525 C38.85,36.9425 38.85,36.575 38.6225,36.33 Z" id="Path" fill="#101828" fill-rule="nonzero"></path>
                        <path d="M40.7225,22.19 L38.535,24.6575 C37.6775,25.62 36.5575,26.145 35.385,26.145 L32.1475,26.145 C32.13,26.075 32.1125,25.97 32.165,25.9 L34.16,23.66 C35,22.715 36.12,22.19 37.275,22.19 L40.7225,22.19 L40.7225,22.19 Z M41.16,20.44 L37.275,20.44 C35.6125,20.44 34.02,21.175 32.8475,22.505 L30.8525,24.745 C29.82,25.9 30.555,27.895 32.0075,27.895 L35.3675,27.895 C37.0475,27.895 38.64,27.1425 39.83,25.8125 L42.1575,23.1875 C43.0675,22.1725 42.4375,20.44 41.16,20.44 L41.16,20.44 Z" id="Shape" fill="#101828" fill-rule="nonzero"></path>
                        <path d="M18.7425,22.19 C19.915,22.19 21.0175,22.715 21.8575,23.66 L23.8525,25.9 C23.905,25.97 23.905,26.075 23.87,26.145 L20.6325,26.145 C19.46,26.145 18.34,25.62 17.4825,24.6575 L15.3125,22.19 L18.7425,22.19 L18.7425,22.19 Z M18.7425,20.44 L14.8575,20.44 C13.58,20.44 12.95,22.1725 13.8425,23.1875 L16.17,25.8125 C17.36,27.1425 18.9525,27.895 20.6325,27.895 L23.9925,27.895 C25.445,27.895 26.18,25.9 25.1475,24.745 L23.1525,22.505 C21.9975,21.175 20.405,20.44 18.7425,20.44 L18.7425,20.44 Z" id="Shape" fill="#101828" fill-rule="nonzero"></path>
                        <path d="M29.6625,32.5675 C29.8025,32.6375 29.96,32.7075 30.1175,32.76 C30.485,32.235 30.8875,31.745 31.3425,31.3075 C31.01,31.2375 30.7125,31.1325 30.4325,31.01 C29.6625,30.625 28.84,30.4325 28,30.4325 C27.16,30.4325 26.3375,30.625 25.5675,31.01 C24.92,31.325 24.0975,31.5 23.135,31.5 C22.2425,31.5 21.245,31.36 20.2125,31.0975 C12.95,29.015 9.975,22.54 8.8375,18.6725 C9.1,18.69 9.38,18.7075 9.6775,18.7075 C11.2525,18.7075 13.1075,18.445 15.19,17.92 C16.275,17.64 17.465,17.5 18.69,17.5 C23.275,17.5 27.195,19.425 27.23,19.4425 C27.475,19.565 27.7375,19.635 28.0175,19.635 C28.28,19.635 28.56,19.565 28.805,19.4425 C28.84,19.425 32.725,17.5 37.345,17.5 C38.57,17.5 39.7425,17.64 40.845,17.92 C42.945,18.445 44.8,18.7075 46.3575,18.7075 C46.655,18.7075 46.935,18.69 47.1975,18.6725 C46.41,21.35 44.7125,25.3225 41.335,28.175 C42.0175,28.2975 42.6825,28.4725 43.33,28.7175 C46.585,25.55 48.195,21.5425 48.9475,18.9175 C49.245,17.9025 48.4575,16.905 47.425,16.905 C47.3725,16.905 47.3375,16.905 47.285,16.905 C47.005,16.9225 46.69,16.94 46.3575,16.94 C45.1325,16.94 43.47,16.7475 41.265,16.205 C39.935,15.8725 38.605,15.75 37.3275,15.75 C32.235,15.75 28,17.8675 28,17.8675 C28,17.8675 23.765,15.75 18.6725,15.75 C17.4125,15.75 16.0825,15.8725 14.7525,16.205 C12.5475,16.765 10.885,16.94 9.66,16.94 C9.2925,16.94 8.96,16.9225 8.68,16.8875 C8.6275,16.8875 8.575,16.8875 8.54,16.8875 C7.5425,16.8875 6.79,17.8675 7.07,18.8475 C8.2075,22.89 11.41,30.3975 19.74,32.7775 C21.07,33.11 22.19,33.25 23.1525,33.25 C24.5875,33.25 25.62,32.9525 26.3725,32.585 C26.8975,32.3225 27.4575,32.1825 28.035,32.1825 C28.5775,32.1825 29.1375,32.305 29.6625,32.5675 Z" id="Path" fill="#101828" fill-rule="nonzero"></path>
                        <rect id="Rectangle" x="0" y="0" width="56" height="56"></rect>
                    </g>
                </g>
            </g>
        </g>
    </g>
</svg>