<?xml version="1.0" encoding="UTF-8"?>
<svg width="40px" height="40px" viewBox="0 0 40 40" version="1.1" xmlns="http://www.w3.org/2000/svg" xmlns:xlink="http://www.w3.org/1999/xlink">
    <!-- Generator: Sketch 57.1 (83088) - https://sketch.com -->
    <title>198-B40px</title>
    <desc>Created with Sketch.</desc>
    <g id="198-B40px" stroke="none" stroke-width="1" fill="none" fill-rule="evenodd">
        <g>
            <path d="M24.5125,18.1375 C25.6125,19.7375 26.25,21.675 26.25,23.75 C26.25,29.2625 21.7625,33.75 16.25,33.75 C10.7375,33.75 6.25,29.2625 6.25,23.75 C6.25,18.2375 10.7375,13.75 16.25,13.75 C18.325,13.75 20.2625,14.3875 21.8625,15.4875 L22.7625,14.5875 C20.925,13.275 18.675,12.5 16.25,12.5 C10.0375,12.5 5,17.5375 5,23.75 C5,29.9625 10.0375,35 16.25,35 C22.4625,35 27.5,29.9625 27.5,23.75 C27.5,21.325 26.725,19.075 25.4125,17.2375 L24.5125,18.1375 Z" id="Path" fill="#101828" fill-rule="nonzero"></path>
            <path d="M22.4625,20.225 C23.025,21.225 23.35,22.3875 23.35,23.6125 C23.35,27.45 20.225,30.575 16.3875,30.575 C12.55,30.575 9.425,27.45 9.425,23.6125 C9.425,19.775 12.55,16.65 16.3875,16.65 C17.6125,16.65 18.775,16.975 19.775,17.5375 L20.7,16.6125 C19.45,15.8375 17.975,15.3875 16.3875,15.3875 C11.85,15.3875 8.1625,19.075 8.1625,23.6125 C8.1625,28.15 11.85,31.8375 16.3875,31.8375 C20.925,31.8375 24.6125,28.15 24.6125,23.6125 C24.6125,22.025 24.1625,20.55 23.3875,19.3 L22.4625,20.225 Z" id="Path" fill="#101828" fill-rule="nonzero"></path>
            <path d="M19.8375,22.725 C19.9375,23.05 20,23.3875 20,23.75 C20,25.8125 18.3125,27.5 16.25,27.5 C14.1875,27.5 12.5,25.8125 12.5,23.75 C12.5,21.6875 14.1875,20 16.25,20 C16.5625,20 16.85,20.05 17.1375,20.1125 L18.1375,19.1125 C17.55,18.8875 16.9125,18.75 16.25,18.75 C13.4875,18.75 11.25,20.9875 11.25,23.75 C11.25,26.5125 13.4875,28.75 16.25,28.75 C19.0125,28.75 21.25,26.5125 21.25,23.75 C21.25,23.0375 21.0875,22.35 20.825,21.7375 L19.8375,22.725 Z" id="Path" fill="#101828" fill-rule="nonzero"></path>
            <path d="M30.3125,9.6875 L30.3125,8.8 L15.9375,23.1625 C15.6875,23.4125 15.6875,23.8125 15.9375,24.0625 C16.0625,24.1875 16.225,24.25 16.3875,24.25 C16.55,24.25 16.7125,24.1875 16.8375,24.0625 L31.2,9.6875 L30.3125,9.6875 Z" id="Path" fill="#101828" fill-rule="nonzero"></path>
            <polygon id="Path" fill="#101828" fill-rule="nonzero" points="29.9375 14.75 35 9.6875 33.2125 9.6875 28.15 14.75"></polygon>
            <polygon id="Path" fill="#101828" fill-rule="nonzero" points="25.25 10.0625 25.25 11.85 30.3125 6.7875 30.3125 5"></polygon>
            <rect id="Rectangle" x="0" y="0" width="40" height="40"></rect>
        </g>
    </g>
</svg>