<?xml version="1.0" encoding="UTF-8"?>
<svg width="80px" height="80px" viewBox="0 0 80 80" version="1.1" xmlns="http://www.w3.org/2000/svg" xmlns:xlink="http://www.w3.org/1999/xlink">
    <!-- Generator: Sketch 57.1 (83088) - https://sketch.com -->
    <title>247-B80px</title>
    <desc>Created with Sketch.</desc>
    <g id="247-B80px" stroke="none" stroke-width="1" fill="none" fill-rule="evenodd">
        <g id="247-B32px">
            <g>
                <path d="M67.5,12.5 L67.5,67.5 L12.5,67.5 L12.5,12.5 L67.5,12.5 L67.5,12.5 Z M67.5,10 L12.5,10 C11.125,10 10,11.125 10,12.5 L10,67.5 C10,68.875 11.125,70 12.5,70 L67.5,70 C68.875,70 70,68.875 70,67.5 L70,12.5 C70,11.125 68.875,10 67.5,10 L67.5,10 Z" id="Shape" fill="#101828" fill-rule="nonzero"></path>
                <path d="M62.5,17.5 L62.5,62.5 L17.5,62.5 L17.5,17.5 L62.5,17.5 L62.5,17.5 Z M62.5,15 L17.5,15 C16.125,15 15,16.125 15,17.5 L15,62.5 C15,63.875 16.125,65 17.5,65 L62.5,65 C63.875,65 65,63.875 65,62.5 L65,17.5 C65,16.125 63.875,15 62.5,15 L62.5,15 Z" id="Shape" fill="#101828" fill-rule="nonzero"></path>
                <path d="M48.75,38.75 C49.45,38.75 50,39.3 50,40 C50,40.7 49.45,41.25 48.75,41.25 C48.05,41.25 47.5,40.7 47.5,40 C47.5,39.3 48.05,38.75 48.75,38.75 L48.75,38.75 Z M48.75,36.25 C46.675,36.25 45,37.925 45,40 C45,42.075 46.675,43.75 48.75,43.75 C50.825,43.75 52.5,42.075 52.5,40 C52.5,37.925 50.825,36.25 48.75,36.25 L48.75,36.25 Z" id="Shape" fill="#101828" fill-rule="nonzero"></path>
                <path d="M31.25,38.75 C31.95,38.75 32.5,39.3 32.5,40 C32.5,40.7 31.95,41.25 31.25,41.25 C30.55,41.25 30,40.7 30,40 C30,39.3 30.55,38.75 31.25,38.75 L31.25,38.75 Z M31.25,36.25 C29.175,36.25 27.5,37.925 27.5,40 C27.5,42.075 29.175,43.75 31.25,43.75 C33.325,43.75 35,42.075 35,40 C35,37.925 33.325,36.25 31.25,36.25 L31.25,36.25 Z" id="Shape" fill="#101828" fill-rule="nonzero"></path>
                <path d="M41.25,60.025 L41.25,55 L38.75,55 L38.75,60.025 L37.325,59.825 C27.45,58.5 20,49.975 20,40 C20,30.025 27.45,21.5 37.325,20.175 L38.75,19.975 L38.75,25 L41.25,25 L41.25,19.975 L42.675,20.175 C52.55,21.5 60,30.025 60,40 C60,49.975 52.55,58.5 42.675,59.825 L41.25,60.025 Z M36.25,52.5 L43.75,52.5 L43.75,57.1 C51.675,55.375 57.5,48.25 57.5,40 C57.5,31.75 51.675,24.625 43.75,22.9 L43.75,27.5 L36.25,27.5 L36.25,22.9 C28.325,24.625 22.5,31.75 22.5,40 C22.5,48.25 28.325,55.375 36.25,57.1 L36.25,52.5 Z" id="Shape" fill="#101828" fill-rule="nonzero"></path>
                <circle id="Oval" fill="#101828" fill-rule="nonzero" cx="40" cy="40" r="1.25"></circle>
                <rect id="Rectangle" x="0" y="0" width="80" height="80"></rect>
            </g>
        </g>
    </g>
</svg>