<?xml version="1.0" encoding="UTF-8"?>
<svg width="40px" height="40px" viewBox="0 0 40 40" version="1.1" xmlns="http://www.w3.org/2000/svg" xmlns:xlink="http://www.w3.org/1999/xlink">
    <!-- Generator: Sketch 57.1 (83088) - https://sketch.com -->
    <title>232-B40px</title>
    <desc>Created with Sketch.</desc>
    <g id="232-B40px" stroke="none" stroke-width="1" fill="none" fill-rule="evenodd">
        <g>
            <path d="M33.75,6.25 L33.75,8.75 C33.75,12.6625 32.9375,18.4875 31.5875,21.475 C29.725,25.575 26.225,30.975 20,33.65 C13.775,30.975 10.2625,25.575 8.4125,21.475 C7.0625,18.4875 6.25,12.65 6.25,8.75 L6.25,6.25 L33.75,6.25 L33.75,6.25 Z M35,5 L5,5 L5,8.75 C5,12.45 5.75,18.6125 7.275,21.9875 C9.3625,26.6 13.2,32.275 20,35 C26.8,32.275 30.6375,26.6 32.725,21.9875 C34.25,18.6125 35,12.45 35,8.75 L35,5 L35,5 Z" id="Shape" fill="#101828" fill-rule="nonzero"></path>
            <path d="M23,14.875 L21.6875,14.875 L21.6125,15.3125 C21.2625,14.9125 20.725,14.675 20.125,14.675 C18.5,14.675 16.825,16.1875 16.825,18.7 C16.825,20.3625 17.7875,21.5125 19.175,21.5125 C19.85,21.5125 20.525,21.175 21,20.65 C21.15,21.1875 21.625,21.5125 22.3125,21.5125 C23.8625,21.5125 25.45,19.9625 25.45,17.375 C25.45,14.0125 22.8625,12.5 20.3125,12.5 C17.0375,12.5 14.5625,14.9875 14.5625,18.275 C14.5625,22.0625 17.1625,23.75 19.7375,23.75 C21.1875,23.75 21.975,23.4125 22.725,22.9 L22.8875,22.7875 L22.2375,21.7 L22.05,21.8375 C21.55,22.175 20.95,22.5 19.875,22.5 C18.05,22.5 15.925,21.4 15.925,18.3 C15.925,15.8 17.85,13.775 20.225,13.775 C22.65,13.775 24.1,15.1375 24.1,17.425 C24.1,19.375 23.1375,20.2875 22.5,20.2875 C22.3625,20.2875 22.25,20.2625 22.25,19.9875 C22.25,19.95 22.25,19.9 22.2625,19.825 L23,14.875 Z M19.3,20.2875 C18.6,20.2875 18.1875,19.6875 18.1875,18.675 C18.1875,16.975 19.2375,15.925 20.2125,15.925 C20.9125,15.925 21.3125,16.4375 21.3125,17.3375 C21.3,18.8875 20.35,20.2875 19.3,20.2875 Z" id="Shape" fill="#101828" fill-rule="nonzero"></path>
            <rect id="Rectangle" x="0" y="0" width="40" height="40"></rect>
        </g>
    </g>
</svg>