<?xml version="1.0" encoding="UTF-8"?>
<svg width="80px" height="80px" viewBox="0 0 80 80" version="1.1" xmlns="http://www.w3.org/2000/svg" xmlns:xlink="http://www.w3.org/1999/xlink">
    <!-- Generator: Sketch 58 (84663) - https://sketch.com -->
    <title>249-B80px</title>
    <desc>Created with Sketch.</desc>
    <g id="249-B80px" stroke="none" stroke-width="1" fill="none" fill-rule="evenodd">
        <g id="249-B32px">
            <g>
                <path d="M56.25,45 C62.45,45 67.5,50.05 67.5,56.25 C67.5,62.45 62.45,67.5 56.25,67.5 C50.05,67.5 45,62.45 45,56.25 C45,50.05 50.05,45 56.25,45 L56.25,45 Z M56.25,42.5 C48.65,42.5 42.5,48.65 42.5,56.25 C42.5,63.85 48.65,70 56.25,70 C63.85,70 70,63.85 70,56.25 C70,48.65 63.85,42.5 56.25,42.5 L56.25,42.5 Z" id="Shape" fill="#101828" fill-rule="nonzero"></path>
                <path d="M55.175,51.9 L52.125,48.75 C51.8,48.425 51.275,48.425 50.95,48.75 L48.925,50.7 C48.725,50.9 48.65,51.15 48.675,51.425 C49.15,55.45 52.95,59.375 52.95,59.375 C52.95,59.375 56.725,63.275 60.775,63.925 C61.025,63.975 61.3,63.875 61.5,63.7 L63.525,61.75 C63.85,61.425 63.875,60.9 63.55,60.575 L60.5,57.425 C60.175,57.1 59.65,57.1 59.325,57.425 L57.975,58.725 C57.975,58.725 56.325,58 55.4,57.025 C54.475,56.05 53.8,54.375 53.8,54.375 L55.15,53.075 C55.5,52.775 55.5,52.25 55.175,51.9 Z" id="Path" fill="#101828" fill-rule="nonzero"></path>
                <path d="M58.175,31.7 L55.05,35.225 C53.825,36.6 52.225,37.35 50.55,37.35 L45.925,37.35 C45.9,37.25 45.875,37.1 45.95,37 L48.8,33.8 C50,32.45 51.6,31.7 53.25,31.7 L58.175,31.7 L58.175,31.7 Z M58.8,29.2 L53.25,29.2 C50.875,29.2 48.6,30.25 46.925,32.15 L44.075,35.35 C42.6,37 43.65,39.85 45.725,39.85 L50.525,39.85 C52.925,39.85 55.2,38.775 56.9,36.875 L60.225,33.125 C61.525,31.675 60.625,29.2 58.8,29.2 L58.8,29.2 Z" id="Shape" fill="#101828" fill-rule="nonzero"></path>
                <path d="M26.775,31.7 C28.45,31.7 30.025,32.45 31.225,33.8 L34.075,37 C34.15,37.1 34.15,37.25 34.1,37.35 L29.475,37.35 C27.8,37.35 26.2,36.6 24.975,35.225 L21.875,31.7 L26.775,31.7 L26.775,31.7 Z M26.775,29.2 L21.225,29.2 C19.4,29.2 18.5,31.675 19.775,33.125 L23.1,36.875 C24.8,38.775 27.075,39.85 29.475,39.85 L34.275,39.85 C36.35,39.85 37.4,37 35.925,35.35 L33.075,32.15 C31.425,30.25 29.15,29.2 26.775,29.2 L26.775,29.2 Z" id="Shape" fill="#101828" fill-rule="nonzero"></path>
                <path d="M42.375,46.525 C42.575,46.625 42.8,46.725 43.025,46.8 C43.55,46.05 44.125,45.35 44.775,44.725 C44.3,44.625 43.875,44.475 43.475,44.3 C42.375,43.75 41.2,43.475 40,43.475 C38.8,43.475 37.625,43.75 36.525,44.3 C35.6,44.75 34.425,45 33.05,45 C31.775,45 30.35,44.8 28.875,44.425 C18.5,41.45 14.25,32.2 12.625,26.675 C13,26.7 13.4,26.725 13.825,26.725 C16.075,26.725 18.725,26.35 21.7,25.6 C23.25,25.2 24.95,25 26.7,25 C33.25,25 38.85,27.75 38.9,27.775 C39.25,27.95 39.625,28.05 40.025,28.05 C40.4,28.05 40.8,27.95 41.15,27.775 C41.2,27.75 46.75,25 53.35,25 C55.1,25 56.775,25.2 58.35,25.6 C61.35,26.35 64,26.725 66.225,26.725 C66.65,26.725 67.05,26.7 67.425,26.675 C66.3,30.5 63.875,36.175 59.05,40.25 C60.025,40.425 60.975,40.675 61.9,41.025 C66.55,36.5 68.85,30.775 69.925,27.025 C70.35,25.575 69.225,24.15 67.75,24.15 C67.675,24.15 67.625,24.15 67.55,24.15 C67.15,24.175 66.7,24.2 66.225,24.2 C64.475,24.2 62.1,23.925 58.95,23.15 C57.05,22.675 55.15,22.5 53.325,22.5 C46.05,22.5 40,25.525 40,25.525 C40,25.525 33.95,22.5 26.675,22.5 C24.875,22.5 22.975,22.675 21.075,23.15 C17.925,23.95 15.55,24.2 13.8,24.2 C13.275,24.2 12.8,24.175 12.4,24.125 C12.325,24.125 12.25,24.125 12.2,24.125 C10.775,24.125 9.7,25.525 10.1,26.925 C11.725,32.7 16.3,43.425 28.2,46.825 C30.1,47.3 31.7,47.5 33.075,47.5 C35.125,47.5 36.6,47.075 37.675,46.55 C38.425,46.175 39.225,45.975 40.05,45.975 C40.825,45.975 41.625,46.15 42.375,46.525 Z" id="Path" fill="#101828" fill-rule="nonzero"></path>
                <rect id="Rectangle" x="0" y="0" width="80" height="80"></rect>
            </g>
        </g>
    </g>
</svg>