<?xml version="1.0" encoding="UTF-8"?>
<svg width="80px" height="80px" viewBox="0 0 80 80" version="1.1" xmlns="http://www.w3.org/2000/svg" xmlns:xlink="http://www.w3.org/1999/xlink">
    <!-- Generator: Sketch 57.1 (83088) - https://sketch.com -->
    <title>242-C80px</title>
    <desc>Created with Sketch.</desc>
    <g id="NEW_icons" stroke="none" stroke-width="1" fill="none" fill-rule="evenodd">
        <g id="icons_UD_new-Copy" transform="translate(-1002.000000, -30863.000000)">
            <g id="242-C80px" transform="translate(1002.000000, 30863.000000)">
                <circle id="Oval-Copy-1379" fill="#FF4F12" cx="40" cy="40" r="40"></circle>
                <g id="242-B32px-Copy-9" transform="translate(12.000000, 12.000000)">
                    <path d="M26.2325,9.205 L29.96,14.5775 L31.395,16.66 L32.83,14.5775 L36.5225,9.24 L40.25,15.785 L40.25,47.25 L12.25,47.25 L12.25,15.785 L15.8025,9.4325 L19.5825,14.63 L21.0175,16.6075 L22.435,14.6125 L26.2325,9.205 L26.2325,9.205 Z M36.575,7 C36.26,7 35.945,7.1225 35.7175,7.3675 L31.4125,13.5975 L27.0725,7.35 C26.845,7.1225 26.5475,7 26.25,7 C25.9525,7 25.655,7.1225 25.4275,7.35 L21,13.58 L16.4675,7.3675 C16.275,7.1575 15.995,7.0525 15.7325,7.0525 C15.4,7.0525 15.085,7.21 14.875,7.49 L10.64,15.0675 C10.5525,15.225 10.5,15.4175 10.5,15.6275 L10.5,47.845 C10.5,48.475 11.025,49 11.655,49 L40.8975,49 C41.51,49 42,48.51 42,47.8975 L42,15.61 C42,15.4175 41.9475,15.2425 41.86,15.0675 L37.555,7.49 C37.31,7.1575 36.9425,7 36.575,7 L36.575,7 Z" id="Shape" fill="#FFFFFF" fill-rule="nonzero"></path>
                    <path d="M24.5,38.5 L22.75,38.5 L22.75,31.5 L21,31.5 L21,29.75 L22.75,29.75 L22.75,22.75 L28.945,22.75 C31.325,22.75 33.25,24.675 33.25,27.055 C33.25,29.505 31.255,31.5 28.805,31.5 L24.5,31.5 L24.5,38.5 Z M24.5,29.75 L28.805,29.75 C30.2925,29.75 31.5,28.5425 31.5,27.055 C31.5,25.6375 30.345,24.5 28.945,24.5 L24.5,24.5 L24.5,29.75 Z" id="Shape" fill="#FFFFFF" fill-rule="nonzero"></path>
                    <rect id="Rectangle" fill="#FFFFFF" fill-rule="nonzero" x="21.0175" y="33.25" width="8.75" height="1.75"></rect>
                    <rect id="Rectangle" x="0" y="0" width="56" height="56"></rect>
                </g>
            </g>
        </g>
    </g>
</svg>