<?xml version="1.0" encoding="UTF-8"?>
<svg width="40px" height="40px" viewBox="0 0 40 40" version="1.1" xmlns="http://www.w3.org/2000/svg" xmlns:xlink="http://www.w3.org/1999/xlink">
    <!-- Generator: Sketch 57.1 (83088) - https://sketch.com -->
    <title>029-B40px</title>
    <desc>Created with Sketch.</desc>
    <g id="029-B40px" stroke="none" stroke-width="1" fill="none" fill-rule="evenodd">
        <g>
            <path d="M20,12.5 C20.6875,12.5 21.25,13.0625 21.25,13.75 C21.25,14.4375 20.6875,15 20,15 C19.3125,15 18.75,14.4375 18.75,13.75 C18.75,13.0625 19.3125,12.5 20,12.5 L20,12.5 Z M20,11.25 C18.625,11.25 17.5,12.375 17.5,13.75 C17.5,15.125 18.625,16.25 20,16.25 C21.375,16.25 22.5,15.125 22.5,13.75 C22.5,12.375 21.375,11.25 20,11.25 L20,11.25 Z" id="Shape" fill="#101828" fill-rule="nonzero"></path>
            <path d="M26.25,20.0625 L26.25,13.75 C26.25,8.2 20.0375,5 20.0375,5 C20.0375,5 13.75,8.1 13.75,13.75 C13.75,15.3375 13.75,17.6125 13.75,20.05 C10.9375,20.325 8.75,22.425 8.75,25 L8.75,32.5 L13.75,30.8375 L13.75,30.8375 L15,30.425 L15,29.1125 L15,21.25 L15,20 L15,17.5 L15,13.75 C15,9.875 18.6125,7.3 20.025,6.4375 C21.4375,7.325 25,9.9375 25,13.75 L25,17.5 L25,20 L25,21.25 L25,29.1 L25,30.4125 L31.25,32.5 L31.25,25 C31.25,22.4375 29.0625,20.3375 26.25,20.0625 Z M13.75,29.525 L10,30.775 L10,25 C10,23.1125 11.6375,21.5625 13.75,21.3 C13.75,24.1875 13.75,27.1875 13.75,29.525 Z M30,30.775 L26.25,29.525 L26.25,21.3125 C28.3625,21.575 30,23.125 30,25.0125 L30,30.775 Z" id="Shape" fill="#101828" fill-rule="nonzero"></path>
            <rect id="Rectangle" fill="#101828" fill-rule="nonzero" x="19.375" y="23.7875" width="1.25" height="11.2125"></rect>
            <rect id="Rectangle" x="0" y="0" width="40" height="40"></rect>
        </g>
    </g>
</svg>