<?xml version="1.0" encoding="UTF-8"?>
<svg width="56px" height="56px" viewBox="0 0 56 56" version="1.1" xmlns="http://www.w3.org/2000/svg" xmlns:xlink="http://www.w3.org/1999/xlink">
    <!-- Generator: Sketch 54.1 (76490) - https://sketchapp.com -->
    <title>011-W56px</title>
    <desc>Created with Sketch.</desc>
    <g id="NEW_icons" stroke="none" stroke-width="1" fill="none" fill-rule="evenodd">
        <g id="icons_UD_new-Copy" transform="translate(-1814.000000, -1604.000000)">
            <g id="011-W56px" transform="translate(1814.000000, 1604.000000)">
                <g id="003-B32px-Copy-20" transform="translate(8.000000, 8.000000)">
                    <g id="Group" transform="translate(10.000000, 5.000000)" fill="#FFFFFF" fill-rule="nonzero">
                        <path d="M18.6875,0 L1.3125,0 C0.5875,0 0,0.5875 0,1.3125 L0,23.75 L0,25 L0,28.6875 C0,29.4125 0.5875,30 1.3125,30 L18.6875,30 C19.4125,30 20,29.4125 20,28.6875 L20,25 L20,23.75 L20,1.3125 C20,0.5875 19.4125,0 18.6875,0 Z M18.75,28.6875 C18.75,28.725 18.725,28.75 18.6875,28.75 L1.3125,28.75 C1.275,28.75 1.25,28.725 1.25,28.6875 L1.25,25 L18.75,25 L18.75,28.6875 Z M1.25,23.75 L1.25,1.3125 C1.25,1.275 1.275,1.25 1.3125,1.25 L18.6875,1.25 C18.725,1.25 18.75,1.275 18.75,1.3125 L18.75,23.75 L1.25,23.75 Z" id="Shape"></path>
                        <path d="M10,27.4875 C10.3375,27.4875 10.625,27.2125 10.625,26.8625 C10.625,26.525 10.35,26.2375 10,26.2375 C9.65,26.2375 9.375,26.5125 9.375,26.8625 C9.375,27.2125 9.6625,27.4875 10,27.4875 Z" id="Path"></path>
                        <path d="M12.5125,20 L7.5,20.0125 L7.5,16.25 L6.25,16.25 L6.25,20.0125 C6.25,20.6875 6.8,21.25 7.4875,21.25 L12.525,21.25 C13.2,21.25 13.7625,20.7 13.7625,20.0125 L13.7625,16.25 L12.5125,16.25 L12.5125,20 Z" id="Path"></path>
                        <polygon id="Path" points="4.775 15.575 5.5625 16.5375 10 12.875 14.4375 16.5375 15.225 15.575 10 11.2625"></polygon>
                        <path d="M12.6,7.3125 C11.925,6.65 11.0125,6.25 10,6.25 C8.9625,6.25 8.025,6.675 7.35,7.35 L8.2375,8.2375 C8.6875,7.775 9.3125,7.5 10,7.5 C10.6625,7.5 11.275,7.7625 11.7125,8.1875 L12.6,7.3125 Z" id="Path"></path>
                        <path d="M9.1125,9.1125 L9.95,9.95 L10.825,9.075 C10.6125,8.875 10.325,8.75 10,8.75 C9.65,8.75 9.3375,8.8875 9.1125,9.1125 Z" id="Path"></path>
                        <path d="M10,5 C11.35,5 12.5875,5.55 13.4875,6.425 L14.375,5.5375 C13.2375,4.4375 11.7,3.75 10,3.75 C8.275,3.75 6.7125,4.45 5.575,5.575 L6.4625,6.4625 C7.375,5.5625 8.625,5 10,5 Z" id="Path"></path>
                    </g>
                    <rect id="Rectangle" x="0" y="0" width="40" height="40"></rect>
                </g>
                <circle id="Oval-Copy-149" fill="#101828" cx="28" cy="28" r="28"></circle>
                <g id="011-B32px-Copy-5" transform="translate(8.000000, 8.000000)">
                    <path d="M6.25,21.275 C6.25,21.2625 6.25,21.2375 6.25,21.225 C6.25,21.2 6.25,21.175 6.25,21.15 L6.25,21.275 Z" id="Path" fill="#FFFFFF" fill-rule="nonzero"></path>
                    <path d="M15.2875,29.05 C11.025,29.025 7.5375,25.525 7.5,21.2375 C7.5375,17.65 12.5125,10.5875 15.325,6.9875 C16.875,8.95 19.0625,11.95 20.7375,14.8125 C21.0125,14.425 21.275,14.05 21.5375,13.7 C18.8625,9.2625 15.325,5 15.325,5 C15.325,5 6.3125,15.85 6.25,21.225 C6.2875,26.2375 10.3375,30.3 15.325,30.3 C15.45,30.3 15.5625,30.2875 15.675,30.2875 C15.525,29.8875 15.4,29.475 15.2875,29.05 Z" id="Path" fill="#FFFFFF" fill-rule="nonzero"></path>
                    <path d="M24.375,14.4875 C26.9125,17.7125 31.25,23.825 31.25,26.775 L31.25,26.8625 C31.25,30.6625 28.1625,33.75 24.375,33.75 C20.6125,33.75 17.525,30.6875 17.5,26.95 C17.5375,23.8375 21.85,17.7125 24.375,14.4875 L24.375,14.4875 Z M24.375,12.5 C24.375,12.5 16.3125,22.15 16.25,26.925 C16.2875,31.3875 19.9125,34.9875 24.375,34.9875 C28.8625,34.9875 32.5,31.35 32.5,26.85 L32.5,26.7625 C32.5,22.2125 24.375,12.5 24.375,12.5 L24.375,12.5 Z" id="Shape" fill="#FFFFFF" fill-rule="nonzero"></path>
                    <rect id="Rectangle" x="0" y="0" width="40" height="40"></rect>
                </g>
            </g>
        </g>
    </g>
</svg>