<?xml version="1.0" encoding="UTF-8"?>
<svg width="42px" height="42px" viewBox="0 0 42 42" version="1.1" xmlns="http://www.w3.org/2000/svg" xmlns:xlink="http://www.w3.org/1999/xlink">
    <!-- Generator: Sketch 57.1 (83088) - https://sketch.com -->
    <title>197-G40px</title>
    <desc>Created with Sketch.</desc>
    <g id="NEW_icons" stroke="none" stroke-width="1" fill="none" fill-rule="evenodd">
        <g id="icons_UD_new-Copy" transform="translate(-1526.000000, -25123.000000)">
            <g id="197-G40px" transform="translate(1527.000000, 25124.000000)">
                <circle id="Oval-Copy-1191" stroke="#E3E8EC" cx="20" cy="20" r="20"></circle>
                <g id="197-B32px-Copy" transform="translate(4.000000, 4.000000)">
                    <rect id="Rectangle" fill="#101828" fill-rule="nonzero" x="7" y="11" width="8" height="1"></rect>
                    <rect id="Rectangle" fill="#101828" fill-rule="nonzero" x="7" y="13" width="6" height="1"></rect>
                    <rect id="Rectangle" fill="#101828" fill-rule="nonzero" x="7" y="15" width="6" height="1"></rect>
                    <path d="M18,20.01 L5,20 L5.02,9 L26.98,9 L27,9.02 L26.98,20.02 L25,20.02 L25,21 L27.07,21 C27.59,20.95 28,20.53 28,20 L28,9.02 C28,8.46 27.54,8 26.98,8 L5.02,8 C4.46,8 4,8.46 4,9.02 L4,20 C4,20.56 4.46,21.02 5.02,21.02 L13.62,21.02 C10.5,21.2 8.17,21.67 7,21.96 L7,23 C8.23,22.68 11.54,21.95 15.98,21.95 C16.68,21.95 17.36,21.97 18,22 L18,20.01 Z" id="Path" fill="#101828" fill-rule="nonzero"></path>
                    <g id="Group" transform="translate(18.000000, 13.000000)" fill="#101828" fill-rule="nonzero">
                        <path d="M3.5,1 C4.88,1 6,2.12 6,3.5 C6,4.88 4.88,6 3.5,6 C2.12,6 1,4.88 1,3.5 C1,2.12 2.12,1 3.5,1 L3.5,1 Z M3.5,0 C1.57,0 0,1.57 0,3.5 C0,5.43 1.57,7 3.5,7 C5.43,7 7,5.43 7,3.5 C7,1.57 5.43,0 3.5,0 L3.5,0 Z" id="Shape"></path>
                        <path d="M3.5,3 C3.78,3 4,3.23 4,3.5 C4,3.78 3.77,4 3.5,4 C3.22,4 3,3.77 3,3.5 C3,3.23 3.22,3 3.5,3 L3.5,3 Z M3.5,2 C2.67,2 2,2.67 2,3.5 C2,4.33 2.67,5 3.5,5 C4.33,5 5,4.33 5,3.5 C5,2.67 4.33,2 3.5,2 L3.5,2 Z" id="Shape"></path>
                        <path d="M5,6.76 L5,11.36 L3.96,10.82 L3.5,10.58 L3.04,10.82 L2,11.36 L2,6.78 C2.42,6.93 2.91,7.02 3.48,7.02 C4.07,7.01 4.57,6.91 5,6.76 L5,6.76 Z M6,4.62 C6,4.62 5.5,6.01 3.48,6.01 C1.45,6.01 1,4.62 1,4.62 L1,13 L3.5,11.7 L6,13 L6,4.62 L6,4.62 Z" id="Shape"></path>
                    </g>
                    <rect id="Rectangle" x="0" y="0" width="32" height="32"></rect>
                </g>
            </g>
        </g>
    </g>
</svg>