<?xml version="1.0" encoding="UTF-8"?>
<svg width="80px" height="80px" viewBox="0 0 80 80" version="1.1" xmlns="http://www.w3.org/2000/svg" xmlns:xlink="http://www.w3.org/1999/xlink">
    <!-- Generator: Sketch 57.1 (83088) - https://sketch.com -->
    <title>087-B80px</title>
    <desc>Created with Sketch.</desc>
    <g id="087-B80px" stroke="none" stroke-width="1" fill="none" fill-rule="evenodd">
        <g>
            <path d="M47.5,65 L47.5,67.375 C47.5,67.45 47.45,67.5 47.375,67.5 L12.625,67.5 C12.55,67.5 12.5,67.45 12.5,67.375 L12.5,60 L25,60 L25,57.5 L12.5,57.5 L12.5,12.625 C12.5,12.55 12.55,12.5 12.625,12.5 L47.375,12.5 C47.45,12.5 47.5,12.55 47.5,12.625 L47.5,30 L50,30 L50,12.625 C50,11.175 48.825,10 47.375,10 L12.625,10 C11.175,10 10,11.175 10,12.625 L10,57.5 L10,60 L10,67.375 C10,68.825 11.175,70 12.625,70 L47.375,70 C48.825,70 50,68.825 50,67.375 L50,65 L47.5,65 Z" id="Path" fill="#101828" fill-rule="nonzero"></path>
            <path d="M67.5,35 L67.5,60 L30,60 L30,35 L67.5,35 L67.5,35 Z M67.5,32.5 L30,32.5 C28.625,32.5 27.5,33.625 27.5,35 L27.5,60 C27.5,61.375 28.625,62.5 30,62.5 L67.5,62.5 C68.875,62.5 70,61.375 70,60 L70,35 C70,33.625 68.875,32.5 67.5,32.5 L67.5,32.5 Z" id="Shape" fill="#101828" fill-rule="nonzero"></path>
            <path d="M67.5,40 L67.5,42.5 L30,42.5 L30,40 L67.5,40 L67.5,40 Z M70,37.5 L27.5,37.5 L27.5,45 L70,45 L70,37.5 L70,37.5 Z" id="Shape" fill="#101828" fill-rule="nonzero"></path>
            <path d="M55.625,54.875 C55.425,54.925 55.225,55 55,55 C53.625,55 52.5,53.875 52.5,52.5 C52.5,51.125 53.625,50 55,50 C55.225,50 55.425,50.075 55.625,50.125 C56.075,49.325 56.7,48.65 57.5,48.2 C56.75,47.775 55.925,47.5 55,47.5 C52.25,47.5 50,49.75 50,52.5 C50,55.25 52.25,57.5 55,57.5 C55.925,57.5 56.75,57.225 57.5,56.8 C56.7,56.35 56.075,55.675 55.625,54.875 Z" id="Path" fill="#101828" fill-rule="nonzero"></path>
            <path d="M60,50 C61.375,50 62.5,51.125 62.5,52.5 C62.5,53.875 61.375,55 60,55 C58.625,55 57.5,53.875 57.5,52.5 C57.5,51.125 58.625,50 60,50 L60,50 Z M60,47.5 C57.25,47.5 55,49.75 55,52.5 C55,55.25 57.25,57.5 60,57.5 C62.75,57.5 65,55.25 65,52.5 C65,49.75 62.75,47.5 60,47.5 L60,47.5 Z" id="Shape" fill="#101828" fill-rule="nonzero"></path>
            <rect id="Rectangle" x="0" y="0" width="80" height="80"></rect>
        </g>
    </g>
</svg>