<?xml version="1.0" encoding="UTF-8"?>
<svg width="80px" height="80px" viewBox="0 0 80 80" version="1.1" xmlns="http://www.w3.org/2000/svg" xmlns:xlink="http://www.w3.org/1999/xlink">
    <!-- Generator: Sketch 57.1 (83088) - https://sketch.com -->
    <title>214-B80px</title>
    <desc>Created with Sketch.</desc>
    <g id="214-B80px" stroke="none" stroke-width="1" fill="none" fill-rule="evenodd">
        <g>
            <path d="M23.725,37.525 C24.4,37.525 24.95,38.075 24.95,38.75 C24.95,39.425 24.4,39.975 23.725,39.975 C23.05,39.975 22.5,39.425 22.5,38.75 C22.5,38.075 23.05,37.525 23.725,37.525 L23.725,37.525 Z M23.725,35.025 C21.675,35.025 20,36.7 20,38.75 C20,40.8 21.675,42.475 23.725,42.475 C25.775,42.475 27.45,40.8 27.45,38.75 C27.45,36.7 25.775,35.025 23.725,35.025 L23.725,35.025 Z" id="Shape" fill="#101828" fill-rule="nonzero"></path>
            <path d="M56.225,30 C56.9,30 57.45,30.55 57.45,31.225 C57.45,31.9 56.9,32.45 56.225,32.45 C55.55,32.45 55,31.925 55,31.25 C55,30.575 55.55,30 56.225,30 L56.225,30 Z M56.225,27.5 C54.175,27.5 52.5,29.175 52.5,31.25 C52.5,33.325 54.175,34.975 56.225,34.975 C58.275,34.975 59.95,33.3 59.95,31.25 C59.95,29.2 58.275,27.5 56.225,27.5 L56.225,27.5 Z" id="Shape" fill="#101828" fill-rule="nonzero"></path>
            <path d="M53.1,31.4 L41.975,37 L39.475,29.5 L25.8,36.4 C26.4,36.975 26.8,37.775 26.9,38.65 L38.025,33.025 L40.525,40.525 L54.2,33.65 C53.6,33.05 53.2,32.275 53.1,31.4 Z" id="Path" fill="#101828" fill-rule="nonzero"></path>
            <path d="M67.525,17.5 L12.475,17.5 C11.1,17.5 10,18.6 10,19.975 L10,47.5 L12.475,47.5 L12.475,20 L67.5,20 L67.525,52.5 L25.675,52.5 C24.7,52.5 23.725,52.8 22.925,53.35 L14.15,59.225 L10,62.025 L10,65 L24.3,55.425 C24.725,55.15 25.2,55 25.675,55 L67.525,55 C68.875,55 70,53.9 70,52.525 L70,19.975 C70,18.6 68.9,17.5 67.525,17.5 Z" id="Path" fill="#101828" fill-rule="nonzero"></path>
            <rect id="Rectangle" x="0" y="0" width="80" height="80"></rect>
        </g>
    </g>
</svg>