<?xml version="1.0" encoding="UTF-8"?>
<svg width="80px" height="80px" viewBox="0 0 80 80" version="1.1" xmlns="http://www.w3.org/2000/svg" xmlns:xlink="http://www.w3.org/1999/xlink">
    <!-- Generator: Sketch 57.1 (83088) - https://sketch.com -->
    <title>103-B80px</title>
    <desc>Created with Sketch.</desc>
    <g id="103-B80px" stroke="none" stroke-width="1" fill="none" fill-rule="evenodd">
        <g>
            <path d="M20,57.5 L20,67.5 L17.5,67.5 L17.5,57.5 L20,57.5 L20,57.5 Z M20,55 L17.5,55 C16.125,55 15,56.125 15,57.5 L15,67.5 C15,68.875 16.125,70 17.5,70 L20,70 C21.375,70 22.5,68.875 22.5,67.5 L22.5,57.5 C22.5,56.125 21.375,55 20,55 L20,55 Z" id="Shape" fill="#101828" fill-rule="nonzero"></path>
            <path d="M25,47.5 L12.5,47.5 C11.125,47.5 10,48.625 10,50 L10,62.5 C10,63.875 11.125,65 12.5,65 L17.5,65 L17.5,62.5 L12.5,62.5 L12.5,50 L25,50 L25,62.5 L20,62.5 L20,65 L25,65 C26.375,65 27.5,63.875 27.5,62.5 L27.5,50 C27.5,48.625 26.375,47.5 25,47.5 Z" id="Path" fill="#101828" fill-rule="nonzero"></path>
            <path d="M62.5,12.5 L62.5,22.5 L60,22.5 L60,12.5 L62.5,12.5 L62.5,12.5 Z M62.5,10 L60,10 C58.625,10 57.5,11.125 57.5,12.5 L57.5,22.5 C57.5,23.875 58.625,25 60,25 L62.5,25 C63.875,25 65,23.875 65,22.5 L65,12.5 C65,11.125 63.875,10 62.5,10 L62.5,10 Z" id="Shape" fill="#101828" fill-rule="nonzero"></path>
            <path d="M67.5,15 L62.5,15 L62.5,17.5 L67.5,17.5 L67.5,30 L55,30 L55,17.5 L60,17.5 L60,15 L55,15 C53.625,15 52.5,16.125 52.5,17.5 L52.5,30 C52.5,31.375 53.625,32.5 55,32.5 L67.5,32.5 C68.875,32.5 70,31.375 70,30 L70,17.5 C70,16.125 68.875,15 67.5,15 Z" id="Path" fill="#101828" fill-rule="nonzero"></path>
            <path d="M20,48.75 L17.5,48.75 L17.5,42.9 C17.5,38.25 20.15,34.275 24.45,32.5 C28.725,30.725 33.425,31.65 36.7,34.95 L45.05,43.3 C47.6,45.85 51.25,46.575 54.575,45.2 C57.9,43.825 59.975,40.725 59.975,37.125 L59.975,31.25 L62.475,31.25 L62.475,37.1 C62.475,41.75 59.825,45.725 55.525,47.5 C51.25,49.275 46.55,48.325 43.275,45.05 L34.925,36.7 C32.375,34.15 28.725,33.425 25.4,34.8 C22.075,36.2 20,39.275 20,42.9 L20,48.75 Z" id="Path" fill="#101828" fill-rule="nonzero"></path>
            <rect id="Rectangle" x="0" y="0" width="80" height="80"></rect>
        </g>
    </g>
</svg>