<?xml version="1.0" encoding="UTF-8"?>
<svg width="32px" height="32px" viewBox="0 0 32 32" version="1.1" xmlns="http://www.w3.org/2000/svg" xmlns:xlink="http://www.w3.org/1999/xlink">
    <!-- Generator: Sketch 57.1 (83088) - https://sketch.com -->
    <title>009-B32px</title>
    <desc>Created with Sketch.</desc>
    <g id="009-B32px" stroke="none" stroke-width="1" fill="none" fill-rule="evenodd">
        <g>
            <path d="M6.18,21.19 C6.18,21.19 6.17,21.19 6.17,21.19 C5.93,21.18 5.73,21 5.69,20.76 C5.66,20.55 4.94,15.6 6.37,12.95 C7.47,10.93 9.17,9.23 11.44,7.89 C13.77,6.52 13.94,5.62 14.13,4.68 C14.18,4.43 14.44,4.23 14.66,4.24 C14.91,4.26 15.12,4.42 15.13,4.67 C15.35,8.41 14.59,11.39 12.99,13.07 C12.19,13.91 11.38,14.57 10.6,15.21 C8.81,16.67 7.27,17.93 6.67,20.8 C6.62,21.03 6.42,21.19 6.18,21.19 Z M14.14,7.04 C13.69,7.57 13.01,8.13 11.94,8.76 C9.84,10 8.26,11.57 7.25,13.43 C6.55,14.71 6.44,16.7 6.49,18.26 C7.35,16.56 8.63,15.52 9.97,14.43 C10.73,13.81 11.51,13.17 12.27,12.38 C13.35,11.25 13.99,9.4 14.14,7.04 Z" id="Shape" fill="#101828" fill-rule="nonzero"></path>
            <path d="M12.45,26.72 C12.45,26.72 12.44,26.72 12.44,26.72 C12.2,26.71 12,26.53 11.96,26.29 C11.92,26.02 10.98,19.61 12.84,16.2 C14.26,13.59 16.46,11.39 19.39,9.67 C22.48,7.84 22.72,6.65 22.97,5.38 L22.99,5.27 C23.04,5.02 23.25,4.86 23.51,4.87 C23.76,4.89 23.96,5.09 23.97,5.34 C24.26,10.17 23.28,14.02 21.22,16.18 C20.18,17.27 19.13,18.12 18.12,18.95 C15.77,20.87 13.73,22.53 12.95,26.32 C12.89,26.56 12.69,26.72 12.45,26.72 Z M23,7.98 C22.44,8.74 21.51,9.58 19.88,10.54 C17.11,12.17 15.04,14.24 13.71,16.69 C12.69,18.56 12.62,21.57 12.72,23.69 C13.82,21.16 15.61,19.71 17.48,18.18 C18.47,17.37 19.49,16.54 20.49,15.49 C22,13.93 22.86,11.31 23,7.98 Z" id="Shape" fill="#101828" fill-rule="nonzero"></path>
            <path d="M19.72,27.64 C19.72,27.64 19.71,27.64 19.71,27.64 C19.47,27.63 19.26,27.45 19.23,27.21 C19.21,27.06 18.69,23.5 19.73,21.58 C20.52,20.12 21.75,18.9 23.38,17.94 C24.97,17 25.09,16.43 25.22,15.76 C25.27,15.51 25.49,15.32 25.75,15.33 C26,15.35 26.21,15.52 26.22,15.77 C26.38,18.46 25.83,20.62 24.66,21.84 C24.08,22.44 23.51,22.91 22.95,23.37 C21.65,24.43 20.63,25.27 20.21,27.25 C20.16,27.47 19.96,27.64 19.72,27.64 Z M25.19,17.86 C24.88,18.16 24.46,18.47 23.89,18.81 C22.42,19.68 21.32,20.77 20.62,22.07 C20.22,22.81 20.1,23.9 20.09,24.88 C20.69,23.92 21.5,23.27 22.33,22.59 C22.86,22.15 23.41,21.71 23.95,21.15 C24.61,20.43 25.04,19.3 25.19,17.86 Z" id="Shape" fill="#101828" fill-rule="nonzero"></path>
            <rect id="Rectangle" x="0" y="0" width="32" height="32"></rect>
        </g>
    </g>
</svg>