<?xml version="1.0" encoding="UTF-8"?>
<svg width="32px" height="32px" viewBox="0 0 32 32" version="1.1" xmlns="http://www.w3.org/2000/svg" xmlns:xlink="http://www.w3.org/1999/xlink">
    <!-- Generator: Sketch 57.1 (83088) - https://sketch.com -->
    <title>205-B32px</title>
    <desc>Created with Sketch.</desc>
    <g id="205-B32px" stroke="none" stroke-width="1" fill="none" fill-rule="evenodd">
        <g>
            <path d="M26.98,10 L27,10.02 L26.98,21 L5,20.98 L5.02,10 L26.98,10 L26.98,10 Z M26.98,9 L5.02,9 C4.46,9 4,9.46 4,10.02 L4,20.98 C4,21.54 4.46,22 5.02,22 L26.98,22 C27.54,22 28,21.54 28,20.98 L28,10.02 C28,9.46 27.54,9 26.98,9 L26.98,9 Z" id="Shape" fill="#101828" fill-rule="nonzero"></path>
            <path d="M15.98,21.95 C11.67,21.95 8.44,22.61 7,22.97 L7,24 C8.24,23.68 11.54,22.95 15.98,22.95 C20.46,22.95 23.79,23.69 25,24.01 L25,22.98 C23.57,22.61 20.33,21.95 15.98,21.95 Z" id="Path" fill="#101828" fill-rule="nonzero"></path>
            <g id="Group" transform="translate(10.000000, 11.000000)" fill="#101828" fill-rule="nonzero">
                <path d="M2.37,7.85 C2.31,7.85 2.24,7.84 2.18,7.81 C1.92,7.71 1.8,7.42 1.9,7.16 L3.43,3.34 C3.53,3.08 3.82,2.96 4.08,3.06 C4.34,3.16 4.46,3.45 4.36,3.71 L2.83,7.53 C2.76,7.73 2.57,7.85 2.37,7.85 Z" id="Path"></path>
                <path d="M6.01,9.01 C2.74,9.01 0.52,7.56 0.38,7.47 C0.15,7.32 0.09,7.01 0.24,6.78 C0.39,6.55 0.7,6.49 0.93,6.64 C1.12,6.76 5.62,9.67 11.23,6.62 C11.47,6.49 11.77,6.58 11.91,6.82 C12.04,7.06 11.95,7.37 11.71,7.5 C9.64,8.63 7.69,9.01 6.01,9.01 Z" id="Path"></path>
                <path d="M11.05,2.58 C11.05,1.84 9.82,1.54 9.71,1.35 C9.6,1.16 9.69,0.35 9.69,0.35 L9.19,0.35 C7.77,0.35 6.62,1.5 6.62,2.92 C6.62,2.97 6.58,3.01 6.53,3.01 L2.66,3.01 C1.89,3.01 1.27,3.63 1.27,4.4 C1.27,4.68 1.49,4.9 1.77,4.9 C2.05,4.9 2.27,4.68 2.27,4.4 C2.27,4.19 2.44,4.01 2.66,4.01 L6.53,4.01 C7.13,4.01 7.62,3.52 7.62,2.92 C7.62,2.22 8.08,1.63 8.71,1.43 C8.75,1.69 8.77,1.91 9.02,2.02 C9.16,2.08 9.83,2.33 9.91,2.36 C10.02,2.4 10.1,2.44 10.1,2.55 C10.1,2.66 10,2.72 9.91,2.74 C9.84,2.75 8.98,2.91 8.9,2.95 C8.83,2.99 8.77,3.02 8.72,3.08 C8.54,3.29 8.47,3.56 8.52,3.88 L9.29,7.47 C9.34,7.7 9.55,7.86 9.78,7.86 C9.82,7.86 9.85,7.86 9.89,7.85 C10.16,7.79 10.33,7.53 10.27,7.26 L9.49,3.75 C9.74,3.72 10.4,3.49 10.65,3.33 C11,3.08 11.05,2.86 11.05,2.58 Z" id="Path"></path>
                <path d="M3.75,8.65 C3.73,8.65 3.72,8.65 3.7,8.65 C3.42,8.62 3.22,8.38 3.25,8.11 C3.39,6.64 4.61,5.54 6.09,5.54 C7.55,5.54 8.77,6.63 8.93,8.08 C8.96,8.35 8.76,8.6 8.49,8.63 C8.22,8.66 7.97,8.46 7.94,8.19 C7.84,7.25 7.05,6.54 6.1,6.54 C5.14,6.54 4.35,7.26 4.26,8.21 C4.22,8.45 4.01,8.65 3.75,8.65 Z" id="Path"></path>
            </g>
            <rect id="Rectangle" x="0" y="0" width="32" height="32"></rect>
        </g>
    </g>
</svg>