<?xml version="1.0" encoding="UTF-8"?>
<svg width="80px" height="80px" viewBox="0 0 80 80" version="1.1" xmlns="http://www.w3.org/2000/svg" xmlns:xlink="http://www.w3.org/1999/xlink">
    <!-- Generator: Sketch 57.1 (83088) - https://sketch.com -->
    <title>228-G80px</title>
    <desc>Created with Sketch.</desc>
    <g id="NEW_icons" stroke="none" stroke-width="1" fill="none" fill-rule="evenodd">
        <g id="icons_UD_new-Copy" transform="translate(-768.000000, -29103.000000)">
            <g id="228-G80px" transform="translate(768.000000, 29103.000000)">
                <circle id="Oval-Copy-1338" fill="#E3E8EC" cx="40" cy="40" r="40"></circle>
                <g id="228-B32px-Copy-6" transform="translate(12.000000, 16.000000)">
                    <path d="M21,29.54 L22.9425,30.7475 L21,31.955 L21,29.54 L21,29.54 Z M19.25,26.4075 L19.25,35.105 L26.25,30.765 L19.25,26.4075 L19.25,26.4075 Z" id="Shape" fill="#101828" fill-rule="nonzero"></path>
                    <path d="M36.75,24.325 L38.6925,25.5325 L36.75,26.7575 L36.75,24.325 L36.75,24.325 Z M35,21.1925 L35,29.89 L42,25.55 L35,21.1925 L35,21.1925 Z" id="Shape" fill="#101828" fill-rule="nonzero"></path>
                    <path d="M21,19.11 L22.9425,20.3175 L21,21.5425 L21,19.11 L21,19.11 Z M19.25,15.9775 L19.25,24.675 L26.25,20.335 L19.25,15.9775 L19.25,15.9775 Z" id="Shape" fill="#101828" fill-rule="nonzero"></path>
                    <rect id="Rectangle" fill="#101828" fill-rule="nonzero" x="29.75" y="12.25" width="1.75" height="26.32"></rect>
                    <path d="M47.25,8.75 L47.25,12.25 C47.25,17.7275 46.1125,25.8825 44.2225,30.065 C41.615,35.805 36.715,43.365 28,47.11 C19.285,43.365 14.3675,35.805 11.7775,30.065 C9.8875,25.8825 8.75,17.71 8.75,12.25 L8.75,8.75 L47.25,8.75 L47.25,8.75 Z M49,7 L7,7 L7,12.25 C7,17.43 8.05,26.0575 10.185,30.7825 C13.1075,37.24 18.48,45.185 28,49 C37.52,45.185 42.8925,37.24 45.815,30.7825 C47.95,26.0575 49,17.43 49,12.25 L49,7 L49,7 Z" id="Shape" fill="#101828" fill-rule="nonzero"></path>
                    <rect id="Rectangle" x="0" y="0" width="56" height="56"></rect>
                </g>
            </g>
        </g>
    </g>
</svg>