<?xml version="1.0" encoding="UTF-8"?>
<svg width="56px" height="56px" viewBox="0 0 56 56" version="1.1" xmlns="http://www.w3.org/2000/svg" xmlns:xlink="http://www.w3.org/1999/xlink">
    <!-- Generator: Sketch 56.3 (81716) - https://sketch.com -->
    <title>028-G56px</title>
    <desc>Created with Sketch.</desc>
    <g id="NEW_icons" stroke="none" stroke-width="1" fill="none" fill-rule="evenodd">
        <g id="icons_UD_new-Copy" transform="translate(-446.000000, -3864.000000)">
            <g id="028-G56px" transform="translate(446.000000, 3864.000000)">
                <circle id="Oval-Copy-254" fill="#E3E8EC" cx="28" cy="28" r="28"></circle>
                <g id="028-B32px-Copy-3" transform="translate(8.000000, 8.000000)">
                    <path d="M14.25,20.7125 C13.525,21.05 12.725,21.25 11.875,21.25 C8.775,21.25 6.25,18.725 6.25,15.625 C6.25,12.525 8.775,10 11.875,10 C14.975,10 17.5,12.525 17.5,15.625 C17.5,16.6125 17.225,17.525 16.775,18.3375 C17.2875,18.05 17.85,17.8375 18.4375,17.7 C18.6375,17.0375 18.75,16.35 18.75,15.625 C18.75,11.825 15.675,8.75 11.875,8.75 C8.075,8.75 5,11.825 5,15.625 C5,19.425 8.075,22.5 11.875,22.5 C12.425,22.5 12.9625,22.425 13.4875,22.3 C13.675,21.7375 13.9375,21.2 14.25,20.7125 Z" id="Path" fill="#101828" fill-rule="nonzero"></path>
                    <path d="M28.125,8.75 C24.325,8.75 21.25,11.825 21.25,15.625 C21.25,16.35 21.3625,17.0375 21.5625,17.6875 C22.15,17.825 22.7,18.05 23.225,18.325 C22.775,17.525 22.5,16.6125 22.5,15.625 C22.5,12.525 25.025,10 28.125,10 C31.225,10 33.75,12.525 33.75,15.625 C33.75,18.725 31.225,21.25 28.125,21.25 C27.275,21.25 26.475,21.05 25.75,20.7 C26.0625,21.1875 26.325,21.725 26.5125,22.3 C27.025,22.425 27.5625,22.5 28.125,22.5 C31.925,22.5 35,19.425 35,15.625 C35,11.825 31.925,8.75 28.125,8.75 Z" id="Path" fill="#101828" fill-rule="nonzero"></path>
                    <path d="M20,20 C22.375,20 24.325,22.05 24.35,24.5375 C24.325,26.4 21.9625,30.2 20,32.8625 C18.025,30.2 15.65,26.425 15.65,24.6625 L15.65,24.6 C15.65,22.0625 17.6,20 20,20 L20,20 Z M20,18.75 L20,18.75 C16.9125,18.75 14.4,21.3625 14.4,24.6 L14.4,24.6625 C14.4,27.9375 20,34.925 20,34.925 C20,34.925 25.5625,27.9875 25.5875,24.55 C25.575,21.3375 23.075,18.75 20,18.75 L20,18.75 Z" id="Shape" fill="#101828" fill-rule="nonzero"></path>
                    <path d="M20,22.5 C21,22.5 21.8,23.3375 21.8,24.375 C21.8,25.4125 21,26.25 20,26.25 C19,26.25 18.2,25.4125 18.2,24.375 C18.2,23.3375 19,22.5 20,22.5 L20,22.5 Z M20,21.25 C18.3125,21.25 16.95,22.65 16.95,24.375 C16.95,26.1 18.3125,27.5 20,27.5 C21.6875,27.5 23.05,26.1 23.05,24.375 C23.05,22.65 21.6875,21.25 20,21.25 L20,21.25 Z" id="Shape" fill="#101828" fill-rule="nonzero"></path>
                    <path d="M25.625,15 C25.275,15 25,15.275 25,15.625 C25,15.975 25.275,16.25 25.625,16.25 C25.975,16.25 26.25,15.975 26.25,15.625 C26.25,15.275 25.975,15 25.625,15 L25.625,15 Z" id="Path" fill="#101828" fill-rule="nonzero"></path>
                    <path d="M30.625,15 C30.275,15 30,15.275 30,15.625 C30,15.975 30.275,16.25 30.625,16.25 C30.975,16.25 31.25,15.975 31.25,15.625 C31.25,15.275 30.975,15 30.625,15 L30.625,15 Z" id="Path" fill="#101828" fill-rule="nonzero"></path>
                    <path d="M9.375,15 C9.025,15 8.75,15.275 8.75,15.625 C8.75,15.975 9.025,16.25 9.375,16.25 C9.725,16.25 10,15.975 10,15.625 C10,15.275 9.725,15 9.375,15 L9.375,15 Z" id="Path" fill="#101828" fill-rule="nonzero"></path>
                    <path d="M14.375,15 C14.025,15 13.75,15.275 13.75,15.625 C13.75,15.975 14.025,16.25 14.375,16.25 C14.725,16.25 15,15.975 15,15.625 C15,15.275 14.725,15 14.375,15 L14.375,15 Z" id="Path" fill="#101828" fill-rule="nonzero"></path>
                    <path d="M25.125,18.9 C26.8625,20.3625 29.4,20.3625 31.125,18.9 L30.375,17.9 C29.0875,19.0375 27.15,19.025 25.8625,17.9 L25.125,18.9 Z" id="Path" fill="#101828" fill-rule="nonzero"></path>
                    <path d="M8.875,18.9 C10.6125,20.3625 13.15,20.3625 14.875,18.9 L14.125,17.9 C12.8375,19.0375 10.9,19.025 9.6125,17.9 L8.875,18.9 Z" id="Path" fill="#101828" fill-rule="nonzero"></path>
                    <g id="Group" transform="translate(8.750000, 6.250000)" fill="#101828" fill-rule="nonzero">
                        <path d="M3.75,3.75 L2.5,3.75 C2.5,2.675 3.15,0.625 5.625,0.625 L5.625,1.875 C3.8625,1.875 3.75,3.4375 3.75,3.75 Z" id="Path"></path>
                        <path d="M2.5,3.75 C2.5,3.4375 2.3875,1.875 0.625,1.875 L0.625,0.625 C3.1,0.625 3.75,2.675 3.75,3.75 L2.5,3.75 L3.125,3.75 L2.5,3.75 Z" id="Path"></path>
                    </g>
                    <g id="Group" transform="translate(23.750000, 5.000000)" fill="#101828" fill-rule="nonzero">
                        <polygon id="Path" points="1.25 5.525 0 5.525 0 1 4.5625 2.4875 4.175 3.675 1.25 2.725"></polygon>
                        <polygon id="Path" points="8.7375 5.525 7.4875 5.525 7.4875 2.725 4.575 3.675 4.175 2.4875 8.7375 1"></polygon>
                        <rect id="Rectangle" x="3.75" y="2.5" width="1.25" height="1.25"></rect>
                    </g>
                    <polygon id="Path" fill="#101828" fill-rule="nonzero" points="17.5 13.75 11.6125 13.75 10.625 12.7625 9.6375 13.75 6.25 13.75 6.25 12.5 9.1125 12.5 10.625 10.9875 12.1375 12.5 17.5 12.5"></polygon>
                    <polygon id="Path" fill="#101828" fill-rule="nonzero" points="33.75 13.75 27.8625 13.75 26.875 12.7625 25.8875 13.75 22.5 13.75 22.5 12.5 25.3625 12.5 26.875 10.9875 28.3875 12.5 33.75 12.5"></polygon>
                    <rect id="Rectangle" x="0" y="0" width="40" height="40"></rect>
                </g>
            </g>
        </g>
    </g>
</svg>