<?xml version="1.0" encoding="UTF-8"?>
<svg width="80px" height="80px" viewBox="0 0 80 80" version="1.1" xmlns="http://www.w3.org/2000/svg" xmlns:xlink="http://www.w3.org/1999/xlink">
    <!-- Generator: Sketch 57.1 (83088) - https://sketch.com -->
    <title>194-B80px</title>
    <desc>Created with Sketch.</desc>
    <g id="194-B80px" stroke="none" stroke-width="1" fill="none" fill-rule="evenodd">
        <g>
            <path d="M33.75,65 C34.425,65 35,64.45 35,63.75 C35,63.05 34.45,62.5 33.75,62.5 C33.075,62.5 32.5,63.05 32.5,63.75 C32.525,64.45 33.075,65 33.75,65" id="Path" fill="#101828" fill-rule="nonzero"></path>
            <rect id="Rectangle" fill="#101828" fill-rule="nonzero" x="15" y="57.5" width="37.5" height="2.5"></rect>
            <path d="M52.525,52.5 L52.55,67.5 L17.5,67.55 L17.45,12.5 L52.5,12.5 L52.525,35 L55,35 L55,12.45 C55,11.1 53.9,10 52.55,10 L17.45,10 C16.1,10 15,11.1 15,12.45 L15,67.55 C15,68.9 16.1,70 17.45,70 L52.55,70 C53.9,70 55,68.9 55,67.55 L55,52.5 L52.525,52.5 Z" id="Path" fill="#101828" fill-rule="nonzero"></path>
            <rect id="Rectangle" fill="#101828" fill-rule="nonzero" x="22.5" y="42.5" width="35" height="2.5"></rect>
            <path d="M60,39.8 L65.65,43.75 L60,47.7 L60,39.8 L60,39.8 Z M57.5,35 L57.5,52.5 L70,43.75 L57.5,35 L57.5,35 Z" id="Shape" fill="#101828" fill-rule="nonzero"></path>
            <path d="M34.275,30 L30.425,30 L30.425,32.5 L33.625,32.5 C32.8,34 31.3,35 29.575,35 C26.975,35 25,32.75 25,30 C25,27.25 26.975,25 29.575,25 C31.325,25 32.825,26 33.625,27.5 L36.2,27.5 C35.225,24.6 32.625,22.5 29.55,22.5 C25.675,22.5 22.5,25.85 22.5,30 C22.5,34.15 25.675,37.5 29.575,37.5 C33.475,37.5 36.65,34.15 36.65,30 L36.65,30 L34.275,30 Z" id="Path" fill="#101828" fill-rule="nonzero"></path>
            <path d="M43.1,25 C44.15,25 45,25.85 45,26.9 C45,27.95 44.15,28.8 43.1,28.8 L40,28.8 L40,25 L43.1,25 L43.1,25 Z M43.1,22.5 L37.5,22.5 L37.5,31.3 L43.1,31.3 C45.525,31.3 47.5,29.325 47.5,26.9 L47.5,26.9 C47.5,24.475 45.525,22.5 43.1,22.5 L43.1,22.5 Z" id="Shape" fill="#101828" fill-rule="nonzero"></path>
            <path d="M43.1,31.2 C44.15,31.2 45,32.05 45,33.1 C45,34.15 44.15,35 43.1,35 L40,35 L40,31.2 L43.1,31.2 L43.1,31.2 Z M43.1,28.7 L37.5,28.7 L37.5,37.5 L43.1,37.5 C45.525,37.5 47.5,35.525 47.5,33.1 C47.5,30.675 45.525,28.7 43.1,28.7 L43.1,28.7 Z" id="Shape" fill="#101828" fill-rule="nonzero"></path>
            <rect id="Rectangle" x="0" y="0" width="80" height="80"></rect>
        </g>
    </g>
</svg>