<?xml version="1.0" encoding="UTF-8"?>
<svg width="80px" height="80px" viewBox="0 0 80 80" version="1.1" xmlns="http://www.w3.org/2000/svg" xmlns:xlink="http://www.w3.org/1999/xlink">
    <!-- Generator: Sketch 57.1 (83088) - https://sketch.com -->
    <title>152-B80px</title>
    <desc>Created with Sketch.</desc>
    <g id="152-B80px" stroke="none" stroke-width="1" fill="none" fill-rule="evenodd">
        <g>
            <path d="M67.45,25 L67.5,25.05 L67.45,52.55 L12.5,52.5 L12.55,25 L67.45,25 L67.45,25 Z M67.45,22.5 L12.55,22.5 C11.15,22.5 10,23.65 10,25.05 L10,52.5 C10,53.9 11.15,55.05 12.55,55.05 L67.45,55.05 C68.85,55.05 70,53.9 70,52.5 L70,25.05 C70,23.65 68.85,22.5 67.45,22.5 L67.45,22.5 Z" id="Shape" fill="#101828" fill-rule="nonzero"></path>
            <g id="Group" transform="translate(17.500000, 30.000000)" fill="#101828" fill-rule="nonzero">
                <rect id="Rectangle" x="0.05" y="2.15" width="2.1" height="1.825"></rect>
                <path d="M0.05,4.975 L2.15,4.975 L2.15,8.2 C2.15,8.2 2.15,10.85 4.975,10.675 C4.975,10.675 5.525,12.075 6.55,12.5 L4.225,12.5 C4.225,12.5 0,12.625 0,8.15 L0.05,4.975 Z" id="Path"></path>
                <path d="M3.075,2.15 L5.175,2.15 L5.175,0 L7.275,0 L7.275,2.15 L8.75,2.15 C8.75,2.15 11.225,1.925 12.275,4.55 C13.2,6.875 14.225,9.85 14.225,9.85 L17.625,0 L19.9,0 L15.6,12.5 L12.875,12.5 L10.325,5.25 C10.325,5.25 10,4 8.675,4 C7.825,4 7.35,4 7.35,4 L7.35,8.225 C7.35,8.225 7.425,10.625 9.7,10.625 L11.35,10.625 L11.975,12.5 C11.975,12.5 9.45,12.475 9.2,12.475 C8.175,12.475 5.225,11.925 5.225,8.225 L5.225,4 L3.05,4 L3.075,2.15 Z" id="Path"></path>
            </g>
            <g id="Group" transform="translate(37.500000, 37.500000)" fill="#101828" fill-rule="nonzero">
                <path d="M22.2,2.475 C22.2,2.5 22.225,2.55 22.225,2.575 C23.15,5.025 24.05,7.475 24.975,9.925 C24.975,9.95 24.975,9.95 25,9.975 C24.2,9.975 23.4,9.975 22.6,9.975 C22.55,9.8 22.475,9.6 22.425,9.425 C22.375,9.3 22.35,9.15 22.3,9.025 C22.3,8.975 22.275,8.975 22.225,8.975 C21.35,8.975 20.475,8.975 19.6,8.975 C19.55,8.975 19.55,9 19.525,9.025 C19.425,9.325 19.35,9.625 19.25,9.925 C19.25,9.95 19.25,9.95 19.225,9.975 C18.45,9.975 17.675,9.975 16.875,9.975 C17.8,7.475 18.725,4.975 19.675,2.475 C20.525,2.475 21.375,2.475 22.2,2.475 Z M19.975,7.55 C20.625,7.55 21.25,7.55 21.9,7.55 C21.575,6.5 21.25,5.475 20.925,4.425 C20.925,4.425 20.925,4.425 20.9,4.425 C20.575,5.475 20.275,6.5 19.975,7.55 Z" id="Shape"></path>
                <path d="M7.225,2.5 C7.075,2.875 6.925,3.275 6.775,3.65 C6.725,3.775 6.675,3.925 6.625,4.05 C6.6,4.1 6.575,4.125 6.525,4.125 C5.625,4.125 4.7,4.125 3.8,4.125 C3.7,4.125 3.7,4.125 3.7,4.225 C3.7,4.675 3.7,5.15 3.7,5.6 C3.7,5.675 3.7,5.675 3.775,5.675 C4.5,5.675 5.25,5.675 5.975,5.675 C6,5.675 6.025,5.675 6.05,5.675 C6.05,5.7 6.05,5.725 6.025,5.725 C5.825,6.225 5.625,6.75 5.4,7.25 C5.375,7.3 5.375,7.3 5.325,7.3 C4.8,7.3 4.275,7.3 3.75,7.3 C3.725,7.3 3.7,7.3 3.675,7.3 C3.675,8.2 3.675,9.1 3.675,10 C3.65,10 3.625,10 3.6,10 C2.825,10 2.075,10 1.3,10 C1.275,10 1.25,10 1.225,10 C1.225,7.5 1.225,5 1.225,2.5 C3.25,2.5 5.25,2.5 7.225,2.5 Z" id="Path"></path>
                <path d="M18.075,2.475 C17.925,2.85 17.8,3.225 17.65,3.6 C17.6,3.75 17.525,3.9 17.475,4.05 C17.45,4.1 17.425,4.125 17.375,4.125 C16.475,4.125 15.575,4.125 14.65,4.125 C14.525,4.125 14.55,4.125 14.55,4.225 C14.55,4.675 14.55,5.125 14.55,5.6 C14.55,5.625 14.55,5.65 14.55,5.675 C15.35,5.675 16.125,5.675 16.925,5.675 C16.925,5.7 16.9,5.725 16.9,5.725 C16.7,6.225 16.5,6.725 16.275,7.25 C16.25,7.3 16.225,7.3 16.175,7.3 C15.65,7.3 15.125,7.3 14.625,7.3 C14.6,7.3 14.575,7.3 14.55,7.3 C14.55,8.2 14.55,9.1 14.55,10 C13.725,10 12.925,10 12.1,10 C12.1,9.975 12.1,9.95 12.1,9.925 C12.1,7.475 12.1,5.025 12.1,2.6 C12.1,2.575 12.1,2.55 12.1,2.5 C14.1,2.5 16.075,2.5 18.075,2.475 Z" id="Path"></path>
                <path d="M10.425,2.5 C10.425,3.525 10.425,4.575 10.425,5.6 C10.425,7.05 10.425,8.475 10.425,9.925 C10.425,9.95 10.425,9.975 10.425,10 C9.625,10 8.825,10 8,10 C8,9.975 8,9.95 8,9.95 C8,7.475 8,5.025 8,2.55 C8,2.525 8,2.525 8,2.5 C8.8,2.5 9.6,2.5 10.425,2.5 Z" id="Path"></path>
            </g>
            <polygon id="Path" fill="#101828" fill-rule="nonzero" points="47.5 32.5 45 32.5 45 30 42.5 30 42.5 32.5 40 32.5 40 35 42.5 35 42.5 37.5 45 37.5 45 35 47.5 35"></polygon>
            <path d="M39.95,54.875 C29.175,54.875 21.1,56.525 17.5,57.425 L17.5,60 C20.575,59.2 28.85,57.375 39.95,57.375 C51.15,57.375 59.475,59.225 62.5,60.025 L62.5,57.45 C58.925,56.525 50.825,54.875 39.95,54.875 Z" id="Path" fill="#101828" fill-rule="nonzero"></path>
            <rect id="Rectangle" x="0" y="0" width="80" height="80"></rect>
        </g>
    </g>
</svg>