<?xml version="1.0" encoding="UTF-8"?>
<svg width="32px" height="32px" viewBox="0 0 32 32" version="1.1" xmlns="http://www.w3.org/2000/svg" xmlns:xlink="http://www.w3.org/1999/xlink">
    <!-- Generator: Sketch 57.1 (83088) - https://sketch.com -->
    <title>092-B32px</title>
    <desc>Created with Sketch.</desc>
    <g id="092-B32px" stroke="none" stroke-width="1" fill="none" fill-rule="evenodd">
        <g>
            <path d="M16,26 C16.27,26 16.49,25.78 16.49,25.5 C16.49,25.22 16.27,25 16,25 C15.73,25 15.51,25.22 15.51,25.5 C15.51,25.78 15.73,26 16,26" id="Path" fill="#101828" fill-rule="nonzero"></path>
            <rect id="Rectangle" fill="#101828" fill-rule="nonzero" x="8" y="23" width="15.77" height="1"></rect>
            <path d="M12.44,12 C12.7,12 12.92,12.22 12.92,12.5 C12.92,12.78 12.7,13 12.44,13 C12.18,13 11.96,12.78 11.96,12.5 C11.96,12.22 12.17,12 12.44,12 L12.44,12 Z M12.44,11 C11.62,11 10.96,11.67 10.96,12.5 C10.96,13.33 11.62,14 12.44,14 C13.26,14 13.92,13.33 13.92,12.5 C13.92,11.67 13.25,11 12.44,11 L12.44,11 Z" id="Shape" fill="#101828" fill-rule="nonzero"></path>
            <path d="M12.44,14 C12.7,14 12.92,14.22 12.92,14.5 C12.92,14.78 12.7,15 12.44,15 C12.18,15 11.96,14.78 11.96,14.5 C11.96,14.22 12.17,14 12.44,14 L12.44,14 Z M12.44,13 C11.62,13 10.96,13.67 10.96,14.5 C10.96,15.33 11.62,16 12.44,16 C13.26,16 13.92,15.33 13.92,14.5 C13.92,13.67 13.25,13 12.44,13 L12.44,13 Z" id="Shape" fill="#101828" fill-rule="nonzero"></path>
            <path d="M23,17 L23,26.95 C23,26.98 22.98,27 22.95,27 L9.05,27 C9.02,27 9,26.98 9,26.95 L9,5.05 C9,5.02 9.02,5 9.05,5 L22.95,5 C22.98,5 23,5.02 23,5.05 L23,10 L24,10 L24,5.05 C24,4.47 23.53,4 22.95,4 L9.05,4 C8.47,4 8,4.47 8,5.05 L8,26.95 C8,27.53 8.47,28 9.05,28 L22.95,28 C23.53,28 24,27.53 24,26.95 L24,17 L23,17 Z" id="Path" fill="#101828" fill-rule="nonzero"></path>
            <polygon id="Path" fill="#101828" fill-rule="nonzero" points="14.51 16 15.63 16 16.36 14.58 17.1 16 18.21 16 16.92 13.51 18.22 11 17.11 11 16.36 12.43 15.62 11 14.5 11 15.8 13.51"></polygon>
            <polygon id="Path" fill="#101828" fill-rule="nonzero" points="18.85 16 19.97 16 20.7 14.58 21.44 16 22.56 16 21.26 13.51 22.56 11 21.45 11 20.7 12.43 19.96 11 18.84 11 20.15 13.51"></polygon>
            <polygon id="Path" fill="#101828" fill-rule="nonzero" points="23.29 16 24.4 16 25.14 14.58 25.88 16 26.99 16 25.7 13.51 27 11 25.89 11 25.14 12.43 24.4 11 23.28 11 24.58 13.51"></polygon>
            <rect id="Rectangle" x="0" y="0" width="32" height="32"></rect>
        </g>
    </g>
</svg>