<?xml version="1.0" encoding="UTF-8"?>
<svg width="56px" height="56px" viewBox="0 0 56 56" version="1.1" xmlns="http://www.w3.org/2000/svg" xmlns:xlink="http://www.w3.org/1999/xlink">
    <!-- Generator: Sketch 57.1 (83088) - https://sketch.com -->
    <title>106-G56px</title>
    <desc>Created with Sketch.</desc>
    <g id="NEW_icons" stroke="none" stroke-width="1" fill="none" fill-rule="evenodd">
        <g id="icons_UD_new-Copy" transform="translate(-446.000000, -13805.000000)">
            <g id="106-G56px" transform="translate(446.000000, 13805.000000)">
                <circle id="Oval-Copy-665" fill="#E3E8EC" cx="28" cy="28" r="28"></circle>
                <g id="106-B32px-Copy-4" transform="translate(8.000000, 8.000000)">
                    <path d="M26.875,20.025 C30.6625,20.025 33.75,23.1125 33.75,26.9 C33.75,30.6875 30.6625,33.775 26.875,33.775 C23.0875,33.775 20,30.6875 20,26.9 C20,23.1125 23.0875,20.025 26.875,20.025 L26.875,20.025 Z M26.875,18.775 C22.3875,18.775 18.75,22.4125 18.75,26.9 C18.75,31.3875 22.3875,35.025 26.875,35.025 C31.3625,35.025 35,31.3875 35,26.9 C35,22.4125 31.3625,18.775 26.875,18.775 L26.875,18.775 Z" id="Shape" fill="#101828" fill-rule="nonzero"></path>
                    <rect id="Rectangle" fill="#101828" fill-rule="nonzero" x="8.75" y="27.475" width="7.5" height="1.25"></rect>
                    <rect id="Rectangle" fill="#101828" fill-rule="nonzero" x="8.75" y="29.975" width="7.5" height="1.25"></rect>
                    <path d="M26.875,20.025 C30.6625,20.025 33.75,23.1125 33.75,26.9 C33.75,30.6875 30.6625,33.775 26.875,33.775 C23.0875,33.775 20,30.6875 20,26.9 C20,23.1125 23.0875,20.025 26.875,20.025 L26.875,20.025 Z M26.875,18.775 C22.3875,18.775 18.75,22.4125 18.75,26.9 C18.75,31.3875 22.3875,35.025 26.875,35.025 C31.3625,35.025 35,31.3875 35,26.9 C35,22.4125 31.3625,18.775 26.875,18.775 L26.875,18.775 Z" id="Shape" fill="#101828" fill-rule="nonzero"></path>
                    <path d="M29.35,31.2125 C28.3125,31.2125 27.475,30.375 27.475,29.3375 C27.475,28.3 28.3125,27.4625 29.35,27.4625 C30.3875,27.4625 31.225,28.3 31.225,29.3375 C31.225,30.375 30.3875,31.2125 29.35,31.2125 Z M29.35,28.7125 C29,28.7125 28.725,28.9875 28.725,29.3375 C28.725,29.6875 29,29.9625 29.35,29.9625 C29.7,29.9625 29.975,29.6875 29.975,29.3375 C29.975,28.9875 29.7,28.7125 29.35,28.7125 Z" id="Shape" fill="#101828" fill-rule="nonzero"></path>
                    <path d="M24.3875,26.2375 C23.35,26.2375 22.5125,25.4 22.5125,24.3625 C22.5125,23.325 23.35,22.4875 24.3875,22.4875 C25.425,22.4875 26.2625,23.325 26.2625,24.3625 C26.2625,25.4 25.425,26.2375 24.3875,26.2375 Z M24.3875,23.7375 C24.0375,23.7375 23.7625,24.0125 23.7625,24.3625 C23.7625,24.7125 24.0375,24.9875 24.3875,24.9875 C24.7375,24.9875 25.0125,24.7125 25.0125,24.3625 C25.0125,24.0125 24.725,23.7375 24.3875,23.7375 Z" id="Shape" fill="#101828" fill-rule="nonzero"></path>
                    <polygon id="Rectangle" fill="#101828" fill-rule="nonzero" transform="translate(26.877597, 26.852867) rotate(45.000000) translate(-26.877597, -26.852867) " points="26.2463529 21.5529177 27.5088408 21.5529177 27.5088408 32.152816 26.2463529 32.152816"></polygon>
                    <path d="M25.65,6.225 L24.15,9.975 L8.35,9.975 L6.85,6.225 L25.65,6.225 L25.65,6.225 Z M27.5,4.975 L5,4.975 L7.5,11.225 L25,11.225 L27.5,4.975 L27.5,4.975 Z" id="Shape" fill="#101828" fill-rule="nonzero"></path>
                    <path d="M26.2375,7.475 L26.2375,17.55 C26.45,17.5375 26.6625,17.5125 26.875,17.5125 C27.0875,17.5125 27.2875,17.525 27.4875,17.5375 L27.4875,8.725 L28.7375,8.725 L28.7375,17.7 C29.1625,17.7875 29.5875,17.9125 29.9875,18.05 L29.9875,7.475 L26.2375,7.475 Z" id="Path" fill="#101828" fill-rule="nonzero"></path>
                    <path d="M29.975,18.0625 L29.975,11.225 L31.225,11.225 L31.225,18.6 C31.6625,18.825 32.075,19.1 32.475,19.4 L32.475,9.975 L28.725,9.975 L28.725,17.7 C29.1625,17.8 29.575,17.9125 29.975,18.0625 Z" id="Path" fill="#101828" fill-rule="nonzero"></path>
                    <path d="M20.4625,33.725 L6.25,33.725 L6.25,6.225 L26.25,6.225 L26.25,17.55 C26.4625,17.5375 26.6625,17.5125 26.875,17.5125 C27.0875,17.5125 27.2875,17.525 27.5,17.55 L27.5,4.975 L5,4.975 L5,34.975 L22.1375,34.975 C21.5375,34.625 20.975,34.2 20.4625,33.725 Z" id="Path" fill="#101828" fill-rule="nonzero"></path>
                    <rect id="Rectangle" x="0" y="0" width="40" height="40"></rect>
                </g>
            </g>
        </g>
    </g>
</svg>