<?xml version="1.0" encoding="UTF-8"?>
<svg width="56px" height="56px" viewBox="0 0 56 56" version="1.1" xmlns="http://www.w3.org/2000/svg" xmlns:xlink="http://www.w3.org/1999/xlink">
    <!-- Generator: Sketch 57.1 (83088) - https://sketch.com -->
    <title>074-W56px</title>
    <desc>Created with Sketch.</desc>
    <g id="NEW_icons" stroke="none" stroke-width="1" fill="none" fill-rule="evenodd">
        <g id="icons_UD_new-Copy" transform="translate(-532.000000, -9792.000000)">
            <g id="074-W56px" transform="translate(532.000000, 9792.000000)">
                <circle id="Oval-Copy-506" fill="#101828" cx="28" cy="28" r="28"></circle>
                <g id="074-B32px-Copy-6" transform="translate(8.000000, 8.000000)">
                    <path d="M23.75,25 L23.75,33.6875 C23.75,33.725 23.725,33.75 23.6875,33.75 L6.3125,33.75 C6.275,33.75 6.25,33.725 6.25,33.6875 L6.25,6.3125 C6.25,6.275 6.275,6.25 6.3125,6.25 L23.6875,6.25 C23.725,6.25 23.75,6.275 23.75,6.3125 L23.75,7.5 L25,7.5 L25,6.3125 C25,5.5875 24.4125,5 23.6875,5 L6.3125,5 C5.5875,5 5,5.5875 5,6.3125 L5,33.6875 C5,34.4125 5.5875,35 6.3125,35 L23.6875,35 C24.4125,35 25,34.4125 25,33.6875 L25,25 L23.75,25 Z" id="Path" fill="#FFFFFF" fill-rule="nonzero"></path>
                    <path d="M15,32.5 C15.3375,32.5 15.625,32.225 15.625,31.875 C15.625,31.525 15.3375,31.25 15,31.25 C14.6625,31.25 14.375,31.525 14.375,31.875 C14.375,32.225 14.6625,32.5 15,32.5" id="Path" fill="#FFFFFF" fill-rule="nonzero"></path>
                    <rect id="Rectangle" fill="#FFFFFF" fill-rule="nonzero" x="5" y="28.75" width="20" height="1.25"></rect>
                    <path d="M29.725,15.625 C28.8875,15.4375 28.8875,15.2375 28.8875,15.15 C28.8875,14.9625 29.1875,14.9 29.375,14.9 C29.6875,14.9 29.9125,15.0375 30.1,15.3625 L30.2125,15.5375 L31.2,14.95 L31.1125,14.775 C30.775,14.0875 30.2125,13.75 29.3875,13.75 C28.3875,13.75 27.725,14.325 27.725,15.175 C27.725,15.9625 28.25,16.5125 29.1875,16.7 C29.975,16.8625 30.05,17.05 30.05,17.225 C30.05,17.45 29.825,17.6 29.4875,17.6 C29.05,17.6 28.8,17.4125 28.625,16.95 L28.5375,16.725 L27.5,17.25 L27.55,17.425 C27.775,18.25 28.5,18.75 29.4875,18.75 C30.6375,18.75 31.25,17.9625 31.25,17.1875 C31.25,16.35 30.7625,15.8625 29.725,15.625 Z" id="Path" fill="#FFFFFF" fill-rule="nonzero"></path>
                    <path d="M18.475,15.625 C17.6375,15.4375 17.6375,15.2375 17.6375,15.15 C17.6375,14.9625 17.9375,14.9 18.125,14.9 C18.4375,14.9 18.6625,15.0375 18.85,15.3625 L18.9625,15.5375 L19.95,14.95 L19.8625,14.775 C19.525,14.0875 18.9625,13.75 18.1375,13.75 C17.1375,13.75 16.475,14.325 16.475,15.175 C16.475,15.9625 17,16.5125 17.9375,16.7 C18.725,16.8625 18.8,17.05 18.8,17.225 C18.8,17.45 18.575,17.6 18.2375,17.6 C17.8,17.6 17.55,17.4125 17.375,16.95 L17.2875,16.725 L16.25,17.25 L16.3,17.425 C16.525,18.25 17.25,18.75 18.2375,18.75 C19.3875,18.75 20,17.9625 20,17.1875 C20,16.35 19.5125,15.8625 18.475,15.625 Z" id="Path" fill="#FFFFFF" fill-rule="nonzero"></path>
                    <polygon id="Path" fill="#FFFFFF" fill-rule="nonzero" points="25 13.75 25 13.7875 24.9875 13.775 23.75 15.375 23.75 15.375 23.75 15.375 22.5125 13.775 22.5 13.7875 22.5 13.75 21.25 13.75 21.25 18.75 22.5 18.75 22.5 15.8625 23.75 17.2 25 15.8625 25 18.75 26.25 18.75 26.25 13.75"></polygon>
                    <path d="M33.75,8.75 L13.75,8.75 C13.0625,8.75 12.5,9.3125 12.5,10 L12.5,20 L13.75,20 L13.75,10 L33.75,10 L33.75,22.5 L16.2375,22.5 L15.8625,22.5 L15.8375,22.5125 L12.5,24.7875 L12.5,26.25 L16.2375,23.75 L33.75,23.75 C34.4375,23.75 35,23.1875 35,22.5 L35,10 C35,9.3125 34.4375,8.75 33.75,8.75 Z" id="Path" fill="#FFFFFF" fill-rule="nonzero"></path>
                    <rect id="Rectangle" x="0" y="0" width="40" height="40"></rect>
                </g>
            </g>
        </g>
    </g>
</svg>