<?xml version="1.0" encoding="UTF-8"?>
<svg width="56px" height="56px" viewBox="0 0 56 56" version="1.1" xmlns="http://www.w3.org/2000/svg" xmlns:xlink="http://www.w3.org/1999/xlink">
    <!-- Generator: Sketch 57.1 (83088) - https://sketch.com -->
    <title>084-W56px</title>
    <desc>Created with Sketch.</desc>
    <g id="NEW_icons" stroke="none" stroke-width="1" fill="none" fill-rule="evenodd">
        <g id="icons_UD_new-Copy" transform="translate(-532.000000, -11048.000000)">
            <g id="084-W56px" transform="translate(532.000000, 11048.000000)">
                <circle id="Oval-Copy-553" fill="#101828" cx="28" cy="28" r="28"></circle>
                <g id="084-B32px-Copy-4" transform="translate(8.000000, 8.000000)">
                    <path d="M17.5125,32.5 C17.85,32.5 18.1375,32.225 18.1375,31.875 C18.1375,31.525 17.8625,31.25 17.5125,31.25 C17.1625,31.25 16.8875,31.525 16.8875,31.875 C16.8875,32.225 17.1625,32.5 17.5125,32.5" id="Path" fill="#FFFFFF" fill-rule="nonzero"></path>
                    <path d="M17.5125,10 C20.9625,10 23.775,12.8 23.775,16.25 C23.775,19.7 20.9625,22.5 17.5125,22.5 C14.0625,22.5 11.25,19.7 11.25,16.25 C11.25,12.8 14.0625,10 17.5125,10 L17.5125,10 Z M17.5125,8.75 C13.3625,8.75 10,12.1125 10,16.25 C10,20.3875 13.3625,23.75 17.5125,23.75 C21.6625,23.75 25.025,20.3875 25.025,16.25 C25.025,12.1125 21.65,8.75 17.5125,8.75 L17.5125,8.75 Z" id="Shape" fill="#FFFFFF" fill-rule="nonzero"></path>
                    <path d="M17.5,10 C18.975,10 20.6125,12.5625 20.6125,16.25 C20.6125,19.9375 18.975,22.5 17.5,22.5 C16.025,22.5 14.3875,19.9375 14.3875,16.25 C14.3875,12.5625 16.025,10 17.5,10 L17.5,10 Z M17.5,8.75 C15.0875,8.75 13.1375,12.1125 13.1375,16.25 C13.1375,20.3875 15.0875,23.75 17.5,23.75 C19.9125,23.75 21.8625,20.3875 21.8625,16.25 C21.8625,12.1125 19.9,8.75 17.5,8.75 L17.5,8.75 Z" id="Shape" fill="#FFFFFF" fill-rule="nonzero"></path>
                    <rect id="Rectangle" fill="#FFFFFF" fill-rule="nonzero" x="11.1875" y="18.7875" width="12.6375" height="1.25"></rect>
                    <rect id="Rectangle" fill="#FFFFFF" fill-rule="nonzero" x="11.1875" y="12.4625" width="12.6375" height="1.25"></rect>
                    <rect id="Rectangle" fill="#FFFFFF" fill-rule="nonzero" x="10.4" y="15.625" width="14.225" height="1.25"></rect>
                    <rect id="Rectangle" fill="#FFFFFF" fill-rule="nonzero" x="16.8875" y="8.975" width="1.25" height="13.9875"></rect>
                    <path d="M26.5375,31.175 L26.2625,30.875 L26.25,30.8875 L26.25,33.675 C26.25,33.7125 26.225,33.7375 26.1875,33.7375 L8.8125,33.7375 C8.775,33.75 8.75,33.725 8.75,33.6875 L8.75,30 L19.175,30 C18.9875,29.6 18.8625,29.175 18.8,28.75 L8.75,28.75 L8.75,6.3125 C8.75,6.275 8.775,6.25 8.8125,6.25 L26.1875,6.25 C26.225,6.25 26.25,6.275 26.25,6.3125 L26.25,25.35 L26.2625,25.3625 L26.5375,25.0625 C26.825,24.7625 27.15,24.525 27.5,24.3375 L27.5,6.3125 C27.5,5.5875 26.9125,5 26.1875,5 L8.8125,5 C8.0875,5 7.5,5.5875 7.5,6.3125 L7.5,28.75 L7.5,30 L7.5,33.6875 C7.5,34.4125 8.0875,35 8.8125,35 L26.1875,35 C26.9125,35 27.5,34.4125 27.5,33.6875 L27.5,31.925 C27.15,31.7125 26.825,31.475 26.5375,31.175 Z" id="Path" fill="#FFFFFF" fill-rule="nonzero"></path>
                    <path d="M29.5625,31.25 C28.7625,31.25 28.0125,30.9125 27.4625,30.3125 L26.275,29.0375 L25.0875,30.3125 C23.9625,31.5125 22,31.5125 20.875,30.3125 C19.75,29.1 19.75,27.1375 20.875,25.925 C22,24.725 23.9625,24.725 25.0875,25.925 L26.275,27.2 L27.4625,25.925 C28.5875,24.725 30.55,24.725 31.675,25.925 C32.8,27.1375 32.8,29.1 31.675,30.3125 C31.1125,30.925 30.3625,31.25 29.5625,31.25 Z M27.125,28.125 L28.375,29.475 C29.0125,30.1625 30.1125,30.1625 30.7625,29.475 C31.45,28.7375 31.45,27.525 30.7625,26.7875 C30.125,26.1 29.025,26.1 28.375,26.7875 L28.375,26.7875 L27.125,28.125 Z M22.9625,26.25 C22.5125,26.25 22.0875,26.4375 21.775,26.7875 C21.0875,27.525 21.0875,28.7375 21.775,29.475 C22.425,30.1625 23.5125,30.1625 24.1625,29.475 L25.4125,28.125 L24.1625,26.775 C23.8375,26.4375 23.4125,26.25 22.9625,26.25 Z" id="Shape" fill="#FFFFFF" fill-rule="nonzero"></path>
                    <rect id="Rectangle" x="0" y="0" width="40" height="40"></rect>
                </g>
            </g>
        </g>
    </g>
</svg>