<?xml version="1.0" encoding="UTF-8"?>
<svg width="42px" height="42px" viewBox="0 0 42 42" version="1.1" xmlns="http://www.w3.org/2000/svg" xmlns:xlink="http://www.w3.org/1999/xlink">
    <!-- Generator: Sketch 57.1 (83088) - https://sketch.com -->
    <title>087-G40px</title>
    <desc>Created with Sketch.</desc>
    <g id="NEW_icons" stroke="none" stroke-width="1" fill="none" fill-rule="evenodd">
        <g id="icons_UD_new-Copy" transform="translate(-1526.000000, -11309.000000)">
            <g id="087-G40px" transform="translate(1527.000000, 11310.000000)">
                <circle id="Oval-Copy-580" stroke="#E3E8EC" cx="20" cy="20" r="20"></circle>
                <g id="087-B32px-Copy" transform="translate(4.000000, 4.000000)">
                    <path d="M19,26 L19,26.95 C19,26.98 18.98,27 18.95,27 L5.05,27 C5.02,27 5,26.98 5,26.95 L5,24 L10,24 L10,23 L5,23 L5,5.05 C5,5.02 5.02,5 5.05,5 L18.95,5 C18.98,5 19,5.02 19,5.05 L19,12 L20,12 L20,5.05 C20,4.47 19.53,4 18.95,4 L5.05,4 C4.47,4 4,4.47 4,5.05 L4,23 L4,24 L4,26.95 C4,27.53 4.47,28 5.05,28 L18.95,28 C19.53,28 20,27.53 20,26.95 L20,26 L19,26 Z" id="Path" fill="#101828" fill-rule="nonzero"></path>
                    <path d="M27,14 L27,24 L12,24 L12,14 L27,14 L27,14 Z M27,13 L12,13 C11.45,13 11,13.45 11,14 L11,24 C11,24.55 11.45,25 12,25 L27,25 C27.55,25 28,24.55 28,24 L28,14 C28,13.45 27.55,13 27,13 L27,13 Z" id="Shape" fill="#101828" fill-rule="nonzero"></path>
                    <path d="M27,16 L27,17 L12,17 L12,16 L27,16 L27,16 Z M28,15 L11,15 L11,18 L28,18 L28,15 L28,15 Z" id="Shape" fill="#101828" fill-rule="nonzero"></path>
                    <path d="M22.25,21.95 C22.17,21.97 22.09,22 22,22 C21.45,22 21,21.55 21,21 C21,20.45 21.45,20 22,20 C22.09,20 22.17,20.03 22.25,20.05 C22.43,19.73 22.68,19.46 23,19.28 C22.7,19.11 22.37,19 22,19 C20.9,19 20,19.9 20,21 C20,22.1 20.9,23 22,23 C22.37,23 22.7,22.89 23,22.72 C22.68,22.54 22.43,22.27 22.25,21.95 Z" id="Path" fill="#101828" fill-rule="nonzero"></path>
                    <path d="M24,20 C24.55,20 25,20.45 25,21 C25,21.55 24.55,22 24,22 C23.45,22 23,21.55 23,21 C23,20.45 23.45,20 24,20 L24,20 Z M24,19 C22.9,19 22,19.9 22,21 C22,22.1 22.9,23 24,23 C25.1,23 26,22.1 26,21 C26,19.9 25.1,19 24,19 L24,19 Z" id="Shape" fill="#101828" fill-rule="nonzero"></path>
                    <rect id="Rectangle" x="0" y="0" width="32" height="32"></rect>
                </g>
            </g>
        </g>
    </g>
</svg>