<?xml version="1.0" encoding="UTF-8"?>
<svg width="80px" height="80px" viewBox="0 0 80 80" version="1.1" xmlns="http://www.w3.org/2000/svg" xmlns:xlink="http://www.w3.org/1999/xlink">
    <!-- Generator: Sketch 57.1 (83088) - https://sketch.com -->
    <title>245-W80px</title>
    <desc>Created with Sketch.</desc>
    <g id="NEW_icons" stroke="none" stroke-width="1" fill="none" fill-rule="evenodd">
        <g id="icons_UD" transform="translate(-872.000000, -2085.000000)">
            <g id="245-W80px" transform="translate(872.000000, 2085.000000)">
                <circle id="Oval-Copy-811" fill="#101828" cx="40" cy="40" r="40"></circle>
                <g id="245-B56px" transform="translate(12.000000, 12.000000)">
                    <g id="Group" transform="translate(10.500000, 7.000000)" fill="#FFFFFF" fill-rule="nonzero">
                        <path d="M31.5,42.4375 L3.5,42.4375 C2.0475,42.4375 0.875,41.265 0.875,39.8125 L0.875,35.4375 L6.125,35.4375 L6.125,37.1875 L7.875,37.1875 L7.875,35.4375 L13.125,35.4375 L13.125,37.1875 L14.875,37.1875 L14.875,35.4375 L20.125,35.4375 L20.125,37.1875 L21.875,37.1875 L21.875,35.4375 L27.125,35.4375 L27.125,37.1875 L28.875,37.1875 L28.875,35.4375 L34.125,35.4375 L34.125,39.8125 C34.125,41.265 32.9525,42.4375 31.5,42.4375 Z M2.625,37.1875 L2.625,39.8125 C2.625,40.3025 3.01,40.6875 3.5,40.6875 L31.5,40.6875 C31.99,40.6875 32.375,40.3025 32.375,39.8125 L32.375,37.1875 L30.625,37.1875 L30.625,38.9375 L25.375,38.9375 L25.375,37.1875 L23.625,37.1875 L23.625,38.9375 L18.375,38.9375 L18.375,37.1875 L16.625,37.1875 L16.625,38.9375 L11.375,38.9375 L11.375,37.1875 L9.625,37.1875 L9.625,38.9375 L4.375,38.9375 L4.375,37.1875 L2.625,37.1875 Z" id="Shape"></path>
                        <path d="M13.58,2.5375 C15.6625,3.1325 19.355,4.6025 21.5075,7.77 L23.905,11.2875 L24.57,7.6825 C26.9325,10.045 29.9775,14.2275 29.8025,19.985 C29.645,24.7275 27.6675,28.0175 25.7075,30.135 C26.1975,25.83 25.76,19.11 20.2825,12.8625 L17.5525,9.7475 L17.22,13.8775 C17.22,13.895 17.0975,15.3125 16.695,17.0975 C16.6425,17.01 16.59,16.9225 16.555,16.835 L13.7025,11.9525 L13.3,17.5875 C13.23,18.55 12.8275,21.385 11.725,22.9425 L11.445,23.3275 C10.535,24.57 9.31,26.285 9.345,29.4525 C9.345,29.6625 9.3625,29.8725 9.3625,30.0825 C7.3675,28.175 6.1425,26.215 5.6175,24.1325 C4.6025,20.125 6.2825,17.29 8.5925,13.37 C10.255,10.5525 12.2675,7.1225 13.58,2.5375 L13.58,2.5375 Z M12.3025,0.4375 C9.59,12.285 1.8025,16.1875 3.92,24.5525 C4.935,28.56 7.9625,31.465 10.8325,33.565 C10.9375,33.6525 11.06,33.6875 11.1825,33.6875 C11.585,33.6875 11.935,33.2325 11.725,32.7425 C11.375,31.8675 11.1125,30.765 11.095,29.4175 C11.06,26.53 12.2675,25.2 13.1425,23.9575 C14.7525,21.6475 15.0325,17.7275 15.0325,17.7275 C15.995,19.355 16.0475,21.035 15.9075,22.26 C15.8725,22.5225 16.065,22.6975 16.2575,22.6975 C16.3625,22.6975 16.4675,22.645 16.5375,22.5225 C18.5675,19.005 18.97,14.035 18.97,14.035 C25.3925,21.3675 24.36,29.2775 23.45,32.7775 C23.3275,33.285 23.695,33.705 24.115,33.705 C24.2375,33.705 24.3775,33.67 24.4825,33.5825 C26.9325,31.78 31.3075,27.5275 31.5525,20.055 C31.885,9.6425 22.82,3.9725 22.82,3.9725 C23.1875,5.635 22.96,6.8075 22.96,6.8075 C19.39,1.54 12.3025,0.4375 12.3025,0.4375 L12.3025,0.4375 Z" id="Shape"></path>
                    </g>
                    <rect id="Rectangle" x="0" y="0" width="56" height="56"></rect>
                </g>
            </g>
        </g>
    </g>
</svg>