<?xml version="1.0" encoding="UTF-8"?>
<svg width="80px" height="80px" viewBox="0 0 80 80" version="1.1" xmlns="http://www.w3.org/2000/svg" xmlns:xlink="http://www.w3.org/1999/xlink">
    <!-- Generator: Sketch 57.1 (83088) - https://sketch.com -->
    <title>054-B80px</title>
    <desc>Created with Sketch.</desc>
    <g id="054-B80px" stroke="none" stroke-width="1" fill="none" fill-rule="evenodd">
        <g>
            <path d="M51.15,40.1 C51.375,46 46.025,51.25 39.975,51.2 C34.2,51.15 28.9,46.1 28.975,39.95 C29.025,34.125 34.15,28.85 40.325,28.95 C46.025,29.05 51.4,34.075 51.15,40.1 Z M45.825,40.075 C46.1,36.975 43.05,34.425 40.45,34.275 C36.825,34.075 34.4,37.275 34.275,39.75 C34.1,43.325 37.275,45.775 39.825,45.875 C43.2,46.025 46.15,42.975 45.825,40.075 Z" id="Shape" fill="#101828" fill-rule="nonzero"></path>
            <path d="M39.125,17.525 C38.075,17.525 36.325,17.65 35.3,17.9 C28.5,19.425 23.4,23.275 20.075,29.375 C18.4,32.475 17.475,35.775 17.5,39.375 C17.55,47.1 17.525,54.8 17.5,62.525 C25.4,62.5 33.3,62.5 41.2,62.5 C41.75,62.475 42.65,62.4 43.2,62.375 C48.375,61.575 52.85,59.35 56.45,55.475 C60.325,51.3 62.475,46.375 62.5,40.6 C62.525,33.25 62.5,25.875 62.5,18.525 C62.5,18.225 62.5,17.925 62.5,17.55 C62.075,17.55 61.8,17.55 61.525,17.55 C54.05,17.5 46.6,17.5 39.125,17.525 Z M57.5,41.2 C57.025,49.25 49.925,58.125 38.775,57.475 C30.775,57.025 21.875,49.925 22.55,38.7 C23.05,30.35 30.325,22.35 40.05,22.55 C49.125,22.225 58.15,30.275 57.5,41.2 Z" id="Shape" fill="#101828" fill-rule="nonzero"></path>
            <rect id="Rectangle" x="0" y="0" width="80" height="80"></rect>
        </g>
    </g>
</svg>