<?xml version="1.0" encoding="UTF-8"?>
<svg width="80px" height="80px" viewBox="0 0 80 80" version="1.1" xmlns="http://www.w3.org/2000/svg" xmlns:xlink="http://www.w3.org/1999/xlink">
    <!-- Generator: Sketch 57.1 (83088) - https://sketch.com -->
    <title>226-B80px</title>
    <desc>Created with Sketch.</desc>
    <g id="226-B80px" stroke="none" stroke-width="1" fill="none" fill-rule="evenodd">
        <g>
            <path d="M67.525,17.5 L65,17.5 L65,20 L67.5,20 L67.525,52.5 L12.5,52.525 L12.475,20 L32.5,20 L32.5,17.5 L12.475,17.5 C11.125,17.5 10,18.625 10,19.975 L10,52.5 C10,53.875 11.125,55 12.475,55 L67.5,55 C68.875,55 69.9754088,53.875 69.9754088,52.525 L69.9754088,19.975 C70,18.625 68.875,17.5 67.525,17.5 Z" id="Path" fill="#101828" fill-rule="nonzero"></path>
            <rect id="Rectangle" fill="#101828" fill-rule="nonzero" x="42.5" y="55" width="2.5" height="7.5"></rect>
            <rect id="Rectangle" fill="#101828" fill-rule="nonzero" x="35" y="55" width="2.5" height="7.5"></rect>
            <rect id="Rectangle" fill="#101828" fill-rule="nonzero" x="30.05" y="60" width="19.95" height="2.5"></rect>
            <path d="M40,51.225 C40.675,51.225 41.25,50.675 41.25,49.975 C41.25,49.275 40.7,48.725 40,48.725 C39.325,48.725 38.75,49.275 38.75,49.975 C38.75,50.675 39.3,51.225 40,51.225" id="Path" fill="#101828" fill-rule="nonzero"></path>
            <path d="M61.375,10 L36.125,10 C35.5,10 35,10.525 35,11.175 L35,22.5 L37.5,22.5 L37.5,12.5 L60,12.5 L60,25 L42.175,25 C41.45,25 40.725,25.225 40.025,25.7 L37.675,27.5 L35,29.375 L35,32.5 L41.55,27.7 C41.75,27.575 41.95,27.5 42.175,27.5 L61.35,27.5 C62,27.5 62.5,26.975 62.5,26.325 L62.5,11.175 C62.5,10.525 62,10 61.375,10 Z" id="Path" fill="#101828" fill-rule="nonzero"></path>
            <path d="M25,25 C26.375,25 27.5,26.125 27.5,27.5 C27.5,28.875 26.375,30 25,30 C23.625,30 22.5,28.875 22.5,27.5 C22.5,26.125 23.625,25 25,25 L25,25 Z M25,22.5 C22.25,22.5 20,24.75 20,27.5 C20,30.25 22.25,32.5 25,32.5 C27.75,32.5 30,30.25 30,27.5 C30,24.75 27.75,22.5 25,22.5 L25,22.5 Z" id="Shape" fill="#101828" fill-rule="nonzero"></path>
            <path d="M20,42.5 L20,40 C20,38.625 21.125,37.5 22.5,37.5 L27.5,37.5 C28.875,37.5 30,38.625 30,40 L30,42.5 L32.5,42.5 L32.5,40 C32.5,37.25 30.25,35 27.5,35 L22.5,35 C19.75,35 17.5,37.25 17.5,40 L17.5,42.5 L20,42.5 Z" id="Path" fill="#101828" fill-rule="nonzero"></path>
            <rect id="Rectangle" fill="#101828" fill-rule="nonzero" x="12.5" y="45" width="55" height="2.5"></rect>
            <rect id="Rectangle" x="0" y="0" width="80" height="80"></rect>
        </g>
    </g>
</svg>