<?xml version="1.0" encoding="UTF-8"?>
<svg width="32px" height="32px" viewBox="0 0 32 32" version="1.1" xmlns="http://www.w3.org/2000/svg" xmlns:xlink="http://www.w3.org/1999/xlink">
    <!-- Generator: Sketch 57.1 (83088) - https://sketch.com -->
    <title>247-B32px</title>
    <desc>Created with Sketch.</desc>
    <g id="247-B32px" stroke="none" stroke-width="1" fill="none" fill-rule="evenodd">
        <g>
            <path d="M27,5 L27,27 L5,27 L5,5 L27,5 L27,5 Z M27,4 L5,4 C4.45,4 4,4.45 4,5 L4,27 C4,27.55 4.45,28 5,28 L27,28 C27.55,28 28,27.55 28,27 L28,5 C28,4.45 27.55,4 27,4 L27,4 Z" id="Shape" fill="#101828" fill-rule="nonzero"></path>
            <path d="M25,7 L25,25 L7,25 L7,7 L25,7 L25,7 Z M25,6 L7,6 C6.45,6 6,6.45 6,7 L6,25 C6,25.55 6.45,26 7,26 L25,26 C25.55,26 26,25.55 26,25 L26,7 C26,6.45 25.55,6 25,6 L25,6 Z" id="Shape" fill="#101828" fill-rule="nonzero"></path>
            <path d="M19.5,15.5 C19.78,15.5 20,15.72 20,16 C20,16.28 19.78,16.5 19.5,16.5 C19.22,16.5 19,16.28 19,16 C19,15.72 19.22,15.5 19.5,15.5 L19.5,15.5 Z M19.5,14.5 C18.67,14.5 18,15.17 18,16 C18,16.83 18.67,17.5 19.5,17.5 C20.33,17.5 21,16.83 21,16 C21,15.17 20.33,14.5 19.5,14.5 L19.5,14.5 Z" id="Shape" fill="#101828" fill-rule="nonzero"></path>
            <path d="M12.5,15.5 C12.78,15.5 13,15.72 13,16 C13,16.28 12.78,16.5 12.5,16.5 C12.22,16.5 12,16.28 12,16 C12,15.72 12.22,15.5 12.5,15.5 L12.5,15.5 Z M12.5,14.5 C11.67,14.5 11,15.17 11,16 C11,16.83 11.67,17.5 12.5,17.5 C13.33,17.5 14,16.83 14,16 C14,15.17 13.33,14.5 12.5,14.5 L12.5,14.5 Z" id="Shape" fill="#101828" fill-rule="nonzero"></path>
            <path d="M16.5,24.01 L16.5,22 L15.5,22 L15.5,24.01 L14.93,23.93 C10.98,23.4 8,19.99 8,16 C8,12.01 10.98,8.6 14.93,8.07 L15.5,7.99 L15.5,10 L16.5,10 L16.5,7.99 L17.07,8.07 C21.02,8.6 24,12.01 24,16 C24,19.99 21.02,23.4 17.07,23.93 L16.5,24.01 Z M14.5,21 L17.5,21 L17.5,22.84 C20.67,22.15 23,19.3 23,16 C23,12.7 20.67,9.85 17.5,9.16 L17.5,11 L14.5,11 L14.5,9.16 C11.33,9.85 9,12.7 9,16 C9,19.3 11.33,22.15 14.5,22.84 L14.5,21 Z" id="Shape" fill="#101828" fill-rule="nonzero"></path>
            <circle id="Oval" fill="#101828" fill-rule="nonzero" cx="16" cy="16" r="1"></circle>
            <rect id="Rectangle" x="0" y="0" width="32" height="32"></rect>
        </g>
    </g>
</svg>