<?xml version="1.0" encoding="UTF-8"?>
<svg width="40px" height="40px" viewBox="0 0 40 40" version="1.1" xmlns="http://www.w3.org/2000/svg" xmlns:xlink="http://www.w3.org/1999/xlink">
    <!-- Generator: Sketch 58 (84663) - https://sketch.com -->
    <title>256-B40px</title>
    <desc>Created with Sketch.</desc>
    <g id="256-B40px" stroke="none" stroke-width="1" fill="none" fill-rule="evenodd">
        <g id="256-B32px">
            <g>
                <path d="M21.65,27.825 C16.875,25.8375 12.9,21.8 12.85,21.75 C12.8,21.675 6.9625,15.575 6.25,9.5625 C6.25,9.525 6.25,9.4625 6.2875,9.425 L9.5625,6.2625 C9.5875,6.2375 9.6125,6.225 9.65,6.225 C9.6875,6.225 9.7125,6.25 9.7125,6.25 L14.65,11.35 C14.6875,11.3875 14.675,11.4625 14.6375,11.5 L12.45,13.6125 L11.85,14.2 L12.1625,14.975 C12.2125,15.1 13.375,17.9375 15.0375,19.65 C16.7,21.3625 19.5,22.625 19.625,22.675 L20.4,23.0125 L21,22.425 L23.1875,20.3125 C23.2125,20.2875 23.2375,20.275 23.275,20.275 C23.3125,20.275 23.3375,20.3 23.3375,20.3 L24.975,22 L25.6125,20.8625 L24.225,19.425 C23.9625,19.15 23.6125,19.0125 23.2625,19.0125 C22.925,19.0125 22.575,19.1375 22.3125,19.4 L20.125,21.5125 C20.125,21.5125 17.45,20.325 15.9375,18.7625 C14.425,17.2 13.325,14.4875 13.325,14.4875 L15.5125,12.375 C16.05,11.85 16.075,11 15.55,10.4625 L10.6,5.375 C10.3375,5.1125 9.9875,4.975 9.6375,4.975 C9.3,4.975 8.95,5.1 8.6875,5.3625 L5.4125,8.525 C5.1,8.8375 4.9625,9.2625 5.0125,9.7 C5.7875,16.225 11.9625,22.6 11.9625,22.6 C11.9625,22.6 16,26.775 21.0375,28.9125 L21.65,27.825 Z" id="Path" fill="#101828" fill-rule="nonzero"></path>
                <path d="M27.5,22.4875 L27.5375,22.525 L33.725,33.5375 C33.7375,33.55 33.7625,33.6 33.7375,33.675 C33.725,33.725 33.7,33.75 33.6875,33.75 L21.3,33.75 C21.2875,33.75 21.2625,33.725 21.25,33.675 C21.225,33.6125 21.2625,33.5625 21.2625,33.5375 L27.45,22.525 C27.475,22.5125 27.4875,22.4875 27.5,22.4875 L27.5,22.4875 Z M27.5,21.2375 C27.0625,21.2375 26.625,21.4625 26.375,21.9125 L20.1875,32.925 C19.675,33.8375 20.3,34.9875 21.3125,34.9875 L33.7,34.9875 C34.7125,34.9875 35.3375,33.8375 34.825,32.925 L28.6375,21.9125 C28.375,21.4625 27.9375,21.2375 27.5,21.2375 L27.5,21.2375 Z" id="Shape" fill="#101828" fill-rule="nonzero"></path>
                <rect id="Rectangle" fill="#101828" fill-rule="nonzero" x="26.875" y="24.9875" width="1.25" height="5"></rect>
                <rect id="Rectangle" fill="#101828" fill-rule="nonzero" x="26.875" y="31.2375" width="1.25" height="1.25"></rect>
                <rect id="Rectangle" x="0" y="0" width="40" height="40"></rect>
            </g>
        </g>
    </g>
</svg>