<?xml version="1.0" encoding="UTF-8"?>
<svg width="80px" height="80px" viewBox="0 0 80 80" version="1.1" xmlns="http://www.w3.org/2000/svg" xmlns:xlink="http://www.w3.org/1999/xlink">
    <!-- Generator: Sketch 57.1 (83088) - https://sketch.com -->
    <title>063-B80px</title>
    <desc>Created with Sketch.</desc>
    <g id="063-B80px" stroke="none" stroke-width="1" fill="none" fill-rule="evenodd">
        <g>
            <path d="M56.25,45 C62.45,45 67.5,50.05 67.5,56.25 C67.5,62.45 62.45,67.5 56.25,67.5 C50.05,67.5 45,62.45 45,56.25 C45,50.05 50.05,45 56.25,45 L56.25,45 Z M56.25,42.5 C48.65,42.5 42.5,48.65 42.5,56.25 C42.5,63.85 48.65,70 56.25,70 C63.85,70 70,63.85 70,56.25 C70,48.65 63.85,42.5 56.25,42.5 L56.25,42.5 Z" id="Shape" fill="#101828" fill-rule="nonzero"></path>
            <polygon id="Path" fill="#101828" fill-rule="nonzero" points="50 55 50 57.5 55 57.5 55 62.5 57.5 62.5 57.5 57.5 62.5 57.5 62.5 55 57.5 55 57.5 50 55 50 55 55"></polygon>
            <path d="M41.05,61.95 C39.9,62.2 38.7,62.375 37.5,62.425 L37.5,62.35 L37.5,51.025 L40.9,51.025 C41.2,50.15 41.575,49.325 42,48.525 L37.5,48.525 L37.5,47.5 L37.5,40 L59.925,40 L62.425,40 C62.45,39.575 62.5,39.175 62.5,38.75 C62.5,24.25 50.75,12.5 36.25,12.5 C36.25,12.5 36.225,12.5 36.225,12.5 C36.225,12.5 36.225,12.5 36.2,12.5 C36.175,12.5 36.175,12.5 36.15,12.5 C21.7,12.55 10,24.275 10,38.75 C10,53.225 21.7,64.95 36.15,65 C36.175,65 36.175,65 36.2,65 C36.2,65 36.2,65 36.225,65 C36.225,65 36.25,65 36.25,65 C38.275,65 40.25,64.75 42.15,64.3 C41.725,63.55 41.35,62.775 41.05,61.95 Z M59.925,37.5 L51.4,37.5 C51.325,34.8 51.025,32.2 50.5,29.775 L58.2,29.775 C59.2,32.175 59.8,34.775 59.925,37.5 Z M57.025,27.275 L49.9,27.275 C48.625,22.775 46.625,19 44.15,16.4 C49.65,18.325 54.225,22.225 57.025,27.275 Z M37.5,15.125 C41.65,15.95 45.3,20.7 47.3,27.275 L37.5,27.275 L37.5,15.125 Z M37.5,29.775 L47.95,29.775 C48.5,32.2 48.825,34.8 48.9,37.5 L37.5,37.5 L37.5,29.775 Z M28.225,16.425 C25.775,19.025 23.8,22.775 22.525,27.275 L15.475,27.275 C18.25,22.275 22.775,18.4 28.225,16.425 Z M14.275,29.775 L21.9,29.775 C21.4,32.2 21.075,34.8 21,37.5 L12.575,37.5 C12.7,34.775 13.3,32.175 14.275,29.775 Z M12.575,40 L21,40 C21.075,43 21.45,45.9 22.075,48.55 L14.65,48.55 C13.45,45.925 12.725,43.025 12.575,40 Z M15.975,51.05 L22.75,51.05 C24.025,55.175 25.925,58.625 28.225,61.075 C23.075,59.225 18.775,55.65 15.975,51.05 Z M35,62.375 C30.975,61.625 27.45,57.225 25.4,51.05 L35,51.05 L35,62.375 Z M35,48.55 L24.675,48.55 C24,45.9 23.6,43.025 23.5,40 L35,40 L35,48.55 Z M35,37.5 L23.5,37.5 C23.575,34.8 23.9,32.175 24.45,29.775 L35,29.775 L35,37.5 Z M35,27.275 L25.125,27.275 C27.15,20.65 30.8,15.9 35,15.125 L35,27.275 Z" id="Shape" fill="#101828" fill-rule="nonzero"></path>
            <rect id="Rectangle" x="0" y="0" width="80" height="80"></rect>
        </g>
    </g>
</svg>