<?xml version="1.0" encoding="UTF-8"?>
<svg width="56px" height="56px" viewBox="0 0 56 56" version="1.1" xmlns="http://www.w3.org/2000/svg" xmlns:xlink="http://www.w3.org/1999/xlink">
    <!-- Generator: Sketch 57.1 (83088) - https://sketch.com -->
    <title>199-W56px</title>
    <desc>Created with Sketch.</desc>
    <g id="NEW_icons" stroke="none" stroke-width="1" fill="none" fill-rule="evenodd">
        <g id="icons_UD_new-Copy" transform="translate(-1814.000000, -25360.000000)">
            <g id="199-W56px" transform="translate(1814.000000, 25360.000000)">
                <circle id="Oval-Copy-1199" fill="#101828" cx="28" cy="28" r="28"></circle>
                <g id="199-B32px-Copy-4" transform="translate(8.000000, 8.000000)">
                    <path d="M33.725,12.5 L33.75,12.525 L33.725,26.2375 L6.25,26.2125 L6.275,12.5 L33.725,12.5 L33.725,12.5 Z M33.725,11.25 L6.275,11.25 C5.575,11.25 5,11.825 5,12.525 L5,26.2125 C5,26.9125 5.575,27.4875 6.275,27.4875 L33.725,27.4875 C34.425,27.4875 35,26.9125 35,26.2125 L35,12.525 C35,11.825 34.425,11.25 33.725,11.25 L33.725,11.25 Z" id="Shape" fill="#FFFFFF" fill-rule="nonzero"></path>
                    <path d="M19.975,27.425 C14.5875,27.425 10.55,28.25 8.75,28.7 L8.75,29.9875 C10.3,29.5875 14.425,28.675 19.975,28.675 C25.575,28.675 29.7375,29.6 31.25,30 L31.25,28.7125 C29.4625,28.2625 25.4125,27.425 19.975,27.425 Z" id="Path" fill="#FFFFFF" fill-rule="nonzero"></path>
                    <path d="M11.7,18.6875 C10.55,18.4625 10.4,18.1875 10.4,17.95 C10.4,17.625 10.85,17.5125 11.2375,17.5125 C11.7375,17.5125 12.1,17.7125 12.4,18.175 L12.475,18.2875 L13.6375,17.6625 L13.5625,17.525 C13.125,16.675 12.3625,16.25 11.2625,16.25 C9.9375,16.25 9.0375,16.9375 9.0375,17.975 C9.0375,18.9375 9.7375,19.6 11,19.8375 C11.9625,20.0125 12.325,20.2375 12.325,20.6375 C12.325,21.0125 11.95,21.25 11.3875,21.25 C10.7,21.25 10.3,20.975 10.025,20.325 L9.9625,20.175 L8.75,20.7375 L8.7875,20.8625 C9.1,21.8875 10.075,22.5 11.4,22.5 C12.9375,22.5 13.75,21.5375 13.75,20.5875 C13.75,19.575 13.1,18.975 11.7,18.6875 Z" id="Path" fill="#FFFFFF" fill-rule="nonzero"></path>
                    <path d="M17.5,16.25 L15,22.5 L16.5125,22.5 L17.1,20.95 L19.15,20.95 L19.7375,22.5 L21.25,22.5 L18.75,16.25 L17.5,16.25 Z M18.125,18.2125 C18.175,18.35 18.2,18.425 18.2,18.425 L18.65,19.625 L17.5875,19.625 L18.0375,18.425 C18.05,18.425 18.075,18.35 18.125,18.2125 Z" id="Shape" fill="#FFFFFF" fill-rule="nonzero"></path>
                    <polygon id="Path" fill="#FFFFFF" fill-rule="nonzero" points="23.75 16.25 22.5 16.25 22.5 22.4875 26.25 22.4875 26.25 21.2375 23.75 21.2375"></polygon>
                    <polygon id="Path" fill="#FFFFFF" fill-rule="nonzero" points="28.75 21.2375 28.75 19.9875 31.25 19.9875 31.25 18.7375 28.75 18.7375 28.75 17.4875 31.25 17.4875 31.225 16.25 27.5 16.25 27.5 22.4875 31.25 22.4875 31.25 21.2375"></polygon>
                    <rect id="Rectangle" x="0" y="0" width="40" height="40"></rect>
                </g>
            </g>
        </g>
    </g>
</svg>