<?xml version="1.0" encoding="UTF-8"?>
<svg width="80px" height="80px" viewBox="0 0 80 80" version="1.1" xmlns="http://www.w3.org/2000/svg" xmlns:xlink="http://www.w3.org/1999/xlink">
    <!-- Generator: Sketch 57.1 (83088) - https://sketch.com -->
    <title>088-B80px</title>
    <desc>Created with Sketch.</desc>
    <g id="088-B80px" stroke="none" stroke-width="1" fill="none" fill-rule="evenodd">
        <g>
            <path d="M57.375,12.5 C57.45,12.5 57.5,12.55 57.5,12.625 L57.5,67.375 C57.5,67.45 57.45,67.5 57.375,67.5 L22.625,67.5 C22.55,67.5 22.5,67.45 22.5,67.375 L22.5,12.625 C22.5,12.55 22.55,12.5 22.625,12.5 L57.375,12.5 L57.375,12.5 Z M57.375,10 L22.625,10 C21.175,10 20,11.175 20,12.625 L20,67.375 C20,68.825 21.175,70 22.625,70 L57.375,70 C58.825,70 60,68.825 60,67.375 L60,12.625 C60,11.175 58.825,10 57.375,10 L57.375,10 Z" id="Shape" fill="#101828" fill-rule="nonzero"></path>
            <path d="M40,65 C40.675,65 41.25,64.45 41.25,63.75 C41.25,63.05 40.675,62.5 40,62.5 C39.325,62.5 38.75,63.05 38.75,63.75 C38.75,64.45 39.325,65 40,65" id="Path" fill="#101828" fill-rule="nonzero"></path>
            <rect id="Rectangle" fill="#101828" fill-rule="nonzero" x="20" y="57.5" width="40" height="2.5"></rect>
            <path d="M40,20 C45.475,20 49.95,24.525 50,30.025 C49.95,34.175 44.45,42.675 40,48.475 C35.525,42.675 30,34.2 30,30.275 L30,30.125 C30,24.55 34.475,20 40,20 L40,20 Z M40,17.5 L40,17.5 C33.1,17.5 27.5,23.175 27.5,30.15 L27.5,30.3 C27.5,37.4 40,52.5 40,52.5 C40,52.5 52.425,37.5 52.5,30.05 C52.45,23.1 46.875,17.5 40,17.5 L40,17.5 Z" id="Shape" fill="#101828" fill-rule="nonzero"></path>
            <path d="M40,25 C42.75,25 45,27.25 45,30 C45,32.75 42.75,35 40,35 C37.25,35 35,32.75 35,30 C35,27.25 37.25,25 40,25 L40,25 Z M40,22.5 C35.85,22.5 32.5,25.85 32.5,30 C32.5,34.15 35.85,37.5 40,37.5 C44.15,37.5 47.5,34.15 47.5,30 C47.5,25.85 44.15,22.5 40,22.5 L40,22.5 Z" id="Shape" fill="#101828" fill-rule="nonzero"></path>
            <rect id="Rectangle" x="0" y="0" width="80" height="80"></rect>
        </g>
    </g>
</svg>