<?xml version="1.0" encoding="UTF-8"?>
<svg width="81px" height="80px" viewBox="0 0 81 80" version="1.1" xmlns="http://www.w3.org/2000/svg" xmlns:xlink="http://www.w3.org/1999/xlink">
    <!-- Generator: Sketch 57.1 (83088) - https://sketch.com -->
    <title>057-G80px</title>
    <desc>Created with Sketch.</desc>
    <g id="NEW_icons" stroke="none" stroke-width="1" fill="none" fill-rule="evenodd">
        <g id="057-G80px" transform="translate(0.500000, 0.000000)">
            <circle id="Oval-Copy-60" fill="#E3E8EC" cx="40" cy="40" r="40"></circle>
            <g id="057-B32px-Copy-7" transform="translate(12.000000, 12.000000)">
                <g id="Group" transform="translate(7.000000, 7.000000)" fill="#101828" fill-rule="nonzero">
                    <path d="M40.25,1.75 L40.25,40.25 L1.75,40.25 L1.75,1.75 L40.25,1.75 L40.25,1.75 Z M40.25,0 L1.75,0 C0.7,0 0,0.7 0,1.75 L0,40.25 C0,41.3 0.7,42 1.75,42 L40.25,42 C41.3,42 42,41.3 42,40.25 L42,1.75 C42,0.7 41.3,0 40.25,0 L40.25,0 Z" id="Shape"></path>
                    <path d="M29.75,28.525 C27.825,28.525 26.075,27.825 24.85,26.25 L21,22.225 L17.325,26.25 C15.925,27.65 14.175,28.525 12.425,28.525 C10.5,28.525 8.75,27.825 7.525,26.25 C4.9,23.275 4.9,18.55 7.525,15.75 C8.925,14.35 10.675,13.475 12.425,13.475 C14.35,13.475 16.1,14.175 17.325,15.75 L21,19.775 L24.675,15.75 C26.075,14.35 27.825,13.475 29.575,13.475 C31.5,13.475 33.25,14.175 34.475,15.75 C37.1,18.725 37.1,23.45 34.475,26.25 C33.425,27.65 31.5,28.525 29.75,28.525 Z M22.225,21 L26.075,25.025 C28,27.125 31.5,27.125 33.425,25.025 C35.525,22.75 35.525,19.075 33.425,16.8 C31.5,14.7 28,14.7 26.075,16.8 L22.225,21 Z M12.25,15.225 C10.85,15.225 9.625,15.75 8.575,16.8 C6.475,19.075 6.475,22.75 8.575,25.025 C10.5,27.125 14,27.125 15.925,25.025 L19.775,21 L15.925,16.975 C15.05,15.925 13.65,15.225 12.25,15.225 Z" id="Shape"></path>
                </g>
                <rect id="Rectangle" x="0" y="0" width="56" height="56"></rect>
            </g>
        </g>
    </g>
</svg>