<?xml version="1.0" encoding="UTF-8"?>
<svg width="80px" height="80px" viewBox="0 0 80 80" version="1.1" xmlns="http://www.w3.org/2000/svg" xmlns:xlink="http://www.w3.org/1999/xlink">
    <!-- Generator: Sketch 57.1 (83088) - https://sketch.com -->
    <title>058-B80px</title>
    <desc>Created with Sketch.</desc>
    <g id="058-B80px" stroke="none" stroke-width="1" fill="none" fill-rule="evenodd">
        <g>
            <path d="M38.775,17.5 L38.825,20 C44.4,20.025 49.35,23.6 51.5,29.125 L52.175,30.875 L54.05,30.725 C54.375,30.7 54.7,30.675 55.05,30.675 C58.35,30.675 61.475,32.075 63.825,34.575 C66.2,37.125 67.5,40.5 67.5,44.125 C67.475,51.5 61.875,57.5 54.95,57.5 L26.075,57.425 L26.075,57.425 L23.75,57.425 L23.625,57.425 L23.625,57.425 C17.45,57.35 12.475,51.925 12.4999062,45.3 C12.525,38.9 17.2,33.625 23.125,33.275 L25,33.175 L25.4,31.325 C26.925,24.65 32.4,20 38.775,20 L38.775,17.5 L38.775,17.5 Z M38.775,17.5 C31.1,17.5 24.675,23.15 22.975,30.75 C15.775,31.175 10.025,37.5 9.99992374,45.275 C9.975,53.325 16.1,59.875 23.7,59.9 C23.7,59.9 23.7,59.9 23.7,59.9 C23.725,59.9 23.725,59.9 23.75,59.9 C23.75,59.9 23.75,59.9 23.75,59.9 L23.75,59.9 L54.95,60 C54.975,60 54.975,60 55,60 C63.275,60 69.975,52.9 70.0000697,44.125 C70.025,35.325 63.325,28.175 55.05,28.15 C55.05,28.15 55.025,28.15 55.025,28.15 C54.625,28.15 54.225,28.175 53.825,28.2 C51.4,21.925 45.625,17.5 38.825,17.475 C38.825,17.5 38.8,17.5 38.775,17.5 L38.775,17.5 Z" id="Shape" fill="#101828" fill-rule="nonzero"></path>
            <path d="M46.6,49.925 C45,49.925 43.5,49.275 42.4,48.05 L40,45.5 L37.625,48.05 C35.375,50.45 31.45,50.45 29.2,48.05 C26.95,45.625 26.95,41.7 29.2,39.275 C31.45,36.875 35.375,36.875 37.625,39.275 L40,41.825 L42.375,39.275 C44.625,36.875 48.55,36.875 50.8,39.275 C53.05,41.7 53.05,45.625 50.8,48.05 C49.675,49.275 48.175,49.925 46.6,49.925 Z M41.7,43.675 L44.2,46.375 C45.475,47.75 47.675,47.75 48.95,46.375 C50.325,44.9 50.325,42.475 48.95,41 C47.675,39.625 45.475,39.625 44.2,41 L41.7,43.675 Z M33.4,39.925 C32.5,39.925 31.65,40.3 31.025,41 C29.65,42.475 29.65,44.9 31.025,46.375 C32.3,47.75 34.5,47.75 35.775,46.375 L38.275,43.675 L35.775,41 C35.15,40.3 34.3,39.925 33.4,39.925 Z" id="Shape" fill="#101828" fill-rule="nonzero"></path>
            <rect id="Rectangle" x="0" y="0" width="80" height="80"></rect>
        </g>
    </g>
</svg>