<?xml version="1.0" encoding="UTF-8"?>
<svg width="56px" height="56px" viewBox="0 0 56 56" version="1.1" xmlns="http://www.w3.org/2000/svg" xmlns:xlink="http://www.w3.org/1999/xlink">
    <!-- Generator: Sketch 57.1 (83088) - https://sketch.com -->
    <title>190-W56px</title>
    <desc>Created with Sketch.</desc>
    <g id="NEW_icons" stroke="none" stroke-width="1" fill="none" fill-rule="evenodd">
        <g id="icons_UD_new-Copy" transform="translate(-532.000000, -24361.000000)">
            <g id="190-W56px" transform="translate(532.000000, 24361.000000)">
                <circle id="Oval-Copy-1259" fill="#101828" cx="28" cy="28" r="28"></circle>
                <g id="190-B32px-Copy-4" transform="translate(8.000000, 8.000000)">
                    <path d="M15,21.25 L15,28.75 L15,30 L16.25,30 L17.5,30 L17.5,32.5 L11.25,32.5 L11.25,21.25 L15,21.25 L15,21.25 Z M15,20 L11.25,20 C10.5625,20 10,20.5625 10,21.25 L10,32.5 C10,33.1875 10.5625,33.75 11.25,33.75 L17.5,33.75 C18.1875,33.75 18.75,33.1875 18.75,32.5 L18.75,30 C18.75,29.3125 18.1875,28.75 17.5,28.75 L16.25,28.75 L16.25,21.25 C16.25,20.5625 15.6875,20 15,20 L15,20 Z" id="Shape" fill="#FFFFFF" fill-rule="nonzero"></path>
                    <path d="M18.6375,21.25 C18.7,21.25 18.75,21.3 18.75,21.3625 L18.75,23.6375 C18.75,23.7 18.7,23.75 18.6375,23.75 L16.3625,23.75 C16.3,23.75 16.25,23.7 16.25,23.6375 L16.25,21.3625 C16.25,21.3 16.3,21.25 16.3625,21.25 L18.6375,21.25 L18.6375,21.25 Z M18.6375,20 L16.3625,20 C15.6125,20 15,20.6125 15,21.3625 L15,23.6375 C15,24.3875 15.6125,25 16.3625,25 L18.6375,25 C19.3875,25 20,24.3875 20,23.6375 L20,21.3625 C20,20.6125 19.3875,20 18.6375,20 L18.6375,20 Z" id="Shape" fill="#FFFFFF" fill-rule="nonzero"></path>
                    <path d="M29.8875,11.25 C29.95,11.25 30,11.3 30,11.3625 L30,17.3875 C30,17.45 29.95,17.5 29.8875,17.5 L27.6125,17.5 C27.55,17.5 27.5,17.45 27.5,17.3875 L27.5,11.3625 C27.5,11.3 27.55,11.25 27.6125,11.25 L29.8875,11.25 L29.8875,11.25 Z M29.8875,10 L27.6125,10 C26.8625,10 26.25,10.6125 26.25,11.3625 L26.25,17.3875 C26.25,18.1375 26.8625,18.75 27.6125,18.75 L29.8875,18.75 C30.6375,18.75 31.25,18.1375 31.25,17.3875 L31.25,11.3625 C31.25,10.6125 30.6375,10 29.8875,10 L29.8875,10 Z" id="Shape" fill="#FFFFFF" fill-rule="nonzero"></path>
                    <path d="M26.1375,8.75 C26.2,8.75 26.25,8.8 26.25,8.8625 L26.25,19.8875 C26.25,19.95 26.2,20 26.1375,20 L6.3625,20 C6.3,20 6.25,19.95 6.25,19.8875 L6.25,8.8625 C6.25,8.8 6.3,8.75 6.3625,8.75 L26.1375,8.75 L26.1375,8.75 Z M26.1375,7.5 L6.3625,7.5 C5.6125,7.5 5,8.1125 5,8.8625 L5,19.8875 C5,20.6375 5.6125,21.25 6.3625,21.25 L26.1375,21.25 C26.8875,21.25 27.5,20.6375 27.5,19.8875 L27.5,8.8625 C27.5,8.1125 26.8875,7.5 26.1375,7.5 L26.1375,7.5 Z" id="Shape" fill="#FFFFFF" fill-rule="nonzero"></path>
                    <path d="M16.1375,12.5 C16.2,12.5 16.25,12.55 16.25,12.6125 L16.25,16.1375 C16.25,16.2 16.2,16.25 16.1375,16.25 L10.1125,16.25 C10.05,16.25 10,16.2 10,16.1375 L10,12.6125 C10,12.55 10.05,12.5 10.1125,12.5 L16.1375,12.5 L16.1375,12.5 Z M16.1375,11.25 L10.1125,11.25 C9.3625,11.25 8.75,11.8625 8.75,12.6125 L8.75,16.1375 C8.75,16.8875 9.3625,17.5 10.1125,17.5 L16.1375,17.5 C16.8875,17.5 17.5,16.8875 17.5,16.1375 L17.5,12.6125 C17.5,11.8625 16.8875,11.25 16.1375,11.25 L16.1375,11.25 Z" id="Shape" fill="#FFFFFF" fill-rule="nonzero"></path>
                    <rect id="Rectangle" fill="#FFFFFF" fill-rule="nonzero" x="18.75" y="13.75" width="5" height="1.25"></rect>
                    <rect id="Rectangle" fill="#FFFFFF" fill-rule="nonzero" x="31.25" y="13.75" width="3.75" height="1.25"></rect>
                    <rect id="Rectangle" fill="#FFFFFF" fill-rule="nonzero" x="18.75" y="11.25" width="5" height="1.25"></rect>
                    <path d="M11.875,15 C12.2125,15 12.5,14.725 12.5,14.375 C12.5,14.025 12.225,13.75 11.875,13.75 C11.5375,13.75 11.25,14.025 11.25,14.375 C11.2625,14.725 11.5375,15 11.875,15" id="Path" fill="#FFFFFF" fill-rule="nonzero"></path>
                    <rect id="Rectangle" x="0" y="0" width="40" height="40"></rect>
                </g>
            </g>
        </g>
    </g>
</svg>