<?xml version="1.0" encoding="UTF-8"?>
<svg width="80px" height="80px" viewBox="0 0 80 80" version="1.1" xmlns="http://www.w3.org/2000/svg" xmlns:xlink="http://www.w3.org/1999/xlink">
    <!-- Generator: Sketch 58 (84663) - https://sketch.com -->
    <title>260-B80px</title>
    <desc>Created with Sketch.</desc>
    <g id="260-B80px" stroke="none" stroke-width="1" fill="none" fill-rule="evenodd">
        <g id="260-B32px">
            <g>
                <path d="M27.475,25 L27.475,35 L26.225,35 C25.525,35 24.975,34.55 24.975,34.175 L24.975,25.85 C24.975,25.45 25.5,25 26.225,25 L27.475,25 L27.475,25 Z M29.975,22.5 L26.25,22.5 C24.175,22.5 22.5,23.975 22.5,25.825 L22.5,34.15 C22.5,36 24.175,37.5 26.25,37.5 L30,37.5 L30,22.5 L29.975,22.5 Z" id="Shape" fill="#101828" fill-rule="nonzero"></path>
                <path d="M58.75,24.75 L56.25,24.75 L56.25,23.5 C56.25,21.875 55.55,20.125 54.15,18.275 C51.375,14.6 47.125,12.5 42.5,12.5 C37.875,12.5 33.625,14.6 30.85,18.275 C29.475,20.1 28.75,21.85 28.75,23.475 L28.75,24.725 L26.25,24.725 L26.25,23.475 C26.25,21.3 27.125,19.025 28.85,16.75 C32.1,12.45 37.075,10 42.5,10 C47.925,10 52.9,12.475 56.15,16.775 C57.875,19.05 58.75,21.325 58.75,23.5 L58.75,24.75 Z" id="Path" fill="#101828" fill-rule="nonzero"></path>
                <path d="M58.75,25 C59.475,25 60,25.45 60,25.825 L60,34.15 C60,34.55 59.45,35 58.725,35 L57.5,35 L57.5,25 L58.75,25 L58.75,25 Z M58.75,22.5 L55,22.5 L55,37.5 L58.725,37.5 C60.8,37.5 62.5,36 62.5,34.15 L62.5,25.825 C62.5,23.975 60.825,22.5 58.75,22.5 L58.75,22.5 Z" id="Shape" fill="#101828" fill-rule="nonzero"></path>
                <path d="M48.05,55 L44.95,55 L44.95,52.5 L48.05,52.5 C53.45,52.5 56.25,44.95 56.25,37.5 L58.75,37.5 C58.75,45.925 55.4,55 48.05,55 Z" id="Path" fill="#101828" fill-rule="nonzero"></path>
                <path d="M57.5,52.95 C60.4,53.975 62.5,56.725 62.5,60 L62.5,70 L65,70 L65,60 C65,55.35 61.8,51.475 57.5,50.35 L57.5,52.95 Z" id="Path" fill="#101828" fill-rule="nonzero"></path>
                <path d="M23.75,45 C29.95,45 35,50.05 35,56.25 C35,62.45 29.95,67.5 23.75,67.5 C17.55,67.5 12.5,62.45 12.5,56.25 C12.5,50.05 17.55,45 23.75,45 L23.75,45 Z M23.75,42.5 C16.15,42.5 10,48.65 10,56.25 C10,63.85 16.15,70 23.75,70 C31.35,70 37.5,63.85 37.5,56.25 C37.5,48.65 31.35,42.5 23.75,42.5 L23.75,42.5 Z" id="Shape" fill="#101828" fill-rule="nonzero"></path>
                <path d="M42.5,17.5 C49.4,17.5 55,23.1 55,30 C55,36.9 49.4,42.5 42.5,42.5 C35.6,42.5 30,36.9 30,30 C30,23.1 35.6,17.5 42.5,17.5 L42.5,17.5 Z M42.5,15 C34.225,15 27.5,21.725 27.5,30 C27.5,38.275 34.225,45 42.5,45 C50.775,45 57.5,38.275 57.5,30 C57.5,21.7 50.775,15 42.5,15 L42.5,15 Z" id="Shape" fill="#101828" fill-rule="nonzero"></path>
                <path d="M47.175,50 C47.3,50.2 47.475,50.65 47.475,51.25 C47.475,51.85 47.3,52.275 47.175,52.5 L42.8,52.475 C42.675,52.275 42.5,51.85 42.5,51.225 C42.5,50.625 42.675,50.2 42.8,49.975 L47.175,49.975 L47.175,50 Z M47.475,47.5 L42.5,47.5 C41.125,47.5 40,49.175 40,51.25 C40,53.3 41.125,54.975 42.5,55 L47.475,55 C47.475,55 47.475,55 47.475,55 C48.85,55 49.975,53.325 49.975,51.25 L49.975,51.225 C49.975,49.15 48.85,47.5 47.475,47.5 L47.475,47.5 Z" id="Shape" fill="#101828" fill-rule="nonzero"></path>
                <path d="M22.675,51.9 L19.625,48.75 C19.3,48.425 18.775,48.425 18.45,48.75 L16.425,50.7 C16.225,50.9 16.15,51.15 16.175,51.425 C16.65,55.45 20.45,59.375 20.45,59.375 C20.45,59.375 24.225,63.275 28.275,63.925 C28.525,63.975 28.8,63.875 29,63.7 L31.025,61.75 C31.35,61.425 31.375,60.9 31.05,60.575 L28,57.425 C27.675,57.1 27.15,57.1 26.825,57.425 L25.475,58.725 C25.475,58.725 23.825,58 22.9,57.025 C21.975,56.05 21.3,54.375 21.3,54.375 L22.65,53.075 C23,52.775 23,52.25 22.675,51.9 Z" id="Path" fill="#101828" fill-rule="nonzero"></path>
                <rect id="Rectangle" x="0" y="0" width="80" height="80"></rect>
            </g>
        </g>
    </g>
</svg>