<?xml version="1.0" encoding="UTF-8"?>
<svg width="80px" height="80px" viewBox="0 0 80 80" version="1.1" xmlns="http://www.w3.org/2000/svg" xmlns:xlink="http://www.w3.org/1999/xlink">
    <!-- Generator: Sketch 57.1 (83088) - https://sketch.com -->
    <title>025-B80px</title>
    <desc>Created with Sketch.</desc>
    <g id="025-B80px" stroke="none" stroke-width="1" fill="none" fill-rule="evenodd">
        <g>
            <path d="M56.425,57.5 C57.8,57.5 58.925,58.625 58.925,60 L58.925,62.5 C58.925,63.875 57.8,65 56.425,65 C55.05,65 53.925,63.875 53.925,62.5 L53.925,60 C53.925,58.625 55.025,57.5 56.425,57.5 L56.425,57.5 Z M56.425,55 C53.675,55 51.425,57.25 51.425,60 L51.425,62.5 C51.425,65.25 53.675,67.5 56.425,67.5 C59.175,67.5 61.425,65.25 61.425,62.5 L61.425,60 C61.425,57.25 59.175,55 56.425,55 L56.425,55 Z" id="Shape" fill="#101828" fill-rule="nonzero"></path>
            <polygon id="Path" fill="#101828" fill-rule="nonzero" points="65 57.5 67.5 57.5 67.5 60 70 60 70 62.5 67.5 62.5 67.5 65 65 65 65 62.5 62.5 62.5 62.5 60 65 60"></polygon>
            <path d="M48.675,59.625 C48.675,59.375 48.7,59.125 48.725,58.875 C47.3,59.775 45.775,60.525 44.15,61.1 C46.475,58.65 48.375,55.175 49.675,51.025 L56.525,51.025 C56.225,51.525 55.9,52 55.55,52.475 L58.575,52.475 C61.05,48.475 62.5,43.775 62.5,38.725 C62.5,24.25 50.75,12.5 36.25,12.5 C36.25,12.5 36.225,12.5 36.225,12.5 C36.225,12.5 36.225,12.5 36.2,12.5 C36.175,12.5 36.175,12.5 36.15,12.5 C21.7,12.55 10,24.275 10,38.75 C10,53.225 21.7,64.95 36.15,65 C36.175,65 36.175,65 36.2,65 C36.2,65 36.2,65 36.225,65 C36.225,65 36.25,65 36.25,65 C40.75,65 44.975,63.875 48.675,61.875 L48.675,59.625 Z M28.225,16.425 C25.925,18.875 24.025,22.325 22.75,26.45 L15.975,26.45 C18.775,21.85 23.075,18.275 28.225,16.425 Z M14.65,28.95 L22.1,28.95 C21.45,31.6 21.1,34.5 21,37.5 L12.575,37.5 C12.725,34.475 13.45,31.575 14.65,28.95 Z M12.575,40 L21,40 C21.075,43 21.45,45.9 22.075,48.55 L14.65,48.55 C13.45,45.925 12.725,43.025 12.575,40 Z M15.975,51.05 L22.75,51.05 C24.025,55.175 25.925,58.625 28.225,61.075 C23.075,59.225 18.775,55.65 15.975,51.05 Z M35,62.375 C30.975,61.625 27.45,57.225 25.4,51.05 L35,51.05 L35,62.375 Z M35,48.55 L24.675,48.55 C24,45.9 23.6,43.025 23.5,40 L35,40 L35,48.55 Z M35,37.5 L23.5,37.5 C23.6,34.475 24,31.6 24.65,28.95 L35,28.95 L35,37.5 Z M35,26.45 L25.4,26.45 C27.475,20.275 31,15.875 35,15.125 L35,26.45 Z M57.85,48.55 L50.325,48.55 C50.95,45.9 51.325,43 51.4,40 L59.925,40 C59.775,43.025 59.05,45.925 57.85,48.55 Z M59.925,37.5 L51.4,37.5 C51.325,34.5 50.95,31.6 50.325,28.95 L57.85,28.95 C59.05,31.575 59.775,34.475 59.925,37.5 Z M56.525,26.45 L49.675,26.45 C48.4,22.3 46.475,18.825 44.15,16.375 C49.35,18.225 53.7,21.8 56.525,26.45 Z M37.5,15.125 C41.475,15.9 44.975,20.3 47.025,26.45 L37.5,26.45 L37.5,15.125 Z M37.5,28.95 L47.75,28.95 C48.425,31.6 48.825,34.475 48.9,37.5 L37.5,37.5 L37.5,28.95 Z M37.5,40 L48.9,40 C48.8,43.025 48.4,45.9 47.75,48.55 L37.5,48.55 L37.5,40 Z M37.5,62.375 L37.5,51.05 L47.025,51.05 C44.975,57.2 41.475,61.575 37.5,62.375 Z" id="Shape" fill="#101828" fill-rule="nonzero"></path>
            <rect id="Rectangle" x="0" y="0" width="80" height="80"></rect>
        </g>
    </g>
</svg>