<?xml version="1.0" encoding="UTF-8"?>
<svg width="80px" height="80px" viewBox="0 0 80 80" version="1.1" xmlns="http://www.w3.org/2000/svg" xmlns:xlink="http://www.w3.org/1999/xlink">
    <!-- Generator: Sketch 57.1 (83088) - https://sketch.com -->
    <title>060-B80px</title>
    <desc>Created with Sketch.</desc>
    <g id="060-B80px" stroke="none" stroke-width="1" fill="none" fill-rule="evenodd">
        <g>
            <path d="M52.5,47 C49.75,47 47.25,46 45.5,43.75 L40,38.25 L34.75,44 C32.75,46 30.25,47.25 27.75,47.25 C25,47.25 22.5,46.25 20.75,44 C17,39.75 17,33 20.75,29 C22.75,27 25.25,25.75 27.75,25.75 C30.5,25.75 33,26.75 34.75,29 L40,34.75 L45.25,29 C47.25,27 49.75,25.75 52.25,25.75 C55,25.75 57.5,26.75 59.25,29 C63,33.25 63,40 59.25,44 C57.75,45.75 55,47 52.5,47 Z M41.75,36.25 L47.25,42 C50,45 55,45 57.75,42 C60.75,38.75 60.75,33.5 57.75,30.25 C55,27.25 50,27.25 47.25,30.25 L41.75,36.25 Z M27.5,28 C25.5,28 23.75,28.75 22.25,30.25 C19.25,33.5 19.25,38.75 22.25,42 C25,45 30,45 32.75,42 L38.25,36.25 L32.75,30.5 C31.5,29 29.5,28 27.5,28 Z" id="Shape" fill="#101828" fill-rule="nonzero"></path>
            <path d="M67.5,17.5 L12.5,17.5 C11,17.5 10,18.5 10,20 L10,47.5 L12.5,47.5 L12.5,20 L67.5,20 L67.5,52.5 L25.75,52.5 C24.75,52.5 23.75,52.75 23,53.25 L14.75,58.75 L10,62 L10,65 L24.25,55.5 C24.75,55.25 25.25,55 25.5,55 L67.5,55 C68.75,55 70,54 70,52.5 L70,20 C70,18.5 69,17.5 67.5,17.5 Z" id="Path" fill="#101828" fill-rule="nonzero"></path>
            <rect id="Rectangle" x="0" y="0" width="80" height="80"></rect>
        </g>
    </g>
</svg>