<?xml version="1.0" encoding="UTF-8"?>
<svg width="80px" height="80px" viewBox="0 0 80 80" version="1.1" xmlns="http://www.w3.org/2000/svg" xmlns:xlink="http://www.w3.org/1999/xlink">
    <!-- Generator: Sketch 57.1 (83088) - https://sketch.com -->
    <title>126-W80px</title>
    <desc>Created with Sketch.</desc>
    <g id="NEW_icons" stroke="none" stroke-width="1" fill="none" fill-rule="evenodd">
        <g id="icons_UD_new-Copy" transform="translate(-869.000000, -16291.000000)">
            <g id="126-W80px" transform="translate(869.000000, 16291.000000)">
                <circle id="Oval-Copy-847" fill="#101828" cx="40" cy="40" r="40"></circle>
                <g id="126-B32px-Copy-8" transform="translate(12.000000, 12.000000)">
                    <circle id="Oval" fill="#FFFFFF" fill-rule="nonzero" cx="22.75" cy="22.75" r="1.75"></circle>
                    <rect id="Rectangle" fill="#FFFFFF" fill-rule="nonzero" x="21.875" y="14" width="1.75" height="8.75"></rect>
                    <path d="M27.2825,26.0575 L23.3625,22.1375 L22.12,23.38 L26.285,27.545 C26.6,27.02 26.9325,26.5125 27.2825,26.0575 Z" id="Path" fill="#FFFFFF" fill-rule="nonzero"></path>
                    <g id="Group" transform="translate(26.250000, 22.750000)" fill="#FFFFFF" fill-rule="nonzero">
                        <path d="M7.245,20.055 C4.0075,18.4975 1.75,15.2075 1.75,11.375 C1.75,6.9825 4.7075,3.2725 8.75,2.1175 L8.75,0.315 C3.7275,1.505 0,6.0025 0,11.375 C0,15.5225 2.2225,19.145 5.5475,21.14 L7.245,20.055 Z" id="Path"></path>
                        <path d="M17.2025,1.6275 L15.505,2.7125 C18.76,4.2525 21,7.56 21,11.375 C21,15.7675 18.0425,19.4775 14,20.6325 L14,22.435 C19.0225,21.245 22.75,16.7475 22.75,11.375 C22.75,7.2275 20.5275,3.605 17.2025,1.6275 Z" id="Path"></path>
                    </g>
                    <path d="M36.75,22.4175 L38.6925,23.6425 L36.75,24.85 L36.75,22.4175 L36.75,22.4175 Z M35,19.25 L35,28 L42,23.625 L35,19.25 L35,19.25 Z" id="Shape" fill="#FFFFFF" fill-rule="nonzero"></path>
                    <path d="M38.5,43.4175 L38.5,45.85 L36.5575,44.625 L38.5,43.4175 L38.5,43.4175 Z M40.25,40.25 L33.25,44.625 L40.25,49 L40.25,40.25 L40.25,40.25 Z" id="Shape" fill="#FFFFFF" fill-rule="nonzero"></path>
                    <path d="M43.75,29.75 L42,29.75 L38.5,34.9825 L38.5,35.3675 L38.5,36.75 L42,36.7325 L42,38.5 L43.75,38.5175 L43.75,36.75 L45.5,36.7675 L45.5,35 L43.75,35 L43.75,29.75 Z M40.46,35 L42,32.725 L42,35 L40.46,35 Z" id="Shape" fill="#FFFFFF" fill-rule="nonzero"></path>
                    <path d="M35.4375,35.21 C36.435,34.125 36.75,33.4075 36.75,32.2875 C36.75,30.7475 35.735,29.7675 34.16,29.7675 C32.4275,29.7675 31.5,31.115 31.5,32.375 C31.5,32.6375 31.5175,32.9 31.57,33.1625 L31.5875,33.3025 L33.25,33.1625 L33.215,32.9875 C33.18,32.8125 33.1625,32.6725 33.1625,32.445 C33.1625,31.815 33.5475,31.43 34.16,31.43 C34.755,31.43 35.14,31.8325 35.14,32.4625 C35.14,32.97 34.9475,33.355 34.3175,34.0375 L31.5,37.17 L31.5,38.5 L36.75,38.5 L36.75,36.75 L34.0375,36.75 L35.4375,35.21 Z" id="Path" fill="#FFFFFF" fill-rule="nonzero"></path>
                    <path d="M24.745,36.61 C24.0975,36.6975 23.4325,36.75 22.75,36.75 C15.0325,36.75 8.75,30.4675 8.75,22.75 C8.75,15.0325 15.0325,8.75 22.75,8.75 C28.84,8.75 34.02,12.67 35.945,18.1125 L38.1675,19.53 C36.68,12.3725 30.345,7 22.75,7 C14.0525,7 7,14.0525 7,22.75 C7,31.4475 14.0525,38.5 22.75,38.5 C23.59,38.5 24.395,38.43 25.2,38.3075 C25.0075,37.7475 24.85,37.1875 24.745,36.61 Z" id="Path" fill="#FFFFFF" fill-rule="nonzero"></path>
                    <rect id="Rectangle" x="0" y="0" width="56" height="56"></rect>
                </g>
            </g>
        </g>
    </g>
</svg>