<?xml version="1.0" encoding="UTF-8"?>
<svg width="56px" height="56px" viewBox="0 0 56 56" version="1.1" xmlns="http://www.w3.org/2000/svg" xmlns:xlink="http://www.w3.org/1999/xlink">
    <!-- Generator: Sketch 57.1 (83088) - https://sketch.com -->
    <title>226-G56px</title>
    <desc>Created with Sketch.</desc>
    <g id="NEW_icons" stroke="none" stroke-width="1" fill="none" fill-rule="evenodd">
        <g id="icons_UD_new-Copy" transform="translate(-446.000000, -28876.000000)">
            <g id="226-G56px" transform="translate(446.000000, 28876.000000)">
                <circle id="Oval-Copy-1336" fill="#E3E8EC" cx="28" cy="28" r="28"></circle>
                <g id="226-B32px-Copy-3" transform="translate(8.000000, 8.000000)">
                    <path d="M33.7625,8.75 L32.5,8.75 L32.5,10 L33.75,10 L33.7625,26.25 L6.25,26.2625 L6.2375,10 L16.25,10 L16.25,8.75 L6.2375,8.75 C5.5625,8.75 5,9.3125 5,9.9875 L5,26.25 C5,26.9375 5.5625,27.5 6.2375,27.5 L33.75,27.5 C34.4375,27.5 34.9877044,26.9375 34.9877044,26.2625 L34.9877044,9.9875 C35,9.3125 34.4375,8.75 33.7625,8.75 Z" id="Path" fill="#101828" fill-rule="nonzero"></path>
                    <rect id="Rectangle" fill="#101828" fill-rule="nonzero" x="21.25" y="27.5" width="1.25" height="3.75"></rect>
                    <rect id="Rectangle" fill="#101828" fill-rule="nonzero" x="17.5" y="27.5" width="1.25" height="3.75"></rect>
                    <rect id="Rectangle" fill="#101828" fill-rule="nonzero" x="15.025" y="30" width="9.975" height="1.25"></rect>
                    <path d="M20,25.6125 C20.3375,25.6125 20.625,25.3375 20.625,24.9875 C20.625,24.6375 20.35,24.3625 20,24.3625 C19.6625,24.3625 19.375,24.6375 19.375,24.9875 C19.375,25.3375 19.65,25.6125 20,25.6125" id="Path" fill="#101828" fill-rule="nonzero"></path>
                    <path d="M30.6875,5 L18.0625,5 C17.75,5 17.5,5.2625 17.5,5.5875 L17.5,11.25 L18.75,11.25 L18.75,6.25 L30,6.25 L30,12.5 L21.0875,12.5 C20.725,12.5 20.3625,12.6125 20.0125,12.85 L18.8375,13.75 L17.5,14.6875 L17.5,16.25 L20.775,13.85 C20.875,13.7875 20.975,13.75 21.0875,13.75 L30.675,13.75 C31,13.75 31.25,13.4875 31.25,13.1625 L31.25,5.5875 C31.25,5.2625 31,5 30.6875,5 Z" id="Path" fill="#101828" fill-rule="nonzero"></path>
                    <path d="M12.5,12.5 C13.1875,12.5 13.75,13.0625 13.75,13.75 C13.75,14.4375 13.1875,15 12.5,15 C11.8125,15 11.25,14.4375 11.25,13.75 C11.25,13.0625 11.8125,12.5 12.5,12.5 L12.5,12.5 Z M12.5,11.25 C11.125,11.25 10,12.375 10,13.75 C10,15.125 11.125,16.25 12.5,16.25 C13.875,16.25 15,15.125 15,13.75 C15,12.375 13.875,11.25 12.5,11.25 L12.5,11.25 Z" id="Shape" fill="#101828" fill-rule="nonzero"></path>
                    <path d="M10,21.25 L10,20 C10,19.3125 10.5625,18.75 11.25,18.75 L13.75,18.75 C14.4375,18.75 15,19.3125 15,20 L15,21.25 L16.25,21.25 L16.25,20 C16.25,18.625 15.125,17.5 13.75,17.5 L11.25,17.5 C9.875,17.5 8.75,18.625 8.75,20 L8.75,21.25 L10,21.25 Z" id="Path" fill="#101828" fill-rule="nonzero"></path>
                    <rect id="Rectangle" fill="#101828" fill-rule="nonzero" x="6.25" y="22.5" width="27.5" height="1.25"></rect>
                    <rect id="Rectangle" x="0" y="0" width="40" height="40"></rect>
                </g>
            </g>
        </g>
    </g>
</svg>