<?xml version="1.0" encoding="UTF-8"?>
<svg width="56px" height="56px" viewBox="0 0 56 56" version="1.1" xmlns="http://www.w3.org/2000/svg" xmlns:xlink="http://www.w3.org/1999/xlink">
    <!-- Generator: Sketch 57.1 (83088) - https://sketch.com -->
    <title>235-G56px</title>
    <desc>Created with Sketch.</desc>
    <g id="NEW_icons" stroke="none" stroke-width="1" fill="none" fill-rule="evenodd">
        <g id="icons_UD_new-Copy" transform="translate(-1728.000000, -29889.000000)">
            <g id="235-G56px" transform="translate(1728.000000, 29889.000000)">
                <circle id="Oval-Copy-796" fill="#E3E8EC" cx="28" cy="28" r="28"></circle>
                <g id="235-B32px-Copy-3" transform="translate(8.000000, 11.000000)">
                    <path d="M33.75,6.25 L33.75,8.75 C33.75,12.6625 32.9375,18.4875 31.5875,21.475 C29.725,25.575 26.225,30.975 20,33.65 C13.775,30.975 10.2625,25.575 8.4125,21.475 C7.0625,18.4875 6.25,12.65 6.25,8.75 L6.25,6.25 L33.75,6.25 L33.75,6.25 Z M35,5 L5,5 L5,8.75 C5,12.45 5.75,18.6125 7.275,21.9875 C9.3625,26.6 13.2,32.275 20,35 C26.8,32.275 30.6375,26.6 32.725,21.9875 C34.25,18.6125 35,12.45 35,8.75 L35,5 L35,5 Z" id="Shape" fill="#101828" fill-rule="nonzero"></path>
                    <rect id="Rectangle" fill="#101828" fill-rule="nonzero" x="25.625" y="15" width="1.25" height="3.9125"></rect>
                    <path d="M20,18.825 L12.35,15 L20,11.175 L27.65,15 L20,18.825 Z M15.15,15 L20,17.425 L24.85,15 L20,12.575 L15.15,15 Z" id="Shape" fill="#101828" fill-rule="nonzero"></path>
                    <polygon id="Path" fill="#101828" fill-rule="nonzero" points="20.1625 21.9375 15.0125 19.55 15.0125 16.025 16.2625 16.025 16.2625 18.75 20.1625 20.5625 23.775 18.8875 23.775 16.1625 25.025 16.1625 25.025 19.6875"></polygon>
                    <rect id="Rectangle" x="0" y="0" width="40" height="40"></rect>
                </g>
            </g>
        </g>
    </g>
</svg>