<?xml version="1.0" encoding="UTF-8"?>
<svg width="80px" height="80px" viewBox="0 0 80 80" version="1.1" xmlns="http://www.w3.org/2000/svg" xmlns:xlink="http://www.w3.org/1999/xlink">
    <!-- Generator: Sketch 56.3 (81716) - https://sketch.com -->
    <title>046-C80px</title>
    <desc>Created with Sketch.</desc>
    <g id="NEW_icons" stroke="none" stroke-width="1" fill="none" fill-rule="evenodd">
        <g id="icons_UD_new-Copy" transform="translate(-1002.000000, -6099.000000)">
            <g id="046-C80px" transform="translate(1002.000000, 6099.000000)">
                <circle id="Oval-Copy-344" fill="#FF4F12" cx="40" cy="40" r="40"></circle>
                <g id="046-B32px-Copy-8" transform="translate(12.000000, 12.000000)">
                    <polygon id="Path" fill="#FFFFFF" points="28 17.5 19.4075 18.9525 19.4075 20.37 20.16 20.37 20.16 19.67 28 18.34 35.84 19.67 35.84 20.37 36.5925 20.37 36.5925 18.9525"></polygon>
                    <polygon id="Path" fill="#FFFFFF" points="37.87 24.185 43.2775 24.185 41.615 26.0925 39.97 28 37.5375 28 37.5375 24.185"></polygon>
                    <polygon id="Path" fill="#FFFFFF" points="35.8225 25.13 35.7875 30.1875 28 37.555 20.2125 30.1875 20.1775 25.13 19.4075 25.13 19.4075 28.5425 19.4075 30.3975 28 38.5 36.5925 30.3975 36.5925 25.935 36.5925 25.13"></polygon>
                    <polygon id="Path" fill="#FFFFFF" points="16.2225 20.37 7 20.37 8.68 22.015 10.3425 23.66 16.1875 23.66 16.2225 23.66 18.97 23.66 20.5975 23.66 20.79 23.66 21.07 23.66 21.07 29.33 23.6075 31.815 26.0925 29.3825 24.4125 27.72 24.4125 20.37"></polygon>
                    <polygon id="Path" fill="#FFFFFF" points="29.9075 20.8775 29.9075 29.925 29.9075 34.9125 28 36.5925 26.0925 34.9125 26.0925 29.925 26.0925 20.8775 28 19.4075"></polygon>
                    <polygon id="Path" fill="#FFFFFF" points="31.5875 20.37 31.5875 27.72 29.9075 29.3825 32.3925 31.815 34.93 29.3125 34.93 23.66 35.35 23.66 35.735 23.66 37.3625 23.66 39.9525 23.66 45.6575 23.66 47.32 22.015 49 20.37"></polygon>
                    <polygon id="Path" fill="#FFFFFF" points="12.7225 24.185 18.4625 24.185 18.4625 28 16.03 28 14.385 26.0925"></polygon>
                    <rect id="Rectangle" x="0" y="0" width="56" height="56"></rect>
                </g>
            </g>
        </g>
    </g>
</svg>