<?xml version="1.0" encoding="UTF-8"?>
<svg width="80px" height="80px" viewBox="0 0 80 80" version="1.1" xmlns="http://www.w3.org/2000/svg" xmlns:xlink="http://www.w3.org/1999/xlink">
    <!-- Generator: Sketch 56.3 (81716) - https://sketch.com -->
    <title>047-W80px</title>
    <desc>Created with Sketch.</desc>
    <g id="NEW_icons" stroke="none" stroke-width="1" fill="none" fill-rule="evenodd">
        <g id="icons_UD_new-Copy" transform="translate(-2151.000000, -6099.000000)">
            <g id="047-W80px" transform="translate(2151.000000, 6099.000000)">
                <circle id="Oval-Copy-341" fill="#101828" cx="40" cy="40" r="40"></circle>
                <g id="047-B32px-Copy-8" transform="translate(12.000000, 12.000000)">
                    <path d="M38.8325,30.1525 L38.8325,25.8825 L41.4225,28.0175 C40.565,28.735 39.7075,29.435 38.8325,30.1525 M28,41.4575 C27.2825,40.5825 26.5825,39.725 25.865,38.8675 L30.135,38.8675 C29.4175,39.725 28.7175,40.5825 28,41.4575 M28,14.6475 C28.7175,15.5225 29.4175,16.38 30.135,17.2375 L25.865,17.2375 C26.5825,16.38 27.2825,15.5225 28,14.6475 M17.2375,30.1525 C16.3625,29.435 15.505,28.735 14.6475,28.0175 C15.505,27.3 16.3625,26.6 17.2375,25.8825 M43.75,27.9475 C43.7325,26.9675 43.5925,25.9875 43.295,25.0425 C43.155,24.605 43.015,24.15 42.805,23.7475 C42.595,23.3625 42.2975,23.0475 41.8775,22.8725 C41.5975,22.7675 41.3175,22.75 41.02,22.75 C39.865,22.75 38.71,22.75 37.555,22.75 C36.6275,22.75 35.7,22.75 34.7725,22.75 C34.545,22.75 34.3,22.715 34.09,22.6625 C33.6,22.54 33.32,22.2075 33.2675,21.7 C33.25,21.5425 33.25,21.385 33.25,21.21 C33.25,19.1275 33.2675,17.045 33.2675,14.945 C33.2675,14.4725 33.1625,14.035 32.865,13.65 C32.62,13.335 32.305,13.125 31.955,12.9675 C31.395,12.705 30.8,12.565 30.1875,12.4425 C29.19,12.25 28.175,12.215 27.16,12.2675 C26.5125,12.32 25.8475,12.39 25.2175,12.53 C24.9725,12.565 24.745,12.6875 24.535,12.81 C23.8875,13.1775 23.31,13.6325 22.7325,14.0875 C21.6125,14.9975 20.545,15.995 19.495,17.01 C17.955,18.4975 16.485,20.055 15.085,21.665 C14.385,22.47 13.7025,23.275 13.1075,24.15 C13.0375,24.2725 12.95,24.395 12.88,24.5 C12.6,24.885 12.5125,25.34 12.4425,25.795 C12.355,26.3725 12.285,26.95 12.2675,27.545 C12.2675,27.5625 12.2675,27.5975 12.25,27.615 L12.25,28.4725 C12.2675,28.63 12.2675,28.7875 12.285,28.945 C12.32,29.5925 12.39,30.24 12.5475,30.8875 C12.6875,31.4825 12.8975,32.0775 13.3,32.5675 C13.6325,32.97 14.07,33.1975 14.6125,33.25 C14.7525,33.2675 14.91,33.2675 15.0675,33.2675 C17.1325,33.25 19.18,33.25 21.245,33.25 C21.8225,33.25 22.295,33.5125 22.575,34.02 C22.6975,34.265 22.75,34.5275 22.75,34.8075 C22.75,36.8725 22.75,38.9375 22.75,41.0025 C22.75,41.335 22.785,41.685 22.925,42 C23.135,42.4725 23.485,42.805 23.94,43.0325 C24.43,43.2775 24.955,43.4175 25.4975,43.5225 C26.1625,43.645 26.8275,43.7325 27.4925,43.75 C27.51,43.75 27.545,43.75 27.5625,43.7675 L28.42,43.7675 C28.5775,43.75 28.735,43.75 28.875,43.7325 C29.5225,43.6975 30.17,43.6275 30.8175,43.47 C31.4125,43.33 31.99,43.12 32.4975,42.735 C32.9525,42.385 33.18,41.895 33.215,41.335 C33.25,41.1775 33.25,41.02 33.25,40.88 C33.25,38.885 33.25,36.89 33.25,34.895 C33.25,34.6325 33.2675,34.37 33.3375,34.1075 C33.4775,33.6 33.81,33.32 34.335,33.285 C34.5275,33.2675 34.72,33.2675 34.9125,33.2675 C36.9075,33.2675 38.9025,33.2675 40.8975,33.2675 C41.37,33.2675 41.8075,33.18 42.21,32.935 C42.63,32.6725 42.9275,32.2875 43.1375,31.85 C43.365,31.36 43.4875,30.835 43.5925,30.31 C43.68,29.5225 43.75,28.735 43.75,27.9475" id="Shape" fill="#FFFFFF"></path>
                    <rect id="Rectangle" x="0" y="0" width="56" height="56"></rect>
                </g>
            </g>
        </g>
    </g>
</svg>