<?xml version="1.0" encoding="UTF-8"?>
<svg width="40px" height="40px" viewBox="0 0 40 40" version="1.1" xmlns="http://www.w3.org/2000/svg" xmlns:xlink="http://www.w3.org/1999/xlink">
    <!-- Generator: Sketch 57.1 (83088) - https://sketch.com -->
    <title>175-B40px</title>
    <desc>Created with Sketch.</desc>
    <g id="175-B40px" stroke="none" stroke-width="1" fill="none" fill-rule="evenodd">
        <g>
            <polygon id="Path" fill="#101828" fill-rule="nonzero" points="34.9625 35 25.2375 26.6875 26.05 25.7375 35 33.375"></polygon>
            <path d="M17.5,6.25 C23.7,6.25 28.75,11.3 28.75,17.5 C28.75,23.7 23.7,28.75 17.5,28.75 C11.3,28.75 6.25,23.7 6.25,17.5 C6.25,11.3 11.3,6.25 17.5,6.25 L17.5,6.25 Z M17.5,5 C10.6,5 5,10.6 5,17.5 C5,24.4 10.6,30 17.5,30 C24.4,30 30,24.4 30,17.5 C30,10.6 24.4,5 17.5,5 L17.5,5 Z" id="Shape" fill="#101828" fill-rule="nonzero"></path>
            <g id="Group" transform="translate(13.750000, 12.500000)" fill="#101828" fill-rule="nonzero">
                <path d="M2.5,11.25 L1.25,11.25 L1.25,6.25 L0,6.25 L0,5 L1.25,5 L1.25,0 L5.675,0 C7.375,0 8.75,1.375 8.75,3.075 C8.75,4.825 7.325,6.25 5.575,6.25 L2.5,6.25 L2.5,11.25 Z M2.5,5 L5.575,5 C6.6375,5 7.5,4.1375 7.5,3.075 C7.5,2.0625 6.675,1.25 5.675,1.25 L2.5,1.25 L2.5,5 Z" id="Shape"></path>
                <rect id="Rectangle" x="0" y="7.5" width="6.25" height="1.25"></rect>
            </g>
            <rect id="Rectangle" x="0" y="0" width="40" height="40"></rect>
        </g>
    </g>
</svg>