<?xml version="1.0" encoding="UTF-8"?>
<svg width="80px" height="80px" viewBox="0 0 80 80" version="1.1" xmlns="http://www.w3.org/2000/svg" xmlns:xlink="http://www.w3.org/1999/xlink">
    <!-- Generator: Sketch 57.1 (83088) - https://sketch.com -->
    <title>230-B80px</title>
    <desc>Created with Sketch.</desc>
    <g id="230-B80px" stroke="none" stroke-width="1" fill="none" fill-rule="evenodd">
        <g>
            <path d="M50,15 L50,17.5 L65,17.5 L65,21.875 C65,29.025 63.525,39.65 61.05,45.1 C57.675,52.575 51.3,62.4 40,67.3 C28.7,62.4 22.325,52.575 18.95,45.1 C16.475,39.65 15,29 15,21.875 L15,17.5 L30,17.5 L30,15 L12.5,15 L12.5,21.875 C12.5,28.65 13.875,39.975 16.65,46.15 C20.5,54.6 27.525,65 40,70 C52.475,65 59.5,54.6 63.35,46.125 C66.125,39.95 67.5,28.65 67.5,21.875 L67.5,15 L50,15 Z" id="Path" fill="#101828" fill-rule="nonzero"></path>
            <path d="M40.025,52.55 C35.175,52.55 31.25,48.825 31.25,44.225 L31.25,34.275 L38.175,27.75 L33.75,23.6 L33.75,10 L40,16.15 L46.25,10 L46.25,23.6 L41.825,27.775 L48.75,34.3 L48.75,44.275 C48.75,48.825 44.85,52.55 40.025,52.55 Z M33.75,35.375 L33.75,44.225 C33.75,47.425 36.575,50.05 40.025,50.05 C43.475,50.05 46.275,47.45 46.275,44.25 L46.275,35.375 L40,29.475 L33.75,35.375 Z M36.25,22.525 L40,26.05 L43.75,22.525 L43.75,16 L40,19.675 L36.25,15.975 L36.25,22.525 Z" id="Shape" fill="#101828" fill-rule="nonzero"></path>
            <rect id="Rectangle" x="0" y="0" width="80" height="80"></rect>
        </g>
    </g>
</svg>