<?xml version="1.0" encoding="UTF-8"?>
<svg width="56px" height="56px" viewBox="0 0 56 56" version="1.1" xmlns="http://www.w3.org/2000/svg" xmlns:xlink="http://www.w3.org/1999/xlink">
    <!-- Generator: Sketch 56.3 (81716) - https://sketch.com -->
    <title>039-W56px</title>
    <desc>Created with Sketch.</desc>
    <g id="NEW_icons" stroke="none" stroke-width="1" fill="none" fill-rule="evenodd">
        <g id="icons_UD_new-Copy" transform="translate(-1814.000000, -5119.000000)">
            <g id="039-W56px" transform="translate(1814.000000, 5119.000000)">
                <g id="003-B32px-Copy-72" transform="translate(8.000000, 8.000000)">
                    <g id="Group" transform="translate(10.000000, 5.000000)" fill="#FFFFFF" fill-rule="nonzero">
                        <path d="M18.6875,0 L1.3125,0 C0.5875,0 0,0.5875 0,1.3125 L0,23.75 L0,25 L0,28.6875 C0,29.4125 0.5875,30 1.3125,30 L18.6875,30 C19.4125,30 20,29.4125 20,28.6875 L20,25 L20,23.75 L20,1.3125 C20,0.5875 19.4125,0 18.6875,0 Z M18.75,28.6875 C18.75,28.725 18.725,28.75 18.6875,28.75 L1.3125,28.75 C1.275,28.75 1.25,28.725 1.25,28.6875 L1.25,25 L18.75,25 L18.75,28.6875 Z M1.25,23.75 L1.25,1.3125 C1.25,1.275 1.275,1.25 1.3125,1.25 L18.6875,1.25 C18.725,1.25 18.75,1.275 18.75,1.3125 L18.75,23.75 L1.25,23.75 Z" id="Shape"></path>
                        <path d="M10,27.4875 C10.3375,27.4875 10.625,27.2125 10.625,26.8625 C10.625,26.525 10.35,26.2375 10,26.2375 C9.65,26.2375 9.375,26.5125 9.375,26.8625 C9.375,27.2125 9.6625,27.4875 10,27.4875 Z" id="Path"></path>
                        <path d="M12.5125,20 L7.5,20.0125 L7.5,16.25 L6.25,16.25 L6.25,20.0125 C6.25,20.6875 6.8,21.25 7.4875,21.25 L12.525,21.25 C13.2,21.25 13.7625,20.7 13.7625,20.0125 L13.7625,16.25 L12.5125,16.25 L12.5125,20 Z" id="Path"></path>
                        <polygon id="Path" points="4.775 15.575 5.5625 16.5375 10 12.875 14.4375 16.5375 15.225 15.575 10 11.2625"></polygon>
                        <path d="M12.6,7.3125 C11.925,6.65 11.0125,6.25 10,6.25 C8.9625,6.25 8.025,6.675 7.35,7.35 L8.2375,8.2375 C8.6875,7.775 9.3125,7.5 10,7.5 C10.6625,7.5 11.275,7.7625 11.7125,8.1875 L12.6,7.3125 Z" id="Path"></path>
                        <path d="M9.1125,9.1125 L9.95,9.95 L10.825,9.075 C10.6125,8.875 10.325,8.75 10,8.75 C9.65,8.75 9.3375,8.8875 9.1125,9.1125 Z" id="Path"></path>
                        <path d="M10,5 C11.35,5 12.5875,5.55 13.4875,6.425 L14.375,5.5375 C13.2375,4.4375 11.7,3.75 10,3.75 C8.275,3.75 6.7125,4.45 5.575,5.575 L6.4625,6.4625 C7.375,5.5625 8.625,5 10,5 Z" id="Path"></path>
                    </g>
                    <rect id="Rectangle" x="0" y="0" width="40" height="40"></rect>
                </g>
                <circle id="Oval-Copy-328" fill="#101828" cx="28" cy="28" r="28"></circle>
                <g id="039-B32px-Copy-6" transform="translate(8.000000, 8.000000)">
                    <path d="M5,8.75 L5,31.25 L21.25,33.75 L21.25,6.25 L5,8.75 Z M16.1,25.05 L14.4375,25.0125 L11.1375,18.575 L11.1375,24.775 L9.625,24.725 L9.6625,15.4625 L11.3125,15.4375 L12.8375,18.45 L14.45,21.4625 L14.45,15.2375 L16.125,15.1375 L16.1,25.05 Z" id="Shape" fill="#FFFFFF"></path>
                    <path d="M31.25,10 L31.25,11.25 L32.5,11.25 L33.75,11.2375 L33.75,16.25 L32.5,16.25 L31.25,16.25 L31.25,17.5 L31.25,30 L21.25,30 L21.25,10 L31.25,10 L31.25,10 Z M32.5,8.75 L31.275,8.75 L20,8.75 L20,31.25 L32.5,31.25 L32.5,17.5 L33.75,17.5 C34.4375,17.5 35,16.9375 35,16.25 L35,11.2375 C35,10.55 34.45,10 33.7625,10 L32.5,10 L32.5,8.75 L32.5,8.75 Z" id="Shape" fill="#FFFFFF" fill-rule="nonzero"></path>
                    <path d="M33.75,23.75 L33.75,28.75 L32.5,28.75 L32.5,23.75 L33.75,23.75 L33.75,23.75 Z M33.75,22.5 L31.25,22.5 L31.25,30 L33.75,30 C34.4375,30 35,29.4375 35,28.75 L35,23.75 C35,23.0625 34.4375,22.5 33.75,22.5 L33.75,22.5 Z" id="Shape" fill="#FFFFFF" fill-rule="nonzero"></path>
                    <path d="M33.75,17.5 L33.75,22.5 L32.5,22.5 L32.5,17.5 L33.75,17.5 L33.75,17.5 Z M33.75,16.25 L31.25,16.25 L31.25,23.75 L33.75,23.75 C34.4375,23.75 35,23.1875 35,22.5 L35,17.5 C35,16.8125 34.4375,16.25 33.75,16.25 L33.75,16.25 Z" id="Shape" fill="#FFFFFF" fill-rule="nonzero"></path>
                    <polygon id="Path" fill="#FFFFFF" fill-rule="nonzero" points="28.75 26.25 20 26.25 20 27.5 28.75 27.5"></polygon>
                    <polygon id="Path" fill="#FFFFFF" fill-rule="nonzero" points="28.75 23.5 20 23.5 20 24.75 28.75 24.75"></polygon>
                    <polygon id="Path" fill="#FFFFFF" fill-rule="nonzero" points="28.75 20.75 20 20.75 20 22 28.75 22"></polygon>
                    <polygon id="Path" fill="#FFFFFF" fill-rule="nonzero" points="28.75 18 20 18 20 19.25 28.75 19.25"></polygon>
                    <polygon id="Path" fill="#FFFFFF" fill-rule="nonzero" points="28.75 15.25 20 15.25 20 16.5 28.75 16.5"></polygon>
                    <polygon id="Path" fill="#FFFFFF" fill-rule="nonzero" points="28.75 12.5 20 12.5 20 13.75 28.75 13.75"></polygon>
                    <rect id="Rectangle" x="0" y="0" width="40" height="40"></rect>
                </g>
            </g>
        </g>
    </g>
</svg>