<?xml version="1.0" encoding="UTF-8"?>
<svg width="56px" height="56px" viewBox="0 0 56 56" version="1.1" xmlns="http://www.w3.org/2000/svg" xmlns:xlink="http://www.w3.org/1999/xlink">
    <!-- Generator: Sketch 57.1 (83088) - https://sketch.com -->
    <title>173-B56px</title>
    <desc>Created with Sketch.</desc>
    <g id="173-B56px" stroke="none" stroke-width="1" fill="none" fill-rule="evenodd">
        <g>
            <path d="M47.215,17.5 L47.25,17.535 L47.215,36.7675 L8.75,36.7325 L8.785,17.5 L47.215,17.5 L47.215,17.5 Z M47.215,15.75 L8.785,15.75 C7.805,15.75 7,16.555 7,17.535 L7,36.7325 C7,37.7125 7.805,38.5175 8.785,38.5175 L47.215,38.5175 C48.195,38.5175 49,37.7125 49,36.7325 L49,17.535 C49,16.555 48.195,15.75 47.215,15.75 L47.215,15.75 Z" id="Shape" fill="#101828" fill-rule="nonzero"></path>
            <path d="M27.9825,38.395 C20.44,38.395 14.7875,39.55 12.2675,40.18 L12.2675,41.9825 C14.4375,41.4225 20.2125,40.145 27.9825,40.145 C35.8225,40.145 41.65,41.44 43.7675,42 L43.7675,40.1975 C41.265,39.5675 35.595,38.395 27.9825,38.395 Z" id="Path" fill="#101828" fill-rule="nonzero"></path>
            <polygon id="Path" fill="#101828" fill-rule="nonzero" points="20.9475 22.75 20.9475 24.5 20.9475 31.5 22.6975 31.5 22.6975 22.75"></polygon>
            <polygon id="Path" fill="#101828" fill-rule="nonzero" points="20.93 22.75 20.895 22.785 18.6025 25.0075 19.8275 26.25 22.575 23.59 21.735 22.75"></polygon>
            <path d="M27.0725,28 C27.5625,28 27.9475,28.385 27.9475,28.875 C27.9475,29.365 27.5625,29.75 27.0725,29.75 C26.5825,29.75 26.1975,29.365 26.1975,28.875 C26.1975,28.385 26.5825,28 27.0725,28 L27.0725,28 Z M27.0725,26.25 C25.62,26.25 24.4475,27.4225 24.4475,28.875 C24.4475,30.3275 25.62,31.5 27.0725,31.5 C28.525,31.5 29.6975,30.3275 29.6975,28.875 C29.6975,27.4225 28.525,26.25 27.0725,26.25 L27.0725,26.25 Z" id="Shape" fill="#101828" fill-rule="nonzero"></path>
            <path d="M27.0725,24.5 C27.5625,24.5 27.9475,24.885 27.9475,25.375 C27.9475,25.865 27.5625,26.25 27.0725,26.25 C26.5825,26.25 26.1975,25.865 26.1975,25.375 C26.1975,24.885 26.5825,24.5 27.0725,24.5 L27.0725,24.5 Z M27.0725,22.75 C25.62,22.75 24.4475,23.9225 24.4475,25.375 C24.4475,26.8275 25.62,28 27.0725,28 C28.525,28 29.6975,26.8275 29.6975,25.375 C29.6975,23.9225 28.525,22.75 27.0725,22.75 L27.0725,22.75 Z" id="Shape" fill="#101828" fill-rule="nonzero"></path>
            <polygon id="Path" fill="#101828" fill-rule="nonzero" points="33.1975 24.5 34.9475 24.5 34.9475 26.25 36.6975 26.25 36.6975 28 34.9475 28 34.9475 29.75 33.1975 29.75 33.1975 28 31.4475 28 31.4475 26.25 33.1975 26.25"></polygon>
            <rect id="Rectangle" x="0" y="0" width="56" height="56"></rect>
        </g>
    </g>
</svg>