<?xml version="1.0" encoding="UTF-8"?>
<svg width="80px" height="80px" viewBox="0 0 80 80" version="1.1" xmlns="http://www.w3.org/2000/svg" xmlns:xlink="http://www.w3.org/1999/xlink">
    <!-- Generator: Sketch 56.3 (81716) - https://sketch.com -->
    <title>038-G80px</title>
    <desc>Created with Sketch.</desc>
    <g id="NEW_icons" stroke="none" stroke-width="1" fill="none" fill-rule="evenodd">
        <g id="icons_UD_new-Copy" transform="translate(-768.000000, -5095.000000)">
            <g id="038-G80px" transform="translate(768.000000, 5095.000000)">
                <circle id="Oval-Copy-295" fill="#E3E8EC" cx="40" cy="40" r="40"></circle>
                <g id="038-B32px-Copy-9" transform="translate(12.000000, 12.000000)">
                    <path d="M42,23.6075 C42,20.2825 39.34,17.5875 36.0325,17.5 L36.0325,23.6075 L42,23.6075 Z" id="Path" fill="#101828" fill-rule="nonzero"></path>
                    <g id="Group" transform="translate(7.000000, 8.750000)" fill="#101828" fill-rule="nonzero">
                        <path d="M10.5,15.12 L10.4825,19.11 C12.1275,19.1975 13.0375,18.8825 13.1075,17.2025 C13.195,15.2425 12.3025,14.945 10.5,15.12 Z" id="Path"></path>
                        <path d="M40.25,3.5 L22.75,3.5 L22.75,0 L0,3.5 L0,35 L22.75,38.5 L22.75,35 L40.25,35 C41.2125,35 42,34.2125 42,33.25 L42,5.25 C42,4.2875 41.2125,3.5 40.25,3.5 Z M14.525,20.265 C13.615,21.2975 12.25,21.3325 10.465,21.5075 L10.395,26.005 L8.26,25.865 L8.3125,12.88 C11.8825,12.81 15.085,11.795 15.575,15.925 C15.785,17.6225 15.365,19.32 14.525,20.265 Z M40.25,33.25 L22.75,33.25 L22.75,29.75 L36.75,29.75 L36.75,28 L22.75,28 L22.75,26.25 L36.75,26.25 L36.75,24.5 L22.75,24.5 L22.75,20.895 C23.87,22.0325 25.41,22.75 27.125,22.75 C30.5025,22.75 33.25,20.0025 33.25,16.625 L27.2825,16.625 L27.2825,10.5175 C27.23,10.5175 27.1775,10.5 27.125,10.5 C25.41,10.5 23.87,11.2175 22.75,12.355 L22.75,5.25 L40.25,5.25 L40.25,33.25 Z" id="Shape"></path>
                    </g>
                    <rect id="Rectangle" x="0" y="0" width="56" height="56"></rect>
                </g>
            </g>
        </g>
    </g>
</svg>