<?xml version="1.0" encoding="UTF-8"?>
<svg width="80px" height="80px" viewBox="0 0 80 80" version="1.1" xmlns="http://www.w3.org/2000/svg" xmlns:xlink="http://www.w3.org/1999/xlink">
    <!-- Generator: Sketch 58 (84663) - https://sketch.com -->
    <title>256-B80px</title>
    <desc>Created with Sketch.</desc>
    <g id="256-B80px" stroke="none" stroke-width="1" fill="none" fill-rule="evenodd">
        <g id="256-B32px">
            <g>
                <path d="M43.3,55.65 C33.75,51.675 25.8,43.6 25.7,43.5 C25.6,43.35 13.925,31.15 12.5,19.125 C12.5,19.05 12.5,18.925 12.575,18.85 L19.125,12.525 C19.175,12.475 19.225,12.45 19.3,12.45 C19.375,12.45 19.425,12.5 19.425,12.5 L29.3,22.7 C29.375,22.775 29.35,22.925 29.275,23 L24.9,27.225 L23.7,28.4 L24.325,29.95 C24.425,30.2 26.75,35.875 30.075,39.3 C33.4,42.725 39,45.25 39.25,45.35 L40.8,46.025 L42,44.85 L46.375,40.625 C46.425,40.575 46.475,40.55 46.55,40.55 C46.625,40.55 46.675,40.6 46.675,40.6 L49.95,44 L51.225,41.725 L48.45,38.85 C47.925,38.3 47.225,38.025 46.525,38.025 C45.85,38.025 45.15,38.275 44.625,38.8 L40.25,43.025 C40.25,43.025 34.9,40.65 31.875,37.525 C28.85,34.4 26.65,28.975 26.65,28.975 L31.025,24.75 C32.1,23.7 32.15,22 31.1,20.925 L21.2,10.75 C20.675,10.225 19.975,9.95 19.275,9.95 C18.6,9.95 17.9,10.2 17.375,10.725 L10.825,17.05 C10.2,17.675 9.925,18.525 10.025,19.4 C11.575,32.45 23.925,45.2 23.925,45.2 C23.925,45.2 32,53.55 42.075,57.825 L43.3,55.65 Z" id="Path" fill="#101828" fill-rule="nonzero"></path>
                <path d="M55,44.975 L55.075,45.05 L67.45,67.075 C67.475,67.1 67.525,67.2 67.475,67.35 C67.45,67.45 67.4,67.5 67.375,67.5 L42.6,67.5 C42.575,67.5 42.525,67.45 42.5,67.35 C42.45,67.225 42.525,67.125 42.525,67.075 L54.9,45.05 C54.95,45.025 54.975,44.975 55,44.975 L55,44.975 Z M55,42.475 C54.125,42.475 53.25,42.925 52.75,43.825 L40.375,65.85 C39.35,67.675 40.6,69.975 42.625,69.975 L67.4,69.975 C69.425,69.975 70.675,67.675 69.65,65.85 L57.275,43.825 C56.75,42.925 55.875,42.475 55,42.475 L55,42.475 Z" id="Shape" fill="#101828" fill-rule="nonzero"></path>
                <rect id="Rectangle" fill="#101828" fill-rule="nonzero" x="53.75" y="49.975" width="2.5" height="10"></rect>
                <rect id="Rectangle" fill="#101828" fill-rule="nonzero" x="53.75" y="62.475" width="2.5" height="2.5"></rect>
                <rect id="Rectangle" x="0" y="0" width="80" height="80"></rect>
            </g>
        </g>
    </g>
</svg>