<?xml version="1.0" encoding="UTF-8"?>
<svg width="40px" height="40px" viewBox="0 0 40 40" version="1.1" xmlns="http://www.w3.org/2000/svg" xmlns:xlink="http://www.w3.org/1999/xlink">
    <!-- Generator: Sketch 58 (84663) - https://sketch.com -->
    <title>249-B40px</title>
    <desc>Created with Sketch.</desc>
    <g id="249-B40px" stroke="none" stroke-width="1" fill="none" fill-rule="evenodd">
        <g id="249-B32px">
            <g>
                <path d="M28.125,22.5 C31.225,22.5 33.75,25.025 33.75,28.125 C33.75,31.225 31.225,33.75 28.125,33.75 C25.025,33.75 22.5,31.225 22.5,28.125 C22.5,25.025 25.025,22.5 28.125,22.5 L28.125,22.5 Z M28.125,21.25 C24.325,21.25 21.25,24.325 21.25,28.125 C21.25,31.925 24.325,35 28.125,35 C31.925,35 35,31.925 35,28.125 C35,24.325 31.925,21.25 28.125,21.25 L28.125,21.25 Z" id="Shape" fill="#101828" fill-rule="nonzero"></path>
                <path d="M27.5875,25.95 L26.0625,24.375 C25.9,24.2125 25.6375,24.2125 25.475,24.375 L24.4625,25.35 C24.3625,25.45 24.325,25.575 24.3375,25.7125 C24.575,27.725 26.475,29.6875 26.475,29.6875 C26.475,29.6875 28.3625,31.6375 30.3875,31.9625 C30.5125,31.9875 30.65,31.9375 30.75,31.85 L31.7625,30.875 C31.925,30.7125 31.9375,30.45 31.775,30.2875 L30.25,28.7125 C30.0875,28.55 29.825,28.55 29.6625,28.7125 L28.9875,29.3625 C28.9875,29.3625 28.1625,29 27.7,28.5125 C27.2375,28.025 26.9,27.1875 26.9,27.1875 L27.575,26.5375 C27.75,26.3875 27.75,26.125 27.5875,25.95 Z" id="Path" fill="#101828" fill-rule="nonzero"></path>
                <path d="M29.0875,15.85 L27.525,17.6125 C26.9125,18.3 26.1125,18.675 25.275,18.675 L22.9625,18.675 C22.95,18.625 22.9375,18.55 22.975,18.5 L24.4,16.9 C25,16.225 25.8,15.85 26.625,15.85 L29.0875,15.85 L29.0875,15.85 Z M29.4,14.6 L26.625,14.6 C25.4375,14.6 24.3,15.125 23.4625,16.075 L22.0375,17.675 C21.3,18.5 21.825,19.925 22.8625,19.925 L25.2625,19.925 C26.4625,19.925 27.6,19.3875 28.45,18.4375 L30.1125,16.5625 C30.7625,15.8375 30.3125,14.6 29.4,14.6 L29.4,14.6 Z" id="Shape" fill="#101828" fill-rule="nonzero"></path>
                <path d="M13.3875,15.85 C14.225,15.85 15.0125,16.225 15.6125,16.9 L17.0375,18.5 C17.075,18.55 17.075,18.625 17.05,18.675 L14.7375,18.675 C13.9,18.675 13.1,18.3 12.4875,17.6125 L10.9375,15.85 L13.3875,15.85 L13.3875,15.85 Z M13.3875,14.6 L10.6125,14.6 C9.7,14.6 9.25,15.8375 9.8875,16.5625 L11.55,18.4375 C12.4,19.3875 13.5375,19.925 14.7375,19.925 L17.1375,19.925 C18.175,19.925 18.7,18.5 17.9625,17.675 L16.5375,16.075 C15.7125,15.125 14.575,14.6 13.3875,14.6 L13.3875,14.6 Z" id="Shape" fill="#101828" fill-rule="nonzero"></path>
                <path d="M21.1875,23.2625 C21.2875,23.3125 21.4,23.3625 21.5125,23.4 C21.775,23.025 22.0625,22.675 22.3875,22.3625 C22.15,22.3125 21.9375,22.2375 21.7375,22.15 C21.1875,21.875 20.6,21.7375 20,21.7375 C19.4,21.7375 18.8125,21.875 18.2625,22.15 C17.8,22.375 17.2125,22.5 16.525,22.5 C15.8875,22.5 15.175,22.4 14.4375,22.2125 C9.25,20.725 7.125,16.1 6.3125,13.3375 C6.5,13.35 6.7,13.3625 6.9125,13.3625 C8.0375,13.3625 9.3625,13.175 10.85,12.8 C11.625,12.6 12.475,12.5 13.35,12.5 C16.625,12.5 19.425,13.875 19.45,13.8875 C19.625,13.975 19.8125,14.025 20.0125,14.025 C20.2,14.025 20.4,13.975 20.575,13.8875 C20.6,13.875 23.375,12.5 26.675,12.5 C27.55,12.5 28.3875,12.6 29.175,12.8 C30.675,13.175 32,13.3625 33.1125,13.3625 C33.325,13.3625 33.525,13.35 33.7125,13.3375 C33.15,15.25 31.9375,18.0875 29.525,20.125 C30.0125,20.2125 30.4875,20.3375 30.95,20.5125 C33.275,18.25 34.425,15.3875 34.9625,13.5125 C35.175,12.7875 34.6125,12.075 33.875,12.075 C33.8375,12.075 33.8125,12.075 33.775,12.075 C33.575,12.0875 33.35,12.1 33.1125,12.1 C32.2375,12.1 31.05,11.9625 29.475,11.575 C28.525,11.3375 27.575,11.25 26.6625,11.25 C23.025,11.25 20,12.7625 20,12.7625 C20,12.7625 16.975,11.25 13.3375,11.25 C12.4375,11.25 11.4875,11.3375 10.5375,11.575 C8.9625,11.975 7.775,12.1 6.9,12.1 C6.6375,12.1 6.4,12.0875 6.2,12.0625 C6.1625,12.0625 6.125,12.0625 6.1,12.0625 C5.3875,12.0625 4.85,12.7625 5.05,13.4625 C5.8625,16.35 8.15,21.7125 14.1,23.4125 C15.05,23.65 15.85,23.75 16.5375,23.75 C17.5625,23.75 18.3,23.5375 18.8375,23.275 C19.2125,23.0875 19.6125,22.9875 20.025,22.9875 C20.4125,22.9875 20.8125,23.075 21.1875,23.2625 Z" id="Path" fill="#101828" fill-rule="nonzero"></path>
                <rect id="Rectangle" x="0" y="0" width="40" height="40"></rect>
            </g>
        </g>
    </g>
</svg>