<?xml version="1.0" encoding="UTF-8"?>
<svg width="80px" height="80px" viewBox="0 0 80 80" version="1.1" xmlns="http://www.w3.org/2000/svg" xmlns:xlink="http://www.w3.org/1999/xlink">
    <!-- Generator: Sketch 57.1 (83088) - https://sketch.com -->
    <title>207-B80px</title>
    <desc>Created with Sketch.</desc>
    <g id="207-B80px" stroke="none" stroke-width="1" fill="none" fill-rule="evenodd">
        <g>
            <path d="M39.95,54.875 C29.175,54.875 21.1,56.525 17.5,57.425 L17.5,60 C20.6,59.2 28.85,57.375 39.95,57.375 C51.15,57.375 59.475,59.225 62.5,60.025 L62.5,57.45 C58.925,56.525 50.825,54.875 39.95,54.875 Z" id="Path" fill="#101828" fill-rule="nonzero"></path>
            <polygon id="Path" fill="#101828" fill-rule="nonzero" points="22.5 30.05 22.5 33.65 20 33.65 20 30.05 17.5 30.05 17.5 40 20 40 20 36.225 22.5 36.225 22.5 40 25 40 25 30.05"></polygon>
            <path d="M29.8,30.05 L26.7,30.05 L26.7,40 L29.8,40 C33,40 35,38.1 35,35.025 C35,31.95 33,30.05 29.8,30.05 Z M30.05,37.45 L29.175,37.45 L29.175,32.625 L30.05,32.625 C31.625,32.625 32.5,33.475 32.5,35.05 C32.5,36.575 31.625,37.45 30.05,37.45 Z" id="Shape" fill="#101828" fill-rule="nonzero"></path>
            <path d="M40,40 L51.05,40 L49.225,42.5 L40,42.5 L40,45 L50.6,44.85 L52.325,42.5 L52.3,42.5 L53.975,40.225 L53.975,40.25 L66.9,22.5 L70,22.5 L52.7,46.175 C52.275,47 51.425,47.5 50.5,47.5 L40,47.5 C38.625,47.5 37.5,46.375 37.5,45 L37.5,42.5 C37.5,41.125 38.625,40 40,40 Z" id="Path" fill="#101828" fill-rule="nonzero"></path>
            <path d="M67.475,30.125 L67.45,52.5 L12.5,52.45 L12.55,25 L62.5,25 L63.775,22.5 L12.55,22.5 C11.15,22.5 10,23.65 10,25.05 L10,52.45 C10,53.85 11.15,55 12.55,55 L67.45,55 C68.85,55 70,53.85 70,52.45 L70,26.7 L67.475,30.125 Z" id="Path" fill="#101828" fill-rule="nonzero"></path>
            <rect id="Rectangle" x="0" y="0" width="80" height="80"></rect>
        </g>
    </g>
</svg>