<?xml version="1.0" encoding="UTF-8"?>
<svg width="32px" height="32px" viewBox="0 0 32 32" version="1.1" xmlns="http://www.w3.org/2000/svg" xmlns:xlink="http://www.w3.org/1999/xlink">
    <!-- Generator: Sketch 57.1 (83088) - https://sketch.com -->
    <title>208-B32px</title>
    <desc>Created with Sketch.</desc>
    <g id="208-B32px" stroke="none" stroke-width="1" fill="none" fill-rule="evenodd">
        <g>
            <path d="M19,22.11 C18.17,22.05 17.28,22.01 16.33,22 L19,22 L19,21 L5,20.98 L5.02,10 L26.98,10 L27,10.02 L26.99,15 L28,15 L28,10.02 C28,9.46 27.54,9 26.98,9 L5.02,9 C4.46,9 4,9.46 4,10.02 L4,20.98 C4,21.55 4.46,22 5.02,22 L15.75,22 C11.56,22.02 8.42,22.66 7.01,23.01 L7.01,24.04 C8.23,23.73 11.54,23 15.98,23 C17.06,23 18.07,23.04 19,23.11 L19,22.11 Z" id="Path" fill="#101828" fill-rule="nonzero"></path>
            <path d="M14,13.74 L17.02,15.5 L14,17.26 L14,13.74 L14,13.74 Z M13,12 L13,19 L19,15.5 L13,12 L13,12 Z" id="Shape" fill="#101828" fill-rule="nonzero"></path>
            <path d="M27,20 L27,26 L21,26 L21,20 L27,20 L27,20 Z M27.04,19 L20.96,19 C20.43,19 20,19.43 20,19.96 L20,26.05 C20,26.58 20.43,27.01 20.96,27.01 L27.04,27.01 C27.57,27.01 28,26.58 28,26.05 L28,19.96 C28,19.43 27.57,19 27.04,19 L27.04,19 Z" id="Shape" fill="#101828" fill-rule="nonzero"></path>
            <path d="M24,24 C23.72,24 23.5,23.78 23.5,23.5 L23.5,22.5 C23.5,22.22 23.72,22 24,22 C24.28,22 24.5,22.22 24.5,22.5 L24.5,23.5 C24.5,23.78 24.28,24 24,24 Z" id="Path" fill="#101828" fill-rule="nonzero"></path>
            <path d="M25,19 L25,19 L22,19 L22,18 C22,16.9 22.9,16 24,16 C24.74,16 25.38,16.41 25.72,17 L26.81,17 C26.4,15.84 25.3,15 23.99,15 C22.33,15 20.99,16.34 20.99,18 L20.99,20 L26.99,20 L26.99,19 L25,19 Z" id="Path" fill="#101828" fill-rule="nonzero"></path>
            <polygon id="Path" fill="#101828" fill-rule="nonzero" points="19 21 17 21 17 23 19 23"></polygon>
            <rect id="Rectangle" x="0" y="0" width="32" height="32"></rect>
        </g>
    </g>
</svg>