<?xml version="1.0" encoding="UTF-8"?>
<svg width="56px" height="56px" viewBox="0 0 56 56" version="1.1" xmlns="http://www.w3.org/2000/svg" xmlns:xlink="http://www.w3.org/1999/xlink">
    <!-- Generator: Sketch 57.1 (83088) - https://sketch.com -->
    <title>070-W56px</title>
    <desc>Created with Sketch.</desc>
    <g id="NEW_icons" stroke="none" stroke-width="1" fill="none" fill-rule="evenodd">
        <g id="icons_UD_new-Copy" transform="translate(-532.000000, -9285.000000)">
            <g id="070-W56px" transform="translate(532.000000, 9285.000000)">
                <circle id="Oval-Copy-472" fill="#101828" cx="28" cy="28" r="28"></circle>
                <g id="070-B32px-Copy-6" transform="translate(8.000000, 8.000000)">
                    <path d="M20,28.125 C20,27.775 20.025,27.425 20.075,27.0875 C16.0375,24.9875 12.9,21.8 12.8625,21.75 C12.8,21.6875 6.9625,15.575 6.25,9.5625 C6.25,9.525 6.25,9.4625 6.2875,9.425 L9.5625,6.2625 C9.5875,6.2375 9.6125,6.225 9.65,6.225 C9.675,6.225 9.7,6.25 9.7,6.25 L14.6375,11.35 C14.675,11.3875 14.6625,11.45 14.625,11.5 L12.4375,13.6125 L11.8375,14.2 L12.15,14.975 C12.2,15.1 13.3625,17.9375 15.025,19.65 C16.6875,21.3625 19.4875,22.625 19.6125,22.675 L20.3875,23.0125 L20.9875,22.425 L23.175,20.3125 C23.2,20.2875 23.225,20.275 23.2625,20.275 C23.3,20.275 23.325,20.3 23.325,20.3 L24.075,21.075 C24.45,20.85 24.85,20.6625 25.2625,20.5125 L24.2125,19.425 C23.95,19.15 23.6,19.0125 23.25,19.0125 C22.9125,19.0125 22.5625,19.1375 22.3,19.4 L20.1125,21.5125 C20.1125,21.5125 17.4375,20.325 15.925,18.7625 C14.4125,17.2 13.3125,14.4875 13.3125,14.4875 L15.5,12.375 C16.0375,11.85 16.0625,11 15.5375,10.4625 L10.6,5.3875 C10.3375,5.1125 9.9875,4.975 9.6375,4.975 C9.3,4.975 8.95,5.1 8.6875,5.3625 L5.4125,8.525 C5.1,8.8375 4.9625,9.275 5.0125,9.7125 C5.7875,16.2375 11.9625,22.6125 11.9625,22.6125 C11.9625,22.6125 15.475,26.2375 20.0125,28.45 C20.0125,28.35 20,28.2375 20,28.125 Z" id="Path" fill="#FFFFFF" fill-rule="nonzero"></path>
                    <path d="M28.125,22.5 C31.225,22.5 33.75,25.025 33.75,28.125 C33.75,31.225 31.225,33.75 28.125,33.75 C25.025,33.75 22.5,31.225 22.5,28.125 C22.5,25.025 25.025,22.5 28.125,22.5 L28.125,22.5 Z M28.125,21.25 C24.325,21.25 21.25,24.325 21.25,28.125 C21.25,31.925 24.325,35 28.125,35 C31.925,35 35,31.925 35,28.125 C35,24.325 31.925,21.25 28.125,21.25 L28.125,21.25 Z" id="Shape" fill="#FFFFFF" fill-rule="nonzero"></path>
                    <polygon id="Path" fill="#FFFFFF" fill-rule="nonzero" points="27.55 30.725 25.1625 28.125 26.0875 27.2875 27.55 28.875 30.1625 26.025 31.0875 26.875"></polygon>
                    <rect id="Rectangle" x="0" y="0" width="40" height="40"></rect>
                </g>
            </g>
        </g>
    </g>
</svg>