<?xml version="1.0" encoding="UTF-8"?>
<svg width="42px" height="42px" viewBox="0 0 42 42" version="1.1" xmlns="http://www.w3.org/2000/svg" xmlns:xlink="http://www.w3.org/1999/xlink">
    <!-- Generator: Sketch 57.1 (83088) - https://sketch.com -->
    <title>246-G40px</title>
    <desc>Created with Sketch.</desc>
    <g id="NEW_icons" stroke="none" stroke-width="1" fill="none" fill-rule="evenodd">
        <g id="icons_UD" transform="translate(-1522.000000, -2128.000000)">
            <g id="246-G40px" transform="translate(1523.000000, 2129.000000)">
                <circle id="Oval-Copy-1683" stroke="#E3E8EC" cx="20" cy="20" r="20"></circle>
                <g id="246-B32px-Copy" transform="translate(4.000000, 4.000000)">
                    <g id="246-B32px">
                        <g id="Group" transform="translate(7.000000, 4.000000)" fill="#101828" fill-rule="nonzero">
                            <path d="M12,18 L12,19 L6,19 L6,18 L12,18 L12,18 Z M13,17 L5,17 L5,20 L13,20 L13,17 L13,17 Z" id="Shape"></path>
                            <path d="M11,22 L11,23 L7,23 L7,22 L11,22 L11,22 Z M11.04,21 L6.96,21 C6.43,21 6,21.43 6,21.96 L6,23.04 C6,23.57 6.43,24 6.96,24 L11.04,24 C11.57,24 12,23.57 12,23.04 L12,21.96 C12,21.43 11.57,21 11.04,21 L11.04,21 Z" id="Shape"></path>
                            <path d="M12,20 L12,21 L6,21 L6,20 L12,20 L12,20 Z M12,19 L6,19 C5.45,19 5,19.45 5,20 L5,21 C5,21.55 5.45,22 6,22 L12,22 C12.55,22 13,21.55 13,21 L13,20 C13,19.45 12.55,19 12,19 L12,19 Z" id="Shape"></path>
                            <path d="M9,1 C12.86,1 16,4.14 16,8 C16,9.66 15.41,11.26 14.34,12.52 C14.08,12.83 13.84,13.09 13.63,13.32 C12.61,14.43 12.05,15.12 12,17 L6,17 C5.94,15.04 5.28,14.32 4.39,13.33 C4.16,13.08 3.91,12.8 3.62,12.46 C2.32,10.9 1.77,8.91 2.09,6.87 C2.56,3.83 5.13,1.38 8.2,1.04 C8.46,1.02 8.73,1 9,1 L9,1 Z M9,0 C8.7,0 8.39,0.02 8.09,0.05 C4.57,0.44 1.65,3.22 1.1,6.72 C0.72,9.16 1.44,11.42 2.85,13.11 C4.28,14.83 5,15.04 5,17.28 L5,18 L13,18 L13,17.27 C13,15.06 13.67,14.85 15.1,13.17 C16.29,11.78 17,9.97 17,8 C17,3.58 13.42,0 9,0 L9,0 Z" id="Shape"></path>
                            <path d="M4,8 L3,8 C3,4.69 5.69,2 9,2 L9,3 C6.24,3 4,5.24 4,8 Z" id="Path"></path>
                        </g>
                        <rect id="Rectangle" x="0" y="0" width="32" height="32"></rect>
                    </g>
                </g>
            </g>
        </g>
    </g>
</svg>