<?xml version="1.0" encoding="UTF-8"?>
<svg width="56px" height="56px" viewBox="0 0 56 56" version="1.1" xmlns="http://www.w3.org/2000/svg" xmlns:xlink="http://www.w3.org/1999/xlink">
    <!-- Generator: Sketch 56.3 (81716) - https://sketch.com -->
    <title>037-G56px</title>
    <desc>Created with Sketch.</desc>
    <g id="NEW_icons" stroke="none" stroke-width="1" fill="none" fill-rule="evenodd">
        <g id="icons_UD_new-Copy" transform="translate(-1728.000000, -4867.000000)">
            <g id="037-G56px" transform="translate(1728.000000, 4867.000000)">
                <circle id="Oval-Copy-321" fill="#E3E8EC" cx="28" cy="28" r="28"></circle>
                <g id="037-B32px-Copy-5" transform="translate(8.000000, 8.000000)">
                    <path d="M12.4,19.9125 C13.575,19.975 14.2375,19.75 14.275,18.5625 C14.325,17.1625 13.7125,16.9125 12.4125,17.0625 L12.4,19.9125 Z" id="Path" fill="#101828" fill-rule="nonzero"></path>
                    <path d="M12.4125,17.05 L12.4,19.9 C13.575,19.9625 14.2375,19.7375 14.275,18.55 C14.325,17.1625 13.725,16.9125 12.4125,17.05 Z" id="Path" fill="#101828"></path>
                    <path d="M5,8.75 L5,31.25 L21.25,33.75 L21.25,6.25 L5,8.75 Z M12.3875,21.6125 L12.3375,24.8375 L10.8,24.7625 L10.8125,15.4375 C13.175,15.325 16.05,14.6125 16.05,18.1375 C16.0625,21.4 14.275,21.4375 12.3875,21.6125 Z" id="Shape" fill="#101828"></path>
                    <rect id="Rectangle" fill="#101828" x="20" y="16.25" width="7.5" height="3.75"></rect>
                    <polygon id="Path" fill="#101828" fill-rule="nonzero" points="27.5 26.25 20 26.25 20 27.5 27.5 27.5"></polygon>
                    <polygon id="Path" fill="#101828" fill-rule="nonzero" points="27.5 23.75 20 23.75 20 25 27.5 25"></polygon>
                    <polygon id="Path" fill="#101828" fill-rule="nonzero" points="27.5 21.25 20 21.25 20 22.5 27.5 22.5"></polygon>
                    <path d="M33.75,8.75 L26.25,8.75 C25.5625,8.75 25,9.3125 25,10 L25,10.6375 L25,12.5 L20,12.5 L20,31.25 L30,31.25 C30.6875,31.25 31.25,30.6875 31.25,30 L31.25,25 L33.75,25 C34.4375,25 35,24.4375 35,23.75 L35,10 C35,9.3125 34.4375,8.75 33.75,8.75 Z M30,23.75 L30,25 L30,30 L21.25,30 L21.25,13.75 L25,13.75 L26.25,13.75 L30,13.75 L30,23.75 Z M33.75,23.75 L31.25,23.75 L31.25,13.75 C31.25,13.575 31.2125,13.425 31.15,13.2875 C31.15,13.275 31.1375,13.2625 31.1375,13.25 C30.8875,12.6875 30.2375,12.4125 29.7,12.075 L26.5875,10 L33.75,10 L33.75,23.75 Z" id="Shape" fill="#101828"></path>
                    <rect id="Rectangle" x="0" y="0" width="40" height="40"></rect>
                </g>
            </g>
        </g>
    </g>
</svg>