<?xml version="1.0" encoding="UTF-8"?>
<svg width="32px" height="32px" viewBox="0 0 32 32" version="1.1" xmlns="http://www.w3.org/2000/svg" xmlns:xlink="http://www.w3.org/1999/xlink">
    <!-- Generator: Sketch 57.1 (83088) - https://sketch.com -->
    <title>129-B32px</title>
    <desc>Created with Sketch.</desc>
    <g id="129-B32px" stroke="none" stroke-width="1" fill="none" fill-rule="evenodd">
        <g>
            <path d="M4.51,27.99 C4.41,27.99 4.31,27.96 4.22,27.9 C4.09,27.81 4.01,27.65 4.01,27.49 L4.01,22.23 C4.01,22.02 4.14,21.84 4.33,21.76 L6.56,20.91 C7.01,20.48 9.23,18.52 11.85,18.89 C12.78,19.02 17.44,19.79 18.74,21.8 C19.61,21.41 21.62,20.6 23.99,20.21 C25.26,20 26.27,20.16 27,20.69 C27.81,21.27 27.96,22.06 27.97,22.15 C28.01,22.38 27.88,22.6 27.67,22.69 L18.29,26.6 C17.73,26.84 17.12,26.89 16.52,26.76 L11.58,25.7 C11.27,25.63 10.94,25.66 10.64,25.77 L4.67,27.97 C4.63,27.98 4.57,27.99 4.51,27.99 Z M5.01,22.57 L5.01,26.77 L10.3,24.82 C10.78,24.64 11.3,24.6 11.8,24.71 L16.74,25.77 C17.13,25.85 17.54,25.82 17.91,25.66 L26.85,21.94 C26.6,21.51 25.92,20.89 24.16,21.18 C21.86,21.56 19.86,22.38 19.08,22.73 C19.11,23.02 19.08,23.31 18.98,23.6 C18.9,23.85 18.63,24 18.38,23.93 L12.9,22.53 L13.15,21.56 L18.09,22.82 C18.07,22.66 18.01,22.5 17.92,22.35 C17.17,21.14 14.26,20.23 11.71,19.86 C9.32,19.51 7.21,21.65 7.19,21.67 C7.14,21.72 7.08,21.76 7.01,21.79 L5.01,22.57 Z" id="Shape" fill="#101828" fill-rule="nonzero"></path>
            <polygon id="Path" fill="#101828" fill-rule="nonzero" points="24.14 12.05 15.99 5.31 7.83 12.05 7.2 11.28 15.99 4.01 24.78 11.28"></polygon>
            <g id="Group" transform="translate(9.000000, 12.000000)" fill="#101828" fill-rule="nonzero">
                <path d="M1.99,7.23 L1.99,0 L0.99,0 L0.99,7.38 C1.31,7.29 1.64,7.24 1.99,7.23 Z" id="Path"></path>
                <path d="M10.18,9.88 C10.21,9.87 10.25,9.85 10.29,9.84 L10.13,9.84 C10.15,9.85 10.16,9.87 10.18,9.88 Z" id="Path"></path>
                <path d="M12.99,9 L12.99,0 L11.99,0 L12,9.27 C12.3,9.18 12.63,9.09 12.99,9 Z" id="Path"></path>
            </g>
            <rect id="Rectangle" x="0" y="0" width="32" height="32"></rect>
        </g>
    </g>
</svg>