<?xml version="1.0" encoding="UTF-8"?>
<svg width="80px" height="80px" viewBox="0 0 80 80" version="1.1" xmlns="http://www.w3.org/2000/svg" xmlns:xlink="http://www.w3.org/1999/xlink">
    <!-- Generator: Sketch 57.1 (83088) - https://sketch.com -->
    <title>168-C80px</title>
    <desc>Created with Sketch.</desc>
    <g id="NEW_icons" stroke="none" stroke-width="1" fill="none" fill-rule="evenodd">
        <g id="icons_UD_new-Copy" transform="translate(-1002.000000, -21570.000000)">
            <g id="168-C80px" transform="translate(1002.000000, 21570.000000)">
                <circle id="Oval-Copy-962" fill="#FF4F12" cx="40" cy="40" r="40"></circle>
                <g id="168-B32px-Copy-7" transform="translate(12.000000, 12.000000)">
                    <path d="M28,22.75 C30.415,22.75 32.375,24.71 32.375,27.125 C32.375,29.54 30.415,31.5 28,31.5 C25.585,31.5 23.625,29.54 23.625,27.125 C23.625,24.71 25.585,22.75 28,22.75 L28,22.75 Z M28,21 C24.6225,21 21.875,23.7475 21.875,27.125 C21.875,30.5025 24.6225,33.25 28,33.25 C31.3775,33.25 34.125,30.5025 34.125,27.125 C34.125,23.7475 31.3775,21 28,21 L28,21 Z" id="Shape" fill="#FFFFFF" fill-rule="nonzero"></path>
                    <path d="M47.25,22.75 L47.25,31.5 L43.75,31.5 L43.75,22.75 L47.25,22.75 L47.25,22.75 Z M49,21 L42,21 L42,33.25 L49,33.25 L49,21 L49,21 Z" id="Shape" fill="#FFFFFF" fill-rule="nonzero"></path>
                    <path d="M12.25,22.75 L12.25,31.5 L8.75,31.5 L8.75,22.75 L12.25,22.75 L12.25,22.75 Z M14,21 L7,21 L7,33.25 L14,33.25 L14,21 L14,21 Z" id="Shape" fill="#FFFFFF" fill-rule="nonzero"></path>
                    <path d="M47.215,17.5 L47.25,17.535 L47.215,36.7325 L8.75,36.6975 L8.785,17.5 L47.215,17.5 L47.215,17.5 Z M47.215,15.75 L8.785,15.75 C7.805,15.75 7,16.555 7,17.535 L7,36.6975 C7,37.6775 7.805,38.4825 8.785,38.4825 L47.215,38.4825 C48.195,38.4825 49,37.6775 49,36.6975 L49,17.535 C49,16.555 48.195,15.75 47.215,15.75 L47.215,15.75 Z" id="Shape" fill="#FFFFFF" fill-rule="nonzero"></path>
                    <rect id="Rectangle" fill="#FFFFFF" fill-rule="nonzero" x="27.125" y="31.4825" width="1.75" height="5.25"></rect>
                    <rect id="Rectangle" fill="#FFFFFF" fill-rule="nonzero" x="27.125" y="17.5" width="1.75" height="5.25"></rect>
                    <path d="M27.965,38.395 C20.4225,38.395 14.77,39.55 12.25,40.18 L12.25,41.9825 C14.42,41.4225 20.195,40.145 27.965,40.145 C35.805,40.145 41.6325,41.44 43.75,42 L43.75,40.1975 C41.2475,39.5675 35.5775,38.395 27.965,38.395 Z" id="Path" fill="#FFFFFF" fill-rule="nonzero"></path>
                    <rect id="Rectangle" x="0" y="0" width="56" height="56"></rect>
                </g>
            </g>
        </g>
    </g>
</svg>