<?xml version="1.0" encoding="UTF-8"?>
<svg width="56px" height="56px" viewBox="0 0 56 56" version="1.1" xmlns="http://www.w3.org/2000/svg" xmlns:xlink="http://www.w3.org/1999/xlink">
    <!-- Generator: Sketch 57.1 (83088) - https://sketch.com -->
    <title>080-W56px</title>
    <desc>Created with Sketch.</desc>
    <g id="NEW_icons" stroke="none" stroke-width="1" fill="none" fill-rule="evenodd">
        <g id="icons_UD_new-Copy" transform="translate(-532.000000, -10546.000000)">
            <g id="080-W56px" transform="translate(532.000000, 10546.000000)">
                <circle id="Oval-Copy-552" fill="#101828" cx="28" cy="28" r="28"></circle>
                <g id="080-B32px-Copy-4" transform="translate(8.000000, 8.000000)">
                    <path d="M17.5,32.5 C17.8375,32.5 18.125,32.225 18.125,31.875 C18.125,31.525 17.8375,31.25 17.5,31.25 C17.1625,31.25 16.875,31.525 16.875,31.875 C16.875,32.225 17.1625,32.5 17.5,32.5" id="Path" fill="#FFFFFF" fill-rule="nonzero"></path>
                    <path d="M26.875,32.5 C26.6625,32.5 26.4625,32.4875 26.25,32.4625 L26.25,33.675 C26.25,33.7125 26.225,33.7375 26.1875,33.7375 L8.8125,33.7375 C8.775,33.75 8.75,33.725 8.75,33.6875 L8.75,30 L21.025,30 C20.6625,29.6125 20.325,29.2 20.0375,28.75 L8.75,28.75 L8.75,6.3125 C8.75,6.275 8.775,6.25 8.8125,6.25 L26.1875,6.25 C26.225,6.25 26.25,6.275 26.25,6.3125 L26.25,16.275 C26.4625,16.2625 26.6625,16.2375 26.875,16.2375 C27.0875,16.2375 27.2875,16.25 27.5,16.275 L27.5,6.3125 C27.5,5.5875 26.9125,5 26.1875,5 L8.8125,5 C8.0875,5 7.5,5.5875 7.5,6.3125 L7.5,28.75 L7.5,30 L7.5,33.6875 C7.5,34.4125 8.0875,35 8.8125,35 L26.1875,35 C26.9125,35 27.5,34.4125 27.5,33.6875 L27.5,32.475 C27.2875,32.4875 27.0875,32.5 26.875,32.5 Z" id="Path" fill="#FFFFFF" fill-rule="nonzero"></path>
                    <path d="M17.5,10 C18.1875,10 18.75,10.5625 18.75,11.25 C18.75,11.9375 18.1875,12.5 17.5,12.5 C16.8125,12.5 16.25,11.9375 16.25,11.25 C16.25,10.5625 16.8125,10 17.5,10 L17.5,10 Z M17.5,8.75 C16.125,8.75 15,9.875 15,11.25 C15,12.625 16.125,13.75 17.5,13.75 C18.875,13.75 20,12.625 20,11.25 C20,9.875 18.875,8.75 17.5,8.75 L17.5,8.75 Z" id="Shape" fill="#FFFFFF" fill-rule="nonzero"></path>
                    <path d="M15,18.75 L15,17.5 C15,16.8125 15.5625,16.25 16.25,16.25 L18.75,16.25 C19.4375,16.25 20,16.8125 20,17.5 L20,18.75 L21.25,18.75 L21.25,17.5 C21.25,16.125 20.125,15 18.75,15 L16.25,15 C14.875,15 13.75,16.125 13.75,17.5 L13.75,18.75 L15,18.75 Z" id="Path" fill="#FFFFFF" fill-rule="nonzero"></path>
                    <path d="M26.875,18.75 C29.975,18.75 32.5,21.275 32.5,24.375 C32.5,27.475 29.975,30 26.875,30 C23.775,30 21.25,27.475 21.25,24.375 C21.25,21.275 23.775,18.75 26.875,18.75 L26.875,18.75 Z M26.875,17.5 C23.075,17.5 20,20.575 20,24.375 C20,28.175 23.075,31.25 26.875,31.25 C30.675,31.25 33.75,28.175 33.75,24.375 C33.75,20.575 30.675,17.5 26.875,17.5 L26.875,17.5 Z" id="Shape" fill="#FFFFFF" fill-rule="nonzero"></path>
                    <g id="Group" transform="translate(23.750000, 20.000000)" fill="#FFFFFF" fill-rule="nonzero">
                        <path d="M2.425,5.625 C2.425,5.025 2.6625,4.4875 3.2625,3.9625 C3.875,3.4375 4.1125,3.0875 4.1125,2.5875 C4.1125,2.075 3.7125,1.75 3.15,1.75 C2.5875,1.75 2.1125,2.1125 2.1125,2.725 C2.1125,2.85 2.1375,2.9875 2.175,3.0875 L1.1125,3.325 C1.025,3.1375 0.9875,2.9125 0.9875,2.6125 C0.9875,1.625 1.8125,0.6125 3.125,0.6125 C4.4625,0.6125 5.25,1.375 5.25,2.4875 C5.25,3.275 4.9875,3.7625 4.0625,4.6125 C3.7375,4.925 3.6625,5.175 3.6625,5.6125 L2.425,5.6125 L2.425,5.625 Z" id="Path"></path>
                        <rect id="Rectangle" x="2.425" y="6.875" width="1.25" height="1.25"></rect>
                    </g>
                    <rect id="Rectangle" x="0" y="0" width="40" height="40"></rect>
                </g>
            </g>
        </g>
    </g>
</svg>