<?xml version="1.0" encoding="UTF-8"?>
<svg width="80px" height="80px" viewBox="0 0 80 80" version="1.1" xmlns="http://www.w3.org/2000/svg" xmlns:xlink="http://www.w3.org/1999/xlink">
    <!-- Generator: Sketch 57.1 (83088) - https://sketch.com -->
    <title>246-G80px</title>
    <desc>Created with Sketch.</desc>
    <g id="NEW_icons" stroke="none" stroke-width="1" fill="none" fill-rule="evenodd">
        <g id="icons_UD" transform="translate(-2046.000000, -2088.000000)">
            <g id="246-G80px" transform="translate(2046.000000, 2088.000000)">
                <circle id="Oval-Copy-1614" fill="#E3E8EC" cx="40" cy="40" r="40"></circle>
                <g id="246-B32px-Copy-6" transform="translate(12.000000, 12.000000)">
                    <g id="246-B32px">
                        <g id="Group" transform="translate(12.250000, 7.000000)" fill="#101828" fill-rule="nonzero">
                            <path d="M21,31.5 L21,33.25 L10.5,33.25 L10.5,31.5 L21,31.5 L21,31.5 Z M22.75,29.75 L8.75,29.75 L8.75,35 L22.75,35 L22.75,29.75 L22.75,29.75 Z" id="Shape"></path>
                            <path d="M19.25,38.5 L19.25,40.25 L12.25,40.25 L12.25,38.5 L19.25,38.5 L19.25,38.5 Z M19.32,36.75 L12.18,36.75 C11.2525,36.75 10.5,37.5025 10.5,38.43 L10.5,40.32 C10.5,41.2475 11.2525,42 12.18,42 L19.32,42 C20.2475,42 21,41.2475 21,40.32 L21,38.43 C21,37.5025 20.2475,36.75 19.32,36.75 L19.32,36.75 Z" id="Shape"></path>
                            <path d="M21,35 L21,36.75 L10.5,36.75 L10.5,35 L21,35 L21,35 Z M21,33.25 L10.5,33.25 C9.5375,33.25 8.75,34.0375 8.75,35 L8.75,36.75 C8.75,37.7125 9.5375,38.5 10.5,38.5 L21,38.5 C21.9625,38.5 22.75,37.7125 22.75,36.75 L22.75,35 C22.75,34.0375 21.9625,33.25 21,33.25 L21,33.25 Z" id="Shape"></path>
                            <path d="M15.75,1.75 C22.505,1.75 28,7.245 28,14 C28,16.905 26.9675,19.705 25.095,21.91 C24.64,22.4525 24.22,22.9075 23.8525,23.31 C22.0675,25.2525 21.0875,26.46 21,29.75 L10.5,29.75 C10.395,26.32 9.24,25.06 7.6825,23.3275 C7.28,22.89 6.8425,22.4 6.335,21.805 C4.06,19.075 3.0975,15.5925 3.6575,12.0225 C4.48,6.7025 8.9775,2.415 14.35,1.82 C14.805,1.785 15.2775,1.75 15.75,1.75 L15.75,1.75 Z M15.75,0 C15.225,0 14.6825,0.035 14.1575,0.0875 C7.9975,0.77 2.8875,5.635 1.925,11.76 C1.26,16.03 2.52,19.985 4.9875,22.9425 C7.49,25.9525 8.75,26.32 8.75,30.24 L8.75,31.5 L22.75,31.5 L22.75,30.2225 C22.75,26.355 23.9225,25.9875 26.425,23.0475 C28.5075,20.615 29.75,17.4475 29.75,14 C29.75,6.265 23.485,0 15.75,0 L15.75,0 Z" id="Shape"></path>
                            <path d="M7,14 L5.25,14 C5.25,8.2075 9.9575,3.5 15.75,3.5 L15.75,5.25 C10.92,5.25 7,9.17 7,14 Z" id="Path"></path>
                        </g>
                        <rect id="Rectangle" x="0" y="0" width="56" height="56"></rect>
                    </g>
                </g>
            </g>
        </g>
    </g>
</svg>