<?xml version="1.0" encoding="UTF-8"?>
<svg width="32px" height="32px" viewBox="0 0 32 32" version="1.1" xmlns="http://www.w3.org/2000/svg" xmlns:xlink="http://www.w3.org/1999/xlink">
    <!-- Generator: Sketch 57.1 (83088) - https://sketch.com -->
    <title>130-B32px</title>
    <desc>Created with Sketch.</desc>
    <g id="130-B32px" stroke="none" stroke-width="1" fill="none" fill-rule="evenodd">
        <g>
            <path d="M16.03,23.11 C14.98,23.68 13.78,24 12.5,24 C8.36,24 5,20.64 5,16.5 C5,12.36 8.36,9 12.5,9 C16.64,9 20,12.36 20,16.5 C20.32,16.37 20.65,16.27 20.98,16.19 C20.82,11.64 17.09,8 12.5,8 C7.81,8 4,11.81 4,16.5 C4,21.19 7.81,25 12.5,25 C13.83,25 15.09,24.68 16.22,24.14 C16.13,23.8 16.06,23.46 16.03,23.11 Z" id="Path" fill="#101828" fill-rule="nonzero"></path>
            <path d="M22.5,18 C24.98,18 27,20.02 27,22.5 C27,24.98 24.98,27 22.5,27 C20.02,27 18,24.98 18,22.5 C18,20.02 20.02,18 22.5,18 L22.5,18 Z M22.5,17 C19.46,17 17,19.46 17,22.5 C17,25.54 19.46,28 22.5,28 C25.54,28 28,25.54 28,22.5 C28,19.46 25.54,17 22.5,17 L22.5,17 Z" id="Shape" fill="#101828" fill-rule="nonzero"></path>
            <polygon id="Path" fill="#101828" fill-rule="nonzero" points="20 22 20 23 22 23 22 25 23 25 23 23 25 23 25 22 23 22 23 20 22 20 22 22"></polygon>
            <g id="Group" transform="translate(9.000000, 12.000000)" fill="#101828" fill-rule="nonzero">
                <path d="M2,9 L1,9 L1,5 L0,5 L0,4 L1,4 L1,0 L4.54,0 C5.9,0 7,1.1 7,2.46 C7,3.86 5.86,5 4.46,5 L2,5 L2,9 Z M2,4 L4.46,4 C5.31,4 6,3.31 6,2.46 C6,1.65 5.34,1 4.54,1 L2,1 L2,4 Z" id="Shape"></path>
                <rect id="Rectangle" x="0" y="6" width="5" height="1"></rect>
            </g>
            <rect id="Rectangle" x="0" y="0" width="32" height="32"></rect>
        </g>
    </g>
</svg>