<?xml version="1.0" encoding="UTF-8"?>
<svg width="80px" height="80px" viewBox="0 0 80 80" version="1.1" xmlns="http://www.w3.org/2000/svg" xmlns:xlink="http://www.w3.org/1999/xlink">
    <!-- Generator: Sketch 57.1 (83088) - https://sketch.com -->
    <title>181-B80px</title>
    <desc>Created with Sketch.</desc>
    <g id="181-B80px" stroke="none" stroke-width="1" fill="none" fill-rule="evenodd">
        <g>
            <path d="M67.5,20 L67.55,62.5 L12.5,62.55 L12.55,20 L67.5,20 L67.5,20 Z M67.525,17.5 L12.55,17.5 C11.125,17.5 10,18.625 10,20.05 L10,62.575 C10,63.9 11.1,65 12.45,65 L67.55,65 C68.9,65 70,63.9 70,62.55 L70,19.975 C70,18.6 68.9,17.5 67.525,17.5 L67.525,17.5 Z" id="Shape" fill="#101828" fill-rule="nonzero"></path>
            <path d="M25,32.5 C26.375,32.5 27.5,33.625 27.5,35 C27.5,36.375 26.375,37.5 25,37.5 C23.625,37.5 22.5,36.375 22.5,35 C22.5,33.625 23.625,32.5 25,32.5 L25,32.5 Z M25,30 C22.25,30 20,32.25 20,35 C20,37.75 22.25,40 25,40 C27.75,40 30,37.75 30,35 C30,32.25 27.75,30 25,30 L25,30 Z" id="Shape" fill="#101828" fill-rule="nonzero"></path>
            <path d="M40,32.5 C41.375,32.5 42.5,33.625 42.5,35 C42.5,36.375 41.375,37.5 40,37.5 C38.625,37.5 37.5,36.375 37.5,35 C37.5,33.625 38.625,32.5 40,32.5 L40,32.5 Z M40,30 C37.25,30 35,32.25 35,35 C35,37.75 37.25,40 40,40 C42.75,40 45,37.75 45,35 C45,32.25 42.75,30 40,30 L40,30 Z" id="Shape" fill="#101828" fill-rule="nonzero"></path>
            <path d="M55,32.5 C56.375,32.5 57.5,33.625 57.5,35 C57.5,36.375 56.375,37.5 55,37.5 C53.625,37.5 52.5,36.375 52.5,35 C52.5,33.625 53.625,32.5 55,32.5 L55,32.5 Z M55,30 C52.25,30 50,32.25 50,35 C50,37.75 52.25,40 55,40 C57.75,40 60,37.75 60,35 C60,32.25 57.75,30 55,30 L55,30 Z" id="Shape" fill="#101828" fill-rule="nonzero"></path>
            <path d="M25,47.5 C26.375,47.5 27.5,48.625 27.5,50 C27.5,51.375 26.375,52.5 25,52.5 C23.625,52.5 22.5,51.375 22.5,50 C22.5,48.625 23.625,47.5 25,47.5 L25,47.5 Z M25,45 C22.25,45 20,47.25 20,50 C20,52.75 22.25,55 25,55 C27.75,55 30,52.75 30,50 C30,47.25 27.75,45 25,45 L25,45 Z" id="Shape" fill="#101828" fill-rule="nonzero"></path>
            <path d="M40,47.5 C41.375,47.5 42.5,48.625 42.5,50 C42.5,51.375 41.375,52.5 40,52.5 C38.625,52.5 37.5,51.375 37.5,50 C37.5,48.625 38.625,47.5 40,47.5 L40,47.5 Z M40,45 C37.25,45 35,47.25 35,50 C35,52.75 37.25,55 40,55 C42.75,55 45,52.75 45,50 C45,47.25 42.75,45 40,45 L40,45 Z" id="Shape" fill="#101828" fill-rule="nonzero"></path>
            <path d="M57.5,47.5 L57.5,52.5 L52.5,52.5 L52.5,47.5 L57.5,47.5 L57.5,47.5 Z M60,45 L50,45 L50,55 L60,55 L60,45 L60,45 Z" id="Shape" fill="#101828" fill-rule="nonzero"></path>
            <rect id="Rectangle" fill="#101828" fill-rule="nonzero" x="57.5" y="12.5" width="2.5" height="12.5"></rect>
            <rect id="Rectangle" fill="#101828" fill-rule="nonzero" x="50" y="12.5" width="2.5" height="12.5"></rect>
            <rect id="Rectangle" fill="#101828" fill-rule="nonzero" x="42.5" y="12.5" width="2.5" height="12.5"></rect>
            <rect id="Rectangle" fill="#101828" fill-rule="nonzero" x="35" y="12.5" width="2.5" height="12.5"></rect>
            <rect id="Rectangle" fill="#101828" fill-rule="nonzero" x="27.5" y="12.5" width="2.5" height="12.5"></rect>
            <rect id="Rectangle" fill="#101828" fill-rule="nonzero" x="20" y="12.5" width="2.5" height="12.5"></rect>
            <rect id="Rectangle" x="0" y="0" width="80" height="80"></rect>
        </g>
    </g>
</svg>