<?xml version="1.0" encoding="UTF-8"?>
<svg width="56px" height="56px" viewBox="0 0 56 56" version="1.1" xmlns="http://www.w3.org/2000/svg" xmlns:xlink="http://www.w3.org/1999/xlink">
    <!-- Generator: Sketch 57.1 (83088) - https://sketch.com -->
    <title>125-W56px</title>
    <desc>Created with Sketch.</desc>
    <g id="NEW_icons" stroke="none" stroke-width="1" fill="none" fill-rule="evenodd">
        <g id="icons_UD_new-Copy" transform="translate(-1814.000000, -16064.000000)">
            <g id="125-W56px" transform="translate(1814.000000, 16064.000000)">
                <g id="003-B32px-Copy-153" transform="translate(8.000000, 8.000000)">
                    <g id="Group" transform="translate(10.000000, 5.000000)" fill="#FFFFFF" fill-rule="nonzero">
                        <path d="M18.6875,0 L1.3125,0 C0.5875,0 0,0.5875 0,1.3125 L0,23.75 L0,25 L0,28.6875 C0,29.4125 0.5875,30 1.3125,30 L18.6875,30 C19.4125,30 20,29.4125 20,28.6875 L20,25 L20,23.75 L20,1.3125 C20,0.5875 19.4125,0 18.6875,0 Z M18.75,28.6875 C18.75,28.725 18.725,28.75 18.6875,28.75 L1.3125,28.75 C1.275,28.75 1.25,28.725 1.25,28.6875 L1.25,25 L18.75,25 L18.75,28.6875 Z M1.25,23.75 L1.25,1.3125 C1.25,1.275 1.275,1.25 1.3125,1.25 L18.6875,1.25 C18.725,1.25 18.75,1.275 18.75,1.3125 L18.75,23.75 L1.25,23.75 Z" id="Shape"></path>
                        <path d="M10,27.4875 C10.3375,27.4875 10.625,27.2125 10.625,26.8625 C10.625,26.525 10.35,26.2375 10,26.2375 C9.65,26.2375 9.375,26.5125 9.375,26.8625 C9.375,27.2125 9.6625,27.4875 10,27.4875 Z" id="Path"></path>
                        <path d="M12.5125,20 L7.5,20.0125 L7.5,16.25 L6.25,16.25 L6.25,20.0125 C6.25,20.6875 6.8,21.25 7.4875,21.25 L12.525,21.25 C13.2,21.25 13.7625,20.7 13.7625,20.0125 L13.7625,16.25 L12.5125,16.25 L12.5125,20 Z" id="Path"></path>
                        <polygon id="Path" points="4.775 15.575 5.5625 16.5375 10 12.875 14.4375 16.5375 15.225 15.575 10 11.2625"></polygon>
                        <path d="M12.6,7.3125 C11.925,6.65 11.0125,6.25 10,6.25 C8.9625,6.25 8.025,6.675 7.35,7.35 L8.2375,8.2375 C8.6875,7.775 9.3125,7.5 10,7.5 C10.6625,7.5 11.275,7.7625 11.7125,8.1875 L12.6,7.3125 Z" id="Path"></path>
                        <path d="M9.1125,9.1125 L9.95,9.95 L10.825,9.075 C10.6125,8.875 10.325,8.75 10,8.75 C9.65,8.75 9.3375,8.8875 9.1125,9.1125 Z" id="Path"></path>
                        <path d="M10,5 C11.35,5 12.5875,5.55 13.4875,6.425 L14.375,5.5375 C13.2375,4.4375 11.7,3.75 10,3.75 C8.275,3.75 6.7125,4.45 5.575,5.575 L6.4625,6.4625 C7.375,5.5625 8.625,5 10,5 Z" id="Path"></path>
                    </g>
                    <rect id="Rectangle" x="0" y="0" width="40" height="40"></rect>
                </g>
                <circle id="Oval-Copy-1121" fill="#101828" cx="28" cy="28" r="28"></circle>
                <g id="125-B32px-Copy-3" transform="translate(8.000000, 8.000000)">
                    <path d="M20.8875,6.25 C20.975,6.25 21.05,6.3125 21.075,6.4 L21.7875,9.0625 L21.975,9.7625 L22.675,9.95 C23.575,10.1875 24.425,10.5375 25.225,11 L25.85,11.3625 L26.475,11 L28.85,9.625 C28.875,9.6125 28.9125,9.6 28.95,9.6 C28.975,9.6 29.0375,9.6125 29.0875,9.6625 L30.35,10.925 C30.4125,10.9875 30.425,11.0875 30.375,11.1625 L29,13.5375 L28.6375,14.1625 L29,14.7875 C29.4625,15.5875 29.825,16.4375 30.0625,17.3375 L30.25,18.0375 L30.95,18.225 L33.6,18.9375 C33.6875,18.9625 33.75,19.0375 33.75,19.125 L33.75,20.9 C33.75,20.9875 33.6875,21.0625 33.6,21.0875 L30.95,21.8 L30.25,21.9875 L30.0625,22.6875 C29.825,23.5875 29.4625,24.45 29,25.25 L28.6375,25.875 L29,26.5 L30.375,28.875 C30.425,28.95 30.4125,29.05 30.35,29.1125 L29.0875,30.375 C29.0375,30.425 28.975,30.4375 28.95,30.4375 C28.9125,30.4375 28.8875,30.425 28.85,30.4125 L26.475,29.0375 L25.85,28.675 L25.225,29.0375 C24.425,29.5 23.5625,29.8625 22.6625,30.1 L21.9625,30.2875 L21.775,30.9875 L21.0625,33.6375 C21.05,33.6875 20.975,33.75 20.8875,33.75 L19.1125,33.75 C19.025,33.75 18.95,33.6875 18.925,33.6 L18.2125,30.95 L18.025,30.25 L17.325,30.0625 C16.425,29.825 15.5625,29.4625 14.775,29 L14.15,28.6375 L13.525,29 L11.15,30.375 C11.125,30.3875 11.0875,30.4 11.05,30.4 C11.025,30.4 10.9625,30.3875 10.9125,30.3375 L9.65,29.075 C9.5875,29.0125 9.575,28.9125 9.625,28.8375 L11,26.4625 L11.3625,25.8375 L11,25.2125 C10.5375,24.425 10.1875,23.5625 9.95,22.6625 L9.7625,21.9625 L9.0625,21.775 L6.4,21.0625 C6.3125,21.05 6.25,20.975 6.25,20.8875 L6.25,19.1125 C6.25,19.025 6.3125,18.95 6.4,18.925 L9.0625,18.2125 L9.7625,18.025 L9.95,17.325 C10.1875,16.425 10.5375,15.575 11,14.7875 L11.3625,14.1625 L11,13.5375 L9.625,11.15 C9.575,11.0625 9.5875,10.9625 9.65,10.9 L10.9125,9.6375 C10.9625,9.5875 11.025,9.575 11.05,9.575 C11.0875,9.575 11.1125,9.5875 11.15,9.6 L13.5375,10.975 L14.1625,11.3375 L14.7875,10.975 C15.575,10.5125 16.4375,10.1625 17.325,9.925 L18.025,9.7375 L18.2125,9.0375 L18.925,6.375 C18.95,6.3125 19.025,6.25 19.1125,6.25 L20.8875,6.25 L20.8875,6.25 Z M20.8875,5 L19.1125,5 C18.4625,5 17.8875,5.4375 17.7125,6.075 L17,8.7375 C15.9875,9 15.0375,9.4 14.15,9.9125 L11.7625,8.5375 C11.5375,8.4125 11.2875,8.3375 11.0375,8.3375 C10.6625,8.3375 10.2875,8.4875 10.0125,8.7625 L8.7625,10.025 C8.3,10.4875 8.2,11.2 8.5375,11.775 L9.9125,14.1625 C9.4,15.05 9,16 8.7375,17.0125 L6.075,17.725 C5.4375,17.8875 5,18.45 5,19.1125 L5,20.8875 C5,21.5375 5.4375,22.1125 6.075,22.2875 L8.7375,23 C9,24.0125 9.4,24.975 9.9125,25.85 L8.5375,28.225 C8.2125,28.7875 8.3,29.5125 8.7625,29.975 L10.025,31.2375 C10.3,31.5125 10.675,31.6625 11.05,31.6625 C11.3,31.6625 11.55,31.6 11.775,31.4625 L14.15,30.0875 C15.0375,30.6 16,31 17.0125,31.275 L17.725,33.925 C17.9,34.5625 18.4625,35 19.125,35 L20.9,35 C21.55,35 22.125,34.5625 22.3,33.925 L23.0125,31.275 C24.025,31 24.9875,30.6125 25.8875,30.0875 L28.2625,31.4625 C28.4875,31.5875 28.7375,31.6625 28.9875,31.6625 C29.3625,31.6625 29.7375,31.5125 30.0125,31.2375 L31.275,29.975 C31.7375,29.5125 31.8375,28.8 31.5,28.225 L30.125,25.85 C30.6375,24.9625 31.0375,24 31.3125,22.975 L33.9625,22.2625 C34.6,22.0875 35.0375,21.525 35.0375,20.8625 L35.0375,19.0875 C35.0375,18.4375 34.6,17.8625 33.9625,17.6875 L31.3125,16.975 C31.0375,15.9625 30.6375,15 30.125,14.1125 L31.5,11.7375 C31.825,11.175 31.7375,10.45 31.275,9.9875 L30.0125,8.725 C29.7375,8.45 29.3625,8.3 28.9875,8.3 C28.7375,8.3 28.4875,8.3625 28.2625,8.5 L25.8875,9.875 C25,9.3625 24.05,8.9625 23.0375,8.7 L22.325,6.0375 C22.1125,5.4375 21.55,5 20.8875,5 L20.8875,5 Z" id="Shape" fill="#FFFFFF" fill-rule="nonzero"></path>
                    <g id="Group" transform="translate(12.500000, 12.500000)" fill="#FFFFFF" fill-rule="nonzero">
                        <path d="M3.7875,2.5 C4.825,1.725 6.1,1.25 7.5,1.25 C8.9,1.25 10.175,1.725 11.2125,2.5 L13.075,2.5 C11.7,0.975 9.7125,0 7.5,0 C5.2875,0 3.3,0.975 1.925,2.5 L3.7875,2.5 Z" id="Path"></path>
                        <path d="M12.4625,11.25 C11.325,12.7625 9.525,13.75 7.5,13.75 C5.475,13.75 3.675,12.7625 2.5375,11.25 L1.0125,11.25 C2.3125,13.4875 4.725,15 7.5,15 C10.275,15 12.6875,13.4875 13.9875,11.25 L12.4625,11.25 Z" id="Path"></path>
                    </g>
                    <g id="Group" transform="translate(10.000000, 15.000000)" fill="#FFFFFF" fill-rule="nonzero">
                        <path d="M9.525,1.2375 L8.275,1.2375 L5.775,4.9875 L5.775,5.2625 L5.775,6.25 L8.275,6.2375 L8.275,7.475 L9.525,7.4875 L9.525,6.2375 L10.775,6.25 L10.775,4.9875 L9.525,4.9875 L9.525,1.2375 L9.525,1.2375 Z M7.1625,4.9875 L8.2625,3.3625 L8.2625,4.9875 L7.1625,4.9875 L7.1625,4.9875 Z" id="Shape"></path>
                        <polygon id="Path" points="14.6875 1.2375 13.4375 1.2375 11.15 7.5 12.3875 7.5"></polygon>
                        <polygon id="Path" points="19.0625 1.2375 15.3125 1.25 15.3125 2.4875 17.6 2.5 15.325 7.4875 16.7875 7.4875 19.05 2.4375"></polygon>
                        <path d="M3.0375,1.2125 C1.675,1.2125 0.95,2.1875 0.95,3.1 C0.95,3.3 0.975,3.475 1.0125,3.6625 L1.0375,3.7625 L2.325,3.6625 L2.3,3.5375 C2.275,3.4125 2.2625,3.3125 2.2625,3.15 C2.2625,2.7 2.5625,2.425 3.05,2.425 C3.5125,2.425 3.8125,2.7125 3.8125,3.1625 C3.8125,3.525 3.6625,3.8 3.175,4.3 L0.9625,6.55 L0.9625,7.5125 L5.0875,7.5125 L5.0875,6.25 L2.9625,6.25 L4.0625,5.1375 C4.85,4.35 5.1,3.8375 5.1,3.0375 C5.075,1.925 4.275,1.2125 3.0375,1.2125 L3.0375,1.2125 Z" id="Path"></path>
                    </g>
                    <rect id="Rectangle" x="0" y="0" width="40" height="40"></rect>
                </g>
            </g>
        </g>
    </g>
</svg>