<?xml version="1.0" encoding="UTF-8"?>
<svg width="56px" height="56px" viewBox="0 0 56 56" version="1.1" xmlns="http://www.w3.org/2000/svg" xmlns:xlink="http://www.w3.org/1999/xlink">
    <!-- Generator: Sketch 57.1 (83088) - https://sketch.com -->
    <title>121-G56px</title>
    <desc>Created with Sketch.</desc>
    <g id="NEW_icons" stroke="none" stroke-width="1" fill="none" fill-rule="evenodd">
        <g id="icons_UD_new-Copy" transform="translate(-1728.000000, -15569.000000)">
            <g id="121-G56px" transform="translate(1728.000000, 15569.000000)">
                <circle id="Oval-Copy-764" fill="#E3E8EC" cx="28" cy="28" r="28"></circle>
                <g id="121-B32px-Copy-3" transform="translate(8.000000, 8.000000)">
                    <path d="M33.7375,7.5 L33.75,7.5125 L33.7375,32.5 L6.25,32.475 L6.2625,7.5 L33.7375,7.5 L33.7375,7.5 Z M33.7375,6.25 L6.2625,6.25 C5.5625,6.25 5,6.8125 5,7.5125 L5,32.4875 C5,33.175 5.5625,33.75 6.2625,33.75 L33.7375,33.75 C34.4375,33.75 35,33.1875 35,32.4875 L35,7.5125 C35,6.8125 34.4375,6.25 33.7375,6.25 L33.7375,6.25 Z" id="Shape" fill="#101828" fill-rule="nonzero"></path>
                    <rect id="Rectangle" fill="#101828" fill-rule="nonzero" x="16.25" y="10" width="15" height="1.25"></rect>
                    <rect id="Rectangle" fill="#101828" fill-rule="nonzero" x="16.25" y="12.5" width="15" height="1.25"></rect>
                    <rect id="Rectangle" fill="#101828" fill-rule="nonzero" x="8.75" y="10" width="5" height="1.25"></rect>
                    <rect id="Rectangle" fill="#101828" fill-rule="nonzero" x="8.75" y="12.5" width="5" height="1.25"></rect>
                    <rect id="Rectangle" fill="#101828" fill-rule="nonzero" x="8.75" y="28.75" width="5" height="1.25"></rect>
                    <path d="M30.0625,16.25 L17.4375,16.25 C16.7875,16.25 16.25,16.775 16.25,17.4375 L16.25,18.75 L17.5,18.75 L17.5,17.5 L30,17.5 L30,28.75 L17.5,28.75 L17.5,27.5 L16.25,27.5 L16.25,28.8125 C16.25,29.475 16.7875,30 17.4375,30 L30.05,30 C30.7125,30 31.2375,29.4625 31.2375,28.8125 L31.2375,17.45 C31.25,16.775 30.7125,16.25 30.0625,16.25 Z" id="Path" fill="#101828" fill-rule="nonzero"></path>
                    <path d="M11.8625,17.4 L11.9,17.4125 L20,25.5125 L20,26.25 L19.2625,26.25 L11.1625,18.15 C11.15,18.1375 11.15,18.0875 11.1625,18.075 L11.825,17.4125 C11.825,17.4125 11.8375,17.4 11.8625,17.4 L11.8625,17.4 Z M11.8625,16.15 C11.525,16.15 11.2,16.275 10.9375,16.5375 L10.275,17.2 C9.7625,17.7125 9.7625,18.5375 10.275,19.0375 L18.75,27.5 L21.25,27.5 L21.25,25 L12.7875,16.5375 C12.525,16.275 12.2,16.15 11.8625,16.15 L11.8625,16.15 Z" id="Shape" fill="#101828" fill-rule="nonzero"></path>
                    <polygon id="Rectangle" fill="#101828" fill-rule="nonzero" transform="translate(12.869442, 19.110956) rotate(-45.000000) translate(-12.869442, -19.110956) " points="12.1381989 18.4859616 13.6006849 18.4859616 13.6006849 19.7359496 12.1381989 19.7359496"></polygon>
                    <rect id="Rectangle" x="0" y="0" width="40" height="40"></rect>
                </g>
            </g>
        </g>
    </g>
</svg>