<?xml version="1.0" encoding="UTF-8"?>
<svg width="32px" height="32px" viewBox="0 0 32 32" version="1.1" xmlns="http://www.w3.org/2000/svg" xmlns:xlink="http://www.w3.org/1999/xlink">
    <!-- Generator: Sketch 57.1 (83088) - https://sketch.com -->
    <title>054-B32px</title>
    <desc>Created with Sketch.</desc>
    <g id="054-B32px" stroke="none" stroke-width="1" fill="none" fill-rule="evenodd">
        <g>
            <path d="M20.46,16.04 C20.55,18.4 18.41,20.5 15.99,20.48 C13.68,20.46 11.56,18.44 11.59,15.98 C11.61,13.65 13.66,11.54 16.13,11.58 C18.41,11.62 20.56,13.63 20.46,16.04 Z M18.33,16.03 C18.44,14.79 17.22,13.77 16.18,13.71 C14.73,13.63 13.76,14.91 13.71,15.9 C13.64,17.33 14.91,18.31 15.93,18.35 C17.28,18.41 18.46,17.19 18.33,16.03 Z" id="Shape" fill="#101828" fill-rule="nonzero"></path>
            <path d="M15.65,7.01 C15.23,7.01 14.53,7.06 14.12,7.16 C11.4,7.77 9.36,9.31 8.03,11.75 C7.36,12.99 6.99,14.31 7,15.75 C7.02,18.84 7.01,21.92 7,25.01 C10.16,25 13.32,25 16.48,25 C16.7,24.99 17.06,24.96 17.28,24.95 C19.35,24.63 21.14,23.74 22.58,22.19 C24.13,20.52 24.99,18.55 25,16.24 C25.01,13.3 25,10.35 25,7.41 C25,7.29 25,7.17 25,7.02 C24.83,7.02 24.72,7.02 24.61,7.02 C21.62,7 18.64,7 15.65,7.01 Z M23,16.48 C22.81,19.7 19.97,23.25 15.51,22.99 C12.31,22.81 8.75,19.97 9.02,15.48 C9.22,12.14 12.13,8.94 16.02,9.02 C19.65,8.89 23.26,12.11 23,16.48 Z" id="Shape" fill="#101828" fill-rule="nonzero"></path>
            <rect id="Rectangle" x="0" y="0" width="32" height="32"></rect>
        </g>
    </g>
</svg>