<?xml version="1.0" encoding="UTF-8"?>
<svg width="42px" height="42px" viewBox="0 0 42 42" version="1.1" xmlns="http://www.w3.org/2000/svg" xmlns:xlink="http://www.w3.org/1999/xlink">
    <!-- Generator: Sketch 57.1 (83088) - https://sketch.com -->
    <title>181-G40px</title>
    <desc>Created with Sketch.</desc>
    <g id="NEW_icons" stroke="none" stroke-width="1" fill="none" fill-rule="evenodd">
        <g id="icons_UD_new-Copy" transform="translate(-1526.000000, -24120.000000)">
            <g id="181-G40px" transform="translate(1527.000000, 24121.000000)">
                <circle id="Oval-Copy-1167" stroke="#E3E8EC" cx="20" cy="20" r="20"></circle>
                <g id="189-B32px-Copy" transform="translate(5.000000, 4.000000)">
                    <path d="M16,11 L16,13 L8,13 L8,11 L16,11 L16,11 Z M17,10 L7,10 L7,14 L17,14 L17,10 L17,10 Z" id="Shape" fill="#101828" fill-rule="nonzero"></path>
                    <path d="M16,8 L16,10 L8,10 L8,8 L16,8 L16,8 Z M17,7 L7,7 L7,11 L17,11 L17,7 L17,7 Z" id="Shape" fill="#101828" fill-rule="nonzero"></path>
                    <circle id="Oval" fill="#101828" fill-rule="nonzero" cx="14.5" cy="15" r="1"></circle>
                    <circle id="Oval" fill="#101828" fill-rule="nonzero" cx="14.5" cy="12" r="1"></circle>
                    <circle id="Oval" fill="#101828" fill-rule="nonzero" cx="14.5" cy="9" r="1"></circle>
                    <path d="M12,23 C10.9,23 10,22.1 10,21 C10,19.9 10.9,19 12,19 C13.1,19 14,19.9 14,21 C14,22.1 13.1,23 12,23 Z M12,20 C11.45,20 11,20.45 11,21 C11,21.55 11.45,22 12,22 C12.55,22 13,21.55 13,21 C13,20.45 12.55,20 12,20 Z" id="Shape" fill="#101828" fill-rule="nonzero"></path>
                    <circle id="Oval" fill="#101828" fill-rule="nonzero" cx="7.5" cy="24.5" r="1"></circle>
                    <circle id="Oval" fill="#101828" fill-rule="nonzero" cx="7.5" cy="22.5" r="1"></circle>
                    <circle id="Oval" fill="#101828" fill-rule="nonzero" cx="7.5" cy="20.5" r="1"></circle>
                    <circle id="Oval" fill="#101828" fill-rule="nonzero" cx="7.5" cy="18.5" r="1"></circle>
                    <path d="M15.51,26 L5.05,26 C5.02,26 5,25.98 5,25.95 L5,5.05 C5,5.02 5.02,5 5.05,5 L18.96,5 C18.98,5 19,5.02 19,5.05 L19,14.44 C19.32,14.33 19.66,14.22 20,14.15 L20,5.05 C20,4.47 19.53,4 18.95,4 L5.05,4 C4.47,4 4,4.47 4,5.05 L4,25.96 C4,26.53 4.47,27 5.05,27 L16.42,27 C16.08,26.69 15.78,26.36 15.51,26 Z" id="Path" fill="#101828" fill-rule="nonzero"></path>
                    <path d="M21.5,16 C24.53,16 27,18.47 27,21.5 C27,24.53 24.53,27 21.5,27 C18.47,27 16,24.53 16,21.5 C16,18.47 18.47,16 21.5,16 L21.5,16 Z M21.5,15 C17.91,15 15,17.91 15,21.5 C15,25.09 17.91,28 21.5,28 C25.09,28 28,25.09 28,21.5 C28,17.91 25.09,15 21.5,15 L21.5,15 Z" id="Shape" fill="#101828" fill-rule="nonzero"></path>
                    <path d="M17,15.51 L17,13 L7,13 L7,17 L15.51,17 C15.93,16.44 16.44,15.93 17,15.51 Z M8,14 L16,14 L16,16 L8,16 L8,14 Z" id="Shape" fill="#101828" fill-rule="nonzero"></path>
                    <rect id="Rectangle" fill="#101828" fill-rule="nonzero" x="17" y="21.49" width="2.5" height="1"></rect>
                    <g id="Group" transform="translate(20.000000, 18.000000)" fill="#101828" fill-rule="nonzero">
                        <path d="M2.51,6.42 L1.51,6.42 L1.51,4.01 L0.52,4.01 L0.52,3.01 L1.51,3.01 L1.51,0.43 L3.97,0.43 C4.94,0.43 5.74,1.22 5.74,2.2 C5.74,3.2 4.93,4.02 3.92,4.02 L2.51,4.02 L2.51,6.42 Z M2.51,3.01 L3.92,3.01 C4.37,3.01 4.74,2.64 4.74,2.19 C4.74,1.77 4.4,1.42 3.97,1.42 L2.51,1.42 L2.51,3.01 Z" id="Shape"></path>
                        <rect id="Rectangle" x="0.51" y="4.42" width="4" height="1"></rect>
                    </g>
                    <rect id="Rectangle" x="0" y="0" width="32" height="32"></rect>
                </g>
            </g>
        </g>
    </g>
</svg>