<?xml version="1.0" encoding="UTF-8"?>
<svg width="80px" height="80px" viewBox="0 0 80 80" version="1.1" xmlns="http://www.w3.org/2000/svg" xmlns:xlink="http://www.w3.org/1999/xlink">
    <!-- Generator: Sketch 57.1 (83088) - https://sketch.com -->
    <title>221-B80px</title>
    <desc>Created with Sketch.</desc>
    <g id="221-B80px" stroke="none" stroke-width="1" fill="none" fill-rule="evenodd">
        <g>
            <g>
                <path d="M67.5,12.5 L67.5,32.5 L47.5,32.5 L47.5,12.5 L67.5,12.5 L67.5,12.5 Z M70,10 L45,10 L45,35 L70,35 L70,10 L70,10 Z" id="Shape" fill="#101828" fill-rule="nonzero"></path>
                <path d="M55,47.75 L65.75,67.5 L44.25,67.5 L55,47.75 L55,47.75 Z M55,42.5 L40,70 L70,70 L55,42.5 L55,42.5 Z" id="Shape" fill="#101828" fill-rule="nonzero"></path>
                <path d="M29.25,12.5 L34.75,22.5 L29.25,32.5 L18.25,32.5 L12.75,22.5 L18.25,12.5 L29.25,12.5 L29.25,12.5 Z M30.5,10 L17,10 L10,22.5 L17,35 L30.75,35 L37.5,22.5 L30.5,10 L30.5,10 Z" id="Shape" fill="#101828" fill-rule="nonzero"></path>
                <path d="M23.75,45 C30,45 35,50 35,56.25 C35,62.5 30,67.5 23.75,67.5 C17.5,67.5 12.5,62.5 12.5,56.25 C12.5,50 17.5,45 23.75,45 L23.75,45 Z M23.75,42.5 C16.25,42.5 10,48.75 10,56.25 C10,63.75 16.25,70 23.75,70 C31.25,70 37.5,63.75 37.5,56.25 C37.5,48.75 31.25,42.5 23.75,42.5 L23.75,42.5 Z" id="Shape" fill="#101828" fill-rule="nonzero"></path>
                <rect id="Rectangle" x="0" y="0" width="80" height="80"></rect>
            </g>
        </g>
    </g>
</svg>