<?xml version="1.0" encoding="UTF-8"?>
<svg width="80px" height="80px" viewBox="0 0 80 80" version="1.1" xmlns="http://www.w3.org/2000/svg" xmlns:xlink="http://www.w3.org/1999/xlink">
    <!-- Generator: Sketch 57.1 (83088) - https://sketch.com -->
    <title>201-B80px</title>
    <desc>Created with Sketch.</desc>
    <g id="201-B80px" stroke="none" stroke-width="1" fill="none" fill-rule="evenodd">
        <g>
            <path d="M67.45,25 L67.5,25.05 L67.45,52.525 L12.5,52.475 L12.55,25 L67.45,25 L67.45,25 Z M67.45,22.5 L12.55,22.5 C11.15,22.5 10,23.65 10,25.05 L10,52.475 C10,53.875 11.15,55.025 12.55,55.025 L67.45,55.025 C68.85,55.025 70,53.875 70,52.475 L70,25.05 C70,23.65 68.85,22.5 67.45,22.5 L67.45,22.5 Z" id="Shape" fill="#101828" fill-rule="nonzero"></path>
            <path d="M29.75,39.475 L28.8,38.725 L27.5,38.725 C27.5,38.25 27.75,37.975 27.975,37.7 L29.125,38.7 L30,38.75 L29.15,38.75 L29.85,39.375 L29.075,38.75 L29.75,39.475 Z M31.525,37.8 L29.975,35.825 C30.675,35.275 31.45,34.775 32.25,34.35 L33.425,36.55 C32.75,36.925 32.125,37.35 31.525,37.8 Z M46.625,36.6 C45.95,36.225 45.25,35.925 44.525,35.675 L45.35,33.325 C46.2,33.625 47.025,34 47.825,34.425 L46.625,36.6 Z M35.525,35.65 L34.725,33.275 C35.575,32.975 36.45,32.775 37.35,32.625 L37.75,35.1 C37,35.225 36.25,35.4 35.525,35.65 Z M42.325,35.125 C41.575,35 40.8,34.925 40.025,34.925 L40.05,32.425 C40.95,32.425 41.85,32.5 42.725,32.65 L42.325,35.125 Z" id="Shape" fill="#101828" fill-rule="nonzero"></path>
            <path d="M49.65,47.475 L30.35,47.475 L27.35,38.5 L27.75,37.975 C27.775,37.925 28.525,36.95 29.975,35.825 L31.525,37.8 C30.925,38.275 30.475,38.7 30.175,39.025 L32.175,44.975 L47.875,44.975 L49.875,39.025 C49.2,38.325 47.75,37 45.55,36.05 L46.55,33.75 C50.25,35.35 52.2,37.85 52.275,37.95 L52.675,38.475 L49.65,47.475 Z" id="Path" fill="#101828" fill-rule="nonzero"></path>
            <path d="M39.95,54.85 C29.175,54.85 21.1,56.5 17.5,57.4 L17.5,59.975 C20.6,59.175 28.85,57.35 39.95,57.35 C51.15,57.35 59.475,59.2 62.5,60 L62.5,57.425 C58.925,56.525 50.825,54.85 39.95,54.85 Z" id="Path" fill="#101828" fill-rule="nonzero"></path>
            <polygon id="Path" fill="#101828" fill-rule="nonzero" points="41.7 40 39.75 45.85 42.1 46.625 44.325 40"></polygon>
            <rect id="Rectangle" x="0" y="0" width="80" height="80"></rect>
        </g>
    </g>
</svg>