<?xml version="1.0" encoding="UTF-8"?>
<svg width="42px" height="42px" viewBox="0 0 42 42" version="1.1" xmlns="http://www.w3.org/2000/svg" xmlns:xlink="http://www.w3.org/1999/xlink">
    <!-- Generator: Sketch 57.1 (83088) - https://sketch.com -->
    <title>063-G40px</title>
    <desc>Created with Sketch.</desc>
    <g id="NEW_icons" stroke="none" stroke-width="1" fill="none" fill-rule="evenodd">
        <g id="icons_UD_new-Copy" transform="translate(-1526.000000, -8303.000000)">
            <g id="063-G40px" transform="translate(1527.000000, 8304.000000)">
                <circle id="Oval-Copy-440" stroke="#E3E8EC" cx="20" cy="20" r="20"></circle>
                <g id="063-B32px-Copy-4" transform="translate(4.000000, 4.000000)">
                    <path d="M22.5,18 C24.98,18 27,20.02 27,22.5 C27,24.98 24.98,27 22.5,27 C20.02,27 18,24.98 18,22.5 C18,20.02 20.02,18 22.5,18 L22.5,18 Z M22.5,17 C19.46,17 17,19.46 17,22.5 C17,25.54 19.46,28 22.5,28 C25.54,28 28,25.54 28,22.5 C28,19.46 25.54,17 22.5,17 L22.5,17 Z" id="Shape" fill="#101828" fill-rule="nonzero"></path>
                    <polygon id="Path" fill="#101828" fill-rule="nonzero" points="20 22 20 23 22 23 22 25 23 25 23 23 25 23 25 22 23 22 23 20 22 20 22 22"></polygon>
                    <path d="M16.42,24.78 C15.96,24.88 15.48,24.95 15,24.97 L15,24.94 L15,20.41 L16.36,20.41 C16.48,20.06 16.63,19.73 16.8,19.41 L15,19.41 L15,19 L15,16 L23.97,16 L24.97,16 C24.98,15.83 25,15.67 25,15.5 C25,9.7 20.3,5 14.5,5 C14.5,5 14.49,5 14.49,5 C14.49,5 14.49,5 14.48,5 C14.47,5 14.47,5 14.46,5 C8.68,5.02 4,9.71 4,15.5 C4,21.29 8.68,25.98 14.46,26 C14.47,26 14.47,26 14.48,26 C14.48,26 14.48,26 14.49,26 C14.49,26 14.5,26 14.5,26 C15.31,26 16.1,25.9 16.86,25.72 C16.69,25.42 16.54,25.11 16.42,24.78 Z M23.97,15 L20.56,15 C20.53,13.92 20.41,12.88 20.2,11.91 L23.28,11.91 C23.68,12.87 23.92,13.91 23.97,15 Z M22.81,10.91 L19.96,10.91 C19.45,9.11 18.65,7.6 17.66,6.56 C19.86,7.33 21.69,8.89 22.81,10.91 Z M15,6.05 C16.66,6.38 18.12,8.28 18.92,10.91 L15,10.91 L15,6.05 Z M15,11.91 L19.18,11.91 C19.4,12.88 19.53,13.92 19.56,15 L15,15 L15,11.91 Z M11.29,6.57 C10.31,7.61 9.52,9.11 9.01,10.91 L6.19,10.91 C7.3,8.91 9.11,7.36 11.29,6.57 Z M5.71,11.91 L8.76,11.91 C8.56,12.88 8.43,13.92 8.4,15 L5.03,15 C5.08,13.91 5.32,12.87 5.71,11.91 Z M5.03,16 L8.4,16 C8.43,17.2 8.58,18.36 8.83,19.42 L5.86,19.42 C5.38,18.37 5.09,17.21 5.03,16 Z M6.39,20.42 L9.1,20.42 C9.61,22.07 10.37,23.45 11.29,24.43 C9.23,23.69 7.51,22.26 6.39,20.42 Z M14,24.95 C12.39,24.65 10.98,22.89 10.16,20.42 L14,20.42 L14,24.95 Z M14,19.42 L9.87,19.42 C9.6,18.36 9.44,17.21 9.4,16 L14,16 L14,19.42 Z M14,15 L9.4,15 C9.43,13.92 9.56,12.87 9.78,11.91 L14,11.91 L14,15 Z M14,10.91 L10.05,10.91 C10.86,8.26 12.32,6.36 14,6.05 L14,10.91 Z" id="Shape" fill="#101828" fill-rule="nonzero"></path>
                    <rect id="Rectangle" x="0" y="0" width="32" height="32"></rect>
                </g>
            </g>
        </g>
    </g>
</svg>