<?xml version="1.0" encoding="UTF-8"?>
<svg width="80px" height="80px" viewBox="0 0 80 80" version="1.1" xmlns="http://www.w3.org/2000/svg" xmlns:xlink="http://www.w3.org/1999/xlink">
    <!-- Generator: Sketch 57.1 (83088) - https://sketch.com -->
    <title>099-B80px</title>
    <desc>Created with Sketch.</desc>
    <g id="099-B80px" stroke="none" stroke-width="1" fill="none" fill-rule="evenodd">
        <g>
            <path d="M40,57.5 C40.7,57.5 41.25,58.05 41.25,58.75 C41.25,59.45 40.7,60 40,60 C39.3,60 38.75,59.45 38.75,58.75 C38.75,58.05 39.3,57.5 40,57.5 L40,57.5 Z M40,55 C37.925,55 36.25,56.675 36.25,58.75 C36.25,60.825 37.925,62.5 40,62.5 C42.075,62.5 43.75,60.825 43.75,58.75 C43.75,56.675 42.075,55 40,55 L40,55 Z" id="Shape" fill="#101828" fill-rule="nonzero"></path>
            <path d="M65,17.5 C65.7,17.5 66.25,18.05 66.25,18.75 C66.25,19.45 65.7,20 65,20 C64.3,20 63.75,19.45 63.75,18.75 C63.75,18.05 64.3,17.5 65,17.5 L65,17.5 Z M65,15 C62.925,15 61.25,16.675 61.25,18.75 C61.25,20.825 62.925,22.5 65,22.5 C67.075,22.5 68.75,20.825 68.75,18.75 C68.75,16.675 67.075,15 65,15 L65,15 Z" id="Shape" fill="#101828" fill-rule="nonzero"></path>
            <path d="M62.5,30 L62.5,27.5 L67.5,27.5 L67.5,30 L70,30 L70,27.5 C70,26.125 68.875,25 67.5,25 L62.5,25 C61.125,25 60,26.125 60,27.5 L60,30 L62.5,30 Z" id="Path" fill="#101828" fill-rule="nonzero"></path>
            <path d="M15,17.5 C15.7,17.5 16.25,18.05 16.25,18.75 C16.25,19.45 15.7,20 15,20 C14.3,20 13.75,19.45 13.75,18.75 C13.75,18.05 14.3,17.5 15,17.5 L15,17.5 Z M15,15 C12.925,15 11.25,16.675 11.25,18.75 C11.25,20.825 12.925,22.5 15,22.5 C17.075,22.5 18.75,20.825 18.75,18.75 C18.75,16.675 17.075,15 15,15 L15,15 Z" id="Shape" fill="#101828" fill-rule="nonzero"></path>
            <path d="M12.5,30 L12.5,27.5 L17.5,27.5 L17.5,30 L20,30 L20,27.5 C20,26.125 18.875,25 17.5,25 L12.5,25 C11.125,25 10,26.125 10,27.5 L10,30 L12.5,30 Z" id="Path" fill="#101828" fill-rule="nonzero"></path>
            <path d="M37.5,70 L37.5,67.5 L42.5,67.5 L42.5,70 L45,70 L45,67.5 C45,66.125 43.875,65 42.5,65 L37.5,65 C36.125,65 35,66.125 35,67.5 L35,70 L37.5,70 Z" id="Path" fill="#101828" fill-rule="nonzero"></path>
            <path d="M30.825,25.325 L35.525,30.175 L33.525,32.125 L32.325,33.3 L32.95,34.85 C33.1,35.225 34.525,38.625 36.6,40.8 C38.675,42.975 42.05,44.475 42.425,44.65 L43.975,45.325 L45.175,44.15 L47.175,42.2 L51.875,47.05 L48.875,49.975 C42.075,48.65 35.525,41.975 35.45,41.9 C35.375,41.825 28.85,35 27.825,28.225 L30.825,25.325 L30.825,25.325 Z M30.85,22.45 C30.45,22.45 30.025,22.6 29.7,22.925 L25.775,26.725 C25.4,27.1 25.225,27.625 25.3,28.15 C26.225,35.975 33.65,43.65 33.65,43.65 C33.65,43.65 41.025,51.275 48.9,52.525 C48.975,52.55 49.05,52.55 49.15,52.55 C49.575,52.55 50,52.375 50.3,52.075 L54.225,48.275 C54.875,47.65 54.9,46.625 54.275,45.975 L48.35,39.85 C48.025,39.525 47.625,39.35 47.2,39.35 C46.8,39.35 46.375,39.5 46.05,39.825 L43.425,42.375 C43.425,42.375 40.2,40.95 38.4,39.075 C36.6,37.2 35.275,33.925 35.275,33.925 L37.9,31.375 C38.55,30.75 38.575,29.725 37.95,29.075 L32,22.95 C31.7,22.625 31.275,22.45 30.85,22.45 L30.85,22.45 Z" id="Shape" fill="#101828" fill-rule="nonzero"></path>
            <path d="M21.1,20.05 C26.05,15.375 32.675,12.5 40,12.5 C47.325,12.5 53.975,15.4 58.925,20.1 C58.825,19.65 58.75,19.225 58.75,18.75 C58.75,18.075 58.875,17.45 59.075,16.85 C53.9,12.575 47.25,10 40,10 C32.75,10 26.125,12.6 20.95,16.9 C21.125,17.5 21.25,18.1 21.25,18.75 C21.25,19.2 21.2,19.65 21.1,20.05 Z" id="Path" fill="#101828" fill-rule="nonzero"></path>
            <g id="Group" transform="translate(10.000000, 32.500000)" fill="#101828" fill-rule="nonzero">
                <path d="M59.025,0 L56.45,0 C57.125,2.4 57.525,4.9 57.525,7.5 C57.525,20.05 49.05,30.65 37.525,33.925 L37.525,36.5 C50.45,33.175 60.025,21.45 60.025,7.475 C60,4.9 59.625,2.4 59.025,0 Z" id="Path"></path>
                <path d="M22.5,33.925 C10.975,30.65 2.5,20.05 2.5,7.5 C2.5,4.9 2.875,2.4 3.575,0 L0.975,0 C0.375,2.4 0,4.9 0,7.5 C0,21.475 9.575,33.175 22.5,36.525 L22.5,33.925 Z" id="Path"></path>
            </g>
            <rect id="Rectangle" x="0" y="0" width="80" height="80"></rect>
        </g>
    </g>
</svg>