<?xml version="1.0" encoding="UTF-8"?>
<svg width="80px" height="80px" viewBox="0 0 80 80" version="1.1" xmlns="http://www.w3.org/2000/svg" xmlns:xlink="http://www.w3.org/1999/xlink">
    <!-- Generator: Sketch 57.1 (83088) - https://sketch.com -->
    <title>198-B80px</title>
    <desc>Created with Sketch.</desc>
    <g id="198-B80px" stroke="none" stroke-width="1" fill="none" fill-rule="evenodd">
        <g>
            <path d="M49.025,36.275 C51.225,39.475 52.5,43.35 52.5,47.5 C52.5,58.525 43.525,67.5 32.5,67.5 C21.475,67.5 12.5,58.525 12.5,47.5 C12.5,36.475 21.475,27.5 32.5,27.5 C36.65,27.5 40.525,28.775 43.725,30.975 L45.525,29.175 C41.85,26.55 37.35,25 32.5,25 C20.075,25 10,35.075 10,47.5 C10,59.925 20.075,70 32.5,70 C44.925,70 55,59.925 55,47.5 C55,42.65 53.45,38.15 50.825,34.475 L49.025,36.275 Z" id="Path" fill="#101828" fill-rule="nonzero"></path>
            <path d="M44.925,40.45 C46.05,42.45 46.7,44.775 46.7,47.225 C46.7,54.9 40.45,61.15 32.775,61.15 C25.1,61.15 18.85,54.9 18.85,47.225 C18.85,39.55 25.1,33.3 32.775,33.3 C35.225,33.3 37.55,33.95 39.55,35.075 L41.4,33.225 C38.9,31.675 35.95,30.775 32.775,30.775 C23.7,30.775 16.325,38.15 16.325,47.225 C16.325,56.3 23.7,63.675 32.775,63.675 C41.85,63.675 49.225,56.3 49.225,47.225 C49.225,44.05 48.325,41.1 46.775,38.6 L44.925,40.45 Z" id="Path" fill="#101828" fill-rule="nonzero"></path>
            <path d="M39.675,45.45 C39.875,46.1 40,46.775 40,47.5 C40,51.625 36.625,55 32.5,55 C28.375,55 25,51.625 25,47.5 C25,43.375 28.375,40 32.5,40 C33.125,40 33.7,40.1 34.275,40.225 L36.275,38.225 C35.1,37.775 33.825,37.5 32.5,37.5 C26.975,37.5 22.5,41.975 22.5,47.5 C22.5,53.025 26.975,57.5 32.5,57.5 C38.025,57.5 42.5,53.025 42.5,47.5 C42.5,46.075 42.175,44.7 41.65,43.475 L39.675,45.45 Z" id="Path" fill="#101828" fill-rule="nonzero"></path>
            <path d="M60.625,19.375 L60.625,17.6 L31.875,46.325 C31.375,46.825 31.375,47.625 31.875,48.125 C32.125,48.375 32.45,48.5 32.775,48.5 C33.1,48.5 33.425,48.375 33.675,48.125 L62.4,19.375 L60.625,19.375 Z" id="Path" fill="#101828" fill-rule="nonzero"></path>
            <polygon id="Path" fill="#101828" fill-rule="nonzero" points="59.875 29.5 70 19.375 66.425 19.375 56.3 29.5"></polygon>
            <polygon id="Path" fill="#101828" fill-rule="nonzero" points="50.5 20.125 50.5 23.7 60.625 13.575 60.625 10"></polygon>
            <rect id="Rectangle" x="0" y="0" width="80" height="80"></rect>
        </g>
    </g>
</svg>