<?xml version="1.0" encoding="UTF-8"?>
<svg width="80px" height="80px" viewBox="0 0 80 80" version="1.1" xmlns="http://www.w3.org/2000/svg" xmlns:xlink="http://www.w3.org/1999/xlink">
    <!-- Generator: Sketch 58 (84663) - https://sketch.com -->
    <title>253-G80px</title>
    <desc>Created with Sketch.</desc>
    <g id="NEW_icons" stroke="none" stroke-width="1" fill="none" fill-rule="evenodd">
        <g id="icons_UD_new-Copy" transform="translate(-2050.000000, -32117.000000)">
            <g id="253-G80px" transform="translate(2050.000000, 32117.000000)">
                <circle id="Oval-Copy-1452" fill="#E3E8EC" cx="40" cy="40" r="40"></circle>
                <g id="253-B32px" transform="translate(12.000000, 12.000000)">
                    <g>
                        <path d="M31.4825,39.6725 L31.4825,39.34 C24.36,36.75 18.235,30.52 18.165,30.45 C18.0775,30.3625 9.905,21.805 8.9075,13.3875 C8.9075,13.335 8.9075,13.2475 8.96,13.195 L13.545,8.7675 C13.58,8.7325 13.615,8.715 13.6675,8.715 C13.72,8.715 13.755,8.75 13.755,8.75 L20.6675,15.89 C20.72,15.9425 20.7025,16.0475 20.65,16.1 L17.5875,19.0575 L16.7475,19.88 L17.185,20.965 C17.255,21.14 18.8825,25.1125 21.21,27.51 C23.5375,29.9075 27.4575,31.675 27.6325,31.745 L28.7175,32.2175 L29.5575,31.395 L32.62,28.4375 C32.655,28.4025 32.69,28.385 32.7425,28.385 C32.795,28.385 32.83,28.42 32.83,28.42 L34.3875,30.03 C34.8425,29.645 35.3325,29.3125 35.875,29.05 L34.09,27.2125 C33.7225,26.8275 33.2325,26.635 32.7425,26.635 C32.27,26.635 31.78,26.81 31.4125,27.1775 L28.35,30.135 C28.35,30.135 24.605,28.4725 22.4875,26.285 C20.37,24.0975 18.83,20.3 18.83,20.3 L21.8925,17.3425 C22.645,16.6075 22.68,15.4175 21.945,14.665 L15.015,7.525 C14.6475,7.1575 14.1575,6.965 13.6675,6.965 C13.195,6.965 12.705,7.14 12.3375,7.5075 L7.7525,11.935 C7.315,12.3725 7.105,12.9675 7.1925,13.58 C8.2775,22.715 16.9225,31.64 16.9225,31.64 C16.9225,31.64 23.5375,38.4825 31.3775,41.1425 C31.43,40.6525 31.4825,40.145 31.4825,39.6725 Z" id="Path" fill="#101828" fill-rule="nonzero"></path>
                        <path d="M29.9075,44.8875 L29.9075,43.1375 C32.6375,43.12 33.2325,40.6875 33.2675,38.675 L33.3025,35.8575 C33.3375,32.4975 36.155,29.75 39.5675,29.75 C39.5675,29.75 39.5675,29.75 39.585,29.75 C43.0325,29.75 45.85,32.5325 45.85,35.9275 L45.85,38.675 C45.85,40.705 46.4275,43.1375 49.1925,43.155 L49.1925,44.905 L29.9075,44.8875 Z M39.5675,31.5 C37.1,31.5 35.07,33.46 35.0525,35.875 L35.0175,38.6925 C35,40.565 34.5275,42.0875 33.705,43.1375 L45.36,43.1375 C44.5375,42.07 44.0825,40.5475 44.0825,38.6575 L44.0825,35.91 C44.0825,33.4775 42.0525,31.5 39.5675,31.5 C39.5675,31.5 39.5675,31.5 39.5675,31.5 Z" id="Shape" fill="#101828" fill-rule="nonzero"></path>
                        <path d="M39.55,48.9825 C39.5325,48.9825 39.5325,48.9825 39.55,48.9825 C38.22,48.9825 36.9775,48.475 36.0325,47.5475 C35.0875,46.62 34.58,45.395 34.58,44.0825 L36.33,44.0825 C36.33,44.9225 36.6625,45.6925 37.2575,46.2875 C37.8525,46.8825 38.675,47.215 39.5325,47.215 C39.5325,47.215 39.5325,47.215 39.55,47.215 C40.4075,47.215 41.2125,46.8825 41.8075,46.305 C42.4025,45.71 42.7525,44.94 42.7525,44.1 L44.5025,44.1 C44.5025,45.4125 43.9775,46.6375 43.0325,47.5475 C42.0875,48.4925 40.8625,48.9825 39.55,48.9825 Z" id="Path" fill="#101828" fill-rule="nonzero"></path>
                        <rect id="Rectangle" x="0" y="0" width="56" height="56"></rect>
                    </g>
                </g>
            </g>
        </g>
    </g>
</svg>