<?xml version="1.0" encoding="UTF-8"?>
<svg width="80px" height="80px" viewBox="0 0 80 80" version="1.1" xmlns="http://www.w3.org/2000/svg" xmlns:xlink="http://www.w3.org/1999/xlink">
    <!-- Generator: Sketch 57.1 (83088) - https://sketch.com -->
    <title>020-B80px</title>
    <desc>Created with Sketch.</desc>
    <g id="020-B80px" stroke="none" stroke-width="1" fill="none" fill-rule="evenodd">
        <g>
            <path d="M33.625,62.625 L32.25,61.25 C29.4,59.45 26.975,55.775 25.4,51.05 L35,51.05 L35,52.575 L35.05,52.525 L37.5,52.525 L37.5,51.05 L47.025,51.05 C46.85,51.6 46.625,52.125 46.425,52.65 C47.275,52.8 48.05,53.125 48.775,53.55 C49.1,52.75 49.4,51.925 49.675,51.05 L56.525,51.05 C56.2,51.575 55.85,52.1 55.5,52.6 C55.8,52.55 56.1,52.5 56.425,52.5 C57.125,52.5 57.775,52.625 58.4,52.8 C60.975,48.725 62.5,43.925 62.5,38.75 C62.5,24.25 50.75,12.5 36.25,12.5 C36.25,12.5 36.225,12.5 36.225,12.5 C36.225,12.5 36.225,12.5 36.2,12.5 C36.175,12.5 36.175,12.5 36.15,12.5 C21.7,12.55 10,24.275 10,38.75 C10,52.35 20.35,63.55 33.625,64.85 L33.625,62.625 Z M57.85,48.55 L50.325,48.55 C50.95,45.9 51.325,43 51.4,40 L59.925,40 C59.775,43.025 59.05,45.925 57.85,48.55 Z M59.925,37.5 L51.4,37.5 C51.325,34.5 50.95,31.6 50.325,28.95 L57.85,28.95 C59.05,31.575 59.775,34.475 59.925,37.5 Z M56.525,26.45 L49.675,26.45 C48.4,22.3 46.475,18.825 44.15,16.375 C49.35,18.225 53.7,21.8 56.525,26.45 Z M37.5,15.125 C41.475,15.9 44.975,20.3 47.025,26.45 L37.5,26.45 L37.5,15.125 Z M37.5,28.95 L47.75,28.95 C48.425,31.6 48.825,34.475 48.9,37.5 L37.5,37.5 L37.5,28.95 Z M37.5,40 L48.9,40 C48.8,43.025 48.4,45.9 47.75,48.55 L37.5,48.55 L37.5,40 Z M35,48.55 L24.675,48.55 C24,45.9 23.6,43.025 23.5,40 L35,40 L35,48.55 Z M35,37.5 L23.5,37.5 C23.6,34.475 24,31.6 24.65,28.95 L35,28.95 L35,37.5 Z M35,15.125 L35,26.45 L25.4,26.45 C27.45,20.275 30.975,15.85 35,15.125 Z M28.225,16.425 C25.925,18.875 24.025,22.325 22.75,26.45 L15.975,26.45 C18.775,21.85 23.075,18.275 28.225,16.425 Z M14.65,28.95 L22.1,28.95 C21.45,31.6 21.1,34.5 21,37.5 L12.575,37.5 C12.725,34.475 13.45,31.575 14.65,28.95 Z M12.575,40 L21,40 C21.075,43 21.45,45.9 22.075,48.55 L14.65,48.55 C13.45,45.925 12.725,43.025 12.575,40 Z M15.975,51.05 L22.75,51.05 C24.025,55.175 25.925,58.625 28.225,61.075 C23.075,59.225 18.775,55.65 15.975,51.05 Z" id="Shape" fill="#101828" fill-rule="nonzero"></path>
            <g id="Group" transform="translate(32.500000, 55.000000)" fill="#101828" fill-rule="nonzero">
                <path d="M12.525,0 C9.775,0 7.525,2.25 7.525,5 L7.525,7.5 C7.525,10.25 9.775,12.5 12.525,12.5 C15.275,12.5 17.525,10.25 17.525,7.5 L17.525,5 C17.525,2.25 15.275,0 12.525,0 Z M15.025,7.5 C15.025,8.875 13.9,10 12.525,10 C11.15,10 10.025,8.875 10.025,7.5 L10.025,5 C10.025,3.625 11.15,2.5 12.525,2.5 C13.9,2.5 15.025,3.625 15.025,5 L15.025,7.5 Z" id="Shape"></path>
                <path d="M23.925,0 C21.175,0 18.925,2.25 18.925,5 L18.925,7.5 C18.925,10.25 21.175,12.5 23.925,12.5 C26.675,12.5 28.925,10.25 28.925,7.5 L28.925,5 C28.925,2.25 26.675,0 23.925,0 Z M26.425,7.5 C26.425,8.875 25.3,10 23.925,10 C22.55,10 21.425,8.875 21.425,7.5 L21.425,5 C21.425,3.625 22.55,2.5 23.925,2.5 C25.3,2.5 26.425,3.625 26.425,5 L26.425,7.5 Z" id="Shape"></path>
                <polygon id="Path" points="35 5 35 2.5 32.5 2.5 32.5 5 30 5 30 7.5 32.5 7.5 32.5 10 35 10 35 7.5 37.5 7.5 37.5 5"></polygon>
                <polygon id="Path" points="3.625 0 3.6 0 3.55 0.05 0.275 3.225 2.025 5 3.625 3.45 3.625 12.5 6.125 12.5 6.125 0 4.75 0"></polygon>
            </g>
            <rect id="Rectangle" x="0" y="0" width="80" height="80"></rect>
        </g>
    </g>
</svg>