<?xml version="1.0" encoding="UTF-8"?>
<svg width="80px" height="80px" viewBox="0 0 80 80" version="1.1" xmlns="http://www.w3.org/2000/svg" xmlns:xlink="http://www.w3.org/1999/xlink">
    <!-- Generator: Sketch 57.1 (83088) - https://sketch.com -->
    <title>207-G80px</title>
    <desc>Created with Sketch.</desc>
    <g id="NEW_icons" stroke="none" stroke-width="1" fill="none" fill-rule="evenodd">
        <g id="icons_UD_new-Copy" transform="translate(-2050.000000, -26340.000000)">
            <g id="207-G80px" transform="translate(2050.000000, 26340.000000)">
                <circle id="Oval-Copy-1218" fill="#E3E8EC" cx="40" cy="40" r="40"></circle>
                <g id="207-B32px-Copy-6" transform="translate(12.000000, 12.000000)">
                    <path d="M27.965,38.4125 C20.4225,38.4125 14.77,39.5675 12.25,40.1975 L12.25,42 C14.42,41.44 20.195,40.1625 27.965,40.1625 C35.805,40.1625 41.6325,41.4575 43.75,42.0175 L43.75,40.215 C41.2475,39.5675 35.5775,38.4125 27.965,38.4125 Z" id="Path" fill="#101828" fill-rule="nonzero"></path>
                    <polygon id="Path" fill="#101828" fill-rule="nonzero" points="15.75 21.035 15.75 23.555 14 23.555 14 21.035 12.25 21.035 12.25 28 14 28 14 25.3575 15.75 25.3575 15.75 28 17.5 28 17.5 21.035"></polygon>
                    <path d="M20.86,21.035 L18.69,21.035 L18.69,28 L20.86,28 C23.1,28 24.5,26.67 24.5,24.5175 C24.5,22.365 23.1,21.035 20.86,21.035 Z M21.035,26.215 L20.4225,26.215 L20.4225,22.8375 L21.035,22.8375 C22.1375,22.8375 22.75,23.4325 22.75,24.535 C22.75,25.6025 22.1375,26.215 21.035,26.215 Z" id="Shape" fill="#101828" fill-rule="nonzero"></path>
                    <path d="M28,28 L35.735,28 L34.4575,29.75 L28,29.75 L28,31.5 L35.42,31.395 L36.6275,29.75 L36.61,29.75 L37.7825,28.1575 L37.7825,28.175 L46.83,15.75 L49,15.75 L36.89,32.3225 C36.5925,32.9 35.9975,33.25 35.35,33.25 L28,33.25 C27.0375,33.25 26.25,32.4625 26.25,31.5 L26.25,29.75 C26.25,28.7875 27.0375,28 28,28 Z" id="Path" fill="#101828" fill-rule="nonzero"></path>
                    <path d="M47.2325,21.0875 L47.215,36.75 L8.75,36.715 L8.785,17.5 L43.75,17.5 L44.6425,15.75 L8.785,15.75 C7.805,15.75 7,16.555 7,17.535 L7,36.715 C7,37.695 7.805,38.5 8.785,38.5 L47.215,38.5 C48.195,38.5 49,37.695 49,36.715 L49,18.69 L47.2325,21.0875 Z" id="Path" fill="#101828" fill-rule="nonzero"></path>
                    <rect id="Rectangle" x="0" y="0" width="56" height="56"></rect>
                </g>
            </g>
        </g>
    </g>
</svg>