<?xml version="1.0" encoding="UTF-8"?>
<svg width="80px" height="80px" viewBox="0 0 80 80" version="1.1" xmlns="http://www.w3.org/2000/svg" xmlns:xlink="http://www.w3.org/1999/xlink">
    <!-- Generator: Sketch 57.1 (83088) - https://sketch.com -->
    <title>056-W80px</title>
    <desc>Created with Sketch.</desc>
    <g id="NEW_icons" stroke="none" stroke-width="1" fill="none" fill-rule="evenodd">
        <g id="icons_UD_new-Copy" transform="translate(-869.000000, -7511.000000)">
            <g id="056-W80px" transform="translate(869.000000, 7511.000000)">
                <circle id="Oval-Copy-416" fill="#101828" cx="40" cy="40" r="40"></circle>
                <g id="056-B32px-Copy-8" transform="translate(12.000000, 12.000000)">
                    <path d="M31.5,31.185 L31.5,15.75 L22.75,15.75 L22.75,33.25 L19.25,33.25 L19.25,22.75 L10.5,22.75 L10.5,33.25 L7,33.25 L7,35 L10.5,35 L19.25,35 L22.75,35 L28.875,35 C29.4875,33.5475 30.38,32.2525 31.5,31.185 Z M17.5,33.25 L12.25,33.25 L12.25,24.5 L17.5,24.5 L17.5,33.25 Z M24.5,17.5 L29.75,17.5 L29.75,33.25 L24.5,33.25 L24.5,17.5 Z" id="Shape" fill="#FFFFFF" fill-rule="nonzero"></path>
                    <polygon id="Path" fill="#FFFFFF" fill-rule="nonzero" points="36.75 26.25 36.75 8.75 42 8.75 42 26.25 43.75 26.25 43.75 7 35 7 35 26.25"></polygon>
                    <path d="M39.375,31.5 C43.715,31.5 47.25,35.035 47.25,39.375 C47.25,43.715 43.715,47.25 39.375,47.25 C35.035,47.25 31.5,43.715 31.5,39.375 C31.5,35.035 35.035,31.5 39.375,31.5 L39.375,31.5 Z M39.375,29.75 C34.055,29.75 29.75,34.055 29.75,39.375 C29.75,44.695 34.055,49 39.375,49 C44.695,49 49,44.695 49,39.375 C49,34.055 44.695,29.75 39.375,29.75 L39.375,29.75 Z" id="Shape" fill="#FFFFFF" fill-rule="nonzero"></path>
                    <path d="M35.875,38.5 C35.385,38.5 35,38.885 35,39.375 C35,39.865 35.385,40.25 35.875,40.25 C36.365,40.25 36.75,39.865 36.75,39.375 C36.75,38.885 36.365,38.5 35.875,38.5 L35.875,38.5 Z" id="Path" fill="#FFFFFF" fill-rule="nonzero"></path>
                    <path d="M42.875,38.5 C42.385,38.5 42,38.885 42,39.375 C42,39.865 42.385,40.25 42.875,40.25 C43.365,40.25 43.75,39.865 43.75,39.375 C43.75,38.885 43.365,38.5 42.875,38.5 L42.875,38.5 Z" id="Path" fill="#FFFFFF" fill-rule="nonzero"></path>
                    <path d="M35.175,43.96 C37.6075,46.0075 41.16,46.0075 43.575,43.96 L42.525,42.56 C40.7225,44.1525 38.01,44.135 36.2075,42.56 L35.175,43.96 Z" id="Path" fill="#FFFFFF" fill-rule="nonzero"></path>
                    <path d="M40.25,31.5 L38.5,31.5 C38.5,29.995 39.41,27.125 42.875,27.125 L42.875,28.875 C40.4075,28.875 40.25,31.0625 40.25,31.5 Z" id="Path" fill="#FFFFFF" fill-rule="nonzero"></path>
                    <path d="M38.5,31.5 C38.5,31.0625 38.3425,28.875 35.875,28.875 L35.875,27.125 C39.34,27.125 40.25,29.995 40.25,31.5 L38.5,31.5 L39.375,31.5 L38.5,31.5 Z" id="Path" fill="#FFFFFF" fill-rule="nonzero"></path>
                    <polygon id="Path" fill="#FFFFFF" fill-rule="nonzero" points="47.25 36.75 39.0075 36.75 37.625 35.3675 36.2425 36.75 31.5 36.75 31.5 35 35.5075 35 37.625 32.8825 39.7425 35 47.25 35"></polygon>
                    <rect id="Rectangle" x="0" y="0" width="56" height="56"></rect>
                </g>
            </g>
        </g>
    </g>
</svg>