<?xml version="1.0" encoding="UTF-8"?>
<svg width="42px" height="42px" viewBox="0 0 42 42" version="1.1" xmlns="http://www.w3.org/2000/svg" xmlns:xlink="http://www.w3.org/1999/xlink">
    <!-- Generator: Sketch 56.3 (81716) - https://sketch.com -->
    <title>036-G40px</title>
    <desc>Created with Sketch.</desc>
    <g id="NEW_icons" stroke="none" stroke-width="1" fill="none" fill-rule="evenodd">
        <g id="icons_UD_new-Copy" transform="translate(-244.000000, -4882.000000)">
            <g id="036-G40px" transform="translate(245.000000, 4883.000000)">
                <circle id="Oval-Copy-312" stroke="#E3E8EC" cx="20" cy="20" r="20"></circle>
                <g id="036-B32px-Copy-4" transform="translate(4.000000, 4.000000)">
                    <g id="Group" transform="translate(4.000000, 5.000000)" fill="#101828">
                        <path d="M23,2 L13,2 L13,0 L0,2 L0,20 L13,22 L13,20 L23,20 C23.55,20 24,19.55 24,19 L24,3 C24,2.45 23.55,2 23,2 Z M7.68,14.79 L6.59,12.01 L5.42,14.64 L3.97,14.53 L5.63,10.88 L4.16,7.15 L5.64,7.08 L6.56,9.64 L7.74,6.91 L9.27,6.8 L7.53,10.86 L9.34,14.88 L7.68,14.79 Z M23,19 L13,19 L13,18 L16,18 L16,16 L13,16 L13,15 L16,15 L16,13 L13,13 L13,12 L16,12 L16,10 L13,10 L13,9 L16,9 L16,7 L13,7 L13,6 L16,6 L16,4 L13,4 L13,3 L23,3 L23,19 Z" id="Shape"></path>
                        <rect id="Rectangle" x="17" y="4" width="4" height="2"></rect>
                        <rect id="Rectangle" x="17" y="7" width="4" height="2"></rect>
                        <rect id="Rectangle" x="17" y="10" width="4" height="2"></rect>
                        <rect id="Rectangle" x="17" y="13" width="4" height="2"></rect>
                        <rect id="Rectangle" x="17" y="16" width="4" height="2"></rect>
                    </g>
                    <rect id="Rectangle" x="0" y="0" width="32" height="32"></rect>
                </g>
            </g>
        </g>
    </g>
</svg>