<?xml version="1.0" encoding="UTF-8"?>
<svg width="80px" height="80px" viewBox="0 0 80 80" version="1.1" xmlns="http://www.w3.org/2000/svg" xmlns:xlink="http://www.w3.org/1999/xlink">
    <!-- Generator: Sketch 57.1 (83088) - https://sketch.com -->
    <title>214-C80px</title>
    <desc>Created with Sketch.</desc>
    <g id="NEW_icons" stroke="none" stroke-width="1" fill="none" fill-rule="evenodd">
        <g id="icons_UD_new-Copy" transform="translate(-1011.000000, -27347.000000)">
            <g id="214-C80px" transform="translate(1011.000000, 27347.000000)">
                <circle id="Oval-Copy-1312" fill="#FF4F12" cx="40" cy="40" r="40"></circle>
                <g id="214-B32px-Copy-9" transform="translate(12.000000, 12.000000)">
                    <path d="M16.6075,26.2675 C17.08,26.2675 17.465,26.6525 17.465,27.125 C17.465,27.5975 17.08,27.9825 16.6075,27.9825 C16.135,27.9825 15.75,27.5975 15.75,27.125 C15.75,26.6525 16.135,26.2675 16.6075,26.2675 L16.6075,26.2675 Z M16.6075,24.5175 C15.1725,24.5175 14,25.69 14,27.125 C14,28.56 15.1725,29.7325 16.6075,29.7325 C18.0425,29.7325 19.215,28.56 19.215,27.125 C19.215,25.69 18.0425,24.5175 16.6075,24.5175 L16.6075,24.5175 Z" id="Shape" fill="#FFFFFF" fill-rule="nonzero"></path>
                    <path d="M39.3575,21 C39.83,21 40.215,21.385 40.215,21.8575 C40.215,22.33 39.83,22.715 39.3575,22.715 C38.885,22.715 38.5,22.3475 38.5,21.875 C38.5,21.4025 38.885,21 39.3575,21 L39.3575,21 Z M39.3575,19.25 C37.9225,19.25 36.75,20.4225 36.75,21.875 C36.75,23.3275 37.9225,24.4825 39.3575,24.4825 C40.7925,24.4825 41.965,23.31 41.965,21.875 C41.965,20.44 40.7925,19.25 39.3575,19.25 L39.3575,19.25 Z" id="Shape" fill="#FFFFFF" fill-rule="nonzero"></path>
                    <path d="M37.17,21.98 L29.3825,25.9 L27.6325,20.65 L18.06,25.48 C18.48,25.8825 18.76,26.4425 18.83,27.055 L26.6175,23.1175 L28.3675,28.3675 L37.94,23.555 C37.52,23.135 37.24,22.5925 37.17,21.98 Z" id="Path" fill="#FFFFFF" fill-rule="nonzero"></path>
                    <path d="M47.2675,12.25 L8.7325,12.25 C7.77,12.25 7,13.02 7,13.9825 L7,33.25 L8.7325,33.25 L8.7325,14 L47.25,14 L47.2675,36.75 L17.9725,36.75 C17.29,36.75 16.6075,36.96 16.0475,37.345 L9.905,41.4575 L7,43.4175 L7,45.5 L17.01,38.7975 C17.3075,38.605 17.64,38.5 17.9725,38.5 L47.2675,38.5 C48.2125,38.5 49,37.73 49,36.7675 L49,13.9825 C49,13.02 48.23,12.25 47.2675,12.25 Z" id="Path" fill="#FFFFFF" fill-rule="nonzero"></path>
                    <rect id="Rectangle" x="0" y="0" width="56" height="56"></rect>
                </g>
            </g>
        </g>
    </g>
</svg>