<?xml version="1.0" encoding="UTF-8"?>
<svg width="80px" height="80px" viewBox="0 0 80 80" version="1.1" xmlns="http://www.w3.org/2000/svg" xmlns:xlink="http://www.w3.org/1999/xlink">
    <!-- Generator: Sketch 57.1 (83088) - https://sketch.com -->
    <title>206-B80px</title>
    <desc>Created with Sketch.</desc>
    <g id="206-B80px" stroke="none" stroke-width="1" fill="none" fill-rule="evenodd">
        <g>
            <g id="Group" transform="translate(10.000000, 22.500000)" fill="#101828" fill-rule="nonzero">
                <path d="M57.45,0 L43.15,0 L41.325,2.5 L57.45,2.5 L57.5,2.55 L57.45,30.025 L2.5,29.975 L2.55,2.5 L18.675,2.5 L16.85,0 L2.55,0 C1.15,0 0,1.15 0,2.55 L0,29.975 C0,31.375 1.15,32.525 2.55,32.525 L57.45,32.525 C58.85,32.525 60,31.375 60,29.975 L60,2.55 C60,1.15 58.85,0 57.45,0 Z" id="Path"></path>
                <polygon id="Path" points="27.975 2.5 32.025 2.5 33.875 0 26.15 0"></polygon>
            </g>
            <path d="M60,39.975 L48.95,39.975 L50.775,42.475 L60,42.475 L60,44.975 L49.4,44.825 L47.675,42.475 L47.7,42.475 L46.025,40.2 L46.025,40.225 L31.225,20 L28.125,20 L47.3,46.175 C47.75,46.975 48.6,47.475 49.5,47.475 L60,47.475 C61.375,47.475 62.5,46.35 62.5,44.975 L62.5,42.475 C62.5,41.1 61.375,39.975 60,39.975 Z" id="Path" fill="#101828" fill-rule="nonzero"></path>
            <path d="M39.95,54.85 C29.175,54.85 21.1,56.5 17.5,57.4 L17.5,59.975 C20.6,59.175 28.85,57.35 39.95,57.35 C51.15,57.35 59.475,59.2 62.5,60 L62.5,57.425 C58.925,56.525 50.825,54.85 39.95,54.85 Z" id="Path" fill="#101828" fill-rule="nonzero"></path>
            <polygon id="Path" fill="#101828" fill-rule="nonzero" points="43.1 32 51.9 20.025 48.775 20.025 41.55 29.875"></polygon>
            <path d="M36.975,36.15 L33.975,40.25 L33.975,40.225 L32.3,42.5 L32.325,42.5 L30.5,45 L20,45 L20,42.5 L29.2,42.5 L31.025,40 L20,40 C18.625,40 17.5,41.125 17.5,42.5 L17.5,45 C17.5,46.375 18.625,47.5 20,47.5 L30.5,47.5 C31.425,47.5 32.275,47 32.625,46.325 L38.525,38.275 L36.975,36.15 Z" id="Path" fill="#101828" fill-rule="nonzero"></path>
            <rect id="Rectangle" x="0" y="0" width="80" height="80"></rect>
        </g>
    </g>
</svg>