<?xml version="1.0" encoding="UTF-8"?>
<svg width="32px" height="32px" viewBox="0 0 32 32" version="1.1" xmlns="http://www.w3.org/2000/svg" xmlns:xlink="http://www.w3.org/1999/xlink">
    <!-- Generator: Sketch 57.1 (83088) - https://sketch.com -->
    <title>012-B32px</title>
    <desc>Created with Sketch.</desc>
    <g id="012-B32px" stroke="none" stroke-width="1" fill="none" fill-rule="evenodd">
        <g>
            <g id="Group-29-Copy-2_1_" transform="translate(5.000000, 4.000000)" fill="#101828" fill-rule="nonzero">
                <g id="Stroke-310_1_" transform="translate(11.000000, 0.000000)">
                    <path d="M3.29,6.19 C2.43,6.19 1.62,5.84 1.02,5.2 C0.36,4.47 0.08,3.49 0.26,2.5 C0.49,1.28 1.47,0.3 2.69,0.06 C3.71,-0.14 4.75,0.18 5.48,0.91 C6.21,1.64 6.52,2.68 6.33,3.7 L6.33,3.7 C6.08,5.01 4.98,6.02 3.64,6.17 C3.53,6.18 3.41,6.19 3.29,6.19 Z M3.3,1.01 C3.16,1.01 3.02,1.02 2.88,1.05 C2.07,1.2 1.4,1.88 1.25,2.69 C1.12,3.36 1.31,4.03 1.76,4.52 C2.22,5.01 2.86,5.25 3.53,5.18 C4.42,5.08 5.18,4.38 5.34,3.52 L5.34,3.52 C5.47,2.81 5.27,2.12 4.77,1.63 C4.38,1.22 3.85,1.01 3.3,1.01 Z" id="Shape"></path>
                </g>
                <g id="Stroke-312_2_" transform="translate(0.000000, 5.000000)">
                    <path d="M15.37,18.99 C14.97,18.99 14.58,18.86 14.25,18.62 C13.84,18.32 13.57,17.87 13.49,17.36 L12.66,11.93 L9.77,9.66 L8.84,13.39 C8.63,14.23 7.88,14.81 7.02,14.81 L1.7,14.81 C1.07,14.81 0.52,14.48 0.22,13.93 C-0.08,13.38 -0.06,12.73 0.28,12.21 C0.64,11.66 1.24,11.32 1.9,11.32 L5.61,11.32 C5.58,10.78 5.51,8.53 6.45,6.88 L8.87,3.12 L8.03,3.12 C7.48,3.12 6.97,3.4 6.67,3.87 L5.43,5.8 C5.15,6.24 4.66,6.51 4.13,6.51 C3.54,6.51 3.02,6.2 2.73,5.69 C2.44,5.18 2.46,4.57 2.77,4.07 L3.87,2.29 C4.68,0.97 6.1,0.19 7.64,0.19 L13.58,0.19 C14.27,0.19 14.9,0.59 15.2,1.21 L16.42,3.74 C16.54,3.96 16.76,4.1 17,4.1 L20.04,4.1 C20.43,4.1 20.79,4.25 21.06,4.53 C21.33,4.81 21.48,5.17 21.48,5.56 C21.47,6.35 20.82,6.99 20.04,6.99 L16.33,6.99 C15.43,6.99 14.59,6.5 14.14,5.72 L13.84,5.21 L12.87,7.23 L15.39,9.63 C15.91,10.12 16.24,10.78 16.34,11.49 L17.24,16.78 C17.32,17.28 17.2,17.79 16.91,18.2 C16.62,18.61 16.17,18.89 15.67,18.97 C15.57,18.98 15.47,18.99 15.37,18.99 Z M13.64,11.72 L14.48,17.22 C14.52,17.46 14.64,17.67 14.84,17.82 C15.03,17.96 15.27,18.02 15.51,17.98 C15.75,17.94 15.96,17.81 16.1,17.62 C16.24,17.42 16.3,17.19 16.26,16.95 L15.36,11.65 C15.29,11.15 15.06,10.7 14.71,10.36 L11.92,7.7 C11.76,7.55 11.72,7.32 11.81,7.12 L13.34,3.93 C13.42,3.76 13.58,3.66 13.77,3.65 C13.96,3.64 14.13,3.74 14.23,3.9 L15.01,5.21 C15.28,5.69 15.79,5.99 16.33,5.99 L20.04,5.99 C20.28,5.99 20.48,5.79 20.48,5.55 C20.48,5.43 20.44,5.32 20.35,5.23 C20.27,5.15 20.15,5.1 20.04,5.1 L17,5.1 C16.38,5.1 15.8,4.74 15.53,4.18 L14.31,1.64 C14.18,1.37 13.9,1.19 13.59,1.19 L7.65,1.19 C6.45,1.19 5.36,1.8 4.73,2.82 L3.63,4.6 C3.51,4.79 3.5,5.01 3.61,5.21 C3.81,5.56 4.37,5.61 4.59,5.27 L5.83,3.33 C6.31,2.57 7.14,2.12 8.03,2.12 L9.79,2.12 C9.97,2.12 10.14,2.22 10.23,2.38 C10.32,2.54 10.31,2.74 10.21,2.89 L7.31,7.39 C6.42,8.95 6.62,11.37 6.62,11.4 C6.61,11.94 6.23,12.31 5.74,12.31 L1.9,12.31 C1.58,12.31 1.29,12.47 1.12,12.74 C0.98,12.96 0.97,13.22 1.1,13.45 C1.22,13.67 1.45,13.81 1.71,13.81 L7.03,13.81 C7.43,13.81 7.78,13.54 7.88,13.15 L8.87,9.19 C8.96,8.82 9.26,8.57 9.64,8.53 C9.97,8.5 10.27,8.65 10.45,8.91 L13.35,11.2 C13.5,11.33 13.61,11.51 13.64,11.72 Z" id="Shape"></path>
                </g>
            </g>
            <rect id="Rectangle" x="0" y="0" width="32" height="32"></rect>
        </g>
    </g>
</svg>