<?xml version="1.0" encoding="UTF-8"?>
<svg width="40px" height="40px" viewBox="0 0 40 40" version="1.1" xmlns="http://www.w3.org/2000/svg" xmlns:xlink="http://www.w3.org/1999/xlink">
    <!-- Generator: Sketch 58 (84663) - https://sketch.com -->
    <title>255-B40px</title>
    <desc>Created with Sketch.</desc>
    <g id="255-B40px" stroke="none" stroke-width="1" fill="none" fill-rule="evenodd">
        <g id="255-B32px">
            <g>
                <path d="M22.5,28.15 C17.35,26.325 12.9125,21.8 12.8625,21.75 C12.8,21.675 6.9625,15.575 6.25,9.5625 C6.25,9.525 6.25,9.4625 6.2875,9.425 L9.5625,6.2625 C9.5875,6.2375 9.6125,6.225 9.65,6.225 C9.6875,6.225 9.7125,6.25 9.7125,6.25 L14.65,11.35 C14.6875,11.3875 14.675,11.4625 14.6375,11.5 L12.45,13.6125 L11.85,14.2 L12.1625,14.975 C12.2125,15.1 13.375,17.9375 15.0375,19.65 C16.7,21.3625 19.5,22.625 19.625,22.675 L20.4,23.0125 L21,22.425 L23.1875,20.3125 C23.2125,20.2875 23.2375,20.275 23.275,20.275 C23.3125,20.275 23.3375,20.3 23.3375,20.3 L25.45,22.4875 L27.1875,22.4875 L24.225,19.4375 C23.9625,19.1625 23.6125,19.025 23.2625,19.025 C22.925,19.025 22.575,19.15 22.3125,19.4125 L20.125,21.525 C20.125,21.525 17.45,20.3375 15.9375,18.775 C14.425,17.2125 13.325,14.5 13.325,14.5 L15.5125,12.3875 C16.05,11.8625 16.075,11.0125 15.55,10.475 L10.6,5.375 C10.3375,5.1125 9.9875,4.975 9.6375,4.975 C9.3,4.975 8.95,5.1 8.6875,5.3625 L5.4125,8.525 C5.1,8.8375 4.9625,9.2625 5.0125,9.7 C5.7875,16.225 11.9625,22.6 11.9625,22.6 C11.9625,22.6 16.8125,27.6 22.5,29.45 L22.5,28.15 Z" id="Path" fill="#101828" fill-rule="nonzero"></path>
                <path d="M32.6375,31.925 L31.25,32.8 L31.25,31.0625 L32.6375,31.925 L32.6375,31.925 Z M35,31.925 L30,28.8125 L30.0125,35.0625 L35,31.925 L35,31.925 Z" id="Shape" fill="#101828" fill-rule="nonzero"></path>
                <polygon id="Rectangle" fill="#101828" fill-rule="nonzero" transform="translate(27.506275, 31.862614) rotate(-0.111984) translate(-27.506275, -31.862614) " points="23.7625177 31.2376132 31.250032 31.2376132 31.250032 32.4876156 23.7625177 32.4876156"></polygon>
                <path d="M32.6375,24.425 L31.25,25.3 L31.25,23.5625 L32.6375,24.425 L32.6375,24.425 Z M35,24.425 L30,21.3125 L30.0125,27.5625 L35,24.425 L35,24.425 Z" id="Shape" fill="#101828" fill-rule="nonzero"></path>
                <polygon id="Rectangle" fill="#101828" fill-rule="nonzero" transform="translate(27.506293, 24.362573) rotate(-0.111811) translate(-27.506293, -24.362573) " points="23.7625354 23.7375713 31.2500497 23.7375713 31.2500497 24.9875737 23.7625354 24.9875737"></polygon>
                <rect id="Rectangle" x="0" y="0" width="40" height="40"></rect>
            </g>
        </g>
    </g>
</svg>