<?xml version="1.0" encoding="UTF-8"?>
<svg width="80px" height="80px" viewBox="0 0 80 80" version="1.1" xmlns="http://www.w3.org/2000/svg" xmlns:xlink="http://www.w3.org/1999/xlink">
    <!-- Generator: Sketch 57.1 (83088) - https://sketch.com -->
    <title>180-B80px</title>
    <desc>Created with Sketch.</desc>
    <g id="180-B80px" stroke="none" stroke-width="1" fill="none" fill-rule="evenodd">
        <g>
            <path d="M65,42.5 L65,50 L60,50 L60,42.5 L65,42.5 L65,42.5 Z M67.5,40 L57.5,40 L57.5,52.5 L65.1,52.5 C66.425,52.5 67.5,51.425 67.5,50.1 L67.5,40 L67.5,40 Z" id="Shape" fill="#101828" fill-rule="nonzero"></path>
            <path d="M65,32.5 L65,40 L60,40 L60,32.5 L65,32.5 L65,32.5 Z M67.5,30 L57.5,30 L57.5,42.5 L65.1,42.5 C66.425,42.5 67.5,41.425 67.5,40.1 L67.5,30 L67.5,30 Z" id="Shape" fill="#101828" fill-rule="nonzero"></path>
            <path d="M65,22.5 L65,30 L60,30 L60,22.5 L65,22.5 L65,22.5 Z M67.5,20 L57.5,20 L57.5,32.5 L65.1,32.5 C66.425,32.5 67.5,31.425 67.5,30.1 L67.5,20 L67.5,20 Z" id="Shape" fill="#101828" fill-rule="nonzero"></path>
            <path d="M65,12.5 L65.05,20 L60,20 L60,12.5 L65,12.5 L65,12.5 Z M65.1,10 L57.5,10 L57.5,22.5 L65.05,22.5 C66.4,22.5 67.5,21.4 67.5,20.05 L67.5,12.4 C67.5,11.075 66.425,10 65.1,10 L65.1,10 Z" id="Shape" fill="#101828" fill-rule="nonzero"></path>
            <path d="M57.5,12.5 L57.5,67.5 L15,67.5 L15,12.5 L57.5,12.5 L57.5,12.5 Z M60,10 L15,10 C13.625,10 12.5,11.125 12.5,12.5 L12.5,67.5 C12.5,68.875 13.625,70 15,70 L57.5,70 C58.875,70 60,68.875 60,67.5 L60,10 L60,10 Z" id="Shape" fill="#101828" fill-rule="nonzero"></path>
            <path d="M23.75,42.5 C21.675,42.5 20,40.825 20,38.75 C20,36.675 21.675,35 23.75,35 C25.825,35 27.5,36.675 27.5,38.75 C27.5,40.825 25.825,42.5 23.75,42.5 Z M23.75,37.5 C23.05,37.5 22.5,38.05 22.5,38.75 C22.5,39.45 23.05,40 23.75,40 C24.45,40 25,39.45 25,38.75 C25,38.05 24.45,37.5 23.75,37.5 Z" id="Shape" fill="#101828" fill-rule="nonzero"></path>
            <path d="M23.75,37.5 C21.675,37.5 20,35.825 20,33.75 C20,31.675 21.675,30 23.75,30 C25.825,30 27.5,31.675 27.5,33.75 C27.5,35.825 25.825,37.5 23.75,37.5 Z M23.75,32.5 C23.05,32.5 22.5,33.05 22.5,33.75 C22.5,34.45 23.05,35 23.75,35 C24.45,35 25,34.45 25,33.75 C25,33.05 24.45,32.5 23.75,32.5 Z" id="Shape" fill="#101828" fill-rule="nonzero"></path>
            <path d="M35,32.5 C36.375,32.5 37.5,33.625 37.5,35 L37.5,37.5 C37.5,38.875 36.375,40 35,40 C33.625,40 32.5,38.875 32.5,37.5 L32.5,35 C32.5,33.625 33.625,32.5 35,32.5 L35,32.5 Z M35,30 C32.25,30 30,32.25 30,35 L30,37.5 C30,40.25 32.25,42.5 35,42.5 C37.75,42.5 40,40.25 40,37.5 L40,35 C40,32.25 37.75,30 35,30 L35,30 Z" id="Shape" fill="#101828" fill-rule="nonzero"></path>
            <path d="M47.5,32.5 C48.875,32.5 50,33.625 50,35 L50,37.5 C50,38.875 48.875,40 47.5,40 C46.125,40 45,38.875 45,37.5 L45,35 C45,33.625 46.125,32.5 47.5,32.5 L47.5,32.5 Z M47.5,30 C44.75,30 42.5,32.25 42.5,35 L42.5,37.5 C42.5,40.25 44.75,42.5 47.5,42.5 C50.25,42.5 52.5,40.25 52.5,37.5 L52.5,35 C52.5,32.25 50.25,30 47.5,30 L47.5,30 Z" id="Shape" fill="#101828" fill-rule="nonzero"></path>
            <rect id="Rectangle" x="0" y="0" width="80" height="80"></rect>
        </g>
    </g>
</svg>