<?xml version="1.0" encoding="UTF-8"?>
<svg width="40px" height="40px" viewBox="0 0 40 40" version="1.1" xmlns="http://www.w3.org/2000/svg" xmlns:xlink="http://www.w3.org/1999/xlink">
    <!-- Generator: Sketch 57.1 (83088) - https://sketch.com -->
    <title>245-B40px</title>
    <desc>Created with Sketch.</desc>
    <g id="245-B40px" stroke="none" stroke-width="1" fill="none" fill-rule="evenodd">
        <g>
            <path d="M30,35.3125 L10,35.3125 C8.9625,35.3125 8.125,34.475 8.125,33.4375 L8.125,30.3125 L11.875,30.3125 L11.875,31.5625 L13.125,31.5625 L13.125,30.3125 L16.875,30.3125 L16.875,31.5625 L18.125,31.5625 L18.125,30.3125 L21.875,30.3125 L21.875,31.5625 L23.125,31.5625 L23.125,30.3125 L26.875,30.3125 L26.875,31.5625 L28.125,31.5625 L28.125,30.3125 L31.875,30.3125 L31.875,33.4375 C31.875,34.475 31.0375,35.3125 30,35.3125 Z M9.375,31.5625 L9.375,33.4375 C9.375,33.7875 9.65,34.0625 10,34.0625 L30,34.0625 C30.35,34.0625 30.625,33.7875 30.625,33.4375 L30.625,31.5625 L29.375,31.5625 L29.375,32.8125 L25.625,32.8125 L25.625,31.5625 L24.375,31.5625 L24.375,32.8125 L20.625,32.8125 L20.625,31.5625 L19.375,31.5625 L19.375,32.8125 L15.625,32.8125 L15.625,31.5625 L14.375,31.5625 L14.375,32.8125 L10.625,32.8125 L10.625,31.5625 L9.375,31.5625 Z" id="Shape" fill="#101828" fill-rule="nonzero"></path>
            <path d="M17.2,6.8125 C18.6875,7.2375 21.325,8.2875 22.8625,10.55 L24.575,13.0625 L25.05,10.4875 C26.7375,12.175 28.9125,15.1625 28.7875,19.275 C28.675,22.6625 27.2625,25.0125 25.8625,26.525 C26.2125,23.45 25.9,18.65 21.9875,14.1875 L20.0375,11.9625 L19.8,14.9125 C19.8,14.925 19.7125,15.9375 19.425,17.2125 C19.3875,17.15 19.35,17.0875 19.325,17.025 L17.2875,13.5375 L17,17.5625 C16.95,18.25 16.6625,20.275 15.875,21.3875 L15.675,21.6625 C15.025,22.55 14.15,23.775 14.175,26.0375 C14.175,26.1875 14.1875,26.3375 14.1875,26.4875 C12.7625,25.125 11.8875,23.725 11.5125,22.2375 C10.7875,19.375 11.9875,17.35 13.6375,14.55 C14.825,12.5375 16.2625,10.0875 17.2,6.8125 L17.2,6.8125 Z M16.2875,5.3125 C14.35,13.775 8.7875,16.5625 10.3,22.5375 C11.025,25.4 13.1875,27.475 15.2375,28.975 C15.3125,29.0375 15.4,29.0625 15.4875,29.0625 C15.775,29.0625 16.025,28.7375 15.875,28.3875 C15.625,27.7625 15.4375,26.975 15.425,26.0125 C15.4,23.95 16.2625,23 16.8875,22.1125 C18.0375,20.4625 18.2375,17.6625 18.2375,17.6625 C18.925,18.825 18.9625,20.025 18.8625,20.9 C18.8375,21.0875 18.975,21.2125 19.1125,21.2125 C19.1875,21.2125 19.2625,21.175 19.3125,21.0875 C20.7625,18.575 21.05,15.025 21.05,15.025 C25.6375,20.2625 24.9,25.9125 24.25,28.4125 C24.1625,28.775 24.425,29.075 24.725,29.075 C24.8125,29.075 24.9125,29.05 24.9875,28.9875 C26.7375,27.7 29.8625,24.6625 30.0375,19.325 C30.275,11.8875 23.8,7.8375 23.8,7.8375 C24.0625,9.025 23.9,9.8625 23.9,9.8625 C21.35,6.1 16.2875,5.3125 16.2875,5.3125 L16.2875,5.3125 Z" id="Shape" fill="#101828" fill-rule="nonzero"></path>
            <rect id="Rectangle" x="0" y="0" width="40" height="40"></rect>
        </g>
    </g>
</svg>