<?xml version="1.0" encoding="UTF-8"?>
<svg width="80px" height="80px" viewBox="0 0 80 80" version="1.1" xmlns="http://www.w3.org/2000/svg" xmlns:xlink="http://www.w3.org/1999/xlink">
    <!-- Generator: Sketch 57.1 (83088) - https://sketch.com -->
    <title>161-G80px</title>
    <desc>Created with Sketch.</desc>
    <g id="NEW_icons" stroke="none" stroke-width="1" fill="none" fill-rule="evenodd">
        <g id="icons_UD_new-Copy" transform="translate(-2050.000000, -20561.000000)">
            <g id="161-G80px" transform="translate(2050.000000, 20561.000000)">
                <circle id="Oval-Copy-996" fill="#E3E8EC" cx="40" cy="40" r="40"></circle>
                <g id="161-B32px-Copy-6" transform="translate(12.000000, 12.000000)">
                    <path d="M47.2675,15.75 L38.0975,15.75 C38.4825,16.2925 38.815,16.8875 39.1125,17.5 L47.2675,17.5 L47.3025,17.535 L47.2675,36.785 L8.82,36.75 L8.855,17.5 L17.01,17.5 C17.3075,16.8875 17.64,16.2925 18.025,15.75 L8.855,15.75 C7.875,15.75 7.07,16.555 7.07,17.535 L7.07,36.75 C7.07,37.73 7.875,38.535 8.855,38.535 L47.285,38.535 C48.265,38.535 49.07,37.73 49.07,36.75 L49.07,17.535 C49.0525,16.5375 48.265,15.75 47.2675,15.75 Z" id="Path" fill="#101828" fill-rule="nonzero"></path>
                    <rect id="Rectangle" fill="#101828" fill-rule="nonzero" x="27.195" y="14" width="1.75" height="18.1475"></rect>
                    <path d="M28.07,14 C32.9,14 36.82,17.92 36.82,22.75 C36.82,27.58 32.9,31.5 28.07,31.5 C23.24,31.5 19.32,27.58 19.32,22.75 C19.32,17.92 23.24,14 28.07,14 L28.07,14 Z M28.07,12.25 C22.2775,12.25 17.57,16.9575 17.57,22.75 C17.57,28.5425 22.2775,33.25 28.07,33.25 C33.8625,33.25 38.57,28.5425 38.57,22.75 C38.57,16.9575 33.8625,12.25 28.07,12.25 L28.07,12.25 Z" id="Shape" fill="#101828" fill-rule="nonzero"></path>
                    <path d="M28.0525,14 C30.1,14 32.3925,17.5875 32.3925,22.75 C32.3925,27.9125 30.1,31.5 28.0525,31.5 C26.005,31.5 23.7125,27.9125 23.7125,22.75 C23.7125,17.5875 25.9875,14 28.0525,14 L28.0525,14 Z M28.0525,12.25 C24.6925,12.25 21.9625,16.9575 21.9625,22.75 C21.9625,28.5425 24.6925,33.25 28.0525,33.25 C31.4125,33.25 34.1425,28.5425 34.1425,22.75 C34.1425,16.9575 31.4125,12.25 28.0525,12.25 L28.0525,12.25 Z" id="Shape" fill="#101828" fill-rule="nonzero"></path>
                    <rect id="Rectangle" fill="#101828" fill-rule="nonzero" x="19.215" y="26.3025" width="17.6925" height="1.75"></rect>
                    <rect id="Rectangle" fill="#101828" fill-rule="nonzero" x="19.215" y="17.4475" width="17.6925" height="1.75"></rect>
                    <rect id="Rectangle" fill="#101828" fill-rule="nonzero" x="18.1125" y="21.875" width="19.8975" height="1.75"></rect>
                    <path d="M28.035,38.4125 C20.4925,38.4125 14.84,39.5675 12.32,40.1975 L12.32,42 C14.49,41.44 20.265,40.1625 28.035,40.1625 C35.875,40.1625 41.7025,41.4575 43.82,42.0175 L43.82,40.215 C41.3175,39.5675 35.63,38.4125 28.035,38.4125 Z" id="Path" fill="#101828" fill-rule="nonzero"></path>
                    <rect id="Rectangle" x="0" y="0" width="56" height="56"></rect>
                </g>
            </g>
        </g>
    </g>
</svg>