<?xml version="1.0" encoding="UTF-8"?>
<svg width="40px" height="40px" viewBox="0 0 40 40" version="1.1" xmlns="http://www.w3.org/2000/svg" xmlns:xlink="http://www.w3.org/1999/xlink">
    <!-- Generator: Sketch 57.1 (83088) - https://sketch.com -->
    <title>211-B40px</title>
    <desc>Created with Sketch.</desc>
    <g id="211-B40px" stroke="none" stroke-width="1" fill="none" fill-rule="evenodd">
        <g>
            <path d="M21.875,16.25 C21.525,16.25 21.25,16.525 21.25,16.875 C21.25,17.225 21.525,17.5 21.875,17.5 C22.225,17.5 22.5,17.225 22.5,16.875 C22.5,16.525 22.225,16.25 21.875,16.25 L21.875,16.25 Z" id="Path" fill="#101828" fill-rule="nonzero"></path>
            <path d="M18.125,16.25 C17.775,16.25 17.5,16.525 17.5,16.875 C17.5,17.225 17.775,17.5 18.125,17.5 C18.475,17.5 18.75,17.225 18.75,16.875 C18.75,16.525 18.475,16.25 18.125,16.25 L18.125,16.25 Z" id="Path" fill="#101828" fill-rule="nonzero"></path>
            <path d="M14.375,16.25 C14.025,16.25 13.75,16.525 13.75,16.875 C13.75,17.225 14.025,17.5 14.375,17.5 C14.725,17.5 15,17.225 15,16.875 C15,16.525 14.725,16.25 14.375,16.25 L14.375,16.25 Z" id="Path" fill="#101828" fill-rule="nonzero"></path>
            <g id="Group" transform="translate(27.500000, 20.000000)" fill="#101828" fill-rule="nonzero">
                <polygon id="Rectangle" transform="translate(1.699242, 5.780227) rotate(-45.000000) translate(-1.699242, -5.780227) " points="1.07424787 4.02399372 2.32423588 4.02399372 2.32423588 7.53646003 1.07424787 7.53646003"></polygon>
                <rect id="Rectangle" x="0" y="1.2375" width="1.25" height="3.75"></rect>
            </g>
            <g id="Group" transform="translate(5.000000, 8.750000)" fill="#101828" fill-rule="nonzero">
                <path d="M15.0375,15.0125 L7.8375,15.0125 C7.35,15.0125 6.8625,15.1625 6.4625,15.4375 L0,19.7375 L0,19.7375 L0.0125,21.25 L7.15,16.4625 C7.35,16.325 7.5875,16.25 7.8375,16.25 L15.0375,16.25 C15.025,16.0375 15,15.825 15,15.6125 C15.0125,15.425 15.025,15.2125 15.0375,15.0125 Z" id="Path"></path>
                <path d="M25.0125,0 L15.0375,0 C15.0375,0 15.0375,0 15.0375,0 L1.2375,0 C0.5625,0 0.0125,0.55 0.0125,1.2375 L0.0125,12.5 L1.25,12.5 L1.2375,1.25 L9.3,1.25 C9.3,1.25 9.3,1.25 9.3,1.25 L25,1.25 L25.0125,7.725 C25.4375,7.825 25.85,7.95 26.25,8.125 L26.25,1.2375 C26.25,0.5625 25.7,0 25.0125,0 Z" id="Path"></path>
            </g>
            <path d="M28.125,18.75 C31.225,18.75 33.75,21.275 33.75,24.375 C33.75,27.475 31.225,30 28.125,30 C25.025,30 22.5,27.475 22.5,24.375 C22.5,21.275 25.025,18.75 28.125,18.75 L28.125,18.75 Z M28.125,17.5 C24.325,17.5 21.25,20.575 21.25,24.375 C21.25,28.175 24.325,31.25 28.125,31.25 C31.925,31.25 35,28.175 35,24.375 C35,20.575 31.925,17.5 28.125,17.5 L28.125,17.5 Z" id="Shape" fill="#101828" fill-rule="nonzero"></path>
            <rect id="Rectangle" x="0" y="0" width="40" height="40"></rect>
        </g>
    </g>
</svg>