<?xml version="1.0" encoding="UTF-8"?>
<svg width="40px" height="40px" viewBox="0 0 40 40" version="1.1" xmlns="http://www.w3.org/2000/svg" xmlns:xlink="http://www.w3.org/1999/xlink">
    <!-- Generator: Sketch 57.1 (83088) - https://sketch.com -->
    <title>156-B40px</title>
    <desc>Created with Sketch.</desc>
    <g id="156-B40px" stroke="none" stroke-width="1" fill="none" fill-rule="evenodd">
        <g>
            <path d="M33.725,11.25 L18.575,11.25 C18.675,11.6625 18.75,12.075 18.75,12.5 L33.725,12.5 L33.75,12.525 L33.725,26.275 L6.25,26.25 L6.275,12.5 L8.75,12.5 C8.75,12.075 8.825,11.6625 8.925,11.25 L6.275,11.25 C5.575,11.25 5,11.8125 5,12.525 L5,26.25 C5,26.95 5.575,27.525 6.275,27.525 L33.725,27.525 C34.425,27.525 35,26.95 35,26.25 L35,12.525 C35,11.8125 34.425,11.25 33.725,11.25 Z" id="Path" fill="#101828" fill-rule="nonzero"></path>
            <path d="M13.75,10 C14.4125,10 15.05,10.2625 15.5125,10.7375 C15.975,11.2125 16.25,11.8375 16.25,12.5 C16.25,13.1625 15.9875,13.8 15.5125,14.2625 C15.05,14.7375 14.4125,15 13.75,15 C13.0875,15 12.45,14.7375 11.9875,14.2625 C11.0125,13.2875 11.0125,11.7 11.9875,10.725 C12.45,10.2625 13.0875,10 13.75,10 L13.75,10 Z M13.75,8.75 C12.7875,8.75 11.825,9.1125 11.1,9.85 C9.6375,11.3125 9.6375,13.6875 11.1,15.15 C11.825,15.8875 12.7875,16.25 13.75,16.25 C14.7125,16.25 15.675,15.8875 16.4,15.15 C17.8625,13.6875 17.8625,11.3125 16.4,9.85 C15.675,9.1125 14.7125,8.75 13.75,8.75 L13.75,8.75 Z" id="Shape" fill="#101828" fill-rule="nonzero"></path>
            <polygon id="Path" fill="#101828" fill-rule="nonzero" points="19.925 21.2625 13.6375 16.0625 14.425 15.1 19.8375 19.575 20.6375 18.775 16.2 13.325 17.175 12.5375 22.325 18.8625"></polygon>
            <path d="M24.35,22.675 C24.3375,22.675 24.3375,22.675 24.325,22.675 C22.8625,22.6625 21.8,21.6 21.7625,21.55 L20.275,20.0625 L21.1625,19.175 L22.65,20.6625 C22.6625,20.675 23.4,21.4125 24.35,21.4125 C24.35,21.4125 24.35,21.4125 24.35,21.4125 C24.8875,21.4125 25.425,21.1625 25.9125,20.6625 C27.8875,18.6875 29.9,19.35 30.675,19.975 L29.9,20.95 C29.7625,20.8375 28.425,19.9125 26.8,21.5375 C26.05,22.3 25.225,22.675 24.35,22.675 Z" id="Path" fill="#101828" fill-rule="nonzero"></path>
            <path d="M19.975,27.4375 C14.5875,27.4375 10.55,28.2625 8.75,28.7125 L8.75,30 C10.2875,29.6 14.425,28.6875 19.975,28.6875 C25.575,28.6875 29.7375,29.6125 31.25,30.0125 L31.25,28.725 C29.4625,28.2625 25.4125,27.4375 19.975,27.4375 Z" id="Path" fill="#101828" fill-rule="nonzero"></path>
            <rect id="Rectangle" x="0" y="0" width="40" height="40"></rect>
        </g>
    </g>
</svg>