<?xml version="1.0" encoding="UTF-8"?>
<svg width="42px" height="42px" viewBox="0 0 42 42" version="1.1" xmlns="http://www.w3.org/2000/svg" xmlns:xlink="http://www.w3.org/1999/xlink">
    <!-- Generator: Sketch 57.1 (83088) - https://sketch.com -->
    <title>107-G40px</title>
    <desc>Created with Sketch.</desc>
    <g id="NEW_icons" stroke="none" stroke-width="1" fill="none" fill-rule="evenodd">
        <g id="icons_UD_new-Copy" transform="translate(-1526.000000, -13821.000000)">
            <g id="107-G40px" transform="translate(1527.000000, 13822.000000)">
                <circle id="Oval-Copy-657" stroke="#E3E8EC" cx="20" cy="20" r="20"></circle>
                <g id="107-B32px-Copy" transform="translate(4.000000, 4.000000)">
                    <path d="M27,10 L27.02,25 L5,25.02 L4.98,10 L27,10 L27,10 Z M27.02,9 L4.98,9 C4.44,9 4,9.44 4,9.98 L4,25.02 C4,25.56 4.44,26 4.98,26 L27.02,26 C27.56,26 28,25.56 28,25.02 L28,9.98 C28,9.44 27.56,9 27.02,9 L27.02,9 Z" id="Shape" fill="#101828" fill-rule="nonzero"></path>
                    <path d="M16,13 C18.48,13 20.5,15.02 20.5,17.5 C20.5,19.98 18.48,22 16,22 C13.52,22 11.5,19.98 11.5,17.5 C11.5,15.02 13.52,13 16,13 L16,13 Z M16,12 C12.96,12 10.5,14.46 10.5,17.5 C10.5,20.54 12.96,23 16,23 C19.04,23 21.5,20.54 21.5,17.5 C21.5,14.46 19.04,12 16,12 L16,12 Z" id="Shape" fill="#101828" fill-rule="nonzero"></path>
                    <polygon id="Path" fill="#101828" fill-rule="nonzero" points="13.5 17 13.5 18 15.5 18 15.5 20 16.5 20 16.5 18 18.5 18 18.5 17 16.5 17 16.5 15 15.5 15 15.5 17"></polygon>
                    <path d="M16,6 C17.86,6 19.43,7.28 19.87,9 L12.12,9 C12.57,7.28 14.14,6 16,6 L16,6 Z M16,5 C13.24,5 11,7.24 11,10 L21,10 C21,7.24 18.76,5 16,5 L16,5 Z" id="Shape" fill="#101828" fill-rule="nonzero"></path>
                    <rect id="Rectangle" x="0" y="0" width="32" height="32"></rect>
                </g>
            </g>
        </g>
    </g>
</svg>