<?xml version="1.0" encoding="UTF-8"?>
<svg width="80px" height="80px" viewBox="0 0 80 80" version="1.1" xmlns="http://www.w3.org/2000/svg" xmlns:xlink="http://www.w3.org/1999/xlink">
    <!-- Generator: Sketch 57.1 (83088) - https://sketch.com -->
    <title>015-B80px</title>
    <desc>Created with Sketch.</desc>
    <g id="015-B80px" stroke="none" stroke-width="1" fill="none" fill-rule="evenodd">
        <g>
            <path d="M31.25,64.975 C31.925,64.975 32.5,64.425 32.5,63.725 C32.5,63.025 31.925,62.5 31.25,62.5 C30.575,62.5 30,63.05 30,63.75 C30,64.45 30.575,64.975 31.25,64.975" id="Path" fill="#101828" fill-rule="nonzero"></path>
            <rect id="Rectangle" fill="#101828" fill-rule="nonzero" x="10.75" y="57.5" width="30" height="2.5"></rect>
            <path d="M40.025,67.5 L12.5,67.525 L12.475,12.5 L47.5,12.5 L47.5,22.5 L50,22.5 L50,12.475 C50,11.125 48.875,10 47.525,10 L12.475,10 C11.125,10 10,11.125 10,12.475 L10,67.5 C10,68.875 11.125,70 12.475,70 L40.775,70 C40.325,69.275 40.05,68.425 40.025,67.5 Z" id="Path" fill="#101828" fill-rule="nonzero"></path>
            <path d="M67.45,27.5 L67.475,67.475 L45,67.5 L44.975,27.5 L67.45,27.5 L67.45,27.5 Z M67.475,25 L45,25 C43.625,25 42.5,26.125 42.5,27.475 L42.5,67.475 C42.5,68.85 43.625,69.95 44.975,69.95 L67.45,69.95 C68.825,69.95 69.925,68.825 69.925,67.475 L69.925,27.475 C69.95,26.125 68.85,25 67.475,25 L67.475,25 Z" id="Shape" fill="#101828" fill-rule="nonzero"></path>
            <path d="M54.975,64.975 C55.65,64.975 56.225,64.425 56.225,63.725 C56.225,63.025 55.675,62.475 54.975,62.475 C54.275,62.475 53.725,63.025 53.725,63.725 C53.725,64.425 54.3,64.975 54.975,64.975" id="Path" fill="#101828" fill-rule="nonzero"></path>
            <rect id="Rectangle" fill="#101828" fill-rule="nonzero" x="45" y="57.5" width="22.5" height="2.5"></rect>
            <path d="M40,38.25 C39.125,39.325 38.1,40.225 36.9,40.925 C38.325,38.45 39.2,35.025 39.2,31.25 C39.2,27.475 38.325,24.05 36.9,21.575 C38.425,22.475 39.7,23.725 40.675,25.2 C41.1,24.425 41.7,23.775 42.45,23.3 C39.975,19.8 35.875,17.5 31.25,17.5 C31.25,17.5 31.25,17.5 31.225,17.5 C31.225,17.5 31.225,17.5 31.225,17.5 C31.225,17.5 31.2,17.5 31.2,17.5 C23.625,17.525 17.5,23.675 17.5,31.25 C17.5,38.825 23.625,44.975 31.2,45 C31.2,45 31.225,45 31.225,45 C31.225,45 31.225,45 31.225,45 C31.225,45 31.225,45 31.25,45 C34.575,45 37.625,43.825 40,41.85 L40,38.25 Z M20.975,26.7 L23.7,26.7 C23.5,27.75 23.35,28.85 23.275,30 L20.125,30 C20.25,28.85 20.525,27.725 20.975,26.7 Z M20.975,35.8 C20.525,34.775 20.25,33.65 20.125,32.5 L23.275,32.5 C23.325,33.65 23.475,34.75 23.7,35.8 L20.975,35.8 Z M22.55,38.3 L24.375,38.3 C24.7,39.25 25.1,40.125 25.525,40.9 C24.4,40.2 23.375,39.325 22.55,38.3 Z M24.375,24.2 L22.55,24.2 C23.4,23.175 24.4,22.275 25.55,21.6 C25.1,22.4 24.7,23.275 24.375,24.2 Z M30,42.125 C28.9,41.525 27.875,40.175 27.075,38.3 L30,38.3 L30,42.125 Z M30,35.8 L26.25,35.8 C26.025,34.8 25.875,33.675 25.8,32.5 L30,32.5 L30,35.8 Z M30,30 L25.825,30 C25.9,28.85 26.025,27.725 26.275,26.7 L30,26.7 L30,30 Z M30,24.2 L27.075,24.2 C27.85,22.325 28.9,20.975 30,20.375 L30,24.2 Z M32.5,20.4 C33.575,21 34.6,22.35 35.375,24.2 L32.5,24.2 L32.5,20.4 Z M32.5,42.1 L32.5,38.3 L35.375,38.3 C34.6,40.15 33.575,41.475 32.5,42.1 Z M36.2,35.8 L32.5,35.8 L32.5,32.5 L36.65,32.5 C36.575,33.675 36.425,34.775 36.2,35.8 Z M32.5,30 L32.5,26.7 L36.2,26.7 C36.425,27.7 36.575,28.825 36.65,30 L32.5,30 Z" id="Shape" fill="#101828" fill-rule="nonzero"></path>
            <rect id="Rectangle" x="0" y="0" width="80" height="80"></rect>
        </g>
    </g>
</svg>