<?xml version="1.0" encoding="UTF-8"?>
<svg width="40px" height="40px" viewBox="0 0 40 40" version="1.1" xmlns="http://www.w3.org/2000/svg" xmlns:xlink="http://www.w3.org/1999/xlink">
    <!-- Generator: Sketch 57.1 (83088) - https://sketch.com -->
    <title>059-B40px</title>
    <desc>Created with Sketch.</desc>
    <g id="059-B40px" stroke="none" stroke-width="1" fill="none" fill-rule="evenodd">
        <g>
            <path d="M18.25,20 C17.5,20 16.75,19.625 16.125,19.125 L14.875,17.875 L13.625,19.125 C12.5,20.375 10.5,20.375 9.375,19.125 C8.25,17.875 8.25,16 9.375,14.75 C10.5,13.5 12.5,13.5 13.625,14.75 L14.875,16 L16.125,14.75 C17.25,13.5 19.25,13.5 20.375,14.75 C21.5,16 21.5,17.875 20.375,19.125 C19.875,19.625 19.125,20 18.25,20 Z M15.875,16.875 L17.125,18.25 C17.75,19 18.875,19 19.5,18.25 C20.25,17.5 20.25,16.25 19.5,15.5 C18.875,14.75 17.75,14.75 17.125,15.5 L15.875,16.875 Z M11.75,15 C11.25,15 10.875,15.25 10.5,15.5 C9.75,16.25 9.75,17.5 10.5,18.25 C11.125,18.875 12.25,19 12.875,18.25 L14.125,16.875 L12.875,15.5 C12.625,15.125 12.125,15 11.75,15 Z" id="Shape" fill="#101828" fill-rule="nonzero"></path>
            <path d="M23.75,10 L6.25,10 C5.5,10 5,10.5 5,11.25 L5,20 L6.25,20 L6.25,20 L6.25,20 L6.25,11.25 L23.75,11.25 L23.75,22.5 L8.75,22.5 L8.375,22.5 L8,22.75 L7,23.375 L5,24.75 L5,24.75 L5,26.25 L8.75,23.75 L23.75,23.75 C24.375,23.75 25,23.25 25,22.5 L25,11.25 C25,10.5 24.5,10 23.75,10 Z" id="Path" fill="#101828" fill-rule="nonzero"></path>
            <path d="M32,27.75 L31.625,27.5 L31.25,27.5 L16.25,27.5 L16.25,25 L15,25 L15,27.5 C15,28.125 15.5,28.75 16.25,28.75 L31.25,28.75 L35,31.25 L35,29.75 L32.25,27.875 L32,27.75 Z" id="Path" fill="#101828" fill-rule="nonzero"></path>
            <path d="M33.75,15 L26.25,15 L26.25,16.25 L33.75,16.25 L33.75,25 L33.75,25 L33.75,25 L35,25 L35,16.25 C35,15.5 34.5,15 33.75,15 Z" id="Path" fill="#101828" fill-rule="nonzero"></path>
            <rect id="Rectangle" x="0" y="0" width="40" height="40"></rect>
        </g>
    </g>
</svg>