<?xml version="1.0" encoding="UTF-8"?>
<svg width="32px" height="32px" viewBox="0 0 32 32" version="1.1" xmlns="http://www.w3.org/2000/svg" xmlns:xlink="http://www.w3.org/1999/xlink">
    <!-- Generator: Sketch 57.1 (83088) - https://sketch.com -->
    <title>111-B32px</title>
    <desc>Created with Sketch.</desc>
    <g id="111-B32px" stroke="none" stroke-width="1" fill="none" fill-rule="evenodd">
        <g>
            <g id="Group" transform="translate(4.000000, 5.000000)" fill="#101828" fill-rule="nonzero">
                <path d="M17,14.3 L18.11,15 L17,15.7 L17,14.3 L17,14.3 Z M16,12.5 L16,17.5 L20,15 L16,12.5 L16,12.5 Z" id="Shape"></path>
                <rect id="Rectangle" x="10" y="14.5" width="6" height="1"></rect>
                <path d="M23,3 L23.02,20 L1,20.02 L1.02,3 L23,3 L23,3 Z M23.01,2 L1.02,2 C0.46,2 0,2.46 0,3.02 L0,20.03 C0,20.56 0.44,21 0.98,21 L23.02,21 C23.56,21 24,20.56 24,20.02 L24,2.99 C24,2.44 23.56,2 23.01,2 L23.01,2 Z" id="Shape"></path>
                <rect id="Rectangle" x="19" y="0" width="1" height="5"></rect>
                <rect id="Rectangle" x="16" y="0" width="1" height="5"></rect>
                <rect id="Rectangle" x="13" y="0" width="1" height="5"></rect>
                <rect id="Rectangle" x="10" y="0" width="1" height="5"></rect>
                <rect id="Rectangle" x="7" y="0" width="1" height="5"></rect>
                <rect id="Rectangle" x="4" y="0" width="1" height="5"></rect>
                <path d="M19,8 L19,10 L17,10 L17,8 L19,8 L19,8 Z M20,7 L16,7 L16,11 L20,11 L20,7 L20,7 Z" id="Shape"></path>
                <path d="M13,8 L13,10 L11,10 L11,8 L13,8 L13,8 Z M14,7 L10,7 L10,11 L14,11 L14,7 L14,7 Z" id="Shape"></path>
                <path d="M7,14 L7,16 L5,16 L5,14 L7,14 L7,14 Z M8,13 L4,13 L4,17 L8,17 L8,13 L8,13 Z" id="Shape"></path>
                <path d="M7,8 L7,10 L5,10 L5,8 L7,8 L7,8 Z M8,7 L4,7 L4,11 L8,11 L8,7 L8,7 Z" id="Shape"></path>
            </g>
            <rect id="Rectangle" x="0" y="0" width="32" height="32"></rect>
        </g>
    </g>
</svg>