<?xml version="1.0" encoding="UTF-8"?>
<svg width="40px" height="40px" viewBox="0 0 40 40" version="1.1" xmlns="http://www.w3.org/2000/svg" xmlns:xlink="http://www.w3.org/1999/xlink">
    <!-- Generator: Sketch 57.1 (83088) - https://sketch.com -->
    <title>196-B40px</title>
    <desc>Created with Sketch.</desc>
    <g id="196-B40px" stroke="none" stroke-width="1" fill="none" fill-rule="evenodd">
        <g>
            <path d="M29.9875,18.75 L29.9875,31.25 L24.9875,31.25 L24.9875,18.75 L29.9875,18.75 L29.9875,18.75 Z M30.0375,17.5 L24.9375,17.5 C24.275,17.5 23.7375,18.0375 23.7375,18.7 L23.7375,31.2875 C23.7375,31.95 24.275,32.4875 24.9375,32.4875 L30.0375,32.4875 C30.7,32.4875 31.2375,31.95 31.2375,31.2875 L31.2375,18.7 C31.2375,18.0375 30.7,17.5 30.0375,17.5 L30.0375,17.5 Z" id="Shape" fill="#101828" fill-rule="nonzero"></path>
            <path d="M27.4875,20 C26.8,20 26.2375,20.5625 26.2375,21.25 C26.2375,21.9375 26.8,22.5 27.4875,22.5 C28.175,22.5 28.7375,21.9375 28.7375,21.25 C28.7375,20.5625 28.175,20 27.4875,20 L27.4875,20 Z" id="Path" fill="#101828" fill-rule="nonzero"></path>
            <rect id="Rectangle" fill="#101828" fill-rule="nonzero" x="26.2375" y="26.25" width="2.5" height="1.25"></rect>
            <rect id="Rectangle" fill="#101828" fill-rule="nonzero" x="26.2375" y="23.75" width="2.5" height="1.25"></rect>
            <rect id="Rectangle" fill="#101828" fill-rule="nonzero" x="26.2375" y="28.75" width="2.5" height="1.25"></rect>
            <polygon id="Path" fill="#101828" fill-rule="nonzero" points="8.725 12.5 8.725 13.75 10.5875 13.75 10.5875 20 11.8375 20 11.8375 13.75 13.775 13.75 13.775 12.5"></polygon>
            <polygon id="Path" fill="#101828" fill-rule="nonzero" points="15 12.5 16.875 20 18.125 20 20 12.5 18.75 12.5 17.5 18.1125 16.25 12.5"></polygon>
            <path d="M33.725,8.75 L6.275,8.75 C5.575,8.75 5,9.3125 5,10.025 L5,23.75 C5,24.4125 5.5125,24.9375 6.1625,25 L8.75,25 L8.75,25.025 L16.9375,25.025 C13.075,25.25 10.2,25.85 8.75,26.2 L8.75,27.5 C10.2875,27.1 14.425,26.1875 19.975,26.1875 C20.85,26.1875 21.7,26.2125 22.5,26.25 L22.5,23.7625 L6.25,23.75 L6.275,10 L33.725,10 L33.75,10.025 L33.725,23.775 L32.5,23.775 L32.5,25 L33.8375,25 C34.4875,24.9375 35,24.4125 35,23.75 L35,10.025 C35,9.3125 34.425,8.75 33.725,8.75 Z" id="Path" fill="#101828" fill-rule="nonzero"></path>
            <rect id="Rectangle" x="0" y="0" width="40" height="40"></rect>
        </g>
    </g>
</svg>