<?xml version="1.0" encoding="UTF-8"?>
<svg width="56px" height="56px" viewBox="0 0 56 56" version="1.1" xmlns="http://www.w3.org/2000/svg" xmlns:xlink="http://www.w3.org/1999/xlink">
    <!-- Generator: Sketch 57.1 (83088) - https://sketch.com -->
    <title>064-W56px</title>
    <desc>Created with Sketch.</desc>
    <g id="NEW_icons" stroke="none" stroke-width="1" fill="none" fill-rule="evenodd">
        <g id="icons_UD_new-Copy" transform="translate(-532.000000, -8539.000000)">
            <g id="064-W56px" transform="translate(532.000000, 8539.000000)">
                <circle id="Oval-Copy-447" fill="#101828" cx="28" cy="28" r="28"></circle>
                <g id="064-B32px-Copy-6" transform="translate(8.000000, 8.000000)">
                    <path d="M20,32.5 C20.3375,32.5 20.625,32.225 20.625,31.875 C20.625,31.525 20.3375,31.25 20,31.25 C19.6625,31.25 19.375,31.525 19.375,31.875 C19.375,32.225 19.6625,32.5 20,32.5" id="Path" fill="#FFFFFF" fill-rule="nonzero"></path>
                    <rect id="Rectangle" fill="#FFFFFF" fill-rule="nonzero" x="10" y="28.75" width="20" height="1.25"></rect>
                    <path d="M28.75,21.2125 L28.75,33.675 C28.75,33.7125 28.725,33.7375 28.6875,33.7375 L11.3125,33.7375 C11.275,33.75 11.25,33.725 11.25,33.6875 L11.25,21.225 C11.05,21.2375 10.8375,21.25 10.625,21.25 C10.4125,21.25 10.2,21.2375 10,21.2125 L10,33.675 C10,34.4125 10.5875,35 11.3125,35 L28.6875,35 C29.4125,35 30,34.4125 30,33.6875 L30,21.225 C29.8,21.2375 29.5875,21.25 29.375,21.25 C29.1625,21.25 28.95,21.2375 28.75,21.2125 Z" id="Path" fill="#FFFFFF" fill-rule="nonzero"></path>
                    <path d="M28.6875,5 L11.3125,5 C10.5875,5 10,5.5875 10,6.3125 L10,7.525 C10.2,7.5125 10.4125,7.5 10.625,7.5 C10.8375,7.5 11.05,7.5125 11.25,7.5375 L11.25,6.3125 C11.25,6.275 11.275,6.25 11.3125,6.25 L28.6875,6.25 C28.725,6.25 28.75,6.275 28.75,6.3125 L28.75,7.525 C28.95,7.5125 29.1625,7.5 29.375,7.5 C29.5875,7.5 29.8,7.5125 30,7.5375 L30,6.3125 C30,5.5875 29.4125,5 28.6875,5 Z" id="Path" fill="#FFFFFF" fill-rule="nonzero"></path>
                    <path d="M10.625,10 C13.0375,10 15,11.9625 15,14.375 C15,16.7875 13.0375,18.75 10.625,18.75 C8.2125,18.75 6.25,16.7875 6.25,14.375 C6.25,11.9625 8.2125,10 10.625,10 L10.625,10 Z M10.625,8.75 C7.5125,8.75 5,11.2625 5,14.375 C5,17.4875 7.5125,20 10.625,20 C13.7375,20 16.25,17.4875 16.25,14.375 C16.25,11.2625 13.7375,8.75 10.625,8.75 L10.625,8.75 Z" id="Shape" fill="#FFFFFF" fill-rule="nonzero"></path>
                    <path d="M29.375,10 C31.7875,10 33.75,11.9625 33.75,14.375 C33.75,16.7875 31.7875,18.75 29.375,18.75 C26.9625,18.75 25,16.7875 25,14.375 C25,11.9625 26.9625,10 29.375,10 L29.375,10 Z M29.375,8.75 C26.2625,8.75 23.75,11.2625 23.75,14.375 C23.75,17.4875 26.2625,20 29.375,20 C32.4875,20 35,17.4875 35,14.375 C35,11.2625 32.4875,8.75 29.375,8.75 L29.375,8.75 Z" id="Shape" fill="#FFFFFF" fill-rule="nonzero"></path>
                    <path d="M19.225,23.8875 C19.15,23.8875 19.075,23.8875 19,23.8875 C19,23.8875 18.9875,23.8875 18.9875,23.8875 C18.925,23.8875 18.875,23.875 18.8125,23.875 C18.7375,23.8625 18.6625,23.8625 18.5875,23.8375 C18.475,23.8125 18.3625,23.7875 18.25,23.75 C18.025,23.675 17.8125,23.575 17.6125,23.45 C17.6125,23.45 17.6,23.45 17.6,23.4375 C17.8625,23.4625 18.1125,23.45 18.3625,23.375 C18.6125,23.3 18.8375,23.1875 19.05,23.025 C18.9125,23.025 18.7875,22.9875 18.6625,22.9375 C18.5375,22.875 18.425,22.8 18.3375,22.7 C18.25,22.6 18.175,22.4875 18.1375,22.35 C18.2875,22.375 18.425,22.375 18.575,22.3375 C18.35,22.2875 18.1625,22.175 18.0125,21.9875 C17.8375,21.775 17.7875,21.5125 17.8,21.3625 C17.8625,21.4 17.9375,21.425 18.0125,21.45 C18.0875,21.475 18.2125,21.4875 18.2375,21.4875 C18.025,21.3375 17.8875,21.15 17.8375,20.8875 C17.775,20.6375 17.8125,20.4 17.95,20.175 C18.2,20.475 18.5,20.725 18.85,20.9 C19.2,21.075 19.575,21.175 19.975,21.2 C19.975,21.2 19.975,21.1875 19.975,21.1875 C19.9625,21.1375 19.9625,21.0875 19.95,21.0375 C19.9375,20.9375 19.95,20.8375 19.975,20.7375 C20.025,20.5375 20.125,20.3625 20.2875,20.225 C20.4,20.125 20.5125,20.0625 20.65,20.025 C20.7125,20 20.775,19.9875 20.85,19.9875 C20.8625,19.9875 20.875,19.9875 20.8875,19.9875 C20.925,19.9875 20.95,19.9875 20.9875,19.9875 C20.9875,19.9875 21,19.9875 21,19.9875 C21.05,19.9875 21.0875,20 21.1375,20 C21.25,20.025 21.3625,20.0625 21.45,20.125 C21.525,20.175 21.5875,20.225 21.65,20.2875 C21.65,20.2875 21.6625,20.3 21.6625,20.3 C21.7875,20.275 21.9,20.2375 22.025,20.1875 C22.1125,20.15 22.1875,20.1125 22.2625,20.0625 C22.2625,20.0625 22.2625,20.0625 22.275,20.0625 C22.2,20.2875 22.05,20.475 21.85,20.6 C21.8875,20.6 21.925,20.5875 21.9625,20.5875 C22,20.575 22.0375,20.575 22.075,20.5625 C22.1125,20.55 22.15,20.5375 22.1875,20.5375 C22.225,20.525 22.2625,20.5125 22.3,20.5 C22.3375,20.4875 22.375,20.475 22.4125,20.4625 C22.4125,20.4625 22.4125,20.475 22.4125,20.475 C22.3875,20.5125 22.3625,20.55 22.3375,20.575 C22.25,20.7 22.1375,20.8 22.025,20.9 C22,20.925 21.975,20.9375 21.95,20.9625 C21.95,20.9625 21.9375,20.975 21.9375,20.975 C21.9375,20.9875 21.9375,20.9875 21.9375,21 C21.9375,21.1625 21.9375,21.3125 21.9125,21.475 C21.9,21.5625 21.8875,21.65 21.8625,21.725 C21.825,21.8625 21.7875,22.0125 21.725,22.15 C21.6375,22.3625 21.5375,22.5625 21.4,22.75 C21.275,22.9375 21.125,23.1 20.95,23.2375 C20.85,23.325 20.75,23.4 20.6375,23.475 C20.45,23.5875 20.25,23.6875 20.05,23.75 C19.9375,23.7875 19.825,23.8125 19.7,23.8375 C19.65,23.85 19.5875,23.85 19.525,23.8625 C19.4875,23.8625 19.4375,23.875 19.4,23.875 C19.325,23.8875 19.2875,23.8875 19.225,23.8875 C19.2375,23.8875 19.225,23.8875 19.225,23.8875 Z" id="Path" fill="#FFFFFF" fill-rule="nonzero"></path>
                    <path d="M31.0625,13.8125 C31.0125,14.175 30.9625,14.5125 30.925,14.8375 C30.9125,14.925 30.875,14.95 30.7875,14.95 C30.5625,14.95 30.3375,14.95 30.1125,14.95 C29.9125,14.95 29.9125,14.95 29.9125,15.1625 C29.9125,15.7375 29.9125,16.3125 29.9125,16.8875 C29.9125,17.05 29.9,17.2125 29.9,17.3875 C29.9,17.475 29.8625,17.5 29.775,17.5 C29.475,17.5 29.175,17.5 28.8625,17.5 C28.75,17.5 28.7375,17.45 28.7375,17.3625 C28.725,16.625 28.725,15.8875 28.7125,15.15 C28.7125,14.9625 28.7125,14.9625 28.525,14.9625 C28.2875,14.9625 28.0375,14.95 27.8,14.9625 C27.7125,14.9625 27.6625,14.9375 27.6625,14.8375 C27.675,14.525 27.6875,14.2 27.6875,13.8875 C27.6875,13.8 27.725,13.7875 27.8,13.7875 C28.05,13.7875 28.3125,13.7875 28.5625,13.7875 C28.675,13.7875 28.7125,13.75 28.7125,13.6375 C28.7125,13.2875 28.7125,12.9375 28.7375,12.5875 C28.7875,11.8625 29.35,11.3375 30.0625,11.3125 C30.3625,11.3 30.6625,11.3125 30.975,11.3125 C31.0625,11.3125 31.1,11.35 31.1,11.4375 C31.0875,11.725 31.075,12.0125 31.075,12.3 C31.075,12.3875 31.025,12.4 30.95,12.4 C30.725,12.4 30.5,12.4 30.2875,12.425 C30.05,12.45 29.925,12.6125 29.9125,12.85 C29.9,13.125 29.9125,13.3875 29.9,13.6625 C29.9,13.7625 29.95,13.7875 30.025,13.7875 C30.3125,13.7875 30.6125,13.8 30.9,13.8125 C30.9625,13.8 31,13.8125 31.0625,13.8125 Z" id="Path" fill="#FFFFFF" fill-rule="nonzero"></path>
                    <path d="M13.9125,16.0625 C13.8625,16.225 13.7375,16.2375 13.6,16.2375 C13.2875,16.25 12.975,16.25 12.6625,16.25 C12.4625,16.25 12.3,16.1375 12.1625,16 C12.025,15.8625 11.9,15.7 11.7625,15.5625 C11.7125,15.5125 11.65,15.45 11.5875,15.4125 C11.4875,15.3375 11.4125,15.35 11.325,15.45 C11.225,15.5625 11.2,15.7 11.1875,15.85 C11.1875,15.9 11.1875,15.95 11.175,16 C11.1625,16.1625 11.1,16.225 10.95,16.225 C10.625,16.2375 10.3,16.2625 9.975,16.15 C9.4875,15.9875 9.0875,15.7 8.7625,15.3125 C8.175,14.5875 7.725,13.775 7.35,12.925 C7.2875,12.7875 7.325,12.7 7.4875,12.675 C7.525,12.675 7.55,12.675 7.5875,12.675 C7.875,12.675 8.15,12.675 8.4375,12.675 C8.5875,12.675 8.6625,12.7375 8.7375,12.8625 C8.9125,13.2125 9.075,13.5625 9.2625,13.9 C9.3375,14.05 9.4375,14.175 9.575,14.275 C9.625,14.3125 9.6875,14.35 9.7625,14.325 C9.7875,14.3125 9.8125,14.3 9.825,14.275 C9.8875,14.175 9.9,14.0625 9.9125,13.95 C9.9375,13.725 9.95,13.5125 9.925,13.2875 C9.9125,13.1875 9.9,13.0875 9.875,13 C9.8375,12.8625 9.7375,12.8125 9.6125,12.775 C9.5875,12.7625 9.5625,12.7625 9.5125,12.75 C9.5375,12.7125 9.55,12.6875 9.5625,12.6625 C9.65,12.575 9.75,12.5375 9.875,12.525 C10.225,12.4875 10.575,12.475 10.925,12.5375 C11.1,12.5625 11.1625,12.625 11.175,12.825 C11.1875,13.0375 11.175,13.25 11.175,13.45 C11.175,13.6625 11.175,13.875 11.1875,14.0875 C11.1875,14.1375 11.2125,14.1875 11.2375,14.2375 C11.3,14.325 11.3875,14.3375 11.4625,14.2625 C11.575,14.15 11.675,14.0375 11.7625,13.9125 C12,13.5875 12.1875,13.225 12.325,12.85 C12.3875,12.6875 12.4375,12.6625 12.6,12.6625 C12.95,12.6625 13.3,12.6625 13.65,12.65 C13.75,12.65 13.85,12.6625 13.9125,12.7625 C13.9125,12.8 13.9125,12.825 13.9125,12.8625 C13.8875,12.9125 13.875,12.975 13.85,13.025 C13.725,13.3 13.5375,13.5375 13.3625,13.7875 C13.2125,14 13.05,14.2 12.9,14.4125 C12.8,14.5625 12.8125,14.675 12.9375,14.8 C13.0875,14.95 13.25,15.1 13.3875,15.25 C13.6,15.4625 13.8125,15.675 13.9,15.975 C13.9125,16.025 13.9125,16.0375 13.9125,16.0625 Z" id="Path" fill="#FFFFFF" fill-rule="nonzero"></path>
                    <path d="M20,17.5 C22.4125,17.5 24.375,19.4625 24.375,21.875 C24.375,24.2875 22.4125,26.25 20,26.25 C17.5875,26.25 15.625,24.2875 15.625,21.875 C15.625,19.4625 17.5875,17.5 20,17.5 L20,17.5 Z M20,16.25 C16.8875,16.25 14.375,18.7625 14.375,21.875 C14.375,24.9875 16.8875,27.5 20,27.5 C23.1125,27.5 25.625,24.9875 25.625,21.875 C25.625,18.7625 23.1125,16.25 20,16.25 L20,16.25 Z" id="Shape" fill="#FFFFFF" fill-rule="nonzero"></path>
                    <rect id="Rectangle" x="0" y="0" width="40" height="40"></rect>
                </g>
            </g>
        </g>
    </g>
</svg>