<?xml version="1.0" encoding="UTF-8"?>
<svg width="56px" height="56px" viewBox="0 0 56 56" version="1.1" xmlns="http://www.w3.org/2000/svg" xmlns:xlink="http://www.w3.org/1999/xlink">
    <!-- Generator: Sketch 59.1 (86144) - https://sketch.com -->
    <title>268-G56px</title>
    <desc>Created with Sketch.</desc>
    <g id="NEW_icons" stroke="none" stroke-width="1" fill="none" fill-rule="evenodd">
        <g id="icons_UD_new-Copy" transform="translate(-445.000000, -34155.000000)">
            <g id="268-G56px" transform="translate(445.000000, 34155.000000)">
                <circle id="Oval-Copy-1713" fill="#E3E8EC" cx="28" cy="28" r="28"></circle>
                <g id="268-B32px-Copy-4" transform="translate(8.000000, 8.000000)">
                    <rect id="Rectangle" x="0" y="0" width="40" height="40"></rect>
                    <g id="Group" transform="translate(2.500000, 5.000000)" fill="#101828" fill-rule="nonzero">
                        <g transform="translate(13.750000, 12.500000)" id="Path">
                            <path d="M16.875,4 L16,3.25 C14.25,5.125 11.75,6.375 9,6.25 C6.25,6.125 3.75,4.875 2.125,2.875 L1.125,3.5 C3,5.75 5.75,7.25 8.875,7.375 C12,7.625 14.875,6.25 16.875,4 Z"></path>
                            <path d="M14.5,2.875 L13.625,2.125 C12.5,3.375 10.75,4.125 9,4 C7.125,4 5.5,3.125 4.5,1.875 L3.5,2.5 C4.875,4.125 6.75,5.125 9,5.125 C11.125,5.25 13.125,4.375 14.5,2.875 Z"></path>
                            <path d="M12.25,1.625 L11.25,1 C10.625,1.5 9.75,1.875 8.875,1.875 C8,1.875 7.25,1.5 6.625,1 L5.625,1.625 C6.375,2.5 7.5,3 8.75,3 C10.25,3 11.375,2.5 12.25,1.625 Z"></path>
                        </g>
                        <path d="M11.375,12.75 L1.125,12.75 L1.125,3.375 L11.375,3.375 L11.375,12.75 Z M2.25,11.625 L10.25,11.625 L10.25,4.5 L2.25,4.5 L2.25,11.625 Z" id="Shape"></path>
                        <path d="M11.375,29.375 L1.125,29.375 L1.125,21.625 L11.375,21.625 L11.375,29.375 Z M2.25,28.125 L10.25,28.125 L10.25,22.625 L2.25,22.625 L2.25,28.125 Z" id="Shape"></path>
                        <path d="M9.25,22.75 L3.125,22.75 L3.125,11.625 L9.25,11.625 L9.25,22.75 Z M4.25,21.5 L8.125,21.5 L8.125,12.75 L4.25,12.75 L4.25,21.5 Z" id="Shape"></path>
                        <path d="M8.625,4.5 L3.75,4.5 L3.625,4.125 C3.625,3.75 3.625,3.5 3.625,3.375 C3.625,1.875 4.75,0.75 6.25,0.75 C7.75,0.75 8.875,1.875 8.875,3.375 C8.875,3.5 8.75,3.75 8.75,4.125 L8.625,4.5 Z M4.75,3.375 L7.75,3.375 C7.75,3.375 7.75,3.375 7.75,3.375 C7.75,2.5 7,1.875 6.25,1.875 C5.375,1.875 4.75,2.5 4.75,3.375 C4.75,3.375 4.75,3.375 4.75,3.375 Z" id="Shape"></path>
                        <path d="M33.875,11.125 L10.375,11.125 L10.375,5 L33.875,5 L33.875,11.125 Z M11.625,10 L32.875,10 L32.875,6.125 L11.625,6.125 L11.625,10 Z" id="Shape"></path>
                        <polygon id="Rectangle" transform="translate(14.712312, 8.170137) rotate(-62.056261) translate(-14.712312, -8.170137) " points="12.0873368 7.6076427 17.3372882 7.6076427 17.3372882 8.7326323 12.0873368 8.7326323"></polygon>
                        <polygon id="Rectangle" transform="translate(19.636715, 8.252062) rotate(-62.056261) translate(-19.636715, -8.252062) " points="17.0117389 7.6895677 22.2616903 7.6895677 22.2616903 8.8145573 17.0117389 8.8145573"></polygon>
                        <polygon id="Rectangle" transform="translate(24.619987, 8.224187) rotate(-62.056261) translate(-24.619987, -8.224187) " points="21.9950118 7.6616927 27.2449632 7.6616927 27.2449632 8.7866823 21.9950118 8.7866823"></polygon>
                        <polygon id="Rectangle" transform="translate(29.602487, 8.195187) rotate(-62.056261) translate(-29.602487, -8.195187) " points="26.9775118 7.6326927 32.2274632 7.6326927 32.2274632 8.7576823 26.9775118 8.7576823"></polygon>
                    </g>
                </g>
            </g>
        </g>
    </g>
</svg>