<?xml version="1.0" encoding="UTF-8"?>
<svg width="42px" height="42px" viewBox="0 0 42 42" version="1.1" xmlns="http://www.w3.org/2000/svg" xmlns:xlink="http://www.w3.org/1999/xlink">
    <!-- Generator: Sketch 57.1 (83088) - https://sketch.com -->
    <title>074-G40px</title>
    <desc>Created with Sketch.</desc>
    <g id="NEW_icons" stroke="none" stroke-width="1" fill="none" fill-rule="evenodd">
        <g id="icons_UD_new-Copy" transform="translate(-244.000000, -9807.000000)">
            <g id="074-G40px" transform="translate(245.000000, 9808.000000)">
                <circle id="Oval-Copy-498" stroke="#E3E8EC" cx="20" cy="20" r="20"></circle>
                <g id="074-B32px-Copy-4" transform="translate(4.000000, 4.000000)">
                    <path d="M19,20 L19,26.95 C19,26.98 18.98,27 18.95,27 L5.05,27 C5.02,27 5,26.98 5,26.95 L5,5.05 C5,5.02 5.02,5 5.05,5 L18.95,5 C18.98,5 19,5.02 19,5.05 L19,6 L20,6 L20,5.05 C20,4.47 19.53,4 18.95,4 L5.05,4 C4.47,4 4,4.47 4,5.05 L4,26.95 C4,27.53 4.47,28 5.05,28 L18.95,28 C19.53,28 20,27.53 20,26.95 L20,20 L19,20 Z" id="Path" fill="#101828" fill-rule="nonzero"></path>
                    <path d="M12,26 C12.27,26 12.5,25.78 12.5,25.5 C12.5,25.22 12.27,25 12,25 C11.73,25 11.5,25.22 11.5,25.5 C11.5,25.78 11.73,26 12,26" id="Path" fill="#101828" fill-rule="nonzero"></path>
                    <rect id="Rectangle" fill="#101828" fill-rule="nonzero" x="4" y="23" width="16" height="1"></rect>
                    <path d="M23.78,12.5 C23.11,12.35 23.11,12.19 23.11,12.12 C23.11,11.97 23.35,11.92 23.5,11.92 C23.75,11.92 23.93,12.03 24.08,12.29 L24.17,12.43 L24.96,11.96 L24.89,11.82 C24.62,11.27 24.17,11 23.51,11 C22.71,11 22.18,11.46 22.18,12.14 C22.18,12.77 22.6,13.21 23.35,13.36 C23.98,13.49 24.04,13.64 24.04,13.78 C24.04,13.96 23.86,14.08 23.59,14.08 C23.24,14.08 23.04,13.93 22.9,13.56 L22.83,13.38 L22,13.8 L22.04,13.94 C22.22,14.6 22.8,15 23.59,15 C24.51,15 25,14.37 25,13.75 C25,13.08 24.61,12.69 23.78,12.5 Z" id="Path" fill="#101828" fill-rule="nonzero"></path>
                    <path d="M14.78,12.5 C14.11,12.35 14.11,12.19 14.11,12.12 C14.11,11.97 14.35,11.92 14.5,11.92 C14.75,11.92 14.93,12.03 15.08,12.29 L15.17,12.43 L15.96,11.96 L15.89,11.82 C15.62,11.27 15.17,11 14.51,11 C13.71,11 13.18,11.46 13.18,12.14 C13.18,12.77 13.6,13.21 14.35,13.36 C14.98,13.49 15.04,13.64 15.04,13.78 C15.04,13.96 14.86,14.08 14.59,14.08 C14.24,14.08 14.04,13.93 13.9,13.56 L13.83,13.38 L13,13.8 L13.04,13.94 C13.22,14.6 13.8,15 14.59,15 C15.51,15 16,14.37 16,13.75 C16,13.08 15.61,12.69 14.78,12.5 Z" id="Path" fill="#101828" fill-rule="nonzero"></path>
                    <polygon id="Path" fill="#101828" fill-rule="nonzero" points="20 11 20 11.03 19.99 11.02 19 12.3 19 12.3 19 12.3 18.01 11.02 18 11.03 18 11 17 11 17 15 18 15 18 12.69 19 13.76 20 12.69 20 15 21 15 21 11"></polygon>
                    <path d="M27,7 L11,7 C10.45,7 10,7.45 10,8 L10,16 L11,16 L11,8 L27,8 L27,18 L12.99,18 L12.69,18 L12.67,18.01 L10,19.83 L10,21 L12.99,19 L27,19 C27.55,19 28,18.55 28,18 L28,8 C28,7.45 27.55,7 27,7 Z" id="Path" fill="#101828" fill-rule="nonzero"></path>
                    <rect id="Rectangle" x="0" y="0" width="32" height="32"></rect>
                </g>
            </g>
        </g>
    </g>
</svg>