<?xml version="1.0" encoding="UTF-8"?>
<svg width="32px" height="32px" viewBox="0 0 32 32" version="1.1" xmlns="http://www.w3.org/2000/svg" xmlns:xlink="http://www.w3.org/1999/xlink">
    <!-- Generator: Sketch 57.1 (83088) - https://sketch.com -->
    <title>040-B32px</title>
    <desc>Created with Sketch.</desc>
    <g id="040-B32px" stroke="none" stroke-width="1" fill="none" fill-rule="evenodd">
        <g>
            <g id="Group" transform="translate(4.000000, 5.000000)" fill="#101828" fill-rule="nonzero">
                <path d="M4.94,12.03 C5.57,15.05 9.57,14.32 8.81,10.23 C8.22,6.98 4.13,8.14 4.94,12.03 Z" id="Path"></path>
                <path d="M23,5 L14,5 L14,0 L0,2 L0,20 L14,22 L14,17 L23,17 C23.55,17 24,16.55 24,16 L24,6 C24,5.45 23.55,5 23,5 Z M22.69,6 L16.48,10.86 L14,8.91 L14,6 L22.69,6 Z M8.3,14.58 C6.79,15.37 5.07,14.66 4.44,13.72 C2.87,11.39 3.77,7.33 6.94,7.33 C9.07,7.33 10.03,9.02 10.03,11.11 C10.03,12.73 9.38,14.01 8.3,14.58 Z M14,16 L14,10.18 L15.86,11.64 C16.05,11.79 16.28,11.86 16.5,11.86 C16.72,11.86 16.95,11.79 17.14,11.64 L23,7.03 L23,16 L14,16 Z" id="Shape"></path>
            </g>
            <rect id="Rectangle" x="0" y="0" width="32" height="32"></rect>
        </g>
    </g>
</svg>