<?xml version="1.0" encoding="UTF-8"?>
<svg width="80px" height="80px" viewBox="0 0 80 80" version="1.1" xmlns="http://www.w3.org/2000/svg" xmlns:xlink="http://www.w3.org/1999/xlink">
    <!-- Generator: Sketch 57.1 (83088) - https://sketch.com -->
    <title>094-C80px</title>
    <desc>Created with Sketch.</desc>
    <g id="NEW_icons" stroke="none" stroke-width="1" fill="none" fill-rule="evenodd">
        <g id="icons_UD_new-Copy" transform="translate(-1002.000000, -12269.000000)">
            <g id="094-C80px" transform="translate(1002.000000, 12269.000000)">
                <circle id="Oval-Copy-626" fill="#FF4F12" cx="40" cy="40" r="40"></circle>
                <g id="094-B32px-Copy-9" transform="translate(13.000000, 12.000000)">
                    <path d="M27.9825,39.375 C27.9825,38.885 28.0175,38.395 28.0875,37.905 C22.435,34.965 18.06,30.5025 18.0075,30.45 C17.92,30.3625 9.7475,21.805 8.75,13.3875 C8.75,13.335 8.75,13.2475 8.8025,13.195 L13.3875,8.7675 C13.4225,8.7325 13.4575,8.715 13.51,8.715 C13.545,8.715 13.58,8.75 13.58,8.75 L20.4925,15.89 C20.545,15.9425 20.5275,16.0475 20.475,16.1 L17.4125,19.0575 L16.5725,19.88 L17.01,20.965 C17.08,21.14 18.7075,25.1125 21.035,27.51 C23.3625,29.9075 27.2825,31.675 27.4575,31.745 L28.5425,32.2175 L29.3825,31.395 L32.445,28.4375 C32.48,28.4025 32.515,28.385 32.5675,28.385 C32.62,28.385 32.655,28.42 32.655,28.42 L33.705,29.505 C34.23,29.19 34.79,28.9275 35.385,28.7175 L33.915,27.195 C33.5475,26.81 33.0575,26.6175 32.5675,26.6175 C32.095,26.6175 31.605,26.7925 31.2375,27.16 L28.175,30.1175 C28.175,30.1175 24.43,28.455 22.3125,26.2675 C20.195,24.08 18.655,20.2825 18.655,20.2825 L21.7175,17.325 C22.47,16.59 22.505,15.4 21.77,14.6475 L14.84,7.5425 C14.4725,7.1575 13.9825,6.965 13.4925,6.965 C13.02,6.965 12.53,7.14 12.1625,7.5075 L7.5775,11.935 C7.14,12.3725 6.9475,12.985 7.0175,13.5975 C8.1025,22.7325 16.7475,31.6575 16.7475,31.6575 C16.7475,31.6575 21.6475,36.715 28.0175,39.83 C28,39.6725 27.9825,39.5325 27.9825,39.375 Z" id="Path" fill="#FFFFFF" fill-rule="nonzero"></path>
                    <path d="M39.3575,31.5 C43.6975,31.5 47.2325,35.035 47.2325,39.375 C47.2325,43.715 43.6975,47.25 39.3575,47.25 C35.0175,47.25 31.4825,43.715 31.4825,39.375 C31.4825,35.035 35.0175,31.5 39.3575,31.5 L39.3575,31.5 Z M39.3575,29.75 C34.0375,29.75 29.7325,34.055 29.7325,39.375 C29.7325,44.695 34.0375,49 39.3575,49 C44.6775,49 48.9825,44.695 48.9825,39.375 C48.9825,34.055 44.6775,29.75 39.3575,29.75 L39.3575,29.75 Z" id="Shape" fill="#FFFFFF" fill-rule="nonzero"></path>
                    <path d="M36.5575,39.4625 L38.5,38.2375 L38.5,40.67 L36.5575,39.4625 L36.5575,39.4625 Z M33.25,39.48 L40.25,43.8375 L40.2325,35.0875 L33.25,39.48 L33.25,39.48 Z" id="Shape" fill="#FFFFFF" fill-rule="nonzero"></path>
                    <polygon id="Rectangle" fill="#FFFFFF" fill-rule="nonzero" transform="translate(42.428767, 39.375149) rotate(-0.111814) translate(-42.428767, -39.375149) " points="39.3575107 38.5001473 45.5000224 38.5001473 45.5000224 40.2501506 39.3575107 40.2501506"></polygon>
                    <rect id="Rectangle" x="0" y="0" width="56" height="56"></rect>
                </g>
            </g>
        </g>
    </g>
</svg>