<?xml version="1.0" encoding="UTF-8"?>
<svg width="42px" height="42px" viewBox="0 0 42 42" version="1.1" xmlns="http://www.w3.org/2000/svg" xmlns:xlink="http://www.w3.org/1999/xlink">
    <!-- Generator: Sketch 58 (84663) - https://sketch.com -->
    <title>258-G40px</title>
    <desc>Created with Sketch.</desc>
    <g id="NEW_icons" stroke="none" stroke-width="1" fill="none" fill-rule="evenodd">
        <g id="icons_UD_new-Copy" transform="translate(-243.000000, -32912.000000)">
            <g id="258-G40px" transform="translate(244.000000, 32913.000000)">
                <circle id="Oval-Copy-1697" stroke="#E3E8EC" cx="20" cy="20" r="20"></circle>
                <g id="258-B32px" transform="translate(4.000000, 4.000000)">
                    <g>
                        <path d="M15.99,22.49 C15.99,22.21 16.01,21.93 16.05,21.65 C12.82,19.97 10.32,17.42 10.29,17.39 C10.24,17.34 5.57,12.46 5,7.65 C5,7.62 5,7.57 5.03,7.54 L7.65,5.01 C7.67,4.99 7.69,4.98 7.72,4.98 C7.75,4.98 7.77,5 7.77,5 L11.72,9.08 C11.75,9.11 11.74,9.17 11.71,9.2 L9.96,10.89 L9.48,11.36 L9.73,11.98 C9.77,12.08 10.7,14.35 12.03,15.72 C13.36,17.09 15.6,18.1 15.7,18.14 L16.32,18.41 L16.8,17.94 L18.55,16.25 C18.57,16.23 18.59,16.22 18.62,16.22 C18.65,16.22 18.67,16.24 18.67,16.24 L19.27,16.86 C19.57,16.68 19.89,16.53 20.23,16.41 L19.39,15.54 C19.18,15.32 18.9,15.21 18.62,15.21 C18.35,15.21 18.07,15.31 17.86,15.52 L16.11,17.21 C16.11,17.21 13.97,16.26 12.76,15.01 C11.55,13.76 10.67,11.59 10.67,11.59 L12.42,9.9 C12.85,9.48 12.87,8.8 12.45,8.37 L8.48,4.3 C8.27,4.09 7.99,3.98 7.71,3.98 C7.44,3.98 7.16,4.08 6.95,4.29 L4.33,6.82 C4.08,7.07 3.97,7.41 4.01,7.76 C4.63,12.98 9.57,18.08 9.57,18.08 C9.57,18.08 12.37,20.97 16.01,22.75 C16,22.67 15.99,22.58 15.99,22.49 Z" id="Path" fill="#101828" fill-rule="nonzero"></path>
                        <path d="M22.49,18 C24.97,18 26.99,20.02 26.99,22.5 C26.99,24.98 24.97,27 22.49,27 C20.01,27 17.99,24.98 17.99,22.5 C17.99,20.02 20.01,18 22.49,18 L22.49,18 Z M22.49,17 C19.45,17 16.99,19.46 16.99,22.5 C16.99,25.54 19.45,28 22.49,28 C25.53,28 27.99,25.54 27.99,22.5 C27.99,19.46 25.53,17 22.49,17 L22.49,17 Z" id="Shape" fill="#101828" fill-rule="nonzero"></path>
                        <rect id="Rectangle" fill="#101828" fill-rule="nonzero" x="22" y="21.49" width="1" height="4"></rect>
                        <rect id="Rectangle" fill="#101828" fill-rule="nonzero" x="22" y="19.49" width="1" height="1"></rect>
                        <rect id="Rectangle" x="0" y="0" width="32" height="32"></rect>
                    </g>
                </g>
            </g>
        </g>
    </g>
</svg>