<?xml version="1.0" encoding="UTF-8"?>
<svg width="32px" height="32px" viewBox="0 0 32 32" version="1.1" xmlns="http://www.w3.org/2000/svg" xmlns:xlink="http://www.w3.org/1999/xlink">
    <!-- Generator: Sketch 57.1 (83088) - https://sketch.com -->
    <title>122-B32px</title>
    <desc>Created with Sketch.</desc>
    <g id="122-B32px" stroke="none" stroke-width="1" fill="none" fill-rule="evenodd">
        <g>
            <path d="M15.53,5.97 L16.64,6.67 L15.53,7.37 L15.53,5.97 L15.53,5.97 Z M14.53,4.17 L14.53,9.17 L18.53,6.67 L14.53,4.17 L14.53,4.17 Z" id="Shape" fill="#101828" fill-rule="nonzero"></path>
            <path d="M16.53,24.8 L16.53,26.19 L15.42,25.49 L16.53,24.8 L16.53,24.8 Z M17.53,23 L13.53,25.5 L17.53,28 L17.53,23 L17.53,23 Z" id="Shape" fill="#101828" fill-rule="nonzero"></path>
            <path d="M11.4,10.52 L13.68,12.88 L12.69,13.84 L12.21,14.31 L12.46,14.93 C12.53,15.1 13.15,16.61 14.08,17.56 C15.01,18.52 16.49,19.19 16.66,19.26 L17.28,19.53 L17.76,19.06 L18.75,18.1 L21.03,20.46 L19.54,21.9 C16.42,21.33 13.41,18.25 13.38,18.22 C13.35,18.19 10.34,15.05 9.91,11.93 L11.4,10.52 L11.4,10.52 Z M11.41,9.41 C11.23,9.41 11.04,9.48 10.9,9.62 L9.13,11.33 C8.96,11.5 8.88,11.73 8.91,11.97 C9.33,15.49 12.66,18.94 12.66,18.94 C12.66,18.94 15.97,22.36 19.52,22.93 C19.56,22.94 19.59,22.94 19.63,22.94 C19.82,22.94 20.01,22.86 20.15,22.73 L21.92,21.02 C22.21,20.74 22.22,20.27 21.94,19.99 L19.28,17.24 C19.14,17.07 18.95,17 18.76,17 C18.58,17 18.39,17.07 18.25,17.21 L17.07,18.35 C17.07,18.35 15.62,17.71 14.81,16.86 C13.99,16.02 13.4,14.55 13.4,14.55 L14.58,13.41 C14.87,13.13 14.88,12.66 14.6,12.38 L11.94,9.63 C11.79,9.48 11.6,9.41 11.41,9.41 L11.41,9.41 Z" id="Shape" fill="#101828" fill-rule="nonzero"></path>
            <g id="Group" transform="translate(5.000000, 6.000000)" fill="#101828" fill-rule="nonzero">
                <path d="M14.51,1 L13.46,1.67 C16.99,2.89 19.53,6.23 19.53,10.17 C19.53,14.45 16.52,18.04 12.51,18.94 L12.5,19.97 C17.07,19.05 20.53,15.01 20.53,10.17 C20.53,6.07 18.05,2.54 14.51,1 Z" id="Path"></path>
                <path d="M8.09,18.82 C4.31,17.75 1.53,14.28 1.53,10.17 C1.53,5.55 5.04,1.73 9.53,1.23 L9.53,0.22 C4.48,0.72 0.53,4.99 0.53,10.17 C0.53,14.44 3.23,18.09 7,19.52 L8.09,18.82 Z" id="Path"></path>
            </g>
            <rect id="Rectangle" x="0" y="0" width="32" height="32"></rect>
        </g>
    </g>
</svg>