<?xml version="1.0" encoding="UTF-8"?>
<svg width="80px" height="80px" viewBox="0 0 80 80" version="1.1" xmlns="http://www.w3.org/2000/svg" xmlns:xlink="http://www.w3.org/1999/xlink">
    <!-- Generator: Sketch 57.1 (83088) - https://sketch.com -->
    <title>070-B80px</title>
    <desc>Created with Sketch.</desc>
    <g id="070-B80px" stroke="none" stroke-width="1" fill="none" fill-rule="evenodd">
        <g>
            <path d="M40,56.25 C40,55.55 40.05,54.85 40.15,54.175 C32.075,49.975 25.8,43.6 25.725,43.5 C25.6,43.375 13.925,31.15 12.5,19.125 C12.5,19.05 12.5,18.925 12.575,18.85 L19.125,12.525 C19.175,12.475 19.225,12.45 19.3,12.45 C19.35,12.45 19.4,12.5 19.4,12.5 L29.275,22.7 C29.35,22.775 29.325,22.9 29.25,23 L24.875,27.225 L23.675,28.4 L24.3,29.95 C24.4,30.2 26.725,35.875 30.05,39.3 C33.375,42.725 38.975,45.25 39.225,45.35 L40.775,46.025 L41.975,44.85 L46.35,40.625 C46.4,40.575 46.45,40.55 46.525,40.55 C46.6,40.55 46.65,40.6 46.65,40.6 L48.15,42.15 C48.9,41.7 49.7,41.325 50.525,41.025 L48.425,38.85 C47.9,38.3 47.2,38.025 46.5,38.025 C45.825,38.025 45.125,38.275 44.6,38.8 L40.225,43.025 C40.225,43.025 34.875,40.65 31.85,37.525 C28.825,34.4 26.625,28.975 26.625,28.975 L31,24.75 C32.075,23.7 32.125,22 31.075,20.925 L21.2,10.775 C20.675,10.225 19.975,9.95 19.275,9.95 C18.6,9.95 17.9,10.2 17.375,10.725 L10.825,17.05 C10.2,17.675 9.925,18.55 10.025,19.425 C11.575,32.475 23.925,45.225 23.925,45.225 C23.925,45.225 30.95,52.475 40.025,56.9 C40.025,56.7 40,56.475 40,56.25 Z" id="Path" fill="#101828" fill-rule="nonzero"></path>
            <path d="M56.25,45 C62.45,45 67.5,50.05 67.5,56.25 C67.5,62.45 62.45,67.5 56.25,67.5 C50.05,67.5 45,62.45 45,56.25 C45,50.05 50.05,45 56.25,45 L56.25,45 Z M56.25,42.5 C48.65,42.5 42.5,48.65 42.5,56.25 C42.5,63.85 48.65,70 56.25,70 C63.85,70 70,63.85 70,56.25 C70,48.65 63.85,42.5 56.25,42.5 L56.25,42.5 Z" id="Shape" fill="#101828" fill-rule="nonzero"></path>
            <polygon id="Path" fill="#101828" fill-rule="nonzero" points="55.1 61.45 50.325 56.25 52.175 54.575 55.1 57.75 60.325 52.05 62.175 53.75"></polygon>
            <rect id="Rectangle" x="0" y="0" width="80" height="80"></rect>
        </g>
    </g>
</svg>