<?xml version="1.0" encoding="UTF-8"?>
<svg width="56px" height="56px" viewBox="0 0 56 56" version="1.1" xmlns="http://www.w3.org/2000/svg" xmlns:xlink="http://www.w3.org/1999/xlink">
    <!-- Generator: Sketch 57.1 (83088) - https://sketch.com -->
    <title>186-W56px</title>
    <desc>Created with Sketch.</desc>
    <g id="NEW_icons" stroke="none" stroke-width="1" fill="none" fill-rule="evenodd">
        <g id="icons_UD_new-Copy" transform="translate(-532.000000, -23855.000000)">
            <g id="186-W56px" transform="translate(532.000000, 23855.000000)">
                <circle id="Oval-Copy-1247" fill="#101828" cx="28" cy="28" r="28"></circle>
                <g id="186-B32px-Copy-4" transform="translate(8.000000, 8.000000)">
                    <path d="M26.875,16.25 C27.2125,16.25 27.5,15.975 27.5,15.625 C27.5,15.275 27.225,15 26.875,15 C26.525,15 26.25,15.275 26.25,15.625 C26.2625,15.975 26.5375,16.25 26.875,16.25" id="Path" fill="#FFFFFF" fill-rule="nonzero"></path>
                    <path d="M21.875,16.25 C22.2125,16.25 22.5,15.975 22.5,15.625 C22.5,15.275 22.225,15 21.875,15 C21.525,15 21.25,15.275 21.25,15.625 C21.2625,15.975 21.5375,16.25 21.875,16.25" id="Path" fill="#FFFFFF" fill-rule="nonzero"></path>
                    <path d="M24.375,16.25 C24.7125,16.25 25,15.975 25,15.625 C25,15.275 24.725,15 24.375,15 C24.025,15 23.75,15.275 23.75,15.625 C23.7625,15.975 24.0375,16.25 24.375,16.25" id="Path" fill="#FFFFFF" fill-rule="nonzero"></path>
                    <rect id="Rectangle" fill="#FFFFFF" fill-rule="nonzero" x="8.75" y="10" width="5" height="1.25"></rect>
                    <rect id="Rectangle" fill="#FFFFFF" fill-rule="nonzero" x="8.75" y="12.5" width="6.25" height="1.25"></rect>
                    <rect id="Rectangle" fill="#FFFFFF" fill-rule="nonzero" x="8.75" y="15" width="6.25" height="1.25"></rect>
                    <rect id="Rectangle" fill="#FFFFFF" fill-rule="nonzero" x="8.75" y="17.5" width="6.25" height="1.25"></rect>
                    <rect id="Rectangle" fill="#FFFFFF" fill-rule="nonzero" x="8.75" y="20" width="3.75" height="1.25"></rect>
                    <path d="M30,11.25 L30,21.25 L18.75,21.25 L18.75,11.25 L30,11.25 L30,11.25 Z M30,10 L18.75,10 C18.0625,10 17.5,10.5625 17.5,11.25 L17.5,21.25 C17.5,21.9375 18.0625,22.5 18.75,22.5 L30,22.5 C30.6875,22.5 31.25,21.9375 31.25,21.25 L31.25,11.25 C31.25,10.5625 30.6875,10 30,10 L30,10 Z" id="Shape" fill="#FFFFFF" fill-rule="nonzero"></path>
                    <path d="M21.2625,25.9625 L25.0625,28.1125 L24.7875,28.275 L23.7,28.9125 L24.325,30 L25.9125,32.675 L24.8375,33.3 L23.2375,30.6125 L22.6,29.55 L21.525,30.175 L21.25,30.325 L21.2625,25.9625 L21.2625,25.9625 Z M20.0125,23.8125 L20,32.5 L22.1625,31.25 L24.3875,35 L27.625,33.1125 L25.4,29.35 L27.5625,28.1 L20.0125,23.8125 L20.0125,23.8125 Z" id="Shape" fill="#FFFFFF" fill-rule="nonzero"></path>
                    <path d="M33.7125,6.25 L6.2875,6.25 C5.575,6.25 5,6.825 5,7.5375 L5,26.2 C5,26.925 5.575,27.5 6.2875,27.5 L18.75,27.5 L18.75,26.225 L6.25,26.2125 L6.2875,7.5 L33.7,7.5 L33.75,7.5375 L33.7125,26.25 L26.5375,26.2375 L28.75,27.5 L33.7125,27.5 C34.425,27.5 35,26.925 35,26.2125 L35,7.5375 C35,6.825 34.425,6.25 33.7125,6.25 Z" id="Path" fill="#FFFFFF" fill-rule="nonzero"></path>
                    <rect id="Rectangle" x="0" y="0" width="40" height="40"></rect>
                </g>
            </g>
        </g>
    </g>
</svg>