<?xml version="1.0" encoding="UTF-8"?>
<svg width="80px" height="80px" viewBox="0 0 80 80" version="1.1" xmlns="http://www.w3.org/2000/svg" xmlns:xlink="http://www.w3.org/1999/xlink">
    <!-- Generator: Sketch 57.1 (83088) - https://sketch.com -->
    <title>162-B80px</title>
    <desc>Created with Sketch.</desc>
    <g id="162-B80px" stroke="none" stroke-width="1" fill="none" fill-rule="evenodd">
        <g>
            <path d="M67.5,35 L67.5,45 L12.5,45 L12.5,35 L67.5,35 L67.5,35 Z M67.625,32.5 L12.375,32.5 C11.05,32.5 10,33.575 10,34.875 L10,45.15 C10,46.45 11.05,47.5 12.375,47.5 L67.65,47.5 C68.95,47.5 70.025,46.45 70.025,45.125 L70.025,34.85 C70,33.575 68.95,32.5 67.625,32.5 L67.625,32.5 Z" id="Shape" fill="#101828" fill-rule="nonzero"></path>
            <rect id="Rectangle" fill="#101828" fill-rule="nonzero" x="17.5" y="37.5" width="10" height="5"></rect>
            <polygon id="Path" fill="#101828" fill-rule="nonzero" points="62.5 45 52.5 45 52.5 50 62.5 50"></polygon>
            <polygon id="Path" fill="#101828" fill-rule="nonzero" points="27.5 45 17.5 45 17.5 50 27.5 50"></polygon>
            <polygon id="Path" fill="#101828" fill-rule="nonzero" points="42.5 40 37.5 40 37.5 42.5 42.5 42.5"></polygon>
            <polygon id="Path" fill="#101828" fill-rule="nonzero" points="52.5 40 47.5 40 47.5 42.5 52.5 42.5"></polygon>
            <polygon id="Path" fill="#101828" fill-rule="nonzero" points="62.5 40 57.5 40 57.5 42.5 62.5 42.5"></polygon>
            <rect id="Rectangle" x="0" y="0" width="80" height="80"></rect>
        </g>
    </g>
</svg>