<?xml version="1.0" encoding="UTF-8"?>
<svg width="56px" height="56px" viewBox="0 0 56 56" version="1.1" xmlns="http://www.w3.org/2000/svg" xmlns:xlink="http://www.w3.org/1999/xlink">
    <!-- Generator: Sketch 56.3 (81716) - https://sketch.com -->
    <title>018-G56px</title>
    <desc>Created with Sketch.</desc>
    <g id="NEW_icons" stroke="none" stroke-width="1" fill="none" fill-rule="evenodd">
        <g id="icons_UD_new-Copy" transform="translate(-446.000000, -2608.000000)">
            <g id="018-G56px" transform="translate(446.000000, 2608.000000)">
                <circle id="Oval-Copy-194" fill="#E3E8EC" cx="28" cy="28" r="28"></circle>
                <g id="018-B32px-Copy-4" transform="translate(8.000000, 8.000000)">
                    <g id="Group" transform="translate(15.000000, 26.250000)" fill="#101828" fill-rule="nonzero">
                        <path d="M4.325,3.025 C4.325,1.9125 3.525,1.2 2.2875,1.2 C0.925,1.2 0.2,2.175 0.2,3.0875 C0.2,3.2875 0.225,3.4625 0.2625,3.65 L0.275,3.75 L1.5625,3.65 L1.5375,3.525 C1.5125,3.4 1.5,3.3 1.5,3.1375 C1.5,2.6875 1.8,2.4125 2.2875,2.4125 C2.75,2.4125 3.05,2.7 3.05,3.15 C3.05,3.5125 2.9,3.7875 2.4125,4.2875 L0.2,6.5375 L0.2,7.5 L4.325,7.5 L4.325,6.2375 L2.2,6.2375 L3.3,5.125 C4.075,4.3375 4.325,3.825 4.325,3.025 Z" id="Path"></path>
                        <path d="M7.5,1.25 C6.125,1.25 5,2.375 5,3.75 L5,5 C5,6.375 6.125,7.5 7.5,7.5 C8.875,7.5 10,6.375 10,5 L10,3.75 C10,2.375 8.875,1.25 7.5,1.25 Z M8.75,5 C8.75,5.6875 8.1875,6.25 7.5,6.25 C6.8125,6.25 6.25,5.6875 6.25,5 L6.25,3.75 C6.25,3.0625 6.8125,2.5 7.5,2.5 C8.1875,2.5 8.75,3.0625 8.75,3.75 L8.75,5 Z" id="Shape"></path>
                        <path d="M13.1,1.25 C11.725,1.25 10.6,2.375 10.6,3.75 L10.6,5 C10.6,6.375 11.725,7.5 13.1,7.5 C14.475,7.5 15.6,6.375 15.6,5 L15.6,3.75 C15.6,2.375 14.4875,1.25 13.1,1.25 Z M14.35,5 C14.35,5.6875 13.7875,6.25 13.1,6.25 C12.4125,6.25 11.85,5.6875 11.85,5 L11.85,3.75 C11.85,3.0625 12.4125,2.5 13.1,2.5 C13.7875,2.5 14.35,3.0625 14.35,3.75 L14.35,5 Z" id="Shape"></path>
                        <polygon id="Path" points="18.75 3.75 18.75 2.5 17.5 2.5 17.5 3.75 16.25 3.75 16.25 5 17.5 5 17.5 6.25 18.75 6.25 18.75 5 20 5 20 3.75"></polygon>
                    </g>
                    <path d="M13.75,30.3875 C11.3375,29.425 9.325,27.7125 7.9875,25.525 L11.375,25.525 C11.9375,27.3625 12.7625,28.9125 13.75,30.0875 L13.75,28.75 L13.75,27.925 C13.35,27.2125 12.9875,26.4 12.7,25.525 L15.825,25.525 L25.4875,25.525 L28.2625,25.525 C28.1125,25.775 27.95,26.0125 27.775,26.25 L29.2875,26.25 C30.525,24.25 31.25,21.9 31.25,19.375 C31.25,12.125 25.375,6.25 18.125,6.25 C18.125,6.25 18.1125,6.25 18.1125,6.25 C18.1125,6.25 18.1125,6.25 18.1,6.25 C18.0875,6.25 18.0875,6.25 18.075,6.25 C10.85,6.275 5,12.1375 5,19.375 C5,25.0875 8.65,29.9375 13.75,31.7375 L13.75,30.3875 Z M28.925,24.275 L25.1625,24.275 C25.475,22.95 25.6625,21.5 25.7,20 L29.9625,20 C29.8875,21.5125 29.525,22.9625 28.925,24.275 Z M29.9625,18.75 L25.7,18.75 C25.6625,17.25 25.475,15.8 25.1625,14.475 L28.925,14.475 C29.525,15.7875 29.8875,17.2375 29.9625,18.75 Z M28.2625,13.225 L24.8375,13.225 C24.2,11.15 23.2375,9.4125 22.075,8.1875 C24.675,9.1125 26.85,10.9 28.2625,13.225 Z M18.75,7.5625 C20.7375,7.95 22.4875,10.15 23.5125,13.225 L18.75,13.225 L18.75,7.5625 Z M18.75,14.475 L23.875,14.475 C24.2125,15.8 24.4125,17.2375 24.45,18.75 L18.75,18.75 L18.75,14.475 Z M18.75,20 L24.45,20 C24.4,21.5125 24.2,22.95 23.875,24.275 L18.75,24.275 L18.75,20 Z M17.5,24.275 L12.3375,24.275 C12,22.95 11.8,21.5125 11.75,20 L17.5,20 L17.5,24.275 Z M17.5,18.75 L11.75,18.75 C11.8,17.2375 12,15.8 12.325,14.475 L17.5,14.475 L17.5,18.75 Z M17.5,7.5625 L17.5,13.225 L12.7,13.225 C13.725,10.1375 15.4875,7.925 17.5,7.5625 Z M14.1125,8.2125 C12.9625,9.4375 12.0125,11.1625 11.375,13.225 L7.9875,13.225 C9.3875,10.925 11.5375,9.1375 14.1125,8.2125 Z M7.325,14.475 L11.05,14.475 C10.725,15.8 10.55,17.25 10.5,18.75 L6.2875,18.75 C6.3625,17.2375 6.725,15.7875 7.325,14.475 Z M6.2875,20 L10.5,20 C10.5375,21.5 10.725,22.95 11.0375,24.275 L7.325,24.275 C6.725,22.9625 6.3625,21.5125 6.2875,20 Z" id="Shape" fill="#101828" fill-rule="nonzero"></path>
                    <rect id="Rectangle" x="0" y="0" width="40" height="40"></rect>
                </g>
            </g>
        </g>
    </g>
</svg>