<?xml version="1.0" encoding="UTF-8"?>
<svg width="80px" height="80px" viewBox="0 0 80 80" version="1.1" xmlns="http://www.w3.org/2000/svg" xmlns:xlink="http://www.w3.org/1999/xlink">
    <!-- Generator: Sketch 57.1 (83088) - https://sketch.com -->
    <title>154-G80px</title>
    <desc>Created with Sketch.</desc>
    <g id="NEW_icons" stroke="none" stroke-width="1" fill="none" fill-rule="evenodd">
        <g id="icons_UD_new-Copy" transform="translate(-768.000000, -19809.000000)">
            <g id="154-G80px" transform="translate(768.000000, 19809.000000)">
                <circle id="Oval-Copy-918" fill="#E3E8EC" cx="40" cy="40" r="40"></circle>
                <g id="154-B32px-Copy-8" transform="translate(12.000000, 12.000000)">
                    <path d="M37.6775,19.25 L37.6775,22.75 L9.6775,22.75 L9.6775,19.25 L37.6775,19.25 L37.6775,19.25 Z M39.4275,17.5 L7.9275,17.5 L7.9275,24.5 L39.4275,24.5 L39.4275,17.5 L39.4275,17.5 Z" id="Shape" fill="#101828" fill-rule="nonzero"></path>
                    <path d="M36.2075,8.75 L36.855,12.18 L9.345,17.325 L8.6975,13.895 L36.2075,8.75 L36.2075,8.75 L36.2075,8.75 Z M36.2075,7 C36.1025,7 35.9975,7.0175 35.875,7.035 L8.365,12.18 C7.42,12.355 6.79,13.265 6.965,14.21 L7.9275,19.355 L38.885,13.5625 L37.9225,8.4175 C37.7825,7.5775 37.0475,7 36.2075,7 L36.2075,7 Z" id="Shape" fill="#101828" fill-rule="nonzero"></path>
                    <polygon id="Rectangle" fill="#101828" fill-rule="nonzero" transform="translate(12.449056, 14.969215) rotate(-55.502690) translate(-12.449056, -14.969215) " points="8.74759342 14.0941646 16.1505176 14.0941646 16.1505176 15.8442649 8.74759342 15.8442649"></polygon>
                    <polygon id="Rectangle" fill="#101828" fill-rule="nonzero" transform="translate(19.339481, 13.680529) rotate(-55.598003) translate(-19.339481, -13.680529) " points="15.6294532 12.8055222 23.0495088 12.8055222 23.0495088 14.5555353 15.6294532 14.5555353"></polygon>
                    <polygon id="Rectangle" fill="#101828" fill-rule="nonzero" transform="translate(26.214314, 12.390518) rotate(-55.502690) translate(-26.214314, -12.390518) " points="22.5041014 11.5154679 29.9245266 11.5154679 29.9245266 13.2655681 22.5041014 13.2655681"></polygon>
                    <polygon id="Rectangle" fill="#101828" fill-rule="nonzero" transform="translate(33.100890, 11.110956) rotate(-55.502690) translate(-33.100890, -11.110956) " points="29.3906769 10.2359064 36.8111021 10.2359064 36.8111021 11.9860066 29.3906769 11.9860066"></polygon>
                    <polygon id="Path" fill="#101828" fill-rule="nonzero" points="11.165 24.3075 9.9225 23.065 15.1725 17.8325 16.415 19.075"></polygon>
                    <polygon id="Path" fill="#101828" fill-rule="nonzero" points="18.165 24.3075 16.9225 23.065 22.1725 17.8325 23.415 19.075"></polygon>
                    <polygon id="Path" fill="#101828" fill-rule="nonzero" points="25.165 24.3075 23.9225 23.065 29.1725 17.8325 30.415 19.075"></polygon>
                    <polygon id="Path" fill="#101828" fill-rule="nonzero" points="32.165 24.3075 30.9225 23.065 36.1725 17.8325 37.415 19.075"></polygon>
                    <path d="M37.8,28 L38.2025,29.54 L38.465,30.52 L39.445,30.7825 C40.0575,30.94 40.635,31.185 41.1775,31.5 L42.0525,32.0075 L42.9275,31.5 L44.2925,30.7125 L44.5375,30.9575 L43.75,32.3225 L43.2425,33.1975 L43.75,34.0725 C44.065,34.615 44.31,35.1925 44.4675,35.805 L44.73,36.785 L45.71,37.0475 L47.25,37.45 L47.25,37.8 L45.7275,38.2025 L44.7475,38.465 L44.485,39.445 C44.3275,40.0575 44.0825,40.6525 43.7675,41.195 L43.26,42.07 L43.7675,42.945 L44.555,44.31 L44.31,44.555 L42.945,43.7675 L42.07,43.26 L41.195,43.7675 C40.6525,44.0825 40.075,44.3275 39.445,44.485 L38.465,44.7475 L38.2025,45.7275 L37.8,47.25 L37.45,47.25 L37.0475,45.7275 L36.785,44.7475 L35.805,44.485 C35.1925,44.3275 34.615,44.0825 34.0725,43.7675 L33.1975,43.26 L32.3225,43.7675 L30.9575,44.555 L30.7125,44.31 L31.5,42.945 L32.0075,42.07 L31.5,41.195 C31.185,40.6525 30.94,40.075 30.7825,39.4625 L30.52,38.4825 L29.54,38.22 L28,37.8 L28,37.45 L29.54,37.0475 L30.52,36.785 L30.7825,35.805 C30.94,35.1925 31.185,34.615 31.5,34.0725 L32.0075,33.1975 L31.5,32.3225 L30.7125,30.94 L30.9575,30.695 L32.3225,31.5 L33.1975,32.0075 L34.0725,31.5 C34.615,31.185 35.1925,30.94 35.805,30.7825 L36.785,30.52 L37.0475,29.54 L37.45,28 L37.8,28 L37.8,28 Z M38.3075,26.25 L36.96,26.25 C36.47,26.25 36.0325,26.5825 35.8925,27.0725 L35.35,29.085 C34.58,29.295 33.8625,29.5925 33.1975,29.9775 L31.395,28.9275 C31.22,28.8225 31.0275,28.7875 30.8525,28.7875 C30.5725,28.7875 30.2925,28.8925 30.0825,29.1025 L29.1375,30.0475 C28.7875,30.3975 28.7175,30.94 28.9625,31.3775 L30.0125,33.18 C29.6275,33.845 29.33,34.58 29.12,35.3325 L27.1075,35.875 C26.5825,36.015 26.25,36.4525 26.25,36.9425 L26.25,38.29 C26.25,38.78 26.5825,39.2175 27.0725,39.3575 L29.085,39.9 C29.295,40.67 29.5925,41.3875 29.9775,42.07 L28.9275,43.8725 C28.6825,44.31 28.7525,44.8525 29.1025,45.2025 L30.0475,46.1475 C30.2575,46.3575 30.5375,46.4625 30.8175,46.4625 C31.01,46.4625 31.2025,46.41 31.36,46.3225 L33.1625,45.2725 C33.8275,45.6575 34.5625,45.9725 35.3325,46.165 L35.875,48.1775 C35.9975,48.65 36.435,49 36.9425,49 L38.29,49 C38.78,49 39.2175,48.6675 39.3575,48.1775 L39.9,46.165 C40.67,45.955 41.405,45.6575 42.07,45.2725 L43.8725,46.305 C44.0475,46.41 44.24,46.445 44.415,46.445 C44.695,46.445 44.975,46.34 45.185,46.13 L46.13,45.185 C46.48,44.835 46.55,44.2925 46.305,43.855 L45.2725,42.0525 C45.6575,41.37 45.9725,40.6525 46.165,39.8825 L48.1775,39.34 C48.65,39.2175 49,38.78 49,38.2725 L49,36.925 C49,36.435 48.6675,35.9975 48.1775,35.8575 L46.165,35.315 C45.955,34.545 45.6575,33.81 45.2725,33.145 L46.3225,31.3425 C46.5675,30.905 46.4975,30.3625 46.1475,30.0125 L45.2025,29.0675 C44.9925,28.8575 44.7125,28.7525 44.4325,28.7525 C44.24,28.7525 44.0475,28.805 43.89,28.8925 L42.0875,29.9425 C41.4225,29.5575 40.6875,29.26 39.9175,29.05 L39.375,27.0375 C39.235,26.5825 38.7975,26.25 38.3075,26.25 L38.3075,26.25 Z" id="Shape" fill="#101828" fill-rule="nonzero"></path>
                    <path d="M37.625,35 C39.0775,35 40.25,36.19 40.25,37.66 C40.25,39.13 39.0775,40.32 37.625,40.32 C36.1725,40.32 35,39.13 35,37.66 C35,36.19 36.1725,35 37.625,35 L37.625,35 Z M37.625,33.25 C35.21,33.25 33.25,35.2275 33.25,37.66 C33.25,40.0925 35.21,42.07 37.625,42.07 C40.04,42.07 42,40.0925 42,37.66 C42,35.2275 40.04,33.25 37.625,33.25 L37.625,33.25 Z" id="Shape" fill="#101828" fill-rule="nonzero"></path>
                    <path d="M24.5,38.395 L24.5,36.8375 C24.5,36.82 24.5175,36.785 24.5175,36.7675 L9.6775,36.7675 L9.6775,19.32 L37.6775,19.32 L37.6775,24.5 L38.4125,24.5 C38.4475,24.5 38.4825,24.5175 38.5175,24.5175 L38.5175,24.5 L39.445,24.5 L39.445,17.5875 L7.945,17.5875 L7.945,36.785 C7.945,37.7475 8.7325,38.535 9.695,38.535 L24.535,38.535 C24.5175,38.4825 24.5,38.4475 24.5,38.395 Z" id="Path" fill="#101828" fill-rule="nonzero"></path>
                    <rect id="Rectangle" x="0" y="0" width="56" height="56"></rect>
                </g>
            </g>
        </g>
    </g>
</svg>