<?xml version="1.0" encoding="UTF-8"?>
<svg width="32px" height="32px" viewBox="0 0 32 32" version="1.1" xmlns="http://www.w3.org/2000/svg" xmlns:xlink="http://www.w3.org/1999/xlink">
    <!-- Generator: Sketch 57.1 (83088) - https://sketch.com -->
    <title>156-B32px</title>
    <desc>Created with Sketch.</desc>
    <g id="156-B32px" stroke="none" stroke-width="1" fill="none" fill-rule="evenodd">
        <g>
            <path d="M26.98,9 L14.86,9 C14.94,9.33 15,9.66 15,10 L26.98,10 L27,10.02 L26.98,21.02 L5,21 L5.02,10 L7,10 C7,9.66 7.06,9.33 7.14,9 L5.02,9 C4.46,9 4,9.45 4,10.02 L4,21 C4,21.56 4.46,22.02 5.02,22.02 L26.98,22.02 C27.54,22.02 28,21.56 28,21 L28,10.02 C28,9.45 27.54,9 26.98,9 Z" id="Path" fill="#101828" fill-rule="nonzero"></path>
            <path d="M11,8 C11.53,8 12.04,8.21 12.41,8.59 C12.78,8.97 13,9.47 13,10 C13,10.53 12.79,11.04 12.41,11.41 C12.04,11.79 11.53,12 11,12 C10.47,12 9.96,11.79 9.59,11.41 C8.81,10.63 8.81,9.36 9.59,8.58 C9.96,8.21 10.47,8 11,8 L11,8 Z M11,7 C10.23,7 9.46,7.29 8.88,7.88 C7.71,9.05 7.71,10.95 8.88,12.12 C9.46,12.71 10.23,13 11,13 C11.77,13 12.54,12.71 13.12,12.12 C14.29,10.95 14.29,9.05 13.12,7.88 C12.54,7.29 11.77,7 11,7 L11,7 Z" id="Shape" fill="#101828" fill-rule="nonzero"></path>
            <polygon id="Path" fill="#101828" fill-rule="nonzero" points="15.94 17.01 10.91 12.85 11.54 12.08 15.87 15.66 16.51 15.02 12.96 10.66 13.74 10.03 17.86 15.09"></polygon>
            <path d="M19.48,18.14 C19.47,18.14 19.47,18.14 19.46,18.14 C18.29,18.13 17.44,17.28 17.41,17.24 L16.22,16.05 L16.93,15.34 L18.12,16.53 C18.13,16.54 18.72,17.13 19.48,17.13 C19.48,17.13 19.48,17.13 19.48,17.13 C19.91,17.13 20.34,16.93 20.73,16.53 C22.31,14.95 23.92,15.48 24.54,15.98 L23.92,16.76 C23.81,16.67 22.74,15.93 21.44,17.23 C20.84,17.84 20.18,18.14 19.48,18.14 Z" id="Path" fill="#101828" fill-rule="nonzero"></path>
            <path d="M15.98,21.95 C11.67,21.95 8.44,22.61 7,22.97 L7,24 C8.23,23.68 11.54,22.95 15.98,22.95 C20.46,22.95 23.79,23.69 25,24.01 L25,22.98 C23.57,22.61 20.33,21.95 15.98,21.95 Z" id="Path" fill="#101828" fill-rule="nonzero"></path>
            <rect id="Rectangle" x="0" y="0" width="32" height="32"></rect>
        </g>
    </g>
</svg>