<?xml version="1.0" encoding="UTF-8"?>
<svg width="80px" height="80px" viewBox="0 0 80 80" version="1.1" xmlns="http://www.w3.org/2000/svg" xmlns:xlink="http://www.w3.org/1999/xlink">
    <!-- Generator: Sketch 57.1 (83088) - https://sketch.com -->
    <title>226-C80px</title>
    <desc>Created with Sketch.</desc>
    <g id="NEW_icons" stroke="none" stroke-width="1" fill="none" fill-rule="evenodd">
        <g id="icons_UD_new-Copy" transform="translate(-1002.000000, -28851.000000)">
            <g id="226-C80px" transform="translate(1002.000000, 28851.000000)">
                <circle id="Oval-Copy-1334" fill="#FF4F12" cx="40" cy="40" r="40"></circle>
                <g id="226-B32px-Copy-9" transform="translate(12.000000, 12.000000)">
                    <path d="M47.2675,12.25 L45.5,12.25 L45.5,14 L47.25,14 L47.2675,36.75 L8.75,36.7675 L8.7325,14 L22.75,14 L22.75,12.25 L8.7325,12.25 C7.7875,12.25 7,13.0375 7,13.9825 L7,36.75 C7,37.7125 7.7875,38.5 8.7325,38.5 L47.25,38.5 C48.2125,38.5 48.9827862,37.7125 48.9827862,36.7675 L48.9827862,13.9825 C49,13.0375 48.2125,12.25 47.2675,12.25 Z" id="Path" fill="#FFFFFF" fill-rule="nonzero"></path>
                    <rect id="Rectangle" fill="#FFFFFF" fill-rule="nonzero" x="29.75" y="38.5" width="1.75" height="5.25"></rect>
                    <rect id="Rectangle" fill="#FFFFFF" fill-rule="nonzero" x="24.5" y="38.5" width="1.75" height="5.25"></rect>
                    <rect id="Rectangle" fill="#FFFFFF" fill-rule="nonzero" x="21.035" y="42" width="13.965" height="1.75"></rect>
                    <path d="M28,35.8575 C28.4725,35.8575 28.875,35.4725 28.875,34.9825 C28.875,34.4925 28.49,34.1075 28,34.1075 C27.5275,34.1075 27.125,34.4925 27.125,34.9825 C27.125,35.4725 27.51,35.8575 28,35.8575" id="Path" fill="#FFFFFF" fill-rule="nonzero"></path>
                    <path d="M42.9625,7 L25.2875,7 C24.85,7 24.5,7.3675 24.5,7.8225 L24.5,15.75 L26.25,15.75 L26.25,8.75 L42,8.75 L42,17.5 L29.5225,17.5 C29.015,17.5 28.5075,17.6575 28.0175,17.99 L26.3725,19.25 L24.5,20.5625 L24.5,22.75 L29.085,19.39 C29.225,19.3025 29.365,19.25 29.5225,19.25 L42.945,19.25 C43.4,19.25 43.75,18.8825 43.75,18.4275 L43.75,7.8225 C43.75,7.3675 43.4,7 42.9625,7 Z" id="Path" fill="#FFFFFF" fill-rule="nonzero"></path>
                    <path d="M17.5,17.5 C18.4625,17.5 19.25,18.2875 19.25,19.25 C19.25,20.2125 18.4625,21 17.5,21 C16.5375,21 15.75,20.2125 15.75,19.25 C15.75,18.2875 16.5375,17.5 17.5,17.5 L17.5,17.5 Z M17.5,15.75 C15.575,15.75 14,17.325 14,19.25 C14,21.175 15.575,22.75 17.5,22.75 C19.425,22.75 21,21.175 21,19.25 C21,17.325 19.425,15.75 17.5,15.75 L17.5,15.75 Z" id="Shape" fill="#FFFFFF" fill-rule="nonzero"></path>
                    <path d="M14,29.75 L14,28 C14,27.0375 14.7875,26.25 15.75,26.25 L19.25,26.25 C20.2125,26.25 21,27.0375 21,28 L21,29.75 L22.75,29.75 L22.75,28 C22.75,26.075 21.175,24.5 19.25,24.5 L15.75,24.5 C13.825,24.5 12.25,26.075 12.25,28 L12.25,29.75 L14,29.75 Z" id="Path" fill="#FFFFFF" fill-rule="nonzero"></path>
                    <rect id="Rectangle" fill="#FFFFFF" fill-rule="nonzero" x="8.75" y="31.5" width="38.5" height="1.75"></rect>
                    <rect id="Rectangle" x="0" y="0" width="56" height="56"></rect>
                </g>
            </g>
        </g>
    </g>
</svg>