<?xml version="1.0" encoding="UTF-8"?>
<svg width="80px" height="80px" viewBox="0 0 80 80" version="1.1" xmlns="http://www.w3.org/2000/svg" xmlns:xlink="http://www.w3.org/1999/xlink">
    <!-- Generator: Sketch 57.1 (83088) - https://sketch.com -->
    <title>231-B80px</title>
    <desc>Created with Sketch.</desc>
    <g id="231-B80px" stroke="none" stroke-width="1" fill="none" fill-rule="evenodd">
        <g>
            <path d="M44.975,27.5 C44.9,29.2 44.55,31.4 44.075,32.45 C43.375,34.025 42.1,36.025 40,37.225 C37.9,36.025 36.625,34.025 35.925,32.45 C35.45,31.375 35.1,29.175 35.025,27.5 L44.975,27.5 L44.975,27.5 Z M47.5,25 L32.5,25 L32.5,26.875 C32.5,28.725 32.875,31.8 33.625,33.5 C34.675,35.8 36.6,38.65 40,40 C43.4,38.65 45.325,35.8 46.375,33.5 C47.15,31.825 47.5,28.725 47.5,26.875 L47.5,25 L47.5,25 Z" id="Shape" fill="#101828" fill-rule="nonzero"></path>
            <path d="M67.5,20 L67.525,52.5 L12.5,52.525 L12.475,20 L67.5,20 L67.5,20 Z M67.525,17.5 L12.475,17.5 C11.125,17.5 10,18.625 10,19.975 L10,52.5 C10,53.875 11.125,55 12.475,55 L67.5,55 C68.875,55 69.9754088,53.875 69.9754088,52.525 L69.9754088,19.975 C70,18.625 68.875,17.5 67.525,17.5 L67.525,17.5 Z" id="Shape" fill="#101828" fill-rule="nonzero"></path>
            <rect id="Rectangle" fill="#101828" fill-rule="nonzero" x="12.5" y="45" width="55" height="2.5"></rect>
            <rect id="Rectangle" fill="#101828" fill-rule="nonzero" x="42.5" y="55" width="2.5" height="7.5"></rect>
            <rect id="Rectangle" fill="#101828" fill-rule="nonzero" x="35" y="55" width="2.5" height="7.5"></rect>
            <rect id="Rectangle" fill="#101828" fill-rule="nonzero" x="30.05" y="60" width="19.95" height="2.5"></rect>
            <path d="M40,51.225 C40.675,51.225 41.25,50.675 41.25,49.975 C41.25,49.275 40.7,48.725 40,48.725 C39.325,48.725 38.75,49.275 38.75,49.975 C38.75,50.675 39.325,51.225 40,51.225" id="Path" fill="#101828" fill-rule="nonzero"></path>
            <rect id="Rectangle" x="0" y="0" width="80" height="80"></rect>
        </g>
    </g>
</svg>