<?xml version="1.0" encoding="UTF-8"?>
<svg width="42px" height="42px" viewBox="0 0 42 42" version="1.1" xmlns="http://www.w3.org/2000/svg" xmlns:xlink="http://www.w3.org/1999/xlink">
    <!-- Generator: Sketch 57.1 (83088) - https://sketch.com -->
    <title>203-G40px</title>
    <desc>Created with Sketch.</desc>
    <g id="NEW_icons" stroke="none" stroke-width="1" fill="none" fill-rule="evenodd">
        <g id="icons_UD_new-Copy" transform="translate(-1526.000000, -25876.000000)">
            <g id="203-G40px" transform="translate(1527.000000, 25877.000000)">
                <circle id="Oval-Copy-1209" stroke="#E3E8EC" cx="20" cy="20" r="20"></circle>
                <g id="203-B32px-Copy" transform="translate(4.000000, 4.000000)">
                    <path d="M26.98,10 L27,10.02 L26.98,21 L5,20.98 L5.02,10 L26.98,10 L26.98,10 Z M26.98,9 L5.02,9 C4.46,9 4,9.46 4,10.02 L4,20.98 C4,21.54 4.46,22 5.02,22 L26.98,22 C27.54,22 28,21.54 28,20.98 L28,10.02 C28,9.46 27.54,9 26.98,9 L26.98,9 Z" id="Shape" fill="#101828" fill-rule="nonzero"></path>
                    <path d="M15.98,21.95 C11.67,21.95 8.44,22.61 7,22.97 L7,24 C8.24,23.68 11.54,22.95 15.98,22.95 C20.46,22.95 23.79,23.69 25,24.01 L25,22.98 C23.57,22.61 20.33,21.95 15.98,21.95 Z" id="Path" fill="#101828" fill-rule="nonzero"></path>
                    <polygon id="Path" fill="#101828" fill-rule="nonzero" points="9 13.01 9 15.01 7.97 13.01 7 13.01 7 17 8 17 8 15.31 9 16.94 9.04 17 10 17 10 13.01"></polygon>
                    <polygon id="Path" fill="#101828" fill-rule="nonzero" points="11.47 16.01 11.47 15.45 13 15.45 13 14.56 11.47 14.56 11.47 14.01 13 14.01 13 13.01 10.47 13.01 10.47 17 13 17 13 16.01"></polygon>
                    <polygon id="Path" fill="#101828" fill-rule="nonzero" points="17.39 13.01 16.9 15.3 16.39 13.01 15.39 13.01 14.86 15.3 14.39 13.01 14.39 13.01 13.39 13.01 14.35 16.9 14.38 17 15.39 17 15.88 14.7 16.39 17 17.39 17 18.39 13.01 18.39 13.01"></polygon>
                    <path d="M20.12,14.55 C19.47,14.41 19.38,14.25 19.38,14.11 C19.38,13.93 19.62,13.86 19.83,13.86 C20.11,13.86 20.31,13.98 20.48,14.26 L20.54,14.36 L21.28,13.93 L21.23,13.83 C20.96,13.28 20.51,13.01 19.84,13.01 C19.04,13.01 18.5,13.46 18.5,14.12 C18.5,14.74 18.92,15.16 19.69,15.32 C20.32,15.45 20.45,15.59 20.45,15.79 C20.45,16.01 20.25,16.15 19.93,16.15 C19.55,16.15 19.32,15.98 19.17,15.59 L19.12,15.46 L18.33,15.84 L18.36,15.94 C18.55,16.6 19.14,16.99 19.94,16.99 C20.87,16.99 21.36,16.37 21.36,15.76 C21.36,15.12 20.97,14.73 20.12,14.55 Z" id="Path" fill="#101828" fill-rule="nonzero"></path>
                    <polygon id="Path" fill="#101828" fill-rule="nonzero" points="22.99 13.51 23.99 13.51 23.99 14.51 24.99 14.51 24.99 15.51 23.99 15.51 23.99 16.51 22.99 16.51 22.99 15.51 21.99 15.51 21.99 14.51 22.99 14.51"></polygon>
                    <rect id="Rectangle" x="0" y="0" width="32" height="32"></rect>
                </g>
            </g>
        </g>
    </g>
</svg>