<?xml version="1.0" encoding="UTF-8"?>
<svg width="80px" height="80px" viewBox="0 0 80 80" version="1.1" xmlns="http://www.w3.org/2000/svg" xmlns:xlink="http://www.w3.org/1999/xlink">
    <!-- Generator: Sketch 57.1 (83088) - https://sketch.com -->
    <title>083-B80px</title>
    <desc>Created with Sketch.</desc>
    <g id="083-B80px" stroke="none" stroke-width="1" fill="none" fill-rule="evenodd">
        <g>
            <path d="M40,37.5 L40,42.5 L37.5,42.5 L37.5,37.5 L40,37.5 L40,37.5 Z M40,35 L37.5,35 C36.125,35 35,36.125 35,37.5 L35,42.5 C35,43.875 36.125,45 37.5,45 L40,45 C41.375,45 42.5,43.875 42.5,42.5 L42.5,37.5 C42.5,36.125 41.375,35 40,35 L40,35 Z" id="Shape" fill="#101828" fill-rule="nonzero"></path>
            <path d="M49.375,33.85 L49.375,33.85 C49.975,36.65 50.45,41.075 49.375,46.125 L42.425,41.9 L42.425,38.05 L49.375,33.85 C49.35,33.85 49.35,33.85 49.375,33.85 L49.375,33.85 Z M49.375,31.35 C48.925,31.35 48.475,31.475 48.05,31.725 L39.95,36.65 L39.95,43.325 L48.1,48.275 C48.5,48.525 48.95,48.65 49.4,48.65 C50.5,48.65 51.575,47.925 51.825,46.725 C53.025,41.175 52.5,36.375 51.875,33.35 C51.575,32.125 50.5,31.35 49.375,31.35 L49.375,31.35 Z" id="Shape" fill="#101828" fill-rule="nonzero"></path>
            <path d="M28.125,31.35 L28.125,33.85 L35,38.075 L35,41.95 L28.15,46.2 C27.05,41.1 27.525,36.675 28.1,33.85 C28.1,33.85 28.1,33.85 28.125,33.85 L28.125,31.35 L28.125,31.35 Z M28.125,31.35 C27,31.35 25.925,32.125 25.675,33.35 C25.05,36.375 24.525,41.175 25.725,46.725 C25.975,47.9 27.025,48.65 28.125,48.65 C28.55,48.65 29,48.525 29.4,48.275 L37.5,43.325 L37.5,36.65 L29.425,31.725 C29.025,31.475 28.55,31.35 28.125,31.35 L28.125,31.35 Z" id="Shape" fill="#101828" fill-rule="nonzero"></path>
            <polygon id="Path" fill="#101828" fill-rule="nonzero" points="37.5 38.75 32.5 38.75 32.5 41.25 37.5 41.25"></polygon>
            <polygon id="Path" fill="#101828" fill-rule="nonzero" points="45 38.75 40 38.75 40 41.25 45 41.25"></polygon>
            <path d="M25,37.5 L25,42.5 L20,42.5 L20,37.5 L25,37.5 L25,37.5 Z M25,35 L20,35 C18.625,35 17.5,36.125 17.5,37.5 L17.5,42.5 C17.5,43.875 18.625,45 20,45 L25,45 C26.375,45 27.5,43.875 27.5,42.5 L27.5,37.5 C27.5,36.125 26.375,35 25,35 L25,35 Z" id="Shape" fill="#101828" fill-rule="nonzero"></path>
            <path d="M57.5,37.5 L57.5,42.5 L52.5,42.5 L52.5,37.5 L57.5,37.5 L57.5,37.5 Z M57.5,35 L52.5,35 C51.125,35 50,36.125 50,37.5 L50,42.5 C50,43.875 51.125,45 52.5,45 L57.5,45 C58.875,45 60,43.875 60,42.5 L60,37.5 C60,36.125 58.875,35 57.5,35 L57.5,35 Z" id="Shape" fill="#101828" fill-rule="nonzero"></path>
            <g id="Group" transform="translate(20.000000, 10.000000)" fill="#101828" fill-rule="nonzero">
                <path d="M35,56.75 C35,57.2 34.7,57.5 34.45,57.5 L3.25,57.5 C2.85,57.5 2.5,57.05 2.5,56.525 L2.5,37.5 L0,37.5 L0,56.525 C0,58.45 1.45,60 3.25,60 L34.45,60 C36.125,60 37.5,58.55 37.5,56.75 L37.5,37.5 L35,37.5 L35,56.75 Z" id="Path"></path>
                <path d="M34.425,0 L10.425,0 L0,11.1 L0,22.5 L2.5,22.5 L2.5,12.1 L11.5,2.5 L34.425,2.5 C34.7,2.5 35,2.825 35,3.275 L35,22.5 L37.5,22.5 L37.5,3.275 C37.5,1.475 36.125,0 34.425,0 Z" id="Path"></path>
            </g>
            <rect id="Rectangle" x="0" y="0" width="80" height="80"></rect>
        </g>
    </g>
</svg>