<?xml version="1.0" encoding="UTF-8"?>
<svg width="80px" height="80px" viewBox="0 0 80 80" version="1.1" xmlns="http://www.w3.org/2000/svg" xmlns:xlink="http://www.w3.org/1999/xlink">
    <!-- Generator: Sketch 57.1 (83088) - https://sketch.com -->
    <title>176-G80px</title>
    <desc>Created with Sketch.</desc>
    <g id="NEW_icons" stroke="none" stroke-width="1" fill="none" fill-rule="evenodd">
        <g id="icons_UD_new-Copy" transform="translate(-768.000000, -22573.000000)">
            <g id="176-G80px" transform="translate(768.000000, 22573.000000)">
                <circle id="Oval-Copy-984" fill="#E3E8EC" cx="40" cy="40" r="40"></circle>
                <g id="176-B32px-Copy-8" transform="translate(12.000000, 12.000000)">
                    <path d="M42.875,36.12 L42.875,46.13 L40.145,44.7825 L39.375,44.3975 L38.605,44.7825 L35.875,46.13 L35.875,36.12 C35.2625,35.875 34.6675,35.5775 34.125,35.2275 L34.125,48.965 L39.375,46.3925 L44.625,48.965 L44.625,35.2275 C44.0825,35.5775 43.4875,35.875 42.875,36.12 Z" id="Path" fill="#101828" fill-rule="nonzero"></path>
                    <polygon id="Path" fill="#101828" fill-rule="nonzero" points="38.5175 22.75 38.5175 24.5 38.5175 31.5175 40.2675 31.5175 40.2675 22.75"></polygon>
                    <polygon id="Path" fill="#101828" fill-rule="nonzero" points="38.5 22.75 38.465 22.7675 36.1725 25.0075 37.3975 26.25 40.145 23.5725 39.305 22.75"></polygon>
                    <path d="M39.375,19.2325 C43.715,19.2325 47.25,22.7675 47.25,27.125 C47.25,31.4825 43.715,35.0175 39.375,35.0175 C35.035,35.0175 31.5,31.4825 31.5,27.125 C31.5,22.7675 35.0175,19.2325 39.375,19.2325 L39.375,19.2325 Z M39.375,17.4825 C34.055,17.4825 29.75,21.805 29.75,27.1425 C29.75,32.48 34.055,36.8025 39.375,36.8025 C44.695,36.8025 49,32.4625 49,27.125 C49,21.7875 44.695,17.4825 39.375,17.4825 L39.375,17.4825 Z" id="Shape" fill="#101828" fill-rule="nonzero"></path>
                    <path d="M42.875,36.12 L42.875,46.13 L40.145,44.7825 L39.375,44.3975 L38.605,44.7825 L35.875,46.13 L35.875,36.12 C35.2625,35.875 34.6675,35.5775 34.125,35.2275 L34.125,48.965 L39.375,46.3925 L44.625,48.965 L44.625,35.2275 C44.0825,35.5775 43.4875,35.875 42.875,36.12 Z" id="Path" fill="#101828" fill-rule="nonzero"></path>
                    <path d="M31.815,17.4475 L33.4075,17.4475 C34.86,16.5375 36.54,15.9425 38.325,15.7675 C35.525,10.5175 29.995,6.9475 23.6425,6.9475 C23.6425,6.9475 23.625,6.9475 23.625,6.9475 C23.625,6.9475 23.625,6.9475 23.6075,6.9475 C23.59,6.9475 23.59,6.9475 23.5725,6.9475 C14.42,6.9825 7,14.4025 7,23.5725 C7,32.725 14.42,40.1625 23.5725,40.1975 C23.59,40.1975 23.59,40.1975 23.6075,40.1975 C23.6075,40.1975 23.6075,40.1975 23.625,40.1975 C23.625,40.1975 23.6425,40.1975 23.6425,40.1975 C26.845,40.1975 29.8375,39.27 32.375,37.695 L32.375,35.56 C31.2025,36.4175 29.9075,37.1175 28.5075,37.6075 C29.295,36.6625 29.96,35.4725 30.52,34.1075 C30.065,33.5475 29.68,32.935 29.3475,32.2875 C28.2625,35.56 26.565,37.8 24.535,38.3075 L24.535,31.43 L28.945,31.43 C28.7175,30.87 28.525,30.275 28.385,29.68 L24.535,29.68 L24.535,24.43 L28.385,24.43 C28.525,23.835 28.7175,23.24 28.945,22.68 L24.535,22.68 L24.535,17.43 L30.0475,17.43 L31.815,17.4475 Z M36.2425,15.6975 L31.43,15.6975 C30.765,13.1775 29.7675,11.06 28.5075,9.5375 C31.7275,10.6575 34.4575,12.845 36.2425,15.6975 Z M24.5175,8.82 C26.7225,9.38 28.5425,11.935 29.61,15.6975 L24.5175,15.6975 L24.5175,8.82 L24.5175,8.82 Z M18.6725,9.555 C17.43,11.095 16.4325,13.195 15.7675,15.6975 L11.025,15.6975 C12.81,12.88 15.4875,10.6925 18.6725,9.555 Z M10.08,17.4475 L15.3825,17.4475 C15.0675,19.0925 14.8925,20.86 14.84,22.6975 L8.8025,22.6975 C8.9075,20.8425 9.345,19.0575 10.08,17.4475 Z M8.8025,24.4475 L14.84,24.4475 C14.8925,26.285 15.0675,28.0525 15.3825,29.6975 L10.08,29.6975 C9.345,28.07 8.9075,26.3025 8.8025,24.4475 Z M11.025,31.4475 L15.7675,31.4475 C16.4325,33.95 17.4125,36.05 18.6725,37.59 C15.4875,36.4525 12.81,34.265 11.025,31.4475 Z M22.7675,38.3425 C20.5275,37.8175 18.6725,35.245 17.5875,31.4475 L22.7675,31.4475 L22.7675,38.3425 L22.7675,38.3425 Z M22.7675,29.6975 L17.15,29.6975 C16.8175,28.0875 16.625,26.32 16.59,24.4475 L22.75,24.4475 L22.75,29.6975 L22.7675,29.6975 Z M22.7675,22.6975 L16.59,22.6975 C16.6425,20.825 16.835,19.0575 17.15,17.4475 L22.75,17.4475 L22.75,22.6975 L22.7675,22.6975 Z M22.7675,15.6975 L17.5875,15.6975 C18.6725,11.9 20.5275,9.3275 22.7675,8.8025 L22.7675,15.6975 L22.7675,15.6975 Z" id="Shape" fill="#101828" fill-rule="nonzero"></path>
                    <rect id="Rectangle" x="0" y="0" width="56" height="56"></rect>
                </g>
            </g>
        </g>
    </g>
</svg>