<?xml version="1.0" encoding="UTF-8"?>
<svg width="32px" height="32px" viewBox="0 0 32 32" version="1.1" xmlns="http://www.w3.org/2000/svg" xmlns:xlink="http://www.w3.org/1999/xlink">
    <!-- Generator: Sketch 57.1 (83088) - https://sketch.com -->
    <title>106-B32px</title>
    <desc>Created with Sketch.</desc>
    <g id="106-B32px" stroke="none" stroke-width="1" fill="none" fill-rule="evenodd">
        <g>
            <path d="M21.5,16.02 C24.53,16.02 27,18.49 27,21.52 C27,24.55 24.53,27.02 21.5,27.02 C18.47,27.02 16,24.55 16,21.52 C16,18.49 18.47,16.02 21.5,16.02 L21.5,16.02 Z M21.5,15.02 C17.91,15.02 15,17.93 15,21.52 C15,25.11 17.91,28.02 21.5,28.02 C25.09,28.02 28,25.11 28,21.52 C28,17.93 25.09,15.02 21.5,15.02 L21.5,15.02 Z" id="Shape" fill="#101828" fill-rule="nonzero"></path>
            <rect id="Rectangle" fill="#101828" fill-rule="nonzero" x="7" y="21.98" width="6" height="1"></rect>
            <rect id="Rectangle" fill="#101828" fill-rule="nonzero" x="7" y="23.98" width="6" height="1"></rect>
            <path d="M21.5,16.02 C24.53,16.02 27,18.49 27,21.52 C27,24.55 24.53,27.02 21.5,27.02 C18.47,27.02 16,24.55 16,21.52 C16,18.49 18.47,16.02 21.5,16.02 L21.5,16.02 Z M21.5,15.02 C17.91,15.02 15,17.93 15,21.52 C15,25.11 17.91,28.02 21.5,28.02 C25.09,28.02 28,25.11 28,21.52 C28,17.93 25.09,15.02 21.5,15.02 L21.5,15.02 Z" id="Shape" fill="#101828" fill-rule="nonzero"></path>
            <path d="M23.48,24.97 C22.65,24.97 21.98,24.3 21.98,23.47 C21.98,22.64 22.65,21.97 23.48,21.97 C24.31,21.97 24.98,22.64 24.98,23.47 C24.98,24.3 24.31,24.97 23.48,24.97 Z M23.48,22.97 C23.2,22.97 22.98,23.19 22.98,23.47 C22.98,23.75 23.2,23.97 23.48,23.97 C23.76,23.97 23.98,23.75 23.98,23.47 C23.98,23.19 23.76,22.97 23.48,22.97 Z" id="Shape" fill="#101828" fill-rule="nonzero"></path>
            <path d="M19.51,20.99 C18.68,20.99 18.01,20.32 18.01,19.49 C18.01,18.66 18.68,17.99 19.51,17.99 C20.34,17.99 21.01,18.66 21.01,19.49 C21.01,20.32 20.34,20.99 19.51,20.99 Z M19.51,18.99 C19.23,18.99 19.01,19.21 19.01,19.49 C19.01,19.77 19.23,19.99 19.51,19.99 C19.79,19.99 20.01,19.77 20.01,19.49 C20.01,19.21 19.78,18.99 19.51,18.99 Z" id="Shape" fill="#101828" fill-rule="nonzero"></path>
            <rect id="Rectangle" fill="#101828" fill-rule="nonzero" transform="translate(21.502078, 21.482293) rotate(45.000000) translate(-21.502078, -21.482293) " x="20.9970823" y="17.2423342" width="1.00999031" height="8.47991868"></rect>
            <path d="M20.52,4.98 L19.32,7.98 L6.68,7.98 L5.48,4.98 L20.52,4.98 L20.52,4.98 Z M22,3.98 L4,3.98 L6,8.98 L20,8.98 L22,3.98 L22,3.98 Z" id="Shape" fill="#101828" fill-rule="nonzero"></path>
            <path d="M20.99,5.98 L20.99,14.04 C21.16,14.03 21.33,14.01 21.5,14.01 C21.67,14.01 21.83,14.02 21.99,14.03 L21.99,6.98 L22.99,6.98 L22.99,14.16 C23.33,14.23 23.67,14.33 23.99,14.44 L23.99,5.98 L20.99,5.98 Z" id="Path" fill="#101828" fill-rule="nonzero"></path>
            <path d="M23.98,14.45 L23.98,8.98 L24.98,8.98 L24.98,14.88 C25.33,15.06 25.66,15.28 25.98,15.52 L25.98,7.98 L22.98,7.98 L22.98,14.16 C23.33,14.24 23.66,14.33 23.98,14.45 Z" id="Path" fill="#101828" fill-rule="nonzero"></path>
            <path d="M16.37,26.98 L5,26.98 L5,4.98 L21,4.98 L21,14.04 C21.17,14.03 21.33,14.01 21.5,14.01 C21.67,14.01 21.83,14.02 22,14.04 L22,3.98 L4,3.98 L4,27.98 L17.71,27.98 C17.23,27.7 16.78,27.36 16.37,26.98 Z" id="Path" fill="#101828" fill-rule="nonzero"></path>
            <rect id="Rectangle" x="0" y="0" width="32" height="32"></rect>
        </g>
    </g>
</svg>