<?xml version="1.0" encoding="UTF-8"?>
<svg width="80px" height="80px" viewBox="0 0 80 80" version="1.1" xmlns="http://www.w3.org/2000/svg" xmlns:xlink="http://www.w3.org/1999/xlink">
    <!-- Generator: Sketch 57.1 (83088) - https://sketch.com -->
    <title>143-B80px</title>
    <desc>Created with Sketch.</desc>
    <g id="143-B80px" stroke="none" stroke-width="1" fill="none" fill-rule="evenodd">
        <g>
            <path d="M69.5,23 C69.25,22.75 68.75,22.5 68.5,22.5 L68.5,22.5 L65,22.5 L65,22 C65,21.25 64.5,20.75 63.75,20.5 C63,20.25 56.75,19.25 50.75,20.25 C45.75,21 41.5,23.25 39.75,24.25 C38,23.25 34,21.25 28.75,20.25 C22.75,19.25 16.5,20.25 15.75,20.5 C15.5,20.75 15,21.25 15,22 L15,22.5 L11.5,22.5 L11.5,22.5 C11,22.5 10.75,22.5 10.5,23 C10.25,23.25 10,23.75 10,24 L10,24.75 L10,60 L10,60.75 C10,61.25 10.25,61.75 10.75,62.25 C11,62.25 11.25,62.5 11.5,62.5 C11.75,62.5 12,62.5 12.25,62.25 C12.25,62.25 17,59.5 23.5,59 C30.75,58.5 39.5,60.75 39.5,60.75 C39.5,60.75 39.5,60.75 39.5,60.75 C39.5,60.75 39.75,60.75 39.75,60.75 C39.75,60.75 39.75,60.75 39.75,60.75 L39.75,60.75 C39.75,60.75 39.75,60.75 39.75,60.75 C39.75,60.75 40,60.75 40,60.75 C40,60.75 40,60.75 40,60.75 C40,60.75 48.75,58.25 56,59 C62.5,59.5 67,62.25 67.25,62.25 C67.5,62.5 67.75,62.5 68,62.5 C68.25,62.5 68.5,62.5 68.75,62.25 C69.25,62 69.5,61.5 69.5,60.75 L69.5,60 L69.5,24.75 L69.5,24 C70,23.75 69.75,23.25 69.5,23 Z M17.5,52.5 L17.5,25 L17.5,22.75 C19.5,22.5 24.5,22 28.5,22.75 C33,23.5 37.25,25.75 38.75,26.5 L38.75,56 C36.25,54.75 32.75,53.5 28.5,52.75 C26.5,52.5 24.75,52.5 22.75,52.5 C20.75,52.5 18.75,52.75 17.5,53 L17.5,52.5 L17.5,52.5 Z M23,56.5 C18.75,56.75 14.5,58.5 12.5,59.5 L12.5,25 C12.5,25 15,25 15,25 L15,52.5 L15,54.25 C15,54.75 15.25,55 15.5,55.25 C15.75,55.5 16.25,55.5 16.75,55.5 C16.75,55.5 20.75,54.75 24.5,55 C30.25,55.25 35.25,57 35.25,57 C30.25,56.25 25,56.25 23,56.5 Z M41.25,26.5 C42.75,25.75 46.75,23.5 51.5,22.75 C55.75,22 60.5,22.5 62.5,22.75 L62.5,25 L62.5,52.5 L62.5,52.5 L62.5,53 C61.25,52.75 59.25,52.5 57.25,52.5 C55.25,52.5 53.5,52.75 51.5,53 C47.25,53.5 43.5,55 41.25,56.25 L41.25,26.5 Z M67.5,59.5 C65.25,58.5 61.25,57 57,56.5 C55,56.25 50,56.25 45,57.25 C45,57.25 50,55.5 55.75,55.25 C59.25,55 63.5,55.75 63.5,55.75 C64,55.75 64.25,55.75 64.75,55.5 C65,55.25 65.25,54.75 65.25,54.5 L65.25,52.5 L65.25,25 C65.25,25 67.75,25 67.75,25 L67.5,59.5 Z" id="Shape" fill="#101828" fill-rule="nonzero"></path>
            <rect id="Rectangle" x="0" y="0" width="80" height="80"></rect>
        </g>
    </g>
</svg>