<?xml version="1.0" encoding="UTF-8"?>
<svg width="80px" height="80px" viewBox="0 0 80 80" version="1.1" xmlns="http://www.w3.org/2000/svg" xmlns:xlink="http://www.w3.org/1999/xlink">
    <!-- Generator: Sketch 58 (84663) - https://sketch.com -->
    <title>261-B80px</title>
    <desc>Created with Sketch.</desc>
    <g id="261-B80px" stroke="none" stroke-width="1" fill="none" fill-rule="evenodd">
        <g id="261-B32px">
            <g>
                <rect id="Rectangle" fill="#101828" fill-rule="nonzero" x="17.5" y="54.95" width="15" height="2.5"></rect>
                <rect id="Rectangle" fill="#101828" fill-rule="nonzero" x="17.5" y="59.95" width="15" height="2.5"></rect>
                <path d="M52.475,14.95 L52.475,35.1 C52.9,35.075 53.325,35.025 53.75,35.025 C54.175,35.025 54.575,35.05 54.975,35.075 L54.975,17.45 L57.475,17.45 L57.475,35.4 C58.325,35.575 59.175,35.825 59.975,36.1 L59.975,14.95 L52.475,14.95 Z" id="Path" fill="#101828" fill-rule="nonzero"></path>
                <g id="Group" transform="translate(10.000000, 7.500000)" fill="#101828" fill-rule="nonzero">
                    <path d="M54.875,62.5 L55,62.5 L55,62.425 C54.95,62.45 54.925,62.475 54.875,62.5 Z" id="Path"></path>
                    <path d="M34.55,60 L2.5,60 L2.5,8.7 L5,14.95 L40,14.95 L42.5,8.7 L42.5,32.95 C43.3,32.75 44.15,32.625 45,32.55 L45,10 L47.5,10 L47.5,12.5 L47.5,32.55 C48.35,32.625 49.2,32.75 50,32.95 L50,15 L52.5,15 L52.5,33.75 C53.375,34.125 54.2,34.575 55,35.075 L55,12.5 L50,12.5 L50,7.5 L45,7.5 L45,2.5 L44.975,2.5 L45,2.45 L0,2.45 L0.025,2.5 L0,2.5 L0,62.5 L37.625,62.5 C36.5,61.8 35.45,60.95 34.55,60 Z M41.3,5 L38.325,12.45 L6.7,12.45 L3.7,5 L41.3,5 Z" id="Shape"></path>
                </g>
                <path d="M56.25,45 C62.45,45 67.5,50.05 67.5,56.25 C67.5,62.45 62.45,67.5 56.25,67.5 C50.05,67.5 45,62.45 45,56.25 C45,50.05 50.05,45 56.25,45 L56.25,45 Z M56.25,42.5 C48.65,42.5 42.5,48.65 42.5,56.25 C42.5,63.85 48.65,70 56.25,70 C63.85,70 70,63.85 70,56.25 C70,48.65 63.85,42.5 56.25,42.5 L56.25,42.5 Z" id="Shape" fill="#101828" fill-rule="nonzero"></path>
                <path d="M55.375,52.65 L52.85,50.025 C52.575,49.75 52.15,49.75 51.875,50.025 L50.2,51.65 C50.025,51.8 49.975,52.025 50,52.25 C50.4,55.6 53.575,58.875 53.575,58.875 C53.575,58.875 56.725,62.125 60.1,62.675 C60.325,62.7 60.525,62.625 60.7,62.475 L62.375,60.85 C62.65,60.575 62.65,60.15 62.4,59.875 L59.875,57.25 C59.6,56.975 59.175,56.975 58.9,57.25 L57.775,58.325 C57.775,58.325 56.4,57.725 55.625,56.925 C54.85,56.125 54.275,54.725 54.275,54.725 L55.4,53.65 C55.625,53.35 55.625,52.925 55.375,52.65 Z" id="Path" fill="#101828" fill-rule="nonzero"></path>
                <rect id="Rectangle" x="0" y="0" width="80" height="80"></rect>
            </g>
        </g>
    </g>
</svg>