<?xml version="1.0" encoding="UTF-8"?>
<svg width="80px" height="80px" viewBox="0 0 80 80" version="1.1" xmlns="http://www.w3.org/2000/svg" xmlns:xlink="http://www.w3.org/1999/xlink">
    <!-- Generator: Sketch 57.1 (83088) - https://sketch.com -->
    <title>107-B80px</title>
    <desc>Created with Sketch.</desc>
    <g id="107-B80px" stroke="none" stroke-width="1" fill="none" fill-rule="evenodd">
        <g>
            <path d="M67.5,25 L67.55,62.5 L12.5,62.55 L12.45,25 L67.5,25 L67.5,25 Z M67.55,22.5 L12.45,22.5 C11.1,22.5 10,23.6 10,24.95 L10,62.55 C10,63.9 11.1,65 12.45,65 L67.55,65 C68.9,65 70,63.9 70,62.55 L70,24.95 C70,23.6 68.9,22.5 67.55,22.5 L67.55,22.5 Z" id="Shape" fill="#101828" fill-rule="nonzero"></path>
            <path d="M40,32.5 C46.2,32.5 51.25,37.55 51.25,43.75 C51.25,49.95 46.2,55 40,55 C33.8,55 28.75,49.95 28.75,43.75 C28.75,37.55 33.8,32.5 40,32.5 L40,32.5 Z M40,30 C32.4,30 26.25,36.15 26.25,43.75 C26.25,51.35 32.4,57.5 40,57.5 C47.6,57.5 53.75,51.35 53.75,43.75 C53.75,36.15 47.6,30 40,30 L40,30 Z" id="Shape" fill="#101828" fill-rule="nonzero"></path>
            <polygon id="Path" fill="#101828" fill-rule="nonzero" points="33.75 42.5 33.75 45 38.75 45 38.75 50 41.25 50 41.25 45 46.25 45 46.25 42.5 41.25 42.5 41.25 37.5 38.75 37.5 38.75 42.5"></polygon>
            <path d="M40,15 C44.65,15 48.575,18.2 49.675,22.5 L30.3,22.5 C31.425,18.2 35.35,15 40,15 L40,15 Z M40,12.5 C33.1,12.5 27.5,18.1 27.5,25 L52.5,25 C52.5,18.1 46.9,12.5 40,12.5 L40,12.5 Z" id="Shape" fill="#101828" fill-rule="nonzero"></path>
            <rect id="Rectangle" x="0" y="0" width="80" height="80"></rect>
        </g>
    </g>
</svg>