<?xml version="1.0" encoding="UTF-8"?>
<svg width="32px" height="32px" viewBox="0 0 32 32" version="1.1" xmlns="http://www.w3.org/2000/svg" xmlns:xlink="http://www.w3.org/1999/xlink">
    <!-- Generator: Sketch 57.1 (83088) - https://sketch.com -->
    <title>163-B32px</title>
    <desc>Created with Sketch.</desc>
    <g id="163-B32px" stroke="none" stroke-width="1" fill="none" fill-rule="evenodd">
        <g>
            <path d="M15,14.24 L18.02,16 L15,17.76 L15,14.24 L15,14.24 Z M14,12.49 L14,19.5 L20,16 L14,12.49 L14,12.49 Z" id="Shape" fill="#101828" fill-rule="nonzero"></path>
            <path d="M15.5,7 C17.73,7 19.72,8.43 20.58,10.64 L20.85,11.34 L21.6,11.28 C21.73,11.27 21.87,11.26 22,11.26 C24.76,11.26 27,13.67 27,16.63 C27,19.59 24.76,22 22,22 L10.52,22 L10.52,22 L9.52,22 L9.47,22 L9.47,22 C7,21.98 5,19.81 5,17.16 C5,14.6 6.86,12.48 9.24,12.33 L9.99,12.28 L10.15,11.54 C10.74,8.87 12.94,7 15.5,7 L15.5,7 Z M15.5,6 C12.42,6 9.85,8.28 9.18,11.33 C6.29,11.51 4,14.04 4,17.16 C4,20.38 6.46,23 9.5,23 C9.51,23 9.51,23 9.52,23 L9.52,23 L22,23 C25.31,23 28,20.15 28,16.63 C28,13.11 25.31,10.25 22,10.25 C21.83,10.25 21.67,10.26 21.51,10.28 C20.54,7.77 18.21,6 15.5,6 L15.5,6 Z" id="Shape" fill="#101828" fill-rule="nonzero"></path>
            <rect id="Rectangle" x="0" y="0" width="32" height="32"></rect>
        </g>
    </g>
</svg>