<?xml version="1.0" encoding="UTF-8"?>
<svg width="32px" height="32px" viewBox="0 0 32 32" version="1.1" xmlns="http://www.w3.org/2000/svg" xmlns:xlink="http://www.w3.org/1999/xlink">
    <!-- Generator: Sketch 57.1 (83088) - https://sketch.com -->
    <title>183-B32px</title>
    <desc>Created with Sketch.</desc>
    <g id="183-B32px" stroke="none" stroke-width="1" fill="none" fill-rule="evenodd">
        <g>
            <g id="Group" transform="translate(19.000000, 10.000000)" fill="#101828" fill-rule="nonzero">
                <path d="M2.77,6 L1.77,6 L1.77,3.59 L0.78,3.59 L0.78,2.59 L1.77,2.59 L1.77,0.01 L4.23,0.01 C5.2,0.01 6,0.8 6,1.78 C6,2.78 5.19,3.6 4.18,3.6 L2.77,3.6 L2.77,6 Z M2.77,2.59 L4.18,2.59 C4.63,2.59 5,2.22 5,1.77 C5,1.35 4.66,1 4.23,1 L2.77,1 L2.77,2.59 Z" id="Shape"></path>
                <rect id="Rectangle" x="0.77" y="4" width="4" height="1"></rect>
            </g>
            <g id="Group" transform="translate(7.000000, 10.000000)" fill="#101828" fill-rule="nonzero">
                <path d="M1.99,6 L0.99,6 L0.99,3.59 L0,3.59 L0,2.59 L0.99,2.59 L0.99,0.01 L3.45,0.01 C4.42,0.01 5.22,0.8 5.22,1.78 C5.22,2.78 4.41,3.6 3.4,3.6 L1.99,3.6 L1.99,6 Z M1.99,2.59 L3.4,2.59 C3.85,2.59 4.22,2.22 4.22,1.77 C4.22,1.35 3.88,1 3.45,1 L1.99,1 L1.99,2.59 Z" id="Shape"></path>
                <rect id="Rectangle" x="0" y="4" width="4" height="1"></rect>
            </g>
            <path d="M27,8 L27.01,21 L5,21.01 L4.99,8 L27,8 L27,8 Z M27.01,7 L4.99,7 C4.45,7 4,7.45 4,7.99 L4,21 C4,21.55 4.45,22 4.99,22 L27,22 C27.55,22 27.9901635,21.55 27.9901635,21.01 L27.9901635,7.99 C28,7.45 27.55,7 27.01,7 L27.01,7 Z" id="Shape" fill="#101828" fill-rule="nonzero"></path>
            <rect id="Rectangle" fill="#101828" fill-rule="nonzero" x="5" y="18" width="22" height="1"></rect>
            <rect id="Rectangle" fill="#101828" fill-rule="nonzero" x="17" y="22" width="1" height="3"></rect>
            <rect id="Rectangle" fill="#101828" fill-rule="nonzero" x="14" y="22" width="1" height="3"></rect>
            <rect id="Rectangle" fill="#101828" fill-rule="nonzero" x="12.02" y="24" width="7.98" height="1"></rect>
            <path d="M16.01,20.49 C16.28,20.49 16.51,20.27 16.51,19.99 C16.51,19.71 16.29,19.49 16.01,19.49 C15.73,19.49 15.51,19.71 15.51,19.99 C15.51,20.27 15.74,20.49 16.01,20.49" id="Path" fill="#101828" fill-rule="nonzero"></path>
            <polygon id="Path" fill="#101828" fill-rule="nonzero" points="13.5 12.5 13.5 13.5 15.5 13.5 15.5 15.5 16.5 15.5 16.5 13.5 18.5 13.5 18.5 12.5 16.5 12.5 16.5 10.5 15.5 10.5 15.5 12.5"></polygon>
            <rect id="Rectangle" x="0" y="0" width="32" height="32"></rect>
        </g>
    </g>
</svg>