<?xml version="1.0" encoding="UTF-8"?>
<svg width="42px" height="42px" viewBox="0 0 42 42" version="1.1" xmlns="http://www.w3.org/2000/svg" xmlns:xlink="http://www.w3.org/1999/xlink">
    <!-- Generator: Sketch 56.3 (81716) - https://sketch.com -->
    <title>028-G40px</title>
    <desc>Created with Sketch.</desc>
    <g id="NEW_icons" stroke="none" stroke-width="1" fill="none" fill-rule="evenodd">
        <g id="icons_UD_new-Copy" transform="translate(-244.000000, -3879.000000)">
            <g id="028-G40px" transform="translate(245.000000, 3880.000000)">
                <circle id="Oval-Copy-252" stroke="#E3E8EC" cx="20" cy="20" r="20"></circle>
                <g id="028-B32px-Copy-9" transform="translate(4.000000, 4.000000)">
                    <path d="M11.4,16.57 C10.82,16.84 10.18,17 9.5,17 C7.02,17 5,14.98 5,12.5 C5,10.02 7.02,8 9.5,8 C11.98,8 14,10.02 14,12.5 C14,13.29 13.78,14.02 13.42,14.67 C13.83,14.44 14.28,14.27 14.75,14.16 C14.91,13.63 15,13.08 15,12.5 C15,9.46 12.54,7 9.5,7 C6.46,7 4,9.46 4,12.5 C4,15.54 6.46,18 9.5,18 C9.94,18 10.37,17.94 10.79,17.84 C10.94,17.39 11.15,16.96 11.4,16.57 Z" id="Path" fill="#101828" fill-rule="nonzero"></path>
                    <path d="M22.5,7 C19.46,7 17,9.46 17,12.5 C17,13.08 17.09,13.63 17.25,14.15 C17.72,14.26 18.16,14.44 18.58,14.66 C18.22,14.02 18,13.29 18,12.5 C18,10.02 20.02,8 22.5,8 C24.98,8 27,10.02 27,12.5 C27,14.98 24.98,17 22.5,17 C21.82,17 21.18,16.84 20.6,16.56 C20.85,16.95 21.06,17.38 21.21,17.84 C21.62,17.94 22.05,18 22.5,18 C25.54,18 28,15.54 28,12.5 C28,9.46 25.54,7 22.5,7 Z" id="Path" fill="#101828" fill-rule="nonzero"></path>
                    <path d="M16,16 C17.9,16 19.46,17.64 19.48,19.63 C19.46,21.12 17.57,24.16 16,26.29 C14.42,24.16 12.52,21.14 12.52,19.73 L12.52,19.68 C12.52,17.65 14.08,16 16,16 L16,16 Z M16,15 L16,15 C13.53,15 11.52,17.09 11.52,19.68 L11.52,19.73 C11.52,22.35 16,27.94 16,27.94 C16,27.94 20.45,22.39 20.47,19.64 C20.46,17.07 18.46,15 16,15 L16,15 Z" id="Shape" fill="#101828" fill-rule="nonzero"></path>
                    <path d="M16,18 C16.8,18 17.44,18.67 17.44,19.5 C17.44,20.33 16.8,21 16,21 C15.2,21 14.56,20.33 14.56,19.5 C14.56,18.67 15.2,18 16,18 L16,18 Z M16,17 C14.65,17 13.56,18.12 13.56,19.5 C13.56,20.88 14.65,22 16,22 C17.35,22 18.44,20.88 18.44,19.5 C18.44,18.12 17.35,17 16,17 L16,17 Z" id="Shape" fill="#101828" fill-rule="nonzero"></path>
                    <path d="M20.5,12 C20.22,12 20,12.22 20,12.5 C20,12.78 20.22,13 20.5,13 C20.78,13 21,12.78 21,12.5 C21,12.22 20.78,12 20.5,12 L20.5,12 Z" id="Path" fill="#101828" fill-rule="nonzero"></path>
                    <path d="M24.5,12 C24.22,12 24,12.22 24,12.5 C24,12.78 24.22,13 24.5,13 C24.78,13 25,12.78 25,12.5 C25,12.22 24.78,12 24.5,12 L24.5,12 Z" id="Path" fill="#101828" fill-rule="nonzero"></path>
                    <path d="M7.5,12 C7.22,12 7,12.22 7,12.5 C7,12.78 7.22,13 7.5,13 C7.78,13 8,12.78 8,12.5 C8,12.22 7.78,12 7.5,12 L7.5,12 Z" id="Path" fill="#101828" fill-rule="nonzero"></path>
                    <path d="M11.5,12 C11.22,12 11,12.22 11,12.5 C11,12.78 11.22,13 11.5,13 C11.78,13 12,12.78 12,12.5 C12,12.22 11.78,12 11.5,12 L11.5,12 Z" id="Path" fill="#101828" fill-rule="nonzero"></path>
                    <path d="M20.1,15.12 C21.49,16.29 23.52,16.29 24.9,15.12 L24.3,14.32 C23.27,15.23 21.72,15.22 20.69,14.32 L20.1,15.12 Z" id="Path" fill="#101828" fill-rule="nonzero"></path>
                    <path d="M7.1,15.12 C8.49,16.29 10.52,16.29 11.9,15.12 L11.3,14.32 C10.27,15.23 8.72,15.22 7.69,14.32 L7.1,15.12 Z" id="Path" fill="#101828" fill-rule="nonzero"></path>
                    <g id="Group" transform="translate(7.000000, 5.000000)" fill="#101828" fill-rule="nonzero">
                        <path d="M3,3 L2,3 C2,2.14 2.52,0.5 4.5,0.5 L4.5,1.5 C3.09,1.5 3,2.75 3,3 Z" id="Path"></path>
                        <path d="M2,3 C2,2.75 1.91,1.5 0.5,1.5 L0.5,0.5 C2.48,0.5 3,2.14 3,3 L2,3 L2.5,3 L2,3 Z" id="Path"></path>
                    </g>
                    <g id="Group" transform="translate(19.000000, 4.000000)" fill="#101828" fill-rule="nonzero">
                        <polygon id="Path" points="1 4.42 0 4.42 0 0.8 3.65 1.99 3.34 2.94 1 2.18"></polygon>
                        <polygon id="Path" points="6.99 4.42 5.99 4.42 5.99 2.18 3.66 2.94 3.34 1.99 6.99 0.8"></polygon>
                        <rect id="Rectangle" x="3" y="2" width="1" height="1"></rect>
                    </g>
                    <polygon id="Path" fill="#101828" fill-rule="nonzero" points="14 11 9.29 11 8.5 10.21 7.71 11 5 11 5 10 7.29 10 8.5 8.79 9.71 10 14 10"></polygon>
                    <polygon id="Path" fill="#101828" fill-rule="nonzero" points="27 11 22.29 11 21.5 10.21 20.71 11 18 11 18 10 20.29 10 21.5 8.79 22.71 10 27 10"></polygon>
                    <rect id="Rectangle" x="0" y="0" width="32" height="32"></rect>
                </g>
            </g>
        </g>
    </g>
</svg>