<?xml version="1.0" encoding="UTF-8"?>
<svg width="80px" height="80px" viewBox="0 0 80 80" version="1.1" xmlns="http://www.w3.org/2000/svg" xmlns:xlink="http://www.w3.org/1999/xlink">
    <!-- Generator: Sketch 57.1 (83088) - https://sketch.com -->
    <title>219-W80px</title>
    <desc>Created with Sketch.</desc>
    <g id="NEW_icons" stroke="none" stroke-width="1" fill="none" fill-rule="evenodd">
        <g id="icons_UD_new-Copy" transform="translate(-2151.000000, -27848.000000)">
            <g id="219-W80px" transform="translate(2151.000000, 27848.000000)">
                <circle id="Oval-Copy-1405" fill="#101828" cx="40" cy="40" r="40"></circle>
                <g id="219-B32px-Copy-8" transform="translate(12.000000, 12.000000)">
                    <path d="M21,42 L8.8375,42 C8.785,42 8.75,41.965 8.75,41.9125 L8.75,38.5 L21,38.5 L21,36.75 L8.75,36.75 L8.75,12.3375 C8.75,12.285 8.785,12.25 8.8375,12.25 L27.9125,12.25 C27.965,12.25 28,12.285 28,12.3375 L28,28 L29.75,28 L29.75,12.3375 C29.75,11.3225 28.9275,10.5 27.9125,10.5 L8.8375,10.5 C7.8225,10.5 7,11.3225 7,12.3375 L7,36.75 L7,38.5 L7,41.9125 C7,42.9275 7.8225,43.75 8.8375,43.75 L21,43.75 L21,42 Z" id="Path" fill="#FFFFFF" fill-rule="nonzero"></path>
                    <path d="M47.25,31.5 L47.285,45.5 L24.5,45.535 L24.465,31.5 L47.25,31.5 L47.25,31.5 Z M47.285,29.75 L24.465,29.75 C23.52,29.75 22.75,30.52 22.75,31.465 L22.75,45.535 C22.75,46.48 23.52,47.25 24.465,47.25 L47.285,47.25 C48.23,47.25 49,46.48 49,45.535 L49,31.465 C49,30.52 48.23,29.75 47.285,29.75 L47.285,29.75 Z" id="Shape" fill="#FFFFFF" fill-rule="nonzero"></path>
                    <rect id="Rectangle" fill="#FFFFFF" fill-rule="nonzero" x="23.8875" y="36.7675" width="24.29" height="1.75"></rect>
                    <path d="M35.875,26.25 C37.9925,26.25 39.76,27.755 40.1625,29.75 L31.5875,29.75 C31.99,27.755 33.7575,26.25 35.875,26.25 L35.875,26.25 Z M35.875,24.5 C32.4975,24.5 29.75,27.2475 29.75,30.625 C29.75,30.9225 29.8025,31.22 29.8375,31.5 L41.9125,31.5 C41.9475,31.22 42,30.9225 42,30.625 C42,27.2475 39.2525,24.5 35.875,24.5 L35.875,24.5 Z" id="Shape" fill="#FFFFFF" fill-rule="nonzero"></path>
                    <g id="Group" transform="translate(10.500000, 15.750000)" fill="#FFFFFF" fill-rule="nonzero">
                        <path d="M7.91,5.25 C8.8375,5.25 9.695,5.6175 10.3075,6.2125 L11.55,4.97 C10.605,4.06 9.3275,3.5 7.91,3.5 C6.4575,3.5 5.145,4.095 4.2,5.04 L5.4425,6.2825 C6.0725,5.635 6.9475,5.25 7.91,5.25 Z" id="Path"></path>
                        <path d="M9.065,7.455 C8.7675,7.175 8.365,7 7.91,7 C7.42,7 6.9825,7.1925 6.6675,7.5075 L7.84,8.68 L9.065,7.455 Z" id="Path"></path>
                        <path d="M7.91,1.75 C9.8,1.75 11.5325,2.52 12.7925,3.745 L14.035,2.5025 C12.4425,0.9625 10.29,0 7.91,0 C5.495,0 3.3075,0.98 1.715,2.555 L2.9575,3.7975 C4.235,2.5375 5.985,1.75 7.91,1.75 Z" id="Path"></path>
                    </g>
                    <rect id="Rectangle" x="0" y="0" width="56" height="56"></rect>
                </g>
            </g>
        </g>
    </g>
</svg>