<?xml version="1.0" encoding="UTF-8"?>
<svg width="80px" height="80px" viewBox="0 0 80 80" version="1.1" xmlns="http://www.w3.org/2000/svg" xmlns:xlink="http://www.w3.org/1999/xlink">
    <!-- Generator: Sketch 57.1 (83088) - https://sketch.com -->
    <title>122-W80px</title>
    <desc>Created with Sketch.</desc>
    <g id="NEW_icons" stroke="none" stroke-width="1" fill="none" fill-rule="evenodd">
        <g id="icons_UD_new-Copy" transform="translate(-869.000000, -15789.000000)">
            <g id="122-W80px" transform="translate(869.000000, 15789.000000)">
                <circle id="Oval-Copy-713" fill="#101828" cx="40" cy="40" r="40"></circle>
                <g id="122-B32px-Copy-8" transform="translate(12.000000, 12.000000)">
                    <path d="M27.1775,10.4475 L29.12,11.6725 L27.1775,12.8975 L27.1775,10.4475 L27.1775,10.4475 Z M25.4275,7.2975 L25.4275,16.0475 L32.4275,11.6725 L25.4275,7.2975 L25.4275,7.2975 Z" id="Shape" fill="#FFFFFF" fill-rule="nonzero"></path>
                    <path d="M28.9275,43.4 L28.9275,45.8325 L26.985,44.6075 L28.9275,43.4 L28.9275,43.4 Z M30.6775,40.25 L23.6775,44.625 L30.6775,49 L30.6775,40.25 L30.6775,40.25 Z" id="Shape" fill="#FFFFFF" fill-rule="nonzero"></path>
                    <path d="M19.95,18.41 L23.94,22.54 L22.2075,24.22 L21.3675,25.0425 L21.805,26.1275 C21.9275,26.425 23.0125,29.0675 24.64,30.73 C26.2675,32.41 28.8575,33.5825 29.155,33.705 L30.24,34.1775 L31.08,33.355 L32.8125,31.675 L36.8025,35.805 L34.195,38.325 C28.735,37.3275 23.4675,31.9375 23.415,31.885 C23.3625,31.8325 18.095,26.3375 17.3425,20.8775 L19.95,18.41 L19.95,18.41 Z M19.9675,16.4675 C19.6525,16.4675 19.32,16.59 19.075,16.835 L15.9775,19.8275 C15.68,20.125 15.54,20.5275 15.5925,20.9475 C16.3275,27.1075 22.155,33.145 22.155,33.145 C22.155,33.145 27.9475,39.13 34.16,40.1275 C34.23,40.145 34.2825,40.145 34.3525,40.145 C34.685,40.145 35.0175,40.005 35.2625,39.7775 L38.36,36.785 C38.8675,36.295 38.885,35.4725 38.395,34.9825 L33.74,30.17 C33.495,29.8725 33.1625,29.75 32.83,29.75 C32.515,29.75 32.1825,29.8725 31.9375,30.1175 L29.8725,32.1125 C29.8725,32.1125 27.335,30.9925 25.9175,29.505 C24.4825,28.035 23.45,25.4625 23.45,25.4625 L25.515,23.4675 C26.0225,22.9775 26.04,22.155 25.55,21.665 L20.895,16.8525 C20.6325,16.59 20.3,16.4675 19.9675,16.4675 L19.9675,16.4675 Z" id="Shape" fill="#FFFFFF" fill-rule="nonzero"></path>
                    <g id="Group" transform="translate(8.750000, 10.500000)" fill="#FFFFFF" fill-rule="nonzero">
                        <path d="M25.3925,1.75 L23.555,2.9225 C29.7325,5.0575 34.1775,10.9025 34.1775,17.7975 C34.1775,25.2875 28.91,31.57 21.8925,33.145 L21.875,34.9475 C29.8725,33.3375 35.9275,26.2675 35.9275,17.7975 C35.9275,10.6225 31.5875,4.445 25.3925,1.75 Z" id="Path"></path>
                        <path d="M14.1575,32.935 C7.5425,31.0625 2.6775,24.99 2.6775,17.7975 C2.6775,9.7125 8.82,3.0275 16.6775,2.1525 L16.6775,0.385 C7.84,1.26 0.9275,8.7325 0.9275,17.7975 C0.9275,25.27 5.6525,31.6575 12.25,34.16 L14.1575,32.935 Z" id="Path"></path>
                    </g>
                    <rect id="Rectangle" x="0" y="0" width="56" height="56"></rect>
                </g>
            </g>
        </g>
    </g>
</svg>