<?xml version="1.0" encoding="UTF-8"?>
<svg width="42px" height="42px" viewBox="0 0 42 42" version="1.1" xmlns="http://www.w3.org/2000/svg" xmlns:xlink="http://www.w3.org/1999/xlink">
    <!-- Generator: Sketch 57.1 (83088) - https://sketch.com -->
    <title>152-G40px</title>
    <desc>Created with Sketch.</desc>
    <g id="NEW_icons" stroke="none" stroke-width="1" fill="none" fill-rule="evenodd">
        <g id="icons_UD_new-Copy" transform="translate(-244.000000, -19594.000000)">
            <g id="152-G40px" transform="translate(245.000000, 19595.000000)">
                <circle id="Oval-Copy-915" stroke="#E3E8EC" cx="20" cy="20" r="20"></circle>
                <g id="152-B32px-Copy" transform="translate(4.000000, 4.000000)">
                    <path d="M26.98,10 L27,10.02 L26.98,21.02 L5,21 L5.02,10 L26.98,10 L26.98,10 Z M26.98,9 L5.02,9 C4.46,9 4,9.46 4,10.02 L4,21 C4,21.56 4.46,22.02 5.02,22.02 L26.98,22.02 C27.54,22.02 28,21.56 28,21 L28,10.02 C28,9.46 27.54,9 26.98,9 L26.98,9 Z" id="Shape" fill="#101828" fill-rule="nonzero"></path>
                    <g id="Group" transform="translate(7.000000, 12.000000)" fill="#101828" fill-rule="nonzero">
                        <rect id="Rectangle" x="0.02" y="0.86" width="1" height="1"></rect>
                        <path d="M0.02,1.99 L0.86,1.99 L0.86,3.28 C0.86,3.28 0.86,4.34 1.99,4.27 C1.99,4.27 2.21,4.83 2.62,5 L1.69,5 C1.69,5 0,5.05 0,3.26 L0.02,1.99 Z" id="Path"></path>
                        <path d="M1.23,0.86 L2.07,0.86 L2.07,0 L2.91,0 L2.91,0.86 L3.5,0.86 C3.5,0.86 4.49,0.77 4.91,1.82 C5.28,2.75 5.69,3.94 5.69,3.94 L7.05,0 L7.96,0 L6.24,5 L5.15,5 L4.13,2.1 C4.13,2.1 4,1.6 3.47,1.6 C3.13,1.6 2.94,1.6 2.94,1.6 L2.94,3.29 C2.94,3.29 2.97,4.25 3.88,4.25 L4.54,4.25 L4.79,5 C4.79,5 3.78,4.99 3.68,4.99 C3.27,4.99 2.09,4.77 2.09,3.29 L2.09,1.6 L1.22,1.6 L1.23,0.86 Z" id="Path"></path>
                    </g>
                    <g id="Group" transform="translate(15.000000, 15.000000)" fill="#101828" fill-rule="nonzero">
                        <path d="M8.88,0.99 C8.88,1 8.89,1.02 8.89,1.03 C9.26,2.01 9.62,2.99 9.99,3.97 C9.99,3.98 9.99,3.98 10,3.99 C9.68,3.99 9.36,3.99 9.04,3.99 C9.02,3.92 8.99,3.84 8.97,3.77 C8.95,3.72 8.94,3.66 8.92,3.61 C8.92,3.59 8.91,3.59 8.89,3.59 C8.54,3.59 8.19,3.59 7.84,3.59 C7.82,3.59 7.82,3.6 7.81,3.61 C7.77,3.73 7.74,3.85 7.7,3.97 C7.7,3.98 7.7,3.98 7.69,3.99 C7.38,3.99 7.07,3.99 6.75,3.99 C7.12,2.99 7.49,1.99 7.87,0.99 C8.21,0.99 8.55,0.99 8.88,0.99 Z M7.99,3.02 C8.25,3.02 8.5,3.02 8.76,3.02 C8.63,2.6 8.5,2.19 8.37,1.77 C8.37,1.77 8.37,1.77 8.36,1.77 C8.23,2.19 8.11,2.6 7.99,3.02 Z" id="Shape"></path>
                        <path d="M2.89,1 C2.83,1.15 2.77,1.31 2.71,1.46 C2.69,1.51 2.67,1.57 2.65,1.62 C2.64,1.64 2.63,1.65 2.61,1.65 C2.25,1.65 1.88,1.65 1.52,1.65 C1.48,1.65 1.48,1.65 1.48,1.69 C1.48,1.87 1.48,2.06 1.48,2.24 C1.48,2.27 1.48,2.27 1.51,2.27 C1.8,2.27 2.1,2.27 2.39,2.27 C2.4,2.27 2.41,2.27 2.42,2.27 C2.42,2.28 2.42,2.29 2.41,2.29 C2.33,2.49 2.25,2.7 2.16,2.9 C2.15,2.92 2.15,2.92 2.13,2.92 C1.92,2.92 1.71,2.92 1.5,2.92 C1.49,2.92 1.48,2.92 1.47,2.92 C1.47,3.28 1.47,3.64 1.47,4 C1.46,4 1.45,4 1.44,4 C1.13,4 0.83,4 0.52,4 C0.51,4 0.5,4 0.49,4 C0.49,3 0.49,2 0.49,1 C1.3,1 2.1,1 2.89,1 Z" id="Path"></path>
                        <path d="M7.23,0.99 C7.17,1.14 7.12,1.29 7.06,1.44 C7.04,1.5 7.01,1.56 6.99,1.62 C6.98,1.64 6.97,1.65 6.95,1.65 C6.59,1.65 6.23,1.65 5.86,1.65 C5.81,1.65 5.82,1.65 5.82,1.69 C5.82,1.87 5.82,2.05 5.82,2.24 C5.82,2.25 5.82,2.26 5.82,2.27 C6.14,2.27 6.45,2.27 6.77,2.27 C6.77,2.28 6.76,2.29 6.76,2.29 C6.68,2.49 6.6,2.69 6.51,2.9 C6.5,2.92 6.49,2.92 6.47,2.92 C6.26,2.92 6.05,2.92 5.85,2.92 C5.84,2.92 5.83,2.92 5.82,2.92 C5.82,3.28 5.82,3.64 5.82,4 C5.49,4 5.17,4 4.84,4 C4.84,3.99 4.84,3.98 4.84,3.97 C4.84,2.99 4.84,2.01 4.84,1.04 C4.84,1.03 4.84,1.02 4.84,1 C5.64,1 6.43,1 7.23,0.99 Z" id="Path"></path>
                        <path d="M4.17,1 C4.17,1.41 4.17,1.83 4.17,2.24 C4.17,2.82 4.17,3.39 4.17,3.97 C4.17,3.98 4.17,3.99 4.17,4 C3.85,4 3.53,4 3.2,4 C3.2,3.99 3.2,3.98 3.2,3.98 C3.2,2.99 3.2,2.01 3.2,1.02 C3.2,1.01 3.2,1.01 3.2,1 C3.52,1 3.84,1 4.17,1 Z" id="Path"></path>
                    </g>
                    <polygon id="Path" fill="#101828" fill-rule="nonzero" points="19 13 18 13 18 12 17 12 17 13 16 13 16 14 17 14 17 15 18 15 18 14 19 14"></polygon>
                    <path d="M15.98,21.95 C11.67,21.95 8.44,22.61 7,22.97 L7,24 C8.23,23.68 11.54,22.95 15.98,22.95 C20.46,22.95 23.79,23.69 25,24.01 L25,22.98 C23.57,22.61 20.33,21.95 15.98,21.95 Z" id="Path" fill="#101828" fill-rule="nonzero"></path>
                    <rect id="Rectangle" x="0" y="0" width="32" height="32"></rect>
                </g>
            </g>
        </g>
    </g>
</svg>