<?xml version="1.0" encoding="UTF-8"?>
<svg width="56px" height="56px" viewBox="0 0 56 56" version="1.1" xmlns="http://www.w3.org/2000/svg" xmlns:xlink="http://www.w3.org/1999/xlink">
    <!-- Generator: Sketch 54.1 (76490) - https://sketchapp.com -->
    <title>050-G56px</title>
    <desc>Created with Sketch.</desc>
    <g id="NEW_icons" stroke="none" stroke-width="1" fill="none" fill-rule="evenodd">
        <g id="icons_UD_new-Copy" transform="translate(-446.000000, -6626.000000)">
            <g id="050-G56px" transform="translate(446.000000, 6626.000000)">
                <circle id="Oval-Copy-391" fill="#E3E8EC" cx="28" cy="28" r="28"></circle>
                <g id="050-B32px-Copy-5" transform="translate(8.000000, 8.000000)">
                    <path d="M33.75,7.5 L6.25,7.5 C5.5625,7.5 5,8.0625 5,8.75 L5,27.5 C5,28.1875 5.5625,28.75 6.25,28.75 L13.6625,28.75 C13.35,28.3375 13.075,27.9125 12.8125,27.5 L6.25,27.5 L6.25,8.75 L33.75,8.75 L33.75,27.5 L27.1875,27.5 C26.925,27.9125 26.6375,28.3375 26.3375,28.75 L33.75,28.75 C34.4375,28.75 35,28.1875 35,27.5 L35,8.75 C35,8.0625 34.4375,7.5 33.75,7.5 Z" id="Path" fill="#101828" fill-rule="nonzero"></path>
                    <path d="M27.5,16.25 L27.5,17.1875 C27.5,19.4125 27.05,22.7125 26.2875,24.3875 C25.2625,26.65 23.35,29.6125 20,31.1375 C16.65,29.6125 14.7375,26.65 13.7125,24.3875 C12.95,22.7125 12.5,19.4125 12.5,17.1875 L12.5,16.25 L27.5,16.25 L27.5,16.25 Z M28.75,15 L11.25,15 L11.25,17.1875 C11.25,19.35 11.6875,22.9375 12.575,24.9125 C13.7875,27.6 16.0375,30.925 20,32.5125 C23.9625,30.925 26.2125,27.6125 27.425,24.9125 C28.3125,22.95 28.75,19.35 28.75,17.1875 L28.75,15 L28.75,15 Z" id="Shape" fill="#101828" fill-rule="nonzero"></path>
                    <path d="M13.7125,10.625 C14.05,10.625 14.3375,10.35 14.3375,10 C14.3375,9.6625 14.0625,9.375 13.7125,9.375 C13.3625,9.375 13.0875,9.65 13.0875,10 C13.0875,10.35 13.375,10.625 13.7125,10.625" id="Path" fill="#101828" fill-rule="nonzero"></path>
                    <path d="M8.7375,10.625 C9.075,10.625 9.3625,10.35 9.3625,10 C9.3625,9.6625 9.0875,9.375 8.7375,9.375 C8.4,9.375 8.125,9.6625 8.125,10 C8.125,10.35 8.4,10.625 8.7375,10.625" id="Path" fill="#101828" fill-rule="nonzero"></path>
                    <path d="M11.2375,10.625 C11.575,10.625 11.8625,10.35 11.8625,10 C11.8625,9.6625 11.5875,9.375 11.2375,9.375 C10.9,9.375 10.625,9.6625 10.625,10 C10.625,10.35 10.9,10.625 11.2375,10.625" id="Path" fill="#101828" fill-rule="nonzero"></path>
                    <rect id="Rectangle" fill="#101828" fill-rule="nonzero" x="6.25" y="11.25" width="27.5" height="1.25"></rect>
                    <path d="M22.15,21.3125 C22.15,22.2125 22.15,23.125 22.15,24.025 C22.15,24.1375 22.15,24.2375 22.2875,24.2625 C22.4125,24.2875 22.4875,24.225 22.5375,24.1125 C22.8,23.5375 23.075,22.975 23.3375,22.4 C23.5125,22.0125 24,21.95 24.2625,22.3 C24.35,22.425 24.3875,22.5625 24.325,22.7 C23.95,23.6375 23.6125,24.5875 23.175,25.5 C22.6625,26.575 21.775,27.2375 20.5875,27.45 C19.9375,27.5625 19.3125,27.5125 18.7125,27.225 C17.95,26.8625 17.5,26.2375 17.275,25.425 C17.1,24.775 17.0125,24.125 17.025,23.45 C17.0625,22.1125 17.0875,20.7625 17.125,19.425 C17.125,19.1875 17.275,19.0375 17.5125,19.0125 C17.7875,18.9875 18,19.1125 18.05,19.3375 C18.0625,19.4125 18.075,19.4875 18.075,19.5625 C18.075,20.2625 18.075,20.9625 18.075,21.6625 C18.075,21.7 18.075,21.7375 18.075,21.775 C18.075,21.8875 18.15,21.95 18.25,21.95 C18.35,21.95 18.425,21.9 18.425,21.775 C18.425,21.65 18.425,21.525 18.425,21.4 C18.425,20.4875 18.425,19.575 18.425,18.6625 C18.425,18.3625 18.6125,18.175 18.9125,18.175 C19.225,18.175 19.425,18.35 19.425,18.6625 C19.425,19.6 19.425,20.5375 19.425,21.475 C19.425,21.5375 19.4125,21.6125 19.45,21.6375 C19.5,21.6875 19.5875,21.7125 19.65,21.7125 C19.7,21.7 19.7625,21.625 19.775,21.5625 C19.8,21.475 19.7875,21.3875 19.7875,21.3 C19.7875,20.2 19.7875,19.1125 19.7875,18.0125 C19.7875,17.8125 19.8375,17.65 20.025,17.5625 C20.225,17.4625 20.425,17.475 20.625,17.575 C20.7875,17.6625 20.7875,17.8375 20.7875,17.9875 C20.7875,19.075 20.7875,20.15 20.7875,21.2375 C20.7875,21.3375 20.7875,21.425 20.7875,21.525 C20.7875,21.6875 20.8375,21.75 20.975,21.75 C21.1125,21.75 21.15,21.6625 21.15,21.5375 C21.15,20.625 21.15,19.7 21.15,18.7875 C21.15,18.7 21.15,18.625 21.1625,18.5375 C21.2125,18.225 21.4,18.0875 21.7375,18.1125 C22,18.1375 22.15,18.325 22.15,18.6125 C22.15,19.5125 22.15,20.4125 22.15,21.3125 Z" id="Path" fill="#101828" fill-rule="nonzero"></path>
                    <rect id="Rectangle" x="0" y="0" width="40" height="40"></rect>
                </g>
            </g>
        </g>
    </g>
</svg>