<?xml version="1.0" encoding="UTF-8"?>
<svg width="80px" height="80px" viewBox="0 0 80 80" version="1.1" xmlns="http://www.w3.org/2000/svg" xmlns:xlink="http://www.w3.org/1999/xlink">
    <!-- Generator: Sketch 56.3 (81716) - https://sketch.com -->
    <title>024-C80px</title>
    <desc>Created with Sketch.</desc>
    <g id="NEW_icons" stroke="none" stroke-width="1" fill="none" fill-rule="evenodd">
        <g id="icons_UD_new-Copy" transform="translate(-1002.000000, -3338.000000)">
            <g id="024-C80px" transform="translate(1002.000000, 3338.000000)">
                <circle id="Oval-Copy-226" fill="#FF4F12" cx="40" cy="40" r="40"></circle>
                <g id="024-B32px-Copy-7" transform="translate(12.000000, 12.000000)">
                    <path d="M28.035,35.805 C27.0025,37.17 25.795,38.0975 24.5,38.395 L24.5,31.5 L28,31.5 L28,29.75 L24.5,29.75 L24.5,24.5 L28,24.5 L28,24.115 C28,23.625 28.1225,23.17 28.3325,22.75 L24.5,22.75 L24.5,17.5 L30.765,17.5 C31.045,18.6025 31.2025,19.7925 31.325,21 L33.0925,21 C32.9875,19.7925 32.83,18.6025 32.5675,17.5 L37.17,17.5 C37.6775,18.6025 38.0275,19.775 38.2375,21 L40.0225,21 C38.7625,13.0725 31.9025,7 23.625,7 C23.625,7 23.6075,7 23.6075,7 C23.6075,7 23.6075,7 23.59,7 C23.5725,7 23.5725,7 23.555,7 C14.4025,7.035 7,14.4725 7,23.625 C7,32.7775 14.4025,40.215 23.555,40.25 C23.5725,40.25 23.5725,40.25 23.59,40.25 C23.59,40.25 23.59,40.25 23.6075,40.25 C23.6075,40.25 23.625,40.25 23.625,40.25 C26.285,40.25 28.805,39.6025 31.0275,38.5 C29.4875,38.4475 28.245,37.2925 28.035,35.805 Z M36.225,15.75 L32.095,15.75 C31.325,13.3175 30.2225,11.2525 28.8925,9.73 C31.9375,10.885 34.51,13.02 36.225,15.75 Z M24.5,8.855 C26.8975,9.3975 28.9975,12.04 30.2575,15.75 L24.5,15.75 L24.5,8.855 Z M18.2875,9.765 C16.9575,11.27 15.855,13.335 15.1025,15.75 L11.025,15.75 C12.7225,13.0375 15.26,10.92 18.2875,9.765 Z M10.08,17.5 L14.63,17.5 C14.245,19.145 14.035,20.9125 13.965,22.75 L8.8025,22.75 C8.9075,20.895 9.345,19.11 10.08,17.5 Z M8.8025,24.5 L13.9825,24.5 C14.035,26.3375 14.2625,28.105 14.6475,29.75 L10.0975,29.75 C9.345,28.14 8.9075,26.355 8.8025,24.5 Z M11.025,31.5 L15.1025,31.5 C15.855,33.915 16.9575,35.98 18.2875,37.485 C15.26,36.33 12.7225,34.2125 11.025,31.5 Z M22.75,38.4125 C20.335,37.905 18.2175,35.245 16.94,31.5 L22.75,31.5 L22.75,38.4125 Z M22.75,29.75 L16.4325,29.75 C16.03,28.1225 15.785,26.355 15.715,24.5 L22.75,24.5 L22.75,29.75 Z M22.75,22.75 L15.715,22.75 C15.7675,20.895 16.03,19.1275 16.4325,17.5 L22.75,17.5 L22.75,22.75 Z M22.75,15.75 L16.94,15.75 C18.2175,12.0225 20.335,9.3625 22.75,8.8375 L22.75,15.75 Z" id="Shape" fill="#FFFFFF" fill-rule="nonzero"></path>
                    <path d="M47.25,24.5 L47.25,35 L31.5,35 L31.5,24.5 L47.25,24.5 L47.25,24.5 Z M47.25,22.75 L31.5,22.75 C30.5375,22.75 29.75,23.5375 29.75,24.5 L29.75,35 C29.75,35.9625 30.5375,36.75 31.5,36.75 L47.25,36.75 C48.2125,36.75 49,35.9625 49,35 L49,24.5 C49,23.5375 48.2125,22.75 47.25,22.75 L47.25,22.75 Z" id="Shape" fill="#FFFFFF" fill-rule="nonzero"></path>
                    <rect id="Rectangle" fill="#FFFFFF" fill-rule="nonzero" x="43.75" y="22.75" width="1.75" height="7"></rect>
                    <rect id="Rectangle" fill="#FFFFFF" fill-rule="nonzero" x="40.25" y="22.75" width="1.75" height="7"></rect>
                    <rect id="Rectangle" fill="#FFFFFF" fill-rule="nonzero" x="33.25" y="22.75" width="1.75" height="7"></rect>
                    <rect id="Rectangle" fill="#FFFFFF" fill-rule="nonzero" x="36.75" y="22.75" width="1.75" height="7"></rect>
                    <path d="M43.75,36.75 L43.75,38.5 L35,38.5 L35,36.75 L43.75,36.75 L43.75,36.75 Z M43.75,35 L35,35 C34.0375,35 33.25,35.7875 33.25,36.75 L33.25,38.5 C33.25,39.4625 34.0375,40.25 35,40.25 L43.75,40.25 C44.7125,40.25 45.5,39.4625 45.5,38.5 L45.5,36.75 C45.5,35.7875 44.7125,35 43.75,35 L43.75,35 Z" id="Shape" fill="#FFFFFF" fill-rule="nonzero"></path>
                    <polygon id="Path" fill="#FFFFFF" fill-rule="nonzero" points="38.5 49 38.5 42 38.5 40.25 36.75 40.25 36.75 49"></polygon>
                    <polygon id="Path" fill="#FFFFFF" fill-rule="nonzero" points="42 40.25 40.25 40.25 40.25 42 40.25 49 42 49"></polygon>
                    <rect id="Rectangle" x="0" y="0" width="56" height="56"></rect>
                </g>
            </g>
        </g>
    </g>
</svg>