<?xml version="1.0" encoding="UTF-8"?>
<svg width="32px" height="32px" viewBox="0 0 32 32" version="1.1" xmlns="http://www.w3.org/2000/svg" xmlns:xlink="http://www.w3.org/1999/xlink">
    <!-- Generator: Sketch 57.1 (83088) - https://sketch.com -->
    <title>070-B32px</title>
    <desc>Created with Sketch.</desc>
    <g id="070-B32px" stroke="none" stroke-width="1" fill="none" fill-rule="evenodd">
        <g>
            <path d="M16,22.5 C16,22.22 16.02,21.94 16.06,21.67 C12.83,19.99 10.32,17.44 10.29,17.4 C10.24,17.35 5.57,12.46 5,7.65 C5,7.62 5,7.57 5.03,7.54 L7.65,5.01 C7.67,4.99 7.69,4.98 7.72,4.98 C7.74,4.98 7.76,5 7.76,5 L11.71,9.08 C11.74,9.11 11.73,9.16 11.7,9.2 L9.95,10.89 L9.47,11.36 L9.72,11.98 C9.76,12.08 10.69,14.35 12.02,15.72 C13.35,17.09 15.59,18.1 15.69,18.14 L16.31,18.41 L16.79,17.94 L18.54,16.25 C18.56,16.23 18.58,16.22 18.61,16.22 C18.64,16.22 18.66,16.24 18.66,16.24 L19.26,16.86 C19.56,16.68 19.88,16.53 20.21,16.41 L19.37,15.54 C19.16,15.32 18.88,15.21 18.6,15.21 C18.33,15.21 18.05,15.31 17.84,15.52 L16.09,17.21 C16.09,17.21 13.95,16.26 12.74,15.01 C11.53,13.76 10.65,11.59 10.65,11.59 L12.4,9.9 C12.83,9.48 12.85,8.8 12.43,8.37 L8.48,4.31 C8.27,4.09 7.99,3.98 7.71,3.98 C7.44,3.98 7.16,4.08 6.95,4.29 L4.33,6.82 C4.08,7.07 3.97,7.42 4.01,7.77 C4.63,12.99 9.57,18.09 9.57,18.09 C9.57,18.09 12.38,20.99 16.01,22.76 C16.01,22.68 16,22.59 16,22.5 Z" id="Path" fill="#101828" fill-rule="nonzero"></path>
            <path d="M22.5,18 C24.98,18 27,20.02 27,22.5 C27,24.98 24.98,27 22.5,27 C20.02,27 18,24.98 18,22.5 C18,20.02 20.02,18 22.5,18 L22.5,18 Z M22.5,17 C19.46,17 17,19.46 17,22.5 C17,25.54 19.46,28 22.5,28 C25.54,28 28,25.54 28,22.5 C28,19.46 25.54,17 22.5,17 L22.5,17 Z" id="Shape" fill="#101828" fill-rule="nonzero"></path>
            <polygon id="Path" fill="#101828" fill-rule="nonzero" points="22.04 24.58 20.13 22.5 20.87 21.83 22.04 23.1 24.13 20.82 24.87 21.5"></polygon>
            <rect id="Rectangle" x="0" y="0" width="32" height="32"></rect>
        </g>
    </g>
</svg>