<?xml version="1.0" encoding="UTF-8"?>
<svg width="56px" height="56px" viewBox="0 0 56 56" version="1.1" xmlns="http://www.w3.org/2000/svg" xmlns:xlink="http://www.w3.org/1999/xlink">
    <!-- Generator: Sketch 57.1 (83088) - https://sketch.com -->
    <title>120-G56px</title>
    <desc>Created with Sketch.</desc>
    <g id="NEW_icons" stroke="none" stroke-width="1" fill="none" fill-rule="evenodd">
        <g id="icons_UD_new-Copy" transform="translate(-446.000000, -15567.000000)">
            <g id="120-G56px" transform="translate(446.000000, 15567.000000)">
                <circle id="Oval-Copy-756" fill="#E3E8EC" cx="28" cy="28" r="28"></circle>
                <g id="120-B32px-Copy-3" transform="translate(8.000000, 8.000000)">
                    <path d="M20,6.25 C23.45,6.25 26.25,9.05 26.25,12.5 C26.25,15.95 23.45,18.75 20,18.75 C16.55,18.75 13.75,15.95 13.75,12.5 C13.75,9.05 16.55,6.25 20,6.25 L20,6.25 Z M20,5 C15.8625,5 12.5,8.3625 12.5,12.5 C12.5,16.6375 15.8625,20 20,20 C24.1375,20 27.5,16.6375 27.5,12.5 C27.5,8.3625 24.1375,5 20,5 L20,5 Z" id="Shape" fill="#101828" fill-rule="nonzero"></path>
                    <path d="M20.775,25 L21.7125,32.5 L18.3,32.5 L19.2375,25 L20.775,25 L20.775,25 Z M21.875,23.75 L18.125,23.75 L16.875,33.75 L23.125,33.75 L21.875,23.75 L21.875,23.75 Z" id="Shape" fill="#101828" fill-rule="nonzero"></path>
                    <path d="M20,25 L20,25 C18.9625,25 18.125,24.1625 18.125,23.125 L18.125,23.125 C18.125,22.0875 18.9625,21.25 20,21.25 L20,21.25 C21.0375,21.25 21.875,22.0875 21.875,23.125 L21.875,23.125 C21.875,24.1625 21.0375,25 20,25 Z" id="Path" fill="#101828" fill-rule="nonzero"></path>
                    <path d="M20.625,22.5 L20.625,23.75 L19.375,23.75 L19.375,22.5 L20.625,22.5 L20.625,22.5 Z M20.625,21.25 L19.375,21.25 C18.6875,21.25 18.125,21.8125 18.125,22.5 L18.125,23.75 C18.125,24.4375 18.6875,25 19.375,25 L20.625,25 C21.3125,25 21.875,24.4375 21.875,23.75 L21.875,22.5 C21.875,21.8125 21.3125,21.25 20.625,21.25 L20.625,21.25 Z" id="Shape" fill="#101828" fill-rule="nonzero"></path>
                    <path d="M8.75,35 L8.75,27.5 C8.75,25.4375 10.4375,23.75 12.5,23.75 L27.5,23.75 C29.5625,23.75 31.25,25.4375 31.25,27.5 L31.25,35 L32.5,35 L32.5,27.5 C32.5,24.7375 30.2625,22.5 27.5,22.5 L12.5,22.5 C9.7375,22.5 7.5,24.7375 7.5,27.5 L7.5,35 L8.75,35 Z" id="Path" fill="#101828" fill-rule="nonzero"></path>
                    <rect id="Rectangle" x="0" y="0" width="40" height="40"></rect>
                </g>
            </g>
        </g>
    </g>
</svg>