<?xml version="1.0" encoding="UTF-8"?>
<svg width="80px" height="80px" viewBox="0 0 80 80" version="1.1" xmlns="http://www.w3.org/2000/svg" xmlns:xlink="http://www.w3.org/1999/xlink">
    <!-- Generator: Sketch 57.1 (83088) - https://sketch.com -->
    <title>121-B80px</title>
    <desc>Created with Sketch.</desc>
    <g id="121-B80px" stroke="none" stroke-width="1" fill="none" fill-rule="evenodd">
        <g>
            <path d="M67.475,15 L67.5,15.025 L67.475,65 L12.5,64.95 L12.525,15 L67.475,15 L67.475,15 Z M67.475,12.5 L12.525,12.5 C11.125,12.5 10,13.625 10,15.025 L10,64.975 C10,66.35 11.125,67.5 12.525,67.5 L67.475,67.5 C68.875,67.5 70,66.375 70,64.975 L70,15.025 C70,13.625 68.875,12.5 67.475,12.5 L67.475,12.5 Z" id="Shape" fill="#101828" fill-rule="nonzero"></path>
            <rect id="Rectangle" fill="#101828" fill-rule="nonzero" x="32.5" y="20" width="30" height="2.5"></rect>
            <rect id="Rectangle" fill="#101828" fill-rule="nonzero" x="32.5" y="25" width="30" height="2.5"></rect>
            <rect id="Rectangle" fill="#101828" fill-rule="nonzero" x="17.5" y="20" width="10" height="2.5"></rect>
            <rect id="Rectangle" fill="#101828" fill-rule="nonzero" x="17.5" y="25" width="10" height="2.5"></rect>
            <rect id="Rectangle" fill="#101828" fill-rule="nonzero" x="17.5" y="57.5" width="10" height="2.5"></rect>
            <path d="M60.125,32.5 L34.875,32.5 C33.575,32.5 32.5,33.55 32.5,34.875 L32.5,37.5 L35,37.5 L35,35 L60,35 L60,57.5 L35,57.5 L35,55 L32.5,55 L32.5,57.625 C32.5,58.95 33.575,60 34.875,60 L60.1,60 C61.425,60 62.475,58.925 62.475,57.625 L62.475,34.9 C62.5,33.55 61.425,32.5 60.125,32.5 Z" id="Path" fill="#101828" fill-rule="nonzero"></path>
            <path d="M23.725,34.8 L23.8,34.825 L40,51.025 L40,52.5 L38.525,52.5 L22.325,36.3 C22.3,36.275 22.3,36.175 22.325,36.15 L23.65,34.825 C23.65,34.825 23.675,34.8 23.725,34.8 L23.725,34.8 Z M23.725,32.3 C23.05,32.3 22.4,32.55 21.875,33.075 L20.55,34.4 C19.525,35.425 19.525,37.075 20.55,38.075 L37.5,55 L42.5,55 L42.5,50 L25.575,33.075 C25.05,32.55 24.4,32.3 23.725,32.3 L23.725,32.3 Z" id="Shape" fill="#101828" fill-rule="nonzero"></path>
            <polygon id="Rectangle" fill="#101828" fill-rule="nonzero" transform="translate(25.738884, 38.221911) rotate(-45.000000) translate(-25.738884, -38.221911) " points="24.2763978 36.9719232 27.2013697 36.9719232 27.2013697 39.4718993 24.2763978 39.4718993"></polygon>
            <rect id="Rectangle" x="0" y="0" width="80" height="80"></rect>
        </g>
    </g>
</svg>