<?xml version="1.0" encoding="UTF-8"?>
<svg width="32px" height="32px" viewBox="0 0 32 32" version="1.1" xmlns="http://www.w3.org/2000/svg" xmlns:xlink="http://www.w3.org/1999/xlink">
    <!-- Generator: Sketch 57.1 (83088) - https://sketch.com -->
    <title>021-B32px</title>
    <desc>Created with Sketch.</desc>
    <g id="021-B32px" stroke="none" stroke-width="1" fill="none" fill-rule="evenodd">
        <g>
            <path d="M20.47,18.35 C19.5,19.74 18.12,20.83 16.51,21.44 C18.01,19.74 19,16.82 19,13.5 C19,10.18 18.01,7.26 16.51,5.56 C18.12,6.17 19.5,7.26 20.47,8.65 C20.69,8.39 20.98,8.2 21.31,8.1 C19.6,5.62 16.74,4 13.5,4 C13.5,4 13.49,4 13.49,4 C13.49,4 13.49,4 13.48,4 C13.47,4 13.47,4 13.46,4 C8.23,4.02 4,8.27 4,13.5 C4,18.73 8.23,22.98 13.46,23 C13.47,23 13.47,23 13.48,23 C13.48,23 13.48,23 13.49,23 C13.49,23 13.5,23 13.5,23 C16.74,23 19.6,21.38 21.31,18.9 C20.98,18.79 20.69,18.6 20.47,18.35 Z M10.45,5.58 C9.69,6.44 9.06,7.62 8.63,9 L6.3,9 C7.27,7.45 8.72,6.24 10.45,5.58 Z M5.76,10 L8.36,10 C8.14,10.94 8.02,11.95 7.98,13 L5.03,13 C5.09,11.94 5.34,10.92 5.76,10 Z M5.03,14 L7.99,14 C8.02,15.05 8.15,16.06 8.37,17 L5.77,17 C5.34,16.08 5.09,15.06 5.03,14 Z M6.3,18 L8.63,18 C9.06,19.38 9.69,20.56 10.45,21.42 C8.72,20.76 7.27,19.55 6.3,18 Z M13,21.95 C11.62,21.66 10.41,20.14 9.68,18 L13,18 L13,21.95 Z M13,17 L9.39,17 C9.16,16.07 9.02,15.06 8.98,14 L13,14 L13,17 Z M13,13 L8.98,13 C9.01,11.94 9.16,10.93 9.39,10 L13,10 L13,13 Z M13,9 L9.68,9 C10.41,6.87 11.62,5.35 13,5.05 L13,9 Z M14,5.06 C15.37,5.37 16.57,6.88 17.29,9 L14,9 L14,5.06 Z M14,10 L17.58,10 C17.81,10.93 17.95,11.94 17.99,13 L14,13 L14,10 Z M14,14 L17.99,14 C17.96,15.06 17.81,16.07 17.58,17 L14,17 L14,14 Z M14,21.94 L14,18 L17.29,18 C16.57,20.12 15.37,21.63 14,21.94 Z" id="Shape" fill="#101828" fill-rule="nonzero"></path>
            <path d="M27,10 L27,17 L22,17 L22,10 L27,10 L27,10 Z M27,9 L22,9 C21.45,9 21,9.45 21,10 L21,17 C21,17.55 21.45,18 22,18 L27,18 C27.55,18 28,17.55 28,17 L28,10 C28,9.45 27.55,9 27,9 L27,9 Z" id="Shape" fill="#101828" fill-rule="nonzero"></path>
            <rect id="Rectangle" fill="#101828" fill-rule="nonzero" x="22" y="6" width="1" height="3.5"></rect>
            <rect id="Rectangle" fill="#101828" fill-rule="nonzero" x="26" y="6" width="1" height="3.5"></rect>
            <rect id="Rectangle" fill="#101828" fill-rule="nonzero" x="24" y="5" width="1" height="4.5"></rect>
            <polygon id="Path" fill="#101828" fill-rule="nonzero" points="24 28 24 18 25 18 25 28 26 28 26 17 23 17 23 28"></polygon>
            <rect id="Rectangle" x="0" y="0" width="32" height="32"></rect>
        </g>
    </g>
</svg>