<?xml version="1.0" encoding="UTF-8"?>
<svg width="80px" height="80px" viewBox="0 0 80 80" version="1.1" xmlns="http://www.w3.org/2000/svg" xmlns:xlink="http://www.w3.org/1999/xlink">
    <!-- Generator: Sketch 57.1 (83088) - https://sketch.com -->
    <title>085-W80px</title>
    <desc>Created with Sketch.</desc>
    <g id="NEW_icons" stroke="none" stroke-width="1" fill="none" fill-rule="evenodd">
        <g id="icons_UD_new-Copy" transform="translate(-2151.000000, -11018.000000)">
            <g id="085-W80px" transform="translate(2151.000000, 11018.000000)">
                <circle id="Oval-Copy-525" fill="#101828" cx="40" cy="40" r="40"></circle>
                <g id="085-B32px-Copy-8" transform="translate(12.000000, 12.000000)">
                    <path d="M26.25,45.5 C26.7225,45.5 27.125,45.115 27.125,44.625 C27.125,44.135 26.7225,43.75 26.25,43.75 C25.7775,43.75 25.375,44.135 25.375,44.625 C25.375,45.115 25.7775,45.5 26.25,45.5" id="Path" fill="#FFFFFF" fill-rule="nonzero"></path>
                    <rect id="Rectangle" fill="#FFFFFF" fill-rule="nonzero" x="12.25" y="40.25" width="28" height="1.75"></rect>
                    <path d="M38.5,35 L38.5,47.1625 C38.5,47.215 38.465,47.25 38.4125,47.25 L14.0875,47.25 C14.035,47.25 14,47.215 14,47.1625 L14,8.8375 C14,8.785 14.035,8.75 14.0875,8.75 L38.4125,8.75 C38.465,8.75 38.5,8.785 38.5,8.8375 L38.5,12.25 L40.25,12.25 L40.25,8.8375 C40.25,7.8225 39.4275,7 38.4125,7 L14.0875,7 C13.0725,7 12.25,7.8225 12.25,8.8375 L12.25,47.1625 C12.25,48.1775 13.0725,49 14.0875,49 L38.4125,49 C39.4275,49 40.25,48.1775 40.25,47.1625 L40.25,35 L38.5,35 Z" id="Path" fill="#FFFFFF" fill-rule="nonzero"></path>
                    <path d="M40.6,26.25 L39.375,28.1925 L38.15,26.25 L40.6,26.25 L40.6,26.25 Z M43.75,24.5 L35,24.5 L39.375,31.5 L43.75,24.5 L43.75,24.5 Z" id="Shape" fill="#FFFFFF" fill-rule="nonzero"></path>
                    <rect id="Rectangle" fill="#FFFFFF" fill-rule="nonzero" x="38.5" y="15.75" width="1.75" height="8.75"></rect>
                    <path d="M22.4525,24.5 C19.7225,24.5 17.5,26.845 17.5,29.75 C17.5,32.655 19.7225,35 22.4525,35 C25.1825,35 27.405,32.655 27.405,29.75 L27.405,29.75 L25.76,29.75 L22.75,29.75 L22.75,31.5 L25.2875,31.5 C24.71,32.55 23.66,33.25 22.4525,33.25 C20.6325,33.25 19.25,31.675 19.25,29.75 C19.25,27.825 20.6325,26.25 22.4525,26.25 C23.6775,26.25 24.7275,26.95 25.2875,28 L27.09,28 C26.4075,25.97 24.605,24.5 22.4525,24.5 L22.4525,24.5 Z" id="Path" fill="#FFFFFF" fill-rule="nonzero"></path>
                    <path d="M31.92,26.25 C32.655,26.25 33.25,26.845 33.25,27.58 C33.25,28.315 32.655,28.91 31.92,28.91 L29.75,28.91 L29.75,26.25 L31.92,26.25 L31.92,26.25 Z M31.92,24.5 L28,24.5 L28,30.66 L31.92,30.66 C33.6175,30.66 35,29.2775 35,27.58 C35,25.8825 33.6175,24.5 31.92,24.5 L31.92,24.5 Z" id="Shape" fill="#FFFFFF" fill-rule="nonzero"></path>
                    <path d="M31.92,30.59 C32.655,30.59 33.25,31.185 33.25,31.92 C33.25,32.655 32.655,33.25 31.92,33.25 L29.75,33.25 L29.75,30.59 L31.92,30.59 L31.92,30.59 Z M31.92,28.84 L28,28.84 L28,35 L31.92,35 C33.6175,35 35,33.6175 35,31.92 L35,31.92 C35,30.2225 33.6175,28.84 31.92,28.84 L31.92,28.84 Z" id="Shape" fill="#FFFFFF" fill-rule="nonzero"></path>
                    <path d="M20.125,17.5 C20.615,17.5 21,17.885 21,18.375 L22.75,18.375 C22.75,17.885 23.135,17.5 23.625,17.5 C24.115,17.5 24.5,17.885 24.5,18.375 L26.25,18.375 C26.25,16.9225 25.0775,15.75 23.625,15.75 C22.9425,15.75 22.3475,16.0125 21.875,16.4325 C21.4025,16.0125 20.8075,15.75 20.125,15.75 C18.6725,15.75 17.5,16.9225 17.5,18.375 L19.25,18.375 C19.25,17.885 19.635,17.5 20.125,17.5 Z" id="Path" fill="#FFFFFF" fill-rule="nonzero"></path>
                    <path d="M32.375,17.5 C32.865,17.5 33.25,17.885 33.25,18.375 L35,18.375 C35,16.9225 33.8275,15.75 32.375,15.75 C30.9225,15.75 29.75,16.9225 29.75,18.375 L31.5,18.375 C31.5,17.885 31.885,17.5 32.375,17.5 Z" id="Path" fill="#FFFFFF" fill-rule="nonzero"></path>
                    <rect id="Rectangle" fill="#FFFFFF" fill-rule="nonzero" x="17.5" y="15.75" width="1.75" height="5.25"></rect>
                    <rect id="Rectangle" fill="#FFFFFF" fill-rule="nonzero" x="21" y="16.625" width="1.75" height="4.375"></rect>
                    <rect id="Rectangle" fill="#FFFFFF" fill-rule="nonzero" x="24.5" y="18.375" width="1.75" height="2.625"></rect>
                    <polygon id="Path" fill="#FFFFFF" fill-rule="nonzero" points="28.875 15.75 27.125 15.75 27.125 21 28.875 21"></polygon>
                    <rect id="Rectangle" fill="#FFFFFF" fill-rule="nonzero" x="29.75" y="15.75" width="1.75" height="5.25"></rect>
                    <rect id="Rectangle" fill="#FFFFFF" fill-rule="nonzero" x="33.25" y="18.375" width="1.75" height="2.625"></rect>
                    <rect id="Rectangle" fill="#FFFFFF" fill-rule="nonzero" x="27.125" y="12.25" width="1.75" height="1.75"></rect>
                    <rect id="Rectangle" x="0" y="0" width="56" height="56"></rect>
                </g>
            </g>
        </g>
    </g>
</svg>