<?xml version="1.0" encoding="UTF-8"?>
<svg width="80px" height="80px" viewBox="0 0 80 80" version="1.1" xmlns="http://www.w3.org/2000/svg" xmlns:xlink="http://www.w3.org/1999/xlink">
    <!-- Generator: Sketch 57.1 (83088) - https://sketch.com -->
    <title>104-B80px</title>
    <desc>Created with Sketch.</desc>
    <g id="104-B80px" stroke="none" stroke-width="1" fill="none" fill-rule="evenodd">
        <g>
            <path d="M40,17.5 C46.9,17.5 52.5,23.1 52.5,30 C52.5,36.9 46.9,42.5 40,42.5 C33.1,42.5 27.5,36.9 27.5,30 C27.5,23.1 33.1,17.5 40,17.5 L40,17.5 Z M40,15 C31.725,15 25,21.725 25,30 C25,38.275 31.725,45 40,45 C48.275,45 55,38.275 55,30 C55,21.725 48.275,15 40,15 L40,15 Z" id="Shape" fill="#101828" fill-rule="nonzero"></path>
            <path d="M24.975,25 L24.975,35 L23.75,35 C23.025,35 22.5,34.55 22.5,34.175 L22.5,25.85 C22.5,25.45 23.025,25 23.75,25 L24.975,25 L24.975,25 Z M27.475,22.5 L23.75,22.5 C21.675,22.5 20,24 20,25.85 L20,34.175 C20,36 21.675,37.5 23.75,37.5 L27.5,37.5 L27.5,22.5 L27.475,22.5 Z" id="Shape" fill="#101828" fill-rule="nonzero"></path>
            <path d="M56.25,24.75 L53.75,24.75 L53.75,23.5 C53.75,21.875 53.05,20.125 51.65,18.275 C48.875,14.6 44.625,12.5 40,12.5 C35.375,12.5 31.125,14.6 28.35,18.275 C26.95,20.1 26.25,21.875 26.25,23.5 L26.25,24.75 L23.75,24.75 L23.75,23.5 C23.75,21.325 24.625,19.05 26.35,16.775 C29.6,12.475 34.575,10 40,10 C45.425,10 50.4,12.475 53.65,16.775 C55.375,19.05 56.25,21.325 56.25,23.5 L56.25,24.75 Z" id="Path" fill="#101828" fill-rule="nonzero"></path>
            <path d="M56.25,25 C56.975,25 57.5,25.45 57.5,25.825 L57.5,34.15 C57.5,34.55 56.95,35 56.225,35 L55,35 L55,25 L56.25,25 L56.25,25 Z M56.25,22.5 L52.5,22.5 L52.5,37.5 L56.225,37.5 C58.3,37.5 60,36 60,34.15 L60,25.825 C60,24 58.325,22.5 56.25,22.5 L56.25,22.5 Z" id="Shape" fill="#101828" fill-rule="nonzero"></path>
            <path d="M45.55,55 L42.45,55 L42.45,52.5 L45.55,52.5 C50.95,52.5 53.75,44.95 53.75,37.5 L56.25,37.5 C56.25,45.925 52.9,55 45.55,55 Z" id="Path" fill="#101828" fill-rule="nonzero"></path>
            <path d="M44.675,50 C44.8,50.2 44.975,50.65 44.975,51.25 C44.975,51.85 44.8,52.275 44.675,52.5 L40.3,52.475 C40.175,52.275 40,51.85 40,51.25 C40,50.65 40.175,50.225 40.3,50 L44.675,50 L44.675,50 Z M44.975,47.5 L40,47.5 C38.625,47.5 37.5,49.175 37.5,51.25 L37.5,51.25 C37.5,53.3 38.625,54.975 40,55 L44.975,55 C44.975,55 44.975,55 44.975,55 C46.35,55 47.475,53.325 47.475,51.25 L47.475,51.25 C47.475,49.175 46.35,47.5 44.975,47.5 L44.975,47.5 Z" id="Shape" fill="#101828" fill-rule="nonzero"></path>
            <path d="M60,60 L60,70 L62.5,70 L62.5,60 C62.5,55.35 59.3,51.475 55,50.35 L55,52.95 C57.9,54 60,56.75 60,60 Z" id="Path" fill="#101828" fill-rule="nonzero"></path>
            <path d="M30,52.5 L30,65 L12.5,65 L12.5,52.5 L25.05,52.5 L25.8,52.5 L26.425,52.075 L30,49.675 L30,49.7 L32.5,48.05 L32.5,45 L25.025,50 L12.5,50 C11.125,50 10,51.125 10,52.5 L10,65.025 C10,66.4 11.125,67.525 12.5,67.525 L30,67.525 C31.375,67.525 32.5,66.4 32.5,65.025 L32.5,52.5 L30,52.5 Z" id="Path" fill="#101828" fill-rule="nonzero"></path>
            <circle id="Oval" fill="#101828" fill-rule="nonzero" cx="16.25" cy="58.75" r="1.25"></circle>
            <circle id="Oval" fill="#101828" fill-rule="nonzero" cx="21.25" cy="58.75" r="1.25"></circle>
            <circle id="Oval" fill="#101828" fill-rule="nonzero" cx="26.25" cy="58.75" r="1.25"></circle>
            <rect id="Rectangle" x="0" y="0" width="80" height="80"></rect>
        </g>
    </g>
</svg>