<?xml version="1.0" encoding="UTF-8"?>
<svg width="42px" height="42px" viewBox="0 0 42 42" version="1.1" xmlns="http://www.w3.org/2000/svg" xmlns:xlink="http://www.w3.org/1999/xlink">
    <!-- Generator: Sketch 57.1 (83088) - https://sketch.com -->
    <title>144-G40px</title>
    <desc>Created with Sketch.</desc>
    <g id="NEW_icons" stroke="none" stroke-width="1" fill="none" fill-rule="evenodd">
        <g id="icons_UD_new-Copy" transform="translate(-244.000000, -18591.000000)">
            <g id="144-G40px" transform="translate(245.000000, 18592.000000)">
                <circle id="Oval-Copy-896" stroke="#E3E8EC" cx="20" cy="20" r="20"></circle>
                <g id="144-B32px-Copy" transform="translate(4.000000, 4.000000)">
                    <path d="M10.98,7 L10.98,8 L7.98,8 L7.98,7 L10.98,7 L10.98,7 Z M10.98,6 L7.98,6 C7.43,6 6.98,6.45 6.98,7 L6.98,8 C6.98,8.55 7.43,9 7.98,9 L10.98,9 C11.53,9 11.98,8.55 11.98,8 L11.98,7 C11.98,6.45 11.53,6 10.98,6 L10.98,6 Z" id="Shape" fill="#101828" fill-rule="nonzero"></path>
                    <path d="M19.47,13 C21.12,13 22.47,14.35 22.47,16 C22.47,17.65 21.12,19 19.47,19 C17.82,19 16.47,17.65 16.47,16 C16.47,14.35 17.82,13 19.47,13 L19.47,13 Z M19.47,12 C17.26,12 15.47,13.79 15.47,16 C15.47,18.21 17.26,20 19.47,20 C21.68,20 23.47,18.21 23.47,16 C23.47,13.79 21.68,12 19.47,12 L19.47,12 Z" id="Shape" fill="#101828" fill-rule="nonzero"></path>
                    <path d="M19.47,11 C22.23,11 24.47,13.24 24.47,16 C24.47,18.76 22.23,21 19.47,21 C16.71,21 14.47,18.76 14.47,16 C14.47,13.24 16.72,11 19.47,11 L19.47,11 Z M19.47,10 C16.16,10 13.47,12.69 13.47,16 C13.47,19.31 16.16,22 19.47,22 C22.78,22 25.47,19.31 25.47,16 C25.47,12.69 22.79,10 19.47,10 L19.47,10 Z" id="Shape" fill="#101828" fill-rule="nonzero"></path>
                    <path d="M7.98,11 C7.43,11 6.98,11.45 6.98,12 C6.98,12.55 7.43,13 7.98,13 C8.53,13 8.98,12.55 8.98,12 C8.98,11.45 8.53,11 7.98,11 L7.98,11 Z" id="Path" fill="#101828" fill-rule="nonzero"></path>
                    <path d="M23.35,7 L24.07,8.45 L24.35,9 L24.97,9 L27,8.98 L27.02,24 L5,24.02 L4.98,9 L13.98,9 L14.6,9 L14.88,8.45 L15.59,7 L23.35,7 L23.35,7 Z M23.97,6 L14.97,6 L13.97,8 L4.97,8 C4.44,8 4,8.44 4,8.98 L4,24.02 C4,24.56 4.44,25 4.98,25 L27.02,25 C27.56,25 28,24.56 28,24.02 L28,8.98 C28,8.44 27.56,8 27.02,8 L24.97,8 L23.97,6 L23.97,6 Z" id="Shape" fill="#101828" fill-rule="nonzero"></path>
                    <rect id="Rectangle" x="0" y="0" width="32" height="32"></rect>
                </g>
            </g>
        </g>
    </g>
</svg>