<?xml version="1.0" encoding="UTF-8"?>
<svg width="42px" height="42px" viewBox="0 0 42 42" version="1.1" xmlns="http://www.w3.org/2000/svg" xmlns:xlink="http://www.w3.org/1999/xlink">
    <!-- Generator: Sketch 54.1 (76490) - https://sketchapp.com -->
    <title>148-G40px</title>
    <desc>Created with Sketch.</desc>
    <g id="NEW_icons" stroke="none" stroke-width="1" fill="none" fill-rule="evenodd">
        <g id="icons_UD_new-Copy" transform="translate(-242.000000, -18950.000000)">
            <g id="148-G40px" transform="translate(243.000000, 18951.000000)">
                <circle id="Oval-Copy-12" stroke="#E3E8EC" cx="20" cy="20" r="20"></circle>
                <g id="148-B32px-Copy" transform="translate(4.000000, 4.000000)">
                    <path d="M16.5,23.5 C16.2,23.5 16,23.7 16,24 C16,24.3 16.2,24.5 16.5,24.5 C16.8,24.5 17,24.3 17,24 C17,23.7 16.8,23.5 16.5,23.5 L16.5,23.5 Z" id="Path" fill="#101828" fill-rule="nonzero"></path>
                    <path d="M26.9,14 C27,14 27,14 26.9,14 L27,24.9 C27,24.9 27,25 26.9,25 L21,25 C21,25 20.9,25 20.9,24.9 L20.9,14.1 C20.9,14.1 20.9,14 21,14 L26.9,14 L26.9,14 Z M26.9,13 L21,13 C20.4,13 19.9,13.5 19.9,14.1 L19.9,25 C19.9,25.6 20.4,26.1 21,26.1 L26.9,26.1 C27.5,26.1 28,25.6 28,25 L28,14.1 C28,13.5 27.5,13 26.9,13 L26.9,13 Z" id="Shape" fill="#101828" fill-rule="nonzero"></path>
                    <rect id="Rectangle" fill="#101828" fill-rule="nonzero" x="20" y="22" width="8" height="1"></rect>
                    <circle id="Oval" fill="#101828" fill-rule="nonzero" cx="24" cy="24" r="1"></circle>
                    <path d="M10,20.4 C8.7,20.6 7.7,20.8 7,21 L7,22 C7.6,21.9 8.6,21.6 10,21.4 L10,20.4 Z" id="Path" fill="#101828" fill-rule="nonzero"></path>
                    <path d="M27,7 L5,7 C4.5,7 4,7.5 4,8 L4,19 C4,19.6 4.5,20 5,20 L10,20 L10,19 L5,19 L5,8 L27,8 L27,8 L27,12 L27.7,12 C27.8,12 27.9,12 28,12.1 L28,8 C28,7.5 27.5,7 27,7 Z" id="Path" fill="#101828" fill-rule="nonzero"></path>
                    <path d="M19,25 L12.1,25 C12.1,25 12,25 12,24.9 L12,23 L19,23 L19,22 L12,22 L12,11.1 C12,11.1 12,11 12.1,11 L21,11 C21,11 21.1,11 21.1,11.1 L21.1,12 L22.1,12 L22.1,11.1 C22.1,10.5 21.6,10 21,10 L12.1,10 C11.5,10 11,10.5 11,11.1 L11,25 C11,25.6 11.5,26.1 12.1,26.1 L19.1,26.1 C19.1,26 19,25.9 19,25.8 L19,25 Z" id="Path" fill="#101828" fill-rule="nonzero"></path>
                    <rect id="Rectangle" x="0" y="0" width="32" height="32"></rect>
                </g>
            </g>
        </g>
    </g>
</svg>