<?xml version="1.0" encoding="UTF-8"?>
<svg width="56px" height="56px" viewBox="0 0 56 56" version="1.1" xmlns="http://www.w3.org/2000/svg" xmlns:xlink="http://www.w3.org/1999/xlink">
    <!-- Generator: Sketch 54.1 (76490) - https://sketchapp.com -->
    <title>051-W56px</title>
    <desc>Created with Sketch.</desc>
    <g id="NEW_icons" stroke="none" stroke-width="1" fill="none" fill-rule="evenodd">
        <g id="icons_UD_new-Copy" transform="translate(-1814.000000, -6626.000000)">
            <g id="051-W56px" transform="translate(1814.000000, 6626.000000)">
                <g id="003-B32px-Copy-90" transform="translate(8.000000, 8.000000)">
                    <g id="Group" transform="translate(10.000000, 5.000000)" fill="#FFFFFF" fill-rule="nonzero">
                        <path d="M18.6875,0 L1.3125,0 C0.5875,0 0,0.5875 0,1.3125 L0,23.75 L0,25 L0,28.6875 C0,29.4125 0.5875,30 1.3125,30 L18.6875,30 C19.4125,30 20,29.4125 20,28.6875 L20,25 L20,23.75 L20,1.3125 C20,0.5875 19.4125,0 18.6875,0 Z M18.75,28.6875 C18.75,28.725 18.725,28.75 18.6875,28.75 L1.3125,28.75 C1.275,28.75 1.25,28.725 1.25,28.6875 L1.25,25 L18.75,25 L18.75,28.6875 Z M1.25,23.75 L1.25,1.3125 C1.25,1.275 1.275,1.25 1.3125,1.25 L18.6875,1.25 C18.725,1.25 18.75,1.275 18.75,1.3125 L18.75,23.75 L1.25,23.75 Z" id="Shape"></path>
                        <path d="M10,27.4875 C10.3375,27.4875 10.625,27.2125 10.625,26.8625 C10.625,26.525 10.35,26.2375 10,26.2375 C9.65,26.2375 9.375,26.5125 9.375,26.8625 C9.375,27.2125 9.6625,27.4875 10,27.4875 Z" id="Path"></path>
                        <path d="M12.5125,20 L7.5,20.0125 L7.5,16.25 L6.25,16.25 L6.25,20.0125 C6.25,20.6875 6.8,21.25 7.4875,21.25 L12.525,21.25 C13.2,21.25 13.7625,20.7 13.7625,20.0125 L13.7625,16.25 L12.5125,16.25 L12.5125,20 Z" id="Path"></path>
                        <polygon id="Path" points="4.775 15.575 5.5625 16.5375 10 12.875 14.4375 16.5375 15.225 15.575 10 11.2625"></polygon>
                        <path d="M12.6,7.3125 C11.925,6.65 11.0125,6.25 10,6.25 C8.9625,6.25 8.025,6.675 7.35,7.35 L8.2375,8.2375 C8.6875,7.775 9.3125,7.5 10,7.5 C10.6625,7.5 11.275,7.7625 11.7125,8.1875 L12.6,7.3125 Z" id="Path"></path>
                        <path d="M9.1125,9.1125 L9.95,9.95 L10.825,9.075 C10.6125,8.875 10.325,8.75 10,8.75 C9.65,8.75 9.3375,8.8875 9.1125,9.1125 Z" id="Path"></path>
                        <path d="M10,5 C11.35,5 12.5875,5.55 13.4875,6.425 L14.375,5.5375 C13.2375,4.4375 11.7,3.75 10,3.75 C8.275,3.75 6.7125,4.45 5.575,5.575 L6.4625,6.4625 C7.375,5.5625 8.625,5 10,5 Z" id="Path"></path>
                    </g>
                    <rect id="Rectangle" x="0" y="0" width="40" height="40"></rect>
                </g>
                <circle id="Oval-Copy-400" fill="#101828" cx="28" cy="28" r="28"></circle>
                <g id="051-B32px-Copy-7" transform="translate(8.000000, 8.000000)">
                    <path d="M13.7125,10.625 C14.05,10.625 14.3375,10.35 14.3375,10 C14.3375,9.6625 14.0625,9.375 13.7125,9.375 C13.3625,9.375 13.0875,9.65 13.0875,10 C13.0875,10.35 13.375,10.625 13.7125,10.625" id="Path" fill="#FFFFFF" fill-rule="nonzero"></path>
                    <path d="M8.7375,10.625 C9.075,10.625 9.3625,10.35 9.3625,10 C9.3625,9.6625 9.0875,9.375 8.7375,9.375 C8.4,9.375 8.125,9.6625 8.125,10 C8.125,10.35 8.4,10.625 8.7375,10.625" id="Path" fill="#FFFFFF" fill-rule="nonzero"></path>
                    <path d="M11.2375,10.625 C11.575,10.625 11.8625,10.35 11.8625,10 C11.8625,9.6625 11.5875,9.375 11.2375,9.375 C10.9,9.375 10.625,9.6625 10.625,10 C10.625,10.35 10.9,10.625 11.2375,10.625" id="Path" fill="#FFFFFF" fill-rule="nonzero"></path>
                    <rect id="Rectangle" fill="#FFFFFF" fill-rule="nonzero" x="6.25" y="11.25" width="27.5" height="1.25"></rect>
                    <path d="M33.75,7.5 L6.25,7.5 C5.5625,7.5 5,8.0625 5,8.75 L5,27.5 C5,28.1875 5.5625,28.75 6.25,28.75 L12.5125,28.75 C12.2125,28.35 11.95,27.9375 11.7125,27.5 L6.25,27.5 L6.25,8.75 L33.75,8.75 L33.75,27.5 L28.2875,27.5 C28.05,27.9375 27.7875,28.35 27.4875,28.75 L33.75,28.75 C34.4375,28.75 35,28.1875 35,27.5 L35,8.75 C35,8.0625 34.4375,7.5 33.75,7.5 Z" id="Path" fill="#FFFFFF" fill-rule="nonzero"></path>
                    <path d="M20,16.25 C23.7875,16.25 26.875,19.3375 26.875,23.125 C26.875,26.9125 23.7875,30 20,30 C16.2125,30 13.125,26.9125 13.125,23.125 C13.125,19.3375 16.2125,16.25 20,16.25 L20,16.25 Z M20,15 C15.5125,15 11.875,18.6375 11.875,23.125 C11.875,27.6125 15.5125,31.25 20,31.25 C24.4875,31.25 28.125,27.6125 28.125,23.125 C28.125,18.6375 24.4875,15 20,15 L20,15 Z" id="Shape" fill="#FFFFFF" fill-rule="nonzero"></path>
                    <path d="M23.75,22.5 L23.75,23.75 L16.25,23.75 L16.25,22.5 L23.75,22.5 L23.75,22.5 Z M25,21.25 L15,21.25 L15,25 L25,25 L25,21.25 L25,21.25 Z" id="Shape" fill="#FFFFFF" fill-rule="nonzero"></path>
                    <rect id="Rectangle" x="0" y="0" width="40" height="40"></rect>
                </g>
            </g>
        </g>
    </g>
</svg>