<?xml version="1.0" encoding="UTF-8"?>
<svg width="80px" height="80px" viewBox="0 0 80 80" version="1.1" xmlns="http://www.w3.org/2000/svg" xmlns:xlink="http://www.w3.org/1999/xlink">
    <!-- Generator: Sketch 54.1 (76490) - https://sketchapp.com -->
    <title>002-W80px</title>
    <desc>Created with Sketch.</desc>
    <g id="NEW_icons" stroke="none" stroke-width="1" fill="none" fill-rule="evenodd">
        <g id="icons_UD_new-Copy" transform="translate(-869.000000, -576.000000)">
            <g id="002-W80px" transform="translate(869.000000, 576.000000)">
                <circle id="Oval-Copy-80" fill="#101828" cx="40" cy="40" r="40"></circle>
                <g id="002-B32px-Copy-8" transform="translate(12.000000, 12.000000)">
                    <g id="Group" transform="translate(7.000000, 7.000000)" fill="#FFFFFF" fill-rule="nonzero">
                        <path d="M35,19.25 L35,21 L35,40.25 L7,40.25 L7,21 L7,19.25 L7,17.5 L5.25,17.5 L5.25,40.25 C5.25,41.2125 6.0375,42 7,42 L35,42 C35.9625,42 36.75,41.2125 36.75,40.25 L36.75,17.5 L35,17.5 L35,19.25 Z" id="Path"></path>
                        <polygon id="Path" points="21 0.0175 0.315 17.0975 1.435 18.445 21 2.275 40.565 18.445 41.685 17.0975"></polygon>
                        <path d="M11.2525,24.675 C10.815,24.7975 10.5,25.2 10.5,25.655 L10.5,26.8975 C10.5,27.3525 10.815,27.755 11.2525,27.8775 L13.125,28.3675 C13.3175,29.0675 13.5975,29.75 13.9475,30.3625 L12.985,32.025 C12.7575,32.4275 12.8275,32.9175 13.1425,33.25 L14.0175,34.125 C14.21,34.3175 14.4725,34.4225 14.735,34.4225 C14.91,34.4225 15.085,34.37 15.2425,34.2825 L16.905,33.32 C17.535,33.6875 18.2,33.95 18.9175,34.1425 L19.425,35.9975 C19.5475,36.435 19.95,36.75 20.405,36.75 L21.6475,36.75 C22.1025,36.75 22.505,36.435 22.6275,35.9975 L23.1175,34.1425 C23.835,33.95 24.5,33.67 25.13,33.3025 L26.7925,34.265 C26.95,34.3525 27.125,34.405 27.3,34.405 C27.5625,34.405 27.825,34.3 28.0175,34.1075 L28.8925,33.2325 C29.2075,32.9 29.2775,32.41 29.05,32.0075 L28.0875,30.345 C28.455,29.715 28.7175,29.05 28.91,28.3325 L30.765,27.8425 C31.2025,27.72 31.5175,27.3175 31.5175,26.8625 L31.5175,25.62 C31.5175,25.165 31.2025,24.7625 30.765,24.64 L28.91,24.15 C28.7175,23.4325 28.4375,22.7675 28.07,22.155 L29.0325,20.4925 C29.26,20.09 29.19,19.6 28.875,19.2675 L28,18.3925 C27.8075,18.2 27.545,18.095 27.2825,18.095 C27.1075,18.095 26.9325,18.1475 26.775,18.235 L25.1125,19.1975 C24.5,18.8475 23.8175,18.5675 23.1175,18.375 L22.61,16.52 C22.4875,16.0825 22.085,15.7675 21.63,15.7675 L20.3875,15.7675 C19.9325,15.7675 19.53,16.0825 19.4075,16.52 L18.9175,18.3925 C18.2175,18.585 17.535,18.865 16.9225,19.215 L15.2425,18.2525 C15.085,18.165 14.91,18.1125 14.735,18.1125 C14.4725,18.1125 14.21,18.2175 14.0175,18.41 L13.1425,19.285 C12.8275,19.6175 12.7575,20.1075 12.985,20.51 L13.9475,22.1725 C13.5975,22.785 13.3175,23.4675 13.125,24.1675 L11.2525,24.675 Z M14.4375,25.48 L14.6825,24.57 C14.8225,24.01 15.05,23.4675 15.3475,22.9775 L15.82,22.1725 L15.3475,21.3675 L14.6125,20.1075 L14.84,19.88 L16.1175,20.615 L16.9225,21.0875 L17.7275,20.615 C18.2175,20.3175 18.76,20.1075 19.32,19.95 L20.23,19.705 L20.475,18.795 L20.8425,17.3775 L21.1575,17.3775 L21.5425,18.795 L21.7875,19.705 L22.6975,19.95 C23.2575,20.09 23.8,20.3175 24.3075,20.615 L25.1125,21.0875 L25.9175,20.615 L27.1775,19.88 L27.405,20.1075 L26.67,21.3675 L26.1975,22.1725 L26.67,22.9775 C26.9675,23.485 27.195,24.01 27.335,24.5875 L27.58,25.4975 L28.49,25.7425 L29.9075,26.11 L29.9075,26.425 L28.5075,26.81 L27.5975,27.055 L27.3525,27.965 C27.195,28.525 26.985,29.0675 26.6875,29.575 L26.215,30.38 L26.6875,31.185 L27.4225,32.445 L27.195,32.6725 L25.935,31.955 L25.13,31.4825 L24.325,31.955 C23.8175,32.2525 23.2925,32.48 22.715,32.62 L21.805,32.865 L21.56,33.775 L21.1925,35.175 L20.8775,35.175 L20.4925,33.775 L20.2475,32.865 L19.3375,32.62 C18.7775,32.4625 18.235,32.2525 17.7275,31.955 L16.9225,31.4825 L16.1175,31.955 L14.8575,32.69 L14.63,32.4625 L15.365,31.2025 L15.8375,30.3975 L15.365,29.5925 C15.0675,29.1025 14.8575,28.56 14.7,28 L14.455,27.09 L13.545,26.845 L12.1275,26.4775 L12.1275,26.1625 L13.545,25.7775 L14.4375,25.48 Z" id="Shape"></path>
                        <path d="M21.0175,30.345 C23.275,30.345 25.095,28.5075 25.095,26.25 C25.095,23.9925 23.2575,22.1725 21,22.1725 C18.7425,22.1725 16.9225,24.01 16.9225,26.2675 C16.9225,28.525 18.76,30.345 21.0175,30.345 Z M21,23.7825 C22.365,23.7825 23.4675,24.885 23.4675,26.25 C23.4675,27.615 22.365,28.7175 21,28.7175 C19.635,28.7175 18.5325,27.615 18.5325,26.25 C18.5325,24.9025 19.635,23.7825 21,23.7825 Z" id="Shape"></path>
                    </g>
                    <rect id="Rectangle" x="0" y="0" width="56" height="56"></rect>
                </g>
            </g>
        </g>
    </g>
</svg>