<?xml version="1.0" encoding="UTF-8"?>
<svg width="56px" height="56px" viewBox="0 0 56 56" version="1.1" xmlns="http://www.w3.org/2000/svg" xmlns:xlink="http://www.w3.org/1999/xlink">
    <!-- Generator: Sketch 57.1 (83088) - https://sketch.com -->
    <title>065-G56px</title>
    <desc>Created with Sketch.</desc>
    <g id="NEW_icons" stroke="none" stroke-width="1" fill="none" fill-rule="evenodd">
        <g id="icons_UD_new-Copy" transform="translate(-1728.000000, -8539.000000)">
            <g id="065-G56px" transform="translate(1728.000000, 8539.000000)">
                <circle id="Oval-Copy-445" fill="#E3E8EC" cx="28" cy="28" r="28"></circle>
                <g id="065-B32px-Copy-5" transform="translate(8.000000, 8.000000)">
                    <rect id="Rectangle" fill="#101828" fill-rule="nonzero" x="10" y="28.75" width="20" height="1.25"></rect>
                    <path d="M20,32.5 C20.3375,32.5 20.625,32.225 20.625,31.875 C20.625,31.525 20.3375,31.25 20,31.25 C19.6625,31.25 19.375,31.525 19.375,31.875 C19.375,32.225 19.6625,32.5 20,32.5" id="Path" fill="#101828" fill-rule="nonzero"></path>
                    <path d="M28.75,25 L28.75,33.6875 C28.75,33.725 28.725,33.75 28.6875,33.75 L11.3125,33.75 C11.275,33.75 11.25,33.725 11.25,33.6875 L11.25,17.5 L10,17.5 L10,33.6875 C10,34.4125 10.5875,35 11.3125,35 L28.6875,35 C29.4125,35 30,34.4125 30,33.6875 L30,25 L28.75,25 Z" id="Path" fill="#101828" fill-rule="nonzero"></path>
                    <path d="M11.25,6.3125 C11.25,6.275 11.275,6.25 11.3125,6.25 L28.6875,6.25 C28.725,6.25 28.75,6.275 28.75,6.3125 L28.75,15 L30,15 L30,6.3125 C30,5.5875 29.4125,5 28.6875,5 L11.3125,5 C10.5875,5 10,5.5875 10,6.3125 L10,7.5 L11.25,7.5 L11.25,6.3125 Z" id="Path" fill="#101828" fill-rule="nonzero"></path>
                    <path d="M16.4,15.675 L15.7125,15.2125 L15.4,15 L15.025,15 L7.5,15 L7.5,10 L17.5,10 L17.5,13.75 L18.75,13.75 L18.75,10 C18.75,9.3125 18.1875,8.75 17.5,8.75 L7.5,8.75 C6.8125,8.75 6.25,9.3125 6.25,10 L6.25,15 C6.25,15.6875 6.8125,16.25 7.5,16.25 L15.025,16.25 L18.75,18.75 L18.75,17.5 L18.75,17.275 L16.4,15.675 Z" id="Path" fill="#101828" fill-rule="nonzero"></path>
                    <path d="M32.5,16.25 L22.5,16.25 C21.8125,16.25 21.25,16.8125 21.25,17.5 L21.25,21.25 L22.5,21.25 L22.5,17.5 L32.5,17.5 L32.5,22.5 L24.975,22.5 L24.6,22.5 L24.2875,22.7125 L23.2375,23.4125 L21.25,24.775 L21.25,25 L21.25,26.25 L24.9875,23.75 L32.5,23.75 C33.1875,23.75 33.75,23.1875 33.75,22.5 L33.75,17.5 C33.75,16.8125 33.1875,16.25 32.5,16.25 Z" id="Path" fill="#101828" fill-rule="nonzero"></path>
                    <rect id="Rectangle" x="0" y="0" width="40" height="40"></rect>
                </g>
            </g>
        </g>
    </g>
</svg>