<?xml version="1.0" encoding="UTF-8"?>
<svg width="42px" height="42px" viewBox="0 0 42 42" version="1.1" xmlns="http://www.w3.org/2000/svg" xmlns:xlink="http://www.w3.org/1999/xlink">
    <!-- Generator: Sketch 58 (84663) - https://sketch.com -->
    <title>259-G40px</title>
    <desc>Created with Sketch.</desc>
    <g id="NEW_icons" stroke="none" stroke-width="1" fill="none" fill-rule="evenodd">
        <g id="icons_UD_new-Copy" transform="translate(-1526.000000, -32912.000000)">
            <g id="259-G40px" transform="translate(1527.000000, 32913.000000)">
                <circle id="Oval-Copy-1471" stroke="#E3E8EC" cx="20" cy="20" r="20"></circle>
                <g id="259-B32px" transform="translate(4.000000, 4.000000)">
                    <g>
                        <path d="M16,22.5 C16,22.22 16.02,21.94 16.06,21.67 C12.83,19.99 10.32,17.44 10.29,17.4 C10.24,17.34 5.57,12.46 5,7.65 C5,7.62 5,7.57 5.03,7.54 L7.65,5.01 C7.67,4.99 7.69,4.98 7.72,4.98 C7.75,4.98 7.77,5 7.77,5 L11.72,9.08 C11.75,9.11 11.74,9.17 11.71,9.2 L9.96,10.89 L9.48,11.36 L9.73,11.98 C9.77,12.08 10.7,14.35 12.03,15.72 C13.36,17.09 15.6,18.1 15.7,18.14 L16.32,18.41 L16.8,17.94 L18.55,16.25 C18.57,16.23 18.59,16.22 18.62,16.22 C18.65,16.22 18.67,16.24 18.67,16.24 L19.27,16.86 C19.57,16.68 19.89,16.53 20.22,16.41 L19.38,15.54 C19.17,15.32 18.89,15.21 18.61,15.21 C18.34,15.21 18.06,15.31 17.85,15.52 L16.1,17.21 C16.1,17.21 13.96,16.26 12.75,15.01 C11.54,13.76 10.66,11.59 10.66,11.59 L12.41,9.9 C12.84,9.48 12.86,8.8 12.44,8.37 L8.48,4.3 C8.27,4.09 7.99,3.98 7.71,3.98 C7.44,3.98 7.16,4.08 6.95,4.29 L4.33,6.82 C4.08,7.07 3.97,7.41 4.01,7.76 C4.63,12.98 9.57,18.08 9.57,18.08 C9.57,18.08 12.38,20.98 16.01,22.75 C16.01,22.67 16,22.59 16,22.5 Z" id="Path" fill="#101828" fill-rule="nonzero"></path>
                        <path d="M22.84,26.71 C20.32,26.71 18.28,24.66 18.28,22.15 L19.28,22.15 C19.28,24.11 20.88,25.71 22.84,25.71 L22.84,26.71 Z" id="Path" fill="#101828" fill-rule="nonzero"></path>
                        <path d="M26.77,22.79 L25.77,22.79 C25.77,20.83 24.17,19.23 22.21,19.23 L22.21,18.23 C24.72,18.23 26.77,20.27 26.77,22.79 Z" id="Path" fill="#101828" fill-rule="nonzero"></path>
                        <path d="M22.5,18 C24.98,18 27,20.02 27,22.5 C27,24.98 24.98,27 22.5,27 C20.02,27 18,24.98 18,22.5 C18,20.02 20.02,18 22.5,18 L22.5,18 Z M22.5,17 C19.46,17 17,19.46 17,22.5 C17,25.54 19.46,28 22.5,28 C25.54,28 28,25.54 28,22.5 C28,19.46 25.54,17 22.5,17 L22.5,17 Z" id="Shape" fill="#101828" fill-rule="nonzero"></path>
                        <path d="M22.49,18 C24.97,18 26.99,20.02 26.99,22.5 C26.99,24.98 24.97,27 22.49,27 C20.01,27 17.99,24.98 17.99,22.5 C17.99,20.02 20.01,18 22.49,18 L22.49,18 Z M22.49,17 C19.45,17 16.99,19.46 16.99,22.5 C16.99,25.54 19.45,28 22.49,28 C25.53,28 27.99,25.54 27.99,22.5 C27.99,19.46 25.53,17 22.49,17 L22.49,17 Z" id="Shape" fill="#101828" fill-rule="nonzero"></path>
                        <rect id="Rectangle" fill="#101828" fill-rule="nonzero" x="22" y="22" width="1" height="3"></rect>
                        <rect id="Rectangle" fill="#101828" fill-rule="nonzero" x="22" y="20.5" width="1" height="1"></rect>
                        <rect id="Rectangle" x="0" y="0" width="32" height="32"></rect>
                    </g>
                </g>
            </g>
        </g>
    </g>
</svg>