<?xml version="1.0" encoding="UTF-8"?>
<svg width="42px" height="42px" viewBox="0 0 42 42" version="1.1" xmlns="http://www.w3.org/2000/svg" xmlns:xlink="http://www.w3.org/1999/xlink">
    <!-- Generator: Sketch 57.1 (83088) - https://sketch.com -->
    <title>104-G40px</title>
    <desc>Created with Sketch.</desc>
    <g id="NEW_icons" stroke="none" stroke-width="1" fill="none" fill-rule="evenodd">
        <g id="icons_UD_new-Copy" transform="translate(-244.000000, -13571.000000)">
            <g id="104-G40px" transform="translate(245.000000, 13572.000000)">
                <circle id="Oval-Copy-644" stroke="#E3E8EC" cx="20" cy="20" r="20"></circle>
                <g id="104-B32px-Copy-2" transform="translate(4.000000, 4.000000)">
                    <path d="M16,7 C18.76,7 21,9.24 21,12 C21,14.76 18.76,17 16,17 C13.24,17 11,14.76 11,12 C11,9.24 13.24,7 16,7 L16,7 Z M16,6 C12.69,6 10,8.69 10,12 C10,15.31 12.69,18 16,18 C19.31,18 22,15.31 22,12 C22,8.69 19.31,6 16,6 L16,6 Z" id="Shape" fill="#101828" fill-rule="nonzero"></path>
                    <path d="M9.99,10 L9.99,14 L9.5,14 C9.21,14 9,13.82 9,13.67 L9,10.34 C9,10.18 9.21,10 9.5,10 L9.99,10 L9.99,10 Z M10.99,9 L9.5,9 C8.67,9 8,9.6 8,10.34 L8,13.67 C8,14.4 8.67,15 9.5,15 L11,15 L11,9 L10.99,9 Z" id="Shape" fill="#101828" fill-rule="nonzero"></path>
                    <path d="M22.5,9.9 L21.5,9.9 L21.5,9.4 C21.5,8.75 21.22,8.05 20.66,7.31 C19.55,5.84 17.85,5 16,5 C14.15,5 12.45,5.84 11.34,7.31 C10.78,8.04 10.5,8.75 10.5,9.4 L10.5,9.9 L9.5,9.9 L9.5,9.4 C9.5,8.53 9.85,7.62 10.54,6.71 C11.84,4.99 13.83,4 16,4 C18.17,4 20.16,4.99 21.46,6.71 C22.15,7.62 22.5,8.53 22.5,9.4 L22.5,9.9 Z" id="Path" fill="#101828" fill-rule="nonzero"></path>
                    <path d="M22.5,10 C22.79,10 23,10.18 23,10.33 L23,13.66 C23,13.82 22.78,14 22.49,14 L22,14 L22,10 L22.5,10 L22.5,10 Z M22.5,9 L21,9 L21,15 L22.49,15 C23.32,15 24,14.4 24,13.66 L24,10.33 C24,9.6 23.33,9 22.5,9 L22.5,9 Z" id="Shape" fill="#101828" fill-rule="nonzero"></path>
                    <path d="M18.22,22 L16.98,22 L16.98,21 L18.22,21 C20.38,21 21.5,17.98 21.5,15 L22.5,15 C22.5,18.37 21.16,22 18.22,22 Z" id="Path" fill="#101828" fill-rule="nonzero"></path>
                    <path d="M17.87,20 C17.92,20.08 17.99,20.26 17.99,20.5 C17.99,20.74 17.92,20.91 17.87,21 L16.12,20.99 C16.07,20.91 16,20.74 16,20.5 C16,20.26 16.07,20.09 16.12,20 L17.87,20 L17.87,20 Z M17.99,19 L16,19 C15.45,19 15,19.67 15,20.5 L15,20.5 C15,21.32 15.45,21.99 16,22 L17.99,22 C17.99,22 17.99,22 17.99,22 C18.54,22 18.99,21.33 18.99,20.5 L18.99,20.5 C18.99,19.67 18.54,19 17.99,19 L17.99,19 Z" id="Shape" fill="#101828" fill-rule="nonzero"></path>
                    <path d="M24,24 L24,28 L25,28 L25,24 C25,22.14 23.72,20.59 22,20.14 L22,21.18 C23.16,21.6 24,22.7 24,24 Z" id="Path" fill="#101828" fill-rule="nonzero"></path>
                    <path d="M12,21 L12,26 L5,26 L5,21 L10.02,21 L10.32,21 L10.57,20.83 L12,19.87 L12,19.88 L13,19.22 L13,18 L10.01,20 L5,20 C4.45,20 4,20.45 4,21 L4,26.01 C4,26.56 4.45,27.01 5,27.01 L12,27.01 C12.55,27.01 13,26.56 13,26.01 L13,21 L12,21 Z" id="Path" fill="#101828" fill-rule="nonzero"></path>
                    <circle id="Oval" fill="#101828" fill-rule="nonzero" cx="6.5" cy="23.5" r="1"></circle>
                    <circle id="Oval" fill="#101828" fill-rule="nonzero" cx="8.5" cy="23.5" r="1"></circle>
                    <circle id="Oval" fill="#101828" fill-rule="nonzero" cx="10.5" cy="23.5" r="1"></circle>
                    <rect id="Rectangle" x="0" y="0" width="32" height="32"></rect>
                </g>
            </g>
        </g>
    </g>
</svg>