<?xml version="1.0" encoding="UTF-8"?>
<svg width="80px" height="80px" viewBox="0 0 80 80" version="1.1" xmlns="http://www.w3.org/2000/svg" xmlns:xlink="http://www.w3.org/1999/xlink">
    <!-- Generator: Sketch 57.1 (83088) - https://sketch.com -->
    <title>084-B80px</title>
    <desc>Created with Sketch.</desc>
    <g id="084-B80px" stroke="none" stroke-width="1" fill="none" fill-rule="evenodd">
        <g>
            <path d="M35.025,65 C35.7,65 36.275,64.45 36.275,63.75 C36.275,63.05 35.725,62.5 35.025,62.5 C34.325,62.5 33.775,63.05 33.775,63.75 C33.775,64.45 34.325,65 35.025,65" id="Path" fill="#101828" fill-rule="nonzero"></path>
            <path d="M35.025,20 C41.925,20 47.55,25.6 47.55,32.5 C47.55,39.4 41.925,45 35.025,45 C28.125,45 22.5,39.4 22.5,32.5 C22.5,25.6 28.125,20 35.025,20 L35.025,20 Z M35.025,17.5 C26.725,17.5 20,24.225 20,32.5 C20,40.775 26.725,47.5 35.025,47.5 C43.325,47.5 50.05,40.775 50.05,32.5 C50.05,24.225 43.3,17.5 35.025,17.5 L35.025,17.5 Z" id="Shape" fill="#101828" fill-rule="nonzero"></path>
            <path d="M35,20 C37.95,20 41.225,25.125 41.225,32.5 C41.225,39.875 37.95,45 35,45 C32.05,45 28.775,39.875 28.775,32.5 C28.775,25.125 32.05,20 35,20 L35,20 Z M35,17.5 C30.175,17.5 26.275,24.225 26.275,32.5 C26.275,40.775 30.175,47.5 35,47.5 C39.825,47.5 43.725,40.775 43.725,32.5 C43.725,24.225 39.8,17.5 35,17.5 L35,17.5 Z" id="Shape" fill="#101828" fill-rule="nonzero"></path>
            <rect id="Rectangle" fill="#101828" fill-rule="nonzero" x="22.375" y="37.575" width="25.275" height="2.5"></rect>
            <rect id="Rectangle" fill="#101828" fill-rule="nonzero" x="22.375" y="24.925" width="25.275" height="2.5"></rect>
            <rect id="Rectangle" fill="#101828" fill-rule="nonzero" x="20.8" y="31.25" width="28.45" height="2.5"></rect>
            <rect id="Rectangle" fill="#101828" fill-rule="nonzero" x="33.775" y="17.95" width="2.5" height="27.975"></rect>
            <path d="M53.075,62.35 L52.525,61.75 L52.5,61.775 L52.5,67.35 C52.5,67.425 52.45,67.475 52.375,67.475 L17.625,67.475 C17.55,67.5 17.5,67.45 17.5,67.375 L17.5,60 L38.35,60 C37.975,59.2 37.725,58.35 37.6,57.5 L17.5,57.5 L17.5,12.625 C17.5,12.55 17.55,12.5 17.625,12.5 L52.375,12.5 C52.45,12.5 52.5,12.55 52.5,12.625 L52.5,50.7 L52.525,50.725 L53.075,50.125 C53.65,49.525 54.3,49.05 55,48.675 L55,12.625 C55,11.175 53.825,10 52.375,10 L17.625,10 C16.175,10 15,11.175 15,12.625 L15,57.5 L15,60 L15,67.375 C15,68.825 16.175,70 17.625,70 L52.375,70 C53.825,70 55,68.825 55,67.375 L55,63.85 C54.3,63.425 53.65,62.95 53.075,62.35 Z" id="Path" fill="#101828" fill-rule="nonzero"></path>
            <path d="M59.125,62.5 C57.525,62.5 56.025,61.825 54.925,60.625 L52.55,58.075 L50.175,60.625 C47.925,63.025 44,63.025 41.75,60.625 C39.5,58.2 39.5,54.275 41.75,51.85 C44,49.45 47.925,49.45 50.175,51.85 L52.55,54.4 L54.925,51.85 C57.175,49.45 61.1,49.45 63.35,51.85 C65.6,54.275 65.6,58.2 63.35,60.625 C62.225,61.85 60.725,62.5 59.125,62.5 Z M54.25,56.25 L56.75,58.95 C58.025,60.325 60.225,60.325 61.525,58.95 C62.9,57.475 62.9,55.05 61.525,53.575 C60.25,52.2 58.05,52.2 56.75,53.575 L56.75,53.575 L54.25,56.25 Z M45.925,52.5 C45.025,52.5 44.175,52.875 43.55,53.575 C42.175,55.05 42.175,57.475 43.55,58.95 C44.85,60.325 47.025,60.325 48.325,58.95 L50.825,56.25 L48.325,53.55 C47.675,52.875 46.825,52.5 45.925,52.5 Z" id="Shape" fill="#101828" fill-rule="nonzero"></path>
            <rect id="Rectangle" x="0" y="0" width="80" height="80"></rect>
        </g>
    </g>
</svg>