<?xml version="1.0" encoding="UTF-8"?>
<svg width="80px" height="80px" viewBox="0 0 80 80" version="1.1" xmlns="http://www.w3.org/2000/svg" xmlns:xlink="http://www.w3.org/1999/xlink">
    <!-- Generator: Sketch 57.1 (83088) - https://sketch.com -->
    <title>057-B80px</title>
    <desc>Created with Sketch.</desc>
    <g id="057-B80px" stroke="none" stroke-width="1" fill="none" fill-rule="evenodd">
        <g>
            <g id="Group" transform="translate(10.000000, 10.000000)" fill="#101828" fill-rule="nonzero">
                <path d="M57.5,2.5 L57.5,57.5 L2.5,57.5 L2.5,2.5 L57.5,2.5 L57.5,2.5 Z M57.5,0 L2.5,0 C1,0 0,1 0,2.5 L0,57.5 C0,59 1,60 2.5,60 L57.5,60 C59,60 60,59 60,57.5 L60,2.5 C60,1 59,0 57.5,0 L57.5,0 Z" id="Shape"></path>
                <path d="M42.5,40.75 C39.75,40.75 37.25,39.75 35.5,37.5 L30,31.75 L24.75,37.5 C22.75,39.5 20.25,40.75 17.75,40.75 C15,40.75 12.5,39.75 10.75,37.5 C7,33.25 7,26.5 10.75,22.5 C12.75,20.5 15.25,19.25 17.75,19.25 C20.5,19.25 23,20.25 24.75,22.5 L30,28.25 L35.25,22.5 C37.25,20.5 39.75,19.25 42.25,19.25 C45,19.25 47.5,20.25 49.25,22.5 C53,26.75 53,33.5 49.25,37.5 C47.75,39.5 45,40.75 42.5,40.75 Z M31.75,30 L37.25,35.75 C40,38.75 45,38.75 47.75,35.75 C50.75,32.5 50.75,27.25 47.75,24 C45,21 40,21 37.25,24 L31.75,30 Z M17.5,21.75 C15.5,21.75 13.75,22.5 12.25,24 C9.25,27.25 9.25,32.5 12.25,35.75 C15,38.75 20,38.75 22.75,35.75 L28.25,30 L22.75,24.25 C21.5,22.75 19.5,21.75 17.5,21.75 Z" id="Shape"></path>
            </g>
            <rect id="Rectangle" x="0" y="0" width="80" height="80"></rect>
        </g>
    </g>
</svg>