<?xml version="1.0" encoding="UTF-8"?>
<svg width="80px" height="80px" viewBox="0 0 80 80" version="1.1" xmlns="http://www.w3.org/2000/svg" xmlns:xlink="http://www.w3.org/1999/xlink">
    <!-- Generator: Sketch 57.1 (83088) - https://sketch.com -->
    <title>191-W80px</title>
    <desc>Created with Sketch.</desc>
    <g id="NEW_icons" stroke="none" stroke-width="1" fill="none" fill-rule="evenodd">
        <g id="icons_UD_new-Copy" transform="translate(-2151.000000, -24330.000000)">
            <g id="191-W80px" transform="translate(2151.000000, 24330.000000)">
                <circle id="Oval-Copy-1171" fill="#101828" cx="40" cy="40" r="40"></circle>
                <g id="191-B32px-Copy-8" transform="translate(12.000000, 12.000000)">
                    <path d="M36.75,36.7325 L36.75,47.25 L12.25,47.25 L12.2325,8.75 L36.75,8.75 L36.75,12.215 L38.5,12.215 L38.5,8.75 C38.5,7.7875 37.7125,7 36.7675,7 L12.2325,7 C11.2875,7 10.5,7.7875 10.5,8.75 L10.5,47.25 C10.5,48.2125 11.2875,49 12.2325,49 L36.75,49 C37.7125,49 38.4825,48.2125 38.4825,47.25 L38.4825,36.7325 L36.75,36.7325 Z" id="Path" fill="#FFFFFF" fill-rule="nonzero"></path>
                    <path d="M24.5,45.5 C24.9725,45.5 25.375,45.115 25.375,44.625 C25.375,44.135 24.99,43.75 24.5,43.75 C24.01,43.75 23.625,44.135 23.625,44.625 C23.625,45.0975 24.0275,45.5 24.5,45.5" id="Path" fill="#FFFFFF" fill-rule="nonzero"></path>
                    <rect id="Rectangle" fill="#FFFFFF" fill-rule="nonzero" x="12.25" y="40.25" width="24.5" height="1.75"></rect>
                    <path d="M32.0775,28.0175 L32.06,26.2675 C33.11,26.25 33.9675,25.3925 33.985,24.3425 L34.0025,22.8725 C34.02,20.8775 35.6475,19.25 37.6425,19.25 C39.655,19.25 41.2825,20.8775 41.2825,22.89 L41.2825,24.325 C41.2825,25.3925 42.14,26.25 43.2075,26.25 L43.2075,28 L32.0775,28.0175 Z M37.6425,21 C36.61,21 35.7525,21.84 35.7525,22.89 L35.735,24.36 C35.735,25.06 35.525,25.7075 35.175,26.2675 L40.075,26.25 C39.725,25.69 39.5325,25.025 39.5325,24.325 L39.5325,22.89 C39.5325,21.84 38.675,21 37.6425,21 Z" id="Shape" fill="#FFFFFF" fill-rule="nonzero"></path>
                    <path d="M37.6425,30.625 C36.19,30.625 35,29.435 35,27.9825 L36.75,27.9825 C36.75,28.4725 37.1525,28.875 37.6425,28.875 C38.1325,28.875 38.535,28.4725 38.535,27.9825 L40.285,27.9825 C40.285,29.435 39.095,30.625 37.6425,30.625 Z" id="Path" fill="#FFFFFF" fill-rule="nonzero"></path>
                    <path d="M47.25,13.965 L28,13.965 C27.0375,13.965 26.25,14.7525 26.25,15.715 L26.25,29.75 L28,29.75 L28,15.715 L47.25,15.715 L47.25,33.2325 L31.465,33.2325 L30.94,33.2325 L30.5025,33.53 L28,35.21 L28,35.175 L26.25,36.3475 L26.25,38.4825 L31.4825,34.9825 L47.25,34.9825 C48.2125,34.9825 49,34.195 49,33.2325 L49,15.715 C49,14.7525 48.2125,13.965 47.25,13.965 Z" id="Path" fill="#FFFFFF" fill-rule="nonzero"></path>
                    <rect id="Rectangle" x="0" y="0" width="56" height="56"></rect>
                </g>
            </g>
        </g>
    </g>
</svg>