<?xml version="1.0" encoding="UTF-8"?>
<svg width="40px" height="40px" viewBox="0 0 40 40" version="1.1" xmlns="http://www.w3.org/2000/svg" xmlns:xlink="http://www.w3.org/1999/xlink">
    <!-- Generator: Sketch 57.1 (83088) - https://sketch.com -->
    <title>063-B40px</title>
    <desc>Created with Sketch.</desc>
    <g id="063-B40px" stroke="none" stroke-width="1" fill="none" fill-rule="evenodd">
        <g>
            <path d="M28.125,22.5 C31.225,22.5 33.75,25.025 33.75,28.125 C33.75,31.225 31.225,33.75 28.125,33.75 C25.025,33.75 22.5,31.225 22.5,28.125 C22.5,25.025 25.025,22.5 28.125,22.5 L28.125,22.5 Z M28.125,21.25 C24.325,21.25 21.25,24.325 21.25,28.125 C21.25,31.925 24.325,35 28.125,35 C31.925,35 35,31.925 35,28.125 C35,24.325 31.925,21.25 28.125,21.25 L28.125,21.25 Z" id="Shape" fill="#101828" fill-rule="nonzero"></path>
            <polygon id="Path" fill="#101828" fill-rule="nonzero" points="25 27.5 25 28.75 27.5 28.75 27.5 31.25 28.75 31.25 28.75 28.75 31.25 28.75 31.25 27.5 28.75 27.5 28.75 25 27.5 25 27.5 27.5"></polygon>
            <path d="M20.525,30.975 C19.95,31.1 19.35,31.1875 18.75,31.2125 L18.75,31.175 L18.75,25.5125 L20.45,25.5125 C20.6,25.075 20.7875,24.6625 21,24.2625 L18.75,24.2625 L18.75,23.75 L18.75,20 L29.9625,20 L31.2125,20 C31.225,19.7875 31.25,19.5875 31.25,19.375 C31.25,12.125 25.375,6.25 18.125,6.25 C18.125,6.25 18.1125,6.25 18.1125,6.25 C18.1125,6.25 18.1125,6.25 18.1,6.25 C18.0875,6.25 18.0875,6.25 18.075,6.25 C10.85,6.275 5,12.1375 5,19.375 C5,26.6125 10.85,32.475 18.075,32.5 C18.0875,32.5 18.0875,32.5 18.1,32.5 C18.1,32.5 18.1,32.5 18.1125,32.5 C18.1125,32.5 18.125,32.5 18.125,32.5 C19.1375,32.5 20.125,32.375 21.075,32.15 C20.8625,31.775 20.675,31.3875 20.525,30.975 Z M29.9625,18.75 L25.7,18.75 C25.6625,17.4 25.5125,16.1 25.25,14.8875 L29.1,14.8875 C29.6,16.0875 29.9,17.3875 29.9625,18.75 Z M28.5125,13.6375 L24.95,13.6375 C24.3125,11.3875 23.3125,9.5 22.075,8.2 C24.825,9.1625 27.1125,11.1125 28.5125,13.6375 Z M18.75,7.5625 C20.825,7.975 22.65,10.35 23.65,13.6375 L18.75,13.6375 L18.75,7.5625 Z M18.75,14.8875 L23.975,14.8875 C24.25,16.1 24.4125,17.4 24.45,18.75 L18.75,18.75 L18.75,14.8875 Z M14.1125,8.2125 C12.8875,9.5125 11.9,11.3875 11.2625,13.6375 L7.7375,13.6375 C9.125,11.1375 11.3875,9.2 14.1125,8.2125 Z M7.1375,14.8875 L10.95,14.8875 C10.7,16.1 10.5375,17.4 10.5,18.75 L6.2875,18.75 C6.35,17.3875 6.65,16.0875 7.1375,14.8875 Z M6.2875,20 L10.5,20 C10.5375,21.5 10.725,22.95 11.0375,24.275 L7.325,24.275 C6.725,22.9625 6.3625,21.5125 6.2875,20 Z M7.9875,25.525 L11.375,25.525 C12.0125,27.5875 12.9625,29.3125 14.1125,30.5375 C11.5375,29.6125 9.3875,27.825 7.9875,25.525 Z M17.5,31.1875 C15.4875,30.8125 13.725,28.6125 12.7,25.525 L17.5,25.525 L17.5,31.1875 Z M17.5,24.275 L12.3375,24.275 C12,22.95 11.8,21.5125 11.75,20 L17.5,20 L17.5,24.275 Z M17.5,18.75 L11.75,18.75 C11.7875,17.4 11.95,16.0875 12.225,14.8875 L17.5,14.8875 L17.5,18.75 Z M17.5,13.6375 L12.5625,13.6375 C13.575,10.325 15.4,7.95 17.5,7.5625 L17.5,13.6375 Z" id="Shape" fill="#101828" fill-rule="nonzero"></path>
            <rect id="Rectangle" x="0" y="0" width="40" height="40"></rect>
        </g>
    </g>
</svg>