<?xml version="1.0" encoding="UTF-8"?>
<svg width="80px" height="80px" viewBox="0 0 80 80" version="1.1" xmlns="http://www.w3.org/2000/svg" xmlns:xlink="http://www.w3.org/1999/xlink">
    <!-- Generator: Sketch 57.1 (83088) - https://sketch.com -->
    <title>232-C80px</title>
    <desc>Created with Sketch.</desc>
    <g id="NEW_icons" stroke="none" stroke-width="1" fill="none" fill-rule="evenodd">
        <g id="icons_UD_new-Copy" transform="translate(-1002.000000, -29608.000000)">
            <g id="232-C80px" transform="translate(1002.000000, 29608.000000)">
                <circle id="Oval-Copy-1354" fill="#FF4F12" cx="40" cy="40" r="40"></circle>
                <g id="232-B32px-Copy-9" transform="translate(12.000000, 16.000000)">
                    <path d="M47.25,8.75 L47.25,12.25 C47.25,17.7275 46.1125,25.8825 44.2225,30.065 C41.615,35.805 36.715,43.365 28,47.11 C19.285,43.365 14.3675,35.805 11.7775,30.065 C9.8875,25.8825 8.75,17.71 8.75,12.25 L8.75,8.75 L47.25,8.75 L47.25,8.75 Z M49,7 L7,7 L7,12.25 C7,17.43 8.05,26.0575 10.185,30.7825 C13.1075,37.24 18.48,45.185 28,49 C37.52,45.185 42.8925,37.24 45.815,30.7825 C47.95,26.0575 49,17.43 49,12.25 L49,7 L49,7 Z" id="Shape" fill="#FFFFFF" fill-rule="nonzero"></path>
                    <path d="M32.2,20.825 L30.3625,20.825 L30.2575,21.4375 C29.7675,20.8775 29.015,20.545 28.175,20.545 C25.9,20.545 23.555,22.6625 23.555,26.18 C23.555,28.5075 24.9025,30.1175 26.845,30.1175 C27.79,30.1175 28.735,29.645 29.4,28.91 C29.61,29.6625 30.275,30.1175 31.2375,30.1175 C33.4075,30.1175 35.63,27.9475 35.63,24.325 C35.63,19.6175 32.0075,17.5 28.4375,17.5 C23.8525,17.5 20.3875,20.9825 20.3875,25.585 C20.3875,30.8875 24.0275,33.25 27.6325,33.25 C29.6625,33.25 30.765,32.7775 31.815,32.06 L32.0425,31.9025 L31.1325,30.38 L30.87,30.5725 C30.17,31.045 29.33,31.5 27.825,31.5 C25.27,31.5 22.295,29.96 22.295,25.62 C22.295,22.12 24.99,19.285 28.315,19.285 C31.71,19.285 33.74,21.1925 33.74,24.395 C33.74,27.125 32.3925,28.4025 31.5,28.4025 C31.3075,28.4025 31.15,28.3675 31.15,27.9825 C31.15,27.93 31.15,27.86 31.1675,27.755 L32.2,20.825 Z M27.02,28.4025 C26.04,28.4025 25.4625,27.5625 25.4625,26.145 C25.4625,23.765 26.9325,22.295 28.2975,22.295 C29.2775,22.295 29.8375,23.0125 29.8375,24.2725 C29.82,26.4425 28.49,28.4025 27.02,28.4025 Z" id="Shape" fill="#FFFFFF" fill-rule="nonzero"></path>
                    <rect id="Rectangle" x="0" y="0" width="56" height="56"></rect>
                </g>
            </g>
        </g>
    </g>
</svg>