<?xml version="1.0" encoding="UTF-8"?>
<svg width="80px" height="80px" viewBox="0 0 80 80" version="1.1" xmlns="http://www.w3.org/2000/svg" xmlns:xlink="http://www.w3.org/1999/xlink">
    <!-- Generator: Sketch 58 (84663) - https://sketch.com -->
    <title>260-C80px</title>
    <desc>Created with Sketch.</desc>
    <g id="NEW_icons" stroke="none" stroke-width="1" fill="none" fill-rule="evenodd">
        <g id="icons_UD_new-Copy" transform="translate(-1001.000000, -33124.000000)">
            <g id="260-C80px" transform="translate(1001.000000, 33124.000000)">
                <circle id="Oval-Copy-1665" fill="#FF4F12" cx="40" cy="40" r="40"></circle>
                <g id="260-B32px-Copy-9" transform="translate(12.000000, 12.000000)">
                    <path d="M19.2325,17.5 L19.2325,24.5 L18.3575,24.5 C17.8675,24.5 17.4825,24.185 17.4825,23.9225 L17.4825,18.095 C17.4825,17.815 17.85,17.5 18.3575,17.5 L19.2325,17.5 L19.2325,17.5 Z M20.9825,15.75 L18.375,15.75 C16.9225,15.75 15.75,16.7825 15.75,18.0775 L15.75,23.905 C15.75,25.2 16.9225,26.25 18.375,26.25 L21,26.25 L21,15.75 L20.9825,15.75 Z" id="Shape" fill="#FFFFFF" fill-rule="nonzero"></path>
                    <path d="M41.125,17.325 L39.375,17.325 L39.375,16.45 C39.375,15.3125 38.885,14.0875 37.905,12.7925 C35.9625,10.22 32.9875,8.75 29.75,8.75 C26.5125,8.75 23.5375,10.22 21.595,12.7925 C20.6325,14.07 20.125,15.295 20.125,16.4325 L20.125,17.3075 L18.375,17.3075 L18.375,16.4325 C18.375,14.91 18.9875,13.3175 20.195,11.725 C22.47,8.715 25.9525,7 29.75,7 C33.5475,7 37.03,8.7325 39.305,11.7425 C40.5125,13.335 41.125,14.9275 41.125,16.45 L41.125,17.325 Z" id="Path" fill="#FFFFFF" fill-rule="nonzero"></path>
                    <path d="M41.125,17.5 C41.6325,17.5 42,17.815 42,18.0775 L42,23.905 C42,24.185 41.615,24.5 41.1075,24.5 L40.25,24.5 L40.25,17.5 L41.125,17.5 L41.125,17.5 Z M41.125,15.75 L38.5,15.75 L38.5,26.25 L41.1075,26.25 C42.56,26.25 43.75,25.2 43.75,23.905 L43.75,18.0775 C43.75,16.7825 42.5775,15.75 41.125,15.75 L41.125,15.75 Z" id="Shape" fill="#FFFFFF" fill-rule="nonzero"></path>
                    <path d="M33.635,38.5 L31.465,38.5 L31.465,36.75 L33.635,36.75 C37.415,36.75 39.375,31.465 39.375,26.25 L41.125,26.25 C41.125,32.1475 38.78,38.5 33.635,38.5 Z" id="Path" fill="#FFFFFF" fill-rule="nonzero"></path>
                    <path d="M40.25,37.065 C42.28,37.7825 43.75,39.7075 43.75,42 L43.75,49 L45.5,49 L45.5,42 C45.5,38.745 43.26,36.0325 40.25,35.245 L40.25,37.065 Z" id="Path" fill="#FFFFFF" fill-rule="nonzero"></path>
                    <path d="M16.625,31.5 C20.965,31.5 24.5,35.035 24.5,39.375 C24.5,43.715 20.965,47.25 16.625,47.25 C12.285,47.25 8.75,43.715 8.75,39.375 C8.75,35.035 12.285,31.5 16.625,31.5 L16.625,31.5 Z M16.625,29.75 C11.305,29.75 7,34.055 7,39.375 C7,44.695 11.305,49 16.625,49 C21.945,49 26.25,44.695 26.25,39.375 C26.25,34.055 21.945,29.75 16.625,29.75 L16.625,29.75 Z" id="Shape" fill="#FFFFFF" fill-rule="nonzero"></path>
                    <path d="M29.75,12.25 C34.58,12.25 38.5,16.17 38.5,21 C38.5,25.83 34.58,29.75 29.75,29.75 C24.92,29.75 21,25.83 21,21 C21,16.17 24.92,12.25 29.75,12.25 L29.75,12.25 Z M29.75,10.5 C23.9575,10.5 19.25,15.2075 19.25,21 C19.25,26.7925 23.9575,31.5 29.75,31.5 C35.5425,31.5 40.25,26.7925 40.25,21 C40.25,15.19 35.5425,10.5 29.75,10.5 L29.75,10.5 Z" id="Shape" fill="#FFFFFF" fill-rule="nonzero"></path>
                    <path d="M33.0225,35 C33.11,35.14 33.2325,35.455 33.2325,35.875 C33.2325,36.295 33.11,36.5925 33.0225,36.75 L29.96,36.7325 C29.8725,36.5925 29.75,36.295 29.75,35.8575 C29.75,35.4375 29.8725,35.14 29.96,34.9825 L33.0225,34.9825 L33.0225,35 Z M33.2325,33.25 L29.75,33.25 C28.7875,33.25 28,34.4225 28,35.875 C28,37.31 28.7875,38.4825 29.75,38.5 L33.2325,38.5 C33.2325,38.5 33.2325,38.5 33.2325,38.5 C34.195,38.5 34.9825,37.3275 34.9825,35.875 L34.9825,35.8575 C34.9825,34.405 34.195,33.25 33.2325,33.25 L33.2325,33.25 Z" id="Shape" fill="#FFFFFF" fill-rule="nonzero"></path>
                    <path d="M15.8725,36.33 L13.7375,34.125 C13.51,33.8975 13.1425,33.8975 12.915,34.125 L11.4975,35.49 C11.3575,35.63 11.305,35.805 11.3225,35.9975 C11.655,38.815 14.315,41.5625 14.315,41.5625 C14.315,41.5625 16.9575,44.2925 19.7925,44.7475 C19.9675,44.7825 20.16,44.7125 20.3,44.59 L21.7175,43.225 C21.945,42.9975 21.9625,42.63 21.735,42.4025 L19.6,40.1975 C19.3725,39.97 19.005,39.97 18.7775,40.1975 L17.8325,41.1075 C17.8325,41.1075 16.6775,40.6 16.03,39.9175 C15.3825,39.235 14.91,38.0625 14.91,38.0625 L15.855,37.1525 C16.1,36.9425 16.1,36.575 15.8725,36.33 Z" id="Path" fill="#FFFFFF" fill-rule="nonzero"></path>
                    <rect id="Rectangle" x="0" y="0" width="56" height="56"></rect>
                </g>
            </g>
        </g>
    </g>
</svg>