<?xml version="1.0" encoding="UTF-8"?>
<svg width="32px" height="32px" viewBox="0 0 32 32" version="1.1" xmlns="http://www.w3.org/2000/svg" xmlns:xlink="http://www.w3.org/1999/xlink">
    <!-- Generator: Sketch 57.1 (83088) - https://sketch.com -->
    <title>034-B32px</title>
    <desc>Created with Sketch.</desc>
    <g id="034-B32px" stroke="none" stroke-width="1" fill="none" fill-rule="evenodd">
        <g>
            <path d="M27,7 L17,7 L17,5 L4,7 L4,25 L17,27 L17,25 L27,25 C27.55,25 28,24.55 28,24 L28,8 C28,7.45 27.55,7 27,7 Z M12.69,19.97 L11.18,19.81 C11.02,18.93 10.85,18.1 10.68,17.24 L10.09,14.7 L9,19.71 L7.66,19.64 L6.34,12.38 L7.61,12.36 L8.47,17.37 L9.49,12.19 L10.93,12.11 L12,17.58 L13.03,11.94 L14.45,11.89 L12.69,19.97 Z M27,24 L17,24 L17,22 L25,22 L25,21 L17,21 L17,19.8 L25,19.8 L25,18.8 L17,18.8 L17,17.6 L25,17.6 L25,16.6 L17,16.6 L17,15.4 L25,15.4 L25,14.4 L17,14.4 L17,13.2 L25,13.2 L25,12.2 L17,12.2 L17,11 L25,11 L25,10 L17,10 L17,8 L27,8 L27,24 Z" id="Shape" fill="#101828"></path>
            <rect id="Rectangle" x="0" y="0" width="32" height="32"></rect>
        </g>
    </g>
</svg>