<?xml version="1.0" encoding="UTF-8"?>
<svg width="32px" height="32px" viewBox="0 0 32 32" version="1.1" xmlns="http://www.w3.org/2000/svg" xmlns:xlink="http://www.w3.org/1999/xlink">
    <!-- Generator: Sketch 57.1 (83088) - https://sketch.com -->
    <title>216-B32px</title>
    <desc>Created with Sketch.</desc>
    <g id="216-B32px" stroke="none" stroke-width="1" fill="none" fill-rule="evenodd">
        <g>
            <polygon id="Path" fill="#101828" fill-rule="nonzero" points="12.83 12.56 12.67 13.56 20.67 13.56 20.83 12.56"></polygon>
            <polygon id="Path" fill="#101828" fill-rule="nonzero" points="18 18.56 19 10.56 18 10.56 17 18.56"></polygon>
            <polygon id="Path" fill="#101828" fill-rule="nonzero" points="15 18.56 16 10.56 15 10.56 14 18.56"></polygon>
            <polygon id="Path" fill="#101828" fill-rule="nonzero" points="12.33 15.56 12.17 16.56 20.17 16.56 20.33 15.56"></polygon>
            <path d="M27.01,7 L4.99,7 C4.44,7 4,7.44 4,7.99 L4,19 L4.99,19 L4.99,8 L27,8 L27.01,21 L10.27,21 C9.88,21 9.49,21.12 9.17,21.34 L5.67,23.68 L4,24.81 L4,26 L9.72,22.17 C9.89,22.06 10.08,22 10.27,22 L27.01,22 C27.55,22 28,21.56 28,21.01 L28,7.99 C28,7.44 27.56,7 27.01,7 Z" id="Path" fill="#101828" fill-rule="nonzero"></path>
            <rect id="Rectangle" x="0" y="0" width="32" height="32"></rect>
        </g>
    </g>
</svg>