<?xml version="1.0" encoding="UTF-8"?>
<svg width="32px" height="32px" viewBox="0 0 32 32" version="1.1" xmlns="http://www.w3.org/2000/svg" xmlns:xlink="http://www.w3.org/1999/xlink">
    <!-- Generator: Sketch 57.1 (83088) - https://sketch.com -->
    <title>159-B32px</title>
    <desc>Created with Sketch.</desc>
    <g id="159-B32px" stroke="none" stroke-width="1" fill="none" fill-rule="evenodd">
        <g>
            <polygon id="Path" fill="#101828" fill-rule="nonzero" points="16 13 16 14 16.99 14 16.99 18 18 18 18 14 19 14 19 13"></polygon>
            <polygon id="Path" fill="#101828" fill-rule="nonzero" points="19.5 13 21 18 22 18 23.5 13 22.5 13 21.5 16.49 20.5 13"></polygon>
            <path d="M19.49,20.82 C17.14,20.82 15.24,21.19 14,21.53 L14,22.51 C15.2,22.17 17.12,21.77 19.49,21.77 C22.72,21.77 25.13,22.51 26,22.83 L26,21.84 C24.97,21.49 22.63,20.82 19.49,20.82 Z" id="Path" fill="#101828" fill-rule="nonzero"></path>
            <path d="M26.98,10 L12.02,10 C11.46,10 11,10.45 11,11.02 L11,13 L12.02,13 L12.02,11 L26.98,11 L27,11.02 L26.98,19.99 L14,19.97 L14,20.99 L26.98,20.99 C27.54,20.99 28,20.53 28,19.97 L28,11.02 C28,10.45 27.54,10 26.98,10 Z" id="Path" fill="#101828" fill-rule="nonzero"></path>
            <path d="M23.98,7 L9.02,7 C8.46,7 8,7.45 8,8.02 L8,13 L9.01,13 L9.02,8 L23.98,8 L24,8.02 L24,9 L25,9 L25,8.02 C25,7.45 24.54,7 23.98,7 Z" id="Path" fill="#101828" fill-rule="nonzero"></path>
            <path d="M20.98,4 L6.02,4 C5.46,4 5,4.46 5,5.02 L5,13 L6,13 L6.02,5 L20.98,5 L21,5.02 L21,6 L22,6 L22,5.02 C22,4.46 21.54,4 20.98,4 Z" id="Path" fill="#101828" fill-rule="nonzero"></path>
            <path d="M12,15 L12,27 L5,27 L5,15 L12,15 L12,15 Z M12,14 L5,14 C4.45,14 4,14.45 4,15 L4,27 C4,27.55 4.45,28 5,28 L12,28 C12.55,28 13,27.55 13,27 L13,15 C13,14.45 12.55,14 12,14 L12,14 Z" id="Shape" fill="#101828" fill-rule="nonzero"></path>
            <polygon id="Path" fill="#101828" fill-rule="nonzero" points="11 25 10 25 10 26 11 26"></polygon>
            <polygon id="Path" fill="#101828" fill-rule="nonzero" points="11 23 10 23 10 24 11 24"></polygon>
            <polygon id="Path" fill="#101828" fill-rule="nonzero" points="11 16 10 16 10 17 11 17"></polygon>
            <polygon id="Path" fill="#101828" fill-rule="nonzero" points="9 16 8 16 8 17 9 17"></polygon>
            <polygon id="Path" fill="#101828" fill-rule="nonzero" points="7 16 6 16 6 17 7 17"></polygon>
            <polygon id="Path" fill="#101828" fill-rule="nonzero" points="11 18 10 18 10 19 11 19"></polygon>
            <polygon id="Path" fill="#101828" fill-rule="nonzero" points="9 25 8 25 8 26 9 26"></polygon>
            <polygon id="Path" fill="#101828" fill-rule="nonzero" points="9 23 8 23 8 24 9 24"></polygon>
            <polygon id="Path" fill="#101828" fill-rule="nonzero" points="9 18 8 18 8 19 9 19"></polygon>
            <polygon id="Path" fill="#101828" fill-rule="nonzero" points="7 25 6 25 6 26 7 26"></polygon>
            <polygon id="Path" fill="#101828" fill-rule="nonzero" points="7 23 6 23 6 24 7 24"></polygon>
            <polygon id="Path" fill="#101828" fill-rule="nonzero" points="7 18 6 18 6 19 7 19"></polygon>
            <path d="M8.5,22.41 C8.21,22.41 7.94,22.32 7.7,22.16 C7.39,21.95 7.18,21.62 7.12,21.25 C7.05,20.88 7.13,20.5 7.35,20.2 C7.56,19.89 7.89,19.68 8.26,19.62 C8.62,19.54 9,19.63 9.3,19.84 C9.61,20.05 9.82,20.38 9.88,20.75 C9.95,21.12 9.87,21.5 9.65,21.8 C9.44,22.11 9.11,22.32 8.74,22.38 C8.67,22.4 8.58,22.41 8.5,22.41 Z M8.5,20.59 C8.48,20.59 8.45,20.59 8.43,20.6 C8.32,20.62 8.23,20.68 8.17,20.77 C8.11,20.86 8.08,20.97 8.1,21.08 C8.12,21.19 8.18,21.28 8.27,21.34 C8.36,21.4 8.47,21.42 8.58,21.41 C8.69,21.39 8.78,21.33 8.84,21.24 L8.84,21.24 C8.9,21.15 8.93,21.04 8.91,20.93 C8.89,20.82 8.83,20.73 8.74,20.67 C8.66,20.61 8.58,20.59 8.5,20.59 Z" id="Shape" fill="#101828" fill-rule="nonzero"></path>
            <rect id="Rectangle" x="0" y="0" width="32" height="32"></rect>
        </g>
    </g>
</svg>