<?xml version="1.0" encoding="UTF-8"?>
<svg width="32px" height="32px" viewBox="0 0 32 32" version="1.1" xmlns="http://www.w3.org/2000/svg" xmlns:xlink="http://www.w3.org/1999/xlink">
    <!-- Generator: Sketch 57.1 (83088) - https://sketch.com -->
    <title>113-B32px</title>
    <desc>Created with Sketch.</desc>
    <g id="113-B32px" stroke="none" stroke-width="1" fill="none" fill-rule="evenodd">
        <g>
            <path d="M27,7.98 L27.02,25 L5,25.02 L5.02,7.98 L27,7.98 L27,7.98 Z M27.01,6.98 L5.02,6.98 C4.46,6.98 4,7.44 4,8 L4,25.02 C4,25.56 4.44,26 4.98,26 L27.02,26 C27.56,26 28,25.56 28,25.02 L28,7.97 C28,7.43 27.56,6.98 27.01,6.98 L27.01,6.98 Z" id="Shape" fill="#101828" fill-rule="nonzero"></path>
            <rect id="Rectangle" fill="#101828" fill-rule="nonzero" x="23" y="4.98" width="1" height="5"></rect>
            <rect id="Rectangle" fill="#101828" fill-rule="nonzero" x="20" y="4.98" width="1" height="5"></rect>
            <rect id="Rectangle" fill="#101828" fill-rule="nonzero" x="17" y="4.98" width="1" height="5"></rect>
            <rect id="Rectangle" fill="#101828" fill-rule="nonzero" x="14" y="4.98" width="1" height="5"></rect>
            <rect id="Rectangle" fill="#101828" fill-rule="nonzero" x="11" y="4.98" width="1" height="5"></rect>
            <rect id="Rectangle" fill="#101828" fill-rule="nonzero" x="8" y="4.98" width="1" height="5"></rect>
            <rect id="Rectangle" fill="#101828" fill-rule="nonzero" x="15.5" y="12" width="1" height="10.37"></rect>
            <path d="M16,11.99 C18.76,11.99 21,14.24 21,17 C21,19.76 18.76,22 16,22 C13.24,22 11,19.75 11,16.99 C11,14.23 13.24,11.99 16,11.99 L16,11.99 Z M16,10.99 C12.69,10.99 10,13.68 10,17 C10,20.32 12.69,23.01 16,23.01 C19.31,23.01 22,20.32 22,17 C22,13.68 19.31,10.99 16,10.99 L16,10.99 Z" id="Shape" fill="#101828" fill-rule="nonzero"></path>
            <path d="M15.99,11.99 C17.16,11.99 18.47,14.05 18.47,17 C18.47,19.95 17.16,22.01 15.99,22.01 C14.82,22.01 13.51,19.95 13.51,17 C13.51,14.05 14.82,11.99 15.99,11.99 L15.99,11.99 Z M15.99,10.99 C14.07,10.99 12.51,13.68 12.51,17 C12.51,20.32 14.07,23.01 15.99,23.01 C17.91,23.01 19.47,20.32 19.47,17 C19.47,13.68 17.91,10.99 15.99,10.99 L15.99,10.99 Z" id="Shape" fill="#101828" fill-rule="nonzero"></path>
            <rect id="Rectangle" fill="#101828" fill-rule="nonzero" x="10.95" y="19.02" width="10.11" height="1"></rect>
            <rect id="Rectangle" fill="#101828" fill-rule="nonzero" x="10.95" y="13.97" width="10.11" height="1"></rect>
            <rect id="Rectangle" fill="#101828" fill-rule="nonzero" x="10.32" y="16.5" width="11.37" height="1"></rect>
            <rect id="Rectangle" x="0" y="0" width="32" height="32"></rect>
        </g>
    </g>
</svg>