<?xml version="1.0" encoding="UTF-8"?>
<svg width="32px" height="32px" viewBox="0 0 32 32" version="1.1" xmlns="http://www.w3.org/2000/svg" xmlns:xlink="http://www.w3.org/1999/xlink">
    <!-- Generator: Sketch 57.1 (83088) - https://sketch.com -->
    <title>082-B32px</title>
    <desc>Created with Sketch.</desc>
    <g id="082-B32px" stroke="none" stroke-width="1" fill="none" fill-rule="evenodd">
        <g>
            <path d="M22.95,5 C22.98,5 23,5.02 23,5.05 L23,26.95 C23,26.98 22.98,27 22.95,27 L9.05,27 C9.02,27 9,26.98 9,26.95 L9,5.05 C9,5.02 9.02,5 9.05,5 L22.95,5 L22.95,5 Z M22.95,4 L9.05,4 C8.47,4 8,4.47 8,5.05 L8,26.95 C8,27.53 8.47,28 9.05,28 L22.95,28 C23.53,28 24,27.53 24,26.95 L24,5.05 C24,4.47 23.53,4 22.95,4 L22.95,4 Z" id="Shape" fill="#101828" fill-rule="nonzero"></path>
            <path d="M16,26 C16.27,26 16.5,25.78 16.5,25.5 C16.5,25.22 16.27,25 16,25 C15.73,25 15.5,25.22 15.5,25.5 C15.5,25.78 15.73,26 16,26" id="Path" fill="#101828" fill-rule="nonzero"></path>
            <rect id="Rectangle" fill="#101828" fill-rule="nonzero" x="8" y="23" width="16" height="1"></rect>
            <path d="M21,13.49 L16,10.49 L16,12 C15.57,12 15.15,12 15.05,12 C14.69,12.01 14.32,11.99 13.96,12.04 C12.96,12.18 12.26,12.76 11.76,13.62 C11.4,14.25 11.2,14.94 11.09,15.66 C11.04,15.96 11.01,16.27 10.98,16.58 C10.99,16.58 11.01,16.59 11.02,16.59 C11.33,16.15 11.77,15.86 12.23,15.62 C12.77,15.33 13.79,15.03 14.4,15 C14.53,14.99 14.7,14.99 14.9,14.99 C15.23,14.99 15.62,15 15.99,15 L15.99,16.48 L21,13.49 Z M15,14 C14.75,14 14.69,14 14.68,14 C14.68,14 14.68,14 14.68,14 C14.68,14 14.66,14 14.54,14 C13.88,14 13.34,14.19 13.11,14.25 C12.92,14.3 12.72,14.37 12.51,14.43 C12.85,13.59 13.62,13 14.57,13 C14.57,13 14.58,13 14.58,13 C14.59,13 14.6,13 14.61,13 C14.78,13 14.91,12.99 15.56,12.99 C15.69,12.99 15.84,12.99 16.01,12.99 L16.01,13 L17.01,13 L17.01,13 L17.01,12.25 L19.07,13.48 L17,14.72 L17,14 L16,14 C15.5,14 15.19,14 15,14 Z" id="Shape" fill="#101828" fill-rule="nonzero"></path>
            <rect id="Rectangle" x="0" y="0" width="32" height="32"></rect>
        </g>
    </g>
</svg>