<?xml version="1.0" encoding="UTF-8"?>
<svg width="80px" height="80px" viewBox="0 0 80 80" version="1.1" xmlns="http://www.w3.org/2000/svg" xmlns:xlink="http://www.w3.org/1999/xlink">
    <!-- Generator: Sketch 57.1 (83088) - https://sketch.com -->
    <title>164-B80px</title>
    <desc>Created with Sketch.</desc>
    <g id="164-B80px" stroke="none" stroke-width="1" fill="none" fill-rule="evenodd">
        <g>
            <g id="Fill-285" transform="translate(17.500000, 15.000000)" fill="#101828">
                <path d="M27,1.25 C27.525,2.725 28.05,4.2 28.575,5.675 C31.225,13.175 33.85,20.675 36.5,28.15 C36.875,29.225 37.675,29.925 38.675,30.4 C39.125,30.625 39.575,30.8 40.025,31.025 C40.2,31.1 40.35,31.225 40.5,31.35 C40.675,31.5 40.675,31.7 40.5,31.85 C40.35,31.975 40.175,32.1 40,32.2 C39.35,32.525 38.7,32.85 38.05,33.175 C37.875,33.25 37.725,33.35 37.55,33.475 C37.125,33.75 37.125,34.15 37.55,34.425 C37.775,34.575 38.025,34.65 38.25,34.775 C38.75,35 39.075,35.375 39.25,35.9 C40.7,40.075 42.15,44.25 43.625,48.425 C43.65,48.5 43.675,48.6 43.7,48.7 L34.725,48.7 C34.425,47.875 34.15,47.05 33.85,46.225 C32.825,43.35 31.825,40.45 30.8,37.575 C30.725,37.35 30.625,37.3 30.4,37.3 C27.35,37.3 24.3,37.3 21.25,37.3 C19.925,37.3 18.6,37.3 17.275,37.3 L17,37.3 C17.175,36.8 17.35,36.3 17.525,35.825 C17.6,35.575 17.675,35.35 17.7,35.1 C17.725,34.75 17.575,34.575 17.25,34.475 C16.85,34.35 16.775,34.025 17.1,33.75 C17.25,33.625 17.425,33.525 17.6,33.45 C18.5,33.025 19.425,32.625 20.325,32.175 C20.65,32.025 20.925,31.825 21.2,31.575 C21.5,31.325 21.5,31.025 21.225,30.75 C21.05,30.55 20.825,30.375 20.6,30.2 C20.075,29.8 19.95,29.525 20.025,28.85 L27.7,28.85 C25.95,23.9 24.225,18.975 22.475,14 C22.25,14.625 22.05,15.175 21.85,15.75 C20.4,19.875 18.925,24.025 17.5,28.15 C17.375,28.525 17.35,28.925 17.325,29.325 C17.3,29.65 17.5,29.9 17.75,30.1 C17.95,30.25 18.15,30.4 18.35,30.575 C18.825,31 18.825,31.425 18.3,31.775 C17.95,32.025 17.55,32.225 17.15,32.425 C16.35,32.825 15.525,33.175 14.725,33.575 C14.55,33.65 14.4,33.775 14.275,33.925 C14.075,34.15 14.175,34.375 14.45,34.475 C14.975,34.675 15.125,34.9 14.95,35.475 C14.725,36.2 14.425,36.9 14.175,37.625 C12.9,41.225 11.625,44.85 10.375,48.45 C10.3,48.675 10.2,48.775 9.95,48.775 C7.175,48.775 4.4,48.775 1.625,48.775 L1.3,48.775 C1.35,48.6 1.4,48.475 1.425,48.35 C2.775,44.55 4.1,40.725 5.45,36.925 C5.575,36.575 5.75,36.225 5.875,35.875 C5.95,35.625 6.025,35.4 6.05,35.15 C6.075,34.825 5.9,34.65 5.6,34.55 C5.475,34.5 5.25,34.375 5.25,34.275 C5.25,34.125 5.35,33.925 5.45,33.825 C5.575,33.7 5.75,33.625 5.9,33.55 C6.825,33.125 7.75,32.7 8.675,32.25 C8.95,32.125 9.225,31.95 9.475,31.725 C9.825,31.425 9.825,31.1 9.5,30.75 C9.375,30.6 9.2,30.475 9.05,30.375 C8.375,29.95 8.175,29.525 8.425,28.6 C8.65,27.725 9,26.875 9.3,26.025 C12.175,17.825 15.075,9.65 17.95,1.475 C17.975,1.425 18,1.375 18,1.325 L27,1.325 L27,1.25 Z" id="Path"></path>
            </g>
            <rect id="Rectangle" x="0" y="0" width="80" height="80"></rect>
        </g>
    </g>
</svg>