<?xml version="1.0" encoding="UTF-8"?>
<svg width="80px" height="80px" viewBox="0 0 80 80" version="1.1" xmlns="http://www.w3.org/2000/svg" xmlns:xlink="http://www.w3.org/1999/xlink">
    <!-- Generator: Sketch 57.1 (83088) - https://sketch.com -->
    <title>204-B80px</title>
    <desc>Created with Sketch.</desc>
    <g id="204-B80px" stroke="none" stroke-width="1" fill="none" fill-rule="evenodd">
        <g>
            <path d="M67.45,25 L67.5,25.05 L67.45,52.525 L12.5,52.475 L12.55,25 L67.45,25 L67.45,25 Z M67.45,22.5 L12.55,22.5 C11.15,22.5 10,23.65 10,25.05 L10,52.475 C10,53.875 11.15,55.025 12.55,55.025 L67.45,55.025 C68.85,55.025 70,53.875 70,52.475 L70,25.05 C70,23.65 68.85,22.5 67.45,22.5 L67.45,22.5 Z" id="Shape" fill="#101828" fill-rule="nonzero"></path>
            <path d="M39.975,54.85 C29.2,54.85 21.125,56.5 17.525,57.4 L17.525,59.975 C20.625,59.175 28.875,57.35 39.975,57.35 C51.175,57.35 59.5,59.2 62.525,60 L62.525,57.425 C58.95,56.525 50.85,54.85 39.975,54.85 Z" id="Path" fill="#101828" fill-rule="nonzero"></path>
            <path d="M29.825,32.5 L26.725,32.5 L26.725,42.475 L29.825,42.475 C33.05,42.475 35.025,40.575 35.025,37.5 C35.025,34.425 33.025,32.5 29.825,32.5 Z M30.075,39.9 L29.2,39.9 L29.2,35.05 L30.075,35.05 C31.65,35.05 32.525,35.9 32.525,37.475 C32.525,39.05 31.65,39.9 30.075,39.9 Z" id="Shape" fill="#101828" fill-rule="nonzero"></path>
            <polygon id="Path" fill="#101828" fill-rule="nonzero" points="22.525 32.5 22.525 36.125 20.025 36.125 20.025 32.5 17.525 32.5 17.525 42.475 20.025 42.475 20.025 38.675 22.525 38.675 22.525 42.475 25.025 42.475 25.025 32.5"></polygon>
            <path d="M51.85,38.425 L51.85,32.5 L49.45,32.5 L45,38.775 L45,41 L49.225,41 L49.225,42.475 L51.85,42.475 L51.85,41 L53.175,41 L53.175,38.45 L51.85,38.45 L51.85,38.425 Z M48.2,38.425 L49.225,36.975 L49.225,38.425 L48.2,38.425 Z" id="Shape" fill="#101828" fill-rule="nonzero"></path>
            <polygon id="Path" fill="#101828" fill-rule="nonzero" points="62.525 32.5 59.1 32.5 56.725 35.125 56.725 32.5 54.075 32.5 54.075 42.475 56.725 42.475 56.725 38.8 57.05 38.425 59.4 42.475 62.45 42.475 58.95 36.4"></polygon>
            <polygon id="Path" fill="#101828" fill-rule="nonzero" points="38.775 34.125 41.275 34.125 41.275 36.625 43.775 36.625 43.775 39.125 41.275 39.125 41.275 41.625 38.775 41.625 38.775 39.125 36.275 39.125 36.275 36.625 38.775 36.625"></polygon>
            <rect id="Rectangle" x="0" y="0" width="80" height="80"></rect>
        </g>
    </g>
</svg>