<?xml version="1.0" encoding="UTF-8"?>
<svg width="56px" height="56px" viewBox="0 0 56 56" version="1.1" xmlns="http://www.w3.org/2000/svg" xmlns:xlink="http://www.w3.org/1999/xlink">
    <!-- Generator: Sketch 57.1 (83088) - https://sketch.com -->
    <title>053-W56px</title>
    <desc>Created with Sketch.</desc>
    <g id="NEW_icons" stroke="none" stroke-width="1" fill="none" fill-rule="evenodd">
        <g id="icons_UD_new-Copy" transform="translate(-1814.000000, -7028.000000)">
            <g id="053-W56px" transform="translate(1814.000000, 7028.000000)">
                <g id="003-B32px-Copy-91" transform="translate(8.000000, 8.000000)">
                    <g id="Group" transform="translate(10.000000, 5.000000)" fill="#FFFFFF" fill-rule="nonzero">
                        <path d="M18.6875,0 L1.3125,0 C0.5875,0 0,0.5875 0,1.3125 L0,23.75 L0,25 L0,28.6875 C0,29.4125 0.5875,30 1.3125,30 L18.6875,30 C19.4125,30 20,29.4125 20,28.6875 L20,25 L20,23.75 L20,1.3125 C20,0.5875 19.4125,0 18.6875,0 Z M18.75,28.6875 C18.75,28.725 18.725,28.75 18.6875,28.75 L1.3125,28.75 C1.275,28.75 1.25,28.725 1.25,28.6875 L1.25,25 L18.75,25 L18.75,28.6875 Z M1.25,23.75 L1.25,1.3125 C1.25,1.275 1.275,1.25 1.3125,1.25 L18.6875,1.25 C18.725,1.25 18.75,1.275 18.75,1.3125 L18.75,23.75 L1.25,23.75 Z" id="Shape"></path>
                        <path d="M10,27.4875 C10.3375,27.4875 10.625,27.2125 10.625,26.8625 C10.625,26.525 10.35,26.2375 10,26.2375 C9.65,26.2375 9.375,26.5125 9.375,26.8625 C9.375,27.2125 9.6625,27.4875 10,27.4875 Z" id="Path"></path>
                        <path d="M12.5125,20 L7.5,20.0125 L7.5,16.25 L6.25,16.25 L6.25,20.0125 C6.25,20.6875 6.8,21.25 7.4875,21.25 L12.525,21.25 C13.2,21.25 13.7625,20.7 13.7625,20.0125 L13.7625,16.25 L12.5125,16.25 L12.5125,20 Z" id="Path"></path>
                        <polygon id="Path" points="4.775 15.575 5.5625 16.5375 10 12.875 14.4375 16.5375 15.225 15.575 10 11.2625"></polygon>
                        <path d="M12.6,7.3125 C11.925,6.65 11.0125,6.25 10,6.25 C8.9625,6.25 8.025,6.675 7.35,7.35 L8.2375,8.2375 C8.6875,7.775 9.3125,7.5 10,7.5 C10.6625,7.5 11.275,7.7625 11.7125,8.1875 L12.6,7.3125 Z" id="Path"></path>
                        <path d="M9.1125,9.1125 L9.95,9.95 L10.825,9.075 C10.6125,8.875 10.325,8.75 10,8.75 C9.65,8.75 9.3375,8.8875 9.1125,9.1125 Z" id="Path"></path>
                        <path d="M10,5 C11.35,5 12.5875,5.55 13.4875,6.425 L14.375,5.5375 C13.2375,4.4375 11.7,3.75 10,3.75 C8.275,3.75 6.7125,4.45 5.575,5.575 L6.4625,6.4625 C7.375,5.5625 8.625,5 10,5 Z" id="Path"></path>
                    </g>
                    <rect id="Rectangle" x="0" y="0" width="40" height="40"></rect>
                </g>
                <circle id="Oval-Copy-401" fill="#101828" cx="28" cy="28" r="28"></circle>
                <g id="053-B32px-Copy-4" transform="translate(8.000000, 8.000000)">
                    <rect id="Rectangle" x="0" y="0" width="40" height="40"></rect>
                    <g id="Group" transform="translate(6.250000, 5.000000)" fill="#FFFFFF" fill-rule="nonzero">
                        <path d="M13.725,0 L0.7375,7.5 L0.7375,22.5 L13.725,30 L26.7125,22.5 L26.7125,7.5 L13.725,0 Z M25.475,21.0625 L20.3125,17.8625 C20.4625,17.35 20.4625,17.0125 20.4625,17.0125 L20.4625,10.2875 L14.35,6.625 L14.35,1.8 L25.4625,8.2125 L25.4625,21.0625 L25.475,21.0625 Z M8.25,17.025 L8.25,11 L13.725,7.7125 L19.2,11 L19.2,17.025 C19.2,17.05 19.05,20.1125 13.725,22.4 C8.4375,20.1125 8.25,17.125 8.25,17.025 Z M13.1,1.8 L13.1,6.625 L7,10.2875 L7,17.0125 C7,17.0125 7,17.325 7.15,17.825 L2,21.0125 L2,8.225 L13.1,1.8 Z M2.5875,22.125 L7.625,19 C8.375,20.4 10.0375,22.275 13.725,23.75 C17.3875,22.2875 19.05,20.425 19.8125,19.025 L24.8375,22.1375 L13.725,28.55 L2.5875,22.125 Z" id="Shape"></path>
                        <polygon id="Path" points="16.7 13.7375 15.775 12.9 13.15 15.7625 11.6875 14.1625 10.7625 15 13.15 17.6125"></polygon>
                    </g>
                </g>
            </g>
        </g>
    </g>
</svg>