<?xml version="1.0" encoding="UTF-8"?>
<svg width="80px" height="80px" viewBox="0 0 80 80" version="1.1" xmlns="http://www.w3.org/2000/svg" xmlns:xlink="http://www.w3.org/1999/xlink">
    <!-- Generator: Sketch 56.3 (81716) - https://sketch.com -->
    <title>043-G80px</title>
    <desc>Created with Sketch.</desc>
    <g id="NEW_icons" stroke="none" stroke-width="1" fill="none" fill-rule="evenodd">
        <g id="icons_UD_new-Copy" transform="translate(-2051.000000, -5596.000000)">
            <g id="043-G80px" transform="translate(2051.000000, 5596.000000)">
                <circle id="Oval-Copy-333" fill="#E3E8EC" cx="40" cy="40" r="40"></circle>
                <g id="043-B32px-Copy-7" transform="translate(12.000000, 12.000000)">
                    <path d="M35,29.75 C34.0375,29.75 33.25,30.5375 33.25,31.5 C33.25,32.4625 34.0375,33.25 35,33.25 C35.9625,33.25 36.75,32.4625 36.75,31.5 C36.75,30.5375 35.9625,29.75 35,29.75 L35,29.75 Z" id="Path" fill="#101828" fill-rule="nonzero"></path>
                    <path d="M42,29.75 C41.0375,29.75 40.25,30.5375 40.25,31.5 C40.25,32.4625 41.0375,33.25 42,33.25 C42.9625,33.25 43.75,32.4625 43.75,31.5 C43.75,30.5375 42.9625,29.75 42,29.75 L42,29.75 Z" id="Path" fill="#101828" fill-rule="nonzero"></path>
                    <path d="M38.5,33.25 C37.5375,33.25 36.75,34.0375 36.75,35 C36.75,35.9625 37.5375,36.75 38.5,36.75 C39.4625,36.75 40.25,35.9625 40.25,35 C40.25,34.0375 39.4625,33.25 38.5,33.25 L38.5,33.25 Z" id="Path" fill="#101828" fill-rule="nonzero"></path>
                    <path d="M38.5,26.25 C37.5375,26.25 36.75,27.0375 36.75,28 C36.75,28.9625 37.5375,29.75 38.5,29.75 C39.4625,29.75 40.25,28.9625 40.25,28 C40.25,27.0375 39.4625,26.25 38.5,26.25 L38.5,26.25 Z" id="Path" fill="#101828" fill-rule="nonzero"></path>
                    <polygon id="Path" fill="#101828" fill-rule="nonzero" points="14 29.75 14 31.5 17.5 31.5 17.5 35 19.25 35 19.25 31.5 22.75 31.5 22.75 29.75 19.25 29.75 19.25 26.25 17.5 26.25 17.5 29.75"></polygon>
                    <path d="M28.875,21 L27.125,21 L27.125,19.25 C27.125,19.0925 27.1775,15.19 31.115,13.2125 C34.09,11.725 34.125,8.785 34.125,8.75 L35.875,8.75 C35.875,8.9075 35.8225,12.81 31.885,14.7875 C28.91,16.275 28.875,19.215 28.875,19.25 L28.875,21 Z" id="Path" fill="#101828" fill-rule="nonzero"></path>
                    <path d="M43.9775,22.75 C44.0125,22.75 44.065,22.785 44.065,22.8375 L46.9,35.9625 C47.3725,38.255 47.425,39.62 46.5325,41.58 C45.5,43.89 42.8925,45.5 40.215,45.5 L40.0925,45.5 C36.3125,45.43 33.2325,42.2975 33.2325,38.5 L33.2325,36.75 L31.4825,36.75 L24.5,36.75 L22.75,36.75 L22.75,38.5 C22.75,42.2975 19.67,45.43 15.89,45.5 L15.7675,45.5 C13.1075,45.5 10.5,43.89 9.45,41.58 C8.5575,39.62 8.61,38.2725 9.0825,35.98 L11.935,22.8025 C11.935,22.785 11.9875,22.75 12.0225,22.75 L24.5,22.75 L31.5,22.75 L43.9775,22.75 L43.9775,22.75 Z M43.9775,21 L31.5,21 L24.5,21 L12.0225,21 C11.1475,21 10.395,21.6125 10.22,22.47 L7.3675,35.6125 C6.86,38.15 6.755,39.8825 7.8575,42.2975 C9.2225,45.29 12.5125,47.25 15.785,47.25 C15.8375,47.25 15.89,47.25 15.9425,47.25 C20.7025,47.1625 24.5175,43.2775 24.5175,38.5 L31.5,38.5 C31.5,43.2775 35.3325,47.1625 40.075,47.25 C40.1275,47.25 40.18,47.25 40.2325,47.25 C43.505,47.25 46.795,45.29 48.1425,42.315 C49.245,39.9 49.1575,38.1675 48.6325,35.63 L45.78,22.4875 C45.605,21.6125 44.8525,21 43.9775,21 L43.9775,21 Z" id="Shape" fill="#101828" fill-rule="nonzero"></path>
                    <rect id="Rectangle" x="0" y="0" width="56" height="56"></rect>
                </g>
            </g>
        </g>
    </g>
</svg>