<?xml version="1.0" encoding="UTF-8"?>
<svg width="80px" height="80px" viewBox="0 0 80 80" version="1.1" xmlns="http://www.w3.org/2000/svg" xmlns:xlink="http://www.w3.org/1999/xlink">
    <!-- Generator: Sketch 57.1 (83088) - https://sketch.com -->
    <title>122-B80px</title>
    <desc>Created with Sketch.</desc>
    <g id="122-B80px" stroke="none" stroke-width="1" fill="none" fill-rule="evenodd">
        <g>
            <path d="M38.825,14.925 L41.6,16.675 L38.825,18.425 L38.825,14.925 L38.825,14.925 Z M36.325,10.425 L36.325,22.925 L46.325,16.675 L36.325,10.425 L36.325,10.425 Z" id="Shape" fill="#101828" fill-rule="nonzero"></path>
            <path d="M41.325,62 L41.325,65.475 L38.55,63.725 L41.325,62 L41.325,62 Z M43.825,57.5 L33.825,63.75 L43.825,70 L43.825,57.5 L43.825,57.5 Z" id="Shape" fill="#101828" fill-rule="nonzero"></path>
            <path d="M28.5,26.3 L34.2,32.2 L31.725,34.6 L30.525,35.775 L31.15,37.325 C31.325,37.75 32.875,41.525 35.2,43.9 C37.525,46.3 41.225,47.975 41.65,48.15 L43.2,48.825 L44.4,47.65 L46.875,45.25 L52.575,51.15 L48.85,54.75 C41.05,53.325 33.525,45.625 33.45,45.55 C33.375,45.475 25.85,37.625 24.775,29.825 L28.5,26.3 L28.5,26.3 Z M28.525,23.525 C28.075,23.525 27.6,23.7 27.25,24.05 L22.825,28.325 C22.4,28.75 22.2,29.325 22.275,29.925 C23.325,38.725 31.65,47.35 31.65,47.35 C31.65,47.35 39.925,55.9 48.8,57.325 C48.9,57.35 48.975,57.35 49.075,57.35 C49.55,57.35 50.025,57.15 50.375,56.825 L54.8,52.55 C55.525,51.85 55.55,50.675 54.85,49.975 L48.2,43.1 C47.85,42.675 47.375,42.5 46.9,42.5 C46.45,42.5 45.975,42.675 45.625,43.025 L42.675,45.875 C42.675,45.875 39.05,44.275 37.025,42.15 C34.975,40.05 33.5,36.375 33.5,36.375 L36.45,33.525 C37.175,32.825 37.2,31.65 36.5,30.95 L29.85,24.075 C29.475,23.7 29,23.525 28.525,23.525 L28.525,23.525 Z" id="Shape" fill="#101828" fill-rule="nonzero"></path>
            <g id="Group" transform="translate(12.500000, 15.000000)" fill="#101828" fill-rule="nonzero">
                <path d="M36.275,2.5 L33.65,4.175 C42.475,7.225 48.825,15.575 48.825,25.425 C48.825,36.125 41.3,45.1 31.275,47.35 L31.25,49.925 C42.675,47.625 51.325,37.525 51.325,25.425 C51.325,15.175 45.125,6.35 36.275,2.5 Z" id="Path"></path>
                <path d="M20.225,47.05 C10.775,44.375 3.825,35.7 3.825,25.425 C3.825,13.875 12.6,4.325 23.825,3.075 L23.825,0.55 C11.2,1.8 1.325,12.475 1.325,25.425 C1.325,36.1 8.075,45.225 17.5,48.8 L20.225,47.05 Z" id="Path"></path>
            </g>
            <rect id="Rectangle" x="0" y="0" width="80" height="80"></rect>
        </g>
    </g>
</svg>