<?xml version="1.0" encoding="UTF-8"?>
<svg width="56px" height="56px" viewBox="0 0 56 56" version="1.1" xmlns="http://www.w3.org/2000/svg" xmlns:xlink="http://www.w3.org/1999/xlink">
    <!-- Generator: Sketch 57.1 (83088) - https://sketch.com -->
    <title>204-G56px</title>
    <desc>Created with Sketch.</desc>
    <g id="NEW_icons" stroke="none" stroke-width="1" fill="none" fill-rule="evenodd">
        <g id="icons_UD_new-Copy" transform="translate(-455.000000, -26115.000000)">
            <g id="204-G56px" transform="translate(455.000000, 26115.000000)">
                <circle id="Oval-Copy-1286" fill="#E3E8EC" cx="28" cy="28" r="28"></circle>
                <g id="204-B32px-Copy-3" transform="translate(8.000000, 8.000000)">
                    <path d="M33.725,12.5 L33.75,12.525 L33.725,26.2625 L6.25,26.2375 L6.275,12.5 L33.725,12.5 L33.725,12.5 Z M33.725,11.25 L6.275,11.25 C5.575,11.25 5,11.825 5,12.525 L5,26.2375 C5,26.9375 5.575,27.5125 6.275,27.5125 L33.725,27.5125 C34.425,27.5125 35,26.9375 35,26.2375 L35,12.525 C35,11.825 34.425,11.25 33.725,11.25 L33.725,11.25 Z" id="Shape" fill="#101828" fill-rule="nonzero"></path>
                    <path d="M19.9875,27.425 C14.6,27.425 10.5625,28.25 8.7625,28.7 L8.7625,29.9875 C10.3125,29.5875 14.4375,28.675 19.9875,28.675 C25.5875,28.675 29.75,29.6 31.2625,30 L31.2625,28.7125 C29.475,28.2625 25.425,27.425 19.9875,27.425 Z" id="Path" fill="#101828" fill-rule="nonzero"></path>
                    <path d="M14.9125,16.25 L13.3625,16.25 L13.3625,21.2375 L14.9125,21.2375 C16.525,21.2375 17.5125,20.2875 17.5125,18.75 C17.5125,17.2125 16.5125,16.25 14.9125,16.25 Z M15.0375,19.95 L14.6,19.95 L14.6,17.525 L15.0375,17.525 C15.825,17.525 16.2625,17.95 16.2625,18.7375 C16.2625,19.525 15.825,19.95 15.0375,19.95 Z" id="Shape" fill="#101828" fill-rule="nonzero"></path>
                    <polygon id="Path" fill="#101828" fill-rule="nonzero" points="11.2625 16.25 11.2625 18.0625 10.0125 18.0625 10.0125 16.25 8.7625 16.25 8.7625 21.2375 10.0125 21.2375 10.0125 19.3375 11.2625 19.3375 11.2625 21.2375 12.5125 21.2375 12.5125 16.25"></polygon>
                    <path d="M25.925,19.2125 L25.925,16.25 L24.725,16.25 L22.5,19.3875 L22.5,20.5 L24.6125,20.5 L24.6125,21.2375 L25.925,21.2375 L25.925,20.5 L26.5875,20.5 L26.5875,19.225 L25.925,19.225 L25.925,19.2125 Z M24.1,19.2125 L24.6125,18.4875 L24.6125,19.2125 L24.1,19.2125 Z" id="Shape" fill="#101828" fill-rule="nonzero"></path>
                    <polygon id="Path" fill="#101828" fill-rule="nonzero" points="31.2625 16.25 29.55 16.25 28.3625 17.5625 28.3625 16.25 27.0375 16.25 27.0375 21.2375 28.3625 21.2375 28.3625 19.4 28.525 19.2125 29.7 21.2375 31.225 21.2375 29.475 18.2"></polygon>
                    <polygon id="Path" fill="#101828" fill-rule="nonzero" points="19.3875 17.0625 20.6375 17.0625 20.6375 18.3125 21.8875 18.3125 21.8875 19.5625 20.6375 19.5625 20.6375 20.8125 19.3875 20.8125 19.3875 19.5625 18.1375 19.5625 18.1375 18.3125 19.3875 18.3125"></polygon>
                    <rect id="Rectangle" x="0" y="0" width="40" height="40"></rect>
                </g>
            </g>
        </g>
    </g>
</svg>