<?xml version="1.0" encoding="UTF-8"?>
<svg width="80px" height="80px" viewBox="0 0 80 80" version="1.1" xmlns="http://www.w3.org/2000/svg" xmlns:xlink="http://www.w3.org/1999/xlink">
    <!-- Generator: Sketch 54.1 (76490) - https://sketchapp.com -->
    <title>008-W80px</title>
    <desc>Created with Sketch.</desc>
    <g id="NEW_icons" stroke="none" stroke-width="1" fill="none" fill-rule="evenodd">
        <g id="icons_UD_new-Copy" transform="translate(-869.000000, -1329.000000)">
            <g id="008-W80px" transform="translate(869.000000, 1329.000000)">
                <circle id="Oval-Copy-128" fill="#101828" cx="40" cy="40" r="40"></circle>
                <g id="008-B32px-Copy-8" transform="translate(12.000000, 12.000000)">
                    <g id="Group" transform="translate(7.000000, 7.000000)" fill="#FFFFFF" fill-rule="nonzero">
                        <path d="M24.115,19.5125 C24.08,19.7225 24.08,19.915 24.01,20.1075 C23.555,21.4025 22.3475,22.2775 21,22.2775 C19.2325,22.2775 17.7975,20.8075 17.7975,18.9875 C17.7975,18.585 17.8675,18.1825 18.0075,17.815 C18.0425,17.7275 18.095,17.6575 18.1475,17.57 L16.45,17.0275 C16.4325,17.0975 16.3975,17.15 16.3625,17.2025 C16.1525,17.7625 16.0475,18.3575 16.0475,18.9875 C16.0475,21.77 18.27,24.0275 21,24.0275 C23.1525,24.0275 24.9725,22.645 25.655,20.685 C25.725,20.475 25.7775,20.265 25.8125,20.055 L24.115,19.5125 Z" id="Path"></path>
                        <path d="M37.8175,16.6775 L35.8575,22.75 L5.8625,13.0725 L6.5975,10.815 L6.3875,10.745 C5.845,10.57 5.4075,10.22 5.0925,9.7825 L4.2,12.53 C3.9025,13.4575 4.41,14.4375 5.32,14.735 L35.2975,24.4125 C35.4725,24.465 35.665,24.5 35.84,24.5 C36.575,24.5 37.2575,24.0275 37.5025,23.2925 L39.585,16.8175 C39.7075,16.415 39.6725,16.03 39.5325,15.6625 L37.8175,16.6775 Z" id="Path"></path>
                        <path d="M3.5,29.015 L3.5,39.4275 C3.5,39.48 3.465,39.515 3.4125,39.515 L1.75,39.515 L1.75,29.015 L3.5,29.015 L3.5,29.015 Z M3.5175,27.265 L0,27.265 L0,41.265 L3.395,41.265 C4.41,41.265 5.2325,40.4425 5.2325,39.4275 L5.2325,28.9975 C5.25,28.035 4.4625,27.265 3.5175,27.265 L3.5175,27.265 Z" id="Shape"></path>
                        <path d="M8.5575,2.485 C8.61,2.485 8.6625,2.485 8.715,2.5025 L39.9,12.565 C40.145,12.6525 40.215,12.845 40.2325,12.985 C40.25,13.125 40.215,13.335 39.9875,13.475 L33.25,17.395 C33.18,17.4475 33.0925,17.465 33.005,17.465 C32.9525,17.465 32.9,17.465 32.8475,17.4475 L6.6325,8.9775 C6.37,8.9075 6.23,8.61 6.3,8.3475 L8.085,2.835 C8.1725,2.6075 8.3825,2.485 8.5575,2.485 L8.5575,2.485 Z M8.5575,0.735 C7.6125,0.735 6.72,1.3475 6.4225,2.2925 L4.6375,7.8225 C4.2525,9.0125 4.9,10.2725 6.09,10.6575 L32.3225,19.1275 C32.55,19.1975 32.7775,19.2325 33.005,19.2325 C33.39,19.2325 33.7925,19.1275 34.125,18.935 L40.8625,15.015 C42.5425,14.035 42.28,11.5325 40.425,10.9375 L9.2575,0.8575 C9.0125,0.77 8.785,0.735 8.5575,0.735 L8.5575,0.735 Z" id="Shape"></path>
                        <polygon id="Path" points="37.975 16.1875 36.085 22.05 39.025 23.0125 40.915 17.1325"></polygon>
                        <path d="M7.525,35.14 L3.4825,35.14 L3.4825,33.39 L7.525,33.39 C11.1825,33.39 14.455,31.36 16.065,28.0875 L19.145,21.84 L20.72,22.61 L17.64,28.8575 C15.7325,32.725 11.8475,35.14 7.525,35.14 Z" id="Path"></path>
                    </g>
                    <rect id="Rectangle" x="0" y="0" width="56" height="56"></rect>
                </g>
            </g>
        </g>
    </g>
</svg>