<?xml version="1.0" encoding="UTF-8"?>
<svg width="32px" height="32px" viewBox="0 0 32 32" version="1.1" xmlns="http://www.w3.org/2000/svg" xmlns:xlink="http://www.w3.org/1999/xlink">
    <!-- Generator: Sketch 57.1 (83088) - https://sketch.com -->
    <title>066-B32px</title>
    <desc>Created with Sketch.</desc>
    <g id="066-B32px" stroke="none" stroke-width="1" fill="none" fill-rule="evenodd">
        <g>
            <path d="M8.9,5.3 C8.9,5.3 9,5.3 9.1,5.4 L13.7,10.1 C13.8,10.2 13.8,10.2 13.8,10.3 C13.8,10.3 13.8,10.4 13.7,10.5 L11.7,12.5 L11.1,13 L11.4,13.6 C11.4,13.7 12.5,16.3 14,17.9 C15.5,19.5 18.1,20.6 18.2,20.7 L18.8,21 L19.3,20.5 L21.3,18.5 C21.4,18.4 21.4,18.4 21.5,18.4 C21.5,18.4 21.6,18.4 21.7,18.5 L26.3,23.2 C26.4,23.3 26.4,23.3 26.4,23.4 C26.4,23.4 26.4,23.5 26.3,23.6 L23.2,26.6 C23.1,26.7 23.1,26.7 23,26.7 C23,26.7 23,26.7 23,26.7 C17.3,25.8 11.8,20.2 11.7,20.1 C11.7,20 6.3,14.3 5.6,8.6 C5.6,8.5 5.6,8.4 5.7,8.3 L8.7,5.4 C8.8,5.4 8.9,5.3 8.9,5.3 L8.9,5.3 Z M8.9,4.3 C8.6,4.3 8.3,4.5 8,4.7 L5,7.6 C4.7,7.9 4.5,8.3 4.6,8.7 C5.3,14.8 11.1,20.7 11.1,20.7 C11.1,20.7 16.8,26.6 22.9,27.6 C23,27.6 23,27.6 23.1,27.6 C23.4,27.6 23.8,27.5 24,27.2 L27.1,24.2 C27.6,23.7 27.6,22.9 27.1,22.4 L22.5,17.7 C22.3,17.4 21.9,17.3 21.6,17.3 C21.3,17.3 21,17.4 20.7,17.7 L18.7,19.7 C18.7,19.7 16.2,18.6 14.8,17.1 C13.4,15.6 12.4,13.1 12.4,13.1 L14.4,11.1 C14.9,10.6 14.9,9.8 14.4,9.3 L9.8,4.7 C9.6,4.5 9.2,4.3 8.9,4.3 L8.9,4.3 Z" id="Shape" fill="#101828" fill-rule="nonzero"></path>
            <rect id="Rectangle" x="0" y="0" width="32" height="32"></rect>
        </g>
    </g>
</svg>