<?xml version="1.0" encoding="UTF-8"?>
<svg width="56px" height="56px" viewBox="0 0 56 56" version="1.1" xmlns="http://www.w3.org/2000/svg" xmlns:xlink="http://www.w3.org/1999/xlink">
    <!-- Generator: Sketch 57.1 (83088) - https://sketch.com -->
    <title>233-B56px</title>
    <desc>Created with Sketch.</desc>
    <g id="233-B56px" stroke="none" stroke-width="1" fill="none" fill-rule="evenodd">
        <g>
            <path d="M47.25,8.75 L47.25,12.25 C47.25,17.7275 46.1125,25.8825 44.2225,30.065 C41.615,35.805 36.715,43.365 28,47.11 C19.285,43.365 14.3675,35.805 11.7775,30.065 C9.8875,25.8825 8.75,17.71 8.75,12.25 L8.75,8.75 L47.25,8.75 L47.25,8.75 Z M49,7 L7,7 L7,12.25 C7,17.43 8.05,26.0575 10.185,30.7825 C13.1075,37.24 18.48,45.185 28,49 C37.52,45.185 42.8925,37.24 45.815,30.7825 C47.95,26.0575 49,17.43 49,12.25 L49,7 L49,7 Z" id="Shape" fill="#101828" fill-rule="nonzero"></path>
            <g id="Group" transform="translate(22.750000, 14.000000)" fill="#101828" fill-rule="nonzero">
                <path d="M2.625,1.75 C3.115,1.75 3.5,2.135 3.5,2.625 C3.5,3.115 3.115,3.5 2.625,3.5 C2.135,3.5 1.75,3.0975 1.75,2.625 C1.75,2.1525 2.135,1.75 2.625,1.75 L2.625,1.75 Z M2.625,0 C1.1725,0 0,1.1725 0,2.625 C0,4.0775 1.1725,5.25 2.625,5.25 C4.0775,5.25 5.25,4.0775 5.25,2.625 C5.25,1.1725 4.0775,0 2.625,0 L2.625,0 Z" id="Shape"></path>
                <path d="M5.25,14 L7.4375,14 L8.75,12.25 L8.75,14.91 C8.75,16.345 7.5775,17.5 6.16,17.5 C4.69,17.5 3.5,16.31 3.5,14.84 L3.5,4.375 L1.75,4.375 L1.75,14.84 C1.75,17.2725 3.7275,19.25 6.16,19.25 C8.5575,19.25 10.5,17.3075 10.5,14.91 L10.5,7 L5.25,14 Z" id="Path"></path>
            </g>
            <rect id="Rectangle" x="0" y="0" width="56" height="56"></rect>
        </g>
    </g>
</svg>