<?xml version="1.0" encoding="UTF-8"?>
<svg width="80px" height="80px" viewBox="0 0 80 80" version="1.1" xmlns="http://www.w3.org/2000/svg" xmlns:xlink="http://www.w3.org/1999/xlink">
    <!-- Generator: Sketch 57.1 (83088) - https://sketch.com -->
    <title>078-G80px</title>
    <desc>Created with Sketch.</desc>
    <g id="NEW_icons" stroke="none" stroke-width="1" fill="none" fill-rule="evenodd">
        <g id="icons_UD_new-Copy" transform="translate(-768.000000, -10265.000000)">
            <g id="078-G80px" transform="translate(768.000000, 10265.000000)">
                <circle id="Oval-Copy-510" fill="#E3E8EC" cx="40" cy="40" r="40"></circle>
                <g id="078-B32px-Copy-6" transform="translate(12.000000, 12.000000)">
                    <path d="M24.5,35 L24.5,42 L8.75,42 L8.75,20.2125 L13.09,15.75 L24.5,15.75 L24.5,26.25 L26.25,26.25 L26.25,15.6275 C26.25,14.7175 25.55,14 24.675,14 L12.355,14 L7,19.495 L7,42.0175 C7,42.98 7.7525,43.75 8.6625,43.75 L24.675,43.75 C25.5325,43.75 26.25,43.0325 26.25,42.14 L26.25,35 L24.5,35 Z" id="Path" fill="#101828" fill-rule="nonzero"></path>
                    <path d="M47.425,14 L35.105,14 L29.75,19.495 L29.75,26.25 L31.5,26.25 L31.5,20.2125 L35.84,15.75 L47.25,15.75 L47.25,42 L31.5,42 L31.5,35 L29.75,35 L29.75,42.0175 C29.75,42.9625 30.5025,43.7325 31.4125,43.7325 L47.425,43.7325 C48.2825,43.7325 49,43.015 49,42.1225 L49,15.6275 C49,14.7175 48.3,14 47.425,14 Z" id="Path" fill="#101828" fill-rule="nonzero"></path>
                    <path d="M36.75,27.86 L40.705,30.625 L36.75,33.39 L36.75,27.86 L36.75,27.86 Z M35,24.5 L35,36.75 L43.75,30.625 L35,24.5 L35,24.5 Z" id="Shape" fill="#101828" fill-rule="nonzero"></path>
                    <rect id="Rectangle" fill="#101828" fill-rule="nonzero" x="12.25" y="29.75" width="23.625" height="1.75"></rect>
                    <rect id="Rectangle" x="0" y="0" width="56" height="56"></rect>
                </g>
            </g>
        </g>
    </g>
</svg>