<?xml version="1.0" encoding="UTF-8"?>
<svg width="80px" height="80px" viewBox="0 0 80 80" version="1.1" xmlns="http://www.w3.org/2000/svg" xmlns:xlink="http://www.w3.org/1999/xlink">
    <!-- Generator: Sketch 57.1 (83088) - https://sketch.com -->
    <title>035-B80px</title>
    <desc>Created with Sketch.</desc>
    <g id="035-B80px" stroke="none" stroke-width="1" fill="none" fill-rule="evenodd">
        <g>
            <g id="Group" transform="translate(10.000000, 12.500000)" fill="#101828" fill-rule="nonzero">
                <polygon id="Path" points="14.75 29.975 18.225 30.05 16.55 22.8"></polygon>
                <g>
                    <polygon id="Path" points="14.75 29.975 18.225 30.05 16.55 22.8"></polygon>
                    <path d="M32.5,0 L0,5 L0,50 L32.5,55 L32.5,0 Z M20.325,37.9 L19,33.55 L14.05,33.375 L13.15,37.575 L9.75,37.35 L14.775,18.475 L18.625,18.3 L23.95,38.125 L20.325,37.9 Z" id="Shape"></path>
                </g>
            </g>
            <path d="M50,20 C46.35,20 42.95,20.25 40,20.675 L40,23.2 C42.7,22.8 46.025,22.5 50,22.5 C58.85,22.5 64.675,23.925 66.825,25 C64.675,26.075 58.85,27.5 50,27.5 C46.025,27.5 42.7,27.2 40,26.8 L40,29.325 C42.95,29.75 46.35,30 50,30 C57.525,30 64.1,28.95 67.5,27.425 L67.5,34.175 L67.5,34.175 C67.5,35.3 61.5,37.925 49.9,37.925 C45.925,37.925 42.65,37.6 40,37.15 L40,39.7 C43.075,40.2 46.525,40.425 49.9,40.425 C56.7,40.425 63.85,39.45 67.5,37.4 L67.5,44.6 L67.5,44.6 C67.5,45.725 61.5,48.35 49.9,48.35 C45.925,48.35 42.65,48.025 40,47.575 L40,50.125 C43.075,50.625 46.525,50.85 49.9,50.85 C56.7,50.85 63.85,49.875 67.5,47.825 L67.5,55 L67.5,55 C67.5,56.125 61.5,58.75 49.9,58.75 C45.925,58.75 42.65,58.425 40,57.975 L40,60.525 C43.075,61.025 46.525,61.25 49.9,61.25 C59.575,61.25 70,59.3 70,54.975 L70,54.975 L70,25 C70,22.25 61.05,20 50,20 Z" id="Path" fill="#101828" fill-rule="nonzero"></path>
            <rect id="Rectangle" x="0" y="0" width="80" height="80"></rect>
        </g>
    </g>
</svg>