<?xml version="1.0" encoding="UTF-8"?>
<svg width="56px" height="56px" viewBox="0 0 56 56" version="1.1" xmlns="http://www.w3.org/2000/svg" xmlns:xlink="http://www.w3.org/1999/xlink">
    <!-- Generator: Sketch 57.1 (83088) - https://sketch.com -->
    <title>185-G56px</title>
    <desc>Created with Sketch.</desc>
    <g id="NEW_icons" stroke="none" stroke-width="1" fill="none" fill-rule="evenodd">
        <g id="icons_UD_new-Copy" transform="translate(-1728.000000, -23602.000000)">
            <g id="185-G56px" transform="translate(1728.000000, 23602.000000)">
                <circle id="Oval-Copy-1156" fill="#E3E8EC" cx="28" cy="28" r="28"></circle>
                <g id="185-B32px-Copy-3" transform="translate(8.000000, 8.000000)">
                    <path d="M33.75,10 L33.7625,26.25 L6.25,26.2625 L6.2375,10 L33.75,10 L33.75,10 Z M33.7625,8.75 L6.2375,8.75 C5.5625,8.75 5,9.3125 5,9.9875 L5,26.25 C5,26.9375 5.5625,27.5 6.2375,27.5 L33.75,27.5 C34.4375,27.5 34.9877044,26.9375 34.9877044,26.2625 L34.9877044,9.9875 C35,9.3125 34.4375,8.75 33.7625,8.75 L33.7625,8.75 Z" id="Shape" fill="#101828" fill-rule="nonzero"></path>
                    <rect id="Rectangle" fill="#101828" fill-rule="nonzero" x="6.25" y="22.5" width="27.5" height="1.25"></rect>
                    <rect id="Rectangle" fill="#101828" fill-rule="nonzero" x="21.25" y="27.5" width="1.25" height="3.75"></rect>
                    <rect id="Rectangle" fill="#101828" fill-rule="nonzero" x="17.5" y="27.5" width="1.25" height="3.75"></rect>
                    <rect id="Rectangle" fill="#101828" fill-rule="nonzero" x="15.025" y="30" width="9.975" height="1.25"></rect>
                    <path d="M20,25.6125 C20.3375,25.6125 20.625,25.3375 20.625,24.9875 C20.625,24.6375 20.35,24.3625 20,24.3625 C19.65,24.3625 19.375,24.6375 19.375,24.9875 C19.375,25.3375 19.6625,25.6125 20,25.6125" id="Path" fill="#101828" fill-rule="nonzero"></path>
                    <path d="M11.8625,17.5125 C12.2,17.5125 12.475,17.7875 12.475,18.125 C12.475,18.4625 12.2,18.7375 11.8625,18.7375 C11.525,18.7375 11.25,18.4625 11.25,18.125 C11.25,17.7875 11.525,17.5125 11.8625,17.5125 L11.8625,17.5125 Z M11.8625,16.2625 C10.8375,16.2625 10,17.1 10,18.125 C10,19.15 10.8375,19.9875 11.8625,19.9875 C12.8875,19.9875 13.725,19.15 13.725,18.125 C13.725,17.1 12.8875,16.2625 11.8625,16.2625 L11.8625,16.2625 Z" id="Shape" fill="#101828" fill-rule="nonzero"></path>
                    <path d="M28.1125,13.7625 C28.45,13.7625 28.725,14.0375 28.725,14.375 C28.725,14.7125 28.45,14.9875 28.1125,14.9875 C27.775,14.9875 27.5,14.7125 27.5,14.375 C27.5,14.0375 27.775,13.7625 28.1125,13.7625 L28.1125,13.7625 Z M28.1125,12.5125 C27.0875,12.5125 26.25,13.35 26.25,14.375 C26.25,15.4 27.0875,16.2375 28.1125,16.2375 C29.1375,16.2375 29.975,15.4 29.975,14.375 C29.975,13.3375 29.1375,12.5125 28.1125,12.5125 L28.1125,12.5125 Z" id="Shape" fill="#101828" fill-rule="nonzero"></path>
                    <path d="M26.55,14.45 L20.9875,17.25 L19.7375,13.5 L12.9,16.95 C13.2,17.2375 13.4,17.6375 13.45,18.075 L19.0125,15.2625 L20.2625,19.0125 L27.1,15.575 C26.8,15.275 26.6,14.8875 26.55,14.45 Z" id="Path" fill="#101828" fill-rule="nonzero"></path>
                    <rect id="Rectangle" x="0" y="0" width="40" height="40"></rect>
                </g>
            </g>
        </g>
    </g>
</svg>