<?xml version="1.0" encoding="UTF-8"?>
<svg width="32px" height="32px" viewBox="0 0 32 32" version="1.1" xmlns="http://www.w3.org/2000/svg" xmlns:xlink="http://www.w3.org/1999/xlink">
    <!-- Generator: Sketch 57.1 (83088) - https://sketch.com -->
    <title>050-B32px</title>
    <desc>Created with Sketch.</desc>
    <g id="050-B32px" stroke="none" stroke-width="1" fill="none" fill-rule="evenodd">
        <g>
            <path d="M27,6 L5,6 C4.45,6 4,6.45 4,7 L4,22 C4,22.55 4.45,23 5,23 L10.93,23 C10.68,22.67 10.46,22.33 10.25,22 L5,22 L5,7 L27,7 L27,22 L21.75,22 C21.54,22.33 21.31,22.67 21.07,23 L27,23 C27.55,23 28,22.55 28,22 L28,7 C28,6.45 27.55,6 27,6 Z" id="Path" fill="#101828" fill-rule="nonzero"></path>
            <path d="M22,13 L22,13.75 C22,15.53 21.64,18.17 21.03,19.51 C20.21,21.32 18.68,23.69 16,24.91 C13.32,23.69 11.79,21.32 10.97,19.51 C10.36,18.17 10,15.53 10,13.75 L10,13 L22,13 L22,13 Z M23,12 L9,12 L9,13.75 C9,15.48 9.35,18.35 10.06,19.93 C11.03,22.08 12.83,24.74 16,26.01 C19.17,24.74 20.97,22.09 21.94,19.93 C22.65,18.36 23,15.48 23,13.75 L23,12 L23,12 Z" id="Shape" fill="#101828" fill-rule="nonzero"></path>
            <path d="M10.97,8.5 C11.24,8.5 11.47,8.28 11.47,8 C11.47,7.73 11.25,7.5 10.97,7.5 C10.69,7.5 10.47,7.72 10.47,8 C10.47,8.28 10.7,8.5 10.97,8.5" id="Path" fill="#101828" fill-rule="nonzero"></path>
            <path d="M6.99,8.5 C7.26,8.5 7.49,8.28 7.49,8 C7.49,7.73 7.27,7.5 6.99,7.5 C6.72,7.5 6.5,7.73 6.5,8 C6.5,8.28 6.72,8.5 6.99,8.5" id="Path" fill="#101828" fill-rule="nonzero"></path>
            <path d="M8.99,8.5 C9.26,8.5 9.49,8.28 9.49,8 C9.49,7.73 9.27,7.5 8.99,7.5 C8.72,7.5 8.5,7.73 8.5,8 C8.5,8.28 8.72,8.5 8.99,8.5" id="Path" fill="#101828" fill-rule="nonzero"></path>
            <rect id="Rectangle" fill="#101828" fill-rule="nonzero" x="5" y="9" width="22" height="1"></rect>
            <path d="M17.72,17.05 C17.72,17.77 17.72,18.5 17.72,19.22 C17.72,19.31 17.72,19.39 17.83,19.41 C17.93,19.43 17.99,19.38 18.03,19.29 C18.24,18.83 18.46,18.38 18.67,17.92 C18.81,17.61 19.2,17.56 19.41,17.84 C19.48,17.94 19.51,18.05 19.46,18.16 C19.16,18.91 18.89,19.67 18.54,20.4 C18.13,21.26 17.42,21.79 16.47,21.96 C15.95,22.05 15.45,22.01 14.97,21.78 C14.36,21.49 14,20.99 13.82,20.34 C13.68,19.82 13.61,19.3 13.62,18.76 C13.65,17.69 13.67,16.61 13.7,15.54 C13.7,15.35 13.82,15.23 14.01,15.21 C14.23,15.19 14.4,15.29 14.44,15.47 C14.45,15.53 14.46,15.59 14.46,15.65 C14.46,16.21 14.46,16.77 14.46,17.33 C14.46,17.36 14.46,17.39 14.46,17.42 C14.46,17.51 14.52,17.56 14.6,17.56 C14.68,17.56 14.74,17.52 14.74,17.42 C14.74,17.32 14.74,17.22 14.74,17.12 C14.74,16.39 14.74,15.66 14.74,14.93 C14.74,14.69 14.89,14.54 15.13,14.54 C15.38,14.54 15.54,14.68 15.54,14.93 C15.54,15.68 15.54,16.43 15.54,17.18 C15.54,17.23 15.53,17.29 15.56,17.31 C15.6,17.35 15.67,17.37 15.72,17.37 C15.76,17.36 15.81,17.3 15.82,17.25 C15.84,17.18 15.83,17.11 15.83,17.04 C15.83,16.16 15.83,15.29 15.83,14.41 C15.83,14.25 15.87,14.12 16.02,14.05 C16.18,13.97 16.34,13.98 16.5,14.06 C16.63,14.13 16.63,14.27 16.63,14.39 C16.63,15.26 16.63,16.12 16.63,16.99 C16.63,17.07 16.63,17.14 16.63,17.22 C16.63,17.35 16.67,17.4 16.78,17.4 C16.89,17.4 16.92,17.33 16.92,17.23 C16.92,16.5 16.92,15.76 16.92,15.03 C16.92,14.96 16.92,14.9 16.93,14.83 C16.97,14.58 17.12,14.47 17.39,14.49 C17.6,14.51 17.72,14.66 17.72,14.89 C17.72,15.61 17.72,16.33 17.72,17.05 Z" id="Path" fill="#101828" fill-rule="nonzero"></path>
            <rect id="Rectangle" x="0" y="0" width="32" height="32"></rect>
        </g>
    </g>
</svg>