<?xml version="1.0" encoding="UTF-8"?>
<svg width="40px" height="40px" viewBox="0 0 40 40" version="1.1" xmlns="http://www.w3.org/2000/svg" xmlns:xlink="http://www.w3.org/1999/xlink">
    <!-- Generator: Sketch 57.1 (83088) - https://sketch.com -->
    <title>246-B40px</title>
    <desc>Created with Sketch.</desc>
    <g id="246-B40px" stroke="none" stroke-width="1" fill="none" fill-rule="evenodd">
        <g>
            <path d="M23.75,27.5 L23.75,28.75 L16.25,28.75 L16.25,27.5 L23.75,27.5 L23.75,27.5 Z M25,26.25 L15,26.25 L15,30 L25,30 L25,26.25 L25,26.25 Z" id="Shape" fill="#101828" fill-rule="nonzero"></path>
            <path d="M22.5,32.5 L22.5,33.75 L17.5,33.75 L17.5,32.5 L22.5,32.5 L22.5,32.5 Z M22.55,31.25 L17.45,31.25 C16.7875,31.25 16.25,31.7875 16.25,32.45 L16.25,33.8 C16.25,34.4625 16.7875,35 17.45,35 L22.55,35 C23.2125,35 23.75,34.4625 23.75,33.8 L23.75,32.45 C23.75,31.7875 23.2125,31.25 22.55,31.25 L22.55,31.25 Z" id="Shape" fill="#101828" fill-rule="nonzero"></path>
            <path d="M23.75,30 L23.75,31.25 L16.25,31.25 L16.25,30 L23.75,30 L23.75,30 Z M23.75,28.75 L16.25,28.75 C15.5625,28.75 15,29.3125 15,30 L15,31.25 C15,31.9375 15.5625,32.5 16.25,32.5 L23.75,32.5 C24.4375,32.5 25,31.9375 25,31.25 L25,30 C25,29.3125 24.4375,28.75 23.75,28.75 L23.75,28.75 Z" id="Shape" fill="#101828" fill-rule="nonzero"></path>
            <path d="M20,6.25 C24.825,6.25 28.75,10.175 28.75,15 C28.75,17.075 28.0125,19.075 26.675,20.65 C26.35,21.0375 26.05,21.3625 25.7875,21.65 C24.5125,23.0375 23.8125,23.9 23.75,26.25 L16.25,26.25 C16.175,23.8 15.35,22.9 14.2375,21.6625 C13.95,21.35 13.6375,21 13.275,20.575 C11.65,18.625 10.9625,16.1375 11.3625,13.5875 C11.95,9.7875 15.1625,6.725 19,6.3 C19.325,6.275 19.6625,6.25 20,6.25 L20,6.25 Z M20,5 C19.625,5 19.2375,5.025 18.8625,5.0625 C14.4625,5.55 10.8125,9.025 10.125,13.4 C9.65,16.45 10.55,19.275 12.3125,21.3875 C14.1,23.5375 15,23.8 15,26.6 L15,27.5 L25,27.5 L25,26.5875 C25,23.825 25.8375,23.5625 27.625,21.4625 C29.1125,19.725 30,17.4625 30,15 C30,9.475 25.525,5 20,5 L20,5 Z" id="Shape" fill="#101828" fill-rule="nonzero"></path>
            <path d="M13.75,15 L12.5,15 C12.5,10.8625 15.8625,7.5 20,7.5 L20,8.75 C16.55,8.75 13.75,11.55 13.75,15 Z" id="Path" fill="#101828" fill-rule="nonzero"></path>
            <rect id="Rectangle" x="0" y="0" width="40" height="40"></rect>
        </g>
    </g>
</svg>