<?xml version="1.0" encoding="UTF-8"?>
<svg width="80px" height="80px" viewBox="0 0 80 80" version="1.1" xmlns="http://www.w3.org/2000/svg" xmlns:xlink="http://www.w3.org/1999/xlink">
    <!-- Generator: Sketch 57.1 (83088) - https://sketch.com -->
    <title>190-B80px</title>
    <desc>Created with Sketch.</desc>
    <g id="190-B80px" stroke="none" stroke-width="1" fill="none" fill-rule="evenodd">
        <g>
            <path d="M30,42.5 L30,57.5 L30,60 L32.5,60 L35,60 L35,65 L22.5,65 L22.5,42.5 L30,42.5 L30,42.5 Z M30,40 L22.5,40 C21.125,40 20,41.125 20,42.5 L20,65 C20,66.375 21.125,67.5 22.5,67.5 L35,67.5 C36.375,67.5 37.5,66.375 37.5,65 L37.5,60 C37.5,58.625 36.375,57.5 35,57.5 L32.5,57.5 L32.5,42.5 C32.5,41.125 31.375,40 30,40 L30,40 Z" id="Shape" fill="#101828" fill-rule="nonzero"></path>
            <path d="M37.275,42.5 C37.4,42.5 37.5,42.6 37.5,42.725 L37.5,47.275 C37.5,47.4 37.4,47.5 37.275,47.5 L32.725,47.5 C32.6,47.5 32.5,47.4 32.5,47.275 L32.5,42.725 C32.5,42.6 32.6,42.5 32.725,42.5 L37.275,42.5 L37.275,42.5 Z M37.275,40 L32.725,40 C31.225,40 30,41.225 30,42.725 L30,47.275 C30,48.775 31.225,50 32.725,50 L37.275,50 C38.775,50 40,48.775 40,47.275 L40,42.725 C40,41.225 38.775,40 37.275,40 L37.275,40 Z" id="Shape" fill="#101828" fill-rule="nonzero"></path>
            <path d="M59.775,22.5 C59.9,22.5 60,22.6 60,22.725 L60,34.775 C60,34.9 59.9,35 59.775,35 L55.225,35 C55.1,35 55,34.9 55,34.775 L55,22.725 C55,22.6 55.1,22.5 55.225,22.5 L59.775,22.5 L59.775,22.5 Z M59.775,20 L55.225,20 C53.725,20 52.5,21.225 52.5,22.725 L52.5,34.775 C52.5,36.275 53.725,37.5 55.225,37.5 L59.775,37.5 C61.275,37.5 62.5,36.275 62.5,34.775 L62.5,22.725 C62.5,21.225 61.275,20 59.775,20 L59.775,20 Z" id="Shape" fill="#101828" fill-rule="nonzero"></path>
            <path d="M52.275,17.5 C52.4,17.5 52.5,17.6 52.5,17.725 L52.5,39.775 C52.5,39.9 52.4,40 52.275,40 L12.725,40 C12.6,40 12.5,39.9 12.5,39.775 L12.5,17.725 C12.5,17.6 12.6,17.5 12.725,17.5 L52.275,17.5 L52.275,17.5 Z M52.275,15 L12.725,15 C11.225,15 10,16.225 10,17.725 L10,39.775 C10,41.275 11.225,42.5 12.725,42.5 L52.275,42.5 C53.775,42.5 55,41.275 55,39.775 L55,17.725 C55,16.225 53.775,15 52.275,15 L52.275,15 Z" id="Shape" fill="#101828" fill-rule="nonzero"></path>
            <path d="M32.275,25 C32.4,25 32.5,25.1 32.5,25.225 L32.5,32.275 C32.5,32.4 32.4,32.5 32.275,32.5 L20.225,32.5 C20.1,32.5 20,32.4 20,32.275 L20,25.225 C20,25.1 20.1,25 20.225,25 L32.275,25 L32.275,25 Z M32.275,22.5 L20.225,22.5 C18.725,22.5 17.5,23.725 17.5,25.225 L17.5,32.275 C17.5,33.775 18.725,35 20.225,35 L32.275,35 C33.775,35 35,33.775 35,32.275 L35,25.225 C35,23.725 33.775,22.5 32.275,22.5 L32.275,22.5 Z" id="Shape" fill="#101828" fill-rule="nonzero"></path>
            <rect id="Rectangle" fill="#101828" fill-rule="nonzero" x="37.5" y="27.5" width="10" height="2.5"></rect>
            <rect id="Rectangle" fill="#101828" fill-rule="nonzero" x="62.5" y="27.5" width="7.5" height="2.5"></rect>
            <rect id="Rectangle" fill="#101828" fill-rule="nonzero" x="37.5" y="22.5" width="10" height="2.5"></rect>
            <path d="M23.75,30 C24.425,30 25,29.45 25,28.75 C25,28.05 24.45,27.5 23.75,27.5 C23.075,27.5 22.5,28.05 22.5,28.75 C22.525,29.45 23.075,30 23.75,30" id="Path" fill="#101828" fill-rule="nonzero"></path>
            <rect id="Rectangle" x="0" y="0" width="80" height="80"></rect>
        </g>
    </g>
</svg>