<?xml version="1.0" encoding="UTF-8"?>
<svg width="56px" height="56px" viewBox="0 0 56 56" version="1.1" xmlns="http://www.w3.org/2000/svg" xmlns:xlink="http://www.w3.org/1999/xlink">
    <!-- Generator: Sketch 57.1 (83088) - https://sketch.com -->
    <title>055-W56px</title>
    <desc>Created with Sketch.</desc>
    <g id="NEW_icons" stroke="none" stroke-width="1" fill="none" fill-rule="evenodd">
        <g id="icons_UD_new-Copy" transform="translate(-1814.000000, -7279.000000)">
            <g id="055-W56px" transform="translate(1814.000000, 7279.000000)">
                <g id="003-B32px-Copy-96" transform="translate(8.000000, 8.000000)">
                    <g id="Group" transform="translate(10.000000, 5.000000)" fill="#FFFFFF" fill-rule="nonzero">
                        <path d="M18.6875,0 L1.3125,0 C0.5875,0 0,0.5875 0,1.3125 L0,23.75 L0,25 L0,28.6875 C0,29.4125 0.5875,30 1.3125,30 L18.6875,30 C19.4125,30 20,29.4125 20,28.6875 L20,25 L20,23.75 L20,1.3125 C20,0.5875 19.4125,0 18.6875,0 Z M18.75,28.6875 C18.75,28.725 18.725,28.75 18.6875,28.75 L1.3125,28.75 C1.275,28.75 1.25,28.725 1.25,28.6875 L1.25,25 L18.75,25 L18.75,28.6875 Z M1.25,23.75 L1.25,1.3125 C1.25,1.275 1.275,1.25 1.3125,1.25 L18.6875,1.25 C18.725,1.25 18.75,1.275 18.75,1.3125 L18.75,23.75 L1.25,23.75 Z" id="Shape"></path>
                        <path d="M10,27.4875 C10.3375,27.4875 10.625,27.2125 10.625,26.8625 C10.625,26.525 10.35,26.2375 10,26.2375 C9.65,26.2375 9.375,26.5125 9.375,26.8625 C9.375,27.2125 9.6625,27.4875 10,27.4875 Z" id="Path"></path>
                        <path d="M12.5125,20 L7.5,20.0125 L7.5,16.25 L6.25,16.25 L6.25,20.0125 C6.25,20.6875 6.8,21.25 7.4875,21.25 L12.525,21.25 C13.2,21.25 13.7625,20.7 13.7625,20.0125 L13.7625,16.25 L12.5125,16.25 L12.5125,20 Z" id="Path"></path>
                        <polygon id="Path" points="4.775 15.575 5.5625 16.5375 10 12.875 14.4375 16.5375 15.225 15.575 10 11.2625"></polygon>
                        <path d="M12.6,7.3125 C11.925,6.65 11.0125,6.25 10,6.25 C8.9625,6.25 8.025,6.675 7.35,7.35 L8.2375,8.2375 C8.6875,7.775 9.3125,7.5 10,7.5 C10.6625,7.5 11.275,7.7625 11.7125,8.1875 L12.6,7.3125 Z" id="Path"></path>
                        <path d="M9.1125,9.1125 L9.95,9.95 L10.825,9.075 C10.6125,8.875 10.325,8.75 10,8.75 C9.65,8.75 9.3375,8.8875 9.1125,9.1125 Z" id="Path"></path>
                        <path d="M10,5 C11.35,5 12.5875,5.55 13.4875,6.425 L14.375,5.5375 C13.2375,4.4375 11.7,3.75 10,3.75 C8.275,3.75 6.7125,4.45 5.575,5.575 L6.4625,6.4625 C7.375,5.5625 8.625,5 10,5 Z" id="Path"></path>
                    </g>
                    <rect id="Rectangle" x="0" y="0" width="40" height="40"></rect>
                </g>
                <circle id="Oval-Copy-413" fill="#101828" cx="28" cy="28" r="28"></circle>
                <g id="055-B32px-Copy-7" transform="translate(8.000000, 8.000000)">
                    <path d="M19.675,12.8875 L24.35,15.5 C24.4625,15.1875 24.525,14.85 24.525,14.5125 C24.525,12.4625 22.3625,10.8125 19.6875,10.8125 C17.0125,10.8125 14.85,12.475 14.85,14.5125 C14.85,14.8375 14.9125,15.1625 15.0125,15.475 L19.675,12.8875 L19.675,12.8875 Z" id="Path" fill="#FFFFFF" fill-rule="nonzero"></path>
                    <polygon id="Path" fill="#FFFFFF" fill-rule="nonzero" points="28.025 20.675 31.775 22.9375 24.7375 31.4625"></polygon>
                    <polygon id="Path" fill="#FFFFFF" fill-rule="nonzero" points="28.2 18.7375 27.775 16.8875 35 19 30.525 21.3875 31.1375 19.45"></polygon>
                    <polygon id="Path" fill="#FFFFFF" fill-rule="nonzero" points="27.2125 15.7125 26.2625 14.3875 32.6375 12.325 31.05 17.4 30.3875 15.0625"></polygon>
                    <polygon id="Path" fill="#FFFFFF" fill-rule="nonzero" points="25.5 12.9375 24.15 11.525 25.925 9.725 23.975 8.5375 29.1375 8.5375"></polygon>
                    <polygon id="Path" fill="#FFFFFF" fill-rule="nonzero" points="11.7875 20.675 8.0375 22.9375 15.075 31.4625"></polygon>
                    <polygon id="Path" fill="#FFFFFF" fill-rule="nonzero" points="11.8 18.7375 12.225 16.8875 5 19 9.475 21.3875 8.8625 19.45"></polygon>
                    <polygon id="Path" fill="#FFFFFF" fill-rule="nonzero" points="11.95 15.7125 12.9 14.3875 6.5125 12.325 8.1 17.4 8.7625 15.0625"></polygon>
                    <polygon id="Path" fill="#FFFFFF" fill-rule="nonzero" points="13.95 12.9375 15.3 11.525 13.525 9.725 15.475 8.5375 10.3125 8.5375"></polygon>
                    <path d="M26.275,18.425 L23.6,16.8875 L22.625,19.85 L20.375,19.85 L19.5125,17.2875 L19.4875,17.2875 L18.6375,19.85 L16.3625,19.85 L15.3875,16.8875 L12.7125,18.425 C12.7125,18.425 11.7625,21.8125 15.3875,24.6 C16.7,25.6125 17.675,26.25 18.55,26.5375 L18.3375,25.8875 L20.6625,25.8875 L20.4375,26.55 C21.3125,26.275 22.2875,25.6375 23.6,24.6 C27.2,21.7875 26.275,18.425 26.275,18.425 Z M20.9125,25.075 L18.0625,25.075 L17.75,24.1375 L21.225,24.1375 L20.9125,25.075 Z M21.4875,23.3375 L17.5,23.3375 L17.1875,22.4 L21.8,22.4 L21.4875,23.3375 Z M22.0625,21.5875 L16.925,21.5875 L16.6125,20.65 L22.3625,20.65 L22.0625,21.5875 Z" id="Shape" fill="#FFFFFF" fill-rule="nonzero"></path>
                    <polygon id="Path" fill="#FFFFFF" fill-rule="nonzero" points="17.8125 18.45 17.8375 18.45 18.6875 15.9875 20.6375 15.9875 21.525 18.45 21.5625 18.45 22.125 16 19.625 14.6 17.15 16"></polygon>
                    <rect id="Rectangle" x="0" y="0" width="40" height="40"></rect>
                </g>
            </g>
        </g>
    </g>
</svg>