<?xml version="1.0" encoding="UTF-8"?>
<svg width="56px" height="56px" viewBox="0 0 56 56" version="1.1" xmlns="http://www.w3.org/2000/svg" xmlns:xlink="http://www.w3.org/1999/xlink">
    <!-- Generator: Sketch 57.1 (83088) - https://sketch.com -->
    <title>097-B56px</title>
    <desc>Created with Sketch.</desc>
    <g id="097-B56px" stroke="none" stroke-width="1" fill="none" fill-rule="evenodd">
        <g>
            <path d="M35.8925,22.75 C35.175,22.75 34.5975,23.345 34.5975,24.0625 C34.5975,24.78 35.175,25.375 35.8925,25.375 C36.61,25.375 37.1875,24.78 37.1875,24.0625 C37.1875,23.345 36.5925,22.75 35.8925,22.75 L35.8925,22.75 Z" id="Path" fill="#101828" fill-rule="nonzero"></path>
            <path d="M35.8925,18.375 C35.175,18.375 34.5975,18.97 34.5975,19.6875 C34.5975,20.405 35.175,21 35.8925,21 C36.61,21 37.1875,20.405 37.1875,19.6875 C37.1875,18.97 36.5925,18.375 35.8925,18.375 L35.8925,18.375 Z" id="Path" fill="#101828" fill-rule="nonzero"></path>
            <path d="M38.0625,20.545 C37.345,20.545 36.75,21.14 36.75,21.875 C36.75,22.61 37.345,23.205 38.0625,23.205 C38.78,23.205 39.375,22.61 39.375,21.875 C39.375,21.14 38.78,20.545 38.0625,20.545 L38.0625,20.545 Z" id="Path" fill="#101828" fill-rule="nonzero"></path>
            <path d="M33.705,20.5625 C32.9875,20.5625 32.41,21.1575 32.41,21.875 C32.41,22.61 32.9875,23.1875 33.705,23.1875 C34.4225,23.1875 35,22.61 35,21.875 C35,21.14 34.4225,20.5625 33.705,20.5625 L33.705,20.5625 Z" id="Path" fill="#101828" fill-rule="nonzero"></path>
            <path d="M45.1675,25.9 L42.56,13.6325 C42.385,12.8275 41.7025,12.25 40.8975,12.25 L29.4525,12.25 L27.125,12.25 L27.125,7 L25.375,7 L25.375,12.25 L23.0475,12.25 L11.6025,12.25 C10.7975,12.25 10.115,12.8275 9.9575,13.6325 L7.3325,25.9 C6.86,28.2625 6.7725,29.89 7.7875,32.1475 C9.03,34.93 12.04,36.75 15.05,36.75 C15.1025,36.75 15.1375,36.75 15.19,36.75 C19.5475,36.6625 23.065,33.04 23.065,28.5775 L29.4525,28.5775 C29.4525,29.96 29.82,31.2375 30.415,32.375 C30.8,31.885 31.22,31.43 31.675,31.01 C31.3775,30.2575 31.2025,29.435 31.2025,28.5775 L31.2025,26.8275 L29.4525,26.8275 L23.065,26.8275 L21.315,26.8275 L21.315,28.5775 C21.315,32.06 18.55,34.93 15.1725,35 L15.05,35 C12.6525,35 10.325,33.53 9.3975,31.43 C8.5925,29.61 8.6275,28.42 9.065,26.2675 L11.6025,14 L23.0475,14 L29.47,14 L40.845,14 L43.4525,26.25 C43.6625,27.3 43.7675,28.105 43.75,28.875 C44.345,29.12 44.905,29.4175 45.43,29.75 C45.5875,28.5425 45.4475,27.37 45.1675,25.9 Z" id="Path" fill="#101828" fill-rule="nonzero"></path>
            <polygon id="Path" fill="#101828" fill-rule="nonzero" points="40.25 39.515 40.25 35 38.5 35 38.5 40.25 38.5175 40.25 42 43.7325 43.225 42.49"></polygon>
            <path d="M39.375,31.5175 C43.715,31.5175 47.25,35.0525 47.25,39.3925 C47.25,43.7325 43.715,47.2675 39.375,47.2675 C35.035,47.2675 31.5,43.7325 31.5,39.3925 C31.5,35.0525 35.035,31.5175 39.375,31.5175 L39.375,31.5175 Z M39.375,29.7675 C34.055,29.7675 29.75,34.0725 29.75,39.3925 C29.75,44.7125 34.055,49.0175 39.375,49.0175 C44.695,49.0175 49,44.7125 49,39.3925 C49,34.09 44.695,29.7675 39.375,29.7675 L39.375,29.7675 Z" id="Shape" fill="#101828" fill-rule="nonzero"></path>
            <polygon id="Path" fill="#101828" fill-rule="nonzero" points="20.09 21 17.5 21 17.5 18.305 15.75 18.305 15.75 21 13.0725 21 13.0725 22.75 15.75 22.75 15.75 25.3225 17.5 25.3225 17.5 22.75 20.09 22.75"></polygon>
            <rect id="Rectangle" x="0" y="0" width="56" height="56"></rect>
        </g>
    </g>
</svg>