<?xml version="1.0" encoding="UTF-8"?>
<svg width="56px" height="56px" viewBox="0 0 56 56" version="1.1" xmlns="http://www.w3.org/2000/svg" xmlns:xlink="http://www.w3.org/1999/xlink">
    <!-- Generator: Sketch 57.1 (83088) - https://sketch.com -->
    <title>095-W56px</title>
    <desc>Created with Sketch.</desc>
    <g id="NEW_icons" stroke="none" stroke-width="1" fill="none" fill-rule="evenodd">
        <g id="icons_UD_new-Copy" transform="translate(-1814.000000, -12301.000000)">
            <g id="095-W56px" transform="translate(1814.000000, 12301.000000)">
                <g id="003-B32px-Copy-129" transform="translate(8.000000, 8.000000)">
                    <g id="Group" transform="translate(10.000000, 5.000000)" fill="#FFFFFF" fill-rule="nonzero">
                        <path d="M18.6875,0 L1.3125,0 C0.5875,0 0,0.5875 0,1.3125 L0,23.75 L0,25 L0,28.6875 C0,29.4125 0.5875,30 1.3125,30 L18.6875,30 C19.4125,30 20,29.4125 20,28.6875 L20,25 L20,23.75 L20,1.3125 C20,0.5875 19.4125,0 18.6875,0 Z M18.75,28.6875 C18.75,28.725 18.725,28.75 18.6875,28.75 L1.3125,28.75 C1.275,28.75 1.25,28.725 1.25,28.6875 L1.25,25 L18.75,25 L18.75,28.6875 Z M1.25,23.75 L1.25,1.3125 C1.25,1.275 1.275,1.25 1.3125,1.25 L18.6875,1.25 C18.725,1.25 18.75,1.275 18.75,1.3125 L18.75,23.75 L1.25,23.75 Z" id="Shape"></path>
                        <path d="M10,27.4875 C10.3375,27.4875 10.625,27.2125 10.625,26.8625 C10.625,26.525 10.35,26.2375 10,26.2375 C9.65,26.2375 9.375,26.5125 9.375,26.8625 C9.375,27.2125 9.6625,27.4875 10,27.4875 Z" id="Path"></path>
                        <path d="M12.5125,20 L7.5,20.0125 L7.5,16.25 L6.25,16.25 L6.25,20.0125 C6.25,20.6875 6.8,21.25 7.4875,21.25 L12.525,21.25 C13.2,21.25 13.7625,20.7 13.7625,20.0125 L13.7625,16.25 L12.5125,16.25 L12.5125,20 Z" id="Path"></path>
                        <polygon id="Path" points="4.775 15.575 5.5625 16.5375 10 12.875 14.4375 16.5375 15.225 15.575 10 11.2625"></polygon>
                        <path d="M12.6,7.3125 C11.925,6.65 11.0125,6.25 10,6.25 C8.9625,6.25 8.025,6.675 7.35,7.35 L8.2375,8.2375 C8.6875,7.775 9.3125,7.5 10,7.5 C10.6625,7.5 11.275,7.7625 11.7125,8.1875 L12.6,7.3125 Z" id="Path"></path>
                        <path d="M9.1125,9.1125 L9.95,9.95 L10.825,9.075 C10.6125,8.875 10.325,8.75 10,8.75 C9.65,8.75 9.3375,8.8875 9.1125,9.1125 Z" id="Path"></path>
                        <path d="M10,5 C11.35,5 12.5875,5.55 13.4875,6.425 L14.375,5.5375 C13.2375,4.4375 11.7,3.75 10,3.75 C8.275,3.75 6.7125,4.45 5.575,5.575 L6.4625,6.4625 C7.375,5.5625 8.625,5 10,5 Z" id="Path"></path>
                    </g>
                    <rect id="Rectangle" x="0" y="0" width="40" height="40"></rect>
                </g>
                <circle id="Oval-Copy-682" fill="#101828" cx="28" cy="28" r="28"></circle>
                <g id="095-B32px-Copy-6" transform="translate(8.000000, 8.000000)">
                    <path d="M30,17.5 L30,18.75 L30,18.75 L30.0125,33.75 L10,33.775 L10,20 L10,18.75 L10,17.5 L8.75,17.5 L8.75,33.7625 C8.75,34.45 9.3,35 9.9875,35 L30.025,35 C30.7,35 31.2625,34.45 31.2625,33.7625 L31.2625,17.5 L30,17.5 Z" id="Path" fill="#FFFFFF" fill-rule="nonzero"></path>
                    <polygon id="Path" fill="#FFFFFF" fill-rule="nonzero" points="33.975 18.2 20 6.65 6.025 18.2 5.225 17.2375 20 5.025 34.775 17.2375"></polygon>
                    <path d="M20,23.75 C21.375,23.75 22.5,24.875 22.5,26.25 C22.5,27.625 21.375,28.75 20,28.75 C18.625,28.75 17.5,27.625 17.5,26.25 C17.5,24.875 18.625,23.75 20,23.75 L20,23.75 Z M20,22.5 C17.925,22.5 16.25,24.175 16.25,26.25 C16.25,28.325 17.925,30 20,30 C22.075,30 23.75,28.325 23.75,26.25 C23.75,24.1875 22.075,22.5 20,22.5 L20,22.5 Z" id="Shape" fill="#FFFFFF" fill-rule="nonzero"></path>
                    <path d="M20,18.75 C21.0375,18.75 21.875,19.5875 21.875,20.625 C21.875,21.6625 21.0375,22.5 20,22.5 C18.9625,22.5 18.125,21.6625 18.125,20.625 C18.125,19.5875 18.9625,18.75 20,18.75 L20,18.75 Z M20,17.5 C18.275,17.5 16.875,18.9 16.875,20.625 C16.875,22.35 18.275,23.75 20,23.75 C21.725,23.75 23.125,22.35 23.125,20.625 C23.125,18.9 21.725,17.5 20,17.5 L20,17.5 Z" id="Shape" fill="#FFFFFF" fill-rule="nonzero"></path>
                    <rect id="Rectangle" x="0" y="0" width="40" height="40"></rect>
                </g>
            </g>
        </g>
    </g>
</svg>