<?xml version="1.0" encoding="UTF-8"?>
<svg width="56px" height="56px" viewBox="0 0 56 56" version="1.1" xmlns="http://www.w3.org/2000/svg" xmlns:xlink="http://www.w3.org/1999/xlink">
    <!-- Generator: Sketch 57.1 (83088) - https://sketch.com -->
    <title>180-W56px</title>
    <desc>Created with Sketch.</desc>
    <g id="NEW_icons" stroke="none" stroke-width="1" fill="none" fill-rule="evenodd">
        <g id="icons_UD_new-Copy" transform="translate(-532.000000, -23101.000000)">
            <g id="180-W56px" transform="translate(532.000000, 23101.000000)">
                <circle id="Oval-Copy-777" fill="#101828" cx="28" cy="28" r="28"></circle>
                <g id="180-B32px-Copy-4" transform="translate(8.000000, 8.000000)">
                    <path d="M32.5,21.25 L32.5,25 L30,25 L30,21.25 L32.5,21.25 L32.5,21.25 Z M33.75,20 L28.75,20 L28.75,26.25 L32.55,26.25 C33.2125,26.25 33.75,25.7125 33.75,25.05 L33.75,20 L33.75,20 Z" id="Shape" fill="#FFFFFF" fill-rule="nonzero"></path>
                    <path d="M32.5,16.25 L32.5,20 L30,20 L30,16.25 L32.5,16.25 L32.5,16.25 Z M33.75,15 L28.75,15 L28.75,21.25 L32.55,21.25 C33.2125,21.25 33.75,20.7125 33.75,20.05 L33.75,15 L33.75,15 Z" id="Shape" fill="#FFFFFF" fill-rule="nonzero"></path>
                    <path d="M32.5,11.25 L32.5,15 L30,15 L30,11.25 L32.5,11.25 L32.5,11.25 Z M33.75,10 L28.75,10 L28.75,16.25 L32.55,16.25 C33.2125,16.25 33.75,15.7125 33.75,15.05 L33.75,10 L33.75,10 Z" id="Shape" fill="#FFFFFF" fill-rule="nonzero"></path>
                    <path d="M32.5,6.25 L32.525,10 L30,10 L30,6.25 L32.5,6.25 L32.5,6.25 Z M32.55,5 L28.75,5 L28.75,11.25 L32.525,11.25 C33.2,11.25 33.75,10.7 33.75,10.025 L33.75,6.2 C33.75,5.5375 33.2125,5 32.55,5 L32.55,5 Z" id="Shape" fill="#FFFFFF" fill-rule="nonzero"></path>
                    <path d="M28.75,6.25 L28.75,33.75 L7.5,33.75 L7.5,6.25 L28.75,6.25 L28.75,6.25 Z M30,5 L7.5,5 C6.8125,5 6.25,5.5625 6.25,6.25 L6.25,33.75 C6.25,34.4375 6.8125,35 7.5,35 L28.75,35 C29.4375,35 30,34.4375 30,33.75 L30,5 L30,5 Z" id="Shape" fill="#FFFFFF" fill-rule="nonzero"></path>
                    <path d="M11.875,21.25 C10.8375,21.25 10,20.4125 10,19.375 C10,18.3375 10.8375,17.5 11.875,17.5 C12.9125,17.5 13.75,18.3375 13.75,19.375 C13.75,20.4125 12.9125,21.25 11.875,21.25 Z M11.875,18.75 C11.525,18.75 11.25,19.025 11.25,19.375 C11.25,19.725 11.525,20 11.875,20 C12.225,20 12.5,19.725 12.5,19.375 C12.5,19.025 12.225,18.75 11.875,18.75 Z" id="Shape" fill="#FFFFFF" fill-rule="nonzero"></path>
                    <path d="M11.875,18.75 C10.8375,18.75 10,17.9125 10,16.875 C10,15.8375 10.8375,15 11.875,15 C12.9125,15 13.75,15.8375 13.75,16.875 C13.75,17.9125 12.9125,18.75 11.875,18.75 Z M11.875,16.25 C11.525,16.25 11.25,16.525 11.25,16.875 C11.25,17.225 11.525,17.5 11.875,17.5 C12.225,17.5 12.5,17.225 12.5,16.875 C12.5,16.525 12.225,16.25 11.875,16.25 Z" id="Shape" fill="#FFFFFF" fill-rule="nonzero"></path>
                    <path d="M17.5,16.25 C18.1875,16.25 18.75,16.8125 18.75,17.5 L18.75,18.75 C18.75,19.4375 18.1875,20 17.5,20 C16.8125,20 16.25,19.4375 16.25,18.75 L16.25,17.5 C16.25,16.8125 16.8125,16.25 17.5,16.25 L17.5,16.25 Z M17.5,15 C16.125,15 15,16.125 15,17.5 L15,18.75 C15,20.125 16.125,21.25 17.5,21.25 C18.875,21.25 20,20.125 20,18.75 L20,17.5 C20,16.125 18.875,15 17.5,15 L17.5,15 Z" id="Shape" fill="#FFFFFF" fill-rule="nonzero"></path>
                    <path d="M23.75,16.25 C24.4375,16.25 25,16.8125 25,17.5 L25,18.75 C25,19.4375 24.4375,20 23.75,20 C23.0625,20 22.5,19.4375 22.5,18.75 L22.5,17.5 C22.5,16.8125 23.0625,16.25 23.75,16.25 L23.75,16.25 Z M23.75,15 C22.375,15 21.25,16.125 21.25,17.5 L21.25,18.75 C21.25,20.125 22.375,21.25 23.75,21.25 C25.125,21.25 26.25,20.125 26.25,18.75 L26.25,17.5 C26.25,16.125 25.125,15 23.75,15 L23.75,15 Z" id="Shape" fill="#FFFFFF" fill-rule="nonzero"></path>
                    <rect id="Rectangle" x="0" y="0" width="40" height="40"></rect>
                </g>
            </g>
        </g>
    </g>
</svg>