<?xml version="1.0" encoding="UTF-8"?>
<svg width="80px" height="80px" viewBox="0 0 80 80" version="1.1" xmlns="http://www.w3.org/2000/svg" xmlns:xlink="http://www.w3.org/1999/xlink">
    <!-- Generator: Sketch 57.1 (83088) - https://sketch.com -->
    <title>124-W80px</title>
    <desc>Created with Sketch.</desc>
    <g id="NEW_icons" stroke="none" stroke-width="1" fill="none" fill-rule="evenodd">
        <g id="icons_UD_new-Copy" transform="translate(-869.000000, -16040.000000)">
            <g id="124-W80px" transform="translate(869.000000, 16040.000000)">
                <circle id="Oval-Copy-841" fill="#101828" cx="40" cy="40" r="40"></circle>
                <g id="124-B32px-Copy-8" transform="translate(12.000000, 16.000000)">
                    <rect id="Rectangle" fill="#FFFFFF" fill-rule="nonzero" x="19.25" y="26.2675" width="17.5" height="1.75"></rect>
                    <polygon id="Path" fill="#FFFFFF" fill-rule="nonzero" points="25.375 31.535 25.375 33.2675 28.5775 33.285 25.375 40.2675 27.44 40.2675 30.6075 33.1975 30.625 31.5175"></polygon>
                    <path d="M33.25,14.035 L31.5,14.035 L28,19.285 L28,19.67 L28,21.0525 L31.5,21.035 L31.5,22.7675 L33.25,22.785 L33.25,21.035 L35,21.0525 L35,19.285 L33.25,19.285 L33.25,14.035 Z M29.96,19.285 L31.5,17.01 L31.5,19.285 L29.96,19.285 L29.96,19.285 Z" id="Shape" fill="#FFFFFF" fill-rule="nonzero"></path>
                    <path d="M25.34,19.4775 C26.4425,18.375 26.7925,17.6575 26.7925,16.5375 C26.7925,14.98 25.6725,13.9825 23.94,13.9825 C22.0325,13.9825 21,15.33 21,16.6075 C21,16.8875 21.035,17.1325 21.0875,17.395 L21.1225,17.535 L22.925,17.395 L22.89,17.22 C22.855,17.045 22.8375,16.905 22.8375,16.6775 C22.8375,16.0475 23.2575,15.6625 23.94,15.6625 C24.5875,15.6625 25.0075,16.065 25.0075,16.695 C25.0075,17.2025 24.7975,17.5875 24.115,18.2875 L21,21.455 L21,22.8025 L26.775,22.8025 L26.775,21.035 L23.8,21.035 L25.34,19.4775 Z" id="Path" fill="#FFFFFF" fill-rule="nonzero"></path>
                    <path d="M47.25,8.75 L47.25,12.25 C47.25,17.7275 46.1125,25.8825 44.2225,30.065 C41.615,35.805 36.715,43.365 28,47.11 C19.285,43.365 14.3675,35.805 11.7775,30.065 C9.8875,25.8825 8.75,17.71 8.75,12.25 L8.75,8.75 L47.25,8.75 L47.25,8.75 Z M49,7 L7,7 L7,12.25 C7,17.43 8.05,26.0575 10.185,30.7825 C13.1075,37.24 18.48,45.185 28,49 C37.52,45.185 42.8925,37.24 45.815,30.7825 C47.95,26.0575 49,17.43 49,12.25 L49,7 L49,7 Z" id="Shape" fill="#FFFFFF" fill-rule="nonzero"></path>
                    <rect id="Rectangle" x="0" y="0" width="56" height="56"></rect>
                </g>
            </g>
        </g>
    </g>
</svg>