<?xml version="1.0" encoding="UTF-8"?>
<svg width="42px" height="42px" viewBox="0 0 42 42" version="1.1" xmlns="http://www.w3.org/2000/svg" xmlns:xlink="http://www.w3.org/1999/xlink">
    <!-- Generator: Sketch 57.1 (83088) - https://sketch.com -->
    <title>139-G40px</title>
    <desc>Created with Sketch.</desc>
    <g id="NEW_icons" stroke="none" stroke-width="1" fill="none" fill-rule="evenodd">
        <g id="icons_UD_new-Copy" transform="translate(-1526.000000, -17837.000000)">
            <g id="139-G40px" transform="translate(1527.000000, 17838.000000)">
                <circle id="Oval-Copy-1105" stroke="#E3E8EC" cx="20" cy="20" r="20"></circle>
                <g id="139-B32px-Copy" transform="translate(4.000000, 4.000000)">
                    <g id="Group" transform="translate(5.000000, 4.000000)" fill="#101828" fill-rule="nonzero">
                        <path d="M4.25,19.5 C2.98,19.5 1.94,20.51 1.94,21.75 C1.94,22.99 2.97,24 4.25,24 C5.52,24 6.56,22.99 6.56,21.75 C6.56,20.51 5.52,19.5 4.25,19.5 Z" id="Path"></path>
                        <path d="M17.53,19.5 C16.26,19.5 15.22,20.51 15.22,21.75 C15.22,22.99 16.26,24 17.53,24 C18.8,24 19.84,22.99 19.84,21.75 C19.84,20.51 18.8,19.5 17.53,19.5 Z" id="Path"></path>
                        <path d="M21.25,9.74 L20.25,9.74 L12.16,9.74 L13.79,0.2 C13.78,0.1 13.72,0.02 13.62,0 C13.61,0 13.58,0 13.58,0 L13.08,0 L12.39,0 L12.1,0 C5.49,0 1.29,3.88 0.79,8.86 C0.33,13.37 3.1,17.5 7.2,19.08 C8.45,19.65 9.83,19.97 11.29,19.97 C16.77,19.97 21.21,15.55 21.25,10.08 C21.25,10.07 21.25,10.07 21.25,10.06 L21.25,9.75 L21.25,9.75 L21.25,9.74 Z M17.26,16.66 C17.26,16.66 14.99,18.81 12.77,17.53 C10.86,16.43 11.66,12.19 11.92,11.03 L11.99,10.73 L20.21,10.73 C19.83,14.71 17.26,16.66 17.26,16.66 Z" id="Shape"></path>
                    </g>
                    <rect id="Rectangle" x="0" y="0" width="32" height="32"></rect>
                </g>
            </g>
        </g>
    </g>
</svg>