<?xml version="1.0" encoding="UTF-8"?>
<svg width="80px" height="80px" viewBox="0 0 80 80" version="1.1" xmlns="http://www.w3.org/2000/svg" xmlns:xlink="http://www.w3.org/1999/xlink">
    <!-- Generator: Sketch 57.1 (83088) - https://sketch.com -->
    <title>058-C80px</title>
    <desc>Created with Sketch.</desc>
    <g id="NEW_icons" stroke="none" stroke-width="1" fill="none" fill-rule="evenodd">
        <g id="icons_UD_new-Copy" transform="translate(-1002.000000, -7611.000000)">
            <g id="058-C80px" transform="translate(1002.000000, 7611.000000)">
                <circle id="Oval-Copy-419" fill="#FF4F12" cx="40" cy="40" r="40"></circle>
                <g id="058-B32px-Copy-9" transform="translate(12.000000, 12.000000)">
                    <path d="M27.1425,12.25 L27.1775,14 C31.08,14.0175 34.545,16.52 36.05,20.3875 L36.5225,21.6125 L37.835,21.5075 C38.0625,21.49 38.29,21.4725 38.535,21.4725 C40.845,21.4725 43.0325,22.4525 44.6775,24.2025 C46.34,25.9875 47.25,28.35 47.25,30.8875 C47.2325,36.05 43.3125,40.25 38.465,40.25 L18.2525,40.1975 L18.2525,40.1975 L16.625,40.1975 L16.5375,40.1975 L16.5375,40.1975 C12.215,40.145 8.7325,36.3475 8.74993433,31.71 C8.7675,27.23 12.04,23.5375 16.1875,23.2925 L17.5,23.2225 L17.78,21.9275 C18.8475,17.255 22.68,14 27.1425,14 L27.1425,12.25 L27.1425,12.25 Z M27.1425,12.25 C21.77,12.25 17.2725,16.205 16.0825,21.525 C11.0425,21.8225 7.0175,26.25 6.99994662,31.6925 C6.9825,37.3275 11.27,41.9125 16.59,41.93 C16.59,41.93 16.59,41.93 16.59,41.93 C16.6075,41.93 16.6075,41.93 16.625,41.93 C16.625,41.93 16.625,41.93 16.625,41.93 L16.625,41.93 L38.465,42 C38.4825,42 38.4825,42 38.5,42 C44.2925,42 48.9825,37.03 49.0000488,30.8875 C49.0175,24.7275 44.3275,19.7225 38.535,19.705 C38.535,19.705 38.5175,19.705 38.5175,19.705 C38.2375,19.705 37.9575,19.7225 37.6775,19.74 C35.98,15.3475 31.9375,12.25 27.1775,12.2325 C27.1775,12.25 27.16,12.25 27.1425,12.25 L27.1425,12.25 Z" id="Shape" fill="#FFFFFF" fill-rule="nonzero"></path>
                    <path d="M32.62,34.9475 C31.5,34.9475 30.45,34.4925 29.68,33.635 L28,31.85 L26.3375,33.635 C24.7625,35.315 22.015,35.315 20.44,33.635 C18.865,31.9375 18.865,29.19 20.44,27.4925 C22.015,25.8125 24.7625,25.8125 26.3375,27.4925 L28,29.2775 L29.6625,27.4925 C31.2375,25.8125 33.985,25.8125 35.56,27.4925 C37.135,29.19 37.135,31.9375 35.56,33.635 C34.7725,34.4925 33.7225,34.9475 32.62,34.9475 Z M29.19,30.5725 L30.94,32.4625 C31.8325,33.425 33.3725,33.425 34.265,32.4625 C35.2275,31.43 35.2275,29.7325 34.265,28.7 C33.3725,27.7375 31.8325,27.7375 30.94,28.7 L29.19,30.5725 Z M23.38,27.9475 C22.75,27.9475 22.155,28.21 21.7175,28.7 C20.755,29.7325 20.755,31.43 21.7175,32.4625 C22.61,33.425 24.15,33.425 25.0425,32.4625 L26.7925,30.5725 L25.0425,28.7 C24.605,28.21 24.01,27.9475 23.38,27.9475 Z" id="Shape" fill="#FFFFFF" fill-rule="nonzero"></path>
                    <rect id="Rectangle" x="0" y="0" width="56" height="56"></rect>
                </g>
            </g>
        </g>
    </g>
</svg>