<?xml version="1.0" encoding="UTF-8"?>
<svg width="40px" height="40px" viewBox="0 0 40 40" version="1.1" xmlns="http://www.w3.org/2000/svg" xmlns:xlink="http://www.w3.org/1999/xlink">
    <!-- Generator: Sketch 57.1 (83088) - https://sketch.com -->
    <title>169-B40px</title>
    <desc>Created with Sketch.</desc>
    <g id="169-B40px" stroke="none" stroke-width="1" fill="none" fill-rule="evenodd">
        <g>
            <path d="M33.725,11.25 L6.275,11.25 C5.575,11.25 5,11.8125 5,12.525 L5,26.25 C5,26.95 5.575,27.525 6.275,27.525 L17.0125,27.525 C13.125,27.75 10.2125,28.3375 8.75,28.7 L8.75,30 C10.1,29.65 13.4125,28.9125 17.925,28.725 C17.65,27.95 17.5,27.125 17.5,26.2625 L6.25,26.25 L6.275,12.5 L33.725,12.5 L33.75,12.525 L33.725,26.275 L32.5,26.275 C32.5,26.7 32.45,27.1125 32.3875,27.525 L33.725,27.525 C34.425,27.525 35,26.95 35,26.25 L35,12.525 C35,11.8125 34.425,11.25 33.725,11.25 Z" id="Path" fill="#101828" fill-rule="nonzero"></path>
            <g id="Group" transform="translate(18.750000, 20.000000)" fill="#101828" fill-rule="nonzero">
                <path d="M6.25,1.2625 C9,1.2625 11.25,3.5 11.25,6.2625 C11.25,9.0125 9.0125,11.2625 6.25,11.2625 C3.4875,11.2625 1.25,9.025 1.25,6.2625 C1.25,3.5 3.5,1.2625 6.25,1.2625 L6.25,1.2625 Z M6.25,0.0125 C2.8,0.0125 0,2.8125 0,6.2625 C0,9.7125 2.8,12.5125 6.25,12.5125 C9.7,12.5125 12.5,9.7125 12.5,6.2625 C12.5,2.8 9.7,0.0125 6.25,0.0125 L6.25,0.0125 Z" id="Shape"></path>
                <path d="M8.575,9.2375 L3.925,9.2375 L2.7625,5.05 L6.25,2.2625 L9.7375,5.05 L8.575,9.2375 Z M4.875,7.9875 L7.625,7.9875 L8.3125,5.5125 L6.25,3.8625 L4.1875,5.5125 L4.875,7.9875 Z" id="Shape"></path>
                <rect id="Rectangle" x="5.625" y="0.125" width="1.25" height="2.9375"></rect>
                <polygon id="Rectangle" transform="translate(3.271605, 9.713582) rotate(-44.521939) translate(-3.271605, -9.713582) " points="1.69656528 9.08856674 4.84664472 9.08856674 4.84664472 10.3385983 1.69656528 10.3385983"></polygon>
                <polygon id="Rectangle" transform="translate(9.154090, 9.719132) rotate(-43.456221) translate(-9.154090, -9.719132) " points="8.52909011 8.19413277 9.77908989 8.19413277 9.77908989 11.2441322 8.52909011 11.2441322"></polygon>
                <polygon id="Path" points="3.2375 5.8625 0.4625 4.7375 0.9375 3.575 3.7125 4.7"></polygon>
                <polygon id="Rectangle" transform="translate(10.513669, 4.685626) rotate(-21.801409) translate(-10.513669, -4.685626) " points="8.91362858 4.06061056 12.1137089 4.06061056 12.1137089 5.31064194 8.91362858 5.31064194"></polygon>
            </g>
            <rect id="Rectangle" x="0" y="0" width="40" height="40"></rect>
        </g>
    </g>
</svg>