<?xml version="1.0" encoding="UTF-8"?>
<svg width="42px" height="42px" viewBox="0 0 42 42" version="1.1" xmlns="http://www.w3.org/2000/svg" xmlns:xlink="http://www.w3.org/1999/xlink">
    <!-- Generator: Sketch 54.1 (76490) - https://sketchapp.com -->
    <title>051-G40px</title>
    <desc>Created with Sketch.</desc>
    <g id="NEW_icons" stroke="none" stroke-width="1" fill="none" fill-rule="evenodd">
        <g id="icons_UD_new-Copy" transform="translate(-1526.000000, -6641.000000)">
            <g id="051-G40px" transform="translate(1527.000000, 6642.000000)">
                <circle id="Oval-Copy-388" stroke="#E3E8EC" cx="20" cy="20" r="20"></circle>
                <g id="051-B32px-Copy-4" transform="translate(4.000000, 4.000000)">
                    <path d="M10.97,8.5 C11.24,8.5 11.47,8.28 11.47,8 C11.47,7.73 11.25,7.5 10.97,7.5 C10.69,7.5 10.47,7.72 10.47,8 C10.47,8.28 10.7,8.5 10.97,8.5" id="Path" fill="#101828" fill-rule="nonzero"></path>
                    <path d="M6.99,8.5 C7.26,8.5 7.49,8.28 7.49,8 C7.49,7.73 7.27,7.5 6.99,7.5 C6.72,7.5 6.5,7.73 6.5,8 C6.5,8.28 6.72,8.5 6.99,8.5" id="Path" fill="#101828" fill-rule="nonzero"></path>
                    <path d="M8.99,8.5 C9.26,8.5 9.49,8.28 9.49,8 C9.49,7.73 9.27,7.5 8.99,7.5 C8.72,7.5 8.5,7.73 8.5,8 C8.5,8.28 8.72,8.5 8.99,8.5" id="Path" fill="#101828" fill-rule="nonzero"></path>
                    <rect id="Rectangle" fill="#101828" fill-rule="nonzero" x="5" y="9" width="22" height="1"></rect>
                    <path d="M27,6 L5,6 C4.45,6 4,6.45 4,7 L4,22 C4,22.55 4.45,23 5,23 L10.01,23 C9.77,22.68 9.56,22.35 9.37,22 L5,22 L5,7 L27,7 L27,22 L22.63,22 C22.44,22.35 22.23,22.68 21.99,23 L27,23 C27.55,23 28,22.55 28,22 L28,7 C28,6.45 27.55,6 27,6 Z" id="Path" fill="#101828" fill-rule="nonzero"></path>
                    <path d="M16,13 C19.03,13 21.5,15.47 21.5,18.5 C21.5,21.53 19.03,24 16,24 C12.97,24 10.5,21.53 10.5,18.5 C10.5,15.47 12.97,13 16,13 L16,13 Z M16,12 C12.41,12 9.5,14.91 9.5,18.5 C9.5,22.09 12.41,25 16,25 C19.59,25 22.5,22.09 22.5,18.5 C22.5,14.91 19.59,12 16,12 L16,12 Z" id="Shape" fill="#101828" fill-rule="nonzero"></path>
                    <path d="M19,18 L19,19 L13,19 L13,18 L19,18 L19,18 Z M20,17 L12,17 L12,20 L20,20 L20,17 L20,17 Z" id="Shape" fill="#101828" fill-rule="nonzero"></path>
                    <rect id="Rectangle" x="0" y="0" width="32" height="32"></rect>
                </g>
            </g>
        </g>
    </g>
</svg>