<?xml version="1.0" encoding="UTF-8"?>
<svg width="32px" height="32px" viewBox="0 0 32 32" version="1.1" xmlns="http://www.w3.org/2000/svg" xmlns:xlink="http://www.w3.org/1999/xlink">
    <!-- Generator: Sketch 57.1 (83088) - https://sketch.com -->
    <title>180-B32px</title>
    <desc>Created with Sketch.</desc>
    <g id="180-B32px" stroke="none" stroke-width="1" fill="none" fill-rule="evenodd">
        <g>
            <path d="M26,17 L26,20 L24,20 L24,17 L26,17 L26,17 Z M27,16 L23,16 L23,21 L26.04,21 C26.57,21 27,20.57 27,20.04 L27,16 L27,16 Z" id="Shape" fill="#101828" fill-rule="nonzero"></path>
            <path d="M26,13 L26,16 L24,16 L24,13 L26,13 L26,13 Z M27,12 L23,12 L23,17 L26.04,17 C26.57,17 27,16.57 27,16.04 L27,12 L27,12 Z" id="Shape" fill="#101828" fill-rule="nonzero"></path>
            <path d="M26,9 L26,12 L24,12 L24,9 L26,9 L26,9 Z M27,8 L23,8 L23,13 L26.04,13 C26.57,13 27,12.57 27,12.04 L27,8 L27,8 Z" id="Shape" fill="#101828" fill-rule="nonzero"></path>
            <path d="M26,5 L26.02,8 L24,8 L24,5 L26,5 L26,5 Z M26.04,4 L23,4 L23,9 L26.02,9 C26.56,9 27,8.56 27,8.02 L27,4.96 C27,4.43 26.57,4 26.04,4 L26.04,4 Z" id="Shape" fill="#101828" fill-rule="nonzero"></path>
            <path d="M23,5 L23,27 L6,27 L6,5 L23,5 L23,5 Z M24,4 L6,4 C5.45,4 5,4.45 5,5 L5,27 C5,27.55 5.45,28 6,28 L23,28 C23.55,28 24,27.55 24,27 L24,4 L24,4 Z" id="Shape" fill="#101828" fill-rule="nonzero"></path>
            <path d="M9.5,17 C8.67,17 8,16.33 8,15.5 C8,14.67 8.67,14 9.5,14 C10.33,14 11,14.67 11,15.5 C11,16.33 10.33,17 9.5,17 Z M9.5,15 C9.22,15 9,15.22 9,15.5 C9,15.78 9.22,16 9.5,16 C9.78,16 10,15.78 10,15.5 C10,15.22 9.78,15 9.5,15 Z" id="Shape" fill="#101828" fill-rule="nonzero"></path>
            <path d="M9.5,15 C8.67,15 8,14.33 8,13.5 C8,12.67 8.67,12 9.5,12 C10.33,12 11,12.67 11,13.5 C11,14.33 10.33,15 9.5,15 Z M9.5,13 C9.22,13 9,13.22 9,13.5 C9,13.78 9.22,14 9.5,14 C9.78,14 10,13.78 10,13.5 C10,13.22 9.78,13 9.5,13 Z" id="Shape" fill="#101828" fill-rule="nonzero"></path>
            <path d="M14,13 C14.55,13 15,13.45 15,14 L15,15 C15,15.55 14.55,16 14,16 C13.45,16 13,15.55 13,15 L13,14 C13,13.45 13.45,13 14,13 L14,13 Z M14,12 C12.9,12 12,12.9 12,14 L12,15 C12,16.1 12.9,17 14,17 C15.1,17 16,16.1 16,15 L16,14 C16,12.9 15.1,12 14,12 L14,12 Z" id="Shape" fill="#101828" fill-rule="nonzero"></path>
            <path d="M19,13 C19.55,13 20,13.45 20,14 L20,15 C20,15.55 19.55,16 19,16 C18.45,16 18,15.55 18,15 L18,14 C18,13.45 18.45,13 19,13 L19,13 Z M19,12 C17.9,12 17,12.9 17,14 L17,15 C17,16.1 17.9,17 19,17 C20.1,17 21,16.1 21,15 L21,14 C21,12.9 20.1,12 19,12 L19,12 Z" id="Shape" fill="#101828" fill-rule="nonzero"></path>
            <rect id="Rectangle" x="0" y="0" width="32" height="32"></rect>
        </g>
    </g>
</svg>