<?xml version="1.0" encoding="UTF-8"?>
<svg width="80px" height="80px" viewBox="0 0 80 80" version="1.1" xmlns="http://www.w3.org/2000/svg" xmlns:xlink="http://www.w3.org/1999/xlink">
    <!-- Generator: Sketch 57.1 (83088) - https://sketch.com -->
    <title>047-B80px</title>
    <desc>Created with Sketch.</desc>
    <g id="047-B80px" stroke="none" stroke-width="1" fill="none" fill-rule="evenodd">
        <g>
            <path d="M55.475,43.075 L55.475,36.975 L59.175,40.025 C57.95,41.05 56.725,42.05 55.475,43.075 M40,59.225 C38.975,57.975 37.975,56.75 36.95,55.525 L43.05,55.525 C42.025,56.75 41.025,57.975 40,59.225 M40,20.925 C41.025,22.175 42.025,23.4 43.05,24.625 L36.95,24.625 C37.975,23.4 38.975,22.175 40,20.925 M24.625,43.075 C23.375,42.05 22.15,41.05 20.925,40.025 C22.15,39 23.375,38 24.625,36.975 M62.5,39.925 C62.475,38.525 62.275,37.125 61.85,35.775 C61.65,35.15 61.45,34.5 61.15,33.925 C60.85,33.375 60.425,32.925 59.825,32.675 C59.425,32.525 59.025,32.5 58.6,32.5 C56.95,32.5 55.3,32.5 53.65,32.5 C52.325,32.5 51,32.5 49.675,32.5 C49.35,32.5 49,32.45 48.7,32.375 C48,32.2 47.6,31.725 47.525,31 C47.5,30.775 47.5,30.55 47.5,30.3 C47.5,27.325 47.525,24.35 47.525,21.35 C47.525,20.675 47.375,20.05 46.95,19.5 C46.6,19.05 46.15,18.75 45.65,18.525 C44.85,18.15 44,17.95 43.125,17.775 C41.7,17.5 40.25,17.45 38.8,17.525 C37.875,17.6 36.925,17.7 36.025,17.9 C35.675,17.95 35.35,18.125 35.05,18.3 C34.125,18.825 33.3,19.475 32.475,20.125 C30.875,21.425 29.35,22.85 27.85,24.3 C25.65,26.425 23.55,28.65 21.55,30.95 C20.55,32.1 19.575,33.25 18.725,34.5 C18.625,34.675 18.5,34.85 18.4,35 C18,35.55 17.875,36.2 17.775,36.85 C17.65,37.675 17.55,38.5 17.525,39.35 C17.525,39.375 17.525,39.425 17.5,39.45 L17.5,40.675 C17.525,40.9 17.525,41.125 17.55,41.35 C17.6,42.275 17.7,43.2 17.925,44.125 C18.125,44.975 18.425,45.825 19,46.525 C19.475,47.1 20.1,47.425 20.875,47.5 C21.075,47.525 21.3,47.525 21.525,47.525 C24.475,47.5 27.4,47.5 30.35,47.5 C31.175,47.5 31.85,47.875 32.25,48.6 C32.425,48.95 32.5,49.325 32.5,49.725 C32.5,52.675 32.5,55.625 32.5,58.575 C32.5,59.05 32.55,59.55 32.75,60 C33.05,60.675 33.55,61.15 34.2,61.475 C34.9,61.825 35.65,62.025 36.425,62.175 C37.375,62.35 38.325,62.475 39.275,62.5 C39.3,62.5 39.35,62.5 39.375,62.525 L40.6,62.525 C40.825,62.5 41.05,62.5 41.25,62.475 C42.175,62.425 43.1,62.325 44.025,62.1 C44.875,61.9 45.7,61.6 46.425,61.05 C47.075,60.55 47.4,59.85 47.45,59.05 C47.5,58.825 47.5,58.6 47.5,58.4 C47.5,55.55 47.5,52.7 47.5,49.85 C47.5,49.475 47.525,49.1 47.625,48.725 C47.825,48 48.3,47.6 49.05,47.55 C49.325,47.525 49.6,47.525 49.875,47.525 C52.725,47.525 55.575,47.525 58.425,47.525 C59.1,47.525 59.725,47.4 60.3,47.05 C60.9,46.675 61.325,46.125 61.625,45.5 C61.95,44.8 62.125,44.05 62.275,43.3 C62.4,42.175 62.5,41.05 62.5,39.925" id="Shape" fill="#101828"></path>
            <rect id="Rectangle" x="0" y="0" width="80" height="80"></rect>
        </g>
    </g>
</svg>