<?xml version="1.0" encoding="UTF-8"?>
<svg width="80px" height="80px" viewBox="0 0 80 80" version="1.1" xmlns="http://www.w3.org/2000/svg" xmlns:xlink="http://www.w3.org/1999/xlink">
    <!-- Generator: Sketch 57.1 (83088) - https://sketch.com -->
    <title>185-B80px</title>
    <desc>Created with Sketch.</desc>
    <g id="185-B80px" stroke="none" stroke-width="1" fill="none" fill-rule="evenodd">
        <g>
            <path d="M67.5,20 L67.525,52.5 L12.5,52.525 L12.475,20 L67.5,20 L67.5,20 Z M67.525,17.5 L12.475,17.5 C11.125,17.5 10,18.625 10,19.975 L10,52.5 C10,53.875 11.125,55 12.475,55 L67.5,55 C68.875,55 69.9754088,53.875 69.9754088,52.525 L69.9754088,19.975 C70,18.625 68.875,17.5 67.525,17.5 L67.525,17.5 Z" id="Shape" fill="#101828" fill-rule="nonzero"></path>
            <rect id="Rectangle" fill="#101828" fill-rule="nonzero" x="12.5" y="45" width="55" height="2.5"></rect>
            <rect id="Rectangle" fill="#101828" fill-rule="nonzero" x="42.5" y="55" width="2.5" height="7.5"></rect>
            <rect id="Rectangle" fill="#101828" fill-rule="nonzero" x="35" y="55" width="2.5" height="7.5"></rect>
            <rect id="Rectangle" fill="#101828" fill-rule="nonzero" x="30.05" y="60" width="19.95" height="2.5"></rect>
            <path d="M40,51.225 C40.675,51.225 41.25,50.675 41.25,49.975 C41.25,49.275 40.7,48.725 40,48.725 C39.3,48.725 38.75,49.275 38.75,49.975 C38.75,50.675 39.325,51.225 40,51.225" id="Path" fill="#101828" fill-rule="nonzero"></path>
            <path d="M23.725,35.025 C24.4,35.025 24.95,35.575 24.95,36.25 C24.95,36.925 24.4,37.475 23.725,37.475 C23.05,37.475 22.5,36.925 22.5,36.25 C22.5,35.575 23.05,35.025 23.725,35.025 L23.725,35.025 Z M23.725,32.525 C21.675,32.525 20,34.2 20,36.25 C20,38.3 21.675,39.975 23.725,39.975 C25.775,39.975 27.45,38.3 27.45,36.25 C27.45,34.2 25.775,32.525 23.725,32.525 L23.725,32.525 Z" id="Shape" fill="#101828" fill-rule="nonzero"></path>
            <path d="M56.225,27.525 C56.9,27.525 57.45,28.075 57.45,28.75 C57.45,29.425 56.9,29.975 56.225,29.975 C55.55,29.975 55,29.425 55,28.75 C55,28.075 55.55,27.525 56.225,27.525 L56.225,27.525 Z M56.225,25.025 C54.175,25.025 52.5,26.7 52.5,28.75 C52.5,30.8 54.175,32.475 56.225,32.475 C58.275,32.475 59.95,30.8 59.95,28.75 C59.95,26.675 58.275,25.025 56.225,25.025 L56.225,25.025 Z" id="Shape" fill="#101828" fill-rule="nonzero"></path>
            <path d="M53.1,28.9 L41.975,34.5 L39.475,27 L25.8,33.9 C26.4,34.475 26.8,35.275 26.9,36.15 L38.025,30.525 L40.525,38.025 L54.2,31.15 C53.6,30.55 53.2,29.775 53.1,28.9 Z" id="Path" fill="#101828" fill-rule="nonzero"></path>
            <rect id="Rectangle" x="0" y="0" width="80" height="80"></rect>
        </g>
    </g>
</svg>