<?xml version="1.0" encoding="UTF-8"?>
<svg width="40px" height="40px" viewBox="0 0 40 40" version="1.1" xmlns="http://www.w3.org/2000/svg" xmlns:xlink="http://www.w3.org/1999/xlink">
    <!-- Generator: Sketch 57.1 (83088) - https://sketch.com -->
    <title>034-B40px</title>
    <desc>Created with Sketch.</desc>
    <g id="034-B40px" stroke="none" stroke-width="1" fill="none" fill-rule="evenodd">
        <g>
            <path d="M33.75,8.75 L21.25,8.75 L21.25,6.25 L5,8.75 L5,31.25 L21.25,33.75 L21.25,31.25 L33.75,31.25 C34.4375,31.25 35,30.6875 35,30 L35,10 C35,9.3125 34.4375,8.75 33.75,8.75 Z M15.8625,24.9625 L13.975,24.7625 C13.775,23.6625 13.5625,22.625 13.35,21.55 L12.6125,18.375 L11.25,24.6375 L9.575,24.55 L7.925,15.475 L9.5125,15.45 L10.5875,21.7125 L11.8625,15.2375 L13.6625,15.1375 L15,21.975 L16.2875,14.925 L18.0625,14.8625 L15.8625,24.9625 Z M33.75,30 L21.25,30 L21.25,27.5 L31.25,27.5 L31.25,26.25 L21.25,26.25 L21.25,24.75 L31.25,24.75 L31.25,23.5 L21.25,23.5 L21.25,22 L31.25,22 L31.25,20.75 L21.25,20.75 L21.25,19.25 L31.25,19.25 L31.25,18 L21.25,18 L21.25,16.5 L31.25,16.5 L31.25,15.25 L21.25,15.25 L21.25,13.75 L31.25,13.75 L31.25,12.5 L21.25,12.5 L21.25,10 L33.75,10 L33.75,30 Z" id="Shape" fill="#101828"></path>
            <rect id="Rectangle" x="0" y="0" width="40" height="40"></rect>
        </g>
    </g>
</svg>