<?xml version="1.0" encoding="UTF-8"?>
<svg width="56px" height="56px" viewBox="0 0 56 56" version="1.1" xmlns="http://www.w3.org/2000/svg" xmlns:xlink="http://www.w3.org/1999/xlink">
    <!-- Generator: Sketch 58 (84663) - https://sketch.com -->
    <title>250-G56px</title>
    <desc>Created with Sketch.</desc>
    <g id="NEW_icons" stroke="none" stroke-width="1" fill="none" fill-rule="evenodd">
        <g id="icons_UD_new-Copy" transform="translate(-445.000000, -31892.000000)">
            <g id="250-G56px" transform="translate(445.000000, 31892.000000)">
                <circle id="Oval-Copy-1708" fill="#E3E8EC" cx="28" cy="28" r="28"></circle>
                <g id="250-B32px" transform="translate(8.000000, 8.000000)">
                    <g>
                        <path d="M19.9875,28.1125 C19.9875,27.7625 20.0125,27.4125 20.0625,27.0625 C16.025,24.9625 12.9,21.775 12.8625,21.7375 C12.8,21.675 6.9625,15.5875 6.25,9.5625 C6.25,9.525 6.25,9.4625 6.2875,9.425 L9.5625,6.2625 C9.5875,6.2375 9.6125,6.225 9.65,6.225 C9.6875,6.225 9.7125,6.25 9.7125,6.25 L14.65,11.35 C14.6875,11.3875 14.675,11.4625 14.6375,11.5 L12.45,13.6125 L11.85,14.2 L12.1625,14.975 C12.2125,15.1 13.375,17.9375 15.0375,19.65 C16.7,21.3625 19.5,22.625 19.625,22.675 L20.4,23.0125 L21,22.425 L23.1875,20.3125 C23.2125,20.2875 23.2375,20.275 23.275,20.275 C23.3125,20.275 23.3375,20.3 23.3375,20.3 L24.0875,21.075 C24.4625,20.85 24.8625,20.6625 25.2875,20.5125 L24.2375,19.425 C23.975,19.15 23.625,19.0125 23.275,19.0125 C22.9375,19.0125 22.5875,19.1375 22.325,19.4 L20.1375,21.5125 C20.1375,21.5125 17.4625,20.325 15.95,18.7625 C14.4375,17.2 13.3375,14.4875 13.3375,14.4875 L15.525,12.375 C16.0625,11.85 16.0875,11 15.5625,10.4625 L10.6,5.375 C10.3375,5.1125 9.9875,4.975 9.6375,4.975 C9.3,4.975 8.95,5.1 8.6875,5.3625 L5.4125,8.525 C5.1,8.8375 4.9625,9.2625 5.0125,9.7 C5.7875,16.225 11.9625,22.6 11.9625,22.6 C11.9625,22.6 15.4625,26.2125 20.0125,28.4375 C20,28.3375 19.9875,28.225 19.9875,28.1125 Z" id="Path" fill="#101828" fill-rule="nonzero"></path>
                        <path d="M28.1125,22.5 C31.2125,22.5 33.7375,25.025 33.7375,28.125 C33.7375,31.225 31.2125,33.75 28.1125,33.75 C25.0125,33.75 22.4875,31.225 22.4875,28.125 C22.4875,25.025 25.0125,22.5 28.1125,22.5 L28.1125,22.5 Z M28.1125,21.25 C24.3125,21.25 21.2375,24.325 21.2375,28.125 C21.2375,31.925 24.3125,35 28.1125,35 C31.9125,35 34.9875,31.925 34.9875,28.125 C34.9875,24.325 31.9125,21.25 28.1125,21.25 L28.1125,21.25 Z" id="Shape" fill="#101828" fill-rule="nonzero"></path>
                        <path d="M32.5,28.1125 L27.5,25 L27.5,27.4875 L23.75,27.5 L23.75,28.75 L27.5,28.7375 L27.5,31.25 L32.5,28.1125 Z M30.1375,28.1125 L28.75,28.9875 L28.75,27.25 L30.1375,28.1125 Z" id="Shape" fill="#101828" fill-rule="nonzero"></path>
                        <rect id="Rectangle" x="0" y="0" width="40" height="40"></rect>
                    </g>
                </g>
            </g>
        </g>
    </g>
</svg>