<?xml version="1.0" encoding="UTF-8"?>
<svg width="80px" height="80px" viewBox="0 0 80 80" version="1.1" xmlns="http://www.w3.org/2000/svg" xmlns:xlink="http://www.w3.org/1999/xlink">
    <!-- Generator: Sketch 57.1 (83088) - https://sketch.com -->
    <title>097-B80px</title>
    <desc>Created with Sketch.</desc>
    <g id="097-B80px" stroke="none" stroke-width="1" fill="none" fill-rule="evenodd">
        <g>
            <path d="M51.275,32.5 C50.25,32.5 49.425,33.35 49.425,34.375 C49.425,35.4 50.25,36.25 51.275,36.25 C52.3,36.25 53.125,35.4 53.125,34.375 C53.125,33.35 52.275,32.5 51.275,32.5 L51.275,32.5 Z" id="Path" fill="#101828" fill-rule="nonzero"></path>
            <path d="M51.275,26.25 C50.25,26.25 49.425,27.1 49.425,28.125 C49.425,29.15 50.25,30 51.275,30 C52.3,30 53.125,29.15 53.125,28.125 C53.125,27.1 52.275,26.25 51.275,26.25 L51.275,26.25 Z" id="Path" fill="#101828" fill-rule="nonzero"></path>
            <path d="M54.375,29.35 C53.35,29.35 52.5,30.2 52.5,31.25 C52.5,32.3 53.35,33.15 54.375,33.15 C55.4,33.15 56.25,32.3 56.25,31.25 C56.25,30.2 55.4,29.35 54.375,29.35 L54.375,29.35 Z" id="Path" fill="#101828" fill-rule="nonzero"></path>
            <path d="M48.15,29.375 C47.125,29.375 46.3,30.225 46.3,31.25 C46.3,32.3 47.125,33.125 48.15,33.125 C49.175,33.125 50,32.3 50,31.25 C50,30.2 49.175,29.375 48.15,29.375 L48.15,29.375 Z" id="Path" fill="#101828" fill-rule="nonzero"></path>
            <path d="M64.525,37 L60.8,19.475 C60.55,18.325 59.575,17.5 58.425,17.5 L42.075,17.5 L38.75,17.5 L38.75,10 L36.25,10 L36.25,17.5 L32.925,17.5 L16.575,17.5 C15.425,17.5 14.45,18.325 14.225,19.475 L10.475,37 C9.8,40.375 9.675,42.7 11.125,45.925 C12.9,49.9 17.2,52.5 21.5,52.5 C21.575,52.5 21.625,52.5 21.7,52.5 C27.925,52.375 32.95,47.2 32.95,40.825 L42.075,40.825 C42.075,42.8 42.6,44.625 43.45,46.25 C44,45.55 44.6,44.9 45.25,44.3 C44.825,43.225 44.575,42.05 44.575,40.825 L44.575,38.325 L42.075,38.325 L32.95,38.325 L30.45,38.325 L30.45,40.825 C30.45,45.8 26.5,49.9 21.675,50 L21.5,50 C18.075,50 14.75,47.9 13.425,44.9 C12.275,42.3 12.325,40.6 12.95,37.525 L16.575,20 L32.925,20 L42.1,20 L58.35,20 L62.075,37.5 C62.375,39 62.525,40.15 62.5,41.25 C63.35,41.6 64.15,42.025 64.9,42.5 C65.125,40.775 64.925,39.1 64.525,37 Z" id="Path" fill="#101828" fill-rule="nonzero"></path>
            <polygon id="Path" fill="#101828" fill-rule="nonzero" points="57.5 56.45 57.5 50 55 50 55 57.5 55.025 57.5 60 62.475 61.75 60.7"></polygon>
            <path d="M56.25,45.025 C62.45,45.025 67.5,50.075 67.5,56.275 C67.5,62.475 62.45,67.525 56.25,67.525 C50.05,67.525 45,62.475 45,56.275 C45,50.075 50.05,45.025 56.25,45.025 L56.25,45.025 Z M56.25,42.525 C48.65,42.525 42.5,48.675 42.5,56.275 C42.5,63.875 48.65,70.025 56.25,70.025 C63.85,70.025 70,63.875 70,56.275 C70,48.7 63.85,42.525 56.25,42.525 L56.25,42.525 Z" id="Shape" fill="#101828" fill-rule="nonzero"></path>
            <polygon id="Path" fill="#101828" fill-rule="nonzero" points="28.7 30 25 30 25 26.15 22.5 26.15 22.5 30 18.675 30 18.675 32.5 22.5 32.5 22.5 36.175 25 36.175 25 32.5 28.7 32.5"></polygon>
            <rect id="Rectangle" x="0" y="0" width="80" height="80"></rect>
        </g>
    </g>
</svg>