<?xml version="1.0" encoding="UTF-8"?>
<svg width="80px" height="80px" viewBox="0 0 80 80" version="1.1" xmlns="http://www.w3.org/2000/svg" xmlns:xlink="http://www.w3.org/1999/xlink">
    <!-- Generator: Sketch 57.1 (83088) - https://sketch.com -->
    <title>110-B80px</title>
    <desc>Created with Sketch.</desc>
    <g id="110-B80px" stroke="none" stroke-width="1" fill="none" fill-rule="evenodd">
        <g>
            <polygon id="Path" fill="#101828" fill-rule="nonzero" points="29.025 62.5 31.75 60 28.05 60 22.6 65 31.175 65 27.725 68.45 29.5 70.2 37.2 62.5"></polygon>
            <polygon id="Path" fill="#101828" fill-rule="nonzero" points="53.4 20 57.1 20 62.55 14.975 54 14.975 57.45 11.525 55.675 9.775 47.95 17.475 56.15 17.475"></polygon>
            <path d="M58.4,31.625 C58.7,31.025 58.9,30.35 58.9,29.625 L58.9,28.65 C58.9,26.25 56.95,24.3 54.55,24.3 L45.225,24.3 C45.075,24.3 44.925,24.35 44.75,24.375 L40.75,20.075 L30.575,20.075 L18.25,29.675 L18.25,46.425 L25.825,55.025 L46.175,55.025 L47.725,55.025 L52.375,55.025 C54.775,55.025 56.725,53.075 56.725,50.675 L56.725,49.875 C56.725,49.075 56.5,48.35 56.125,47.7 C57.725,47.05 58.875,45.5 58.875,43.675 L58.875,42.875 C58.875,42.15 58.675,41.475 58.375,40.875 C60.275,40.4 61.7003239,38.7 61.7003239,36.65 L61.7003239,35.85 C61.725,33.775 60.3,32.075 58.4,31.625 Z M56.4,28.65 L56.4,29.625 C56.4,30.65 55.575,31.475 54.55,31.475 L51.425,31.475 L51.425,31.525 L47.025,26.775 L54.575,26.775 C55.575,26.8 56.4,27.625 56.4,28.65 Z M20.775,45.475 L20.775,30.9 L31.45,22.6 L39.675,22.6 L49.375,33.025 L49.375,35.125 C49.425,35.575 49.4,36.95 48.675,37.75 C48.225,38.25 47.525,38.5 46.575,38.5 C45.625,38.5 44.925,38.25 44.475,37.75 C43.75,36.95 43.725,35.575 43.75,35.125 L43.825,34.525 L38.7,29.25 L36.9,31 L39.5,33.675 C37.1,39.45 28.25,39.95 28.15,39.95 L28.275,42.45 C28.7,42.425 37.75,41.925 41.275,35.775 C41.325,36.725 41.55,38.225 42.625,39.425 C42.85,39.675 43.1,39.9 43.375,40.1 C42.75,40.85 42.35,41.825 42.35,42.875 L42.35,43.675 C42.35,44.775 42.775,45.775 43.475,46.55 C42.525,47.35 41.9,48.525 41.9,49.875 L41.9,50.675 C41.9,51.35 42.05,51.975 42.325,52.525 L27.025,52.525 L20.775,45.475 Z M54.275,50.65 C54.275,51.675 53.45,52.5 52.425,52.5 L47.775,52.5 L46.225,52.5 C45.2,52.5 44.375,51.675 44.375,50.65 L44.375,49.85 C44.375,48.825 45.2,48 46.225,48 L46.7,48 L52.425,48 C53.45,48 54.275,48.825 54.275,49.85 L54.275,50.65 Z M56.4,43.65 C56.4,44.675 55.575,45.5 54.55,45.5 L52.4,45.5 L46.675,45.5 C45.65,45.5 44.825,44.675 44.825,43.65 L44.825,42.85 C44.825,41.825 45.65,41 46.675,41 L51.425,41 L54.55,41 C55.575,41 56.4,41.825 56.4,42.85 L56.4,43.65 Z M59.225,36.625 C59.225,37.65 58.4,38.475 57.375,38.475 L54.55,38.475 L51.425,38.475 L51.175,38.475 C52.05,36.85 51.9,35.075 51.875,34.95 L51.875,33.95 L54.55,33.95 L57.375,33.95 C58.4,33.95 59.225,34.775 59.225,35.8 L59.225,36.625 Z" id="Shape" fill="#101828" fill-rule="nonzero"></path>
            <rect id="Rectangle" x="0" y="0" width="80" height="80"></rect>
        </g>
    </g>
</svg>