<?xml version="1.0" encoding="UTF-8"?>
<svg width="32px" height="32px" viewBox="0 0 32 32" version="1.1" xmlns="http://www.w3.org/2000/svg" xmlns:xlink="http://www.w3.org/1999/xlink">
    <!-- Generator: Sketch 57.1 (83088) - https://sketch.com -->
    <title>118-B32px</title>
    <desc>Created with Sketch.</desc>
    <g id="118-B32px" stroke="none" stroke-width="1" fill="none" fill-rule="evenodd">
        <g>
            <path d="M9,12.99 L9,18.99 L8,18.99 C7.46,18.99 7,18.63 7,18.21 L7,13.77 C7,13.35 7.46,12.99 8.01,12.99 L9,12.99 L9,12.99 Z M10,11.99 L8.01,11.99 C6.9,11.99 6,12.79 6,13.77 L6,18.21 C6,19.19 6.89,19.99 8,19.99 L10,19.99 L10,11.99 L10,11.99 Z" id="Shape" fill="#101828" fill-rule="nonzero"></path>
            <path d="M18.77,27.98 L16.73,27.98 L16.73,26.98 L18.77,26.98 C21.55,26.98 23,23.46 23,19.99 L23,19.49 L24,19.49 L24,19.99 C24,23.96 22.21,27.98 18.77,27.98 Z" id="Path" fill="#101828" fill-rule="nonzero"></path>
            <path d="M24,12.49 L23,12.49 L23,11.99 C23,10.92 22.63,9.78 21.9,8.61 C20.49,6.32 18.33,5.01 16,5.01 C13.67,5.01 11.52,6.32 10.1,8.6 C9.37,9.78 9,10.92 9,11.98 L9,12.48 L8,12.48 L8,11.98 C8,10.72 8.42,9.41 9.25,8.07 C10.85,5.49 13.31,4.01 16,4.01 L16,4.01 C18.69,4.01 21.15,5.49 22.76,8.08 C23.58,9.42 24,10.73 24,11.99 L24,12.49 Z" id="Path" fill="#101828" fill-rule="nonzero"></path>
            <path d="M18.75,25.99 C18.82,25.99 19,26.16 19,26.49 C19,26.81 18.82,26.99 18.75,26.99 L16.25,26.98 C16.18,26.98 16,26.81 16,26.48 C16,26.16 16.18,25.98 16.25,25.98 L18.75,25.98 L18.75,25.99 Z M18.75,24.99 L16.25,24.99 C15.56,24.99 15,25.66 15,26.49 C15,27.31 15.56,27.98 16.25,27.99 L18.75,28 C18.75,28 18.75,28 18.75,28 C19.44,28 20,27.33 20,26.5 L20,26.49 C20,25.66 19.44,24.99 18.75,24.99 L18.75,24.99 Z" id="Shape" fill="#101828" fill-rule="nonzero"></path>
            <path d="M24,12.99 C24.54,12.99 25,13.35 25,13.77 L25,18.21 C25,18.63 24.54,18.99 23.99,18.99 L23,18.99 L23,12.99 L24,12.99 L24,12.99 Z M24,11.99 L22,11.99 L22,19.99 L23.99,19.99 C25.1,19.99 26,19.19 26,18.21 L26,13.77 C26,12.79 25.11,11.99 24,11.99 L24,11.99 Z" id="Shape" fill="#101828" fill-rule="nonzero"></path>
            <rect id="Rectangle" x="0" y="0" width="32" height="32"></rect>
        </g>
    </g>
</svg>