<?xml version="1.0" encoding="UTF-8"?>
<svg width="80px" height="80px" viewBox="0 0 80 80" version="1.1" xmlns="http://www.w3.org/2000/svg" xmlns:xlink="http://www.w3.org/1999/xlink">
    <!-- Generator: Sketch 56.3 (81716) - https://sketch.com -->
    <title>020-C80px</title>
    <desc>Created with Sketch.</desc>
    <g id="NEW_icons" stroke="none" stroke-width="1" fill="none" fill-rule="evenodd">
        <g id="icons_UD_new-Copy" transform="translate(-1002.000000, -2835.000000)">
            <g id="020-C80px" transform="translate(1002.000000, 2835.000000)">
                <circle id="Oval-Copy-202" fill="#FF4F12" cx="40" cy="40" r="40"></circle>
                <g id="020-B32px-Copy-9" transform="translate(12.000000, 12.000000)">
                    <path d="M23.5375,43.8375 L22.575,42.875 C20.58,41.615 18.8825,39.0425 17.78,35.735 L24.5,35.735 L24.5,36.8025 L24.535,36.7675 L26.25,36.7675 L26.25,35.735 L32.9175,35.735 C32.795,36.12 32.6375,36.4875 32.4975,36.855 C33.0925,36.96 33.635,37.1875 34.1425,37.485 C34.37,36.925 34.58,36.3475 34.7725,35.735 L39.5675,35.735 C39.34,36.1025 39.095,36.47 38.85,36.82 C39.06,36.785 39.27,36.75 39.4975,36.75 C39.9875,36.75 40.4425,36.8375 40.88,36.96 C42.6825,34.1075 43.75,30.7475 43.75,27.125 C43.75,16.975 35.525,8.75 25.375,8.75 C25.375,8.75 25.3575,8.75 25.3575,8.75 C25.3575,8.75 25.3575,8.75 25.34,8.75 C25.3225,8.75 25.3225,8.75 25.305,8.75 C15.19,8.785 7,16.9925 7,27.125 C7,36.645 14.245,44.485 23.5375,45.395 L23.5375,43.8375 Z M40.495,33.985 L35.2275,33.985 C35.665,32.13 35.9275,30.1 35.98,28 L41.9475,28 C41.8425,30.1175 41.335,32.1475 40.495,33.985 Z M41.9475,26.25 L35.98,26.25 C35.9275,24.15 35.665,22.12 35.2275,20.265 L40.495,20.265 C41.335,22.1025 41.8425,24.1325 41.9475,26.25 Z M39.5675,18.515 L34.7725,18.515 C33.88,15.61 32.5325,13.1775 30.905,11.4625 C34.545,12.7575 37.59,15.26 39.5675,18.515 Z M26.25,10.5875 C29.0325,11.13 31.4825,14.21 32.9175,18.515 L26.25,18.515 L26.25,10.5875 Z M26.25,20.265 L33.425,20.265 C33.8975,22.12 34.1775,24.1325 34.23,26.25 L26.25,26.25 L26.25,20.265 Z M26.25,28 L34.23,28 C34.16,30.1175 33.88,32.13 33.425,33.985 L26.25,33.985 L26.25,28 Z M24.5,33.985 L17.2725,33.985 C16.8,32.13 16.52,30.1175 16.45,28 L24.5,28 L24.5,33.985 Z M24.5,26.25 L16.45,26.25 C16.52,24.1325 16.8,22.12 17.255,20.265 L24.5,20.265 L24.5,26.25 Z M24.5,10.5875 L24.5,18.515 L17.78,18.515 C19.215,14.1925 21.6825,11.095 24.5,10.5875 Z M19.7575,11.4975 C18.1475,13.2125 16.8175,15.6275 15.925,18.515 L11.1825,18.515 C13.1425,15.295 16.1525,12.7925 19.7575,11.4975 Z M10.255,20.265 L15.47,20.265 C15.015,22.12 14.77,24.15 14.7,26.25 L8.8025,26.25 C8.9075,24.1325 9.415,22.1025 10.255,20.265 Z M8.8025,28 L14.7,28 C14.7525,30.1 15.015,32.13 15.4525,33.985 L10.255,33.985 C9.415,32.1475 8.9075,30.1175 8.8025,28 Z M11.1825,35.735 L15.925,35.735 C16.8175,38.6225 18.1475,41.0375 19.7575,42.7525 C16.1525,41.4575 13.1425,38.955 11.1825,35.735 Z" id="Shape" fill="#FFFFFF" fill-rule="nonzero"></path>
                    <g id="Group" transform="translate(22.750000, 38.500000)" fill="#FFFFFF" fill-rule="nonzero">
                        <path d="M8.7675,0 C6.8425,0 5.2675,1.575 5.2675,3.5 L5.2675,5.25 C5.2675,7.175 6.8425,8.75 8.7675,8.75 C10.6925,8.75 12.2675,7.175 12.2675,5.25 L12.2675,3.5 C12.2675,1.575 10.6925,0 8.7675,0 Z M10.5175,5.25 C10.5175,6.2125 9.73,7 8.7675,7 C7.805,7 7.0175,6.2125 7.0175,5.25 L7.0175,3.5 C7.0175,2.5375 7.805,1.75 8.7675,1.75 C9.73,1.75 10.5175,2.5375 10.5175,3.5 L10.5175,5.25 Z" id="Shape"></path>
                        <path d="M16.7475,0 C14.8225,0 13.2475,1.575 13.2475,3.5 L13.2475,5.25 C13.2475,7.175 14.8225,8.75 16.7475,8.75 C18.6725,8.75 20.2475,7.175 20.2475,5.25 L20.2475,3.5 C20.2475,1.575 18.6725,0 16.7475,0 Z M18.4975,5.25 C18.4975,6.2125 17.71,7 16.7475,7 C15.785,7 14.9975,6.2125 14.9975,5.25 L14.9975,3.5 C14.9975,2.5375 15.785,1.75 16.7475,1.75 C17.71,1.75 18.4975,2.5375 18.4975,3.5 L18.4975,5.25 Z" id="Shape"></path>
                        <polygon id="Path" points="24.5 3.5 24.5 1.75 22.75 1.75 22.75 3.5 21 3.5 21 5.25 22.75 5.25 22.75 7 24.5 7 24.5 5.25 26.25 5.25 26.25 3.5"></polygon>
                        <polygon id="Path" points="2.5375 0 2.52 0 2.485 0.035 0.1925 2.2575 1.4175 3.5 2.5375 2.415 2.5375 8.75 4.2875 8.75 4.2875 0 3.325 0"></polygon>
                    </g>
                    <rect id="Rectangle" x="0" y="0" width="56" height="56"></rect>
                </g>
            </g>
        </g>
    </g>
</svg>