<?xml version="1.0" encoding="UTF-8"?>
<svg width="56px" height="56px" viewBox="0 0 56 56" version="1.1" xmlns="http://www.w3.org/2000/svg" xmlns:xlink="http://www.w3.org/1999/xlink">
    <!-- Generator: Sketch 57.1 (83088) - https://sketch.com -->
    <title>197-B56px</title>
    <desc>Created with Sketch.</desc>
    <g id="197-B56px" stroke="none" stroke-width="1" fill="none" fill-rule="evenodd">
        <g>
            <rect id="Rectangle" fill="#101828" fill-rule="nonzero" x="12.25" y="19.25" width="14" height="1.75"></rect>
            <rect id="Rectangle" fill="#101828" fill-rule="nonzero" x="12.25" y="22.75" width="10.5" height="1.75"></rect>
            <rect id="Rectangle" fill="#101828" fill-rule="nonzero" x="12.25" y="26.25" width="10.5" height="1.75"></rect>
            <path d="M31.5,35.0175 L8.75,35 L8.785,15.75 L47.215,15.75 L47.25,15.785 L47.215,35.035 L43.75,35.035 L43.75,36.75 L47.3725,36.75 C48.2825,36.6625 49,35.9275 49,35 L49,15.785 C49,14.805 48.195,14 47.215,14 L8.785,14 C7.805,14 7,14.805 7,15.785 L7,35 C7,35.98 7.805,36.785 8.785,36.785 L23.835,36.785 C18.375,37.1 14.2975,37.9225 12.25,38.43 L12.25,40.25 C14.4025,39.69 20.195,38.4125 27.965,38.4125 C29.19,38.4125 30.38,38.4475 31.5,38.5 L31.5,35.0175 Z" id="Path" fill="#101828" fill-rule="nonzero"></path>
            <g id="Group" transform="translate(31.500000, 22.750000)" fill="#101828" fill-rule="nonzero">
                <path d="M6.125,1.75 C8.54,1.75 10.5,3.71 10.5,6.125 C10.5,8.54 8.54,10.5 6.125,10.5 C3.71,10.5 1.75,8.54 1.75,6.125 C1.75,3.71 3.71,1.75 6.125,1.75 L6.125,1.75 Z M6.125,0 C2.7475,0 0,2.7475 0,6.125 C0,9.5025 2.7475,12.25 6.125,12.25 C9.5025,12.25 12.25,9.5025 12.25,6.125 C12.25,2.7475 9.5025,0 6.125,0 L6.125,0 Z" id="Shape"></path>
                <path d="M6.125,5.25 C6.615,5.25 7,5.6525 7,6.125 C7,6.615 6.5975,7 6.125,7 C5.635,7 5.25,6.5975 5.25,6.125 C5.25,5.6525 5.635,5.25 6.125,5.25 L6.125,5.25 Z M6.125,3.5 C4.6725,3.5 3.5,4.6725 3.5,6.125 C3.5,7.5775 4.6725,8.75 6.125,8.75 C7.5775,8.75 8.75,7.5775 8.75,6.125 C8.75,4.6725 7.5775,3.5 6.125,3.5 L6.125,3.5 Z" id="Shape"></path>
                <path d="M8.75,11.83 L8.75,19.88 L6.93,18.935 L6.125,18.515 L5.32,18.935 L3.5,19.88 L3.5,11.865 C4.235,12.1275 5.0925,12.285 6.09,12.285 C7.1225,12.2675 7.9975,12.0925 8.75,11.83 L8.75,11.83 Z M10.5,8.085 C10.5,8.085 9.625,10.5175 6.09,10.5175 C2.5375,10.5175 1.75,8.085 1.75,8.085 L1.75,22.75 L6.125,20.475 L10.5,22.75 L10.5,8.085 L10.5,8.085 Z" id="Shape"></path>
            </g>
            <rect id="Rectangle" x="0" y="0" width="56" height="56"></rect>
        </g>
    </g>
</svg>