<?xml version="1.0" encoding="UTF-8"?>
<svg width="80px" height="80px" viewBox="0 0 80 80" version="1.1" xmlns="http://www.w3.org/2000/svg" xmlns:xlink="http://www.w3.org/1999/xlink">
    <!-- Generator: Sketch 58 (84663) - https://sketch.com -->
    <title>254-B80px</title>
    <desc>Created with Sketch.</desc>
    <g id="254-B80px" stroke="none" stroke-width="1" fill="none" fill-rule="evenodd">
        <g id="254-B32px">
            <g>
                <path d="M20.75,14.175 C20.875,14.175 21.05,14.2 21.2,14.35 L32.675,26.225 C32.925,26.475 32.9,26.9 32.625,27.15 L27.55,32.075 L26.35,33.25 L26.975,34.8 C27.075,35.075 29.75,41.625 33.575,45.575 C37.4,49.525 43.85,52.4 44.125,52.525 L45.675,53.2 L46.875,52.025 L51.95,47.1 C52.125,46.925 52.3,46.9 52.425,46.9 C52.55,46.9 52.725,46.925 52.875,47.075 L64.35,58.95 C64.5,59.1 64.525,59.275 64.525,59.4 C64.525,59.5 64.5,59.7 64.3,59.875 L56.675,67.25 C56.55,67.375 56.375,67.45 56.125,67.45 C56.125,67.45 56.1,67.45 56.1,67.45 C41.85,65.175 28.075,51.125 27.95,50.975 C27.8,50.825 14.125,36.55 12.45,22.375 C12.45,22.25 12.45,21.95 12.675,21.75 L20.3,14.375 C20.45,14.225 20.625,14.175 20.75,14.175 L20.75,14.175 Z M20.75,11.675 C19.95,11.675 19.15,11.975 18.525,12.575 L10.925,19.95 C10.175,20.675 9.85,21.675 9.975,22.7 C11.775,37.875 26.15,52.75 26.15,52.75 C26.15,52.75 40.425,67.5 55.7,69.95 C55.85,69.975 56.025,69.975 56.175,69.975 C57,69.975 57.8,69.65 58.4,69.05 L66.025,61.675 C67.275,60.45 67.325,58.45 66.125,57.225 L54.65,45.35 C54.05,44.725 53.225,44.4 52.4,44.4 C51.6,44.4 50.8,44.7 50.175,45.3 L45.1,50.225 C45.1,50.225 38.85,47.45 35.35,43.825 C31.825,40.2 29.275,33.85 29.275,33.85 L34.35,28.925 C35.6,27.7 35.65,25.7 34.45,24.475 L23,12.625 C22.4,12 21.575,11.675 20.75,11.675 L20.75,11.675 Z" id="Shape" fill="#101828" fill-rule="nonzero"></path>
                <path d="M60,29.975 C58.625,29.975 57.5,31.1 57.5,32.475 C57.5,33.85 58.625,34.975 60,34.975 C61.375,34.975 62.5,33.85 62.5,32.475 C62.5,31.1 61.375,29.975 60,29.975 L60,29.975 Z" id="Path" fill="#101828" fill-rule="nonzero"></path>
                <path d="M52.5,29.975 C51.125,29.975 50,31.1 50,32.475 C50,33.85 51.125,34.975 52.5,34.975 C53.875,34.975 55,33.85 55,32.475 C55,31.1 53.9,29.975 52.5,29.975 L52.5,29.975 Z" id="Path" fill="#101828" fill-rule="nonzero"></path>
                <path d="M45,29.975 C43.625,29.975 42.5,31.1 42.5,32.475 C42.5,33.85 43.625,34.975 45,34.975 C46.375,34.975 47.5,33.85 47.5,32.475 C47.5,31.1 46.4,29.975 45,29.975 L45,29.975 Z" id="Path" fill="#101828" fill-rule="nonzero"></path>
                <rect id="Rectangle" x="0" y="0" width="80" height="80"></rect>
            </g>
        </g>
    </g>
</svg>