<?xml version="1.0" encoding="UTF-8"?>
<svg width="32px" height="32px" viewBox="0 0 32 32" version="1.1" xmlns="http://www.w3.org/2000/svg" xmlns:xlink="http://www.w3.org/1999/xlink">
    <!-- Generator: Sketch 57.1 (83088) - https://sketch.com -->
    <title>067-B32px</title>
    <desc>Created with Sketch.</desc>
    <g id="067-B32px" stroke="none" stroke-width="1" fill="none" fill-rule="evenodd">
        <g>
            <path d="M19,22.83 C14.48,21.67 10.33,17.44 10.29,17.4 C10.24,17.35 5.57,12.46 5,7.65 C5,7.62 5,7.57 5.03,7.54 L7.65,5.01 C7.67,4.99 7.69,4.98 7.72,4.98 C7.74,4.98 7.76,5 7.76,5 L11.71,9.08 C11.74,9.11 11.73,9.16 11.7,9.2 L9.95,10.89 L9.47,11.36 L9.72,11.98 C9.76,12.08 10.69,14.35 12.02,15.72 C13.35,17.09 15.59,18.1 15.69,18.14 L16.31,18.41 L16.79,17.94 L18.54,16.25 C18.56,16.23 18.58,16.22 18.61,16.22 C18.64,16.22 18.66,16.24 18.66,16.24 L19,16.62 L19,15.32 C18.87,15.27 18.73,15.24 18.6,15.24 C18.33,15.24 18.05,15.34 17.84,15.55 L16.09,17.24 C16.09,17.24 13.95,16.29 12.74,15.04 C11.53,13.79 10.65,11.62 10.65,11.62 L12.4,9.93 C12.83,9.51 12.85,8.83 12.43,8.4 L8.48,4.31 C8.27,4.09 7.99,3.98 7.71,3.98 C7.44,3.98 7.16,4.08 6.95,4.29 L4.33,6.82 C4.08,7.07 3.97,7.42 4.01,7.77 C4.63,12.99 9.57,18.09 9.57,18.09 C9.57,18.09 14.03,22.69 19,23.85 L19,22.83 Z" id="Path" fill="#101828" fill-rule="nonzero"></path>
            <path d="M26.95,16 C26.98,16 27,16.02 27,16.05 L27,26.95 C27,26.98 26.98,27 26.95,27 L21.05,27 C21.02,27 21,26.98 21,26.95 L21,16.05 C21,16.02 21.02,16 21.05,16 L26.95,16 L26.95,16 Z M26.95,15 L21.05,15 C20.47,15 20,15.47 20,16.05 L20,26.95 C20,27.53 20.47,28 21.05,28 L26.95,28 C27.53,28 28,27.53 28,26.95 L28,16.05 C28,15.47 27.53,15 26.95,15 L26.95,15 Z" id="Shape" fill="#101828" fill-rule="nonzero"></path>
            <rect id="Rectangle" fill="#101828" fill-rule="nonzero" x="20" y="24" width="8" height="1"></rect>
            <circle id="Oval" fill="#101828" fill-rule="nonzero" cx="24" cy="26" r="1"></circle>
            <rect id="Rectangle" x="0" y="0" width="32" height="32"></rect>
        </g>
    </g>
</svg>