<?xml version="1.0" encoding="UTF-8"?>
<svg width="56px" height="56px" viewBox="0 0 56 56" version="1.1" xmlns="http://www.w3.org/2000/svg" xmlns:xlink="http://www.w3.org/1999/xlink">
    <!-- Generator: Sketch 57.1 (83088) - https://sketch.com -->
    <title>225-B56px</title>
    <desc>Created with Sketch.</desc>
    <g id="225-B56px" stroke="none" stroke-width="1" fill="none" fill-rule="evenodd">
        <g>
            <path d="M28.1225,15.75 C29.9775,15.75 31.5,17.2725 31.5,19.1275 L31.5,21 L24.5,21 L24.5,19.1275 C24.5,17.2725 26.0225,15.75 27.8775,15.75 L28.1225,15.75 L28.1225,15.75 Z M28.1225,14 L27.895,14 C25.0425,14 22.75,16.2925 22.75,19.1275 L22.75,22.75 L33.25,22.75 L33.25,19.1275 C33.25,16.2925 30.9575,14 28.1225,14 L28.1225,14 Z" id="Shape" fill="#101828" fill-rule="nonzero"></path>
            <path d="M33.25,22.75 L33.25,33.25 L22.75,33.25 L22.75,22.75 L33.25,22.75 L33.25,22.75 Z M33.32,21 L22.68,21 C21.7525,21 21,21.7525 21,22.68 L21,33.3375 C21,34.265 21.7525,35.0175 22.68,35.0175 L33.32,35.0175 C34.2475,35.0175 35,34.265 35,33.3375 L35,22.68 C35,21.7525 34.2475,21 33.32,21 L33.32,21 Z" id="Shape" fill="#101828" fill-rule="nonzero"></path>
            <path d="M28,29.75 C27.51,29.75 27.125,29.365 27.125,28.875 L27.125,27.125 C27.125,26.635 27.51,26.25 28,26.25 C28.49,26.25 28.875,26.635 28.875,27.125 L28.875,28.875 C28.875,29.365 28.49,29.75 28,29.75 Z" id="Path" fill="#101828" fill-rule="nonzero"></path>
            <path d="M47.25,8.75 L47.25,12.25 C47.25,17.7275 46.1125,25.8825 44.2225,30.065 C41.615,35.805 36.715,43.365 28,47.11 C19.285,43.365 14.3675,35.805 11.7775,30.065 C9.8875,25.8825 8.75,17.71 8.75,12.25 L8.75,8.75 L47.25,8.75 L47.25,8.75 Z M49,7 L7,7 L7,12.25 C7,17.43 8.05,26.0575 10.185,30.7825 C13.1075,37.24 18.48,45.185 28,49 C37.52,45.185 42.8925,37.24 45.815,30.7825 C47.95,26.0575 49,17.43 49,12.25 L49,7 L49,7 Z" id="Shape" fill="#101828" fill-rule="nonzero"></path>
            <rect id="Rectangle" x="0" y="0" width="56" height="56"></rect>
        </g>
    </g>
</svg>