<?xml version="1.0" encoding="UTF-8"?>
<svg width="56px" height="56px" viewBox="0 0 56 56" version="1.1" xmlns="http://www.w3.org/2000/svg" xmlns:xlink="http://www.w3.org/1999/xlink">
    <!-- Generator: Sketch 57.1 (83088) - https://sketch.com -->
    <title>215-G56px</title>
    <desc>Created with Sketch.</desc>
    <g id="NEW_icons" stroke="none" stroke-width="1" fill="none" fill-rule="evenodd">
        <g id="icons_UD_new-Copy" transform="translate(-1728.000000, -27370.000000)">
            <g id="215-G56px" transform="translate(1728.000000, 27370.000000)">
                <circle id="Oval-Copy-1399" fill="#E3E8EC" cx="28" cy="28" r="28"></circle>
                <g id="215-B32px-Copy-3" transform="translate(8.000000, 8.000000)">
                    <path d="M15,17.5 C15.6875,17.5 16.25,18.0625 16.25,18.75 C16.25,19.4375 15.6875,20 15,20 C14.3125,20 13.75,19.4375 13.75,18.75 C13.75,18.0625 14.3125,17.5 15,17.5 L15,17.5 Z M15,16.25 C13.625,16.25 12.5,17.375 12.5,18.75 C12.5,20.125 13.625,21.25 15,21.25 C16.375,21.25 17.5,20.125 17.5,18.75 C17.5,17.375 16.375,16.25 15,16.25 L15,16.25 Z" id="Shape" fill="#101828" fill-rule="nonzero"></path>
                    <path d="M12.5,26.25 L12.5,25 C12.5,24.3125 13.0625,23.75 13.75,23.75 L16.25,23.75 C16.9375,23.75 17.5,24.3125 17.5,25 L17.5,26.25 L18.75,26.25 L18.75,25 C18.75,23.625 17.625,22.5 16.25,22.5 L13.75,22.5 C12.375,22.5 11.25,23.625 11.25,25 L11.25,26.25 L12.5,26.25 Z" id="Path" fill="#101828" fill-rule="nonzero"></path>
                    <path d="M25,17.5 C25.6875,17.5 26.25,18.0625 26.25,18.75 C26.25,19.4375 25.6875,20 25,20 C24.3125,20 23.75,19.4375 23.75,18.75 C23.75,18.0625 24.3125,17.5 25,17.5 L25,17.5 Z M25,16.25 C23.625,16.25 22.5,17.375 22.5,18.75 C22.5,20.125 23.625,21.25 25,21.25 C26.375,21.25 27.5,20.125 27.5,18.75 C27.5,17.375 26.375,16.25 25,16.25 L25,16.25 Z" id="Shape" fill="#101828" fill-rule="nonzero"></path>
                    <path d="M22.5,26.25 L22.5,25 C22.5,24.3125 23.0625,23.75 23.75,23.75 L26.25,23.75 C26.9375,23.75 27.5,24.3125 27.5,25 L27.5,26.25 L28.75,26.25 L28.75,25 C28.75,23.625 27.625,22.5 26.25,22.5 L23.75,22.5 C22.375,22.5 21.25,23.625 21.25,25 L21.25,26.25 L22.5,26.25 Z" id="Path" fill="#101828" fill-rule="nonzero"></path>
                    <path d="M22.75,10 L22.7875,10.0125 L26.0125,13.1125 C26.45,13.525 27.0125,13.75 27.6125,13.75 L33.6875,13.75 C33.725,13.75 33.75,13.7625 33.7625,13.7625 C33.7625,13.7625 33.7625,13.7625 33.7625,13.7625 L33.725,28.75 L6.25,28.775 L6.25,10 L22.75,10 L22.75,10 Z M22.75,8.75 L6.25,8.75 C5.5625,8.75 5,9.2875 5,9.95 L5,28.7625 C5,29.45 5.575,30 6.2875,30 L33.725,30 C34.425,30 35,29.45 35,28.775 L35,13.7625 C35,13.0625 34.4125,12.5 33.675,12.5 L27.6,12.5 C27.325,12.5 27.05,12.4 26.8625,12.2 L23.6375,9.1 C23.4,8.875 23.075,8.75 22.75,8.75 L22.75,8.75 Z" id="Shape" fill="#101828" fill-rule="nonzero"></path>
                    <rect id="Rectangle" x="0" y="0" width="40" height="40"></rect>
                </g>
            </g>
        </g>
    </g>
</svg>