<?xml version="1.0" encoding="UTF-8"?>
<svg width="32px" height="32px" viewBox="0 0 32 32" version="1.1" xmlns="http://www.w3.org/2000/svg" xmlns:xlink="http://www.w3.org/1999/xlink">
    <!-- Generator: Sketch 59.1 (86144) - https://sketch.com -->
    <title>267-B32px</title>
    <desc>Created with Sketch.</desc>
    <g id="267-B32px" stroke="none" stroke-width="1" fill="none" fill-rule="evenodd">
        <g>
            <rect id="Rectangle" x="0" y="0" width="32" height="32"></rect>
            <g id="Group" transform="translate(2.000000, 4.000000)" fill="#101828" fill-rule="nonzero">
                <path d="M15.2,4.7 L15.2,6.4 L13.5,6.4 L13.5,4.7 L15.2,4.7 M16.1,3.9 L12.8,3.9 L12.8,7.2 L16.1,7.2 L16.1,3.9 L16.1,3.9 Z" id="Shape"></path>
                <path d="M19.7,4.7 L19.7,6.4 L18,6.4 L18,4.7 L19.7,4.7 M20.6,3.9 L17.3,3.9 L17.3,7.2 L20.6,7.2 L20.6,3.9 L20.6,3.9 Z" id="Shape"></path>
                <path d="M10.7,4.7 L10.7,6.4 L9,6.4 L9,4.7 L10.7,4.7 M11.5,3.9 L8.2,3.9 L8.2,7.2 L11.5,7.2 L11.5,3.9 L11.5,3.9 Z" id="Shape"></path>
                <path d="M6.2,10.3 L6.2,12 L4.5,12 L4.5,10.3 L6.2,10.3 M7,9.4 L3.7,9.4 L3.7,12.7 L7,12.7 L7,9.4 L7,9.4 Z" id="Shape"></path>
                <path d="M10.7,10.3 L10.7,12 L9,12 L9,10.3 L10.7,10.3 M11.5,9.4 L8.2,9.4 L8.2,12.7 L11.5,12.7 L11.5,9.4 L11.5,9.4 Z" id="Shape"></path>
                <path d="M15.2,10.3 L15.2,12 L13.5,12 L13.5,10.3 L15.2,10.3 M16.1,9.4 L12.8,9.4 L12.8,12.7 L16.1,12.7 L16.1,9.4 L16.1,9.4 Z" id="Shape"></path>
                <path d="M18,12.8 L18,12 L18,10.3 L19.7,10.3 L19.7,11.7 C19.9,11.6 20,11.6 20.5,11.6 C20.5,11.6 20.5,11.6 20.6,11.6 L20.6,9.5 L17.3,9.5 L17.3,12.8" id="Path"></path>
                <path d="M6.2,4.7 L6.2,6.4 L4.5,6.4 L4.5,4.7 L6.2,4.7 M7,3.9 L3.7,3.9 L3.7,7.2 L7,7.2 L7,3.9 L7,3.9 Z" id="Shape"></path>
                <g transform="translate(16.000000, 12.000000)">
                    <polygon id="Path" points="6.8 6 6.8 3.5 5.8 3.5 5.8 6.5 5.8 6.5 7.8 8.5 8.5 7.8"></polygon>
                    <path d="M6.3,1.5 C8.8,1.5 10.8,3.5 10.8,6 C10.8,8.5 8.8,10.5 6.3,10.5 C3.8,10.5 1.8,8.5 1.8,6 C1.8,3.5 3.8,1.5 6.3,1.5 M6.3,0.5 C3.3,0.5 0.8,3 0.8,6 C0.8,9 3.3,11.5 6.3,11.5 C9.3,11.5 11.8,9 11.8,6 C11.9,2.9 9.4,0.5 6.3,0.5 L6.3,0.5 Z" id="Shape"></path>
                </g>
                <path d="M1.2,15.6 L1.2,1.6 C1.2,1.6 1.2,1.5 1.3,1.5 L23.4,1.5 C23.4,1.5 23.5,1.5 23.5,1.6 L23.5,11.6 L24.5,11.6 L24.5,1.6 C24.5,1 24,0.5 23.4,0.5 L1.2,0.5 C0.6,0.5 0.1,1 0.1,1.6 L0.1,15.6 C0.1,16.2 0.6,16.7 1.2,16.7 L16.3,16.7 C16.3,16.4 16.4,16 16.5,15.7 L1.2,15.6 C1.2,15.6 1.2,15.6 1.2,15.6 Z" id="Path"></path>
            </g>
        </g>
    </g>
</svg>