<?xml version="1.0" encoding="UTF-8"?>
<svg width="32px" height="32px" viewBox="0 0 32 32" version="1.1" xmlns="http://www.w3.org/2000/svg" xmlns:xlink="http://www.w3.org/1999/xlink">
    <!-- Generator: Sketch 57.1 (83088) - https://sketch.com -->
    <title>173-B32px</title>
    <desc>Created with Sketch.</desc>
    <g id="173-B32px" stroke="none" stroke-width="1" fill="none" fill-rule="evenodd">
        <g>
            <path d="M26.98,10 L27,10.02 L26.98,21.01 L5,20.99 L5.02,10 L26.98,10 L26.98,10 Z M26.98,9 L5.02,9 C4.46,9 4,9.46 4,10.02 L4,20.99 C4,21.55 4.46,22.01 5.02,22.01 L26.98,22.01 C27.54,22.01 28,21.55 28,20.99 L28,10.02 C28,9.46 27.54,9 26.98,9 L26.98,9 Z" id="Shape" fill="#101828" fill-rule="nonzero"></path>
            <path d="M15.99,21.94 C11.68,21.94 8.45,22.6 7.01,22.96 L7.01,23.99 C8.25,23.67 11.55,22.94 15.99,22.94 C20.47,22.94 23.8,23.68 25.01,24 L25.01,22.97 C23.58,22.61 20.34,21.94 15.99,21.94 Z" id="Path" fill="#101828" fill-rule="nonzero"></path>
            <polygon id="Path" fill="#101828" fill-rule="nonzero" points="11.97 13 11.97 14 11.97 18 12.97 18 12.97 13"></polygon>
            <polygon id="Path" fill="#101828" fill-rule="nonzero" points="11.96 13 11.94 13.02 10.63 14.29 11.33 15 12.9 13.48 12.42 13"></polygon>
            <path d="M15.47,16 C15.75,16 15.97,16.22 15.97,16.5 C15.97,16.78 15.75,17 15.47,17 C15.19,17 14.97,16.78 14.97,16.5 C14.97,16.22 15.19,16 15.47,16 L15.47,16 Z M15.47,15 C14.64,15 13.97,15.67 13.97,16.5 C13.97,17.33 14.64,18 15.47,18 C16.3,18 16.97,17.33 16.97,16.5 C16.97,15.67 16.3,15 15.47,15 L15.47,15 Z" id="Shape" fill="#101828" fill-rule="nonzero"></path>
            <path d="M15.47,14 C15.75,14 15.97,14.22 15.97,14.5 C15.97,14.78 15.75,15 15.47,15 C15.19,15 14.97,14.78 14.97,14.5 C14.97,14.22 15.19,14 15.47,14 L15.47,14 Z M15.47,13 C14.64,13 13.97,13.67 13.97,14.5 C13.97,15.33 14.64,16 15.47,16 C16.3,16 16.97,15.33 16.97,14.5 C16.97,13.67 16.3,13 15.47,13 L15.47,13 Z" id="Shape" fill="#101828" fill-rule="nonzero"></path>
            <polygon id="Path" fill="#101828" fill-rule="nonzero" points="18.97 14 19.97 14 19.97 15 20.97 15 20.97 16 19.97 16 19.97 17 18.97 17 18.97 16 17.97 16 17.97 15 18.97 15"></polygon>
            <rect id="Rectangle" x="0" y="0" width="32" height="32"></rect>
        </g>
    </g>
</svg>