<?xml version="1.0" encoding="UTF-8"?>
<svg width="80px" height="80px" viewBox="0 0 80 80" version="1.1" xmlns="http://www.w3.org/2000/svg" xmlns:xlink="http://www.w3.org/1999/xlink">
    <!-- Generator: Sketch 57.1 (83088) - https://sketch.com -->
    <title>236-G80px</title>
    <desc>Created with Sketch.</desc>
    <g id="NEW_icons" stroke="none" stroke-width="1" fill="none" fill-rule="evenodd">
        <g id="icons_UD_new-Copy" transform="translate(-768.000000, -30110.000000)">
            <g id="236-G80px" transform="translate(768.000000, 30110.000000)">
                <circle id="Oval-Copy-1362" fill="#E3E8EC" cx="40" cy="40" r="40"></circle>
                <g id="236-B32px-Copy-6" transform="translate(12.000000, 16.000000)">
                    <path d="M28,17.5 C30.415,17.5 32.375,19.46 32.375,21.875 C32.375,23.2925 31.675,24.64 30.5025,25.4625 L29.75,25.9875 L29.75,26.8975 L29.75,35 L26.25,35 L26.25,26.8975 L26.25,25.9875 L25.4975,25.4625 C24.325,24.64 23.625,23.2925 23.625,21.875 C23.625,19.46 25.585,17.5 28,17.5 L28,17.5 Z M28,15.75 C24.6225,15.75 21.875,18.4975 21.875,21.875 C21.875,23.9575 22.925,25.7775 24.5,26.8975 L24.5,36.75 L31.5,36.75 L31.5,26.8975 C33.0925,25.795 34.125,23.9575 34.125,21.875 C34.125,18.4975 31.3775,15.75 28,15.75 L28,15.75 Z" id="Shape" fill="#101828" fill-rule="nonzero"></path>
                    <path d="M47.25,8.75 L47.25,12.25 C47.25,17.7275 46.1125,25.8825 44.2225,30.065 C41.615,35.805 36.715,43.365 28,47.11 C19.285,43.365 14.3675,35.805 11.7775,30.065 C9.8875,25.8825 8.75,17.71 8.75,12.25 L8.75,8.75 L47.25,8.75 L47.25,8.75 Z M49,7 L7,7 L7,12.25 C7,17.43 8.05,26.0575 10.185,30.7825 C13.1075,37.24 18.48,45.185 28,49 C37.52,45.185 42.8925,37.24 45.815,30.7825 C47.95,26.0575 49,17.43 49,12.25 L49,7 L49,7 Z" id="Shape" fill="#101828" fill-rule="nonzero"></path>
                    <rect id="Rectangle" x="0" y="0" width="56" height="56"></rect>
                </g>
            </g>
        </g>
    </g>
</svg>