<?xml version="1.0" encoding="UTF-8"?>
<svg width="32px" height="32px" viewBox="0 0 32 32" version="1.1" xmlns="http://www.w3.org/2000/svg" xmlns:xlink="http://www.w3.org/1999/xlink">
    <!-- Generator: Sketch 57.1 (83088) - https://sketch.com -->
    <title>032-B32px</title>
    <desc>Created with Sketch.</desc>
    <g id="032-B32px" stroke="none" stroke-width="1" fill="none" fill-rule="evenodd">
        <g>
            <path d="M13,10 C13.55,10 14,10.45 14,11 C14,11.55 13.55,12 13,12 C12.45,12 12,11.55 12,11 C12,10.45 12.45,10 13,10 L13,10 Z M13,9 C11.9,9 11,9.9 11,11 C11,12.1 11.9,13 13,13 C14.1,13 15,12.1 15,11 C15,9.9 14.1,9 13,9 L13,9 Z" id="Shape" fill="#101828" fill-rule="nonzero"></path>
            <rect id="Rectangle" fill="#101828" fill-rule="nonzero" x="12.5" y="19.03" width="1" height="8.97"></rect>
            <path d="M22.5,18 C24.98,18 27,20.02 27,22.5 C27,24.98 24.98,27 22.5,27 C20.02,27 18,24.98 18,22.5 C18,20.02 20.02,18 22.5,18 L22.5,18 Z M22.5,17 C19.46,17 17,19.46 17,22.5 C17,25.54 19.46,28 22.5,28 C25.54,28 28,25.54 28,22.5 C28,19.46 25.54,17 22.5,17 L22.5,17 Z" id="Shape" fill="#101828" fill-rule="nonzero"></path>
            <path d="M20.86,21.3 C21.24,22.68 22.32,23.77 23.7,24.14 C23.37,24.37 22.97,24.5 22.54,24.5 C21.41,24.5 20.49,23.58 20.49,22.45 C20.5,22.03 20.63,21.63 20.86,21.3 L20.86,21.3 Z M21.82,19.5 C20.49,19.83 19.5,21.02 19.5,22.45 C19.5,24.13 20.87,25.5 22.55,25.5 C23.98,25.5 25.17,24.51 25.5,23.18 C25.26,23.24 25.02,23.28 24.77,23.28 C23.09,23.28 21.72,21.91 21.72,20.23 C21.72,19.98 21.76,19.74 21.82,19.5 L21.82,19.5 Z" id="Shape" fill="#101828" fill-rule="nonzero"></path>
            <path d="M18,15.51 L18,11 C18,6.56 13.03,4 13.03,4 C13.03,4 8,6.48 8,11 C8,12.27 8,14.09 8,16.04 C5.75,16.26 4,17.94 4,20 L4,26 L9,24.33 L9,24.33 L9,11 C9,7.9 11.89,5.84 13.03,5.15 C14.15,5.86 17,7.95 17,11 L17,15.83 L17,16 L17,17 L17,17.04 L17,19.04 C17.28,18.59 17.62,18.18 18,17.81 L18,17.26 L18,17.26 L18,15.51 L18,15.51 Z M8,23.62 L5,24.62 L5,20 C5,18.49 6.31,17.25 8,17.04 C8,19.36 8,21.75 8,23.62 Z" id="Shape" fill="#101828" fill-rule="nonzero"></path>
            <rect id="Rectangle" x="0" y="0" width="32" height="32"></rect>
        </g>
    </g>
</svg>