<?xml version="1.0" encoding="UTF-8"?>
<svg width="80px" height="80px" viewBox="0 0 80 80" version="1.1" xmlns="http://www.w3.org/2000/svg" xmlns:xlink="http://www.w3.org/1999/xlink">
    <!-- Generator: Sketch 57.1 (83088) - https://sketch.com -->
    <title>144-C80px</title>
    <desc>Created with Sketch.</desc>
    <g id="NEW_icons" stroke="none" stroke-width="1" fill="none" fill-rule="evenodd">
        <g id="icons_UD_new-Copy" transform="translate(-1002.000000, -18551.000000)">
            <g id="144-C80px" transform="translate(1002.000000, 18551.000000)">
                <circle id="Oval-Copy-899" fill="#FF4F12" cx="40" cy="40" r="40"></circle>
                <g id="144-B32px-Copy-9" transform="translate(12.000000, 12.000000)">
                    <path d="M19.215,12.25 L19.215,14 L13.965,14 L13.965,12.25 L19.215,12.25 L19.215,12.25 Z M19.215,10.5 L13.965,10.5 C13.0025,10.5 12.215,11.2875 12.215,12.25 L12.215,14 C12.215,14.9625 13.0025,15.75 13.965,15.75 L19.215,15.75 C20.1775,15.75 20.965,14.9625 20.965,14 L20.965,12.25 C20.965,11.2875 20.1775,10.5 19.215,10.5 L19.215,10.5 Z" id="Shape" fill="#FFFFFF" fill-rule="nonzero"></path>
                    <path d="M34.0725,22.75 C36.96,22.75 39.3225,25.1125 39.3225,28 C39.3225,30.8875 36.96,33.25 34.0725,33.25 C31.185,33.25 28.8225,30.8875 28.8225,28 C28.8225,25.1125 31.185,22.75 34.0725,22.75 L34.0725,22.75 Z M34.0725,21 C30.205,21 27.0725,24.1325 27.0725,28 C27.0725,31.8675 30.205,35 34.0725,35 C37.94,35 41.0725,31.8675 41.0725,28 C41.0725,24.1325 37.94,21 34.0725,21 L34.0725,21 Z" id="Shape" fill="#FFFFFF" fill-rule="nonzero"></path>
                    <path d="M34.0725,19.25 C38.9025,19.25 42.8225,23.17 42.8225,28 C42.8225,32.83 38.9025,36.75 34.0725,36.75 C29.2425,36.75 25.3225,32.83 25.3225,28 C25.3225,23.17 29.26,19.25 34.0725,19.25 L34.0725,19.25 Z M34.0725,17.5 C28.28,17.5 23.5725,22.2075 23.5725,28 C23.5725,33.7925 28.28,38.5 34.0725,38.5 C39.865,38.5 44.5725,33.7925 44.5725,28 C44.5725,22.2075 39.8825,17.5 34.0725,17.5 L34.0725,17.5 Z" id="Shape" fill="#FFFFFF" fill-rule="nonzero"></path>
                    <path d="M13.965,19.25 C13.0025,19.25 12.215,20.0375 12.215,21 C12.215,21.9625 13.0025,22.75 13.965,22.75 C14.9275,22.75 15.715,21.9625 15.715,21 C15.715,20.0375 14.9275,19.25 13.965,19.25 L13.965,19.25 Z" id="Path" fill="#FFFFFF" fill-rule="nonzero"></path>
                    <path d="M40.8625,12.25 L42.1225,14.7875 L42.6125,15.75 L43.6975,15.75 L47.25,15.715 L47.285,42 L8.75,42.035 L8.715,15.75 L24.465,15.75 L25.55,15.75 L26.04,14.7875 L27.2825,12.25 L40.8625,12.25 L40.8625,12.25 Z M41.9475,10.5 L26.1975,10.5 L24.4475,14 L8.6975,14 C7.77,14 7,14.77 7,15.715 L7,42.035 C7,42.98 7.77,43.75 8.715,43.75 L47.285,43.75 C48.23,43.75 49,42.98 49,42.035 L49,15.715 C49,14.77 48.23,14 47.285,14 L43.6975,14 L41.9475,10.5 L41.9475,10.5 Z" id="Shape" fill="#FFFFFF" fill-rule="nonzero"></path>
                    <rect id="Rectangle" x="0" y="0" width="56" height="56"></rect>
                </g>
            </g>
        </g>
    </g>
</svg>