<?xml version="1.0" encoding="UTF-8"?>
<svg width="80px" height="80px" viewBox="0 0 80 80" version="1.1" xmlns="http://www.w3.org/2000/svg" xmlns:xlink="http://www.w3.org/1999/xlink">
    <!-- Generator: Sketch 57.1 (83088) - https://sketch.com -->
    <title>227-B80px</title>
    <desc>Created with Sketch.</desc>
    <g id="227-B80px" stroke="none" stroke-width="1" fill="none" fill-rule="evenodd">
        <g>
            <path d="M45,17.25 L58.1,26.25 L45,35.25 L45,32.5 L45,30 L42.5,30 L32.5,30 L32.5,22.5 L42.5,22.5 L45,22.5 L45,20 L45,17.25 L45,17.25 Z M42.5,12.5 L42.5,20 L30,20 L30,32.5 L42.5,32.5 L42.5,40 L62.5,26.25 L42.5,12.5 L42.5,12.5 Z" id="Shape" fill="#101828" fill-rule="nonzero"></path>
            <path d="M35,44.75 L35,47.5 L35,50 L37.5,50 L47.5,50 L47.5,57.5 L37.5,57.5 L35,57.5 L35,60 L35,62.75 L21.9,53.75 L35,44.75 L35,44.75 Z M37.5,40 L17.5,53.75 L37.5,67.5 L37.5,60 L50,60 L50,47.5 L37.5,47.5 L37.5,40 L37.5,40 Z" id="Shape" fill="#101828" fill-rule="nonzero"></path>
            <rect id="Rectangle" fill="#101828" fill-rule="nonzero" x="10" y="20" width="17.5" height="2.5"></rect>
            <rect id="Rectangle" fill="#101828" fill-rule="nonzero" x="15" y="25" width="12.5" height="2.5"></rect>
            <rect id="Rectangle" fill="#101828" fill-rule="nonzero" x="22.55" y="30" width="4.95" height="2.5"></rect>
            <rect id="Rectangle" fill="#101828" fill-rule="nonzero" x="52.5" y="47.5" width="17.5" height="2.5"></rect>
            <rect id="Rectangle" fill="#101828" fill-rule="nonzero" x="52.5" y="52.5" width="12.5" height="2.5"></rect>
            <rect id="Rectangle" fill="#101828" fill-rule="nonzero" x="52.5" y="57.5" width="4.95" height="2.5"></rect>
            <rect id="Rectangle" x="0" y="0" width="80" height="80"></rect>
        </g>
    </g>
</svg>