<?xml version="1.0" encoding="UTF-8"?>
<svg width="56px" height="56px" viewBox="0 0 56 56" version="1.1" xmlns="http://www.w3.org/2000/svg" xmlns:xlink="http://www.w3.org/1999/xlink">
    <!-- Generator: Sketch 57.1 (83088) - https://sketch.com -->
    <title>077-W56px</title>
    <desc>Created with Sketch.</desc>
    <g id="NEW_icons" stroke="none" stroke-width="1" fill="none" fill-rule="evenodd">
        <g id="icons_UD_new-Copy" transform="translate(-1814.000000, -10040.000000)">
            <g id="077-W56px" transform="translate(1814.000000, 10040.000000)">
                <g id="003-B32px-Copy-111" transform="translate(8.000000, 8.000000)">
                    <g id="Group" transform="translate(10.000000, 5.000000)" fill="#FFFFFF" fill-rule="nonzero">
                        <path d="M18.6875,0 L1.3125,0 C0.5875,0 0,0.5875 0,1.3125 L0,23.75 L0,25 L0,28.6875 C0,29.4125 0.5875,30 1.3125,30 L18.6875,30 C19.4125,30 20,29.4125 20,28.6875 L20,25 L20,23.75 L20,1.3125 C20,0.5875 19.4125,0 18.6875,0 Z M18.75,28.6875 C18.75,28.725 18.725,28.75 18.6875,28.75 L1.3125,28.75 C1.275,28.75 1.25,28.725 1.25,28.6875 L1.25,25 L18.75,25 L18.75,28.6875 Z M1.25,23.75 L1.25,1.3125 C1.25,1.275 1.275,1.25 1.3125,1.25 L18.6875,1.25 C18.725,1.25 18.75,1.275 18.75,1.3125 L18.75,23.75 L1.25,23.75 Z" id="Shape"></path>
                        <path d="M10,27.4875 C10.3375,27.4875 10.625,27.2125 10.625,26.8625 C10.625,26.525 10.35,26.2375 10,26.2375 C9.65,26.2375 9.375,26.5125 9.375,26.8625 C9.375,27.2125 9.6625,27.4875 10,27.4875 Z" id="Path"></path>
                        <path d="M12.5125,20 L7.5,20.0125 L7.5,16.25 L6.25,16.25 L6.25,20.0125 C6.25,20.6875 6.8,21.25 7.4875,21.25 L12.525,21.25 C13.2,21.25 13.7625,20.7 13.7625,20.0125 L13.7625,16.25 L12.5125,16.25 L12.5125,20 Z" id="Path"></path>
                        <polygon id="Path" points="4.775 15.575 5.5625 16.5375 10 12.875 14.4375 16.5375 15.225 15.575 10 11.2625"></polygon>
                        <path d="M12.6,7.3125 C11.925,6.65 11.0125,6.25 10,6.25 C8.9625,6.25 8.025,6.675 7.35,7.35 L8.2375,8.2375 C8.6875,7.775 9.3125,7.5 10,7.5 C10.6625,7.5 11.275,7.7625 11.7125,8.1875 L12.6,7.3125 Z" id="Path"></path>
                        <path d="M9.1125,9.1125 L9.95,9.95 L10.825,9.075 C10.6125,8.875 10.325,8.75 10,8.75 C9.65,8.75 9.3375,8.8875 9.1125,9.1125 Z" id="Path"></path>
                        <path d="M10,5 C11.35,5 12.5875,5.55 13.4875,6.425 L14.375,5.5375 C13.2375,4.4375 11.7,3.75 10,3.75 C8.275,3.75 6.7125,4.45 5.575,5.575 L6.4625,6.4625 C7.375,5.5625 8.625,5 10,5 Z" id="Path"></path>
                    </g>
                    <rect id="Rectangle" x="0" y="0" width="40" height="40"></rect>
                </g>
                <circle id="Oval-Copy-509" fill="#101828" cx="28" cy="28" r="28"></circle>
                <g id="077-B32px-Copy-6" transform="translate(8.000000, 8.000000)">
                    <path d="M28.6875,6.25 C28.725,6.25 28.75,6.275 28.75,6.3125 L28.75,33.6875 C28.75,33.725 28.725,33.75 28.6875,33.75 L11.3125,33.75 C11.275,33.75 11.25,33.725 11.25,33.6875 L11.25,6.3125 C11.25,6.275 11.275,6.25 11.3125,6.25 L28.6875,6.25 L28.6875,6.25 Z M28.6875,5 L11.3125,5 C10.5875,5 10,5.5875 10,6.3125 L10,33.6875 C10,34.4125 10.5875,35 11.3125,35 L28.6875,35 C29.4125,35 30,34.4125 30,33.6875 L30,6.3125 C30,5.5875 29.4125,5 28.6875,5 L28.6875,5 Z" id="Shape" fill="#FFFFFF" fill-rule="nonzero"></path>
                    <path d="M20,32.5 C20.3375,32.5 20.625,32.225 20.625,31.875 C20.625,31.525 20.3375,31.25 20,31.25 C19.6625,31.25 19.375,31.525 19.375,31.875 C19.375,32.225 19.6625,32.5 20,32.5" id="Path" fill="#FFFFFF" fill-rule="nonzero"></path>
                    <rect id="Rectangle" fill="#FFFFFF" fill-rule="nonzero" x="10" y="28.75" width="20" height="1.25"></rect>
                    <path d="M25,22.5 L25,25 L22.5,25 L22.5,22.5 L25,22.5 L25,22.5 Z M25,21.25 L22.5,21.25 C21.8125,21.25 21.25,21.8125 21.25,22.5 L21.25,25 C21.25,25.6875 21.8125,26.25 22.5,26.25 L25,26.25 C25.6875,26.25 26.25,25.6875 26.25,25 L26.25,22.5 C26.25,21.8125 25.6875,21.25 25,21.25 L25,21.25 Z" id="Shape" fill="#FFFFFF" fill-rule="nonzero"></path>
                    <path d="M17.5,22.5 L17.5,25 L15,25 L15,22.5 L17.5,22.5 L17.5,22.5 Z M17.5,21.25 L15,21.25 C14.3125,21.25 13.75,21.8125 13.75,22.5 L13.75,25 C13.75,25.6875 14.3125,26.25 15,26.25 L17.5,26.25 C18.1875,26.25 18.75,25.6875 18.75,25 L18.75,22.5 C18.75,21.8125 18.1875,21.25 17.5,21.25 L17.5,21.25 Z" id="Shape" fill="#FFFFFF" fill-rule="nonzero"></path>
                    <path d="M25,16.25 L25,18.75 L22.5,18.75 L22.5,16.25 L25,16.25 L25,16.25 Z M25,15 L22.5,15 C21.8125,15 21.25,15.5625 21.25,16.25 L21.25,18.75 C21.25,19.4375 21.8125,20 22.5,20 L25,20 C25.6875,20 26.25,19.4375 26.25,18.75 L26.25,16.25 C26.25,15.5625 25.6875,15 25,15 L25,15 Z" id="Shape" fill="#FFFFFF" fill-rule="nonzero"></path>
                    <path d="M17.5,16.25 L17.5,18.75 L15,18.75 L15,16.25 L17.5,16.25 L17.5,16.25 Z M17.5,15 L15,15 C14.3125,15 13.75,15.5625 13.75,16.25 L13.75,18.75 C13.75,19.4375 14.3125,20 15,20 L17.5,20 C18.1875,20 18.75,19.4375 18.75,18.75 L18.75,16.25 C18.75,15.5625 18.1875,15 17.5,15 L17.5,15 Z" id="Shape" fill="#FFFFFF" fill-rule="nonzero"></path>
                    <path d="M25,10 L25,12.5 L22.5,12.5 L22.5,10 L25,10 L25,10 Z M25,8.75 L22.5,8.75 C21.8125,8.75 21.25,9.3125 21.25,10 L21.25,12.5 C21.25,13.1875 21.8125,13.75 22.5,13.75 L25,13.75 C25.6875,13.75 26.25,13.1875 26.25,12.5 L26.25,10 C26.25,9.3125 25.6875,8.75 25,8.75 L25,8.75 Z" id="Shape" fill="#FFFFFF" fill-rule="nonzero"></path>
                    <path d="M17.5,10 L17.5,12.5 L15,12.5 L15,10 L17.5,10 L17.5,10 Z M17.5,8.75 L15,8.75 C14.3125,8.75 13.75,9.3125 13.75,10 L13.75,12.5 C13.75,13.1875 14.3125,13.75 15,13.75 L17.5,13.75 C18.1875,13.75 18.75,13.1875 18.75,12.5 L18.75,10 C18.75,9.3125 18.1875,8.75 17.5,8.75 L17.5,8.75 Z" id="Shape" fill="#FFFFFF" fill-rule="nonzero"></path>
                    <rect id="Rectangle" x="0" y="0" width="40" height="40"></rect>
                </g>
            </g>
        </g>
    </g>
</svg>