<?xml version="1.0" encoding="UTF-8"?>
<svg width="56px" height="56px" viewBox="0 0 56 56" version="1.1" xmlns="http://www.w3.org/2000/svg" xmlns:xlink="http://www.w3.org/1999/xlink">
    <!-- Generator: Sketch 56.3 (81716) - https://sketch.com -->
    <title>016-W56px</title>
    <desc>Created with Sketch.</desc>
    <g id="NEW_icons" stroke="none" stroke-width="1" fill="none" fill-rule="evenodd">
        <g id="icons_UD_new-Copy" transform="translate(-532.000000, -2357.000000)">
            <g id="016-W56px" transform="translate(532.000000, 2357.000000)">
                <circle id="Oval-Copy-184" fill="#101828" cx="28" cy="28" r="28"></circle>
                <g id="016-B32px-Copy-5" transform="translate(8.000000, 8.000000)">
                    <rect id="Rectangle" fill="#FFFFFF" fill-rule="nonzero" x="19.375" y="6.25" width="1.25" height="28.425"></rect>
                    <path d="M20,6.25 C27.5875,6.25 33.75,12.4125 33.75,20 C33.75,27.5875 27.5875,33.75 20,33.75 C12.4125,33.75 6.25,27.5875 6.25,20 C6.25,12.4125 12.4125,6.25 20,6.25 L20,6.25 Z M20,5 C11.7125,5 5,11.7125 5,20 C5,28.2875 11.7125,35 20,35 C28.2875,35 35,28.2875 35,20 C35,11.7125 28.2875,5 20,5 L20,5 Z" id="Shape" fill="#FFFFFF" fill-rule="nonzero"></path>
                    <path d="M20,6.25 C24.0625,6.25 27.5,12.55 27.5,20 C27.5,27.45 24.0625,33.75 20,33.75 C15.9375,33.75 12.5,27.45 12.5,20 C12.5,12.55 15.9375,6.25 20,6.25 L20,6.25 Z M20,5 C15.1625,5 11.25,11.7125 11.25,20 C11.25,28.2875 15.1625,35 20,35 C24.8375,35 28.75,28.2875 28.75,20 C28.75,11.7125 24.8375,5 20,5 L20,5 Z" id="Shape" fill="#FFFFFF" fill-rule="nonzero"></path>
                    <rect id="Rectangle" fill="#FFFFFF" fill-rule="nonzero" x="7.3625" y="25.6875" width="25.2625" height="1.25"></rect>
                    <rect id="Rectangle" fill="#FFFFFF" fill-rule="nonzero" x="7.3625" y="13.0625" width="25.2625" height="1.25"></rect>
                    <rect id="Rectangle" fill="#FFFFFF" fill-rule="nonzero" x="5.7875" y="19.375" width="28.425" height="1.25"></rect>
                    <rect id="Rectangle" x="0" y="0" width="40" height="40"></rect>
                </g>
            </g>
        </g>
    </g>
</svg>