<?xml version="1.0" encoding="UTF-8"?>
<svg width="80px" height="80px" viewBox="0 0 80 80" version="1.1" xmlns="http://www.w3.org/2000/svg" xmlns:xlink="http://www.w3.org/1999/xlink">
    <!-- Generator: Sketch 58 (84663) - https://sketch.com -->
    <title>251-C80px</title>
    <desc>Created with Sketch.</desc>
    <g id="NEW_icons" stroke="none" stroke-width="1" fill="none" fill-rule="evenodd">
        <g id="icons_UD_new-Copy" transform="translate(-2284.000000, -31866.000000)">
            <g id="251-C80px" transform="translate(2284.000000, 31866.000000)">
                <circle id="Oval-Copy-1448" fill="#FF4F12" cx="40" cy="40" r="40"></circle>
                <g id="251-B32px-Copy-9" transform="translate(12.000000, 12.000000)">
                    <path d="M38.85,33.705 L40.4075,36.8725 L40.81,37.695 L41.72,37.835 L45.2025,38.3425 L42.6825,40.7925 L42.0175,41.44 L42.175,42.35 L42.77,45.815 L39.655,44.17 L38.8325,43.75 L38.01,44.17 L34.895,45.815 L35.49,42.35 L35.6475,41.44 L34.9825,40.7925 L32.4625,38.3425 L35.945,37.835 L36.855,37.695 L37.2575,36.8725 L38.85,33.705 L38.85,33.705 Z M38.85,29.75 L35.7175,36.085 L28.7175,37.1 L33.775,42.035 L32.6025,49 L38.8675,45.71 L45.115,49 L43.925,42.035 L48.9825,37.1 L41.9825,36.085 L38.85,29.75 L38.85,29.75 Z" id="Shape" fill="#FFFFFF" fill-rule="nonzero"></path>
                    <path d="M33.8975,27.2125 C33.53,26.8275 33.04,26.635 32.55,26.635 C32.0775,26.635 31.5875,26.81 31.22,27.1775 L28.1575,30.135 C28.1575,30.135 24.4125,28.4725 22.295,26.285 C20.1775,24.0975 18.6375,20.3 18.6375,20.3 L21.7,17.3425 C22.4525,16.6075 22.4875,15.4175 21.7525,14.665 L14.84,7.5425 C14.4725,7.1575 13.9825,6.965 13.4925,6.965 C13.02,6.965 12.53,7.14 12.1625,7.5075 L7.5775,11.935 C7.14,12.3725 6.9475,12.985 7.0175,13.5975 C8.1025,22.7325 16.7475,31.6575 16.7475,31.6575 C16.7475,31.6575 21,36.0325 26.705,39.1475 L26.705,37.135 C21.735,34.2475 18.06,30.485 17.99,30.4325 C17.92,30.3625 9.7475,21.84 8.75,13.3875 C8.75,13.335 8.75,13.2475 8.8025,13.195 L13.3875,8.7675 C13.4225,8.7325 13.4575,8.715 13.51,8.715 C13.545,8.715 13.58,8.75 13.58,8.75 L20.4925,15.89 C20.545,15.9425 20.5275,16.0475 20.475,16.1 L17.4125,19.0575 L16.5725,19.88 L17.01,20.965 C17.08,21.14 18.7075,25.1125 21.035,27.51 C23.3625,29.9075 27.2825,31.675 27.4575,31.745 L28.5425,32.2175 L29.3825,31.395 L32.445,28.4375 C32.48,28.4025 32.515,28.385 32.5675,28.385 C32.62,28.385 32.655,28.42 32.655,28.42 L36.0675,31.9375 L36.89,30.275 L33.8975,27.2125 Z" id="Path" fill="#FFFFFF" fill-rule="nonzero"></path>
                    <rect id="Rectangle" x="0" y="0" width="56" height="56"></rect>
                </g>
            </g>
        </g>
    </g>
</svg>