<?xml version="1.0" encoding="UTF-8"?>
<svg width="80px" height="80px" viewBox="0 0 80 80" version="1.1" xmlns="http://www.w3.org/2000/svg" xmlns:xlink="http://www.w3.org/1999/xlink">
    <!-- Generator: Sketch 57.1 (83088) - https://sketch.com -->
    <title>081-B80px</title>
    <desc>Created with Sketch.</desc>
    <g id="081-B80px" stroke="none" stroke-width="1" fill="none" fill-rule="evenodd">
        <g>
            <path d="M35,65 C35.675,65 36.25,64.45 36.25,63.75 C36.25,63.05 35.675,62.5 35,62.5 C34.325,62.5 33.75,63.05 33.75,63.75 C33.75,64.45 34.325,65 35,65" id="Path" fill="#101828" fill-rule="nonzero"></path>
            <path d="M52.5,64.55 L52.5,67.375 C52.5,67.45 52.45,67.5 52.375,67.5 L17.625,67.5 C17.55,67.5 17.5,67.45 17.5,67.375 L17.5,12.625 C17.5,12.55 17.55,12.5 17.625,12.5 L52.375,12.5 C52.45,12.5 52.5,12.55 52.5,12.625 L52.5,32.95 C53.3,32.75 54.15,32.625 55,32.55 L55,12.625 C55,11.175 53.825,10 52.375,10 L17.625,10 C16.175,10 15,11.175 15,12.625 L15,67.375 C15,68.825 16.175,70 17.625,70 L52.375,70 C53.825,70 55,68.825 55,67.375 L55,64.95 C54.15,64.875 53.3,64.75 52.5,64.55 Z" id="Path" fill="#101828" fill-rule="nonzero"></path>
            <path d="M42.575,57.5 L15,57.5 L15,60 L44.55,60 C43.8,59.225 43.15,58.4 42.575,57.5 Z" id="Path" fill="#101828" fill-rule="nonzero"></path>
            <path d="M56.25,37.5 C62.45,37.5 67.5,42.55 67.5,48.75 C67.5,54.95 62.45,60 56.25,60 C50.05,60 45,54.95 45,48.75 C45,42.55 50.05,37.5 56.25,37.5 L56.25,37.5 Z M56.25,35 C48.65,35 42.5,41.15 42.5,48.75 C42.5,56.35 48.65,62.5 56.25,62.5 C63.85,62.5 70,56.35 70,48.75 C70,41.15 63.85,35 56.25,35 L56.25,35 Z" id="Shape" fill="#101828" fill-rule="nonzero"></path>
            <g id="Group" transform="translate(47.500000, 37.500000)" fill="#101828" fill-rule="nonzero">
                <path d="M5.425,10.025 L2.9,7.4 C2.625,7.125 2.2,7.125 1.925,7.4 L0.25,9.025 C0.075,9.175 0.025,9.4 0.05,9.625 C0.45,12.975 3.625,16.25 3.625,16.25 C3.625,16.25 6.775,19.5 10.15,20.05 C10.375,20.075 10.575,20 10.75,19.85 L12.425,18.225 C12.7,17.95 12.7,17.525 12.45,17.25 L9.925,14.625 C9.65,14.35 9.225,14.35 8.95,14.625 L7.825,15.7 C7.825,15.7 6.45,15.1 5.675,14.3 C4.9,13.5 4.325,12.1 4.325,12.1 L5.45,11.025 C5.675,10.725 5.7,10.3 5.425,10.025 Z" id="Path"></path>
                <path d="M17.475,11.3 C16.85,6.8 13.125,3.075 8.65,2.45 L8.425,4.875 C11.825,5.275 14.65,8.125 15.05,11.525 L17.475,11.3 Z" id="Path"></path>
                <path d="M12.85,11.7 C12.4,9.425 10.525,7.525 8.225,7.075 L8,9.525 C9.175,9.775 10.125,10.725 10.375,11.925 L12.85,11.7 Z" id="Path"></path>
            </g>
            <rect id="Rectangle" x="0" y="0" width="80" height="80"></rect>
        </g>
    </g>
</svg>