<?xml version="1.0" encoding="UTF-8"?>
<svg width="80px" height="80px" viewBox="0 0 80 80" version="1.1" xmlns="http://www.w3.org/2000/svg" xmlns:xlink="http://www.w3.org/1999/xlink">
    <!-- Generator: Sketch 57.1 (83088) - https://sketch.com -->
    <title>188-G80px</title>
    <desc>Created with Sketch.</desc>
    <g id="NEW_icons" stroke="none" stroke-width="1" fill="none" fill-rule="evenodd">
        <g id="icons_UD_new-Copy" transform="translate(-768.000000, -24086.000000)">
            <g id="188-G80px" transform="translate(768.000000, 24086.000000)">
                <circle id="Oval-Copy-1248" fill="#E3E8EC" cx="40" cy="40" r="40"></circle>
                <g id="188-B32px-Copy-6" transform="translate(12.000000, 12.000000)">
                    <path d="M26.25,13.65 L28.1925,14.875 L26.25,16.1 L26.25,13.65 L26.25,13.65 Z M24.5,10.5 L24.5,19.25 L31.5,14.875 L24.5,10.5 L24.5,10.5 Z" id="Shape" fill="#101828" fill-rule="nonzero"></path>
                    <path d="M29.75,39.9 L29.75,42.3325 L27.8075,41.1075 L29.75,39.9 L29.75,39.9 Z M31.5,36.75 L24.5,41.125 L31.5,45.5 L31.5,36.75 L31.5,36.75 Z" id="Shape" fill="#101828" fill-rule="nonzero"></path>
                    <path d="M8.68,15.75 L25.375,15.75 L25.375,14 L8.68,14 C7.7525,14 7,14.7525 7,15.68 L7,40.3025 C7,41.2475 7.7525,42 8.68,42 L22.6625,42 L22.6625,40.2675 L8.75,40.32 L8.68,15.75 Z" id="Path" fill="#101828" fill-rule="nonzero"></path>
                    <path d="M47.1275,14 L33.25,14 L33.25,15.75 L47.1275,15.75 C47.1975,15.75 47.25,15.8025 47.25,15.8725 L47.25,40.11 C47.25,40.18 47.1975,40.2325 47.1275,40.2325 L31.5,40.2325 L31.5,41.9825 L47.1275,41.9825 C48.16,41.9825 49,41.1425 49,40.11 L49,15.8725 C49,14.84 48.16,14 47.1275,14 Z" id="Path" fill="#101828" fill-rule="nonzero"></path>
                    <path d="M17.5175,33.25 C14.49,33.25 12.25,31.15 12.25,28 C12.25,24.85 14.5775,22.75 17.5875,22.75 C19.74,22.75 21.2975,23.87 22.0325,25.2175 L20.405,26.18 C19.775,25.1475 18.9175,24.5 17.535,24.5 C15.7325,24.5 14.2275,25.8475 14.2275,27.9825 C14.2275,30.065 15.6975,31.465 17.535,31.465 C18.83,31.465 19.7925,30.905 20.5275,29.855 L22.155,30.765 C20.9825,32.4625 19.7575,33.25 17.5175,33.25 Z" id="Path" fill="#101828" fill-rule="nonzero"></path>
                    <path d="M25.4275,28.9975 L25.4275,33.25 L23.5375,33.25 L23.5375,22.75 L27.8075,22.75 C30.0125,22.75 31.36,23.905 31.36,25.725 C31.36,27.3525 30.4325,28.2975 29.0675,28.8225 L31.5,33.25 L29.3475,33.25 L27.0375,28.9975 L25.4275,28.9975 Z M27.8075,27.2475 C28.9625,27.2475 29.4875,26.705 29.4875,25.865 C29.4875,25.025 28.98,24.4825 27.8075,24.4825 L25.4275,24.4825 L25.4275,27.2475 L27.8075,27.2475 L27.8075,27.2475 Z" id="Shape" fill="#101828" fill-rule="nonzero"></path>
                    <polygon id="Path" fill="#101828" fill-rule="nonzero" points="35.2625 22.75 38.5 31.0975 41.7375 22.75 43.75 22.75 43.75 33.25 42 33.25 42 26.9325 41.3875 28.42 39.41 33.25 37.59 33.25 35.595 28.4375 34.9825 26.8275 35 33.25 33.25 33.25 33.25 22.75"></polygon>
                    <rect id="Rectangle" x="0" y="0" width="56" height="56"></rect>
                </g>
            </g>
        </g>
    </g>
</svg>