<?xml version="1.0" encoding="UTF-8"?>
<svg width="80px" height="80px" viewBox="0 0 80 80" version="1.1" xmlns="http://www.w3.org/2000/svg" xmlns:xlink="http://www.w3.org/1999/xlink">
    <!-- Generator: Sketch 57.1 (83088) - https://sketch.com -->
    <title>077-W80px</title>
    <desc>Created with Sketch.</desc>
    <g id="NEW_icons" stroke="none" stroke-width="1" fill="none" fill-rule="evenodd">
        <g id="icons_UD_new-Copy" transform="translate(-2151.000000, -10017.000000)">
            <g id="077-W80px" transform="translate(2151.000000, 10017.000000)">
                <circle id="Oval-Copy-493" fill="#101828" cx="40" cy="40" r="40"></circle>
                <g id="077-B32px-Copy-7" transform="translate(12.000000, 12.000000)">
                    <path d="M40.1625,8.75 C40.215,8.75 40.25,8.785 40.25,8.8375 L40.25,47.1625 C40.25,47.215 40.215,47.25 40.1625,47.25 L15.8375,47.25 C15.785,47.25 15.75,47.215 15.75,47.1625 L15.75,8.8375 C15.75,8.785 15.785,8.75 15.8375,8.75 L40.1625,8.75 L40.1625,8.75 Z M40.1625,7 L15.8375,7 C14.8225,7 14,7.8225 14,8.8375 L14,47.1625 C14,48.1775 14.8225,49 15.8375,49 L40.1625,49 C41.1775,49 42,48.1775 42,47.1625 L42,8.8375 C42,7.8225 41.1775,7 40.1625,7 L40.1625,7 Z" id="Shape" fill="#FFFFFF" fill-rule="nonzero"></path>
                    <path d="M28,45.5 C28.4725,45.5 28.875,45.115 28.875,44.625 C28.875,44.135 28.4725,43.75 28,43.75 C27.5275,43.75 27.125,44.135 27.125,44.625 C27.125,45.115 27.5275,45.5 28,45.5" id="Path" fill="#FFFFFF" fill-rule="nonzero"></path>
                    <rect id="Rectangle" fill="#FFFFFF" fill-rule="nonzero" x="14" y="40.25" width="28" height="1.75"></rect>
                    <path d="M35,31.5 L35,35 L31.5,35 L31.5,31.5 L35,31.5 L35,31.5 Z M35,29.75 L31.5,29.75 C30.5375,29.75 29.75,30.5375 29.75,31.5 L29.75,35 C29.75,35.9625 30.5375,36.75 31.5,36.75 L35,36.75 C35.9625,36.75 36.75,35.9625 36.75,35 L36.75,31.5 C36.75,30.5375 35.9625,29.75 35,29.75 L35,29.75 Z" id="Shape" fill="#FFFFFF" fill-rule="nonzero"></path>
                    <path d="M24.5,31.5 L24.5,35 L21,35 L21,31.5 L24.5,31.5 L24.5,31.5 Z M24.5,29.75 L21,29.75 C20.0375,29.75 19.25,30.5375 19.25,31.5 L19.25,35 C19.25,35.9625 20.0375,36.75 21,36.75 L24.5,36.75 C25.4625,36.75 26.25,35.9625 26.25,35 L26.25,31.5 C26.25,30.5375 25.4625,29.75 24.5,29.75 L24.5,29.75 Z" id="Shape" fill="#FFFFFF" fill-rule="nonzero"></path>
                    <path d="M35,22.75 L35,26.25 L31.5,26.25 L31.5,22.75 L35,22.75 L35,22.75 Z M35,21 L31.5,21 C30.5375,21 29.75,21.7875 29.75,22.75 L29.75,26.25 C29.75,27.2125 30.5375,28 31.5,28 L35,28 C35.9625,28 36.75,27.2125 36.75,26.25 L36.75,22.75 C36.75,21.7875 35.9625,21 35,21 L35,21 Z" id="Shape" fill="#FFFFFF" fill-rule="nonzero"></path>
                    <path d="M24.5,22.75 L24.5,26.25 L21,26.25 L21,22.75 L24.5,22.75 L24.5,22.75 Z M24.5,21 L21,21 C20.0375,21 19.25,21.7875 19.25,22.75 L19.25,26.25 C19.25,27.2125 20.0375,28 21,28 L24.5,28 C25.4625,28 26.25,27.2125 26.25,26.25 L26.25,22.75 C26.25,21.7875 25.4625,21 24.5,21 L24.5,21 Z" id="Shape" fill="#FFFFFF" fill-rule="nonzero"></path>
                    <path d="M35,14 L35,17.5 L31.5,17.5 L31.5,14 L35,14 L35,14 Z M35,12.25 L31.5,12.25 C30.5375,12.25 29.75,13.0375 29.75,14 L29.75,17.5 C29.75,18.4625 30.5375,19.25 31.5,19.25 L35,19.25 C35.9625,19.25 36.75,18.4625 36.75,17.5 L36.75,14 C36.75,13.0375 35.9625,12.25 35,12.25 L35,12.25 Z" id="Shape" fill="#FFFFFF" fill-rule="nonzero"></path>
                    <path d="M24.5,14 L24.5,17.5 L21,17.5 L21,14 L24.5,14 L24.5,14 Z M24.5,12.25 L21,12.25 C20.0375,12.25 19.25,13.0375 19.25,14 L19.25,17.5 C19.25,18.4625 20.0375,19.25 21,19.25 L24.5,19.25 C25.4625,19.25 26.25,18.4625 26.25,17.5 L26.25,14 C26.25,13.0375 25.4625,12.25 24.5,12.25 L24.5,12.25 Z" id="Shape" fill="#FFFFFF" fill-rule="nonzero"></path>
                    <rect id="Rectangle" x="0" y="0" width="56" height="56"></rect>
                </g>
            </g>
        </g>
    </g>
</svg>