<?xml version="1.0" encoding="UTF-8"?>
<svg width="56px" height="56px" viewBox="0 0 56 56" version="1.1" xmlns="http://www.w3.org/2000/svg" xmlns:xlink="http://www.w3.org/1999/xlink">
    <!-- Generator: Sketch 57.1 (83088) - https://sketch.com -->
    <title>069-W56px</title>
    <desc>Created with Sketch.</desc>
    <g id="NEW_icons" stroke="none" stroke-width="1" fill="none" fill-rule="evenodd">
        <g id="icons_UD_new-Copy" transform="translate(-1814.000000, -9041.000000)">
            <g id="069-W56px" transform="translate(1814.000000, 9041.000000)">
                <g id="003-B32px-Copy-103" transform="translate(8.000000, 8.000000)">
                    <g id="Group" transform="translate(10.000000, 5.000000)" fill="#FFFFFF" fill-rule="nonzero">
                        <path d="M18.6875,0 L1.3125,0 C0.5875,0 0,0.5875 0,1.3125 L0,23.75 L0,25 L0,28.6875 C0,29.4125 0.5875,30 1.3125,30 L18.6875,30 C19.4125,30 20,29.4125 20,28.6875 L20,25 L20,23.75 L20,1.3125 C20,0.5875 19.4125,0 18.6875,0 Z M18.75,28.6875 C18.75,28.725 18.725,28.75 18.6875,28.75 L1.3125,28.75 C1.275,28.75 1.25,28.725 1.25,28.6875 L1.25,25 L18.75,25 L18.75,28.6875 Z M1.25,23.75 L1.25,1.3125 C1.25,1.275 1.275,1.25 1.3125,1.25 L18.6875,1.25 C18.725,1.25 18.75,1.275 18.75,1.3125 L18.75,23.75 L1.25,23.75 Z" id="Shape"></path>
                        <path d="M10,27.4875 C10.3375,27.4875 10.625,27.2125 10.625,26.8625 C10.625,26.525 10.35,26.2375 10,26.2375 C9.65,26.2375 9.375,26.5125 9.375,26.8625 C9.375,27.2125 9.6625,27.4875 10,27.4875 Z" id="Path"></path>
                        <path d="M12.5125,20 L7.5,20.0125 L7.5,16.25 L6.25,16.25 L6.25,20.0125 C6.25,20.6875 6.8,21.25 7.4875,21.25 L12.525,21.25 C13.2,21.25 13.7625,20.7 13.7625,20.0125 L13.7625,16.25 L12.5125,16.25 L12.5125,20 Z" id="Path"></path>
                        <polygon id="Path" points="4.775 15.575 5.5625 16.5375 10 12.875 14.4375 16.5375 15.225 15.575 10 11.2625"></polygon>
                        <path d="M12.6,7.3125 C11.925,6.65 11.0125,6.25 10,6.25 C8.9625,6.25 8.025,6.675 7.35,7.35 L8.2375,8.2375 C8.6875,7.775 9.3125,7.5 10,7.5 C10.6625,7.5 11.275,7.7625 11.7125,8.1875 L12.6,7.3125 Z" id="Path"></path>
                        <path d="M9.1125,9.1125 L9.95,9.95 L10.825,9.075 C10.6125,8.875 10.325,8.75 10,8.75 C9.65,8.75 9.3375,8.8875 9.1125,9.1125 Z" id="Path"></path>
                        <path d="M10,5 C11.35,5 12.5875,5.55 13.4875,6.425 L14.375,5.5375 C13.2375,4.4375 11.7,3.75 10,3.75 C8.275,3.75 6.7125,4.45 5.575,5.575 L6.4625,6.4625 C7.375,5.5625 8.625,5 10,5 Z" id="Path"></path>
                    </g>
                    <rect id="Rectangle" x="0" y="0" width="40" height="40"></rect>
                </g>
                <circle id="Oval-Copy-461" fill="#101828" cx="28" cy="28" r="28"></circle>
                <g id="069-B32px-Copy-6" transform="translate(8.000000, 8.000000)">
                    <path d="M21.275,27.6625 C16.6625,25.625 12.9,21.7875 12.85,21.75 C12.8,21.6875 6.9625,15.575 6.25,9.5625 C6.25,9.525 6.25,9.4625 6.2875,9.425 L9.5625,6.2625 C9.5875,6.2375 9.6125,6.225 9.65,6.225 C9.675,6.225 9.7,6.25 9.7,6.25 L14.6375,11.35 C14.675,11.3875 14.6625,11.45 14.625,11.5 L12.4375,13.6125 L11.8375,14.2 L12.15,14.975 C12.2,15.1 13.3625,17.9375 15.025,19.65 C16.6875,21.3625 19.4875,22.625 19.6125,22.675 L20.3875,23.0125 L20.9875,22.425 L23.175,20.3125 C23.2,20.2875 23.225,20.275 23.2625,20.275 C23.3,20.275 23.325,20.3 23.325,20.3 L24.2125,21.2125 C24.5625,20.9625 24.9375,20.75 25.3375,20.575 L24.225,19.425 C23.9625,19.15 23.6125,19.0125 23.2625,19.0125 C22.925,19.0125 22.575,19.1375 22.3125,19.4 L20.125,21.5125 C20.125,21.5125 17.45,20.325 15.9375,18.7625 C14.425,17.2 13.325,14.4875 13.325,14.4875 L15.5125,12.375 C16.05,11.85 16.075,11 15.55,10.4625 L10.6,5.3875 C10.3375,5.1125 9.9875,4.975 9.6375,4.975 C9.3,4.975 8.95,5.1 8.6875,5.3625 L5.4125,8.525 C5.1,8.8375 4.9625,9.275 5.0125,9.7125 C5.7875,16.2375 11.9625,22.6125 11.9625,22.6125 C11.9625,22.6125 16.325,27.1125 21.625,29.15 C21.4625,28.675 21.3375,28.1875 21.275,27.6625 Z" id="Path" fill="#FFFFFF" fill-rule="nonzero"></path>
                    <path d="M27.5,21 L28.8875,21.875 L27.5,22.7375 L27.5,21 L27.5,21 Z M26.25,18.75 L26.25,25 L31.25,21.875 L26.25,18.75 L26.25,18.75 Z" id="Shape" fill="#FFFFFF" fill-rule="nonzero"></path>
                    <path d="M24.3875,31.0625 L25.4875,30.3625 C24.425,29.5625 23.725,28.3 23.725,26.875 C23.725,25.125 24.7625,23.625 26.25,22.925 L26.25,21.5875 C24.0625,22.3625 22.475,24.425 22.475,26.875 C22.475,28.55 23.225,30.0375 24.3875,31.0625 Z" id="Path" fill="#FFFFFF" fill-rule="nonzero"></path>
                    <path d="M31.8375,22.7 L30.7375,23.4 C31.7875,24.2 32.4875,25.45 32.4875,26.875 C32.4875,28.6125 31.4625,30.1 29.9875,30.8125 L29.9875,32.1625 C32.1625,31.3875 33.7375,29.325 33.7375,26.8875 C33.725,25.2125 32.9875,23.725 31.8375,22.7 Z" id="Path" fill="#FFFFFF" fill-rule="nonzero"></path>
                    <path d="M28.725,31 L28.725,32.7375 L27.3375,31.8625 L28.725,31 L28.725,31 Z M29.975,28.75 L24.975,31.875 L29.975,35 L29.975,28.75 L29.975,28.75 Z" id="Shape" fill="#FFFFFF" fill-rule="nonzero"></path>
                    <rect id="Rectangle" x="0" y="0" width="40" height="40"></rect>
                </g>
            </g>
        </g>
    </g>
</svg>