<?xml version="1.0" encoding="UTF-8"?>
<svg width="80px" height="80px" viewBox="0 0 80 80" version="1.1" xmlns="http://www.w3.org/2000/svg" xmlns:xlink="http://www.w3.org/1999/xlink">
    <!-- Generator: Sketch 57.1 (83088) - https://sketch.com -->
    <title>077-B80px</title>
    <desc>Created with Sketch.</desc>
    <g id="077-B80px" stroke="none" stroke-width="1" fill="none" fill-rule="evenodd">
        <g>
            <path d="M57.375,12.5 C57.45,12.5 57.5,12.55 57.5,12.625 L57.5,67.375 C57.5,67.45 57.45,67.5 57.375,67.5 L22.625,67.5 C22.55,67.5 22.5,67.45 22.5,67.375 L22.5,12.625 C22.5,12.55 22.55,12.5 22.625,12.5 L57.375,12.5 L57.375,12.5 Z M57.375,10 L22.625,10 C21.175,10 20,11.175 20,12.625 L20,67.375 C20,68.825 21.175,70 22.625,70 L57.375,70 C58.825,70 60,68.825 60,67.375 L60,12.625 C60,11.175 58.825,10 57.375,10 L57.375,10 Z" id="Shape" fill="#101828" fill-rule="nonzero"></path>
            <path d="M40,65 C40.675,65 41.25,64.45 41.25,63.75 C41.25,63.05 40.675,62.5 40,62.5 C39.325,62.5 38.75,63.05 38.75,63.75 C38.75,64.45 39.325,65 40,65" id="Path" fill="#101828" fill-rule="nonzero"></path>
            <rect id="Rectangle" fill="#101828" fill-rule="nonzero" x="20" y="57.5" width="40" height="2.5"></rect>
            <path d="M50,45 L50,50 L45,50 L45,45 L50,45 L50,45 Z M50,42.5 L45,42.5 C43.625,42.5 42.5,43.625 42.5,45 L42.5,50 C42.5,51.375 43.625,52.5 45,52.5 L50,52.5 C51.375,52.5 52.5,51.375 52.5,50 L52.5,45 C52.5,43.625 51.375,42.5 50,42.5 L50,42.5 Z" id="Shape" fill="#101828" fill-rule="nonzero"></path>
            <path d="M35,45 L35,50 L30,50 L30,45 L35,45 L35,45 Z M35,42.5 L30,42.5 C28.625,42.5 27.5,43.625 27.5,45 L27.5,50 C27.5,51.375 28.625,52.5 30,52.5 L35,52.5 C36.375,52.5 37.5,51.375 37.5,50 L37.5,45 C37.5,43.625 36.375,42.5 35,42.5 L35,42.5 Z" id="Shape" fill="#101828" fill-rule="nonzero"></path>
            <path d="M50,32.5 L50,37.5 L45,37.5 L45,32.5 L50,32.5 L50,32.5 Z M50,30 L45,30 C43.625,30 42.5,31.125 42.5,32.5 L42.5,37.5 C42.5,38.875 43.625,40 45,40 L50,40 C51.375,40 52.5,38.875 52.5,37.5 L52.5,32.5 C52.5,31.125 51.375,30 50,30 L50,30 Z" id="Shape" fill="#101828" fill-rule="nonzero"></path>
            <path d="M35,32.5 L35,37.5 L30,37.5 L30,32.5 L35,32.5 L35,32.5 Z M35,30 L30,30 C28.625,30 27.5,31.125 27.5,32.5 L27.5,37.5 C27.5,38.875 28.625,40 30,40 L35,40 C36.375,40 37.5,38.875 37.5,37.5 L37.5,32.5 C37.5,31.125 36.375,30 35,30 L35,30 Z" id="Shape" fill="#101828" fill-rule="nonzero"></path>
            <path d="M50,20 L50,25 L45,25 L45,20 L50,20 L50,20 Z M50,17.5 L45,17.5 C43.625,17.5 42.5,18.625 42.5,20 L42.5,25 C42.5,26.375 43.625,27.5 45,27.5 L50,27.5 C51.375,27.5 52.5,26.375 52.5,25 L52.5,20 C52.5,18.625 51.375,17.5 50,17.5 L50,17.5 Z" id="Shape" fill="#101828" fill-rule="nonzero"></path>
            <path d="M35,20 L35,25 L30,25 L30,20 L35,20 L35,20 Z M35,17.5 L30,17.5 C28.625,17.5 27.5,18.625 27.5,20 L27.5,25 C27.5,26.375 28.625,27.5 30,27.5 L35,27.5 C36.375,27.5 37.5,26.375 37.5,25 L37.5,20 C37.5,18.625 36.375,17.5 35,17.5 L35,17.5 Z" id="Shape" fill="#101828" fill-rule="nonzero"></path>
            <rect id="Rectangle" x="0" y="0" width="80" height="80"></rect>
        </g>
    </g>
</svg>