<?xml version="1.0" encoding="UTF-8"?>
<svg width="40px" height="40px" viewBox="0 0 40 40" version="1.1" xmlns="http://www.w3.org/2000/svg" xmlns:xlink="http://www.w3.org/1999/xlink">
    <!-- Generator: Sketch 57.1 (83088) - https://sketch.com -->
    <title>203-B40px</title>
    <desc>Created with Sketch.</desc>
    <g id="203-B40px" stroke="none" stroke-width="1" fill="none" fill-rule="evenodd">
        <g>
            <path d="M33.725,12.5 L33.75,12.525 L33.725,26.25 L6.25,26.225 L6.275,12.5 L33.725,12.5 L33.725,12.5 Z M33.725,11.25 L6.275,11.25 C5.575,11.25 5,11.825 5,12.525 L5,26.225 C5,26.925 5.575,27.5 6.275,27.5 L33.725,27.5 C34.425,27.5 35,26.925 35,26.225 L35,12.525 C35,11.825 34.425,11.25 33.725,11.25 L33.725,11.25 Z" id="Shape" fill="#101828" fill-rule="nonzero"></path>
            <path d="M19.975,27.4375 C14.5875,27.4375 10.55,28.2625 8.75,28.7125 L8.75,30 C10.3,29.6 14.425,28.6875 19.975,28.6875 C25.575,28.6875 29.7375,29.6125 31.25,30.0125 L31.25,28.725 C29.4625,28.2625 25.4125,27.4375 19.975,27.4375 Z" id="Path" fill="#101828" fill-rule="nonzero"></path>
            <polygon id="Path" fill="#101828" fill-rule="nonzero" points="11.25 16.2625 11.25 18.7625 9.9625 16.2625 8.75 16.2625 8.75 21.25 10 21.25 10 19.1375 11.25 21.175 11.3 21.25 12.5 21.25 12.5 16.2625"></polygon>
            <polygon id="Path" fill="#101828" fill-rule="nonzero" points="14.3375 20.0125 14.3375 19.3125 16.25 19.3125 16.25 18.2 14.3375 18.2 14.3375 17.5125 16.25 17.5125 16.25 16.2625 13.0875 16.2625 13.0875 21.25 16.25 21.25 16.25 20.0125"></polygon>
            <polygon id="Path" fill="#101828" fill-rule="nonzero" points="21.7375 16.2625 21.125 19.125 20.4875 16.2625 19.2375 16.2625 18.575 19.125 17.9875 16.2625 17.9875 16.2625 16.7375 16.2625 17.9375 21.125 17.975 21.25 19.2375 21.25 19.85 18.375 20.4875 21.25 21.7375 21.25 22.9875 16.2625 22.9875 16.2625"></polygon>
            <path d="M25.15,18.1875 C24.3375,18.0125 24.225,17.8125 24.225,17.6375 C24.225,17.4125 24.525,17.325 24.7875,17.325 C25.1375,17.325 25.3875,17.475 25.6,17.825 L25.675,17.95 L26.6,17.4125 L26.5375,17.2875 C26.2,16.6 25.6375,16.2625 24.8,16.2625 C23.8,16.2625 23.125,16.825 23.125,17.65 C23.125,18.425 23.65,18.95 24.6125,19.15 C25.4,19.3125 25.5625,19.4875 25.5625,19.7375 C25.5625,20.0125 25.3125,20.1875 24.9125,20.1875 C24.4375,20.1875 24.15,19.975 23.9625,19.4875 L23.9,19.325 L22.9125,19.8 L22.95,19.925 C23.1875,20.75 23.925,21.2375 24.925,21.2375 C26.0875,21.2375 26.7,20.4625 26.7,19.7 C26.7,18.9 26.2125,18.4125 25.15,18.1875 Z" id="Path" fill="#101828" fill-rule="nonzero"></path>
            <polygon id="Path" fill="#101828" fill-rule="nonzero" points="28.7375 16.8875 29.9875 16.8875 29.9875 18.1375 31.2375 18.1375 31.2375 19.3875 29.9875 19.3875 29.9875 20.6375 28.7375 20.6375 28.7375 19.3875 27.4875 19.3875 27.4875 18.1375 28.7375 18.1375"></polygon>
            <rect id="Rectangle" x="0" y="0" width="40" height="40"></rect>
        </g>
    </g>
</svg>