<?xml version="1.0" encoding="UTF-8"?>
<svg width="32px" height="32px" viewBox="0 0 32 32" version="1.1" xmlns="http://www.w3.org/2000/svg" xmlns:xlink="http://www.w3.org/1999/xlink">
    <!-- Generator: Sketch 57.1 (83088) - https://sketch.com -->
    <title>168-B32px</title>
    <desc>Created with Sketch.</desc>
    <g id="168-B32px" stroke="none" stroke-width="1" fill="none" fill-rule="evenodd">
        <g>
            <path d="M16,13 C17.38,13 18.5,14.12 18.5,15.5 C18.5,16.88 17.38,18 16,18 C14.62,18 13.5,16.88 13.5,15.5 C13.5,14.12 14.62,13 16,13 L16,13 Z M16,12 C14.07,12 12.5,13.57 12.5,15.5 C12.5,17.43 14.07,19 16,19 C17.93,19 19.5,17.43 19.5,15.5 C19.5,13.57 17.93,12 16,12 L16,12 Z" id="Shape" fill="#101828" fill-rule="nonzero"></path>
            <path d="M27,13 L27,18 L25,18 L25,13 L27,13 L27,13 Z M28,12 L24,12 L24,19 L28,19 L28,12 L28,12 Z" id="Shape" fill="#101828" fill-rule="nonzero"></path>
            <path d="M7,13 L7,18 L5,18 L5,13 L7,13 L7,13 Z M8,12 L4,12 L4,19 L8,19 L8,12 L8,12 Z" id="Shape" fill="#101828" fill-rule="nonzero"></path>
            <path d="M26.98,10 L27,10.02 L26.98,20.99 L5,20.97 L5.02,10 L26.98,10 L26.98,10 Z M26.98,9 L5.02,9 C4.46,9 4,9.46 4,10.02 L4,20.97 C4,21.53 4.46,21.99 5.02,21.99 L26.98,21.99 C27.54,21.99 28,21.53 28,20.97 L28,10.02 C28,9.46 27.54,9 26.98,9 L26.98,9 Z" id="Shape" fill="#101828" fill-rule="nonzero"></path>
            <rect id="Rectangle" fill="#101828" fill-rule="nonzero" x="15.5" y="17.99" width="1" height="3"></rect>
            <rect id="Rectangle" fill="#101828" fill-rule="nonzero" x="15.5" y="10" width="1" height="3"></rect>
            <path d="M15.98,21.94 C11.67,21.94 8.44,22.6 7,22.96 L7,23.99 C8.24,23.67 11.54,22.94 15.98,22.94 C20.46,22.94 23.79,23.68 25,24 L25,22.97 C23.57,22.61 20.33,21.94 15.98,21.94 Z" id="Path" fill="#101828" fill-rule="nonzero"></path>
            <rect id="Rectangle" x="0" y="0" width="32" height="32"></rect>
        </g>
    </g>
</svg>