<?xml version="1.0" encoding="UTF-8"?>
<svg width="42px" height="42px" viewBox="0 0 42 42" version="1.1" xmlns="http://www.w3.org/2000/svg" xmlns:xlink="http://www.w3.org/1999/xlink">
    <!-- Generator: Sketch 57.1 (83088) - https://sketch.com -->
    <title>213-G40px</title>
    <desc>Created with Sketch.</desc>
    <g id="NEW_icons" stroke="none" stroke-width="1" fill="none" fill-rule="evenodd">
        <g id="icons_UD_new-Copy" transform="translate(-1526.000000, -27132.000000)">
            <g id="213-G40px" transform="translate(1527.000000, 27133.000000)">
                <circle id="Oval-Copy-1395" stroke="#E3E8EC" cx="20" cy="20" r="20"></circle>
                <g id="213-B32px-Copy" transform="translate(4.000000, 4.000000)">
                    <circle id="Oval" fill="#101828" fill-rule="nonzero" cx="12.49" cy="10.5" r="1"></circle>
                    <circle id="Oval" fill="#101828" fill-rule="nonzero" cx="12.49" cy="13.5" r="1"></circle>
                    <circle id="Oval" fill="#101828" fill-rule="nonzero" cx="12.49" cy="16.5" r="1"></circle>
                    <circle id="Oval" fill="#101828" fill-rule="nonzero" cx="12.49" cy="19.5" r="1"></circle>
                    <path d="M27,8 L27,22 L5,22 L5,19 L6,19 C8.21,19 10,17.21 10,15 C10,12.79 8.21,11 6,11 L5,11 L5,8 L27,8 L27,8 Z M27,7 L5,7 C4.45,7 4,7.45 4,8 L4,11 C4,11.55 4.45,12 5,12 L6,12 C7.66,12 9,13.34 9,15 C9,16.66 7.66,18 6,18 L5,18 C4.45,18 4,18.45 4,19 L4,22 C4,22.55 4.45,23 5,23 L27,23 C27.55,23 28,22.55 28,22 L28,8 C28,7.45 27.55,7 27,7 L27,7 Z" id="Shape" fill="#101828" fill-rule="nonzero"></path>
                    <path d="M23,17 C23.55,17 24,17.45 24,18 C24,18.55 23.55,19 23,19 C22.45,19 22,18.55 22,18 C22,17.45 22.45,17 23,17 L23,17 Z M23,16 C21.9,16 21,16.9 21,18 C21,19.1 21.9,20 23,20 C24.1,20 25,19.1 25,18 C25,16.9 24.1,16 23,16 L23,16 Z" id="Shape" fill="#101828" fill-rule="nonzero"></path>
                    <path d="M17,11 C17.55,11 18,11.45 18,12 C18,12.55 17.55,13 17,13 C16.45,13 16,12.55 16,12 C16,11.45 16.45,11 17,11 L17,11 Z M17,10 C15.9,10 15,10.9 15,12 C15,13.1 15.9,14 17,14 C18.1,14 19,13.1 19,12 C19,10.9 18.1,10 17,10 L17,10 Z" id="Shape" fill="#101828" fill-rule="nonzero"></path>
                    <rect id="Rectangle" fill="#101828" fill-rule="nonzero" transform="translate(19.996935, 15.008006) rotate(-45.000000) translate(-19.996935, -15.008006) " x="13.4219986" y="14.5080113" width="13.1498739" height="1"></rect>
                    <rect id="Rectangle" x="0" y="0" width="32" height="32"></rect>
                </g>
            </g>
        </g>
    </g>
</svg>