<?xml version="1.0" encoding="UTF-8"?>
<svg width="32px" height="32px" viewBox="0 0 32 32" version="1.1" xmlns="http://www.w3.org/2000/svg" xmlns:xlink="http://www.w3.org/1999/xlink">
    <!-- Generator: Sketch 58 (84663) - https://sketch.com -->
    <title>249-B32px</title>
    <desc>Created with Sketch.</desc>
    <g id="249-B32px" stroke="none" stroke-width="1" fill="none" fill-rule="evenodd">
        <g>
            <path d="M22.5,18 C24.98,18 27,20.02 27,22.5 C27,24.98 24.98,27 22.5,27 C20.02,27 18,24.98 18,22.5 C18,20.02 20.02,18 22.5,18 L22.5,18 Z M22.5,17 C19.46,17 17,19.46 17,22.5 C17,25.54 19.46,28 22.5,28 C25.54,28 28,25.54 28,22.5 C28,19.46 25.54,17 22.5,17 L22.5,17 Z" id="Shape" fill="#101828" fill-rule="nonzero"></path>
            <path d="M22.07,20.76 L20.85,19.5 C20.72,19.37 20.51,19.37 20.38,19.5 L19.57,20.28 C19.49,20.36 19.46,20.46 19.47,20.57 C19.66,22.18 21.18,23.75 21.18,23.75 C21.18,23.75 22.69,25.31 24.31,25.57 C24.41,25.59 24.52,25.55 24.6,25.48 L25.41,24.7 C25.54,24.57 25.55,24.36 25.42,24.23 L24.2,22.97 C24.07,22.84 23.86,22.84 23.73,22.97 L23.19,23.49 C23.19,23.49 22.53,23.2 22.16,22.81 C21.79,22.42 21.52,21.75 21.52,21.75 L22.06,21.23 C22.2,21.11 22.2,20.9 22.07,20.76 Z" id="Path" fill="#101828" fill-rule="nonzero"></path>
            <path d="M23.27,12.68 L22.02,14.09 C21.53,14.64 20.89,14.94 20.22,14.94 L18.37,14.94 C18.36,14.9 18.35,14.84 18.38,14.8 L19.52,13.52 C20,12.98 20.64,12.68 21.3,12.68 L23.27,12.68 L23.27,12.68 Z M23.52,11.68 L21.3,11.68 C20.35,11.68 19.44,12.1 18.77,12.86 L17.63,14.14 C17.04,14.8 17.46,15.94 18.29,15.94 L20.21,15.94 C21.17,15.94 22.08,15.51 22.76,14.75 L24.09,13.25 C24.61,12.67 24.25,11.68 23.52,11.68 L23.52,11.68 Z" id="Shape" fill="#101828" fill-rule="nonzero"></path>
            <path d="M10.71,12.68 C11.38,12.68 12.01,12.98 12.49,13.52 L13.63,14.8 C13.66,14.84 13.66,14.9 13.64,14.94 L11.79,14.94 C11.12,14.94 10.48,14.64 9.99,14.09 L8.75,12.68 L10.71,12.68 L10.71,12.68 Z M10.71,11.68 L8.49,11.68 C7.76,11.68 7.4,12.67 7.91,13.25 L9.24,14.75 C9.92,15.51 10.83,15.94 11.79,15.94 L13.71,15.94 C14.54,15.94 14.96,14.8 14.37,14.14 L13.23,12.86 C12.57,12.1 11.66,11.68 10.71,11.68 L10.71,11.68 Z" id="Shape" fill="#101828" fill-rule="nonzero"></path>
            <path d="M16.95,18.61 C17.03,18.65 17.12,18.69 17.21,18.72 C17.42,18.42 17.65,18.14 17.91,17.89 C17.72,17.85 17.55,17.79 17.39,17.72 C16.95,17.5 16.48,17.39 16,17.39 C15.52,17.39 15.05,17.5 14.61,17.72 C14.24,17.9 13.77,18 13.22,18 C12.71,18 12.14,17.92 11.55,17.77 C7.4,16.58 5.7,12.88 5.05,10.67 C5.2,10.68 5.36,10.69 5.53,10.69 C6.43,10.69 7.49,10.54 8.68,10.24 C9.3,10.08 9.98,10 10.68,10 C13.3,10 15.54,11.1 15.56,11.11 C15.7,11.18 15.85,11.22 16.01,11.22 C16.16,11.22 16.32,11.18 16.46,11.11 C16.48,11.1 18.7,10 21.34,10 C22.04,10 22.71,10.08 23.34,10.24 C24.54,10.54 25.6,10.69 26.49,10.69 C26.66,10.69 26.82,10.68 26.97,10.67 C26.52,12.2 25.55,14.47 23.62,16.1 C24.01,16.17 24.39,16.27 24.76,16.41 C26.62,14.6 27.54,12.31 27.97,10.81 C28.14,10.23 27.69,9.66 27.1,9.66 C27.07,9.66 27.05,9.66 27.02,9.66 C26.86,9.67 26.68,9.68 26.49,9.68 C25.79,9.68 24.84,9.57 23.58,9.26 C22.82,9.07 22.06,9 21.33,9 C18.42,9 16,10.21 16,10.21 C16,10.21 13.58,9 10.67,9 C9.95,9 9.19,9.07 8.43,9.26 C7.17,9.58 6.22,9.68 5.52,9.68 C5.31,9.68 5.12,9.67 4.96,9.65 C4.93,9.65 4.9,9.65 4.88,9.65 C4.31,9.65 3.88,10.21 4.04,10.77 C4.69,13.08 6.52,17.37 11.28,18.73 C12.04,18.92 12.68,19 13.23,19 C14.05,19 14.64,18.83 15.07,18.62 C15.37,18.47 15.69,18.39 16.02,18.39 C16.33,18.39 16.65,18.46 16.95,18.61 Z" id="Path" fill="#101828" fill-rule="nonzero"></path>
            <rect id="Rectangle" x="0" y="0" width="32" height="32"></rect>
        </g>
    </g>
</svg>