<?xml version="1.0" encoding="UTF-8"?>
<svg width="80px" height="80px" viewBox="0 0 80 80" version="1.1" xmlns="http://www.w3.org/2000/svg" xmlns:xlink="http://www.w3.org/1999/xlink">
    <!-- Generator: Sketch 57.1 (83088) - https://sketch.com -->
    <title>148-B80px</title>
    <desc>Created with Sketch.</desc>
    <g id="148-B80px" stroke="none" stroke-width="1" fill="none" fill-rule="evenodd">
        <g>
            <path d="M41.25,58.75 C40.5,58.75 40,59.25 40,60 C40,60.75 40.5,61.25 41.25,61.25 C42,61.25 42.5,60.75 42.5,60 C42.5,59.25 42,58.75 41.25,58.75 L41.25,58.75 Z" id="Path" fill="#101828" fill-rule="nonzero"></path>
            <path d="M67.25,35 C67.5,35 67.5,35 67.25,35 L67.5,62.25 C67.5,62.25 67.5,62.5 67.25,62.5 L52.5,62.5 C52.5,62.5 52.25,62.5 52.25,62.25 L52.25,35.25 C52.25,35.25 52.25,35 52.5,35 L67.25,35 L67.25,35 Z M67.25,32.5 L52.5,32.5 C51,32.5 49.75,33.75 49.75,35.25 L49.75,62.5 C49.75,64 51,65.25 52.5,65.25 L67.25,65.25 C68.75,65.25 70,64 70,62.5 L70,35.25 C70,33.75 68.75,32.5 67.25,32.5 L67.25,32.5 Z" id="Shape" fill="#101828" fill-rule="nonzero"></path>
            <rect id="Rectangle" fill="#101828" fill-rule="nonzero" x="50" y="55" width="20" height="2.5"></rect>
            <circle id="Oval" fill="#101828" fill-rule="nonzero" cx="60" cy="60" r="1.25"></circle>
            <path d="M25,51 C21.75,51.5 19.25,52 17.5,52.5 L17.5,55 C19,54.75 21.5,54 25,53.5 L25,51 Z" id="Path" fill="#101828" fill-rule="nonzero"></path>
            <path d="M67.5,17.5 L12.5,17.5 C11.25,17.5 10,18.75 10,20 L10,47.5 C10,49 11.25,50 12.5,50 L25,50 L25,47.5 L12.5,47.5 L12.5,20 L67.5,20 L67.5,20 L67.5,30 L69.25,30 C69.5,30 69.75,30 70,30.25 L70,20 C70,18.75 68.75,17.5 67.5,17.5 Z" id="Path" fill="#101828" fill-rule="nonzero"></path>
            <path d="M47.5,62.5 L30.25,62.5 C30.25,62.5 30,62.5 30,62.25 L30,57.5 L47.5,57.5 L47.5,55 L30,55 L30,27.75 C30,27.75 30,27.5 30.25,27.5 L52.5,27.5 C52.5,27.5 52.75,27.5 52.75,27.75 L52.75,30 L55.25,30 L55.25,27.75 C55.25,26.25 54,25 52.5,25 L30.25,25 C28.75,25 27.5,26.25 27.5,27.75 L27.5,62.5 C27.5,64 28.75,65.25 30.25,65.25 L47.75,65.25 C47.75,65 47.5,64.75 47.5,64.5 L47.5,62.5 Z" id="Path" fill="#101828" fill-rule="nonzero"></path>
            <rect id="Rectangle" x="0" y="0" width="80" height="80"></rect>
        </g>
    </g>
</svg>