<?xml version="1.0" encoding="UTF-8"?>
<svg width="56px" height="56px" viewBox="0 0 56 56" version="1.1" xmlns="http://www.w3.org/2000/svg" xmlns:xlink="http://www.w3.org/1999/xlink">
    <!-- Generator: Sketch 57.1 (83088) - https://sketch.com -->
    <title>083-W56px</title>
    <desc>Created with Sketch.</desc>
    <g id="NEW_icons" stroke="none" stroke-width="1" fill="none" fill-rule="evenodd">
        <g id="icons_UD_new-Copy" transform="translate(-1814.000000, -10794.000000)">
            <g id="083-W56px" transform="translate(1814.000000, 10794.000000)">
                <g id="003-B32px-Copy-119" transform="translate(8.000000, 8.000000)">
                    <g id="Group" transform="translate(10.000000, 5.000000)" fill="#FFFFFF" fill-rule="nonzero">
                        <path d="M18.6875,0 L1.3125,0 C0.5875,0 0,0.5875 0,1.3125 L0,23.75 L0,25 L0,28.6875 C0,29.4125 0.5875,30 1.3125,30 L18.6875,30 C19.4125,30 20,29.4125 20,28.6875 L20,25 L20,23.75 L20,1.3125 C20,0.5875 19.4125,0 18.6875,0 Z M18.75,28.6875 C18.75,28.725 18.725,28.75 18.6875,28.75 L1.3125,28.75 C1.275,28.75 1.25,28.725 1.25,28.6875 L1.25,25 L18.75,25 L18.75,28.6875 Z M1.25,23.75 L1.25,1.3125 C1.25,1.275 1.275,1.25 1.3125,1.25 L18.6875,1.25 C18.725,1.25 18.75,1.275 18.75,1.3125 L18.75,23.75 L1.25,23.75 Z" id="Shape"></path>
                        <path d="M10,27.4875 C10.3375,27.4875 10.625,27.2125 10.625,26.8625 C10.625,26.525 10.35,26.2375 10,26.2375 C9.65,26.2375 9.375,26.5125 9.375,26.8625 C9.375,27.2125 9.6625,27.4875 10,27.4875 Z" id="Path"></path>
                        <path d="M12.5125,20 L7.5,20.0125 L7.5,16.25 L6.25,16.25 L6.25,20.0125 C6.25,20.6875 6.8,21.25 7.4875,21.25 L12.525,21.25 C13.2,21.25 13.7625,20.7 13.7625,20.0125 L13.7625,16.25 L12.5125,16.25 L12.5125,20 Z" id="Path"></path>
                        <polygon id="Path" points="4.775 15.575 5.5625 16.5375 10 12.875 14.4375 16.5375 15.225 15.575 10 11.2625"></polygon>
                        <path d="M12.6,7.3125 C11.925,6.65 11.0125,6.25 10,6.25 C8.9625,6.25 8.025,6.675 7.35,7.35 L8.2375,8.2375 C8.6875,7.775 9.3125,7.5 10,7.5 C10.6625,7.5 11.275,7.7625 11.7125,8.1875 L12.6,7.3125 Z" id="Path"></path>
                        <path d="M9.1125,9.1125 L9.95,9.95 L10.825,9.075 C10.6125,8.875 10.325,8.75 10,8.75 C9.65,8.75 9.3375,8.8875 9.1125,9.1125 Z" id="Path"></path>
                        <path d="M10,5 C11.35,5 12.5875,5.55 13.4875,6.425 L14.375,5.5375 C13.2375,4.4375 11.7,3.75 10,3.75 C8.275,3.75 6.7125,4.45 5.575,5.575 L6.4625,6.4625 C7.375,5.5625 8.625,5 10,5 Z" id="Path"></path>
                    </g>
                    <rect id="Rectangle" x="0" y="0" width="40" height="40"></rect>
                </g>
                <circle id="Oval-Copy-555" fill="#101828" cx="28" cy="28" r="28"></circle>
                <g id="083-B32px-Copy-6" transform="translate(8.000000, 8.000000)">
                    <path d="M20,18.75 L20,21.25 L18.75,21.25 L18.75,18.75 L20,18.75 L20,18.75 Z M20,17.5 L18.75,17.5 C18.0625,17.5 17.5,18.0625 17.5,18.75 L17.5,21.25 C17.5,21.9375 18.0625,22.5 18.75,22.5 L20,22.5 C20.6875,22.5 21.25,21.9375 21.25,21.25 L21.25,18.75 C21.25,18.0625 20.6875,17.5 20,17.5 L20,17.5 Z" id="Shape" fill="#FFFFFF" fill-rule="nonzero"></path>
                    <path d="M24.6875,16.925 L24.6875,16.925 C24.9875,18.325 25.225,20.5375 24.6875,23.0625 L21.2125,20.95 L21.2125,19.025 L24.6875,16.925 C24.675,16.925 24.675,16.925 24.6875,16.925 L24.6875,16.925 Z M24.6875,15.675 C24.4625,15.675 24.2375,15.7375 24.025,15.8625 L19.975,18.325 L19.975,21.6625 L24.05,24.1375 C24.25,24.2625 24.475,24.325 24.7,24.325 C25.25,24.325 25.7875,23.9625 25.9125,23.3625 C26.5125,20.5875 26.25,18.1875 25.9375,16.675 C25.7875,16.0625 25.25,15.675 24.6875,15.675 L24.6875,15.675 Z" id="Shape" fill="#FFFFFF" fill-rule="nonzero"></path>
                    <path d="M14.0625,15.675 L14.0625,16.925 L17.5,19.0375 L17.5,20.975 L14.075,23.1 C13.525,20.55 13.7625,18.3375 14.05,16.925 C14.05,16.925 14.05,16.925 14.0625,16.925 L14.0625,15.675 L14.0625,15.675 Z M14.0625,15.675 C13.5,15.675 12.9625,16.0625 12.8375,16.675 C12.525,18.1875 12.2625,20.5875 12.8625,23.3625 C12.9875,23.95 13.5125,24.325 14.0625,24.325 C14.275,24.325 14.5,24.2625 14.7,24.1375 L18.75,21.6625 L18.75,18.325 L14.7125,15.8625 C14.5125,15.7375 14.275,15.675 14.0625,15.675 L14.0625,15.675 Z" id="Shape" fill="#FFFFFF" fill-rule="nonzero"></path>
                    <polygon id="Path" fill="#FFFFFF" fill-rule="nonzero" points="18.75 19.375 16.25 19.375 16.25 20.625 18.75 20.625"></polygon>
                    <polygon id="Path" fill="#FFFFFF" fill-rule="nonzero" points="22.5 19.375 20 19.375 20 20.625 22.5 20.625"></polygon>
                    <path d="M12.5,18.75 L12.5,21.25 L10,21.25 L10,18.75 L12.5,18.75 L12.5,18.75 Z M12.5,17.5 L10,17.5 C9.3125,17.5 8.75,18.0625 8.75,18.75 L8.75,21.25 C8.75,21.9375 9.3125,22.5 10,22.5 L12.5,22.5 C13.1875,22.5 13.75,21.9375 13.75,21.25 L13.75,18.75 C13.75,18.0625 13.1875,17.5 12.5,17.5 L12.5,17.5 Z" id="Shape" fill="#FFFFFF" fill-rule="nonzero"></path>
                    <path d="M28.75,18.75 L28.75,21.25 L26.25,21.25 L26.25,18.75 L28.75,18.75 L28.75,18.75 Z M28.75,17.5 L26.25,17.5 C25.5625,17.5 25,18.0625 25,18.75 L25,21.25 C25,21.9375 25.5625,22.5 26.25,22.5 L28.75,22.5 C29.4375,22.5 30,21.9375 30,21.25 L30,18.75 C30,18.0625 29.4375,17.5 28.75,17.5 L28.75,17.5 Z" id="Shape" fill="#FFFFFF" fill-rule="nonzero"></path>
                    <g id="Group" transform="translate(10.000000, 5.000000)" fill="#FFFFFF" fill-rule="nonzero">
                        <path d="M17.5,28.375 C17.5,28.6 17.35,28.75 17.225,28.75 L1.625,28.75 C1.425,28.75 1.25,28.525 1.25,28.2625 L1.25,18.75 L0,18.75 L0,28.2625 C0,29.225 0.725,30 1.625,30 L17.225,30 C18.0625,30 18.75,29.275 18.75,28.375 L18.75,18.75 L17.5,18.75 L17.5,28.375 Z" id="Path"></path>
                        <path d="M17.2125,0 L5.2125,0 L0,5.55 L0,11.25 L1.25,11.25 L1.25,6.05 L5.75,1.25 L17.2125,1.25 C17.35,1.25 17.5,1.4125 17.5,1.6375 L17.5,11.25 L18.75,11.25 L18.75,1.6375 C18.75,0.7375 18.0625,0 17.2125,0 Z" id="Path"></path>
                    </g>
                    <rect id="Rectangle" x="0" y="0" width="40" height="40"></rect>
                </g>
            </g>
        </g>
    </g>
</svg>