<?xml version="1.0" encoding="UTF-8"?>
<svg width="80px" height="80px" viewBox="0 0 80 80" version="1.1" xmlns="http://www.w3.org/2000/svg" xmlns:xlink="http://www.w3.org/1999/xlink">
    <!-- Generator: Sketch 57.1 (83088) - https://sketch.com -->
    <title>216-C80px</title>
    <desc>Created with Sketch.</desc>
    <g id="NEW_icons" stroke="none" stroke-width="1" fill="none" fill-rule="evenodd">
        <g id="icons_UD_new-Copy" transform="translate(-1011.000000, -27598.000000)">
            <g id="216-C80px" transform="translate(1011.000000, 27598.000000)">
                <circle id="Oval-Copy-1311" fill="#FF4F12" cx="40" cy="40" r="40"></circle>
                <g id="216-B32px-Copy-9" transform="translate(12.000000, 12.000000)">
                    <polygon id="Path" fill="#FFFFFF" fill-rule="nonzero" points="22.4525 21.98 22.1725 23.73 36.1725 23.73 36.4525 21.98"></polygon>
                    <polygon id="Path" fill="#FFFFFF" fill-rule="nonzero" points="31.5 32.48 33.25 18.48 31.5 18.48 29.75 32.48"></polygon>
                    <polygon id="Path" fill="#FFFFFF" fill-rule="nonzero" points="26.25 32.48 28 18.48 26.25 18.48 24.5 32.48"></polygon>
                    <polygon id="Path" fill="#FFFFFF" fill-rule="nonzero" points="21.5775 27.23 21.2975 28.98 35.2975 28.98 35.5775 27.23"></polygon>
                    <path d="M47.2675,12.25 L8.7325,12.25 C7.77,12.25 7,13.02 7,13.9825 L7,33.25 L8.7325,33.25 L8.7325,14 L47.25,14 L47.2675,36.75 L17.9725,36.75 C17.29,36.75 16.6075,36.96 16.0475,37.345 L9.9225,41.44 L7,43.4175 L7,45.5 L17.01,38.7975 C17.3075,38.605 17.64,38.5 17.9725,38.5 L47.2675,38.5 C48.2125,38.5 49,37.73 49,36.7675 L49,13.9825 C49,13.02 48.23,12.25 47.2675,12.25 Z" id="Path" fill="#FFFFFF" fill-rule="nonzero"></path>
                    <rect id="Rectangle" x="0" y="0" width="56" height="56"></rect>
                </g>
            </g>
        </g>
    </g>
</svg>