<?xml version="1.0" encoding="UTF-8"?>
<svg width="80px" height="80px" viewBox="0 0 80 80" version="1.1" xmlns="http://www.w3.org/2000/svg" xmlns:xlink="http://www.w3.org/1999/xlink">
    <!-- Generator: Sketch 58 (84663) - https://sketch.com -->
    <title>248-B80px</title>
    <desc>Created with Sketch.</desc>
    <g id="248-B80px" stroke="none" stroke-width="1" fill="none" fill-rule="evenodd">
        <g id="248-B32px">
            <g>
                <path d="M39.975,56.25 C39.975,55.55 40.025,54.85 40.125,54.15 C32.05,49.95 25.8,43.575 25.725,43.5 C25.6,43.35 13.925,31.15 12.5,19.125 C12.5,19.05 12.5,18.925 12.575,18.85 L19.125,12.525 C19.175,12.475 19.225,12.45 19.3,12.45 C19.375,12.45 19.425,12.5 19.425,12.5 L29.3,22.7 C29.375,22.775 29.35,22.925 29.275,23 L24.9,27.225 L23.7,28.4 L24.325,29.95 C24.425,30.2 26.75,35.875 30.075,39.3 C33.4,42.725 39,45.25 39.25,45.35 L40.8,46.025 L42,44.85 L46.375,40.625 C46.425,40.575 46.475,40.55 46.55,40.55 C46.625,40.55 46.675,40.6 46.675,40.6 L48.175,42.15 C48.925,41.7 49.725,41.325 50.575,41.025 L48.475,38.85 C47.95,38.3 47.25,38.025 46.55,38.025 C45.875,38.025 45.175,38.275 44.65,38.8 L40.275,43.025 C40.275,43.025 34.925,40.65 31.9,37.525 C28.875,34.4 26.675,28.975 26.675,28.975 L31.05,24.75 C32.125,23.7 32.175,22 31.125,20.925 L21.2,10.75 C20.675,10.225 19.975,9.95 19.275,9.95 C18.6,9.95 17.9,10.2 17.375,10.725 L10.825,17.05 C10.2,17.675 9.925,18.525 10.025,19.4 C11.575,32.45 23.925,45.2 23.925,45.2 C23.925,45.2 30.925,52.425 40.025,56.875 C40,56.675 39.975,56.45 39.975,56.25 Z" id="Path" fill="#101828" fill-rule="nonzero"></path>
                <path d="M56.225,45 C62.425,45 67.475,50.05 67.475,56.25 C67.475,62.45 62.425,67.5 56.225,67.5 C50.025,67.5 44.975,62.45 44.975,56.25 C44.975,50.05 50.025,45 56.225,45 L56.225,45 Z M56.225,42.5 C48.625,42.5 42.475,48.65 42.475,56.25 C42.475,63.85 48.625,70 56.225,70 C63.825,70 69.975,63.85 69.975,56.25 C69.975,48.65 63.825,42.5 56.225,42.5 L56.225,42.5 Z" id="Shape" fill="#101828" fill-rule="nonzero"></path>
                <g id="Group" transform="translate(50.000000, 47.500000)" fill="#101828" fill-rule="nonzero">
                    <path d="M6.225,3.75 C6.925,3.75 7.475,4.3 7.475,5 C7.475,5.7 6.925,6.25 6.225,6.25 C5.525,6.25 4.975,5.7 4.975,5 C4.975,4.3 5.55,3.75 6.225,3.75 L6.225,3.75 Z M6.225,1.25 C4.15,1.25 2.475,2.925 2.475,5 C2.475,7.075 4.15,8.75 6.225,8.75 C8.3,8.75 9.975,7.075 9.975,5 C9.975,2.925 8.3,1.25 6.225,1.25 L6.225,1.25 Z" id="Shape"></path>
                    <path d="M3.725,16.25 L3.725,13.75 L8.725,13.75 L8.725,16.25 L11.225,16.25 L11.225,14.475 C11.225,12.7 9.775,11.25 8,11.25 L4.475,11.25 C2.7,11.25 1.25,12.7 1.25,14.475 L1.25,16.25 L3.725,16.25 Z" id="Path"></path>
                </g>
                <rect id="Rectangle" x="0" y="0" width="80" height="80"></rect>
            </g>
        </g>
    </g>
</svg>