<?xml version="1.0" encoding="UTF-8"?>
<svg width="32px" height="32px" viewBox="0 0 32 32" version="1.1" xmlns="http://www.w3.org/2000/svg" xmlns:xlink="http://www.w3.org/1999/xlink">
    <!-- Generator: Sketch 57.1 (83088) - https://sketch.com -->
    <title>017-B32px</title>
    <desc>Created with Sketch.</desc>
    <g id="017-B32px" stroke="none" stroke-width="1" fill="none" fill-rule="evenodd">
        <g>
            <g id="Group" transform="translate(4.000000, 5.000000)" fill="#101828" fill-rule="nonzero">
                <path d="M9.96,19.93 C8.37,19.61 6.97,17.87 6.15,15.42 L8.04,15.42 C8.02,15.12 8,14.81 8,14.5 C8,14.47 8,14.45 8,14.42 L5.87,14.42 C5.6,13.36 5.44,12.21 5.4,11 L8.76,11 C8.92,10.65 9.1,10.32 9.3,10 L5.4,10 C5.44,8.79 5.6,7.64 5.86,6.58 L13.43,6.58 C14.23,6.27 15.09,6.08 15.98,6.03 C15.47,4.18 14.66,2.62 13.66,1.56 C16.03,2.4 17.97,4.16 19.05,6.4 C19.51,6.54 19.94,6.73 20.36,6.94 C18.91,2.89 15.05,0 10.5,0 C10.5,0 10.49,0 10.49,0 C10.49,0 10.49,0 10.48,0 C10.47,0 10.47,0 10.46,0 C4.68,0.02 0,4.71 0,10.5 C0,16.29 4.68,20.98 10.46,21 C10.47,21 10.47,21 10.48,21 C10.48,21 10.48,21 10.49,21 C10.49,21 10.5,21 10.5,21 C10.67,21 10.83,20.98 11,20.97 C10.63,20.66 10.28,20.31 9.96,19.93 Z M11,1.05 C12.59,1.36 13.99,3.12 14.81,5.58 L11,5.58 L11,1.05 Z M10,1.05 L10,5.58 L6.16,5.58 C6.98,3.11 8.39,1.34 10,1.05 Z M7.29,1.57 C6.37,2.55 5.61,3.93 5.1,5.58 L2.39,5.58 C3.51,3.74 5.23,2.31 7.29,1.57 Z M1.86,6.58 L4.84,6.58 C4.58,7.64 4.44,8.8 4.4,10 L1.03,10 C1.09,8.79 1.38,7.63 1.86,6.58 Z M1.03,11 L4.4,11 C4.43,12.2 4.58,13.36 4.83,14.42 L1.86,14.42 C1.38,13.37 1.09,12.21 1.03,11 Z M2.39,15.42 L5.1,15.42 C5.61,17.07 6.37,18.45 7.29,19.43 C5.23,18.69 3.51,17.26 2.39,15.42 Z" id="Shape"></path>
                <rect id="Rectangle" transform="translate(20.996032, 18.987826) rotate(-44.975691) translate(-20.996032, -18.987826) " x="20.4960368" y="18.2578329" width="1" height="1.45998613"></rect>
                <rect id="Rectangle" transform="translate(12.005471, 10.000329) rotate(-45.000000) translate(-12.005471, -10.000329) " x="11.5054758" y="9.270336" width="1" height="1.459986"></rect>
                <rect id="Rectangle" transform="translate(21.002271, 10.006971) rotate(-45.000000) translate(-21.002271, -10.006971) " x="20.272278" y="9.5069758" width="1.459986" height="1"></rect>
                <rect id="Rectangle" transform="translate(12.006300, 18.989958) rotate(-45.000000) translate(-12.006300, -18.989958) " x="11.276307" y="18.4899628" width="1.459986" height="1"></rect>
                <rect id="Rectangle" x="16" y="7.41" width="1" height="1.46"></rect>
                <rect id="Rectangle" x="16" y="20.12" width="1" height="1.46"></rect>
                <rect id="Rectangle" x="9.26" y="14" width="1.61" height="1"></rect>
                <rect id="Rectangle" x="22.12" y="14" width="1.62" height="1"></rect>
                <rect id="Rectangle" transform="translate(17.957800, 13.040368) rotate(-45.000000) translate(-17.957800, -13.040368) " x="16.6278128" y="12.5403728" width="2.65997449" height="1"></rect>
                <path d="M16.5,13.57 C15.99,13.57 15.57,13.99 15.57,14.5 C15.57,15.01 15.99,15.43 16.5,15.43 C17.01,15.43 17.43,15.01 17.43,14.5 C17.43,13.99 17.02,13.57 16.5,13.57 L16.5,13.57 Z" id="Path"></path>
                <path d="M16.5,8 C20.08,8 23,10.92 23,14.5 C23,18.08 20.08,21 16.5,21 C12.92,21 10,18.08 10,14.5 C10,10.92 12.92,8 16.5,8 L16.5,8 Z M16.5,7 C12.36,7 9,10.36 9,14.5 C9,18.64 12.36,22 16.5,22 C20.64,22 24,18.64 24,14.5 C24,10.36 20.64,7 16.5,7 L16.5,7 Z" id="Shape"></path>
                <path d="M18,17 L18,18 L15,18 L15,17 L18,17 L18,17 Z M18.17,16 L14.84,16 C14.37,16 14,16.37 14,16.83 L14,18.16 C14,18.62 14.37,18.99 14.83,18.99 L18.16,18.99 C18.62,18.99 18.99,18.62 18.99,18.16 L18.99,16.83 C19,16.37 18.63,16 18.17,16 L18.17,16 Z" id="Shape"></path>
            </g>
            <rect id="Rectangle" x="0" y="0" width="32" height="32"></rect>
        </g>
    </g>
</svg>