<?xml version="1.0" encoding="UTF-8"?>
<svg width="80px" height="80px" viewBox="0 0 80 80" version="1.1" xmlns="http://www.w3.org/2000/svg" xmlns:xlink="http://www.w3.org/1999/xlink">
    <!-- Generator: Sketch 57.1 (83088) - https://sketch.com -->
    <title>234-B80px</title>
    <desc>Created with Sketch.</desc>
    <g id="234-B80px" stroke="none" stroke-width="1" fill="none" fill-rule="evenodd">
        <g>
            <path d="M10,10 L10,17.5 C10,24.9 11.5,37.225 14.55,43.975 C18.725,53.2 26.4,64.55 40,70 C45.625,67.75 50.175,64.475 53.95,60.75 L51.6,59.575 C48.4,62.6 44.575,65.325 40,67.275 C27.55,61.925 20.525,51.125 16.825,42.925 C14.125,36.975 12.5,25.3 12.5,17.5 L12.5,12.5 L67.5,12.5 L67.5,17.5 C67.5,25.325 65.875,36.975 63.175,42.95 C62.3,44.9 61.225,47 59.925,49.125 L59.925,53.675 C62.2,50.4 64.05,47.075 65.45,43.975 C68.5,37.225 70,24.9 70,17.5 L70,10 L10,10 Z" id="Path" fill="#101828" fill-rule="nonzero"></path>
            <path d="M40.7,40 L27.6,40 C27.55,40 27.5,39.95 27.5,39.875 L27.5,20.125 C27.5,20.05 27.55,20 27.625,20 L52.4,20 C52.45,20 52.5,20.05 52.5,20.125 L52.5,25.125 C53.375,25.225 54.2,25.425 55,25.7 L55,20.125 C55,18.675 53.825,17.5 52.375,17.5 L27.6,17.5 C26.175,17.5 25,18.675 25,20.125 L25,39.875 C25,41.325 26.175,42.5 27.625,42.5 L41.95,42.5 C41.425,41.725 41.025,40.875 40.7,40 Z" id="Path" fill="#101828" fill-rule="nonzero"></path>
            <path d="M51.25,30 C54.7,30 57.5,32.8 57.5,36.25 C57.5,39.7 54.7,42.5 51.25,42.5 C47.8,42.5 45,39.7 45,36.25 C45,32.8 47.8,30 51.25,30 L51.25,30 Z M51.25,27.5 C46.425,27.5 42.5,31.425 42.5,36.25 C42.5,41.075 46.425,45 51.25,45 C56.075,45 60,41.075 60,36.25 C60,31.425 56.075,27.5 51.25,27.5 L51.25,27.5 Z" id="Shape" fill="#101828" fill-rule="nonzero"></path>
            <path d="M51.25,35 C51.95,35 52.5,35.575 52.5,36.25 C52.5,36.95 51.925,37.5 51.25,37.5 C50.55,37.5 50,36.925 50,36.25 C50,35.575 50.55,35 51.25,35 L51.25,35 Z M51.25,32.5 C49.175,32.5 47.5,34.175 47.5,36.25 C47.5,38.325 49.175,40 51.25,40 C53.325,40 55,38.325 55,36.25 C55,34.175 53.325,32.5 51.25,32.5 L51.25,32.5 Z" id="Shape" fill="#101828" fill-rule="nonzero"></path>
            <rect id="Rectangle" fill="#101828" fill-rule="nonzero" x="32.5" y="30" width="7.5" height="2.5"></rect>
            <rect id="Rectangle" fill="#101828" fill-rule="nonzero" x="32.5" y="25" width="10" height="2.5"></rect>
            <path d="M55,44.4 L55,55.9 L52.4,54.55 L51.25,53.95 L50.1,54.55 L47.5,55.9 L47.5,44.45 C48.55,44.825 49.775,45.05 51.2,45.05 C52.675,45.025 53.925,44.775 55,44.4 L55,44.4 Z M57.5,39.05 C57.5,39.05 56.25,42.525 51.2,42.525 C46.125,42.525 45,39.05 45,39.05 L45,60 L51.25,56.75 L57.5,60 L57.5,39.05 L57.5,39.05 Z" id="Shape" fill="#101828" fill-rule="nonzero"></path>
            <rect id="Rectangle" x="0" y="0" width="80" height="80"></rect>
        </g>
    </g>
</svg>