<?xml version="1.0" encoding="UTF-8"?>
<svg width="56px" height="56px" viewBox="0 0 56 56" version="1.1" xmlns="http://www.w3.org/2000/svg" xmlns:xlink="http://www.w3.org/1999/xlink">
    <!-- Generator: Sketch 57.1 (83088) - https://sketch.com -->
    <title>087-W56px</title>
    <desc>Created with Sketch.</desc>
    <g id="NEW_icons" stroke="none" stroke-width="1" fill="none" fill-rule="evenodd">
        <g id="icons_UD_new-Copy" transform="translate(-1814.000000, -11296.000000)">
            <g id="087-W56px" transform="translate(1814.000000, 11296.000000)">
                <g id="003-B32px-Copy-124" transform="translate(8.000000, 8.000000)">
                    <g id="Group" transform="translate(10.000000, 5.000000)" fill="#FFFFFF" fill-rule="nonzero">
                        <path d="M18.6875,0 L1.3125,0 C0.5875,0 0,0.5875 0,1.3125 L0,23.75 L0,25 L0,28.6875 C0,29.4125 0.5875,30 1.3125,30 L18.6875,30 C19.4125,30 20,29.4125 20,28.6875 L20,25 L20,23.75 L20,1.3125 C20,0.5875 19.4125,0 18.6875,0 Z M18.75,28.6875 C18.75,28.725 18.725,28.75 18.6875,28.75 L1.3125,28.75 C1.275,28.75 1.25,28.725 1.25,28.6875 L1.25,25 L18.75,25 L18.75,28.6875 Z M1.25,23.75 L1.25,1.3125 C1.25,1.275 1.275,1.25 1.3125,1.25 L18.6875,1.25 C18.725,1.25 18.75,1.275 18.75,1.3125 L18.75,23.75 L1.25,23.75 Z" id="Shape"></path>
                        <path d="M10,27.4875 C10.3375,27.4875 10.625,27.2125 10.625,26.8625 C10.625,26.525 10.35,26.2375 10,26.2375 C9.65,26.2375 9.375,26.5125 9.375,26.8625 C9.375,27.2125 9.6625,27.4875 10,27.4875 Z" id="Path"></path>
                        <path d="M12.5125,20 L7.5,20.0125 L7.5,16.25 L6.25,16.25 L6.25,20.0125 C6.25,20.6875 6.8,21.25 7.4875,21.25 L12.525,21.25 C13.2,21.25 13.7625,20.7 13.7625,20.0125 L13.7625,16.25 L12.5125,16.25 L12.5125,20 Z" id="Path"></path>
                        <polygon id="Path" points="4.775 15.575 5.5625 16.5375 10 12.875 14.4375 16.5375 15.225 15.575 10 11.2625"></polygon>
                        <path d="M12.6,7.3125 C11.925,6.65 11.0125,6.25 10,6.25 C8.9625,6.25 8.025,6.675 7.35,7.35 L8.2375,8.2375 C8.6875,7.775 9.3125,7.5 10,7.5 C10.6625,7.5 11.275,7.7625 11.7125,8.1875 L12.6,7.3125 Z" id="Path"></path>
                        <path d="M9.1125,9.1125 L9.95,9.95 L10.825,9.075 C10.6125,8.875 10.325,8.75 10,8.75 C9.65,8.75 9.3375,8.8875 9.1125,9.1125 Z" id="Path"></path>
                        <path d="M10,5 C11.35,5 12.5875,5.55 13.4875,6.425 L14.375,5.5375 C13.2375,4.4375 11.7,3.75 10,3.75 C8.275,3.75 6.7125,4.45 5.575,5.575 L6.4625,6.4625 C7.375,5.5625 8.625,5 10,5 Z" id="Path"></path>
                    </g>
                    <rect id="Rectangle" x="0" y="0" width="40" height="40"></rect>
                </g>
                <circle id="Oval-Copy-592" fill="#101828" cx="28" cy="28" r="28"></circle>
                <g id="087-B32px-Copy-6" transform="translate(8.000000, 8.000000)">
                    <path d="M23.75,32.5 L23.75,33.6875 C23.75,33.725 23.725,33.75 23.6875,33.75 L6.3125,33.75 C6.275,33.75 6.25,33.725 6.25,33.6875 L6.25,30 L12.5,30 L12.5,28.75 L6.25,28.75 L6.25,6.3125 C6.25,6.275 6.275,6.25 6.3125,6.25 L23.6875,6.25 C23.725,6.25 23.75,6.275 23.75,6.3125 L23.75,15 L25,15 L25,6.3125 C25,5.5875 24.4125,5 23.6875,5 L6.3125,5 C5.5875,5 5,5.5875 5,6.3125 L5,28.75 L5,30 L5,33.6875 C5,34.4125 5.5875,35 6.3125,35 L23.6875,35 C24.4125,35 25,34.4125 25,33.6875 L25,32.5 L23.75,32.5 Z" id="Path" fill="#FFFFFF" fill-rule="nonzero"></path>
                    <path d="M33.75,17.5 L33.75,30 L15,30 L15,17.5 L33.75,17.5 L33.75,17.5 Z M33.75,16.25 L15,16.25 C14.3125,16.25 13.75,16.8125 13.75,17.5 L13.75,30 C13.75,30.6875 14.3125,31.25 15,31.25 L33.75,31.25 C34.4375,31.25 35,30.6875 35,30 L35,17.5 C35,16.8125 34.4375,16.25 33.75,16.25 L33.75,16.25 Z" id="Shape" fill="#FFFFFF" fill-rule="nonzero"></path>
                    <path d="M33.75,20 L33.75,21.25 L15,21.25 L15,20 L33.75,20 L33.75,20 Z M35,18.75 L13.75,18.75 L13.75,22.5 L35,22.5 L35,18.75 L35,18.75 Z" id="Shape" fill="#FFFFFF" fill-rule="nonzero"></path>
                    <path d="M27.8125,27.4375 C27.7125,27.4625 27.6125,27.5 27.5,27.5 C26.8125,27.5 26.25,26.9375 26.25,26.25 C26.25,25.5625 26.8125,25 27.5,25 C27.6125,25 27.7125,25.0375 27.8125,25.0625 C28.0375,24.6625 28.35,24.325 28.75,24.1 C28.375,23.8875 27.9625,23.75 27.5,23.75 C26.125,23.75 25,24.875 25,26.25 C25,27.625 26.125,28.75 27.5,28.75 C27.9625,28.75 28.375,28.6125 28.75,28.4 C28.35,28.175 28.0375,27.8375 27.8125,27.4375 Z" id="Path" fill="#FFFFFF" fill-rule="nonzero"></path>
                    <path d="M30,25 C30.6875,25 31.25,25.5625 31.25,26.25 C31.25,26.9375 30.6875,27.5 30,27.5 C29.3125,27.5 28.75,26.9375 28.75,26.25 C28.75,25.5625 29.3125,25 30,25 L30,25 Z M30,23.75 C28.625,23.75 27.5,24.875 27.5,26.25 C27.5,27.625 28.625,28.75 30,28.75 C31.375,28.75 32.5,27.625 32.5,26.25 C32.5,24.875 31.375,23.75 30,23.75 L30,23.75 Z" id="Shape" fill="#FFFFFF" fill-rule="nonzero"></path>
                    <rect id="Rectangle" x="0" y="0" width="40" height="40"></rect>
                </g>
            </g>
        </g>
    </g>
</svg>