<?xml version="1.0" encoding="UTF-8"?>
<svg width="56px" height="56px" viewBox="0 0 56 56" version="1.1" xmlns="http://www.w3.org/2000/svg" xmlns:xlink="http://www.w3.org/1999/xlink">
    <!-- Generator: Sketch 57.1 (83088) - https://sketch.com -->
    <title>219-W56px</title>
    <desc>Created with Sketch.</desc>
    <g id="NEW_icons" stroke="none" stroke-width="1" fill="none" fill-rule="evenodd">
        <g id="icons_UD_new-Copy" transform="translate(-1814.000000, -27873.000000)">
            <g id="219-W56px" transform="translate(1814.000000, 27873.000000)">
                <circle id="Oval-Copy-1409" fill="#101828" cx="28" cy="28" r="28"></circle>
                <g id="219-B32px-Copy-4" transform="translate(8.000000, 8.000000)">
                    <path d="M15,30 L6.3125,30 C6.275,30 6.25,29.975 6.25,29.9375 L6.25,27.5 L15,27.5 L15,26.25 L6.25,26.25 L6.25,8.8125 C6.25,8.775 6.275,8.75 6.3125,8.75 L19.9375,8.75 C19.975,8.75 20,8.775 20,8.8125 L20,20 L21.25,20 L21.25,8.8125 C21.25,8.0875 20.6625,7.5 19.9375,7.5 L6.3125,7.5 C5.5875,7.5 5,8.0875 5,8.8125 L5,26.25 L5,27.5 L5,29.9375 C5,30.6625 5.5875,31.25 6.3125,31.25 L15,31.25 L15,30 Z" id="Path" fill="#FFFFFF" fill-rule="nonzero"></path>
                    <path d="M33.75,22.5 L33.775,32.5 L17.5,32.525 L17.475,22.5 L33.75,22.5 L33.75,22.5 Z M33.775,21.25 L17.475,21.25 C16.8,21.25 16.25,21.8 16.25,22.475 L16.25,32.525 C16.25,33.2 16.8,33.75 17.475,33.75 L33.775,33.75 C34.45,33.75 35,33.2 35,32.525 L35,22.475 C35,21.8 34.45,21.25 33.775,21.25 L33.775,21.25 Z" id="Shape" fill="#FFFFFF" fill-rule="nonzero"></path>
                    <rect id="Rectangle" fill="#FFFFFF" fill-rule="nonzero" x="17.0625" y="26.2625" width="17.35" height="1.25"></rect>
                    <path d="M25.625,18.75 C27.1375,18.75 28.4,19.825 28.6875,21.25 L22.5625,21.25 C22.85,19.825 24.1125,18.75 25.625,18.75 L25.625,18.75 Z M25.625,17.5 C23.2125,17.5 21.25,19.4625 21.25,21.875 C21.25,22.0875 21.2875,22.3 21.3125,22.5 L29.9375,22.5 C29.9625,22.3 30,22.0875 30,21.875 C30,19.4625 28.0375,17.5 25.625,17.5 L25.625,17.5 Z" id="Shape" fill="#FFFFFF" fill-rule="nonzero"></path>
                    <g id="Group" transform="translate(7.500000, 11.250000)" fill="#FFFFFF" fill-rule="nonzero">
                        <path d="M5.65,3.75 C6.3125,3.75 6.925,4.0125 7.3625,4.4375 L8.25,3.55 C7.575,2.9 6.6625,2.5 5.65,2.5 C4.6125,2.5 3.675,2.925 3,3.6 L3.8875,4.4875 C4.3375,4.025 4.9625,3.75 5.65,3.75 Z" id="Path"></path>
                        <path d="M6.475,5.325 C6.2625,5.125 5.975,5 5.65,5 C5.3,5 4.9875,5.1375 4.7625,5.3625 L5.6,6.2 L6.475,5.325 Z" id="Path"></path>
                        <path d="M5.65,1.25 C7,1.25 8.2375,1.8 9.1375,2.675 L10.025,1.7875 C8.8875,0.6875 7.35,0 5.65,0 C3.925,0 2.3625,0.7 1.225,1.825 L2.1125,2.7125 C3.025,1.8125 4.275,1.25 5.65,1.25 Z" id="Path"></path>
                    </g>
                    <rect id="Rectangle" x="0" y="0" width="40" height="40"></rect>
                </g>
            </g>
        </g>
    </g>
</svg>