<?xml version="1.0" encoding="UTF-8"?>
<svg width="80px" height="80px" viewBox="0 0 80 80" version="1.1" xmlns="http://www.w3.org/2000/svg" xmlns:xlink="http://www.w3.org/1999/xlink">
    <!-- Generator: Sketch 57.1 (83088) - https://sketch.com -->
    <title>093-B80px</title>
    <desc>Created with Sketch.</desc>
    <g id="093-B80px" stroke="none" stroke-width="1" fill="none" fill-rule="evenodd">
        <g>
            <path d="M37.5,65 C38.175,65 38.75,64.45 38.75,63.75 C38.75,63.05 38.175,62.5 37.5,62.5 C36.825,62.5 36.25,63.05 36.25,63.75 C36.25,64.45 36.825,65 37.5,65" id="Path" fill="#101828" fill-rule="nonzero"></path>
            <rect id="Rectangle" fill="#101828" fill-rule="nonzero" x="17.5" y="57.5" width="40" height="2.5"></rect>
            <g id="Shape_8_" transform="translate(42.500000, 25.000000)" fill="#101828" fill-rule="nonzero">
                <rect id="Rectangle" x="1.25" y="0" width="2.5" height="16.775"></rect>
            </g>
            <rect id="Rectangle" fill="#101828" fill-rule="nonzero" x="42.5" y="40.525" width="5" height="2.5"></rect>
            <rect id="Rectangle" fill="#101828" fill-rule="nonzero" x="42.5" y="23.75" width="5" height="2.5"></rect>
            <path d="M28.75,30 C29.45,30 30,30.55 30,31.25 C30,31.95 29.45,32.5 28.75,32.5 C28.05,32.5 27.5,31.95 27.5,31.25 C27.5,30.55 28.05,30 28.75,30 L28.75,30 Z M28.75,27.5 C26.675,27.5 25,29.175 25,31.25 C25,33.325 26.675,35 28.75,35 C30.825,35 32.5,33.325 32.5,31.25 C32.5,29.175 30.825,27.5 28.75,27.5 L28.75,27.5 Z" id="Shape" fill="#101828" fill-rule="nonzero"></path>
            <path d="M28.75,35 C29.45,35 30,35.55 30,36.25 C30,36.95 29.45,37.5 28.75,37.5 C28.05,37.5 27.5,36.95 27.5,36.25 C27.5,35.55 28.05,35 28.75,35 L28.75,35 Z M28.75,32.5 C26.675,32.5 25,34.175 25,36.25 C25,38.325 26.675,40 28.75,40 C30.825,40 32.5,38.325 32.5,36.25 C32.5,34.175 30.825,32.5 28.75,32.5 L28.75,32.5 Z" id="Shape" fill="#101828" fill-rule="nonzero"></path>
            <path d="M55,42.5 L55,67.375 C55,67.45 54.95,67.5 54.875,67.5 L20.125,67.5 C20.05,67.5 20,67.45 20,67.375 L20,12.625 C20,12.55 20.05,12.5 20.125,12.5 L54.875,12.5 C54.95,12.5 55,12.55 55,12.625 L55,25 L57.5,25 L57.5,12.625 C57.5,11.175 56.325,10 54.875,10 L20.125,10 C18.675,10 17.5,11.175 17.5,12.625 L17.5,67.375 C17.5,68.825 18.675,70 20.125,70 L54.875,70 C56.325,70 57.5,68.825 57.5,67.375 L57.5,42.5 L55,42.5 Z" id="Path" fill="#101828" fill-rule="nonzero"></path>
            <polygon id="Path" fill="#101828" fill-rule="nonzero" points="48.45 40 51.275 40 53.15 36.45 55 40 57.825 40 54.55 33.775 57.85 27.5 55.025 27.5 53.15 31.075 51.25 27.5 48.425 27.5 51.725 33.775"></polygon>
            <polygon id="Path" fill="#101828" fill-rule="nonzero" points="58.975 40 61.8 40 63.675 36.45 65.55 40 68.375 40 65.075 33.775 68.4 27.5 65.575 27.5 63.675 31.075 61.775 27.5 58.95 27.5 62.25 33.775"></polygon>
            <path d="M41.75,31.35 C41.75,31.3 41.775,31.25 41.775,31.2 C41.775,29.15 40.1,27.5 38.025,27.5 C35.95,27.5 34.275,29.15 34.275,31.2 C34.275,33.25 35.95,34.9 38.025,34.9 C38.475,34.9 38.9,34.8 39.3,34.675 L39.3,36.075 C39.3,36.325 39.225,37.55 38,37.55 C37.45,37.55 37.25,37.35 37.175,37.3 C36.875,37 36.8,36.4 36.8,36.225 L35.55,36.2 L34.3,36.175 C34.3,36.35 34.3,37.9 35.375,39 C35.825,39.45 36.65,40 37.975,40 C40.725,40 41.75,37.675 41.775,36.075 L41.775,31.325 L41.75,31.325 L41.75,31.35 Z M38,32.425 C37.3,32.425 36.75,31.875 36.75,31.2 C36.75,30.525 37.3,29.975 38,29.975 C38.7,29.975 39.25,30.525 39.25,31.2 C39.25,31.875 38.7,32.425 38,32.425 Z" id="Shape" fill="#101828" fill-rule="nonzero"></path>
            <rect id="Rectangle" x="0" y="0" width="80" height="80"></rect>
        </g>
    </g>
</svg>