<?xml version="1.0" encoding="UTF-8"?>
<svg width="80px" height="80px" viewBox="0 0 80 80" version="1.1" xmlns="http://www.w3.org/2000/svg" xmlns:xlink="http://www.w3.org/1999/xlink">
    <!-- Generator: Sketch 57.1 (83088) - https://sketch.com -->
    <title>042-B80px</title>
    <desc>Created with Sketch.</desc>
    <defs>
        <path d="M57.8763281,35.0086541 C57.8573203,35.1143774 57.8440078,35.2210639 57.8240625,35.3267871 L57.7214297,34.7209929 C57.7774922,34.815298 57.8240625,34.9134092 57.8763281,35.0086541 C58.1860781,33.3189383 58.3485703,31.5892355 58.3485703,29.8604491 C58.3485703,26.0267129 57.5998125,22.3072517 56.1203672,18.8059094 C54.6931641,15.4236114 52.6511953,12.3861357 50.0476641,9.77822522 C47.4479297,7.17031476 44.4158672,5.12341881 41.0436328,3.69279539 C37.5516563,2.21168324 33.8411484,1.4611187 30.0166172,1.4611187 C28.2141094,1.4611187 26.4087422,1.6306518 24.6518438,1.96880171 C24.6480234,1.96974148 24.6432891,1.96974148 24.6385312,1.97070473 C24.7373438,2.02307298 24.8371172,2.06975566 24.9340313,2.12405042 L24.3382734,2.03070855 C24.4380469,2.01165487 24.5387578,1.99069817 24.6385312,1.97070473 C22.2278883,0.685791432 19.5169852,0 16.7728242,0 C12.2926594,0 8.08045078,1.7487564 4.91250234,4.92531694 C1.74550641,8.10089073 0,12.3232656 0,16.814248 C0,19.672652 0.733549687,22.4824939 2.11038094,24.9656274 C2.12843461,24.8627704 2.14078711,24.7589502 2.16074109,24.6560698 L2.26336219,25.2513856 C2.21015133,25.1580437 2.1635918,25.0608723 2.11038094,24.9656274 C1.83102375,26.5743828 1.68374367,28.2183792 1.68374367,29.8604491 C1.68374367,33.695172 2.43249609,37.4136817 3.91194844,40.9159755 C5.33723906,44.2992086 7.38015703,47.3347836 9.98083828,49.9426917 C12.5843695,52.5505998 15.6126375,54.6003527 18.9886758,56.0271771 C22.4806406,57.5111508 26.1920859,58.2626641 30.0166172,58.2626641 C31.6813594,58.2626641 33.3498984,58.1102661 34.9785469,57.8207101 C34.8835312,57.7673699 34.7865938,57.7187936 34.6896797,57.6625982 L35.2949531,57.7692753 C35.1904453,57.7892781 35.0849531,57.8016604 34.9785469,57.8207101 C37.488,59.2437255 40.3290937,60 43.2300234,60 C47.7092344,60 51.9195469,58.2540915 55.0875,55.0765959 C58.2563906,51.9029087 60,47.6795824 60,43.188607 C60,40.3206714 59.2626563,37.5013098 57.8763281,35.0086541 Z M30.1297031,47.2538208 C20.0642953,47.2538208 15.5613281,42.2932698 15.5613281,38.575714 C15.5613281,36.6688356 16.9657148,35.3324962 18.9012586,35.3324962 C23.2084875,35.3324962 22.0929609,41.532234 30.1297031,41.532234 C34.2440391,41.532234 36.5159531,39.2929381 36.5159531,37.0012553 C36.5159531,35.6230001 35.8375078,34.0952053 33.1285078,33.4256248 L24.1757812,31.1853728 C16.9657148,29.372783 15.6572977,25.4656984 15.6572977,21.7928964 C15.6572977,14.1672904 22.8198586,11.304117 29.5462734,11.304117 C35.7424922,11.304117 43.0466484,14.7368802 43.0466484,19.3116659 C43.0466484,21.2718923 41.3533828,22.4120117 39.4188047,22.4120117 C35.7424922,22.4120117 36.4190391,17.3114526 29.0141719,17.3114526 C25.3397812,17.3114526 23.304457,18.9792485 23.304457,21.3661739 C23.304457,23.7483535 26.2063594,24.5093964 28.7262656,25.0846953 L35.3529141,26.5591351 C42.6114609,28.1802718 44.4519844,32.4283727 44.4519844,36.4297624 C44.4519844,42.626641 39.7067109,47.2538208 30.1297031,47.2538208 Z M34.6896797,57.6625982 C34.7865938,57.7343552 34.8835313,57.7963832 34.9785469,57.8644943 C35.0849531,57.8401694 35.1904453,57.8243582 35.2949531,57.7988162 L34.6896797,57.6625982 Z M57.8527997,35.3267871 C57.8783297,35.2210639 57.8953697,35.1143774 57.9196997,35.0086541 C57.8527997,34.9134092 57.7931897,34.815298 57.7214297,34.7209929 L57.8527997,35.3267871 Z M2.17484194,24.6560698 C2.14930084,24.7589502 2.13348964,24.8627704 2.11038094,24.9656274 C2.17849084,25.0608723 2.23808704,25.1580437 2.30619694,25.2513856 L2.17484194,24.6560698 Z M24.9340313,2.16651473 C24.8371172,2.09718473 24.7373438,2.03757473 24.6385313,1.97070473 C24.5387578,1.99623473 24.4380469,2.02299473 24.3382734,2.04732473 L24.9340313,2.16651473 Z" id="path-1"></path>
    </defs>
    <g id="042-B80px" stroke="none" stroke-width="1" fill="none" fill-rule="evenodd">
        <g>
            <rect id="Rectangle" x="0" y="0" width="80" height="80"></rect>
            <g id="Skype_color" transform="translate(10.000000, 10.000000)">
                <mask id="mask-2" fill="white">
                    <use xlink:href="#path-1"></use>
                </mask>
                <g id="path-1"></g>
                <polygon id="Fill-1" fill="#101828" fill-rule="nonzero" mask="url(#mask-2)" points="-1.13207547 61.1320755 61.1320755 61.1320755 61.1320755 -1.13207547 -1.13207547 -1.13207547"></polygon>
            </g>
        </g>
    </g>
</svg>