<?xml version="1.0" encoding="UTF-8"?>
<svg width="80px" height="80px" viewBox="0 0 80 80" version="1.1" xmlns="http://www.w3.org/2000/svg" xmlns:xlink="http://www.w3.org/1999/xlink">
    <!-- Generator: Sketch 57.1 (83088) - https://sketch.com -->
    <title>043-B80px</title>
    <desc>Created with Sketch.</desc>
    <g id="043-B80px" stroke="none" stroke-width="1" fill="none" fill-rule="evenodd">
        <g>
            <path d="M50,42.5 C48.625,42.5 47.5,43.625 47.5,45 C47.5,46.375 48.625,47.5 50,47.5 C51.375,47.5 52.5,46.375 52.5,45 C52.5,43.625 51.375,42.5 50,42.5 L50,42.5 Z" id="Path" fill="#101828" fill-rule="nonzero"></path>
            <path d="M60,42.5 C58.625,42.5 57.5,43.625 57.5,45 C57.5,46.375 58.625,47.5 60,47.5 C61.375,47.5 62.5,46.375 62.5,45 C62.5,43.625 61.375,42.5 60,42.5 L60,42.5 Z" id="Path" fill="#101828" fill-rule="nonzero"></path>
            <path d="M55,47.5 C53.625,47.5 52.5,48.625 52.5,50 C52.5,51.375 53.625,52.5 55,52.5 C56.375,52.5 57.5,51.375 57.5,50 C57.5,48.625 56.375,47.5 55,47.5 L55,47.5 Z" id="Path" fill="#101828" fill-rule="nonzero"></path>
            <path d="M55,37.5 C53.625,37.5 52.5,38.625 52.5,40 C52.5,41.375 53.625,42.5 55,42.5 C56.375,42.5 57.5,41.375 57.5,40 C57.5,38.625 56.375,37.5 55,37.5 L55,37.5 Z" id="Path" fill="#101828" fill-rule="nonzero"></path>
            <polygon id="Path" fill="#101828" fill-rule="nonzero" points="20 42.5 20 45 25 45 25 50 27.5 50 27.5 45 32.5 45 32.5 42.5 27.5 42.5 27.5 37.5 25 37.5 25 42.5"></polygon>
            <path d="M41.25,30 L38.75,30 L38.75,27.5 C38.75,27.275 38.825,21.7 44.45,18.875 C48.7,16.75 48.75,12.55 48.75,12.5 L51.25,12.5 C51.25,12.725 51.175,18.3 45.55,21.125 C41.3,23.25 41.25,27.45 41.25,27.5 L41.25,30 Z" id="Path" fill="#101828" fill-rule="nonzero"></path>
            <path d="M62.825,32.5 C62.875,32.5 62.95,32.55 62.95,32.625 L67,51.375 C67.675,54.65 67.75,56.6 66.475,59.4 C65,62.7 61.275,65 57.45,65 L57.275,65 C51.875,64.9 47.475,60.425 47.475,55 L47.475,52.5 L44.975,52.5 L35,52.5 L32.5,52.5 L32.5,55 C32.5,60.425 28.1,64.9 22.7,65 L22.525,65 C18.725,65 15,62.7 13.5,59.4 C12.225,56.6 12.3,54.675 12.975,51.4 L17.05,32.575 C17.05,32.55 17.125,32.5 17.175,32.5 L35,32.5 L45,32.5 L62.825,32.5 L62.825,32.5 Z M62.825,30 L45,30 L35,30 L17.175,30 C15.925,30 14.85,30.875 14.6,32.1 L10.525,50.875 C9.8,54.5 9.65,56.975 11.225,60.425 C13.175,64.7 17.875,67.5 22.55,67.5 C22.625,67.5 22.7,67.5 22.775,67.5 C29.575,67.375 35.025,61.825 35.025,55 L45,55 C45,61.825 50.475,67.375 57.25,67.5 C57.325,67.5 57.4,67.5 57.475,67.5 C62.15,67.5 66.85,64.7 68.775,60.45 C70.35,57 70.225,54.525 69.475,50.9 L65.4,32.125 C65.15,30.875 64.075,30 62.825,30 L62.825,30 Z" id="Shape" fill="#101828" fill-rule="nonzero"></path>
            <rect id="Rectangle" x="0" y="0" width="80" height="80"></rect>
        </g>
    </g>
</svg>