<?xml version="1.0" encoding="UTF-8"?>
<svg width="80px" height="80px" viewBox="0 0 80 80" version="1.1" xmlns="http://www.w3.org/2000/svg" xmlns:xlink="http://www.w3.org/1999/xlink">
    <!-- Generator: Sketch 57.1 (83088) - https://sketch.com -->
    <title>208-W80px</title>
    <desc>Created with Sketch.</desc>
    <g id="NEW_icons" stroke="none" stroke-width="1" fill="none" fill-rule="evenodd">
        <g id="icons_UD_new-Copy" transform="translate(-878.000000, -26593.000000)">
            <g id="208-W80px" transform="translate(878.000000, 26593.000000)">
                <circle id="Oval-Copy-1292" fill="#101828" cx="40" cy="40" r="40"></circle>
                <g id="208-B32px-Copy-8" transform="translate(12.000000, 12.000000)">
                    <path d="M33.25,38.6925 C31.7975,38.5875 30.24,38.5175 28.5775,38.5 L33.25,38.5 L33.25,36.75 L8.75,36.715 L8.785,17.5 L47.215,17.5 L47.25,17.535 L47.2325,26.25 L49,26.25 L49,17.535 C49,16.555 48.195,15.75 47.215,15.75 L8.785,15.75 C7.805,15.75 7,16.555 7,17.535 L7,36.715 C7,37.7125 7.805,38.5 8.785,38.5 L27.5625,38.5 C20.23,38.535 14.735,39.655 12.2675,40.2675 L12.2675,42.07 C14.4025,41.5275 20.195,40.25 27.965,40.25 C29.855,40.25 31.6225,40.32 33.25,40.4425 L33.25,38.6925 Z" id="Path" fill="#FFFFFF" fill-rule="nonzero"></path>
                    <path d="M24.5,24.045 L29.785,27.125 L24.5,30.205 L24.5,24.045 L24.5,24.045 Z M22.75,21 L22.75,33.25 L33.25,27.125 L22.75,21 L22.75,21 Z" id="Shape" fill="#FFFFFF" fill-rule="nonzero"></path>
                    <path d="M47.25,35 L47.25,45.5 L36.75,45.5 L36.75,35 L47.25,35 L47.25,35 Z M47.32,33.25 L36.68,33.25 C35.7525,33.25 35,34.0025 35,34.93 L35,45.5875 C35,46.515 35.7525,47.2675 36.68,47.2675 L47.32,47.2675 C48.2475,47.2675 49,46.515 49,45.5875 L49,34.93 C49,34.0025 48.2475,33.25 47.32,33.25 L47.32,33.25 Z" id="Shape" fill="#FFFFFF" fill-rule="nonzero"></path>
                    <path d="M42,42 C41.51,42 41.125,41.615 41.125,41.125 L41.125,39.375 C41.125,38.885 41.51,38.5 42,38.5 C42.49,38.5 42.875,38.885 42.875,39.375 L42.875,41.125 C42.875,41.615 42.49,42 42,42 Z" id="Path" fill="#FFFFFF" fill-rule="nonzero"></path>
                    <path d="M43.75,33.25 L43.75,33.25 L38.5,33.25 L38.5,31.5 C38.5,29.575 40.075,28 42,28 C43.295,28 44.415,28.7175 45.01,29.75 L46.9175,29.75 C46.2,27.72 44.275,26.25 41.9825,26.25 C39.0775,26.25 36.7325,28.595 36.7325,31.5 L36.7325,35 L47.2325,35 L47.2325,33.25 L43.75,33.25 Z" id="Path" fill="#FFFFFF" fill-rule="nonzero"></path>
                    <polygon id="Path" fill="#FFFFFF" fill-rule="nonzero" points="33.25 36.75 29.75 36.75 29.75 40.25 33.25 40.25"></polygon>
                    <rect id="Rectangle" x="0" y="0" width="56" height="56"></rect>
                </g>
            </g>
        </g>
    </g>
</svg>