<?xml version="1.0" encoding="UTF-8"?>
<svg width="80px" height="80px" viewBox="0 0 80 80" version="1.1" xmlns="http://www.w3.org/2000/svg" xmlns:xlink="http://www.w3.org/1999/xlink">
    <!-- Generator: Sketch 57.1 (83088) - https://sketch.com -->
    <title>199-W80px</title>
    <desc>Created with Sketch.</desc>
    <g id="NEW_icons" stroke="none" stroke-width="1" fill="none" fill-rule="evenodd">
        <g id="icons_UD_new-Copy" transform="translate(-2151.000000, -25337.000000)">
            <g id="199-W80px" transform="translate(2151.000000, 25337.000000)">
                <circle id="Oval-Copy-1195" fill="#101828" cx="40" cy="40" r="40"></circle>
                <g id="199-B32px-Copy-8" transform="translate(12.000000, 12.000000)">
                    <path d="M47.215,17.5 L47.25,17.535 L47.215,36.7325 L8.75,36.6975 L8.785,17.5 L47.215,17.5 L47.215,17.5 Z M47.215,15.75 L8.785,15.75 C7.805,15.75 7,16.555 7,17.535 L7,36.6975 C7,37.6775 7.805,38.4825 8.785,38.4825 L47.215,38.4825 C48.195,38.4825 49,37.6775 49,36.6975 L49,17.535 C49,16.555 48.195,15.75 47.215,15.75 L47.215,15.75 Z" id="Shape" fill="#FFFFFF" fill-rule="nonzero"></path>
                    <path d="M27.965,38.395 C20.4225,38.395 14.77,39.55 12.25,40.18 L12.25,41.9825 C14.42,41.4225 20.195,40.145 27.965,40.145 C35.805,40.145 41.6325,41.44 43.75,42 L43.75,40.1975 C41.2475,39.5675 35.5775,38.395 27.965,38.395 Z" id="Path" fill="#FFFFFF" fill-rule="nonzero"></path>
                    <path d="M16.38,26.1625 C14.77,25.8475 14.56,25.4625 14.56,25.13 C14.56,24.675 15.19,24.5175 15.7325,24.5175 C16.4325,24.5175 16.94,24.7975 17.36,25.445 L17.465,25.6025 L19.0925,24.7275 L18.9875,24.535 C18.375,23.345 17.3075,22.75 15.7675,22.75 C13.9125,22.75 12.6525,23.7125 12.6525,25.165 C12.6525,26.5125 13.6325,27.44 15.4,27.7725 C16.7475,28.0175 17.255,28.3325 17.255,28.8925 C17.255,29.4175 16.73,29.75 15.9425,29.75 C14.98,29.75 14.42,29.365 14.035,28.455 L13.9475,28.245 L12.25,29.0325 L12.3025,29.2075 C12.74,30.6425 14.105,31.5 15.96,31.5 C18.1125,31.5 19.25,30.1525 19.25,28.8225 C19.25,27.405 18.34,26.565 16.38,26.1625 Z" id="Path" fill="#FFFFFF" fill-rule="nonzero"></path>
                    <path d="M24.5,22.75 L21,31.5 L23.1175,31.5 L23.94,29.33 L26.81,29.33 L27.6325,31.5 L29.75,31.5 L26.25,22.75 L24.5,22.75 Z M25.375,25.4975 C25.445,25.69 25.48,25.795 25.48,25.795 L26.11,27.475 L24.6225,27.475 L25.2525,25.795 C25.27,25.795 25.305,25.69 25.375,25.4975 Z" id="Shape" fill="#FFFFFF" fill-rule="nonzero"></path>
                    <polygon id="Path" fill="#FFFFFF" fill-rule="nonzero" points="33.25 22.75 31.5 22.75 31.5 31.4825 36.75 31.4825 36.75 29.7325 33.25 29.7325"></polygon>
                    <polygon id="Path" fill="#FFFFFF" fill-rule="nonzero" points="40.25 29.7325 40.25 27.9825 43.75 27.9825 43.75 26.2325 40.25 26.2325 40.25 24.4825 43.75 24.4825 43.715 22.75 38.5 22.75 38.5 31.4825 43.75 31.4825 43.75 29.7325"></polygon>
                    <rect id="Rectangle" x="0" y="0" width="56" height="56"></rect>
                </g>
            </g>
        </g>
    </g>
</svg>