<?xml version="1.0" encoding="UTF-8"?>
<svg width="80px" height="80px" viewBox="0 0 80 80" version="1.1" xmlns="http://www.w3.org/2000/svg" xmlns:xlink="http://www.w3.org/1999/xlink">
    <!-- Generator: Sketch 57.1 (83088) - https://sketch.com -->
    <title>098-G80px</title>
    <desc>Created with Sketch.</desc>
    <g id="NEW_icons" stroke="none" stroke-width="1" fill="none" fill-rule="evenodd">
        <g id="icons_UD_new-Copy" transform="translate(-768.000000, -12772.000000)">
            <g id="098-G80px" transform="translate(768.000000, 12772.000000)">
                <circle id="Oval-Copy-595" fill="#E3E8EC" cx="40" cy="40" r="40"></circle>
                <g id="098-B32px-Copy-4" transform="translate(12.000000, 12.000000)">
                    <path d="M39.375,31.5 C43.715,31.5 47.25,35.035 47.25,39.375 C47.25,43.715 43.715,47.25 39.375,47.25 C35.035,47.25 31.5,43.715 31.5,39.375 C31.5,35.035 35.035,31.5 39.375,31.5 L39.375,31.5 Z M39.375,29.75 C34.055,29.75 29.75,34.055 29.75,39.375 C29.75,44.695 34.055,49 39.375,49 C44.695,49 49,44.695 49,39.375 C49,34.055 44.695,29.75 39.375,29.75 L39.375,29.75 Z" id="Shape" fill="#101828" fill-rule="nonzero"></path>
                    <path d="M38.6225,36.3475 L36.4875,34.1425 C36.26,33.915 35.8925,33.915 35.665,34.1425 L34.2475,35.5075 C34.1075,35.6475 34.055,35.8225 34.0725,36.015 C34.405,38.8325 37.065,41.58 37.065,41.58 C37.065,41.58 39.7075,44.31 42.5425,44.765 C42.7175,44.8 42.91,44.73 43.05,44.6075 L44.4675,43.2425 C44.695,43.015 44.7125,42.6475 44.485,42.42 L42.35,40.215 C42.1225,39.9875 41.755,39.9875 41.5275,40.215 L40.6,41.125 C40.6,41.125 39.445,40.6175 38.7975,39.935 C38.15,39.2525 37.6775,38.08 37.6775,38.08 L38.6225,37.17 C38.85,36.9425 38.85,36.575 38.6225,36.3475 Z" id="Path" fill="#101828" fill-rule="nonzero"></path>
                    <rect id="Rectangle" fill="#101828" fill-rule="nonzero" x="21" y="47.25" width="8.75" height="1.75"></rect>
                    <path d="M9.975,33.4075 C9.9575,33.3725 9.9575,33.355 9.94,33.32 C9.765,32.865 9.59,32.41 9.45,31.9375 C9.415,31.815 9.38,31.675 9.345,31.535 C9.24,31.15 9.135,30.7825 9.065,30.3975 C9.0125,30.1175 8.9775,29.8375 8.9425,29.5575 C8.9075,29.295 8.855,29.05 8.8375,28.7875 C8.785,28.245 8.75,27.685 8.75,27.125 C8.75,26.565 8.785,26.005 8.8375,25.445 C8.855,25.1825 8.9075,24.9375 8.9425,24.675 C8.9775,24.395 9.0125,24.115 9.065,23.835 C9.135,23.45 9.24,23.065 9.345,22.6975 C9.38,22.575 9.415,22.435 9.45,22.295 C9.59,21.8225 9.765,21.3675 9.94,20.9125 C9.9575,20.8775 9.9575,20.86 9.975,20.825 C12.46,14.7175 18.445,10.4125 25.445,10.4125 C25.7075,10.4125 25.97,10.4475 26.2325,10.4475 L26.2325,8.8025 L26.2325,7 L24.4825,7 L24.4825,8.8025 C14.7525,9.2575 7,17.2725 7,27.125 C7,36.9775 14.77,44.9925 24.5,45.4475 L24.5,49 L26.25,49 L26.25,45.4475 L26.25,43.785 C25.9875,43.8025 25.725,43.82 25.4625,43.82 C18.445,43.8375 12.46,39.515 9.975,33.4075 Z" id="Path" fill="#101828" fill-rule="nonzero"></path>
                    <path d="M28.035,39.9525 C27.4575,40.075 26.8625,40.1625 26.25,40.215 L26.25,34.265 L29.2425,34.265 C29.5575,33.6525 29.9075,33.0575 30.3275,32.515 L26.25,32.515 L26.25,28 L33.9675,28 L36.75,28 L38.4475,28 L40.1975,28 C40.215,27.7025 40.25,27.4225 40.25,27.125 C40.25,18.9175 33.5825,12.25 25.375,12.25 C25.375,12.25 25.3575,12.25 25.3575,12.25 C25.3575,12.25 25.3575,12.25 25.3575,12.25 C25.34,12.25 25.34,12.25 25.3225,12.25 C17.1325,12.285 10.5,18.935 10.5,27.125 C10.5,35.315 17.1325,41.965 25.3225,42 C25.34,42 25.34,42 25.3575,42 C25.3575,42 25.3575,42 25.3575,42 C25.3575,42 25.375,42 25.375,42 C26.355,42 27.3175,41.895 28.245,41.72 C28.1225,41.1425 28.0525,40.5475 28.035,39.9525 Z M38.4475,26.25 L33.95,26.25 C33.8975,24.6575 33.705,23.1525 33.39,21.735 L37.3275,21.735 C37.9575,23.135 38.3425,24.6575 38.4475,26.25 Z M36.365,19.985 L32.9175,19.985 C32.2875,17.99 31.395,16.275 30.31,14.98 C32.8125,15.995 34.93,17.7625 36.365,19.985 Z M26.25,14.14 C28.1225,14.665 29.96,16.765 31.0975,19.985 L26.25,19.985 L26.25,14.14 Z M26.25,21.735 L31.605,21.735 C31.9375,23.1 32.165,24.605 32.2175,26.25 L26.25,26.25 L26.25,21.735 Z M20.37,14.9975 C19.3025,16.2925 18.41,18.0075 17.78,19.985 L14.385,19.985 C15.82,17.78 17.9025,16.03 20.37,14.9975 Z M13.4225,21.735 L17.3075,21.735 C16.9925,23.1525 16.8,24.6575 16.7475,26.25 L12.3025,26.25 C12.4075,24.6575 12.7925,23.135 13.4225,21.735 Z M12.3025,28 L16.7475,28 C16.8,29.5925 16.9925,31.0975 17.3075,32.515 L13.4225,32.515 C12.7925,31.115 12.4075,29.5925 12.3025,28 Z M14.3675,34.265 L17.7625,34.265 C18.3925,36.2425 19.285,37.9575 20.3525,39.2525 C17.9025,38.22 15.82,36.47 14.3675,34.265 Z M24.5,40.145 C22.61,39.655 20.755,37.52 19.6,34.265 L24.5,34.265 L24.5,40.145 Z M24.5,32.515 L19.11,32.515 C18.7775,31.15 18.585,29.645 18.515,28 L24.5,28 L24.5,32.515 Z M24.5,26.25 L18.4975,26.25 C18.55,24.6225 18.76,23.1 19.0925,21.735 L24.5,21.735 L24.5,26.25 Z M24.5,19.985 L19.6,19.985 C20.7375,16.73 22.5925,14.63 24.5,14.1225 L24.5,19.985 Z" id="Shape" fill="#101828" fill-rule="nonzero"></path>
                    <rect id="Rectangle" x="0" y="0" width="56" height="56"></rect>
                </g>
            </g>
        </g>
    </g>
</svg>