<?xml version="1.0" encoding="UTF-8"?>
<svg width="80px" height="80px" viewBox="0 0 80 80" version="1.1" xmlns="http://www.w3.org/2000/svg" xmlns:xlink="http://www.w3.org/1999/xlink">
    <!-- Generator: Sketch 57.1 (83088) - https://sketch.com -->
    <title>245-B80px</title>
    <desc>Created with Sketch.</desc>
    <g id="245-B80px" stroke="none" stroke-width="1" fill="none" fill-rule="evenodd">
        <g>
            <path d="M60,70.625 L20,70.625 C17.925,70.625 16.25,68.95 16.25,66.875 L16.25,60.625 L23.75,60.625 L23.75,63.125 L26.25,63.125 L26.25,60.625 L33.75,60.625 L33.75,63.125 L36.25,63.125 L36.25,60.625 L43.75,60.625 L43.75,63.125 L46.25,63.125 L46.25,60.625 L53.75,60.625 L53.75,63.125 L56.25,63.125 L56.25,60.625 L63.75,60.625 L63.75,66.875 C63.75,68.95 62.075,70.625 60,70.625 Z M18.75,63.125 L18.75,66.875 C18.75,67.575 19.3,68.125 20,68.125 L60,68.125 C60.7,68.125 61.25,67.575 61.25,66.875 L61.25,63.125 L58.75,63.125 L58.75,65.625 L51.25,65.625 L51.25,63.125 L48.75,63.125 L48.75,65.625 L41.25,65.625 L41.25,63.125 L38.75,63.125 L38.75,65.625 L31.25,65.625 L31.25,63.125 L28.75,63.125 L28.75,65.625 L21.25,65.625 L21.25,63.125 L18.75,63.125 Z" id="Shape" fill="#101828" fill-rule="nonzero"></path>
            <path d="M34.4,13.625 C37.375,14.475 42.65,16.575 45.725,21.1 L49.15,26.125 L50.1,20.975 C53.475,24.35 57.825,30.325 57.575,38.55 C57.35,45.325 54.525,50.025 51.725,53.05 C52.425,46.9 51.8,37.3 43.975,28.375 L40.075,23.925 L39.6,29.825 C39.6,29.85 39.425,31.875 38.85,34.425 C38.775,34.3 38.7,34.175 38.65,34.05 L34.575,27.075 L34,35.125 C33.9,36.5 33.325,40.55 31.75,42.775 L31.35,43.325 C30.05,45.1 28.3,47.55 28.35,52.075 C28.35,52.375 28.375,52.675 28.375,52.975 C25.525,50.25 23.775,47.45 23.025,44.475 C21.575,38.75 23.975,34.7 27.275,29.1 C29.65,25.075 32.525,20.175 34.4,13.625 L34.4,13.625 Z M32.575,10.625 C28.7,27.55 17.575,33.125 20.6,45.075 C22.05,50.8 26.375,54.95 30.475,57.95 C30.625,58.075 30.8,58.125 30.975,58.125 C31.55,58.125 32.05,57.475 31.75,56.775 C31.25,55.525 30.875,53.95 30.85,52.025 C30.8,47.9 32.525,46 33.775,44.225 C36.075,40.925 36.475,35.325 36.475,35.325 C37.85,37.65 37.925,40.05 37.725,41.8 C37.675,42.175 37.95,42.425 38.225,42.425 C38.375,42.425 38.525,42.35 38.625,42.175 C41.525,37.15 42.1,30.05 42.1,30.05 C51.275,40.525 49.8,51.825 48.5,56.825 C48.325,57.55 48.85,58.15 49.45,58.15 C49.625,58.15 49.825,58.1 49.975,57.975 C53.475,55.4 59.725,49.325 60.075,38.65 C60.55,23.775 47.6,15.675 47.6,15.675 C48.125,18.05 47.8,19.725 47.8,19.725 C42.7,12.2 32.575,10.625 32.575,10.625 L32.575,10.625 Z" id="Shape" fill="#101828" fill-rule="nonzero"></path>
            <rect id="Rectangle" x="0" y="0" width="80" height="80"></rect>
        </g>
    </g>
</svg>