<?xml version="1.0" encoding="UTF-8"?>
<svg width="32px" height="32px" viewBox="0 0 32 32" version="1.1" xmlns="http://www.w3.org/2000/svg" xmlns:xlink="http://www.w3.org/1999/xlink">
    <!-- Generator: Sketch 57.1 (83088) - https://sketch.com -->
    <title>238-B32px</title>
    <desc>Created with Sketch.</desc>
    <g id="238-B32px" stroke="none" stroke-width="1" fill="none" fill-rule="evenodd">
        <g>
            <path d="M13.5,8.01 C18.19,8.01 22,11.82 22,16.51 C22,21.2 18.18,25 13.5,25 C8.81,25 5,21.19 5,16.5 C5,11.81 8.81,8.01 13.5,8.01 L13.5,8.01 Z M13.5,7.01 C8.25,7.01 4,11.26 4,16.51 C4,21.76 8.25,26 13.5,26 C18.75,26 23,21.75 23,16.5 C23,11.25 18.74,7.01 13.5,7.01 L13.5,7.01 Z" id="Shape" fill="#101828" fill-rule="nonzero"></path>
            <path d="M25.5,7 C26.33,7 27,7.67 27,8.5 C27,9.33 26.33,10 25.5,10 C24.67,10 24,9.33 24,8.5 C24,7.67 24.67,7 25.5,7 L25.5,7 Z M25.5,6 C24.12,6 23,7.12 23,8.5 C23,9.88 24.12,11 25.5,11 C26.88,11 28,9.88 28,8.5 C28,7.12 26.88,6 25.5,6 L25.5,6 Z" id="Shape" fill="#101828" fill-rule="nonzero"></path>
            <rect id="Rectangle" x="0" y="0" width="32" height="32"></rect>
        </g>
    </g>
</svg>