<?xml version="1.0" encoding="UTF-8"?>
<svg width="42px" height="42px" viewBox="0 0 42 42" version="1.1" xmlns="http://www.w3.org/2000/svg" xmlns:xlink="http://www.w3.org/1999/xlink">
    <!-- Generator: Sketch 57.1 (83088) - https://sketch.com -->
    <title>023-G40px</title>
    <desc>Created with Sketch.</desc>
    <g id="NEW_icons" stroke="none" stroke-width="1" fill="none" fill-rule="evenodd">
        <g id="icons_UD_new-Copy" transform="translate(-1526.000000, -3276.000000)">
            <g id="023-G40px" transform="translate(1527.000000, 3277.000000)">
                <circle id="Oval-Copy-217" stroke="#E3E8EC" cx="20" cy="20" r="20"></circle>
                <g id="023-B32px-Copy-4" transform="translate(4.000000, 4.000000)">
                    <path d="M19.98,23.42 C19.98,22.53 19.34,21.96 18.35,21.96 C17.26,21.96 16.68,22.74 16.68,23.47 C16.68,23.63 16.7,23.77 16.73,23.92 L16.74,24 L17.77,23.92 L17.75,23.82 C17.73,23.72 17.72,23.64 17.72,23.51 C17.72,23.15 17.96,22.93 18.35,22.93 C18.72,22.93 18.96,23.16 18.96,23.52 C18.96,23.81 18.84,24.03 18.45,24.43 L16.68,26.23 L16.68,27 L19.98,27 L19.98,25.99 L18.28,25.99 L19.16,25.1 C19.78,24.47 19.98,24.06 19.98,23.42 Z" id="Path" fill="#101828" fill-rule="nonzero"></path>
                    <path d="M22.45,22 C21.35,22 20.45,22.9 20.45,24 L20.45,25 C20.45,26.1 21.35,27 22.45,27 C23.55,27 24.45,26.1 24.45,25 L24.45,24 C24.45,22.9 23.56,22 22.45,22 Z M23.45,25 C23.45,25.55 23,26 22.45,26 C21.9,26 21.45,25.55 21.45,25 L21.45,24 C21.45,23.45 21.9,23 22.45,23 C23,23 23.45,23.45 23.45,24 L23.45,25 Z" id="Shape" fill="#101828" fill-rule="nonzero"></path>
                    <polygon id="Path" fill="#101828" fill-rule="nonzero" points="26.99 24 26.99 23 25.99 23 25.99 24 24.99 24 24.99 25 25.99 25 25.99 26 26.99 26 26.99 25 27.99 25 27.99 24"></polygon>
                    <path d="M15.66,24.9 C15.44,24.93 15.22,24.96 15,24.98 L15,24.95 L15,20.42 L18.81,20.42 L19.87,20.42 L22.61,20.42 C22.48,20.63 22.33,20.83 22.19,21.03 C22.28,21.02 22.38,21 22.47,21 C22.78,21 23.07,21.06 23.34,21.14 C24.39,19.51 25,17.58 25,15.5 C25,9.7 20.3,5 14.5,5 C14.5,5 14.49,5 14.49,5 C14.49,5 14.49,5 14.48,5 C14.47,5 14.47,5 14.46,5 C8.68,5.02 4,9.71 4,15.5 C4,21.29 8.68,25.98 14.46,26 C14.47,26 14.47,26 14.48,26 C14.48,26 14.48,26 14.49,26 C14.49,26 14.5,26 14.5,26 C14.89,26 15.28,25.97 15.66,25.93 L15.66,24.9 Z M23.14,19.42 L20.13,19.42 C20.38,18.36 20.52,17.2 20.56,16 L23.97,16 C23.91,17.21 23.62,18.37 23.14,19.42 Z M23.97,15 L20.56,15 C20.53,13.8 20.38,12.64 20.13,11.58 L23.14,11.58 C23.62,12.63 23.91,13.79 23.97,15 Z M22.61,10.58 L19.87,10.58 C19.36,8.92 18.59,7.53 17.66,6.55 C19.74,7.29 21.48,8.72 22.61,10.58 Z M15,6.05 C16.59,6.36 17.99,8.12 18.81,10.58 L15,10.58 L15,6.05 Z M15,11.58 L19.1,11.58 C19.37,12.64 19.53,13.79 19.56,15 L15,15 L15,11.58 Z M15,16 L19.56,16 C19.52,17.21 19.37,18.36 19.1,19.42 L15,19.42 L15,16 Z M11.29,6.57 C10.37,7.55 9.61,8.93 9.1,10.58 L6.39,10.58 C7.51,8.74 9.23,7.31 11.29,6.57 Z M5.86,11.58 L8.84,11.58 C8.58,12.64 8.44,13.8 8.4,15 L5.03,15 C5.09,13.79 5.38,12.63 5.86,11.58 Z M5.03,16 L8.4,16 C8.43,17.2 8.58,18.36 8.83,19.42 L5.86,19.42 C5.38,18.37 5.09,17.21 5.03,16 Z M6.39,20.42 L9.1,20.42 C9.61,22.07 10.37,23.45 11.29,24.43 C9.23,23.69 7.51,22.26 6.39,20.42 Z M14,24.95 C12.39,24.65 10.98,22.89 10.16,20.42 L14,20.42 L14,24.95 Z M14,19.42 L9.87,19.42 C9.6,18.36 9.44,17.21 9.4,16 L14,16 L14,19.42 Z M14,15 L9.4,15 C9.44,13.79 9.6,12.64 9.86,11.58 L14,11.58 L14,15 Z M14,10.58 L10.16,10.58 C10.99,8.11 12.4,6.35 14,6.05 L14,10.58 Z" id="Shape" fill="#101828" fill-rule="nonzero"></path>
                    <polygon id="Path" fill="#101828" fill-rule="nonzero" points="16.44 25.02 16.44 25.07 16.49 25.02"></polygon>
                    <rect id="Rectangle" x="0" y="0" width="32" height="32"></rect>
                </g>
            </g>
        </g>
    </g>
</svg>