<?xml version="1.0" encoding="UTF-8"?>
<svg width="32px" height="32px" viewBox="0 0 32 32" version="1.1" xmlns="http://www.w3.org/2000/svg" xmlns:xlink="http://www.w3.org/1999/xlink">
    <!-- Generator: Sketch 57.1 (83088) - https://sketch.com -->
    <title>025-B32px</title>
    <desc>Created with Sketch.</desc>
    <g id="025-B32px" stroke="none" stroke-width="1" fill="none" fill-rule="evenodd">
        <g>
            <path d="M22.57,23 C23.12,23 23.57,23.45 23.57,24 L23.57,25 C23.57,25.55 23.12,26 22.57,26 C22.02,26 21.57,25.55 21.57,25 L21.57,24 C21.57,23.45 22.01,23 22.57,23 L22.57,23 Z M22.57,22 C21.47,22 20.57,22.9 20.57,24 L20.57,25 C20.57,26.1 21.47,27 22.57,27 C23.67,27 24.57,26.1 24.57,25 L24.57,24 C24.57,22.9 23.67,22 22.57,22 L22.57,22 Z" id="Shape" fill="#101828" fill-rule="nonzero"></path>
            <polygon id="Path" fill="#101828" fill-rule="nonzero" points="26 23 27 23 27 24 28 24 28 25 27 25 27 26 26 26 26 25 25 25 25 24 26 24"></polygon>
            <path d="M19.47,23.85 C19.47,23.75 19.48,23.65 19.49,23.55 C18.92,23.91 18.31,24.21 17.66,24.44 C18.59,23.46 19.35,22.07 19.87,20.41 L22.61,20.41 C22.49,20.61 22.36,20.8 22.22,20.99 L23.43,20.99 C24.42,19.39 25,17.51 25,15.49 C25,9.7 20.3,5 14.5,5 C14.5,5 14.49,5 14.49,5 C14.49,5 14.49,5 14.48,5 C14.47,5 14.47,5 14.46,5 C8.68,5.02 4,9.71 4,15.5 C4,21.29 8.68,25.98 14.46,26 C14.47,26 14.47,26 14.48,26 C14.48,26 14.48,26 14.49,26 C14.49,26 14.5,26 14.5,26 C16.3,26 17.99,25.55 19.47,24.75 L19.47,23.85 Z M11.29,6.57 C10.37,7.55 9.61,8.93 9.1,10.58 L6.39,10.58 C7.51,8.74 9.23,7.31 11.29,6.57 Z M5.86,11.58 L8.84,11.58 C8.58,12.64 8.44,13.8 8.4,15 L5.03,15 C5.09,13.79 5.38,12.63 5.86,11.58 Z M5.03,16 L8.4,16 C8.43,17.2 8.58,18.36 8.83,19.42 L5.86,19.42 C5.38,18.37 5.09,17.21 5.03,16 Z M6.39,20.42 L9.1,20.42 C9.61,22.07 10.37,23.45 11.29,24.43 C9.23,23.69 7.51,22.26 6.39,20.42 Z M14,24.95 C12.39,24.65 10.98,22.89 10.16,20.42 L14,20.42 L14,24.95 Z M14,19.42 L9.87,19.42 C9.6,18.36 9.44,17.21 9.4,16 L14,16 L14,19.42 Z M14,15 L9.4,15 C9.44,13.79 9.6,12.64 9.86,11.58 L14,11.58 L14,15 Z M14,10.58 L10.16,10.58 C10.99,8.11 12.4,6.35 14,6.05 L14,10.58 Z M23.14,19.42 L20.13,19.42 C20.38,18.36 20.53,17.2 20.56,16 L23.97,16 C23.91,17.21 23.62,18.37 23.14,19.42 Z M23.97,15 L20.56,15 C20.53,13.8 20.38,12.64 20.13,11.58 L23.14,11.58 C23.62,12.63 23.91,13.79 23.97,15 Z M22.61,10.58 L19.87,10.58 C19.36,8.92 18.59,7.53 17.66,6.55 C19.74,7.29 21.48,8.72 22.61,10.58 Z M15,6.05 C16.59,6.36 17.99,8.12 18.81,10.58 L15,10.58 L15,6.05 Z M15,11.58 L19.1,11.58 C19.37,12.64 19.53,13.79 19.56,15 L15,15 L15,11.58 Z M15,16 L19.56,16 C19.52,17.21 19.36,18.36 19.1,19.42 L15,19.42 L15,16 Z M15,24.95 L15,20.42 L18.81,20.42 C17.99,22.88 16.59,24.63 15,24.95 Z" id="Shape" fill="#101828" fill-rule="nonzero"></path>
            <rect id="Rectangle" x="0" y="0" width="32" height="32"></rect>
        </g>
    </g>
</svg>