<?xml version="1.0" encoding="UTF-8"?>
<svg width="80px" height="80px" viewBox="0 0 80 80" version="1.1" xmlns="http://www.w3.org/2000/svg" xmlns:xlink="http://www.w3.org/1999/xlink">
    <!-- Generator: Sketch 57.1 (83088) - https://sketch.com -->
    <title>120-C80px</title>
    <desc>Created with Sketch.</desc>
    <g id="NEW_icons" stroke="none" stroke-width="1" fill="none" fill-rule="evenodd">
        <g id="icons_UD_new-Copy" transform="translate(-1002.000000, -15540.000000)">
            <g id="120-C80px" transform="translate(1002.000000, 15540.000000)">
                <circle id="Oval-Copy-724" fill="#FF4F12" cx="40" cy="40" r="40"></circle>
                <g id="120-B32px-Copy-9" transform="translate(12.000000, 12.000000)">
                    <path d="M28,8.75 C32.83,8.75 36.75,12.67 36.75,17.5 C36.75,22.33 32.83,26.25 28,26.25 C23.17,26.25 19.25,22.33 19.25,17.5 C19.25,12.67 23.17,8.75 28,8.75 L28,8.75 Z M28,7 C22.2075,7 17.5,11.7075 17.5,17.5 C17.5,23.2925 22.2075,28 28,28 C33.7925,28 38.5,23.2925 38.5,17.5 C38.5,11.7075 33.7925,7 28,7 L28,7 Z" id="Shape" fill="#FFFFFF" fill-rule="nonzero"></path>
                    <path d="M29.085,35 L30.3975,45.5 L25.62,45.5 L26.9325,35 L29.085,35 L29.085,35 Z M30.625,33.25 L25.375,33.25 L23.625,47.25 L32.375,47.25 L30.625,33.25 L30.625,33.25 Z" id="Shape" fill="#FFFFFF" fill-rule="nonzero"></path>
                    <path d="M28,35 L28,35 C26.5475,35 25.375,33.8275 25.375,32.375 L25.375,32.375 C25.375,30.9225 26.5475,29.75 28,29.75 L28,29.75 C29.4525,29.75 30.625,30.9225 30.625,32.375 L30.625,32.375 C30.625,33.8275 29.4525,35 28,35 Z" id="Path" fill="#FFFFFF" fill-rule="nonzero"></path>
                    <path d="M28.875,31.5 L28.875,33.25 L27.125,33.25 L27.125,31.5 L28.875,31.5 L28.875,31.5 Z M28.875,29.75 L27.125,29.75 C26.1625,29.75 25.375,30.5375 25.375,31.5 L25.375,33.25 C25.375,34.2125 26.1625,35 27.125,35 L28.875,35 C29.8375,35 30.625,34.2125 30.625,33.25 L30.625,31.5 C30.625,30.5375 29.8375,29.75 28.875,29.75 L28.875,29.75 Z" id="Shape" fill="#FFFFFF" fill-rule="nonzero"></path>
                    <path d="M12.25,49 L12.25,38.5 C12.25,35.6125 14.6125,33.25 17.5,33.25 L38.5,33.25 C41.3875,33.25 43.75,35.6125 43.75,38.5 L43.75,49 L45.5,49 L45.5,38.5 C45.5,34.6325 42.3675,31.5 38.5,31.5 L17.5,31.5 C13.6325,31.5 10.5,34.6325 10.5,38.5 L10.5,49 L12.25,49 Z" id="Path" fill="#FFFFFF" fill-rule="nonzero"></path>
                    <rect id="Rectangle" x="0" y="0" width="56" height="56"></rect>
                </g>
            </g>
        </g>
    </g>
</svg>