<?xml version="1.0" encoding="UTF-8"?>
<svg width="80px" height="80px" viewBox="0 0 80 80" version="1.1" xmlns="http://www.w3.org/2000/svg" xmlns:xlink="http://www.w3.org/1999/xlink">
    <!-- Generator: Sketch 57.1 (83088) - https://sketch.com -->
    <title>025-W80px</title>
    <desc>Created with Sketch.</desc>
    <g id="NEW_icons" stroke="none" stroke-width="1" fill="none" fill-rule="evenodd">
        <g id="icons_UD_new-Copy" transform="translate(-2151.000000, -3489.000000)">
            <g id="025-W80px" transform="translate(2151.000000, 3489.000000)">
                <circle id="Oval-Copy-225" fill="#101828" cx="40" cy="40" r="40"></circle>
                <g id="025-B32px-Copy-8" transform="translate(12.000000, 12.000000)">
                    <path d="M39.4975,40.25 C40.46,40.25 41.2475,41.0375 41.2475,42 L41.2475,43.75 C41.2475,44.7125 40.46,45.5 39.4975,45.5 C38.535,45.5 37.7475,44.7125 37.7475,43.75 L37.7475,42 C37.7475,41.0375 38.5175,40.25 39.4975,40.25 L39.4975,40.25 Z M39.4975,38.5 C37.5725,38.5 35.9975,40.075 35.9975,42 L35.9975,43.75 C35.9975,45.675 37.5725,47.25 39.4975,47.25 C41.4225,47.25 42.9975,45.675 42.9975,43.75 L42.9975,42 C42.9975,40.075 41.4225,38.5 39.4975,38.5 L39.4975,38.5 Z" id="Shape" fill="#FFFFFF" fill-rule="nonzero"></path>
                    <polygon id="Path" fill="#FFFFFF" fill-rule="nonzero" points="45.5 40.25 47.25 40.25 47.25 42 49 42 49 43.75 47.25 43.75 47.25 45.5 45.5 45.5 45.5 43.75 43.75 43.75 43.75 42 45.5 42"></polygon>
                    <path d="M34.0725,41.7375 C34.0725,41.5625 34.09,41.3875 34.1075,41.2125 C33.11,41.8425 32.0425,42.3675 30.905,42.77 C32.5325,41.055 33.8625,38.6225 34.7725,35.7175 L39.5675,35.7175 C39.3575,36.0675 39.13,36.4 38.885,36.7325 L41.0025,36.7325 C42.735,33.9325 43.75,30.6425 43.75,27.1075 C43.75,16.975 35.525,8.75 25.375,8.75 C25.375,8.75 25.3575,8.75 25.3575,8.75 C25.3575,8.75 25.3575,8.75 25.34,8.75 C25.3225,8.75 25.3225,8.75 25.305,8.75 C15.19,8.785 7,16.9925 7,27.125 C7,37.2575 15.19,45.465 25.305,45.5 C25.3225,45.5 25.3225,45.5 25.34,45.5 C25.34,45.5 25.34,45.5 25.3575,45.5 C25.3575,45.5 25.375,45.5 25.375,45.5 C28.525,45.5 31.4825,44.7125 34.0725,43.3125 L34.0725,41.7375 Z M19.7575,11.4975 C18.1475,13.2125 16.8175,15.6275 15.925,18.515 L11.1825,18.515 C13.1425,15.295 16.1525,12.7925 19.7575,11.4975 Z M10.255,20.265 L15.47,20.265 C15.015,22.12 14.77,24.15 14.7,26.25 L8.8025,26.25 C8.9075,24.1325 9.415,22.1025 10.255,20.265 Z M8.8025,28 L14.7,28 C14.7525,30.1 15.015,32.13 15.4525,33.985 L10.255,33.985 C9.415,32.1475 8.9075,30.1175 8.8025,28 Z M11.1825,35.735 L15.925,35.735 C16.8175,38.6225 18.1475,41.0375 19.7575,42.7525 C16.1525,41.4575 13.1425,38.955 11.1825,35.735 Z M24.5,43.6625 C21.6825,43.1375 19.215,40.0575 17.78,35.735 L24.5,35.735 L24.5,43.6625 Z M24.5,33.985 L17.2725,33.985 C16.8,32.13 16.52,30.1175 16.45,28 L24.5,28 L24.5,33.985 Z M24.5,26.25 L16.45,26.25 C16.52,24.1325 16.8,22.12 17.255,20.265 L24.5,20.265 L24.5,26.25 Z M24.5,18.515 L17.78,18.515 C19.2325,14.1925 21.7,11.1125 24.5,10.5875 L24.5,18.515 Z M40.495,33.985 L35.2275,33.985 C35.665,32.13 35.9275,30.1 35.98,28 L41.9475,28 C41.8425,30.1175 41.335,32.1475 40.495,33.985 Z M41.9475,26.25 L35.98,26.25 C35.9275,24.15 35.665,22.12 35.2275,20.265 L40.495,20.265 C41.335,22.1025 41.8425,24.1325 41.9475,26.25 Z M39.5675,18.515 L34.7725,18.515 C33.88,15.61 32.5325,13.1775 30.905,11.4625 C34.545,12.7575 37.59,15.26 39.5675,18.515 Z M26.25,10.5875 C29.0325,11.13 31.4825,14.21 32.9175,18.515 L26.25,18.515 L26.25,10.5875 Z M26.25,20.265 L33.425,20.265 C33.8975,22.12 34.1775,24.1325 34.23,26.25 L26.25,26.25 L26.25,20.265 Z M26.25,28 L34.23,28 C34.16,30.1175 33.88,32.13 33.425,33.985 L26.25,33.985 L26.25,28 Z M26.25,43.6625 L26.25,35.735 L32.9175,35.735 C31.4825,40.04 29.0325,43.1025 26.25,43.6625 Z" id="Shape" fill="#FFFFFF" fill-rule="nonzero"></path>
                    <rect id="Rectangle" x="0" y="0" width="56" height="56"></rect>
                </g>
            </g>
        </g>
    </g>
</svg>