<?xml version="1.0" encoding="UTF-8"?>
<svg width="80px" height="80px" viewBox="0 0 80 80" version="1.1" xmlns="http://www.w3.org/2000/svg" xmlns:xlink="http://www.w3.org/1999/xlink">
    <!-- Generator: Sketch 57.1 (83088) - https://sketch.com -->
    <title>026-B80px</title>
    <desc>Created with Sketch.</desc>
    <g id="026-B80px" stroke="none" stroke-width="1" fill="none" fill-rule="evenodd">
        <g>
            <path d="M67.5,12.5 L67.5,17.5 C67.5,25.325 65.875,36.975 63.175,42.95 C59.45,51.15 52.45,61.95 40,67.3 C27.55,61.95 20.525,51.15 16.825,42.95 C14.125,36.95 12.5,25.3 12.5,17.5 L12.5,12.5 L67.5,12.5 L67.5,12.5 Z M70,10 L10,10 L10,17.5 C10,24.9 11.5,37.225 14.55,43.975 C18.725,53.2 26.4,64.55 40,70 C53.6,64.55 61.275,53.2 65.45,43.975 C68.5,37.225 70,24.9 70,17.5 L70,10 L70,10 Z" id="Shape" fill="#101828" fill-rule="nonzero"></path>
            <polygon id="Path" fill="#101828" fill-rule="nonzero" points="50 32.5 50 30 47.5 30 47.5 32.5 45 32.5 45 35 47.5 35 47.5 37.5 50 37.5 50 35 52.5 35 52.5 32.5"></polygon>
            <path d="M36.25,27.5 C38.325,27.5 40,29.175 40,31.25 L40,36.25 C40,38.325 38.325,40 36.25,40 C34.175,40 32.5,38.325 32.5,36.25 L32.5,31.25 C32.5,29.175 34.175,27.5 36.25,27.5 L36.25,27.5 Z M36.25,25 C32.8,25 30,27.8 30,31.25 L30,36.25 C30,39.7 32.8,42.5 36.25,42.5 C39.7,42.5 42.5,39.7 42.5,36.25 L42.5,31.25 C42.5,27.8 39.7,25 36.25,25 L36.25,25 Z" id="Shape" fill="#101828" fill-rule="nonzero"></path>
            <rect id="Rectangle" x="0" y="0" width="80" height="80"></rect>
        </g>
    </g>
</svg>