<?xml version="1.0" encoding="UTF-8"?>
<svg width="40px" height="40px" viewBox="0 0 40 40" version="1.1" xmlns="http://www.w3.org/2000/svg" xmlns:xlink="http://www.w3.org/1999/xlink">
    <!-- Generator: Sketch 57.1 (83088) - https://sketch.com -->
    <title>079-B40px</title>
    <desc>Created with Sketch.</desc>
    <g id="079-B40px" stroke="none" stroke-width="1" fill="none" fill-rule="evenodd">
        <g>
            <path d="M15,32.5 C15.3375,32.5 15.625,32.225 15.625,31.875 C15.625,31.525 15.3375,31.25 15,31.25 C14.6625,31.25 14.375,31.525 14.375,31.875 C14.375,32.225 14.6625,32.5 15,32.5" id="Path" fill="#101828" fill-rule="nonzero"></path>
            <path d="M23.75,32.5 L23.75,33.6875 C23.75,33.725 23.725,33.75 23.6875,33.75 L6.3125,33.75 C6.275,33.75 6.25,33.725 6.25,33.6875 L6.25,30 L16.25,30 L16.25,28.75 L6.25,28.75 L6.25,6.3125 C6.25,6.275 6.275,6.25 6.3125,6.25 L23.6875,6.25 C23.725,6.25 23.75,6.275 23.75,6.3125 L23.75,17.5 L25,17.5 L25,6.3125 C25,5.5875 24.4125,5 23.6875,5 L6.3125,5 C5.5875,5 5,5.5875 5,6.3125 L5,28.75 L5,30 L5,33.6875 C5,34.4125 5.5875,35 6.3125,35 L23.6875,35 C24.4125,35 25,34.4125 25,33.6875 L25,32.5 L23.75,32.5 Z" id="Path" fill="#101828" fill-rule="nonzero"></path>
            <path d="M33.75,20 L33.75,30 L18.75,30 L18.75,20 L33.75,20 L33.75,20 Z M33.75,18.75 L18.75,18.75 C18.0625,18.75 17.5,19.3125 17.5,20 L17.5,30 C17.5,30.6875 18.0625,31.25 18.75,31.25 L33.75,31.25 C34.4375,31.25 35,30.6875 35,30 L35,20 C35,19.3125 34.4375,18.75 33.75,18.75 L33.75,18.75 Z" id="Shape" fill="#101828" fill-rule="nonzero"></path>
            <polygon id="Path" fill="#101828" fill-rule="nonzero" points="26.25 25.75 18.025 20.1625 18.725 19.125 26.25 24.25 33.775 19.125 34.475 20.1625"></polygon>
            <rect id="Rectangle" x="0" y="0" width="40" height="40"></rect>
        </g>
    </g>
</svg>