<?xml version="1.0" encoding="UTF-8"?>
<svg width="40px" height="40px" viewBox="0 0 40 40" version="1.1" xmlns="http://www.w3.org/2000/svg" xmlns:xlink="http://www.w3.org/1999/xlink">
    <!-- Generator: Sketch 57.1 (83088) - https://sketch.com -->
    <title>061-B40px</title>
    <desc>Created with Sketch.</desc>
    <g id="061-B40px" stroke="none" stroke-width="1" fill="none" fill-rule="evenodd">
        <g>
            <path d="M12.5,23.75 L12.5,28.75 L7.5,28.75 L7.5,23.75 L12.5,23.75 L12.5,23.75 Z M13.75,22.5 L6.25,22.5 L6.25,30 L13.75,30 L13.75,22.5 L13.75,22.5 Z" id="Shape" fill="#101828" fill-rule="nonzero"></path>
            <rect id="Rectangle" fill="#101828" fill-rule="nonzero" x="18.75" y="22.5" width="1.25" height="7.5"></rect>
            <rect id="Rectangle" fill="#101828" fill-rule="nonzero" x="21.25" y="22.5" width="1.25" height="7.5"></rect>
            <path d="M28.75,24.75 L31.375,26.25 L28.75,27.75 L28.75,24.75 L28.75,24.75 Z M27.5,22.5 L27.5,30 L33.75,26.25 L27.5,22.5 L27.5,22.5 Z" id="Shape" fill="#101828" fill-rule="nonzero"></path>
            <path d="M20,10 C20.125,10 28.75,10 33.625,13.875 C33.625,13.875 33.75,14 33.75,14 L33.75,18.625 C33.75,18.75 33.75,18.75 33.625,18.75 L26.375,18.75 C26.25,18.75 26.25,18.625 26.25,18.625 L26.25,15.5 L26.25,14.625 L25.5,14.25 C25.375,14.25 22.5,13 20,13 C17.5,13 14.625,14.125 14.5,14.25 L13.75,14.625 L13.75,15.5 L13.75,18.625 C13.75,18.75 13.75,18.75 13.625,18.75 L6.375,18.75 C6.25,18.75 6.25,18.625 6.25,18.625 L6.25,14 C6.25,14 6.25,13.875 6.25,13.875 C11.375,10.125 19.875,10 20,10 L20,10 Z M20,8.75 C20,8.75 11,8.75 5.5,12.875 C5.25,13.125 5,13.5 5,14 L5,18.625 C5,19.375 5.625,20 6.375,20 L13.625,20 C14.375,20 15,19.375 15,18.625 L15,15.5 C15,15.5 17.75,14.375 20,14.375 C22.25,14.375 25,15.5 25,15.5 L25,18.625 C25,19.375 25.625,20 26.375,20 L33.625,20 C34.375,20 35,19.375 35,18.625 L35,14 C35,13.5 34.75,13.125 34.375,12.875 C29.125,8.75 20,8.75 20,8.75 L20,8.75 Z" id="Shape" fill="#101828" fill-rule="nonzero"></path>
            <rect id="Rectangle" x="0" y="0" width="40" height="40"></rect>
        </g>
    </g>
</svg>