<?xml version="1.0" encoding="UTF-8"?>
<svg width="32px" height="32px" viewBox="0 0 32 32" version="1.1" xmlns="http://www.w3.org/2000/svg" xmlns:xlink="http://www.w3.org/1999/xlink">
    <!-- Generator: Sketch 57.1 (83088) - https://sketch.com -->
    <title>108-B32px</title>
    <desc>Created with Sketch.</desc>
    <g id="108-B32px" stroke="none" stroke-width="1" fill="none" fill-rule="evenodd">
        <g>
            <path d="M20,9.54 L20,11 L19.97,11 C20.6,11.84 21,12.87 21,14 C21,16.76 18.76,19 16,19 C13.24,19 11,16.76 11,14 C11,12.87 11.39,11.84 12.03,11 L12,11 L12,9.54 C10.78,10.64 10,12.23 10,14 C10,17.31 12.69,20 16,20 C19.31,20 22,17.31 22,14 C22,12.23 21.22,10.64 20,9.54 Z" id="Path" fill="#101828" fill-rule="nonzero"></path>
            <path d="M20,5 L20,10 L12,10 L12,5 L20,5 L20,5 Z M20,4 L12,4 C11.45,4 11,4.45 11,5 L11,10 C11,10.55 11.45,11 12,11 L20,11 C20.55,11 21,10.55 21,10 L21,5 C21,4.45 20.55,4 20,4 L20,4 Z" id="Shape" fill="#101828" fill-rule="nonzero"></path>
            <polygon id="Path" fill="#101828" fill-rule="nonzero" points="14.5 7 14.5 8 15.5 8 15.5 9 16.5 9 16.5 8 17.5 8 17.5 7 16.5 7 16.5 6 15.5 6 15.5 7"></polygon>
            <path d="M8,28 L8,26 C8,24.35 9.35,23 11,23 L21,23 C22.65,23 24,24.35 24,26 L24,28 L25,28 L25,26 C25,23.79 23.21,22 21,22 L11,22 C8.79,22 7,23.79 7,26 L7,28 L8,28 Z" id="Path" fill="#101828" fill-rule="nonzero"></path>
            <rect id="Rectangle" x="0" y="0" width="32" height="32"></rect>
        </g>
    </g>
</svg>