<?xml version="1.0" encoding="UTF-8"?>
<svg width="80px" height="80px" viewBox="0 0 80 80" version="1.1" xmlns="http://www.w3.org/2000/svg" xmlns:xlink="http://www.w3.org/1999/xlink">
    <!-- Generator: Sketch 57.1 (83088) - https://sketch.com -->
    <title>109-B80px</title>
    <desc>Created with Sketch.</desc>
    <g id="109-B80px" stroke="none" stroke-width="1" fill="none" fill-rule="evenodd">
        <g>
            <path d="M34.95,53.75 C34.95,53.35 34.975,52.925 35,52.525 L12.5,52.55 L12.45,47.5 L17.45,47.5 L36.025,47.5 C36.325,46.65 36.675,45.8 37.1,45 L17.5,45 L17.45,17.5 L65,17.5 L65.05,38.85 C65.925,39.525 66.75,40.275 67.5,41.1 L67.5,17.45 C67.5,16.1 66.4,15 65.05,15 L17.45,15 C16.1,15 15,16.1 15,17.45 L15,45 L12.45,45 C11.1,45 10,46.1 10,47.45 L10,52.55 C10,53.9 11.1,55 12.45,55 L35,55 C34.975,54.575 34.95,54.175 34.95,53.75 Z" id="Path" fill="#101828" fill-rule="nonzero"></path>
            <path d="M53.675,40 C61.25,40 67.425,46.175 67.425,53.75 C67.425,61.325 61.25,67.5 53.675,67.5 C46.1,67.5 39.925,61.325 39.925,53.75 C39.925,46.175 46.1,40 53.675,40 L53.675,40 Z M53.675,37.5 C44.7,37.5 37.425,44.775 37.425,53.75 C37.425,62.725 44.7,70 53.675,70 C62.65,70 69.925,62.725 69.925,53.75 C69.925,44.775 62.65,37.5 53.675,37.5 L53.675,37.5 Z" id="Shape" fill="#101828" fill-rule="nonzero"></path>
            <rect id="Rectangle" fill="#101828" fill-rule="nonzero" x="44.375" y="51.85" width="2.5" height="6.25"></rect>
            <rect id="Rectangle" fill="#101828" fill-rule="nonzero" x="42.5" y="53.725" width="6.25" height="2.5"></rect>
            <g id="Group" transform="translate(50.000000, 45.000000)" fill="#101828" fill-rule="nonzero">
                <path d="M6.275,16.05 L3.775,16.05 L3.775,10.025 L1.3,10.025 L1.3,7.525 L3.775,7.525 L3.775,1.075 L9.925,1.075 C12.35,1.075 14.35,3.05 14.35,5.5 C14.35,8 12.325,10.05 9.8,10.05 L6.275,10.05 L6.275,16.05 Z M6.275,7.525 L9.8,7.525 C10.925,7.525 11.85,6.6 11.85,5.475 C11.85,4.425 11,3.55 9.925,3.55 L6.275,3.55 L6.275,7.525 Z" id="Shape"></path>
                <rect id="Rectangle" x="1.275" y="11.05" width="10" height="2.5"></rect>
            </g>
            <g id="Group" transform="translate(30.000000, 22.500000)" fill="#101828" fill-rule="nonzero">
                <path d="M11.3,7.5 C12.625,7.5 13.85,8.025 14.725,8.875 L16.5,7.1 C15.15,5.8 13.325,5 11.3,5 C9.225,5 7.35,5.85 6,7.2 L7.775,8.975 C8.675,8.05 9.925,7.5 11.3,7.5 Z" id="Path"></path>
                <path d="M12.95,10.65 C12.525,10.25 11.95,10 11.3,10 C10.6,10 9.975,10.275 9.525,10.725 L11.2,12.4 L12.95,10.65 Z" id="Path"></path>
                <path d="M11.3,2.5 C14,2.5 16.475,3.6 18.275,5.35 L20.05,3.575 C17.775,1.375 14.7,0 11.3,0 C7.85,0 4.725,1.4 2.45,3.65 L4.225,5.425 C6.05,3.625 8.55,2.5 11.3,2.5 Z" id="Path"></path>
            </g>
            <rect id="Rectangle" x="0" y="0" width="80" height="80"></rect>
        </g>
    </g>
</svg>