<?xml version="1.0" encoding="UTF-8"?>
<svg width="80px" height="80px" viewBox="0 0 80 80" version="1.1" xmlns="http://www.w3.org/2000/svg" xmlns:xlink="http://www.w3.org/1999/xlink">
    <!-- Generator: Sketch 57.1 (83088) - https://sketch.com -->
    <title>188-B80px</title>
    <desc>Created with Sketch.</desc>
    <g id="188-B80px" stroke="none" stroke-width="1" fill="none" fill-rule="evenodd">
        <g>
            <path d="M37.5,19.5 L40.275,21.25 L37.5,23 L37.5,19.5 L37.5,19.5 Z M35,15 L35,27.5 L45,21.25 L35,15 L35,15 Z" id="Shape" fill="#101828" fill-rule="nonzero"></path>
            <path d="M42.5,57 L42.5,60.475 L39.725,58.725 L42.5,57 L42.5,57 Z M45,52.5 L35,58.75 L45,65 L45,52.5 L45,52.5 Z" id="Shape" fill="#101828" fill-rule="nonzero"></path>
            <path d="M12.4,22.5 L36.25,22.5 L36.25,20 L12.4,20 C11.075,20 10,21.075 10,22.4 L10,57.575 C10,58.925 11.075,60 12.4,60 L32.375,60 L32.375,57.525 L12.5,57.6 L12.4,22.5 Z" id="Path" fill="#101828" fill-rule="nonzero"></path>
            <path d="M67.325,20 L47.5,20 L47.5,22.5 L67.325,22.5 C67.425,22.5 67.5,22.575 67.5,22.675 L67.5,57.3 C67.5,57.4 67.425,57.475 67.325,57.475 L45,57.475 L45,59.975 L67.325,59.975 C68.8,59.975 70,58.775 70,57.3 L70,22.675 C70,21.2 68.8,20 67.325,20 Z" id="Path" fill="#101828" fill-rule="nonzero"></path>
            <path d="M25.025,47.5 C20.7,47.5 17.5,44.5 17.5,40 C17.5,35.5 20.825,32.5 25.125,32.5 C28.2,32.5 30.425,34.1 31.475,36.025 L29.15,37.4 C28.25,35.925 27.025,35 25.05,35 C22.475,35 20.325,36.925 20.325,39.975 C20.325,42.95 22.425,44.95 25.05,44.95 C26.9,44.95 28.275,44.15 29.325,42.65 L31.65,43.95 C29.975,46.375 28.225,47.5 25.025,47.5 Z" id="Path" fill="#101828" fill-rule="nonzero"></path>
            <path d="M36.325,41.425 L36.325,47.5 L33.625,47.5 L33.625,32.5 L39.725,32.5 C42.875,32.5 44.8,34.15 44.8,36.75 C44.8,39.075 43.475,40.425 41.525,41.175 L45,47.5 L41.925,47.5 L38.625,41.425 L36.325,41.425 Z M39.725,38.925 C41.375,38.925 42.125,38.15 42.125,36.95 C42.125,35.75 41.4,34.975 39.725,34.975 L36.325,34.975 L36.325,38.925 L39.725,38.925 L39.725,38.925 Z" id="Shape" fill="#101828" fill-rule="nonzero"></path>
            <polygon id="Path" fill="#101828" fill-rule="nonzero" points="50.375 32.5 55 44.425 59.625 32.5 62.5 32.5 62.5 47.5 60 47.5 60 38.475 59.125 40.6 56.3 47.5 53.7 47.5 50.85 40.625 49.975 38.325 50 47.5 47.5 47.5 47.5 32.5"></polygon>
            <rect id="Rectangle" x="0" y="0" width="80" height="80"></rect>
        </g>
    </g>
</svg>