<?xml version="1.0" encoding="UTF-8"?>
<svg width="80px" height="80px" viewBox="0 0 80 80" version="1.1" xmlns="http://www.w3.org/2000/svg" xmlns:xlink="http://www.w3.org/1999/xlink">
    <!-- Generator: Sketch 57.1 (83088) - https://sketch.com -->
    <title>194-G80px</title>
    <desc>Created with Sketch.</desc>
    <g id="NEW_icons" stroke="none" stroke-width="1" fill="none" fill-rule="evenodd">
        <g id="icons_UD_new-Copy" transform="translate(-777.000000, -24834.000000)">
            <g id="194-G80px" transform="translate(777.000000, 24834.000000)">
                <circle id="Oval-Copy-828" fill="#E3E8EC" cx="40" cy="40" r="40"></circle>
                <g id="194-B32px-Copy-6" transform="translate(12.000000, 12.000000)">
                    <path d="M23.625,45.5 C24.0975,45.5 24.5,45.115 24.5,44.625 C24.5,44.135 24.115,43.75 23.625,43.75 C23.1525,43.75 22.75,44.135 22.75,44.625 C22.7675,45.115 23.1525,45.5 23.625,45.5" id="Path" fill="#101828" fill-rule="nonzero"></path>
                    <rect id="Rectangle" fill="#101828" fill-rule="nonzero" x="10.5" y="40.25" width="26.25" height="1.75"></rect>
                    <path d="M36.7675,36.75 L36.785,47.25 L12.25,47.285 L12.215,8.75 L36.75,8.75 L36.7675,24.5 L38.5,24.5 L38.5,8.715 C38.5,7.77 37.73,7 36.785,7 L12.215,7 C11.27,7 10.5,7.77 10.5,8.715 L10.5,47.285 C10.5,48.23 11.27,49 12.215,49 L36.785,49 C37.73,49 38.5,48.23 38.5,47.285 L38.5,36.75 L36.7675,36.75 Z" id="Path" fill="#101828" fill-rule="nonzero"></path>
                    <rect id="Rectangle" fill="#101828" fill-rule="nonzero" x="15.75" y="29.75" width="24.5" height="1.75"></rect>
                    <path d="M42,27.86 L45.955,30.625 L42,33.39 L42,27.86 L42,27.86 Z M40.25,24.5 L40.25,36.75 L49,30.625 L40.25,24.5 L40.25,24.5 Z" id="Shape" fill="#101828" fill-rule="nonzero"></path>
                    <path d="M23.9925,21 L21.2975,21 L21.2975,22.75 L23.5375,22.75 C22.96,23.8 21.91,24.5 20.7025,24.5 C18.8825,24.5 17.5,22.925 17.5,21 C17.5,19.075 18.8825,17.5 20.7025,17.5 C21.9275,17.5 22.9775,18.2 23.5375,19.25 L25.34,19.25 C24.6575,17.22 22.8375,15.75 20.685,15.75 C17.9725,15.75 15.75,18.095 15.75,21 C15.75,23.905 17.9725,26.25 20.7025,26.25 C23.4325,26.25 25.655,23.905 25.655,21 L25.655,21 L23.9925,21 Z" id="Path" fill="#101828" fill-rule="nonzero"></path>
                    <path d="M30.17,17.5 C30.905,17.5 31.5,18.095 31.5,18.83 C31.5,19.565 30.905,20.16 30.17,20.16 L28,20.16 L28,17.5 L30.17,17.5 L30.17,17.5 Z M30.17,15.75 L26.25,15.75 L26.25,21.91 L30.17,21.91 C31.8675,21.91 33.25,20.5275 33.25,18.83 L33.25,18.83 C33.25,17.1325 31.8675,15.75 30.17,15.75 L30.17,15.75 Z" id="Shape" fill="#101828" fill-rule="nonzero"></path>
                    <path d="M30.17,21.84 C30.905,21.84 31.5,22.435 31.5,23.17 C31.5,23.905 30.905,24.5 30.17,24.5 L28,24.5 L28,21.84 L30.17,21.84 L30.17,21.84 Z M30.17,20.09 L26.25,20.09 L26.25,26.25 L30.17,26.25 C31.8675,26.25 33.25,24.8675 33.25,23.17 C33.25,21.4725 31.8675,20.09 30.17,20.09 L30.17,20.09 Z" id="Shape" fill="#101828" fill-rule="nonzero"></path>
                    <rect id="Rectangle" x="0" y="0" width="56" height="56"></rect>
                </g>
            </g>
        </g>
    </g>
</svg>