<?xml version="1.0" encoding="UTF-8"?>
<svg width="80px" height="80px" viewBox="0 0 80 80" version="1.1" xmlns="http://www.w3.org/2000/svg" xmlns:xlink="http://www.w3.org/1999/xlink">
    <!-- Generator: Sketch 57.1 (83088) - https://sketch.com -->
    <title>238-G80px</title>
    <desc>Created with Sketch.</desc>
    <g id="NEW_icons" stroke="none" stroke-width="1" fill="none" fill-rule="evenodd">
        <g id="icons_UD_new-Copy" transform="translate(-768.000000, -30360.000000)">
            <g id="238-G80px" transform="translate(768.000000, 30360.000000)">
                <circle id="Oval-Copy-1363" fill="#E3E8EC" cx="40" cy="40" r="40"></circle>
                <g id="238-B32px-Copy-6" transform="translate(12.000000, 12.000000)">
                    <path d="M23.625,14.0175 C31.8325,14.0175 38.5,20.685 38.5,28.8925 C38.5,37.1 31.815,43.75 23.625,43.75 C15.4175,43.75 8.75,37.0825 8.75,28.875 C8.75,20.6675 15.4175,14.0175 23.625,14.0175 L23.625,14.0175 Z M23.625,12.2675 C14.4375,12.2675 7,19.705 7,28.8925 C7,38.08 14.4375,45.5 23.625,45.5 C32.8125,45.5 40.25,38.0625 40.25,28.875 C40.25,19.6875 32.795,12.2675 23.625,12.2675 L23.625,12.2675 Z" id="Shape" fill="#101828" fill-rule="nonzero"></path>
                    <path d="M44.625,12.25 C46.0775,12.25 47.25,13.4225 47.25,14.875 C47.25,16.3275 46.0775,17.5 44.625,17.5 C43.1725,17.5 42,16.3275 42,14.875 C42,13.4225 43.1725,12.25 44.625,12.25 L44.625,12.25 Z M44.625,10.5 C42.21,10.5 40.25,12.46 40.25,14.875 C40.25,17.29 42.21,19.25 44.625,19.25 C47.04,19.25 49,17.29 49,14.875 C49,12.46 47.04,10.5 44.625,10.5 L44.625,10.5 Z" id="Shape" fill="#101828" fill-rule="nonzero"></path>
                    <rect id="Rectangle" x="0" y="0" width="56" height="56"></rect>
                </g>
            </g>
        </g>
    </g>
</svg>