<?xml version="1.0" encoding="UTF-8"?>
<svg width="80px" height="80px" viewBox="0 0 80 80" version="1.1" xmlns="http://www.w3.org/2000/svg" xmlns:xlink="http://www.w3.org/1999/xlink">
    <!-- Generator: Sketch 57.1 (83088) - https://sketch.com -->
    <title>085-B80px</title>
    <desc>Created with Sketch.</desc>
    <g id="085-B80px" stroke="none" stroke-width="1" fill="none" fill-rule="evenodd">
        <g>
            <path d="M37.5,65 C38.175,65 38.75,64.45 38.75,63.75 C38.75,63.05 38.175,62.5 37.5,62.5 C36.825,62.5 36.25,63.05 36.25,63.75 C36.25,64.45 36.825,65 37.5,65" id="Path" fill="#101828" fill-rule="nonzero"></path>
            <rect id="Rectangle" fill="#101828" fill-rule="nonzero" x="17.5" y="57.5" width="40" height="2.5"></rect>
            <path d="M55,50 L55,67.375 C55,67.45 54.95,67.5 54.875,67.5 L20.125,67.5 C20.05,67.5 20,67.45 20,67.375 L20,12.625 C20,12.55 20.05,12.5 20.125,12.5 L54.875,12.5 C54.95,12.5 55,12.55 55,12.625 L55,17.5 L57.5,17.5 L57.5,12.625 C57.5,11.175 56.325,10 54.875,10 L20.125,10 C18.675,10 17.5,11.175 17.5,12.625 L17.5,67.375 C17.5,68.825 18.675,70 20.125,70 L54.875,70 C56.325,70 57.5,68.825 57.5,67.375 L57.5,50 L55,50 Z" id="Path" fill="#101828" fill-rule="nonzero"></path>
            <path d="M58,37.5 L56.25,40.275 L54.5,37.5 L58,37.5 L58,37.5 Z M62.5,35 L50,35 L56.25,45 L62.5,35 L62.5,35 Z" id="Shape" fill="#101828" fill-rule="nonzero"></path>
            <rect id="Rectangle" fill="#101828" fill-rule="nonzero" x="55" y="22.5" width="2.5" height="12.5"></rect>
            <path d="M32.075,35 C28.175,35 25,38.35 25,42.5 C25,46.65 28.175,50 32.075,50 C35.975,50 39.15,46.65 39.15,42.5 L39.15,42.5 L36.8,42.5 L32.5,42.5 L32.5,45 L36.125,45 C35.3,46.5 33.8,47.5 32.075,47.5 C29.475,47.5 27.5,45.25 27.5,42.5 C27.5,39.75 29.475,37.5 32.075,37.5 C33.825,37.5 35.325,38.5 36.125,40 L38.7,40 C37.725,37.1 35.15,35 32.075,35 L32.075,35 Z" id="Path" fill="#101828" fill-rule="nonzero"></path>
            <path d="M45.6,37.5 C46.65,37.5 47.5,38.35 47.5,39.4 C47.5,40.45 46.65,41.3 45.6,41.3 L42.5,41.3 L42.5,37.5 L45.6,37.5 L45.6,37.5 Z M45.6,35 L40,35 L40,43.8 L45.6,43.8 C48.025,43.8 50,41.825 50,39.4 C50,36.975 48.025,35 45.6,35 L45.6,35 Z" id="Shape" fill="#101828" fill-rule="nonzero"></path>
            <path d="M45.6,43.7 C46.65,43.7 47.5,44.55 47.5,45.6 C47.5,46.65 46.65,47.5 45.6,47.5 L42.5,47.5 L42.5,43.7 L45.6,43.7 L45.6,43.7 Z M45.6,41.2 L40,41.2 L40,50 L45.6,50 C48.025,50 50,48.025 50,45.6 L50,45.6 C50,43.175 48.025,41.2 45.6,41.2 L45.6,41.2 Z" id="Shape" fill="#101828" fill-rule="nonzero"></path>
            <path d="M28.75,25 C29.45,25 30,25.55 30,26.25 L32.5,26.25 C32.5,25.55 33.05,25 33.75,25 C34.45,25 35,25.55 35,26.25 L37.5,26.25 C37.5,24.175 35.825,22.5 33.75,22.5 C32.775,22.5 31.925,22.875 31.25,23.475 C30.575,22.875 29.725,22.5 28.75,22.5 C26.675,22.5 25,24.175 25,26.25 L27.5,26.25 C27.5,25.55 28.05,25 28.75,25 Z" id="Path" fill="#101828" fill-rule="nonzero"></path>
            <path d="M46.25,25 C46.95,25 47.5,25.55 47.5,26.25 L50,26.25 C50,24.175 48.325,22.5 46.25,22.5 C44.175,22.5 42.5,24.175 42.5,26.25 L45,26.25 C45,25.55 45.55,25 46.25,25 Z" id="Path" fill="#101828" fill-rule="nonzero"></path>
            <rect id="Rectangle" fill="#101828" fill-rule="nonzero" x="25" y="22.5" width="2.5" height="7.5"></rect>
            <rect id="Rectangle" fill="#101828" fill-rule="nonzero" x="30" y="23.75" width="2.5" height="6.25"></rect>
            <rect id="Rectangle" fill="#101828" fill-rule="nonzero" x="35" y="26.25" width="2.5" height="3.75"></rect>
            <polygon id="Path" fill="#101828" fill-rule="nonzero" points="41.25 22.5 38.75 22.5 38.75 30 41.25 30"></polygon>
            <rect id="Rectangle" fill="#101828" fill-rule="nonzero" x="42.5" y="22.5" width="2.5" height="7.5"></rect>
            <rect id="Rectangle" fill="#101828" fill-rule="nonzero" x="47.5" y="26.25" width="2.5" height="3.75"></rect>
            <rect id="Rectangle" fill="#101828" fill-rule="nonzero" x="38.75" y="17.5" width="2.5" height="2.5"></rect>
            <rect id="Rectangle" x="0" y="0" width="80" height="80"></rect>
        </g>
    </g>
</svg>