<?xml version="1.0" encoding="UTF-8"?>
<svg width="40px" height="40px" viewBox="0 0 40 40" version="1.1" xmlns="http://www.w3.org/2000/svg" xmlns:xlink="http://www.w3.org/1999/xlink">
    <!-- Generator: Sketch 57.1 (83088) - https://sketch.com -->
    <title>194-B40px</title>
    <desc>Created with Sketch.</desc>
    <g id="194-B40px" stroke="none" stroke-width="1" fill="none" fill-rule="evenodd">
        <g>
            <path d="M16.875,32.5 C17.2125,32.5 17.5,32.225 17.5,31.875 C17.5,31.525 17.225,31.25 16.875,31.25 C16.5375,31.25 16.25,31.525 16.25,31.875 C16.2625,32.225 16.5375,32.5 16.875,32.5" id="Path" fill="#101828" fill-rule="nonzero"></path>
            <rect id="Rectangle" fill="#101828" fill-rule="nonzero" x="7.5" y="28.75" width="18.75" height="1.25"></rect>
            <path d="M26.2625,26.25 L26.275,33.75 L8.75,33.775 L8.725,6.25 L26.25,6.25 L26.2625,17.5 L27.5,17.5 L27.5,6.225 C27.5,5.55 26.95,5 26.275,5 L8.725,5 C8.05,5 7.5,5.55 7.5,6.225 L7.5,33.775 C7.5,34.45 8.05,35 8.725,35 L26.275,35 C26.95,35 27.5,34.45 27.5,33.775 L27.5,26.25 L26.2625,26.25 Z" id="Path" fill="#101828" fill-rule="nonzero"></path>
            <rect id="Rectangle" fill="#101828" fill-rule="nonzero" x="11.25" y="21.25" width="17.5" height="1.25"></rect>
            <path d="M30,19.9 L32.825,21.875 L30,23.85 L30,19.9 L30,19.9 Z M28.75,17.5 L28.75,26.25 L35,21.875 L28.75,17.5 L28.75,17.5 Z" id="Shape" fill="#101828" fill-rule="nonzero"></path>
            <path d="M17.1375,15 L15.2125,15 L15.2125,16.25 L16.8125,16.25 C16.4,17 15.65,17.5 14.7875,17.5 C13.4875,17.5 12.5,16.375 12.5,15 C12.5,13.625 13.4875,12.5 14.7875,12.5 C15.6625,12.5 16.4125,13 16.8125,13.75 L18.1,13.75 C17.6125,12.3 16.3125,11.25 14.775,11.25 C12.8375,11.25 11.25,12.925 11.25,15 C11.25,17.075 12.8375,18.75 14.7875,18.75 C16.7375,18.75 18.325,17.075 18.325,15 L18.325,15 L17.1375,15 Z" id="Path" fill="#101828" fill-rule="nonzero"></path>
            <path d="M21.55,12.5 C22.075,12.5 22.5,12.925 22.5,13.45 C22.5,13.975 22.075,14.4 21.55,14.4 L20,14.4 L20,12.5 L21.55,12.5 L21.55,12.5 Z M21.55,11.25 L18.75,11.25 L18.75,15.65 L21.55,15.65 C22.7625,15.65 23.75,14.6625 23.75,13.45 L23.75,13.45 C23.75,12.2375 22.7625,11.25 21.55,11.25 L21.55,11.25 Z" id="Shape" fill="#101828" fill-rule="nonzero"></path>
            <path d="M21.55,15.6 C22.075,15.6 22.5,16.025 22.5,16.55 C22.5,17.075 22.075,17.5 21.55,17.5 L20,17.5 L20,15.6 L21.55,15.6 L21.55,15.6 Z M21.55,14.35 L18.75,14.35 L18.75,18.75 L21.55,18.75 C22.7625,18.75 23.75,17.7625 23.75,16.55 C23.75,15.3375 22.7625,14.35 21.55,14.35 L21.55,14.35 Z" id="Shape" fill="#101828" fill-rule="nonzero"></path>
            <rect id="Rectangle" x="0" y="0" width="40" height="40"></rect>
        </g>
    </g>
</svg>