<?xml version="1.0" encoding="UTF-8"?>
<svg width="80px" height="80px" viewBox="0 0 80 80" version="1.1" xmlns="http://www.w3.org/2000/svg" xmlns:xlink="http://www.w3.org/1999/xlink">
    <!-- Generator: Sketch 57.1 (83088) - https://sketch.com -->
    <title>185-W80px</title>
    <desc>Created with Sketch.</desc>
    <g id="NEW_icons" stroke="none" stroke-width="1" fill="none" fill-rule="evenodd">
        <g id="icons_UD_new-Copy" transform="translate(-2151.000000, -23577.000000)">
            <g id="185-W80px" transform="translate(2151.000000, 23577.000000)">
                <circle id="Oval-Copy-1153" fill="#101828" cx="40" cy="40" r="40"></circle>
                <g id="185-B32px-Copy-8" transform="translate(12.000000, 12.000000)">
                    <path d="M47.25,14 L47.2675,36.75 L8.75,36.7675 L8.7325,14 L47.25,14 L47.25,14 Z M47.2675,12.25 L8.7325,12.25 C7.7875,12.25 7,13.0375 7,13.9825 L7,36.75 C7,37.7125 7.7875,38.5 8.7325,38.5 L47.25,38.5 C48.2125,38.5 48.9827862,37.7125 48.9827862,36.7675 L48.9827862,13.9825 C49,13.0375 48.2125,12.25 47.2675,12.25 L47.2675,12.25 Z" id="Shape" fill="#FFFFFF" fill-rule="nonzero"></path>
                    <rect id="Rectangle" fill="#FFFFFF" fill-rule="nonzero" x="8.75" y="31.5" width="38.5" height="1.75"></rect>
                    <rect id="Rectangle" fill="#FFFFFF" fill-rule="nonzero" x="29.75" y="38.5" width="1.75" height="5.25"></rect>
                    <rect id="Rectangle" fill="#FFFFFF" fill-rule="nonzero" x="24.5" y="38.5" width="1.75" height="5.25"></rect>
                    <rect id="Rectangle" fill="#FFFFFF" fill-rule="nonzero" x="21.035" y="42" width="13.965" height="1.75"></rect>
                    <path d="M28,35.8575 C28.4725,35.8575 28.875,35.4725 28.875,34.9825 C28.875,34.4925 28.49,34.1075 28,34.1075 C27.51,34.1075 27.125,34.4925 27.125,34.9825 C27.125,35.4725 27.5275,35.8575 28,35.8575" id="Path" fill="#FFFFFF" fill-rule="nonzero"></path>
                    <path d="M16.6075,24.5175 C17.08,24.5175 17.465,24.9025 17.465,25.375 C17.465,25.8475 17.08,26.2325 16.6075,26.2325 C16.135,26.2325 15.75,25.8475 15.75,25.375 C15.75,24.9025 16.135,24.5175 16.6075,24.5175 L16.6075,24.5175 Z M16.6075,22.7675 C15.1725,22.7675 14,23.94 14,25.375 C14,26.81 15.1725,27.9825 16.6075,27.9825 C18.0425,27.9825 19.215,26.81 19.215,25.375 C19.215,23.94 18.0425,22.7675 16.6075,22.7675 L16.6075,22.7675 Z" id="Shape" fill="#FFFFFF" fill-rule="nonzero"></path>
                    <path d="M39.3575,19.2675 C39.83,19.2675 40.215,19.6525 40.215,20.125 C40.215,20.5975 39.83,20.9825 39.3575,20.9825 C38.885,20.9825 38.5,20.5975 38.5,20.125 C38.5,19.6525 38.885,19.2675 39.3575,19.2675 L39.3575,19.2675 Z M39.3575,17.5175 C37.9225,17.5175 36.75,18.69 36.75,20.125 C36.75,21.56 37.9225,22.7325 39.3575,22.7325 C40.7925,22.7325 41.965,21.56 41.965,20.125 C41.965,18.6725 40.7925,17.5175 39.3575,17.5175 L39.3575,17.5175 Z" id="Shape" fill="#FFFFFF" fill-rule="nonzero"></path>
                    <path d="M37.17,20.23 L29.3825,24.15 L27.6325,18.9 L18.06,23.73 C18.48,24.1325 18.76,24.6925 18.83,25.305 L26.6175,21.3675 L28.3675,26.6175 L37.94,21.805 C37.52,21.385 37.24,20.8425 37.17,20.23 Z" id="Path" fill="#FFFFFF" fill-rule="nonzero"></path>
                    <rect id="Rectangle" x="0" y="0" width="56" height="56"></rect>
                </g>
            </g>
        </g>
    </g>
</svg>