<?xml version="1.0" encoding="UTF-8"?>
<svg width="32px" height="32px" viewBox="0 0 32 32" version="1.1" xmlns="http://www.w3.org/2000/svg" xmlns:xlink="http://www.w3.org/1999/xlink">
    <!-- Generator: Sketch 57.1 (83088) - https://sketch.com -->
    <title>069-B32px</title>
    <desc>Created with Sketch.</desc>
    <g id="069-B32px" stroke="none" stroke-width="1" fill="none" fill-rule="evenodd">
        <g>
            <path d="M17.02,22.13 C13.33,20.5 10.32,17.43 10.28,17.4 C10.24,17.35 5.57,12.46 5,7.65 C5,7.62 5,7.57 5.03,7.54 L7.65,5.01 C7.67,4.99 7.69,4.98 7.72,4.98 C7.74,4.98 7.76,5 7.76,5 L11.71,9.08 C11.74,9.11 11.73,9.16 11.7,9.2 L9.95,10.89 L9.47,11.36 L9.72,11.98 C9.76,12.08 10.69,14.35 12.02,15.72 C13.35,17.09 15.59,18.1 15.69,18.14 L16.31,18.41 L16.79,17.94 L18.54,16.25 C18.56,16.23 18.58,16.22 18.61,16.22 C18.64,16.22 18.66,16.24 18.66,16.24 L19.37,16.97 C19.65,16.77 19.95,16.6 20.27,16.46 L19.38,15.54 C19.17,15.32 18.89,15.21 18.61,15.21 C18.34,15.21 18.06,15.31 17.85,15.52 L16.1,17.21 C16.1,17.21 13.96,16.26 12.75,15.01 C11.54,13.76 10.66,11.59 10.66,11.59 L12.41,9.9 C12.84,9.48 12.86,8.8 12.44,8.37 L8.48,4.31 C8.27,4.09 7.99,3.98 7.71,3.98 C7.44,3.98 7.16,4.08 6.95,4.29 L4.33,6.82 C4.08,7.07 3.97,7.42 4.01,7.77 C4.63,12.99 9.57,18.09 9.57,18.09 C9.57,18.09 13.06,21.69 17.3,23.32 C17.17,22.94 17.07,22.55 17.02,22.13 Z" id="Path" fill="#101828" fill-rule="nonzero"></path>
            <path d="M22,16.8 L23.11,17.5 L22,18.19 L22,16.8 L22,16.8 Z M21,15 L21,20 L25,17.5 L21,15 L21,15 Z" id="Shape" fill="#101828" fill-rule="nonzero"></path>
            <path d="M19.51,24.85 L20.39,24.29 C19.54,23.65 18.98,22.64 18.98,21.5 C18.98,20.1 19.81,18.9 21,18.34 L21,17.27 C19.25,17.89 17.98,19.54 17.98,21.5 C17.98,22.84 18.58,24.03 19.51,24.85 Z" id="Path" fill="#101828" fill-rule="nonzero"></path>
            <path d="M25.47,18.16 L24.59,18.72 C25.43,19.36 25.99,20.36 25.99,21.5 C25.99,22.89 25.17,24.08 23.99,24.65 L23.99,25.73 C25.73,25.11 26.99,23.46 26.99,21.51 C26.98,20.17 26.39,18.98 25.47,18.16 Z" id="Path" fill="#101828" fill-rule="nonzero"></path>
            <path d="M22.98,24.8 L22.98,26.19 L21.87,25.49 L22.98,24.8 L22.98,24.8 Z M23.98,23 L19.98,25.5 L23.98,28 L23.98,23 L23.98,23 Z" id="Shape" fill="#101828" fill-rule="nonzero"></path>
            <rect id="Rectangle" x="0" y="0" width="32" height="32"></rect>
        </g>
    </g>
</svg>