<?xml version="1.0" encoding="UTF-8"?>
<svg width="56px" height="56px" viewBox="0 0 56 56" version="1.1" xmlns="http://www.w3.org/2000/svg" xmlns:xlink="http://www.w3.org/1999/xlink">
    <!-- Generator: Sketch 54.1 (76490) - https://sketchapp.com -->
    <title>006-W56px</title>
    <desc>Created with Sketch.</desc>
    <g id="NEW_icons" stroke="none" stroke-width="1" fill="none" fill-rule="evenodd">
        <g id="icons_UD_new-Copy" transform="translate(-532.000000, -1101.000000)">
            <g id="006-W56px" transform="translate(532.000000, 1101.000000)">
                <circle id="Oval-Copy-124" fill="#101828" cx="28" cy="28" r="28"></circle>
                <g id="006-B32px-Copy-5" transform="translate(8.000000, 8.000000)">
                    <path d="M26.2375,6.25 L26.2375,6.25 L26.2375,26.25 L13.75,26.2375 L13.7625,6.25 L26.2375,6.25 L26.2375,6.25 Z M26.2375,5 L13.75,5 C13.0625,5 12.5,5.5625 12.5,6.2625 L12.5,26.25 C12.5,26.95 13.0625,27.5125 13.7625,27.5125 L26.25,27.5125 C26.95,27.5125 27.5125,26.95 27.5125,26.25 L27.5125,6.2625 C27.5,5.5625 26.9375,5 26.2375,5 L26.2375,5 Z" id="Shape" fill="#FFFFFF" fill-rule="nonzero"></path>
                    <path d="M26.25,32.5 L26.2625,33.75 L13.75,33.7625 L13.7375,32.5 L26.25,32.5 L26.25,32.5 Z M26.2625,31.25 L13.7375,31.25 C13.0625,31.25 12.5,31.8125 12.5,32.4875 L12.5,33.75 C12.5,34.4375 13.0625,34.9875 13.7375,34.9875 L26.25,34.9875 C26.9375,34.9875 27.4875,34.425 27.4875,33.75 L27.4875,32.4875 C27.5,31.8125 26.9375,31.25 26.2625,31.25 L26.2625,31.25 Z" id="Shape" fill="#FFFFFF" fill-rule="nonzero"></path>
                    <path d="M22.5,27.5 L22.5,31.25 L17.5,31.25 L17.5,27.5 L22.5,27.5 L22.5,27.5 Z M23.75,26.25 L16.25,26.25 L16.25,32.5 L23.75,32.5 L23.75,26.25 L23.75,26.25 Z" id="Shape" fill="#FFFFFF" fill-rule="nonzero"></path>
                    <path d="M20,10 C21.375,10 22.5,11.125 22.5,12.5 C22.5,13.875 21.375,15 20,15 C18.625,15 17.5,13.875 17.5,12.5 C17.5,11.125 18.625,10 20,10 L20,10 Z M20,8.75 C17.925,8.75 16.25,10.425 16.25,12.5 C16.25,14.575 17.925,16.25 20,16.25 C22.075,16.25 23.75,14.575 23.75,12.5 C23.75,10.425 22.075,8.75 20,8.75 L20,8.75 Z" id="Shape" fill="#FFFFFF" fill-rule="nonzero"></path>
                    <circle id="Oval" fill="#FFFFFF" fill-rule="nonzero" cx="20" cy="21.25" r="1.25"></circle>
                    <rect id="Rectangle" x="0" y="0" width="40" height="40"></rect>
                </g>
            </g>
        </g>
    </g>
</svg>