<?xml version="1.0" encoding="UTF-8"?>
<svg width="80px" height="80px" viewBox="0 0 80 80" version="1.1" xmlns="http://www.w3.org/2000/svg" xmlns:xlink="http://www.w3.org/1999/xlink">
    <!-- Generator: Sketch 57.1 (83088) - https://sketch.com -->
    <title>244-B80px</title>
    <desc>Created with Sketch.</desc>
    <g id="244-B80px" stroke="none" stroke-width="1" fill="none" fill-rule="evenodd">
        <g>
            <path d="M67.5,47.5 L67.5,52.5 L57.5,52.5 L57.5,47.5 L67.5,47.5 L67.5,47.5 Z M70,45 L55,45 L55,55 L70,55 L70,45 L70,45 Z" id="Shape" fill="#101828" fill-rule="nonzero"></path>
            <polygon id="Path" fill="#101828" fill-rule="nonzero" points="62.5 57.5 52.5 57.5 52.5 60 62.5 60"></polygon>
            <polygon id="Path" fill="#101828" fill-rule="nonzero" points="62.5 62.5 45 62.5 45 65 62.5 65"></polygon>
            <path d="M49.95,45 L49,45 L47.9,45 C47.225,45 46.6,45.275 46.125,45.75 L38.2,53.825 C37.75,54.3 37.5,54.925 37.5,55.575 L37.5,56.5 L37.5,57.5 L37.5,70 L70,70 L70,45 L49.95,45 Z M47.45,47.95 L47.45,55 L40.55,55 L47.45,47.95 Z M67.5,67.5 L40,67.5 L40,57.5 L47.45,57.5 C48.825,57.5 49.95,56.375 49.95,55 L49.95,47.5 L67.5,47.5 L67.5,67.5 Z" id="Shape" fill="#101828" fill-rule="nonzero"></path>
            <path d="M36.475,52.05 C30.25,48.1 25.775,43.575 25.7,43.5 C25.6,43.375 13.925,31.15 12.5,19.125 C12.5,19.05 12.5,18.925 12.575,18.85 L19.125,12.525 C19.175,12.475 19.225,12.45 19.3,12.45 C19.35,12.45 19.4,12.5 19.4,12.5 L29.275,22.7 C29.35,22.775 29.325,22.925 29.25,23 L24.875,27.225 L23.675,28.4 L24.3,29.95 C24.4,30.2 26.725,35.875 30.05,39.3 C33.375,42.725 38.975,45.25 39.225,45.35 L40.775,46.025 L41.975,44.85 L46.35,40.625 C46.4,40.575 46.45,40.55 46.525,40.55 C46.6,40.55 46.65,40.6 46.65,40.6 L48.45,42.45 L51.925,42.45 L48.45,38.85 C47.925,38.3 47.225,38.025 46.525,38.025 C45.85,38.025 45.15,38.275 44.625,38.8 L40.25,43.025 C40.25,43.025 34.9,40.65 31.875,37.525 C28.85,34.4 26.65,28.975 26.65,28.975 L31.025,24.75 C32.1,23.7 32.15,22 31.1,20.925 L21.2,10.775 C20.675,10.225 19.975,9.95 19.275,9.95 C18.6,9.95 17.9,10.2 17.375,10.725 L10.825,17.05 C10.2,17.675 9.925,18.55 10.025,19.425 C11.575,32.475 23.925,45.225 23.925,45.225 C23.925,45.225 28.325,49.75 34.65,53.825 L36.475,52.05 Z" id="Path" fill="#101828" fill-rule="nonzero"></path>
            <rect id="Rectangle" x="0" y="0" width="80" height="80"></rect>
        </g>
    </g>
</svg>