<?xml version="1.0" encoding="UTF-8"?>
<svg width="42px" height="42px" viewBox="0 0 42 42" version="1.1" xmlns="http://www.w3.org/2000/svg" xmlns:xlink="http://www.w3.org/1999/xlink">
    <!-- Generator: Sketch 56.3 (81716) - https://sketch.com -->
    <title>149-G40px</title>
    <desc>Created with Sketch.</desc>
    <g id="NEW_icons" stroke="none" stroke-width="1" fill="none" fill-rule="evenodd">
        <g id="icons_UD_new-Copy" transform="translate(-1526.000000, -18941.000000)">
            <g id="149-G40px" transform="translate(1527.000000, 18942.000000)">
                <circle id="Oval-Copy-1137" stroke="#E3E8EC" cx="20" cy="20" r="20"></circle>
                <g id="149-B32px-Copy-2" transform="translate(4.000000, 4.000000)">
                    <path d="M26.98,10 L27,10.02 L26.98,21.02 L5,21 L5.02,10 L26.98,10 L26.98,10 Z M26.98,9 L5.02,9 C4.46,9 4,9.46 4,10.02 L4,21 C4,21.56 4.46,22.02 5.02,22.02 L26.98,22.02 C27.54,22.02 28,21.56 28,21 L28,10.02 C28,9.46 27.54,9 26.98,9 L26.98,9 Z" id="Shape" fill="#101828" fill-rule="nonzero"></path>
                    <rect id="Rectangle" fill="#101828" fill-rule="nonzero" x="18" y="12" width="1" height="7"></rect>
                    <rect id="Rectangle" fill="#101828" fill-rule="nonzero" x="21" y="12" width="1" height="7"></rect>
                    <path d="M11,14.06 L13.06,15.5 L11,16.94 L11,14.06 L11,14.06 Z M10,12 L10,19 L15,15.5 L10,12 L10,12 Z" id="Shape" fill="#101828" fill-rule="nonzero"></path>
                    <path d="M15.98,21.95 C11.67,21.95 8.44,22.61 7,22.97 L7,24 C8.23,23.68 11.54,22.95 15.98,22.95 C20.46,22.95 23.79,23.69 25,24.01 L25,22.98 C23.57,22.61 20.33,21.95 15.98,21.95 Z" id="Path" fill="#101828" fill-rule="nonzero"></path>
                    <rect id="Rectangle" x="0" y="0" width="32" height="32"></rect>
                </g>
            </g>
        </g>
    </g>
</svg>