<?xml version="1.0" encoding="UTF-8"?>
<svg width="80px" height="80px" viewBox="0 0 80 80" version="1.1" xmlns="http://www.w3.org/2000/svg" xmlns:xlink="http://www.w3.org/1999/xlink">
    <!-- Generator: Sketch 57.1 (83088) - https://sketch.com -->
    <title>069-B80px</title>
    <desc>Created with Sketch.</desc>
    <g id="069-B80px" stroke="none" stroke-width="1" fill="none" fill-rule="evenodd">
        <g>
            <path d="M42.55,55.325 C33.325,51.25 25.8,43.575 25.7,43.5 C25.6,43.375 13.925,31.15 12.5,19.125 C12.5,19.05 12.5,18.925 12.575,18.85 L19.125,12.525 C19.175,12.475 19.225,12.45 19.3,12.45 C19.35,12.45 19.4,12.5 19.4,12.5 L29.275,22.7 C29.35,22.775 29.325,22.9 29.25,23 L24.875,27.225 L23.675,28.4 L24.3,29.95 C24.4,30.2 26.725,35.875 30.05,39.3 C33.375,42.725 38.975,45.25 39.225,45.35 L40.775,46.025 L41.975,44.85 L46.35,40.625 C46.4,40.575 46.45,40.55 46.525,40.55 C46.6,40.55 46.65,40.6 46.65,40.6 L48.425,42.425 C49.125,41.925 49.875,41.5 50.675,41.15 L48.45,38.85 C47.925,38.3 47.225,38.025 46.525,38.025 C45.85,38.025 45.15,38.275 44.625,38.8 L40.25,43.025 C40.25,43.025 34.9,40.65 31.875,37.525 C28.85,34.4 26.65,28.975 26.65,28.975 L31.025,24.75 C32.1,23.7 32.15,22 31.1,20.925 L21.2,10.775 C20.675,10.225 19.975,9.95 19.275,9.95 C18.6,9.95 17.9,10.2 17.375,10.725 L10.825,17.05 C10.2,17.675 9.925,18.55 10.025,19.425 C11.575,32.475 23.925,45.225 23.925,45.225 C23.925,45.225 32.65,54.225 43.25,58.3 C42.925,57.35 42.675,56.375 42.55,55.325 Z" id="Path" fill="#101828" fill-rule="nonzero"></path>
            <path d="M55,42 L57.775,43.75 L55,45.475 L55,42 L55,42 Z M52.5,37.5 L52.5,50 L62.5,43.75 L52.5,37.5 L52.5,37.5 Z" id="Shape" fill="#101828" fill-rule="nonzero"></path>
            <path d="M48.775,62.125 L50.975,60.725 C48.85,59.125 47.45,56.6 47.45,53.75 C47.45,50.25 49.525,47.25 52.5,45.85 L52.5,43.175 C48.125,44.725 44.95,48.85 44.95,53.75 C44.95,57.1 46.45,60.075 48.775,62.125 Z" id="Path" fill="#101828" fill-rule="nonzero"></path>
            <path d="M63.675,45.4 L61.475,46.8 C63.575,48.4 64.975,50.9 64.975,53.75 C64.975,57.225 62.925,60.2 59.975,61.625 L59.975,64.325 C64.325,62.775 67.475,58.65 67.475,53.775 C67.45,50.425 65.975,47.45 63.675,45.4 Z" id="Path" fill="#101828" fill-rule="nonzero"></path>
            <path d="M57.45,62 L57.45,65.475 L54.675,63.725 L57.45,62 L57.45,62 Z M59.95,57.5 L49.95,63.75 L59.95,70 L59.95,57.5 L59.95,57.5 Z" id="Shape" fill="#101828" fill-rule="nonzero"></path>
            <rect id="Rectangle" x="0" y="0" width="80" height="80"></rect>
        </g>
    </g>
</svg>