<?xml version="1.0" encoding="UTF-8"?>
<svg width="40px" height="40px" viewBox="0 0 40 40" version="1.1" xmlns="http://www.w3.org/2000/svg" xmlns:xlink="http://www.w3.org/1999/xlink">
    <!-- Generator: Sketch 57.1 (83088) - https://sketch.com -->
    <title>021-B40px</title>
    <desc>Created with Sketch.</desc>
    <g id="021-B40px" stroke="none" stroke-width="1" fill="none" fill-rule="evenodd">
        <g>
            <path d="M25.5875,22.9375 C24.375,24.675 22.65,26.0375 20.6375,26.8 C22.5125,24.675 23.75,21.025 23.75,16.875 C23.75,12.725 22.5125,9.075 20.6375,6.95 C22.65,7.7125 24.375,9.075 25.5875,10.8125 C25.8625,10.4875 26.225,10.25 26.6375,10.125 C24.5,7.025 20.925,5 16.875,5 C16.875,5 16.8625,5 16.8625,5 C16.8625,5 16.8625,5 16.85,5 C16.8375,5 16.8375,5 16.825,5 C10.2875,5.025 5,10.3375 5,16.875 C5,23.4125 10.2875,28.725 16.825,28.75 C16.8375,28.75 16.8375,28.75 16.85,28.75 C16.85,28.75 16.85,28.75 16.8625,28.75 C16.8625,28.75 16.875,28.75 16.875,28.75 C20.925,28.75 24.5,26.725 26.6375,23.625 C26.225,23.4875 25.8625,23.25 25.5875,22.9375 Z M13.0625,6.975 C12.1125,8.05 11.325,9.525 10.7875,11.25 L7.875,11.25 C9.0875,9.3125 10.9,7.8 13.0625,6.975 Z M7.2,12.5 L10.45,12.5 C10.175,13.675 10.025,14.9375 9.975,16.25 L6.2875,16.25 C6.3625,14.925 6.675,13.65 7.2,12.5 Z M6.2875,17.5 L9.9875,17.5 C10.025,18.8125 10.1875,20.075 10.4625,21.25 L7.2125,21.25 C6.675,20.1 6.3625,18.825 6.2875,17.5 Z M7.875,22.5 L10.7875,22.5 C11.325,24.225 12.1125,25.7 13.0625,26.775 C10.9,25.95 9.0875,24.4375 7.875,22.5 Z M16.25,27.4375 C14.525,27.075 13.0125,25.175 12.1,22.5 L16.25,22.5 L16.25,27.4375 Z M16.25,21.25 L11.7375,21.25 C11.45,20.0875 11.275,18.825 11.225,17.5 L16.25,17.5 L16.25,21.25 Z M16.25,16.25 L11.225,16.25 C11.2625,14.925 11.45,13.6625 11.7375,12.5 L16.25,12.5 L16.25,16.25 Z M16.25,11.25 L12.1,11.25 C13.0125,8.5875 14.525,6.6875 16.25,6.3125 L16.25,11.25 Z M17.5,6.325 C19.2125,6.7125 20.7125,8.6 21.6125,11.25 L17.5,11.25 L17.5,6.325 Z M17.5,12.5 L21.975,12.5 C22.2625,13.6625 22.4375,14.925 22.4875,16.25 L17.5,16.25 L17.5,12.5 Z M17.5,17.5 L22.4875,17.5 C22.45,18.825 22.2625,20.0875 21.975,21.25 L17.5,21.25 L17.5,17.5 Z M17.5,27.425 L17.5,22.5 L21.6125,22.5 C20.7125,25.15 19.2125,27.0375 17.5,27.425 Z" id="Shape" fill="#101828" fill-rule="nonzero"></path>
            <path d="M33.75,12.5 L33.75,21.25 L27.5,21.25 L27.5,12.5 L33.75,12.5 L33.75,12.5 Z M33.75,11.25 L27.5,11.25 C26.8125,11.25 26.25,11.8125 26.25,12.5 L26.25,21.25 C26.25,21.9375 26.8125,22.5 27.5,22.5 L33.75,22.5 C34.4375,22.5 35,21.9375 35,21.25 L35,12.5 C35,11.8125 34.4375,11.25 33.75,11.25 L33.75,11.25 Z" id="Shape" fill="#101828" fill-rule="nonzero"></path>
            <rect id="Rectangle" fill="#101828" fill-rule="nonzero" x="27.5" y="7.5" width="1.25" height="4.375"></rect>
            <rect id="Rectangle" fill="#101828" fill-rule="nonzero" x="32.5" y="7.5" width="1.25" height="4.375"></rect>
            <rect id="Rectangle" fill="#101828" fill-rule="nonzero" x="30" y="6.25" width="1.25" height="5.625"></rect>
            <polygon id="Path" fill="#101828" fill-rule="nonzero" points="30 35 30 22.5 31.25 22.5 31.25 35 32.5 35 32.5 21.25 28.75 21.25 28.75 35"></polygon>
            <rect id="Rectangle" x="0" y="0" width="40" height="40"></rect>
        </g>
    </g>
</svg>