<?xml version="1.0" encoding="UTF-8"?>
<svg width="40px" height="40px" viewBox="0 0 40 40" version="1.1" xmlns="http://www.w3.org/2000/svg" xmlns:xlink="http://www.w3.org/1999/xlink">
    <!-- Generator: Sketch 57.1 (83088) - https://sketch.com -->
    <title>096-B40px</title>
    <desc>Created with Sketch.</desc>
    <g id="096-B40px" stroke="none" stroke-width="1" fill="none" fill-rule="evenodd">
        <g>
            <g id="Group" transform="translate(5.000000, 5.000000)" fill="#101828" fill-rule="nonzero">
                <path d="M2.9125,29.6625 L2.275,28.5875 C6.8875,25.8625 5.0375,21 3.5375,18.35 L1.225,14.2875 C-1.3125,9.8125 0.2375,4.0875 4.6875,1.5125 C9.1625,-1.075 14.9125,0.45 17.5125,4.9125 L19.8,8.8375 C21.35,11.4875 24.6375,15.5375 29.325,12.825 L29.95,13.9 L29.95,13.9 L2.9125,29.6625 Z M9.375,1.5 C7.9875,1.5 6.5875,1.85 5.3125,2.6 C1.4625,4.8375 0.1125,9.8 2.3125,13.675 L4.625,17.7375 C6.55,21.1125 6.95,24.1375 5.9,26.4875 L25.725,14.925 C23.125,14.675 20.6625,12.8125 18.725,9.475 L16.4375,5.55 C14.925,2.95 12.1875,1.5 9.375,1.5 Z" id="Shape"></path>
                <path d="M16.2125,28.6375 C13.7125,28.6375 11.2625,27.3375 9.925,25.025 L11.0125,24.4 C12.675,27.2625 16.3625,28.25 19.225,26.5875 C20.6125,25.7875 21.6,24.4875 22.0125,22.9375 C22.425,21.3875 22.2125,19.775 21.4,18.3875 L22.4875,17.7625 C23.4625,19.4375 23.725,21.4 23.225,23.2625 C22.725,25.1375 21.525,26.7 19.85,27.675 C18.7,28.325 17.45,28.6375 16.2125,28.6375 Z" id="Path"></path>
            </g>
            <rect id="Rectangle" x="0" y="0" width="40" height="40"></rect>
        </g>
    </g>
</svg>