<?xml version="1.0" encoding="UTF-8"?>
<svg width="56px" height="56px" viewBox="0 0 56 56" version="1.1" xmlns="http://www.w3.org/2000/svg" xmlns:xlink="http://www.w3.org/1999/xlink">
    <!-- Generator: Sketch 57.1 (83088) - https://sketch.com -->
    <title>144-W56px</title>
    <desc>Created with Sketch.</desc>
    <g id="NEW_icons" stroke="none" stroke-width="1" fill="none" fill-rule="evenodd">
        <g id="icons_UD_new-Copy" transform="translate(-532.000000, -18575.000000)">
            <g id="144-W56px" transform="translate(532.000000, 18575.000000)">
                <circle id="Oval-Copy-898" fill="#101828" cx="28" cy="28" r="28"></circle>
                <g id="144-B32px-Copy-4" transform="translate(8.000000, 8.000000)">
                    <path d="M13.725,8.75 L13.725,10 L9.975,10 L9.975,8.75 L13.725,8.75 L13.725,8.75 Z M13.725,7.5 L9.975,7.5 C9.2875,7.5 8.725,8.0625 8.725,8.75 L8.725,10 C8.725,10.6875 9.2875,11.25 9.975,11.25 L13.725,11.25 C14.4125,11.25 14.975,10.6875 14.975,10 L14.975,8.75 C14.975,8.0625 14.4125,7.5 13.725,7.5 L13.725,7.5 Z" id="Shape" fill="#FFFFFF" fill-rule="nonzero"></path>
                    <path d="M24.3375,16.25 C26.4,16.25 28.0875,17.9375 28.0875,20 C28.0875,22.0625 26.4,23.75 24.3375,23.75 C22.275,23.75 20.5875,22.0625 20.5875,20 C20.5875,17.9375 22.275,16.25 24.3375,16.25 L24.3375,16.25 Z M24.3375,15 C21.575,15 19.3375,17.2375 19.3375,20 C19.3375,22.7625 21.575,25 24.3375,25 C27.1,25 29.3375,22.7625 29.3375,20 C29.3375,17.2375 27.1,15 24.3375,15 L24.3375,15 Z" id="Shape" fill="#FFFFFF" fill-rule="nonzero"></path>
                    <path d="M24.3375,13.75 C27.7875,13.75 30.5875,16.55 30.5875,20 C30.5875,23.45 27.7875,26.25 24.3375,26.25 C20.8875,26.25 18.0875,23.45 18.0875,20 C18.0875,16.55 20.9,13.75 24.3375,13.75 L24.3375,13.75 Z M24.3375,12.5 C20.2,12.5 16.8375,15.8625 16.8375,20 C16.8375,24.1375 20.2,27.5 24.3375,27.5 C28.475,27.5 31.8375,24.1375 31.8375,20 C31.8375,15.8625 28.4875,12.5 24.3375,12.5 L24.3375,12.5 Z" id="Shape" fill="#FFFFFF" fill-rule="nonzero"></path>
                    <path d="M9.975,13.75 C9.2875,13.75 8.725,14.3125 8.725,15 C8.725,15.6875 9.2875,16.25 9.975,16.25 C10.6625,16.25 11.225,15.6875 11.225,15 C11.225,14.3125 10.6625,13.75 9.975,13.75 L9.975,13.75 Z" id="Path" fill="#FFFFFF" fill-rule="nonzero"></path>
                    <path d="M29.1875,8.75 L30.0875,10.5625 L30.4375,11.25 L31.2125,11.25 L33.75,11.225 L33.775,30 L6.25,30.025 L6.225,11.25 L17.475,11.25 L18.25,11.25 L18.6,10.5625 L19.4875,8.75 L29.1875,8.75 L29.1875,8.75 Z M29.9625,7.5 L18.7125,7.5 L17.4625,10 L6.2125,10 C5.55,10 5,10.55 5,11.225 L5,30.025 C5,30.7 5.55,31.25 6.225,31.25 L33.775,31.25 C34.45,31.25 35,30.7 35,30.025 L35,11.225 C35,10.55 34.45,10 33.775,10 L31.2125,10 L29.9625,7.5 L29.9625,7.5 Z" id="Shape" fill="#FFFFFF" fill-rule="nonzero"></path>
                    <rect id="Rectangle" x="0" y="0" width="40" height="40"></rect>
                </g>
            </g>
        </g>
    </g>
</svg>