<?xml version="1.0" encoding="UTF-8"?>
<svg width="42px" height="42px" viewBox="0 0 42 42" version="1.1" xmlns="http://www.w3.org/2000/svg" xmlns:xlink="http://www.w3.org/1999/xlink">
    <!-- Generator: Sketch 56.3 (81716) - https://sketch.com -->
    <title>042-G40px</title>
    <desc>Created with Sketch.</desc>
    <defs>
        <path d="M23.1505313,14.0034616 C23.1429281,14.0457509 23.1376031,14.0884255 23.129625,14.1307148 L23.0885719,13.8883972 C23.1109969,13.9261192 23.129625,13.9653637 23.1505313,14.0034616 C23.2744312,13.3275753 23.3394281,12.6356942 23.3394281,11.9441796 C23.3394281,10.4106851 23.039925,8.92290069 22.4481469,7.52236375 C21.8772656,6.16944457 21.0604781,4.95445427 20.0190656,3.91129009 C18.9791719,2.8681259 17.7663469,2.04936752 16.4174531,1.47711815 C15.0206625,0.884673297 13.5364594,0.584447481 12.0066469,0.584447481 C11.2856438,0.584447481 10.5634969,0.652260718 9.8607375,0.787520685 C9.85920938,0.78789659 9.85731563,0.78789659 9.8554125,0.788281893 C9.8949375,0.809229191 9.93484687,0.827902265 9.9736125,0.849620168 L9.73530937,0.812283418 C9.77521875,0.804661947 9.81550312,0.796279269 9.8554125,0.788281893 C8.89115531,0.274316573 7.80679406,0 6.70912969,0 C4.91706375,0 3.23218031,0.699502562 1.96500094,1.97012678 C0.698202563,3.24035629 0,4.92930624 0,6.72569918 C0,7.86906081 0.293419875,8.99299755 0.844152375,9.98625097 C0.851373844,9.94510818 0.856314844,9.90358009 0.864296438,9.8624279 L0.905344875,10.1005542 C0.884060531,10.0632175 0.865436719,10.0243489 0.844152375,9.98625097 C0.7324095,10.6297531 0.673497469,11.2873517 0.673497469,11.9441796 C0.673497469,13.4780688 0.972998438,14.9654727 1.56477938,16.3663902 C2.13489562,17.7196834 2.95206281,18.9339135 3.99233531,19.9770767 C5.03374781,21.0202399 6.245055,21.8401411 7.59547031,22.4108708 C8.99225625,23.0044603 10.4768344,23.3050656 12.0066469,23.3050656 C12.6725437,23.3050656 13.3399594,23.2441064 13.9914188,23.128284 C13.9534125,23.106948 13.9146375,23.0875174 13.8758719,23.0650393 L14.1179812,23.1077101 C14.0761781,23.1157113 14.0339813,23.1206642 13.9914188,23.128284 C14.9952,23.6974902 16.1316375,24 17.2920094,24 C19.0836938,24 20.7678187,23.3016366 22.035,22.0306384 C23.3025562,20.7611635 24,19.0718329 24,17.2754428 C24,16.1282686 23.7050625,15.0005239 23.1505313,14.0034616 Z M12.0518812,18.9015283 C8.02571812,18.9015283 6.22453125,16.9173079 6.22453125,15.4302856 C6.22453125,14.6675342 6.78628594,14.1329985 7.56050344,14.1329985 C9.283395,14.1329985 8.83718437,16.6128936 12.0518812,16.6128936 C13.6976156,16.6128936 14.6063812,15.7171753 14.6063812,14.8005021 C14.6063812,14.2492001 14.3350031,13.6380821 13.2514031,13.3702499 L9.6703125,12.4741491 C6.78628594,11.7491132 6.26291906,10.1862793 6.26291906,8.71715856 C6.26291906,5.66691615 9.12794344,4.52164681 11.8185094,4.52164681 C14.2969969,4.52164681 17.2186594,5.89475209 17.2186594,7.72466635 C17.2186594,8.50875691 16.5413531,8.96480469 15.7675219,8.96480469 C14.2969969,8.96480469 14.5676156,6.92458105 11.6056687,6.92458105 C10.1359125,6.92458105 9.32178281,7.59169941 9.32178281,8.54646956 C9.32178281,9.4993414 10.4825437,9.80375855 11.4905062,10.0338781 L14.1411656,10.623654 C17.0445844,11.2721087 17.7807937,12.9713491 17.7807937,14.571905 C17.7807937,17.0506564 15.8826844,18.9015283 12.0518812,18.9015283 Z M13.8758719,23.0650393 C13.9146375,23.0937421 13.9534125,23.1185533 13.9914187,23.1457977 C14.0339812,23.1360678 14.0761781,23.1297433 14.1179812,23.1195265 L13.8758719,23.0650393 Z M23.1411199,14.1307148 C23.1513319,14.0884255 23.1581479,14.0457509 23.1678799,14.0034616 C23.1411199,13.9653637 23.1172759,13.9261192 23.0885719,13.8883972 L23.1411199,14.1307148 Z M0.869936775,9.8624279 C0.859720335,9.90358009 0.853395855,9.94510818 0.844152375,9.98625097 C0.871396335,10.0243489 0.895234815,10.0632175 0.922478775,10.1005542 L0.869936775,9.8624279 Z M9.9736125,0.866605893 C9.93484688,0.838873893 9.8949375,0.815029893 9.8554125,0.788281893 C9.81550313,0.798493893 9.77521875,0.809197893 9.73530938,0.818929893 L9.9736125,0.866605893 Z" id="path-1"></path>
    </defs>
    <g id="NEW_icons" stroke="none" stroke-width="1" fill="none" fill-rule="evenodd">
        <g id="icons_UD_new-Copy" transform="translate(-244.000000, -5635.000000)">
            <g id="042-G40px" transform="translate(245.000000, 5636.000000)">
                <circle id="Oval-Copy-348" stroke="#E3E8EC" cx="20" cy="20" r="20"></circle>
                <g id="skype-copy-9" transform="translate(4.000000, 4.000000)">
                    <rect id="Rectangle" x="0" y="0" width="32" height="32"></rect>
                    <g id="Skype_color" transform="translate(4.000000, 4.000000)">
                        <mask id="mask-2" fill="white">
                            <use xlink:href="#path-1"></use>
                        </mask>
                        <g id="path-1"></g>
                        <polygon id="Fill-1" fill="#101828" fill-rule="nonzero" mask="url(#mask-2)" points="-0.452830189 24.4528302 24.4528302 24.4528302 24.4528302 -0.452830189 -0.452830189 -0.452830189"></polygon>
                    </g>
                </g>
            </g>
        </g>
    </g>
</svg>