<?xml version="1.0" encoding="UTF-8"?>
<svg width="80px" height="80px" viewBox="0 0 80 80" version="1.1" xmlns="http://www.w3.org/2000/svg" xmlns:xlink="http://www.w3.org/1999/xlink">
    <!-- Generator: Sketch 57.1 (83088) - https://sketch.com -->
    <title>211-C80px</title>
    <desc>Created with Sketch.</desc>
    <g id="NEW_icons" stroke="none" stroke-width="1" fill="none" fill-rule="evenodd">
        <g id="icons_UD_new-Copy" transform="translate(-2284.000000, -26842.000000)">
            <g id="211-C80px" transform="translate(2284.000000, 26842.000000)">
                <circle id="Oval-Copy-1232" fill="#FF4F12" cx="40" cy="40" r="40"></circle>
                <g id="211-B32px-Copy-9" transform="translate(12.000000, 12.000000)">
                    <path d="M30.625,22.75 C30.135,22.75 29.75,23.135 29.75,23.625 C29.75,24.115 30.135,24.5 30.625,24.5 C31.115,24.5 31.5,24.115 31.5,23.625 C31.5,23.135 31.115,22.75 30.625,22.75 L30.625,22.75 Z" id="Path" fill="#FFFFFF" fill-rule="nonzero"></path>
                    <path d="M25.375,22.75 C24.885,22.75 24.5,23.135 24.5,23.625 C24.5,24.115 24.885,24.5 25.375,24.5 C25.865,24.5 26.25,24.115 26.25,23.625 C26.25,23.135 25.865,22.75 25.375,22.75 L25.375,22.75 Z" id="Path" fill="#FFFFFF" fill-rule="nonzero"></path>
                    <path d="M20.125,22.75 C19.635,22.75 19.25,23.135 19.25,23.625 C19.25,24.115 19.635,24.5 20.125,24.5 C20.615,24.5 21,24.115 21,23.625 C21,23.135 20.615,22.75 20.125,22.75 L20.125,22.75 Z" id="Path" fill="#FFFFFF" fill-rule="nonzero"></path>
                    <g id="Group" transform="translate(38.500000, 28.000000)" fill="#FFFFFF" fill-rule="nonzero">
                        <polygon id="Rectangle" transform="translate(2.378939, 8.092318) rotate(-45.000000) translate(-2.378939, -8.092318) " points="1.50394702 5.6335912 3.25393023 5.6335912 3.25393023 10.551044 1.50394702 10.551044"></polygon>
                        <rect id="Rectangle" x="0" y="1.7325" width="1.75" height="5.25"></rect>
                    </g>
                    <g id="Group" transform="translate(7.000000, 12.250000)" fill="#FFFFFF" fill-rule="nonzero">
                        <path d="M21.0525,21.0175 L10.9725,21.0175 C10.29,21.0175 9.6075,21.2275 9.0475,21.6125 L0,27.6325 L0,27.6325 L0.0175,29.75 L10.01,23.0475 C10.29,22.855 10.6225,22.75 10.9725,22.75 L21.0525,22.75 C21.035,22.4525 21,22.155 21,21.8575 C21.0175,21.595 21.035,21.2975 21.0525,21.0175 Z" id="Path"></path>
                        <path d="M35.0175,0 L21.0525,0 C21.0525,0 21.0525,0 21.0525,0 L1.7325,0 C0.7875,0 0.0175,0.77 0.0175,1.7325 L0.0175,17.5 L1.75,17.5 L1.7325,1.75 L13.02,1.75 C13.02,1.75 13.02,1.75 13.02,1.75 L35,1.75 L35.0175,10.815 C35.6125,10.955 36.19,11.13 36.75,11.375 L36.75,1.7325 C36.75,0.7875 35.98,0 35.0175,0 Z" id="Path"></path>
                    </g>
                    <path d="M39.375,26.25 C43.715,26.25 47.25,29.785 47.25,34.125 C47.25,38.465 43.715,42 39.375,42 C35.035,42 31.5,38.465 31.5,34.125 C31.5,29.785 35.035,26.25 39.375,26.25 L39.375,26.25 Z M39.375,24.5 C34.055,24.5 29.75,28.805 29.75,34.125 C29.75,39.445 34.055,43.75 39.375,43.75 C44.695,43.75 49,39.445 49,34.125 C49,28.805 44.695,24.5 39.375,24.5 L39.375,24.5 Z" id="Shape" fill="#FFFFFF" fill-rule="nonzero"></path>
                    <rect id="Rectangle" x="0" y="0" width="56" height="56"></rect>
                </g>
            </g>
        </g>
    </g>
</svg>