<?xml version="1.0" encoding="UTF-8"?>
<svg width="32px" height="32px" viewBox="0 0 32 32" version="1.1" xmlns="http://www.w3.org/2000/svg" xmlns:xlink="http://www.w3.org/1999/xlink">
    <!-- Generator: Sketch 57.1 (83088) - https://sketch.com -->
    <title>064-B32px</title>
    <desc>Created with Sketch.</desc>
    <g id="064-B32px" stroke="none" stroke-width="1" fill="none" fill-rule="evenodd">
        <g>
            <path d="M16,26 C16.27,26 16.5,25.78 16.5,25.5 C16.5,25.22 16.27,25 16,25 C15.73,25 15.5,25.22 15.5,25.5 C15.5,25.78 15.73,26 16,26" id="Path" fill="#101828" fill-rule="nonzero"></path>
            <rect id="Rectangle" fill="#101828" fill-rule="nonzero" x="8" y="23" width="16" height="1"></rect>
            <path d="M23,16.97 L23,26.94 C23,26.97 22.98,26.99 22.95,26.99 L9.05,26.99 C9.02,27 9,26.98 9,26.95 L9,16.98 C8.84,16.99 8.67,17 8.5,17 C8.33,17 8.16,16.99 8,16.97 L8,26.94 C8,27.53 8.47,28 9.05,28 L22.95,28 C23.53,28 24,27.53 24,26.95 L24,16.98 C23.84,16.99 23.67,17 23.5,17 C23.33,17 23.16,16.99 23,16.97 Z" id="Path" fill="#101828" fill-rule="nonzero"></path>
            <path d="M22.95,4 L9.05,4 C8.47,4 8,4.47 8,5.05 L8,6.02 C8.16,6.01 8.33,6 8.5,6 C8.67,6 8.84,6.01 9,6.03 L9,5.05 C9,5.02 9.02,5 9.05,5 L22.95,5 C22.98,5 23,5.02 23,5.05 L23,6.02 C23.16,6.01 23.33,6 23.5,6 C23.67,6 23.84,6.01 24,6.03 L24,5.05 C24,4.47 23.53,4 22.95,4 Z" id="Path" fill="#101828" fill-rule="nonzero"></path>
            <path d="M8.5,8 C10.43,8 12,9.57 12,11.5 C12,13.43 10.43,15 8.5,15 C6.57,15 5,13.43 5,11.5 C5,9.57 6.57,8 8.5,8 L8.5,8 Z M8.5,7 C6.01,7 4,9.01 4,11.5 C4,13.99 6.01,16 8.5,16 C10.99,16 13,13.99 13,11.5 C13,9.01 10.99,7 8.5,7 L8.5,7 Z" id="Shape" fill="#101828" fill-rule="nonzero"></path>
            <path d="M23.5,8 C25.43,8 27,9.57 27,11.5 C27,13.43 25.43,15 23.5,15 C21.57,15 20,13.43 20,11.5 C20,9.57 21.57,8 23.5,8 L23.5,8 Z M23.5,7 C21.01,7 19,9.01 19,11.5 C19,13.99 21.01,16 23.5,16 C25.99,16 28,13.99 28,11.5 C28,9.01 25.99,7 23.5,7 L23.5,7 Z" id="Shape" fill="#101828" fill-rule="nonzero"></path>
            <path d="M15.38,19.11 C15.32,19.11 15.26,19.11 15.2,19.11 C15.2,19.11 15.19,19.11 15.19,19.11 C15.14,19.11 15.1,19.1 15.05,19.1 C14.99,19.09 14.93,19.09 14.87,19.07 C14.78,19.05 14.69,19.03 14.6,19 C14.42,18.94 14.25,18.86 14.09,18.76 C14.09,18.76 14.08,18.76 14.08,18.75 C14.29,18.77 14.49,18.76 14.69,18.7 C14.89,18.64 15.07,18.55 15.24,18.42 C15.13,18.42 15.03,18.39 14.93,18.35 C14.83,18.3 14.74,18.24 14.67,18.16 C14.6,18.08 14.54,17.99 14.51,17.88 C14.63,17.9 14.74,17.9 14.86,17.87 C14.68,17.83 14.53,17.74 14.41,17.59 C14.27,17.42 14.23,17.21 14.24,17.09 C14.29,17.12 14.35,17.14 14.41,17.16 C14.47,17.18 14.57,17.19 14.59,17.19 C14.42,17.07 14.31,16.92 14.27,16.71 C14.22,16.51 14.25,16.32 14.36,16.14 C14.56,16.38 14.8,16.58 15.08,16.72 C15.36,16.86 15.66,16.94 15.98,16.96 C15.98,16.96 15.98,16.95 15.98,16.95 C15.97,16.91 15.97,16.87 15.96,16.83 C15.95,16.75 15.96,16.67 15.98,16.59 C16.02,16.43 16.1,16.29 16.23,16.18 C16.32,16.1 16.41,16.05 16.52,16.02 C16.57,16 16.62,15.99 16.68,15.99 C16.69,15.99 16.7,15.99 16.71,15.99 C16.74,15.99 16.76,15.99 16.79,15.99 C16.79,15.99 16.8,15.99 16.8,15.99 C16.84,15.99 16.87,16 16.91,16 C17,16.02 17.09,16.05 17.16,16.1 C17.22,16.14 17.27,16.18 17.32,16.23 C17.32,16.23 17.33,16.24 17.33,16.24 C17.43,16.22 17.52,16.19 17.62,16.15 C17.69,16.12 17.75,16.09 17.81,16.05 C17.81,16.05 17.81,16.05 17.82,16.05 C17.76,16.23 17.64,16.38 17.48,16.48 C17.51,16.48 17.54,16.47 17.57,16.47 C17.6,16.46 17.63,16.46 17.66,16.45 C17.69,16.44 17.72,16.43 17.75,16.43 C17.78,16.42 17.81,16.41 17.84,16.4 C17.87,16.39 17.9,16.38 17.93,16.37 C17.93,16.37 17.93,16.38 17.93,16.38 C17.91,16.41 17.89,16.44 17.87,16.46 C17.8,16.56 17.71,16.64 17.62,16.72 C17.6,16.74 17.58,16.75 17.56,16.77 C17.56,16.77 17.55,16.78 17.55,16.78 C17.55,16.79 17.55,16.79 17.55,16.8 C17.55,16.93 17.55,17.05 17.53,17.18 C17.52,17.25 17.51,17.32 17.49,17.38 C17.46,17.49 17.43,17.61 17.38,17.72 C17.31,17.89 17.23,18.05 17.12,18.2 C17.02,18.35 16.9,18.48 16.76,18.59 C16.68,18.66 16.6,18.72 16.51,18.78 C16.36,18.87 16.2,18.95 16.04,19 C15.95,19.03 15.86,19.05 15.76,19.07 C15.72,19.08 15.67,19.08 15.62,19.09 C15.59,19.09 15.55,19.1 15.52,19.1 C15.46,19.11 15.43,19.11 15.38,19.11 C15.39,19.11 15.38,19.11 15.38,19.11 Z" id="Path" fill="#101828" fill-rule="nonzero"></path>
            <path d="M24.85,11.05 C24.81,11.34 24.77,11.61 24.74,11.87 C24.73,11.94 24.7,11.96 24.63,11.96 C24.45,11.96 24.27,11.96 24.09,11.96 C23.93,11.96 23.93,11.96 23.93,12.13 C23.93,12.59 23.93,13.05 23.93,13.51 C23.93,13.64 23.92,13.77 23.92,13.91 C23.92,13.98 23.89,14 23.82,14 C23.58,14 23.34,14 23.09,14 C23,14 22.99,13.96 22.99,13.89 C22.98,13.3 22.98,12.71 22.97,12.12 C22.97,11.97 22.97,11.97 22.82,11.97 C22.63,11.97 22.43,11.96 22.24,11.97 C22.17,11.97 22.13,11.95 22.13,11.87 C22.14,11.62 22.15,11.36 22.15,11.11 C22.15,11.04 22.18,11.03 22.24,11.03 C22.44,11.03 22.65,11.03 22.85,11.03 C22.94,11.03 22.97,11 22.97,10.91 C22.97,10.63 22.97,10.35 22.99,10.07 C23.03,9.49 23.48,9.07 24.05,9.05 C24.29,9.04 24.53,9.05 24.78,9.05 C24.85,9.05 24.88,9.08 24.88,9.15 C24.87,9.38 24.86,9.61 24.86,9.84 C24.86,9.91 24.82,9.92 24.76,9.92 C24.58,9.92 24.4,9.92 24.23,9.94 C24.04,9.96 23.94,10.09 23.93,10.28 C23.92,10.5 23.93,10.71 23.92,10.93 C23.92,11.01 23.96,11.03 24.02,11.03 C24.25,11.03 24.49,11.04 24.72,11.05 C24.77,11.04 24.8,11.05 24.85,11.05 Z" id="Path" fill="#101828" fill-rule="nonzero"></path>
            <path d="M11.13,12.85 C11.09,12.98 10.99,12.99 10.88,12.99 C10.63,13 10.38,13 10.13,13 C9.97,13 9.84,12.91 9.73,12.8 C9.62,12.69 9.52,12.56 9.41,12.45 C9.37,12.41 9.32,12.36 9.27,12.33 C9.19,12.27 9.13,12.28 9.06,12.36 C8.98,12.45 8.96,12.56 8.95,12.68 C8.95,12.72 8.95,12.76 8.94,12.8 C8.93,12.93 8.88,12.98 8.76,12.98 C8.5,12.99 8.24,13.01 7.98,12.92 C7.59,12.79 7.27,12.56 7.01,12.25 C6.54,11.67 6.18,11.02 5.88,10.34 C5.83,10.23 5.86,10.16 5.99,10.14 C6.02,10.14 6.04,10.14 6.07,10.14 C6.3,10.14 6.52,10.14 6.75,10.14 C6.87,10.14 6.93,10.19 6.99,10.29 C7.13,10.57 7.26,10.85 7.41,11.12 C7.47,11.24 7.55,11.34 7.66,11.42 C7.7,11.45 7.75,11.48 7.81,11.46 C7.83,11.45 7.85,11.44 7.86,11.42 C7.91,11.34 7.92,11.25 7.93,11.16 C7.95,10.98 7.96,10.81 7.94,10.63 C7.93,10.55 7.92,10.47 7.9,10.4 C7.87,10.29 7.79,10.25 7.69,10.22 C7.67,10.21 7.65,10.21 7.61,10.2 C7.63,10.17 7.64,10.15 7.65,10.13 C7.72,10.06 7.8,10.03 7.9,10.02 C8.18,9.99 8.46,9.98 8.74,10.03 C8.88,10.05 8.93,10.1 8.94,10.26 C8.95,10.43 8.94,10.6 8.94,10.76 C8.94,10.93 8.94,11.1 8.95,11.27 C8.95,11.31 8.97,11.35 8.99,11.39 C9.04,11.46 9.11,11.47 9.17,11.41 C9.26,11.32 9.34,11.23 9.41,11.13 C9.6,10.87 9.75,10.58 9.86,10.28 C9.91,10.15 9.95,10.13 10.08,10.13 C10.36,10.13 10.64,10.13 10.92,10.12 C11,10.12 11.08,10.13 11.13,10.21 C11.13,10.24 11.13,10.26 11.13,10.29 C11.11,10.33 11.1,10.38 11.08,10.42 C10.98,10.64 10.83,10.83 10.69,11.03 C10.57,11.2 10.44,11.36 10.32,11.53 C10.24,11.65 10.25,11.74 10.35,11.84 C10.47,11.96 10.6,12.08 10.71,12.2 C10.88,12.37 11.05,12.54 11.12,12.78 C11.13,12.82 11.13,12.83 11.13,12.85 Z" id="Path" fill="#101828" fill-rule="nonzero"></path>
            <path d="M16,14 C17.93,14 19.5,15.57 19.5,17.5 C19.5,19.43 17.93,21 16,21 C14.07,21 12.5,19.43 12.5,17.5 C12.5,15.57 14.07,14 16,14 L16,14 Z M16,13 C13.51,13 11.5,15.01 11.5,17.5 C11.5,19.99 13.51,22 16,22 C18.49,22 20.5,19.99 20.5,17.5 C20.5,15.01 18.49,13 16,13 L16,13 Z" id="Shape" fill="#101828" fill-rule="nonzero"></path>
            <rect id="Rectangle" x="0" y="0" width="32" height="32"></rect>
        </g>
    </g>
</svg>