<?xml version="1.0" encoding="UTF-8"?>
<svg width="80px" height="80px" viewBox="0 0 80 80" version="1.1" xmlns="http://www.w3.org/2000/svg" xmlns:xlink="http://www.w3.org/1999/xlink">
    <!-- Generator: Sketch 57.1 (83088) - https://sketch.com -->
    <title>044-B80px</title>
    <desc>Created with Sketch.</desc>
    <g id="044-B80px" stroke="none" stroke-width="1" fill="none" fill-rule="evenodd">
        <g>
            <path d="M43.45,55.475 C43.3,55.65 40.2,58.675 40.075,58.775 C40.05,58.75 40,58.725 39.975,58.7 C38.925,57.675 37.875,56.65 36.825,55.625 C36.75,55.55 36.725,55.475 36.725,55.375 C36.725,55.3 36.725,55.25 36.725,55.175 C36.725,45.725 36.725,36.3 36.725,26.85 C36.725,26.75 36.725,26.675 36.7,26.575 C36.65,26.575 36.625,26.55 36.6,26.55 C36.525,26.55 36.475,26.55 36.4,26.55 C33.2,26.55 30,26.55 26.8,26.55 C26.725,26.55 26.65,26.55 26.575,26.55 C26.55,26.475 26.6,26.45 26.625,26.425 C26.925,26.1 27.25,25.8 27.55,25.5 C29.325,23.725 31.1,21.925 32.875,20.15 C32.925,20.1 32.95,20.05 33,20 C37.675,20 42.35,20 47.025,20 C47.6,20.525 53.425,26.275 53.575,26.525 C53.575,26.55 53.525,26.55 53.5,26.55 C53.425,26.55 53.35,26.55 53.3,26.55 C50.1,26.55 46.9,26.55 43.7,26.55 C43.625,26.55 43.525,26.55 43.45,26.575 C43.45,26.625 43.425,26.65 43.425,26.675 C43.425,26.75 43.425,26.825 43.425,26.875 C43.425,36.325 43.425,45.775 43.425,55.225 C43.45,55.3 43.45,55.4 43.45,55.475 Z" id="Path" fill="#101828" fill-rule="nonzero"></path>
            <path d="M53.675,45.275 C51.975,46.975 50.25,48.65 48.55,50.35 C48.475,50.325 48.425,50.275 48.375,50.225 C47.425,49.3 46.475,48.375 45.5,47.45 C44.975,46.925 44.45,46.425 43.925,45.9 C43.875,45.85 43.85,45.8 43.8,45.75 C43.85,45.7 43.9,45.65 43.95,45.6 C44.95,44.6 45.975,43.6 46.975,42.625 C47,42.6 47.05,42.55 47.075,42.525 C47.125,42.475 47.15,42.425 47.15,42.375 C47.15,42.325 47.15,42.25 47.15,42.2 C47.15,38.025 47.15,33.85 47.15,29.675 C47.15,29.6 47.15,29.5 47.175,29.425 C47.225,29.425 47.275,29.425 47.325,29.4 C48.95,29.375 53.475,29.4 53.675,29.425 C53.675,29.475 53.7,29.5 53.7,29.55 C53.7,29.75 53.7,29.975 53.7,30.175 C53.7,35.125 53.7,40.1 53.7,45.05 C53.675,45.1 53.675,45.175 53.675,45.275 Z" id="Path" fill="#101828" fill-rule="nonzero"></path>
            <path d="M31.65,50.35 C31.6,50.3 31.55,50.25 31.5,50.225 C29.9,48.625 28.275,47.025 26.675,45.45 C26.475,45.25 26.525,45.325 26.525,45.075 C26.525,39.925 26.525,34.8 26.525,29.65 C26.525,29.575 26.525,29.5 26.525,29.425 C26.575,29.425 26.6,29.4 26.65,29.4 C26.7,29.4 26.75,29.4 26.8,29.4 C28.8,29.4 30.8,29.4 32.8,29.4 C32.875,29.4 32.975,29.375 33.025,29.425 C33.025,29.45 33.05,29.45 33.05,29.45 C33.05,29.45 33.05,29.45 33.05,29.475 C33.05,29.475 33.05,29.5 33.05,29.5 C33.05,29.525 33.05,29.525 33.05,29.55 C33.05,29.55 33.05,29.575 33.05,29.575 C33.05,29.6 33.05,29.625 33.05,29.625 C33.05,33.9 33.05,38.15 33.05,42.425 C33.05,42.425 33.05,42.45 33.05,42.45 C33.05,42.45 33.05,42.475 33.05,42.475 C33.05,42.475 33.05,42.475 33.05,42.525 C34.15,43.6 35.275,44.725 36.4,45.825 C34.8,47.275 33.225,48.8 31.65,50.35 Z" id="Path" fill="#101828" fill-rule="nonzero"></path>
            <path d="M47.45,17.075 L56.675,26.275 L56.675,47.225 L40.05,62.2 L23.325,47.4 L23.325,26.275 L32.525,17.075 L47.45,17.075 L47.45,17.075 Z M48.3,15 L31.65,15 L21.25,25.425 L21.25,48.35 L40.075,65 L58.75,48.175 L58.75,25.425 L48.3,15 L48.3,15 Z" id="Shape" fill="#101828" fill-rule="nonzero"></path>
            <rect id="Rectangle" x="0" y="0" width="80" height="80"></rect>
        </g>
    </g>
</svg>