<?xml version="1.0" encoding="UTF-8"?>
<svg width="80px" height="80px" viewBox="0 0 80 80" version="1.1" xmlns="http://www.w3.org/2000/svg" xmlns:xlink="http://www.w3.org/1999/xlink">
    <!-- Generator: Sketch 57.1 (83088) - https://sketch.com -->
    <title>095-W80px</title>
    <desc>Created with Sketch.</desc>
    <g id="NEW_icons" stroke="none" stroke-width="1" fill="none" fill-rule="evenodd">
        <g id="icons_UD_new-Copy" transform="translate(-2151.000000, -12277.000000)">
            <g id="095-W80px" transform="translate(2151.000000, 12277.000000)">
                <circle id="Oval-Copy-618" fill="#101828" cx="40" cy="40" r="40"></circle>
                <g id="095-B32px-Copy-8" transform="translate(12.000000, 12.000000)">
                    <path d="M42,24.5 L42,26.25 L42,26.25 L42.0175,47.25 L14,47.285 L14,28 L14,26.25 L14,24.5 L12.25,24.5 L12.25,47.2675 C12.25,48.23 13.02,49 13.9825,49 L42.035,49 C42.98,49 43.7675,48.23 43.7675,47.2675 L43.7675,24.5 L42,24.5 Z" id="Path" fill="#FFFFFF" fill-rule="nonzero"></path>
                    <polygon id="Path" fill="#FFFFFF" fill-rule="nonzero" points="47.565 25.48 28 9.31 8.435 25.48 7.315 24.1325 28 7.035 48.685 24.1325"></polygon>
                    <path d="M28,33.25 C29.925,33.25 31.5,34.825 31.5,36.75 C31.5,38.675 29.925,40.25 28,40.25 C26.075,40.25 24.5,38.675 24.5,36.75 C24.5,34.825 26.075,33.25 28,33.25 L28,33.25 Z M28,31.5 C25.095,31.5 22.75,33.845 22.75,36.75 C22.75,39.655 25.095,42 28,42 C30.905,42 33.25,39.655 33.25,36.75 C33.25,33.8625 30.905,31.5 28,31.5 L28,31.5 Z" id="Shape" fill="#FFFFFF" fill-rule="nonzero"></path>
                    <path d="M28,26.25 C29.4525,26.25 30.625,27.4225 30.625,28.875 C30.625,30.3275 29.4525,31.5 28,31.5 C26.5475,31.5 25.375,30.3275 25.375,28.875 C25.375,27.4225 26.5475,26.25 28,26.25 L28,26.25 Z M28,24.5 C25.585,24.5 23.625,26.46 23.625,28.875 C23.625,31.29 25.585,33.25 28,33.25 C30.415,33.25 32.375,31.29 32.375,28.875 C32.375,26.46 30.415,24.5 28,24.5 L28,24.5 Z" id="Shape" fill="#FFFFFF" fill-rule="nonzero"></path>
                    <rect id="Rectangle" x="0" y="0" width="56" height="56"></rect>
                </g>
            </g>
        </g>
    </g>
</svg>