<?xml version="1.0" encoding="UTF-8"?>
<svg width="40px" height="40px" viewBox="0 0 40 40" version="1.1" xmlns="http://www.w3.org/2000/svg" xmlns:xlink="http://www.w3.org/1999/xlink">
    <!-- Generator: Sketch 57.1 (83088) - https://sketch.com -->
    <title>210-B40px</title>
    <desc>Created with Sketch.</desc>
    <g id="210-B40px" stroke="none" stroke-width="1" fill="none" fill-rule="evenodd">
        <g>
            <polygon id="Path" fill="#101828" fill-rule="nonzero" points="12.5 13.725 13.7875 13.75 13.7875 17.5 17.5375 17.5 17.5375 13.75 18.7875 13.75 18.7875 22.5 17.5375 22.5 17.5375 18.75 13.7875 18.75 13.7875 22.5 12.5375 22.5"></polygon>
            <rect id="Rectangle" fill="#101828" fill-rule="nonzero" x="21.275" y="13.75" width="1.25" height="1.25"></rect>
            <rect id="Rectangle" fill="#101828" fill-rule="nonzero" x="21.275" y="16.25" width="1.25" height="6.25"></rect>
            <rect id="Rectangle" fill="#101828" fill-rule="nonzero" x="26.25" y="13.75" width="1.25" height="6.25"></rect>
            <rect id="Rectangle" fill="#101828" fill-rule="nonzero" x="26.25" y="21.25" width="1.25" height="1.25"></rect>
            <path d="M33.7625,8.75 L6.2375,8.75 C5.55,8.75 5,9.3 5,9.9875 L5,23.75 L6.2375,23.75 L6.2375,10 L33.75,10 L33.7625,26.25 L12.8375,26.25 C12.35,26.25 11.8625,26.4 11.4625,26.675 L7.075,29.6125 L5,31.0125 L5,32.5 L12.15,27.7125 C12.3625,27.575 12.6,27.5 12.8375,27.5 L33.7625,27.5 C34.4375,27.5 35,26.95 35,26.2625 L35,9.9875 C35,9.3 34.45,8.75 33.7625,8.75 Z" id="Path" fill="#101828" fill-rule="nonzero"></path>
            <rect id="Rectangle" x="0" y="0" width="40" height="40"></rect>
        </g>
    </g>
</svg>