<?xml version="1.0" encoding="UTF-8"?>
<svg width="40px" height="40px" viewBox="0 0 40 40" version="1.1" xmlns="http://www.w3.org/2000/svg" xmlns:xlink="http://www.w3.org/1999/xlink">
    <!-- Generator: Sketch 57.1 (83088) - https://sketch.com -->
    <title>134-B40px</title>
    <desc>Created with Sketch.</desc>
    <g id="134-B40px" stroke="none" stroke-width="1" fill="none" fill-rule="evenodd">
        <g>
            <path d="M19.375,18.75 C20.0625,18.75 20.625,19.3125 20.625,20 C20.625,20.6875 20.0625,21.25 19.375,21.25 C18.6875,21.25 18.125,20.6875 18.125,20 C18.125,19.3125 18.6875,18.75 19.375,18.75 L19.375,18.75 Z M19.375,17.5 C18,17.5 16.875,18.625 16.875,20 C16.875,21.375 18,22.5 19.375,22.5 C20.75,22.5 21.875,21.375 21.875,20 C21.875,18.625 20.75,17.5 19.375,17.5 L19.375,17.5 Z" id="Shape" fill="#101828" fill-rule="nonzero"></path>
            <path d="M18.125,20 L16.875,20 L16.875,16.4 C16.8875,15.325 17.575,13.7375 19.425,13.7375 C20.1375,13.7375 20.75,13.975 21.175,14.4125 C21.9,15.1625 21.9,16.2125 21.8875,16.3375 L20.6375,16.3 L21.2625,16.3125 L20.6375,16.3 C20.6375,16.2875 20.6375,15.65 20.275,15.275 C20.0875,15.0875 19.8,15 19.425,15 C18.175,15 18.125,16.275 18.125,16.4125 L18.125,20 Z" id="Path" fill="#101828" fill-rule="nonzero"></path>
            <rect id="Rectangle" fill="#101828" fill-rule="nonzero" x="13.125" y="17.5" width="1.25" height="1.25"></rect>
            <path d="M29.375,11.25 C29.725,11.25 30,11.525 30,11.875 C30,12.225 29.725,12.5 29.375,12.5 C29.025,12.5 28.75,12.225 28.75,11.875 C28.75,11.525 29.025,11.25 29.375,11.25 L29.375,11.25 Z M29.375,10 C28.3375,10 27.5,10.8375 27.5,11.875 C27.5,12.9125 28.3375,13.75 29.375,13.75 C30.4125,13.75 31.25,12.9125 31.25,11.875 C31.25,10.8375 30.4125,10 29.375,10 L29.375,10 Z" id="Shape" fill="#101828" fill-rule="nonzero"></path>
            <path d="M25.625,15 C26.6625,15 27.5,15.8375 27.5,16.875 L27.5,19.375 C27.5,20.4125 26.6625,21.25 25.625,21.25 C24.5875,21.25 23.75,20.4125 23.75,19.375 L23.75,16.875 C23.75,15.8375 24.5875,15 25.625,15 L25.625,15 Z M25.625,13.75 C23.9,13.75 22.5,15.15 22.5,16.875 L22.5,19.375 C22.5,21.1 23.9,22.5 25.625,22.5 C27.35,22.5 28.75,21.1 28.75,19.375 L28.75,16.875 C28.75,15.15 27.35,13.75 25.625,13.75 L25.625,13.75 Z" id="Shape" fill="#101828" fill-rule="nonzero"></path>
            <path d="M18.75,26 L20.1375,26.875 L18.75,27.7375 L18.75,26 L18.75,26 Z M17.5,23.75 L17.5,30 L22.5,26.875 L17.5,23.75 L17.5,23.75 Z" id="Shape" fill="#101828" fill-rule="nonzero"></path>
            <g id="Group" transform="translate(5.000000, 18.750000)" fill="#101828" fill-rule="nonzero">
                <path d="M1.25,3.75 C1.25,3.2125 2.1125,2.475 3.75,1.7875 L3.75,0.45 C1.425,1.325 0,2.4875 0,3.75 C0,6.225 5.4125,8.275 12.5,8.675 L12.5,7.425 C5.2,7.0125 1.25,4.9 1.25,3.75 Z" id="Path"></path>
                <path d="M26.25,0.45 L26.25,1.7875 C27.8875,2.475 28.75,3.2125 28.75,3.75 C28.75,4.825 25.25,6.775 18.75,7.3375 L18.75,7.725 L18.75,8.525 L18.75,8.5875 C25.2125,8.0375 30,6.075 30,3.75 C30,2.4875 28.575,1.325 26.25,0.45 Z" id="Path"></path>
            </g>
            <path d="M15.3875,18.125 C15.9125,17.6625 16.25,17 16.25,16.25 C16.25,14.875 15.125,13.75 13.75,13.75 C12.375,13.75 11.25,14.875 11.25,16.25 L12.5,16.25 C12.5,15.5625 13.0625,15 13.75,15 C14.4375,15 15,15.5625 15,16.25 C15,16.9375 14.4375,17.5 13.75,17.5 L13.75,17.5 L13.75,18.75 C13.75,18.75 13.75,18.75 13.75,18.75 C14.4375,18.75 15,19.3125 15,20 C15,20.6875 14.4375,21.25 13.75,21.25 C13.0625,21.25 12.5,20.6875 12.5,20 L11.25,20 C11.25,21.375 12.375,22.5 13.75,22.5 C15.125,22.5 16.25,21.375 16.25,20 C16.25,19.25 15.9125,18.5875 15.3875,18.125 Z" id="Path" fill="#101828" fill-rule="nonzero"></path>
            <rect id="Rectangle" x="0" y="0" width="40" height="40"></rect>
        </g>
    </g>
</svg>