<?xml version="1.0" encoding="UTF-8"?>
<svg width="56px" height="56px" viewBox="0 0 56 56" version="1.1" xmlns="http://www.w3.org/2000/svg" xmlns:xlink="http://www.w3.org/1999/xlink">
    <!-- Generator: Sketch 57.1 (83088) - https://sketch.com -->
    <title>177-W56px</title>
    <desc>Created with Sketch.</desc>
    <g id="NEW_icons" stroke="none" stroke-width="1" fill="none" fill-rule="evenodd">
        <g id="icons_UD_new-Copy" transform="translate(-1814.000000, -22597.000000)">
            <g id="177-W56px" transform="translate(1814.000000, 22597.000000)">
                <circle id="Oval-Copy-1079" fill="#101828" cx="28" cy="28" r="28"></circle>
                <g id="177-B32px-Copy-4" transform="translate(8.000000, 8.000000)">
                    <polygon id="Path" fill="#FFFFFF" fill-rule="nonzero" points="25 25 25 26.25 27.5 26.25 27.5 28.75 28.75 28.75 28.75 26.25 31.25 26.25 31.25 25 28.75 25 28.75 22.5 27.5 22.5 27.5 25"></polygon>
                    <path d="M28.125,7.5 C29.1625,7.5 30,8.3375 30,9.375 C30,10.4125 29.1625,11.25 28.125,11.25 C27.0875,11.25 26.25,10.4125 26.25,9.375 C26.25,8.3375 27.0875,7.5 28.125,7.5 L28.125,7.5 Z M28.125,6.25 C26.4,6.25 25,7.65 25,9.375 C25,11.1 26.4,12.5 28.125,12.5 C29.85,12.5 31.25,11.1 31.25,9.375 C31.25,7.65 29.85,6.25 28.125,6.25 L28.125,6.25 Z" id="Shape" fill="#FFFFFF" fill-rule="nonzero"></path>
                    <path d="M19.375,7.5 C20.4125,7.5 21.25,8.3375 21.25,9.375 C21.25,10.4125 20.4125,11.25 19.375,11.25 C18.3375,11.25 17.5,10.4125 17.5,9.375 C17.5,8.3375 18.3375,7.5 19.375,7.5 L19.375,7.5 Z M19.375,6.25 C17.65,6.25 16.25,7.65 16.25,9.375 C16.25,11.1 17.65,12.5 19.375,12.5 C21.1,12.5 22.5,11.1 22.5,9.375 C22.5,7.65 21.1,6.25 19.375,6.25 L19.375,6.25 Z" id="Shape" fill="#FFFFFF" fill-rule="nonzero"></path>
                    <path d="M10.625,7.5 C11.6625,7.5 12.5,8.3375 12.5,9.375 C12.5,10.4125 11.6625,11.25 10.625,11.25 C9.5875,11.25 8.75,10.4125 8.75,9.375 C8.75,8.3375 9.5875,7.5 10.625,7.5 L10.625,7.5 Z M10.625,6.25 C8.9,6.25 7.5,7.65 7.5,9.375 C7.5,11.1 8.9,12.5 10.625,12.5 C12.35,12.5 13.75,11.1 13.75,9.375 C13.75,7.65 12.35,6.25 10.625,6.25 L10.625,6.25 Z" id="Shape" fill="#FFFFFF" fill-rule="nonzero"></path>
                    <path d="M31.25,15 C31.9375,15 32.5,15.5625 32.5,16.25 L32.5,18.75 L33.75,18.75 L33.75,16.25 C33.75,14.875 32.625,13.75 31.25,13.75 L25.25,13.75 C25.575,14.1125 25.8375,14.5375 26.0125,15 L31.25,15 Z" id="Path" fill="#FFFFFF" fill-rule="nonzero"></path>
                    <path d="M6.25,18.75 L6.25,16.25 C6.25,15.5625 6.8125,15 7.5,15 L13.75,15 C14.4375,15 15,15.5625 15,16.25 L15,18.75 L16.25,18.75 L16.25,16.25 C16.25,14.875 15.125,13.75 13.75,13.75 L7.5,13.75 C6.125,13.75 5,14.875 5,16.25 L5,18.75 L6.25,18.75 Z" id="Path" fill="#FFFFFF" fill-rule="nonzero"></path>
                    <path d="M23.75,16.25 L23.75,18.75 L23.8125,18.75 C24.1875,18.5125 24.5875,18.3 25,18.125 L25,16.25 C25,14.875 23.875,13.75 22.5,13.75 L16.5,13.75 C16.825,14.1125 17.0875,14.5375 17.2625,15 L22.5,15 C23.1875,15 23.75,15.5625 23.75,16.25 Z" id="Path" fill="#FFFFFF" fill-rule="nonzero"></path>
                    <path d="M28.125,20 C31.225,20 33.75,22.525 33.75,25.625 C33.75,28.725 31.225,31.25 28.125,31.25 C25.025,31.25 22.5,28.725 22.5,25.625 C22.5,22.525 25.025,20 28.125,20 L28.125,20 Z M28.125,18.75 C24.325,18.75 21.25,21.825 21.25,25.625 C21.25,29.425 24.325,32.5 28.125,32.5 C31.925,32.5 35,29.425 35,25.625 C35,21.825 31.925,18.75 28.125,18.75 L28.125,18.75 Z" id="Shape" fill="#FFFFFF" fill-rule="nonzero"></path>
                    <polygon id="Path" fill="#FFFFFF" fill-rule="nonzero" points="25 25 25 26.25 27.5 26.25 27.5 28.75 28.75 28.75 28.75 26.25 31.25 26.25 31.25 25 28.75 25 28.75 22.5 27.5 22.5 27.5 25"></polygon>
                    <rect id="Rectangle" x="0" y="0" width="40" height="40"></rect>
                </g>
            </g>
        </g>
    </g>
</svg>