<?xml version="1.0" encoding="UTF-8"?>
<svg width="32px" height="32px" viewBox="0 0 32 32" version="1.1" xmlns="http://www.w3.org/2000/svg" xmlns:xlink="http://www.w3.org/1999/xlink">
    <!-- Generator: Sketch 58 (84663) - https://sketch.com -->
    <title>260-B32px</title>
    <desc>Created with Sketch.</desc>
    <g id="260-B32px" stroke="none" stroke-width="1" fill="none" fill-rule="evenodd">
        <g>
            <path d="M10.99,10 L10.99,14 L10.49,14 C10.21,14 9.99,13.82 9.99,13.67 L9.99,10.34 C9.99,10.18 10.2,10 10.49,10 L10.99,10 L10.99,10 Z M11.99,9 L10.5,9 C9.67,9 9,9.59 9,10.33 L9,13.66 C9,14.4 9.67,15 10.5,15 L12,15 L12,9 L11.99,9 Z" id="Shape" fill="#101828" fill-rule="nonzero"></path>
            <path d="M23.5,9.9 L22.5,9.9 L22.5,9.4 C22.5,8.75 22.22,8.05 21.66,7.31 C20.55,5.84 18.85,5 17,5 C15.15,5 13.45,5.84 12.34,7.31 C11.79,8.04 11.5,8.74 11.5,9.39 L11.5,9.89 L10.5,9.89 L10.5,9.39 C10.5,8.52 10.85,7.61 11.54,6.7 C12.84,4.98 14.83,4 17,4 C19.17,4 21.16,4.99 22.46,6.71 C23.15,7.62 23.5,8.53 23.5,9.4 L23.5,9.9 Z" id="Path" fill="#101828" fill-rule="nonzero"></path>
            <path d="M23.5,10 C23.79,10 24,10.18 24,10.33 L24,13.66 C24,13.82 23.78,14 23.49,14 L23,14 L23,10 L23.5,10 L23.5,10 Z M23.5,9 L22,9 L22,15 L23.49,15 C24.32,15 25,14.4 25,13.66 L25,10.33 C25,9.59 24.33,9 23.5,9 L23.5,9 Z" id="Shape" fill="#101828" fill-rule="nonzero"></path>
            <path d="M19.22,22 L17.98,22 L17.98,21 L19.22,21 C21.38,21 22.5,17.98 22.5,15 L23.5,15 C23.5,18.37 22.16,22 19.22,22 Z" id="Path" fill="#101828" fill-rule="nonzero"></path>
            <path d="M23,21.18 C24.16,21.59 25,22.69 25,24 L25,28 L26,28 L26,24 C26,22.14 24.72,20.59 23,20.14 L23,21.18 Z" id="Path" fill="#101828" fill-rule="nonzero"></path>
            <path d="M9.5,18 C11.98,18 14,20.02 14,22.5 C14,24.98 11.98,27 9.5,27 C7.02,27 5,24.98 5,22.5 C5,20.02 7.02,18 9.5,18 L9.5,18 Z M9.5,17 C6.46,17 4,19.46 4,22.5 C4,25.54 6.46,28 9.5,28 C12.54,28 15,25.54 15,22.5 C15,19.46 12.54,17 9.5,17 L9.5,17 Z" id="Shape" fill="#101828" fill-rule="nonzero"></path>
            <path d="M17,7 C19.76,7 22,9.24 22,12 C22,14.76 19.76,17 17,17 C14.24,17 12,14.76 12,12 C12,9.24 14.24,7 17,7 L17,7 Z M17,6 C13.69,6 11,8.69 11,12 C11,15.31 13.69,18 17,18 C20.31,18 23,15.31 23,12 C23,8.68 20.31,6 17,6 L17,6 Z" id="Shape" fill="#101828" fill-rule="nonzero"></path>
            <path d="M18.87,20 C18.92,20.08 18.99,20.26 18.99,20.5 C18.99,20.74 18.92,20.91 18.87,21 L17.12,20.99 C17.07,20.91 17,20.74 17,20.49 C17,20.25 17.07,20.08 17.12,19.99 L18.87,19.99 L18.87,20 Z M18.99,19 L17,19 C16.45,19 16,19.67 16,20.5 C16,21.32 16.45,21.99 17,22 L18.99,22 C18.99,22 18.99,22 18.99,22 C19.54,22 19.99,21.33 19.99,20.5 L19.99,20.49 C19.99,19.66 19.54,19 18.99,19 L18.99,19 Z" id="Shape" fill="#101828" fill-rule="nonzero"></path>
            <path d="M9.07,20.76 L7.85,19.5 C7.72,19.37 7.51,19.37 7.38,19.5 L6.57,20.28 C6.49,20.36 6.46,20.46 6.47,20.57 C6.66,22.18 8.18,23.75 8.18,23.75 C8.18,23.75 9.69,25.31 11.31,25.57 C11.41,25.59 11.52,25.55 11.6,25.48 L12.41,24.7 C12.54,24.57 12.55,24.36 12.42,24.23 L11.2,22.97 C11.07,22.84 10.86,22.84 10.73,22.97 L10.19,23.49 C10.19,23.49 9.53,23.2 9.16,22.81 C8.79,22.42 8.52,21.75 8.52,21.75 L9.06,21.23 C9.2,21.11 9.2,20.9 9.07,20.76 Z" id="Path" fill="#101828" fill-rule="nonzero"></path>
            <rect id="Rectangle" x="0" y="0" width="32" height="32"></rect>
        </g>
    </g>
</svg>