<?xml version="1.0" encoding="UTF-8"?>
<svg width="80px" height="80px" viewBox="0 0 80 80" version="1.1" xmlns="http://www.w3.org/2000/svg" xmlns:xlink="http://www.w3.org/1999/xlink">
    <!-- Generator: Sketch 57.1 (83088) - https://sketch.com -->
    <title>167-B80px</title>
    <desc>Created with Sketch.</desc>
    <g id="167-B80px" stroke="none" stroke-width="1" fill="none" fill-rule="evenodd">
        <g>
            <path d="M39.95,54.85 C29.175,54.85 21.1,56.5 17.5,57.4 L17.5,59.975 C20.6,59.175 28.85,57.35 39.95,57.35 C51.15,57.35 59.475,59.2 62.5,60 L62.5,57.425 C58.925,56.525 50.825,54.85 39.95,54.85 Z" id="Path" fill="#101828" fill-rule="nonzero"></path>
            <path d="M67.45,22.45 L60,22.45 L60,24.95 L67.45,24.95 L67.5,25 L67.45,52.5 L12.5,52.45 L12.55,24.95 L20,24.95 L20,22.45 L12.55,22.45 C11.15,22.45 10,23.6 10,25 L10,52.45 C10,53.85 11.15,55 12.55,55 L67.45,55 C68.85,55 70,53.85 70,52.45 L70,25 C70,23.6 68.85,22.45 67.45,22.45 Z" id="Path" fill="#101828" fill-rule="nonzero"></path>
            <path d="M44.975,44.975 L44.975,44.975 L45,47.475 L35,47.475 L35,44.975 L44.975,44.975 L44.975,44.975 Z M44.975,42.475 L35.025,42.475 C33.625,42.475 32.5,43.6 32.5,45 L32.5,49.975 L47.5,49.975 L47.5,45 C47.5,43.6 46.375,42.475 44.975,42.475 L44.975,42.475 Z" id="Shape" fill="#101828" fill-rule="nonzero"></path>
            <rect id="Rectangle" fill="#101828" fill-rule="nonzero" x="38.75" y="37.475" width="2.5" height="5"></rect>
            <g id="Group" transform="translate(25.000000, 20.000000)" fill="#101828" fill-rule="nonzero">
                <path d="M29.825,2.5 L24.975,2.5 C24.925,3.25 24.825,4.1 24.65,5 L27.5,5 L27.5,10 C27.5,11.375 26.4,12.475 25.025,12.475 L22.3,12.475 C21.925,13.35 21.5,14.175 21.05,14.975 L25.05,14.975 C27.8,14.975 30.025,12.75 30.025,10 L30.025,2.675 C30,2.575 29.925,2.5 29.825,2.5 Z" id="Path"></path>
                <path d="M8.025,12.475 L5,12.475 C3.625,12.475 2.5,11.35 2.5,9.975 L2.5,4.975 L5.675,4.975 C5.5,4.075 5.4,3.225 5.35,2.475 L0.175,2.475 C0.075,2.5 0,2.575 0,2.675 L0,10 C0,12.75 2.25,15 5,15 L9.275,15 C8.825,14.2 8.425,13.35 8.025,12.475 Z" id="Path"></path>
            </g>
            <path d="M47.15,20 C47.35,20 47.5,20.15 47.5,20.3 L47.5,24.525 C47.5,29.45 43.3,37.475 40,37.475 C36.7,37.475 32.5,29.45 32.5,24.525 L32.5,20.3 C32.5,20.15 32.675,20 32.85,20 L47.15,20 L47.15,20 Z M47.15,17.5 L32.85,17.5 C31.275,17.5 30,18.75 30,20.3 L30,24.525 C30,29.95 34.475,39.975 40,39.975 C45.525,39.975 50,29.95 50,24.525 L50,20.3 C50,18.75 48.725,17.5 47.15,17.5 L47.15,17.5 Z" id="Shape" fill="#101828" fill-rule="nonzero"></path>
            <rect id="Rectangle" fill="#101828" fill-rule="nonzero" x="30" y="47.5" width="20" height="2.475"></rect>
            <rect id="Rectangle" x="0" y="0" width="80" height="80"></rect>
        </g>
    </g>
</svg>