<?xml version="1.0" encoding="UTF-8"?>
<svg width="56px" height="56px" viewBox="0 0 56 56" version="1.1" xmlns="http://www.w3.org/2000/svg" xmlns:xlink="http://www.w3.org/1999/xlink">
    <!-- Generator: Sketch 56.3 (81716) - https://sketch.com -->
    <title>029-W56px</title>
    <desc>Created with Sketch.</desc>
    <g id="NEW_icons" stroke="none" stroke-width="1" fill="none" fill-rule="evenodd">
        <g id="icons_UD_new-Copy" transform="translate(-1814.000000, -3866.000000)">
            <g id="029-W56px" transform="translate(1814.000000, 3866.000000)">
                <g id="003-B32px-Copy-57" transform="translate(8.000000, 8.000000)">
                    <g id="Group" transform="translate(10.000000, 5.000000)" fill="#FFFFFF" fill-rule="nonzero">
                        <path d="M18.6875,0 L1.3125,0 C0.5875,0 0,0.5875 0,1.3125 L0,23.75 L0,25 L0,28.6875 C0,29.4125 0.5875,30 1.3125,30 L18.6875,30 C19.4125,30 20,29.4125 20,28.6875 L20,25 L20,23.75 L20,1.3125 C20,0.5875 19.4125,0 18.6875,0 Z M18.75,28.6875 C18.75,28.725 18.725,28.75 18.6875,28.75 L1.3125,28.75 C1.275,28.75 1.25,28.725 1.25,28.6875 L1.25,25 L18.75,25 L18.75,28.6875 Z M1.25,23.75 L1.25,1.3125 C1.25,1.275 1.275,1.25 1.3125,1.25 L18.6875,1.25 C18.725,1.25 18.75,1.275 18.75,1.3125 L18.75,23.75 L1.25,23.75 Z" id="Shape"></path>
                        <path d="M10,27.4875 C10.3375,27.4875 10.625,27.2125 10.625,26.8625 C10.625,26.525 10.35,26.2375 10,26.2375 C9.65,26.2375 9.375,26.5125 9.375,26.8625 C9.375,27.2125 9.6625,27.4875 10,27.4875 Z" id="Path"></path>
                        <path d="M12.5125,20 L7.5,20.0125 L7.5,16.25 L6.25,16.25 L6.25,20.0125 C6.25,20.6875 6.8,21.25 7.4875,21.25 L12.525,21.25 C13.2,21.25 13.7625,20.7 13.7625,20.0125 L13.7625,16.25 L12.5125,16.25 L12.5125,20 Z" id="Path"></path>
                        <polygon id="Path" points="4.775 15.575 5.5625 16.5375 10 12.875 14.4375 16.5375 15.225 15.575 10 11.2625"></polygon>
                        <path d="M12.6,7.3125 C11.925,6.65 11.0125,6.25 10,6.25 C8.9625,6.25 8.025,6.675 7.35,7.35 L8.2375,8.2375 C8.6875,7.775 9.3125,7.5 10,7.5 C10.6625,7.5 11.275,7.7625 11.7125,8.1875 L12.6,7.3125 Z" id="Path"></path>
                        <path d="M9.1125,9.1125 L9.95,9.95 L10.825,9.075 C10.6125,8.875 10.325,8.75 10,8.75 C9.65,8.75 9.3375,8.8875 9.1125,9.1125 Z" id="Path"></path>
                        <path d="M10,5 C11.35,5 12.5875,5.55 13.4875,6.425 L14.375,5.5375 C13.2375,4.4375 11.7,3.75 10,3.75 C8.275,3.75 6.7125,4.45 5.575,5.575 L6.4625,6.4625 C7.375,5.5625 8.625,5 10,5 Z" id="Path"></path>
                    </g>
                    <rect id="Rectangle" x="0" y="0" width="40" height="40"></rect>
                </g>
                <circle id="Oval-Copy-257" fill="#101828" cx="28" cy="28" r="28"></circle>
                <g id="029-B32px-Copy-4" transform="translate(8.000000, 8.000000)">
                    <path d="M20,12.5 C20.6875,12.5 21.25,13.0625 21.25,13.75 C21.25,14.4375 20.6875,15 20,15 C19.3125,15 18.75,14.4375 18.75,13.75 C18.75,13.0625 19.3125,12.5 20,12.5 L20,12.5 Z M20,11.25 C18.625,11.25 17.5,12.375 17.5,13.75 C17.5,15.125 18.625,16.25 20,16.25 C21.375,16.25 22.5,15.125 22.5,13.75 C22.5,12.375 21.375,11.25 20,11.25 L20,11.25 Z" id="Shape" fill="#FFFFFF" fill-rule="nonzero"></path>
                    <path d="M26.25,20.0625 L26.25,13.75 C26.25,8.2 20.0375,5 20.0375,5 C20.0375,5 13.75,8.1 13.75,13.75 C13.75,15.3375 13.75,17.6125 13.75,20.05 C10.9375,20.325 8.75,22.425 8.75,25 L8.75,32.5 L13.75,30.8375 L13.75,30.8375 L15,30.425 L15,29.1125 L15,21.25 L15,20 L15,17.5 L15,13.75 C15,9.875 18.6125,7.3 20.025,6.4375 C21.4375,7.325 25,9.9375 25,13.75 L25,17.5 L25,20 L25,21.25 L25,29.1 L25,30.4125 L31.25,32.5 L31.25,25 C31.25,22.4375 29.0625,20.3375 26.25,20.0625 Z M13.75,29.525 L10,30.775 L10,25 C10,23.1125 11.6375,21.5625 13.75,21.3 C13.75,24.1875 13.75,27.1875 13.75,29.525 Z M30,30.775 L26.25,29.525 L26.25,21.3125 C28.3625,21.575 30,23.125 30,25.0125 L30,30.775 Z" id="Shape" fill="#FFFFFF" fill-rule="nonzero"></path>
                    <rect id="Rectangle" fill="#FFFFFF" fill-rule="nonzero" x="19.375" y="23.7875" width="1.25" height="11.2125"></rect>
                    <rect id="Rectangle" x="0" y="0" width="40" height="40"></rect>
                </g>
            </g>
        </g>
    </g>
</svg>