<?xml version="1.0" encoding="UTF-8"?>
<svg width="80px" height="80px" viewBox="0 0 80 80" version="1.1" xmlns="http://www.w3.org/2000/svg" xmlns:xlink="http://www.w3.org/1999/xlink">
    <!-- Generator: Sketch 56.3 (81716) - https://sketch.com -->
    <title>035-G80px</title>
    <desc>Created with Sketch.</desc>
    <g id="NEW_icons" stroke="none" stroke-width="1" fill="none" fill-rule="evenodd">
        <g id="icons_UD_new-Copy" transform="translate(-2051.000000, -4595.000000)">
            <g id="035-G80px" transform="translate(2051.000000, 4595.000000)">
                <circle id="Oval-Copy-283" fill="#E3E8EC" cx="40" cy="40" r="40"></circle>
                <g id="035-B32px-Copy-7" transform="translate(12.000000, 12.000000)">
                    <g id="Group" transform="translate(7.000000, 8.750000)" fill="#101828" fill-rule="nonzero">
                        <polygon id="Path" points="10.325 20.9825 12.7575 21.035 11.585 15.96"></polygon>
                        <g>
                            <polygon id="Path" points="10.325 20.9825 12.7575 21.035 11.585 15.96"></polygon>
                            <path d="M22.75,0 L0,3.5 L0,35 L22.75,38.5 L22.75,0 Z M14.2275,26.53 L13.3,23.485 L9.835,23.3625 L9.205,26.3025 L6.825,26.145 L10.3425,12.9325 L13.0375,12.81 L16.765,26.6875 L14.2275,26.53 Z" id="Shape"></path>
                        </g>
                    </g>
                    <path d="M35,14 C32.445,14 30.065,14.175 28,14.4725 L28,16.24 C29.89,15.96 32.2175,15.75 35,15.75 C41.195,15.75 45.2725,16.7475 46.7775,17.5 C45.2725,18.2525 41.195,19.25 35,19.25 C32.2175,19.25 29.89,19.04 28,18.76 L28,20.5275 C30.065,20.825 32.445,21 35,21 C40.2675,21 44.87,20.265 47.25,19.1975 L47.25,23.9225 L47.25,23.9225 C47.25,24.71 43.05,26.5475 34.93,26.5475 C32.1475,26.5475 29.855,26.32 28,26.005 L28,27.79 C30.1525,28.14 32.5675,28.2975 34.93,28.2975 C39.69,28.2975 44.695,27.615 47.25,26.18 L47.25,31.22 L47.25,31.22 C47.25,32.0075 43.05,33.845 34.93,33.845 C32.1475,33.845 29.855,33.6175 28,33.3025 L28,35.0875 C30.1525,35.4375 32.5675,35.595 34.93,35.595 C39.69,35.595 44.695,34.9125 47.25,33.4775 L47.25,38.5 L47.25,38.5 C47.25,39.2875 43.05,41.125 34.93,41.125 C32.1475,41.125 29.855,40.8975 28,40.5825 L28,42.3675 C30.1525,42.7175 32.5675,42.875 34.93,42.875 C41.7025,42.875 49,41.51 49,38.4825 L49,38.4825 L49,17.5 C49,15.575 42.735,14 35,14 Z" id="Path" fill="#101828" fill-rule="nonzero"></path>
                    <rect id="Rectangle" x="0" y="0" width="56" height="56"></rect>
                </g>
            </g>
        </g>
    </g>
</svg>