<?xml version="1.0" encoding="UTF-8"?>
<svg width="56px" height="56px" viewBox="0 0 56 56" version="1.1" xmlns="http://www.w3.org/2000/svg" xmlns:xlink="http://www.w3.org/1999/xlink">
    <!-- Generator: Sketch 54.1 (76490) - https://sketchapp.com -->
    <title>148-W56px</title>
    <desc>Created with Sketch.</desc>
    <g id="NEW_icons" stroke="none" stroke-width="1" fill="none" fill-rule="evenodd">
        <g id="icons_UD_new-Copy" transform="translate(-530.000000, -18935.000000)">
            <g id="148-W56px" transform="translate(530.000000, 18935.000000)">
                <circle id="Oval-Copy-14" fill="#101828" cx="28" cy="28" r="28"></circle>
                <g id="148-B32px-Copy-5" transform="translate(8.000000, 8.000000)">
                    <path d="M20.625,29.375 C20.25,29.375 20,29.625 20,30 C20,30.375 20.25,30.625 20.625,30.625 C21,30.625 21.25,30.375 21.25,30 C21.25,29.625 21,29.375 20.625,29.375 L20.625,29.375 Z" id="Path" fill="#FFFFFF" fill-rule="nonzero"></path>
                    <path d="M33.625,17.5 C33.75,17.5 33.75,17.5 33.625,17.5 L33.75,31.125 C33.75,31.125 33.75,31.25 33.625,31.25 L26.25,31.25 C26.25,31.25 26.125,31.25 26.125,31.125 L26.125,17.625 C26.125,17.625 26.125,17.5 26.25,17.5 L33.625,17.5 L33.625,17.5 Z M33.625,16.25 L26.25,16.25 C25.5,16.25 24.875,16.875 24.875,17.625 L24.875,31.25 C24.875,32 25.5,32.625 26.25,32.625 L33.625,32.625 C34.375,32.625 35,32 35,31.25 L35,17.625 C35,16.875 34.375,16.25 33.625,16.25 L33.625,16.25 Z" id="Shape" fill="#FFFFFF" fill-rule="nonzero"></path>
                    <rect id="Rectangle" fill="#FFFFFF" fill-rule="nonzero" x="25" y="27.5" width="10" height="1.25"></rect>
                    <circle id="Oval" fill="#FFFFFF" fill-rule="nonzero" cx="30" cy="30" r="1"></circle>
                    <path d="M12.5,25.5 C10.875,25.75 9.625,26 8.75,26.25 L8.75,27.5 C9.5,27.375 10.75,27 12.5,26.75 L12.5,25.5 Z" id="Path" fill="#FFFFFF" fill-rule="nonzero"></path>
                    <path d="M33.75,8.75 L6.25,8.75 C5.625,8.75 5,9.375 5,10 L5,23.75 C5,24.5 5.625,25 6.25,25 L12.5,25 L12.5,23.75 L6.25,23.75 L6.25,10 L33.75,10 L33.75,10 L33.75,15 L34.625,15 C34.75,15 34.875,15 35,15.125 L35,10 C35,9.375 34.375,8.75 33.75,8.75 Z" id="Path" fill="#FFFFFF" fill-rule="nonzero"></path>
                    <path d="M23.75,31.25 L15.125,31.25 C15.125,31.25 15,31.25 15,31.125 L15,28.75 L23.75,28.75 L23.75,27.5 L15,27.5 L15,13.875 C15,13.875 15,13.75 15.125,13.75 L26.25,13.75 C26.25,13.75 26.375,13.75 26.375,13.875 L26.375,15 L27.625,15 L27.625,13.875 C27.625,13.125 27,12.5 26.25,12.5 L15.125,12.5 C14.375,12.5 13.75,13.125 13.75,13.875 L13.75,31.25 C13.75,32 14.375,32.625 15.125,32.625 L23.875,32.625 C23.875,32.5 23.75,32.375 23.75,32.25 L23.75,31.25 Z" id="Path" fill="#FFFFFF" fill-rule="nonzero"></path>
                    <rect id="Rectangle" x="0" y="0" width="40" height="40"></rect>
                </g>
            </g>
        </g>
    </g>
</svg>