<?xml version="1.0" encoding="UTF-8"?>
<svg width="80px" height="80px" viewBox="0 0 80 80" version="1.1" xmlns="http://www.w3.org/2000/svg" xmlns:xlink="http://www.w3.org/1999/xlink">
    <!-- Generator: Sketch 57.1 (83088) - https://sketch.com -->
    <title>093-W80px</title>
    <desc>Created with Sketch.</desc>
    <g id="NEW_icons" stroke="none" stroke-width="1" fill="none" fill-rule="evenodd">
        <g id="icons_UD_new-Copy" transform="translate(-2151.000000, -12026.000000)">
            <g id="093-W80px" transform="translate(2151.000000, 12026.000000)">
                <circle id="Oval-Copy-623" fill="#101828" cx="40" cy="40" r="40"></circle>
                <g id="093-B32px-Copy-8" transform="translate(13.000000, 12.000000)">
                    <path d="M26.25,45.5 C26.7225,45.5 27.125,45.115 27.125,44.625 C27.125,44.135 26.7225,43.75 26.25,43.75 C25.7775,43.75 25.375,44.135 25.375,44.625 C25.375,45.115 25.7775,45.5 26.25,45.5" id="Path" fill="#FFFFFF" fill-rule="nonzero"></path>
                    <rect id="Rectangle" fill="#FFFFFF" fill-rule="nonzero" x="12.25" y="40.25" width="28" height="1.75"></rect>
                    <g id="Shape_8_" transform="translate(29.750000, 17.500000)" fill="#FFFFFF" fill-rule="nonzero">
                        <rect id="Rectangle" x="0.875" y="0" width="1.75" height="11.7425"></rect>
                    </g>
                    <rect id="Rectangle" fill="#FFFFFF" fill-rule="nonzero" x="29.75" y="28.3675" width="3.5" height="1.75"></rect>
                    <rect id="Rectangle" fill="#FFFFFF" fill-rule="nonzero" x="29.75" y="16.625" width="3.5" height="1.75"></rect>
                    <path d="M20.125,21 C20.615,21 21,21.385 21,21.875 C21,22.365 20.615,22.75 20.125,22.75 C19.635,22.75 19.25,22.365 19.25,21.875 C19.25,21.385 19.635,21 20.125,21 L20.125,21 Z M20.125,19.25 C18.6725,19.25 17.5,20.4225 17.5,21.875 C17.5,23.3275 18.6725,24.5 20.125,24.5 C21.5775,24.5 22.75,23.3275 22.75,21.875 C22.75,20.4225 21.5775,19.25 20.125,19.25 L20.125,19.25 Z" id="Shape" fill="#FFFFFF" fill-rule="nonzero"></path>
                    <path d="M20.125,24.5 C20.615,24.5 21,24.885 21,25.375 C21,25.865 20.615,26.25 20.125,26.25 C19.635,26.25 19.25,25.865 19.25,25.375 C19.25,24.885 19.635,24.5 20.125,24.5 L20.125,24.5 Z M20.125,22.75 C18.6725,22.75 17.5,23.9225 17.5,25.375 C17.5,26.8275 18.6725,28 20.125,28 C21.5775,28 22.75,26.8275 22.75,25.375 C22.75,23.9225 21.5775,22.75 20.125,22.75 L20.125,22.75 Z" id="Shape" fill="#FFFFFF" fill-rule="nonzero"></path>
                    <path d="M38.5,29.75 L38.5,47.1625 C38.5,47.215 38.465,47.25 38.4125,47.25 L14.0875,47.25 C14.035,47.25 14,47.215 14,47.1625 L14,8.8375 C14,8.785 14.035,8.75 14.0875,8.75 L38.4125,8.75 C38.465,8.75 38.5,8.785 38.5,8.8375 L38.5,17.5 L40.25,17.5 L40.25,8.8375 C40.25,7.8225 39.4275,7 38.4125,7 L14.0875,7 C13.0725,7 12.25,7.8225 12.25,8.8375 L12.25,47.1625 C12.25,48.1775 13.0725,49 14.0875,49 L38.4125,49 C39.4275,49 40.25,48.1775 40.25,47.1625 L40.25,29.75 L38.5,29.75 Z" id="Path" fill="#FFFFFF" fill-rule="nonzero"></path>
                    <polygon id="Path" fill="#FFFFFF" fill-rule="nonzero" points="33.915 28 35.8925 28 37.205 25.515 38.5 28 40.4775 28 38.185 23.6425 40.495 19.25 38.5175 19.25 37.205 21.7525 35.875 19.25 33.8975 19.25 36.2075 23.6425"></polygon>
                    <polygon id="Path" fill="#FFFFFF" fill-rule="nonzero" points="41.2825 28 43.26 28 44.5725 25.515 45.885 28 47.8625 28 45.5525 23.6425 47.88 19.25 45.9025 19.25 44.5725 21.7525 43.2425 19.25 41.265 19.25 43.575 23.6425"></polygon>
                    <path d="M29.225,21.945 C29.225,21.91 29.2425,21.875 29.2425,21.84 C29.2425,20.405 28.07,19.25 26.6175,19.25 C25.165,19.25 23.9925,20.405 23.9925,21.84 C23.9925,23.275 25.165,24.43 26.6175,24.43 C26.9325,24.43 27.23,24.36 27.51,24.2725 L27.51,25.2525 C27.51,25.4275 27.4575,26.285 26.6,26.285 C26.215,26.285 26.075,26.145 26.0225,26.11 C25.8125,25.9 25.76,25.48 25.76,25.3575 L24.885,25.34 L24.01,25.3225 C24.01,25.445 24.01,26.53 24.7625,27.3 C25.0775,27.615 25.655,28 26.5825,28 C28.5075,28 29.225,26.3725 29.2425,25.2525 L29.2425,21.9275 L29.225,21.9275 L29.225,21.945 Z M26.6,22.6975 C26.11,22.6975 25.725,22.3125 25.725,21.84 C25.725,21.3675 26.11,20.9825 26.6,20.9825 C27.09,20.9825 27.475,21.3675 27.475,21.84 C27.475,22.3125 27.09,22.6975 26.6,22.6975 Z" id="Shape" fill="#FFFFFF" fill-rule="nonzero"></path>
                    <rect id="Rectangle" x="0" y="0" width="56" height="56"></rect>
                </g>
            </g>
        </g>
    </g>
</svg>