<?xml version="1.0" encoding="UTF-8"?>
<svg width="80px" height="80px" viewBox="0 0 80 80" version="1.1" xmlns="http://www.w3.org/2000/svg" xmlns:xlink="http://www.w3.org/1999/xlink">
    <!-- Generator: Sketch 57.1 (83088) - https://sketch.com -->
    <title>011-B80px</title>
    <desc>Created with Sketch.</desc>
    <g id="011-B80px" stroke="none" stroke-width="1" fill="none" fill-rule="evenodd">
        <g>
            <path d="M12.5,42.55 C12.5,42.525 12.5,42.475 12.5,42.45 C12.5,42.4 12.5,42.35 12.5,42.3 L12.5,42.55 Z" id="Path" fill="#101828" fill-rule="nonzero"></path>
            <path d="M30.575,58.1 C22.05,58.05 15.075,51.05 15,42.475 C15.075,35.3 25.025,21.175 30.65,13.975 C33.75,17.9 38.125,23.9 41.475,29.625 C42.025,28.85 42.55,28.1 43.075,27.4 C37.725,18.525 30.65,10 30.65,10 C30.65,10 12.625,31.7 12.5,42.45 C12.575,52.475 20.675,60.6 30.65,60.6 C30.9,60.6 31.125,60.575 31.35,60.575 C31.05,59.775 30.8,58.95 30.575,58.1 Z" id="Path" fill="#101828" fill-rule="nonzero"></path>
            <path d="M48.75,28.975 C53.825,35.425 62.5,47.65 62.5,53.55 L62.5,53.725 C62.5,61.325 56.325,67.5 48.75,67.5 C41.225,67.5 35.05,61.375 35,53.9 C35.075,47.675 43.7,35.425 48.75,28.975 L48.75,28.975 Z M48.75,25 C48.75,25 32.625,44.3 32.5,53.85 C32.575,62.775 39.825,69.975 48.75,69.975 C57.725,69.975 65,62.7 65,53.7 L65,53.525 C65,44.425 48.75,25 48.75,25 L48.75,25 Z" id="Shape" fill="#101828" fill-rule="nonzero"></path>
            <rect id="Rectangle" x="0" y="0" width="80" height="80"></rect>
        </g>
    </g>
</svg>