<?xml version="1.0" encoding="UTF-8"?>
<svg width="56px" height="56px" viewBox="0 0 56 56" version="1.1" xmlns="http://www.w3.org/2000/svg" xmlns:xlink="http://www.w3.org/1999/xlink">
    <!-- Generator: Sketch 57.1 (83088) - https://sketch.com -->
    <title>174-W56px</title>
    <desc>Created with Sketch.</desc>
    <g id="NEW_icons" stroke="none" stroke-width="1" fill="none" fill-rule="evenodd">
        <g id="icons_UD_new-Copy" transform="translate(-532.000000, -22344.000000)">
            <g id="174-W56px" transform="translate(532.000000, 22344.000000)">
                <circle id="Oval-Copy-983" fill="#101828" cx="28" cy="28" r="28"></circle>
                <g id="174-B32px-Copy-4" transform="translate(8.000000, 8.000000)">
                    <path d="M12.525,24.3625 C12.2375,24.3625 12,24.3625 11.725,24.3625 C11.725,24.0625 11.725,23.775 11.725,23.4875 C11.725,23.4625 11.7625,23.425 11.7875,23.425 C12.0125,23.425 12.225,23.425 12.45,23.425 C12.475,23.425 12.5125,23.4625 12.5125,23.4875 C12.525,23.7625 12.525,24.0625 12.525,24.3625 Z" id="Path" fill="#FFFFFF" fill-rule="nonzero"></path>
                    <path d="M24.9125,25.3125 C24.6625,25.3125 24.425,25.3125 24.2,25.3125 C24.175,25.3125 24.125,25.2625 24.125,25.2375 C24.125,24.975 24.125,24.7 24.125,24.4375 C24.125,24.4125 24.175,24.3625 24.2,24.3625 C24.4125,24.35 24.625,24.3625 24.8375,24.3625 C24.8625,24.3625 24.9125,24.4125 24.9125,24.4375 C24.9125,24.7125 24.9125,25.0125 24.9125,25.3125 Z" id="Path" fill="#FFFFFF" fill-rule="nonzero"></path>
                    <path d="M32.2125,24.375 C31.9625,24.375 31.725,24.375 31.5,24.375 C31.475,24.375 31.425,24.3125 31.425,24.2875 C31.4125,24.025 31.4125,23.775 31.425,23.5125 C31.425,23.475 31.4875,23.425 31.525,23.425 C31.725,23.4125 31.925,23.4125 32.125,23.425 C32.1625,23.425 32.225,23.475 32.225,23.5 C32.2125,23.775 32.2125,24.0625 32.2125,24.375 Z" id="Path" fill="#FFFFFF" fill-rule="nonzero"></path>
                    <g id="Group" transform="translate(6.250000, 11.250000)" fill="#FFFFFF" fill-rule="nonzero">
                        <path d="M14.7375,2.8 C14.7,2.8 14.675,2.8 14.65,2.8 C14.2875,2.8 13.9375,2.8 13.575,2.8 C13.5,2.8 13.4875,2.825 13.4875,2.8875 C13.4875,4.5625 13.4875,6.25 13.4875,7.925 C13.4875,7.9625 13.4875,8 13.4875,8.0375 C12.7375,8.0375 11.9875,8.0375 11.2375,8.0375 C11.2375,8 11.2375,7.975 11.2375,7.9375 C11.2375,7.475 11.2375,7.0125 11.25,6.55 C11.25,6.475 11.225,6.4625 11.1625,6.4625 C10.3875,6.4625 9.6125,6.4625 8.825,6.4625 C8.7625,6.4625 8.7375,6.4875 8.7,6.5375 C8.4,7.0125 8.1125,7.4875 7.8125,7.9625 C7.775,8.0125 7.7375,8.0375 7.675,8.0375 C6.975,8.0375 6.275,8.0375 5.575,8.0375 C5.55,8.0375 5.5125,8.0375 5.4875,8.0375 C5.4875,6.7375 5.4875,5.4375 5.4875,4.1375 C5.475,4.1375 5.475,4.125 5.4625,4.125 C4.9375,4.8 4.4125,5.475 3.875,6.1625 C3.35,5.475 2.825,4.8 2.3,4.125 C2.2875,4.125 2.2875,4.125 2.275,4.1375 C2.275,4.175 2.275,4.2 2.275,4.2375 C2.275,5.4625 2.275,6.7 2.275,7.925 C2.275,8.0375 2.275,8.0375 2.175,8.0375 C1.4875,8.0375 0.8,8.0375 0.1125,8.0375 C0.075,8.0375 0.05,8.0375 0.0125,8.0375 C0.0125,5.5875 0.0125,3.1375 0.0125,0.6875 C0.0375,0.6875 0.0625,0.6875 0.0875,0.6875 C0.8,0.6875 1.5125,0.6875 2.225,0.6875 C2.275,0.6875 2.3125,0.7 2.3375,0.75 C2.825,1.4 3.325,2.0375 3.8125,2.6875 C3.8375,2.7125 3.85,2.7375 3.875,2.775 C3.9,2.75 3.9125,2.725 3.9375,2.7125 C4.4375,2.0625 4.925,1.4125 5.425,0.7625 C5.45,0.7375 5.4875,0.7 5.525,0.7 C6.2625,0.7 6.9875,0.7 7.725,0.7 C7.7375,0.7 7.75,0.7 7.7625,0.7 C7.7625,1.825 7.7625,2.9625 7.7625,4.0875 C7.775,4.0875 7.775,4.0875 7.7875,4.0875 C7.8,4.0625 7.825,4.0375 7.8375,4 C8.5125,2.925 9.1875,1.8375 9.85,0.7625 C9.8875,0.7125 9.925,0.6875 9.9875,0.6875 C13.4625,0.6875 16.95,0.6875 20.425,0.6875 C20.525,0.6875 20.525,0.6875 20.525,0.8 C20.525,1.9625 20.525,3.1375 20.525,4.3 C20.525,4.4 20.525,4.4 20.625,4.4 C20.975,4.4 21.325,4.4 21.6875,4.4 C21.7875,4.4 21.7875,4.4 21.7875,4.2875 C21.7875,3.125 21.7875,1.95 21.7875,0.7875 C21.7875,0.75 21.7875,0.725 21.7875,0.6875 C22.5375,0.6875 23.2875,0.6875 24.0375,0.6875 C24.0375,3.1375 24.0375,5.5875 24.0375,8.0375 C23.2875,8.0375 22.55,8.0375 21.7875,8.0375 C21.7875,8.0125 21.7875,7.975 21.7875,7.95 C21.7875,7.5 21.7875,7.0375 21.7875,6.5875 C21.7875,6.4875 21.7875,6.4875 21.675,6.4875 C20.575,6.4875 19.475,6.4875 18.375,6.4875 C18.3375,6.4875 18.3,6.4875 18.2625,6.4875 C18.2625,5.2625 18.2625,4.0375 18.2625,2.8125 C18.225,2.8125 18.2,2.8125 18.1625,2.8125 C17.8125,2.8125 17.4625,2.8125 17.125,2.8125 C17,2.8125 17,2.8125 17,2.925 C17,4.6 17,6.2625 17,7.9375 C17,7.975 17,8.0125 17,8.05 C16.2375,8.05 15.4875,8.05 14.725,8.05 C14.7375,6.3 14.7375,4.5625 14.7375,2.8 Z M10.0375,4.4 C10.0625,4.4 10.075,4.4125 10.0875,4.4125 C10.45,4.4125 10.8125,4.4125 11.1625,4.4125 C11.225,4.4125 11.225,4.375 11.225,4.3375 C11.225,3.7625 11.225,3.1875 11.225,2.6125 C11.225,2.5875 11.225,2.575 11.2125,2.525 C10.8125,3.15 10.4375,3.775 10.0375,4.4 Z" id="Shape"></path>
                        <path d="M25.0375,0.7125 C25.7875,0.7125 26.525,0.7125 27.275,0.7125 C27.275,0.7375 27.275,0.7625 27.275,0.8 C27.275,1.775 27.275,2.7375 27.275,3.7125 C27.275,3.7625 27.2625,3.7875 27.225,3.825 C26.5125,4.25 25.8,4.6875 25.0875,5.1125 C25.075,5.125 25.0625,5.125 25.0375,5.1375 C25.0375,3.6625 25.0375,2.1875 25.0375,0.7125 Z" id="Path"></path>
                        <path d="M26.15,5.4875 C26.925,5.475 27.5,6.0875 27.5,6.75 C27.5125,7.6 26.8625,8.1375 26.15,8.1375 C25.4125,8.1375 24.8,7.5125 24.8125,6.7625 C24.8125,6.05 25.4125,5.4875 26.15,5.4875 Z" id="Path"></path>
                    </g>
                    <path d="M35,20.6375 C25,20.6375 15.0125,20.6375 5.0125,20.6375 C5.0125,20.675 5,20.725 5,20.7625 C5,23.15 5,25.5375 5,27.9375 C5,27.9875 5,28.025 5.0125,28.0625 C15.0125,28.0625 25,28.0625 35,28.0625 C35,28 35,27.95 35,27.9 C35,27.4125 35,26.925 35,26.425 C35,24.5125 35,22.575 35,20.6375 Z M9.9625,26.6125 C9.9,26.6125 9.8625,26.625 9.8125,26.625 C9.4625,26.625 9.1,26.625 8.75,26.625 C8.6375,26.625 8.6,26.5875 8.6,26.475 C8.6,25.5125 8.6,24.5375 8.6,23.575 C8.6,23.45 8.575,23.4 8.4375,23.4125 C8.3,23.425 8.15,23.4125 8.0125,23.4125 C7.7875,23.4125 7.8125,23.3875 7.8125,23.6125 C7.8125,24.55 7.8125,25.5 7.8125,26.4375 C7.8125,26.4875 7.8125,26.55 7.8125,26.6125 C7.35,26.6125 6.9,26.6125 6.4375,26.6125 C6.4375,25.1125 6.4375,23.625 6.4375,22.125 C7.6125,22.125 8.7875,22.125 9.975,22.125 C9.9625,23.6125 9.9625,25.1125 9.9625,26.6125 Z M13.75,25.675 C13.15,25.675 12.5375,25.675 11.9375,25.675 C11.875,25.675 11.825,25.675 11.7375,25.675 C11.7375,25.95 11.7375,26.2 11.7375,26.4625 C11.7375,26.575 11.7,26.625 11.575,26.625 C11.2125,26.6125 10.85,26.625 10.5,26.625 C10.4125,26.625 10.3625,26.6125 10.3625,26.5125 C10.3625,25.075 10.3625,23.6375 10.3625,22.2 C10.3625,22.1875 10.3625,22.1625 10.375,22.1375 C11.55,22.1375 12.7125,22.1375 13.9125,22.1375 C13.9125,22.175 13.9125,22.225 13.9125,22.2625 C13.9125,23.35 13.9125,24.4375 13.9125,25.5375 C13.9125,25.65 13.8625,25.675 13.75,25.675 Z M17.1625,26.6125 C16.2375,26.6125 15.3,26.6125 14.375,26.6125 C14.2875,26.6125 14.2375,26.5875 14.2375,26.4875 C14.2375,25.05 14.2375,23.625 14.2375,22.1875 C14.2375,22.175 14.2375,22.15 14.25,22.125 C15.25,22.125 16.2625,22.125 17.275,22.125 C17.275,22.55 17.275,22.975 17.275,23.4 C16.725,23.4 16.175,23.4 15.625,23.4 C15.6125,23.4375 15.6,23.45 15.6,23.4625 C15.575,23.7 15.575,23.7 15.8125,23.7 C16.0875,23.7 16.3625,23.7 16.6625,23.7 C16.55,24.1375 16.4375,24.5375 16.325,24.95 C16.3125,24.975 16.2625,25.0125 16.225,25.0125 C16.075,25.025 15.925,25.0125 15.7875,25.0125 C15.5875,25.0125 15.575,25.0125 15.6,25.225 C15.6,25.25 15.6125,25.275 15.6125,25.3 C16.1625,25.3 16.7,25.3 17.2625,25.3 C17.2625,25.35 17.275,25.3875 17.275,25.425 C17.275,25.775 17.275,26.1125 17.275,26.4625 C17.3,26.575 17.275,26.6125 17.1625,26.6125 Z M22.175,26.6125 C21.8375,26.6125 21.5,26.6 21.1625,26.6125 C21.025,26.6125 20.975,26.575 20.975,26.4375 C20.9875,25.7375 20.975,25.0375 20.975,24.325 C20.975,24.275 20.975,24.2125 20.975,24.1625 C20.9625,24.1625 20.95,24.1625 20.925,24.15 C20.6125,24.6 20.3,25.05 19.975,25.525 C19.65,25.0625 19.3375,24.6 19.025,24.15 C19.0125,24.15 19,24.1625 18.9875,24.1625 C18.9875,24.2125 18.9875,24.2625 18.9875,24.325 C18.9875,25.0375 18.9875,25.75 18.9875,26.4625 C18.9875,26.6 18.95,26.6375 18.8125,26.625 C18.425,26.6125 18.0375,26.625 17.6375,26.625 C17.6375,25.125 17.6375,23.6375 17.6375,22.125 C17.65,22.125 17.675,22.1125 17.7,22.1125 C18.1125,22.1125 18.5125,22.1125 18.925,22.1125 C18.975,22.1125 19.0375,22.1625 19.075,22.2125 C19.35,22.6 19.6125,22.9875 19.875,23.375 C19.9,23.425 19.9375,23.4625 19.9875,23.525 C20.025,23.4625 20.0625,23.425 20.1,23.375 C20.3625,22.9875 20.6375,22.6 20.9,22.2125 C20.95,22.1375 21,22.1125 21.0875,22.1125 C21.5,22.1125 21.9125,22.1125 22.3375,22.1125 C22.3375,22.175 22.35,22.225 22.35,22.275 C22.35,23.6625 22.35,25.0625 22.35,26.45 C22.35,26.5875 22.3,26.6125 22.175,26.6125 Z M26.275,26.45 C26.275,26.575 26.2375,26.6125 26.1125,26.6125 C25.05,26.6125 23.9875,26.6125 22.925,26.6125 C22.7875,26.6125 22.75,26.575 22.75,26.4375 C22.75,25.7375 22.75,25.0375 22.75,24.35 C22.75,24.35 22.75,24.35 22.75,24.35 C22.75,23.6625 22.75,22.975 22.75,22.2875 C22.75,22.1625 22.7875,22.125 22.9125,22.125 C23.2625,22.1375 23.6125,22.1375 23.9625,22.125 C24.075,22.125 24.1125,22.1625 24.1125,22.275 C24.1,22.4875 24.1125,22.7125 24.1125,22.925 C24.1125,23.0375 24.15,23.075 24.2625,23.075 C24.8875,23.075 25.5,23.075 26.125,23.075 C26.25,23.075 26.2875,23.1125 26.2875,23.225 C26.275,24.2875 26.275,25.375 26.275,26.45 Z M28.1875,23.725 C28.475,23.7125 28.7625,23.725 29.0875,23.725 C28.975,24.15 28.875,24.55 28.775,24.9375 C28.7625,24.975 28.7,25 28.6625,25 C28.5125,25.0125 28.3625,25.0125 28.2,25 C28.0625,24.9875 28.0125,25.0375 28.0375,25.175 C28.0375,25.2125 28.0375,25.25 28.05,25.3125 C28.1125,25.3125 28.1625,25.3125 28.2125,25.3125 C28.6625,25.3125 29.1125,25.3125 29.575,25.3125 C29.675,25.3125 29.7125,25.3375 29.7125,25.45 C29.7125,25.7875 29.7125,26.1375 29.7125,26.475 C29.7125,26.575 29.675,26.6 29.5875,26.6 C28.6625,26.6 27.7375,26.6 26.8125,26.6 C26.725,26.6 26.6875,26.575 26.6875,26.475 C26.6875,25.0625 26.6875,23.65 26.6875,22.2375 C26.6875,22.15 26.7125,22.125 26.8,22.125 C27.7375,22.125 28.675,22.125 29.6125,22.125 C29.7125,22.125 29.725,22.175 29.725,22.2625 C29.725,22.6 29.725,22.9375 29.725,23.275 C29.725,23.3875 29.7,23.425 29.5875,23.4125 C29.125,23.4125 28.675,23.4125 28.2125,23.4125 C28.0875,23.4125 28.05,23.4375 28.05,23.5625 C28.025,23.6875 28.05,23.725 28.1875,23.725 Z M33.4625,25.675 C32.8625,25.675 32.25,25.675 31.65,25.675 C31.6,25.675 31.5375,25.675 31.475,25.675 C31.4625,25.675 31.45,25.675 31.45,25.6875 C31.45,25.9625 31.45,26.2125 31.45,26.4625 C31.45,26.575 31.4125,26.625 31.2875,26.625 C30.925,26.6125 30.5625,26.625 30.2125,26.625 C30.125,26.625 30.075,26.6125 30.075,26.5125 C30.075,26.5 30.075,26.5 30.075,26.4875 C30.075,26.4875 30.075,26.4875 30.075,26.475 C30.075,25.075 30.075,23.675 30.075,22.275 C30.075,22.2625 30.0875,22.2625 30.0875,22.25 C30.0875,22.2375 30.0875,22.2125 30.0875,22.2 C30.0875,22.1875 30.0875,22.1625 30.1,22.1375 C30.1375,22.1375 30.1875,22.1375 30.225,22.1375 C30.225,22.1375 30.225,22.1375 30.2375,22.1375 C30.775,22.1375 31.3125,22.1375 31.85,22.1375 C31.85,22.1375 31.85,22.1375 31.85,22.1375 C32.2,22.1375 32.55,22.1375 32.9125,22.1375 C33.0875,22.1375 33.2625,22.1375 33.4375,22.1375 C33.4375,22.1375 33.4375,22.1375 33.4375,22.1375 C33.5,22.1375 33.5625,22.1375 33.625,22.1375 C33.625,22.175 33.625,22.225 33.625,22.2625 C33.625,23.35 33.625,24.4375 33.625,25.5375 C33.625,25.65 33.575,25.675 33.4625,25.675 Z" id="Shape" fill="#FFFFFF" fill-rule="nonzero"></path>
                    <rect id="Rectangle" x="0" y="0" width="40" height="40"></rect>
                </g>
            </g>
        </g>
    </g>
</svg>