<?xml version="1.0" encoding="UTF-8"?>
<svg width="40px" height="40px" viewBox="0 0 40 40" version="1.1" xmlns="http://www.w3.org/2000/svg" xmlns:xlink="http://www.w3.org/1999/xlink">
    <!-- Generator: Sketch 57.1 (83088) - https://sketch.com -->
    <title>060-B40px</title>
    <desc>Created with Sketch.</desc>
    <g id="060-B40px" stroke="none" stroke-width="1" fill="none" fill-rule="evenodd">
        <g>
            <path d="M26.25,23.5 C24.875,23.5 23.625,23 22.75,21.875 L20,19.125 L17.375,22 C16.375,23 15.125,23.625 13.875,23.625 C12.5,23.625 11.25,23.125 10.375,22 C8.5,19.875 8.5,16.5 10.375,14.5 C11.375,13.5 12.625,12.875 13.875,12.875 C15.25,12.875 16.5,13.375 17.375,14.5 L20,17.375 L22.625,14.5 C23.625,13.5 24.875,12.875 26.125,12.875 C27.5,12.875 28.75,13.375 29.625,14.5 C31.5,16.625 31.5,20 29.625,22 C28.875,22.875 27.5,23.5 26.25,23.5 Z M20.875,18.125 L23.625,21 C25,22.5 27.5,22.5 28.875,21 C30.375,19.375 30.375,16.75 28.875,15.125 C27.5,13.625 25,13.625 23.625,15.125 L20.875,18.125 Z M13.75,14 C12.75,14 11.875,14.375 11.125,15.125 C9.625,16.75 9.625,19.375 11.125,21 C12.5,22.5 15,22.5 16.375,21 L19.125,18.125 L16.375,15.25 C15.75,14.5 14.75,14 13.75,14 Z" id="Shape" fill="#101828" fill-rule="nonzero"></path>
            <path d="M33.75,8.75 L6.25,8.75 C5.5,8.75 5,9.25 5,10 L5,23.75 L6.25,23.75 L6.25,10 L33.75,10 L33.75,26.25 L12.875,26.25 C12.375,26.25 11.875,26.375 11.5,26.625 L7.375,29.375 L5,31 L5,32.5 L12.125,27.75 C12.375,27.625 12.625,27.5 12.75,27.5 L33.75,27.5 C34.375,27.5 35,27 35,26.25 L35,10 C35,9.25 34.5,8.75 33.75,8.75 Z" id="Path" fill="#101828" fill-rule="nonzero"></path>
            <rect id="Rectangle" x="0" y="0" width="40" height="40"></rect>
        </g>
    </g>
</svg>