<?xml version="1.0" encoding="UTF-8"?>
<svg width="80px" height="80px" viewBox="0 0 80 80" version="1.1" xmlns="http://www.w3.org/2000/svg" xmlns:xlink="http://www.w3.org/1999/xlink">
    <!-- Generator: Sketch 57.1 (83088) - https://sketch.com -->
    <title>086-B80px</title>
    <desc>Created with Sketch.</desc>
    <g id="086-B80px" stroke="none" stroke-width="1" fill="none" fill-rule="evenodd">
        <g>
            <polygon id="Path" fill="#101828" fill-rule="nonzero" points="33 35 33 40 33 42.5 33 47.5 35.5 47.5 35.5 42.5 35.5 40 35.5 35"></polygon>
            <polygon id="Path" fill="#101828" fill-rule="nonzero" points="38.75 37.5 38.75 40 38.75 42.5 38.75 45 41.25 45 41.25 42.5 41.25 40 41.25 37.5"></polygon>
            <polygon id="Path" fill="#101828" fill-rule="nonzero" points="67.5 39 67.5 40.5 67.5 42 67.5 43.5 70 43.5 70 42 70 40.5 70 39"></polygon>
            <polygon id="Path" fill="#101828" fill-rule="nonzero" points="61.75 36 61.75 40.5 61.75 42 61.75 46.5 64.25 46.5 64.25 42 64.25 40.5 64.25 36"></polygon>
            <polygon id="Path" fill="#101828" fill-rule="nonzero" points="44.5 38.75 44.5 40.75 44.5 41.75 44.5 43.75 47 43.75 47 41.75 47 40.75 47 38.75"></polygon>
            <polygon id="Path" fill="#101828" fill-rule="nonzero" points="21.5 27.5 21.5 40 21.5 42.5 21.5 55 24 55 24 42.5 24 40 24 27.5"></polygon>
            <polygon id="Path" fill="#101828" fill-rule="nonzero" points="27.25 32.5 27.25 40 27.25 42.5 27.25 50 29.75 50 29.75 42.5 29.75 40 29.75 32.5"></polygon>
            <polygon id="Path" fill="#101828" fill-rule="nonzero" points="50.25 34.5 50.25 40.5 50.25 42 50.25 48 52.75 48 52.75 42 52.75 40.5 52.75 34.5"></polygon>
            <polygon id="Path" fill="#101828" fill-rule="nonzero" points="56 31.625 56 40.5 56 42 56 50.875 58.5 50.875 58.5 42 58.5 40.5 58.5 31.625"></polygon>
            <polygon id="Path" fill="#101828" fill-rule="nonzero" points="10 37.5 10 39 10 43.5 10 45 12.5 45 12.5 43.5 12.5 39 12.5 37.5"></polygon>
            <polygon id="Path" fill="#101828" fill-rule="nonzero" points="15.75 32.5 15.75 40 15.75 42.5 15.75 50 18.25 50 18.25 42.5 18.25 40 18.25 32.5"></polygon>
            <rect id="Rectangle" x="0" y="0" width="80" height="80"></rect>
        </g>
    </g>
</svg>