<?xml version="1.0" encoding="UTF-8"?>
<svg width="80px" height="80px" viewBox="0 0 80 80" version="1.1" xmlns="http://www.w3.org/2000/svg" xmlns:xlink="http://www.w3.org/1999/xlink">
    <!-- Generator: Sketch 57.1 (83088) - https://sketch.com -->
    <title>241-B80px</title>
    <desc>Created with Sketch.</desc>
    <g id="241-B80px" stroke="none" stroke-width="1" fill="none" fill-rule="evenodd">
        <g>
            <path d="M25,13.075 L25,20 L17.95,20 L25,13.075 L25,13.075 Z M27.5,10 L25.575,10 C24.925,10 24.3,10.25 23.825,10.725 L15.75,18.675 C15.275,19.15 15,19.775 15,20.45 L15,22.5 L25,22.5 C26.375,22.5 27.5,21.375 27.5,20 L27.5,10 L27.5,10 Z" id="Shape" fill="#101828" fill-rule="nonzero"></path>
            <path d="M63.625,32.475 L63.675,32.5 L65,33.825 C65.05,33.875 65.05,33.925 65,33.975 L48.95,50.025 L47.5,50.025 L47.5,48.575 L63.55,32.5 C63.55,32.5 63.575,32.475 63.625,32.475 L63.625,32.475 Z M63.625,30 C62.975,30 62.3,30.25 61.8,30.75 L45,47.55 L45,52.5 L49.95,52.5 L66.725,35.725 C67.725,34.725 67.725,33.075 66.725,32.075 L65.425,30.775 C64.925,30.25 64.275,30 63.625,30 L63.625,30 Z" id="Shape" fill="#101828" fill-rule="nonzero"></path>
            <polygon id="Path" fill="#101828" fill-rule="nonzero" points="57.7 43.525 53.875 39.7 55.625 37.925 59.45 41.75"></polygon>
            <rect id="Rectangle" fill="#101828" fill-rule="nonzero" x="22.5" y="37.5" width="17.5" height="2.5"></rect>
            <rect id="Rectangle" fill="#101828" fill-rule="nonzero" x="22.5" y="30" width="17.5" height="2.5"></rect>
            <path d="M57.4,67.5 L17.5,67.5 L17.5,22.5 L24.375,22.5 C26.075,22.5 27.475,21.1 27.475,19.4 L27.475,12.5 L57.375,12.5 L57.375,31.475 L59.875,28.975 L59.875,12.5 C59.875,11.125 58.75,10 57.375,10 L25.725,10 C25.325,10 25,10.325 25,10.725 L24.975,20 L15.925,20 C15.4,20 15,20.425 15,20.925 L15,67.5 C15,68.875 16.125,70 17.5,70 L57.4,70 C58.775,70 59.9,68.875 59.9,67.5 L59.9,45.975 L57.4,48.475 L57.4,67.5 Z" id="Path" fill="#101828" fill-rule="nonzero"></path>
            <rect id="Rectangle" x="0" y="0" width="80" height="80"></rect>
        </g>
    </g>
</svg>