<?xml version="1.0" encoding="UTF-8"?>
<svg width="56px" height="56px" viewBox="0 0 56 56" version="1.1" xmlns="http://www.w3.org/2000/svg" xmlns:xlink="http://www.w3.org/1999/xlink">
    <!-- Generator: Sketch 57.1 (83088) - https://sketch.com -->
    <title>208-G56px</title>
    <desc>Created with Sketch.</desc>
    <g id="NEW_icons" stroke="none" stroke-width="1" fill="none" fill-rule="evenodd">
        <g id="icons_UD_new-Copy" transform="translate(-455.000000, -26616.000000)">
            <g id="208-G56px" transform="translate(455.000000, 26616.000000)">
                <circle id="Oval-Copy-1298" fill="#E3E8EC" cx="28" cy="28" r="28"></circle>
                <g id="208-B32px-Copy-3" transform="translate(8.000000, 8.000000)">
                    <path d="M23.75,27.6375 C22.7125,27.5625 21.6,27.5125 20.4125,27.5 L23.75,27.5 L23.75,26.25 L6.25,26.225 L6.275,12.5 L33.725,12.5 L33.75,12.525 L33.7375,18.75 L35,18.75 L35,12.525 C35,11.825 34.425,11.25 33.725,11.25 L6.275,11.25 C5.575,11.25 5,11.825 5,12.525 L5,26.225 C5,26.9375 5.575,27.5 6.275,27.5 L19.6875,27.5 C14.45,27.525 10.525,28.325 8.7625,28.7625 L8.7625,30.05 C10.2875,29.6625 14.425,28.75 19.975,28.75 C21.325,28.75 22.5875,28.8 23.75,28.8875 L23.75,27.6375 Z" id="Path" fill="#101828" fill-rule="nonzero"></path>
                    <path d="M17.5,17.175 L21.275,19.375 L17.5,21.575 L17.5,17.175 L17.5,17.175 Z M16.25,15 L16.25,23.75 L23.75,19.375 L16.25,15 L16.25,15 Z" id="Shape" fill="#101828" fill-rule="nonzero"></path>
                    <path d="M33.75,25 L33.75,32.5 L26.25,32.5 L26.25,25 L33.75,25 L33.75,25 Z M33.8,23.75 L26.2,23.75 C25.5375,23.75 25,24.2875 25,24.95 L25,32.5625 C25,33.225 25.5375,33.7625 26.2,33.7625 L33.8,33.7625 C34.4625,33.7625 35,33.225 35,32.5625 L35,24.95 C35,24.2875 34.4625,23.75 33.8,23.75 L33.8,23.75 Z" id="Shape" fill="#101828" fill-rule="nonzero"></path>
                    <path d="M30,30 C29.65,30 29.375,29.725 29.375,29.375 L29.375,28.125 C29.375,27.775 29.65,27.5 30,27.5 C30.35,27.5 30.625,27.775 30.625,28.125 L30.625,29.375 C30.625,29.725 30.35,30 30,30 Z" id="Path" fill="#101828" fill-rule="nonzero"></path>
                    <path d="M31.25,23.75 L31.25,23.75 L27.5,23.75 L27.5,22.5 C27.5,21.125 28.625,20 30,20 C30.925,20 31.725,20.5125 32.15,21.25 L33.5125,21.25 C33,19.8 31.625,18.75 29.9875,18.75 C27.9125,18.75 26.2375,20.425 26.2375,22.5 L26.2375,25 L33.7375,25 L33.7375,23.75 L31.25,23.75 Z" id="Path" fill="#101828" fill-rule="nonzero"></path>
                    <polygon id="Path" fill="#101828" fill-rule="nonzero" points="23.75 26.25 21.25 26.25 21.25 28.75 23.75 28.75"></polygon>
                    <rect id="Rectangle" x="0" y="0" width="40" height="40"></rect>
                </g>
            </g>
        </g>
    </g>
</svg>