<?xml version="1.0" encoding="UTF-8"?>
<svg width="32px" height="32px" viewBox="0 0 32 32" version="1.1" xmlns="http://www.w3.org/2000/svg" xmlns:xlink="http://www.w3.org/1999/xlink">
    <!-- Generator: Sketch 57.1 (83088) - https://sketch.com -->
    <title>044-B32px</title>
    <desc>Created with Sketch.</desc>
    <g id="044-B32px" stroke="none" stroke-width="1" fill="none" fill-rule="evenodd">
        <g>
            <path d="M17.38,22.19 C17.32,22.26 16.08,23.47 16.03,23.51 C16.02,23.5 16,23.49 15.99,23.48 C15.57,23.07 15.15,22.66 14.73,22.25 C14.7,22.22 14.69,22.19 14.69,22.15 C14.69,22.12 14.69,22.1 14.69,22.07 C14.69,18.29 14.69,14.52 14.69,10.74 C14.69,10.7 14.69,10.67 14.68,10.63 C14.66,10.63 14.65,10.62 14.64,10.62 C14.61,10.62 14.59,10.62 14.56,10.62 C13.28,10.62 12,10.62 10.72,10.62 C10.69,10.62 10.66,10.62 10.63,10.62 C10.62,10.59 10.64,10.58 10.65,10.57 C10.77,10.44 10.9,10.32 11.02,10.2 C11.73,9.49 12.44,8.77 13.15,8.06 C13.17,8.04 13.18,8.02 13.2,8 C15.07,8 16.94,8 18.81,8 C19.04,8.21 21.37,10.51 21.43,10.61 C21.43,10.62 21.41,10.62 21.4,10.62 C21.37,10.62 21.34,10.62 21.32,10.62 C20.04,10.62 18.76,10.62 17.48,10.62 C17.45,10.62 17.41,10.62 17.38,10.63 C17.38,10.65 17.37,10.66 17.37,10.67 C17.37,10.7 17.37,10.73 17.37,10.75 C17.37,14.53 17.37,18.31 17.37,22.09 C17.38,22.12 17.38,22.16 17.38,22.19 Z" id="Path" fill="#101828" fill-rule="nonzero"></path>
            <path d="M21.47,18.11 C20.79,18.79 20.1,19.46 19.42,20.14 C19.39,20.13 19.37,20.11 19.35,20.09 C18.97,19.72 18.59,19.35 18.2,18.98 C17.99,18.77 17.78,18.57 17.57,18.36 C17.55,18.34 17.54,18.32 17.52,18.3 C17.54,18.28 17.56,18.26 17.58,18.24 C17.98,17.84 18.39,17.44 18.79,17.05 C18.8,17.04 18.82,17.02 18.83,17.01 C18.85,16.99 18.86,16.97 18.86,16.95 C18.86,16.93 18.86,16.9 18.86,16.88 C18.86,15.21 18.86,13.54 18.86,11.87 C18.86,11.84 18.86,11.8 18.87,11.77 C18.89,11.77 18.91,11.77 18.93,11.76 C19.58,11.75 21.39,11.76 21.47,11.77 C21.47,11.79 21.48,11.8 21.48,11.82 C21.48,11.9 21.48,11.99 21.48,12.07 C21.48,14.05 21.48,16.04 21.48,18.02 C21.47,18.04 21.47,18.07 21.47,18.11 Z" id="Path" fill="#101828" fill-rule="nonzero"></path>
            <path d="M12.66,20.14 C12.64,20.12 12.62,20.1 12.6,20.09 C11.96,19.45 11.31,18.81 10.67,18.18 C10.59,18.1 10.61,18.13 10.61,18.03 C10.61,15.97 10.61,13.92 10.61,11.86 C10.61,11.83 10.61,11.8 10.61,11.77 C10.63,11.77 10.64,11.76 10.66,11.76 C10.68,11.76 10.7,11.76 10.72,11.76 C11.52,11.76 12.32,11.76 13.12,11.76 C13.15,11.76 13.19,11.75 13.21,11.77 C13.21,11.78 13.22,11.78 13.22,11.78 C13.22,11.78 13.22,11.78 13.22,11.79 C13.22,11.79 13.22,11.8 13.22,11.8 C13.22,11.81 13.22,11.81 13.22,11.82 C13.22,11.82 13.22,11.83 13.22,11.83 C13.22,11.84 13.22,11.85 13.22,11.85 C13.22,13.56 13.22,15.26 13.22,16.97 C13.22,16.97 13.22,16.98 13.22,16.98 C13.22,16.98 13.22,16.99 13.22,16.99 C13.22,16.99 13.22,16.99 13.22,17.01 C13.66,17.44 14.11,17.89 14.56,18.33 C13.92,18.91 13.29,19.52 12.66,20.14 Z" id="Path" fill="#101828" fill-rule="nonzero"></path>
            <path d="M18.98,6.83 L22.67,10.51 L22.67,18.89 L16.02,24.88 L9.33,18.96 L9.33,10.51 L13.01,6.83 L18.98,6.83 L18.98,6.83 Z M19.32,6 L12.66,6 L8.5,10.17 L8.5,19.34 L16.03,26 L23.5,19.27 L23.5,10.17 L19.32,6 L19.32,6 Z" id="Shape" fill="#101828" fill-rule="nonzero"></path>
            <rect id="Rectangle" x="0" y="0" width="32" height="32"></rect>
        </g>
    </g>
</svg>