<?xml version="1.0" encoding="UTF-8"?>
<svg width="80px" height="80px" viewBox="0 0 80 80" version="1.1" xmlns="http://www.w3.org/2000/svg" xmlns:xlink="http://www.w3.org/1999/xlink">
    <!-- Generator: Sketch 57.1 (83088) - https://sketch.com -->
    <title>040-B80px</title>
    <desc>Created with Sketch.</desc>
    <g id="040-B80px" stroke="none" stroke-width="1" fill="none" fill-rule="evenodd">
        <g>
            <g id="Group" transform="translate(10.000000, 12.500000)" fill="#101828" fill-rule="nonzero">
                <path d="M12.35,30.075 C13.925,37.625 23.925,35.8 22.025,25.575 C20.55,17.45 10.325,20.35 12.35,30.075 Z" id="Path"></path>
                <path d="M57.5,12.5 L35,12.5 L35,0 L0,5 L0,50 L35,55 L35,42.5 L57.5,42.5 C58.875,42.5 60,41.375 60,40 L60,15 C60,13.625 58.875,12.5 57.5,12.5 Z M56.725,15 L41.2,27.15 L35,22.275 L35,15 L56.725,15 Z M20.75,36.45 C16.975,38.425 12.675,36.65 11.1,34.3 C7.175,28.475 9.425,18.325 17.35,18.325 C22.675,18.325 25.075,22.55 25.075,27.775 C25.075,31.825 23.45,35.025 20.75,36.45 Z M35,40 L35,25.45 L39.65,29.1 C40.125,29.475 40.7,29.65 41.25,29.65 C41.8,29.65 42.375,29.475 42.85,29.1 L57.5,17.575 L57.5,40 L35,40 Z" id="Shape"></path>
            </g>
            <rect id="Rectangle" x="0" y="0" width="80" height="80"></rect>
        </g>
    </g>
</svg>