<?xml version="1.0" encoding="UTF-8"?>
<svg width="57px" height="58px" viewBox="0 0 57 58" version="1.1" xmlns="http://www.w3.org/2000/svg" xmlns:xlink="http://www.w3.org/1999/xlink">
    <!-- Generator: Sketch 49 (51002) - http://www.bohemiancoding.com/sketch -->
    <title>other_insurance_3</title>
    <desc>Created with Sketch.</desc>
    <defs></defs>
    <g id="icons" stroke="none" stroke-width="1" fill="none" fill-rule="evenodd" opacity="0.699999988">
        <g transform="translate(-1975.000000, -613.000000)" id="Group" stroke="#000000" stroke-width="1.5">
            <g transform="translate(145.000000, 121.000000)">
                <g id="Fill-142" transform="translate(1830.000000, 493.000000)">
                    <path d="M55.7534,28.2045 C55.7534,43.3925 43.4404,55.7045 28.2534,55.7045 C13.0654,55.7045 0.7534,43.3925 0.7534,28.2045 C0.7534,13.0165 13.0654,0.7045 28.2534,0.7045 C43.4404,0.7045 55.7534,13.0165 55.7534,28.2045"></path>
                    <polygon id="Stroke-353" stroke-linejoin="round" points="27.8315 10.2006 12.3775 24.4876 15.8115 24.4876 15.8115 42.2086 24.3975 42.2086 31.2665 42.2086 39.8525 42.2086 39.8525 24.4876 43.2865 24.4876 38.6845 20.2286 38.6845 10.2006 32.9825 10.2006 32.9825 14.9396"></polygon>
                    <path d="M27.4224,36.5175 C27.4224,36.5175 22.4684,35.1265 22.4684,30.8935 L22.4684,23.9905 L23.8444,24.2025 C26.4584,24.6045 29.1174,24.6075 31.7324,24.2115 L33.1944,23.9905 L33.1944,30.8645 C33.1944,35.1265 28.2404,36.5175 28.2404,36.5175 L27.4224,36.5175 Z" id="Stroke-355" stroke-linejoin="round"></path>
                </g>
            </g>
        </g>
    </g>
</svg>