<?xml version="1.0" encoding="UTF-8"?>
<svg width="57px" height="58px" viewBox="0 0 57 58" version="1.1" xmlns="http://www.w3.org/2000/svg" xmlns:xlink="http://www.w3.org/1999/xlink">
    <!-- Generator: Sketch 49 (51002) - http://www.bohemiancoding.com/sketch -->
    <title>other_gift_1_3</title>
    <desc>Created with Sketch.</desc>
    <defs></defs>
    <g id="icons" stroke="none" stroke-width="1" fill="none" fill-rule="evenodd" opacity="0.699999988">
        <g transform="translate(-1975.000000, -732.000000)" id="Group" stroke="#000000">
            <g transform="translate(145.000000, 121.000000)">
                <g id="Fill-143" transform="translate(1830.000000, 612.000000)">
                    <path d="M55.7534,27.9858 C55.7534,43.1738 43.4404,55.4858 28.2534,55.4858 C13.0654,55.4858 0.7534,43.1738 0.7534,27.9858 C0.7534,12.7978 13.0654,0.4858 28.2534,0.4858 C43.4404,0.4858 55.7534,12.7978 55.7534,27.9858" stroke-width="1.5"></path>
                    <path d="M38.8472,24.3495 L40.2342,24.3495 L40.2342,40.0505 C40.2342,40.8705 39.6042,41.5005 38.7842,41.5005 L17.6602,41.5005 C16.9032,41.5005 16.2722,40.8705 16.2722,40.1145 L16.2722,24.3495 L17.7222,24.3495" id="Stroke-413" stroke-width="1.5" stroke-linejoin="round"></path>
                    <polyline id="Stroke-415" stroke-width="1.5" stroke-linejoin="round" points="26.5503 24.3495 15.0733 24.3495 15.0733 18.6745 41.4323 18.6745 41.4323 24.3495 29.9553 24.3495"></polyline>
                    <polygon id="Stroke-417" stroke-width="1" stroke-linejoin="round" points="26.55 41.564 29.955 41.564 29.955 18.674 26.55 18.674"></polygon>
                    <path d="M34.5591,14.7016 C31.4061,14.7016 28.2531,18.6116 28.2531,18.6116 L34.2441,18.6116 C37.3971,18.6746 37.5231,14.7016 34.5591,14.7016 Z" id="Stroke-419" stroke-width="1" stroke-linejoin="round"></path>
                    <path d="M21.9478,14.7016 C25.0998,14.7016 28.2538,18.6116 28.2538,18.6116 L22.2628,18.6116 C19.1098,18.6746 18.9838,14.7016 21.9478,14.7016 Z" id="Stroke-420" stroke-width="1" stroke-linejoin="round"></path>
                    <path d="M31.7212,12.3686 C31.7212,12.3686 28.2532,13.5036 28.2532,18.6746" id="Stroke-421" stroke-width="1" stroke-linejoin="round"></path>
                    <path d="M27.1187,11.2333 C26.1727,13.7553 26.6137,16.5933 28.2537,18.6743" id="Stroke-422" stroke-width="1" stroke-linejoin="round"></path>
                </g>
            </g>
        </g>
    </g>
</svg>