<?xml version="1.0" encoding="UTF-8"?>
<svg width="57px" height="58px" viewBox="0 0 57 58" version="1.1" xmlns="http://www.w3.org/2000/svg" xmlns:xlink="http://www.w3.org/1999/xlink">
    <!-- Generator: Sketch 49 (51002) - http://www.bohemiancoding.com/sketch -->
    <title>other_gift_2_3</title>
    <desc>Created with Sketch.</desc>
    <defs></defs>
    <g id="icons" stroke="none" stroke-width="1" fill="none" fill-rule="evenodd" opacity="0.699999988">
        <g transform="translate(-1975.000000, -860.000000)" id="Group" stroke="#000000" stroke-width="1.5">
            <g transform="translate(145.000000, 121.000000)">
                <g id="Fill-144" transform="translate(1830.000000, 740.000000)">
                    <path d="M55.7534,27.7665 C55.7534,42.9545 43.4404,55.2665 28.2534,55.2665 C13.0654,55.2665 0.7534,42.9545 0.7534,27.7665 C0.7534,12.5785 13.0654,0.2665 28.2534,0.2665 C43.4404,0.2665 55.7534,12.5785 55.7534,27.7665"></path>
                    <path d="M28.2896,41.7489 L26.4856,40.2329 C19.6286,34.1699 15.2256,29.9119 15.2256,24.9319 C15.1526,21.0339 18.3296,17.7859 22.2276,17.7859 L22.4436,17.7859 C24.6816,17.7859 26.8466,18.7959 28.2896,20.5279 C29.7336,18.7959 31.8986,17.7859 34.1366,17.7859 C38.0336,17.7139 41.2826,20.8899 41.2826,24.7869 L41.2826,25.0039 C41.2826,29.9119 36.8796,34.2419 30.0946,40.3059 L28.2896,41.7489 Z" id="Stroke-424" stroke-linejoin="round"></path>
                </g>
            </g>
        </g>
    </g>
</svg>