<?xml version="1.0" encoding="UTF-8"?>
<svg width="57px" height="58px" viewBox="0 0 57 58" version="1.1" xmlns="http://www.w3.org/2000/svg" xmlns:xlink="http://www.w3.org/1999/xlink">
    <!-- Generator: Sketch 49 (51002) - http://www.bohemiancoding.com/sketch -->
    <title>other_default_3</title>
    <desc>Created with Sketch.</desc>
    <defs></defs>
    <g id="icons" stroke="none" stroke-width="1" fill="none" fill-rule="evenodd" opacity="0.699999988">
        <g transform="translate(-1975.000000, -287.000000)" id="Group" stroke="#000000">
            <g transform="translate(145.000000, 121.000000)">
                <g id="Fill-79" transform="translate(1830.000000, 167.000000)">
                    <path d="M55.7534,28.0453 C55.7534,43.2333 43.4404,55.5453 28.2534,55.5453 C13.0654,55.5453 0.7534,43.2333 0.7534,28.0453 C0.7534,12.8573 13.0654,0.5453 28.2534,0.5453 C43.4404,0.5453 55.7534,12.8573 55.7534,28.0453" stroke-width="1.5"></path>
                    <polygon id="Stroke-261" stroke-width="1" stroke-linejoin="round" points="28.2534 28.3041 20.0744 24.2561 20.0744 15.4571 28.2534 19.5061"></polygon>
                    <polygon id="Stroke-262" stroke-width="1" stroke-linejoin="round" points="28.2534 28.3041 36.4324 24.2561 36.4324 15.4571 28.2534 19.5061"></polygon>
                    <polygon id="Stroke-263" stroke-width="1" stroke-linejoin="round" points="36.4321 32.353 44.6101 28.304 36.4321 24.256 28.2531 28.304"></polygon>
                    <polygon id="Stroke-264" stroke-width="1" stroke-linejoin="round" points="28.2534 19.5058 36.4324 15.4568 28.2534 11.4088 20.0744 15.4568"></polygon>
                    <polygon id="Stroke-265" stroke-width="1" stroke-linejoin="round" points="20.0747 41.1513 11.8957 37.1023 11.8957 28.3043 20.0747 32.3533"></polygon>
                    <polygon id="Stroke-266" stroke-width="1" stroke-linejoin="round" points="20.0747 41.1513 28.2537 37.1023 28.2537 28.3043 20.0747 32.3533"></polygon>
                    <polygon id="Stroke-267" stroke-width="1" stroke-linejoin="round" points="20.0747 32.353 28.2537 28.304 20.0747 24.256 11.8957 28.304"></polygon>
                    <polygon id="Stroke-268" stroke-width="1" stroke-linejoin="round" points="36.4321 41.1513 28.2531 37.1023 28.2531 28.3043 36.4321 32.3533"></polygon>
                    <polygon id="Stroke-269" stroke-width="1" stroke-linejoin="round" points="36.4321 41.1513 44.6101 37.1023 44.6101 28.3043 36.4321 32.3533"></polygon>
                    <polygon id="Stroke-270" stroke-width="1.5" stroke-linejoin="round" points="36.4321 24.2558 36.4321 24.2558 36.4321 15.4568 28.2531 11.4088 20.0751 15.4568 20.0751 24.2558 11.8961 28.3038 11.8961 37.1028 20.0751 41.1518 20.0751 32.3528 28.2531 28.3038 20.0751 32.3528 20.0751 41.1518 28.2531 37.1028 36.4321 41.1518 44.6101 37.1028 44.6101 28.3038"></polygon>
                </g>
            </g>
        </g>
    </g>
</svg>