<?xml version="1.0" encoding="UTF-8"?>
<svg width="56px" height="56px" viewBox="0 0 56 56" version="1.1" xmlns="http://www.w3.org/2000/svg" xmlns:xlink="http://www.w3.org/1999/xlink">
    <!-- Generator: Sketch 57.1 (83088) - https://sketch.com -->
    <title>141-B56px</title>
    <desc>Created with Sketch.</desc>
    <g id="141-B56px" stroke="none" stroke-width="1" fill="none" fill-rule="evenodd">
        <g>
            <path d="M36.75,46.375 C31.4475,46.375 27.125,42.0525 27.125,36.75 L28.875,36.75 C28.875,41.09 32.41,44.625 36.75,44.625 L36.75,46.375 Z" id="Path" fill="#101828" fill-rule="nonzero"></path>
            <path d="M46.375,36.75 L44.625,36.75 C44.625,32.41 41.09,28.875 36.75,28.875 L36.75,27.125 C42.0525,27.125 46.375,31.4475 46.375,36.75 Z" id="Path" fill="#101828" fill-rule="nonzero"></path>
            <path d="M36.75,26.25 C42.5425,26.25 47.25,30.9575 47.25,36.75 C47.25,42.5425 42.5425,47.25 36.75,47.25 C30.9575,47.25 26.25,42.5425 26.25,36.75 C26.25,30.9575 30.9575,26.25 36.75,26.25 L36.75,26.25 Z M36.75,24.5 C29.9775,24.5 24.5,29.9775 24.5,36.75 C24.5,43.5225 29.9775,49 36.75,49 C43.5225,49 49,43.5225 49,36.75 C49,29.9775 43.5225,24.5 36.75,24.5 L36.75,24.5 Z" id="Shape" fill="#101828" fill-rule="nonzero"></path>
            <path d="M41.1425,34.86 L37.24,30.94 C37.1,30.8 36.855,30.8 36.715,30.94 L34.51,33.145 C33.845,33.81 33.8624562,34.475 33.8624562,35.245 L33.8624562,41.475 C33.8624562,41.79 33.9675,42.105 34.195,42.315 C34.405,42.525 34.7025,42.665 34.9825,42.665 L39.515,42.665 C39.6725,42.665 39.795,42.5775 39.865,42.4375 C39.9175,42.2975 39.8825,42.14 39.7775,42.035 L37.135,39.3925 L41.1425,35.385 C41.2825,35.2275 41.2825,35 41.1425,34.86 Z M38.2375,41.755 L35,41.755 C34.965,41.755 34.93,41.7375 34.93,41.7375 C34.9125,41.7025 34.895,41.685 34.895,41.6675 L34.895,41.615 C35.035,41.4575 35.455,41.0375 35.49,41.0025 L36.4875,40.005 L38.2375,41.755 Z" id="Shape" fill="#101828" fill-rule="nonzero"></path>
            <path d="M22.8725,38.5 L22.75,38.5 L22.75,26.25 L22.75,22.75 L22.75,21 L22.75,17.535 L24.5,17.535 L24.5,21 L24.5,22.75 L24.5,26.25 L24.5,29.9775 C24.99,29.085 25.585,28.2625 26.25,27.51 L26.25,22.75 L36.75,22.75 C37.345,22.75 37.9225,22.8025 38.5,22.8725 L38.5,22.75 C39.4625,22.75 40.25,21.9625 40.25,21 L40.25,17.5 C40.25,16.5375 39.4625,15.75 38.5,15.75 L33.2325,15.75 C33.2325,13.93 33.0225,12.355 32.7775,11.165 C32.6025,10.3075 31.85,9.765 31.0625,9.765 C30.7475,9.765 30.4325,9.8525 30.1525,10.0275 L25.725,12.7575 C25.41,12.4425 24.9725,12.25 24.5,12.25 L22.75,12.25 C22.2775,12.25 21.84,12.4425 21.525,12.7575 L17.0975,10.0275 C16.8,9.8525 16.485,9.765 16.1875,9.765 C15.4,9.765 14.6475,10.3075 14.4725,11.165 C14.2275,12.355 14.0175,13.93 14.0175,15.75 L8.75,15.75 C7.7875,15.75 7,16.5375 7,17.5 L7,21 C7,21.9625 7.7875,22.75 8.75,22.75 L8.75,38.5 C8.75,39.4625 9.5375,40.25 10.5,40.25 L21,40.25 L23.205,40.25 C23.065,39.6725 22.9425,39.095 22.8725,38.5 Z M26.25,14.49 L31.0625,11.515 L31.0625,11.515 C31.29,12.6175 31.4825,14.07 31.5,15.75 L26.25,15.75 L26.25,14.49 Z M26.25,17.5 L38.5,17.5 L38.5,21 L36.75,21 L26.25,21 L26.25,17.5 Z M22.75,14 L24.5,14 L24.5,15.75 L22.75,15.75 L22.75,14 Z M21,38.5 L10.5,38.5 L10.5,22.75 L21,22.75 L21,38.5 Z M21,21 L10.5,21 L8.75,21 L8.75,17.5 L21,17.5 L21,21 Z M21,15.75 L15.75,15.75 C15.75,14.07 15.9425,12.6175 16.17,11.515 L16.17,11.515 L21,14.49 L21,15.75 Z" id="Shape" fill="#101828" fill-rule="nonzero"></path>
            <rect id="Rectangle" x="0" y="0" width="56" height="56"></rect>
        </g>
    </g>
</svg>