<?xml version="1.0" encoding="UTF-8"?>
<svg width="56px" height="56px" viewBox="0 0 56 56" version="1.1" xmlns="http://www.w3.org/2000/svg" xmlns:xlink="http://www.w3.org/1999/xlink">
    <!-- Generator: Sketch 57.1 (83088) - https://sketch.com -->
    <title>133-B56px</title>
    <desc>Created with Sketch.</desc>
    <g id="133-B56px" stroke="none" stroke-width="1" fill="none" fill-rule="evenodd">
        <g>
            <path d="M41.16,17.5 L45.36,22.75 L35,22.75 L35,17.5 L41.16,17.5 L41.16,17.5 Z M41.16,15.75 L33.25,15.75 L33.25,24.5 L49,24.5 L42.525,16.3975 C42.1925,15.995 41.685,15.75 41.16,15.75 L41.16,15.75 Z" id="Shape" fill="#101828" fill-rule="nonzero"></path>
            <path d="M47.25,22.75 L35.0175,22.75 C34.0375,22.75 33.25,23.5375 33.25,24.5175 L33.25,33.25 L37.625,33.25 C37.135,33.25 36.75,32.865 36.75,32.375 C36.75,31.885 37.135,31.5 37.625,31.5 L35,31.5 L35.0175,24.5 L47.25,24.5 L47.2325,31.5 L44.625,31.5 C45.115,31.5 45.5,31.885 45.5,32.375 C45.5,32.865 45.115,33.25 44.625,33.25 L47.2325,33.25 C48.2125,33.25 49,32.4625 49,31.4825 L49,24.5 C49,23.5375 48.2125,22.75 47.25,22.75 Z" id="Path" fill="#101828" fill-rule="nonzero"></path>
            <path d="M33.25,14 L8.75,14 C7.7875,14 7,14.7875 7,15.75 L7,31.5 C7,32.4625 7.7875,33.25 8.75,33.25 L11.375,33.25 C10.885,33.25 10.5,32.865 10.5,32.375 C10.5,31.885 10.885,31.5 11.375,31.5 L8.75,31.5 L8.75,15.75 L33.25,15.75 L33.25,31.5 L18.375,31.5 C18.865,31.5 19.25,31.885 19.25,32.375 C19.25,32.865 18.865,33.25 18.375,33.25 L33.25,33.25 C34.2125,33.25 35,32.4625 35,31.5 L35,15.75 C35,14.7875 34.2125,14 33.25,14 Z" id="Path" fill="#101828" fill-rule="nonzero"></path>
            <path d="M14.875,29.75 C16.3275,29.75 17.5,30.9225 17.5,32.375 C17.5,33.8275 16.3275,35 14.875,35 C13.4225,35 12.25,33.8275 12.25,32.375 C12.25,30.9225 13.4225,29.75 14.875,29.75 L14.875,29.75 Z M14.875,28 C12.46,28 10.5,29.96 10.5,32.375 C10.5,34.79 12.46,36.75 14.875,36.75 C17.29,36.75 19.25,34.79 19.25,32.375 C19.25,29.96 17.29,28 14.875,28 L14.875,28 Z" id="Shape" fill="#101828" fill-rule="nonzero"></path>
            <path d="M41.125,29.75 C42.5775,29.75 43.75,30.9225 43.75,32.375 C43.75,33.8275 42.5775,35 41.125,35 C39.6725,35 38.5,33.8275 38.5,32.375 C38.5,30.9225 39.6725,29.75 41.125,29.75 L41.125,29.75 Z M41.125,28 C38.71,28 36.75,29.96 36.75,32.375 C36.75,34.79 38.71,36.75 41.125,36.75 C43.54,36.75 45.5,34.79 45.5,32.375 C45.5,29.96 43.54,28 41.125,28 L41.125,28 Z" id="Shape" fill="#101828" fill-rule="nonzero"></path>
            <circle id="Oval" fill="#101828" fill-rule="nonzero" cx="14.875" cy="32.375" r="1"></circle>
            <circle id="Oval" fill="#101828" fill-rule="nonzero" cx="41.125" cy="32.375" r="1"></circle>
            <rect id="Rectangle" x="0" y="0" width="56" height="56"></rect>
        </g>
    </g>
</svg>