<?xml version="1.0" encoding="UTF-8"?>
<svg width="56px" height="56px" viewBox="0 0 56 56" version="1.1" xmlns="http://www.w3.org/2000/svg" xmlns:xlink="http://www.w3.org/1999/xlink">
    <!-- Generator: Sketch 57.1 (83088) - https://sketch.com -->
    <title>131-B56px</title>
    <desc>Created with Sketch.</desc>
    <g id="131-B56px" stroke="none" stroke-width="1" fill="none" fill-rule="evenodd">
        <g>
            <path d="M40.25,31.5 C41.3,31.5 42,32.2 42,33.25 C42,34.3 41.3,35 40.25,35 C39.2,35 38.5,34.3 38.5,33.25 C38.5,32.2 39.2,31.5 40.25,31.5 L40.25,31.5 Z M40.25,29.75 C38.325,29.75 36.75,31.325 36.75,33.25 C36.75,35.175 38.325,36.75 40.25,36.75 C42.175,36.75 43.75,35.175 43.75,33.25 C43.75,31.325 42.175,29.75 40.25,29.75 L40.25,29.75 Z" id="Shape" fill="#101828" fill-rule="nonzero"></path>
            <path d="M29.75,21 C30.8,21 31.5,21.7 31.5,22.75 C31.5,23.8 30.8,24.5 29.75,24.5 C28.7,24.5 28,23.8 28,22.75 C28,21.7 28.7,21 29.75,21 L29.75,21 Z M29.75,19.25 C27.825,19.25 26.25,20.825 26.25,22.75 C26.25,24.675 27.825,26.25 29.75,26.25 C31.675,26.25 33.25,24.675 33.25,22.75 C33.25,20.825 31.675,19.25 29.75,19.25 L29.75,19.25 Z" id="Shape" fill="#101828" fill-rule="nonzero"></path>
            <polygon id="Rectangle" fill="#101828" fill-rule="nonzero" transform="translate(34.926579, 28.057321) rotate(-45.000000) translate(-34.926579, -28.057321) " points="23.4641887 27.1823296 46.3889688 27.1823296 46.3889688 28.9323129 23.4641887 28.9323129"></polygon>
            <path d="M47.25,15.75 L47.25,40.25 L14.525,40.25 L8.75,35.875 L8.75,20.125 L14.525,15.75 L47.25,15.75 L47.25,15.75 Z M47.25,14 L14.525,14 C14.175,14 13.825,14.175 13.475,14.35 L7.7,18.725 C7.175,19.075 7,19.6 7,20.125 L7,35.875 C7,36.4 7.175,36.925 7.7,37.275 L13.475,41.65 C13.825,41.825 14.175,42 14.525,42 L47.25,42 C48.3,42 49,41.3 49,40.25 L49,15.75 C49,14.7 48.3,14 47.25,14 L47.25,14 Z" id="Shape" fill="#101828" fill-rule="nonzero"></path>
            <path d="M14.875,27.125 C15.4,27.125 15.75,27.475 15.75,28 C15.75,28.525 15.4,28.875 14.875,28.875 C14.35,28.875 14,28.525 14,28 C14,27.475 14.35,27.125 14.875,27.125 L14.875,27.125 Z M14.875,25.375 C13.475,25.375 12.25,26.6 12.25,28 C12.25,29.4 13.475,30.625 14.875,30.625 C16.275,30.625 17.5,29.4 17.5,28 C17.5,26.6 16.275,25.375 14.875,25.375 L14.875,25.375 Z" id="Shape" fill="#101828" fill-rule="nonzero"></path>
            <rect id="Rectangle" x="0" y="0" width="56" height="56"></rect>
        </g>
    </g>
</svg>