<?xml version="1.0" encoding="UTF-8"?>
<svg width="56px" height="56px" viewBox="0 0 56 56" version="1.1" xmlns="http://www.w3.org/2000/svg" xmlns:xlink="http://www.w3.org/1999/xlink">
    <!-- Generator: Sketch 57.1 (83088) - https://sketch.com -->
    <title>074-B56px</title>
    <desc>Created with Sketch.</desc>
    <g id="074-B56px" stroke="none" stroke-width="1" fill="none" fill-rule="evenodd">
        <g>
            <path d="M33.25,35 L33.25,47.1625 C33.25,47.215 33.215,47.25 33.1625,47.25 L8.8375,47.25 C8.785,47.25 8.75,47.215 8.75,47.1625 L8.75,8.8375 C8.75,8.785 8.785,8.75 8.8375,8.75 L33.1625,8.75 C33.215,8.75 33.25,8.785 33.25,8.8375 L33.25,10.5 L35,10.5 L35,8.8375 C35,7.8225 34.1775,7 33.1625,7 L8.8375,7 C7.8225,7 7,7.8225 7,8.8375 L7,47.1625 C7,48.1775 7.8225,49 8.8375,49 L33.1625,49 C34.1775,49 35,48.1775 35,47.1625 L35,35 L33.25,35 Z" id="Path" fill="#101828" fill-rule="nonzero"></path>
            <path d="M21,45.5 C21.4725,45.5 21.875,45.115 21.875,44.625 C21.875,44.135 21.4725,43.75 21,43.75 C20.5275,43.75 20.125,44.135 20.125,44.625 C20.125,45.115 20.5275,45.5 21,45.5" id="Path" fill="#101828" fill-rule="nonzero"></path>
            <rect id="Rectangle" fill="#101828" fill-rule="nonzero" x="7" y="40.25" width="28" height="1.75"></rect>
            <path d="M41.615,21.875 C40.4425,21.6125 40.4425,21.3325 40.4425,21.21 C40.4425,20.9475 40.8625,20.86 41.125,20.86 C41.5625,20.86 41.8775,21.0525 42.14,21.5075 L42.2975,21.7525 L43.68,20.93 L43.5575,20.685 C43.085,19.7225 42.2975,19.25 41.1425,19.25 C39.7425,19.25 38.815,20.055 38.815,21.245 C38.815,22.3475 39.55,23.1175 40.8625,23.38 C41.965,23.6075 42.07,23.87 42.07,24.115 C42.07,24.43 41.755,24.64 41.2825,24.64 C40.67,24.64 40.32,24.3775 40.075,23.73 L39.9525,23.415 L38.5,24.15 L38.57,24.395 C38.885,25.55 39.9,26.25 41.2825,26.25 C42.8925,26.25 43.75,25.1475 43.75,24.0625 C43.75,22.89 43.0675,22.2075 41.615,21.875 Z" id="Path" fill="#101828" fill-rule="nonzero"></path>
            <path d="M25.865,21.875 C24.6925,21.6125 24.6925,21.3325 24.6925,21.21 C24.6925,20.9475 25.1125,20.86 25.375,20.86 C25.8125,20.86 26.1275,21.0525 26.39,21.5075 L26.5475,21.7525 L27.93,20.93 L27.8075,20.685 C27.335,19.7225 26.5475,19.25 25.3925,19.25 C23.9925,19.25 23.065,20.055 23.065,21.245 C23.065,22.3475 23.8,23.1175 25.1125,23.38 C26.215,23.6075 26.32,23.87 26.32,24.115 C26.32,24.43 26.005,24.64 25.5325,24.64 C24.92,24.64 24.57,24.3775 24.325,23.73 L24.2025,23.415 L22.75,24.15 L22.82,24.395 C23.135,25.55 24.15,26.25 25.5325,26.25 C27.1425,26.25 28,25.1475 28,24.0625 C28,22.89 27.3175,22.2075 25.865,21.875 Z" id="Path" fill="#101828" fill-rule="nonzero"></path>
            <polygon id="Path" fill="#101828" fill-rule="nonzero" points="35 19.25 35 19.3025 34.9825 19.285 33.25 21.525 33.25 21.525 33.25 21.525 31.5175 19.285 31.5 19.3025 31.5 19.25 29.75 19.25 29.75 26.25 31.5 26.25 31.5 22.2075 33.25 24.08 35 22.2075 35 26.25 36.75 26.25 36.75 19.25"></polygon>
            <path d="M47.25,12.25 L19.25,12.25 C18.2875,12.25 17.5,13.0375 17.5,14 L17.5,28 L19.25,28 L19.25,14 L47.25,14 L47.25,31.5 L22.7325,31.5 L22.2075,31.5 L22.1725,31.5175 L17.5,34.7025 L17.5,36.75 L22.7325,33.25 L47.25,33.25 C48.2125,33.25 49,32.4625 49,31.5 L49,14 C49,13.0375 48.2125,12.25 47.25,12.25 Z" id="Path" fill="#101828" fill-rule="nonzero"></path>
            <rect id="Rectangle" x="0" y="0" width="56" height="56"></rect>
        </g>
    </g>
</svg>