<?xml version="1.0" encoding="UTF-8"?>
<svg width="56px" height="56px" viewBox="0 0 56 56" version="1.1" xmlns="http://www.w3.org/2000/svg" xmlns:xlink="http://www.w3.org/1999/xlink">
    <!-- Generator: Sketch 57.1 (83088) - https://sketch.com -->
    <title>127-B56px</title>
    <desc>Created with Sketch.</desc>
    <g id="127-B56px" stroke="none" stroke-width="1" fill="none" fill-rule="evenodd">
        <g>
            <path d="M42.875,7.35 C42.8575,7.2975 42.8575,7.2625 42.8225,7.21 C42.805,7.175 42.77,7.14 42.735,7.1225 C42.7175,7.105 42.7,7.07 42.6825,7.0525 C42.665,7.035 42.63,7.0525 42.6125,7.035 C42.595,7.035 42.5775,7 42.56,7 C42.5425,7 42.525,7.0175 42.5075,7.0175 C42.4375,7.0175 42.385,7.0175 42.3325,7.0525 C42.2975,7.07 42.28,7.0875 42.245,7.105 C42.2275,7.1225 42.1925,7.1225 42.175,7.14 L14.84,37.1525 C14.8225,37.17 14.8225,37.1875 14.8225,37.205 C13.755,38.4475 13.1075,40.0575 13.1075,41.825 C13.1075,45.605 16.0475,48.7375 19.88,49 L42.3325,49 C42.56,49 42.7525,48.8075 42.7525,48.58 L42.875,7.4375 C42.8925,7.4025 42.875,7.385 42.875,7.35 Z M25.7075,37.1175 C24.3425,35.5425 22.365,34.6325 20.2825,34.6325 C19.4775,34.6325 18.725,34.79 18.0075,35.035 L40.3725,10.465 C38.395,14.1225 34.23,21.7175 25.7075,37.1175 Z" id="Shape" fill="#101828" fill-rule="nonzero"></path>
            <rect id="Rectangle" x="0" y="0" width="56" height="56"></rect>
        </g>
    </g>
</svg>