<?xml version="1.0" encoding="UTF-8"?>
<svg width="56px" height="56px" viewBox="0 0 56 56" version="1.1" xmlns="http://www.w3.org/2000/svg" xmlns:xlink="http://www.w3.org/1999/xlink">
    <!-- Generator: Sketch 57.1 (83088) - https://sketch.com -->
    <title>134-B56px</title>
    <desc>Created with Sketch.</desc>
    <g id="134-B56px" stroke="none" stroke-width="1" fill="none" fill-rule="evenodd">
        <g>
            <path d="M27.125,26.25 C28.0875,26.25 28.875,27.0375 28.875,28 C28.875,28.9625 28.0875,29.75 27.125,29.75 C26.1625,29.75 25.375,28.9625 25.375,28 C25.375,27.0375 26.1625,26.25 27.125,26.25 L27.125,26.25 Z M27.125,24.5 C25.2,24.5 23.625,26.075 23.625,28 C23.625,29.925 25.2,31.5 27.125,31.5 C29.05,31.5 30.625,29.925 30.625,28 C30.625,26.075 29.05,24.5 27.125,24.5 L27.125,24.5 Z" id="Shape" fill="#101828" fill-rule="nonzero"></path>
            <path d="M25.375,28 L23.625,28 L23.625,22.96 C23.6425,21.455 24.605,19.2325 27.195,19.2325 C28.1925,19.2325 29.05,19.565 29.645,20.1775 C30.66,21.2275 30.66,22.6975 30.6425,22.8725 L28.8925,22.82 L29.7675,22.8375 L28.8925,22.82 C28.8925,22.8025 28.8925,21.91 28.385,21.385 C28.1225,21.1225 27.72,21 27.195,21 C25.445,21 25.375,22.785 25.375,22.9775 L25.375,28 Z" id="Path" fill="#101828" fill-rule="nonzero"></path>
            <rect id="Rectangle" fill="#101828" fill-rule="nonzero" x="18.375" y="24.5" width="1.75" height="1.75"></rect>
            <path d="M41.125,15.75 C41.615,15.75 42,16.135 42,16.625 C42,17.115 41.615,17.5 41.125,17.5 C40.635,17.5 40.25,17.115 40.25,16.625 C40.25,16.135 40.635,15.75 41.125,15.75 L41.125,15.75 Z M41.125,14 C39.6725,14 38.5,15.1725 38.5,16.625 C38.5,18.0775 39.6725,19.25 41.125,19.25 C42.5775,19.25 43.75,18.0775 43.75,16.625 C43.75,15.1725 42.5775,14 41.125,14 L41.125,14 Z" id="Shape" fill="#101828" fill-rule="nonzero"></path>
            <path d="M35.875,21 C37.3275,21 38.5,22.1725 38.5,23.625 L38.5,27.125 C38.5,28.5775 37.3275,29.75 35.875,29.75 C34.4225,29.75 33.25,28.5775 33.25,27.125 L33.25,23.625 C33.25,22.1725 34.4225,21 35.875,21 L35.875,21 Z M35.875,19.25 C33.46,19.25 31.5,21.21 31.5,23.625 L31.5,27.125 C31.5,29.54 33.46,31.5 35.875,31.5 C38.29,31.5 40.25,29.54 40.25,27.125 L40.25,23.625 C40.25,21.21 38.29,19.25 35.875,19.25 L35.875,19.25 Z" id="Shape" fill="#101828" fill-rule="nonzero"></path>
            <path d="M26.25,36.4 L28.1925,37.625 L26.25,38.8325 L26.25,36.4 L26.25,36.4 Z M24.5,33.25 L24.5,42 L31.5,37.625 L24.5,33.25 L24.5,33.25 Z" id="Shape" fill="#101828" fill-rule="nonzero"></path>
            <g id="Group" transform="translate(7.000000, 26.250000)" fill="#101828" fill-rule="nonzero">
                <path d="M1.75,5.25 C1.75,4.4975 2.9575,3.465 5.25,2.5025 L5.25,0.63 C1.995,1.855 0,3.4825 0,5.25 C0,8.715 7.5775,11.585 17.5,12.145 L17.5,10.395 C7.28,9.8175 1.75,6.86 1.75,5.25 Z" id="Path"></path>
                <path d="M36.75,0.63 L36.75,2.5025 C39.0425,3.465 40.25,4.4975 40.25,5.25 C40.25,6.755 35.35,9.485 26.25,10.2725 L26.25,10.815 L26.25,11.935 L26.25,12.0225 C35.2975,11.2525 42,8.505 42,5.25 C42,3.4825 40.005,1.855 36.75,0.63 Z" id="Path"></path>
            </g>
            <path d="M21.5425,25.375 C22.2775,24.7275 22.75,23.8 22.75,22.75 C22.75,20.825 21.175,19.25 19.25,19.25 C17.325,19.25 15.75,20.825 15.75,22.75 L17.5,22.75 C17.5,21.7875 18.2875,21 19.25,21 C20.2125,21 21,21.7875 21,22.75 C21,23.7125 20.2125,24.5 19.25,24.5 L19.25,24.5 L19.25,26.25 C19.25,26.25 19.25,26.25 19.25,26.25 C20.2125,26.25 21,27.0375 21,28 C21,28.9625 20.2125,29.75 19.25,29.75 C18.2875,29.75 17.5,28.9625 17.5,28 L15.75,28 C15.75,29.925 17.325,31.5 19.25,31.5 C21.175,31.5 22.75,29.925 22.75,28 C22.75,26.95 22.2775,26.0225 21.5425,25.375 Z" id="Path" fill="#101828" fill-rule="nonzero"></path>
            <rect id="Rectangle" x="0" y="0" width="56" height="56"></rect>
        </g>
    </g>
</svg>