<?xml version="1.0" encoding="UTF-8"?>
<svg width="56px" height="56px" viewBox="0 0 56 56" version="1.1" xmlns="http://www.w3.org/2000/svg" xmlns:xlink="http://www.w3.org/1999/xlink">
    <!-- Generator: Sketch 57.1 (83088) - https://sketch.com -->
    <title>165-B56px</title>
    <desc>Created with Sketch.</desc>
    <g id="165-B56px" stroke="none" stroke-width="1" fill="none" fill-rule="evenodd">
        <g>
            <g id="Group" transform="translate(7.000000, 19.250000)" fill="#101828">
                <g id="Fill-286">
                    <path d="M0,0.2625 L0,17.2025 L4.6725,17.2025 L4.6725,10.9375 L7.665,10.9375 L7.665,17.2025 L12.3375,17.2025 L12.3375,0.2625 L7.665,0.2625 L7.665,6.65 L4.6725,6.65 L4.6725,0.2625 L0,0.2625 Z M17.5175,10.64 L17.5175,13.23 L20.0025,13.23 C20.0025,13.23 21,13.125 21,11.83 C21,10.64 20.0025,10.64 20.0025,10.64 L17.5175,10.64 Z M17.5175,4.39249311 L17.5175,6.9475 L20.0025,6.9475 C20.0025,6.9475 21,6.825 21,5.6 C21,4.375 20.0025,4.39249311 20.0025,4.39249311 L17.5175,4.39249311 Z M20.51,0.2625 C21.805,0.2625 25.48,0.9625 25.48,4.585 C25.48,7.5075 24.08,8.365 22.995,8.5575 C22.19,8.715 25.2875,8.5575 25.2875,12.215 C25.2875,17.395 20.8075,17.185 20.8075,17.185 L13.335,17.185 L13.335,0.245 L20.51,0.245 L20.51,0.2625 Z" id="Shape"></path>
                </g>
                <g id="Fill-287" transform="translate(24.500000, 0.000000)">
                    <path d="M8.8375,4.4625 C6.475,4.4625 4.5675,6.3875 4.5675,8.75 C4.5675,11.1125 6.4925,13.02 8.8375,13.02 C11.2,13.02 13.1075,11.095 13.1075,8.75 C13.125,6.3875 11.2,4.4625 8.8375,4.4625 M8.8375,17.4125 C4.06,17.4125 0.175,13.5275 0.175,8.75 C0.175,3.9725 4.06,0.0875 8.8375,0.0875 C13.615,0.0875 17.5,3.9725 17.5,8.75 C17.5,13.5275 13.615,17.4125 8.8375,17.4125" id="Shape"></path>
                </g>
                <g id="Fill-288" transform="translate(29.750000, 5.250000)">
                    <path d="M3.5875,0.4725 C5.25,0.4725 6.615,1.82 6.615,3.5 C6.615,5.1625 5.2675,6.5275 3.5875,6.5275 C1.9075,6.5275 0.56,5.18 0.56,3.5 C0.56,1.8375 1.925,0.4725 3.5875,0.4725" id="Path"></path>
                </g>
            </g>
            <rect id="Rectangle" x="0" y="0" width="56" height="56"></rect>
        </g>
    </g>
</svg>