<?xml version="1.0" encoding="UTF-8"?>
<svg width="56px" height="56px" viewBox="0 0 56 56" version="1.1" xmlns="http://www.w3.org/2000/svg" xmlns:xlink="http://www.w3.org/1999/xlink">
    <!-- Generator: Sketch 57.1 (83088) - https://sketch.com -->
    <title>116-B56px</title>
    <desc>Created with Sketch.</desc>
    <g id="116-B56px" stroke="none" stroke-width="1" fill="none" fill-rule="evenodd">
        <g>
            <g id="Group" transform="translate(7.000000, 8.750000)" fill="#101828" fill-rule="nonzero">
                <path d="M22.96,1.75 L22.96,1.75 C23.3275,1.75 23.695,1.855 24.0975,2.0475 C24.57,2.8 25.62,4.655 26.1975,6.9825 C26.32,7.455 26.3375,7.945 26.25,8.435 L25.06,15.1375 C24.955,15.715 25.1125,16.31 25.4975,16.765 C25.8825,17.22 26.4425,17.4825 27.02,17.4825 L38.955,17.4825 C39.55,17.4825 40.075,17.8675 40.1975,18.3925 C40.2325,18.5675 40.25,18.7775 40.25,18.9875 C40.25,19.705 40.005,20.1425 39.4275,20.44 C38.7975,20.755 38.36,21.35 38.255,22.05 C38.15,22.75 38.395,23.45 38.9025,23.94 C39.2875,24.3075 39.2875,24.6575 39.2875,24.78 C39.2875,25.235 38.8675,25.725 38.465,26.0225 C38.01,26.3725 37.73,26.88 37.6775,27.44 C37.625,28 37.8175,28.56 38.185,28.98 C38.29,29.1025 38.4825,29.365 38.4825,29.8375 C38.4825,30.3275 37.975,30.905 37.625,31.115 C36.6275,31.7625 36.33,33.11 36.96,34.125 C37.0825,34.3175 37.2925,34.7375 37.2925,35.4025 C37.2925,36.0675 36.4,36.7675 35.56,36.7675 L14.91,36.7675 L12.25,35.455 L12.25,21.315 L13.8775,20.09 C14.0525,19.95 14.21,19.81 14.3675,19.635 C15.715,18.095 20.1775,12.775 21.315,9.0125 C21.4025,8.7325 21.4375,8.435 21.4375,8.12 L21.4375,2.3975 C21.4375,2.345 21.49,2.2925 21.5075,2.275 C21.98,1.925 22.47,1.75 22.96,1.75 L22.96,1.75 Z M22.96,0 C21.8925,0 21.035,0.455 20.475,0.8575 C19.985,1.225 19.6875,1.785 19.6875,2.38 L19.6875,8.12 C19.6875,8.2425 19.67,8.3825 19.635,8.505 C18.5675,12.0575 13.79,17.6225 13.0375,18.48 C12.9675,18.55 12.8975,18.62 12.8275,18.6725 L11.06,20.0025 C10.71,20.265 10.5,20.6675 10.5,21.105 L10.5,35.6825 C10.5,36.2075 10.7975,36.6975 11.2875,36.925 L14.21,38.3425 C14.4025,38.4475 14.63,38.4825 14.84,38.4825 L35.56,38.4825 C37.2575,38.4825 39.0425,37.1 39.0425,35.3675 C39.0425,34.3 38.71,33.565 38.4475,33.1625 C38.325,32.9525 38.36,32.69 38.57,32.55 C39.27,32.095 40.215,31.045 40.215,29.8025 C40.215,28.77 39.76,28.0875 39.48,27.7725 C39.375,27.65 39.3925,27.4575 39.515,27.37 C40.005,26.985 41.02,26.04 41.02,24.7275 C41.02,23.7125 40.5125,23.0125 40.0925,22.61 C39.8825,22.4175 39.935,22.0675 40.1975,21.945 C40.915,21.5775 41.9825,20.7375 41.9825,18.935 C41.9825,18.5675 41.9475,18.2525 41.8775,17.955 C41.58,16.6075 40.3375,15.68 38.9375,15.68 L27.0025,15.68 C26.845,15.68 26.74,15.54 26.7575,15.4 L27.9475,8.6975 C28.07,7.98 28.0525,7.245 27.8775,6.5275 C27.2125,3.8325 25.9875,1.7325 25.4975,0.9975 C25.3575,0.7875 25.1825,0.63 24.955,0.5075 C24.255,0.14 23.5725,0 22.96,0 L22.96,0 Z" id="Shape"></path>
                <path d="M10.5,19.67 L10.5,36.75 L1.75,36.75 L1.75,19.67 L10.5,19.67 L10.5,19.67 Z M10.5,17.92 L1.75,17.92 C0.7875,17.92 0,18.7075 0,19.67 L0,36.75 C0,37.7125 0.7875,38.5 1.75,38.5 L10.5,38.5 C11.4625,38.5 12.25,37.7125 12.25,36.75 L12.25,19.67 C12.25,18.7075 11.4625,17.92 10.5,17.92 L10.5,17.92 Z" id="Shape"></path>
            </g>
            <rect id="Rectangle" x="0" y="0" width="56" height="56"></rect>
        </g>
    </g>
</svg>