<?xml version="1.0" encoding="UTF-8"?>
<svg width="56px" height="56px" viewBox="0 0 56 56" version="1.1" xmlns="http://www.w3.org/2000/svg" xmlns:xlink="http://www.w3.org/1999/xlink">
    <!-- Generator: Sketch 54.1 (76490) - https://sketchapp.com -->
    <title>011-G56px</title>
    <desc>Created with Sketch.</desc>
    <g id="NEW_icons" stroke="none" stroke-width="1" fill="none" fill-rule="evenodd">
        <g id="icons_UD_new-Copy" transform="translate(-1728.000000, -1604.000000)">
            <g id="011-G56px" transform="translate(1728.000000, 1604.000000)">
                <circle id="Oval-Copy-147" fill="#E3E8EC" cx="28" cy="28" r="28"></circle>
                <g id="011-B32px-Copy-4" transform="translate(8.000000, 8.000000)">
                    <path d="M6.25,21.275 C6.25,21.2625 6.25,21.2375 6.25,21.225 C6.25,21.2 6.25,21.175 6.25,21.15 L6.25,21.275 Z" id="Path" fill="#101828" fill-rule="nonzero"></path>
                    <path d="M15.2875,29.05 C11.025,29.025 7.5375,25.525 7.5,21.2375 C7.5375,17.65 12.5125,10.5875 15.325,6.9875 C16.875,8.95 19.0625,11.95 20.7375,14.8125 C21.0125,14.425 21.275,14.05 21.5375,13.7 C18.8625,9.2625 15.325,5 15.325,5 C15.325,5 6.3125,15.85 6.25,21.225 C6.2875,26.2375 10.3375,30.3 15.325,30.3 C15.45,30.3 15.5625,30.2875 15.675,30.2875 C15.525,29.8875 15.4,29.475 15.2875,29.05 Z" id="Path" fill="#101828" fill-rule="nonzero"></path>
                    <path d="M24.375,14.4875 C26.9125,17.7125 31.25,23.825 31.25,26.775 L31.25,26.8625 C31.25,30.6625 28.1625,33.75 24.375,33.75 C20.6125,33.75 17.525,30.6875 17.5,26.95 C17.5375,23.8375 21.85,17.7125 24.375,14.4875 L24.375,14.4875 Z M24.375,12.5 C24.375,12.5 16.3125,22.15 16.25,26.925 C16.2875,31.3875 19.9125,34.9875 24.375,34.9875 C28.8625,34.9875 32.5,31.35 32.5,26.85 L32.5,26.7625 C32.5,22.2125 24.375,12.5 24.375,12.5 L24.375,12.5 Z" id="Shape" fill="#101828" fill-rule="nonzero"></path>
                    <rect id="Rectangle" x="0" y="0" width="40" height="40"></rect>
                </g>
            </g>
        </g>
    </g>
</svg>