<?xml version="1.0" encoding="UTF-8"?>
<svg width="80px" height="80px" viewBox="0 0 80 80" version="1.1" xmlns="http://www.w3.org/2000/svg" xmlns:xlink="http://www.w3.org/1999/xlink">
    <!-- Generator: Sketch 57.1 (83088) - https://sketch.com -->
    <title>064-C80px</title>
    <desc>Created with Sketch.</desc>
    <g id="NEW_icons" stroke="none" stroke-width="1" fill="none" fill-rule="evenodd">
        <g id="icons_UD_new-Copy" transform="translate(-1002.000000, -8515.000000)">
            <g id="064-C80px" transform="translate(1002.000000, 8515.000000)">
                <circle id="Oval-Copy-435" fill="#FF4F12" cx="40" cy="40" r="40"></circle>
                <g id="064-B32px-Copy-8" transform="translate(12.000000, 12.000000)">
                    <path d="M28,45.5 C28.4725,45.5 28.875,45.115 28.875,44.625 C28.875,44.135 28.4725,43.75 28,43.75 C27.5275,43.75 27.125,44.135 27.125,44.625 C27.125,45.115 27.5275,45.5 28,45.5" id="Path" fill="#FFFFFF" fill-rule="nonzero"></path>
                    <rect id="Rectangle" fill="#FFFFFF" fill-rule="nonzero" x="14" y="40.25" width="28" height="1.75"></rect>
                    <path d="M40.25,29.6975 L40.25,47.145 C40.25,47.1975 40.215,47.2325 40.1625,47.2325 L15.8375,47.2325 C15.785,47.25 15.75,47.215 15.75,47.1625 L15.75,29.715 C15.47,29.7325 15.1725,29.75 14.875,29.75 C14.5775,29.75 14.28,29.7325 14,29.6975 L14,47.145 C14,48.1775 14.8225,49 15.8375,49 L40.1625,49 C41.1775,49 42,48.1775 42,47.1625 L42,29.715 C41.72,29.7325 41.4225,29.75 41.125,29.75 C40.8275,29.75 40.53,29.7325 40.25,29.6975 Z" id="Path" fill="#FFFFFF" fill-rule="nonzero"></path>
                    <path d="M40.1625,7 L15.8375,7 C14.8225,7 14,7.8225 14,8.8375 L14,10.535 C14.28,10.5175 14.5775,10.5 14.875,10.5 C15.1725,10.5 15.47,10.5175 15.75,10.5525 L15.75,8.8375 C15.75,8.785 15.785,8.75 15.8375,8.75 L40.1625,8.75 C40.215,8.75 40.25,8.785 40.25,8.8375 L40.25,10.535 C40.53,10.5175 40.8275,10.5 41.125,10.5 C41.4225,10.5 41.72,10.5175 42,10.5525 L42,8.8375 C42,7.8225 41.1775,7 40.1625,7 Z" id="Path" fill="#FFFFFF" fill-rule="nonzero"></path>
                    <path d="M14.875,14 C18.2525,14 21,16.7475 21,20.125 C21,23.5025 18.2525,26.25 14.875,26.25 C11.4975,26.25 8.75,23.5025 8.75,20.125 C8.75,16.7475 11.4975,14 14.875,14 L14.875,14 Z M14.875,12.25 C10.5175,12.25 7,15.7675 7,20.125 C7,24.4825 10.5175,28 14.875,28 C19.2325,28 22.75,24.4825 22.75,20.125 C22.75,15.7675 19.2325,12.25 14.875,12.25 L14.875,12.25 Z" id="Shape" fill="#FFFFFF" fill-rule="nonzero"></path>
                    <path d="M41.125,14 C44.5025,14 47.25,16.7475 47.25,20.125 C47.25,23.5025 44.5025,26.25 41.125,26.25 C37.7475,26.25 35,23.5025 35,20.125 C35,16.7475 37.7475,14 41.125,14 L41.125,14 Z M41.125,12.25 C36.7675,12.25 33.25,15.7675 33.25,20.125 C33.25,24.4825 36.7675,28 41.125,28 C45.4825,28 49,24.4825 49,20.125 C49,15.7675 45.4825,12.25 41.125,12.25 L41.125,12.25 Z" id="Shape" fill="#FFFFFF" fill-rule="nonzero"></path>
                    <path d="M26.915,33.4425 C26.81,33.4425 26.705,33.4425 26.6,33.4425 C26.6,33.4425 26.5825,33.4425 26.5825,33.4425 C26.495,33.4425 26.425,33.425 26.3375,33.425 C26.2325,33.4075 26.1275,33.4075 26.0225,33.3725 C25.865,33.3375 25.7075,33.3025 25.55,33.25 C25.235,33.145 24.9375,33.005 24.6575,32.83 C24.6575,32.83 24.64,32.83 24.64,32.8125 C25.0075,32.8475 25.3575,32.83 25.7075,32.725 C26.0575,32.62 26.3725,32.4625 26.67,32.235 C26.4775,32.235 26.3025,32.1825 26.1275,32.1125 C25.9525,32.025 25.795,31.92 25.6725,31.78 C25.55,31.64 25.445,31.4825 25.3925,31.29 C25.6025,31.325 25.795,31.325 26.005,31.2725 C25.69,31.2025 25.4275,31.045 25.2175,30.7825 C24.9725,30.485 24.9025,30.1175 24.92,29.9075 C25.0075,29.96 25.1125,29.995 25.2175,30.03 C25.3225,30.065 25.4975,30.0825 25.5325,30.0825 C25.235,29.8725 25.0425,29.61 24.9725,29.2425 C24.885,28.8925 24.9375,28.56 25.13,28.245 C25.48,28.665 25.9,29.015 26.39,29.26 C26.88,29.505 27.405,29.645 27.965,29.68 C27.965,29.68 27.965,29.6625 27.965,29.6625 C27.9475,29.5925 27.9475,29.5225 27.93,29.4525 C27.9125,29.3125 27.93,29.1725 27.965,29.0325 C28.035,28.7525 28.175,28.5075 28.4025,28.315 C28.56,28.175 28.7175,28.0875 28.91,28.035 C28.9975,28 29.085,27.9825 29.19,27.9825 C29.2075,27.9825 29.225,27.9825 29.2425,27.9825 C29.295,27.9825 29.33,27.9825 29.3825,27.9825 C29.3825,27.9825 29.4,27.9825 29.4,27.9825 C29.47,27.9825 29.5225,28 29.5925,28 C29.75,28.035 29.9075,28.0875 30.03,28.175 C30.135,28.245 30.2225,28.315 30.31,28.4025 C30.31,28.4025 30.3275,28.42 30.3275,28.42 C30.5025,28.385 30.66,28.3325 30.835,28.2625 C30.9575,28.21 31.0625,28.1575 31.1675,28.0875 C31.1675,28.0875 31.1675,28.0875 31.185,28.0875 C31.08,28.4025 30.87,28.665 30.59,28.84 C30.6425,28.84 30.695,28.8225 30.7475,28.8225 C30.8,28.805 30.8525,28.805 30.905,28.7875 C30.9575,28.77 31.01,28.7525 31.0625,28.7525 C31.115,28.735 31.1675,28.7175 31.22,28.7 C31.2725,28.6825 31.325,28.665 31.3775,28.6475 C31.3775,28.6475 31.3775,28.665 31.3775,28.665 C31.3425,28.7175 31.3075,28.77 31.2725,28.805 C31.15,28.98 30.9925,29.12 30.835,29.26 C30.8,29.295 30.765,29.3125 30.73,29.3475 C30.73,29.3475 30.7125,29.365 30.7125,29.365 C30.7125,29.3825 30.7125,29.3825 30.7125,29.4 C30.7125,29.6275 30.7125,29.8375 30.6775,30.065 C30.66,30.1875 30.6425,30.31 30.6075,30.415 C30.555,30.6075 30.5025,30.8175 30.415,31.01 C30.2925,31.3075 30.1525,31.5875 29.96,31.85 C29.785,32.1125 29.575,32.34 29.33,32.5325 C29.19,32.655 29.05,32.76 28.8925,32.865 C28.63,33.0225 28.35,33.1625 28.07,33.25 C27.9125,33.3025 27.755,33.3375 27.58,33.3725 C27.51,33.39 27.4225,33.39 27.335,33.4075 C27.2825,33.4075 27.2125,33.425 27.16,33.425 C27.055,33.4425 27.0025,33.4425 26.915,33.4425 C26.9325,33.4425 26.915,33.4425 26.915,33.4425 Z" id="Path" fill="#FFFFFF" fill-rule="nonzero"></path>
                    <path d="M43.4875,19.3375 C43.4175,19.845 43.3475,20.3175 43.295,20.7725 C43.2775,20.895 43.225,20.93 43.1025,20.93 C42.7875,20.93 42.4725,20.93 42.1575,20.93 C41.8775,20.93 41.8775,20.93 41.8775,21.2275 C41.8775,22.0325 41.8775,22.8375 41.8775,23.6425 C41.8775,23.87 41.86,24.0975 41.86,24.3425 C41.86,24.465 41.8075,24.5 41.685,24.5 C41.265,24.5 40.845,24.5 40.4075,24.5 C40.25,24.5 40.2325,24.43 40.2325,24.3075 C40.215,23.275 40.215,22.2425 40.1975,21.21 C40.1975,20.9475 40.1975,20.9475 39.935,20.9475 C39.6025,20.9475 39.2525,20.93 38.92,20.9475 C38.7975,20.9475 38.7275,20.9125 38.7275,20.7725 C38.745,20.335 38.7625,19.88 38.7625,19.4425 C38.7625,19.32 38.815,19.3025 38.92,19.3025 C39.27,19.3025 39.6375,19.3025 39.9875,19.3025 C40.145,19.3025 40.1975,19.25 40.1975,19.0925 C40.1975,18.6025 40.1975,18.1125 40.2325,17.6225 C40.3025,16.6075 41.09,15.8725 42.0875,15.8375 C42.5075,15.82 42.9275,15.8375 43.365,15.8375 C43.4875,15.8375 43.54,15.89 43.54,16.0125 C43.5225,16.415 43.505,16.8175 43.505,17.22 C43.505,17.3425 43.435,17.36 43.33,17.36 C43.015,17.36 42.7,17.36 42.4025,17.395 C42.07,17.43 41.895,17.6575 41.8775,17.99 C41.86,18.375 41.8775,18.7425 41.86,19.1275 C41.86,19.2675 41.93,19.3025 42.035,19.3025 C42.4375,19.3025 42.8575,19.32 43.26,19.3375 C43.3475,19.32 43.4,19.3375 43.4875,19.3375 Z" id="Path" fill="#FFFFFF" fill-rule="nonzero"></path>
                    <path d="M19.4775,22.4875 C19.4075,22.715 19.2325,22.7325 19.04,22.7325 C18.6025,22.75 18.165,22.75 17.7275,22.75 C17.4475,22.75 17.22,22.5925 17.0275,22.4 C16.835,22.2075 16.66,21.98 16.4675,21.7875 C16.3975,21.7175 16.31,21.63 16.2225,21.5775 C16.0825,21.4725 15.9775,21.49 15.855,21.63 C15.715,21.7875 15.68,21.98 15.6625,22.19 C15.6625,22.26 15.6625,22.33 15.645,22.4 C15.6275,22.6275 15.54,22.715 15.33,22.715 C14.875,22.7325 14.42,22.7675 13.965,22.61 C13.2825,22.3825 12.7225,21.98 12.2675,21.4375 C11.445,20.4225 10.815,19.285 10.29,18.095 C10.2025,17.9025 10.255,17.78 10.4825,17.745 C10.535,17.745 10.57,17.745 10.6225,17.745 C11.025,17.745 11.41,17.745 11.8125,17.745 C12.0225,17.745 12.1275,17.8325 12.2325,18.0075 C12.4775,18.4975 12.705,18.9875 12.9675,19.46 C13.0725,19.67 13.2125,19.845 13.405,19.985 C13.475,20.0375 13.5625,20.09 13.6675,20.055 C13.7025,20.0375 13.7375,20.02 13.755,19.985 C13.8425,19.845 13.86,19.6875 13.8775,19.53 C13.9125,19.215 13.93,18.9175 13.895,18.6025 C13.8775,18.4625 13.86,18.3225 13.825,18.2 C13.7725,18.0075 13.6325,17.9375 13.4575,17.885 C13.4225,17.8675 13.3875,17.8675 13.3175,17.85 C13.3525,17.7975 13.37,17.7625 13.3875,17.7275 C13.51,17.605 13.65,17.5525 13.825,17.535 C14.315,17.4825 14.805,17.465 15.295,17.5525 C15.54,17.5875 15.6275,17.675 15.645,17.955 C15.6625,18.2525 15.645,18.55 15.645,18.83 C15.645,19.1275 15.645,19.425 15.6625,19.7225 C15.6625,19.7925 15.6975,19.8625 15.7325,19.9325 C15.82,20.055 15.9425,20.0725 16.0475,19.9675 C16.205,19.81 16.345,19.6525 16.4675,19.4775 C16.8,19.0225 17.0625,18.515 17.255,17.99 C17.3425,17.7625 17.4125,17.7275 17.64,17.7275 C18.13,17.7275 18.62,17.7275 19.11,17.71 C19.2499944,17.71 19.39,17.7275 19.4775,17.8675 C19.4775,17.92 19.4775,17.955 19.4775,18.0075 C19.4425,18.0775 19.425,18.165 19.39,18.235 C19.215,18.62 18.9525,18.9525 18.7075,19.3025 C18.4975,19.6 18.27,19.88 18.06,20.1775 C17.92,20.3875 17.9375,20.545 18.1125,20.72 C18.3225,20.93 18.55,21.14 18.7425,21.35 C19.04,21.6475 19.3375,21.945 19.46,22.365 C19.4775,22.435 19.4775,22.4525 19.4775,22.4875 Z" id="Path" fill="#FFFFFF" fill-rule="nonzero"></path>
                    <path d="M28,24.5 C31.3775,24.5 34.125,27.2475 34.125,30.625 C34.125,34.0025 31.3775,36.75 28,36.75 C24.6225,36.75 21.875,34.0025 21.875,30.625 C21.875,27.2475 24.6225,24.5 28,24.5 L28,24.5 Z M28,22.75 C23.6425,22.75 20.125,26.2675 20.125,30.625 C20.125,34.9825 23.6425,38.5 28,38.5 C32.3575,38.5 35.875,34.9825 35.875,30.625 C35.875,26.2675 32.3575,22.75 28,22.75 L28,22.75 Z" id="Shape" fill="#FFFFFF" fill-rule="nonzero"></path>
                    <rect id="Rectangle" x="0" y="0" width="56" height="56"></rect>
                </g>
            </g>
        </g>
    </g>
</svg>