<?xml version="1.0" encoding="UTF-8"?>
<svg width="56px" height="56px" viewBox="0 0 56 56" version="1.1" xmlns="http://www.w3.org/2000/svg" xmlns:xlink="http://www.w3.org/1999/xlink">
    <!-- Generator: Sketch 57.1 (83088) - https://sketch.com -->
    <title>001-B56px</title>
    <desc>Created with Sketch.</desc>
    <g id="001-B56px" stroke="none" stroke-width="1" fill="none" fill-rule="evenodd">
        <g>
            <g id="Group" transform="translate(7.000000, 7.000000)" fill="#101828" fill-rule="nonzero">
                <path d="M35,19.25 L35,19.25 L35.0175,40.25 L7,40.2675 L7,21 L7,19.25 L7,17.5 L5.25,17.5 L5.25,40.2675 C5.25,41.23 6.02,42 6.9825,42 L35.035,42 C35.98,42 36.7675,41.23 36.7675,40.2675 L36.7675,17.5 L35.0175,17.5 L35.0175,19.25 L35,19.25 Z" id="Path"></path>
                <polygon id="Path" points="21 0.0175 0.315 17.0975 1.435 18.445 21 2.275 40.565 18.445 41.685 17.0975"></polygon>
                <path d="M24.64,27.7375 C23.695,26.81 22.4175,26.25 21,26.25 C19.5475,26.25 18.235,26.845 17.29,27.79 L18.5325,29.0325 C19.1625,28.385 20.0375,28 21,28 C21.9275,28 22.785,28.3675 23.3975,28.9625 L24.64,27.7375 Z" id="Path"></path>
                <path d="M19.7575,30.2575 L20.93,31.43 L22.155,30.205 C21.8575,29.925 21.455,29.75 21,29.75 C20.51,29.75 20.0725,29.9425 19.7575,30.2575 Z" id="Path"></path>
                <path d="M27.125,25.2525 C25.5325,23.7125 23.38,22.75 21,22.75 C18.585,22.75 16.3975,23.73 14.805,25.305 L16.0475,26.5475 C17.325,25.2875 19.075,24.5 21,24.5 C22.89,24.5 24.6225,25.27 25.8825,26.495 L27.125,25.2525 Z" id="Path"></path>
            </g>
            <rect id="Rectangle" x="0" y="0" width="56" height="56"></rect>
        </g>
    </g>
</svg>