<?xml version="1.0" encoding="UTF-8"?>
<svg width="42px" height="42px" viewBox="0 0 42 42" version="1.1" xmlns="http://www.w3.org/2000/svg" xmlns:xlink="http://www.w3.org/1999/xlink">
    <!-- Generator: Sketch 57.1 (83088) - https://sketch.com -->
    <title>096-G40px</title>
    <desc>Created with Sketch.</desc>
    <g id="NEW_icons" stroke="none" stroke-width="1" fill="none" fill-rule="evenodd">
        <g id="icons_UD_new-Copy" transform="translate(-244.000000, -12564.000000)">
            <g id="096-G40px" transform="translate(245.000000, 12565.000000)">
                <circle id="Oval-Copy-645" stroke="#E3E8EC" cx="20" cy="20" r="20"></circle>
                <g id="096-B32px-Copy" transform="translate(4.000000, 4.000000)">
                    <g id="Group" transform="translate(4.000000, 4.000000)" fill="#101828" fill-rule="nonzero">
                        <path d="M2.33,23.73 L1.82,22.87 C5.51,20.69 4.03,16.8 2.83,14.68 L0.98,11.43 C-1.05,7.85 0.19,3.27 3.75,1.21 C7.33,-0.86 11.93,0.36 14.01,3.93 L15.84,7.07 C17.08,9.19 19.71,12.43 23.46,10.26 L23.96,11.12 L23.96,11.12 L2.33,23.73 Z M7.5,1.2 C6.39,1.2 5.27,1.48 4.25,2.08 C1.17,3.87 0.09,7.84 1.85,10.94 L3.7,14.19 C5.24,16.89 5.56,19.31 4.72,21.19 L20.58,11.94 C18.5,11.74 16.53,10.25 14.98,7.58 L13.15,4.44 C11.94,2.36 9.75,1.2 7.5,1.2 Z" id="Shape"></path>
                        <path d="M12.97,22.91 C10.97,22.91 9.01,21.87 7.94,20.02 L8.81,19.52 C10.14,21.81 13.09,22.6 15.38,21.27 C16.49,20.63 17.28,19.59 17.61,18.35 C17.94,17.11 17.77,15.82 17.12,14.71 L17.99,14.21 C18.77,15.55 18.98,17.12 18.58,18.61 C18.18,20.11 17.22,21.36 15.88,22.14 C14.96,22.66 13.96,22.91 12.97,22.91 Z" id="Path"></path>
                    </g>
                    <rect id="Rectangle" x="0" y="0" width="32" height="32"></rect>
                </g>
            </g>
        </g>
    </g>
</svg>