<?xml version="1.0" encoding="UTF-8"?>
<svg width="42px" height="42px" viewBox="0 0 42 42" version="1.1" xmlns="http://www.w3.org/2000/svg" xmlns:xlink="http://www.w3.org/1999/xlink">
    <!-- Generator: Sketch 56.3 (81716) - https://sketch.com -->
    <title>150-G40px</title>
    <desc>Created with Sketch.</desc>
    <g id="NEW_icons" stroke="none" stroke-width="1" fill="none" fill-rule="evenodd">
        <g id="icons_UD_new-Copy" transform="translate(-244.000000, -19192.000000)">
            <g id="150-G40px" transform="translate(245.000000, 19193.000000)">
                <circle id="Oval-Copy-909" stroke="#E3E8EC" cx="20" cy="20" r="20"></circle>
                <g id="150-B32px-Copy" transform="translate(4.000000, 4.000000)">
                    <path d="M27,19 L27,22 L12,22 L12,19 L27,19 L27,19 Z M27.05,18 L11.95,18 C11.42,18 11,18.42 11,18.95 L11,22.06 C11,22.58 11.42,23.01 11.95,23.01 L27.06,23.01 C27.58,23.01 28.01,22.59 28.01,22.06 L28.01,18.95 C28,18.42 27.58,18 27.05,18 L27.05,18 Z" id="Shape" fill="#101828" fill-rule="nonzero"></path>
                    <rect id="Rectangle" fill="#101828" fill-rule="nonzero" x="14" y="20" width="3" height="1"></rect>
                    <polygon id="Path" fill="#101828" fill-rule="nonzero" points="26 22 23 22 23 24 26 24"></polygon>
                    <polygon id="Path" fill="#101828" fill-rule="nonzero" points="16 22 13 22 13 24 16 24"></polygon>
                    <polygon id="Path" fill="#101828" fill-rule="nonzero" points="21 20 20 20 20 21 21 21"></polygon>
                    <polygon id="Path" fill="#101828" fill-rule="nonzero" points="23 20 22 20 22 21 23 21"></polygon>
                    <polygon id="Path" fill="#101828" fill-rule="nonzero" points="25 20 24 20 24 21 25 21"></polygon>
                    <g id="Group" transform="translate(4.000000, 9.000000)" fill="#101828" fill-rule="nonzero">
                        <path d="M3,13.02 L6,13.02 L6,12 L1,12 L1.02,1 L22.98,1 L23,1.02 L22.98,8 L24,8 L24,1.02 C24,0.46 23.54,0 22.98,0 L1.02,0 C0.46,0 0,0.46 0,1.02 L0,12 C0,12.53 0.41,12.95 0.93,13 L3,13 L3,13.02 Z" id="Path"></path>
                        <path d="M6,13.38 C4.68,13.58 3.65,13.8 3,13.96 L3,15 C3.58,14.85 4.62,14.61 6,14.4 L6,13.38 Z" id="Path"></path>
                        <path d="M20.98,15 C20.98,15 20.99,15 21,15 L21,15 L20.98,15 Z" id="Path"></path>
                    </g>
                    <rect id="Rectangle" x="0" y="0" width="32" height="32"></rect>
                </g>
            </g>
        </g>
    </g>
</svg>