<?xml version="1.0" encoding="UTF-8"?>
<svg width="42px" height="42px" viewBox="0 0 42 42" version="1.1" xmlns="http://www.w3.org/2000/svg" xmlns:xlink="http://www.w3.org/1999/xlink">
    <!-- Generator: Sketch 54.1 (76490) - https://sketchapp.com -->
    <title>015-G40px</title>
    <desc>Created with Sketch.</desc>
    <g id="NEW_icons" stroke="none" stroke-width="1" fill="none" fill-rule="evenodd">
        <g id="icons_UD_new-Copy" transform="translate(-1526.000000, -2121.000000)">
            <g id="015-G40px" transform="translate(1527.000000, 2122.000000)">
                <circle id="Oval-Copy-169" stroke="#E3E8EC" cx="20" cy="20" r="20"></circle>
                <g id="015-B32px-Copy-2" transform="translate(4.000000, 4.000000)">
                    <path d="M12.5,25.99 C12.77,25.99 13,25.77 13,25.49 C13,25.21 12.77,25 12.5,25 C12.23,25 12,25.22 12,25.5 C12,25.78 12.23,25.99 12.5,25.99" id="Path" fill="#101828" fill-rule="nonzero"></path>
                    <rect id="Rectangle" fill="#101828" fill-rule="nonzero" x="4.3" y="23" width="12" height="1"></rect>
                    <path d="M16.01,27 L5,27.01 L4.99,5 L19,5 L19,9 L20,9 L20,4.99 C20,4.45 19.55,4 19.01,4 L4.99,4 C4.45,4 4,4.45 4,4.99 L4,27 C4,27.55 4.45,28 4.99,28 L16.31,28 C16.13,27.71 16.02,27.37 16.01,27 Z" id="Path" fill="#101828" fill-rule="nonzero"></path>
                    <path d="M26.98,11 L26.99,26.99 L18,27 L17.99,11 L26.98,11 L26.98,11 Z M26.99,10 L18,10 C17.45,10 17,10.45 17,10.99 L17,26.99 C17,27.54 17.45,27.98 17.99,27.98 L26.98,27.98 C27.53,27.98 27.97,27.53 27.97,26.99 L27.97,10.99 C27.98,10.45 27.54,10 26.99,10 L26.99,10 Z" id="Shape" fill="#101828" fill-rule="nonzero"></path>
                    <path d="M21.99,25.99 C22.26,25.99 22.49,25.77 22.49,25.49 C22.49,25.21 22.27,24.99 21.99,24.99 C21.71,24.99 21.49,25.21 21.49,25.49 C21.49,25.77 21.72,25.99 21.99,25.99" id="Path" fill="#101828" fill-rule="nonzero"></path>
                    <rect id="Rectangle" fill="#101828" fill-rule="nonzero" x="18" y="23" width="9" height="1"></rect>
                    <path d="M16,15.3 C15.65,15.73 15.24,16.09 14.76,16.37 C15.33,15.38 15.68,14.01 15.68,12.5 C15.68,10.99 15.33,9.62 14.76,8.63 C15.37,8.99 15.88,9.49 16.27,10.08 C16.44,9.77 16.68,9.51 16.98,9.32 C15.99,7.92 14.35,7 12.5,7 C12.5,7 12.5,7 12.49,7 C12.49,7 12.49,7 12.49,7 C12.49,7 12.48,7 12.48,7 C9.45,7.01 7,9.47 7,12.5 C7,15.53 9.45,17.99 12.48,18 C12.48,18 12.49,18 12.49,18 C12.49,18 12.49,18 12.49,18 C12.49,18 12.49,18 12.5,18 C13.83,18 15.05,17.53 16,16.74 L16,15.3 Z M8.39,10.68 L9.48,10.68 C9.4,11.1 9.34,11.54 9.31,12 L8.05,12 C8.1,11.54 8.21,11.09 8.39,10.68 Z M8.39,14.32 C8.21,13.91 8.1,13.46 8.05,13 L9.31,13 C9.33,13.46 9.39,13.9 9.48,14.32 L8.39,14.32 Z M9.02,15.32 L9.75,15.32 C9.88,15.7 10.04,16.05 10.21,16.36 C9.76,16.08 9.35,15.73 9.02,15.32 Z M9.75,9.68 L9.02,9.68 C9.36,9.27 9.76,8.91 10.22,8.64 C10.04,8.96 9.88,9.31 9.75,9.68 Z M12,16.85 C11.56,16.61 11.15,16.07 10.83,15.32 L12,15.32 L12,16.85 Z M12,14.32 L10.5,14.32 C10.41,13.92 10.35,13.47 10.32,13 L12,13 L12,14.32 Z M12,12 L10.33,12 C10.36,11.54 10.41,11.09 10.51,10.68 L12,10.68 L12,12 Z M12,9.68 L10.83,9.68 C11.14,8.93 11.56,8.39 12,8.15 L12,9.68 Z M13,8.16 C13.43,8.4 13.84,8.94 14.15,9.68 L13,9.68 L13,8.16 Z M13,16.84 L13,15.32 L14.15,15.32 C13.84,16.06 13.43,16.59 13,16.84 Z M14.48,14.32 L13,14.32 L13,13 L14.66,13 C14.63,13.47 14.57,13.91 14.48,14.32 Z M13,12 L13,10.68 L14.48,10.68 C14.57,11.08 14.63,11.53 14.66,12 L13,12 Z" id="Shape" fill="#101828" fill-rule="nonzero"></path>
                    <rect id="Rectangle" x="0" y="0" width="32" height="32"></rect>
                </g>
            </g>
        </g>
    </g>
</svg>