<?xml version="1.0" encoding="UTF-8"?>
<svg width="42px" height="42px" viewBox="0 0 42 42" version="1.1" xmlns="http://www.w3.org/2000/svg" xmlns:xlink="http://www.w3.org/1999/xlink">
    <!-- Generator: Sketch 54.1 (76490) - https://sketchapp.com -->
    <title>004-G40px</title>
    <desc>Created with Sketch.</desc>
    <g id="NEW_icons" stroke="none" stroke-width="1" fill="none" fill-rule="evenodd">
        <g id="icons_UD_new-Copy" transform="translate(-244.000000, -866.000000)">
            <g id="004-G40px" transform="translate(245.000000, 867.000000)">
                <circle id="Oval-Copy-96" stroke="#E3E8EC" cx="20" cy="20" r="20"></circle>
                <g id="004-B32px-Copy-7" transform="translate(4.000000, 4.000000)">
                    <path d="M27.13,11.97 L22.1,5.96 C21.3,5 19.96,4.7 18.83,5.23 L10.53,9.14 L8.87,9.89 C7.81,10.37 6.75,10.85 5.69,11.31 C4.6,11.78 4.04,12.52 4.02,13.49 C3.99,15.91 4,18.32 4.02,20.72 C4.02,21.54 4.48,22.2 5.25,22.51 C6.14,22.86 7.05,23.19 7.93,23.51 C8.43,23.69 8.92,23.87 9.42,24.05 L9.84,24.21 C11.88,24.97 13.93,25.73 15.97,26.5 C16.37,26.65 16.73,26.77 17.07,26.85 C17.42,26.94 17.79,26.99 18.14,26.99 C18.14,26.99 18.16,26.99 18.17,26.99 C18.19,26.99 18.2,26.99 18.22,26.99 C18.22,26.99 18.23,26.99 18.23,26.99 C18.24,26.99 18.25,26.99 18.25,26.99 L18.25,26.99 L18.25,26.99 L18.25,26.99 L18.33,26.99 C18.38,26.99 18.42,26.98 18.47,26.97 C18.48,26.97 18.48,26.97 18.49,26.97 C18.96,26.94 19.41,26.85 19.84,26.66 C20.95,26.17 22.06,25.65 23.14,25.15 L23.22,25.11 C24.05,24.73 24.87,24.34 25.71,23.96 C25.89,23.88 26.05,23.77 26.19,23.64 L26.36,23.56 C27.36,23.1 28,22.09 28,20.98 L28,14.38 C28,13.5 27.69,12.64 27.13,11.97 Z M14.36,14.57 L14.36,13.28 L17.29,16.78 C17.67,17.23 17.91,17.79 17.99,18.37 L15.32,17.4 C14.65,17.16 14.33,16.7 14.36,16.03 C14.38,15.69 14.37,15.34 14.37,15.01 C14.36,14.87 14.36,14.72 14.36,14.57 Z M16.31,25.62 C14.27,24.84 12.22,24.08 10.18,23.32 L9.76,23.16 C9.26,22.97 8.76,22.79 8.24,22.6 C7.37,22.29 6.48,21.96 5.61,21.62 C5.21,21.46 4.98,21.14 4.98,20.71 C4.96,18.5 4.95,16.01 4.98,13.5 C4.98,13.13 5.1,12.59 6.08,12.17 C7.18,11.69 8.27,11.2 9.36,10.7 L10.89,10.01 C11.43,10.07 11.92,10.33 12.28,10.76 L13.43,12.13 L13.43,15.02 C13.43,15.33 13.44,15.66 13.42,15.98 C13.36,17.06 13.94,17.9 15,18.28 C15.93,18.62 16.87,18.96 17.8,19.3 L18,19.39 L18.01,25.17 C18.01,25.51 17.84,25.81 17.55,25.99 C17.18,25.92 16.78,25.8 16.31,25.62 Z" id="Shape" fill="#101828" fill-rule="nonzero"></path>
                    <rect id="Rectangle" x="0" y="0" width="32" height="32"></rect>
                </g>
            </g>
        </g>
    </g>
</svg>