<?xml version="1.0" encoding="UTF-8"?>
<svg width="42px" height="42px" viewBox="0 0 42 42" version="1.1" xmlns="http://www.w3.org/2000/svg" xmlns:xlink="http://www.w3.org/1999/xlink">
    <!-- Generator: Sketch 56.3 (81716) - https://sketch.com -->
    <title>027-G40px</title>
    <desc>Created with Sketch.</desc>
    <g id="NEW_icons" stroke="none" stroke-width="1" fill="none" fill-rule="evenodd">
        <g id="icons_UD_new-Copy" transform="translate(-1526.000000, -3628.000000)">
            <g id="027-G40px" transform="translate(1527.000000, 3629.000000)">
                <circle id="Oval-Copy-241" stroke="#E3E8EC" cx="20" cy="20" r="20"></circle>
                <g id="027-B32px-Copy-4" transform="translate(4.000000, 4.000000)">
                    <path d="M11,8.4 L19.95,11.5 L11,14.6 L11,8.4 L11,8.4 Z M10,7 L10,16 L23,11.5 L10,7 L10,7 Z" id="Shape" fill="#101828" fill-rule="nonzero"></path>
                    <path d="M10.5,5 C10.78,5 11,5.22 11,5.5 C11,5.78 10.78,6 10.5,6 C10.22,6 10,5.78 10,5.5 C10,5.22 10.23,5 10.5,5 L10.5,5 Z M10.5,4 C9.67,4 9,4.67 9,5.5 C9,6.33 9.67,7 10.5,7 C11.33,7 12,6.33 12,5.5 C12,4.67 11.33,4 10.5,4 L10.5,4 Z" id="Shape" fill="#101828" fill-rule="nonzero"></path>
                    <polygon id="Path" fill="#101828" fill-rule="nonzero" points="11 6 10 6 10 28 11 28"></polygon>
                    <rect id="Rectangle" x="0" y="0" width="32" height="32"></rect>
                </g>
            </g>
        </g>
    </g>
</svg>