<?xml version="1.0" encoding="UTF-8"?>
<svg width="56px" height="56px" viewBox="0 0 56 56" version="1.1" xmlns="http://www.w3.org/2000/svg" xmlns:xlink="http://www.w3.org/1999/xlink">
    <!-- Generator: Sketch 57.1 (83088) - https://sketch.com -->
    <title>092-B56px</title>
    <desc>Created with Sketch.</desc>
    <g id="092-B56px" stroke="none" stroke-width="1" fill="none" fill-rule="evenodd">
        <g>
            <path d="M28,45.5 C28.4725,45.5 28.8575,45.115 28.8575,44.625 C28.8575,44.135 28.4725,43.75 28,43.75 C27.5275,43.75 27.1425,44.135 27.1425,44.625 C27.1425,45.115 27.5275,45.5 28,45.5" id="Path" fill="#101828" fill-rule="nonzero"></path>
            <rect id="Rectangle" fill="#101828" fill-rule="nonzero" x="14" y="40.25" width="27.5975" height="1.75"></rect>
            <path d="M21.77,21 C22.225,21 22.61,21.385 22.61,21.875 C22.61,22.365 22.225,22.75 21.77,22.75 C21.315,22.75 20.93,22.365 20.93,21.875 C20.93,21.385 21.2975,21 21.77,21 L21.77,21 Z M21.77,19.25 C20.335,19.25 19.18,20.4225 19.18,21.875 C19.18,23.3275 20.335,24.5 21.77,24.5 C23.205,24.5 24.36,23.3275 24.36,21.875 C24.36,20.4225 23.1875,19.25 21.77,19.25 L21.77,19.25 Z" id="Shape" fill="#101828" fill-rule="nonzero"></path>
            <path d="M21.77,24.5 C22.225,24.5 22.61,24.885 22.61,25.375 C22.61,25.865 22.225,26.25 21.77,26.25 C21.315,26.25 20.93,25.865 20.93,25.375 C20.93,24.885 21.2975,24.5 21.77,24.5 L21.77,24.5 Z M21.77,22.75 C20.335,22.75 19.18,23.9225 19.18,25.375 C19.18,26.8275 20.335,28 21.77,28 C23.205,28 24.36,26.8275 24.36,25.375 C24.36,23.9225 23.1875,22.75 21.77,22.75 L21.77,22.75 Z" id="Shape" fill="#101828" fill-rule="nonzero"></path>
            <path d="M40.25,29.75 L40.25,47.1625 C40.25,47.215 40.215,47.25 40.1625,47.25 L15.8375,47.25 C15.785,47.25 15.75,47.215 15.75,47.1625 L15.75,8.8375 C15.75,8.785 15.785,8.75 15.8375,8.75 L40.1625,8.75 C40.215,8.75 40.25,8.785 40.25,8.8375 L40.25,17.5 L42,17.5 L42,8.8375 C42,7.8225 41.1775,7 40.1625,7 L15.8375,7 C14.8225,7 14,7.8225 14,8.8375 L14,47.1625 C14,48.1775 14.8225,49 15.8375,49 L40.1625,49 C41.1775,49 42,48.1775 42,47.1625 L42,29.75 L40.25,29.75 Z" id="Path" fill="#101828" fill-rule="nonzero"></path>
            <polygon id="Path" fill="#101828" fill-rule="nonzero" points="25.3925 28 27.3525 28 28.63 25.515 29.925 28 31.8675 28 29.61 23.6425 31.885 19.25 29.9425 19.25 28.63 21.7525 27.335 19.25 25.375 19.25 27.65 23.6425"></polygon>
            <polygon id="Path" fill="#101828" fill-rule="nonzero" points="32.9875 28 34.9475 28 36.225 25.515 37.52 28 39.48 28 37.205 23.6425 39.48 19.25 37.5375 19.25 36.225 21.7525 34.93 19.25 32.97 19.25 35.2625 23.6425"></polygon>
            <polygon id="Path" fill="#101828" fill-rule="nonzero" points="40.7575 28 42.7 28 43.995 25.515 45.29 28 47.2325 28 44.975 23.6425 47.25 19.25 45.3075 19.25 43.995 21.7525 42.7 19.25 40.74 19.25 43.015 23.6425"></polygon>
            <rect id="Rectangle" x="0" y="0" width="56" height="56"></rect>
        </g>
    </g>
</svg>