<?xml version="1.0" encoding="UTF-8"?>
<svg width="80px" height="80px" viewBox="0 0 80 80" version="1.1" xmlns="http://www.w3.org/2000/svg" xmlns:xlink="http://www.w3.org/1999/xlink">
    <!-- Generator: Sketch 57.1 (83088) - https://sketch.com -->
    <title>170-C80px</title>
    <desc>Created with Sketch.</desc>
    <g id="NEW_icons" stroke="none" stroke-width="1" fill="none" fill-rule="evenodd">
        <g id="icons_UD_new-Copy" transform="translate(-1002.000000, -21821.000000)">
            <g id="170-C80px" transform="translate(1002.000000, 21821.000000)">
                <circle id="Oval-Copy-968" fill="#FF4F12" cx="40" cy="40" r="40"></circle>
                <g id="170-B32px-Copy-7" transform="translate(12.000000, 12.000000)">
                    <path d="M47.215,15.75 L36.785,15.75 C36.785,16.345 36.715,16.9225 36.61,17.5 L47.215,17.5 L47.25,17.535 L47.215,36.785 L8.75,36.75 L8.785,17.5 L19.46,17.5 C19.3375,16.9225 19.285,16.345 19.285,15.75 L8.785,15.75 C7.805,15.75 7,16.5375 7,17.535 L7,36.75 C7,37.73 7.805,38.535 8.785,38.535 L47.215,38.535 C48.195,38.535 49,37.73 49,36.75 L49,17.535 C49,16.5375 48.195,15.75 47.215,15.75 Z" id="Path" fill="#FFFFFF" fill-rule="nonzero"></path>
                    <path d="M28.035,10.5 C29.435,10.5 30.7475,11.0425 31.745,12.04 C33.7925,14.0875 33.7925,17.4125 31.745,19.46 C30.7475,20.4575 29.435,21 28.035,21 C26.635,21 25.3225,20.4575 24.325,19.46 C22.2775,17.4125 22.2775,14.0875 24.325,12.04 C25.305,11.0425 26.635,10.5 28.035,10.5 L28.035,10.5 Z M28.035,8.75 C26.25,8.75 24.4475,9.4325 23.0825,10.7975 C20.3525,13.5275 20.3525,17.955 23.0825,20.7025 C24.4475,22.0675 26.2325,22.75 28.035,22.75 C29.8375,22.75 31.6225,22.0675 32.9875,20.7025 C35.7175,17.9725 35.7175,13.545 32.9875,10.7975 C31.605,9.4325 29.82,8.75 28.035,8.75 L28.035,8.75 Z" id="Shape" fill="#FFFFFF" fill-rule="nonzero"></path>
                    <rect id="Rectangle" fill="#FFFFFF" fill-rule="nonzero" x="27.16" y="21.4375" width="1.75" height="11.795"></rect>
                    <rect id="Rectangle" fill="#FFFFFF" fill-rule="nonzero" x="24.535" y="26.2675" width="7" height="1.75"></rect>
                    <path d="M27.965,38.4125 C20.4225,38.4125 14.7875,39.5675 12.25,40.1975 L12.25,42 C14.4025,41.44 20.195,40.1625 27.965,40.1625 C35.805,40.1625 41.6325,41.4575 43.75,42.0175 L43.75,40.215 C41.2475,39.5675 35.5775,38.4125 27.965,38.4125 Z" id="Path" fill="#FFFFFF" fill-rule="nonzero"></path>
                    <rect id="Rectangle" x="0" y="0" width="56" height="56"></rect>
                </g>
            </g>
        </g>
    </g>
</svg>