<?xml version="1.0" encoding="UTF-8"?>
<svg width="56px" height="56px" viewBox="0 0 56 56" version="1.1" xmlns="http://www.w3.org/2000/svg" xmlns:xlink="http://www.w3.org/1999/xlink">
    <!-- Generator: Sketch 57.1 (83088) - https://sketch.com -->
    <title>018-B56px</title>
    <desc>Created with Sketch.</desc>
    <g id="018-B56px" stroke="none" stroke-width="1" fill="none" fill-rule="evenodd">
        <g>
            <g id="Group" transform="translate(21.000000, 36.750000)" fill="#101828" fill-rule="nonzero">
                <path d="M6.055,4.235 C6.055,2.6775 4.935,1.68 3.2025,1.68 C1.295,1.68 0.28,3.045 0.28,4.3225 C0.28,4.6025 0.315,4.8475 0.3675,5.11 L0.385,5.25 L2.1875,5.11 L2.1525,4.935 C2.1175,4.76 2.1,4.62 2.1,4.3925 C2.1,3.7625 2.52,3.3775 3.2025,3.3775 C3.85,3.3775 4.27,3.78 4.27,4.41 C4.27,4.9175 4.06,5.3025 3.3775,6.0025 L0.28,9.1525 L0.28,10.5 L6.055,10.5 L6.055,8.7325 L3.08,8.7325 L4.62,7.175 C5.705,6.0725 6.055,5.355 6.055,4.235 Z" id="Path"></path>
                <path d="M10.5,1.75 C8.575,1.75 7,3.325 7,5.25 L7,7 C7,8.925 8.575,10.5 10.5,10.5 C12.425,10.5 14,8.925 14,7 L14,5.25 C14,3.325 12.425,1.75 10.5,1.75 Z M12.25,7 C12.25,7.9625 11.4625,8.75 10.5,8.75 C9.5375,8.75 8.75,7.9625 8.75,7 L8.75,5.25 C8.75,4.2875 9.5375,3.5 10.5,3.5 C11.4625,3.5 12.25,4.2875 12.25,5.25 L12.25,7 Z" id="Shape"></path>
                <path d="M18.34,1.75 C16.415,1.75 14.84,3.325 14.84,5.25 L14.84,7 C14.84,8.925 16.415,10.5 18.34,10.5 C20.265,10.5 21.84,8.925 21.84,7 L21.84,5.25 C21.84,3.325 20.2825,1.75 18.34,1.75 Z M20.09,7 C20.09,7.9625 19.3025,8.75 18.34,8.75 C17.3775,8.75 16.59,7.9625 16.59,7 L16.59,5.25 C16.59,4.2875 17.3775,3.5 18.34,3.5 C19.3025,3.5 20.09,4.2875 20.09,5.25 L20.09,7 Z" id="Shape"></path>
                <polygon id="Path" points="26.25 5.25 26.25 3.5 24.5 3.5 24.5 5.25 22.75 5.25 22.75 7 24.5 7 24.5 8.75 26.25 8.75 26.25 7 28 7 28 5.25"></polygon>
            </g>
            <path d="M19.25,42.5425 C15.8725,41.195 13.055,38.7975 11.1825,35.735 L15.925,35.735 C16.7125,38.3075 17.8675,40.4775 19.25,42.1225 L19.25,40.25 L19.25,39.095 C18.69,38.0975 18.1825,36.96 17.78,35.735 L22.155,35.735 L35.6825,35.735 L39.5675,35.735 C39.3575,36.085 39.13,36.4175 38.885,36.75 L41.0025,36.75 C42.735,33.95 43.75,30.66 43.75,27.125 C43.75,16.975 35.525,8.75 25.375,8.75 C25.375,8.75 25.3575,8.75 25.3575,8.75 C25.3575,8.75 25.3575,8.75 25.34,8.75 C25.3225,8.75 25.3225,8.75 25.305,8.75 C15.19,8.785 7,16.9925 7,27.125 C7,35.1225 12.11,41.9125 19.25,44.4325 L19.25,42.5425 Z M40.495,33.985 L35.2275,33.985 C35.665,32.13 35.9275,30.1 35.98,28 L41.9475,28 C41.8425,30.1175 41.335,32.1475 40.495,33.985 Z M41.9475,26.25 L35.98,26.25 C35.9275,24.15 35.665,22.12 35.2275,20.265 L40.495,20.265 C41.335,22.1025 41.8425,24.1325 41.9475,26.25 Z M39.5675,18.515 L34.7725,18.515 C33.88,15.61 32.5325,13.1775 30.905,11.4625 C34.545,12.7575 37.59,15.26 39.5675,18.515 Z M26.25,10.5875 C29.0325,11.13 31.4825,14.21 32.9175,18.515 L26.25,18.515 L26.25,10.5875 Z M26.25,20.265 L33.425,20.265 C33.8975,22.12 34.1775,24.1325 34.23,26.25 L26.25,26.25 L26.25,20.265 Z M26.25,28 L34.23,28 C34.16,30.1175 33.88,32.13 33.425,33.985 L26.25,33.985 L26.25,28 Z M24.5,33.985 L17.2725,33.985 C16.8,32.13 16.52,30.1175 16.45,28 L24.5,28 L24.5,33.985 Z M24.5,26.25 L16.45,26.25 C16.52,24.1325 16.8,22.12 17.255,20.265 L24.5,20.265 L24.5,26.25 Z M24.5,10.5875 L24.5,18.515 L17.78,18.515 C19.215,14.1925 21.6825,11.095 24.5,10.5875 Z M19.7575,11.4975 C18.1475,13.2125 16.8175,15.6275 15.925,18.515 L11.1825,18.515 C13.1425,15.295 16.1525,12.7925 19.7575,11.4975 Z M10.255,20.265 L15.47,20.265 C15.015,22.12 14.77,24.15 14.7,26.25 L8.8025,26.25 C8.9075,24.1325 9.415,22.1025 10.255,20.265 Z M8.8025,28 L14.7,28 C14.7525,30.1 15.015,32.13 15.4525,33.985 L10.255,33.985 C9.415,32.1475 8.9075,30.1175 8.8025,28 Z" id="Shape" fill="#101828" fill-rule="nonzero"></path>
            <rect id="Rectangle" x="0" y="0" width="56" height="56"></rect>
        </g>
    </g>
</svg>