<?xml version="1.0" encoding="UTF-8"?>
<svg width="40px" height="40px" viewBox="0 0 40 40" version="1.1" xmlns="http://www.w3.org/2000/svg" xmlns:xlink="http://www.w3.org/1999/xlink">
    <!-- Generator: Sketch 57.1 (83088) - https://sketch.com -->
    <title>137-B40px</title>
    <desc>Created with Sketch.</desc>
    <g id="137-B40px" stroke="none" stroke-width="1" fill="none" fill-rule="evenodd">
        <g>
            <path d="M30,17.5 L30,18.75 L30,18.75 L30.0125,33.75 L10,33.7625 L10,20 L10,18.75 L10,17.5 L8.75,17.5 L8.75,33.7625 C8.75,34.45 9.3,35 9.9875,35 L30.025,35 C30.7,35 31.2625,34.45 31.2625,33.7625 L31.2625,17.5 L30,17.5 Z" id="Path" fill="#101828" fill-rule="nonzero"></path>
            <polygon id="Path" fill="#101828" fill-rule="nonzero" points="33.975 18.2375 20 6.6875 6.025 18.2375 5.225 17.2625 20 5.0625 34.775 17.2625"></polygon>
            <path d="M20,18.75 C23.1,18.75 25.625,21.275 25.625,24.375 C25.625,27.475 23.1,30 20,30 C16.9,30 14.375,27.475 14.375,24.375 C14.375,21.275 16.9,18.75 20,18.75 L20,18.75 Z M20,17.5 C16.2,17.5 13.125,20.575 13.125,24.375 C13.125,28.175 16.2,31.25 20,31.25 C23.8,31.25 26.875,28.175 26.875,24.375 C26.875,20.575 23.8,17.5 20,17.5 L20,17.5 Z" id="Shape" fill="#101828" fill-rule="nonzero"></path>
            <path d="M17.5,23.75 C17.15,23.75 16.875,24.025 16.875,24.375 C16.875,24.725 17.15,25 17.5,25 C17.85,25 18.125,24.725 18.125,24.375 C18.125,24.025 17.85,23.75 17.5,23.75 L17.5,23.75 Z" id="Path" fill="#101828" fill-rule="nonzero"></path>
            <path d="M22.5,23.75 C22.15,23.75 21.875,24.025 21.875,24.375 C21.875,24.725 22.15,25 22.5,25 C22.85,25 23.125,24.725 23.125,24.375 C23.125,24.025 22.85,23.75 22.5,23.75 L22.5,23.75 Z" id="Path" fill="#101828" fill-rule="nonzero"></path>
            <path d="M17,27.65 C18.7375,29.1125 21.275,29.1125 23,27.65 L22.25,26.65 C20.9625,27.7875 19.025,27.775 17.7375,26.65 L17,27.65 Z" id="Path" fill="#101828" fill-rule="nonzero"></path>
            <g id="Group" transform="translate(17.500000, 15.000000)" fill="#101828" fill-rule="nonzero">
                <path d="M3.125,3.75 L1.875,3.75 C1.875,2.675 2.525,0.625 5,0.625 L5,1.875 C3.2375,1.875 3.125,3.4375 3.125,3.75 Z" id="Path"></path>
                <path d="M1.875,3.75 C1.875,3.4375 1.7625,1.875 0,1.875 L0,0.625 C2.475,0.625 3.125,2.675 3.125,3.75 L1.875,3.75 L2.5,3.75 L1.875,3.75 Z" id="Path"></path>
            </g>
            <polygon id="Path" fill="#101828" fill-rule="nonzero" points="25.625 22.5 19.7375 22.5 18.75 21.5125 17.7625 22.5 14.375 22.5 14.375 21.25 17.2375 21.25 18.75 19.7375 20.2625 21.25 25.625 21.25"></polygon>
            <rect id="Rectangle" x="0" y="0" width="40" height="40"></rect>
        </g>
    </g>
</svg>