<?xml version="1.0" encoding="UTF-8"?>
<svg width="56px" height="56px" viewBox="0 0 56 56" version="1.1" xmlns="http://www.w3.org/2000/svg" xmlns:xlink="http://www.w3.org/1999/xlink">
    <!-- Generator: Sketch 57.1 (83088) - https://sketch.com -->
    <title>167-G56px</title>
    <desc>Created with Sketch.</desc>
    <g id="NEW_icons" stroke="none" stroke-width="1" fill="none" fill-rule="evenodd">
        <g id="icons_UD_new-Copy" transform="translate(-1728.000000, -21341.000000)">
            <g id="167-G56px" transform="translate(1728.000000, 21341.000000)">
                <circle id="Oval-Copy-1059" fill="#E3E8EC" cx="28" cy="28" r="28"></circle>
                <g id="167-B32px-Copy-3" transform="translate(8.000000, 8.000000)">
                    <path d="M19.975,27.425 C14.5875,27.425 10.55,28.25 8.75,28.7 L8.75,29.9875 C10.3,29.5875 14.425,28.675 19.975,28.675 C25.575,28.675 29.7375,29.6 31.25,30 L31.25,28.7125 C29.4625,28.2625 25.4125,27.425 19.975,27.425 Z" id="Path" fill="#101828" fill-rule="nonzero"></path>
                    <path d="M33.725,11.225 L30,11.225 L30,12.475 L33.725,12.475 L33.75,12.5 L33.725,26.25 L6.25,26.225 L6.275,12.475 L10,12.475 L10,11.225 L6.275,11.225 C5.575,11.225 5,11.8 5,12.5 L5,26.225 C5,26.925 5.575,27.5 6.275,27.5 L33.725,27.5 C34.425,27.5 35,26.925 35,26.225 L35,12.5 C35,11.8 34.425,11.225 33.725,11.225 Z" id="Path" fill="#101828" fill-rule="nonzero"></path>
                    <path d="M22.4875,22.4875 L22.4875,22.4875 L22.5,23.7375 L17.5,23.7375 L17.5,22.4875 L22.4875,22.4875 L22.4875,22.4875 Z M22.4875,21.2375 L17.5125,21.2375 C16.8125,21.2375 16.25,21.8 16.25,22.5 L16.25,24.9875 L23.75,24.9875 L23.75,22.5 C23.75,21.8 23.1875,21.2375 22.4875,21.2375 L22.4875,21.2375 Z" id="Shape" fill="#101828" fill-rule="nonzero"></path>
                    <rect id="Rectangle" fill="#101828" fill-rule="nonzero" x="19.375" y="18.7375" width="1.25" height="2.5"></rect>
                    <g id="Group" transform="translate(12.500000, 10.000000)" fill="#101828" fill-rule="nonzero">
                        <path d="M14.9125,1.25 L12.4875,1.25 C12.4625,1.625 12.4125,2.05 12.325,2.5 L13.75,2.5 L13.75,5 C13.75,5.6875 13.2,6.2375 12.5125,6.2375 L11.15,6.2375 C10.9625,6.675 10.75,7.0875 10.525,7.4875 L12.525,7.4875 C13.9,7.4875 15.0125,6.375 15.0125,5 L15.0125,1.3375 C15,1.2875 14.9625,1.25 14.9125,1.25 Z" id="Path"></path>
                        <path d="M4.0125,6.2375 L2.5,6.2375 C1.8125,6.2375 1.25,5.675 1.25,4.9875 L1.25,2.4875 L2.8375,2.4875 C2.75,2.0375 2.7,1.6125 2.675,1.2375 L0.0875,1.2375 C0.0375,1.25 0,1.2875 0,1.3375 L0,5 C0,6.375 1.125,7.5 2.5,7.5 L4.6375,7.5 C4.4125,7.1 4.2125,6.675 4.0125,6.2375 Z" id="Path"></path>
                    </g>
                    <path d="M23.575,10 C23.675,10 23.75,10.075 23.75,10.15 L23.75,12.2625 C23.75,14.725 21.65,18.7375 20,18.7375 C18.35,18.7375 16.25,14.725 16.25,12.2625 L16.25,10.15 C16.25,10.075 16.3375,10 16.425,10 L23.575,10 L23.575,10 Z M23.575,8.75 L16.425,8.75 C15.6375,8.75 15,9.375 15,10.15 L15,12.2625 C15,14.975 17.2375,19.9875 20,19.9875 C22.7625,19.9875 25,14.975 25,12.2625 L25,10.15 C25,9.375 24.3625,8.75 23.575,8.75 L23.575,8.75 Z" id="Shape" fill="#101828" fill-rule="nonzero"></path>
                    <rect id="Rectangle" fill="#101828" fill-rule="nonzero" x="15" y="23.75" width="10" height="1.2375"></rect>
                    <rect id="Rectangle" x="0" y="0" width="40" height="40"></rect>
                </g>
            </g>
        </g>
    </g>
</svg>