<?xml version="1.0" encoding="UTF-8"?>
<svg width="57px" height="56px" viewBox="0 0 57 56" version="1.1" xmlns="http://www.w3.org/2000/svg" xmlns:xlink="http://www.w3.org/1999/xlink">
    <!-- Generator: Sketch 57.1 (83088) - https://sketch.com -->
    <title>057-G56px</title>
    <desc>Created with Sketch.</desc>
    <g id="NEW_icons" stroke="none" stroke-width="1" fill="none" fill-rule="evenodd">
        <g id="057-G56px" transform="translate(0.500000, 0.000000)">
            <circle id="Oval-Copy-64" fill="#E3E8EC" cx="28" cy="28" r="28"></circle>
            <g id="057-B32px-Copy-4" transform="translate(8.000000, 8.000000)">
                <g id="Group" transform="translate(5.000000, 5.000000)" fill="#101828" fill-rule="nonzero">
                    <path d="M28.75,1.25 L28.75,28.75 L1.25,28.75 L1.25,1.25 L28.75,1.25 L28.75,1.25 Z M28.75,0 L1.25,0 C0.5,0 0,0.5 0,1.25 L0,28.75 C0,29.5 0.5,30 1.25,30 L28.75,30 C29.5,30 30,29.5 30,28.75 L30,1.25 C30,0.5 29.5,0 28.75,0 L28.75,0 Z" id="Shape"></path>
                    <path d="M21.25,20.375 C19.875,20.375 18.625,19.875 17.75,18.75 L15,15.875 L12.375,18.75 C11.375,19.75 10.125,20.375 8.875,20.375 C7.5,20.375 6.25,19.875 5.375,18.75 C3.5,16.625 3.5,13.25 5.375,11.25 C6.375,10.25 7.625,9.625 8.875,9.625 C10.25,9.625 11.5,10.125 12.375,11.25 L15,14.125 L17.625,11.25 C18.625,10.25 19.875,9.625 21.125,9.625 C22.5,9.625 23.75,10.125 24.625,11.25 C26.5,13.375 26.5,16.75 24.625,18.75 C23.875,19.75 22.5,20.375 21.25,20.375 Z M15.875,15 L18.625,17.875 C20,19.375 22.5,19.375 23.875,17.875 C25.375,16.25 25.375,13.625 23.875,12 C22.5,10.5 20,10.5 18.625,12 L15.875,15 Z M8.75,10.875 C7.75,10.875 6.875,11.25 6.125,12 C4.625,13.625 4.625,16.25 6.125,17.875 C7.5,19.375 10,19.375 11.375,17.875 L14.125,15 L11.375,12.125 C10.75,11.375 9.75,10.875 8.75,10.875 Z" id="Shape"></path>
                </g>
                <rect id="Rectangle" x="0" y="0" width="40" height="40"></rect>
            </g>
        </g>
    </g>
</svg>