<?xml version="1.0" encoding="UTF-8"?>
<svg width="56px" height="56px" viewBox="0 0 56 56" version="1.1" xmlns="http://www.w3.org/2000/svg" xmlns:xlink="http://www.w3.org/1999/xlink">
    <!-- Generator: Sketch 54.1 (76490) - https://sketchapp.com -->
    <title>052-G56px</title>
    <desc>Created with Sketch.</desc>
    <g id="NEW_icons" stroke="none" stroke-width="1" fill="none" fill-rule="evenodd">
        <g id="icons_UD_new-Copy" transform="translate(-446.000000, -6877.000000)">
            <g id="052-G56px" transform="translate(446.000000, 6877.000000)">
                <circle id="Oval-Copy-392" fill="#E3E8EC" cx="28" cy="28" r="28"></circle>
                <g id="052-B32px-Copy-5" transform="translate(8.000000, 11.000000)">
                    <path d="M33.75,6.25 L33.75,8.75 C33.75,12.6625 32.9375,18.4875 31.5875,21.475 C29.725,25.575 26.225,30.975 20,33.65 C13.775,30.975 10.2625,25.575 8.4125,21.475 C7.0625,18.4875 6.25,12.65 6.25,8.75 L6.25,6.25 L33.75,6.25 L33.75,6.25 Z M35,5 L5,5 L5,8.75 C5,12.45 5.75,18.6125 7.275,21.9875 C9.3625,26.6 13.2,32.275 20,35 C26.8,32.275 30.6375,26.6 32.725,21.9875 C34.25,18.6125 35,12.45 35,8.75 L35,5 L35,5 Z" id="Shape" fill="#101828" fill-rule="nonzero"></path>
                    <polygon id="Path" fill="#101828" fill-rule="nonzero" points="18.4125 23.0375 12.6625 16.775 13.5875 15.925 18.4125 21.1875 26.4125 12.4625 27.3375 13.3125"></polygon>
                    <rect id="Rectangle" x="0" y="0" width="40" height="40"></rect>
                </g>
            </g>
        </g>
    </g>
</svg>