<?xml version="1.0" encoding="UTF-8"?>
<svg width="56px" height="56px" viewBox="0 0 56 56" version="1.1" xmlns="http://www.w3.org/2000/svg" xmlns:xlink="http://www.w3.org/1999/xlink">
    <!-- Generator: Sketch 57.1 (83088) - https://sketch.com -->
    <title>094-G56px</title>
    <desc>Created with Sketch.</desc>
    <g id="NEW_icons" stroke="none" stroke-width="1" fill="none" fill-rule="evenodd">
        <g id="icons_UD_new-Copy" transform="translate(-446.000000, -12295.000000)">
            <g id="094-G56px" transform="translate(446.000000, 12295.000000)">
                <circle id="Oval-Copy-658" fill="#E3E8EC" cx="28" cy="28" r="28"></circle>
                <g id="094-B32px-Copy-4" transform="translate(7.000000, 8.000000)">
                    <path d="M19.9875,28.125 C19.9875,27.775 20.0125,27.425 20.0625,27.075 C16.025,24.975 12.9,21.7875 12.8625,21.75 C12.8,21.6875 6.9625,15.575 6.25,9.5625 C6.25,9.525 6.25,9.4625 6.2875,9.425 L9.5625,6.2625 C9.5875,6.2375 9.6125,6.225 9.65,6.225 C9.675,6.225 9.7,6.25 9.7,6.25 L14.6375,11.35 C14.675,11.3875 14.6625,11.4625 14.625,11.5 L12.4375,13.6125 L11.8375,14.2 L12.15,14.975 C12.2,15.1 13.3625,17.9375 15.025,19.65 C16.6875,21.3625 19.4875,22.625 19.6125,22.675 L20.3875,23.0125 L20.9875,22.425 L23.175,20.3125 C23.2,20.2875 23.225,20.275 23.2625,20.275 C23.3,20.275 23.325,20.3 23.325,20.3 L24.075,21.075 C24.45,20.85 24.85,20.6625 25.275,20.5125 L24.225,19.425 C23.9625,19.15 23.6125,19.0125 23.2625,19.0125 C22.925,19.0125 22.575,19.1375 22.3125,19.4 L20.125,21.5125 C20.125,21.5125 17.45,20.325 15.9375,18.7625 C14.425,17.2 13.325,14.4875 13.325,14.4875 L15.5125,12.375 C16.05,11.85 16.075,11 15.55,10.4625 L10.6,5.3875 C10.3375,5.1125 9.9875,4.975 9.6375,4.975 C9.3,4.975 8.95,5.1 8.6875,5.3625 L5.4125,8.525 C5.1,8.8375 4.9625,9.275 5.0125,9.7125 C5.7875,16.2375 11.9625,22.6125 11.9625,22.6125 C11.9625,22.6125 15.4625,26.225 20.0125,28.45 C20,28.3375 19.9875,28.2375 19.9875,28.125 Z" id="Path" fill="#101828" fill-rule="nonzero"></path>
                    <path d="M28.1125,22.5 C31.2125,22.5 33.7375,25.025 33.7375,28.125 C33.7375,31.225 31.2125,33.75 28.1125,33.75 C25.0125,33.75 22.4875,31.225 22.4875,28.125 C22.4875,25.025 25.0125,22.5 28.1125,22.5 L28.1125,22.5 Z M28.1125,21.25 C24.3125,21.25 21.2375,24.325 21.2375,28.125 C21.2375,31.925 24.3125,35 28.1125,35 C31.9125,35 34.9875,31.925 34.9875,28.125 C34.9875,24.325 31.9125,21.25 28.1125,21.25 L28.1125,21.25 Z" id="Shape" fill="#101828" fill-rule="nonzero"></path>
                    <path d="M26.1125,28.1875 L27.5,27.3125 L27.5,29.05 L26.1125,28.1875 L26.1125,28.1875 Z M23.75,28.2 L28.75,31.3125 L28.7375,25.0625 L23.75,28.2 L23.75,28.2 Z" id="Shape" fill="#101828" fill-rule="nonzero"></path>
                    <polygon id="Rectangle" fill="#101828" fill-rule="nonzero" transform="translate(30.306262, 28.125106) rotate(-0.111814) translate(-30.306262, -28.125106) " points="28.1125077 27.5001052 32.500016 27.5001052 32.500016 28.7501076 28.1125077 28.7501076"></polygon>
                    <rect id="Rectangle" x="0" y="0" width="40" height="40"></rect>
                </g>
            </g>
        </g>
    </g>
</svg>