<?xml version="1.0" encoding="UTF-8"?>
<svg width="80px" height="80px" viewBox="0 0 80 80" version="1.1" xmlns="http://www.w3.org/2000/svg" xmlns:xlink="http://www.w3.org/1999/xlink">
    <!-- Generator: Sketch 56.3 (81716) - https://sketch.com -->
    <title>016-C80px</title>
    <desc>Created with Sketch.</desc>
    <g id="NEW_icons" stroke="none" stroke-width="1" fill="none" fill-rule="evenodd">
        <g id="icons_UD_new-Copy" transform="translate(-1002.000000, -2333.000000)">
            <g id="016-C80px" transform="translate(1002.000000, 2333.000000)">
                <circle id="Oval-Copy-178" fill="#FF4F12" cx="40" cy="40" r="40"></circle>
                <g id="016-B32px-Copy-8" transform="translate(12.000000, 12.000000)">
                    <rect id="Rectangle" fill="#FFFFFF" fill-rule="nonzero" x="27.125" y="8.75" width="1.75" height="39.795"></rect>
                    <path d="M28,8.75 C38.6225,8.75 47.25,17.3775 47.25,28 C47.25,38.6225 38.6225,47.25 28,47.25 C17.3775,47.25 8.75,38.6225 8.75,28 C8.75,17.3775 17.3775,8.75 28,8.75 L28,8.75 Z M28,7 C16.3975,7 7,16.3975 7,28 C7,39.6025 16.3975,49 28,49 C39.6025,49 49,39.6025 49,28 C49,16.3975 39.6025,7 28,7 L28,7 Z" id="Shape" fill="#FFFFFF" fill-rule="nonzero"></path>
                    <path d="M28,8.75 C33.6875,8.75 38.5,17.57 38.5,28 C38.5,38.43 33.6875,47.25 28,47.25 C22.3125,47.25 17.5,38.43 17.5,28 C17.5,17.57 22.3125,8.75 28,8.75 L28,8.75 Z M28,7 C21.2275,7 15.75,16.3975 15.75,28 C15.75,39.6025 21.2275,49 28,49 C34.7725,49 40.25,39.6025 40.25,28 C40.25,16.3975 34.7725,7 28,7 L28,7 Z" id="Shape" fill="#FFFFFF" fill-rule="nonzero"></path>
                    <rect id="Rectangle" fill="#FFFFFF" fill-rule="nonzero" x="10.3075" y="35.9625" width="35.3675" height="1.75"></rect>
                    <rect id="Rectangle" fill="#FFFFFF" fill-rule="nonzero" x="10.3075" y="18.2875" width="35.3675" height="1.75"></rect>
                    <rect id="Rectangle" fill="#FFFFFF" fill-rule="nonzero" x="8.1025" y="27.125" width="39.795" height="1.75"></rect>
                    <rect id="Rectangle" x="0" y="0" width="56" height="56"></rect>
                </g>
            </g>
        </g>
    </g>
</svg>