<?xml version="1.0" encoding="UTF-8"?>
<svg width="40px" height="40px" viewBox="0 0 40 40" version="1.1" xmlns="http://www.w3.org/2000/svg" xmlns:xlink="http://www.w3.org/1999/xlink">
    <!-- Generator: Sketch 57.1 (83088) - https://sketch.com -->
    <title>022-B40px</title>
    <desc>Created with Sketch.</desc>
    <g id="022-B40px" stroke="none" stroke-width="1" fill="none" fill-rule="evenodd">
        <g>
            <g id="Group" transform="translate(21.250000, 27.500000)" fill="#101828" fill-rule="nonzero">
                <path d="M6.95,0 C5.575,0 4.45,1.125 4.45,2.5 L4.45,3.75 C4.45,5.125 5.575,6.25 6.95,6.25 C8.325,6.25 9.45,5.125 9.45,3.75 L9.45,2.5 C9.45,1.125 8.325,0 6.95,0 Z M8.2,3.75 C8.2,4.4375 7.6375,5 6.95,5 C6.2625,5 5.7,4.4375 5.7,3.75 L5.7,2.5 C5.7,1.8125 6.2625,1.25 6.95,1.25 C7.6375,1.25 8.2,1.8125 8.2,2.5 L8.2,3.75 Z" id="Shape"></path>
                <polygon id="Path" points="12.5125 2.5 12.5125 1.25 11.2625 1.25 11.2625 2.5 10.0125 2.5 10.0125 3.75 11.2625 3.75 11.2625 5 12.5125 5 12.5125 3.75 13.7625 3.75 13.7625 2.5"></polygon>
                <path d="M1.875,2.5 C1.65,2.5 1.45,2.55 1.25,2.6125 L1.25,1.9875 C1.25,1.8625 1.2875,1.2375 1.9,1.2375 C2.175,1.2375 2.275,1.3375 2.3125,1.3625 C2.4625,1.5125 2.5,1.8125 2.5,1.9 L3.75,1.925 C3.75,1.8375 3.75,1.05 3.2125,0.4875 C2.975,0.275 2.5625,0 1.9,0 C0.525,0 0.0125,1.1875 0,1.9875 L0,4.3875 L0,4.3875 C0.0125,5.4125 0.85,6.25 1.875,6.25 C2.9125,6.25 3.75,5.4125 3.75,4.375 C3.75,3.3375 2.9125,2.5 1.875,2.5 Z M1.875,5 C1.525,5 1.25,4.725 1.25,4.375 C1.25,4.025 1.525,3.75 1.875,3.75 C2.225,3.75 2.5,4.025 2.5,4.375 C2.5,4.725 2.225,5 1.875,5 Z" id="Shape"></path>
            </g>
            <path d="M20,31.9 L20,31.0625 C19.5875,31.125 19.175,31.1875 18.75,31.2125 L18.75,25.525 L28.25,25.525 C28.0875,25.7875 27.9,26.05 27.7125,26.3 C27.875,26.275 28.025,26.25 28.2,26.25 C28.55,26.25 28.8875,26.3125 29.2,26.4 C30.4875,24.3625 31.25,21.9625 31.25,19.375 C31.25,12.125 25.375,6.25 18.125,6.25 C18.125,6.25 18.1125,6.25 18.1125,6.25 C18.1125,6.25 18.1125,6.25 18.1,6.25 C18.0875,6.25 18.0875,6.25 18.075,6.25 C10.85,6.275 5,12.1375 5,19.375 C5,26.6125 10.85,32.475 18.075,32.5 C18.0875,32.5 18.0875,32.5 18.1,32.5 L18.1,32.5 C18.1125,32.5 18.1125,32.5 18.125,32.5 C18.775,32.5 19.425,32.4375 20.05,32.3375 C20.025,32.2 20,32.05 20,31.9 Z M28.925,24.275 L25.1625,24.275 C25.475,22.9375 25.65,21.5 25.7,20 L29.9625,20 C29.8875,21.5125 29.525,22.9625 28.925,24.275 Z M29.9625,18.75 L25.7,18.75 C25.6625,17.25 25.475,15.8 25.1625,14.475 L28.925,14.475 C29.525,15.7875 29.8875,17.2375 29.9625,18.75 Z M28.2625,13.225 L24.8375,13.225 C24.2,11.15 23.2375,9.4125 22.075,8.1875 C24.675,9.1125 26.85,10.9 28.2625,13.225 Z M18.75,7.5625 C20.7375,7.95 22.4875,10.15 23.5125,13.225 L18.75,13.225 L18.75,7.5625 Z M18.75,14.475 L23.875,14.475 C24.2125,15.8 24.4125,17.2375 24.45,18.75 L18.75,18.75 L18.75,14.475 Z M18.75,20 L24.45,20 C24.4,21.5125 24.2,22.95 23.875,24.275 L18.75,24.275 L18.75,20 Z M14.1125,8.2125 C12.9625,9.4375 12.0125,11.1625 11.375,13.225 L7.9875,13.225 C9.3875,10.925 11.5375,9.1375 14.1125,8.2125 Z M7.325,14.475 L11.05,14.475 C10.725,15.8 10.55,17.25 10.5,18.75 L6.2875,18.75 C6.3625,17.2375 6.725,15.7875 7.325,14.475 Z M6.2875,20 L10.5,20 C10.5375,21.5125 10.7375,22.9375 11.05,24.275 L7.3625,24.275 C6.7625,22.9625 6.3625,21.525 6.2875,20 Z M8.025,25.525 L11.4,25.525 C12.0375,27.575 12.9625,29.3125 14.1125,30.5375 C11.55,29.6125 9.4125,27.8125 8.025,25.525 Z M17.5,31.1875 C15.4875,30.8125 13.7375,28.6125 12.7,25.525 L17.5,25.525 L17.5,31.1875 Z M17.5,24.275 L12.3375,24.275 C12,22.95 11.8,21.5125 11.75,20 L17.5,20 L17.5,24.275 Z M17.5,18.75 L11.75,18.75 C11.8,17.2375 12,15.8 12.325,14.475 L17.5,14.475 L17.5,18.75 Z M17.5,13.225 L12.7,13.225 C13.7375,10.1375 15.5,7.9375 17.5,7.5625 L17.5,13.225 Z" id="Shape" fill="#101828" fill-rule="nonzero"></path>
            <rect id="Rectangle" x="0" y="0" width="40" height="40"></rect>
        </g>
    </g>
</svg>