<?xml version="1.0" encoding="UTF-8"?>
<svg width="40px" height="40px" viewBox="0 0 40 40" version="1.1" xmlns="http://www.w3.org/2000/svg" xmlns:xlink="http://www.w3.org/1999/xlink">
    <!-- Generator: Sketch 57.1 (83088) - https://sketch.com -->
    <title>161-B40px</title>
    <desc>Created with Sketch.</desc>
    <g id="161-B40px" stroke="none" stroke-width="1" fill="none" fill-rule="evenodd">
        <g>
            <path d="M33.7625,11.25 L27.2125,11.25 C27.4875,11.6375 27.725,12.0625 27.9375,12.5 L33.7625,12.5 L33.7875,12.525 L33.7625,26.275 L6.3,26.25 L6.325,12.5 L12.15,12.5 C12.3625,12.0625 12.6,11.6375 12.875,11.25 L6.325,11.25 C5.625,11.25 5.05,11.825 5.05,12.525 L5.05,26.25 C5.05,26.95 5.625,27.525 6.325,27.525 L33.775,27.525 C34.475,27.525 35.05,26.95 35.05,26.25 L35.05,12.525 C35.0375,11.8125 34.475,11.25 33.7625,11.25 Z" id="Path" fill="#101828" fill-rule="nonzero"></path>
            <rect id="Rectangle" fill="#101828" fill-rule="nonzero" x="19.425" y="10" width="1.25" height="12.9625"></rect>
            <path d="M20.05,10 C23.5,10 26.3,12.8 26.3,16.25 C26.3,19.7 23.5,22.5 20.05,22.5 C16.6,22.5 13.8,19.7 13.8,16.25 C13.8,12.8 16.6,10 20.05,10 L20.05,10 Z M20.05,8.75 C15.9125,8.75 12.55,12.1125 12.55,16.25 C12.55,20.3875 15.9125,23.75 20.05,23.75 C24.1875,23.75 27.55,20.3875 27.55,16.25 C27.55,12.1125 24.1875,8.75 20.05,8.75 L20.05,8.75 Z" id="Shape" fill="#101828" fill-rule="nonzero"></path>
            <path d="M20.0375,10 C21.5,10 23.1375,12.5625 23.1375,16.25 C23.1375,19.9375 21.5,22.5 20.0375,22.5 C18.575,22.5 16.9375,19.9375 16.9375,16.25 C16.9375,12.5625 18.5625,10 20.0375,10 L20.0375,10 Z M20.0375,8.75 C17.6375,8.75 15.6875,12.1125 15.6875,16.25 C15.6875,20.3875 17.6375,23.75 20.0375,23.75 C22.4375,23.75 24.3875,20.3875 24.3875,16.25 C24.3875,12.1125 22.4375,8.75 20.0375,8.75 L20.0375,8.75 Z" id="Shape" fill="#101828" fill-rule="nonzero"></path>
            <rect id="Rectangle" fill="#101828" fill-rule="nonzero" x="13.725" y="18.7875" width="12.6375" height="1.25"></rect>
            <rect id="Rectangle" fill="#101828" fill-rule="nonzero" x="13.725" y="12.4625" width="12.6375" height="1.25"></rect>
            <rect id="Rectangle" fill="#101828" fill-rule="nonzero" x="12.9375" y="15.625" width="14.2125" height="1.25"></rect>
            <path d="M20.025,27.4375 C14.6375,27.4375 10.6,28.2625 8.8,28.7125 L8.8,30 C10.35,29.6 14.475,28.6875 20.025,28.6875 C25.625,28.6875 29.7875,29.6125 31.3,30.0125 L31.3,28.725 C29.5125,28.2625 25.45,27.4375 20.025,27.4375 Z" id="Path" fill="#101828" fill-rule="nonzero"></path>
            <rect id="Rectangle" x="0" y="0" width="40" height="40"></rect>
        </g>
    </g>
</svg>