<?xml version="1.0" encoding="UTF-8"?>
<svg width="40px" height="40px" viewBox="0 0 40 40" version="1.1" xmlns="http://www.w3.org/2000/svg" xmlns:xlink="http://www.w3.org/1999/xlink">
    <!-- Generator: Sketch 57.1 (83088) - https://sketch.com -->
    <title>103-B40px</title>
    <desc>Created with Sketch.</desc>
    <g id="103-B40px" stroke="none" stroke-width="1" fill="none" fill-rule="evenodd">
        <g>
            <path d="M10,28.75 L10,33.75 L8.75,33.75 L8.75,28.75 L10,28.75 L10,28.75 Z M10,27.5 L8.75,27.5 C8.0625,27.5 7.5,28.0625 7.5,28.75 L7.5,33.75 C7.5,34.4375 8.0625,35 8.75,35 L10,35 C10.6875,35 11.25,34.4375 11.25,33.75 L11.25,28.75 C11.25,28.0625 10.6875,27.5 10,27.5 L10,27.5 Z" id="Shape" fill="#101828" fill-rule="nonzero"></path>
            <path d="M12.5,23.75 L6.25,23.75 C5.5625,23.75 5,24.3125 5,25 L5,31.25 C5,31.9375 5.5625,32.5 6.25,32.5 L8.75,32.5 L8.75,31.25 L6.25,31.25 L6.25,25 L12.5,25 L12.5,31.25 L10,31.25 L10,32.5 L12.5,32.5 C13.1875,32.5 13.75,31.9375 13.75,31.25 L13.75,25 C13.75,24.3125 13.1875,23.75 12.5,23.75 Z" id="Path" fill="#101828" fill-rule="nonzero"></path>
            <path d="M31.25,6.25 L31.25,11.25 L30,11.25 L30,6.25 L31.25,6.25 L31.25,6.25 Z M31.25,5 L30,5 C29.3125,5 28.75,5.5625 28.75,6.25 L28.75,11.25 C28.75,11.9375 29.3125,12.5 30,12.5 L31.25,12.5 C31.9375,12.5 32.5,11.9375 32.5,11.25 L32.5,6.25 C32.5,5.5625 31.9375,5 31.25,5 L31.25,5 Z" id="Shape" fill="#101828" fill-rule="nonzero"></path>
            <path d="M33.75,7.5 L31.25,7.5 L31.25,8.75 L33.75,8.75 L33.75,15 L27.5,15 L27.5,8.75 L30,8.75 L30,7.5 L27.5,7.5 C26.8125,7.5 26.25,8.0625 26.25,8.75 L26.25,15 C26.25,15.6875 26.8125,16.25 27.5,16.25 L33.75,16.25 C34.4375,16.25 35,15.6875 35,15 L35,8.75 C35,8.0625 34.4375,7.5 33.75,7.5 Z" id="Path" fill="#101828" fill-rule="nonzero"></path>
            <path d="M10,24.375 L8.75,24.375 L8.75,21.45 C8.75,19.125 10.075,17.1375 12.225,16.25 C14.3625,15.3625 16.7125,15.825 18.35,17.475 L22.525,21.65 C23.8,22.925 25.625,23.2875 27.2875,22.6 C28.95,21.9125 29.9875,20.3625 29.9875,18.5625 L29.9875,15.625 L31.2375,15.625 L31.2375,18.55 C31.2375,20.875 29.9125,22.8625 27.7625,23.75 C25.625,24.6375 23.275,24.1625 21.6375,22.525 L17.4625,18.35 C16.1875,17.075 14.3625,16.7125 12.7,17.4 C11.0375,18.1 10,19.6375 10,21.45 L10,24.375 Z" id="Path" fill="#101828" fill-rule="nonzero"></path>
            <rect id="Rectangle" x="0" y="0" width="40" height="40"></rect>
        </g>
    </g>
</svg>