<?xml version="1.0" encoding="UTF-8"?>
<svg width="56px" height="56px" viewBox="0 0 56 56" version="1.1" xmlns="http://www.w3.org/2000/svg" xmlns:xlink="http://www.w3.org/1999/xlink">
    <!-- Generator: Sketch 57.1 (83088) - https://sketch.com -->
    <title>051-B56px</title>
    <desc>Created with Sketch.</desc>
    <g id="051-B56px" stroke="none" stroke-width="1" fill="none" fill-rule="evenodd">
        <g>
            <path d="M19.1975,14.875 C19.67,14.875 20.0725,14.49 20.0725,14 C20.0725,13.5275 19.6875,13.125 19.1975,13.125 C18.7075,13.125 18.3225,13.51 18.3225,14 C18.3225,14.49 18.725,14.875 19.1975,14.875" id="Path" fill="#101828" fill-rule="nonzero"></path>
            <path d="M12.2325,14.875 C12.705,14.875 13.1075,14.49 13.1075,14 C13.1075,13.5275 12.7225,13.125 12.2325,13.125 C11.76,13.125 11.375,13.5275 11.375,14 C11.375,14.49 11.76,14.875 12.2325,14.875" id="Path" fill="#101828" fill-rule="nonzero"></path>
            <path d="M15.7325,14.875 C16.205,14.875 16.6075,14.49 16.6075,14 C16.6075,13.5275 16.2225,13.125 15.7325,13.125 C15.26,13.125 14.875,13.5275 14.875,14 C14.875,14.49 15.26,14.875 15.7325,14.875" id="Path" fill="#101828" fill-rule="nonzero"></path>
            <rect id="Rectangle" fill="#101828" fill-rule="nonzero" x="8.75" y="15.75" width="38.5" height="1.75"></rect>
            <path d="M47.25,10.5 L8.75,10.5 C7.7875,10.5 7,11.2875 7,12.25 L7,38.5 C7,39.4625 7.7875,40.25 8.75,40.25 L17.5175,40.25 C17.0975,39.69 16.73,39.1125 16.3975,38.5 L8.75,38.5 L8.75,12.25 L47.25,12.25 L47.25,38.5 L39.6025,38.5 C39.27,39.1125 38.9025,39.69 38.4825,40.25 L47.25,40.25 C48.2125,40.25 49,39.4625 49,38.5 L49,12.25 C49,11.2875 48.2125,10.5 47.25,10.5 Z" id="Path" fill="#101828" fill-rule="nonzero"></path>
            <path d="M28,22.75 C33.3025,22.75 37.625,27.0725 37.625,32.375 C37.625,37.6775 33.3025,42 28,42 C22.6975,42 18.375,37.6775 18.375,32.375 C18.375,27.0725 22.6975,22.75 28,22.75 L28,22.75 Z M28,21 C21.7175,21 16.625,26.0925 16.625,32.375 C16.625,38.6575 21.7175,43.75 28,43.75 C34.2825,43.75 39.375,38.6575 39.375,32.375 C39.375,26.0925 34.2825,21 28,21 L28,21 Z" id="Shape" fill="#101828" fill-rule="nonzero"></path>
            <path d="M33.25,31.5 L33.25,33.25 L22.75,33.25 L22.75,31.5 L33.25,31.5 L33.25,31.5 Z M35,29.75 L21,29.75 L21,35 L35,35 L35,29.75 L35,29.75 Z" id="Shape" fill="#101828" fill-rule="nonzero"></path>
            <rect id="Rectangle" x="0" y="0" width="56" height="56"></rect>
        </g>
    </g>
</svg>