<?xml version="1.0" encoding="UTF-8"?>
<svg width="42px" height="42px" viewBox="0 0 42 42" version="1.1" xmlns="http://www.w3.org/2000/svg" xmlns:xlink="http://www.w3.org/1999/xlink">
    <!-- Generator: Sketch 56.3 (81716) - https://sketch.com -->
    <title>045-G40px</title>
    <desc>Created with Sketch.</desc>
    <g id="NEW_icons" stroke="none" stroke-width="1" fill="none" fill-rule="evenodd">
        <g id="icons_UD_new-Copy" transform="translate(-1526.000000, -5887.000000)">
            <g id="045-G40px" transform="translate(1527.000000, 5888.000000)">
                <circle id="Oval-Copy-352" stroke="#E3E8EC" cx="20" cy="20" r="20"></circle>
                <g id="045-B32px-Copy-4" transform="translate(4.000000, 4.000000)">
                    <polygon id="Path" fill="#101828" points="19 8 13.1 8 13.1 9.57 14.64 10.81 14.64 11.73 11.56 11.73 11.56 13.17 13.87 14.47 14.54 14.47 14.54 20 12.84 19.02 12.84 16.18 10.12 14.45 10.12 20.61 16.05 24 21.88 20.61 21.88 14.45 19.26 16 19.26 18.97 17.57 20 17.57 14.47 18.28 14.47 20.59 13.17 20.59 11.68 17.51 11.68 17.51 10.7 19 9.47"></polygon>
                    <path d="M19.89,6.83 L22.67,8.9 L22.67,21.33 L16,25.05 L9.33,21.34 L9.33,8.91 L12.13,6.83 L19.89,6.83 L19.89,6.83 Z M20.17,6 L11.86,6 L8.5,8.49 L8.5,21.83 L16,26 L23.5,21.83 L23.5,8.49 L20.17,6 L20.17,6 Z" id="Shape" fill="#101828" fill-rule="nonzero"></path>
                    <rect id="Rectangle" x="0" y="0" width="32" height="32"></rect>
                </g>
            </g>
        </g>
    </g>
</svg>