<?xml version="1.0" encoding="UTF-8"?>
<svg width="42px" height="42px" viewBox="0 0 42 42" version="1.1" xmlns="http://www.w3.org/2000/svg" xmlns:xlink="http://www.w3.org/1999/xlink">
    <!-- Generator: Sketch 56.3 (81716) - https://sketch.com -->
    <title>041-G40px</title>
    <desc>Created with Sketch.</desc>
    <g id="NEW_icons" stroke="none" stroke-width="1" fill="none" fill-rule="evenodd">
        <g id="icons_UD_new-Copy" transform="translate(-1526.000000, -5385.000000)">
            <g id="041-G40px" transform="translate(1527.000000, 5386.000000)">
                <circle id="Oval-Copy-317" stroke="#E3E8EC" cx="20" cy="20" r="20"></circle>
                <g id="041-B32px-Copy-4" transform="translate(4.000000, 4.000000)">
                    <path d="M22.06,14.33 C21.76,13.75 20.95,13.5 19.85,13.55 C18.56,13.61 16.88,14.1 15.18,14.98 C15.17,14.99 15.16,14.99 15.15,15 C15.15,15 15.14,15 15.13,15 C13.43,15.87 12.05,16.95 11.25,17.95 C10.56,18.81 10.29,19.62 10.59,20.2 C11.24,21.47 14.32,21.19 17.47,19.58 C17.48,19.57 17.49,19.57 17.51,19.56 C17.52,19.55 17.54,19.55 17.55,19.54 C20.69,17.93 22.72,15.59 22.06,14.33 Z M20.45,16.13 C19.69,17.01 18.46,17.92 17.07,18.63 C17.06,18.64 17.05,18.64 17.03,18.65 C17.02,18.66 17.01,18.66 16.99,18.67 C15.6,19.38 14.14,19.85 12.98,19.95 C11.89,20.05 11.52,19.79 11.49,19.74 C11.47,19.69 11.47,19.31 12.04,18.6 C12.79,17.67 14.08,16.69 15.59,15.92 C15.6,15.91 15.61,15.91 15.62,15.91 C15.63,15.9 15.64,15.9 15.65,15.89 C17.15,15.12 18.7,14.64 19.9,14.58 C20.81,14.53 21.12,14.76 21.14,14.8 C21.18,14.85 21.17,15.3 20.45,16.13 Z" id="Shape" fill="#101828" fill-rule="nonzero"></path>
                    <path d="M27.48,10.84 C27.43,10.74 27.36,10.65 27.29,10.56 L27.3,10.55 C27.3,10.55 26.02,8.43 21.79,8.52 C21.79,8.52 20.89,8.59 20.26,8.62 C20.02,8.63 19.82,8.64 19.72,8.63 C19.35,8.62 18.38,8.39 18.38,8.39 C18.38,8.39 16.02,7.95 15.89,7.93 C15.4,7.86 14.93,7.81 14.44,7.84 C13.5,7.89 12.63,8.13 11.85,8.53 C11.07,8.94 10.36,9.5 9.78,10.24 C9.47,10.63 9.24,11.04 9.01,11.47 C8.95,11.58 7.93,13.76 7.93,13.76 C7.93,13.76 7.55,14.68 7.34,14.99 C7.28,15.07 7.16,15.23 7.01,15.42 C6.62,15.91 6.04,16.6 6.04,16.6 C3.49,19.99 4.46,22.26 4.46,22.26 L4.47,22.26 C4.5,22.37 4.54,22.47 4.59,22.57 C5.88,25.1 12.05,24.55 18.36,21.33 C18.37,21.32 18.39,21.32 18.4,21.31 C18.41,21.3 18.43,21.3 18.44,21.29 C24.73,18.04 28.78,13.36 27.48,10.84 Z M25.02,15.13 C24.01,16.3 22.65,17.46 21.07,18.53 C21.05,18.55 21.02,18.56 21,18.58 C20.71,18.78 20.41,18.97 20.11,19.16 C20.01,19.22 19.9,19.28 19.8,19.35 C19.56,19.49 19.33,19.64 19.08,19.78 C18.72,19.98 18.35,20.18 17.97,20.38 C17.96,20.39 17.94,20.39 17.93,20.4 C17.92,20.41 17.9,20.41 17.89,20.42 C17.51,20.62 17.13,20.8 16.75,20.97 C16.49,21.09 16.24,21.2 15.99,21.31 C15.88,21.36 15.77,21.41 15.66,21.45 C15.33,21.59 15,21.72 14.67,21.84 C14.64,21.85 14.62,21.86 14.59,21.87 C12.79,22.53 11.06,22.95 9.52,23.09 C7.36,23.28 5.9,22.88 5.52,22.11 C5.51,22.09 5.5,22.06 5.49,22.03 L5.46,21.95 L5.4,21.78 C5.27,21.04 5.74,19.92 6.71,18.7 C8.29,16.72 11,14.67 14.14,13.06 C14.15,13.06 14.16,13.05 14.17,13.05 C14.18,13.05 14.19,13.04 14.2,13.04 C17.34,11.43 20.58,10.43 23.11,10.3 C24.67,10.22 25.84,10.49 26.37,11.03 L26.47,11.16 L26.52,11.23 C26.54,11.26 26.56,11.28 26.57,11.3 C26.96,12.07 26.44,13.48 25.02,15.13 Z" id="Shape" fill="#101828" fill-rule="nonzero"></path>
                    <rect id="Rectangle" x="0" y="0" width="32" height="32"></rect>
                </g>
            </g>
        </g>
    </g>
</svg>