<?xml version="1.0" encoding="UTF-8"?>
<svg width="42px" height="42px" viewBox="0 0 42 42" version="1.1" xmlns="http://www.w3.org/2000/svg" xmlns:xlink="http://www.w3.org/1999/xlink">
    <!-- Generator: Sketch 57.1 (83088) - https://sketch.com -->
    <title>103-G40px</title>
    <desc>Created with Sketch.</desc>
    <g id="NEW_icons" stroke="none" stroke-width="1" fill="none" fill-rule="evenodd">
        <g id="icons_UD_new-Copy" transform="translate(-1526.000000, -13321.000000)">
            <g id="103-G40px" transform="translate(1527.000000, 13322.000000)">
                <circle id="Oval-Copy-654" stroke="#E3E8EC" cx="20" cy="20" r="20"></circle>
                <g id="103-B32px-Copy-6" transform="translate(4.000000, 4.000000)">
                    <path d="M8,23 L8,27 L7,27 L7,23 L8,23 L8,23 Z M8,22 L7,22 C6.45,22 6,22.45 6,23 L6,27 C6,27.55 6.45,28 7,28 L8,28 C8.55,28 9,27.55 9,27 L9,23 C9,22.45 8.55,22 8,22 L8,22 Z" id="Shape" fill="#101828" fill-rule="nonzero"></path>
                    <path d="M10,19 L5,19 C4.45,19 4,19.45 4,20 L4,25 C4,25.55 4.45,26 5,26 L7,26 L7,25 L5,25 L5,20 L10,20 L10,25 L8,25 L8,26 L10,26 C10.55,26 11,25.55 11,25 L11,20 C11,19.45 10.55,19 10,19 Z" id="Path" fill="#101828" fill-rule="nonzero"></path>
                    <path d="M25,5 L25,9 L24,9 L24,5 L25,5 L25,5 Z M25,4 L24,4 C23.45,4 23,4.45 23,5 L23,9 C23,9.55 23.45,10 24,10 L25,10 C25.55,10 26,9.55 26,9 L26,5 C26,4.45 25.55,4 25,4 L25,4 Z" id="Shape" fill="#101828" fill-rule="nonzero"></path>
                    <path d="M27,6 L25,6 L25,7 L27,7 L27,12 L22,12 L22,7 L24,7 L24,6 L22,6 C21.45,6 21,6.45 21,7 L21,12 C21,12.55 21.45,13 22,13 L27,13 C27.55,13 28,12.55 28,12 L28,7 C28,6.45 27.55,6 27,6 Z" id="Path" fill="#101828" fill-rule="nonzero"></path>
                    <path d="M8,19.5 L7,19.5 L7,17.16 C7,15.3 8.06,13.71 9.78,13 C11.49,12.29 13.37,12.66 14.68,13.98 L18.02,17.32 C19.04,18.34 20.5,18.63 21.83,18.08 C23.16,17.53 23.99,16.29 23.99,14.85 L23.99,12.5 L24.99,12.5 L24.99,14.84 C24.99,16.7 23.93,18.29 22.21,19 C20.5,19.71 18.62,19.33 17.31,18.02 L13.97,14.68 C12.95,13.66 11.49,13.37 10.16,13.92 C8.83,14.48 8,15.71 8,17.16 L8,19.5 Z" id="Path" fill="#101828" fill-rule="nonzero"></path>
                    <rect id="Rectangle" x="0" y="0" width="32" height="32"></rect>
                </g>
            </g>
        </g>
    </g>
</svg>