<?xml version="1.0" encoding="UTF-8"?>
<svg width="56px" height="56px" viewBox="0 0 56 56" version="1.1" xmlns="http://www.w3.org/2000/svg" xmlns:xlink="http://www.w3.org/1999/xlink">
    <!-- Generator: Sketch 57.1 (83088) - https://sketch.com -->
    <title>088-B56px</title>
    <desc>Created with Sketch.</desc>
    <g id="088-B56px" stroke="none" stroke-width="1" fill="none" fill-rule="evenodd">
        <g>
            <path d="M40.1625,8.75 C40.215,8.75 40.25,8.785 40.25,8.8375 L40.25,47.1625 C40.25,47.215 40.215,47.25 40.1625,47.25 L15.8375,47.25 C15.785,47.25 15.75,47.215 15.75,47.1625 L15.75,8.8375 C15.75,8.785 15.785,8.75 15.8375,8.75 L40.1625,8.75 L40.1625,8.75 Z M40.1625,7 L15.8375,7 C14.8225,7 14,7.8225 14,8.8375 L14,47.1625 C14,48.1775 14.8225,49 15.8375,49 L40.1625,49 C41.1775,49 42,48.1775 42,47.1625 L42,8.8375 C42,7.8225 41.1775,7 40.1625,7 L40.1625,7 Z" id="Shape" fill="#101828" fill-rule="nonzero"></path>
            <path d="M28,45.5 C28.4725,45.5 28.875,45.115 28.875,44.625 C28.875,44.135 28.4725,43.75 28,43.75 C27.5275,43.75 27.125,44.135 27.125,44.625 C27.125,45.115 27.5275,45.5 28,45.5" id="Path" fill="#101828" fill-rule="nonzero"></path>
            <rect id="Rectangle" fill="#101828" fill-rule="nonzero" x="14" y="40.25" width="28" height="1.75"></rect>
            <path d="M28,14 C31.8325,14 34.965,17.1675 35,21.0175 C34.965,23.9225 31.115,29.8725 28,33.9325 C24.8675,29.8725 21,23.94 21,21.1925 L21,21.0875 C21,17.185 24.1325,14 28,14 L28,14 Z M28,12.25 L28,12.25 C23.17,12.25 19.25,16.2225 19.25,21.105 L19.25,21.21 C19.25,26.18 28,36.75 28,36.75 C28,36.75 36.6975,26.25 36.75,21.035 C36.715,16.17 32.8125,12.25 28,12.25 L28,12.25 Z" id="Shape" fill="#101828" fill-rule="nonzero"></path>
            <path d="M28,17.5 C29.925,17.5 31.5,19.075 31.5,21 C31.5,22.925 29.925,24.5 28,24.5 C26.075,24.5 24.5,22.925 24.5,21 C24.5,19.075 26.075,17.5 28,17.5 L28,17.5 Z M28,15.75 C25.095,15.75 22.75,18.095 22.75,21 C22.75,23.905 25.095,26.25 28,26.25 C30.905,26.25 33.25,23.905 33.25,21 C33.25,18.095 30.905,15.75 28,15.75 L28,15.75 Z" id="Shape" fill="#101828" fill-rule="nonzero"></path>
            <rect id="Rectangle" x="0" y="0" width="56" height="56"></rect>
        </g>
    </g>
</svg>