<?xml version="1.0" encoding="UTF-8"?>
<svg width="42px" height="42px" viewBox="0 0 42 42" version="1.1" xmlns="http://www.w3.org/2000/svg" xmlns:xlink="http://www.w3.org/1999/xlink">
    <!-- Generator: Sketch 57.1 (83088) - https://sketch.com -->
    <title>099-G40px</title>
    <desc>Created with Sketch.</desc>
    <g id="NEW_icons" stroke="none" stroke-width="1" fill="none" fill-rule="evenodd">
        <g id="icons_UD_new-Copy" transform="translate(-1526.000000, -12818.000000)">
            <g id="099-G40px" transform="translate(1527.000000, 12819.000000)">
                <circle id="Oval-Copy-651" stroke="#E3E8EC" cx="20" cy="20" r="20"></circle>
                <g id="099-B32px-Copy" transform="translate(4.000000, 4.000000)">
                    <path d="M16,23 C16.28,23 16.5,23.22 16.5,23.5 C16.5,23.78 16.28,24 16,24 C15.72,24 15.5,23.78 15.5,23.5 C15.5,23.22 15.72,23 16,23 L16,23 Z M16,22 C15.17,22 14.5,22.67 14.5,23.5 C14.5,24.33 15.17,25 16,25 C16.83,25 17.5,24.33 17.5,23.5 C17.5,22.67 16.83,22 16,22 L16,22 Z" id="Shape" fill="#101828" fill-rule="nonzero"></path>
                    <path d="M26,7 C26.28,7 26.5,7.22 26.5,7.5 C26.5,7.78 26.28,8 26,8 C25.72,8 25.5,7.78 25.5,7.5 C25.5,7.22 25.72,7 26,7 L26,7 Z M26,6 C25.17,6 24.5,6.67 24.5,7.5 C24.5,8.33 25.17,9 26,9 C26.83,9 27.5,8.33 27.5,7.5 C27.5,6.67 26.83,6 26,6 L26,6 Z" id="Shape" fill="#101828" fill-rule="nonzero"></path>
                    <path d="M25,12 L25,11 L27,11 L27,12 L28,12 L28,11 C28,10.45 27.55,10 27,10 L25,10 C24.45,10 24,10.45 24,11 L24,12 L25,12 Z" id="Path" fill="#101828" fill-rule="nonzero"></path>
                    <path d="M6,7 C6.28,7 6.5,7.22 6.5,7.5 C6.5,7.78 6.28,8 6,8 C5.72,8 5.5,7.78 5.5,7.5 C5.5,7.22 5.72,7 6,7 L6,7 Z M6,6 C5.17,6 4.5,6.67 4.5,7.5 C4.5,8.33 5.17,9 6,9 C6.83,9 7.5,8.33 7.5,7.5 C7.5,6.67 6.83,6 6,6 L6,6 Z" id="Shape" fill="#101828" fill-rule="nonzero"></path>
                    <path d="M5,12 L5,11 L7,11 L7,12 L8,12 L8,11 C8,10.45 7.55,10 7,10 L5,10 C4.45,10 4,10.45 4,11 L4,12 L5,12 Z" id="Path" fill="#101828" fill-rule="nonzero"></path>
                    <path d="M15,28 L15,27 L17,27 L17,28 L18,28 L18,27 C18,26.45 17.55,26 17,26 L15,26 C14.45,26 14,26.45 14,27 L14,28 L15,28 Z" id="Path" fill="#101828" fill-rule="nonzero"></path>
                    <path d="M12.33,10.13 L14.21,12.07 L13.41,12.85 L12.93,13.32 L13.18,13.94 C13.24,14.09 13.81,15.45 14.64,16.32 C15.47,17.19 16.82,17.79 16.97,17.86 L17.59,18.13 L18.07,17.66 L18.87,16.88 L20.75,18.82 L19.55,19.99 C16.83,19.46 14.21,16.79 14.18,16.76 C14.15,16.73 11.54,14 11.13,11.29 L12.33,10.13 L12.33,10.13 Z M12.34,8.98 C12.18,8.98 12.01,9.04 11.88,9.17 L10.31,10.69 C10.16,10.84 10.09,11.05 10.12,11.26 C10.49,14.39 13.46,17.46 13.46,17.46 C13.46,17.46 16.41,20.51 19.56,21.01 C19.59,21.02 19.62,21.02 19.66,21.02 C19.83,21.02 20,20.95 20.12,20.83 L21.69,19.31 C21.95,19.06 21.96,18.65 21.71,18.39 L19.34,15.94 C19.21,15.81 19.05,15.74 18.88,15.74 C18.72,15.74 18.55,15.8 18.42,15.93 L17.37,16.95 C17.37,16.95 16.08,16.38 15.36,15.63 C14.64,14.88 14.11,13.57 14.11,13.57 L15.16,12.55 C15.42,12.3 15.43,11.89 15.18,11.63 L12.8,9.18 C12.68,9.05 12.51,8.98 12.34,8.98 L12.34,8.98 Z" id="Shape" fill="#101828" fill-rule="nonzero"></path>
                    <path d="M8.44,8.02 C10.42,6.15 13.07,5 16,5 C18.93,5 21.59,6.16 23.57,8.04 C23.53,7.86 23.5,7.69 23.5,7.5 C23.5,7.23 23.55,6.98 23.63,6.74 C21.56,5.03 18.9,4 16,4 C13.1,4 10.45,5.04 8.38,6.76 C8.45,7 8.5,7.24 8.5,7.5 C8.5,7.68 8.48,7.86 8.44,8.02 Z" id="Path" fill="#101828" fill-rule="nonzero"></path>
                    <g id="Group" transform="translate(4.000000, 13.000000)" fill="#101828" fill-rule="nonzero">
                        <path d="M23.61,0 L22.58,0 C22.85,0.96 23.01,1.96 23.01,3 C23.01,8.02 19.62,12.26 15.01,13.57 L15.01,14.6 C20.18,13.27 24.01,8.58 24.01,2.99 C24,1.96 23.85,0.96 23.61,0 Z" id="Path"></path>
                        <path d="M9,13.57 C4.39,12.26 1,8.02 1,3 C1,1.96 1.15,0.96 1.43,0 L0.39,0 C0.15,0.96 0,1.96 0,3 C0,8.59 3.83,13.27 9,14.61 L9,13.57 Z" id="Path"></path>
                    </g>
                    <rect id="Rectangle" x="0" y="0" width="32" height="32"></rect>
                </g>
            </g>
        </g>
    </g>
</svg>