<?xml version="1.0" encoding="UTF-8"?>
<svg width="40px" height="40px" viewBox="0 0 40 40" version="1.1" xmlns="http://www.w3.org/2000/svg" xmlns:xlink="http://www.w3.org/1999/xlink">
    <!-- Generator: Sketch 57.1 (83088) - https://sketch.com -->
    <title>087-B40px</title>
    <desc>Created with Sketch.</desc>
    <g id="087-B40px" stroke="none" stroke-width="1" fill="none" fill-rule="evenodd">
        <g>
            <path d="M23.75,32.5 L23.75,33.6875 C23.75,33.725 23.725,33.75 23.6875,33.75 L6.3125,33.75 C6.275,33.75 6.25,33.725 6.25,33.6875 L6.25,30 L12.5,30 L12.5,28.75 L6.25,28.75 L6.25,6.3125 C6.25,6.275 6.275,6.25 6.3125,6.25 L23.6875,6.25 C23.725,6.25 23.75,6.275 23.75,6.3125 L23.75,15 L25,15 L25,6.3125 C25,5.5875 24.4125,5 23.6875,5 L6.3125,5 C5.5875,5 5,5.5875 5,6.3125 L5,28.75 L5,30 L5,33.6875 C5,34.4125 5.5875,35 6.3125,35 L23.6875,35 C24.4125,35 25,34.4125 25,33.6875 L25,32.5 L23.75,32.5 Z" id="Path" fill="#101828" fill-rule="nonzero"></path>
            <path d="M33.75,17.5 L33.75,30 L15,30 L15,17.5 L33.75,17.5 L33.75,17.5 Z M33.75,16.25 L15,16.25 C14.3125,16.25 13.75,16.8125 13.75,17.5 L13.75,30 C13.75,30.6875 14.3125,31.25 15,31.25 L33.75,31.25 C34.4375,31.25 35,30.6875 35,30 L35,17.5 C35,16.8125 34.4375,16.25 33.75,16.25 L33.75,16.25 Z" id="Shape" fill="#101828" fill-rule="nonzero"></path>
            <path d="M33.75,20 L33.75,21.25 L15,21.25 L15,20 L33.75,20 L33.75,20 Z M35,18.75 L13.75,18.75 L13.75,22.5 L35,22.5 L35,18.75 L35,18.75 Z" id="Shape" fill="#101828" fill-rule="nonzero"></path>
            <path d="M27.8125,27.4375 C27.7125,27.4625 27.6125,27.5 27.5,27.5 C26.8125,27.5 26.25,26.9375 26.25,26.25 C26.25,25.5625 26.8125,25 27.5,25 C27.6125,25 27.7125,25.0375 27.8125,25.0625 C28.0375,24.6625 28.35,24.325 28.75,24.1 C28.375,23.8875 27.9625,23.75 27.5,23.75 C26.125,23.75 25,24.875 25,26.25 C25,27.625 26.125,28.75 27.5,28.75 C27.9625,28.75 28.375,28.6125 28.75,28.4 C28.35,28.175 28.0375,27.8375 27.8125,27.4375 Z" id="Path" fill="#101828" fill-rule="nonzero"></path>
            <path d="M30,25 C30.6875,25 31.25,25.5625 31.25,26.25 C31.25,26.9375 30.6875,27.5 30,27.5 C29.3125,27.5 28.75,26.9375 28.75,26.25 C28.75,25.5625 29.3125,25 30,25 L30,25 Z M30,23.75 C28.625,23.75 27.5,24.875 27.5,26.25 C27.5,27.625 28.625,28.75 30,28.75 C31.375,28.75 32.5,27.625 32.5,26.25 C32.5,24.875 31.375,23.75 30,23.75 L30,23.75 Z" id="Shape" fill="#101828" fill-rule="nonzero"></path>
            <rect id="Rectangle" x="0" y="0" width="40" height="40"></rect>
        </g>
    </g>
</svg>