<?xml version="1.0" encoding="UTF-8"?>
<svg width="40px" height="40px" viewBox="0 0 40 40" version="1.1" xmlns="http://www.w3.org/2000/svg" xmlns:xlink="http://www.w3.org/1999/xlink">
    <!-- Generator: Sketch 57.1 (83088) - https://sketch.com -->
    <title>151-B40px</title>
    <desc>Created with Sketch.</desc>
    <g id="151-B40px" stroke="none" stroke-width="1" fill="none" fill-rule="evenodd">
        <g>
            <path d="M29.9375,6.25 C29.975,6.25 30,6.275 30,6.3125 L30,33.6875 C30,33.725 29.975,33.75 29.9375,33.75 L12.5625,33.75 C12.525,33.75 12.5,33.725 12.5,33.6875 L12.5,6.3125 C12.5,6.275 12.525,6.25 12.5625,6.25 L29.9375,6.25 L29.9375,6.25 Z M29.9375,5 L12.5625,5 C11.8375,5 11.25,5.5875 11.25,6.3125 L11.25,33.6875 C11.25,34.4125 11.8375,35 12.5625,35 L29.9375,35 C30.6625,35 31.25,34.4125 31.25,33.6875 L31.25,6.3125 C31.25,5.5875 30.6625,5 29.9375,5 L29.9375,5 Z" id="Shape" fill="#101828" fill-rule="nonzero"></path>
            <path d="M21.25,32.5 C21.5875,32.5 21.875,32.225 21.875,31.875 C21.875,31.525 21.5875,31.25 21.25,31.25 C20.9125,31.25 20.625,31.525 20.625,31.875 C20.625,32.225 20.9125,32.5 21.25,32.5" id="Path" fill="#101828" fill-rule="nonzero"></path>
            <rect id="Rectangle" fill="#101828" fill-rule="nonzero" x="11.25" y="28.75" width="20" height="1.25"></rect>
            <path d="M20,14.675 L23.775,16.875 L20,19.075 L20,14.675 L20,14.675 Z M18.75,12.5 L18.75,21.25 L26.25,16.875 L18.75,12.5 L18.75,12.5 Z" id="Shape" fill="#101828" fill-rule="nonzero"></path>
            <rect id="Rectangle" x="0" y="0" width="40" height="40"></rect>
        </g>
    </g>
</svg>