<?xml version="1.0" encoding="UTF-8"?>
<svg width="40px" height="40px" viewBox="0 0 40 40" version="1.1" xmlns="http://www.w3.org/2000/svg" xmlns:xlink="http://www.w3.org/1999/xlink">
    <!-- Generator: Sketch 57.1 (83088) - https://sketch.com -->
    <title>075-B40px</title>
    <desc>Created with Sketch.</desc>
    <g id="075-B40px" stroke="none" stroke-width="1" fill="none" fill-rule="evenodd">
        <g>
            <path d="M28.0363636,6.24242424 C28.0727273,6.24242424 28.0969697,6.26666667 28.0969697,6.3030303 L27.9151515,32.8484848 C27.9151515,32.8848485 27.8909091,32.9090909 27.8545455,32.9090909 L11.0060606,32.8 C10.969697,32.8 10.9454545,32.7757576 10.9454545,32.7393939 L11.1272727,6.19393939 C11.1272727,6.15757576 11.1515152,6.13333333 11.1878788,6.13333333 L28.0363636,6.24242424 L28.0363636,6.24242424 Z M28.0484848,5.03030303 L11.2,4.92121212 C10.4969697,4.92121212 9.91515152,5.47878788 9.91515152,6.18181818 L9.73333333,32.7272727 C9.73333333,33.430303 10.2909091,34.0121212 10.9939394,34.0121212 L27.8424242,34.1212121 C28.5454545,34.1212121 29.1272727,33.5636364 29.1272727,32.8606061 L29.3090909,6.31515152 C29.3090909,5.61212121 28.7515152,5.04242424 28.0484848,5.03030303 L28.0484848,5.03030303 Z" id="Shape" fill="#101828" fill-rule="nonzero"></path>
            <path d="M19.4424242,31.6363636 C19.769697,31.6363636 20.0484848,31.369697 20.0484848,31.0424242 C20.0484848,30.7151515 19.7818182,30.4363636 19.4545455,30.4363636 C19.1272727,30.4363636 18.8484848,30.7030303 18.8484848,31.030303 C18.8363636,31.369697 19.1151515,31.6363636 19.4424242,31.6363636" id="Path" fill="#101828" fill-rule="nonzero"></path>
            <rect id="Rectangle" fill="#101828" fill-rule="nonzero" transform="translate(19.467107, 28.609847) rotate(-89.615550) translate(-19.467107, -28.609847) " x="18.8610324" y="18.9126589" width="1.2121485" height="19.394376"></rect>
            <path d="M19.5757576,11.0424242 C22.9212121,11.0666667 25.6121212,13.8060606 25.6000408,17.1393939 C25.5878788,20.4727273 22.8363636,23.1757576 19.5030303,23.163677 C16.1575758,23.1393939 13.4666667,20.4 13.4787471,17.0666667 C13.4909091,13.7333333 16.2424242,11.0181818 19.5757576,11.0424242 L19.5757576,11.0424242 Z M19.5878788,9.83016772 C15.5757576,9.80606061 12.2909091,13.0424242 12.2665314,17.0545455 C12.2424242,21.0666667 15.4787879,24.3515152 19.4909091,24.3758929 C23.5030303,24.4 26.7878788,21.1636364 26.8122565,17.1515152 C26.8363636,13.1393939 23.6,9.85454545 19.5878788,9.83016772 L19.5878788,9.83016772 Z" id="Shape" fill="#101828" fill-rule="nonzero"></path>
            <path d="M19.5636364,11.0423799 C20.9818182,11.0545455 22.5575758,13.5515152 22.5333333,17.1272727 C22.5090909,20.7030303 20.9090909,23.1757576 19.4787879,23.1636807 C18.0606061,23.1515152 16.4848485,20.6545455 16.5090909,17.0787879 C16.5333333,13.5030303 18.1454545,11.030303 19.5636364,11.0423799 L19.5636364,11.0423799 Z M19.5757576,9.83026909 C17.2484848,9.81818182 15.3333333,13.0545455 15.3090909,17.0787879 C15.2848485,21.1030303 17.1515152,24.3636364 19.4787879,24.3757915 C21.8060606,24.3878788 23.7212121,21.1515152 23.7454545,17.1272727 C23.769697,13.1030303 21.9030303,9.84242424 19.5757576,9.83026909 L19.5757576,9.83026909 Z" id="Shape" fill="#101828" fill-rule="nonzero"></path>
            <polygon id="Rectangle" fill="#101828" fill-rule="nonzero" transform="translate(19.521735, 20.165480) rotate(-89.615550) translate(-19.521735, -20.165480) " points="18.9156608 14.0380697 20.1278093 14.0380697 20.1278093 26.292891 18.9156608 26.292891"></polygon>
            <polygon id="Rectangle" fill="#101828" fill-rule="nonzero" transform="translate(19.565939, 14.033619) rotate(-89.615550) translate(-19.565939, -14.033619) " points="18.9598649 7.90620829 20.1720134 7.90620829 20.1720134 20.1610296 18.9598649 20.1610296"></polygon>
            <polygon id="Rectangle" fill="#101828" fill-rule="nonzero" transform="translate(19.538140, 17.099812) rotate(-89.615550) translate(-19.538140, -17.099812) " points="18.9320659 10.2087478 20.1442144 10.2087478 20.1442144 23.9908762 18.9320659 23.9908762"></polygon>
            <polygon id="Rectangle" fill="#101828" fill-rule="nonzero" transform="translate(19.537454, 17.315135) rotate(-89.615550) translate(-19.537454, -17.315135) " points="13.2524635 16.7090606 25.8224435 16.7090606 25.8224435 17.9212091 13.2524635 17.9212091"></polygon>
            <polygon id="Rectangle" transform="translate(19.527638, 19.527756) rotate(0.384450) translate(-19.527638, -19.527756) " points="0.133262189 0.133379771 38.9220142 0.133379771 38.9220142 38.9221318 0.133262189 38.9221318"></polygon>
        </g>
    </g>
</svg>