<?xml version="1.0" encoding="UTF-8"?>
<svg width="40px" height="40px" viewBox="0 0 40 40" version="1.1" xmlns="http://www.w3.org/2000/svg" xmlns:xlink="http://www.w3.org/1999/xlink">
    <!-- Generator: Sketch 57.1 (83088) - https://sketch.com -->
    <title>163-B40px</title>
    <desc>Created with Sketch.</desc>
    <g id="163-B40px" stroke="none" stroke-width="1" fill="none" fill-rule="evenodd">
        <g>
            <path d="M18.75,17.8 L22.525,20 L18.75,22.2 L18.75,17.8 L18.75,17.8 Z M17.5,15.6125 L17.5,24.375 L25,20 L17.5,15.6125 L17.5,15.6125 Z" id="Shape" fill="#101828" fill-rule="nonzero"></path>
            <path d="M19.375,8.75 C22.1625,8.75 24.65,10.5375 25.725,13.3 L26.0625,14.175 L27,14.1 C27.1625,14.0875 27.3375,14.075 27.5,14.075 C30.95,14.075 33.75,17.0875 33.75,20.7875 C33.75,24.4875 30.95,27.5 27.5,27.5 L13.15,27.5 L13.15,27.5 L11.9,27.5 L11.8375,27.5 L11.8375,27.5 C8.75,27.475 6.25,24.7625 6.25,21.45 C6.25,18.25 8.575,15.6 11.55,15.4125 L12.4875,15.35 L12.6875,14.425 C13.425,11.0875 16.175,8.75 19.375,8.75 L19.375,8.75 Z M19.375,7.5 C15.525,7.5 12.3125,10.35 11.475,14.1625 C7.8625,14.3875 5,17.55 5,21.45 C5,25.475 8.075,28.75 11.875,28.75 C11.8875,28.75 11.8875,28.75 11.9,28.75 L11.9,28.75 L27.5,28.75 C31.6375,28.75 35,25.1875 35,20.7875 C35,16.3875 31.6375,12.8125 27.5,12.8125 C27.2875,12.8125 27.0875,12.825 26.8875,12.85 C25.675,9.7125 22.7625,7.5 19.375,7.5 L19.375,7.5 Z" id="Shape" fill="#101828" fill-rule="nonzero"></path>
            <rect id="Rectangle" x="0" y="0" width="40" height="40"></rect>
        </g>
    </g>
</svg>