<?xml version="1.0" encoding="UTF-8"?>
<svg width="56px" height="56px" viewBox="0 0 56 56" version="1.1" xmlns="http://www.w3.org/2000/svg" xmlns:xlink="http://www.w3.org/1999/xlink">
    <!-- Generator: Sketch 54.1 (76490) - https://sketchapp.com -->
    <title>005-G56px</title>
    <desc>Created with Sketch.</desc>
    <g id="NEW_icons" stroke="none" stroke-width="1" fill="none" fill-rule="evenodd">
        <g id="icons_UD_new-Copy" transform="translate(-1728.000000, -851.000000)">
            <g id="005-G56px" transform="translate(1728.000000, 851.000000)">
                <circle id="Oval-Copy-99" fill="#E3E8EC" cx="28" cy="28" r="28"></circle>
                <g id="005-B32px-Copy-4" transform="translate(8.000000, 8.000000)">
                    <path d="M20,6.25 C23.45,6.25 26.25,9.05 26.25,12.5 C26.25,15.95 23.45,18.75 20,18.75 C16.55,18.75 13.75,15.95 13.75,12.5 C13.75,9.05 16.55,6.25 20,6.25 L20,6.25 Z M20,5 C15.8625,5 12.5,8.3625 12.5,12.5 C12.5,16.6375 15.8625,20 20,20 C24.1375,20 27.5,16.6375 27.5,12.5 C27.5,8.3625 24.1375,5 20,5 L20,5 Z" id="Shape" fill="#101828" fill-rule="nonzero"></path>
                    <path d="M8.75,35 L8.75,27.5 C8.75,25.4375 10.4375,23.75 12.5,23.75 L27.5,23.75 C29.5625,23.75 31.25,25.4375 31.25,27.5 L31.25,35 L32.5,35 L32.5,27.5 C32.5,24.7375 30.2625,22.5 27.5,22.5 L12.5,22.5 C9.7375,22.5 7.5,24.7375 7.5,27.5 L7.5,35 L8.75,35 Z" id="Path" fill="#101828" fill-rule="nonzero"></path>
                    <rect id="Rectangle" x="0" y="0" width="40" height="40"></rect>
                </g>
            </g>
        </g>
    </g>
</svg>