<?xml version="1.0" encoding="UTF-8"?>
<svg width="42px" height="42px" viewBox="0 0 42 42" version="1.1" xmlns="http://www.w3.org/2000/svg" xmlns:xlink="http://www.w3.org/1999/xlink">
    <!-- Generator: Sketch 57.1 (83088) - https://sketch.com -->
    <title>166-G40px</title>
    <desc>Created with Sketch.</desc>
    <g id="NEW_icons" stroke="none" stroke-width="1" fill="none" fill-rule="evenodd">
        <g id="icons_UD_new-Copy" transform="translate(-244.000000, -21356.000000)">
            <g id="166-G40px" transform="translate(245.000000, 21357.000000)">
                <g>
                    <circle id="Oval-Copy-957" stroke="#E3E8EC" cx="20" cy="20" r="20"></circle>
                    <g id="166-B32px-Copy" transform="translate(4.000000, 4.000000)">
                        <g id="Group-2" transform="translate(4.200000, 3.145455)" fill="#101828" fill-rule="nonzero">
                            <g id="Group">
                                <path d="M18.6,15.03 L18.47,14.62 C18.38,14.36 18.1,14.26 17.91,14.18 C17.71,14.1 17.65,13.86 17.77,13.77 C18.08,13.57 18.41,13.4 18.75,13.26 C19.56,12.87 18.5,12.72 18,12.38 C17.74,12.2 17.53,11.96 17.41,11.67 C17.41,11.64 17.41,11.62 17.41,11.59 L13.63,0.85 L10,0.85 L6.23,11.49 L6.23,11.56 C6.23,11.56 5.97,12.14 6.29,12.39 C6.61,12.64 7.04,12.85 6.29,13.24 C5.54,13.63 5.16,13.75 5.03,13.83 C4.9,13.91 4.83,14.11 5.03,14.15 C5.23,14.2 5.24,14.42 5.14,14.68 L4.98,15.08 L3.31,19.82 L6.91,19.82 L8.57,15.08 L8.74,14.7 C8.84,14.44 8.84,14.2 8.62,14.17 C8.4,14.13 8.46,13.94 8.62,13.85 C8.78,13.76 9.07,13.65 9.89,13.26 C10.7,12.87 10.18,12.6 9.89,12.41 C9.6,12.2 9.83,11.56 9.83,11.56 L11.8,5.98 L13.89,11.91 L10.82,11.91 C10.77,12.09 10.83,12.28 10.97,12.4 C11.23,12.6 11.72,12.86 10.97,13.25 C10.21,13.64 9.84,13.76 9.7,13.84 C9.56,13.92 9.52,14.12 9.7,14.16 C9.88,14.21 9.92,14.44 9.82,14.7 C9.72,14.96 9.62,15.28 9.62,15.28 L15.09,15.28 L16.69,19.84 L20.29,19.84 L18.6,15.07 L18.6,15.03 Z" id="Path"></path>
                                <polygon id="Path" points="6.89 21.36 7.65 21.36 7.65 24.82 6.89 24.82"></polygon>
                                <polygon id="Path" points="7.03 21.36 8.96 21.36 8.96 22.12 7.03 22.12"></polygon>
                                <polygon id="Path" points="7.03 22.71 8.69 22.71 8.69 23.47 7.03 23.47"></polygon>
                                <polygon id="Path" points="7.03 24.06 8.96 24.06 8.96 24.82 7.03 24.82"></polygon>
                                <polygon id="Path" points="14.01 21.36 14.77 21.36 14.77 24.82 14.01 24.82"></polygon>
                                <polygon id="Path" points="12.44 21.36 12.44 21.38 11.43 22.77 10.35 21.36 9.59 21.36 9.59 24.82 10.35 24.82 10.35 22.68 11.41 23.99 12.44 22.71 12.44 24.82 13.2 24.82 13.2 21.36"></polygon>
                                <polygon id="Path" points="22.07 21.36 22.07 21.38 21.06 22.77 19.98 21.36 19.22 21.36 19.22 24.82 19.98 24.82 19.98 22.68 21.04 23.99 22.07 22.71 22.07 24.82 22.83 24.82 22.83 21.36"></polygon>
                                <path d="M18.26,21.36 L17.66,21.36 L17.66,23.51 C17.62,23.85 17.33,24.12 16.99,24.12 C16.64,24.12 16.35,23.86 16.32,23.51 L16.32,21.36 L15.56,21.36 L15.56,23.51 C15.61,24.27 16.24,24.85 17,24.85 C17.76,24.85 18.39,24.26 18.44,23.51 L18.44,21.36 L18.26,21.36 Z" id="Path"></path>
                                <path d="M5.55,24.82 L6.6,24.82 L5.54,23.46 C5.99,23.21 6.22,22.69 6.09,22.2 C5.96,21.7 5.51,21.36 4.99,21.37 L3.76,21.37 L3.76,24.83 L4.51,24.83 L4.51,23.6 L4.62,23.6 L5.55,24.82 Z M5.4,22.44 C5.4,22.69 5.19,22.9 4.94,22.9 L4.52,22.9 L4.52,21.98 L4.94,21.98 C5.19,21.98 5.4,22.19 5.4,22.44 Z" id="Shape"></path>
                                <path d="M3.05,22.89 C3.05,22.9 3.05,22.92 3.05,22.94 C3.04,22.92 3.04,22.9 3.05,22.89 Z" id="Path"></path>
                                <path d="M2.01,21.36 L0.78,21.36 L0.78,24.82 L1.53,24.82 L1.53,23.6 L2,23.6 C2.21,23.6 2.42,23.54 2.59,23.43 L2.65,23.43 L2.69,23.43 L2.8,23.32 L2.88,23.23 L2.88,23.23 L2.93,23.16 L3.01,23.03 C3.01,23.02 3.01,23 3.01,22.98 C3.06,22.85 3.09,22.71 3.09,22.57 C3.12,22.26 3.02,21.96 2.82,21.73 C2.6,21.51 2.31,21.37 2.01,21.36 Z M1.95,22.9 L1.53,22.9 L1.53,21.98 L1.95,21.98 C2.2,21.98 2.41,22.19 2.41,22.44 C2.41,22.47 2.41,22.5 2.41,22.53 C2.37,22.75 2.18,22.91 1.95,22.9 Z" id="Shape"></path>
                            </g>
                        </g>
                        <rect id="Rectangle" x="0" y="0" width="32" height="32"></rect>
                    </g>
                </g>
            </g>
        </g>
    </g>
</svg>