<?xml version="1.0" encoding="UTF-8"?>
<svg width="56px" height="56px" viewBox="0 0 56 56" version="1.1" xmlns="http://www.w3.org/2000/svg" xmlns:xlink="http://www.w3.org/1999/xlink">
    <!-- Generator: Sketch 57.1 (83088) - https://sketch.com -->
    <title>082-G56px</title>
    <desc>Created with Sketch.</desc>
    <g id="NEW_icons" stroke="none" stroke-width="1" fill="none" fill-rule="evenodd">
        <g id="icons_UD_new-Copy" transform="translate(-446.000000, -10792.000000)">
            <g id="082-G56px" transform="translate(446.000000, 10792.000000)">
                <circle id="Oval-Copy-543" fill="#E3E8EC" cx="28" cy="28" r="28"></circle>
                <g id="082-B32px-Copy-2" transform="translate(8.000000, 8.000000)">
                    <path d="M28.6875,6.25 C28.725,6.25 28.75,6.275 28.75,6.3125 L28.75,33.6875 C28.75,33.725 28.725,33.75 28.6875,33.75 L11.3125,33.75 C11.275,33.75 11.25,33.725 11.25,33.6875 L11.25,6.3125 C11.25,6.275 11.275,6.25 11.3125,6.25 L28.6875,6.25 L28.6875,6.25 Z M28.6875,5 L11.3125,5 C10.5875,5 10,5.5875 10,6.3125 L10,33.6875 C10,34.4125 10.5875,35 11.3125,35 L28.6875,35 C29.4125,35 30,34.4125 30,33.6875 L30,6.3125 C30,5.5875 29.4125,5 28.6875,5 L28.6875,5 Z" id="Shape" fill="#101828" fill-rule="nonzero"></path>
                    <path d="M20,32.5 C20.3375,32.5 20.625,32.225 20.625,31.875 C20.625,31.525 20.3375,31.25 20,31.25 C19.6625,31.25 19.375,31.525 19.375,31.875 C19.375,32.225 19.6625,32.5 20,32.5" id="Path" fill="#101828" fill-rule="nonzero"></path>
                    <rect id="Rectangle" fill="#101828" fill-rule="nonzero" x="10" y="28.75" width="20" height="1.25"></rect>
                    <path d="M26.25,16.8625 L20,13.1125 L20,15 C19.4625,15 18.9375,15 18.8125,15 C18.3625,15.0125 17.9,14.9875 17.45,15.05 C16.2,15.225 15.325,15.95 14.7,17.025 C14.25,17.8125 14,18.675 13.8625,19.575 C13.8,19.95 13.7625,20.3375 13.725,20.725 C13.7375,20.725 13.7625,20.7375 13.775,20.7375 C14.1625,20.1875 14.7125,19.825 15.2875,19.525 C15.9625,19.1625 17.2375,18.7875 18,18.75 C18.1625,18.7375 18.375,18.7375 18.625,18.7375 C19.0375,18.7375 19.525,18.75 19.9875,18.75 L19.9875,20.6 L26.25,16.8625 Z M18.75,17.5 C18.4375,17.5 18.3625,17.5 18.35,17.5 C18.35,17.5 18.35,17.5 18.35,17.5 C18.35,17.5 18.325,17.5 18.175,17.5 C17.35,17.5 16.675,17.7375 16.3875,17.8125 C16.15,17.875 15.9,17.9625 15.6375,18.0375 C16.0625,16.9875 17.025,16.25 18.2125,16.25 C18.2125,16.25 18.225,16.25 18.225,16.25 C18.2375,16.25 18.25,16.25 18.2625,16.25 C18.475,16.25 18.6375,16.2375 19.45,16.2375 C19.6125,16.2375 19.8,16.2375 20.0125,16.2375 L20.0125,16.25 L21.2625,16.25 L21.2625,16.25 L21.2625,15.3125 L23.8375,16.85 L21.25,18.4 L21.25,17.5 L20,17.5 C19.375,17.5 18.9875,17.5 18.75,17.5 Z" id="Shape" fill="#101828" fill-rule="nonzero"></path>
                    <rect id="Rectangle" x="0" y="0" width="40" height="40"></rect>
                </g>
            </g>
        </g>
    </g>
</svg>