<?xml version="1.0" encoding="UTF-8"?>
<svg width="40px" height="40px" viewBox="0 0 40 40" version="1.1" xmlns="http://www.w3.org/2000/svg" xmlns:xlink="http://www.w3.org/1999/xlink">
    <!-- Generator: Sketch 57.1 (83088) - https://sketch.com -->
    <title>068-B40px</title>
    <desc>Created with Sketch.</desc>
    <g id="068-B40px" stroke="none" stroke-width="1" fill="none" fill-rule="evenodd">
        <g>
            <path d="M20,28.125 C20,27.75 20,27.375 20.125,27.125 C16.125,25 13,21.875 12.875,21.75 C12.875,21.75 7,15.625 6.25,9.625 C6.25,9.625 6.25,9.5 6.25,9.5 L9.5,6.25 C9.5,6.25 9.5,6.25 9.625,6.25 C9.625,6.25 9.625,6.25 9.75,6.25 L14.625,11.375 C14.625,11.375 14.625,11.5 14.625,11.5 L12.5,13.625 L11.875,14.25 L12.125,15 C12.125,15.125 13.375,18 15,19.625 C16.625,21.375 19.5,22.625 19.625,22.625 L20.375,23 L21,22.375 L23.125,20.25 C23.125,20.25 23.125,20.25 23.25,20.25 C23.25,20.25 23.25,20.25 23.375,20.25 L24.125,21 C24.5,20.75 24.875,20.625 25.375,20.375 L24.375,19.25 C24.125,19 23.75,18.875 23.375,18.875 C23,18.875 22.75,19 22.375,19.25 L20.25,21.375 C20.25,21.375 17.625,20.25 16,18.625 C14.5,17.125 13.375,14.375 13.375,14.375 L15.5,12.25 C16,11.75 16,10.875 15.5,10.375 L10.625,5.375 C10.375,5.125 10,5 9.625,5 C9.25,5 9,5.125 8.625,5.375 L5.375,8.5 C5.125,8.875 5,9.25 5,9.75 C5.75,16.25 12,22.625 12,22.625 C12,22.625 15.5,26.25 20,28.5 C20,28.375 20,28.25 20,28.125 Z" id="Path" fill="#101828" fill-rule="nonzero"></path>
            <path d="M28.125,22.5 C31.25,22.5 33.75,25 33.75,28.125 C33.75,31.25 31.25,33.75 28.125,33.75 C25,33.75 22.5,31.25 22.5,28.125 C22.5,25 25,22.5 28.125,22.5 L28.125,22.5 Z M28.125,21.25 C24.375,21.25 21.25,24.375 21.25,28.125 C21.25,31.875 24.375,35 28.125,35 C31.875,35 35,31.875 35,28.125 C35,24.375 31.875,21.25 28.125,21.25 L28.125,21.25 Z" id="Shape" fill="#101828" fill-rule="nonzero"></path>
            <polygon id="Path" fill="#101828" fill-rule="nonzero" points="25 27.5 25 28.75 27.5 28.75 27.5 31.25 28.75 31.25 28.75 28.75 31.25 28.75 31.25 27.5 28.75 27.5 28.75 25 27.5 25 27.5 27.5"></polygon>
            <rect id="Rectangle" x="0" y="0" width="40" height="40"></rect>
        </g>
    </g>
</svg>