<?xml version="1.0" encoding="UTF-8"?>
<svg width="42px" height="42px" viewBox="0 0 42 42" version="1.1" xmlns="http://www.w3.org/2000/svg" xmlns:xlink="http://www.w3.org/1999/xlink">
    <!-- Generator: Sketch 57.1 (83088) - https://sketch.com -->
    <title>164-G40px</title>
    <desc>Created with Sketch.</desc>
    <g id="NEW_icons" stroke="none" stroke-width="1" fill="none" fill-rule="evenodd">
        <g id="icons_UD_new-Copy" transform="translate(-244.000000, -21105.000000)">
            <g id="164-G40px" transform="translate(245.000000, 21106.000000)">
                <circle id="Oval-Copy-951" stroke="#E3E8EC" cx="20" cy="20" r="20"></circle>
                <g id="164-B32px-Copy" transform="translate(4.000000, 4.000000)">
                    <g id="Fill-285" transform="translate(7.000000, 6.000000)" fill="#101828">
                        <path d="M10.8,0.5 C11.01,1.09 11.22,1.68 11.43,2.27 C12.49,5.27 13.54,8.27 14.6,11.26 C14.75,11.69 15.07,11.97 15.47,12.16 C15.65,12.25 15.83,12.32 16.01,12.41 C16.08,12.44 16.14,12.49 16.2,12.54 C16.27,12.6 16.27,12.68 16.2,12.74 C16.14,12.79 16.07,12.84 16,12.88 C15.74,13.01 15.48,13.14 15.22,13.27 C15.15,13.3 15.09,13.34 15.02,13.39 C14.85,13.5 14.85,13.66 15.02,13.77 C15.11,13.83 15.21,13.86 15.3,13.91 C15.5,14 15.63,14.15 15.7,14.36 C16.28,16.03 16.86,17.7 17.45,19.37 C17.46,19.4 17.47,19.44 17.48,19.48 L13.89,19.48 C13.77,19.15 13.66,18.82 13.54,18.49 C13.13,17.34 12.73,16.18 12.32,15.03 C12.29,14.94 12.25,14.92 12.16,14.92 C10.94,14.92 9.72,14.92 8.5,14.92 C7.97,14.92 7.44,14.92 6.91,14.92 L6.8,14.92 C6.87,14.72 6.94,14.52 7.01,14.33 C7.04,14.23 7.07,14.14 7.08,14.04 C7.09,13.9 7.03,13.83 6.9,13.79 C6.74,13.74 6.71,13.61 6.84,13.5 C6.9,13.45 6.97,13.41 7.04,13.38 C7.4,13.21 7.77,13.05 8.13,12.87 C8.26,12.81 8.37,12.73 8.48,12.63 C8.6,12.53 8.6,12.41 8.49,12.3 C8.42,12.22 8.33,12.15 8.24,12.08 C8.03,11.92 7.98,11.81 8.01,11.54 L11.08,11.54 C10.38,9.56 9.69,7.59 8.99,5.6 C8.9,5.85 8.82,6.07 8.74,6.3 C8.16,7.95 7.57,9.61 7,11.26 C6.95,11.41 6.94,11.57 6.93,11.73 C6.92,11.86 7,11.96 7.1,12.04 C7.18,12.1 7.26,12.16 7.34,12.23 C7.53,12.4 7.53,12.57 7.32,12.71 C7.18,12.81 7.02,12.89 6.86,12.97 C6.54,13.13 6.21,13.27 5.89,13.43 C5.82,13.46 5.76,13.51 5.71,13.57 C5.63,13.66 5.67,13.75 5.78,13.79 C5.99,13.87 6.05,13.96 5.98,14.19 C5.89,14.48 5.77,14.76 5.67,15.05 C5.16,16.49 4.65,17.94 4.15,19.38 C4.12,19.47 4.08,19.51 3.98,19.51 C2.87,19.51 1.76,19.51 0.65,19.51 L0.52,19.51 C0.54,19.44 0.56,19.39 0.57,19.34 C1.11,17.82 1.64,16.29 2.18,14.77 C2.23,14.63 2.3,14.49 2.35,14.35 C2.38,14.25 2.41,14.16 2.42,14.06 C2.43,13.93 2.36,13.86 2.24,13.82 C2.19,13.8 2.1,13.75 2.1,13.71 C2.1,13.65 2.14,13.57 2.18,13.53 C2.23,13.48 2.3,13.45 2.36,13.42 C2.73,13.25 3.1,13.08 3.47,12.9 C3.58,12.85 3.69,12.78 3.79,12.69 C3.93,12.57 3.93,12.44 3.8,12.3 C3.75,12.24 3.68,12.19 3.62,12.15 C3.35,11.98 3.27,11.81 3.37,11.44 C3.46,11.09 3.6,10.75 3.72,10.41 C4.87,7.13 6.03,3.86 7.18,0.59 C7.19,0.57 7.2,0.55 7.2,0.53 L10.8,0.53 L10.8,0.5 Z" id="Path"></path>
                    </g>
                    <rect id="Rectangle" x="0" y="0" width="32" height="32"></rect>
                </g>
            </g>
        </g>
    </g>
</svg>