<?xml version="1.0" encoding="UTF-8"?>
<svg width="42px" height="42px" viewBox="0 0 42 42" version="1.1" xmlns="http://www.w3.org/2000/svg" xmlns:xlink="http://www.w3.org/1999/xlink">
    <!-- Generator: Sketch 57.1 (83088) - https://sketch.com -->
    <title>077-G40px</title>
    <desc>Created with Sketch.</desc>
    <g id="NEW_icons" stroke="none" stroke-width="1" fill="none" fill-rule="evenodd">
        <g id="icons_UD_new-Copy" transform="translate(-1526.000000, -10054.000000)">
            <g id="077-G40px" transform="translate(1527.000000, 10055.000000)">
                <circle id="Oval-Copy-501" stroke="#E3E8EC" cx="20" cy="20" r="20"></circle>
                <g id="077-B32px-Copy" transform="translate(4.000000, 4.000000)">
                    <path d="M22.95,5 C22.98,5 23,5.02 23,5.05 L23,26.95 C23,26.98 22.98,27 22.95,27 L9.05,27 C9.02,27 9,26.98 9,26.95 L9,5.05 C9,5.02 9.02,5 9.05,5 L22.95,5 L22.95,5 Z M22.95,4 L9.05,4 C8.47,4 8,4.47 8,5.05 L8,26.95 C8,27.53 8.47,28 9.05,28 L22.95,28 C23.53,28 24,27.53 24,26.95 L24,5.05 C24,4.47 23.53,4 22.95,4 L22.95,4 Z" id="Shape" fill="#101828" fill-rule="nonzero"></path>
                    <path d="M16,26 C16.27,26 16.5,25.78 16.5,25.5 C16.5,25.22 16.27,25 16,25 C15.73,25 15.5,25.22 15.5,25.5 C15.5,25.78 15.73,26 16,26" id="Path" fill="#101828" fill-rule="nonzero"></path>
                    <rect id="Rectangle" fill="#101828" fill-rule="nonzero" x="8" y="23" width="16" height="1"></rect>
                    <path d="M20,18 L20,20 L18,20 L18,18 L20,18 L20,18 Z M20,17 L18,17 C17.45,17 17,17.45 17,18 L17,20 C17,20.55 17.45,21 18,21 L20,21 C20.55,21 21,20.55 21,20 L21,18 C21,17.45 20.55,17 20,17 L20,17 Z" id="Shape" fill="#101828" fill-rule="nonzero"></path>
                    <path d="M14,18 L14,20 L12,20 L12,18 L14,18 L14,18 Z M14,17 L12,17 C11.45,17 11,17.45 11,18 L11,20 C11,20.55 11.45,21 12,21 L14,21 C14.55,21 15,20.55 15,20 L15,18 C15,17.45 14.55,17 14,17 L14,17 Z" id="Shape" fill="#101828" fill-rule="nonzero"></path>
                    <path d="M20,13 L20,15 L18,15 L18,13 L20,13 L20,13 Z M20,12 L18,12 C17.45,12 17,12.45 17,13 L17,15 C17,15.55 17.45,16 18,16 L20,16 C20.55,16 21,15.55 21,15 L21,13 C21,12.45 20.55,12 20,12 L20,12 Z" id="Shape" fill="#101828" fill-rule="nonzero"></path>
                    <path d="M14,13 L14,15 L12,15 L12,13 L14,13 L14,13 Z M14,12 L12,12 C11.45,12 11,12.45 11,13 L11,15 C11,15.55 11.45,16 12,16 L14,16 C14.55,16 15,15.55 15,15 L15,13 C15,12.45 14.55,12 14,12 L14,12 Z" id="Shape" fill="#101828" fill-rule="nonzero"></path>
                    <path d="M20,8 L20,10 L18,10 L18,8 L20,8 L20,8 Z M20,7 L18,7 C17.45,7 17,7.45 17,8 L17,10 C17,10.55 17.45,11 18,11 L20,11 C20.55,11 21,10.55 21,10 L21,8 C21,7.45 20.55,7 20,7 L20,7 Z" id="Shape" fill="#101828" fill-rule="nonzero"></path>
                    <path d="M14,8 L14,10 L12,10 L12,8 L14,8 L14,8 Z M14,7 L12,7 C11.45,7 11,7.45 11,8 L11,10 C11,10.55 11.45,11 12,11 L14,11 C14.55,11 15,10.55 15,10 L15,8 C15,7.45 14.55,7 14,7 L14,7 Z" id="Shape" fill="#101828" fill-rule="nonzero"></path>
                    <rect id="Rectangle" x="0" y="0" width="32" height="32"></rect>
                </g>
            </g>
        </g>
    </g>
</svg>