<?xml version="1.0" encoding="UTF-8"?>
<svg width="56px" height="56px" viewBox="0 0 56 56" version="1.1" xmlns="http://www.w3.org/2000/svg" xmlns:xlink="http://www.w3.org/1999/xlink">
    <!-- Generator: Sketch 54.1 (76490) - https://sketchapp.com -->
    <title>010-G56px</title>
    <desc>Created with Sketch.</desc>
    <g id="NEW_icons" stroke="none" stroke-width="1" fill="none" fill-rule="evenodd">
        <g id="icons_UD_new-Copy" transform="translate(-446.000000, -1604.000000)">
            <g id="010-G56px" transform="translate(446.000000, 1604.000000)">
                <circle id="Oval-Copy-146" fill="#E3E8EC" cx="28" cy="28" r="28"></circle>
                <g id="010-B32px-Copy-4" transform="translate(8.000000, 7.000000)">
                    <path d="M16.2625,6.275 L28.7625,8.3875 C28.75,8.3875 28.75,8.3875 28.75,8.4125 L28.7375,31.625 L16.25,33.7375 C16.25,33.7375 16.25,33.7375 16.25,33.7375 L16.2625,6.275 L16.2625,6.275 Z M16.15,5 C15.525,5 15,5.5625 15,6.2625 L15,33.725 C15,34.4375 15.525,34.9875 16.15,34.9875 C16.2125,34.9875 16.2625,34.9875 16.325,34.975 L29.0125,32.825 C29.575,32.725 29.9875,32.2 29.9875,31.575 L29.9875,8.4125 C29.9875,7.7875 29.575,7.25 29.0125,7.1625 L16.325,5.0125 C16.275,5 16.2125,5 16.15,5 L16.15,5 Z" id="Shape" fill="#101828" fill-rule="nonzero"></path>
                    <path d="M11.25,7.5 C10.5625,7.5 10,8.0625 10,8.75 L10,32.5 L11.25,32.5 L11.25,31.25 L11.25,30.1375 L11.25,8.75 L15,8.75 L15,30.1375 L15,31.25 L15,32.5 L16.25,32.5 L16.25,7.5 L11.25,7.5 Z" id="Path" fill="#101828" fill-rule="nonzero"></path>
                    <path d="M18.75,20.625 C19.0875,20.625 19.375,20.3375 19.375,20 C19.375,19.65 19.1,19.375 18.75,19.375 C18.4,19.375 18.125,19.6625 18.125,20 C18.125,20.35 18.4125,20.625 18.75,20.625" id="Path" fill="#101828" fill-rule="nonzero"></path>
                    <rect id="Rectangle" x="0" y="0" width="40" height="40"></rect>
                </g>
            </g>
        </g>
    </g>
</svg>