<?xml version="1.0" encoding="UTF-8"?>
<svg width="56px" height="56px" viewBox="0 0 56 56" version="1.1" xmlns="http://www.w3.org/2000/svg" xmlns:xlink="http://www.w3.org/1999/xlink">
    <!-- Generator: Sketch 57.1 (83088) - https://sketch.com -->
    <title>165-G56px</title>
    <desc>Created with Sketch.</desc>
    <g id="NEW_icons" stroke="none" stroke-width="1" fill="none" fill-rule="evenodd">
        <g id="icons_UD_new-Copy" transform="translate(-1728.000000, -21090.000000)">
            <g id="165-G56px" transform="translate(1728.000000, 21090.000000)">
                <circle id="Oval-Copy-1058" fill="#E3E8EC" cx="28" cy="28" r="28"></circle>
                <g id="165-B32px-Copy-3" transform="translate(8.000000, 8.000000)">
                    <g id="Group" transform="translate(5.000000, 13.750000)" fill="#101828">
                        <g id="Fill-286">
                            <path d="M0,0.1875 L0,12.2875 L3.3375,12.2875 L3.3375,7.8125 L5.475,7.8125 L5.475,12.2875 L8.8125,12.2875 L8.8125,0.1875 L5.475,0.1875 L5.475,4.75 L3.3375,4.75 L3.3375,0.1875 L0,0.1875 Z M12.5125,7.6 L12.5125,9.45 L14.2875,9.45 C14.2875,9.45 15,9.375 15,8.45 C15,7.6 14.2875,7.6 14.2875,7.6 L12.5125,7.6 Z M12.5125,3.13749508 L12.5125,4.9625 L14.2875,4.9625 C14.2875,4.9625 15,4.875 15,4 C15,3.125 14.2875,3.13749508 14.2875,3.13749508 L12.5125,3.13749508 Z M14.65,0.1875 C15.575,0.1875 18.2,0.6875 18.2,3.275 C18.2,5.3625 17.2,5.975 16.425,6.1125 C15.85,6.225 18.0625,6.1125 18.0625,8.725 C18.0625,12.425 14.8625,12.275 14.8625,12.275 L9.525,12.275 L9.525,0.175 L14.65,0.175 L14.65,0.1875 Z" id="Shape"></path>
                        </g>
                        <g id="Fill-287" transform="translate(17.500000, 0.000000)">
                            <path d="M6.3125,3.1875 C4.625,3.1875 3.2625,4.5625 3.2625,6.25 C3.2625,7.9375 4.6375,9.3 6.3125,9.3 C8,9.3 9.3625,7.925 9.3625,6.25 C9.375,4.5625 8,3.1875 6.3125,3.1875 M6.3125,12.4375 C2.9,12.4375 0.125,9.6625 0.125,6.25 C0.125,2.8375 2.9,0.0625 6.3125,0.0625 C9.725,0.0625 12.5,2.8375 12.5,6.25 C12.5,9.6625 9.725,12.4375 6.3125,12.4375" id="Shape"></path>
                        </g>
                        <g id="Fill-288" transform="translate(21.250000, 3.750000)">
                            <path d="M2.5625,0.3375 C3.75,0.3375 4.725,1.3 4.725,2.5 C4.725,3.6875 3.7625,4.6625 2.5625,4.6625 C1.3625,4.6625 0.4,3.7 0.4,2.5 C0.4,1.3125 1.375,0.3375 2.5625,0.3375" id="Path"></path>
                        </g>
                    </g>
                    <rect id="Rectangle" x="0" y="0" width="40" height="40"></rect>
                </g>
            </g>
        </g>
    </g>
</svg>