<?xml version="1.0" encoding="UTF-8"?>
<svg width="80px" height="80px" viewBox="0 0 80 80" version="1.1" xmlns="http://www.w3.org/2000/svg" xmlns:xlink="http://www.w3.org/1999/xlink">
    <!-- Generator: Sketch 56.3 (81716) - https://sketch.com -->
    <title>031-C80px</title>
    <desc>Created with Sketch.</desc>
    <g id="NEW_icons" stroke="none" stroke-width="1" fill="none" fill-rule="evenodd">
        <g id="icons_UD_new-Copy" transform="translate(-2284.000000, -4090.000000)">
            <g id="031-C80px" transform="translate(2284.000000, 4090.000000)">
                <circle id="Oval-Copy-263" fill="#FF4F12" cx="40" cy="40" r="40"></circle>
                <g id="031-B32px-Copy-9" transform="translate(12.000000, 12.000000)">
                    <polygon id="Path" fill="#FFFFFF" fill-rule="nonzero" points="40.25 24.5 39.41 28.525 38.5 24.5 36.75 24.5 35.8225 28.525 35 24.5 35 24.5 33.25 24.5 34.93 31.325 34.9825 31.5 36.75 31.5 37.6075 27.4575 38.5 31.5 40.25 31.5 42 24.5 42 24.5"></polygon>
                    <polygon id="Path" fill="#FFFFFF" fill-rule="nonzero" points="30.625 24.5 29.785 28.525 28.875 24.5 27.125 24.5 26.1975 28.525 25.375 24.5 25.375 24.5 23.625 24.5 25.305 31.325 25.3575 31.5 27.125 31.5 27.9825 27.4575 28.875 31.5 30.625 31.5 32.375 24.5 32.375 24.5"></polygon>
                    <polygon id="Path" fill="#FFFFFF" fill-rule="nonzero" points="21 24.5 20.16 28.525 19.25 24.5 17.5 24.5 16.5725 28.525 15.75 24.5 15.75 24.5 14 24.5 15.68 31.325 15.7325 31.5 17.5 31.5 18.3575 27.4575 19.25 31.5 21 31.5 22.75 24.5 22.75 24.5"></polygon>
                    <path d="M28,7 C28,7 27.9825,7 27.9825,7 C27.9825,7 27.9825,7 27.965,7 C27.9475,7 27.93,7 27.9125,7 C16.3625,7.0525 7,16.4325 7,28 C7,39.5675 16.3625,48.9475 27.93,49 C27.9475,49 27.965,49 27.9825,49 C27.9825,49 27.9825,49 28,49 C28,49 28.0175,49 28.0175,49 C39.62,49 49.0175,39.6025 49.0175,28 C49.0175,16.3975 39.6025,7 28,7 Z M44.59,18.2875 L38.7625,18.2875 C37.66,14.6825 35.98,11.69 33.9325,9.695 C38.4475,11.165 42.2275,14.2625 44.59,18.2875 Z M28.875,8.8375 C32.2525,9.3975 35.2275,13.09 36.925,18.2875 L28.875,18.2875 L28.875,8.8375 Z M27.125,8.8375 L27.125,18.2875 L19.0225,18.2875 C20.72,13.055 23.7125,9.3625 27.125,8.8375 Z M21.9625,9.73 C19.915,11.725 18.2525,14.7 17.1675,18.2875 L11.41,18.2875 C13.755,14.28 17.5,11.2175 21.9625,9.73 Z M11.41,37.7125 L17.1675,37.7125 C18.2525,41.3 19.9325,44.275 21.9625,46.27 C17.5,44.7825 13.755,41.72 11.41,37.7125 Z M27.125,47.1625 C23.7125,46.6375 20.72,42.9275 19.0225,37.7125 L27.125,37.7125 L27.125,47.1625 Z M28.875,47.1625 L28.875,37.7125 L36.925,37.7125 C35.2275,42.91 32.2525,46.6025 28.875,47.1625 Z M33.9325,46.305 C35.9975,44.31 37.6775,41.3175 38.7625,37.7125 L44.59,37.7125 C42.2275,41.7375 38.4475,44.835 33.9325,46.305 Z M45.5,35.9625 L45.4125,35.9625 L39.235,35.9625 L37.415,35.9625 L28.875,35.9625 L27.125,35.9625 L18.515,35.9625 L16.695,35.9625 L10.5,35.9625 L10.5,35.9625 C9.5025,33.775 8.9075,31.395 8.8025,28.875 L12.25,28.875 L12.25,27.125 L8.8025,27.125 C8.925,24.605 9.5025,22.2075 10.5,20.0375 L10.5,20.0375 L16.695,20.0375 L18.515,20.0375 L27.125,20.0375 L28.875,20.0375 L37.4325,20.0375 L39.2525,20.0375 L45.43,20.0375 L45.5,20.0375 C46.4975,22.225 47.0925,24.605 47.1975,27.125 L43.75,27.125 L43.75,28.875 L47.1975,28.875 C47.0925,31.395 46.4975,33.7925 45.5,35.9625 Z" id="Shape" fill="#FFFFFF" fill-rule="nonzero"></path>
                    <rect id="Rectangle" x="0" y="0" width="56" height="56"></rect>
                </g>
            </g>
        </g>
    </g>
</svg>