<?xml version="1.0" encoding="UTF-8"?>
<svg width="80px" height="80px" viewBox="0 0 80 80" version="1.1" xmlns="http://www.w3.org/2000/svg" xmlns:xlink="http://www.w3.org/1999/xlink">
    <!-- Generator: Sketch 57.1 (83088) - https://sketch.com -->
    <title>157-C80px</title>
    <desc>Created with Sketch.</desc>
    <g id="NEW_icons" stroke="none" stroke-width="1" fill="none" fill-rule="evenodd">
        <g id="icons_UD_new-Copy" transform="translate(-2284.000000, -20056.000000)">
            <g id="157-C80px" transform="translate(2284.000000, 20056.000000)">
                <circle id="Oval-Copy-1024" fill="#FF4F12" cx="40" cy="40" r="40"></circle>
                <g id="157-B32px-Copy-9" transform="translate(12.000000, 12.000000)">
                    <path d="M35.84,31.5525 L44.0125,43.8025 L12.0225,43.8025 L20.195,31.5525 L35.84,31.5525 L35.84,31.5525 Z M36.7675,29.8025 L19.25,29.8025 L8.75,45.5525 L47.2675,45.5525 L36.7675,29.8025 L36.7675,29.8025 Z" id="Shape" fill="#FFFFFF" fill-rule="nonzero"></path>
                    <path d="M16.625,14.0525 C15.6625,14.0525 14.875,14.84 14.875,15.8025 C14.875,16.765 15.6625,17.5525 16.625,17.5525 C17.5875,17.5525 18.375,16.765 18.375,15.8025 C18.375,14.84 17.605,14.0525 16.625,14.0525 L16.625,14.0525 Z" id="Path" fill="#FFFFFF" fill-rule="nonzero"></path>
                    <polygon id="Path" fill="#FFFFFF" fill-rule="nonzero" points="17.5 15.8025 15.75 15.8025 15.75 29.8025 17.5 29.8025"></polygon>
                    <path d="M8.75,24.5525 C7.7875,24.5525 7,25.34 7,26.3025 C7,27.265 7.7875,28.0525 8.75,28.0525 C9.7125,28.0525 10.5,27.265 10.5,26.3025 C10.5,25.34 9.7125,24.5525 8.75,24.5525 L8.75,24.5525 Z" id="Path" fill="#FFFFFF" fill-rule="nonzero"></path>
                    <path d="M39.3925,14.0525 C38.43,14.0525 37.6425,14.84 37.6425,15.8025 C37.6425,16.765 38.43,17.5525 39.3925,17.5525 C40.355,17.5525 41.1425,16.765 41.1425,15.8025 C41.1425,14.84 40.355,14.0525 39.3925,14.0525 L39.3925,14.0525 Z" id="Path" fill="#FFFFFF" fill-rule="nonzero"></path>
                    <polygon id="Path" fill="#FFFFFF" fill-rule="nonzero" points="40.2675 15.8025 38.5175 15.8025 38.5175 29.8025 40.2675 29.8025"></polygon>
                    <path d="M47.2675,24.5525 C46.305,24.5525 45.5175,25.34 45.5175,26.3025 C45.5175,27.265 46.305,28.0525 47.2675,28.0525 C48.23,28.0525 49.0175,27.265 49.0175,26.3025 C49.035,25.34 48.2475,24.5525 47.2675,24.5525 L47.2675,24.5525 Z" id="Path" fill="#FFFFFF" fill-rule="nonzero"></path>
                    <polygon id="Path" fill="#FFFFFF" fill-rule="nonzero" points="48.16 26.3025 46.3925 26.3025 46.3925 40.3025 48.16 40.3025"></polygon>
                    <polygon id="Path" fill="#FFFFFF" fill-rule="nonzero" points="9.625 26.3025 7.875 26.3025 7.875 40.3025 9.625 40.3025"></polygon>
                    <path d="M28.0175,16.7475 L28.6125,17.955 L29.015,18.7775 L29.925,18.9175 L31.255,19.11 L30.2925,20.0375 L29.6275,20.685 L29.785,21.595 L30.0125,22.925 L28.8225,22.295 L28,21.875 L27.1775,22.295 L25.9875,22.925 L26.215,21.595 L26.3725,20.685 L25.7075,20.0375 L24.745,19.11 L26.075,18.9175 L26.985,18.7775 L27.3875,17.955 L28.0175,16.7475 L28.0175,16.7475 Z M28.0175,12.81 L25.8475,17.185 L21,17.885 L24.5,21.2975 L23.6775,26.11 L28,23.835 L32.3225,26.11 L31.5,21.2975 L35,17.885 L30.1525,17.185 L28.0175,12.81 L28.0175,12.81 Z" id="Shape" fill="#FFFFFF" fill-rule="nonzero"></path>
                    <path d="M45.3425,30.5375 C45.2375,30.5375 45.1325,30.5375 45.01,30.52 C41.58,30.0125 39.1825,20.615 38.535,17.7625 L40.25,17.36 C41.4575,22.68 43.715,28.5425 45.2725,28.77 C45.5875,28.8225 46.06,28.385 46.515,27.58 L48.0375,28.4375 C47.25,29.8375 46.34,30.5375 45.3425,30.5375 Z" id="Path" fill="#FFFFFF" fill-rule="nonzero"></path>
                    <path d="M10.6925,30.5375 C9.6775,30.5375 8.785,29.8375 7.9975,28.4375 L9.52,27.58 C9.975,28.385 10.465,28.8225 10.7625,28.77 C12.32,28.5425 14.5775,22.6625 15.785,17.36 L17.4825,17.745 C16.835,20.615 14.455,29.995 11.0075,30.5025 C10.9025,30.5375 10.7975,30.5375 10.6925,30.5375 Z" id="Path" fill="#FFFFFF" fill-rule="nonzero"></path>
                    <rect id="Rectangle" x="0" y="0" width="56" height="56"></rect>
                </g>
            </g>
        </g>
    </g>
</svg>