<?xml version="1.0" encoding="UTF-8"?>
<svg width="40px" height="40px" viewBox="0 0 40 40" version="1.1" xmlns="http://www.w3.org/2000/svg" xmlns:xlink="http://www.w3.org/1999/xlink">
    <!-- Generator: Sketch 57.1 (83088) - https://sketch.com -->
    <title>073-B40px</title>
    <desc>Created with Sketch.</desc>
    <g id="073-B40px" stroke="none" stroke-width="1" fill="none" fill-rule="evenodd">
        <g>
            <path d="M17.5,32.5 C17.8375,32.5 18.125,32.225 18.125,31.875 C18.125,31.525 17.8375,31.25 17.5,31.25 C17.1625,31.25 16.875,31.525 16.875,31.875 C16.875,32.225 17.1625,32.5 17.5,32.5" id="Path" fill="#101828" fill-rule="nonzero"></path>
            <path d="M26.875,32.5 C26.6625,32.5 26.4625,32.4875 26.25,32.4625 L26.25,33.675 C26.25,33.7125 26.225,33.7375 26.1875,33.7375 L8.8125,33.7375 C8.775,33.75 8.75,33.725 8.75,33.6875 L8.75,30 L21.025,30 C20.6625,29.6125 20.325,29.2 20.0375,28.75 L8.75,28.75 L8.75,6.3125 C8.75,6.275 8.775,6.25 8.8125,6.25 L26.1875,6.25 C26.225,6.25 26.25,6.275 26.25,6.3125 L26.25,16.275 C26.4625,16.2625 26.6625,16.2375 26.875,16.2375 C27.0875,16.2375 27.2875,16.25 27.5,16.275 L27.5,6.3125 C27.5,5.5875 26.9125,5 26.1875,5 L8.8125,5 C8.0875,5 7.5,5.5875 7.5,6.3125 L7.5,28.75 L7.5,30 L7.5,33.6875 C7.5,34.4125 8.0875,35 8.8125,35 L26.1875,35 C26.9125,35 27.5,34.4125 27.5,33.6875 L27.5,32.475 C27.2875,32.4875 27.0875,32.5 26.875,32.5 Z" id="Path" fill="#101828" fill-rule="nonzero"></path>
            <path d="M26.875,18.75 C29.975,18.75 32.5,21.275 32.5,24.375 C32.5,27.475 29.975,30 26.875,30 C23.775,30 21.25,27.475 21.25,24.375 C21.25,21.275 23.775,18.75 26.875,18.75 L26.875,18.75 Z M26.875,17.5 C23.075,17.5 20,20.575 20,24.375 C20,28.175 23.075,31.25 26.875,31.25 C30.675,31.25 33.75,28.175 33.75,24.375 C33.75,20.575 30.675,17.5 26.875,17.5 L26.875,17.5 Z" id="Shape" fill="#101828" fill-rule="nonzero"></path>
            <polygon id="Path" fill="#101828" fill-rule="nonzero" points="29.3625 25 26.2375 25 26.2375 20.625 27.4875 20.625 27.4875 23.75 29.3625 23.75"></polygon>
            <rect id="Rectangle" x="0" y="0" width="40" height="40"></rect>
        </g>
    </g>
</svg>