<?xml version="1.0" encoding="UTF-8"?>
<svg width="40px" height="40px" viewBox="0 0 40 40" version="1.1" xmlns="http://www.w3.org/2000/svg" xmlns:xlink="http://www.w3.org/1999/xlink">
    <!-- Generator: Sketch 57.1 (83088) - https://sketch.com -->
    <title>066-B40px</title>
    <desc>Created with Sketch.</desc>
    <g id="066-B40px" stroke="none" stroke-width="1" fill="none" fill-rule="evenodd">
        <g>
            <path d="M11.125,6.625 C11.125,6.625 11.25,6.625 11.375,6.75 L17.125,12.625 C17.25,12.75 17.25,12.75 17.25,12.875 C17.25,12.875 17.25,13 17.125,13.125 L14.625,15.625 L13.875,16.25 L14.25,17 C14.25,17.125 15.625,20.375 17.5,22.375 C19.375,24.375 22.625,25.75 22.75,25.875 L23.5,26.25 L24.125,25.625 L26.625,23.125 C26.75,23 26.75,23 26.875,23 C26.875,23 27,23 27.125,23.125 L32.875,29 C33,29.125 33,29.125 33,29.25 C33,29.25 33,29.375 32.875,29.5 L29,33.25 C28.875,33.375 28.875,33.375 28.75,33.375 C28.75,33.375 28.75,33.375 28.75,33.375 C21.625,32.25 14.75,25.25 14.625,25.125 C14.625,25 7.875,17.875 7,10.75 C7,10.625 7,10.5 7.125,10.375 L10.875,6.75 C11,6.75 11.125,6.625 11.125,6.625 L11.125,6.625 Z M11.125,5.375 C10.75,5.375 10.375,5.625 10,5.875 L6.25,9.5 C5.875,9.875 5.625,10.375 5.75,10.875 C6.625,18.5 13.875,25.875 13.875,25.875 C13.875,25.875 21,33.25 28.625,34.5 C28.75,34.5 28.75,34.5 28.875,34.5 C29.25,34.5 29.75,34.375 30,34 L33.875,30.25 C34.5,29.625 34.5,28.625 33.875,28 L28.125,22.125 C27.875,21.75 27.375,21.625 27,21.625 C26.625,21.625 26.25,21.75 25.875,22.125 L23.375,24.625 C23.375,24.625 20.25,23.25 18.5,21.375 C16.75,19.5 15.5,16.375 15.5,16.375 L18,13.875 C18.625,13.25 18.625,12.25 18,11.625 L12.25,5.875 C12,5.625 11.5,5.375 11.125,5.375 L11.125,5.375 Z" id="Shape" fill="#101828" fill-rule="nonzero"></path>
            <rect id="Rectangle" x="0" y="0" width="40" height="40"></rect>
        </g>
    </g>
</svg>