<?xml version="1.0" encoding="UTF-8"?>
<svg width="56px" height="56px" viewBox="0 0 56 56" version="1.1" xmlns="http://www.w3.org/2000/svg" xmlns:xlink="http://www.w3.org/1999/xlink">
    <!-- Generator: Sketch 57.1 (83088) - https://sketch.com -->
    <title>041-B56px</title>
    <desc>Created with Sketch.</desc>
    <g id="041-B56px" stroke="none" stroke-width="1" fill="none" fill-rule="evenodd">
        <g>
            <path d="M38.605,25.0775 C38.08,24.0625 36.6625,23.625 34.7375,23.7125 C32.48,23.8175 29.54,24.675 26.565,26.215 C26.5475,26.2325 26.53,26.2325 26.5125,26.25 C26.5125,26.25 26.495,26.25 26.4775,26.25 C23.5025,27.7725 21.0875,29.6625 19.6875,31.4125 C18.48,32.9175 18.0075,34.335 18.5325,35.35 C19.67,37.5725 25.06,37.0825 30.5725,34.265 C30.59,34.2475 30.6075,34.2475 30.6425,34.23 C30.66,34.2125 30.695,34.2125 30.7125,34.195 C36.2075,31.3775 39.76,27.2825 38.605,25.0775 Z M35.7875,28.2275 C34.4575,29.7675 32.305,31.36 29.8725,32.6025 C29.855,32.62 29.8375,32.62 29.8025,32.6375 C29.785,32.655 29.7675,32.655 29.7325,32.6725 C27.3,33.915 24.745,34.7375 22.715,34.9125 C20.8075,35.0875 20.16,34.6325 20.1075,34.545 C20.0725,34.4575 20.0725,33.7925 21.07,32.55 C22.3825,30.9225 24.64,29.2075 27.2825,27.86 C27.3,27.8425 27.3175,27.8425 27.335,27.8425 C27.3525,27.825 27.37,27.825 27.3875,27.8075 C30.0125,26.46 32.725,25.62 34.825,25.515 C36.4175,25.4275 36.96,25.83 36.995,25.9 C37.065,25.9875 37.0475,26.775 35.7875,28.2275 Z" id="Shape" fill="#101828" fill-rule="nonzero"></path>
            <path d="M48.09,18.97 C48.0025,18.795 47.88,18.6375 47.7575,18.48 L47.775,18.4625 C47.775,18.4625 45.535,14.7525 38.1325,14.91 C38.1325,14.91 36.5575,15.0325 35.455,15.085 C35.035,15.1025 34.685,15.12 34.51,15.1025 C33.8625,15.085 32.165,14.6825 32.165,14.6825 C32.165,14.6825 28.035,13.9125 27.8075,13.8775 C26.95,13.755 26.1275,13.6675 25.27,13.72 C23.625,13.8075 22.1025,14.2275 20.7375,14.9275 C19.3725,15.645 18.13,16.625 17.115,17.92 C16.5725,18.6025 16.17,19.32 15.7675,20.0725 C15.6625,20.265 13.8775,24.08 13.8775,24.08 C13.8775,24.08 13.2125,25.69 12.845,26.2325 C12.74,26.3725 12.53,26.6525 12.2675,26.985 C11.585,27.8425 10.57,29.05 10.57,29.05 C6.1075,34.9825 7.805,38.955 7.805,38.955 L7.8225,38.955 C7.875,39.1475 7.945,39.3225 8.0325,39.4975 C10.29,43.925 21.0875,42.9625 32.13,37.3275 C32.1475,37.31 32.1825,37.31 32.2,37.2925 C32.2175,37.275 32.2525,37.275 32.27,37.2575 C43.2775,31.57 50.365,23.38 48.09,18.97 Z M43.785,26.4775 C42.0175,28.525 39.6375,30.555 36.8725,32.4275 C36.8375,32.4625 36.785,32.48 36.75,32.515 C36.2425,32.865 35.7175,33.1975 35.1925,33.53 C35.0175,33.635 34.825,33.74 34.65,33.8625 C34.23,34.1075 33.8275,34.37 33.39,34.615 C32.76,34.965 32.1125,35.315 31.4475,35.665 C31.43,35.6825 31.395,35.6825 31.3775,35.7 C31.36,35.7175 31.325,35.7175 31.3075,35.735 C30.6425,36.085 29.9775,36.4 29.3125,36.6975 C28.8575,36.9075 28.42,37.1 27.9825,37.2925 C27.79,37.38 27.5975,37.4675 27.405,37.5375 C26.8275,37.7825 26.25,38.01 25.6725,38.22 C25.62,38.2375 25.585,38.255 25.5325,38.2725 C22.3825,39.4275 19.355,40.1625 16.66,40.4075 C12.88,40.74 10.325,40.04 9.66,38.6925 C9.6425,38.6575 9.625,38.605 9.6075,38.5525 L9.555,38.4125 L9.45,38.115 C9.2225,36.82 10.045,34.86 11.7425,32.725 C14.5075,29.26 19.25,25.6725 24.745,22.855 C24.7625,22.855 24.78,22.8375 24.7975,22.8375 C24.815,22.8375 24.8325,22.82 24.85,22.82 C30.345,20.0025 36.015,18.2525 40.4425,18.025 C43.1725,17.885 45.22,18.3575 46.1475,19.3025 L46.3225,19.53 L46.41,19.6525 C46.445,19.705 46.48,19.74 46.4975,19.775 C47.18,21.1225 46.27,23.59 43.785,26.4775 Z" id="Shape" fill="#101828" fill-rule="nonzero"></path>
            <rect id="Rectangle" x="0" y="0" width="56" height="56"></rect>
        </g>
    </g>
</svg>