<?xml version="1.0" encoding="UTF-8"?>
<svg width="40px" height="40px" viewBox="0 0 40 40" version="1.1" xmlns="http://www.w3.org/2000/svg" xmlns:xlink="http://www.w3.org/1999/xlink">
    <!-- Generator: Sketch 57.1 (83088) - https://sketch.com -->
    <title>159-B40px</title>
    <desc>Created with Sketch.</desc>
    <g id="159-B40px" stroke="none" stroke-width="1" fill="none" fill-rule="evenodd">
        <g>
            <polygon id="Path" fill="#101828" fill-rule="nonzero" points="20 16.25 20 17.5 21.2375 17.5 21.2375 22.5 22.5 22.5 22.5 17.5 23.75 17.5 23.75 16.25"></polygon>
            <polygon id="Path" fill="#101828" fill-rule="nonzero" points="24.375 16.25 26.25 22.5 27.5 22.5 29.375 16.25 28.125 16.25 26.875 20.6125 25.625 16.25"></polygon>
            <path d="M24.3625,26.025 C21.425,26.025 19.05,26.4875 17.5,26.9125 L17.5,28.1375 C19,27.7125 21.4,27.2125 24.3625,27.2125 C28.4,27.2125 31.4125,28.1375 32.5,28.5375 L32.5,27.3 C31.2125,26.8625 28.2875,26.025 24.3625,26.025 Z" id="Path" fill="#101828" fill-rule="nonzero"></path>
            <path d="M33.725,12.5 L15.025,12.5 C14.325,12.5 13.75,13.0625 13.75,13.775 L13.75,16.25 L15.025,16.25 L15.025,13.75 L33.725,13.75 L33.75,13.775 L33.725,24.9875 L17.5,24.9625 L17.5,26.2375 L33.725,26.2375 C34.425,26.2375 35,25.6625 35,24.9625 L35,13.775 C35,13.0625 34.425,12.5 33.725,12.5 Z" id="Path" fill="#101828" fill-rule="nonzero"></path>
            <path d="M29.975,8.75 L11.275,8.75 C10.575,8.75 10,9.3125 10,10.025 L10,16.25 L11.2625,16.25 L11.275,10 L29.975,10 L30,10.025 L30,11.25 L31.25,11.25 L31.25,10.025 C31.25,9.3125 30.675,8.75 29.975,8.75 Z" id="Path" fill="#101828" fill-rule="nonzero"></path>
            <path d="M26.225,5 L7.525,5 C6.825,5 6.25,5.575 6.25,6.275 L6.25,16.25 L7.5,16.25 L7.525,6.25 L26.225,6.25 L26.25,6.275 L26.25,7.5 L27.5,7.5 L27.5,6.275 C27.5,5.575 26.925,5 26.225,5 Z" id="Path" fill="#101828" fill-rule="nonzero"></path>
            <path d="M15,18.75 L15,33.75 L6.25,33.75 L6.25,18.75 L15,18.75 L15,18.75 Z M15,17.5 L6.25,17.5 C5.5625,17.5 5,18.0625 5,18.75 L5,33.75 C5,34.4375 5.5625,35 6.25,35 L15,35 C15.6875,35 16.25,34.4375 16.25,33.75 L16.25,18.75 C16.25,18.0625 15.6875,17.5 15,17.5 L15,17.5 Z" id="Shape" fill="#101828" fill-rule="nonzero"></path>
            <polygon id="Path" fill="#101828" fill-rule="nonzero" points="13.75 31.25 12.5 31.25 12.5 32.5 13.75 32.5"></polygon>
            <polygon id="Path" fill="#101828" fill-rule="nonzero" points="13.75 28.75 12.5 28.75 12.5 30 13.75 30"></polygon>
            <polygon id="Path" fill="#101828" fill-rule="nonzero" points="13.75 20 12.5 20 12.5 21.25 13.75 21.25"></polygon>
            <polygon id="Path" fill="#101828" fill-rule="nonzero" points="11.25 20 10 20 10 21.25 11.25 21.25"></polygon>
            <polygon id="Path" fill="#101828" fill-rule="nonzero" points="8.75 20 7.5 20 7.5 21.25 8.75 21.25"></polygon>
            <polygon id="Path" fill="#101828" fill-rule="nonzero" points="13.75 22.5 12.5 22.5 12.5 23.75 13.75 23.75"></polygon>
            <polygon id="Path" fill="#101828" fill-rule="nonzero" points="11.25 31.25 10 31.25 10 32.5 11.25 32.5"></polygon>
            <polygon id="Path" fill="#101828" fill-rule="nonzero" points="11.25 28.75 10 28.75 10 30 11.25 30"></polygon>
            <polygon id="Path" fill="#101828" fill-rule="nonzero" points="11.25 22.5 10 22.5 10 23.75 11.25 23.75"></polygon>
            <polygon id="Path" fill="#101828" fill-rule="nonzero" points="8.75 31.25 7.5 31.25 7.5 32.5 8.75 32.5"></polygon>
            <polygon id="Path" fill="#101828" fill-rule="nonzero" points="8.75 28.75 7.5 28.75 7.5 30 8.75 30"></polygon>
            <polygon id="Path" fill="#101828" fill-rule="nonzero" points="8.75 22.5 7.5 22.5 7.5 23.75 8.75 23.75"></polygon>
            <path d="M10.625,28.0125 C10.2625,28.0125 9.925,27.9 9.625,27.7 C9.2375,27.4375 8.975,27.025 8.9,26.5625 C8.8125,26.1 8.9125,25.625 9.1875,25.25 C9.45,24.8625 9.8625,24.6 10.325,24.525 C10.775,24.425 11.25,24.5375 11.625,24.8 C12.0125,25.0625 12.275,25.475 12.35,25.9375 C12.4375,26.4 12.3375,26.875 12.0625,27.25 C11.8,27.6375 11.3875,27.9 10.925,27.975 C10.8375,28 10.725,28.0125 10.625,28.0125 Z M10.625,25.7375 C10.6,25.7375 10.5625,25.7375 10.5375,25.75 C10.4,25.775 10.2875,25.85 10.2125,25.9625 C10.1375,26.075 10.1,26.2125 10.125,26.35 C10.15,26.4875 10.225,26.6 10.3375,26.675 C10.45,26.75 10.5875,26.775 10.725,26.7625 C10.8625,26.7375 10.975,26.6625 11.05,26.55 L11.05,26.55 C11.125,26.4375 11.1625,26.3 11.1375,26.1625 C11.1125,26.025 11.0375,25.9125 10.925,25.8375 C10.825,25.7625 10.725,25.7375 10.625,25.7375 Z" id="Shape" fill="#101828" fill-rule="nonzero"></path>
            <rect id="Rectangle" x="0" y="0" width="40" height="40"></rect>
        </g>
    </g>
</svg>