<?xml version="1.0" encoding="UTF-8"?>
<svg width="56px" height="56px" viewBox="0 0 56 56" version="1.1" xmlns="http://www.w3.org/2000/svg" xmlns:xlink="http://www.w3.org/1999/xlink">
    <!-- Generator: Sketch 57.1 (83088) - https://sketch.com -->
    <title>029-B56px</title>
    <desc>Created with Sketch.</desc>
    <g id="029-B56px" stroke="none" stroke-width="1" fill="none" fill-rule="evenodd">
        <g>
            <path d="M28,17.5 C28.9625,17.5 29.75,18.2875 29.75,19.25 C29.75,20.2125 28.9625,21 28,21 C27.0375,21 26.25,20.2125 26.25,19.25 C26.25,18.2875 27.0375,17.5 28,17.5 L28,17.5 Z M28,15.75 C26.075,15.75 24.5,17.325 24.5,19.25 C24.5,21.175 26.075,22.75 28,22.75 C29.925,22.75 31.5,21.175 31.5,19.25 C31.5,17.325 29.925,15.75 28,15.75 L28,15.75 Z" id="Shape" fill="#101828" fill-rule="nonzero"></path>
            <path d="M36.75,28.0875 L36.75,19.25 C36.75,11.48 28.0525,7 28.0525,7 C28.0525,7 19.25,11.34 19.25,19.25 C19.25,21.4725 19.25,24.6575 19.25,28.07 C15.3125,28.455 12.25,31.395 12.25,35 L12.25,45.5 L19.25,43.1725 L19.25,43.1725 L21,42.595 L21,40.7575 L21,29.75 L21,28 L21,24.5 L21,19.25 C21,13.825 26.0575,10.22 28.035,9.0125 C30.0125,10.255 35,13.9125 35,19.25 L35,24.5 L35,28 L35,29.75 L35,40.74 L35,42.5775 L43.75,45.5 L43.75,35 C43.75,31.4125 40.6875,28.4725 36.75,28.0875 Z M19.25,41.335 L14,43.085 L14,35 C14,32.3575 16.2925,30.1875 19.25,29.82 C19.25,33.8625 19.25,38.0625 19.25,41.335 Z M42,43.085 L36.75,41.335 L36.75,29.8375 C39.7075,30.205 42,32.375 42,35.0175 L42,43.085 Z" id="Shape" fill="#101828" fill-rule="nonzero"></path>
            <rect id="Rectangle" fill="#101828" fill-rule="nonzero" x="27.125" y="33.3025" width="1.75" height="15.6975"></rect>
            <rect id="Rectangle" x="0" y="0" width="56" height="56"></rect>
        </g>
    </g>
</svg>