<?xml version="1.0" encoding="UTF-8"?>
<svg width="42px" height="42px" viewBox="0 0 42 42" version="1.1" xmlns="http://www.w3.org/2000/svg" xmlns:xlink="http://www.w3.org/1999/xlink">
    <!-- Generator: Sketch 57.1 (83088) - https://sketch.com -->
    <title>174-G40px</title>
    <desc>Created with Sketch.</desc>
    <g id="NEW_icons" stroke="none" stroke-width="1" fill="none" fill-rule="evenodd">
        <g id="icons_UD_new-Copy" transform="translate(-244.000000, -22361.000000)">
            <g id="174-G40px" transform="translate(245.000000, 22362.000000)">
                <circle id="Oval-Copy-981" stroke="#E3E8EC" cx="20" cy="20" r="20"></circle>
                <g id="174-B32px-Copy" transform="translate(4.000000, 4.000000)">
                    <path d="M10.02,19.49 C9.79,19.49 9.6,19.49 9.38,19.49 C9.38,19.25 9.38,19.02 9.38,18.79 C9.38,18.77 9.41,18.74 9.43,18.74 C9.61,18.74 9.78,18.74 9.96,18.74 C9.98,18.74 10.01,18.77 10.01,18.79 C10.02,19.01 10.02,19.25 10.02,19.49 Z" id="Path" fill="#101828" fill-rule="nonzero"></path>
                    <path d="M19.93,20.25 C19.73,20.25 19.54,20.25 19.36,20.25 C19.34,20.25 19.3,20.21 19.3,20.19 C19.3,19.98 19.3,19.76 19.3,19.55 C19.3,19.53 19.34,19.49 19.36,19.49 C19.53,19.48 19.7,19.49 19.87,19.49 C19.89,19.49 19.93,19.53 19.93,19.55 C19.93,19.77 19.93,20.01 19.93,20.25 Z" id="Path" fill="#101828" fill-rule="nonzero"></path>
                    <path d="M25.77,19.5 C25.57,19.5 25.38,19.5 25.2,19.5 C25.18,19.5 25.14,19.45 25.14,19.43 C25.13,19.22 25.13,19.02 25.14,18.81 C25.14,18.78 25.19,18.74 25.22,18.74 C25.38,18.73 25.54,18.73 25.7,18.74 C25.73,18.74 25.78,18.78 25.78,18.8 C25.77,19.02 25.77,19.25 25.77,19.5 Z" id="Path" fill="#101828" fill-rule="nonzero"></path>
                    <g id="Group" transform="translate(5.000000, 9.000000)" fill="#101828" fill-rule="nonzero">
                        <path d="M11.79,2.24 C11.76,2.24 11.74,2.24 11.72,2.24 C11.43,2.24 11.15,2.24 10.86,2.24 C10.8,2.24 10.79,2.26 10.79,2.31 C10.79,3.65 10.79,5 10.79,6.34 C10.79,6.37 10.79,6.4 10.79,6.43 C10.19,6.43 9.59,6.43 8.99,6.43 C8.99,6.4 8.99,6.38 8.99,6.35 C8.99,5.98 8.99,5.61 9,5.24 C9,5.18 8.98,5.17 8.93,5.17 C8.31,5.17 7.69,5.17 7.06,5.17 C7.01,5.17 6.99,5.19 6.96,5.23 C6.72,5.61 6.49,5.99 6.25,6.37 C6.22,6.41 6.19,6.43 6.14,6.43 C5.58,6.43 5.02,6.43 4.46,6.43 C4.44,6.43 4.41,6.43 4.39,6.43 C4.39,5.39 4.39,4.35 4.39,3.31 C4.38,3.31 4.38,3.3 4.37,3.3 C3.95,3.84 3.53,4.38 3.1,4.93 C2.68,4.38 2.26,3.84 1.84,3.3 C1.83,3.3 1.83,3.3 1.82,3.31 C1.82,3.34 1.82,3.36 1.82,3.39 C1.82,4.37 1.82,5.36 1.82,6.34 C1.82,6.43 1.82,6.43 1.74,6.43 C1.19,6.43 0.64,6.43 0.09,6.43 C0.06,6.43 0.04,6.43 0.01,6.43 C0.01,4.47 0.01,2.51 0.01,0.55 C0.03,0.55 0.05,0.55 0.07,0.55 C0.64,0.55 1.21,0.55 1.78,0.55 C1.82,0.55 1.85,0.56 1.87,0.6 C2.26,1.12 2.66,1.63 3.05,2.15 C3.07,2.17 3.08,2.19 3.1,2.22 C3.12,2.2 3.13,2.18 3.15,2.17 C3.55,1.65 3.94,1.13 4.34,0.61 C4.36,0.59 4.39,0.56 4.42,0.56 C5.01,0.56 5.59,0.56 6.18,0.56 C6.19,0.56 6.2,0.56 6.21,0.56 C6.21,1.46 6.21,2.37 6.21,3.27 C6.22,3.27 6.22,3.27 6.23,3.27 C6.24,3.25 6.26,3.23 6.27,3.2 C6.81,2.34 7.35,1.47 7.88,0.61 C7.91,0.57 7.94,0.55 7.99,0.55 C10.77,0.55 13.56,0.55 16.34,0.55 C16.42,0.55 16.42,0.55 16.42,0.64 C16.42,1.57 16.42,2.51 16.42,3.44 C16.42,3.52 16.42,3.52 16.5,3.52 C16.78,3.52 17.06,3.52 17.35,3.52 C17.43,3.52 17.43,3.52 17.43,3.43 C17.43,2.5 17.43,1.56 17.43,0.63 C17.43,0.6 17.43,0.58 17.43,0.55 C18.03,0.55 18.63,0.55 19.23,0.55 C19.23,2.51 19.23,4.47 19.23,6.43 C18.63,6.43 18.04,6.43 17.43,6.43 C17.43,6.41 17.43,6.38 17.43,6.36 C17.43,6 17.43,5.63 17.43,5.27 C17.43,5.19 17.43,5.19 17.34,5.19 C16.46,5.19 15.58,5.19 14.7,5.19 C14.67,5.19 14.64,5.19 14.61,5.19 C14.61,4.21 14.61,3.23 14.61,2.25 C14.58,2.25 14.56,2.25 14.53,2.25 C14.25,2.25 13.97,2.25 13.7,2.25 C13.6,2.25 13.6,2.25 13.6,2.34 C13.6,3.68 13.6,5.01 13.6,6.35 C13.6,6.38 13.6,6.41 13.6,6.44 C12.99,6.44 12.39,6.44 11.78,6.44 C11.79,5.04 11.79,3.65 11.79,2.24 Z M8.03,3.52 C8.05,3.52 8.06,3.53 8.07,3.53 C8.36,3.53 8.65,3.53 8.93,3.53 C8.98,3.53 8.98,3.5 8.98,3.47 C8.98,3.01 8.98,2.55 8.98,2.09 C8.98,2.07 8.98,2.06 8.97,2.02 C8.65,2.52 8.35,3.02 8.03,3.52 Z" id="Shape"></path>
                        <path d="M20.03,0.57 C20.63,0.57 21.22,0.57 21.82,0.57 C21.82,0.59 21.82,0.61 21.82,0.64 C21.82,1.42 21.82,2.19 21.82,2.97 C21.82,3.01 21.81,3.03 21.78,3.06 C21.21,3.4 20.64,3.75 20.07,4.09 C20.06,4.1 20.05,4.1 20.03,4.11 C20.03,2.93 20.03,1.75 20.03,0.57 Z" id="Path"></path>
                        <path d="M20.92,4.39 C21.54,4.38 22,4.87 22,5.4 C22.01,6.08 21.49,6.51 20.92,6.51 C20.33,6.51 19.84,6.01 19.85,5.41 C19.85,4.84 20.33,4.39 20.92,4.39 Z" id="Path"></path>
                    </g>
                    <path d="M28,16.51 C20,16.51 12.01,16.51 4.01,16.51 C4.01,16.54 4,16.58 4,16.61 C4,18.52 4,20.43 4,22.35 C4,22.39 4,22.42 4.01,22.45 C12.01,22.45 20,22.45 28,22.45 C28,22.4 28,22.36 28,22.32 C28,21.93 28,21.54 28,21.14 C28,19.61 28,18.06 28,16.51 Z M7.97,21.29 C7.92,21.29 7.89,21.3 7.85,21.3 C7.57,21.3 7.28,21.3 7,21.3 C6.91,21.3 6.88,21.27 6.88,21.18 C6.88,20.41 6.88,19.63 6.88,18.86 C6.88,18.76 6.86,18.72 6.75,18.73 C6.64,18.74 6.52,18.73 6.41,18.73 C6.23,18.73 6.25,18.71 6.25,18.89 C6.25,19.64 6.25,20.4 6.25,21.15 C6.25,21.19 6.25,21.24 6.25,21.29 C5.88,21.29 5.52,21.29 5.15,21.29 C5.15,20.09 5.15,18.9 5.15,17.7 C6.09,17.7 7.03,17.7 7.98,17.7 C7.97,18.89 7.97,20.09 7.97,21.29 Z M11,20.54 C10.52,20.54 10.03,20.54 9.55,20.54 C9.5,20.54 9.46,20.54 9.39,20.54 C9.39,20.76 9.39,20.96 9.39,21.17 C9.39,21.26 9.36,21.3 9.26,21.3 C8.97,21.29 8.68,21.3 8.4,21.3 C8.33,21.3 8.29,21.29 8.29,21.21 C8.29,20.06 8.29,18.91 8.29,17.76 C8.29,17.75 8.29,17.73 8.3,17.71 C9.24,17.71 10.17,17.71 11.13,17.71 C11.13,17.74 11.13,17.78 11.13,17.81 C11.13,18.68 11.13,19.55 11.13,20.43 C11.13,20.52 11.09,20.54 11,20.54 Z M13.73,21.29 C12.99,21.29 12.24,21.29 11.5,21.29 C11.43,21.29 11.39,21.27 11.39,21.19 C11.39,20.04 11.39,18.9 11.39,17.75 C11.39,17.74 11.39,17.72 11.4,17.7 C12.2,17.7 13.01,17.7 13.82,17.7 C13.82,18.04 13.82,18.38 13.82,18.72 C13.38,18.72 12.94,18.72 12.5,18.72 C12.49,18.75 12.48,18.76 12.48,18.77 C12.46,18.96 12.46,18.96 12.65,18.96 C12.87,18.96 13.09,18.96 13.33,18.96 C13.24,19.31 13.15,19.63 13.06,19.96 C13.05,19.98 13.01,20.01 12.98,20.01 C12.86,20.02 12.74,20.01 12.63,20.01 C12.47,20.01 12.46,20.01 12.48,20.18 C12.48,20.2 12.49,20.22 12.49,20.24 C12.93,20.24 13.36,20.24 13.81,20.24 C13.81,20.28 13.82,20.31 13.82,20.34 C13.82,20.62 13.82,20.89 13.82,21.17 C13.84,21.26 13.82,21.29 13.73,21.29 Z M17.74,21.29 C17.47,21.29 17.2,21.28 16.93,21.29 C16.82,21.29 16.78,21.26 16.78,21.15 C16.79,20.59 16.78,20.03 16.78,19.46 C16.78,19.42 16.78,19.37 16.78,19.33 C16.77,19.33 16.76,19.33 16.74,19.32 C16.49,19.68 16.24,20.04 15.98,20.42 C15.72,20.05 15.47,19.68 15.22,19.32 C15.21,19.32 15.2,19.33 15.19,19.33 C15.19,19.37 15.19,19.41 15.19,19.46 C15.19,20.03 15.19,20.6 15.19,21.17 C15.19,21.28 15.16,21.31 15.05,21.3 C14.74,21.29 14.43,21.3 14.11,21.3 C14.11,20.1 14.11,18.91 14.11,17.7 C14.12,17.7 14.14,17.69 14.16,17.69 C14.49,17.69 14.81,17.69 15.14,17.69 C15.18,17.69 15.23,17.73 15.26,17.77 C15.48,18.08 15.69,18.39 15.9,18.7 C15.92,18.74 15.95,18.77 15.99,18.82 C16.02,18.77 16.05,18.74 16.08,18.7 C16.29,18.39 16.51,18.08 16.72,17.77 C16.76,17.71 16.8,17.69 16.87,17.69 C17.2,17.69 17.53,17.69 17.87,17.69 C17.87,17.74 17.88,17.78 17.88,17.82 C17.88,18.93 17.88,20.05 17.88,21.16 C17.88,21.27 17.84,21.29 17.74,21.29 Z M21.02,21.16 C21.02,21.26 20.99,21.29 20.89,21.29 C20.04,21.29 19.19,21.29 18.34,21.29 C18.23,21.29 18.2,21.26 18.2,21.15 C18.2,20.59 18.2,20.03 18.2,19.48 C18.2,19.48 18.2,19.48 18.2,19.48 C18.2,18.93 18.2,18.38 18.2,17.83 C18.2,17.73 18.23,17.7 18.33,17.7 C18.61,17.71 18.89,17.71 19.17,17.7 C19.26,17.7 19.29,17.73 19.29,17.82 C19.28,17.99 19.29,18.17 19.29,18.34 C19.29,18.43 19.32,18.46 19.41,18.46 C19.91,18.46 20.4,18.46 20.9,18.46 C21,18.46 21.03,18.49 21.03,18.58 C21.02,19.43 21.02,20.3 21.02,21.16 Z M22.55,18.98 C22.78,18.97 23.01,18.98 23.27,18.98 C23.18,19.32 23.1,19.64 23.02,19.95 C23.01,19.98 22.96,20 22.93,20 C22.81,20.01 22.69,20.01 22.56,20 C22.45,19.99 22.41,20.03 22.43,20.14 C22.43,20.17 22.43,20.2 22.44,20.25 C22.49,20.25 22.53,20.25 22.57,20.25 C22.93,20.25 23.29,20.25 23.66,20.25 C23.74,20.25 23.77,20.27 23.77,20.36 C23.77,20.63 23.77,20.91 23.77,21.18 C23.77,21.26 23.74,21.28 23.67,21.28 C22.93,21.28 22.19,21.28 21.45,21.28 C21.38,21.28 21.35,21.26 21.35,21.18 C21.35,20.05 21.35,18.92 21.35,17.79 C21.35,17.72 21.37,17.7 21.44,17.7 C22.19,17.7 22.94,17.7 23.69,17.7 C23.77,17.7 23.78,17.74 23.78,17.81 C23.78,18.08 23.78,18.35 23.78,18.62 C23.78,18.71 23.76,18.74 23.67,18.73 C23.3,18.73 22.94,18.73 22.57,18.73 C22.47,18.73 22.44,18.75 22.44,18.85 C22.42,18.95 22.44,18.98 22.55,18.98 Z M26.77,20.54 C26.29,20.54 25.8,20.54 25.32,20.54 C25.28,20.54 25.23,20.54 25.18,20.54 C25.17,20.54 25.16,20.54 25.16,20.55 C25.16,20.77 25.16,20.97 25.16,21.17 C25.16,21.26 25.13,21.3 25.03,21.3 C24.74,21.29 24.45,21.3 24.17,21.3 C24.1,21.3 24.06,21.29 24.06,21.21 C24.06,21.2 24.06,21.2 24.06,21.19 C24.06,21.19 24.06,21.19 24.06,21.18 C24.06,20.06 24.06,18.94 24.06,17.82 C24.06,17.81 24.07,17.81 24.07,17.8 C24.07,17.79 24.07,17.77 24.07,17.76 C24.07,17.75 24.07,17.73 24.08,17.71 C24.11,17.71 24.15,17.71 24.18,17.71 C24.18,17.71 24.18,17.71 24.19,17.71 C24.62,17.71 25.05,17.71 25.48,17.71 C25.48,17.71 25.48,17.71 25.48,17.71 C25.76,17.71 26.04,17.71 26.33,17.71 C26.47,17.71 26.61,17.71 26.75,17.71 C26.75,17.71 26.75,17.71 26.75,17.71 C26.8,17.71 26.85,17.71 26.9,17.71 C26.9,17.74 26.9,17.78 26.9,17.81 C26.9,18.68 26.9,19.55 26.9,20.43 C26.9,20.52 26.86,20.54 26.77,20.54 Z" id="Shape" fill="#101828" fill-rule="nonzero"></path>
                    <rect id="Rectangle" x="0" y="0" width="32" height="32"></rect>
                </g>
            </g>
        </g>
    </g>
</svg>