<?xml version="1.0" encoding="UTF-8"?>
<svg width="42px" height="42px" viewBox="0 0 42 42" version="1.1" xmlns="http://www.w3.org/2000/svg" xmlns:xlink="http://www.w3.org/1999/xlink">
    <!-- Generator: Sketch 57.1 (83088) - https://sketch.com -->
    <title>079-G40px</title>
    <desc>Created with Sketch.</desc>
    <g id="NEW_icons" stroke="none" stroke-width="1" fill="none" fill-rule="evenodd">
        <g id="icons_UD_new-Copy" transform="translate(-1526.000000, -10305.000000)">
            <g id="079-G40px" transform="translate(1527.000000, 10306.000000)">
                <circle id="Oval-Copy-538" stroke="#E3E8EC" cx="20" cy="20" r="20"></circle>
                <g id="079-B32px-Copy" transform="translate(4.000000, 4.000000)">
                    <path d="M12,26 C12.27,26 12.5,25.78 12.5,25.5 C12.5,25.22 12.27,25 12,25 C11.73,25 11.5,25.22 11.5,25.5 C11.5,25.78 11.73,26 12,26" id="Path" fill="#101828" fill-rule="nonzero"></path>
                    <path d="M19,26 L19,26.95 C19,26.98 18.98,27 18.95,27 L5.05,27 C5.02,27 5,26.98 5,26.95 L5,24 L13,24 L13,23 L5,23 L5,5.05 C5,5.02 5.02,5 5.05,5 L18.95,5 C18.98,5 19,5.02 19,5.05 L19,14 L20,14 L20,5.05 C20,4.47 19.53,4 18.95,4 L5.05,4 C4.47,4 4,4.47 4,5.05 L4,23 L4,24 L4,26.95 C4,27.53 4.47,28 5.05,28 L18.95,28 C19.53,28 20,27.53 20,26.95 L20,26 L19,26 Z" id="Path" fill="#101828" fill-rule="nonzero"></path>
                    <path d="M27,16 L27,24 L15,24 L15,16 L27,16 L27,16 Z M27,15 L15,15 C14.45,15 14,15.45 14,16 L14,24 C14,24.55 14.45,25 15,25 L27,25 C27.55,25 28,24.55 28,24 L28,16 C28,15.45 27.55,15 27,15 L27,15 Z" id="Shape" fill="#101828" fill-rule="nonzero"></path>
                    <polygon id="Path" fill="#101828" fill-rule="nonzero" points="21 20.6 14.42 16.13 14.98 15.3 21 19.4 27.02 15.3 27.58 16.13"></polygon>
                    <rect id="Rectangle" x="0" y="0" width="32" height="32"></rect>
                </g>
            </g>
        </g>
    </g>
</svg>