<?xml version="1.0" encoding="UTF-8"?>
<svg width="56px" height="56px" viewBox="0 0 56 56" version="1.1" xmlns="http://www.w3.org/2000/svg" xmlns:xlink="http://www.w3.org/1999/xlink">
    <!-- Generator: Sketch 57.1 (83088) - https://sketch.com -->
    <title>089-G56px</title>
    <desc>Created with Sketch.</desc>
    <g id="NEW_icons" stroke="none" stroke-width="1" fill="none" fill-rule="evenodd">
        <g id="icons_UD_new-Copy" transform="translate(-1728.000000, -11539.000000)">
            <g id="089-G56px" transform="translate(1728.000000, 11539.000000)">
                <circle id="Oval-Copy-585" fill="#E3E8EC" cx="28" cy="28" r="28"></circle>
                <g id="089-B32px-Copy-3" transform="translate(8.000000, 8.000000)">
                    <path d="M28.6875,6.25 C28.725,6.25 28.75,6.275 28.75,6.3125 L28.75,33.6875 C28.75,33.725 28.725,33.75 28.6875,33.75 L11.3125,33.75 C11.275,33.75 11.25,33.725 11.25,33.6875 L11.25,6.3125 C11.25,6.275 11.275,6.25 11.3125,6.25 L28.6875,6.25 L28.6875,6.25 Z M28.6875,5 L11.3125,5 C10.5875,5 10,5.5875 10,6.3125 L10,33.6875 C10,34.4125 10.5875,35 11.3125,35 L28.6875,35 C29.4125,35 30,34.4125 30,33.6875 L30,6.3125 C30,5.5875 29.4125,5 28.6875,5 L28.6875,5 Z" id="Shape" fill="#101828" fill-rule="nonzero"></path>
                    <path d="M20,32.5 C20.3375,32.5 20.625,32.225 20.625,31.875 C20.625,31.525 20.3375,31.25 20,31.25 C19.6625,31.25 19.375,31.525 19.375,31.875 C19.375,32.225 19.6625,32.5 20,32.5" id="Path" fill="#101828" fill-rule="nonzero"></path>
                    <rect id="Rectangle" fill="#101828" fill-rule="nonzero" x="10" y="28.75" width="20" height="1.25"></rect>
                    <path d="M20,13.75 C20.6875,13.75 21.25,14.3125 21.25,15 C21.25,15.6875 20.6875,16.25 20,16.25 C19.3125,16.25 18.75,15.6875 18.75,15 C18.75,14.3125 19.3125,13.75 20,13.75 L20,13.75 Z M20,12.5 C18.625,12.5 17.5,13.625 17.5,15 C17.5,16.375 18.625,17.5 20,17.5 C21.375,17.5 22.5,16.375 22.5,15 C22.5,13.625 21.375,12.5 20,12.5 L20,12.5 Z" id="Shape" fill="#101828" fill-rule="nonzero"></path>
                    <path d="M17.5,22.5 L17.5,21.25 C17.5,20.5625 18.0625,20 18.75,20 L21.25,20 C21.9375,20 22.5,20.5625 22.5,21.25 L22.5,22.5 L23.75,22.5 L23.75,21.25 C23.75,19.875 22.625,18.75 21.25,18.75 L18.75,18.75 C17.375,18.75 16.25,19.875 16.25,21.25 L16.25,22.5 L17.5,22.5 Z" id="Path" fill="#101828" fill-rule="nonzero"></path>
                    <rect id="Rectangle" x="0" y="0" width="40" height="40"></rect>
                </g>
            </g>
        </g>
    </g>
</svg>