<?xml version="1.0" encoding="UTF-8"?>
<svg width="56px" height="56px" viewBox="0 0 56 56" version="1.1" xmlns="http://www.w3.org/2000/svg" xmlns:xlink="http://www.w3.org/1999/xlink">
    <!-- Generator: Sketch 54.1 (76490) - https://sketchapp.com -->
    <title>013-G56px</title>
    <desc>Created with Sketch.</desc>
    <g id="NEW_icons" stroke="none" stroke-width="1" fill="none" fill-rule="evenodd">
        <g id="icons_UD_new-Copy" transform="translate(-1728.000000, -1855.000000)">
            <g id="013-G56px" transform="translate(1728.000000, 1855.000000)">
                <circle id="Oval-Copy-159" fill="#E3E8EC" cx="28" cy="28" r="28"></circle>
                <g id="013-B32px-Copy-4" transform="translate(8.000000, 8.000000)">
                    <path d="M24.375,27.6375 L23.5,26.25 L25.2375,26.25 L24.375,27.6375 L24.375,27.6375 Z M24.375,30 L27.5,25 L21.25,25 L24.375,30 L24.375,30 Z" id="Shape" fill="#101828" fill-rule="nonzero"></path>
                    <polygon id="Path" fill="#101828" fill-rule="nonzero" points="25 20 23.75 20 23.75 25 25 25"></polygon>
                    <path d="M15.625,22.3625 L16.5,23.75 L14.75,23.75 L15.625,22.3625 L15.625,22.3625 Z M15.625,20 L12.5,25 L18.75,25 L15.625,20 L15.625,20 Z" id="Shape" fill="#101828" fill-rule="nonzero"></path>
                    <rect id="Rectangle" fill="#101828" fill-rule="nonzero" x="15" y="25" width="1.25" height="5"></rect>
                    <path d="M27.5,14.0625 C27.2875,14.0625 27.0875,14.075 26.8875,14.1 C25.675,10.9625 22.7625,8.75 19.375,8.75 C15.525,8.75 12.3125,11.6 11.475,15.4125 C7.8625,15.6375 5,18.8 5,22.6875 C5,26.725 8.075,29.9875 11.875,29.9875 C11.8875,29.9875 11.8875,29.9875 11.9,29.9875 L11.9,29.9875 L12.5,29.9875 L12.5,28.7375 L11.9,28.7375 L11.8375,28.7375 L11.8375,28.7375 C8.75,28.7125 6.25,26.0125 6.25,22.6875 C6.25,19.4875 8.575,16.8375 11.55,16.65 L12.4875,16.5875 L12.6875,15.6625 C13.425,12.3375 16.175,10 19.375,10 C22.1625,10 24.65,11.7875 25.725,14.55 L26.0625,15.425 L27,15.35 C27.1625,15.3375 27.3375,15.325 27.5,15.325 C30.95,15.325 33.75,18.3375 33.75,22.0375 C33.75,25.7375 30.95,28.75 27.5,28.75 L27.5,30 C31.6375,30 35,26.4375 35,22.0375 C35,17.625 31.6375,14.0625 27.5,14.0625 Z" id="Path" fill="#101828" fill-rule="nonzero"></path>
                    <rect id="Rectangle" fill="#101828" fill-rule="nonzero" x="18.75" y="28.7375" width="2.5" height="1.25"></rect>
                    <rect id="Rectangle" x="0" y="0" width="40" height="40"></rect>
                </g>
            </g>
        </g>
    </g>
</svg>