<?xml version="1.0" encoding="UTF-8"?>
<svg width="80px" height="80px" viewBox="0 0 80 80" version="1.1" xmlns="http://www.w3.org/2000/svg" xmlns:xlink="http://www.w3.org/1999/xlink">
    <!-- Generator: Sketch 57.1 (83088) - https://sketch.com -->
    <title>171-C80px</title>
    <desc>Created with Sketch.</desc>
    <g id="NEW_icons" stroke="none" stroke-width="1" fill="none" fill-rule="evenodd">
        <g id="icons_UD_new-Copy" transform="translate(-2284.000000, -21822.000000)">
            <g id="171-C80px" transform="translate(2284.000000, 21822.000000)">
                <circle id="Oval-Copy-1031" fill="#FF4F12" cx="40" cy="40" r="40"></circle>
                <g id="171-B32px-Copy-9" transform="translate(13.000000, 12.000000)">
                    <g id="ViP" transform="translate(5.504546, 16.354546)" fill="#FFFFFF">
                        <g id="Shape_3_" transform="translate(24.500000, 0.000000)">
                            <path d="M18.9175,6.685 C18.9175,6.5625 18.9175,6.4225 18.865,6.3175 C18.7775,5.5825 18.5675,4.865 18.2875,4.2 C17.5175,2.415 15.785,1.225 13.8425,1.155 L6.4225,1.155 C4.4625,1.225 2.73,2.415 1.96,4.2 C1.68,4.8475 1.4875,5.53 1.3825,6.2125 C1.3125,6.615 1.2775,7.0175 1.2425,7.4375 L1.2425,21.07 C3.3425,21.07 5.04,19.39 5.04,17.3075 L5.04,15.8025 C6.615,15.89 8.015,15.89 8.925,15.89 C11.5675,16.0125 14.175,15.2775 16.3625,13.8075 C17.99,12.5825 18.97,10.6925 18.9875,8.6625 C18.9875,8.5925 18.9875,8.5225 18.9875,8.4525 C19.005,7.8925 18.9875,7.28 18.9175,6.685 Z M5.04,12.04 L5.04,7.77 C5.04,6.09 5.74,4.9525 6.825,4.9 L13.475,4.9 C14.28,4.9525 14.875,5.635 15.12,6.685 C15.19,7.2625 15.225,7.8575 15.2075,8.4525 C15.2425,9.38 14.805,10.2725 14.0525,10.8325 C13.65,11.1125 13.2125,11.34 12.7575,11.48 C10.2375,12.1625 7.63,12.355 5.04,12.04 Z" id="Shape"></path>
                        </g>
                        <g id="Group" transform="translate(19.250000, 8.750000)">
                            <path d="M1.645,1.54 L1.645,8.5225 C1.645,10.6225 3.3425,12.32 5.4425,12.32 L5.4425,2.4675 C4.165,2.2225 2.8875,1.89 1.645,1.4875" id="Path"></path>
                        </g>
                        <g id="Group" transform="translate(19.250000, 0.000000)">
                            <path d="M5.4425,1.1375 C4.445,1.1375 3.465,1.54 2.765,2.24 C2.0475,2.9575 1.645,3.92 1.645,4.935 L1.645,7.8575 C3.745,7.8575 5.4425,6.16 5.4425,4.06 L5.4425,1.1375 Z" id="Path"></path>
                        </g>
                        <g id="Group">
                            <path d="M16.2925,4.6725 L15.0675,7.6825 L11.27,16.94 C11.2,17.115 11.0425,17.2375 10.8675,17.255 L10.57,17.255 C10.3775,17.2375 10.22,17.115 10.15,16.94 L5.0225,4.4975 C4.515,3.0975 2.975,1.3125 1.4875,1.1375 L1.4875,5.635 L6.615,18.445 C7.175,20.0025 8.645,21.0525 10.3075,21.0525 L11.06,21.0525 C12.705,21.0525 14.1925,20.0025 14.7525,18.445 L18.4275,9.2925 L19.8975,5.6 L19.8975,1.1375 C18.4275,1.33 16.8,3.2725 16.2925,4.6725 Z" id="Path"></path>
                        </g>
                    </g>
                    <rect id="Rectangle" x="0" y="0" width="56" height="56"></rect>
                </g>
            </g>
        </g>
    </g>
</svg>