<?xml version="1.0" encoding="UTF-8"?>
<svg width="80px" height="80px" viewBox="0 0 80 80" version="1.1" xmlns="http://www.w3.org/2000/svg" xmlns:xlink="http://www.w3.org/1999/xlink">
    <!-- Generator: Sketch 57.1 (83088) - https://sketch.com -->
    <title>155-C80px</title>
    <desc>Created with Sketch.</desc>
    <g id="NEW_icons" stroke="none" stroke-width="1" fill="none" fill-rule="evenodd">
        <g id="icons_UD_new-Copy" transform="translate(-2284.000000, -19805.000000)">
            <g id="155-C80px" transform="translate(2284.000000, 19805.000000)">
                <circle id="Oval-Copy-1023" fill="#FF4F12" cx="40" cy="40" r="40"></circle>
                <g id="155-B32px-Copy-9" transform="translate(12.000000, 12.000000)">
                    <path d="M47.215,15.785 L42,15.785 L42,17.535 L47.215,17.535 L47.25,17.57 L47.215,36.82 L8.75,36.785 L8.785,17.535 L14,17.535 L14,15.785 L8.785,15.785 C7.805,15.785 7,16.59 7,17.57 L7,36.785 C7,37.765 7.805,38.57 8.785,38.57 L47.215,38.57 C48.195,38.57 49,37.765 49,36.785 L49,17.57 C49,16.59 48.195,15.785 47.215,15.785 Z" id="Path" fill="#FFFFFF" fill-rule="nonzero"></path>
                    <path d="M38.5,17.535 L38.5,19.25 L17.5,19.25 L17.5,17.535 L38.5,17.535 L38.5,17.535 Z M40.25,15.785 L15.75,15.785 L15.75,21 L40.25,21 L40.25,15.785 L40.25,15.785 Z" id="Shape" fill="#FFFFFF" fill-rule="nonzero"></path>
                    <path d="M37.6775,9.065 C37.7125,9.065 37.765,9.0825 37.765,9.135 L38.0975,10.9725 L17.325,14.9275 L16.9925,13.1075 C16.9925,13.055 17.0275,12.985 17.0975,12.9675 L37.66,9.065 L37.6775,9.065 L37.6775,9.065 Z M37.6775,7.315 C37.555,7.315 37.45,7.3325 37.3275,7.35 L16.765,11.2525 C15.75,11.445 15.085,12.425 15.2775,13.4225 L15.925,16.975 L40.145,12.3725 L39.48,8.82 C39.34,7.9275 38.5525,7.315 37.6775,7.315 L37.6775,7.315 Z" id="Shape" fill="#FFFFFF" fill-rule="nonzero"></path>
                    <path d="M38.5,17.535 L38.5,31.5175 L17.5,31.5175 L17.5,17.535 L38.5,17.535 L38.5,17.535 Z M40.25,15.785 L15.75,15.785 L15.75,31.5175 C15.75,32.48 16.5375,33.2675 17.5,33.2675 L38.5,33.2675 C39.4625,33.2675 40.25,32.48 40.25,31.5175 L40.25,15.785 L40.25,15.785 Z" id="Shape" fill="#FFFFFF" fill-rule="nonzero"></path>
                    <polygon id="Rectangle" fill="#FFFFFF" fill-rule="nonzero" transform="translate(19.942631, 13.455934) rotate(-55.907869) translate(-19.942631, -13.455934) " points="17.0552609 12.5809732 22.8300006 12.5809732 22.8300006 14.3308943 17.0552609 14.3308943"></polygon>
                    <polygon id="Rectangle" fill="#FFFFFF" fill-rule="nonzero" transform="translate(25.078090, 12.455952) rotate(-55.907869) translate(-25.078090, -12.455952) " points="22.1907199 11.5809917 27.9654596 11.5809917 27.9654596 13.3309128 22.1907199 13.3309128"></polygon>
                    <polygon id="Rectangle" fill="#FFFFFF" fill-rule="nonzero" transform="translate(30.374145, 11.445795) rotate(-55.907869) translate(-30.374145, -11.445795) " points="27.4867746 10.5708339 33.2615144 10.5708339 33.2615144 12.3207551 27.4867746 12.3207551"></polygon>
                    <polygon id="Rectangle" fill="#FFFFFF" fill-rule="nonzero" transform="translate(35.686091, 10.445271) rotate(-55.907869) translate(-35.686091, -10.445271) " points="32.7987211 9.57030994 38.5734609 9.57030994 38.5734609 11.3202311 32.7987211 11.3202311"></polygon>
                    <polygon id="Rectangle" fill="#FFFFFF" fill-rule="nonzero" transform="translate(19.754882, 18.374865) rotate(-43.731830) translate(-19.754882, -18.374865) " points="16.954817 17.4998449 22.554947 17.4998449 22.554947 19.2498856 16.954817 19.2498856"></polygon>
                    <polygon id="Rectangle" fill="#FFFFFF" fill-rule="nonzero" transform="translate(25.146996, 18.379583) rotate(-43.731830) translate(-25.146996, -18.379583) " points="22.346931 17.5045629 27.947061 17.5045629 27.947061 19.2546036 22.346931 19.2546036"></polygon>
                    <polygon id="Rectangle" fill="#FFFFFF" fill-rule="nonzero" transform="translate(30.551756, 18.372028) rotate(-43.731830) translate(-30.551756, -18.372028) " points="27.7516905 17.4970082 33.3518205 17.4970082 33.3518205 19.2470488 27.7516905 19.2470488"></polygon>
                    <polygon id="Rectangle" fill="#FFFFFF" fill-rule="nonzero" transform="translate(35.943519, 18.376046) rotate(-43.731830) translate(-35.943519, -18.376046) " points="33.1434545 17.5010262 38.7435845 17.5010262 38.7435845 19.2510668 33.1434545 19.2510668"></polygon>
                    <path d="M27.965,38.4475 C20.4225,38.4475 14.77,39.6025 12.25,40.2325 L12.25,42.035 C14.4025,41.475 20.195,40.1975 27.965,40.1975 C35.805,40.1975 41.6325,41.4925 43.75,42.0525 L43.75,40.25 C41.2475,39.6025 35.5775,38.4475 27.965,38.4475 Z" id="Path" fill="#FFFFFF" fill-rule="nonzero"></path>
                    <rect id="Rectangle" x="0" y="0" width="56" height="56"></rect>
                </g>
            </g>
        </g>
    </g>
</svg>