<?xml version="1.0" encoding="UTF-8"?>
<svg width="80px" height="80px" viewBox="0 0 80 80" version="1.1" xmlns="http://www.w3.org/2000/svg" xmlns:xlink="http://www.w3.org/1999/xlink">
    <!-- Generator: Sketch 57.1 (83088) - https://sketch.com -->
    <title>110-C80px</title>
    <desc>Created with Sketch.</desc>
    <g id="NEW_icons" stroke="none" stroke-width="1" fill="none" fill-rule="evenodd">
        <g id="icons_UD_new-Copy" transform="translate(-1002.000000, -14285.000000)">
            <g id="110-C80px" transform="translate(1002.000000, 14285.000000)">
                <circle id="Oval-Copy-722" fill="#FF4F12" cx="40" cy="40" r="40"></circle>
                <g id="110-B32px-Copy-9" transform="translate(12.000000, 12.000000)">
                    <polygon id="Path" fill="#FFFFFF" fill-rule="nonzero" points="20.3175 43.75 22.225 42 19.635 42 15.82 45.5 21.8225 45.5 19.4075 47.915 20.65 49.14 26.04 43.75"></polygon>
                    <polygon id="Path" fill="#FFFFFF" fill-rule="nonzero" points="37.38 14 39.97 14 43.785 10.4825 37.8 10.4825 40.215 8.0675 38.9725 6.8425 33.565 12.2325 39.305 12.2325"></polygon>
                    <path d="M40.88,22.1375 C41.09,21.7175 41.23,21.245 41.23,20.7375 L41.23,20.055 C41.23,18.375 39.865,17.01 38.185,17.01 L31.6575,17.01 C31.5525,17.01 31.4475,17.045 31.325,17.0625 L28.525,14.0525 L21.4025,14.0525 L12.775,20.7725 L12.775,32.4975 L18.0775,38.5175 L32.3225,38.5175 L33.4075,38.5175 L36.6625,38.5175 C38.3425,38.5175 39.7075,37.1525 39.7075,35.4725 L39.7075,34.9125 C39.7075,34.3525 39.55,33.845 39.2875,33.39 C40.4075,32.935 41.2125,31.85 41.2125,30.5725 L41.2125,30.0125 C41.2125,29.505 41.0725,29.0325 40.8625,28.6125 C42.1925,28.28 43.1902267,27.09 43.1902267,25.655 L43.1902267,25.095 C43.2075,23.6425 42.21,22.4525 40.88,22.1375 Z M39.48,20.055 L39.48,20.7375 C39.48,21.455 38.9025,22.0325 38.185,22.0325 L35.9975,22.0325 L35.9975,22.0675 L32.9175,18.7425 L38.2025,18.7425 C38.9025,18.76 39.48,19.3375 39.48,20.055 Z M14.5425,31.8325 L14.5425,21.63 L22.015,15.82 L27.7725,15.82 L34.5625,23.1175 L34.5625,24.5875 C34.5975,24.9025 34.58,25.865 34.0725,26.425 C33.7575,26.775 33.2675,26.95 32.6025,26.95 C31.9375,26.95 31.4475,26.775 31.1325,26.425 C30.625,25.865 30.6075,24.9025 30.625,24.5875 L30.6775,24.1675 L27.09,20.475 L25.83,21.7 L27.65,23.5725 C25.97,27.615 19.775,27.965 19.705,27.965 L19.7925,29.715 C20.09,29.6975 26.425,29.3475 28.8925,25.0425 C28.9275,25.7075 29.085,26.7575 29.8375,27.5975 C29.995,27.7725 30.17,27.93 30.3625,28.07 C29.925,28.595 29.645,29.2775 29.645,30.0125 L29.645,30.5725 C29.645,31.3425 29.9425,32.0425 30.4325,32.585 C29.7675,33.145 29.33,33.9675 29.33,34.9125 L29.33,35.4725 C29.33,35.945 29.435,36.3825 29.6275,36.7675 L18.9175,36.7675 L14.5425,31.8325 Z M37.9925,35.455 C37.9925,36.1725 37.415,36.75 36.6975,36.75 L33.4425,36.75 L32.3575,36.75 C31.64,36.75 31.0625,36.1725 31.0625,35.455 L31.0625,34.895 C31.0625,34.1775 31.64,33.6 32.3575,33.6 L32.69,33.6 L36.6975,33.6 C37.415,33.6 37.9925,34.1775 37.9925,34.895 L37.9925,35.455 Z M39.48,30.555 C39.48,31.2725 38.9025,31.85 38.185,31.85 L36.68,31.85 L32.6725,31.85 C31.955,31.85 31.3775,31.2725 31.3775,30.555 L31.3775,29.995 C31.3775,29.2775 31.955,28.7 32.6725,28.7 L35.9975,28.7 L38.185,28.7 C38.9025,28.7 39.48,29.2775 39.48,29.995 L39.48,30.555 Z M41.4575,25.6375 C41.4575,26.355 40.88,26.9325 40.1625,26.9325 L38.185,26.9325 L35.9975,26.9325 L35.8225,26.9325 C36.435,25.795 36.33,24.5525 36.3125,24.465 L36.3125,23.765 L38.185,23.765 L40.1625,23.765 C40.88,23.765 41.4575,24.3425 41.4575,25.06 L41.4575,25.6375 Z" id="Shape" fill="#FFFFFF" fill-rule="nonzero"></path>
                    <rect id="Rectangle" x="0" y="0" width="56" height="56"></rect>
                </g>
            </g>
        </g>
    </g>
</svg>