<?xml version="1.0" encoding="UTF-8"?>
<svg width="40px" height="40px" viewBox="0 0 40 40" version="1.1" xmlns="http://www.w3.org/2000/svg" xmlns:xlink="http://www.w3.org/1999/xlink">
    <!-- Generator: Sketch 57.1 (83088) - https://sketch.com -->
    <title>056-B40px</title>
    <desc>Created with Sketch.</desc>
    <g id="056-B40px" stroke="none" stroke-width="1" fill="none" fill-rule="evenodd">
        <g>
            <path d="M22.5,22.275 L22.5,11.25 L16.25,11.25 L16.25,23.75 L13.75,23.75 L13.75,16.25 L7.5,16.25 L7.5,23.75 L5,23.75 L5,25 L7.5,25 L13.75,25 L16.25,25 L20.625,25 C21.0625,23.9625 21.7,23.0375 22.5,22.275 Z M12.5,23.75 L8.75,23.75 L8.75,17.5 L12.5,17.5 L12.5,23.75 Z M17.5,12.5 L21.25,12.5 L21.25,23.75 L17.5,23.75 L17.5,12.5 Z" id="Shape" fill="#101828" fill-rule="nonzero"></path>
            <polygon id="Path" fill="#101828" fill-rule="nonzero" points="26.25 18.75 26.25 6.25 30 6.25 30 18.75 31.25 18.75 31.25 5 25 5 25 18.75"></polygon>
            <path d="M28.125,22.5 C31.225,22.5 33.75,25.025 33.75,28.125 C33.75,31.225 31.225,33.75 28.125,33.75 C25.025,33.75 22.5,31.225 22.5,28.125 C22.5,25.025 25.025,22.5 28.125,22.5 L28.125,22.5 Z M28.125,21.25 C24.325,21.25 21.25,24.325 21.25,28.125 C21.25,31.925 24.325,35 28.125,35 C31.925,35 35,31.925 35,28.125 C35,24.325 31.925,21.25 28.125,21.25 L28.125,21.25 Z" id="Shape" fill="#101828" fill-rule="nonzero"></path>
            <path d="M25.625,27.5 C25.275,27.5 25,27.775 25,28.125 C25,28.475 25.275,28.75 25.625,28.75 C25.975,28.75 26.25,28.475 26.25,28.125 C26.25,27.775 25.975,27.5 25.625,27.5 L25.625,27.5 Z" id="Path" fill="#101828" fill-rule="nonzero"></path>
            <path d="M30.625,27.5 C30.275,27.5 30,27.775 30,28.125 C30,28.475 30.275,28.75 30.625,28.75 C30.975,28.75 31.25,28.475 31.25,28.125 C31.25,27.775 30.975,27.5 30.625,27.5 L30.625,27.5 Z" id="Path" fill="#101828" fill-rule="nonzero"></path>
            <path d="M25.125,31.4 C26.8625,32.8625 29.4,32.8625 31.125,31.4 L30.375,30.4 C29.0875,31.5375 27.15,31.525 25.8625,30.4 L25.125,31.4 Z" id="Path" fill="#101828" fill-rule="nonzero"></path>
            <path d="M28.75,22.5 L27.5,22.5 C27.5,21.425 28.15,19.375 30.625,19.375 L30.625,20.625 C28.8625,20.625 28.75,22.1875 28.75,22.5 Z" id="Path" fill="#101828" fill-rule="nonzero"></path>
            <path d="M27.5,22.5 C27.5,22.1875 27.3875,20.625 25.625,20.625 L25.625,19.375 C28.1,19.375 28.75,21.425 28.75,22.5 L27.5,22.5 L28.125,22.5 L27.5,22.5 Z" id="Path" fill="#101828" fill-rule="nonzero"></path>
            <polygon id="Path" fill="#101828" fill-rule="nonzero" points="33.75 26.25 27.8625 26.25 26.875 25.2625 25.8875 26.25 22.5 26.25 22.5 25 25.3625 25 26.875 23.4875 28.3875 25 33.75 25"></polygon>
            <rect id="Rectangle" x="0" y="0" width="40" height="40"></rect>
        </g>
    </g>
</svg>