<?xml version="1.0" encoding="UTF-8"?>
<svg width="40px" height="40px" viewBox="0 0 40 40" version="1.1" xmlns="http://www.w3.org/2000/svg" xmlns:xlink="http://www.w3.org/1999/xlink">
    <!-- Generator: Sketch 57.1 (83088) - https://sketch.com -->
    <title>054-B40px</title>
    <desc>Created with Sketch.</desc>
    <g id="054-B40px" stroke="none" stroke-width="1" fill="none" fill-rule="evenodd">
        <g>
            <path d="M25.575,20.05 C25.6875,23 23.0125,25.625 19.9875,25.6 C17.1,25.575 14.45,23.05 14.4875,19.975 C14.5125,17.0625 17.075,14.425 20.1625,14.475 C23.0125,14.525 25.7,17.0375 25.575,20.05 Z M22.9125,20.0375 C23.05,18.4875 21.525,17.2125 20.225,17.1375 C18.4125,17.0375 17.2,18.6375 17.1375,19.875 C17.05,21.6625 18.6375,22.8875 19.9125,22.9375 C21.6,23.0125 23.075,21.4875 22.9125,20.0375 Z" id="Shape" fill="#101828" fill-rule="nonzero"></path>
            <path d="M19.5625,8.7625 C19.0375,8.7625 18.1625,8.825 17.65,8.95 C14.25,9.7125 11.7,11.6375 10.0375,14.6875 C9.2,16.2375 8.7375,17.8875 8.75,19.6875 C8.775,23.55 8.7625,27.4 8.75,31.2625 C12.7,31.25 16.65,31.25 20.6,31.25 C20.875,31.2375 21.325,31.2 21.6,31.1875 C24.1875,30.7875 26.425,29.675 28.225,27.7375 C30.1625,25.65 31.2375,23.1875 31.25,20.3 C31.2625,16.625 31.25,12.9375 31.25,9.2625 C31.25,9.1125 31.25,8.9625 31.25,8.775 C31.0375,8.775 30.9,8.775 30.7625,8.775 C27.025,8.75 23.3,8.75 19.5625,8.7625 Z M28.75,20.6 C28.5125,24.625 24.9625,29.0625 19.3875,28.7375 C15.3875,28.5125 10.9375,24.9625 11.275,19.35 C11.525,15.175 15.1625,11.175 20.025,11.275 C24.5625,11.1125 29.075,15.1375 28.75,20.6 Z" id="Shape" fill="#101828" fill-rule="nonzero"></path>
            <rect id="Rectangle" x="0" y="0" width="40" height="40"></rect>
        </g>
    </g>
</svg>