<?xml version="1.0" encoding="UTF-8"?>
<svg width="80px" height="80px" viewBox="0 0 80 80" version="1.1" xmlns="http://www.w3.org/2000/svg" xmlns:xlink="http://www.w3.org/1999/xlink">
    <!-- Generator: Sketch 57.1 (83088) - https://sketch.com -->
    <title>129-C80px</title>
    <desc>Created with Sketch.</desc>
    <g id="NEW_icons" stroke="none" stroke-width="1" fill="none" fill-rule="evenodd">
        <g id="icons_UD_new-Copy" transform="translate(-2284.000000, -16542.000000)">
            <g id="129-C80px" transform="translate(2284.000000, 16542.000000)">
                <circle id="Oval-Copy-1096" fill="#FF4F12" cx="40" cy="40" r="40"></circle>
                <g id="129-B32px-Copy-9" transform="translate(12.000000, 12.000000)">
                    <path d="M7.8925,48.9825 C7.7175,48.9825 7.5425,48.93 7.385,48.825 C7.1575,48.6675 7.0175,48.3875 7.0175,48.1075 L7.0175,38.9025 C7.0175,38.535 7.245,38.22 7.5775,38.08 L11.48,36.5925 C12.2675,35.84 16.1525,32.41 20.7375,33.0575 C22.365,33.285 30.52,34.6325 32.795,38.15 C34.3175,37.4675 37.835,36.05 41.9825,35.3675 C44.205,35 45.9725,35.28 47.25,36.2075 C48.6675,37.2225 48.93,38.605 48.9475,38.7625 C49.0175,39.165 48.79,39.55 48.4225,39.7075 L32.0075,46.55 C31.0275,46.97 29.96,47.0575 28.91,46.83 L20.265,44.975 C19.7225,44.8525 19.145,44.905 18.62,45.0975 L8.1725,48.9475 C8.1025,48.965 7.9975,48.9825 7.8925,48.9825 Z M8.7675,39.4975 L8.7675,46.8475 L18.025,43.435 C18.865,43.12 19.775,43.05 20.65,43.2425 L29.295,45.0975 C29.9775,45.2375 30.695,45.185 31.3425,44.905 L46.9875,38.395 C46.55,37.6425 45.36,36.5575 42.28,37.065 C38.255,37.73 34.755,39.165 33.39,39.7775 C33.4425,40.285 33.39,40.7925 33.215,41.3 C33.075,41.7375 32.6025,42 32.165,41.8775 L22.575,39.4275 L23.0125,37.73 L31.6575,39.935 C31.6225,39.655 31.5175,39.375 31.36,39.1125 C30.0475,36.995 24.955,35.4025 20.4925,34.755 C16.31,34.1425 12.6175,37.8875 12.5825,37.9225 C12.495,38.01 12.39,38.08 12.2675,38.1325 L8.7675,39.4975 Z" id="Shape" fill="#FFFFFF" fill-rule="nonzero"></path>
                    <polygon id="Path" fill="#FFFFFF" fill-rule="nonzero" points="42.245 21.0875 27.9825 9.2925 13.7025 21.0875 12.6 19.74 27.9825 7.0175 43.365 19.74"></polygon>
                    <g id="Group" transform="translate(15.750000, 21.000000)" fill="#FFFFFF" fill-rule="nonzero">
                        <path d="M3.4825,12.6525 L3.4825,0 L1.7325,0 L1.7325,12.915 C2.2925,12.7575 2.87,12.67 3.4825,12.6525 Z" id="Path"></path>
                        <path d="M17.815,17.29 C17.8675,17.2725 17.9375,17.2375 18.0075,17.22 L17.7275,17.22 C17.7625,17.2375 17.78,17.2725 17.815,17.29 Z" id="Path"></path>
                        <path d="M22.7325,15.75 L22.7325,0 L20.9825,0 L21,16.2225 C21.525,16.065 22.1025,15.9075 22.7325,15.75 Z" id="Path"></path>
                    </g>
                    <rect id="Rectangle" x="0" y="0" width="56" height="56"></rect>
                </g>
            </g>
        </g>
    </g>
</svg>