<?xml version="1.0" encoding="UTF-8"?>
<svg width="42px" height="42px" viewBox="0 0 42 42" version="1.1" xmlns="http://www.w3.org/2000/svg" xmlns:xlink="http://www.w3.org/1999/xlink">
    <!-- Generator: Sketch 57.1 (83088) - https://sketch.com -->
    <title>114-G40px</title>
    <desc>Created with Sketch.</desc>
    <g id="NEW_icons" stroke="none" stroke-width="1" fill="none" fill-rule="evenodd">
        <g id="icons_UD_new-Copy" transform="translate(-244.000000, -14826.000000)">
            <g id="114-G40px" transform="translate(245.000000, 14827.000000)">
                <circle id="Oval-Copy-739" stroke="#E3E8EC" cx="20" cy="20" r="20"></circle>
                <g id="114-B32px-Copy" transform="translate(4.000000, 4.000000)">
                    <path d="M27,9 L22.99,9 C22.99,7.67 22.84,6.53 22.68,5.67 C22.56,5.05 22.05,4.66 21.5,4.66 C21.29,4.66 21.07,4.72 20.87,4.85 L17.75,6.87 C17.57,6.66 17.31,6.51 17,6.51 L15,6.51 C14.69,6.51 14.43,6.65 14.25,6.87 L11.13,4.85 C10.93,4.72 10.71,4.66 10.5,4.66 C9.96,4.66 9.44,5.05 9.32,5.67 C9.15,6.53 9.01,7.67 9.01,9 L5,9 C4.45,9 4,9.45 4,10 L4,13 C4,13.55 4.45,14 5,14 L5,26 C5,26.55 5.45,27 6,27 L14,27 L18,27 L26,27 C26.55,27 27,26.55 27,26 L27,14 C27.55,14 28,13.55 28,13 L28,10 C28,9.45 27.55,9 27,9 Z M14,26 L6,26 L6,14 L14,14 L14,26 Z M14,10.21 L14,11.4 L14,13 L11.54,13 L9.6,13 L8,13 L6,13 L5,13 L5,10 L8,10 L9.03,10 L10.03,10 L14,10 L14,10.21 Z M14,9 L10,9 C10,7.75 10.14,6.68 10.3,5.86 C10.33,5.7 10.44,5.65 10.5,5.65 C10.53,5.65 10.56,5.66 10.59,5.68 L14,7.9 L14,9 Z M17,10.6 L17,11.6 L17,13 L17,14 L17,15 L17,26 L15,26 L15,15 L15,14 L15,13 L15,11.6 L15,10.6 L15,10 L17,10 L17,10.6 Z M17,9 L15,9 L15,7.51 L17,7.51 L17,9 Z M18,7.9 L21.42,5.68 C21.45,5.66 21.48,5.65 21.51,5.65 C21.56,5.65 21.67,5.69 21.71,5.86 C21.86,6.68 21.99,7.75 22,9 L18,9 L18,7.9 Z M26,26 L18,26 L18,14 L26,14 L26,26 Z M27,13 L26,13 L24,13 L22.4,13 L20.46,13 L18,13 L18,11.4 L18,10.21 L18,10 L21.97,10 L22.97,10 L24,10 L27,10 L27,13 Z" id="Shape" fill="#101828" fill-rule="nonzero"></path>
                    <rect id="Rectangle" x="0" y="0" width="32" height="32"></rect>
                </g>
            </g>
        </g>
    </g>
</svg>