<?xml version="1.0" encoding="UTF-8"?>
<svg width="42px" height="42px" viewBox="0 0 42 42" version="1.1" xmlns="http://www.w3.org/2000/svg" xmlns:xlink="http://www.w3.org/1999/xlink">
    <!-- Generator: Sketch 57.1 (83088) - https://sketch.com -->
    <title>143-G40px</title>
    <desc>Created with Sketch.</desc>
    <g id="NEW_icons" stroke="none" stroke-width="1" fill="none" fill-rule="evenodd">
        <g id="icons_UD_new-Copy" transform="translate(-1524.000000, -18341.000000)">
            <g id="143-G40px" transform="translate(1525.000000, 18342.000000)">
                <circle id="Oval-Copy-7" stroke="#E3E8EC" cx="20" cy="20" r="20"></circle>
                <g id="143-B32px-Copy" transform="translate(4.000000, 4.000000)">
                    <path d="M27.8,9.2 C27.7,9.1 27.5,9 27.4,9 L27.4,9 L26,9 L26,8.8 C26,8.5 25.8,8.3 25.5,8.2 C25.2,8.1 22.7,7.7 20.3,8.1 C18.3,8.4 16.6,9.3 15.9,9.7 C15.2,9.3 13.6,8.5 11.5,8.1 C9.1,7.7 6.6,8.1 6.3,8.2 C6.2,8.3 6,8.5 6,8.8 L6,9 L4.6,9 L4.6,9 C4.4,9 4.3,9 4.2,9.2 C4.1,9.3 4,9.5 4,9.6 L4,9.9 L4,24 L4,24.3 C4,24.5 4.1,24.7 4.3,24.9 C4.4,24.9 4.5,25 4.6,25 C4.7,25 4.8,25 4.9,24.9 C4.9,24.9 6.8,23.8 9.4,23.6 C12.3,23.4 15.8,24.3 15.8,24.3 C15.8,24.3 15.8,24.3 15.8,24.3 C15.8,24.3 15.9,24.3 15.9,24.3 C15.9,24.3 15.9,24.3 15.9,24.3 L15.9,24.3 C15.9,24.3 15.9,24.3 15.9,24.3 C15.9,24.3 16,24.3 16,24.3 C16,24.3 16,24.3 16,24.3 C16,24.3 19.5,23.3 22.4,23.6 C25,23.8 26.8,24.9 26.9,24.9 C27,25 27.1,25 27.2,25 C27.3,25 27.4,25 27.5,24.9 C27.7,24.8 27.8,24.6 27.8,24.3 L27.8,24 L27.8,9.9 L27.8,9.6 C28,9.5 27.9,9.3 27.8,9.2 Z M7,21 L7,10 L7,9.1 C7.8,9 9.8,8.8 11.4,9.1 C13.2,9.4 14.9,10.3 15.5,10.6 L15.5,22.4 C14.5,21.9 13.1,21.4 11.4,21.1 C10.6,21 9.9,21 9.1,21 C8.3,21 7.5,21.1 7,21.2 L7,21 L7,21 Z M9.2,22.6 C7.5,22.7 5.8,23.4 5,23.8 L5,10 C5,10 6,10 6,10 L6,21 L6,21.7 C6,21.9 6.1,22 6.2,22.1 C6.3,22.2 6.5,22.2 6.7,22.2 C6.7,22.2 8.3,21.9 9.8,22 C12.1,22.1 14.1,22.8 14.1,22.8 C12.1,22.5 10,22.5 9.2,22.6 Z M16.5,10.6 C17.1,10.3 18.7,9.4 20.6,9.1 C22.3,8.8 24.2,9 25,9.1 L25,10 L25,21 L25,21 L25,21.2 C24.5,21.1 23.7,21 22.9,21 C22.1,21 21.4,21.1 20.6,21.2 C18.9,21.4 17.4,22 16.5,22.5 L16.5,10.6 Z M27,23.8 C26.1,23.4 24.5,22.8 22.8,22.6 C22,22.5 20,22.5 18,22.9 C18,22.9 20,22.2 22.3,22.1 C23.7,22 25.4,22.3 25.4,22.3 C25.6,22.3 25.7,22.3 25.9,22.2 C26,22.1 26.1,21.9 26.1,21.8 L26.1,21 L26.1,10 C26.1,10 27.1,10 27.1,10 L27,23.8 Z" id="Shape" fill="#101828" fill-rule="nonzero"></path>
                    <rect id="Rectangle" x="0" y="0" width="32" height="32"></rect>
                </g>
            </g>
        </g>
    </g>
</svg>