<?xml version="1.0" encoding="UTF-8"?>
<svg width="40px" height="40px" viewBox="0 0 40 40" version="1.1" xmlns="http://www.w3.org/2000/svg" xmlns:xlink="http://www.w3.org/1999/xlink">
    <!-- Generator: Sketch 57.1 (83088) - https://sketch.com -->
    <title>025-B40px</title>
    <desc>Created with Sketch.</desc>
    <g id="025-B40px" stroke="none" stroke-width="1" fill="none" fill-rule="evenodd">
        <g>
            <path d="M28.2125,28.75 C28.9,28.75 29.4625,29.3125 29.4625,30 L29.4625,31.25 C29.4625,31.9375 28.9,32.5 28.2125,32.5 C27.525,32.5 26.9625,31.9375 26.9625,31.25 L26.9625,30 C26.9625,29.3125 27.5125,28.75 28.2125,28.75 L28.2125,28.75 Z M28.2125,27.5 C26.8375,27.5 25.7125,28.625 25.7125,30 L25.7125,31.25 C25.7125,32.625 26.8375,33.75 28.2125,33.75 C29.5875,33.75 30.7125,32.625 30.7125,31.25 L30.7125,30 C30.7125,28.625 29.5875,27.5 28.2125,27.5 L28.2125,27.5 Z" id="Shape" fill="#101828" fill-rule="nonzero"></path>
            <polygon id="Path" fill="#101828" fill-rule="nonzero" points="32.5 28.75 33.75 28.75 33.75 30 35 30 35 31.25 33.75 31.25 33.75 32.5 32.5 32.5 32.5 31.25 31.25 31.25 31.25 30 32.5 30"></polygon>
            <path d="M24.3375,29.8125 C24.3375,29.6875 24.35,29.5625 24.3625,29.4375 C23.65,29.8875 22.8875,30.2625 22.075,30.55 C23.2375,29.325 24.1875,27.5875 24.8375,25.5125 L28.2625,25.5125 C28.1125,25.7625 27.95,26 27.775,26.2375 L29.2875,26.2375 C30.525,24.2375 31.25,21.8875 31.25,19.3625 C31.25,12.125 25.375,6.25 18.125,6.25 C18.125,6.25 18.1125,6.25 18.1125,6.25 C18.1125,6.25 18.1125,6.25 18.1,6.25 C18.0875,6.25 18.0875,6.25 18.075,6.25 C10.85,6.275 5,12.1375 5,19.375 C5,26.6125 10.85,32.475 18.075,32.5 C18.0875,32.5 18.0875,32.5 18.1,32.5 C18.1,32.5 18.1,32.5 18.1125,32.5 C18.1125,32.5 18.125,32.5 18.125,32.5 C20.375,32.5 22.4875,31.9375 24.3375,30.9375 L24.3375,29.8125 Z M14.1125,8.2125 C12.9625,9.4375 12.0125,11.1625 11.375,13.225 L7.9875,13.225 C9.3875,10.925 11.5375,9.1375 14.1125,8.2125 Z M7.325,14.475 L11.05,14.475 C10.725,15.8 10.55,17.25 10.5,18.75 L6.2875,18.75 C6.3625,17.2375 6.725,15.7875 7.325,14.475 Z M6.2875,20 L10.5,20 C10.5375,21.5 10.725,22.95 11.0375,24.275 L7.325,24.275 C6.725,22.9625 6.3625,21.5125 6.2875,20 Z M7.9875,25.525 L11.375,25.525 C12.0125,27.5875 12.9625,29.3125 14.1125,30.5375 C11.5375,29.6125 9.3875,27.825 7.9875,25.525 Z M17.5,31.1875 C15.4875,30.8125 13.725,28.6125 12.7,25.525 L17.5,25.525 L17.5,31.1875 Z M17.5,24.275 L12.3375,24.275 C12,22.95 11.8,21.5125 11.75,20 L17.5,20 L17.5,24.275 Z M17.5,18.75 L11.75,18.75 C11.8,17.2375 12,15.8 12.325,14.475 L17.5,14.475 L17.5,18.75 Z M17.5,13.225 L12.7,13.225 C13.7375,10.1375 15.5,7.9375 17.5,7.5625 L17.5,13.225 Z M28.925,24.275 L25.1625,24.275 C25.475,22.95 25.6625,21.5 25.7,20 L29.9625,20 C29.8875,21.5125 29.525,22.9625 28.925,24.275 Z M29.9625,18.75 L25.7,18.75 C25.6625,17.25 25.475,15.8 25.1625,14.475 L28.925,14.475 C29.525,15.7875 29.8875,17.2375 29.9625,18.75 Z M28.2625,13.225 L24.8375,13.225 C24.2,11.15 23.2375,9.4125 22.075,8.1875 C24.675,9.1125 26.85,10.9 28.2625,13.225 Z M18.75,7.5625 C20.7375,7.95 22.4875,10.15 23.5125,13.225 L18.75,13.225 L18.75,7.5625 Z M18.75,14.475 L23.875,14.475 C24.2125,15.8 24.4125,17.2375 24.45,18.75 L18.75,18.75 L18.75,14.475 Z M18.75,20 L24.45,20 C24.4,21.5125 24.2,22.95 23.875,24.275 L18.75,24.275 L18.75,20 Z M18.75,31.1875 L18.75,25.525 L23.5125,25.525 C22.4875,28.6 20.7375,30.7875 18.75,31.1875 Z" id="Shape" fill="#101828" fill-rule="nonzero"></path>
            <rect id="Rectangle" x="0" y="0" width="40" height="40"></rect>
        </g>
    </g>
</svg>