<?xml version="1.0" encoding="UTF-8"?>
<svg width="40px" height="40px" viewBox="0 0 40 40" version="1.1" xmlns="http://www.w3.org/2000/svg" xmlns:xlink="http://www.w3.org/1999/xlink">
    <!-- Generator: Sketch 57.1 (83088) - https://sketch.com -->
    <title>009-B40px</title>
    <desc>Created with Sketch.</desc>
    <g id="009-B40px" stroke="none" stroke-width="1" fill="none" fill-rule="evenodd">
        <g>
            <path d="M7.725,26.4875 C7.725,26.4875 7.7125,26.4875 7.7125,26.4875 C7.4125,26.475 7.1625,26.25 7.1125,25.95 C7.075,25.6875 6.175,19.5 7.9625,16.1875 C9.3375,13.6625 11.4625,11.5375 14.3,9.8625 C17.2125,8.15 17.425,7.025 17.6625,5.85 C17.725,5.5375 18.05,5.2875 18.325,5.3 C18.6375,5.325 18.9,5.525 18.9125,5.8375 C19.1875,10.5125 18.2375,14.2375 16.2375,16.3375 C15.2375,17.3875 14.225,18.2125 13.25,19.0125 C11.0125,20.8375 9.0875,22.4125 8.3375,26 C8.275,26.2875 8.025,26.4875 7.725,26.4875 Z M17.675,8.8 C17.1125,9.4625 16.2625,10.1625 14.925,10.95 C12.3,12.5 10.325,14.4625 9.0625,16.7875 C8.1875,18.3875 8.05,20.875 8.1125,22.825 C9.1875,20.7 10.7875,19.4 12.4625,18.0375 C13.4125,17.2625 14.3875,16.4625 15.3375,15.475 C16.6875,14.0625 17.4875,11.75 17.675,8.8 Z" id="Shape" fill="#101828" fill-rule="nonzero"></path>
            <path d="M15.5625,33.4 C15.5625,33.4 15.55,33.4 15.55,33.4 C15.25,33.3875 15,33.1625 14.95,32.8625 C14.9,32.525 13.725,24.5125 16.05,20.25 C17.825,16.9875 20.575,14.2375 24.2375,12.0875 C28.1,9.8 28.4,8.3125 28.7125,6.725 L28.7375,6.5875 C28.8,6.275 29.0625,6.075 29.3875,6.0875 C29.7,6.1125 29.95,6.3625 29.9625,6.675 C30.325,12.7125 29.1,17.525 26.525,20.225 C25.225,21.5875 23.9125,22.65 22.65,23.6875 C19.7125,26.0875 17.1625,28.1625 16.1875,32.9 C16.1125,33.2 15.8625,33.4 15.5625,33.4 Z M28.75,9.975 C28.05,10.925 26.8875,11.975 24.85,13.175 C21.3875,15.2125 18.8,17.8 17.1375,20.8625 C15.8625,23.2 15.775,26.9625 15.9,29.6125 C17.275,26.45 19.5125,24.6375 21.85,22.725 C23.0875,21.7125 24.3625,20.675 25.6125,19.3625 C27.5,17.4125 28.575,14.1375 28.75,9.975 Z" id="Shape" fill="#101828" fill-rule="nonzero"></path>
            <path d="M24.65,34.55 C24.65,34.55 24.6375,34.55 24.6375,34.55 C24.3375,34.5375 24.075,34.3125 24.0375,34.0125 C24.0125,33.825 23.3625,29.375 24.6625,26.975 C25.65,25.15 27.1875,23.625 29.225,22.425 C31.2125,21.25 31.3625,20.5375 31.525,19.7 C31.5875,19.3875 31.8625,19.15 32.1875,19.1625 C32.5,19.1875 32.7625,19.4 32.775,19.7125 C32.975,23.075 32.2875,25.775 30.825,27.3 C30.1,28.05 29.3875,28.6375 28.6875,29.2125 C27.0625,30.5375 25.7875,31.5875 25.2625,34.0625 C25.2,34.3375 24.95,34.55 24.65,34.55 Z M31.4875,22.325 C31.1,22.7 30.575,23.0875 29.8625,23.5125 C28.025,24.6 26.65,25.9625 25.775,27.5875 C25.275,28.5125 25.125,29.875 25.1125,31.1 C25.8625,29.9 26.875,29.0875 27.9125,28.2375 C28.575,27.6875 29.2625,27.1375 29.9375,26.4375 C30.7625,25.5375 31.3,24.125 31.4875,22.325 Z" id="Shape" fill="#101828" fill-rule="nonzero"></path>
            <rect id="Rectangle" x="0" y="0" width="40" height="40"></rect>
        </g>
    </g>
</svg>