<?xml version="1.0" encoding="UTF-8"?>
<svg width="42px" height="42px" viewBox="0 0 42 42" version="1.1" xmlns="http://www.w3.org/2000/svg" xmlns:xlink="http://www.w3.org/1999/xlink">
    <!-- Generator: Sketch 57.1 (83088) - https://sketch.com -->
    <title>071-G40px</title>
    <desc>Created with Sketch.</desc>
    <g id="NEW_icons" stroke="none" stroke-width="1" fill="none" fill-rule="evenodd">
        <g id="icons_UD_new-Copy" transform="translate(-1526.000000, -9305.000000)">
            <g id="071-G40px" transform="translate(1527.000000, 9306.000000)">
                <circle id="Oval-Copy-469" stroke="#E3E8EC" cx="20" cy="20" r="20"></circle>
                <g id="071-B32px-Copy" transform="translate(4.000000, 4.000000)">
                    <path d="M22.95,5 C22.98,5 23,5.02 23,5.05 L23,26.95 C23,26.98 22.98,27 22.95,27 L9.05,27 C9.02,27 9,26.98 9,26.95 L9,5.05 C9,5.02 9.02,5 9.05,5 L22.95,5 L22.95,5 Z M22.95,4 L9.05,4 C8.47,4 8,4.47 8,5.05 L8,26.95 C8,27.53 8.47,28 9.05,28 L22.95,28 C23.53,28 24,27.53 24,26.95 L24,5.05 C24,4.47 23.53,4 22.95,4 L22.95,4 Z" id="Shape" fill="#101828" fill-rule="nonzero"></path>
                    <path d="M16,26 C16.27,26 16.5,25.78 16.5,25.5 C16.5,25.22 16.27,25 16,25 C15.73,25 15.5,25.22 15.5,25.5 C15.5,25.78 15.73,26 16,26" id="Path" fill="#101828" fill-rule="nonzero"></path>
                    <rect id="Rectangle" fill="#101828" fill-rule="nonzero" x="8" y="23" width="16" height="1"></rect>
                    <rect id="Rectangle" x="0" y="0" width="32" height="32"></rect>
                </g>
            </g>
        </g>
    </g>
</svg>