<?xml version="1.0" encoding="UTF-8"?>
<svg width="42px" height="42px" viewBox="0 0 42 42" version="1.1" xmlns="http://www.w3.org/2000/svg" xmlns:xlink="http://www.w3.org/1999/xlink">
    <!-- Generator: Sketch 57.1 (83088) - https://sketch.com -->
    <title>171-G40px</title>
    <desc>Created with Sketch.</desc>
    <g id="NEW_icons" stroke="none" stroke-width="1" fill="none" fill-rule="evenodd">
        <g id="icons_UD_new-Copy" transform="translate(-1526.000000, -21857.000000)">
            <g id="171-G40px" transform="translate(1527.000000, 21858.000000)">
                <circle id="Oval-Copy-1046" stroke="#E3E8EC" cx="20" cy="20" r="20"></circle>
                <g id="171-B32px-Copy" transform="translate(5.000000, 4.000000)">
                    <g id="ViP" transform="translate(3.145455, 9.345455)" fill="#101828">
                        <g id="Shape_3_" transform="translate(14.000000, 0.000000)">
                            <path d="M10.81,3.82 C10.81,3.75 10.81,3.67 10.78,3.61 C10.73,3.19 10.61,2.78 10.45,2.4 C10.01,1.38 9.02,0.7 7.91,0.66 L3.67,0.66 C2.55,0.7 1.56,1.38 1.12,2.4 C0.96,2.77 0.85,3.16 0.79,3.55 C0.75,3.78 0.73,4.01 0.71,4.25 L0.71,12.04 C1.91,12.04 2.88,11.08 2.88,9.89 L2.88,9.03 C3.78,9.08 4.58,9.08 5.1,9.08 C6.61,9.15 8.1,8.73 9.35,7.89 C10.28,7.19 10.84,6.11 10.85,4.95 C10.85,4.91 10.85,4.87 10.85,4.83 C10.86,4.51 10.85,4.16 10.81,3.82 Z M2.88,6.88 L2.88,4.44 C2.88,3.48 3.28,2.83 3.9,2.8 L7.7,2.8 C8.16,2.83 8.5,3.22 8.64,3.82 C8.68,4.15 8.7,4.49 8.69,4.83 C8.71,5.36 8.46,5.87 8.03,6.19 C7.8,6.35 7.55,6.48 7.29,6.56 C5.85,6.95 4.36,7.06 2.88,6.88 Z" id="Shape"></path>
                        </g>
                        <g id="Group" transform="translate(11.000000, 5.000000)">
                            <path d="M0.94,0.88 L0.94,4.87 C0.94,6.07 1.91,7.04 3.11,7.04 L3.11,1.41 C2.38,1.27 1.65,1.08 0.94,0.85" id="Path"></path>
                        </g>
                        <g id="Group" transform="translate(11.000000, 0.000000)">
                            <path d="M3.11,0.65 C2.54,0.65 1.98,0.88 1.58,1.28 C1.17,1.69 0.94,2.24 0.94,2.82 L0.94,4.49 C2.14,4.49 3.11,3.52 3.11,2.32 L3.11,0.65 Z" id="Path"></path>
                        </g>
                        <g id="Group">
                            <path d="M9.31,2.67 L8.61,4.39 L6.44,9.68 C6.4,9.78 6.31,9.85 6.21,9.86 L6.04,9.86 C5.93,9.85 5.84,9.78 5.8,9.68 L2.87,2.57 C2.58,1.77 1.7,0.75 0.85,0.65 L0.85,3.22 L3.78,10.54 C4.1,11.43 4.94,12.03 5.89,12.03 L6.32,12.03 C7.26,12.03 8.11,11.43 8.43,10.54 L10.53,5.31 L11.37,3.2 L11.37,0.65 C10.53,0.76 9.6,1.87 9.31,2.67 Z" id="Path"></path>
                        </g>
                    </g>
                    <rect id="Rectangle" x="0" y="0" width="32" height="32"></rect>
                </g>
            </g>
        </g>
    </g>
</svg>