<?xml version="1.0" encoding="UTF-8"?>
<svg width="80px" height="80px" viewBox="0 0 80 80" version="1.1" xmlns="http://www.w3.org/2000/svg" xmlns:xlink="http://www.w3.org/1999/xlink">
    <!-- Generator: Sketch 57.1 (83088) - https://sketch.com -->
    <title>114-C80px</title>
    <desc>Created with Sketch.</desc>
    <g id="NEW_icons" stroke="none" stroke-width="1" fill="none" fill-rule="evenodd">
        <g id="icons_UD_new-Copy" transform="translate(-1002.000000, -14787.000000)">
            <g id="114-C80px" transform="translate(1002.000000, 14787.000000)">
                <circle id="Oval-Copy-723" fill="#FF4F12" cx="40" cy="40" r="40"></circle>
                <g id="114-B32px-Copy-9" transform="translate(12.000000, 12.000000)">
                    <path d="M47.25,15.75 L40.2325,15.75 C40.2325,13.4225 39.97,11.4275 39.69,9.9225 C39.48,8.8375 38.5875,8.155 37.625,8.155 C37.2575,8.155 36.8725,8.26 36.5225,8.4875 L31.0625,12.0225 C30.7475,11.655 30.2925,11.3925 29.75,11.3925 L26.25,11.3925 C25.7075,11.3925 25.2525,11.6375 24.9375,12.0225 L19.4775,8.4875 C19.1275,8.26 18.7425,8.155 18.375,8.155 C17.43,8.155 16.52,8.8375 16.31,9.9225 C16.0125,11.4275 15.7675,13.4225 15.7675,15.75 L8.75,15.75 C7.7875,15.75 7,16.5375 7,17.5 L7,22.75 C7,23.7125 7.7875,24.5 8.75,24.5 L8.75,45.5 C8.75,46.4625 9.5375,47.25 10.5,47.25 L24.5,47.25 L31.5,47.25 L45.5,47.25 C46.4625,47.25 47.25,46.4625 47.25,45.5 L47.25,24.5 C48.2125,24.5 49,23.7125 49,22.75 L49,17.5 C49,16.5375 48.2125,15.75 47.25,15.75 Z M24.5,45.5 L10.5,45.5 L10.5,24.5 L24.5,24.5 L24.5,45.5 Z M24.5,17.8675 L24.5,19.95 L24.5,22.75 L20.195,22.75 L16.8,22.75 L14,22.75 L10.5,22.75 L8.75,22.75 L8.75,17.5 L14,17.5 L15.8025,17.5 L17.5525,17.5 L24.5,17.5 L24.5,17.8675 Z M24.5,15.75 L17.5,15.75 C17.5,13.5625 17.745,11.69 18.025,10.255 C18.0775,9.975 18.27,9.8875 18.375,9.8875 C18.4275,9.8875 18.48,9.905 18.5325,9.94 L24.5,13.825 L24.5,15.75 Z M29.75,18.55 L29.75,20.3 L29.75,22.75 L29.75,24.5 L29.75,26.25 L29.75,45.5 L26.25,45.5 L26.25,26.25 L26.25,24.5 L26.25,22.75 L26.25,20.3 L26.25,18.55 L26.25,17.5 L29.75,17.5 L29.75,18.55 Z M29.75,15.75 L26.25,15.75 L26.25,13.1425 L29.75,13.1425 L29.75,15.75 Z M31.5,13.825 L37.485,9.94 C37.5375,9.905 37.59,9.8875 37.6425,9.8875 C37.73,9.8875 37.9225,9.9575 37.9925,10.255 C38.255,11.69 38.4825,13.5625 38.5,15.75 L31.5,15.75 L31.5,13.825 Z M45.5,45.5 L31.5,45.5 L31.5,24.5 L45.5,24.5 L45.5,45.5 Z M47.25,22.75 L45.5,22.75 L42,22.75 L39.2,22.75 L35.805,22.75 L31.5,22.75 L31.5,19.95 L31.5,17.8675 L31.5,17.5 L38.4475,17.5 L40.1975,17.5 L42,17.5 L47.25,17.5 L47.25,22.75 Z" id="Shape" fill="#FFFFFF" fill-rule="nonzero"></path>
                    <rect id="Rectangle" x="0" y="0" width="56" height="56"></rect>
                </g>
            </g>
        </g>
    </g>
</svg>