<?xml version="1.0" encoding="UTF-8"?>
<svg width="40px" height="40px" viewBox="0 0 40 40" version="1.1" xmlns="http://www.w3.org/2000/svg" xmlns:xlink="http://www.w3.org/1999/xlink">
    <!-- Generator: Sketch 57.1 (83088) - https://sketch.com -->
    <title>221-B40px</title>
    <desc>Created with Sketch.</desc>
    <g id="221-B40px" stroke="none" stroke-width="1" fill="none" fill-rule="evenodd">
        <g>
            <path d="M33.75,6.25 L33.75,16.25 L23.75,16.25 L23.75,6.25 L33.75,6.25 L33.75,6.25 Z M35,5 L22.5,5 L22.5,17.5 L35,17.5 L35,5 L35,5 Z" id="Shape" fill="#101828" fill-rule="nonzero"></path>
            <path d="M27.5,23.875 L32.875,33.75 L22.125,33.75 L27.5,23.875 L27.5,23.875 Z M27.5,21.25 L20,35 L35,35 L27.5,21.25 L27.5,21.25 Z" id="Shape" fill="#101828" fill-rule="nonzero"></path>
            <path d="M14.625,6.25 L17.375,11.25 L14.625,16.25 L9.125,16.25 L6.375,11.25 L9.125,6.25 L14.625,6.25 L14.625,6.25 Z M15.25,5 L8.5,5 L5,11.25 L8.5,17.5 L15.375,17.5 L18.75,11.25 L15.25,5 L15.25,5 Z" id="Shape" fill="#101828" fill-rule="nonzero"></path>
            <path d="M11.875,22.5 C15,22.5 17.5,25 17.5,28.125 C17.5,31.25 15,33.75 11.875,33.75 C8.75,33.75 6.25,31.25 6.25,28.125 C6.25,25 8.75,22.5 11.875,22.5 L11.875,22.5 Z M11.875,21.25 C8.125,21.25 5,24.375 5,28.125 C5,31.875 8.125,35 11.875,35 C15.625,35 18.75,31.875 18.75,28.125 C18.75,24.375 15.625,21.25 11.875,21.25 L11.875,21.25 Z" id="Shape" fill="#101828" fill-rule="nonzero"></path>
            <rect id="Rectangle" x="0" y="0" width="40" height="40"></rect>
        </g>
    </g>
</svg>