<?xml version="1.0" encoding="UTF-8"?>
<svg width="40px" height="40px" viewBox="0 0 40 40" version="1.1" xmlns="http://www.w3.org/2000/svg" xmlns:xlink="http://www.w3.org/1999/xlink">
    <!-- Generator: Sketch 57.1 (83088) - https://sketch.com -->
    <title>126-B40px</title>
    <desc>Created with Sketch.</desc>
    <g id="126-B40px" stroke="none" stroke-width="1" fill="none" fill-rule="evenodd">
        <g>
            <circle id="Oval" fill="#101828" fill-rule="nonzero" cx="16.25" cy="16.25" r="1.25"></circle>
            <rect id="Rectangle" fill="#101828" fill-rule="nonzero" x="15.625" y="10" width="1.25" height="6.25"></rect>
            <path d="M19.4875,18.6125 L16.6875,15.8125 L15.8,16.7 L18.775,19.675 C19,19.3 19.2375,18.9375 19.4875,18.6125 Z" id="Path" fill="#101828" fill-rule="nonzero"></path>
            <g id="Group" transform="translate(18.750000, 16.250000)" fill="#101828" fill-rule="nonzero">
                <path d="M5.175,14.325 C2.8625,13.2125 1.25,10.8625 1.25,8.125 C1.25,4.9875 3.3625,2.3375 6.25,1.5125 L6.25,0.225 C2.6625,1.075 0,4.2875 0,8.125 C0,11.0875 1.5875,13.675 3.9625,15.1 L5.175,14.325 Z" id="Path"></path>
                <path d="M12.2875,1.1625 L11.075,1.9375 C13.4,3.0375 15,5.4 15,8.125 C15,11.2625 12.8875,13.9125 10,14.7375 L10,16.025 C13.5875,15.175 16.25,11.9625 16.25,8.125 C16.25,5.1625 14.6625,2.575 12.2875,1.1625 Z" id="Path"></path>
            </g>
            <path d="M26.25,16.0125 L27.6375,16.8875 L26.25,17.75 L26.25,16.0125 L26.25,16.0125 Z M25,13.75 L25,20 L30,16.875 L25,13.75 L25,13.75 Z" id="Shape" fill="#101828" fill-rule="nonzero"></path>
            <path d="M27.5,31.0125 L27.5,32.75 L26.1125,31.875 L27.5,31.0125 L27.5,31.0125 Z M28.75,28.75 L23.75,31.875 L28.75,35 L28.75,28.75 L28.75,28.75 Z" id="Shape" fill="#101828" fill-rule="nonzero"></path>
            <path d="M31.25,21.25 L30,21.25 L27.5,24.9875 L27.5,25.2625 L27.5,26.25 L30,26.2375 L30,27.5 L31.25,27.5125 L31.25,26.25 L32.5,26.2625 L32.5,25 L31.25,25 L31.25,21.25 Z M28.9,25 L30,23.375 L30,25 L28.9,25 Z" id="Shape" fill="#101828" fill-rule="nonzero"></path>
            <path d="M25.3125,25.15 C26.025,24.375 26.25,23.8625 26.25,23.0625 C26.25,21.9625 25.525,21.2625 24.4,21.2625 C23.1625,21.2625 22.5,22.225 22.5,23.125 C22.5,23.3125 22.5125,23.5 22.55,23.6875 L22.5625,23.7875 L23.75,23.6875 L23.725,23.5625 C23.7,23.4375 23.6875,23.3375 23.6875,23.175 C23.6875,22.725 23.9625,22.45 24.4,22.45 C24.825,22.45 25.1,22.7375 25.1,23.1875 C25.1,23.55 24.9625,23.825 24.5125,24.3125 L22.5,26.55 L22.5,27.5 L26.25,27.5 L26.25,26.25 L24.3125,26.25 L25.3125,25.15 Z" id="Path" fill="#101828" fill-rule="nonzero"></path>
            <path d="M17.675,26.15 C17.2125,26.2125 16.7375,26.25 16.25,26.25 C10.7375,26.25 6.25,21.7625 6.25,16.25 C6.25,10.7375 10.7375,6.25 16.25,6.25 C20.6,6.25 24.3,9.05 25.675,12.9375 L27.2625,13.95 C26.2,8.8375 21.675,5 16.25,5 C10.0375,5 5,10.0375 5,16.25 C5,22.4625 10.0375,27.5 16.25,27.5 C16.85,27.5 17.425,27.45 18,27.3625 C17.8625,26.9625 17.75,26.5625 17.675,26.15 Z" id="Path" fill="#101828" fill-rule="nonzero"></path>
            <rect id="Rectangle" x="0" y="0" width="40" height="40"></rect>
        </g>
    </g>
</svg>