<?xml version="1.0" encoding="UTF-8"?>
<svg width="42px" height="42px" viewBox="0 0 42 42" version="1.1" xmlns="http://www.w3.org/2000/svg" xmlns:xlink="http://www.w3.org/1999/xlink">
    <!-- Generator: Sketch 54.1 (76490) - https://sketchapp.com -->
    <title>001-G40px</title>
    <desc>Created with Sketch.</desc>
    <g id="NEW_icons" stroke="none" stroke-width="1" fill="none" fill-rule="evenodd">
        <g id="icons_UD_new-Copy" transform="translate(-1526.000000, -371.000000)">
            <g id="001-G40px" transform="translate(1527.000000, 372.000000)">
                <circle id="Oval-Copy-75" stroke="#E3E8EC" cx="20" cy="20" r="20"></circle>
                <g id="001-B32px-Copy-4" transform="translate(4.000000, 4.000000)">
                    <g id="Group" transform="translate(4.000000, 4.000000)" fill="#101828" fill-rule="nonzero">
                        <path d="M20,11 L20,11 L20.01,23 L4,23.01 L4,12 L4,11 L4,10 L3,10 L3,23.01 C3,23.56 3.44,24 3.99,24 L20.02,24 C20.56,24 21.01,23.56 21.01,23.01 L21.01,10 L20.01,10 L20.01,11 L20,11 Z" id="Path"></path>
                        <polygon id="Path" points="12 0.01 0.18 9.77 0.82 10.54 12 1.3 23.18 10.54 23.82 9.77"></polygon>
                        <path d="M14.08,15.85 C13.54,15.32 12.81,15 12,15 C11.17,15 10.42,15.34 9.88,15.88 L10.59,16.59 C10.95,16.22 11.45,16 12,16 C12.53,16 13.02,16.21 13.37,16.55 L14.08,15.85 Z" id="Path"></path>
                        <path d="M11.29,17.29 L11.96,17.96 L12.66,17.26 C12.49,17.1 12.26,17 12,17 C11.72,17 11.47,17.11 11.29,17.29 Z" id="Path"></path>
                        <path d="M15.5,14.43 C14.59,13.55 13.36,13 12,13 C10.62,13 9.37,13.56 8.46,14.46 L9.17,15.17 C9.9,14.45 10.9,14 12,14 C13.08,14 14.07,14.44 14.79,15.14 L15.5,14.43 Z" id="Path"></path>
                    </g>
                    <rect id="Rectangle" x="0" y="0" width="32" height="32"></rect>
                </g>
            </g>
        </g>
    </g>
</svg>