<?xml version="1.0" encoding="UTF-8"?>
<svg width="40px" height="40px" viewBox="0 0 40 40" version="1.1" xmlns="http://www.w3.org/2000/svg" xmlns:xlink="http://www.w3.org/1999/xlink">
    <!-- Generator: Sketch 57.1 (83088) - https://sketch.com -->
    <title>067-B40px</title>
    <desc>Created with Sketch.</desc>
    <g id="067-B40px" stroke="none" stroke-width="1" fill="none" fill-rule="evenodd">
        <g>
            <path d="M23.75,28.5375 C18.1,27.0875 12.9125,21.8 12.8625,21.75 C12.8,21.6875 6.9625,15.575 6.25,9.5625 C6.25,9.525 6.25,9.4625 6.2875,9.425 L9.5625,6.2625 C9.5875,6.2375 9.6125,6.225 9.65,6.225 C9.675,6.225 9.7,6.25 9.7,6.25 L14.6375,11.35 C14.675,11.3875 14.6625,11.45 14.625,11.5 L12.4375,13.6125 L11.8375,14.2 L12.15,14.975 C12.2,15.1 13.3625,17.9375 15.025,19.65 C16.6875,21.3625 19.4875,22.625 19.6125,22.675 L20.3875,23.0125 L20.9875,22.425 L23.175,20.3125 C23.2,20.2875 23.225,20.275 23.2625,20.275 C23.3,20.275 23.325,20.3 23.325,20.3 L23.75,20.775 L23.75,19.15 C23.5875,19.0875 23.4125,19.05 23.25,19.05 C22.9125,19.05 22.5625,19.175 22.3,19.4375 L20.1125,21.55 C20.1125,21.55 17.4375,20.3625 15.925,18.8 C14.4125,17.2375 13.3125,14.525 13.3125,14.525 L15.5,12.4125 C16.0375,11.8875 16.0625,11.0375 15.5375,10.5 L10.6,5.3875 C10.3375,5.1125 9.9875,4.975 9.6375,4.975 C9.3,4.975 8.95,5.1 8.6875,5.3625 L5.4125,8.525 C5.1,8.8375 4.9625,9.275 5.0125,9.7125 C5.7875,16.2375 11.9625,22.6125 11.9625,22.6125 C11.9625,22.6125 17.5375,28.3625 23.75,29.8125 L23.75,28.5375 Z" id="Path" fill="#101828" fill-rule="nonzero"></path>
            <path d="M33.6875,20 C33.725,20 33.75,20.025 33.75,20.0625 L33.75,33.6875 C33.75,33.725 33.725,33.75 33.6875,33.75 L26.3125,33.75 C26.275,33.75 26.25,33.725 26.25,33.6875 L26.25,20.0625 C26.25,20.025 26.275,20 26.3125,20 L33.6875,20 L33.6875,20 Z M33.6875,18.75 L26.3125,18.75 C25.5875,18.75 25,19.3375 25,20.0625 L25,33.6875 C25,34.4125 25.5875,35 26.3125,35 L33.6875,35 C34.4125,35 35,34.4125 35,33.6875 L35,20.0625 C35,19.3375 34.4125,18.75 33.6875,18.75 L33.6875,18.75 Z" id="Shape" fill="#101828" fill-rule="nonzero"></path>
            <rect id="Rectangle" fill="#101828" fill-rule="nonzero" x="25" y="30" width="10" height="1.25"></rect>
            <circle id="Oval" fill="#101828" fill-rule="nonzero" cx="30" cy="32.5" r="1"></circle>
            <rect id="Rectangle" x="0" y="0" width="40" height="40"></rect>
        </g>
    </g>
</svg>