<?xml version="1.0" encoding="UTF-8"?>
<svg width="40px" height="40px" viewBox="0 0 40 40" version="1.1" xmlns="http://www.w3.org/2000/svg" xmlns:xlink="http://www.w3.org/1999/xlink">
    <!-- Generator: Sketch 57.1 (83088) - https://sketch.com -->
    <title>095-B40px</title>
    <desc>Created with Sketch.</desc>
    <g id="095-B40px" stroke="none" stroke-width="1" fill="none" fill-rule="evenodd">
        <g>
            <path d="M30,17.5 L30,18.75 L30,18.75 L30.0125,33.75 L10,33.775 L10,20 L10,18.75 L10,17.5 L8.75,17.5 L8.75,33.7625 C8.75,34.45 9.3,35 9.9875,35 L30.025,35 C30.7,35 31.2625,34.45 31.2625,33.7625 L31.2625,17.5 L30,17.5 Z" id="Path" fill="#101828" fill-rule="nonzero"></path>
            <polygon id="Path" fill="#101828" fill-rule="nonzero" points="33.975 18.2 20 6.65 6.025 18.2 5.225 17.2375 20 5.025 34.775 17.2375"></polygon>
            <path d="M20,23.75 C21.375,23.75 22.5,24.875 22.5,26.25 C22.5,27.625 21.375,28.75 20,28.75 C18.625,28.75 17.5,27.625 17.5,26.25 C17.5,24.875 18.625,23.75 20,23.75 L20,23.75 Z M20,22.5 C17.925,22.5 16.25,24.175 16.25,26.25 C16.25,28.325 17.925,30 20,30 C22.075,30 23.75,28.325 23.75,26.25 C23.75,24.1875 22.075,22.5 20,22.5 L20,22.5 Z" id="Shape" fill="#101828" fill-rule="nonzero"></path>
            <path d="M20,18.75 C21.0375,18.75 21.875,19.5875 21.875,20.625 C21.875,21.6625 21.0375,22.5 20,22.5 C18.9625,22.5 18.125,21.6625 18.125,20.625 C18.125,19.5875 18.9625,18.75 20,18.75 L20,18.75 Z M20,17.5 C18.275,17.5 16.875,18.9 16.875,20.625 C16.875,22.35 18.275,23.75 20,23.75 C21.725,23.75 23.125,22.35 23.125,20.625 C23.125,18.9 21.725,17.5 20,17.5 L20,17.5 Z" id="Shape" fill="#101828" fill-rule="nonzero"></path>
            <rect id="Rectangle" x="0" y="0" width="40" height="40"></rect>
        </g>
    </g>
</svg>