<?xml version="1.0" encoding="UTF-8"?>
<svg width="40px" height="40px" viewBox="0 0 40 40" version="1.1" xmlns="http://www.w3.org/2000/svg" xmlns:xlink="http://www.w3.org/1999/xlink">
    <!-- Generator: Sketch 57.1 (83088) - https://sketch.com -->
    <title>154-B40px</title>
    <desc>Created with Sketch.</desc>
    <g id="154-B40px" stroke="none" stroke-width="1" fill="none" fill-rule="evenodd">
        <g>
            <path d="M26.9125,13.75 L26.9125,16.25 L6.9125,16.25 L6.9125,13.75 L26.9125,13.75 L26.9125,13.75 Z M28.1625,12.5 L5.6625,12.5 L5.6625,17.5 L28.1625,17.5 L28.1625,12.5 L28.1625,12.5 Z" id="Shape" fill="#101828" fill-rule="nonzero"></path>
            <path d="M25.8625,6.25 L26.325,8.7 L6.675,12.375 L6.2125,9.925 L25.8625,6.25 L25.8625,6.25 L25.8625,6.25 Z M25.8625,5 C25.7875,5 25.7125,5.0125 25.625,5.025 L5.975,8.7 C5.3,8.825 4.85,9.475 4.975,10.15 L5.6625,13.825 L27.775,9.6875 L27.0875,6.0125 C26.9875,5.4125 26.4625,5 25.8625,5 L25.8625,5 Z" id="Shape" fill="#101828" fill-rule="nonzero"></path>
            <polygon id="Rectangle" fill="#101828" fill-rule="nonzero" transform="translate(8.892183, 10.692296) rotate(-55.502690) translate(-8.892183, -10.692296) " points="6.24828102 10.0672604 11.536084 10.0672604 11.536084 11.3173321 6.24828102 11.3173321"></polygon>
            <polygon id="Rectangle" fill="#101828" fill-rule="nonzero" transform="translate(13.813915, 9.771806) rotate(-55.598003) translate(-13.813915, -9.771806) " points="11.1638951 9.14680156 16.4639349 9.14680156 16.4639349 10.3968109 11.1638951 10.3968109"></polygon>
            <polygon id="Rectangle" fill="#101828" fill-rule="nonzero" transform="translate(18.724510, 8.850370) rotate(-55.502690) translate(-18.724510, -8.850370) " points="16.0743582 8.22533419 21.3746618 8.22533419 21.3746618 9.47540581 16.0743582 9.47540581"></polygon>
            <polygon id="Rectangle" fill="#101828" fill-rule="nonzero" transform="translate(23.643493, 7.936398) rotate(-55.502690) translate(-23.643493, -7.936398) " points="20.9933407 7.31136169 26.2936443 7.31136169 26.2936443 8.56143331 20.9933407 8.56143331"></polygon>
            <polygon id="Path" fill="#101828" fill-rule="nonzero" points="7.975 17.3625 7.0875 16.475 10.8375 12.7375 11.725 13.625"></polygon>
            <polygon id="Path" fill="#101828" fill-rule="nonzero" points="12.975 17.3625 12.0875 16.475 15.8375 12.7375 16.725 13.625"></polygon>
            <polygon id="Path" fill="#101828" fill-rule="nonzero" points="17.975 17.3625 17.0875 16.475 20.8375 12.7375 21.725 13.625"></polygon>
            <polygon id="Path" fill="#101828" fill-rule="nonzero" points="22.975 17.3625 22.0875 16.475 25.8375 12.7375 26.725 13.625"></polygon>
            <path d="M27,20 L27.2875,21.1 L27.475,21.8 L28.175,21.9875 C28.6125,22.1 29.025,22.275 29.4125,22.5 L30.0375,22.8625 L30.6625,22.5 L31.6375,21.9375 L31.8125,22.1125 L31.25,23.0875 L30.8875,23.7125 L31.25,24.3375 C31.475,24.725 31.65,25.1375 31.7625,25.575 L31.95,26.275 L32.65,26.4625 L33.75,26.75 L33.75,27 L32.6625,27.2875 L31.9625,27.475 L31.775,28.175 C31.6625,28.6125 31.4875,29.0375 31.2625,29.425 L30.9,30.05 L31.2625,30.675 L31.825,31.65 L31.65,31.825 L30.675,31.2625 L30.05,30.9 L29.425,31.2625 C29.0375,31.4875 28.625,31.6625 28.175,31.775 L27.475,31.9625 L27.2875,32.6625 L27,33.75 L26.75,33.75 L26.4625,32.6625 L26.275,31.9625 L25.575,31.775 C25.1375,31.6625 24.725,31.4875 24.3375,31.2625 L23.7125,30.9 L23.0875,31.2625 L22.1125,31.825 L21.9375,31.65 L22.5,30.675 L22.8625,30.05 L22.5,29.425 C22.275,29.0375 22.1,28.625 21.9875,28.1875 L21.8,27.4875 L21.1,27.3 L20,27 L20,26.75 L21.1,26.4625 L21.8,26.275 L21.9875,25.575 C22.1,25.1375 22.275,24.725 22.5,24.3375 L22.8625,23.7125 L22.5,23.0875 L21.9375,22.1 L22.1125,21.925 L23.0875,22.5 L23.7125,22.8625 L24.3375,22.5 C24.725,22.275 25.1375,22.1 25.575,21.9875 L26.275,21.8 L26.4625,21.1 L26.75,20 L27,20 L27,20 Z M27.3625,18.75 L26.4,18.75 C26.05,18.75 25.7375,18.9875 25.6375,19.3375 L25.25,20.775 C24.7,20.925 24.1875,21.1375 23.7125,21.4125 L22.425,20.6625 C22.3,20.5875 22.1625,20.5625 22.0375,20.5625 C21.8375,20.5625 21.6375,20.6375 21.4875,20.7875 L20.8125,21.4625 C20.5625,21.7125 20.5125,22.1 20.6875,22.4125 L21.4375,23.7 C21.1625,24.175 20.95,24.7 20.8,25.2375 L19.3625,25.625 C18.9875,25.725 18.75,26.0375 18.75,26.3875 L18.75,27.35 C18.75,27.7 18.9875,28.0125 19.3375,28.1125 L20.775,28.5 C20.925,29.05 21.1375,29.5625 21.4125,30.05 L20.6625,31.3375 C20.4875,31.65 20.5375,32.0375 20.7875,32.2875 L21.4625,32.9625 C21.6125,33.1125 21.8125,33.1875 22.0125,33.1875 C22.15,33.1875 22.2875,33.15 22.4,33.0875 L23.6875,32.3375 C24.1625,32.6125 24.6875,32.8375 25.2375,32.975 L25.625,34.4125 C25.7125,34.75 26.025,35 26.3875,35 L27.35,35 C27.7,35 28.0125,34.7625 28.1125,34.4125 L28.5,32.975 C29.05,32.825 29.575,32.6125 30.05,32.3375 L31.3375,33.075 C31.4625,33.15 31.6,33.175 31.725,33.175 C31.925,33.175 32.125,33.1 32.275,32.95 L32.95,32.275 C33.2,32.025 33.25,31.6375 33.075,31.325 L32.3375,30.0375 C32.6125,29.55 32.8375,29.0375 32.975,28.4875 L34.4125,28.1 C34.75,28.0125 35,27.7 35,27.3375 L35,26.375 C35,26.025 34.7625,25.7125 34.4125,25.6125 L32.975,25.225 C32.825,24.675 32.6125,24.15 32.3375,23.675 L33.0875,22.3875 C33.2625,22.075 33.2125,21.6875 32.9625,21.4375 L32.2875,20.7625 C32.1375,20.6125 31.9375,20.5375 31.7375,20.5375 C31.6,20.5375 31.4625,20.575 31.35,20.6375 L30.0625,21.3875 C29.5875,21.1125 29.0625,20.9 28.5125,20.75 L28.125,19.3125 C28.025,18.9875 27.7125,18.75 27.3625,18.75 L27.3625,18.75 Z" id="Shape" fill="#101828" fill-rule="nonzero"></path>
            <path d="M26.875,25 C27.9125,25 28.75,25.85 28.75,26.9 C28.75,27.95 27.9125,28.8 26.875,28.8 C25.8375,28.8 25,27.95 25,26.9 C25,25.85 25.8375,25 26.875,25 L26.875,25 Z M26.875,23.75 C25.15,23.75 23.75,25.1625 23.75,26.9 C23.75,28.6375 25.15,30.05 26.875,30.05 C28.6,30.05 30,28.6375 30,26.9 C30,25.1625 28.6,23.75 26.875,23.75 L26.875,23.75 Z" id="Shape" fill="#101828" fill-rule="nonzero"></path>
            <path d="M17.5,27.425 L17.5,26.3125 C17.5,26.3 17.5125,26.275 17.5125,26.2625 L6.9125,26.2625 L6.9125,13.8 L26.9125,13.8 L26.9125,17.5 L27.4375,17.5 C27.4625,17.5 27.4875,17.5125 27.5125,17.5125 L27.5125,17.5 L28.175,17.5 L28.175,12.5625 L5.675,12.5625 L5.675,26.275 C5.675,26.9625 6.2375,27.525 6.925,27.525 L17.525,27.525 C17.5125,27.4875 17.5,27.4625 17.5,27.425 Z" id="Path" fill="#101828" fill-rule="nonzero"></path>
            <rect id="Rectangle" x="0" y="0" width="40" height="40"></rect>
        </g>
    </g>
</svg>