<?xml version="1.0" encoding="UTF-8"?>
<svg width="80px" height="80px" viewBox="0 0 80 80" version="1.1" xmlns="http://www.w3.org/2000/svg" xmlns:xlink="http://www.w3.org/1999/xlink">
    <!-- Generator: Sketch 56.3 (81716) - https://sketch.com -->
    <title>160-C80px</title>
    <desc>Created with Sketch.</desc>
    <g id="NEW_icons" stroke="none" stroke-width="1" fill="none" fill-rule="evenodd">
        <g id="icons_UD_new-Copy" transform="translate(-1002.000000, -20411.000000)">
            <g id="160-C80px" transform="translate(1002.000000, 20411.000000)">
                <circle id="Oval-Copy-938" fill="#275392" cx="40" cy="40" r="40"></circle>
                <g id="160-B32px-Copy-9" transform="translate(12.000000, 12.000000)">
                    <path d="M28.875,41.125 C28.385,41.125 28,41.51 28,42 C28,42.49 28.385,42.875 28.875,42.875 C29.365,42.875 29.75,42.49 29.75,42 C29.75,41.51 29.365,41.125 28.875,41.125 L28.875,41.125 Z" id="Path" fill="#FFFFFF" fill-rule="nonzero"></path>
                    <path d="M47.1625,22.75 L36.8375,22.75 C35.8225,22.75 35,23.5725 35,24.5875 L35,38.5 L35,40.25 L35,43.6625 C35,44.6775 35.8225,45.5 36.8375,45.5 L47.1625,45.5 C48.1775,45.5 49,44.6775 49,43.6625 L49,40.25 L49,38.5 L49,24.5875 C49,23.5725 48.1775,22.75 47.1625,22.75 Z M47.25,43.6625 C47.25,43.715 47.215,43.75 47.1625,43.75 L36.8375,43.75 C36.785,43.75 36.75,43.715 36.75,43.6625 L36.75,40.25 L47.25,40.25 L47.25,43.6625 Z M36.75,38.5 L36.75,24.5875 C36.75,24.535 36.785,24.5 36.8375,24.5 L47.1625,24.5 C47.215,24.5 47.25,24.535 47.25,24.5875 L47.25,38.5 L36.75,38.5 Z" id="Shape" fill="#FFFFFF" fill-rule="nonzero"></path>
                    <path d="M42,41.125 C41.51,41.125 41.125,41.51 41.125,42 C41.125,42.49 41.51,42.875 42,42.875 C42.49,42.875 42.875,42.49 42.875,42 C42.875,41.51 42.49,41.125 42,41.125 L42,41.125 Z" id="Path" fill="#FFFFFF" fill-rule="nonzero"></path>
                    <path d="M36.6625,17.5 L23.275,17.5 C23.275,17.5 23.275,17.5 23.275,17.5 C23.5725,17.745 23.87,17.99 24.1325,18.2875 C24.2725,18.4275 24.395,18.6025 24.5175,18.7425 C24.6575,18.9175 24.7975,19.0575 24.92,19.25 L24.92,19.25 L36.6625,19.25 C36.715,19.25 36.75,19.285 36.75,19.3375 L36.75,21 L38.5,21 L38.5,19.3375 C38.5,18.3225 37.6775,17.5 36.6625,17.5 Z" id="Path" fill="#FFFFFF" fill-rule="nonzero"></path>
                    <path d="M47.215,12.25 L8.785,12.25 C7.805,12.25 7,13.055 7,14.035 L7,33.25 C7,34.23 7.805,35.035 8.785,35.035 L12.25,35.035 L12.25,33.25 L8.75,33.25 L8.785,14 L47.215,14 L47.25,14.035 L47.2325,21 L48.51,21 C48.685,21 48.825,21.0525 49,21.105 L49,14.035 C49,13.055 48.195,12.25 47.215,12.25 Z" id="Path" fill="#FFFFFF" fill-rule="nonzero"></path>
                    <g id="Group" transform="translate(12.250000, 17.500000)" fill="#FFFFFF" fill-rule="nonzero">
                        <path d="M12.25,6.125 C12.25,2.7475 9.5025,0 6.125,0 C2.7475,0 0,2.7475 0,6.125 C0,7.7875 0.665,9.2925 1.75,10.395 L1.75,22.75 L6.125,20.475 L10.5,22.75 L10.5,10.395 C11.585,9.2925 12.25,7.7875 12.25,6.125 Z M6.125,1.75 C8.54,1.75 10.5,3.71 10.5,6.125 C10.5,8.54 8.54,10.5 6.125,10.5 C3.71,10.5 1.75,8.54 1.75,6.125 C1.75,3.71 3.71,1.75 6.125,1.75 Z M8.75,19.88 L6.93,18.935 L6.125,18.515 L5.32,18.935 L3.5,19.88 L3.5,11.865 C4.235,12.1275 5.0925,12.285 6.09,12.285 C7.1225,12.285 7.9975,12.11 8.75,11.8475 L8.75,19.88 Z" id="Shape"></path>
                        <path d="M6.125,8.7675 C7.5775,8.7675 8.75,7.595 8.75,6.1425 C8.75,4.69 7.5775,3.5 6.125,3.5 C4.6725,3.5 3.5,4.6725 3.5,6.1425 C3.5,7.6125 4.6725,8.7675 6.125,8.7675 Z M6.125,5.25 C6.615,5.25 7,5.6525 7,6.125 C7,6.615 6.5975,7 6.125,7 C5.6525,7 5.25,6.5975 5.25,6.125 C5.25,5.6525 5.635,5.25 6.125,5.25 Z" id="Shape"></path>
                    </g>
                    <g id="Group" transform="translate(19.250000, 38.500000)" fill="#FFFFFF" fill-rule="nonzero">
                        <rect id="Rectangle" x="5.25" y="0" width="8.75" height="1.75"></rect>
                        <path d="M14,6.51 L14,5.25 L1.8375,5.25 C1.785,5.25 1.75,5.215 1.75,5.1625 L1.75,3.1675 L0,2.24 L0,5.1625 C0,6.1775 0.8225,7 1.8375,7 L14.0875,7 C14.07,6.8425 14,6.685 14,6.51 Z" id="Path"></path>
                    </g>
                    <rect id="Rectangle" x="0" y="0" width="56" height="56"></rect>
                </g>
            </g>
        </g>
    </g>
</svg>