<?xml version="1.0" encoding="UTF-8"?>
<svg width="80px" height="80px" viewBox="0 0 80 80" version="1.1" xmlns="http://www.w3.org/2000/svg" xmlns:xlink="http://www.w3.org/1999/xlink">
    <!-- Generator: Sketch 57.1 (83088) - https://sketch.com -->
    <title>067-C80px</title>
    <desc>Created with Sketch.</desc>
    <g id="NEW_icons" stroke="none" stroke-width="1" fill="none" fill-rule="evenodd">
        <g id="icons_UD_new-Copy" transform="translate(-2284.000000, -8766.000000)">
            <g id="067-C80px" transform="translate(2284.000000, 8766.000000)">
                <circle id="Oval-Copy-454" fill="#FF4F12" cx="40" cy="40" r="40"></circle>
                <g id="067-B32px-Copy-8" transform="translate(12.000000, 12.000000)">
                    <path d="M33.25,39.9525 C25.34,37.9225 18.0775,30.52 18.0075,30.45 C17.92,30.3625 9.7475,21.805 8.75,13.3875 C8.75,13.335 8.75,13.2475 8.8025,13.195 L13.3875,8.7675 C13.4225,8.7325 13.4575,8.715 13.51,8.715 C13.545,8.715 13.58,8.75 13.58,8.75 L20.4925,15.89 C20.545,15.9425 20.5275,16.03 20.475,16.1 L17.4125,19.0575 L16.5725,19.88 L17.01,20.965 C17.08,21.14 18.7075,25.1125 21.035,27.51 C23.3625,29.9075 27.2825,31.675 27.4575,31.745 L28.5425,32.2175 L29.3825,31.395 L32.445,28.4375 C32.48,28.4025 32.515,28.385 32.5675,28.385 C32.62,28.385 32.655,28.42 32.655,28.42 L33.25,29.085 L33.25,26.81 C33.0225,26.7225 32.7775,26.67 32.55,26.67 C32.0775,26.67 31.5875,26.845 31.22,27.2125 L28.1575,30.17 C28.1575,30.17 24.4125,28.5075 22.295,26.32 C20.1775,24.1325 18.6375,20.335 18.6375,20.335 L21.7,17.3775 C22.4525,16.6425 22.4875,15.4525 21.7525,14.7 L14.84,7.5425 C14.4725,7.1575 13.9825,6.965 13.4925,6.965 C13.02,6.965 12.53,7.14 12.1625,7.5075 L7.5775,11.935 C7.14,12.3725 6.9475,12.985 7.0175,13.5975 C8.1025,22.7325 16.7475,31.6575 16.7475,31.6575 C16.7475,31.6575 24.5525,39.7075 33.25,41.7375 L33.25,39.9525 Z" id="Path" fill="#FFFFFF" fill-rule="nonzero"></path>
                    <path d="M47.1625,28 C47.215,28 47.25,28.035 47.25,28.0875 L47.25,47.1625 C47.25,47.215 47.215,47.25 47.1625,47.25 L36.8375,47.25 C36.785,47.25 36.75,47.215 36.75,47.1625 L36.75,28.0875 C36.75,28.035 36.785,28 36.8375,28 L47.1625,28 L47.1625,28 Z M47.1625,26.25 L36.8375,26.25 C35.8225,26.25 35,27.0725 35,28.0875 L35,47.1625 C35,48.1775 35.8225,49 36.8375,49 L47.1625,49 C48.1775,49 49,48.1775 49,47.1625 L49,28.0875 C49,27.0725 48.1775,26.25 47.1625,26.25 L47.1625,26.25 Z" id="Shape" fill="#FFFFFF" fill-rule="nonzero"></path>
                    <rect id="Rectangle" fill="#FFFFFF" fill-rule="nonzero" x="35" y="42" width="14" height="1.75"></rect>
                    <circle id="Oval" fill="#FFFFFF" fill-rule="nonzero" cx="42" cy="45.5" r="1"></circle>
                    <rect id="Rectangle" x="0" y="0" width="56" height="56"></rect>
                </g>
            </g>
        </g>
    </g>
</svg>