<?xml version="1.0" encoding="UTF-8"?>
<svg width="56px" height="56px" viewBox="0 0 56 56" version="1.1" xmlns="http://www.w3.org/2000/svg" xmlns:xlink="http://www.w3.org/1999/xlink">
    <!-- Generator: Sketch 57.1 (83088) - https://sketch.com -->
    <title>131-G56px</title>
    <desc>Created with Sketch.</desc>
    <g id="NEW_icons" stroke="none" stroke-width="1" fill="none" fill-rule="evenodd">
        <g id="icons_UD_new-Copy" transform="translate(-1726.000000, -16826.000000)">
            <g id="131-G56px" transform="translate(1726.000000, 16826.000000)">
                <circle id="Oval-Copy" fill="#E3E8EC" cx="28" cy="28" r="28"></circle>
                <g id="131-B32px-Copy-4" transform="translate(8.000000, 8.000000)">
                    <path d="M28.75,22.5 C29.5,22.5 30,23 30,23.75 C30,24.5 29.5,25 28.75,25 C28,25 27.5,24.5 27.5,23.75 C27.5,23 28,22.5 28.75,22.5 L28.75,22.5 Z M28.75,21.25 C27.375,21.25 26.25,22.375 26.25,23.75 C26.25,25.125 27.375,26.25 28.75,26.25 C30.125,26.25 31.25,25.125 31.25,23.75 C31.25,22.375 30.125,21.25 28.75,21.25 L28.75,21.25 Z" id="Shape" fill="#101828" fill-rule="nonzero"></path>
                    <path d="M21.25,15 C22,15 22.5,15.5 22.5,16.25 C22.5,17 22,17.5 21.25,17.5 C20.5,17.5 20,17 20,16.25 C20,15.5 20.5,15 21.25,15 L21.25,15 Z M21.25,13.75 C19.875,13.75 18.75,14.875 18.75,16.25 C18.75,17.625 19.875,18.75 21.25,18.75 C22.625,18.75 23.75,17.625 23.75,16.25 C23.75,14.875 22.625,13.75 21.25,13.75 L21.25,13.75 Z" id="Shape" fill="#101828" fill-rule="nonzero"></path>
                    <polygon id="Rectangle" fill="#101828" fill-rule="nonzero" transform="translate(24.947556, 20.040944) rotate(-45.000000) translate(-24.947556, -20.040944) " points="16.7601348 19.4159497 33.1349777 19.4159497 33.1349777 20.6659378 16.7601348 20.6659378"></polygon>
                    <path d="M33.75,11.25 L33.75,28.75 L10.375,28.75 L6.25,25.625 L6.25,14.375 L10.375,11.25 L33.75,11.25 L33.75,11.25 Z M33.75,10 L10.375,10 C10.125,10 9.875,10.125 9.625,10.25 L5.5,13.375 C5.125,13.625 5,14 5,14.375 L5,25.625 C5,26 5.125,26.375 5.5,26.625 L9.625,29.75 C9.875,29.875 10.125,30 10.375,30 L33.75,30 C34.5,30 35,29.5 35,28.75 L35,11.25 C35,10.5 34.5,10 33.75,10 L33.75,10 Z" id="Shape" fill="#101828" fill-rule="nonzero"></path>
                    <path d="M10.625,19.375 C11,19.375 11.25,19.625 11.25,20 C11.25,20.375 11,20.625 10.625,20.625 C10.25,20.625 10,20.375 10,20 C10,19.625 10.25,19.375 10.625,19.375 L10.625,19.375 Z M10.625,18.125 C9.625,18.125 8.75,19 8.75,20 C8.75,21 9.625,21.875 10.625,21.875 C11.625,21.875 12.5,21 12.5,20 C12.5,19 11.625,18.125 10.625,18.125 L10.625,18.125 Z" id="Shape" fill="#101828" fill-rule="nonzero"></path>
                    <rect id="Rectangle" x="0" y="0" width="40" height="40"></rect>
                </g>
            </g>
        </g>
    </g>
</svg>