<?xml version="1.0" encoding="UTF-8"?>
<svg width="42px" height="42px" viewBox="0 0 42 42" version="1.1" xmlns="http://www.w3.org/2000/svg" xmlns:xlink="http://www.w3.org/1999/xlink">
    <!-- Generator: Sketch 57.1 (83088) - https://sketch.com -->
    <title>083-G40px</title>
    <desc>Created with Sketch.</desc>
    <g id="NEW_icons" stroke="none" stroke-width="1" fill="none" fill-rule="evenodd">
        <g id="icons_UD_new-Copy" transform="translate(-1526.000000, -10807.000000)">
            <g id="083-G40px" transform="translate(1527.000000, 10808.000000)">
                <circle id="Oval-Copy-539" stroke="#E3E8EC" cx="20" cy="20" r="20"></circle>
                <g id="083-B32px-Copy" transform="translate(4.000000, 4.000000)">
                    <path d="M16,15 L16,17 L15,17 L15,15 L16,15 L16,15 Z M16,14 L15,14 C14.45,14 14,14.45 14,15 L14,17 C14,17.55 14.45,18 15,18 L16,18 C16.55,18 17,17.55 17,17 L17,15 C17,14.45 16.55,14 16,14 L16,14 Z" id="Shape" fill="#101828" fill-rule="nonzero"></path>
                    <path d="M19.75,13.54 L19.75,13.54 C19.99,14.66 20.18,16.43 19.75,18.45 L16.97,16.76 L16.97,15.22 L19.75,13.54 C19.74,13.54 19.74,13.54 19.75,13.54 L19.75,13.54 Z M19.75,12.54 C19.57,12.54 19.39,12.59 19.22,12.69 L15.98,14.66 L15.98,17.33 L19.24,19.31 C19.4,19.41 19.58,19.46 19.76,19.46 C20.2,19.46 20.63,19.17 20.73,18.69 C21.21,16.47 21,14.55 20.75,13.34 C20.63,12.85 20.2,12.54 19.75,12.54 L19.75,12.54 Z" id="Shape" fill="#101828" fill-rule="nonzero"></path>
                    <path d="M11.25,12.54 L11.25,13.54 L14,15.23 L14,16.78 L11.26,18.48 C10.82,16.44 11.01,14.67 11.24,13.54 C11.24,13.54 11.24,13.54 11.25,13.54 L11.25,12.54 L11.25,12.54 Z M11.25,12.54 C10.8,12.54 10.37,12.85 10.27,13.34 C10.02,14.55 9.81,16.47 10.29,18.69 C10.39,19.16 10.81,19.46 11.25,19.46 C11.42,19.46 11.6,19.41 11.76,19.31 L15,17.33 L15,14.66 L11.77,12.69 C11.61,12.59 11.42,12.54 11.25,12.54 L11.25,12.54 Z" id="Shape" fill="#101828" fill-rule="nonzero"></path>
                    <polygon id="Path" fill="#101828" fill-rule="nonzero" points="15 15.5 13 15.5 13 16.5 15 16.5"></polygon>
                    <polygon id="Path" fill="#101828" fill-rule="nonzero" points="18 15.5 16 15.5 16 16.5 18 16.5"></polygon>
                    <path d="M10,15 L10,17 L8,17 L8,15 L10,15 L10,15 Z M10,14 L8,14 C7.45,14 7,14.45 7,15 L7,17 C7,17.55 7.45,18 8,18 L10,18 C10.55,18 11,17.55 11,17 L11,15 C11,14.45 10.55,14 10,14 L10,14 Z" id="Shape" fill="#101828" fill-rule="nonzero"></path>
                    <path d="M23,15 L23,17 L21,17 L21,15 L23,15 L23,15 Z M23,14 L21,14 C20.45,14 20,14.45 20,15 L20,17 C20,17.55 20.45,18 21,18 L23,18 C23.55,18 24,17.55 24,17 L24,15 C24,14.45 23.55,14 23,14 L23,14 Z" id="Shape" fill="#101828" fill-rule="nonzero"></path>
                    <g id="Group" transform="translate(8.000000, 4.000000)" fill="#101828" fill-rule="nonzero">
                        <path d="M14,22.7 C14,22.88 13.88,23 13.78,23 L1.3,23 C1.14,23 1,22.82 1,22.61 L1,15 L0,15 L0,22.61 C0,23.38 0.58,24 1.3,24 L13.78,24 C14.45,24 15,23.42 15,22.7 L15,15 L14,15 L14,22.7 Z" id="Path"></path>
                        <path d="M13.77,0 L4.17,0 L0,4.44 L0,9 L1,9 L1,4.84 L4.6,1 L13.77,1 C13.88,1 14,1.13 14,1.31 L14,9 L15,9 L15,1.31 C15,0.59 14.45,0 13.77,0 Z" id="Path"></path>
                    </g>
                    <rect id="Rectangle" x="0" y="0" width="32" height="32"></rect>
                </g>
            </g>
        </g>
    </g>
</svg>