<?xml version="1.0" encoding="UTF-8"?>
<svg width="42px" height="42px" viewBox="0 0 42 42" version="1.1" xmlns="http://www.w3.org/2000/svg" xmlns:xlink="http://www.w3.org/1999/xlink">
    <!-- Generator: Sketch 57.1 (83088) - https://sketch.com -->
    <title>157-G40px</title>
    <desc>Created with Sketch.</desc>
    <g id="NEW_icons" stroke="none" stroke-width="1" fill="none" fill-rule="evenodd">
        <g id="icons_UD_new-Copy" transform="translate(-1526.000000, -20096.000000)">
            <g id="157-G40px" transform="translate(1527.000000, 20097.000000)">
                <circle id="Oval-Copy-1039" stroke="#E3E8EC" cx="20" cy="20" r="20"></circle>
                <g id="157-B32px-Copy" transform="translate(4.000000, 4.000000)">
                    <path d="M20.48,18.03 L25.15,25.03 L6.87,25.03 L11.54,18.03 L20.48,18.03 L20.48,18.03 Z M21.01,17.03 L11,17.03 L5,26.03 L27.01,26.03 L21.01,17.03 L21.01,17.03 Z" id="Shape" fill="#101828" fill-rule="nonzero"></path>
                    <path d="M9.5,8.03 C8.95,8.03 8.5,8.48 8.5,9.03 C8.5,9.58 8.95,10.03 9.5,10.03 C10.05,10.03 10.5,9.58 10.5,9.03 C10.5,8.48 10.06,8.03 9.5,8.03 L9.5,8.03 Z" id="Path" fill="#101828" fill-rule="nonzero"></path>
                    <polygon id="Path" fill="#101828" fill-rule="nonzero" points="10 9.03 9 9.03 9 17.03 10 17.03"></polygon>
                    <path d="M5,14.03 C4.45,14.03 4,14.48 4,15.03 C4,15.58 4.45,16.03 5,16.03 C5.55,16.03 6,15.58 6,15.03 C6,14.48 5.55,14.03 5,14.03 L5,14.03 Z" id="Path" fill="#101828" fill-rule="nonzero"></path>
                    <path d="M22.51,8.03 C21.96,8.03 21.51,8.48 21.51,9.03 C21.51,9.58 21.96,10.03 22.51,10.03 C23.06,10.03 23.51,9.58 23.51,9.03 C23.51,8.48 23.06,8.03 22.51,8.03 L22.51,8.03 Z" id="Path" fill="#101828" fill-rule="nonzero"></path>
                    <polygon id="Path" fill="#101828" fill-rule="nonzero" points="23.01 9.03 22.01 9.03 22.01 17.03 23.01 17.03"></polygon>
                    <path d="M27.01,14.03 C26.46,14.03 26.01,14.48 26.01,15.03 C26.01,15.58 26.46,16.03 27.01,16.03 C27.56,16.03 28.01,15.58 28.01,15.03 C28.02,14.48 27.57,14.03 27.01,14.03 L27.01,14.03 Z" id="Path" fill="#101828" fill-rule="nonzero"></path>
                    <polygon id="Path" fill="#101828" fill-rule="nonzero" points="27.52 15.03 26.51 15.03 26.51 23.03 27.52 23.03"></polygon>
                    <polygon id="Path" fill="#101828" fill-rule="nonzero" points="5.5 15.03 4.5 15.03 4.5 23.03 5.5 23.03"></polygon>
                    <path d="M16.01,9.57 L16.35,10.26 L16.58,10.73 L17.1,10.81 L17.86,10.92 L17.31,11.45 L16.93,11.82 L17.02,12.34 L17.15,13.1 L16.47,12.74 L16,12.5 L15.53,12.74 L14.85,13.1 L14.98,12.34 L15.07,11.82 L14.69,11.45 L14.14,10.92 L14.9,10.81 L15.42,10.73 L15.65,10.26 L16.01,9.57 L16.01,9.57 Z M16.01,7.32 L14.77,9.82 L12,10.22 L14,12.17 L13.53,14.92 L16,13.62 L18.47,14.92 L18,12.17 L20,10.22 L17.23,9.82 L16.01,7.32 L16.01,7.32 Z" id="Shape" fill="#101828" fill-rule="nonzero"></path>
                    <path d="M25.91,17.45 C25.85,17.45 25.79,17.45 25.72,17.44 C23.76,17.15 22.39,11.78 22.02,10.15 L23,9.92 C23.69,12.96 24.98,16.31 25.87,16.44 C26.05,16.47 26.32,16.22 26.58,15.76 L27.45,16.25 C27,17.05 26.48,17.45 25.91,17.45 Z" id="Path" fill="#101828" fill-rule="nonzero"></path>
                    <path d="M6.11,17.45 C5.53,17.45 5.02,17.05 4.57,16.25 L5.44,15.76 C5.7,16.22 5.98,16.47 6.15,16.44 C7.04,16.31 8.33,12.95 9.02,9.92 L9.99,10.14 C9.62,11.78 8.26,17.14 6.29,17.43 C6.23,17.45 6.17,17.45 6.11,17.45 Z" id="Path" fill="#101828" fill-rule="nonzero"></path>
                    <rect id="Rectangle" x="0" y="0" width="32" height="32"></rect>
                </g>
            </g>
        </g>
    </g>
</svg>