<?xml version="1.0" encoding="UTF-8"?>
<svg width="56px" height="56px" viewBox="0 0 56 56" version="1.1" xmlns="http://www.w3.org/2000/svg" xmlns:xlink="http://www.w3.org/1999/xlink">
    <!-- Generator: Sketch 57.1 (83088) - https://sketch.com -->
    <title>023-B56px</title>
    <desc>Created with Sketch.</desc>
    <g id="023-B56px" stroke="none" stroke-width="1" fill="none" fill-rule="evenodd">
        <g>
            <path d="M34.965,40.985 C34.965,39.4275 33.845,38.43 32.1125,38.43 C30.205,38.43 29.19,39.795 29.19,41.0725 C29.19,41.3525 29.225,41.5975 29.2775,41.86 L29.295,42 L31.0975,41.86 L31.0625,41.685 C31.0275,41.51 31.01,41.37 31.01,41.1425 C31.01,40.5125 31.43,40.1275 32.1125,40.1275 C32.76,40.1275 33.18,40.53 33.18,41.16 C33.18,41.6675 32.97,42.0525 32.2875,42.7525 L29.19,45.9025 L29.19,47.25 L34.965,47.25 L34.965,45.4825 L31.99,45.4825 L33.53,43.925 C34.615,42.8225 34.965,42.105 34.965,40.985 Z" id="Path" fill="#101828" fill-rule="nonzero"></path>
            <path d="M39.2875,38.5 C37.3625,38.5 35.7875,40.075 35.7875,42 L35.7875,43.75 C35.7875,45.675 37.3625,47.25 39.2875,47.25 C41.2125,47.25 42.7875,45.675 42.7875,43.75 L42.7875,42 C42.7875,40.075 41.23,38.5 39.2875,38.5 Z M41.0375,43.75 C41.0375,44.7125 40.25,45.5 39.2875,45.5 C38.325,45.5 37.5375,44.7125 37.5375,43.75 L37.5375,42 C37.5375,41.0375 38.325,40.25 39.2875,40.25 C40.25,40.25 41.0375,41.0375 41.0375,42 L41.0375,43.75 Z" id="Shape" fill="#101828" fill-rule="nonzero"></path>
            <polygon id="Path" fill="#101828" fill-rule="nonzero" points="47.2325 42 47.2325 40.25 45.4825 40.25 45.4825 42 43.7325 42 43.7325 43.75 45.4825 43.75 45.4825 45.5 47.2325 45.5 47.2325 43.75 48.9825 43.75 48.9825 42"></polygon>
            <path d="M27.405,43.575 C27.02,43.6275 26.635,43.68 26.25,43.715 L26.25,43.6625 L26.25,35.735 L32.9175,35.735 L34.7725,35.735 L39.5675,35.735 C39.34,36.1025 39.0775,36.4525 38.8325,36.8025 C38.99,36.785 39.165,36.75 39.3225,36.75 C39.865,36.75 40.3725,36.855 40.845,36.995 C42.6825,34.1425 43.75,30.765 43.75,27.125 C43.75,16.975 35.525,8.75 25.375,8.75 C25.375,8.75 25.3575,8.75 25.3575,8.75 C25.3575,8.75 25.3575,8.75 25.34,8.75 C25.3225,8.75 25.3225,8.75 25.305,8.75 C15.19,8.785 7,16.9925 7,27.125 C7,37.2575 15.19,45.465 25.305,45.5 C25.3225,45.5 25.3225,45.5 25.34,45.5 C25.34,45.5 25.34,45.5 25.3575,45.5 C25.3575,45.5 25.375,45.5 25.375,45.5 C26.0575,45.5 26.74,45.4475 27.405,45.3775 L27.405,43.575 Z M40.495,33.985 L35.2275,33.985 C35.665,32.13 35.91,30.1 35.98,28 L41.9475,28 C41.8425,30.1175 41.335,32.1475 40.495,33.985 Z M41.9475,26.25 L35.98,26.25 C35.9275,24.15 35.665,22.12 35.2275,20.265 L40.495,20.265 C41.335,22.1025 41.8425,24.1325 41.9475,26.25 Z M39.5675,18.515 L34.7725,18.515 C33.88,15.61 32.5325,13.1775 30.905,11.4625 C34.545,12.7575 37.59,15.26 39.5675,18.515 Z M26.25,10.5875 C29.0325,11.13 31.4825,14.21 32.9175,18.515 L26.25,18.515 L26.25,10.5875 Z M26.25,20.265 L33.425,20.265 C33.8975,22.12 34.1775,24.1325 34.23,26.25 L26.25,26.25 L26.25,20.265 Z M26.25,28 L34.23,28 C34.16,30.1175 33.8975,32.13 33.425,33.985 L26.25,33.985 L26.25,28 Z M19.7575,11.4975 C18.1475,13.2125 16.8175,15.6275 15.925,18.515 L11.1825,18.515 C13.1425,15.295 16.1525,12.7925 19.7575,11.4975 Z M10.255,20.265 L15.47,20.265 C15.015,22.12 14.77,24.15 14.7,26.25 L8.8025,26.25 C8.9075,24.1325 9.415,22.1025 10.255,20.265 Z M8.8025,28 L14.7,28 C14.7525,30.1 15.015,32.13 15.4525,33.985 L10.255,33.985 C9.415,32.1475 8.9075,30.1175 8.8025,28 Z M11.1825,35.735 L15.925,35.735 C16.8175,38.6225 18.1475,41.0375 19.7575,42.7525 C16.1525,41.4575 13.1425,38.955 11.1825,35.735 Z M24.5,43.6625 C21.6825,43.1375 19.215,40.0575 17.78,35.735 L24.5,35.735 L24.5,43.6625 Z M24.5,33.985 L17.2725,33.985 C16.8,32.13 16.52,30.1175 16.45,28 L24.5,28 L24.5,33.985 Z M24.5,26.25 L16.45,26.25 C16.52,24.1325 16.8,22.12 17.255,20.265 L24.5,20.265 L24.5,26.25 Z M24.5,18.515 L17.78,18.515 C19.2325,14.1925 21.7,11.1125 24.5,10.5875 L24.5,18.515 Z" id="Shape" fill="#101828" fill-rule="nonzero"></path>
            <polygon id="Path" fill="#101828" fill-rule="nonzero" points="28.77 43.785 28.77 43.8725 28.8575 43.785"></polygon>
            <rect id="Rectangle" x="0" y="0" width="56" height="56"></rect>
        </g>
    </g>
</svg>