<?xml version="1.0" encoding="UTF-8"?>
<svg width="42px" height="42px" viewBox="0 0 42 42" version="1.1" xmlns="http://www.w3.org/2000/svg" xmlns:xlink="http://www.w3.org/1999/xlink">
    <!-- Generator: Sketch 57.1 (83088) - https://sketch.com -->
    <title>161-G40px</title>
    <desc>Created with Sketch.</desc>
    <g id="NEW_icons" stroke="none" stroke-width="1" fill="none" fill-rule="evenodd">
        <g id="icons_UD_new-Copy" transform="translate(-1526.000000, -20601.000000)">
            <g id="161-G40px" transform="translate(1527.000000, 20602.000000)">
                <circle id="Oval-Copy-1041" stroke="#E3E8EC" cx="20" cy="20" r="20"></circle>
                <g id="161-B32px-Copy" transform="translate(4.000000, 4.000000)">
                    <path d="M27.01,9 L21.77,9 C21.99,9.31 22.18,9.65 22.35,10 L27.01,10 L27.03,10.02 L27.01,21.02 L5.04,21 L5.06,10 L9.72,10 C9.89,9.65 10.08,9.31 10.3,9 L5.06,9 C4.5,9 4.04,9.46 4.04,10.02 L4.04,21 C4.04,21.56 4.5,22.02 5.06,22.02 L27.02,22.02 C27.58,22.02 28.04,21.56 28.04,21 L28.04,10.02 C28.03,9.45 27.58,9 27.01,9 Z" id="Path" fill="#101828" fill-rule="nonzero"></path>
                    <rect id="Rectangle" fill="#101828" fill-rule="nonzero" x="15.54" y="8" width="1" height="10.37"></rect>
                    <path d="M16.04,8 C18.8,8 21.04,10.24 21.04,13 C21.04,15.76 18.8,18 16.04,18 C13.28,18 11.04,15.76 11.04,13 C11.04,10.24 13.28,8 16.04,8 L16.04,8 Z M16.04,7 C12.73,7 10.04,9.69 10.04,13 C10.04,16.31 12.73,19 16.04,19 C19.35,19 22.04,16.31 22.04,13 C22.04,9.69 19.35,7 16.04,7 L16.04,7 Z" id="Shape" fill="#101828" fill-rule="nonzero"></path>
                    <path d="M16.03,8 C17.2,8 18.51,10.05 18.51,13 C18.51,15.95 17.2,18 16.03,18 C14.86,18 13.55,15.95 13.55,13 C13.55,10.05 14.85,8 16.03,8 L16.03,8 Z M16.03,7 C14.11,7 12.55,9.69 12.55,13 C12.55,16.31 14.11,19 16.03,19 C17.95,19 19.51,16.31 19.51,13 C19.51,9.69 17.95,7 16.03,7 L16.03,7 Z" id="Shape" fill="#101828" fill-rule="nonzero"></path>
                    <rect id="Rectangle" fill="#101828" fill-rule="nonzero" x="10.98" y="15.03" width="10.11" height="1"></rect>
                    <rect id="Rectangle" fill="#101828" fill-rule="nonzero" x="10.98" y="9.97" width="10.11" height="1"></rect>
                    <rect id="Rectangle" fill="#101828" fill-rule="nonzero" x="10.35" y="12.5" width="11.37" height="1"></rect>
                    <path d="M16.02,21.95 C11.71,21.95 8.48,22.61 7.04,22.97 L7.04,24 C8.28,23.68 11.58,22.95 16.02,22.95 C20.5,22.95 23.83,23.69 25.04,24.01 L25.04,22.98 C23.61,22.61 20.36,21.95 16.02,21.95 Z" id="Path" fill="#101828" fill-rule="nonzero"></path>
                    <rect id="Rectangle" x="0" y="0" width="32" height="32"></rect>
                </g>
            </g>
        </g>
    </g>
</svg>