<?xml version="1.0" encoding="UTF-8"?>
<svg width="40px" height="40px" viewBox="0 0 40 40" version="1.1" xmlns="http://www.w3.org/2000/svg" xmlns:xlink="http://www.w3.org/1999/xlink">
    <!-- Generator: Sketch 57.1 (83088) - https://sketch.com -->
    <title>098-B40px</title>
    <desc>Created with Sketch.</desc>
    <g id="098-B40px" stroke="none" stroke-width="1" fill="none" fill-rule="evenodd">
        <g>
            <path d="M28.125,22.5 C31.225,22.5 33.75,25.025 33.75,28.125 C33.75,31.225 31.225,33.75 28.125,33.75 C25.025,33.75 22.5,31.225 22.5,28.125 C22.5,25.025 25.025,22.5 28.125,22.5 L28.125,22.5 Z M28.125,21.25 C24.325,21.25 21.25,24.325 21.25,28.125 C21.25,31.925 24.325,35 28.125,35 C31.925,35 35,31.925 35,28.125 C35,24.325 31.925,21.25 28.125,21.25 L28.125,21.25 Z" id="Shape" fill="#101828" fill-rule="nonzero"></path>
            <path d="M27.5875,25.9625 L26.0625,24.3875 C25.9,24.225 25.6375,24.225 25.475,24.3875 L24.4625,25.3625 C24.3625,25.4625 24.325,25.5875 24.3375,25.725 C24.575,27.7375 26.475,29.7 26.475,29.7 C26.475,29.7 28.3625,31.65 30.3875,31.975 C30.5125,32 30.65,31.95 30.75,31.8625 L31.7625,30.8875 C31.925,30.725 31.9375,30.4625 31.775,30.3 L30.25,28.725 C30.0875,28.5625 29.825,28.5625 29.6625,28.725 L29,29.375 C29,29.375 28.175,29.0125 27.7125,28.525 C27.25,28.0375 26.9125,27.2 26.9125,27.2 L27.5875,26.55 C27.75,26.3875 27.75,26.125 27.5875,25.9625 Z" id="Path" fill="#101828" fill-rule="nonzero"></path>
            <rect id="Rectangle" fill="#101828" fill-rule="nonzero" x="15" y="33.75" width="6.25" height="1.25"></rect>
            <path d="M7.125,23.8625 C7.1125,23.8375 7.1125,23.825 7.1,23.8 C6.975,23.475 6.85,23.15 6.75,22.8125 C6.725,22.725 6.7,22.625 6.675,22.525 C6.6,22.25 6.525,21.9875 6.475,21.7125 C6.4375,21.5125 6.4125,21.3125 6.3875,21.1125 C6.3625,20.925 6.325,20.75 6.3125,20.5625 C6.275,20.175 6.25,19.775 6.25,19.375 C6.25,18.975 6.275,18.575 6.3125,18.175 C6.325,17.9875 6.3625,17.8125 6.3875,17.625 C6.4125,17.425 6.4375,17.225 6.475,17.025 C6.525,16.75 6.6,16.475 6.675,16.2125 C6.7,16.125 6.725,16.025 6.75,15.925 C6.85,15.5875 6.975,15.2625 7.1,14.9375 C7.1125,14.9125 7.1125,14.9 7.125,14.875 C8.9,10.5125 13.175,7.4375 18.175,7.4375 C18.3625,7.4375 18.55,7.4625 18.7375,7.4625 L18.7375,6.2875 L18.7375,5 L17.4875,5 L17.4875,6.2875 C10.5375,6.6125 5,12.3375 5,19.375 C5,26.4125 10.55,32.1375 17.5,32.4625 L17.5,35 L18.75,35 L18.75,32.4625 L18.75,31.275 C18.5625,31.2875 18.375,31.3 18.1875,31.3 C13.175,31.3125 8.9,28.225 7.125,23.8625 Z" id="Path" fill="#101828" fill-rule="nonzero"></path>
            <path d="M20.025,28.5375 C19.6125,28.625 19.1875,28.6875 18.75,28.725 L18.75,24.475 L20.8875,24.475 C21.1125,24.0375 21.3625,23.6125 21.6625,23.225 L18.75,23.225 L18.75,20 L24.2625,20 L26.25,20 L27.4625,20 L28.7125,20 C28.725,19.7875 28.75,19.5875 28.75,19.375 C28.75,13.5125 23.9875,8.75 18.125,8.75 C18.125,8.75 18.1125,8.75 18.1125,8.75 C18.1125,8.75 18.1125,8.75 18.1125,8.75 C18.1,8.75 18.1,8.75 18.0875,8.75 C12.2375,8.775 7.5,13.525 7.5,19.375 C7.5,25.225 12.2375,29.975 18.0875,30 C18.1,30 18.1,30 18.1125,30 C18.1125,30 18.1125,30 18.1125,30 C18.1125,30 18.125,30 18.125,30 C18.825,30 19.5125,29.925 20.175,29.8 C20.0875,29.3875 20.0375,28.9625 20.025,28.5375 Z M27.4625,18.75 L24.25,18.75 C24.2125,17.6125 24.075,16.5375 23.85,15.525 L26.6625,15.525 C27.1125,16.525 27.3875,17.6125 27.4625,18.75 Z M25.975,14.275 L23.5125,14.275 C23.0625,12.85 22.425,11.625 21.65,10.7 C23.4375,11.425 24.95,12.6875 25.975,14.275 Z M18.75,10.1 C20.0875,10.475 21.4,11.975 22.2125,14.275 L18.75,14.275 L18.75,10.1 Z M18.75,15.525 L22.575,15.525 C22.8125,16.5 22.975,17.575 23.0125,18.75 L18.75,18.75 L18.75,15.525 Z M14.55,10.7125 C13.7875,11.6375 13.15,12.8625 12.7,14.275 L10.275,14.275 C11.3,12.7 12.7875,11.45 14.55,10.7125 Z M9.5875,15.525 L12.3625,15.525 C12.1375,16.5375 12,17.6125 11.9625,18.75 L8.7875,18.75 C8.8625,17.6125 9.1375,16.525 9.5875,15.525 Z M8.7875,20 L11.9625,20 C12,21.1375 12.1375,22.2125 12.3625,23.225 L9.5875,23.225 C9.1375,22.225 8.8625,21.1375 8.7875,20 Z M10.2625,24.475 L12.6875,24.475 C13.1375,25.8875 13.775,27.1125 14.5375,28.0375 C12.7875,27.3 11.3,26.05 10.2625,24.475 Z M17.5,28.675 C16.15,28.325 14.825,26.8 14,24.475 L17.5,24.475 L17.5,28.675 Z M17.5,23.225 L13.65,23.225 C13.4125,22.25 13.275,21.175 13.225,20 L17.5,20 L17.5,23.225 Z M17.5,18.75 L13.2125,18.75 C13.25,17.5875 13.4,16.5 13.6375,15.525 L17.5,15.525 L17.5,18.75 Z M17.5,14.275 L14,14.275 C14.8125,11.95 16.1375,10.45 17.5,10.0875 L17.5,14.275 Z" id="Shape" fill="#101828" fill-rule="nonzero"></path>
            <rect id="Rectangle" x="0" y="0" width="40" height="40"></rect>
        </g>
    </g>
</svg>