<?xml version="1.0" encoding="UTF-8"?>
<svg width="40px" height="40px" viewBox="0 0 40 40" version="1.1" xmlns="http://www.w3.org/2000/svg" xmlns:xlink="http://www.w3.org/1999/xlink">
    <!-- Generator: Sketch 57.1 (83088) - https://sketch.com -->
    <title>104-B40px</title>
    <desc>Created with Sketch.</desc>
    <g id="104-B40px" stroke="none" stroke-width="1" fill="none" fill-rule="evenodd">
        <g>
            <path d="M20,8.75 C23.45,8.75 26.25,11.55 26.25,15 C26.25,18.45 23.45,21.25 20,21.25 C16.55,21.25 13.75,18.45 13.75,15 C13.75,11.55 16.55,8.75 20,8.75 L20,8.75 Z M20,7.5 C15.8625,7.5 12.5,10.8625 12.5,15 C12.5,19.1375 15.8625,22.5 20,22.5 C24.1375,22.5 27.5,19.1375 27.5,15 C27.5,10.8625 24.1375,7.5 20,7.5 L20,7.5 Z" id="Shape" fill="#101828" fill-rule="nonzero"></path>
            <path d="M12.4875,12.5 L12.4875,17.5 L11.875,17.5 C11.5125,17.5 11.25,17.275 11.25,17.0875 L11.25,12.925 C11.25,12.725 11.5125,12.5 11.875,12.5 L12.4875,12.5 L12.4875,12.5 Z M13.7375,11.25 L11.875,11.25 C10.8375,11.25 10,12 10,12.925 L10,17.0875 C10,18 10.8375,18.75 11.875,18.75 L13.75,18.75 L13.75,11.25 L13.7375,11.25 Z" id="Shape" fill="#101828" fill-rule="nonzero"></path>
            <path d="M28.125,12.375 L26.875,12.375 L26.875,11.75 C26.875,10.9375 26.525,10.0625 25.825,9.1375 C24.4375,7.3 22.3125,6.25 20,6.25 C17.6875,6.25 15.5625,7.3 14.175,9.1375 C13.475,10.05 13.125,10.9375 13.125,11.75 L13.125,12.375 L11.875,12.375 L11.875,11.75 C11.875,10.6625 12.3125,9.525 13.175,8.3875 C14.8,6.2375 17.2875,5 20,5 C22.7125,5 25.2,6.2375 26.825,8.3875 C27.6875,9.525 28.125,10.6625 28.125,11.75 L28.125,12.375 Z" id="Path" fill="#101828" fill-rule="nonzero"></path>
            <path d="M28.125,12.5 C28.4875,12.5 28.75,12.725 28.75,12.9125 L28.75,17.075 C28.75,17.275 28.475,17.5 28.1125,17.5 L27.5,17.5 L27.5,12.5 L28.125,12.5 L28.125,12.5 Z M28.125,11.25 L26.25,11.25 L26.25,18.75 L28.1125,18.75 C29.15,18.75 30,18 30,17.075 L30,12.9125 C30,12 29.1625,11.25 28.125,11.25 L28.125,11.25 Z" id="Shape" fill="#101828" fill-rule="nonzero"></path>
            <path d="M22.775,27.5 L21.225,27.5 L21.225,26.25 L22.775,26.25 C25.475,26.25 26.875,22.475 26.875,18.75 L28.125,18.75 C28.125,22.9625 26.45,27.5 22.775,27.5 Z" id="Path" fill="#101828" fill-rule="nonzero"></path>
            <path d="M22.3375,25 C22.4,25.1 22.4875,25.325 22.4875,25.625 C22.4875,25.925 22.4,26.1375 22.3375,26.25 L20.15,26.2375 C20.0875,26.1375 20,25.925 20,25.625 C20,25.325 20.0875,25.1125 20.15,25 L22.3375,25 L22.3375,25 Z M22.4875,23.75 L20,23.75 C19.3125,23.75 18.75,24.5875 18.75,25.625 L18.75,25.625 C18.75,26.65 19.3125,27.4875 20,27.5 L22.4875,27.5 C22.4875,27.5 22.4875,27.5 22.4875,27.5 C23.175,27.5 23.7375,26.6625 23.7375,25.625 L23.7375,25.625 C23.7375,24.5875 23.175,23.75 22.4875,23.75 L22.4875,23.75 Z" id="Shape" fill="#101828" fill-rule="nonzero"></path>
            <path d="M30,30 L30,35 L31.25,35 L31.25,30 C31.25,27.675 29.65,25.7375 27.5,25.175 L27.5,26.475 C28.95,27 30,28.375 30,30 Z" id="Path" fill="#101828" fill-rule="nonzero"></path>
            <path d="M15,26.25 L15,32.5 L6.25,32.5 L6.25,26.25 L12.525,26.25 L12.9,26.25 L13.2125,26.0375 L15,24.8375 L15,24.85 L16.25,24.025 L16.25,22.5 L12.5125,25 L6.25,25 C5.5625,25 5,25.5625 5,26.25 L5,32.5125 C5,33.2 5.5625,33.7625 6.25,33.7625 L15,33.7625 C15.6875,33.7625 16.25,33.2 16.25,32.5125 L16.25,26.25 L15,26.25 Z" id="Path" fill="#101828" fill-rule="nonzero"></path>
            <circle id="Oval" fill="#101828" fill-rule="nonzero" cx="8.125" cy="29.375" r="1"></circle>
            <circle id="Oval" fill="#101828" fill-rule="nonzero" cx="10.625" cy="29.375" r="1"></circle>
            <circle id="Oval" fill="#101828" fill-rule="nonzero" cx="13.125" cy="29.375" r="1"></circle>
            <rect id="Rectangle" x="0" y="0" width="40" height="40"></rect>
        </g>
    </g>
</svg>