<?xml version="1.0" encoding="UTF-8"?>
<svg width="40px" height="40px" viewBox="0 0 40 40" version="1.1" xmlns="http://www.w3.org/2000/svg" xmlns:xlink="http://www.w3.org/1999/xlink">
    <!-- Generator: Sketch 57.1 (83088) - https://sketch.com -->
    <title>162-B40px</title>
    <desc>Created with Sketch.</desc>
    <g id="162-B40px" stroke="none" stroke-width="1" fill="none" fill-rule="evenodd">
        <g>
            <path d="M33.75,17.5 L33.75,22.5 L6.25,22.5 L6.25,17.5 L33.75,17.5 L33.75,17.5 Z M33.8125,16.25 L6.1875,16.25 C5.525,16.25 5,16.7875 5,17.4375 L5,22.575 C5,23.225 5.525,23.75 6.1875,23.75 L33.825,23.75 C34.475,23.75 35.0125,23.225 35.0125,22.5625 L35.0125,17.425 C35,16.7875 34.475,16.25 33.8125,16.25 L33.8125,16.25 Z" id="Shape" fill="#101828" fill-rule="nonzero"></path>
            <rect id="Rectangle" fill="#101828" fill-rule="nonzero" x="8.75" y="18.75" width="5" height="2.5"></rect>
            <polygon id="Path" fill="#101828" fill-rule="nonzero" points="31.25 22.5 26.25 22.5 26.25 25 31.25 25"></polygon>
            <polygon id="Path" fill="#101828" fill-rule="nonzero" points="13.75 22.5 8.75 22.5 8.75 25 13.75 25"></polygon>
            <polygon id="Path" fill="#101828" fill-rule="nonzero" points="21.25 20 18.75 20 18.75 21.25 21.25 21.25"></polygon>
            <polygon id="Path" fill="#101828" fill-rule="nonzero" points="26.25 20 23.75 20 23.75 21.25 26.25 21.25"></polygon>
            <polygon id="Path" fill="#101828" fill-rule="nonzero" points="31.25 20 28.75 20 28.75 21.25 31.25 21.25"></polygon>
            <rect id="Rectangle" x="0" y="0" width="40" height="40"></rect>
        </g>
    </g>
</svg>