<?xml version="1.0" encoding="UTF-8"?>
<svg width="42px" height="42px" viewBox="0 0 42 42" version="1.1" xmlns="http://www.w3.org/2000/svg" xmlns:xlink="http://www.w3.org/1999/xlink">
    <!-- Generator: Sketch 57.1 (83088) - https://sketch.com -->
    <title>123-G40px</title>
    <desc>Created with Sketch.</desc>
    <g id="NEW_icons" stroke="none" stroke-width="1" fill="none" fill-rule="evenodd">
        <g id="icons_UD_new-Copy" transform="translate(-1526.000000, -15831.000000)">
            <g id="123-G40px" transform="translate(1527.000000, 15832.000000)">
                <circle id="Oval-Copy-753" stroke="#E3E8EC" cx="20" cy="20" r="20"></circle>
                <g id="123-B32px-Copy" transform="translate(4.000000, 4.000000)">
                    <path d="M16,13 C17.65,13 19,14.35 19,16 C19,17.65 17.65,19 16,19 C14.35,19 13,17.65 13,16 C13,14.35 14.35,13 16,13 L16,13 Z M16,12 C13.79,12 12,13.79 12,16 C12,18.21 13.79,20 16,20 C18.21,20 20,18.21 20,16 C20,13.79 18.21,12 16,12 L16,12 Z" id="Shape" fill="#101828" fill-rule="nonzero"></path>
                    <polygon id="Path" fill="#101828" fill-rule="nonzero" points="27.18 14.54 16 5.3 4.82 14.54 4.18 13.77 16 4.01 27.82 13.77"></polygon>
                    <path d="M10,28 L10,26 C10,24.35 11.35,23 13,23 L19,23 C20.65,23 22,24.35 22,26 L22,28 L23,28 L23,26 C23,23.79 21.21,22 19,22 L13,22 C10.79,22 9,23.79 9,26 L9,28 L10,28 Z" id="Path" fill="#101828" fill-rule="nonzero"></path>
                    <rect id="Rectangle" x="0" y="0" width="32" height="32"></rect>
                </g>
            </g>
        </g>
    </g>
</svg>