<?xml version="1.0" encoding="UTF-8"?>
<svg width="42px" height="42px" viewBox="0 0 42 42" version="1.1" xmlns="http://www.w3.org/2000/svg" xmlns:xlink="http://www.w3.org/1999/xlink">
    <!-- Generator: Sketch 57.1 (83088) - https://sketch.com -->
    <title>053-G40px</title>
    <desc>Created with Sketch.</desc>
    <g id="NEW_icons" stroke="none" stroke-width="1" fill="none" fill-rule="evenodd">
        <g id="icons_UD_new-Copy" transform="translate(-1526.000000, -7043.000000)">
            <g id="053-G40px" transform="translate(1527.000000, 7044.000000)">
                <circle id="Oval-Copy-389" stroke="#E3E8EC" cx="20" cy="20" r="20"></circle>
                <g id="053-B32px-Copy" transform="translate(4.000000, 4.000000)">
                    <rect id="Rectangle" x="0" y="0" width="32" height="32"></rect>
                    <g id="Group" transform="translate(5.000000, 4.000000)" fill="#101828" fill-rule="nonzero">
                        <path d="M10.98,0 L0.59,6 L0.59,18 L10.98,24 L21.37,18 L21.37,6 L10.98,0 Z M20.38,16.85 L16.25,14.29 C16.37,13.88 16.37,13.61 16.37,13.61 L16.37,8.23 L11.48,5.3 L11.48,1.44 L20.37,6.57 L20.37,16.85 L20.38,16.85 Z M6.6,13.62 L6.6,8.8 L10.98,6.17 L15.36,8.8 L15.36,13.62 C15.36,13.64 15.24,16.09 10.98,17.92 C6.75,16.09 6.6,13.7 6.6,13.62 Z M10.48,1.44 L10.48,5.3 L5.6,8.23 L5.6,13.61 C5.6,13.61 5.6,13.86 5.72,14.26 L1.6,16.81 L1.6,6.58 L10.48,1.44 Z M2.07,17.7 L6.1,15.2 C6.7,16.32 8.03,17.82 10.98,19 C13.91,17.83 15.24,16.34 15.85,15.22 L19.87,17.71 L10.98,22.84 L2.07,17.7 Z" id="Shape"></path>
                        <polygon id="Path" points="13.36 10.99 12.62 10.32 10.52 12.61 9.35 11.33 8.61 12 10.52 14.09"></polygon>
                    </g>
                </g>
            </g>
        </g>
    </g>
</svg>