<?xml version="1.0" encoding="UTF-8"?>
<svg width="56px" height="56px" viewBox="0 0 56 56" version="1.1" xmlns="http://www.w3.org/2000/svg" xmlns:xlink="http://www.w3.org/1999/xlink">
    <!-- Generator: Sketch 57.1 (83088) - https://sketch.com -->
    <title>114-G56px</title>
    <desc>Created with Sketch.</desc>
    <g id="NEW_icons" stroke="none" stroke-width="1" fill="none" fill-rule="evenodd">
        <g id="icons_UD_new-Copy" transform="translate(-446.000000, -14814.000000)">
            <g id="114-G56px" transform="translate(446.000000, 14814.000000)">
                <circle id="Oval-Copy-755" fill="#E3E8EC" cx="28" cy="28" r="28"></circle>
                <g id="114-B32px-Copy-3" transform="translate(8.000000, 8.000000)">
                    <path d="M33.75,11.25 L28.7375,11.25 C28.7375,9.5875 28.55,8.1625 28.35,7.0875 C28.2,6.3125 27.5625,5.825 26.875,5.825 C26.6125,5.825 26.3375,5.9 26.0875,6.0625 L22.1875,8.5875 C21.9625,8.325 21.6375,8.1375 21.25,8.1375 L18.75,8.1375 C18.3625,8.1375 18.0375,8.3125 17.8125,8.5875 L13.9125,6.0625 C13.6625,5.9 13.3875,5.825 13.125,5.825 C12.45,5.825 11.8,6.3125 11.65,7.0875 C11.4375,8.1625 11.2625,9.5875 11.2625,11.25 L6.25,11.25 C5.5625,11.25 5,11.8125 5,12.5 L5,16.25 C5,16.9375 5.5625,17.5 6.25,17.5 L6.25,32.5 C6.25,33.1875 6.8125,33.75 7.5,33.75 L17.5,33.75 L22.5,33.75 L32.5,33.75 C33.1875,33.75 33.75,33.1875 33.75,32.5 L33.75,17.5 C34.4375,17.5 35,16.9375 35,16.25 L35,12.5 C35,11.8125 34.4375,11.25 33.75,11.25 Z M17.5,32.5 L7.5,32.5 L7.5,17.5 L17.5,17.5 L17.5,32.5 Z M17.5,12.7625 L17.5,14.25 L17.5,16.25 L14.425,16.25 L12,16.25 L10,16.25 L7.5,16.25 L6.25,16.25 L6.25,12.5 L10,12.5 L11.2875,12.5 L12.5375,12.5 L17.5,12.5 L17.5,12.7625 Z M17.5,11.25 L12.5,11.25 C12.5,9.6875 12.675,8.35 12.875,7.325 C12.9125,7.125 13.05,7.0625 13.125,7.0625 C13.1625,7.0625 13.2,7.075 13.2375,7.1 L17.5,9.875 L17.5,11.25 Z M21.25,13.25 L21.25,14.5 L21.25,16.25 L21.25,17.5 L21.25,18.75 L21.25,32.5 L18.75,32.5 L18.75,18.75 L18.75,17.5 L18.75,16.25 L18.75,14.5 L18.75,13.25 L18.75,12.5 L21.25,12.5 L21.25,13.25 Z M21.25,11.25 L18.75,11.25 L18.75,9.3875 L21.25,9.3875 L21.25,11.25 Z M22.5,9.875 L26.775,7.1 C26.8125,7.075 26.85,7.0625 26.8875,7.0625 C26.95,7.0625 27.0875,7.1125 27.1375,7.325 C27.325,8.35 27.4875,9.6875 27.5,11.25 L22.5,11.25 L22.5,9.875 Z M32.5,32.5 L22.5,32.5 L22.5,17.5 L32.5,17.5 L32.5,32.5 Z M33.75,16.25 L32.5,16.25 L30,16.25 L28,16.25 L25.575,16.25 L22.5,16.25 L22.5,14.25 L22.5,12.7625 L22.5,12.5 L27.4625,12.5 L28.7125,12.5 L30,12.5 L33.75,12.5 L33.75,16.25 Z" id="Shape" fill="#101828" fill-rule="nonzero"></path>
                    <rect id="Rectangle" x="0" y="0" width="40" height="40"></rect>
                </g>
            </g>
        </g>
    </g>
</svg>