<?xml version="1.0" encoding="UTF-8"?>
<svg width="40px" height="40px" viewBox="0 0 40 40" version="1.1" xmlns="http://www.w3.org/2000/svg" xmlns:xlink="http://www.w3.org/1999/xlink">
    <!-- Generator: Sketch 57.1 (83088) - https://sketch.com -->
    <title>166-B40px</title>
    <desc>Created with Sketch.</desc>
    <g id="166-B40px" stroke="none" stroke-width="1" fill="none" fill-rule="evenodd">
        <g>
            <g id="Group-2" transform="translate(5.250000, 3.931819)" fill="#101828" fill-rule="nonzero">
                <g id="Group">
                    <path d="M23.25,18.7875 L23.0875,18.275 C22.975,17.95 22.625,17.825 22.3875,17.725 C22.1375,17.625 22.0625,17.325 22.2125,17.2125 C22.6,16.9625 23.0125,16.75 23.4375,16.575 C24.45,16.0875 23.125,15.9 22.5,15.475 C22.175,15.25 21.9125,14.95 21.7625,14.5875 C21.7625,14.55 21.7625,14.525 21.7625,14.4875 L17.0375,1.0625 L12.5,1.0625 L7.7875,14.3625 L7.7875,14.45 C7.7875,14.45 7.4625,15.175 7.8625,15.4875 C8.2625,15.8 8.8,16.0625 7.8625,16.55 C6.925,17.0375 6.45,17.1875 6.2875,17.2875 C6.125,17.3875 6.0375,17.6375 6.2875,17.6875 C6.5375,17.75 6.55,18.025 6.425,18.35 L6.225,18.85 L4.1375,24.775 L8.6375,24.775 L10.7125,18.85 L10.925,18.375 C11.05,18.05 11.05,17.75 10.775,17.7125 C10.5,17.6625 10.575,17.425 10.775,17.3125 C10.975,17.2 11.3375,17.0625 12.3625,16.575 C13.375,16.0875 12.725,15.75 12.3625,15.5125 C12,15.25 12.2875,14.45 12.2875,14.45 L14.75,7.475 L17.3625,14.8875 L13.525,14.8875 C13.4625,15.1125 13.5375,15.35 13.7125,15.5 C14.0375,15.75 14.65,16.075 13.7125,16.5625 C12.7625,17.05 12.3,17.2 12.125,17.3 C11.95,17.4 11.9,17.65 12.125,17.7 C12.35,17.7625 12.4,18.05 12.275,18.375 C12.15,18.7 12.025,19.1 12.025,19.1 L18.8625,19.1 L20.8625,24.8 L25.3625,24.8 L23.25,18.8375 L23.25,18.7875 Z" id="Path"></path>
                    <polygon id="Path" points="8.6125 26.7 9.5625 26.7 9.5625 31.025 8.6125 31.025"></polygon>
                    <polygon id="Path" points="8.7875 26.7 11.2 26.7 11.2 27.65 8.7875 27.65"></polygon>
                    <polygon id="Path" points="8.7875 28.3875 10.8625 28.3875 10.8625 29.3375 8.7875 29.3375"></polygon>
                    <polygon id="Path" points="8.7875 30.075 11.2 30.075 11.2 31.025 8.7875 31.025"></polygon>
                    <polygon id="Path" points="17.5125 26.7 18.4625 26.7 18.4625 31.025 17.5125 31.025"></polygon>
                    <polygon id="Path" points="15.55 26.7 15.55 26.725 14.2875 28.4625 12.9375 26.7 11.9875 26.7 11.9875 31.025 12.9375 31.025 12.9375 28.35 14.2625 29.9875 15.55 28.3875 15.55 31.025 16.5 31.025 16.5 26.7"></polygon>
                    <polygon id="Path" points="27.5875 26.7 27.5875 26.725 26.325 28.4625 24.975 26.7 24.025 26.7 24.025 31.025 24.975 31.025 24.975 28.35 26.3 29.9875 27.5875 28.3875 27.5875 31.025 28.5375 31.025 28.5375 26.7"></polygon>
                    <path d="M22.825,26.7 L22.075,26.7 L22.075,29.3875 C22.025,29.8125 21.6625,30.15 21.2375,30.15 C20.8,30.15 20.4375,29.825 20.4,29.3875 L20.4,26.7 L19.45,26.7 L19.45,29.3875 C19.5125,30.3375 20.3,31.0625 21.25,31.0625 C22.2,31.0625 22.9875,30.325 23.05,29.3875 L23.05,26.7 L22.825,26.7 Z" id="Path"></path>
                    <path d="M6.9375,31.025 L8.25,31.025 L6.925,29.325 C7.4875,29.0125 7.775,28.3625 7.6125,27.75 C7.45,27.125 6.8875,26.7 6.2375,26.7125 L4.7,26.7125 L4.7,31.0375 L5.6375,31.0375 L5.6375,29.5 L5.775,29.5 L6.9375,31.025 Z M6.75,28.05 C6.75,28.3625 6.4875,28.625 6.175,28.625 L5.65,28.625 L5.65,27.475 L6.175,27.475 C6.4875,27.475 6.75,27.7375 6.75,28.05 Z" id="Shape"></path>
                    <path d="M3.8125,28.6125 C3.8125,28.625 3.8125,28.65 3.8125,28.675 C3.8,28.65 3.8,28.625 3.8125,28.6125 Z" id="Path"></path>
                    <path d="M2.5125,26.7 L0.975,26.7 L0.975,31.025 L1.9125,31.025 L1.9125,29.5 L2.5,29.5 C2.7625,29.5 3.025,29.425 3.2375,29.2875 L3.3125,29.2875 L3.3625,29.2875 L3.5,29.15 L3.6,29.0375 L3.6,29.0375 L3.6625,28.95 L3.7625,28.7875 C3.7625,28.775 3.7625,28.75 3.7625,28.725 C3.825,28.5625 3.8625,28.3875 3.8625,28.2125 C3.9,27.825 3.775,27.45 3.525,27.1625 C3.25,26.8875 2.8875,26.7125 2.5125,26.7 Z M2.4375,28.625 L1.9125,28.625 L1.9125,27.475 L2.4375,27.475 C2.75,27.475 3.0125,27.7375 3.0125,28.05 C3.0125,28.0875 3.0125,28.125 3.0125,28.1625 C2.9625,28.4375 2.725,28.6375 2.4375,28.625 Z" id="Shape"></path>
                </g>
            </g>
            <rect id="Rectangle" x="0" y="0" width="40" height="40"></rect>
        </g>
    </g>
</svg>