<?xml version="1.0" encoding="UTF-8"?>
<svg width="56px" height="56px" viewBox="0 0 56 56" version="1.1" xmlns="http://www.w3.org/2000/svg" xmlns:xlink="http://www.w3.org/1999/xlink">
    <!-- Generator: Sketch 57.1 (83088) - https://sketch.com -->
    <title>077-G56px</title>
    <desc>Created with Sketch.</desc>
    <g id="NEW_icons" stroke="none" stroke-width="1" fill="none" fill-rule="evenodd">
        <g id="icons_UD_new-Copy" transform="translate(-1728.000000, -10040.000000)">
            <g id="077-G56px" transform="translate(1728.000000, 10040.000000)">
                <circle id="Oval-Copy-505" fill="#E3E8EC" cx="28" cy="28" r="28"></circle>
                <g id="077-B32px-Copy-3" transform="translate(8.000000, 8.000000)">
                    <path d="M28.6875,6.25 C28.725,6.25 28.75,6.275 28.75,6.3125 L28.75,33.6875 C28.75,33.725 28.725,33.75 28.6875,33.75 L11.3125,33.75 C11.275,33.75 11.25,33.725 11.25,33.6875 L11.25,6.3125 C11.25,6.275 11.275,6.25 11.3125,6.25 L28.6875,6.25 L28.6875,6.25 Z M28.6875,5 L11.3125,5 C10.5875,5 10,5.5875 10,6.3125 L10,33.6875 C10,34.4125 10.5875,35 11.3125,35 L28.6875,35 C29.4125,35 30,34.4125 30,33.6875 L30,6.3125 C30,5.5875 29.4125,5 28.6875,5 L28.6875,5 Z" id="Shape" fill="#101828" fill-rule="nonzero"></path>
                    <path d="M20,32.5 C20.3375,32.5 20.625,32.225 20.625,31.875 C20.625,31.525 20.3375,31.25 20,31.25 C19.6625,31.25 19.375,31.525 19.375,31.875 C19.375,32.225 19.6625,32.5 20,32.5" id="Path" fill="#101828" fill-rule="nonzero"></path>
                    <rect id="Rectangle" fill="#101828" fill-rule="nonzero" x="10" y="28.75" width="20" height="1.25"></rect>
                    <path d="M25,22.5 L25,25 L22.5,25 L22.5,22.5 L25,22.5 L25,22.5 Z M25,21.25 L22.5,21.25 C21.8125,21.25 21.25,21.8125 21.25,22.5 L21.25,25 C21.25,25.6875 21.8125,26.25 22.5,26.25 L25,26.25 C25.6875,26.25 26.25,25.6875 26.25,25 L26.25,22.5 C26.25,21.8125 25.6875,21.25 25,21.25 L25,21.25 Z" id="Shape" fill="#101828" fill-rule="nonzero"></path>
                    <path d="M17.5,22.5 L17.5,25 L15,25 L15,22.5 L17.5,22.5 L17.5,22.5 Z M17.5,21.25 L15,21.25 C14.3125,21.25 13.75,21.8125 13.75,22.5 L13.75,25 C13.75,25.6875 14.3125,26.25 15,26.25 L17.5,26.25 C18.1875,26.25 18.75,25.6875 18.75,25 L18.75,22.5 C18.75,21.8125 18.1875,21.25 17.5,21.25 L17.5,21.25 Z" id="Shape" fill="#101828" fill-rule="nonzero"></path>
                    <path d="M25,16.25 L25,18.75 L22.5,18.75 L22.5,16.25 L25,16.25 L25,16.25 Z M25,15 L22.5,15 C21.8125,15 21.25,15.5625 21.25,16.25 L21.25,18.75 C21.25,19.4375 21.8125,20 22.5,20 L25,20 C25.6875,20 26.25,19.4375 26.25,18.75 L26.25,16.25 C26.25,15.5625 25.6875,15 25,15 L25,15 Z" id="Shape" fill="#101828" fill-rule="nonzero"></path>
                    <path d="M17.5,16.25 L17.5,18.75 L15,18.75 L15,16.25 L17.5,16.25 L17.5,16.25 Z M17.5,15 L15,15 C14.3125,15 13.75,15.5625 13.75,16.25 L13.75,18.75 C13.75,19.4375 14.3125,20 15,20 L17.5,20 C18.1875,20 18.75,19.4375 18.75,18.75 L18.75,16.25 C18.75,15.5625 18.1875,15 17.5,15 L17.5,15 Z" id="Shape" fill="#101828" fill-rule="nonzero"></path>
                    <path d="M25,10 L25,12.5 L22.5,12.5 L22.5,10 L25,10 L25,10 Z M25,8.75 L22.5,8.75 C21.8125,8.75 21.25,9.3125 21.25,10 L21.25,12.5 C21.25,13.1875 21.8125,13.75 22.5,13.75 L25,13.75 C25.6875,13.75 26.25,13.1875 26.25,12.5 L26.25,10 C26.25,9.3125 25.6875,8.75 25,8.75 L25,8.75 Z" id="Shape" fill="#101828" fill-rule="nonzero"></path>
                    <path d="M17.5,10 L17.5,12.5 L15,12.5 L15,10 L17.5,10 L17.5,10 Z M17.5,8.75 L15,8.75 C14.3125,8.75 13.75,9.3125 13.75,10 L13.75,12.5 C13.75,13.1875 14.3125,13.75 15,13.75 L17.5,13.75 C18.1875,13.75 18.75,13.1875 18.75,12.5 L18.75,10 C18.75,9.3125 18.1875,8.75 17.5,8.75 L17.5,8.75 Z" id="Shape" fill="#101828" fill-rule="nonzero"></path>
                    <rect id="Rectangle" x="0" y="0" width="40" height="40"></rect>
                </g>
            </g>
        </g>
    </g>
</svg>