<?xml version="1.0" encoding="UTF-8"?>
<svg width="56px" height="56px" viewBox="0 0 56 56" version="1.1" xmlns="http://www.w3.org/2000/svg" xmlns:xlink="http://www.w3.org/1999/xlink">
    <!-- Generator: Sketch 57.1 (83088) - https://sketch.com -->
    <title>246-G56px</title>
    <desc>Created with Sketch.</desc>
    <g id="NEW_icons" stroke="none" stroke-width="1" fill="none" fill-rule="evenodd">
        <g id="icons_UD" transform="translate(-1724.000000, -2111.000000)">
            <g id="246-G56px" transform="translate(1724.000000, 2111.000000)">
                <circle id="Oval-Copy-1706" fill="#E3E8EC" cx="28" cy="28" r="28"></circle>
                <g id="246-B32px-Copy-3" transform="translate(8.000000, 8.000000)">
                    <g id="246-B32px">
                        <g id="Group" transform="translate(8.750000, 5.000000)" fill="#101828" fill-rule="nonzero">
                            <path d="M15,22.5 L15,23.75 L7.5,23.75 L7.5,22.5 L15,22.5 L15,22.5 Z M16.25,21.25 L6.25,21.25 L6.25,25 L16.25,25 L16.25,21.25 L16.25,21.25 Z" id="Shape"></path>
                            <path d="M13.75,27.5 L13.75,28.75 L8.75,28.75 L8.75,27.5 L13.75,27.5 L13.75,27.5 Z M13.8,26.25 L8.7,26.25 C8.0375,26.25 7.5,26.7875 7.5,27.45 L7.5,28.8 C7.5,29.4625 8.0375,30 8.7,30 L13.8,30 C14.4625,30 15,29.4625 15,28.8 L15,27.45 C15,26.7875 14.4625,26.25 13.8,26.25 L13.8,26.25 Z" id="Shape"></path>
                            <path d="M15,25 L15,26.25 L7.5,26.25 L7.5,25 L15,25 L15,25 Z M15,23.75 L7.5,23.75 C6.8125,23.75 6.25,24.3125 6.25,25 L6.25,26.25 C6.25,26.9375 6.8125,27.5 7.5,27.5 L15,27.5 C15.6875,27.5 16.25,26.9375 16.25,26.25 L16.25,25 C16.25,24.3125 15.6875,23.75 15,23.75 L15,23.75 Z" id="Shape"></path>
                            <path d="M11.25,1.25 C16.075,1.25 20,5.175 20,10 C20,12.075 19.2625,14.075 17.925,15.65 C17.6,16.0375 17.3,16.3625 17.0375,16.65 C15.7625,18.0375 15.0625,18.9 15,21.25 L7.5,21.25 C7.425,18.8 6.6,17.9 5.4875,16.6625 C5.2,16.35 4.8875,16 4.525,15.575 C2.9,13.625 2.2125,11.1375 2.6125,8.5875 C3.2,4.7875 6.4125,1.725 10.25,1.3 C10.575,1.275 10.9125,1.25 11.25,1.25 L11.25,1.25 Z M11.25,0 C10.875,0 10.4875,0.025 10.1125,0.0625 C5.7125,0.55 2.0625,4.025 1.375,8.4 C0.9,11.45 1.8,14.275 3.5625,16.3875 C5.35,18.5375 6.25,18.8 6.25,21.6 L6.25,22.5 L16.25,22.5 L16.25,21.5875 C16.25,18.825 17.0875,18.5625 18.875,16.4625 C20.3625,14.725 21.25,12.4625 21.25,10 C21.25,4.475 16.775,0 11.25,0 L11.25,0 Z" id="Shape"></path>
                            <path d="M5,10 L3.75,10 C3.75,5.8625 7.1125,2.5 11.25,2.5 L11.25,3.75 C7.8,3.75 5,6.55 5,10 Z" id="Path"></path>
                        </g>
                        <rect id="Rectangle" x="0" y="0" width="40" height="40"></rect>
                    </g>
                </g>
            </g>
        </g>
    </g>
</svg>