<?xml version="1.0" encoding="UTF-8"?>
<svg width="56px" height="56px" viewBox="0 0 56 56" version="1.1" xmlns="http://www.w3.org/2000/svg" xmlns:xlink="http://www.w3.org/1999/xlink">
    <!-- Generator: Sketch 57.1 (83088) - https://sketch.com -->
    <title>124-G56px</title>
    <desc>Created with Sketch.</desc>
    <g id="NEW_icons" stroke="none" stroke-width="1" fill="none" fill-rule="evenodd">
        <g id="icons_UD_new-Copy" transform="translate(-446.000000, -16067.000000)">
            <g id="124-G56px" transform="translate(446.000000, 16067.000000)">
                <g id="Group-5">
                    <circle id="Oval-Copy-844" fill="#E3E8EC" cx="28" cy="28" r="28"></circle>
                    <g id="124-B32px-Copy-3" transform="translate(8.000000, 11.000000)">
                        <rect id="Rectangle" fill="#101828" fill-rule="nonzero" x="13.75" y="18.7625" width="12.5" height="1.25"></rect>
                        <polygon id="Path" fill="#101828" fill-rule="nonzero" points="18.125 22.525 18.125 23.7625 20.4125 23.775 18.125 28.7625 19.6 28.7625 21.8625 23.7125 21.875 22.5125"></polygon>
                        <path d="M23.75,10.025 L22.5,10.025 L20,13.775 L20,14.05 L20,15.0375 L22.5,15.025 L22.5,16.2625 L23.75,16.275 L23.75,15.025 L25,15.0375 L25,13.775 L23.75,13.775 L23.75,10.025 Z M21.4,13.775 L22.5,12.15 L22.5,13.775 L21.4,13.775 L21.4,13.775 Z" id="Shape" fill="#101828" fill-rule="nonzero"></path>
                        <path d="M18.1,13.9125 C18.8875,13.125 19.1375,12.6125 19.1375,11.8125 C19.1375,10.7 18.3375,9.9875 17.1,9.9875 C15.7375,9.9875 15,10.95 15,11.8625 C15,12.0625 15.025,12.2375 15.0625,12.425 L15.0875,12.525 L16.375,12.425 L16.35,12.3 C16.325,12.175 16.3125,12.075 16.3125,11.9125 C16.3125,11.4625 16.6125,11.1875 17.1,11.1875 C17.5625,11.1875 17.8625,11.475 17.8625,11.925 C17.8625,12.2875 17.7125,12.5625 17.225,13.0625 L15,15.325 L15,16.2875 L19.125,16.2875 L19.125,15.025 L17,15.025 L18.1,13.9125 Z" id="Path" fill="#101828" fill-rule="nonzero"></path>
                        <path d="M33.75,6.25 L33.75,8.75 C33.75,12.6625 32.9375,18.4875 31.5875,21.475 C29.725,25.575 26.225,30.975 20,33.65 C13.775,30.975 10.2625,25.575 8.4125,21.475 C7.0625,18.4875 6.25,12.65 6.25,8.75 L6.25,6.25 L33.75,6.25 L33.75,6.25 Z M35,5 L5,5 L5,8.75 C5,12.45 5.75,18.6125 7.275,21.9875 C9.3625,26.6 13.2,32.275 20,35 C26.8,32.275 30.6375,26.6 32.725,21.9875 C34.25,18.6125 35,12.45 35,8.75 L35,5 L35,5 Z" id="Shape" fill="#101828" fill-rule="nonzero"></path>
                        <rect id="Rectangle" x="0" y="0" width="40" height="40"></rect>
                    </g>
                </g>
            </g>
        </g>
    </g>
</svg>