<?xml version="1.0" encoding="UTF-8"?>
<svg width="40px" height="40px" viewBox="0 0 40 40" version="1.1" xmlns="http://www.w3.org/2000/svg" xmlns:xlink="http://www.w3.org/1999/xlink">
    <!-- Generator: Sketch 57.1 (83088) - https://sketch.com -->
    <title>026-B40px</title>
    <desc>Created with Sketch.</desc>
    <g id="026-B40px" stroke="none" stroke-width="1" fill="none" fill-rule="evenodd">
        <g>
            <path d="M33.75,6.25 L33.75,8.75 C33.75,12.6625 32.9375,18.4875 31.5875,21.475 C29.725,25.575 26.225,30.975 20,33.65 C13.775,30.975 10.2625,25.575 8.4125,21.475 C7.0625,18.475 6.25,12.65 6.25,8.75 L6.25,6.25 L33.75,6.25 L33.75,6.25 Z M35,5 L5,5 L5,8.75 C5,12.45 5.75,18.6125 7.275,21.9875 C9.3625,26.6 13.2,32.275 20,35 C26.8,32.275 30.6375,26.6 32.725,21.9875 C34.25,18.6125 35,12.45 35,8.75 L35,5 L35,5 Z" id="Shape" fill="#101828" fill-rule="nonzero"></path>
            <polygon id="Path" fill="#101828" fill-rule="nonzero" points="25 16.25 25 15 23.75 15 23.75 16.25 22.5 16.25 22.5 17.5 23.75 17.5 23.75 18.75 25 18.75 25 17.5 26.25 17.5 26.25 16.25"></polygon>
            <path d="M18.125,13.75 C19.1625,13.75 20,14.5875 20,15.625 L20,18.125 C20,19.1625 19.1625,20 18.125,20 C17.0875,20 16.25,19.1625 16.25,18.125 L16.25,15.625 C16.25,14.5875 17.0875,13.75 18.125,13.75 L18.125,13.75 Z M18.125,12.5 C16.4,12.5 15,13.9 15,15.625 L15,18.125 C15,19.85 16.4,21.25 18.125,21.25 C19.85,21.25 21.25,19.85 21.25,18.125 L21.25,15.625 C21.25,13.9 19.85,12.5 18.125,12.5 L18.125,12.5 Z" id="Shape" fill="#101828" fill-rule="nonzero"></path>
            <rect id="Rectangle" x="0" y="0" width="40" height="40"></rect>
        </g>
    </g>
</svg>