<?xml version="1.0" encoding="UTF-8"?>
<svg width="40px" height="40px" viewBox="0 0 40 40" version="1.1" xmlns="http://www.w3.org/2000/svg" xmlns:xlink="http://www.w3.org/1999/xlink">
    <!-- Generator: Sketch 57.1 (83088) - https://sketch.com -->
    <title>153-B40px</title>
    <desc>Created with Sketch.</desc>
    <g id="153-B40px" stroke="none" stroke-width="1" fill="none" fill-rule="evenodd">
        <g>
            <g id="Group" transform="translate(5.000000, 10.000000)" fill="#101828" fill-rule="nonzero">
                <path d="M7.5,16.2375 L1.25,16.2375 L1.275,2.4875 L28.75,2.4875 L28.75,1.2375 L1.275,1.2375 C0.575,1.2375 0,1.8125 0,2.5125 L0,16.2375 C0,16.9375 0.575,17.5125 1.275,17.5125 L7.5,17.5125 L7.5,16.2375 Z" id="Path"></path>
                <rect id="Rectangle" x="5.9125" y="16.25" width="17.65" height="1.2625"></rect>
            </g>
            <path d="M33.725,11.2375 L32.5,11.2375 L32.5,12.4875 L33.725,12.4875 L33.75,12.5125 L33.725,26.2625 L26.25,26.25 L26.25,27.5125 L33.725,27.5125 C34.425,27.5125 35,26.9375 35,26.2375 L35,12.5125 C35,11.8125 34.425,11.2375 33.725,11.2375 Z" id="Path" fill="#101828" fill-rule="nonzero"></path>
            <path d="M19.975,27.425 C14.5875,27.425 10.55,28.25 8.75,28.7 L8.75,29.9875 C10.3,29.5875 14.425,28.675 19.975,28.675 C25.575,28.675 29.7375,29.6 31.25,30 L31.25,28.7125 C29.4625,28.2625 25.4125,27.425 19.975,27.425 Z" id="Path" fill="#101828" fill-rule="nonzero"></path>
            <polygon id="Path" fill="#101828" fill-rule="nonzero" points="25 18.75 25 17.5 23.75 17.5 23.75 18.75 22.5 18.75 22.5 20 23.75 20 23.75 21.25 25 21.25 25 20 26.25 20 26.25 18.75"></polygon>
            <path d="M18.125,16.25 C19.1625,16.25 20,17.0875 20,18.125 L20,20.625 C20,21.6625 19.1625,22.5 18.125,22.5 C17.0875,22.5 16.25,21.6625 16.25,20.625 L16.25,18.125 C16.25,17.0875 17.0875,16.25 18.125,16.25 L18.125,16.25 Z M18.125,15 C16.4,15 15,16.4 15,18.125 L15,20.625 C15,22.35 16.4,23.75 18.125,23.75 C19.85,23.75 21.25,22.35 21.25,20.625 L21.25,18.125 C21.25,16.4 19.85,15 18.125,15 L18.125,15 Z" id="Shape" fill="#101828" fill-rule="nonzero"></path>
            <rect id="Rectangle" x="0" y="0" width="40" height="40"></rect>
        </g>
    </g>
</svg>