<?xml version="1.0" encoding="UTF-8"?>
<svg width="42px" height="42px" viewBox="0 0 42 42" version="1.1" xmlns="http://www.w3.org/2000/svg" xmlns:xlink="http://www.w3.org/1999/xlink">
    <!-- Generator: Sketch 56.3 (81716) - https://sketch.com -->
    <title>022-G40px</title>
    <desc>Created with Sketch.</desc>
    <g id="NEW_icons" stroke="none" stroke-width="1" fill="none" fill-rule="evenodd">
        <g id="icons_UD_new-Copy" transform="translate(-244.000000, -3125.000000)">
            <g id="022-G40px" transform="translate(245.000000, 3126.000000)">
                <circle id="Oval-Copy-216" stroke="#E3E8EC" cx="20" cy="20" r="20"></circle>
                <g id="022-B32px-Copy-5" transform="translate(4.000000, 4.000000)">
                    <g id="Group" transform="translate(17.000000, 22.000000)" fill="#101828" fill-rule="nonzero">
                        <path d="M5.56,0 C4.46,0 3.56,0.9 3.56,2 L3.56,3 C3.56,4.1 4.46,5 5.56,5 C6.66,5 7.56,4.1 7.56,3 L7.56,2 C7.56,0.9 6.66,0 5.56,0 Z M6.56,3 C6.56,3.55 6.11,4 5.56,4 C5.01,4 4.56,3.55 4.56,3 L4.56,2 C4.56,1.45 5.01,1 5.56,1 C6.11,1 6.56,1.45 6.56,2 L6.56,3 Z" id="Shape"></path>
                        <polygon id="Path" points="10.01 2 10.01 1 9.01 1 9.01 2 8.01 2 8.01 3 9.01 3 9.01 4 10.01 4 10.01 3 11.01 3 11.01 2"></polygon>
                        <path d="M1.5,2 C1.32,2 1.16,2.04 1,2.09 L1,1.59 C1,1.49 1.03,0.99 1.52,0.99 C1.74,0.99 1.82,1.07 1.85,1.09 C1.97,1.21 2,1.45 2,1.52 L3,1.54 C3,1.47 3,0.84 2.57,0.39 C2.38,0.22 2.05,0 1.52,0 C0.42,0 0.01,0.95 0,1.59 L0,3.51 L0,3.51 C0.01,4.33 0.68,5 1.5,5 C2.33,5 3,4.33 3,3.5 C3,2.67 2.33,2 1.5,2 Z M1.5,4 C1.22,4 1,3.78 1,3.5 C1,3.22 1.22,3 1.5,3 C1.78,3 2,3.22 2,3.5 C2,3.78 1.78,4 1.5,4 Z" id="Shape"></path>
                    </g>
                    <path d="M16,25.52 L16,24.85 C15.67,24.9 15.34,24.95 15,24.97 L15,20.42 L22.6,20.42 C22.47,20.63 22.32,20.84 22.17,21.04 C22.3,21.02 22.42,21 22.56,21 C22.84,21 23.11,21.05 23.36,21.12 C24.39,19.49 25,17.57 25,15.5 C25,9.7 20.3,5 14.5,5 C14.5,5 14.49,5 14.49,5 C14.49,5 14.49,5 14.48,5 C14.47,5 14.47,5 14.46,5 C8.68,5.02 4,9.71 4,15.5 C4,21.29 8.68,25.98 14.46,26 C14.47,26 14.47,26 14.48,26 L14.48,26 C14.49,26 14.49,26 14.5,26 C15.02,26 15.54,25.95 16.04,25.87 C16.02,25.76 16,25.64 16,25.52 Z M23.14,19.42 L20.13,19.42 C20.38,18.35 20.52,17.2 20.56,16 L23.97,16 C23.91,17.21 23.62,18.37 23.14,19.42 Z M23.97,15 L20.56,15 C20.53,13.8 20.38,12.64 20.13,11.58 L23.14,11.58 C23.62,12.63 23.91,13.79 23.97,15 Z M22.61,10.58 L19.87,10.58 C19.36,8.92 18.59,7.53 17.66,6.55 C19.74,7.29 21.48,8.72 22.61,10.58 Z M15,6.05 C16.59,6.36 17.99,8.12 18.81,10.58 L15,10.58 L15,6.05 Z M15,11.58 L19.1,11.58 C19.37,12.64 19.53,13.79 19.56,15 L15,15 L15,11.58 Z M15,16 L19.56,16 C19.52,17.21 19.36,18.36 19.1,19.42 L15,19.42 L15,16 Z M11.29,6.57 C10.37,7.55 9.61,8.93 9.1,10.58 L6.39,10.58 C7.51,8.74 9.23,7.31 11.29,6.57 Z M5.86,11.58 L8.84,11.58 C8.58,12.64 8.44,13.8 8.4,15 L5.03,15 C5.09,13.79 5.38,12.63 5.86,11.58 Z M5.03,16 L8.4,16 C8.43,17.21 8.59,18.35 8.84,19.42 L5.89,19.42 C5.41,18.37 5.09,17.22 5.03,16 Z M6.42,20.42 L9.12,20.42 C9.63,22.06 10.37,23.45 11.29,24.43 C9.24,23.69 7.53,22.25 6.42,20.42 Z M14,24.95 C12.39,24.65 10.99,22.89 10.16,20.42 L14,20.42 L14,24.95 Z M14,19.42 L9.87,19.42 C9.6,18.36 9.44,17.21 9.4,16 L14,16 L14,19.42 Z M14,15 L9.4,15 C9.44,13.79 9.6,12.64 9.86,11.58 L14,11.58 L14,15 Z M14,10.58 L10.16,10.58 C10.99,8.11 12.4,6.35 14,6.05 L14,10.58 Z" id="Shape" fill="#101828" fill-rule="nonzero"></path>
                    <rect id="Rectangle" x="0" y="0" width="32" height="32"></rect>
                </g>
            </g>
        </g>
    </g>
</svg>