<?xml version="1.0" encoding="UTF-8"?>
<svg width="80px" height="80px" viewBox="0 0 80 80" version="1.1" xmlns="http://www.w3.org/2000/svg" xmlns:xlink="http://www.w3.org/1999/xlink">
    <!-- Generator: Sketch 57.1 (83088) - https://sketch.com -->
    <title>137-C80px</title>
    <desc>Created with Sketch.</desc>
    <g id="NEW_icons" stroke="none" stroke-width="1" fill="none" fill-rule="evenodd">
        <g id="icons_UD_new-Copy" transform="translate(-2284.000000, -17547.000000)">
            <g id="137-C80px" transform="translate(2284.000000, 17547.000000)">
                <circle id="Oval-Copy-1099" fill="#FF4F12" cx="40" cy="40" r="40"></circle>
                <g id="137-B32px-Copy-9" transform="translate(12.000000, 12.000000)">
                    <path d="M42,24.5 L42,26.25 L42,26.25 L42.0175,47.25 L14,47.2675 L14,28 L14,26.25 L14,24.5 L12.25,24.5 L12.25,47.2675 C12.25,48.23 13.02,49 13.9825,49 L42.035,49 C42.98,49 43.7675,48.23 43.7675,47.2675 L43.7675,24.5 L42,24.5 Z" id="Path" fill="#FFFFFF" fill-rule="nonzero"></path>
                    <polygon id="Path" fill="#FFFFFF" fill-rule="nonzero" points="47.565 25.5325 28 9.3625 8.435 25.5325 7.315 24.1675 28 7.0875 48.685 24.1675"></polygon>
                    <path d="M28,26.25 C32.34,26.25 35.875,29.785 35.875,34.125 C35.875,38.465 32.34,42 28,42 C23.66,42 20.125,38.465 20.125,34.125 C20.125,29.785 23.66,26.25 28,26.25 L28,26.25 Z M28,24.5 C22.68,24.5 18.375,28.805 18.375,34.125 C18.375,39.445 22.68,43.75 28,43.75 C33.32,43.75 37.625,39.445 37.625,34.125 C37.625,28.805 33.32,24.5 28,24.5 L28,24.5 Z" id="Shape" fill="#FFFFFF" fill-rule="nonzero"></path>
                    <path d="M24.5,33.25 C24.01,33.25 23.625,33.635 23.625,34.125 C23.625,34.615 24.01,35 24.5,35 C24.99,35 25.375,34.615 25.375,34.125 C25.375,33.635 24.99,33.25 24.5,33.25 L24.5,33.25 Z" id="Path" fill="#FFFFFF" fill-rule="nonzero"></path>
                    <path d="M31.5,33.25 C31.01,33.25 30.625,33.635 30.625,34.125 C30.625,34.615 31.01,35 31.5,35 C31.99,35 32.375,34.615 32.375,34.125 C32.375,33.635 31.99,33.25 31.5,33.25 L31.5,33.25 Z" id="Path" fill="#FFFFFF" fill-rule="nonzero"></path>
                    <path d="M23.8,38.71 C26.2325,40.7575 29.785,40.7575 32.2,38.71 L31.15,37.31 C29.3475,38.9025 26.635,38.885 24.8325,37.31 L23.8,38.71 Z" id="Path" fill="#FFFFFF" fill-rule="nonzero"></path>
                    <g id="Group" transform="translate(24.500000, 21.000000)" fill="#FFFFFF" fill-rule="nonzero">
                        <path d="M4.375,5.25 L2.625,5.25 C2.625,3.745 3.535,0.875 7,0.875 L7,2.625 C4.5325,2.625 4.375,4.8125 4.375,5.25 Z" id="Path"></path>
                        <path d="M2.625,5.25 C2.625,4.8125 2.4675,2.625 0,2.625 L0,0.875 C3.465,0.875 4.375,3.745 4.375,5.25 L2.625,5.25 L3.5,5.25 L2.625,5.25 Z" id="Path"></path>
                    </g>
                    <polygon id="Path" fill="#FFFFFF" fill-rule="nonzero" points="35.875 31.5 27.6325 31.5 26.25 30.1175 24.8675 31.5 20.125 31.5 20.125 29.75 24.1325 29.75 26.25 27.6325 28.3675 29.75 35.875 29.75"></polygon>
                    <rect id="Rectangle" x="0" y="0" width="56" height="56"></rect>
                </g>
            </g>
        </g>
    </g>
</svg>