<?xml version="1.0" encoding="UTF-8"?>
<svg width="56px" height="56px" viewBox="0 0 56 56" version="1.1" xmlns="http://www.w3.org/2000/svg" xmlns:xlink="http://www.w3.org/1999/xlink">
    <!-- Generator: Sketch 54.1 (76490) - https://sketchapp.com -->
    <title>127-G56px</title>
    <desc>Created with Sketch.</desc>
    <g id="NEW_icons" stroke="none" stroke-width="1" fill="none" fill-rule="evenodd">
        <g id="icons_UD_new-Copy" transform="translate(-1726.000000, -16173.000000)">
            <g id="127-G56px" transform="translate(1726.000000, 16173.000000)">
                <circle id="Oval-Copy" fill="#E3E8EC" cx="28" cy="28" r="28"></circle>
                <g id="127-B32px-Copy-3" transform="translate(8.000000, 8.000000)">
                    <path d="M30.625,5.25 C30.6125,5.2125 30.6125,5.1875 30.5875,5.15 C30.575,5.125 30.55,5.1 30.525,5.0875 C30.5125,5.075 30.5,5.05 30.4875,5.0375 C30.475,5.025 30.45,5.0375 30.4375,5.025 C30.425,5.025 30.4125,5 30.4,5 C30.3875,5 30.375,5.0125 30.3625,5.0125 C30.3125,5.0125 30.275,5.0125 30.2375,5.0375 C30.2125,5.05 30.2,5.0625 30.175,5.075 C30.1625,5.0875 30.1375,5.0875 30.125,5.1 L10.6,26.5375 C10.5875,26.55 10.5875,26.5625 10.5875,26.575 C9.825,27.4625 9.3625,28.6125 9.3625,29.875 C9.3625,32.575 11.4625,34.8125 14.2,35 L30.2375,35 C30.4,35 30.5375,34.8625 30.5375,34.7 L30.625,5.3125 C30.6375,5.2875 30.625,5.275 30.625,5.25 Z M18.3625,26.5125 C17.3875,25.3875 15.975,24.7375 14.4875,24.7375 C13.9125,24.7375 13.375,24.85 12.8625,25.025 L28.8375,7.475 C27.425,10.0875 24.45,15.5125 18.3625,26.5125 Z" id="Shape" fill="#101828" fill-rule="nonzero"></path>
                    <rect id="Rectangle" x="0" y="0" width="40" height="40"></rect>
                </g>
            </g>
        </g>
    </g>
</svg>