<?xml version="1.0" encoding="UTF-8"?>
<svg width="56px" height="56px" viewBox="0 0 56 56" version="1.1" xmlns="http://www.w3.org/2000/svg" xmlns:xlink="http://www.w3.org/1999/xlink">
    <!-- Generator: Sketch 56.3 (81716) - https://sketch.com -->
    <title>043-G56px</title>
    <desc>Created with Sketch.</desc>
    <g id="NEW_icons" stroke="none" stroke-width="1" fill="none" fill-rule="evenodd">
        <g id="icons_UD_new-Copy" transform="translate(-1728.000000, -5620.000000)">
            <g id="043-G56px" transform="translate(1728.000000, 5620.000000)">
                <circle id="Oval-Copy-357" fill="#E3E8EC" cx="28" cy="28" r="28"></circle>
                <g id="043-B32px-Copy-5" transform="translate(8.000000, 8.000000)">
                    <path d="M25,21.25 C24.3125,21.25 23.75,21.8125 23.75,22.5 C23.75,23.1875 24.3125,23.75 25,23.75 C25.6875,23.75 26.25,23.1875 26.25,22.5 C26.25,21.8125 25.6875,21.25 25,21.25 L25,21.25 Z" id="Path" fill="#101828" fill-rule="nonzero"></path>
                    <path d="M30,21.25 C29.3125,21.25 28.75,21.8125 28.75,22.5 C28.75,23.1875 29.3125,23.75 30,23.75 C30.6875,23.75 31.25,23.1875 31.25,22.5 C31.25,21.8125 30.6875,21.25 30,21.25 L30,21.25 Z" id="Path" fill="#101828" fill-rule="nonzero"></path>
                    <path d="M27.5,23.75 C26.8125,23.75 26.25,24.3125 26.25,25 C26.25,25.6875 26.8125,26.25 27.5,26.25 C28.1875,26.25 28.75,25.6875 28.75,25 C28.75,24.3125 28.1875,23.75 27.5,23.75 L27.5,23.75 Z" id="Path" fill="#101828" fill-rule="nonzero"></path>
                    <path d="M27.5,18.75 C26.8125,18.75 26.25,19.3125 26.25,20 C26.25,20.6875 26.8125,21.25 27.5,21.25 C28.1875,21.25 28.75,20.6875 28.75,20 C28.75,19.3125 28.1875,18.75 27.5,18.75 L27.5,18.75 Z" id="Path" fill="#101828" fill-rule="nonzero"></path>
                    <polygon id="Path" fill="#101828" fill-rule="nonzero" points="10 21.25 10 22.5 12.5 22.5 12.5 25 13.75 25 13.75 22.5 16.25 22.5 16.25 21.25 13.75 21.25 13.75 18.75 12.5 18.75 12.5 21.25"></polygon>
                    <path d="M20.625,15 L19.375,15 L19.375,13.75 C19.375,13.6375 19.4125,10.85 22.225,9.4375 C24.35,8.375 24.375,6.275 24.375,6.25 L25.625,6.25 C25.625,6.3625 25.5875,9.15 22.775,10.5625 C20.65,11.625 20.625,13.725 20.625,13.75 L20.625,15 Z" id="Path" fill="#101828" fill-rule="nonzero"></path>
                    <path d="M31.4125,16.25 C31.4375,16.25 31.475,16.275 31.475,16.3125 L33.5,25.6875 C33.8375,27.325 33.875,28.3 33.2375,29.7 C32.5,31.35 30.6375,32.5 28.725,32.5 L28.6375,32.5 C25.9375,32.45 23.7375,30.2125 23.7375,27.5 L23.7375,26.25 L22.4875,26.25 L17.5,26.25 L16.25,26.25 L16.25,27.5 C16.25,30.2125 14.05,32.45 11.35,32.5 L11.2625,32.5 C9.3625,32.5 7.5,31.35 6.75,29.7 C6.1125,28.3 6.15,27.3375 6.4875,25.7 L8.525,16.2875 C8.525,16.275 8.5625,16.25 8.5875,16.25 L17.5,16.25 L22.5,16.25 L31.4125,16.25 L31.4125,16.25 Z M31.4125,15 L22.5,15 L17.5,15 L8.5875,15 C7.9625,15 7.425,15.4375 7.3,16.05 L5.2625,25.4375 C4.9,27.25 4.825,28.4875 5.6125,30.2125 C6.5875,32.35 8.9375,33.75 11.275,33.75 C11.3125,33.75 11.35,33.75 11.3875,33.75 C14.7875,33.6875 17.5125,30.9125 17.5125,27.5 L22.5,27.5 C22.5,30.9125 25.2375,33.6875 28.625,33.75 C28.6625,33.75 28.7,33.75 28.7375,33.75 C31.075,33.75 33.425,32.35 34.3875,30.225 C35.175,28.5 35.1125,27.2625 34.7375,25.45 L32.7,16.0625 C32.575,15.4375 32.0375,15 31.4125,15 L31.4125,15 Z" id="Shape" fill="#101828" fill-rule="nonzero"></path>
                    <rect id="Rectangle" x="0" y="0" width="40" height="40"></rect>
                </g>
            </g>
        </g>
    </g>
</svg>