<?xml version="1.0" encoding="UTF-8"?>
<svg width="42px" height="42px" viewBox="0 0 42 42" version="1.1" xmlns="http://www.w3.org/2000/svg" xmlns:xlink="http://www.w3.org/1999/xlink">
    <!-- Generator: Sketch 57.1 (83088) - https://sketch.com -->
    <title>088-G40px</title>
    <desc>Created with Sketch.</desc>
    <g id="NEW_icons" stroke="none" stroke-width="1" fill="none" fill-rule="evenodd">
        <g id="icons_UD_new-Copy" transform="translate(-244.000000, -11554.000000)">
            <g id="088-G40px" transform="translate(245.000000, 11555.000000)">
                <circle id="Oval-Copy-576" stroke="#E3E8EC" cx="20" cy="20" r="20"></circle>
                <g id="088-B32px-Copy-4" transform="translate(4.000000, 4.000000)">
                    <path d="M22.95,5 C22.98,5 23,5.02 23,5.05 L23,26.95 C23,26.98 22.98,27 22.95,27 L9.05,27 C9.02,27 9,26.98 9,26.95 L9,5.05 C9,5.02 9.02,5 9.05,5 L22.95,5 L22.95,5 Z M22.95,4 L9.05,4 C8.47,4 8,4.47 8,5.05 L8,26.95 C8,27.53 8.47,28 9.05,28 L22.95,28 C23.53,28 24,27.53 24,26.95 L24,5.05 C24,4.47 23.53,4 22.95,4 L22.95,4 Z" id="Shape" fill="#101828" fill-rule="nonzero"></path>
                    <path d="M16,26 C16.27,26 16.5,25.78 16.5,25.5 C16.5,25.22 16.27,25 16,25 C15.73,25 15.5,25.22 15.5,25.5 C15.5,25.78 15.73,26 16,26" id="Path" fill="#101828" fill-rule="nonzero"></path>
                    <rect id="Rectangle" fill="#101828" fill-rule="nonzero" x="8" y="23" width="16" height="1"></rect>
                    <path d="M16,8 C18.19,8 19.98,9.81 20,12.01 C19.98,13.67 17.78,17.07 16,19.39 C14.21,17.07 12,13.68 12,12.11 L12,12.05 C12,9.82 13.79,8 16,8 L16,8 Z M16,7 L16,7 C13.24,7 11,9.27 11,12.06 L11,12.12 C11,14.96 16,21 16,21 C16,21 20.97,15 21,12.02 C20.98,9.24 18.75,7 16,7 L16,7 Z" id="Shape" fill="#101828" fill-rule="nonzero"></path>
                    <path d="M16,10 C17.1,10 18,10.9 18,12 C18,13.1 17.1,14 16,14 C14.9,14 14,13.1 14,12 C14,10.9 14.9,10 16,10 L16,10 Z M16,9 C14.34,9 13,10.34 13,12 C13,13.66 14.34,15 16,15 C17.66,15 19,13.66 19,12 C19,10.34 17.66,9 16,9 L16,9 Z" id="Shape" fill="#101828" fill-rule="nonzero"></path>
                    <rect id="Rectangle" x="0" y="0" width="32" height="32"></rect>
                </g>
            </g>
        </g>
    </g>
</svg>