<?xml version="1.0" encoding="UTF-8"?>
<svg width="56px" height="56px" viewBox="0 0 56 56" version="1.1" xmlns="http://www.w3.org/2000/svg" xmlns:xlink="http://www.w3.org/1999/xlink">
    <!-- Generator: Sketch 57.1 (83088) - https://sketch.com -->
    <title>110-G56px</title>
    <desc>Created with Sketch.</desc>
    <g id="NEW_icons" stroke="none" stroke-width="1" fill="none" fill-rule="evenodd">
        <g id="icons_UD_new-Copy" transform="translate(-446.000000, -14309.000000)">
            <g id="110-G56px" transform="translate(446.000000, 14309.000000)">
                <circle id="Oval-Copy-754" fill="#E3E8EC" cx="28" cy="28" r="28"></circle>
                <g id="110-B32px-Copy-4" transform="translate(8.000000, 8.000000)">
                    <polygon id="Path" fill="#101828" fill-rule="nonzero" points="14.5125 31.25 15.875 30 14.025 30 11.3 32.5 15.5875 32.5 13.8625 34.225 14.75 35.1 18.6 31.25"></polygon>
                    <polygon id="Path" fill="#101828" fill-rule="nonzero" points="26.7 10 28.55 10 31.275 7.4875 27 7.4875 28.725 5.7625 27.8375 4.8875 23.975 8.7375 28.075 8.7375"></polygon>
                    <path d="M29.2,15.8125 C29.35,15.5125 29.45,15.175 29.45,14.8125 L29.45,14.325 C29.45,13.125 28.475,12.15 27.275,12.15 L22.6125,12.15 C22.5375,12.15 22.4625,12.175 22.375,12.1875 L20.375,10.0375 L15.2875,10.0375 L9.125,14.8375 L9.125,23.2125 L12.9125,27.5125 L23.0875,27.5125 L23.8625,27.5125 L26.1875,27.5125 C27.3875,27.5125 28.3625,26.5375 28.3625,25.3375 L28.3625,24.9375 C28.3625,24.5375 28.25,24.175 28.0625,23.85 C28.8625,23.525 29.4375,22.75 29.4375,21.8375 L29.4375,21.4375 C29.4375,21.075 29.3375,20.7375 29.1875,20.4375 C30.1375,20.2 30.850162,19.35 30.850162,18.325 L30.850162,17.925 C30.8625,16.8875 30.15,16.0375 29.2,15.8125 Z M28.2,14.325 L28.2,14.8125 C28.2,15.325 27.7875,15.7375 27.275,15.7375 L25.7125,15.7375 L25.7125,15.7625 L23.5125,13.3875 L27.2875,13.3875 C27.7875,13.4 28.2,13.8125 28.2,14.325 Z M10.3875,22.7375 L10.3875,15.45 L15.725,11.3 L19.8375,11.3 L24.6875,16.5125 L24.6875,17.5625 C24.7125,17.7875 24.7,18.475 24.3375,18.875 C24.1125,19.125 23.7625,19.25 23.2875,19.25 C22.8125,19.25 22.4625,19.125 22.2375,18.875 C21.875,18.475 21.8625,17.7875 21.875,17.5625 L21.9125,17.2625 L19.35,14.625 L18.45,15.5 L19.75,16.8375 C18.55,19.725 14.125,19.975 14.075,19.975 L14.1375,21.225 C14.35,21.2125 18.875,20.9625 20.6375,17.8875 C20.6625,18.3625 20.775,19.1125 21.3125,19.7125 C21.425,19.8375 21.55,19.95 21.6875,20.05 C21.375,20.425 21.175,20.9125 21.175,21.4375 L21.175,21.8375 C21.175,22.3875 21.3875,22.8875 21.7375,23.275 C21.2625,23.675 20.95,24.2625 20.95,24.9375 L20.95,25.3375 C20.95,25.675 21.025,25.9875 21.1625,26.2625 L13.5125,26.2625 L10.3875,22.7375 Z M27.1375,25.325 C27.1375,25.8375 26.725,26.25 26.2125,26.25 L23.8875,26.25 L23.1125,26.25 C22.6,26.25 22.1875,25.8375 22.1875,25.325 L22.1875,24.925 C22.1875,24.4125 22.6,24 23.1125,24 L23.35,24 L26.2125,24 C26.725,24 27.1375,24.4125 27.1375,24.925 L27.1375,25.325 Z M28.2,21.825 C28.2,22.3375 27.7875,22.75 27.275,22.75 L26.2,22.75 L23.3375,22.75 C22.825,22.75 22.4125,22.3375 22.4125,21.825 L22.4125,21.425 C22.4125,20.9125 22.825,20.5 23.3375,20.5 L25.7125,20.5 L27.275,20.5 C27.7875,20.5 28.2,20.9125 28.2,21.425 L28.2,21.825 Z M29.6125,18.3125 C29.6125,18.825 29.2,19.2375 28.6875,19.2375 L27.275,19.2375 L25.7125,19.2375 L25.5875,19.2375 C26.025,18.425 25.95,17.5375 25.9375,17.475 L25.9375,16.975 L27.275,16.975 L28.6875,16.975 C29.2,16.975 29.6125,17.3875 29.6125,17.9 L29.6125,18.3125 Z" id="Shape" fill="#101828" fill-rule="nonzero"></path>
                    <rect id="Rectangle" x="0" y="0" width="40" height="40"></rect>
                </g>
            </g>
        </g>
    </g>
</svg>