<?xml version="1.0" encoding="UTF-8"?>
<svg width="56px" height="56px" viewBox="0 0 56 56" version="1.1" xmlns="http://www.w3.org/2000/svg" xmlns:xlink="http://www.w3.org/1999/xlink">
    <!-- Generator: Sketch 57.1 (83088) - https://sketch.com -->
    <title>062-G56px</title>
    <desc>Created with Sketch.</desc>
    <g id="NEW_icons" stroke="none" stroke-width="1" fill="none" fill-rule="evenodd">
        <g id="icons_UD_new-Copy" transform="translate(-446.000000, -8288.000000)">
            <g id="062-G56px" transform="translate(446.000000, 8288.000000)">
                <circle id="Oval-Copy-442" fill="#E3E8EC" cx="28" cy="28" r="28"></circle>
                <g id="062-B32px-Copy-5" transform="translate(8.000000, 8.000000)">
                    <g id="Group" transform="translate(10.000000, 8.750000)" fill="#101828" fill-rule="nonzero">
                        <path d="M5.7875,22.5 C5.4375,22.5 5.075,22.3625 4.8125,22.1 C2.4125,19.7 1.1,16.475 1.1,13.025 C1.1,5.8375 6.9125,0 14.075,0 C14.8375,0 15.45,0.625 15.45,1.3875 C15.45,2.15 14.8375,2.775 14.075,2.775 C8.4375,2.775 3.8625,7.375 3.8625,13.025 C3.8625,15.7375 4.9,18.2625 6.775,20.15 C7.3125,20.6875 7.3125,21.5625 6.775,22.1125 C6.5,22.3625 6.1375,22.5 5.7875,22.5 Z" id="Path"></path>
                        <path d="M9.8625,17.925 C9.475,17.925 9.0875,17.7625 8.8125,17.4375 C7.7375,16.175 7.1625,14.625 7.1625,12.9375 C7.1625,9.05 10.325,5.875 14.2,5.875 C14.9625,5.875 15.575,6.5 15.575,7.2625 C15.575,8.025 14.9625,8.65 14.2,8.65 C11.8375,8.65 9.925,10.575 9.925,12.9375 C9.925,13.95 10.2625,14.8875 10.9,15.6375 C11.4,16.2125 11.325,17.0875 10.75,17.5875 C10.5,17.825 10.175,17.925 9.8625,17.925 Z" id="Path"></path>
                        <path d="M17.525,18.275 C16.7625,18.275 16.15,17.65 16.15,16.8875 L16.15,14.6 L13.9375,14.6 C13.175,14.6 12.5625,13.975 12.5625,13.2125 C12.5625,12.45 13.175,11.825 13.9375,11.825 L17.525,11.825 C18.2875,11.825 18.9,12.45 18.9,13.2125 L18.9,16.8875 C18.9,17.6625 18.2875,18.275 17.525,18.275 Z" id="Path"></path>
                    </g>
                    <rect id="Rectangle" x="0" y="0" width="40" height="40"></rect>
                </g>
            </g>
        </g>
    </g>
</svg>