<svg width="55" height="55" xmlns="http://www.w3.org/2000/svg">
   <g fill="none" fill-rule="evenodd">
     <path d="M0 27.5C0 42.688 12.313 55 27.5 55 42.688 55 55 42.688 55 27.5 55 12.313 42.688 0 27.5 0 12.313 0 0 12.313 0 27.5" fill="#FFD800"></path>
    <g stroke="#FFF" stroke-linecap="round" stroke-linejoin="round" stroke-width="1.5">
      <path d="M30.329 42.99h.697a2.162 2.162 0 0 0 2.168-2.163v-5.332c0-2.395 1.935-4.172 2.787-5.022 4.335-4.791 3.948-12.132-.852-16.382-4.8-4.25-12.077-3.864-16.413.85-3.948 4.404-3.948 11.05-.077 15.454.851.928 2.942 2.705 2.942 5.1v5.332a2.162 2.162 0 0 0 2.167 2.164h.697v.85c0 .618.465 1.082 1.084 1.082h3.561c.62 0 1.084-.464 1.162-1.082l.077-.85z"></path> <path d="M27.387 36.964V25.14l-3.252-2.55M27.387 25.14l3.484-2.55M21.658 36.964h11.613M24.523 42.99h5.806"></path>
    </g>
   </g>
</svg>
