<?xml version="1.0" encoding="UTF-8"?>
<svg width="57px" height="58px" viewBox="0 0 57 58" version="1.1" xmlns="http://www.w3.org/2000/svg" xmlns:xlink="http://www.w3.org/1999/xlink">
    <!-- Generator: Sketch 49 (51002) - http://www.bohemiancoding.com/sketch -->
    <title>smart_home_door_sensor_3</title>
    <desc>Created with Sketch.</desc>
    <defs></defs>
    <g id="icons" stroke="none" stroke-width="1" fill="none" fill-rule="evenodd" opacity="0.699999988">
        <g transform="translate(-295.000000, -727.000000)" id="Group">
            <g transform="translate(145.000000, 121.000000)">
                <g id="Fill-292" transform="translate(151.000000, 607.000000)">
                    <path d="M55,28.1567 C55,43.3437 42.687,55.6567 27.5,55.6567 C12.312,55.6567 0,43.3437 0,28.1567 C0,12.9687 12.312,0.6567 27.5,0.6567 C42.687,0.6567 55,12.9687 55,28.1567" stroke="#000000" stroke-width="1.5"></path>
                    <path d="M17.124,43.8114 L17.124,14.7584 C17.124,13.9114 17.802,13.2334 18.649,13.2334 L23.646,13.2334" id="Stroke-293" stroke="#000000" stroke-width="1.5" stroke-linejoin="round"></path>
                    <path d="M25.5098,46.6064 L36.6898,44.1494 C37.3678,43.9804 37.8758,43.3874 37.8758,42.6254 L37.8758,14.7584 C37.8758,14.0814 37.4528,13.4874 36.7748,13.3184 L25.5098,10.1844 C24.7468,9.9304 23.9008,10.4384 23.6458,11.2014 C23.6458,11.3704 23.5618,11.4554 23.5618,11.6244 L23.5618,45.1664 C23.5618,46.0134 24.2388,46.6904 25.0018,46.6904 C25.1708,46.6904 25.3408,46.6904 25.5098,46.6064" id="Stroke-294" stroke="#FFFFFF" stroke-width="1.5" stroke-linejoin="round"></path>
                    <path d="M25.5098,46.6064 L36.6898,44.1494 C37.3678,43.9804 37.8758,43.3874 37.8758,42.6254 L37.8758,14.7584 C37.8758,14.0814 37.4528,13.4874 36.7748,13.3184 L25.5098,10.1844 C24.7468,9.9304 23.9008,10.4384 23.6458,11.2014 C23.6458,11.3704 23.5618,11.4554 23.5618,11.6244 L23.5618,45.1664 C23.5618,46.0134 24.2388,46.6904 25.0018,46.6904 C25.1708,46.6904 25.3408,46.6904 25.5098,46.6064" id="Stroke-295" stroke="#FFFFFF" stroke-width="1.5" stroke-linejoin="round"></path>
                    <path d="M25.5098,46.6064 L36.6898,44.1494 C37.3678,43.9804 37.8758,43.3874 37.8758,42.6254 L37.8758,14.7584 C37.8758,14.0814 37.4528,13.4874 36.7748,13.3184 L25.5098,10.1844 C24.7468,9.9304 23.9008,10.4384 23.6458,11.2014 C23.6458,11.3704 23.5618,11.4554 23.5618,11.6244 L23.5618,45.1664 C23.5618,46.0134 24.2388,46.6904 25.0858,46.6904 C25.2558,46.6904 25.3408,46.6904 25.5098,46.6064 Z" id="Stroke-296" stroke="#000000" stroke-width="1.5" stroke-linejoin="round"></path>
                    <path d="M29.6792,28.914 C29.6792,29.632 29.0802,30.231 28.3622,30.231 C27.6442,30.231 27.0452,29.632 27.0452,28.914 C27.0452,28.196 27.6442,27.598 28.3622,27.598 C29.0802,27.717 29.6792,28.316 29.6792,28.914" id="Fill-297" fill="#000000" fill-rule="evenodd"></path>
                </g>
            </g>
        </g>
    </g>
</svg>