<?xml version="1.0" encoding="UTF-8"?>
<svg width="56px" height="56px" viewBox="0 0 56 56" version="1.1" xmlns="http://www.w3.org/2000/svg" xmlns:xlink="http://www.w3.org/1999/xlink">
    <!-- Generator: Sketch 55.2 (78181) - https://sketchapp.com -->
    <title>smart home</title>
    <desc>Created with Sketch.</desc>
    <g id="smart-home" stroke="none" stroke-width="1" fill="none" fill-rule="evenodd">
        <g id="01_Умный-дом-Общая-Copy">
            <rect id="Rectangle" x="0" y="0" width="56" height="56"></rect>
            <path d="M42.84,25.312 L42.84,25.312 L42.85792,46.816 L14.168,46.83392 L14.168,27.104 L14.168,25.312 L14.168,23.52 L12.376,23.52 L12.376,46.83392 C12.376,47.81952 13.16448,48.608 14.15008,48.608 L42.87584,48.608 C43.84352,48.608 44.64992,47.81952 44.64992,46.83392 L44.64992,23.52 L42.85792,23.52 L42.85792,25.312 L42.84,25.312 Z" id="Path" fill="#000000" fill-rule="nonzero"></path>
            <polygon id="Path" fill="#000000" fill-rule="nonzero" points="28.504 5.61792 7.32256 23.10784 8.46944 24.48768 28.504 7.9296 48.53856 24.48768 49.68544 23.10784"></polygon>
            <path d="M32.23136,34.0032 C31.26368,33.05344 29.95552,32.48 28.504,32.48 C27.01664,32.48 25.67264,33.08928 24.70496,34.05696 L25.97728,35.32928 C26.6224,34.66624 27.5184,34.272 28.504,34.272 C29.45376,34.272 30.33184,34.64832 30.95904,35.2576 L32.23136,34.0032 Z" id="Path" fill="#000000" fill-rule="nonzero"></path>
            <path d="M27.23168,36.58368 L28.43232,37.78432 L29.68672,36.52992 C29.38208,36.2432 28.96992,36.064 28.504,36.064 C28.00224,36.064 27.55424,36.26112 27.23168,36.58368 Z" id="Path" fill="#000000" fill-rule="nonzero"></path>
            <path d="M34.776,31.45856 C33.14528,29.8816 30.94112,28.896 28.504,28.896 C26.03104,28.896 23.79104,29.89952 22.16032,31.51232 L23.43264,32.78464 C24.7408,31.4944 26.5328,30.688 28.504,30.688 C30.43936,30.688 32.21344,31.47648 33.50368,32.73088 L34.776,31.45856 Z" id="Path" fill="#000000" fill-rule="nonzero"></path>
        </g>
    </g>
</svg>