<?xml version="1.0" encoding="UTF-8"?>
<svg width="57px" height="58px" viewBox="0 0 57 58" version="1.1" xmlns="http://www.w3.org/2000/svg" xmlns:xlink="http://www.w3.org/1999/xlink">
    <!-- Generator: Sketch 49 (51002) - http://www.bohemiancoding.com/sketch -->
    <title>smart_home_move_sensor_3</title>
    <desc>Created with Sketch.</desc>
    <defs></defs>
    <g id="icons" stroke="none" stroke-width="1" fill="none" fill-rule="evenodd" opacity="0.699999988">
        <g transform="translate(-295.000000, -978.000000)" id="Group">
            <g transform="translate(145.000000, 121.000000)">
                <g id="Clip-304" transform="translate(151.000000, 858.000000)">
                    <path d="M0,28.201 C0,43.389 12.313,55.701 27.5,55.701 C42.688,55.701 55,43.389 55,28.201 C55,13.014 42.688,0.701 27.5,0.701 C12.313,0.701 0,13.014 0,28.201"></path>
                    <path d="M0,28.201 C0,43.389 12.313,55.701 27.5,55.701 C42.688,55.701 55,43.389 55,28.201 C55,13.014 42.688,0.701 27.5,0.701 C12.313,0.701 0,13.014 0,28.201" id="Fill-303" stroke="#000000" stroke-width="1.5"></path>
                    <path d="M36.6909,13.6904 C36.6909,11.4684 34.8899,9.6674 32.6679,9.6674 C30.4449,9.6674 28.6439,11.4684 28.6439,13.6904 C28.6439,15.9134 30.4449,17.7134 32.6679,17.7134 C34.8899,17.7134 36.6909,15.9134 36.6909,13.6904 Z" id="Stroke-310" stroke="#000000" stroke-width="1.5" stroke-linejoin="round"></path>
                    <path d="M14.5893,24.7372 L17.9783,19.2662 C18.5763,18.3012 19.6313,17.7142 20.7663,17.7142 L31.5713,17.7142 C32.3463,17.7142 33.0533,18.1582 33.3903,18.8562 L34.9123,22.0152 C35.4343,23.0982 36.5293,23.7862 37.7313,23.7862 L40.6533,23.7862 C41.8943,23.7862 43.0503,24.4142 43.7263,25.4542 C44.0793,25.9962 43.6903,26.7122 43.0443,26.7122 L35.8313,26.7122 C34.7053,26.7122 33.6673,26.1072 33.1103,25.1292 L31.8933,23.0912 L29.5103,28.0392 L37.5943,45.4402 L34.1973,45.4402 C33.3683,45.4402 32.6153,44.9612 32.2643,44.2112 L26.0783,30.9892 C25.8433,30.4882 25.1103,30.5592 24.9773,31.0952 L23.4413,37.2362 C23.2033,38.1882 22.3483,38.8562 21.3673,38.8562 L11.2143,38.8562 C10.5693,38.8562 10.1803,38.1432 10.5293,37.6012 L11.1273,36.6712 C11.8013,35.6222 12.9633,34.9882 14.2103,34.9882 L17.8803,34.9882 C19.0403,34.9882 19.9883,34.0642 20.0183,32.9052 L20.0603,31.2892 C20.0933,30.0172 20.4743,28.7812 21.1623,27.7122 L25.6703,20.7142 L22.9313,20.7142 C21.8123,20.7142 20.7703,21.2842 20.1673,22.2272 L18.8503,24.2892 C18.1773,25.3422 17.0123,25.9802 15.7613,25.9802 L15.2813,25.9802 C14.6433,25.9802 14.2533,25.2802 14.5893,24.7372 Z" id="Stroke-312" stroke="#000000" stroke-width="1.5" stroke-linejoin="round"></path>
                </g>
            </g>
        </g>
    </g>
</svg>