<?xml version="1.0" encoding="UTF-8"?>
<svg width="57px" height="58px" viewBox="0 0 57 58" version="1.1" xmlns="http://www.w3.org/2000/svg" xmlns:xlink="http://www.w3.org/1999/xlink">
    <!-- Generator: Sketch 49 (51002) - http://www.bohemiancoding.com/sketch -->
    <title>smart_home_flame_sensor_3</title>
    <desc>Created with Sketch.</desc>
    <defs></defs>
    <g id="icons" stroke="none" stroke-width="1" fill="none" fill-rule="evenodd" opacity="0.699999988">
        <g transform="translate(-296.000000, -614.000000)" id="Group" stroke="#000000" stroke-width="1.5">
            <g transform="translate(145.000000, 121.000000)">
                <g id="Fill-171" transform="translate(152.000000, 494.000000)">
                    <path d="M55,27.7958 C55,42.9838 42.687,55.2958 27.5,55.2958 C12.312,55.2958 0,42.9838 0,27.7958 C0,12.6078 12.312,0.2958 27.5,0.2958 C42.687,0.2958 55,12.6078 55,27.7958"></path>
                    <path d="M34.1387,20.1484 C38.1287,23.8484 40.3777,27.4764 40.3777,31.4664 C40.3777,36.6174 37.2587,41.3334 32.5427,43.3644 C34.1387,41.4784 37.0407,34.0054 31.8167,28.7814 C30.5837,32.2644 27.8987,40.3174 27.8987,40.3174 C27.8987,40.3174 23.8357,37.6334 23.0377,36.9074 C22.3127,38.6484 22.7477,42.3494 23.3277,43.6544 C18.2497,41.7684 14.6217,36.7624 14.6217,31.5394 C14.6217,28.2014 15.4207,24.9364 16.9437,21.9614 C17.2337,25.5174 19.7737,28.4194 23.2557,29.1444 C19.4827,25.0824 19.7737,17.8994 24.1987,12.9654 C25.8677,11.0794 29.0597,9.1204 31.0917,8.6854 C29.4227,12.8204 30.4387,16.7384 34.1387,20.1484 Z" id="Stroke-291" stroke-linejoin="round"></path>
                </g>
            </g>
        </g>
    </g>
</svg>