<?xml version="1.0" encoding="UTF-8"?>
<svg width="57px" height="57px" viewBox="0 0 57 57" version="1.1" xmlns="http://www.w3.org/2000/svg" xmlns:xlink="http://www.w3.org/1999/xlink">
    <!-- Generator: Sketch 49 (51002) - http://www.bohemiancoding.com/sketch -->
    <title>smart_home_indoor_video_3</title>
    <desc>Created with Sketch.</desc>
    <defs></defs>
    <g id="icons" stroke="none" stroke-width="1" fill="none" fill-rule="evenodd" opacity="0.699999988">
        <g transform="translate(-292.000000, -392.000000)" id="Group">
            <g transform="translate(145.000000, 121.000000)">
                <g id="Fill-170" transform="translate(148.000000, 272.000000)">
                    <path d="M55,27.6113 C55,42.7993 42.687,55.1113 27.5,55.1113 C12.312,55.1113 0,42.7993 0,27.6113 C0,12.4233 12.312,0.1113 27.5,0.1113 C42.687,0.1113 55,12.4233 55,27.6113" stroke="#000000" stroke-width="1.5"></path>
                    <path d="M40.8257,24.8671 C40.8257,32.2621 34.8217,38.1931 27.4997,38.1931 C26.3207,38.1931 25.1787,38.0401 24.0917,37.7531 C23.2117,37.5211 22.3687,37.2021 21.5717,36.8051 C17.1767,34.6171 14.1747,30.0761 14.1747,24.8671 C14.1747,17.4721 20.1047,11.4681 27.4997,11.4681 C34.8947,11.4681 40.8257,17.4721 40.8257,24.8671" id="Stroke-180" stroke="#000000" stroke-width="1.5" stroke-linejoin="round"></path>
                    <path d="M27.5,38.1928 C34.859,38.1928 40.826,32.2268 40.826,24.8668 C40.826,17.5078 34.859,11.5418 27.5,11.5418 C20.141,11.5418 14.174,17.5078 14.174,24.8668 C14.174,29.5638 16.604,33.6928 20.275,36.0668" id="Stroke-181" stroke="#000000" stroke-width="1.5" stroke-linejoin="round"></path>
                    <path d="M34.9682,35.8495 L36.8712,39.8035 C37.1642,40.3155 37.3112,40.9745 37.2382,41.5605 C37.0912,43.2445 35.5532,44.5625 33.8702,44.4155 L21.2762,44.4155 C20.6172,44.4895 20.0312,44.3425 19.4462,43.9765 C17.9822,43.0245 17.5422,41.1945 18.4212,39.7295 L20.2512,36.0695" id="Stroke-182" stroke="#000000" stroke-width="1.5" stroke-linejoin="round"></path>
                    <path d="M33.4306,27.2099 C33.4306,30.5049 30.7946,33.1409 27.4996,33.1409 C24.2046,33.1409 21.5696,30.5049 21.5696,27.2099 C21.5696,23.9159 24.2046,21.2799 27.4996,21.2799 C30.7946,21.2799 33.4306,23.9159 33.4306,27.2099" id="Stroke-183" stroke="#000000" stroke-width="1" stroke-linejoin="round"></path>
                    <path d="M27.7197,17.9115 C27.0607,17.9115 26.5487,17.3985 26.5487,16.7405 C26.5487,16.0805 27.0607,15.5685 27.7197,15.5685 C28.3787,15.5685 28.8907,16.0805 28.8907,16.7405 C28.8907,17.3255 28.3787,17.9115 27.7197,17.9115" id="Fill-184" fill="#000000" fill-rule="evenodd"></path>
                    <path d="M27.5,29.0405 C28.511,29.0405 29.331,28.2215 29.331,27.2095 C29.331,26.1995 28.511,25.3795 27.5,25.3795 C26.489,25.3795 25.669,26.1995 25.669,27.2095 C25.669,28.2215 26.489,29.0405 27.5,29.0405 Z" id="Stroke-185" stroke="#000000" stroke-width="1" stroke-linejoin="round"></path>
                </g>
            </g>
        </g>
    </g>
</svg>