<?xml version="1.0" encoding="UTF-8"?>
<svg width="56px" height="56px" viewBox="0 0 56 56" version="1.1" xmlns="http://www.w3.org/2000/svg" xmlns:xlink="http://www.w3.org/1999/xlink">
    <!-- Generator: Sketch 55.2 (78181) - https://sketchapp.com -->
    <title>smm</title>
    <desc>Created with Sketch.</desc>
    <g id="smm" stroke="none" stroke-width="1" fill="none" fill-rule="evenodd">
        <g id="Group-7">
            <g id="64_Интернет_Мобильная-связь-Возможности_Соц.сети" transform="translate(7.000000, 7.000000)" fill="#000000" fill-rule="nonzero">
                <path d="M21,38.5 C21.4725,38.5 21.875,38.115 21.875,37.625 C21.875,37.135 21.4725,36.75 21,36.75 C20.5275,36.75 20.125,37.135 20.125,37.625 C20.125,38.115 20.5275,38.5 21,38.5" id="Path"></path>
                <rect id="Rectangle" x="7" y="33.25" width="28" height="1.75"></rect>
                <g id="Group" transform="translate(7.000000, 0.000000)">
                    <path d="M26.25,22.6975 L26.25,40.145 C26.25,40.1975 26.215,40.2325 26.1625,40.2325 L1.8375,40.2325 C1.785,40.25 1.75,40.215 1.75,40.1625 L1.75,22.715 C1.47,22.7325 1.1725,22.75 0.875,22.75 C0.5775,22.75 0.28,22.7325 0,22.6975 L0,40.145 C0,41.1775 0.8225,42 1.8375,42 L26.1625,42 C27.1775,42 28,41.1775 28,40.1625 L28,22.715 C27.72,22.7325 27.4225,22.75 27.125,22.75 C26.8275,22.75 26.53,22.7325 26.25,22.6975 Z" id="Path"></path>
                    <path d="M26.1625,0 L1.8375,0 C0.8225,0 0,0.8225 0,1.8375 L0,3.535 C0.28,3.5175 0.5775,3.5 0.875,3.5 C1.1725,3.5 1.47,3.5175 1.75,3.5525 L1.75,1.8375 C1.75,1.785 1.785,1.75 1.8375,1.75 L26.1625,1.75 C26.215,1.75 26.25,1.785 26.25,1.8375 L26.25,3.535 C26.53,3.5175 26.8275,3.5 27.125,3.5 C27.4225,3.5 27.72,3.5175 28,3.5525 L28,1.8375 C28,0.8225 27.1775,0 26.1625,0 Z" id="Path"></path>
                </g>
                <path d="M7.875,7 C11.2525,7 14,9.7475 14,13.125 C14,16.5025 11.2525,19.25 7.875,19.25 C4.4975,19.25 1.75,16.5025 1.75,13.125 C1.75,9.7475 4.4975,7 7.875,7 L7.875,7 Z M7.875,5.25 C3.5175,5.25 0,8.7675 0,13.125 C0,17.4825 3.5175,21 7.875,21 C12.2325,21 15.75,17.4825 15.75,13.125 C15.75,8.7675 12.2325,5.25 7.875,5.25 L7.875,5.25 Z" id="Shape"></path>
                <path d="M34.125,7 C37.5025,7 40.25,9.7475 40.25,13.125 C40.25,16.5025 37.5025,19.25 34.125,19.25 C30.7475,19.25 28,16.5025 28,13.125 C28,9.7475 30.7475,7 34.125,7 L34.125,7 Z M34.125,5.25 C29.7675,5.25 26.25,8.7675 26.25,13.125 C26.25,17.4825 29.7675,21 34.125,21 C38.4825,21 42,17.4825 42,13.125 C42,8.7675 38.4825,5.25 34.125,5.25 L34.125,5.25 Z" id="Shape"></path>
                <path d="M19.915,26.4425 C19.81,26.4425 19.705,26.4425 19.6,26.4425 C19.6,26.4425 19.5825,26.4425 19.5825,26.4425 C19.495,26.4425 19.425,26.425 19.3375,26.425 C19.2325,26.4075 19.1275,26.4075 19.0225,26.3725 C18.865,26.3375 18.7075,26.3025 18.55,26.25 C18.235,26.145 17.9375,26.005 17.6575,25.83 C17.6575,25.83 17.64,25.83 17.64,25.8125 C18.0075,25.8475 18.3575,25.83 18.7075,25.725 C19.0575,25.62 19.3725,25.4625 19.67,25.235 C19.4775,25.235 19.3025,25.1825 19.1275,25.1125 C18.9525,25.025 18.795,24.92 18.6725,24.78 C18.55,24.64 18.445,24.4825 18.3925,24.29 C18.6025,24.325 18.795,24.325 19.005,24.2725 C18.69,24.2025 18.4275,24.045 18.2175,23.7825 C17.9725,23.485 17.9025,23.1175 17.92,22.9075 C18.0075,22.96 18.1125,22.995 18.2175,23.03 C18.3225,23.065 18.4975,23.0825 18.5325,23.0825 C18.235,22.8725 18.0425,22.61 17.9725,22.2425 C17.885,21.8925 17.9375,21.56 18.13,21.245 C18.48,21.665 18.9,22.015 19.39,22.26 C19.88,22.505 20.405,22.645 20.965,22.68 C20.965,22.68 20.965,22.6625 20.965,22.6625 C20.9475,22.5925 20.9475,22.5225 20.93,22.4525 C20.9125,22.3125 20.93,22.1725 20.965,22.0325 C21.035,21.7525 21.175,21.5075 21.4025,21.315 C21.56,21.175 21.7175,21.0875 21.91,21.035 C21.9975,21 22.085,20.9825 22.19,20.9825 C22.2075,20.9825 22.225,20.9825 22.2425,20.9825 C22.295,20.9825 22.33,20.9825 22.3825,20.9825 C22.3825,20.9825 22.4,20.9825 22.4,20.9825 C22.47,20.9825 22.5225,21 22.5925,21 C22.75,21.035 22.9075,21.0875 23.03,21.175 C23.135,21.245 23.2225,21.315 23.31,21.4025 C23.31,21.4025 23.3275,21.42 23.3275,21.42 C23.5025,21.385 23.66,21.3325 23.835,21.2625 C23.9575,21.21 24.0625,21.1575 24.1675,21.0875 C24.1675,21.0875 24.1675,21.0875 24.185,21.0875 C24.08,21.4025 23.87,21.665 23.59,21.84 C23.6425,21.84 23.695,21.8225 23.7475,21.8225 C23.8,21.805 23.8525,21.805 23.905,21.7875 C23.9575,21.77 24.01,21.7525 24.0625,21.7525 C24.115,21.735 24.1675,21.7175 24.22,21.7 C24.2725,21.6825 24.325,21.665 24.3775,21.6475 C24.3775,21.6475 24.3775,21.665 24.3775,21.665 C24.3425,21.7175 24.3075,21.77 24.2725,21.805 C24.15,21.98 23.9925,22.12 23.835,22.26 C23.8,22.295 23.765,22.3125 23.73,22.3475 C23.73,22.3475 23.7125,22.365 23.7125,22.365 C23.7125,22.3825 23.7125,22.3825 23.7125,22.4 C23.7125,22.6275 23.7125,22.8375 23.6775,23.065 C23.66,23.1875 23.6425,23.31 23.6075,23.415 C23.555,23.6075 23.5025,23.8175 23.415,24.01 C23.2925,24.3075 23.1525,24.5875 22.96,24.85 C22.785,25.1125 22.575,25.34 22.33,25.5325 C22.19,25.655 22.05,25.76 21.8925,25.865 C21.63,26.0225 21.35,26.1625 21.07,26.25 C20.9125,26.3025 20.755,26.3375 20.58,26.3725 C20.51,26.39 20.4225,26.39 20.335,26.4075 C20.2825,26.4075 20.2125,26.425 20.16,26.425 C20.055,26.4425 20.0025,26.4425 19.915,26.4425 C19.9325,26.4425 19.915,26.4425 19.915,26.4425 Z" id="Path"></path>
                <path d="M36.4875,12.3375 C36.4175,12.845 36.3475,13.3175 36.295,13.7725 C36.2775,13.895 36.225,13.93 36.1025,13.93 C35.7875,13.93 35.4725,13.93 35.1575,13.93 C34.8775,13.93 34.8775,13.93 34.8775,14.2275 C34.8775,15.0325 34.8775,15.8375 34.8775,16.6425 C34.8775,16.87 34.86,17.0975 34.86,17.3425 C34.86,17.465 34.8075,17.5 34.685,17.5 C34.265,17.5 33.845,17.5 33.4075,17.5 C33.25,17.5 33.2325,17.43 33.2325,17.3075 C33.215,16.275 33.215,15.2425 33.1975,14.21 C33.1975,13.9475 33.1975,13.9475 32.935,13.9475 C32.6025,13.9475 32.2525,13.93 31.92,13.9475 C31.7975,13.9475 31.7275,13.9125 31.7275,13.7725 C31.745,13.335 31.7625,12.88 31.7625,12.4425 C31.7625,12.32 31.815,12.3025 31.92,12.3025 C32.27,12.3025 32.6375,12.3025 32.9875,12.3025 C33.145,12.3025 33.1975,12.25 33.1975,12.0925 C33.1975,11.6025 33.1975,11.1125 33.2325,10.6225 C33.3025,9.6075 34.09,8.8725 35.0875,8.8375 C35.5075,8.82 35.9275,8.8375 36.365,8.8375 C36.4875,8.8375 36.54,8.89 36.54,9.0125 C36.5225,9.415 36.505,9.8175 36.505,10.22 C36.505,10.3425 36.435,10.36 36.33,10.36 C36.015,10.36 35.7,10.36 35.4025,10.395 C35.07,10.43 34.895,10.6575 34.8775,10.99 C34.86,11.375 34.8775,11.7425 34.86,12.1275 C34.86,12.2675 34.93,12.3025 35.035,12.3025 C35.4375,12.3025 35.8575,12.32 36.26,12.3375 C36.3475,12.32 36.4,12.3375 36.4875,12.3375 Z" id="Path"></path>
                <path d="M12.4775,15.4875 C12.4075,15.715 12.2325,15.7325 12.04,15.7325 C11.6025,15.75 11.165,15.75 10.7275,15.75 C10.4475,15.75 10.22,15.5925 10.0275,15.4 C9.835,15.2075 9.66,14.98 9.4675,14.7875 C9.3975,14.7175 9.31,14.63 9.2225,14.5775 C9.0825,14.4725 8.9775,14.49 8.855,14.63 C8.715,14.7875 8.68,14.98 8.6625,15.19 C8.6625,15.26 8.6625,15.33 8.645,15.4 C8.6275,15.6275 8.54,15.715 8.33,15.715 C7.875,15.7325 7.42,15.7675 6.965,15.61 C6.2825,15.3825 5.7225,14.98 5.2675,14.4375 C4.445,13.4225 3.815,12.285 3.29,11.095 C3.2025,10.9025 3.255,10.78 3.4825,10.745 C3.535,10.745 3.57,10.745 3.6225,10.745 C4.025,10.745 4.41,10.745 4.8125,10.745 C5.0225,10.745 5.1275,10.8325 5.2325,11.0075 C5.4775,11.4975 5.705,11.9875 5.9675,12.46 C6.0725,12.67 6.2125,12.845 6.405,12.985 C6.475,13.0375 6.5625,13.09 6.6675,13.055 C6.7025,13.0375 6.7375,13.02 6.755,12.985 C6.8425,12.845 6.86,12.6875 6.8775,12.53 C6.9125,12.215 6.93,11.9175 6.895,11.6025 C6.8775,11.4625 6.86,11.3225 6.825,11.2 C6.7725,11.0075 6.6325,10.9375 6.4575,10.885 C6.4225,10.8675 6.3875,10.8675 6.3175,10.85 C6.3525,10.7975 6.37,10.7625 6.3875,10.7275 C6.51,10.605 6.65,10.5525 6.825,10.535 C7.315,10.4825 7.805,10.465 8.295,10.5525 C8.54,10.5875 8.6275,10.675 8.645,10.955 C8.6625,11.2525 8.645,11.55 8.645,11.83 C8.645,12.1275 8.645,12.425 8.6625,12.7225 C8.6625,12.7925 8.6975,12.8625 8.7325,12.9325 C8.82,13.055 8.9425,13.0725 9.0475,12.9675 C9.205,12.81 9.345,12.6525 9.4675,12.4775 C9.8,12.0225 10.0625,11.515 10.255,10.99 C10.3425,10.7625 10.4125,10.7275 10.64,10.7275 C11.13,10.7275 11.62,10.7275 12.11,10.71 C12.2499944,10.71 12.39,10.7275 12.4775,10.8675 C12.4775,10.92 12.4775,10.955 12.4775,11.0075 C12.4425,11.0775 12.425,11.165 12.39,11.235 C12.215,11.62 11.9525,11.9525 11.7075,12.3025 C11.4975,12.6 11.27,12.88 11.06,13.1775 C10.92,13.3875 10.9375,13.545 11.1125,13.72 C11.3225,13.93 11.55,14.14 11.7425,14.35 C12.04,14.6475 12.3375,14.945 12.46,15.365 C12.4775,15.435 12.4775,15.4525 12.4775,15.4875 Z" id="Path"></path>
                <path d="M21,17.5 C24.3775,17.5 27.125,20.2475 27.125,23.625 C27.125,27.0025 24.3775,29.75 21,29.75 C17.6225,29.75 14.875,27.0025 14.875,23.625 C14.875,20.2475 17.6225,17.5 21,17.5 L21,17.5 Z M21,15.75 C16.6425,15.75 13.125,19.2675 13.125,23.625 C13.125,27.9825 16.6425,31.5 21,31.5 C25.3575,31.5 28.875,27.9825 28.875,23.625 C28.875,19.2675 25.3575,15.75 21,15.75 L21,15.75 Z" id="Shape"></path>
            </g>
            <rect id="Rectangle" x="0" y="0" width="56" height="56"></rect>
        </g>
    </g>
</svg>