<svg width="26px" height="26px" viewBox="0 0 26 26" version="1.1" xmlns="http://www.w3.org/2000/svg" xmlns:xlink="http://www.w3.org/1999/xlink">
    <!-- Generator: Sketch 51.2 (57519) - http://www.bohemiancoding.com/sketch -->
    <desc>Created with Sketch.</desc>
    <defs></defs>
    <g id="Footer" stroke="none" stroke-width="1" fill="none" fill-rule="evenodd">
        <g transform="translate(-1233.000000, -438.000000)" fill="#FFFFFF" id="footer">
            <g>
                <g id="Group-2" transform="translate(1009.000000, 434.000000)">
                    <g id="Group-15" transform="translate(220.000000, 0.000000)">
                        <g id="Group-21">
                            <g id="Group-20" transform="translate(4.857143, 4.857143)">
                                <path d="M12.1390264,0.00766638322 C8.84228883,0.00766638322 8.42885346,0.0216403061 7.13414541,0.0807162698 C5.8420394,0.139647676 4.95965845,0.344871599 4.18747874,0.644973639 C3.38927863,0.955146542 2.71226616,1.37022024 2.03742205,2.04506434 C1.36252976,2.71995663 0.947504252,3.39692092 0.637283163,4.19512103 C0.337181122,4.96730074 0.132005385,5.84968169 0.0730257937,7.1417877 C0.0139498299,8.43654393 2.40929705e-05,8.84988294 2.40929705e-05,12.1466687 C2.40929705e-05,15.4434544 0.0139498299,15.8568416 0.0730257937,17.1515978 C0.132005385,18.4436556 0.337181122,19.3260848 0.637283163,20.0982163 C0.947504252,20.8964164 1.36252976,21.5734289 2.03742205,22.248273 C2.71226616,22.9231652 3.38927863,23.3381908 4.18747874,23.64846 C4.95965845,23.9485139 5.8420394,24.1537378 7.13414541,24.2127174 C8.42885346,24.2717452 8.84228883,24.2857191 12.1390264,24.2857191 C15.4358121,24.2857191 15.8491511,24.2717452 17.1439073,24.2127174 C18.4360133,24.1537378 19.3183943,23.9485139 20.090574,23.64846 C20.8888223,23.3381908 21.5657866,22.9231652 22.2406307,22.248273 C22.915523,21.5734289 23.3305485,20.8964646 23.6407696,20.0982163 C23.9408716,19.3260848 24.1460955,18.4436556 24.2050269,17.1515978 C24.2641029,15.8568416 24.2780768,15.4434544 24.2780768,12.1466687 C24.2780768,8.84993112 24.2641029,8.43654393 24.2050269,7.1417877 C24.1460955,5.84968169 23.9408716,4.96730074 23.6407696,4.19512103 C23.3305485,3.39692092 22.915523,2.71995663 22.2406307,2.04506434 C21.5657866,1.37022024 20.8888223,0.955146542 20.090574,0.644973639 C19.3183943,0.344871599 18.4360133,0.139647676 17.1439073,0.0807162698 C15.8491511,0.0216403061 15.4358121,0.00766638322 12.1390264,0.00766638322 M12.1390264,2.19487443 C15.3803019,2.19487443 15.7641993,2.20721003 17.0442106,2.26561139 C18.2277537,2.31962783 18.870506,2.51738294 19.2982526,2.68362443 C19.864871,2.90383418 20.2692956,3.16688124 20.6940547,3.59164031 C21.1188138,4.01644756 21.3818608,4.42082398 21.6021188,4.98744246 C21.7683121,5.41518906 21.9660672,6.05794133 22.0200836,7.24148441 C22.0784368,8.52149575 22.0908206,8.90544133 22.0908206,12.1466687 C22.0908206,15.3879442 22.0784368,15.7718897 22.0200836,17.0518529 C21.9660672,18.2354442 21.7683121,18.8781964 21.6021188,19.305943 C21.3818608,19.8725133 21.1188138,20.2769379 20.6940547,20.701697 C20.2692956,21.1265043 19.864871,21.3895513 19.2982526,21.6097611 C18.870506,21.7759544 18.2277537,21.9737577 17.0442106,22.0277259 C15.764392,22.0861273 15.3805428,22.0985111 12.1390264,22.0985111 C8.89750992,22.0985111 8.51366071,22.0861273 7.23384212,22.0277259 C6.05029904,21.9737577 5.40749858,21.7759544 4.97975198,21.6097611 C4.41318169,21.3895513 4.00875709,21.1265043 3.58399802,20.701697 C3.15923895,20.2769379 2.89614371,19.8725133 2.67593396,19.305943 C2.50974065,18.8781964 2.31198554,18.2354442 2.2579691,17.0519011 C2.19956774,15.7718897 2.18723214,15.3879442 2.18723214,12.1466687 C2.18723214,8.90544133 2.19956774,8.52149575 2.2579691,7.24148441 C2.31198554,6.05794133 2.50974065,5.41518906 2.67593396,4.98744246 C2.89614371,4.42082398 3.15923895,4.01644756 3.58399802,3.59168849 C4.00875709,3.16688124 4.41318169,2.90383418 4.97975198,2.68362443 C5.40749858,2.51738294 6.05029904,2.31962783 7.23379393,2.26561139 C8.51385346,2.20721003 8.89775085,2.19487443 12.1390264,2.19487443" id="Fill-1"></path>
                                <path d="M12.0344627,16.0459209 C9.81899581,16.0459209 8.02295667,14.2498817 8.02295667,12.0344149 C8.02295667,9.81894804 9.81899581,8.02295667 12.0344627,8.02295667 C14.2499295,8.02295667 16.0459687,9.81894804 16.0459687,12.0344149 C16.0459687,14.2498817 14.2499295,16.0459209 12.0344627,16.0459209 M12.0344627,5.85459184 C8.62142938,5.85459184 5.85459184,8.62138161 5.85459184,12.0344149 C5.85459184,15.4474959 8.62142938,18.2142857 12.0344627,18.2142857 C15.4474959,18.2142857 18.2142857,15.4474959 18.2142857,12.0344149 C18.2142857,8.62138161 15.4474959,5.85459184 12.0344627,5.85459184" id="Fill-4"></path>
                                <path d="M19.9489796,5.74617347 C19.9489796,6.52460515 19.3179829,7.15561224 18.5395641,7.15561224 C17.7611453,7.15561224 17.130102,6.52460515 17.130102,5.74617347 C17.130102,4.96774179 17.7611453,4.33673469 18.5395641,4.33673469 C19.3179829,4.33673469 19.9489796,4.96774179 19.9489796,5.74617347" id="Fill-6"></path>
                            </g>
                        </g>
                    </g>
                </g>
            </g>
        </g>
    </g>
</svg>