<?xml version="1.0" encoding="utf-8"?>
<svg xmlns="http://www.w3.org/2000/svg" width="34" height="34" viewBox="0 0 34 34">
	<g fill="none" fill-rule="evenodd">
		<path fill="#FFF" fill-rule="nonzero" d="M29.84 9.93c-.9.4-1.86.66-2.86.77 1.03-.6 1.8-1.57 2.2-2.7-.98.55-2.04.96-3.18 1.18-.9-.95-2.2-1.55-3.64-1.55-2.75 0-4.98 2.2-4.98 4.9 0 .4.05.77.13 1.13-4.13-.2-7.8-2.16-10.26-5.13-.43.72-.67 1.57-.67 2.47 0 1.7.88 3.2 2.2 4.08-.8-.03-1.57-.25-2.24-.62v.06c0 2.38 1.72 4.36 4 4.82-.42.1-.86.17-1.32.17-.3 0-.62-.02-.93-.08.64 1.95 2.48 3.37 4.66 3.4-1.7 1.32-3.86 2.1-6.2 2.1-.4 0-.8-.02-1.18-.07 2.2 1.4 4.82 2.2 7.64 2.2 9.15 0 14.16-7.46 14.16-13.95l-.02-.63c.98-.7 1.83-1.56 2.5-2.54z"/>
	</g>
</svg>
