<svg width="25px" height="21px" viewBox="0 0 25 21" version="1.1" xmlns="http://www.w3.org/2000/svg" xmlns:xlink="http://www.w3.org/1999/xlink">
    <!-- Generator: Sketch 51.2 (57519) - http://www.bohemiancoding.com/sketch -->
    <desc>Created with Sketch.</desc>
    <defs></defs>
    <g id="Footer" stroke="none" stroke-width="1" fill="none" fill-rule="evenodd">
        <g transform="translate(-1014.000000, -441.000000)" fill="#FFFFFF" fill-rule="nonzero" id="footer">
            <g>
                <g id="Group-2" transform="translate(1009.000000, 434.000000)">
                    <g id="Group-25">
                        <g id="Group-23">
                            <g id="twitter-logo-silhouette-copy" transform="translate(5.551020, 7.632653)">
                                <path d="M24.2857143,2.29870571 C23.3918636,2.6887865 22.4327748,2.95333483 21.4250747,3.07144165 C22.4540049,2.46461023 23.2416253,1.50209047 23.6149195,0.358697673 C22.6497592,0.920662572 21.5844003,1.32872123 20.4492398,1.54992725 C19.5402303,0.594872225 18.247252,0 16.8131227,0 C14.061769,0 11.830932,2.19709164 11.830932,4.90534115 C11.830932,5.28944234 11.87494,5.66459367 11.9599402,6.02333043 C7.82001278,5.81853899 4.14901472,3.86508663 1.69206626,0.896744183 C1.26258143,1.62015821 1.01825563,2.46308602 1.01825563,3.36287862 C1.01825563,5.06526606 1.89845548,6.56735654 3.23393386,7.44616193 C2.41746427,7.41927328 1.64956619,7.19806726 0.977303184,6.83038065 L0.977303184,6.89166176 C0.977303184,9.26810223 2.69520282,11.2514526 4.97306368,11.7028536 C4.55572173,11.8134566 4.11564165,11.8747377 3.66036312,11.8747377 C3.33865625,11.8747377 3.02754463,11.8433546 2.72250445,11.7835586 C3.35683088,13.7340407 5.19615928,15.1524168 7.37540888,15.1913037 C5.67116006,16.5065806 3.52226766,17.2882664 1.18825591,17.2882664 C0.786112396,17.2882664 0.390000637,17.264348 0,17.2210057 C2.20504329,18.6155025 4.82286502,19.4285714 7.63644105,19.4285714 C16.8010592,19.4285714 21.8105912,11.9524724 21.8105912,5.46883026 L21.7938848,4.83362506 C22.7726959,4.14604954 23.619483,3.2821736 24.2857143,2.29870571 Z" id="Shape"></path>
                            </g>
                        </g>
                    </g>
                </g>
            </g>
        </g>
    </g>
</svg>