<svg width="20px" height="10px" viewBox="0 0 20 10" version="1.1" xmlns="http://www.w3.org/2000/svg" xmlns:xlink="http://www.w3.org/1999/xlink">
    <!-- Generator: Sketch 51.2 (57519) - http://www.bohemiancoding.com/sketch -->
    <desc>Created with Sketch.</desc>
    <defs></defs>
    <g id="Footer" stroke="none" stroke-width="1" fill="none" fill-rule="evenodd">
        <g transform="translate(-1280.000000, -446.000000)" fill="#FFFFFF" id="footer">
            <g>
                <g id="Group-2" transform="translate(1009.000000, 434.000000)">
                    <g id="Group-14" transform="translate(264.000000, 0.000000)">
                        <g id="Group-24">
                            <g id="if_flickr_2308115-copy" transform="translate(6.938776, 12.489796)">
                                <path d="M4.57486085,0.163149536 C6.97726994,0.163149536 8.92500631,2.11073135 8.92500631,4.51329499 C8.92500631,6.91585863 6.97726994,8.86344045 4.57486085,8.86344045 C2.17245176,8.86344045 0.224715399,6.91585863 0.224715399,4.51329499 C0.224715399,2.1108859 2.17245176,0.163149536 4.57486085,0.163149536 Z" id="Shape" fill-rule="nonzero"></path>
                                <path d="M15.5537699,0.163149536 C17.956179,0.163149536 19.9039154,2.11073135 19.9039154,4.51329499 C19.9039154,6.91585863 17.9563336,8.86344045 15.5537699,8.86344045 C13.1512063,8.86344045 11.2036245,6.91585863 11.2036245,4.51329499 C11.2036245,2.1108859 13.1513609,0.163149536 15.5537699,0.163149536 Z" id="Path"></path>
                            </g>
                        </g>
                    </g>
                </g>
            </g>
        </g>
    </g>
</svg>