<?xml version="1.0" encoding="utf-8"?>
<svg xmlns="http://www.w3.org/2000/svg" width="34" height="34" viewBox="0 0 34 34">
    <g fill="none" fill-rule="evenodd">
        <path fill="#FFF" fill-rule="nonzero" d="M16.4 23.54h1.4s.44-.05.65-.28c.2-.2.2-.6.2-.6s-.03-1.86.85-2.13c.86-.27 1.98 1.8 3.15 2.58.9.6 1.57.48 1.57.48l3.15-.04s1.65-.1.87-1.37c-.07-.1-.46-.94-2.34-2.66-1.98-1.78-1.7-1.5.66-4.6C28 13 28.6 11.85 28.4 11.36c-.16-.47-1.23-.35-1.23-.35l-3.54.03s-.27-.03-.46.08c-.2.12-.3.4-.3.4s-.58 1.45-1.32 2.7c-1.58 2.62-2.22 2.76-2.47 2.6-.6-.38-.45-1.53-.45-2.35 0-2.54.4-3.6-.77-3.88-.4-.1-.67-.15-1.66-.16-1.26 0-2.34 0-2.94.3-.4.2-.72.63-.53.66.24.03.77.14 1.05.5.36.5.35 1.58.35 1.58s.2 3-.5 3.37c-.47.27-1.12-.25-2.53-2.64-.72-1.22-1.27-2.57-1.27-2.57s-.1-.26-.3-.4C9.32 11.05 9 11 9 11H5.63s-.5.03-.7.24c-.16.2 0 .6 0 .6s2.63 6.04 5.62 9.08c2.74 2.8 5.85 2.62 5.85 2.62"/>
    </g>
</svg>
