<?xml version="1.0" encoding="utf-8"?>
<svg xmlns="http://www.w3.org/2000/svg" width="34" height="34" viewBox="0 0 34 34">
    <g fill="none" fill-rule="evenodd">
        <path fill="#FFF" fill-rule="nonzero" d="M19.16 22.04c1.1-.24 2.14-.68 3.1-1.28.73-.46.95-1.43.5-2.16-.47-.73-1.43-.96-2.17-.5-2.2 1.38-5 1.38-7.2 0-.73-.46-1.7-.23-2.16.5-.46.73-.24 1.7.5 2.16.96.6 2 1.04 3.1 1.28l-3 3c-.6.6-.6 1.6 0 2.2.32.3.72.46 1.12.46.4 0 .8-.15 1.1-.46L17 24.3l2.93 2.94c.62.6 1.6.6 2.22 0 .6-.6.6-1.6 0-2.2l-3-3zM17 10.14c1.22 0 2.2.98 2.2 2.2 0 1.22-.98 2.22-2.2 2.22-1.22 0-2.2-1-2.2-2.2 0-1.24.98-2.23 2.2-2.23zm0 7.54c2.94 0 5.34-2.4 5.34-5.33C22.34 9.4 19.94 7 17 7c-2.95 0-5.34 2.4-5.34 5.34 0 2.95 2.4 5.34 5.34 5.34z"/>
    </g>
</svg>
