<svg width="12px" height="21px" viewBox="0 0 12 21" version="1.1" xmlns="http://www.w3.org/2000/svg" xmlns:xlink="http://www.w3.org/1999/xlink">
    <!-- Generator: Sketch 51.2 (57519) - http://www.bohemiancoding.com/sketch -->
    <desc>Created with Sketch.</desc>
    <defs></defs>
    <g id="Footer" stroke="none" stroke-width="1" fill="none" fill-rule="evenodd">
        <g transform="translate(-1152.000000, -441.000000)" fill="#FFFFFF" fill-rule="nonzero" id="footer">
            <g>
                <g id="Group-2" transform="translate(1009.000000, 434.000000)">
                    <g id="Group-17" transform="translate(132.000000, 0.000000)">
                        <path d="M19.1599552,22.0434545 C20.2488824,21.7954091 21.2974733,21.3642273 22.2624552,20.7577909 C22.9929915,20.2969364 23.2139915,19.3319545 22.7529824,18.5987909 C22.2921279,17.8656273 21.3271461,17.6446273 20.5939824,18.1054818 C18.4053097,19.4827909 15.5885643,19.4801636 13.399737,18.1054818 C12.6665733,17.6446273 11.7015915,17.8656273 11.240737,18.5987909 C10.7798824,19.3293273 11.0008824,20.2969364 11.7312643,20.7577909 C12.6962461,21.3642273 13.744837,21.7955636 14.8337643,22.0434545 L11.8499552,25.0300455 C11.2381097,25.6418909 11.2381097,26.6311364 11.8499552,27.2429818 C12.1571915,27.5475909 12.5562279,27.7012091 12.9551097,27.7012091 C13.3567733,27.7012091 13.7556552,27.5475909 14.0630461,27.2429818 L16.9983279,24.3075455 L19.9337643,27.2429818 C20.5456097,27.8548273 21.5348552,27.8548273 22.1467006,27.2429818 C22.7585461,26.6311364 22.7585461,25.6391091 22.1467006,25.0300455 L19.1599552,22.0434545 Z M16.9981733,10.1321727 C18.219237,10.1321727 19.2111097,11.1240455 19.2111097,12.3451091 C19.2111097,13.5633909 18.219237,14.5554182 16.9981733,14.5554182 C15.7798915,14.5554182 14.785237,13.5635455 14.785237,12.3451091 C14.785237,11.1240455 15.7798915,10.1321727 16.9981733,10.1321727 Z M16.9981733,17.6848091 C19.9444279,17.6848091 22.3406552,15.2885818 22.3406552,12.3451091 C22.3406552,9.39622727 19.9444279,7 16.9981733,7 C14.0520733,7 11.6558461,9.39622727 11.6558461,12.3424818 C11.6558461,15.2887364 14.0520733,17.6848091 16.9981733,17.6848091 Z" id="Shape"></path>
                    </g>
                </g>
            </g>
        </g>
    </g>
</svg>