<svg width="25px" height="14px" viewBox="0 0 25 14" version="1.1" xmlns="http://www.w3.org/2000/svg" xmlns:xlink="http://www.w3.org/1999/xlink">
    <!-- Generator: Sketch 51.2 (57519) - http://www.bohemiancoding.com/sketch -->
    <desc>Created with Sketch.</desc>
    <defs></defs>
    <g id="Footer" stroke="none" stroke-width="1" fill="none" fill-rule="evenodd">
        <g transform="translate(-1057.000000, -444.000000)" fill="#FFFFFF" fill-rule="nonzero" id="footer">
            <g>
                <g id="Group-2" transform="translate(1009.000000, 434.000000)">
                    <g id="Group-20" transform="translate(44.000000, 0.000000)">
                        <g id="Group-22">
                            <path d="M16.3998949,23.5366094 L17.810004,23.5366094 C17.810004,23.5366094 18.2358499,23.4905734 18.4536579,23.2612182 C18.6537785,23.0503435 18.6473773,22.6544996 18.6473773,22.6544996 C18.6473773,22.6544996 18.6197512,20.8011779 19.4978899,20.5280968 C20.3637316,20.2591407 21.4753442,22.3193771 22.6534953,23.1115599 C23.5444363,23.7108533 24.2216121,23.5796754 24.2216121,23.5796754 L27.372164,23.5364444 C27.372164,23.5364444 29.0201268,23.4367822 28.2386795,22.1675736 C28.1746678,22.0639513 27.7833546,21.2287025 25.8960219,19.5126639 C23.920252,17.7165985 24.1852265,18.0071701 26.5649435,14.9003152 C28.0141334,13.0083827 28.5934387,11.8531917 28.4123531,11.3586756 C28.2398586,10.887425 27.1738963,11.0118378 27.1738963,11.0118378 L23.6266407,11.0332882 C23.6266407,11.0332882 23.3635192,10.9981424 23.1686206,11.11249 C22.9779333,11.2241975 22.8556374,11.4852334 22.8556374,11.4852334 C22.8556374,11.4852334 22.2940194,12.9493113 21.5454201,14.1944293 C19.9658487,16.8216184 19.3341549,16.9607165 19.0759184,16.7973629 C18.4752197,16.4170293 18.6253102,15.2700885 18.6253102,14.4549702 C18.6253102,11.9087979 19.0196556,10.847164 17.8575074,10.5722679 C17.4719215,10.4811858 17.1879119,10.4207945 16.2017957,10.4110592 C14.9360498,10.398519 13.8648655,10.4148543 13.258271,10.7059209 C12.8546607,10.8994702 12.543362,11.3307899 12.7330386,11.3557055 C12.9675234,11.3862312 13.4983146,11.4961236 13.7797974,11.8711771 C14.1434846,12.355793 14.1306822,13.4434974 14.1306822,13.4434974 C14.1306822,13.4434974 14.3395623,16.4407898 13.6428462,16.8130382 C13.1647803,17.068464 12.5088294,16.5470522 11.1005733,14.1634086 C10.3790947,12.9423812 9.83432198,11.5926508 9.83432198,11.5926508 C9.83432198,11.5926508 9.72937658,11.3405251 9.5420583,11.2053871 C9.31481698,11.0418684 8.9971171,10.9900573 8.9971171,10.9900573 L5.62606194,11.0116727 C5.62606194,11.0116727 5.12003308,11.0255331 4.93423087,11.2410279 C4.76881131,11.4329272 4.92109163,11.8292661 4.92109163,11.8292661 C4.92109163,11.8292661 7.56005576,17.8771471 10.5483887,20.9249307 C13.2887607,23.7199286 16.3998949,23.5366094 16.3998949,23.5366094" id="Shape-Copy-2"></path>
                        </g>
                    </g>
                </g>
            </g>
        </g>
    </g>
</svg>