<?xml version="1.0" encoding="UTF-8"?>
<svg width="58px" height="57px" viewBox="0 0 58 57" version="1.1" xmlns="http://www.w3.org/2000/svg" xmlns:xlink="http://www.w3.org/1999/xlink">
    <!-- Generator: Sketch 49 (51002) - http://www.bohemiancoding.com/sketch -->
    <title>telephone_unlim_3</title>
    <desc>Created with Sketch.</desc>
    <defs></defs>
    <g id="icons" stroke="none" stroke-width="1" fill="none" fill-rule="evenodd">
        <g transform="translate(-1639.000000, -391.000000)" id="Group" stroke="#000000" stroke-width="1.5">
            <g transform="translate(145.000000, 121.000000)">
                <g id="Fill-236" transform="translate(1495.000000, 270.000000)">
                    <path d="M55.3032,28.3183 C55.3032,43.5063 42.9912,55.8183 27.8032,55.8183 C12.6152,55.8183 0.3032,43.5063 0.3032,28.3183 C0.3032,13.1303 12.6152,0.8183 27.8032,0.8183 C42.9912,0.8183 55.3032,13.1303 55.3032,28.3183"></path>
                    <path d="M38.1353,34.0614 C33.9003,33.5724 28.9323,29.6634 27.3843,28.3594 C28.9323,27.0564 33.8193,22.9834 38.1353,22.5764 C38.3803,22.5764 38.6243,22.4954 38.8683,22.4954 C42.0453,22.4144 44.7333,24.9384 44.8153,28.1964 C44.8963,31.3734 42.3703,34.0614 39.1133,34.1434 C38.7873,34.0614 38.4613,34.0614 38.1353,34.0614 Z" id="Stroke-289" stroke-linejoin="round"></path>
                    <path d="M16.7144,34.0614 C20.9494,33.5724 25.9184,29.6634 27.4654,28.3594 C25.9184,27.0564 21.0304,22.9834 16.7144,22.5764 C16.4694,22.5764 16.2254,22.4954 15.9814,22.4954 C12.8044,22.4954 10.1974,25.1024 10.1974,28.2784 C10.1974,31.4554 12.8044,34.0614 15.9814,34.0614 L16.7144,34.0614 Z" id="Stroke-290" stroke-linejoin="round"></path>
                </g>
            </g>
        </g>
    </g>
</svg>