<?xml version="1.0" encoding="UTF-8"?>
<svg width="58px" height="57px" viewBox="0 0 58 57" version="1.1" xmlns="http://www.w3.org/2000/svg" xmlns:xlink="http://www.w3.org/1999/xlink">
    <!-- Generator: Sketch 49 (51002) - http://www.bohemiancoding.com/sketch -->
    <title>telephone_telephones_3</title>
    <desc>Created with Sketch.</desc>
    <defs></defs>
    <g id="icons" stroke="none" stroke-width="1" fill="none" fill-rule="evenodd">
        <g transform="translate(-1639.000000, -495.000000)" id="Group">
            <g transform="translate(145.000000, 121.000000)">
                <g id="Fill-237" transform="translate(1495.000000, 375.000000)">
                    <path d="M55.3032,27.5029 C55.3032,42.6909 42.9912,55.0029 27.8032,55.0029 C12.6152,55.0029 0.3032,42.6909 0.3032,27.5029 C0.3032,12.3149 12.6152,0.0029 27.8032,0.0029 C42.9912,0.0029 55.3032,12.3149 55.3032,27.5029" stroke="#000000" stroke-width="1.5"></path>
                    <path d="M22.9263,37.7133 C23.7433,38.3823 24.7843,38.7543 25.8253,38.6803 C26.9403,38.4573 27.9813,37.9363 28.8733,37.1933 L31.5493,35.1113 C32.0703,34.7403 32.7393,34.8143 33.1853,35.2603 L38.6123,41.2073 C38.9833,41.6533 38.9083,42.3223 38.4623,42.6943 C36.8273,44.1063 34.9693,45.9643 32.8133,46.8573 C31.0293,47.6003 28.7983,47.2293 26.9403,46.7083 C25.6763,46.3373 24.4123,45.8163 23.2233,45.1473 C21.5883,44.2553 20.0273,43.1403 18.6143,41.8763 C15.9383,39.4233 13.5603,36.6723 11.6263,33.6253 C10.6603,31.9893 9.8423,30.2793 9.1733,28.5703 C8.7283,27.3063 8.4303,25.9683 8.2813,24.6303 C8.0593,22.6973 8.0593,20.4673 9.1733,18.8323 C10.4373,16.8993 12.5933,15.4123 14.3033,14.0003 C14.7483,13.6283 15.4183,13.6283 15.7893,14.0743 L15.7893,14.1483 L20.6963,20.5413 C21.0683,21.0623 20.9933,21.7313 20.5473,22.1773 L18.0203,24.4813 C17.1273,25.2253 16.4583,26.1173 16.0873,27.2323 C15.7893,28.2733 15.9383,29.3873 16.5323,30.2793 C18.4663,32.8813 20.5473,35.4093 22.9263,37.7133 Z" id="Stroke-251" stroke="#000000" stroke-width="1.5" stroke-linejoin="round"></path>
                    <path d="M30.8403,8.996 L38.2463,8.996 C39.2693,8.996 40.0873,9.814 40.0873,10.837 L40.0873,27.205 C40.0873,28.228 39.2693,29.046 38.2463,29.046 L30.8403,29.046 C29.8173,29.046 28.9983,28.228 28.9983,27.205 L28.9983,10.837 C28.9983,9.814 29.8173,8.996 30.8403,8.996 Z" id="Stroke-349" stroke="#000000" stroke-width="1.5" stroke-linejoin="round"></path>
                    <path d="M35.7671,26.0585 C35.7671,26.7205 35.1721,27.2495 34.5101,27.2495 C33.8481,27.2495 33.3191,26.6545 33.3191,25.9925 C33.3191,25.3305 33.8481,24.8015 34.5101,24.8015 C35.2381,24.8015 35.7671,25.3305 35.7671,26.0585" id="Fill-351" fill="#000000" fill-rule="evenodd"></path>
                </g>
            </g>
        </g>
    </g>
</svg>