<?xml version="1.0" encoding="UTF-8"?>
<svg width="58px" height="57px" viewBox="0 0 58 57" version="1.1" xmlns="http://www.w3.org/2000/svg" xmlns:xlink="http://www.w3.org/1999/xlink">
    <!-- Generator: Sketch 49 (51002) - http://www.bohemiancoding.com/sketch -->
    <title>telephone_main_3</title>
    <desc>Created with Sketch.</desc>
    <defs></defs>
    <g id="icons" stroke="none" stroke-width="1" fill="none" fill-rule="evenodd" opacity="0.699999988">
        <g transform="translate(-1639.000000, -122.000000)" id="Group" stroke="#000000">
            <g transform="translate(145.000000, 121.000000)">
                <g id="Fill-235" transform="translate(1495.000000, 1.000000)">
                    <path d="M55.3032,28.3788 C55.3032,43.5668 42.9912,55.8788 27.8032,55.8788 C12.6152,55.8788 0.3032,43.5668 0.3032,28.3788 C0.3032,13.1908 12.6152,0.8788 27.8032,0.8788 C42.9912,0.8788 55.3032,13.1908 55.3032,28.3788" stroke-width="1.5"></path>
                    <path d="M26.9263,35.4433 C27.7433,36.1123 28.7843,36.4843 29.8253,36.4093 C30.9403,36.1863 31.9813,35.6663 32.8733,34.9223 L35.5493,32.8413 C36.0703,32.4693 36.7393,32.5443 37.1853,32.9903 L42.6123,38.9373 C42.9833,39.3833 42.9083,40.0523 42.4623,40.4233 C40.8273,41.8363 38.9693,43.6943 36.8133,44.5873 C35.0293,45.3303 32.7983,44.9583 30.9403,44.4383 C29.6763,44.0663 28.4123,43.5463 27.2233,42.8773 C25.5883,41.9853 24.0273,40.8703 22.6143,39.6063 C19.9383,37.1533 17.5603,34.4023 15.6263,31.3553 C14.6603,29.7193 13.8423,28.0093 13.1733,26.2993 C12.7283,25.0363 12.4303,23.6983 12.2813,22.3603 C12.0593,20.4273 12.0593,18.1973 13.1733,16.5613 C14.4373,14.6293 16.5933,13.1423 18.3033,11.7293 C18.7483,11.3583 19.4183,11.3583 19.7893,11.8043 L19.7893,11.8783 L24.6963,18.2713 C25.0683,18.7923 24.9933,19.4613 24.5473,19.9063 L22.0203,22.2113 C21.1273,22.9543 20.4583,23.8463 20.0873,24.9623 C19.7893,26.0023 19.9383,27.1173 20.5323,28.0093 C22.4663,30.6113 24.5473,33.1383 26.9263,35.4433 Z" id="Stroke-250" stroke-width="1.5" stroke-linejoin="round"></path>
                    <path d="M16.2954,13.5136 L22.6894,21.6166" id="Stroke-252" stroke-width="1" stroke-linejoin="round"></path>
                    <path d="M40.4556,42.2079 L33.5426,34.5509" id="Stroke-253" stroke-width="1" stroke-linejoin="round"></path>
                </g>
            </g>
        </g>
    </g>
</svg>