<?xml version="1.0" encoding="UTF-8"?>
<svg width="57px" height="57px" viewBox="0 0 57 57" version="1.1" xmlns="http://www.w3.org/2000/svg" xmlns:xlink="http://www.w3.org/1999/xlink">
    <!-- Generator: Sketch 49 (51002) - http://www.bohemiancoding.com/sketch -->
    <title>tv_channel_4_3</title>
    <desc>Created with Sketch.</desc>
    <defs></defs>
    <g id="icons" stroke="none" stroke-width="1" fill="none" fill-rule="evenodd" opacity="0.699999988">
        <g transform="translate(-967.000000, -1524.000000)" id="Group">
            <g transform="translate(145.000000, 121.000000)">
                <g id="Fill-148" transform="translate(823.000000, 1403.000000)">
                    <path d="M55.0542,28.3329 C55.0542,43.5209 42.7412,55.8329 27.5542,55.8329 C12.3662,55.8329 0.0542,43.5209 0.0542,28.3329 C0.0542,13.1449 12.3662,0.8329 27.5542,0.8329 C42.7412,0.8329 55.0542,13.1449 55.0542,28.3329" stroke="#000000" stroke-width="1.5"></path>
                    <path d="M16.1167,15.8984 L38.9917,15.8984 C40.9357,15.8984 42.5117,17.4744 42.5117,19.4174 L42.5117,33.4944 C42.5117,35.4384 40.9357,37.0144 38.9917,37.0144 L16.1167,37.0144 C14.1737,37.0144 12.5967,35.4384 12.5967,33.4944 L12.5967,19.4174 C12.5967,17.4744 14.1737,15.8984 16.1167,15.8984 Z" id="Stroke-149" stroke="#000000" stroke-width="1.5" stroke-linejoin="round"></path>
                    <path d="M35.5757,41.2065 L19.5327,41.2065" id="Stroke-150" stroke="#000000" stroke-width="1.5" stroke-linejoin="round"></path>
                    <polygon id="Fill-151" fill="#000000" fill-rule="evenodd" points="25.569 41.206 29.541 41.206 29.541 37.014 25.569 37.014"></polygon>
                    <polyline id="Stroke-272" stroke="#000000" stroke-width="1" stroke-linecap="round" stroke-linejoin="round" points="18.3706 24.3891 21.5376 22.0981 21.5376 30.9261"></polyline>
                    <path d="M18.7798,30.9257 L23.4508,30.9257" id="Stroke-273" stroke="#000000" stroke-width="1" stroke-linecap="round" stroke-linejoin="round"></path>
                    <path d="M33.5444,26.5512 L37.9884,26.5512" id="Stroke-274" stroke="#000000" stroke-width="1" stroke-linecap="round" stroke-linejoin="round"></path>
                    <path d="M35.7661,24.2914 L35.7661,28.9614" id="Stroke-275" stroke="#000000" stroke-width="1" stroke-linecap="round" stroke-linejoin="round"></path>
                    <path d="M30.5405,24.3622 C30.5405,25.8472 28.2755,26.6262 28.2755,26.6262 C28.2755,26.6262 26.0115,25.9252 26.0115,24.3622 C26.0115,23.1122 27.0255,22.0982 28.2755,22.0982 C29.5265,22.0982 30.5405,23.1122 30.5405,24.3622 Z" id="Stroke-276" stroke="#000000" stroke-width="1" stroke-linecap="round" stroke-linejoin="round"></path>
                    <path d="M30.8589,28.891 C30.8589,30.141 29.7029,31.155 28.2759,31.155 C26.8489,31.155 25.6929,30.141 25.6929,28.891 C25.6929,27.211 28.2759,26.626 28.2759,26.626 C28.2759,26.626 30.8589,27.25 30.8589,28.891 Z" id="Stroke-277" stroke="#000000" stroke-width="1" stroke-linecap="round" stroke-linejoin="round"></path>
                </g>
            </g>
        </g>
    </g>
</svg>