<?xml version="1.0" encoding="UTF-8"?>
<svg width="58px" height="57px" viewBox="0 0 58 57" version="1.1" xmlns="http://www.w3.org/2000/svg" xmlns:xlink="http://www.w3.org/1999/xlink">
    <!-- Generator: Sketch 49 (51002) - http://www.bohemiancoding.com/sketch -->
    <title>tv_channel_1_3</title>
    <desc>Created with Sketch.</desc>
    <defs></defs>
    <g id="icons" stroke="none" stroke-width="1" fill="none" fill-rule="evenodd" opacity="0.699999988">
        <g transform="translate(-967.000000, -1114.000000)" id="Group" stroke="#000000" stroke-width="1.5">
            <g transform="translate(145.000000, 121.000000)">
                <g id="Fill-152" transform="translate(823.000000, 993.000000)">
                    <path d="M55.689,28.3329 C55.689,43.5209 43.376,55.8329 28.189,55.8329 C13.001,55.8329 0.689,43.5209 0.689,28.3329 C0.689,13.1449 13.001,0.8329 28.189,0.8329 C43.376,0.8329 55.689,13.1449 55.689,28.3329"></path>
                    <path d="M44.3667,25.2177 L42.0167,27.2637 L36.7107,31.7367 L37.6207,35.4507 L38.3787,38.4827 L39.1367,41.5147 C39.5917,43.5617 38.5297,44.3197 36.7867,43.2587 L34.1337,41.5907 L31.4807,39.9987 L28.1447,38.0287 L24.8867,39.9987 L22.2327,41.5907 L19.5797,43.2587 C17.7607,44.3197 16.6987,43.5617 17.2297,41.5147 L17.9877,38.4827 L18.7457,35.4507 L19.5797,31.7367 L14.3487,27.2637 L11.9997,25.2177 C10.4077,23.8527 10.7867,22.5647 12.9087,22.4127 L16.0167,22.1857 L22.9147,21.6547 L25.5677,15.2877 L26.7807,12.4067 C27.6147,10.4367 28.9027,10.4367 29.7367,12.4067 L30.9497,15.2877 L33.6027,21.6547 L40.5017,22.1857 L43.6087,22.4127 C45.5797,22.6407 45.9587,23.8527 44.3667,25.2177 Z" id="Stroke-271" stroke-linejoin="round"></path>
                </g>
            </g>
        </g>
    </g>
</svg>