<?xml version="1.0" encoding="UTF-8"?>
<svg width="58px" height="58px" viewBox="0 0 58 58" version="1.1" xmlns="http://www.w3.org/2000/svg" xmlns:xlink="http://www.w3.org/1999/xlink">
    <!-- Generator: Sketch 49 (51002) - http://www.bohemiancoding.com/sketch -->
    <title>tv_channel_2_3</title>
    <desc>Created with Sketch.</desc>
    <defs></defs>
    <g id="icons" stroke="none" stroke-width="1" fill="none" fill-rule="evenodd" opacity="0.699999988">
        <g transform="translate(-967.000000, -1247.000000)" id="Group">
            <g transform="translate(145.000000, 121.000000)">
                <g id="Fill-153" transform="translate(823.000000, 1127.000000)">
                    <path d="M55.689,27.9413 C55.689,43.1293 43.376,55.4413 28.189,55.4413 C13.001,55.4413 0.689,43.1293 0.689,27.9413 C0.689,12.7533 13.001,0.4413 28.189,0.4413 C43.376,0.4413 55.689,12.7533 55.689,27.9413" stroke="#000000" stroke-width="1.5"></path>
                    <path d="M31.23,9.8583 C31.584,10.8573 31.942,11.8563 32.293,12.8563 C34.081,17.9323 35.864,23.0103 37.655,28.0843 C37.91,28.8063 38.446,29.2833 39.122,29.6123 C39.424,29.7593 39.737,29.8873 40.041,30.0343 C40.155,30.0903 40.262,30.1673 40.357,30.2513 C40.472,30.3543 40.477,30.4853 40.361,30.5883 C40.256,30.6813 40.14,30.7653 40.016,30.8293 C39.58,31.0533 39.138,31.2663 38.7,31.4873 C38.585,31.5453 38.474,31.6113 38.367,31.6823 C38.081,31.8703 38.076,32.1383 38.366,32.3243 C38.514,32.4203 38.683,32.4843 38.844,32.5583 C39.186,32.7143 39.402,32.9583 39.529,33.3263 C40.506,36.1593 41.501,38.9863 42.489,41.8163 C42.508,41.8733 42.524,41.9313 42.547,42.0053 L36.466,42.0053 C36.271,41.4533 36.074,40.8933 35.876,40.3333 C35.188,38.3783 34.499,36.4243 33.816,34.4683 C33.765,34.3243 33.695,34.2893 33.551,34.2903 C31.488,34.2943 29.424,34.2933 27.361,34.2933 C26.464,34.2923 25.568,34.2893 24.671,34.2883 L24.483,34.2883 C24.606,33.9413 24.727,33.6143 24.835,33.2833 C24.888,33.1213 24.935,32.9533 24.949,32.7843 C24.968,32.5513 24.869,32.4343 24.648,32.3663 C24.373,32.2823 24.32,32.0673 24.539,31.8793 C24.639,31.7923 24.764,31.7323 24.885,31.6743 C25.501,31.3853 26.124,31.1093 26.735,30.8103 C26.947,30.7063 27.148,30.5673 27.326,30.4123 C27.524,30.2383 27.528,30.0403 27.35,29.8453 C27.224,29.7053 27.071,29.5873 26.919,29.4743 C26.566,29.2083 26.481,29.0243 26.53,28.5543 L31.731,28.5543 C30.548,25.1993 29.376,21.8733 28.189,18.5033 C28.039,18.9253 27.903,19.3043 27.769,19.6843 C26.785,22.4833 25.796,25.2803 24.822,28.0823 C24.736,28.3303 24.719,28.6083 24.706,28.8733 C24.695,29.0933 24.82,29.2683 24.998,29.4003 C25.136,29.5023 25.277,29.6013 25.407,29.7143 C25.733,29.9993 25.732,30.2823 25.376,30.5313 C25.132,30.7033 24.861,30.8373 24.59,30.9673 C24.043,31.2313 23.488,31.4763 22.941,31.7383 C22.829,31.7923 22.717,31.8733 22.64,31.9693 C22.512,32.1273 22.568,32.2713 22.756,32.3433 C23.118,32.4813 23.213,32.6383 23.091,33.0223 C22.936,33.5123 22.739,33.9883 22.567,34.4743 C21.705,36.9193 20.842,39.3643 19.987,41.8113 C19.932,41.9683 19.867,42.0253 19.692,42.0243 C17.813,42.0163 15.933,42.0193 14.054,42.0193 L13.83,42.0193 C13.865,41.9073 13.89,41.8163 13.921,41.7253 C14.83,39.1473 15.737,36.5673 16.647,33.9903 C16.732,33.7473 16.846,33.5143 16.929,33.2713 C16.984,33.1103 17.028,32.9413 17.04,32.7723 C17.055,32.5533 16.945,32.4413 16.743,32.3633 C16.65,32.3273 16.514,32.2463 16.508,32.1773 C16.501,32.0753 16.571,31.9453 16.648,31.8643 C16.728,31.7793 16.85,31.7303 16.96,31.6783 C17.588,31.3843 18.22,31.1003 18.844,30.7983 C19.035,30.7063 19.221,30.5883 19.381,30.4503 C19.619,30.2463 19.616,30.0233 19.399,29.7963 C19.306,29.6993 19.203,29.6083 19.089,29.5373 C18.634,29.2453 18.491,28.9593 18.66,28.3333 C18.82,27.7433 19.047,27.1713 19.251,26.5933 C21.203,21.0483 23.156,15.5043 25.109,9.9603 C25.121,9.9253 25.136,9.8923 25.15,9.8583 L31.23,9.8583 Z" id="Fill-285" fill="#000000" fill-rule="evenodd"></path>
                </g>
            </g>
        </g>
    </g>
</svg>