<?xml version="1.0" encoding="UTF-8"?>
<svg width="58px" height="58px" viewBox="0 0 58 58" version="1.1" xmlns="http://www.w3.org/2000/svg" xmlns:xlink="http://www.w3.org/1999/xlink">
    <!-- Generator: Sketch 49 (51002) - http://www.bohemiancoding.com/sketch -->
    <title>tv_control_3</title>
    <desc>Created with Sketch.</desc>
    <defs></defs>
    <g id="icons" stroke="none" stroke-width="1" fill="none" fill-rule="evenodd" opacity="0.699999988">
        <g transform="translate(-967.000000, -614.000000)" id="Group">
            <g transform="translate(145.000000, 121.000000)">
                <g id="Fill-186" transform="translate(823.000000, 494.000000)">
                    <path d="M55.3755,27.9399 C55.3755,43.1279 43.0635,55.4399 27.8755,55.4399 C12.6875,55.4399 0.3755,43.1279 0.3755,27.9399 C0.3755,12.7519 12.6875,0.4399 27.8755,0.4399 C43.0635,0.4399 55.3755,12.7519 55.3755,27.9399" stroke="#000000" stroke-width="1.5"></path>
                    <path d="M16.438,15.5053 L39.313,15.5053 C41.257,15.5053 42.833,17.0813 42.833,19.0243 L42.833,33.1013 C42.833,35.0453 41.257,36.6203 39.313,36.6203 L16.438,36.6203 C14.494,36.6203 12.919,35.0453 12.919,33.1013 L12.919,19.0243 C12.919,17.0813 14.494,15.5053 16.438,15.5053 Z" id="Stroke-187" stroke="#000000" stroke-width="1.5" stroke-linejoin="round"></path>
                    <path d="M35.897,40.8129 L19.854,40.8129" id="Stroke-188" stroke="#000000" stroke-width="1.5" stroke-linejoin="round"></path>
                    <polygon id="Fill-189" fill="#000000" fill-rule="evenodd" points="25.889 40.813 29.861 40.813 29.861 36.621 25.889 36.621"></polygon>
                    <polygon id="Fill-190" fill="#000000" fill-rule="evenodd" points="20.7144 30.5971 26.9694 26.1411 20.7144 21.6841"></polygon>
                    <path d="M31.6938,22.3359 L31.6938,29.9459" id="Stroke-191" stroke="#000000" stroke-width="1" stroke-linecap="square" stroke-linejoin="round"></path>
                    <path d="M35.396,22.3359 L35.396,29.9459" id="Stroke-192" stroke="#000000" stroke-width="1" stroke-linecap="square" stroke-linejoin="round"></path>
                </g>
            </g>
        </g>
    </g>
</svg>