<?xml version="1.0" encoding="UTF-8"?>
<svg width="57px" height="58px" viewBox="0 0 57 58" version="1.1" xmlns="http://www.w3.org/2000/svg" xmlns:xlink="http://www.w3.org/1999/xlink">
    <!-- Generator: Sketch 49 (51002) - http://www.bohemiancoding.com/sketch -->
    <title>tv_channel_3_3</title>
    <desc>Created with Sketch.</desc>
    <defs></defs>
    <g id="icons" stroke="none" stroke-width="1" fill="none" fill-rule="evenodd" opacity="0.699999988">
        <g transform="translate(-968.000000, -1392.000000)" id="Group">
            <g transform="translate(145.000000, 121.000000)">
                <g id="Fill-154" transform="translate(823.000000, 1272.000000)">
                    <path d="M55.7759,27.9413 C55.7759,43.1293 43.4629,55.4413 28.2759,55.4413 C13.0879,55.4413 0.7759,43.1293 0.7759,27.9413 C0.7759,12.7533 13.0879,0.4413 28.2759,0.4413 C43.4629,0.4413 55.7759,12.7533 55.7759,27.9413" stroke="#000000" stroke-width="1.5"></path>
                    <path d="M9.7944,19.871 L9.7944,35.141 L14.0104,35.141 L14.0104,29.489 L16.7024,29.489 L16.7024,35.141 L20.9184,35.141 L20.9184,19.871 L16.7024,19.871 L16.7024,25.631 L14.0104,25.631 L14.0104,19.871 L9.7944,19.871 Z M25.5844,29.22 L25.5844,31.552 L27.8264,31.552 C27.8264,31.552 28.7244,31.462 28.7244,30.296 C28.7244,29.22 27.8264,29.22 27.8264,29.22 L25.5844,29.22 Z M25.5844,23.5939988 L25.5844,25.9 L27.8264,25.9 C27.8264,25.9 28.7244,25.792 28.7244,24.689 C28.7244,23.585 27.8264,23.594 27.8264,23.594 L25.5844,23.5939988 Z M28.2754,19.871 C29.4414,19.871 32.7614,20.508 32.7614,23.774 C32.7614,26.402 31.5054,27.183 30.5194,27.362 C29.8014,27.497 32.5824,27.362 32.5824,30.655 C32.5824,35.32 28.5444,35.141 28.5444,35.141 L21.8154,35.141 L21.8154,19.871 L28.2754,19.871 Z" id="Fill-286" fill="#000000" fill-rule="evenodd"></path>
                    <path d="M39.8491,23.6572 C37.7221,23.6572 35.9921,25.3872 35.9921,27.5152 C35.9921,29.6422 37.7221,31.3722 39.8491,31.3722 C41.9761,31.3722 43.7061,29.6422 43.7061,27.5152 C43.7061,25.3872 41.9761,23.6572 39.8491,23.6572 M39.8491,35.3202 C35.5451,35.3202 32.0431,31.8192 32.0431,27.5152 C32.0431,23.2112 35.5451,19.7092 39.8491,19.7092 C44.1531,19.7092 47.6551,23.2112 47.6551,27.5152 C47.6551,31.8192 44.1531,35.3202 39.8491,35.3202" id="Fill-287" fill="#000000" fill-rule="evenodd"></path>
                    <path d="M39.8491,24.788 C41.3551,24.788 42.5761,26.009 42.5761,27.515 C42.5761,29.021 41.3551,30.242 39.8491,30.242 C38.3431,30.242 37.1221,29.021 37.1221,27.515 C37.1221,26.009 38.3431,24.788 39.8491,24.788" id="Fill-288" fill="#000000" fill-rule="evenodd"></path>
                </g>
            </g>
        </g>
    </g>
</svg>