<?xml version="1.0" encoding="UTF-8"?>
<svg width="58px" height="57px" viewBox="0 0 58 57" version="1.1" xmlns="http://www.w3.org/2000/svg" xmlns:xlink="http://www.w3.org/1999/xlink">
    <!-- Generator: Sketch 49 (51002) - http://www.bohemiancoding.com/sketch -->
    <title>tv_main_3</title>
    <desc>Created with Sketch.</desc>
    <defs></defs>
    <g id="icons" stroke="none" stroke-width="1" fill="none" fill-rule="evenodd" opacity="0.699999988">
        <g transform="translate(-967.000000, -122.000000)" id="Group">
            <g transform="translate(145.000000, 121.000000)">
                <g id="Fill-155" transform="translate(823.000000, 1.000000)">
                    <path d="M55.3755,28.3788 C55.3755,43.5668 43.0635,55.8788 27.8755,55.8788 C12.6875,55.8788 0.3755,43.5668 0.3755,28.3788 C0.3755,13.1908 12.6875,0.8788 27.8755,0.8788 C43.0635,0.8788 55.3755,13.1908 55.3755,28.3788" stroke="#000000" stroke-width="1.5"></path>
                    <path d="M16.438,15.9443 L39.313,15.9443 C41.257,15.9443 42.833,17.5203 42.833,19.4643 L42.833,33.5403 C42.833,35.4843 41.257,37.0603 39.313,37.0603 L16.438,37.0603 C14.494,37.0603 12.919,35.4843 12.919,33.5403 L12.919,19.4643 C12.919,17.5203 14.494,15.9443 16.438,15.9443 Z" id="Stroke-156" stroke="#000000" stroke-width="1.5" stroke-linejoin="round"></path>
                    <path d="M35.897,41.2524 L19.854,41.2524" id="Stroke-157" stroke="#000000" stroke-width="1.5" stroke-linejoin="round"></path>
                    <polygon id="Fill-158" fill="#000000" fill-rule="evenodd" points="25.889 41.252 29.861 41.252 29.861 37.06 25.889 37.06"></polygon>
                </g>
            </g>
        </g>
    </g>
</svg>