<?xml version="1.0" encoding="UTF-8"?>
<svg width="58px" height="57px" viewBox="0 0 58 57" version="1.1" xmlns="http://www.w3.org/2000/svg" xmlns:xlink="http://www.w3.org/1999/xlink">
    <!-- Generator: Sketch 49 (51002) - http://www.bohemiancoding.com/sketch -->
    <title>tv_online_3</title>
    <desc>Created with Sketch.</desc>
    <defs></defs>
    <g id="Page-1" stroke="none" stroke-width="1" fill="none" fill-rule="evenodd" opacity="0.7">
        <g id="icons" transform="translate(-958.000000, -2233.000000)">
            <g id="tv_online_3" transform="translate(959.000000, 2234.000000)">
                <g id="tv_online_1-copy">
                    <g id="tv_hd_1-copy">
                        <path d="M55.3755,27.5029 C55.3755,42.6909 43.0635,55.0029 27.8755,55.0029 C12.6875,55.0029 0.3755,42.6909 0.3755,27.5029 C0.3755,12.3149 12.6875,0.0029 27.8755,0.0029 C43.0635,0.0029 55.3755,12.3149 55.3755,27.5029" id="Fill-159" stroke="#000000" stroke-width="1.5"></path>
                        <path d="M16.438,15.0683 L39.313,15.0683 C41.257,15.0683 42.833,16.6443 42.833,18.5873 L42.833,32.6643 C42.833,34.6083 41.257,36.1843 39.313,36.1843 L16.438,36.1843 C14.494,36.1843 12.919,34.6083 12.919,32.6643 L12.919,18.5873 C12.919,16.6443 14.494,15.0683 16.438,15.0683 Z" id="Stroke-160" stroke="#000000" stroke-width="1.5" stroke-linejoin="round"></path>
                        <path d="M35.897,40.3759 L19.854,40.3759" id="Stroke-161" stroke="#000000" stroke-width="1.5" stroke-linejoin="round"></path>
                        <polygon id="Fill-162" fill="#000000" points="25.889 40.376 29.861 40.376 29.861 36.184 25.889 36.184"></polygon>
                    </g>
                    <path d="M33.1823476,24.5773338 L32.4298681,25.233126 L30.7297327,26.66602 L31.0209957,27.8556944 L31.2642154,28.8267714 L31.5068345,29.7978484 C31.6527663,30.4536406 31.3128593,30.6962597 30.7543549,30.3563528 L29.9039869,29.8224706 L29.0542195,29.3126102 L27.9864552,28.6814402 L26.9415115,29.3126102 L26.0917441,29.8224706 L25.2419767,30.3563528 C24.6594506,30.6962597 24.3189431,30.4536406 24.4888966,29.7978484 L24.7321163,28.8267714 L24.9747354,27.8556944 L25.2419767,26.66602 L23.5664636,25.233126 L22.8133835,24.5773338 C22.3041235,24.1401389 22.4254331,23.7275663 23.105247,23.6789224 L24.1009462,23.6062568 L26.3109421,23.4363033 L27.1607095,21.396261 L27.5486599,20.4738279 C27.8159012,19.8420574 28.2290743,19.8420574 28.4957151,20.4738279 L28.884266,21.396261 L29.734634,23.4363033 L31.9434288,23.6062568 L32.9397285,23.6789224 C33.5708985,23.751588 33.6928086,24.1401389 33.1823476,24.5773338 Z" id="Stroke-423" stroke="#000000" stroke-linejoin="round"></path>
                </g>
            </g>
        </g>
    </g>
</svg>