<?xml version="1.0" encoding="UTF-8"?>
<svg width="58px" height="58px" viewBox="0 0 58 58" version="1.1" xmlns="http://www.w3.org/2000/svg" xmlns:xlink="http://www.w3.org/1999/xlink">
    <!-- Generator: Sketch 49 (51002) - http://www.bohemiancoding.com/sketch -->
    <title>tv_pult_3</title>
    <desc>Created with Sketch.</desc>
    <defs></defs>
    <g id="icons" stroke="none" stroke-width="1" fill="none" fill-rule="evenodd" opacity="0.699999988">
        <g transform="translate(-967.000000, -860.000000)" id="Group" stroke="#000000" stroke-width="1.5">
            <g transform="translate(145.000000, 121.000000)">
                <g id="Fill-202" transform="translate(823.000000, 740.000000)">
                    <path d="M55.3755,28.2245 C55.3755,43.4125 43.0635,55.7245 27.8755,55.7245 C12.6875,55.7245 0.3755,43.4125 0.3755,28.2245 C0.3755,13.0365 12.6875,0.7245 27.8755,0.7245 C43.0635,0.7245 55.3755,13.0365 55.3755,28.2245"></path>
                    <path d="M22.208,26.9521 C22.208,30.9341 23.663,43.0351 23.663,43.0351 C23.816,44.3381 24.889,45.2571 26.19,45.3331 L29.637,45.3331 C30.939,45.3331 32.011,44.3381 32.165,43.0351 C32.165,43.0351 33.62,31.0121 33.62,26.9521 L33.62,13.2431 C31.729,11.5281 29.867,11.3681 27.875,11.3681 C25.884,11.3681 24.377,11.4501 22.131,13.2431 C22.191,13.1951 22.208,22.9701 22.208,26.9521 Z" id="Stroke-341" stroke-linejoin="round"></path>
                    <path d="M27.9521,25.1904 C29.6861,25.1904 31.0921,23.7854 31.0921,22.0504 C31.0921,20.3164 29.6861,18.9104 27.9521,18.9104 C26.2181,18.9104 24.8121,20.3164 24.8121,22.0504 C24.8121,23.7854 26.2181,25.1904 27.9521,25.1904 Z" id="Stroke-343" stroke-linejoin="round"></path>
                    <path d="M25.1948,31.0116 C26.9568,31.6996 28.9478,31.6996 30.7098,31.0116" id="Stroke-345" stroke-linejoin="round"></path>
                    <path d="M30.8623,27.5644 C29.1013,28.6364 26.8803,28.6364 25.1183,27.5644" id="Stroke-347" stroke-linejoin="round"></path>
                </g>
            </g>
        </g>
    </g>
</svg>