<?xml version="1.0" encoding="UTF-8"?>
<svg width="57px" height="58px" viewBox="0 0 57 58" version="1.1" xmlns="http://www.w3.org/2000/svg" xmlns:xlink="http://www.w3.org/1999/xlink">
    <!-- Generator: Sketch 51.1 (57501) - http://www.bohemiancoding.com/sketch -->
    <title>Group 3</title>
    <desc>Created with Sketch.</desc>
    <defs></defs>
    <g id="new" stroke="none" stroke-width="1" fill="none" fill-rule="evenodd" opacity="0.7">
        <g id="icons" transform="translate(-612.000000, -2690.000000)">
            <g id="Group-3" transform="translate(612.000000, 2691.000000)">
                <g id="internet_yandex_disk">
                    <g id="internet_games_wow_1-copy">
                        <path d="M55.7871,28.1835 C55.7871,43.3715 43.4741,55.6835 28.2871,55.6835 C13.0991,55.6835 0.7871,43.3715 0.7871,28.1835 C0.7871,12.9955 13.0991,0.6835 28.2871,0.6835 C43.4741,0.6835 55.7871,12.9955 55.7871,28.1835" id="Fill-247" stroke="#000000" stroke-width="1.5"></path>
                        <g id="yandex-disk_01" transform="translate(10.000000, 16.000000)">
                            <path d="M35.1,3.9 C29.4,0.6 19,4.6 14,7.1 C9.3,9.4 0.7,15 0.4,20.2 C0.3,22.3 2.6,23.1 4.5,23.6 C11.5,25.3 21.7,21.6 27.6,17.3 C29.2,16.1 30.2,15.2 31.6,13.8 C33,12.4 33.8,11.3 34.9,9.6 C36.1,7.5 36.5,5.7 35.1,3.9 Z M28.2,14.1 C26.5,17.1 19.5,20.5 15.4,21 C6.4,22.2 15.5,12.7 25.1,11.6 C27.1,11.3 29.5,11.8 28.2,14.1 Z" id="Shape" stroke="#000000"></path>
                            <path d="M14,7.1 C19,4.6 29.4,0.6 35.2,3.9 C33.4,0.8 25.6,1.6 23.6,1.2 C19.7,0.4 17.1,-1.3 11.4,1.8 C7.4,4 6.7,7.6 5,10.2 C4.4,11.2 2.7,12.8 1.7,14.4 C1.2,15.3 0.9,15.9 0.5,16.9 C0.1,17.9 1.77635684e-15,18.9 0.4,20 C0.4,20 0.5,20.1 0.5,20.2 C0.7,15 9.3,9.4 14,7.1 Z" id="Shape" fill="#000000" fill-rule="nonzero"></path>
                        </g>
                    </g>
                </g>
            </g>
        </g>
    </g>
</svg>