<svg viewBox="0 0 50 42" class="rt-icon" xmlns="http://www.w3.org/2000/svg">
  <g stroke="#FFF" stroke-width="1.5" fill="none" fill-rule="evenodd" stroke-linecap="round" stroke-linejoin="round">
    <path d="M4.7 29.9c.1-.6-.3-1.2-.9-1.3H1.2v11.8h2.1c.6.1 1.2-.3 1.3-.9V29.9h.1zM4.7 35.9h7.2c2 0 3.8-1.2 4.7-3l2.1-6.3"/>
    <path d="M4.7 32.9h7.2c.6 0 1.2-.3 1.7-.8l2.5-6.8M39.8 21.5c-.8.8-3 .8-4.2.4L5.1 10.5c-1.3-.4-1.7-2.1-1.3-3.4L5 3.3C5.5 2 7 1.2 8.4 1.6L47.8 16c1.3.4 1.3 1.3 0 1.7l-8 3.8z"/>
    <path d="M42.3 20.6L40.1 27c-.8 1.7-2.5 2.5-4.2 1.7L3.4 16.8c-1.4-.3-2.3-1.7-2-3.1.1-.3.2-.5.3-.7l3.4-9.3M43.1 20.2l2.1.8-2.1 6.8h-.4l-2.6-.8"/>
    <path d="M22.4 24c-.7 1.5-2.2 2.5-3.8 2.5-2-.1-3.7-1.8-3.8-3.8 0-.8.4-1.3.4-1.7"/>
  </g>
</svg>
