<svg viewBox="0 0 35 24" class="rt-icon" xmlns="http://www.w3.org/2000/svg">
  <g stroke="#FFF" stroke-width="1.5" fill="none" fill-rule="evenodd" stroke-linecap="round" stroke-linejoin="round">
    <path d="M7.1025 22.4804h-1.326c-2.582 0-4.676-2.373-4.676-5.234-.07-2.303 1.396-4.467 3.629-5.164-.069-.49-.069-.978-.069-1.466 0-5.095 3.698-9.213 8.234-9.213 3.699 0 6.84 2.723 7.817 6.56.907-.837 2.094-1.255 3.28-1.255 2.722 0 4.955 2.302 5.234 5.234 2.583 0 4.676 2.372 4.676 5.233 0 2.862-2.093 5.235-4.676 5.235h-1.605M12.9648 22.4101h8.654M17.292 21.7822v-11.026"/>
    <path d="M12.9648 15.082l4.327-4.326 4.327 4.326"/>
  </g>
</svg>
