<?xml version="1.0" standalone="no"?>
<!DOCTYPE svg PUBLIC "-//W3C//DTD SVG 1.1//EN" "http://www.w3.org/Graphics/SVG/1.1/DTD/svg11.dtd" >
<svg xmlns="http://www.w3.org/2000/svg">
    <defs>
        <font id="BasisGrotesquePro-Bold">
            <font-face font-family="BasisGrotesquePro-Bold"
                       units-per-em="1000"
                       ascent="934"
                       descent="-218"
                       bbox="-52 -314 1118 934"
                    />
            <missing-glyph horiz-adv-x="0" />
            
            <glyph glyph-name="!" unicode="&#x21;" horiz-adv-x="205" d=" M73,457 L73,700 L205,700 L205,457 L189,208 L89,208 M73,0 L73,138 L205,138 L205,0"/> 
            <glyph glyph-name="&quot;" unicode="&#x22;" horiz-adv-x="343" d=" M51,621 L51,700 L171,700 L171,621 L158,454 L64,454 M223,621 L223,700 L343,700 L343,621 L330,454 L236,454"/> 
            <glyph glyph-name="#" unicode="&#x23;" horiz-adv-x="625" d=" M574,700 L536,496 L625,496 L625,402 L519,402 L500,298 L605,298 L605,204 L483,204 L446,0 L336,0 L373,204 L244,204 L206,0 L96,0 L134,204 L45,204 L45,298 L151,298 L170,402 L65,402 L65,496 L187,496 L224,700 L334,700 L297,496 L426,496 L464,700 M280,402 L261,298 L390,298 L409,402"/> 
            <glyph glyph-name="$" unicode="&#x24;" horiz-adv-x="599" d=" M280,-100 L280,-10 Q181,4 121.5,62.5 Q62,121 44,210 L160,269 Q184,137 280,109 L280,315 Q185,336 129.5,388 Q74,440 74,522 Q74,600 130,651 Q186,702 280,712 L280,800 L384,800 L384,708 Q532,682 587,534 L483,474 Q454,561 384,590 L384,413 Q493,388 546,336.5 Q599,285 599,201 Q599,121 541,61 Q483,1 384,-11 L384,-100 M467,196 Q467,257 384,288 L384,107 Q423,116 445,139.5 Q467,163 467,196 M200,525 Q200,471 280,440 L280,599 Q200,586 200,525"/> 
            <glyph glyph-name="%" unicode="&#x25;" horiz-adv-x="832" d=" M43,464 Q43,614 92,664 Q141,714 217,714 Q293,714 342,664 Q391,614 391,539 Q391,464 342,414 Q293,364 217,364 Q141,364 43,464 M135,578 Q135,500 158.5,475 Q182,450 217,450 Q252,450 275.5,475 Q299,500 299,539 Q299,578 275.5,603 Q252,628 217,628 Q182,628 135,578 M484,86 Q484,236 533,286 Q582,336 658,336 Q734,336 783,286 Q832,236 832,161 Q832,86 783,36 Q734,-14 658,-14 Q582,-14 484,86 M576,200 Q576,122 599.5,97 Q623,72 658,72 Q693,72 716.5,97 Q740,122 740,161 Q740,200 716.5,225 Q693,250 658,250 Q623,250 576,200 M256,-7 L184,42 L619,707 L691,658"/> 
            <glyph glyph-name="&amp;" unicode="&#x26;" horiz-adv-x="628" d=" M628,0 L484,0 L453,41 Q379,-14 276,-14 Q177,-14 114,46.5 Q51,107 51,204 Q51,329 182,409 Q138,481 138,543 Q138,619 188.5,666.5 Q239,714 314,714 Q390,714 437.5,674.5 Q485,635 485,569 Q485,460 336,384 L464,216 Q492,274 506,356 L604,300 Q580,197 533,125 M295,96 Q347,96 391,125 L240,328 Q177,279 177,210 Q177,159 210.5,127.5 Q244,96 295,96 M248,547 Q248,506 280,458 Q335,485 357,507.5 Q379,530 379,558 Q379,586 360,602 Q341,618 314,618 Q286,618 267,599.5 Q248,581 248,547"/> 
            <glyph glyph-name="'" unicode="&#x27;" horiz-adv-x="171" d=" M51,621 L51,700 L171,700 L171,621 L158,454 L64,454"/> 
            <glyph glyph-name="(" unicode="&#x28;" horiz-adv-x="284" d=" M284,-148 L171,-148 Q63,44 63,276 Q63,508 171,700 L284,700 Q244,627 217.5,504 Q191,381 191,276 Q191,171 217.5,48 Q244,-75 284,-148"/> 
            <glyph glyph-name=")" unicode="&#x29;" horiz-adv-x="297" d=" M189,-148 L76,-148 Q116,-75 142.5,48 Q169,171 169,276 Q169,381 142.5,504 Q116,627 76,700 L189,700 Q297,508 297,276 Q297,44 189,-148"/> 
            <glyph glyph-name="*" unicode="&#x2A;" horiz-adv-x="392" d=" M273,700 L253,590 L338,663 L392,569 L286,532 L392,495 L338,401 L253,474 L273,364 L165,364 L185,474 L100,401 L46,495 L152,532 L46,569 L100,663 L185,590 L165,700"/> 
            <glyph glyph-name="+" unicode="&#x2B;" horiz-adv-x="524" d=" M40,314 L40,416 L231,416 L231,607 L333,607 L333,416 L524,416 L524,314 L333,314 L333,123 L231,123 L231,314"/> 
            <glyph glyph-name="," unicode="&#x2C;" horiz-adv-x="174" d=" M40,0 L40,134 L174,134 L174,0 L76,-151 L47,-140 L85,0"/> 
            <glyph glyph-name="-" unicode="&#x2D;" horiz-adv-x="428" d=" M40,260 L40,362 L428,362 L428,260"/> 
            <glyph glyph-name="." unicode="&#x2E;" horiz-adv-x="174" d=" M40,0 L40,134 L174,134 L174,0"/> 
            <glyph glyph-name="/" unicode="&#x2F;" horiz-adv-x="533" d=" M5,-30 L405,730 L533,730 L133,-30"/> 
            <glyph glyph-name="0" unicode="&#x30;" horiz-adv-x="677" d=" M677,514 Q677,186 588.5,86 Q500,-14 361,-14 Q222,-14 133.5,86 Q45,186 45,350 Q45,514 133.5,614 Q222,714 361,714 Q500,714 677,514 M279,108 Q443,108 494,173 Q545,238 545,350 Q545,462 494,527 Q443,592 361,592 Q279,592 228,527 Q177,462 177,350 Q177,238 279,108"/> 
            <glyph glyph-name="1" unicode="&#x31;" horiz-adv-x="325" d=" M46,490 L46,612 Q105,612 141.5,633.5 Q178,655 201,700 L325,700 L325,0 L193,0 L193,537 Q145,490 46,490"/> 
            <glyph glyph-name="2" unicode="&#x32;" horiz-adv-x="523" d=" M47,94 L313,355 Q358,399 376.5,430 Q395,461 395,498 Q395,543 366,570.5 Q337,598 288,598 Q239,598 209,571.5 Q179,545 179,499 Q179,474 188,451 L60,427 Q47,460 47,506 Q47,591 113.5,652.5 Q180,714 288,714 Q400,714 461.5,658 Q523,602 523,513 Q523,444 496.5,392.5 Q470,341 401,275 L244,122 L523,122 L523,0 L47,0"/> 
            <glyph glyph-name="3" unicode="&#x33;" horiz-adv-x="556" d=" M61,262 L186,232 Q182,220 182,203 Q182,155 215,126.5 Q248,98 301,98 Q357,98 390.5,127 Q424,156 424,209 Q424,269 375.5,297 Q327,325 245,325 L245,423 Q317,423 356,449.5 Q395,476 395,524 Q395,561 368.5,583.5 Q342,606 297,606 Q253,606 224,584 Q195,562 195,525 Q195,505 201,491 L79,464 Q69,494 69,519 Q69,599 132,656.5 Q195,714 298,714 Q408,714 465.5,666.5 Q523,619 523,542 Q523,488 494,446.5 Q465,405 420,385 Q480,365 518,320.5 Q556,276 556,209 Q556,107 485,46.5 Q414,-14 301,-14 Q183,-14 116.5,48 Q50,110 50,200 Q50,235 61,262"/> 
            <glyph glyph-name="4" unicode="&#x34;" horiz-adv-x="585" d=" M41,116 L41,238 L382,700 L514,700 L514,238 L585,238 L585,116 L514,116 L514,0 L382,0 L382,116 M382,514 L181,238 L382,238"/> 
            <glyph glyph-name="5" unicode="&#x35;" horiz-adv-x="566" d=" M55,318 L88,700 L522,700 L522,578 L180,578 L163,417 Q191,447 234,462.5 Q277,478 319,478 Q437,478 501.5,413.5 Q566,349 566,240 Q566,131 491.5,58.5 Q417,-14 298,-14 Q184,-14 116.5,45 Q49,104 49,186 Q49,213 59,241 L185,211 Q181,197 181,185 Q181,143 213.5,120.5 Q246,98 299,98 Q360,98 397,135.5 Q434,173 434,240 Q434,303 397,339.5 Q360,376 299,376 Q257,376 220,353.5 Q183,331 158,291"/> 
            <glyph glyph-name="6" unicode="&#x36;" horiz-adv-x="578" d=" M539,484 L417,510 Q424,528 424,543 Q424,577 398.5,594.5 Q373,612 332,612 Q262,612 220,547 Q178,482 170,385 Q240,458 339,458 Q444,458 511,392.5 Q578,327 578,225 Q578,123 504,54.5 Q430,-14 318,-14 Q193,-14 119,71.5 Q45,157 45,309 Q45,439 86,539 Q122,623 185,668.5 Q248,714 332,714 Q432,714 491,666 Q550,618 550,540 Q550,509 539,484 M373,350 Q259,350 221,315.5 Q183,281 183,222 Q183,163 221,128.5 Q259,94 316,94 Q373,94 411.5,128.5 Q450,163 450,222 Q450,281 373,350"/> 
            <glyph glyph-name="7" unicode="&#x37;" horiz-adv-x="508" d=" M508,584 L246,0 L114,0 L374,578 L36,578 L36,700 L508,700"/> 
            <glyph glyph-name="8" unicode="&#x38;" horiz-adv-x="548" d=" M412,-14 Q182,-14 114,43 Q46,100 46,194 Q46,257 78,304 Q110,351 166,375 Q67,425 67,530 Q67,611 131,662.5 Q195,714 297,714 Q399,714 463,662.5 Q527,611 527,530 Q527,425 428,375 Q484,351 516,304 Q548,257 548,194 Q548,100 412,-14 M244,94 Q350,94 385,125.5 Q420,157 420,205 Q420,253 385,284.5 Q350,316 297,316 Q244,316 209,284.5 Q174,253 174,205 Q174,157 244,94 M193,566 Q193,476 223.5,450 Q254,424 297,424 Q340,424 370.5,450 Q401,476 401,521 Q401,566 370.5,591 Q340,616 297,616 Q254,616 193,566"/> 
            <glyph glyph-name="9" unicode="&#x39;" horiz-adv-x="583" d=" M85,216 L209,189 Q202,171 202,157 Q202,124 230,106 Q258,88 300,88 Q366,88 408,148 Q450,208 458,315 Q402,242 297,242 Q188,242 119,307.5 Q50,373 50,475 Q50,578 123,646 Q196,714 310,714 Q442,714 512.5,630 Q583,546 583,391 Q583,263 541,156 Q509,74 445.5,30 Q382,-14 296,-14 Q192,-14 134,36 Q76,86 76,163 Q76,191 85,216 M258,350 Q368,350 406.5,384.5 Q445,419 445,478 Q445,537 406.5,571.5 Q368,606 313,606 Q258,606 218,571 Q178,536 178,478 Q178,420 258,350"/> 
            <glyph glyph-name=":" unicode="&#x3A;" horiz-adv-x="174" d=" M40,350 L40,484 L174,484 L174,350 M40,0 L40,134 L174,134 L174,0"/> 
            <glyph glyph-name=";" unicode="&#x3B;" horiz-adv-x="174" d=" M40,350 L40,484 L174,484 L174,350 M40,0 L40,134 L174,134 L174,0 L73,-162 L44,-151 L85,0"/> 
            <glyph glyph-name="&lt;" unicode="&#x3C;" horiz-adv-x="477" d=" M40,261 L40,359 L477,573 L477,449 L178,310 L477,171 L477,46"/> 
            <glyph glyph-name="=" unicode="&#x3D;" horiz-adv-x="524" d=" M40,194 L40,296 L524,296 L524,194 M40,394 L40,496 L524,496 L524,394"/> 
            <glyph glyph-name="&gt;" unicode="&#x3E;" horiz-adv-x="486" d=" M486,359 L486,261 L49,46 L49,171 L348,310 L49,449 L49,573"/> 
            <glyph glyph-name="?" unicode="&#x3F;" horiz-adv-x="504" d=" M328,208 L202,208 L202,224 Q202,270 220.5,303.5 Q239,337 288,376 Q339,417 359.5,447.5 Q380,478 380,515 Q380,554 351,577 Q322,600 276,600 Q228,600 195.5,573 Q163,546 163,501 Q163,482 170,464 L55,440 Q41,470 41,512 Q41,591 105.5,652.5 Q170,714 273,714 Q380,714 442,662 Q504,610 504,524 Q504,464 477,418.5 Q450,373 375,309 Q348,286 338,263.5 Q328,241 328,208 M199,0 L199,138 L331,138 L331,0"/> 
            <glyph glyph-name="@" unicode="&#x40;" horiz-adv-x="908" d=" M652,-5 L700,-86 Q596,-152 458,-152 Q376,-152 303.5,-127 Q231,-102 172,-52 Q113,-2 79,80.5 Q45,163 45,269 Q45,456 174.5,585 Q304,714 502,714 Q566,714 624.5,700 Q683,686 735,655.5 Q787,625 825.5,582 Q864,539 886,477 Q908,415 908,341 Q908,207 836,117 Q764,27 660,27 Q616,27 589,48 Q562,69 562,103 Q562,108 563,115 Q540,77 500,52 Q460,27 410,27 Q327,27 277.5,86 Q228,145 228,241 Q228,310 251,368 Q274,426 310.5,463 Q347,500 390,520 Q433,540 476,540 Q568,540 602,475 L610,524 L706,524 L650,162 Q649,153 649,146 Q649,112 680,112 Q726,112 764,173.5 Q802,235 802,340 Q802,467 724,544.5 Q646,622 495,622 Q351,622 251,520 Q151,418 151,262 Q151,110 240,25 Q329,-60 462,-60 Q572,-60 652,-5 M425,112 Q487,112 532.5,175 Q578,238 578,336 Q578,453 489,453 Q428,453 381,390 Q334,327 334,235 Q334,176 359.5,144 Q385,112 425,112"/> 
            <glyph glyph-name="A" unicode="&#x41;" horiz-adv-x="697" d=" M5,0 L288,700 L414,700 L697,0 L556,0 L486,183 L216,183 L146,0 M325,469 L261,301 L441,301 L377,469 Q364,503 351,545"/> 
            <glyph glyph-name="B" unicode="&#x42;" horiz-adv-x="614" d=" M73,0 L73,700 L361,700 Q468,700 526.5,655 Q585,610 585,529 Q585,478 557.5,439.5 Q530,401 488,380 Q614,330 614,210 Q614,114 542.5,57 Q471,0 366,0 M205,312 L205,118 L358,118 Q482,118 482,215 Q482,312 358,312 M205,584 L205,428 L351,428 Q406,428 431.5,447 Q457,466 457,506 Q457,546 431.5,565 Q406,584 351,584"/> 
            <glyph glyph-name="C" unicode="&#x43;" horiz-adv-x="720" d=" M617,248 L720,174 Q654,73 584,29.5 Q514,-14 404,-14 Q248,-14 147,87 Q46,188 46,350 Q46,511 149.5,612.5 Q253,714 409,714 Q516,714 598,663.5 Q680,613 716,531 L609,454 Q544,592 405,592 Q310,592 245,525.5 Q180,459 180,350 Q180,244 245,176 Q310,108 405,108 Q542,108 617,248"/> 
            <glyph glyph-name="D" unicode="&#x44;" horiz-adv-x="665" d=" M73,0 L73,700 L284,700 Q455,700 560,610 Q665,520 665,350 Q665,180 560,90 Q455,0 284,0 M293,122 Q403,122 467,180.5 Q531,239 531,350 Q531,461 467,519.5 Q403,578 293,578 L205,578 L205,122"/> 
            <glyph glyph-name="E" unicode="&#x45;" horiz-adv-x="559" d=" M73,0 L73,700 L556,700 L556,582 L205,582 L205,421 L528,421 L528,303 L205,303 L205,118 L559,118 L559,0"/> 
            <glyph glyph-name="F" unicode="&#x46;" horiz-adv-x="568" d=" M73,0 L73,700 L568,700 L568,582 L205,582 L205,401 L538,401 L538,283 L205,283 L205,0"/> 
            <glyph glyph-name="G" unicode="&#x47;" horiz-adv-x="721" d=" M634,0 L606,96 Q536,-14 393,-14 Q245,-14 145.5,89 Q46,192 46,350 Q46,508 151.5,611 Q257,714 409,714 Q512,714 593.5,667.5 Q675,621 715,543 L616,471 Q550,598 407,598 Q312,598 246,530 Q180,462 180,350 Q180,244 241.5,176 Q303,108 397,108 Q482,108 530,152.5 Q578,197 589,266 L363,266 L363,374 L721,374 L721,0"/> 
            <glyph glyph-name="H" unicode="&#x48;" horiz-adv-x="643" d=" M73,0 L73,700 L205,700 L205,418 L511,418 L511,700 L643,700 L643,0 L511,0 L511,296 L205,296 L205,0"/> 
            <glyph glyph-name="I" unicode="&#x49;" horiz-adv-x="205" d=" M73,0 L73,700 L205,700 L205,0"/> 
            <glyph glyph-name="J" unicode="&#x4A;" horiz-adv-x="500" d=" M500,700 L500,214 Q500,112 439.5,49 Q379,-14 271,-14 Q163,-14 102.5,48.5 Q42,111 42,224 L174,210 Q176,108 271,108 Q318,108 343,137.5 Q368,167 368,216 L368,700"/> 
            <glyph glyph-name="K" unicode="&#x4B;" horiz-adv-x="639" d=" M623,700 L375,440 L639,0 L485,0 L280,342 L205,263 L205,0 L73,0 L73,700 L205,700 L205,430 L260,492 L456,700"/> 
            <glyph glyph-name="L" unicode="&#x4C;" horiz-adv-x="556" d=" M73,0 L73,700 L205,700 L205,122 L556,122 L556,0"/> 
            <glyph glyph-name="M" unicode="&#x4D;" horiz-adv-x="797" d=" M73,0 L73,700 L212,700 L435,144 L658,700 L797,700 L797,0 L669,0 L669,428 L635,321 L498,0 L372,0 L235,321 Q207,410 201,428 L201,0"/> 
            <glyph glyph-name="N" unicode="&#x4E;" horiz-adv-x="657" d=" M73,0 L73,700 L207,700 L499,255 Q523,215 529,200 L529,700 L657,700 L657,0 L523,0 L231,448 Q207,488 201,503 L201,0"/> 
            <glyph glyph-name="O" unicode="&#x4F;" horiz-adv-x="766" d=" M766,507 Q766,193 663.5,89.5 Q561,-14 406,-14 Q251,-14 148.5,89.5 Q46,193 46,350 Q46,507 148.5,610.5 Q251,714 406,714 Q561,714 766,507 M308,108 Q504,108 568,173.5 Q632,239 632,350 Q632,461 568,526.5 Q504,592 406,592 Q308,592 244,526.5 Q180,461 180,350 Q180,239 308,108"/> 
            <glyph glyph-name="P" unicode="&#x50;" horiz-adv-x="653" d=" M73,0 L73,700 L391,700 Q512,700 582.5,640.5 Q653,581 653,472 Q653,363 582.5,303.5 Q512,244 391,244 L205,244 L205,0 M205,582 L205,362 L387,362 Q454,362 487.5,391.5 Q521,421 521,472 Q521,523 487.5,552.5 Q454,582 387,582"/> 
            <glyph glyph-name="Q" unicode="&#x51;" horiz-adv-x="766" d=" M766,350 Q766,234 707,144 Q648,54 548,13 Q570,-24 634,-82 L539,-167 Q470,-98 421,-14 L406,-14 Q251,-14 148.5,89.5 Q46,193 46,350 Q46,507 148.5,610.5 Q251,714 406,714 Q561,714 663.5,610.5 Q766,507 766,350 M308,108 Q504,108 568,173.5 Q632,239 632,350 Q632,461 568,526.5 Q504,592 406,592 Q308,592 244,526.5 Q180,461 180,350 Q180,239 308,108"/> 
            <glyph glyph-name="R" unicode="&#x52;" horiz-adv-x="630" d=" M479,0 L317,284 L205,284 L205,0 L73,0 L73,700 L372,700 Q487,700 554,646.5 Q621,593 621,502 Q621,353 461,296 L630,0 M205,584 L205,400 L372,400 Q489,400 489,492 Q489,584 372,584"/> 
            <glyph glyph-name="S" unicode="&#x53;" horiz-adv-x="599" d=" M201,525 Q201,485 241,459.5 Q281,434 370,416 Q486,392 542.5,340 Q599,288 599,201 Q599,112 527.5,49 Q456,-14 338,-14 Q213,-14 139,47 Q65,108 44,210 L160,269 Q191,102 337,102 Q396,102 431.5,128 Q467,154 467,196 Q467,242 425.5,268 Q384,294 294,312 Q193,332 134,384.5 Q75,437 75,522 Q75,609 143,661.5 Q211,714 321,714 Q521,714 587,534 L483,474 Q441,598 318,598 Q268,598 234.5,579.5 Q201,561 201,525"/> 
            <glyph glyph-name="T" unicode="&#x54;" horiz-adv-x="576" d=" M16,578 L16,700 L576,700 L576,578 L362,578 L362,0 L230,0 L230,578"/> 
            <glyph glyph-name="U" unicode="&#x55;" horiz-adv-x="637" d=" M637,700 L637,265 Q637,134 557,60 Q477,-14 350,-14 Q223,-14 143,60 Q63,134 63,265 L63,700 L195,700 L195,278 Q195,197 236.5,152.5 Q278,108 350,108 Q422,108 463.5,152.5 Q505,197 505,278 L505,700"/> 
            <glyph glyph-name="V" unicode="&#x56;" horiz-adv-x="656" d=" M262,0 L2,700 L145,700 L303,253 Q318,201 329,164 L355,253 L513,700 L656,700 L396,0"/> 
            <glyph glyph-name="W" unicode="&#x57;" horiz-adv-x="937" d=" M198,0 L5,700 L144,700 L255,258 Q267,207 272,182 L289,259 L403,700 L539,700 L653,259 Q665,207 670,182 L687,258 L798,700 L937,700 L744,0 L602,0 L471,508 L340,0"/> 
            <glyph glyph-name="X" unicode="&#x58;" horiz-adv-x="613" d=" M175,700 L308,478 L448,700 L582,700 L382,381 L613,0 L472,0 L308,270 L145,0 L3,0 L237,376 L34,700"/> 
            <glyph glyph-name="Y" unicode="&#x59;" horiz-adv-x="598" d=" M367,274 L367,0 L235,0 L235,274 L4,700 L149,700 L279,451 Q292,424 301,400 L323,451 L453,700 L598,700"/> 
            <glyph glyph-name="Z" unicode="&#x5A;" horiz-adv-x="577" d=" M48,578 L48,700 L560,700 L560,578 L194,122 L577,122 L577,0 L35,0 L35,120 L403,578"/> 
            <glyph glyph-name="[" unicode="&#x5B;" horiz-adv-x="302" d=" M73,-150 L73,700 L302,700 L302,582 L199,582 L199,-32 L302,-32 L302,-150"/> 
            <glyph glyph-name="\" unicode="&#x5C;" horiz-adv-x="533" d=" M133,730 L533,-30 L405,-30 L5,730"/> 
            <glyph glyph-name="]" unicode="&#x5D;" horiz-adv-x="274" d=" M274,700 L274,-150 L45,-150 L45,-32 L148,-32 L148,582 L45,582 L45,700"/> 
            <glyph glyph-name="^" unicode="&#x5E;" horiz-adv-x="480" d=" M194,700 L304,700 L480,430 L360,430 L249,602 L138,430 L18,430"/> 
            <glyph glyph-name="_" unicode="&#x5F;" horiz-adv-x="505" d=" M7,-109 L7,-7 L505,-7 L505,-109"/> 
            <glyph glyph-name="`" unicode="&#x60;" horiz-adv-x="273" d=" M205,708 L273,550 L176,550 L52,708"/> 
            <glyph glyph-name="a" unicode="&#x61;" horiz-adv-x="528" d=" M528,0 L400,0 Q376,30 376,79 Q324,-14 210,-14 Q136,-14 89.5,28.5 Q43,71 43,141 Q43,212 92.5,252.5 Q142,293 220,305 L369,328 L369,347 Q369,422 278,422 Q236,422 212.5,406 Q189,390 189,366 Q189,360 191,354 L78,316 Q69,336 69,358 Q69,419 126,464.5 Q183,510 278,510 Q384,510 439.5,465 Q495,420 495,330 L495,123 Q495,48 528,0 M240,88 Q297,88 333,125.5 Q369,163 369,232 L369,241 L249,221 Q166,207 166,148 Q166,119 186,103.5 Q206,88 240,88"/> 
            <glyph glyph-name="b" unicode="&#x62;" horiz-adv-x="589" d=" M63,0 L63,700 L189,700 L189,435 Q248,510 352,510 Q455,510 522,439.5 Q589,369 589,248 Q589,128 520,57 Q451,-14 350,-14 Q244,-14 189,61 L189,0 M260,104 Q382,104 421.5,144.5 Q461,185 461,248 Q461,311 421.5,351.5 Q382,392 321,392 Q260,392 220.5,351.5 Q181,311 181,248 Q181,185 260,104"/> 
            <glyph glyph-name="c" unicode="&#x63;" horiz-adv-x="528" d=" M426,195 L528,129 Q456,-14 296,-14 Q184,-14 109.5,58.5 Q35,131 35,248 Q35,364 111,437 Q187,510 296,510 Q378,510 437.5,474.5 Q497,439 523,375 L420,307 Q381,392 295,392 Q238,392 200.5,352.5 Q163,313 163,248 Q163,182 200,143 Q237,104 295,104 Q343,104 373.5,126.5 Q404,149 426,195"/> 
            <glyph glyph-name="d" unicode="&#x64;" horiz-adv-x="561" d=" M561,700 L561,0 L435,0 L435,70 Q414,33 373.5,9.5 Q333,-14 279,-14 Q174,-14 104.5,57 Q35,128 35,248 Q35,366 108.5,438 Q182,510 279,510 Q389,510 435,435 L435,700 M243,104 Q363,104 403,144.5 Q443,185 443,248 Q443,311 403,351.5 Q363,392 303,392 Q243,392 203,351.5 Q163,311 163,248 Q163,185 243,104"/> 
            <glyph glyph-name="e" unicode="&#x65;" horiz-adv-x="538" d=" M538,218 L156,218 Q162,161 199,127.5 Q236,94 292,94 Q384,94 429,185 L523,131 Q453,-14 290,-14 Q184,-14 109.5,59.5 Q35,133 35,248 Q35,364 110.5,437 Q186,510 296,510 Q402,510 470,440.5 Q538,371 538,262 M292,414 Q243,414 206.5,384.5 Q170,355 156,310 L422,310 Q413,359 379,386.5 Q345,414 292,414"/> 
            <glyph glyph-name="f" unicode="&#x66;" horiz-adv-x="330" d=" M19,394 L19,496 L91,496 L91,566 Q91,655 139.5,702.5 Q188,750 267,750 Q301,750 330,739 L308,628 Q290,634 273,634 Q217,634 217,569 L217,496 L325,496 L325,394 L217,394 L217,0 L91,0 L91,394"/> 
            <glyph glyph-name="g" unicode="&#x67;" horiz-adv-x="541" d=" M69,9 L189,-28 Q183,-45 183,-62 Q183,-87 212,-102.5 Q241,-118 293,-118 Q415,-118 415,18 L415,82 Q370,8 274,8 Q174,8 104.5,79 Q35,150 35,259 Q35,368 106,439 Q177,510 275,510 Q369,510 415,442 L415,496 L541,496 L541,34 Q541,-89 474,-153.5 Q407,-218 293,-218 Q182,-218 118.5,-172.5 Q55,-127 55,-48 Q55,-16 69,9 M288,400 Q233,400 195,362.5 Q157,325 157,259 Q157,193 195,155.5 Q233,118 288,118 Q344,118 383,156 Q422,194 422,259 Q422,324 383,362 Q344,400 288,400"/> 
            <glyph glyph-name="h" unicode="&#x68;" horiz-adv-x="537" d=" M537,335 L537,0 L411,0 L411,286 Q411,336 385.5,364 Q360,392 311,392 Q258,392 223.5,353 Q189,314 189,252 L189,0 L63,0 L63,700 L189,700 L189,418 Q248,510 361,510 Q442,510 489.5,462.5 Q537,415 537,335"/> 
            <glyph glyph-name="i" unicode="&#x69;" horiz-adv-x="194" d=" M62,0 L62,496 L188,496 L188,0 M56,568 L56,700 L194,700 L194,568"/> 
            <glyph glyph-name="j" unicode="&#x6A;" horiz-adv-x="194" d=" M-49,-201 L-33,-87 Q-14,-95 6,-95 Q36,-95 49,-77.5 Q62,-60 62,-24 L62,496 L188,496 L188,-38 Q188,-122 147.5,-166.5 Q107,-211 26,-211 Q-13,-211 -49,-201 M56,568 L56,700 L194,700 L194,568"/> 
            <glyph glyph-name="k" unicode="&#x6B;" horiz-adv-x="520" d=" M189,700 L189,346 L340,496 L496,496 L315,319 L520,0 L375,0 L227,232 L189,195 L189,0 L63,0 L63,700"/> 
            <glyph glyph-name="l" unicode="&#x6C;" horiz-adv-x="189" d=" M63,0 L63,700 L189,700 L189,0"/> 
            <glyph glyph-name="m" unicode="&#x6D;" horiz-adv-x="789" d=" M789,347 L789,0 L663,0 L663,307 Q663,400 585,400 Q542,400 515.5,368 Q489,336 489,276 L489,0 L363,0 L363,305 Q363,400 283,400 Q244,400 216.5,367.5 Q189,335 189,278 L189,0 L63,0 L63,496 L189,496 L189,430 Q241,510 333,510 Q437,510 471,425 Q524,510 629,510 Q705,510 747,466 Q789,422 789,347"/> 
            <glyph glyph-name="n" unicode="&#x6E;" horiz-adv-x="531" d=" M531,338 L531,0 L405,0 L405,286 Q405,392 304,392 Q254,392 221.5,353 Q189,314 189,252 L189,0 L63,0 L63,496 L189,496 L189,416 Q250,510 357,510 Q436,510 483.5,463 Q531,416 531,338"/> 
            <glyph glyph-name="o" unicode="&#x6F;" horiz-adv-x="577" d=" M577,371 Q577,125 496.5,55.5 Q416,-14 306,-14 Q196,-14 115.5,55.5 Q35,125 35,248 Q35,371 115.5,440.5 Q196,510 306,510 Q416,510 577,371 M248,104 Q364,104 406.5,143.5 Q449,183 449,248 Q449,313 406.5,352.5 Q364,392 306,392 Q248,392 205.5,352.5 Q163,313 163,248 Q163,183 248,104"/> 
            <glyph glyph-name="p" unicode="&#x70;" horiz-adv-x="589" d=" M63,-204 L63,496 L189,496 L189,425 Q215,463 261,486.5 Q307,510 361,510 Q458,510 523.5,439 Q589,368 589,248 Q589,131 520,58.5 Q451,-14 350,-14 Q249,-14 189,61 L189,-204 M381,392 Q261,392 221,350.5 Q181,309 181,248 Q181,187 221,145.5 Q261,104 321,104 Q381,104 421,145.5 Q461,187 461,248 Q461,309 381,392"/> 
            <glyph glyph-name="q" unicode="&#x71;" horiz-adv-x="561" d=" M561,496 L561,-204 L435,-204 L435,66 Q385,-14 275,-14 Q177,-14 106,59 Q35,132 35,248 Q35,366 107,438 Q179,510 275,510 Q331,510 373,487.5 Q415,465 435,425 L435,496 M363,392 Q243,392 203,350.5 Q163,309 163,248 Q163,187 203,145.5 Q243,104 303,104 Q363,104 403,145.5 Q443,187 443,248 Q443,309 363,392"/> 
            <glyph glyph-name="r" unicode="&#x72;" horiz-adv-x="370" d=" M370,504 L350,385 Q331,392 309,392 Q254,392 221.5,350.5 Q189,309 189,245 L189,0 L63,0 L63,496 L189,496 L189,417 Q235,510 327,510 Q350,510 370,504"/> 
            <glyph glyph-name="s" unicode="&#x73;" horiz-adv-x="463" d=" M180,374 Q180,328 297,304 Q384,286 423.5,249.5 Q463,213 463,151 Q463,79 410,32.5 Q357,-14 267,-14 Q181,-14 124.5,28 Q68,70 40,135 L141,199 Q158,150 190.5,121 Q223,92 269,92 Q300,92 323.5,106.5 Q347,121 347,147 Q347,171 322,185.5 Q297,200 241,211 Q68,245 68,366 Q68,433 122,471.5 Q176,510 253,510 Q332,510 379.5,480 Q427,450 458,385 L367,331 Q333,418 255,418 Q180,418 180,374"/> 
            <glyph glyph-name="t" unicode="&#x74;" horiz-adv-x="344" d=" M24,394 L24,496 L101,496 L101,630 L227,630 L227,496 L335,496 L335,394 L227,394 L227,168 Q227,98 290,98 Q312,98 332,104 L344,0 Q306,-14 260,-14 Q101,-14 101,144 L101,394"/> 
            <glyph glyph-name="u" unicode="&#x75;" horiz-adv-x="531" d=" M63,188 L63,496 L189,496 L189,217 Q189,104 290,104 Q342,104 373.5,142 Q405,180 405,240 L405,496 L531,496 L531,0 L405,0 L405,78 Q355,-14 247,-14 Q166,-14 114.5,39 Q63,92 63,188"/> 
            <glyph glyph-name="v" unicode="&#x76;" horiz-adv-x="527" d=" M527,496 L326,0 L208,0 L7,496 L141,496 L267,160 L393,496"/> 
            <glyph glyph-name="w" unicode="&#x77;" horiz-adv-x="708" d=" M417,496 L506,164 L586,496 L708,496 L570,0 L448,0 L357,341 L266,0 L144,0 L6,496 L128,496 L208,164 L297,496"/> 
            <glyph glyph-name="x" unicode="&#x78;" horiz-adv-x="496" d=" M164,496 L247,363 L331,496 L477,496 L322,265 L496,0 L349,0 L247,163 L144,0 L-1,0 L180,262 L20,496"/> 
            <glyph glyph-name="y" unicode="&#x79;" horiz-adv-x="541" d=" M72,-200 L92,-83 Q114,-95 137,-95 Q176,-95 193,-48 L209,-4 L5,496 L148,496 L276,174 L398,496 L541,496 L305,-90 Q279,-154 239.5,-182.5 Q200,-211 141,-211 Q100,-211 72,-200"/> 
            <glyph glyph-name="z" unicode="&#x7A;" horiz-adv-x="460" d=" M181,102 L460,102 L460,0 L36,0 L36,102 L297,394 L47,394 L47,496 L443,496 L443,394"/> 
            <glyph glyph-name="{" unicode="&#x7B;" horiz-adv-x="350" d=" M48,224 L48,326 Q86,326 104.5,343 Q123,360 123,405 L123,513 Q123,612 168,656 Q213,700 302,700 L350,700 L350,582 L325,582 Q249,582 249,495 L249,388 Q249,339 232,314 Q215,289 180,275 Q215,261 232,236 Q249,211 249,162 L249,55 Q249,-32 325,-32 L350,-32 L350,-150 L302,-150 Q213,-150 168,-106 Q123,-62 123,37 L123,145 Q123,190 104.5,207 Q86,224 48,224"/> 
            <glyph glyph-name="|" unicode="&#x7C;" horiz-adv-x="195" d=" M73,-110 L73,740 L195,740 L195,-110"/> 
            <glyph glyph-name="}" unicode="&#x7D;" horiz-adv-x="347" d=" M347,326 L347,224 Q309,224 290.5,207 Q272,190 272,145 L272,37 Q272,-62 227,-106 Q182,-150 93,-150 L45,-150 L45,-32 L70,-32 Q146,-32 146,55 L146,162 Q146,211 163,236 Q180,261 215,275 Q180,289 163,314 Q146,339 146,388 L146,495 Q146,582 70,582 L45,582 L45,700 L93,700 Q182,700 227,656 Q272,612 272,513 L272,405 Q272,360 290.5,343 Q309,326 347,326"/> 
            <glyph glyph-name="~" unicode="&#x7E;" horiz-adv-x="421" d=" M163,317 Q136,317 136,292 Q136,281 143,269 L55,253 Q40,276 40,306 Q40,354 70,382 Q100,410 146,410 Q187,410 216.5,394 Q246,378 264.5,362.5 Q283,347 298,347 Q325,347 325,372 Q325,383 318,395 L406,411 Q421,388 421,356 Q421,309 391,281.5 Q361,254 315,254 Q274,254 244.5,270 Q215,286 196.5,301.5 Q178,317 163,317"/> 
            <glyph glyph-name="¡" unicode="&#xA1;" horiz-adv-x="205" d=" M205,39 L205,-204 L73,-204 L73,39 L89,288 L189,288 M205,496 L205,358 L73,358 L73,496"/> 
            <glyph glyph-name="¢" unicode="&#xA2;" horiz-adv-x="534" d=" M249,-110 L249,-9 Q156,8 98.5,77 Q41,146 41,248 Q41,348 100,417.5 Q159,487 249,504 L249,620 L349,620 L349,506 Q482,487 529,375 L426,307 Q398,366 349,384 L349,111 Q398,128 432,195 L534,129 Q474,8 349,-10 L349,-110 M169,248 Q169,146 249,113 L249,382 Q212,367 190.5,331.5 Q169,296 169,248"/> 
            <glyph glyph-name="£" unicode="&#xA3;" horiz-adv-x="537" d=" M28,397 L91,397 Q76,461 76,501 Q76,599 142.5,656.5 Q209,714 314,714 Q420,714 478.5,661.5 Q537,609 537,531 Q537,494 522,460 L406,480 Q415,504 415,528 Q415,563 387.5,585.5 Q360,608 311,608 Q262,608 232,580 Q202,552 202,499 Q202,457 217,397 L406,397 L406,299 L237,299 Q240,275 240,248 Q240,172 200,110 L530,110 L530,0 L60,0 L60,94 Q94,130 107.5,162 Q121,194 121,243 Q121,270 115,299 L28,299"/> 
            <glyph glyph-name="¤" unicode="&#xA4;" horiz-adv-x="594" d=" M548,416 Q548,284 516,231 L594,154 L522,82 L444,160 Q390,127 326,127 Q262,127 208,160 L130,82 L58,154 L136,231 Q104,284 104,350 Q104,416 136,469 L58,546 L130,618 L208,540 Q262,573 326,573 Q390,573 444,540 L522,618 L594,546 L516,469 M273,224 Q379,224 412.5,259 Q446,294 446,350 Q446,406 412.5,441 Q379,476 326,476 Q273,476 239.5,441 Q206,406 206,350 Q206,294 273,224"/> 
            <glyph glyph-name="¥" unicode="&#xA5;" horiz-adv-x="592" d=" M91,112 L91,214 L237,214 L237,274 L91,274 L91,376 L184,376 L14,700 L156,700 L279,451 Q294,421 303,397 L327,451 L450,700 L592,700 L422,376 L515,376 L515,274 L369,274 L369,214 L515,214 L515,112 L369,112 L369,0 L237,0 L237,112"/> 
            <glyph glyph-name="¦" unicode="&#xA6;" horiz-adv-x="195" d=" M195,386 L73,386 L73,740 L195,740 M73,244 L195,244 L195,-110 L73,-110"/> 
            <glyph glyph-name="§" unicode="&#xA7;" horiz-adv-x="478" d=" M56,335 Q56,392 102,433 Q60,475 60,543 Q60,621 117,667.5 Q174,714 258,714 Q336,714 392,676.5 Q448,639 478,575 L393,513 Q350,618 257,618 Q217,618 191.5,599 Q166,580 166,547 Q166,478 302,449 Q390,430 429.5,394.5 Q469,359 469,295 Q469,232 424,190 Q465,148 465,78 Q465,0 408,-46.5 Q351,-93 267,-93 Q111,-93 47,46 L132,108 Q176,3 268,3 Q308,3 333.5,22 Q359,41 359,74 Q359,144 223,172 Q144,188 100,230 Q56,272 56,335 M283,256 Q320,247 349,235 Q369,253 369,277 Q369,306 340,327 Q311,348 242,365 Q206,374 176,386 Q156,368 156,344 Q156,315 185,294 Q214,273 283,256"/> 
            <glyph glyph-name="¨" unicode="&#xA8;" horiz-adv-x="356" d=" M238,576 L238,700 L356,700 L356,576 M58,576 L58,700 L176,700 L176,576"/> 
            <glyph glyph-name="©" unicode="&#xA9;" horiz-adv-x="778" d=" M50,199 Q50,501 157,607.5 Q264,714 414,714 Q564,714 671,607.5 Q778,501 778,350 Q778,199 671,92.5 Q564,-14 414,-14 Q264,-14 50,199 M138,466 Q138,234 218.5,153 Q299,72 414,72 Q529,72 609.5,153 Q690,234 690,350 Q690,466 609.5,547 Q529,628 414,628 Q299,628 138,466 M517,309 L596,257 Q541,146 416,146 Q328,146 270,202.5 Q212,259 212,350 Q212,440 271.5,497 Q331,554 416,554 Q480,554 526,526.5 Q572,499 592,449 L512,396 Q482,462 415,462 Q371,462 341.5,431.5 Q312,401 312,350 Q312,299 341,268.5 Q370,238 415,238 Q482,238 517,309"/> 
            <glyph glyph-name="ª" unicode="&#xAA;" horiz-adv-x="378" d=" M378,300 L288,300 Q273,318 273,355 Q234,293 158,293 Q107,293 74,323 Q41,353 41,401 Q41,451 79.5,480 Q118,509 177,518 L269,533 L269,542 Q269,594 205,594 Q175,594 157.5,583.5 Q140,573 140,557 Q140,552 141,548 L61,519 Q55,532 55,548 Q55,591 95,624 Q135,657 205,657 Q356,657 356,532 L356,388 Q356,332 378,300 M180,365 Q220,365 244.5,391 Q269,417 269,461 L269,470 L185,457 Q127,448 127,408 Q127,388 141.5,376.5 Q156,365 180,365"/> 
            <glyph glyph-name="«" unicode="&#xAB;" horiz-adv-x="564" d=" M423,488 L564,488 L398,275 L564,62 L423,62 L256,275 M207,488 L348,488 L182,275 L348,62 L207,62 L40,275"/> 
            <glyph glyph-name="¬" unicode="&#xAC;" horiz-adv-x="486" d=" M486,174 L368,174 L368,314 L40,314 L40,416 L486,416"/> 
            <glyph glyph-name="®" unicode="&#xAE;" horiz-adv-x="778" d=" M473,151 L382,304 L355,304 L355,151 L267,151 L267,549 L430,549 Q501,549 537.5,515.5 Q574,482 574,426 Q574,382 547,350 Q520,318 475,307 L570,151 M355,475 L355,376 L427,376 Q489,376 489,426 Q489,475 427,475 M50,199 Q50,501 157,607.5 Q264,714 414,714 Q564,714 671,607.5 Q778,501 778,350 Q778,199 671,92.5 Q564,-14 414,-14 Q264,-14 50,199 M138,466 Q138,234 218.5,153 Q299,72 414,72 Q529,72 609.5,153 Q690,234 690,350 Q690,466 609.5,547 Q529,628 414,628 Q299,628 138,466"/> 
            <glyph glyph-name="¯" unicode="&#xAF;" horiz-adv-x="288" d=" M40,588 L40,682 L288,682 L288,588"/> 
            <glyph glyph-name="°" unicode="&#xB0;" horiz-adv-x="317" d=" M37,517 Q37,633 77,673.5 Q117,714 177,714 Q237,714 277,673.5 Q317,633 317,575 Q317,517 277,476.5 Q237,436 177,436 Q117,436 37,517 M117,602 Q117,548 133.5,531 Q150,514 177,514 Q204,514 220.5,531 Q237,548 237,575 Q237,602 220.5,619 Q204,636 177,636 Q150,636 117,602"/> 
            <glyph glyph-name="±" unicode="&#xB1;" horiz-adv-x="529" d=" M45,374 L45,476 L236,476 L236,667 L338,667 L338,476 L529,476 L529,374 L338,374 L338,183 L236,183 L236,374 M45,0 L45,102 L529,102 L529,0"/> 
            <glyph glyph-name="²" unicode="&#xB2;" horiz-adv-x="305" d=" M53,403 L185,530 Q220,562 220,595 Q220,636 177,636 Q157,636 143.5,625 Q130,614 130,594 Q130,584 134,570 L58,559 Q51,576 51,599 Q51,642 86,674.5 Q121,707 177,707 Q235,707 268.5,679.5 Q302,652 302,604 Q302,568 288.5,542 Q275,516 241,482 L176,419 L305,419 L305,350 L53,350"/> 
            <glyph glyph-name="³" unicode="&#xB3;" horiz-adv-x="310" d=" M50,484 L129,467 Q127,461 127,452 Q127,432 141,422 Q155,412 175,412 Q197,412 211.5,423.5 Q226,435 226,456 Q226,505 144,505 L144,565 Q176,565 194.5,576 Q213,587 213,606 Q213,641 172,641 Q154,641 141,632.5 Q128,624 128,608 Q128,597 131,591 L58,581 Q53,593 53,608 Q53,648 85,677.5 Q117,707 172,707 Q231,707 261.5,683.5 Q292,660 292,620 Q292,576 247,545 Q310,521 310,454 Q310,403 272.5,373 Q235,343 173,343 Q114,343 78.5,372.5 Q43,402 43,448 Q43,470 50,484"/> 
            <glyph glyph-name="´" unicode="&#xB4;" horiz-adv-x="273" d=" M52,550 L120,708 L273,708 L149,550"/> 
            <glyph glyph-name="µ" unicode="&#xB5;" horiz-adv-x="531" d=" M63,-204 L63,496 L189,496 L189,217 Q189,104 290,104 Q342,104 373.5,142 Q405,180 405,240 L405,496 L531,496 L531,0 L405,0 L405,78 Q355,-14 247,-14 Q214,-14 186,-5 Q189,-62 189,-73 L189,-204"/> 
            <glyph glyph-name="¶" unicode="&#xB6;" horiz-adv-x="624" d=" M375,598 L375,-120 L263,-120 L263,312 L254,312 Q160,312 98.5,365 Q37,418 37,506 Q37,594 98.5,647 Q160,700 254,700 L624,700 L624,598 L559,598 L559,-120 L447,-120 L447,598"/> 
            <glyph glyph-name="·" unicode="&#xB7;" horiz-adv-x="174" d=" M40,290 L40,424 L174,424 L174,290"/> 
            <glyph glyph-name="¸" unicode="&#xB8;" horiz-adv-x="242" d=" M99,-112 L62,-79 L95,16 L165,16 L124,-53 Q140,-44 164,-44 Q198,-44 220,-66 Q242,-88 242,-122 Q242,-160 214.5,-182 Q187,-204 147,-204 Q69,-204 53,-143 L119,-126 Q123,-148 147,-148 Q172,-148 172,-123 Q172,-94 144,-94 Q120,-94 99,-112"/> 
            <glyph glyph-name="¹" unicode="&#xB9;" horiz-adv-x="196" d=" M38,580 L38,657 Q95,657 116,700 L196,700 L196,350 L112,350 L112,604 Q91,580 38,580"/> 
            <glyph glyph-name="º" unicode="&#xBA;" horiz-adv-x="417" d=" M417,561 Q417,389 361,341 Q305,293 229,293 Q152,293 96.5,341 Q41,389 41,475 Q41,561 96.5,609 Q152,657 229,657 Q305,657 417,561 M229,380 Q269,380 295.5,406 Q322,432 322,475 Q322,518 296,544 Q270,570 229,570 Q188,570 161.5,544 Q135,518 135,475 Q135,432 161.5,406 Q188,380 229,380"/> 
            <glyph glyph-name="»" unicode="&#xBB;" horiz-adv-x="554" d=" M171,62 L30,62 L196,275 L30,488 L171,488 L338,275 M387,62 L246,62 L412,275 L246,488 L387,488 L554,275"/> 
            <glyph glyph-name="¼" unicode="&#xBC;" horiz-adv-x="677" d=" M38,580 L38,657 Q95,657 116,700 L196,700 L196,350 L112,350 L112,604 Q91,580 38,580 M182,-7 L110,42 L545,707 L617,658 M395,58 L395,124 L557,350 L641,350 L641,124 L677,124 L677,58 L641,58 L641,0 L557,0 L557,58 M557,240 L474,124 L557,124"/> 
            <glyph glyph-name="½" unicode="&#xBD;" horiz-adv-x="707" d=" M38,580 L38,657 Q95,657 116,700 L196,700 L196,350 L112,350 L112,604 Q91,580 38,580 M182,-7 L110,42 L545,707 L617,658 M455,53 L587,180 Q622,212 622,245 Q622,286 579,286 Q559,286 545.5,275 Q532,264 532,244 Q532,234 536,220 L460,209 Q453,226 453,249 Q453,292 488,324.5 Q523,357 579,357 Q637,357 670.5,329.5 Q704,302 704,254 Q704,218 690.5,192 Q677,166 643,132 L578,69 L707,69 L707,0 L455,0"/> 
            <glyph glyph-name="¾" unicode="&#xBE;" horiz-adv-x="746" d=" M241,-7 L169,42 L604,707 L676,658 M464,58 L464,124 L626,350 L710,350 L710,124 L746,124 L746,58 L710,58 L710,0 L626,0 L626,58 M626,240 L543,124 L626,124 M50,484 L129,467 Q127,461 127,452 Q127,432 141,422 Q155,412 175,412 Q197,412 211.5,423.5 Q226,435 226,456 Q226,505 144,505 L144,565 Q176,565 194.5,576 Q213,587 213,606 Q213,641 172,641 Q154,641 141,632.5 Q128,624 128,608 Q128,597 131,591 L58,581 Q53,593 53,608 Q53,648 85,677.5 Q117,707 172,707 Q231,707 261.5,683.5 Q292,660 292,620 Q292,576 247,545 Q310,521 310,454 Q310,403 272.5,373 Q235,343 173,343 Q114,343 78.5,372.5 Q43,402 43,448 Q43,470 50,484"/> 
            <glyph glyph-name="¿" unicode="&#xBF;" horiz-adv-x="508" d=" M221,288 L347,288 L347,272 Q347,226 328.5,192.5 Q310,159 261,120 Q210,79 189.5,48.5 Q169,18 169,-19 Q169,-58 198,-81 Q227,-104 273,-104 Q321,-104 353.5,-77 Q386,-50 386,-5 Q386,15 379,32 L494,56 Q508,26 508,-16 Q508,-95 443.5,-156.5 Q379,-218 276,-218 Q169,-218 107,-166 Q45,-114 45,-28 Q45,32 72,77.5 Q99,123 174,187 Q201,210 211,232.5 Q221,255 221,288 M350,496 L350,358 L218,358 L218,496"/> 
            <glyph glyph-name="À" unicode="&#xC0;" horiz-adv-x="697" d=" M5,0 L288,700 L414,700 L697,0 L556,0 L486,183 L216,183 L146,0 M325,469 L261,301 L441,301 L377,469 Q364,503 351,545 M329,912 L397,754 L300,754 L176,912"/> 
            <glyph glyph-name="Á" unicode="&#xC1;" horiz-adv-x="697" d=" M5,0 L288,700 L414,700 L697,0 L556,0 L486,183 L216,183 L146,0 M325,469 L261,301 L441,301 L377,469 Q364,503 351,545 M306,754 L374,912 L527,912 L403,754"/> 
            <glyph glyph-name="Â" unicode="&#xC2;" horiz-adv-x="697" d=" M5,0 L288,700 L414,700 L697,0 L556,0 L486,183 L216,183 L146,0 M325,469 L261,301 L441,301 L377,469 Q364,503 351,545 M193,754 L306,911 L396,911 L509,754 L410,754 L351,814 L292,754"/> 
            <glyph glyph-name="Ã" unicode="&#xC3;" horiz-adv-x="697" d=" M5,0 L288,700 L414,700 L697,0 L556,0 L486,183 L216,183 L146,0 M325,469 L261,301 L441,301 L377,469 Q364,503 351,545 M278,820 Q268,820 261.5,814 Q255,808 255,798 Q255,786 262,772 L188,757 Q174,778 174,810 Q174,853 204,877 Q234,901 272,901 Q304,901 328.5,890.5 Q353,880 366,868 Q379,856 394,845.5 Q409,835 424,835 Q434,835 440.5,841 Q447,847 447,857 Q447,869 440,883 L514,898 Q528,877 528,845 Q528,802 498,778 Q468,754 430,754 Q399,754 374,764.5 Q349,775 336,787 Q323,799 307.5,809.5 Q292,820 278,820"/> 
            <glyph glyph-name="Ä" unicode="&#xC4;" horiz-adv-x="697" d=" M5,0 L288,700 L414,700 L697,0 L556,0 L486,183 L216,183 L146,0 M325,469 L261,301 L441,301 L377,469 Q364,503 351,545 M382,780 L382,904 L500,904 L500,780 M202,780 L202,904 L320,904 L320,780"/> 
            <glyph glyph-name="Å" unicode="&#xC5;" horiz-adv-x="697" d=" M5,0 L288,700 L414,700 L697,0 L556,0 L486,183 L216,183 L146,0 M325,469 L261,301 L441,301 L377,469 Q364,503 351,545 M255,799 Q255,879 283,906.5 Q311,934 351,934 Q391,934 419,906.5 Q447,879 447,839 Q447,799 419,771.5 Q391,744 351,744 Q311,744 255,799 M318,855 Q318,823 327,814 Q336,805 351,805 Q366,805 375,814 Q384,823 384,839 Q384,855 375,864 Q366,873 351,873 Q336,873 318,855"/> 
            <glyph glyph-name="Æ" unicode="&#xC6;" horiz-adv-x="929" d=" M443,0 L443,183 L224,183 L143,0 L5,0 L325,700 L926,700 L926,582 L575,582 L575,421 L898,421 L898,303 L575,303 L575,118 L929,118 L929,0 M401,582 L276,301 L443,301 L443,582"/> 
            <glyph glyph-name="Ç" unicode="&#xC7;" horiz-adv-x="720" d=" M355,-114 L318,-81 L343,-9 Q210,10 128,107.5 Q46,205 46,350 Q46,511 149.5,612.5 Q253,714 409,714 Q516,714 598,663.5 Q680,613 716,531 L609,454 Q544,592 405,592 Q310,592 245,525.5 Q180,459 180,350 Q180,244 245,176 Q310,108 405,108 Q542,108 617,248 L720,174 Q654,73 584,29.5 Q514,-14 404,-14 L380,-55 Q396,-46 420,-46 Q454,-46 476,-68 Q498,-90 498,-124 Q498,-162 470.5,-184 Q443,-206 403,-206 Q325,-206 309,-145 L375,-128 Q379,-150 403,-150 Q428,-150 428,-125 Q428,-96 400,-96 Q376,-96 355,-114"/> 
            <glyph glyph-name="È" unicode="&#xC8;" horiz-adv-x="559" d=" M73,0 L73,700 L556,700 L556,582 L205,582 L205,421 L528,421 L528,303 L205,303 L205,118 L559,118 L559,0 M333,912 L401,754 L304,754 L180,912"/> 
            <glyph glyph-name="É" unicode="&#xC9;" horiz-adv-x="559" d=" M73,0 L73,700 L556,700 L556,582 L205,582 L205,421 L528,421 L528,303 L205,303 L205,118 L559,118 L559,0 M239,754 L307,912 L460,912 L336,754"/> 
            <glyph glyph-name="Ê" unicode="&#xCA;" horiz-adv-x="559" d=" M73,0 L73,700 L556,700 L556,582 L205,582 L205,421 L528,421 L528,303 L205,303 L205,118 L559,118 L559,0 M161,754 L274,911 L364,911 L477,754 L378,754 L319,814 L260,754"/> 
            <glyph glyph-name="Ë" unicode="&#xCB;" horiz-adv-x="559" d=" M73,0 L73,700 L556,700 L556,582 L205,582 L205,421 L528,421 L528,303 L205,303 L205,118 L559,118 L559,0 M350,780 L350,904 L468,904 L468,780 M170,780 L170,904 L288,904 L288,780"/> 
            <glyph glyph-name="Ì" unicode="&#xCC;" horiz-adv-x="205" d=" M73,0 L73,700 L205,700 L205,0 M137,912 L205,754 L108,754 L-16,912"/> 
            <glyph glyph-name="Í" unicode="&#xCD;" horiz-adv-x="294" d=" M73,0 L73,700 L205,700 L205,0 M73,754 L141,912 L294,912 L170,754"/> 
            <glyph glyph-name="Î" unicode="&#xCE;" horiz-adv-x="297" d=" M73,0 L73,700 L205,700 L205,0 M-19,754 L94,911 L184,911 L297,754 L198,754 L139,814 L80,754"/> 
            <glyph glyph-name="Ï" unicode="&#xCF;" horiz-adv-x="288" d=" M73,0 L73,700 L205,700 L205,0 M170,780 L170,904 L288,904 L288,780 M-10,780 L-10,904 L108,904 L108,780"/> 
            <glyph glyph-name="Ð" unicode="&#xD0;" horiz-adv-x="703" d=" M33,295 L33,405 L111,405 L111,700 L322,700 Q493,700 598,610 Q703,520 703,350 Q703,180 598,90 Q493,0 322,0 L111,0 L111,295 M331,122 Q441,122 505,180.5 Q569,239 569,350 Q569,461 505,519.5 Q441,578 331,578 L243,578 L243,405 L398,405 L398,295 L243,295 L243,122"/> 
            <glyph glyph-name="Ñ" unicode="&#xD1;" horiz-adv-x="657" d=" M73,0 L73,700 L207,700 L499,255 Q523,215 529,200 L529,700 L657,700 L657,0 L523,0 L231,448 Q207,488 201,503 L201,0 M292,820 Q282,820 275.5,814 Q269,808 269,798 Q269,786 276,772 L202,757 Q188,778 188,810 Q188,853 218,877 Q248,901 286,901 Q318,901 342.5,890.5 Q367,880 380,868 Q393,856 408.5,845.5 Q424,835 438,835 Q448,835 454.5,841 Q461,847 461,857 Q461,869 454,883 L528,898 Q542,877 542,845 Q542,802 512,778 Q482,754 444,754 Q412,754 387.5,764.5 Q363,775 350,787 Q337,799 321.5,809.5 Q306,820 292,820"/> 
            <glyph glyph-name="Ò" unicode="&#xD2;" horiz-adv-x="766" d=" M766,507 Q766,193 663.5,89.5 Q561,-14 406,-14 Q251,-14 148.5,89.5 Q46,193 46,350 Q46,507 148.5,610.5 Q251,714 406,714 Q561,714 766,507 M308,108 Q504,108 568,173.5 Q632,239 632,350 Q632,461 568,526.5 Q504,592 406,592 Q308,592 244,526.5 Q180,461 180,350 Q180,239 308,108 M419,912 L487,754 L390,754 L266,912"/> 
            <glyph glyph-name="Ó" unicode="&#xD3;" horiz-adv-x="766" d=" M766,507 Q766,193 663.5,89.5 Q561,-14 406,-14 Q251,-14 148.5,89.5 Q46,193 46,350 Q46,507 148.5,610.5 Q251,714 406,714 Q561,714 766,507 M308,108 Q504,108 568,173.5 Q632,239 632,350 Q632,461 568,526.5 Q504,592 406,592 Q308,592 244,526.5 Q180,461 180,350 Q180,239 308,108 M326,754 L394,912 L547,912 L423,754"/> 
            <glyph glyph-name="Ô" unicode="&#xD4;" horiz-adv-x="766" d=" M766,507 Q766,193 663.5,89.5 Q561,-14 406,-14 Q251,-14 148.5,89.5 Q46,193 46,350 Q46,507 148.5,610.5 Q251,714 406,714 Q561,714 766,507 M308,108 Q504,108 568,173.5 Q632,239 632,350 Q632,461 568,526.5 Q504,592 406,592 Q308,592 244,526.5 Q180,461 180,350 Q180,239 308,108 M248,754 L361,911 L451,911 L564,754 L465,754 L406,814 L347,754"/> 
            <glyph glyph-name="Õ" unicode="&#xD5;" horiz-adv-x="766" d=" M766,507 Q766,193 663.5,89.5 Q561,-14 406,-14 Q251,-14 148.5,89.5 Q46,193 46,350 Q46,507 148.5,610.5 Q251,714 406,714 Q561,714 766,507 M308,108 Q504,108 568,173.5 Q632,239 632,350 Q632,461 568,526.5 Q504,592 406,592 Q308,592 244,526.5 Q180,461 180,350 Q180,239 308,108 M333,820 Q323,820 316.5,814 Q310,808 310,798 Q310,786 317,772 L243,757 Q229,778 229,810 Q229,853 259,877 Q289,901 327,901 Q358,901 383,890.5 Q408,880 421,868 Q434,856 449,845.5 Q464,835 479,835 Q489,835 495.5,841 Q502,847 502,857 Q502,869 495,883 L569,898 Q583,877 583,845 Q583,802 553,778 Q523,754 485,754 Q454,754 429,764.5 Q404,775 391,787 Q378,799 363,809.5 Q348,820 333,820"/> 
            <glyph glyph-name="Ö" unicode="&#xD6;" horiz-adv-x="766" d=" M766,507 Q766,193 663.5,89.5 Q561,-14 406,-14 Q251,-14 148.5,89.5 Q46,193 46,350 Q46,507 148.5,610.5 Q251,714 406,714 Q561,714 766,507 M308,108 Q504,108 568,173.5 Q632,239 632,350 Q632,461 568,526.5 Q504,592 406,592 Q308,592 244,526.5 Q180,461 180,350 Q180,239 308,108 M437,780 L437,904 L555,904 L555,780 M257,780 L257,904 L375,904 L375,780"/> 
            <glyph glyph-name="×" unicode="&#xD7;" horiz-adv-x="485" d=" M143,158 L71,230 L206,365 L71,500 L143,572 L278,437 L413,572 L485,500 L350,365 L485,230 L413,158 L278,293"/> 
            <glyph glyph-name="Ø" unicode="&#xD8;" horiz-adv-x="766" d=" M766,350 Q766,193 663.5,89.5 Q561,-14 406,-14 Q347,-14 288,4 L253,-62 L155,-6 L187,56 Q121,106 83.5,182 Q46,258 46,350 Q46,507 148.5,610.5 Q251,714 406,714 Q465,714 524,696 L559,762 L657,706 L625,644 Q691,594 728.5,518 Q766,442 766,350 M406,108 Q504,108 568,173.5 Q632,239 632,350 Q632,463 565,530 L346,115 Q373,108 406,108 M180,350 Q180,237 247,170 L466,585 Q439,592 406,592 Q308,592 244,526.5 Q180,461 180,350"/> 
            <glyph glyph-name="Ù" unicode="&#xD9;" horiz-adv-x="637" d=" M637,700 L637,265 Q637,134 557,60 Q477,-14 350,-14 Q223,-14 143,60 Q63,134 63,265 L63,700 L195,700 L195,278 Q195,197 236.5,152.5 Q278,108 350,108 Q422,108 463.5,152.5 Q505,197 505,278 L505,700 M363,912 L431,754 L334,754 L210,912"/> 
            <glyph glyph-name="Ú" unicode="&#xDA;" horiz-adv-x="637" d=" M637,700 L637,265 Q637,134 557,60 Q477,-14 350,-14 Q223,-14 143,60 Q63,134 63,265 L63,700 L195,700 L195,278 Q195,197 236.5,152.5 Q278,108 350,108 Q422,108 463.5,152.5 Q505,197 505,278 L505,700 M270,754 L338,912 L491,912 L367,754"/> 
            <glyph glyph-name="Û" unicode="&#xDB;" horiz-adv-x="637" d=" M637,700 L637,265 Q637,134 557,60 Q477,-14 350,-14 Q223,-14 143,60 Q63,134 63,265 L63,700 L195,700 L195,278 Q195,197 236.5,152.5 Q278,108 350,108 Q422,108 463.5,152.5 Q505,197 505,278 L505,700 M192,754 L305,911 L395,911 L508,754 L409,754 L350,814 L291,754"/> 
            <glyph glyph-name="Ü" unicode="&#xDC;" horiz-adv-x="637" d=" M637,700 L637,265 Q637,134 557,60 Q477,-14 350,-14 Q223,-14 143,60 Q63,134 63,265 L63,700 L195,700 L195,278 Q195,197 236.5,152.5 Q278,108 350,108 Q422,108 463.5,152.5 Q505,197 505,278 L505,700 M381,780 L381,904 L499,904 L499,780 M201,780 L201,904 L319,904 L319,780"/> 
            <glyph glyph-name="Ý" unicode="&#xDD;" horiz-adv-x="598" d=" M367,274 L367,0 L235,0 L235,274 L4,700 L149,700 L279,451 Q292,424 301,400 L323,451 L453,700 L598,700 M211,754 L279,912 L432,912 L308,754"/> 
            <glyph glyph-name="Þ" unicode="&#xDE;" horiz-adv-x="653" d=" M73,0 L73,700 L205,700 L205,578 L391,578 Q512,578 582.5,518.5 Q653,459 653,350 Q653,241 582.5,181.5 Q512,122 391,122 L205,122 L205,0 M205,460 L205,240 L387,240 Q454,240 487.5,269.5 Q521,299 521,350 Q521,401 487.5,430.5 Q454,460 387,460"/> 
            <glyph glyph-name="ß" unicode="&#xDF;" horiz-adv-x="561" d=" M246,326 L246,436 L281,436 Q328,436 357,460.5 Q386,485 386,528 Q386,563 362.5,583.5 Q339,604 298,604 Q258,604 230.5,576.5 Q203,549 203,497 L203,0 L77,0 L77,394 L21,394 L21,496 L77,496 L77,503 Q77,604 142,659 Q207,714 301,714 Q396,714 452.5,668 Q509,622 509,548 Q509,441 408,392 Q561,333 561,183 Q561,95 507,40.5 Q453,-14 366,-14 Q278,-14 221,31 L276,129 Q309,96 353,96 Q387,96 411,120 Q435,144 435,190 Q435,252 389.5,289 Q344,326 277,326"/> 
            <glyph glyph-name="à" unicode="&#xE0;" horiz-adv-x="528" d=" M528,0 L400,0 Q376,30 376,79 Q324,-14 210,-14 Q136,-14 89.5,28.5 Q43,71 43,141 Q43,212 92.5,252.5 Q142,293 220,305 L369,328 L369,347 Q369,422 278,422 Q236,422 212.5,406 Q189,390 189,366 Q189,360 191,354 L78,316 Q69,336 69,358 Q69,419 126,464.5 Q183,510 278,510 Q384,510 439.5,465 Q495,420 495,330 L495,123 Q495,48 528,0 M240,88 Q297,88 333,125.5 Q369,163 369,232 L369,241 L249,221 Q166,207 166,148 Q166,119 186,103.5 Q206,88 240,88 M286,710 L354,552 L257,552 L133,710"/> 
            <glyph glyph-name="á" unicode="&#xE1;" horiz-adv-x="528" d=" M528,0 L400,0 Q376,30 376,79 Q324,-14 210,-14 Q136,-14 89.5,28.5 Q43,71 43,141 Q43,212 92.5,252.5 Q142,293 220,305 L369,328 L369,347 Q369,422 278,422 Q236,422 212.5,406 Q189,390 189,366 Q189,360 191,354 L78,316 Q69,336 69,358 Q69,419 126,464.5 Q183,510 278,510 Q384,510 439.5,465 Q495,420 495,330 L495,123 Q495,48 528,0 M240,88 Q297,88 333,125.5 Q369,163 369,232 L369,241 L249,221 Q166,207 166,148 Q166,119 186,103.5 Q206,88 240,88 M203,552 L271,710 L424,710 L300,552"/> 
            <glyph glyph-name="â" unicode="&#xE2;" horiz-adv-x="528" d=" M528,0 L400,0 Q376,30 376,79 Q324,-14 210,-14 Q136,-14 89.5,28.5 Q43,71 43,141 Q43,212 92.5,252.5 Q142,293 220,305 L369,328 L369,347 Q369,422 278,422 Q236,422 212.5,406 Q189,390 189,366 Q189,360 191,354 L78,316 Q69,336 69,358 Q69,419 126,464.5 Q183,510 278,510 Q384,510 439.5,465 Q495,420 495,330 L495,123 Q495,48 528,0 M240,88 Q297,88 333,125.5 Q369,163 369,232 L369,241 L249,221 Q166,207 166,148 Q166,119 186,103.5 Q206,88 240,88 M125,553 L238,710 L328,710 L441,553 L342,553 L283,613 L224,553"/> 
            <glyph glyph-name="ã" unicode="&#xE3;" horiz-adv-x="528" d=" M528,0 L400,0 Q376,30 376,79 Q324,-14 210,-14 Q136,-14 89.5,28.5 Q43,71 43,141 Q43,212 92.5,252.5 Q142,293 220,305 L369,328 L369,347 Q369,422 278,422 Q236,422 212.5,406 Q189,390 189,366 Q189,360 191,354 L78,316 Q69,336 69,358 Q69,419 126,464.5 Q183,510 278,510 Q384,510 439.5,465 Q495,420 495,330 L495,123 Q495,48 528,0 M240,88 Q297,88 333,125.5 Q369,163 369,232 L369,241 L249,221 Q166,207 166,148 Q166,119 186,103.5 Q206,88 240,88 M204,619 Q194,619 187.5,613 Q181,607 181,597 Q181,585 188,571 L114,556 Q100,577 100,609 Q100,652 130,676 Q160,700 198,700 Q229,700 254,689.5 Q279,679 292,667 Q305,655 320.5,644.5 Q336,634 350,634 Q360,634 366.5,640 Q373,646 373,656 Q373,668 366,682 L440,697 Q454,676 454,644 Q454,601 424,577 Q394,553 356,553 Q324,553 299.5,563.5 Q275,574 262,586 Q249,598 233.5,608.5 Q218,619 204,619"/> 
            <glyph glyph-name="ä" unicode="&#xE4;" horiz-adv-x="528" d=" M528,0 L400,0 Q376,30 376,79 Q324,-14 210,-14 Q136,-14 89.5,28.5 Q43,71 43,141 Q43,212 92.5,252.5 Q142,293 220,305 L369,328 L369,347 Q369,422 278,422 Q236,422 212.5,406 Q189,390 189,366 Q189,360 191,354 L78,316 Q69,336 69,358 Q69,419 126,464.5 Q183,510 278,510 Q384,510 439.5,465 Q495,420 495,330 L495,123 Q495,48 528,0 M240,88 Q297,88 333,125.5 Q369,163 369,232 L369,241 L249,221 Q166,207 166,148 Q166,119 186,103.5 Q206,88 240,88 M314,579 L314,703 L432,703 L432,579 M134,579 L134,703 L252,703 L252,579"/> 
            <glyph glyph-name="å" unicode="&#xE5;" horiz-adv-x="528" d=" M528,0 L400,0 Q376,30 376,79 Q324,-14 210,-14 Q136,-14 89.5,28.5 Q43,71 43,141 Q43,212 92.5,252.5 Q142,293 220,305 L369,328 L369,347 Q369,422 278,422 Q236,422 212.5,406 Q189,390 189,366 Q189,360 191,354 L78,316 Q69,336 69,358 Q69,419 126,464.5 Q183,510 278,510 Q384,510 439.5,465 Q495,420 495,330 L495,123 Q495,48 528,0 M240,88 Q297,88 333,125.5 Q369,163 369,232 L369,241 L249,221 Q166,207 166,148 Q166,119 186,103.5 Q206,88 240,88 M187,595 Q187,675 215,702.5 Q243,730 283,730 Q323,730 351,702.5 Q379,675 379,635 Q379,595 351,567.5 Q323,540 283,540 Q243,540 187,595 M250,651 Q250,619 259,610 Q268,601 283,601 Q298,601 307,610 Q316,619 316,635 Q316,651 307,660 Q298,669 283,669 Q268,669 250,651"/> 
            <glyph glyph-name="æ" unicode="&#xE6;" horiz-adv-x="878" d=" M878,218 L496,218 Q502,161 539,127.5 Q576,94 632,94 Q724,94 769,185 L863,131 Q793,-14 630,-14 Q565,-14 509.5,16 Q454,46 419,99 Q391,42 338.5,14 Q286,-14 227,-14 Q145,-14 94,28.5 Q43,71 43,141 Q43,219 104.5,264.5 Q166,310 273,310 L370,310 L370,323 Q370,374 351,398 Q332,422 279,422 Q236,422 213,406 Q190,390 190,366 Q190,360 192,354 L79,316 Q70,336 70,358 Q70,419 124,464.5 Q178,510 268,510 Q399,510 453,439 Q527,510 636,510 Q742,510 810,440.5 Q878,371 878,262 M239,88 Q294,88 332,122.5 Q370,157 370,213 L370,218 L265,218 Q218,218 192,197.5 Q166,177 166,146 Q166,119 186,103.5 Q206,88 239,88 M632,414 Q583,414 546.5,384.5 Q510,355 496,310 L762,310 Q753,359 719,386.5 Q685,414 632,414"/> 
            <glyph glyph-name="ç" unicode="&#xE7;" horiz-adv-x="528" d=" M248,-114 L211,-81 L236,-8 Q146,10 90.5,79 Q35,148 35,248 Q35,364 111,437 Q187,510 296,510 Q378,510 437.5,474.5 Q497,439 523,375 L420,307 Q381,392 295,392 Q238,392 200.5,352.5 Q163,313 163,248 Q163,182 200,143 Q237,104 295,104 Q343,104 373.5,126.5 Q404,149 426,195 L528,129 Q457,-12 297,-14 L273,-55 Q290,-46 313,-46 Q348,-46 369.5,-68 Q391,-90 391,-124 Q391,-162 363.5,-184 Q336,-206 296,-206 Q218,-206 202,-145 L268,-128 Q272,-150 296,-150 Q321,-150 321,-125 Q321,-96 293,-96 Q269,-96 248,-114"/> 
            <glyph glyph-name="è" unicode="&#xE8;" horiz-adv-x="538" d=" M538,218 L156,218 Q162,161 199,127.5 Q236,94 292,94 Q384,94 429,185 L523,131 Q453,-14 290,-14 Q184,-14 109.5,59.5 Q35,133 35,248 Q35,364 110.5,437 Q186,510 296,510 Q402,510 470,440.5 Q538,371 538,262 M292,414 Q243,414 206.5,384.5 Q170,355 156,310 L422,310 Q413,359 379,386.5 Q345,414 292,414 M300,708 L368,550 L271,550 L147,708"/> 
            <glyph glyph-name="é" unicode="&#xE9;" horiz-adv-x="538" d=" M538,218 L156,218 Q162,161 199,127.5 Q236,94 292,94 Q384,94 429,185 L523,131 Q453,-14 290,-14 Q184,-14 109.5,59.5 Q35,133 35,248 Q35,364 110.5,437 Q186,510 296,510 Q402,510 470,440.5 Q538,371 538,262 M292,414 Q243,414 206.5,384.5 Q170,355 156,310 L422,310 Q413,359 379,386.5 Q345,414 292,414 M207,550 L275,708 L428,708 L304,550"/> 
            <glyph glyph-name="ê" unicode="&#xEA;" horiz-adv-x="538" d=" M538,218 L156,218 Q162,161 199,127.5 Q236,94 292,94 Q384,94 429,185 L523,131 Q453,-14 290,-14 Q184,-14 109.5,59.5 Q35,133 35,248 Q35,364 110.5,437 Q186,510 296,510 Q402,510 470,440.5 Q538,371 538,262 M292,414 Q243,414 206.5,384.5 Q170,355 156,310 L422,310 Q413,359 379,386.5 Q345,414 292,414 M129,550 L242,707 L332,707 L445,550 L346,550 L287,610 L228,550"/> 
            <glyph glyph-name="ë" unicode="&#xEB;" horiz-adv-x="538" d=" M538,218 L156,218 Q162,161 199,127.5 Q236,94 292,94 Q384,94 429,185 L523,131 Q453,-14 290,-14 Q184,-14 109.5,59.5 Q35,133 35,248 Q35,364 110.5,437 Q186,510 296,510 Q402,510 470,440.5 Q538,371 538,262 M292,414 Q243,414 206.5,384.5 Q170,355 156,310 L422,310 Q413,359 379,386.5 Q345,414 292,414 M318,576 L318,700 L436,700 L436,576 M138,576 L138,700 L256,700 L256,576"/> 
            <glyph glyph-name="ì" unicode="&#xEC;" horiz-adv-x="188" d=" M62,0 L62,496 L188,496 L188,0 M120,708 L188,550 L91,550 L-33,708"/> 
            <glyph glyph-name="í" unicode="&#xED;" horiz-adv-x="283" d=" M62,0 L62,496 L188,496 L188,0 M62,550 L130,708 L283,708 L159,550"/> 
            <glyph glyph-name="î" unicode="&#xEE;" horiz-adv-x="283" d=" M62,0 L62,496 L188,496 L188,0 M-33,550 L80,707 L170,707 L283,550 L184,550 L125,610 L66,550"/> 
            <glyph glyph-name="ï" unicode="&#xEF;" horiz-adv-x="274" d=" M62,0 L62,496 L188,496 L188,0 M156,576 L156,700 L274,700 L274,576 M-24,576 L-24,700 L94,700 L94,576"/> 
            <glyph glyph-name="ð" unicode="&#xF0;" horiz-adv-x="549" d=" M227,496 L196,579 L249,599 Q197,633 142,656 L200,750 Q298,706 371,647 L477,688 L509,605 L442,579 Q549,452 549,283 Q549,146 481.5,66 Q414,-14 293,-14 Q181,-14 111,53.5 Q41,121 41,227 Q41,330 110.5,396 Q180,462 280,462 Q372,462 419,409 Q391,480 331,536 M350,356 Q242,356 203.5,320 Q165,284 165,224 Q165,164 203.5,128 Q242,92 296,92 Q350,92 388.5,128 Q427,164 427,224 Q427,284 350,356"/> 
            <glyph glyph-name="ñ" unicode="&#xF1;" horiz-adv-x="531" d=" M531,338 L531,0 L405,0 L405,286 Q405,392 304,392 Q254,392 221.5,353 Q189,314 189,252 L189,0 L63,0 L63,496 L189,496 L189,416 Q250,510 357,510 Q436,510 483.5,463 Q531,416 531,338 M224,616 Q214,616 207.5,610 Q201,604 201,594 Q201,582 208,568 L134,553 Q120,574 120,606 Q120,649 150,673 Q180,697 218,697 Q250,697 274.5,686.5 Q299,676 312,664 Q325,652 340.5,641.5 Q356,631 370,631 Q380,631 386.5,637 Q393,643 393,653 Q393,665 386,679 L460,694 Q474,673 474,641 Q474,598 444,574 Q414,550 376,550 Q344,550 319.5,560.5 Q295,571 282,583 Q269,595 253.5,605.5 Q238,616 224,616"/> 
            <glyph glyph-name="ò" unicode="&#xF2;" horiz-adv-x="577" d=" M577,371 Q577,125 496.5,55.5 Q416,-14 306,-14 Q196,-14 115.5,55.5 Q35,125 35,248 Q35,371 115.5,440.5 Q196,510 306,510 Q416,510 577,371 M248,104 Q364,104 406.5,143.5 Q449,183 449,248 Q449,313 406.5,352.5 Q364,392 306,392 Q248,392 205.5,352.5 Q163,313 163,248 Q163,183 248,104 M297,708 L365,550 L268,550 L144,708"/> 
            <glyph glyph-name="ó" unicode="&#xF3;" horiz-adv-x="577" d=" M577,371 Q577,125 496.5,55.5 Q416,-14 306,-14 Q196,-14 115.5,55.5 Q35,125 35,248 Q35,371 115.5,440.5 Q196,510 306,510 Q416,510 577,371 M248,104 Q364,104 406.5,143.5 Q449,183 449,248 Q449,313 406.5,352.5 Q364,392 306,392 Q248,392 205.5,352.5 Q163,313 163,248 Q163,183 248,104 M248,550 L316,708 L469,708 L345,550"/> 
            <glyph glyph-name="ô" unicode="&#xF4;" horiz-adv-x="577" d=" M577,371 Q577,125 496.5,55.5 Q416,-14 306,-14 Q196,-14 115.5,55.5 Q35,125 35,248 Q35,371 115.5,440.5 Q196,510 306,510 Q416,510 577,371 M248,104 Q364,104 406.5,143.5 Q449,183 449,248 Q449,313 406.5,352.5 Q364,392 306,392 Q248,392 205.5,352.5 Q163,313 163,248 Q163,183 248,104 M148,550 L261,707 L351,707 L464,550 L365,550 L306,610 L247,550"/> 
            <glyph glyph-name="õ" unicode="&#xF5;" horiz-adv-x="577" d=" M577,371 Q577,125 496.5,55.5 Q416,-14 306,-14 Q196,-14 115.5,55.5 Q35,125 35,248 Q35,371 115.5,440.5 Q196,510 306,510 Q416,510 577,371 M248,104 Q364,104 406.5,143.5 Q449,183 449,248 Q449,313 406.5,352.5 Q364,392 306,392 Q248,392 205.5,352.5 Q163,313 163,248 Q163,183 248,104 M233,616 Q223,616 216.5,610 Q210,604 210,594 Q210,582 217,568 L143,553 Q129,574 129,606 Q129,649 159,673 Q189,697 227,697 Q258,697 283,686.5 Q308,676 321,664 Q334,652 349,641.5 Q364,631 379,631 Q389,631 395.5,637 Q402,643 402,653 Q402,665 395,679 L469,694 Q483,673 483,641 Q483,598 453,574 Q423,550 385,550 Q354,550 329,560.5 Q304,571 291,583 Q278,595 262.5,605.5 Q247,616 233,616"/> 
            <glyph glyph-name="ö" unicode="&#xF6;" horiz-adv-x="577" d=" M577,371 Q577,125 496.5,55.5 Q416,-14 306,-14 Q196,-14 115.5,55.5 Q35,125 35,248 Q35,371 115.5,440.5 Q196,510 306,510 Q416,510 577,371 M248,104 Q364,104 406.5,143.5 Q449,183 449,248 Q449,313 406.5,352.5 Q364,392 306,392 Q248,392 205.5,352.5 Q163,313 163,248 Q163,183 248,104 M337,576 L337,700 L455,700 L455,576 M157,576 L157,700 L275,700 L275,576"/> 
            <glyph glyph-name="÷" unicode="&#xF7;" horiz-adv-x="529" d=" M220,350 L220,484 L354,484 L354,350 M220,0 L220,134 L354,134 L354,0 M45,191 L45,293 L529,293 L529,191"/> 
            <glyph glyph-name="ø" unicode="&#xF8;" horiz-adv-x="577" d=" M577,248 Q577,125 496.5,55.5 Q416,-14 306,-14 Q261,-14 216,-1 L192,-42 L109,9 L130,44 Q35,116 35,248 Q35,371 115.5,440.5 Q196,510 306,510 Q351,510 396,497 L420,538 L503,487 L482,452 Q577,380 577,248 M163,248 Q163,192 195,155 L333,390 Q315,392 306,392 Q248,392 205.5,352.5 Q163,313 163,248 M306,104 Q364,104 406.5,143.5 Q449,183 449,248 Q449,304 417,341 L279,106 Q297,104 306,104"/> 
            <glyph glyph-name="ù" unicode="&#xF9;" horiz-adv-x="531" d=" M63,188 L63,496 L189,496 L189,217 Q189,104 290,104 Q342,104 373.5,142 Q405,180 405,240 L405,496 L531,496 L531,0 L405,0 L405,78 Q355,-14 247,-14 Q166,-14 114.5,39 Q63,92 63,188 M310,708 L378,550 L281,550 L157,708"/> 
            <glyph glyph-name="ú" unicode="&#xFA;" horiz-adv-x="531" d=" M63,188 L63,496 L189,496 L189,217 Q189,104 290,104 Q342,104 373.5,142 Q405,180 405,240 L405,496 L531,496 L531,0 L405,0 L405,78 Q355,-14 247,-14 Q166,-14 114.5,39 Q63,92 63,188 M217,550 L285,708 L438,708 L314,550"/> 
            <glyph glyph-name="û" unicode="&#xFB;" horiz-adv-x="531" d=" M63,188 L63,496 L189,496 L189,217 Q189,104 290,104 Q342,104 373.5,142 Q405,180 405,240 L405,496 L531,496 L531,0 L405,0 L405,78 Q355,-14 247,-14 Q166,-14 114.5,39 Q63,92 63,188 M139,550 L252,707 L342,707 L455,550 L356,550 L297,610 L238,550"/> 
            <glyph glyph-name="ü" unicode="&#xFC;" horiz-adv-x="531" d=" M63,188 L63,496 L189,496 L189,217 Q189,104 290,104 Q342,104 373.5,142 Q405,180 405,240 L405,496 L531,496 L531,0 L405,0 L405,78 Q355,-14 247,-14 Q166,-14 114.5,39 Q63,92 63,188 M328,576 L328,700 L446,700 L446,576 M148,576 L148,700 L266,700 L266,576"/> 
            <glyph glyph-name="ý" unicode="&#xFD;" horiz-adv-x="541" d=" M72,-200 L92,-83 Q114,-95 137,-95 Q176,-95 193,-48 L209,-4 L5,496 L148,496 L276,174 L398,496 L541,496 L305,-90 Q279,-154 239.5,-182.5 Q200,-211 141,-211 Q100,-211 72,-200 M193,550 L261,708 L414,708 L290,550"/> 
            <glyph glyph-name="þ" unicode="&#xFE;" horiz-adv-x="589" d=" M63,-204 L63,700 L189,700 L189,425 Q215,462 262,486 Q309,510 364,510 Q458,510 523.5,438.5 Q589,367 589,248 Q589,131 521,58.5 Q453,-14 352,-14 Q249,-14 189,61 L189,-204 M381,392 Q261,392 221,350.5 Q181,309 181,248 Q181,187 221,145.5 Q261,104 321,104 Q381,104 421,145.5 Q461,187 461,248 Q461,309 381,392"/> 
            <glyph glyph-name="ÿ" unicode="&#xFF;" horiz-adv-x="541" d=" M72,-200 L92,-83 Q114,-95 137,-95 Q176,-95 193,-48 L209,-4 L5,496 L148,496 L276,174 L398,496 L541,496 L305,-90 Q279,-154 239.5,-182.5 Q200,-211 141,-211 Q100,-211 72,-200 M304,576 L304,700 L422,700 L422,576 M124,576 L124,700 L242,700 L242,576"/> 
            <glyph glyph-name="Ā" unicode="&#x100;" horiz-adv-x="697" d=" M5,0 L288,700 L414,700 L697,0 L556,0 L486,183 L216,183 L146,0 M325,469 L261,301 L441,301 L377,469 Q364,503 351,545 M227,792 L227,886 L475,886 L475,792"/> 
            <glyph glyph-name="ā" unicode="&#x101;" horiz-adv-x="528" d=" M528,0 L400,0 Q376,30 376,79 Q324,-14 210,-14 Q136,-14 89.5,28.5 Q43,71 43,141 Q43,212 92.5,252.5 Q142,293 220,305 L369,328 L369,347 Q369,422 278,422 Q236,422 212.5,406 Q189,390 189,366 Q189,360 191,354 L78,316 Q69,336 69,358 Q69,419 126,464.5 Q183,510 278,510 Q384,510 439.5,465 Q495,420 495,330 L495,123 Q495,48 528,0 M240,88 Q297,88 333,125.5 Q369,163 369,232 L369,241 L249,221 Q166,207 166,148 Q166,119 186,103.5 Q206,88 240,88 M159,588 L159,682 L407,682 L407,588"/> 
            <glyph glyph-name="Ă" unicode="&#x102;" horiz-adv-x="697" d=" M5,0 L288,700 L414,700 L697,0 L556,0 L486,183 L216,183 L146,0 M325,469 L261,301 L441,301 L377,469 Q364,503 351,545 M389,881 L465,881 Q465,832 433.5,800 Q402,768 351,768 Q300,768 268.5,800 Q237,832 237,881 L313,881 Q313,862 323,850 Q333,838 351,838 Q369,838 379,850 Q389,862 389,881"/> 
            <glyph glyph-name="ă" unicode="&#x103;" horiz-adv-x="528" d=" M528,0 L400,0 Q376,30 376,79 Q324,-14 210,-14 Q136,-14 89.5,28.5 Q43,71 43,141 Q43,212 92.5,252.5 Q142,293 220,305 L369,328 L369,347 Q369,422 278,422 Q236,422 212.5,406 Q189,390 189,366 Q189,360 191,354 L78,316 Q69,336 69,358 Q69,419 126,464.5 Q183,510 278,510 Q384,510 439.5,465 Q495,420 495,330 L495,123 Q495,48 528,0 M240,88 Q297,88 333,125.5 Q369,163 369,232 L369,241 L249,221 Q166,207 166,148 Q166,119 186,103.5 Q206,88 240,88 M321,677 L397,677 Q397,628 365.5,596 Q334,564 283,564 Q232,564 200.5,596 Q169,628 169,677 L245,677 Q245,658 255,646 Q265,634 283,634 Q301,634 311,646 Q321,658 321,677"/> 
            <glyph glyph-name="Ą" unicode="&#x104;" horiz-adv-x="699" d=" M525,-104 Q525,-43 584,0 L556,0 L486,183 L216,183 L146,0 L5,0 L288,700 L414,700 L697,0 Q625,-40 625,-78 Q625,-96 636.5,-106 Q648,-116 666,-116 Q675,-116 688,-114 L699,-191 Q673,-198 639,-198 Q594,-198 559.5,-173 Q525,-148 525,-104 M325,469 L261,301 L441,301 L377,469 Q364,503 351,545"/> 
            <glyph glyph-name="ą" unicode="&#x105;" horiz-adv-x="530" d=" M356,-104 Q356,-43 415,0 L400,0 Q376,30 376,79 Q324,-14 210,-14 Q136,-14 89.5,28.5 Q43,71 43,141 Q43,212 92.5,252.5 Q142,293 220,305 L369,328 L369,347 Q369,422 278,422 Q236,422 212.5,406 Q189,390 189,366 Q189,360 191,354 L78,316 Q69,336 69,358 Q69,419 126,464.5 Q183,510 278,510 Q384,510 439.5,465 Q495,420 495,330 L495,123 Q495,48 528,0 Q456,-40 456,-78 Q456,-96 467.5,-106 Q479,-116 497,-116 Q506,-116 519,-114 L530,-191 Q504,-198 470,-198 Q425,-198 390.5,-173 Q356,-148 356,-104 M240,88 Q297,88 333,125.5 Q369,163 369,232 L369,241 L249,221 Q166,207 166,148 Q166,119 186,103.5 Q206,88 240,88"/> 
            <glyph glyph-name="Ć" unicode="&#x106;" horiz-adv-x="720" d=" M617,248 L720,174 Q654,73 584,29.5 Q514,-14 404,-14 Q248,-14 147,87 Q46,188 46,350 Q46,511 149.5,612.5 Q253,714 409,714 Q516,714 598,663.5 Q680,613 716,531 L609,454 Q544,592 405,592 Q310,592 245,525.5 Q180,459 180,350 Q180,244 245,176 Q310,108 405,108 Q542,108 617,248 M324,754 L392,912 L545,912 L421,754"/> 
            <glyph glyph-name="ć" unicode="&#x107;" horiz-adv-x="528" d=" M426,195 L528,129 Q456,-14 296,-14 Q184,-14 109.5,58.5 Q35,131 35,248 Q35,364 111,437 Q187,510 296,510 Q378,510 437.5,474.5 Q497,439 523,375 L420,307 Q381,392 295,392 Q238,392 200.5,352.5 Q163,313 163,248 Q163,182 200,143 Q237,104 295,104 Q343,104 373.5,126.5 Q404,149 426,195 M209,550 L277,708 L430,708 L306,550"/> 
            <glyph glyph-name="Ĉ" unicode="&#x108;" horiz-adv-x="720" d=" M617,248 L720,174 Q654,73 584,29.5 Q514,-14 404,-14 Q248,-14 147,87 Q46,188 46,350 Q46,511 149.5,612.5 Q253,714 409,714 Q516,714 598,663.5 Q680,613 716,531 L609,454 Q544,592 405,592 Q310,592 245,525.5 Q180,459 180,350 Q180,244 245,176 Q310,108 405,108 Q542,108 617,248 M246,754 L359,911 L449,911 L562,754 L463,754 L404,814 L345,754"/> 
            <glyph glyph-name="ĉ" unicode="&#x109;" horiz-adv-x="528" d=" M426,195 L528,129 Q456,-14 296,-14 Q184,-14 109.5,58.5 Q35,131 35,248 Q35,364 111,437 Q187,510 296,510 Q378,510 437.5,474.5 Q497,439 523,375 L420,307 Q381,392 295,392 Q238,392 200.5,352.5 Q163,313 163,248 Q163,182 200,143 Q237,104 295,104 Q343,104 373.5,126.5 Q404,149 426,195 M137,550 L250,707 L340,707 L453,550 L354,550 L295,610 L236,550"/> 
            <glyph glyph-name="Ċ" unicode="&#x10A;" horiz-adv-x="720" d=" M617,248 L720,174 Q654,73 584,29.5 Q514,-14 404,-14 Q248,-14 147,87 Q46,188 46,350 Q46,511 149.5,612.5 Q253,714 409,714 Q516,714 598,663.5 Q680,613 716,531 L609,454 Q544,592 405,592 Q310,592 245,525.5 Q180,459 180,350 Q180,244 245,176 Q310,108 405,108 Q542,108 617,248 M335,772 L335,904 L473,904 L473,772"/> 
            <glyph glyph-name="ċ" unicode="&#x10B;" horiz-adv-x="528" d=" M426,195 L528,129 Q456,-14 296,-14 Q184,-14 109.5,58.5 Q35,131 35,248 Q35,364 111,437 Q187,510 296,510 Q378,510 437.5,474.5 Q497,439 523,375 L420,307 Q381,392 295,392 Q238,392 200.5,352.5 Q163,313 163,248 Q163,182 200,143 Q237,104 295,104 Q343,104 373.5,126.5 Q404,149 426,195 M226,568 L226,700 L364,700 L364,568"/> 
            <glyph glyph-name="Č" unicode="&#x10C;" horiz-adv-x="720" d=" M617,248 L720,174 Q654,73 584,29.5 Q514,-14 404,-14 Q248,-14 147,87 Q46,188 46,350 Q46,511 149.5,612.5 Q253,714 409,714 Q516,714 598,663.5 Q680,613 716,531 L609,454 Q544,592 405,592 Q310,592 245,525.5 Q180,459 180,350 Q180,244 245,176 Q310,108 405,108 Q542,108 617,248 M359,754 L246,911 L345,911 L404,851 L463,911 L562,911 L449,754"/> 
            <glyph glyph-name="č" unicode="&#x10D;" horiz-adv-x="528" d=" M426,195 L528,129 Q456,-14 296,-14 Q184,-14 109.5,58.5 Q35,131 35,248 Q35,364 111,437 Q187,510 296,510 Q378,510 437.5,474.5 Q497,439 523,375 L420,307 Q381,392 295,392 Q238,392 200.5,352.5 Q163,313 163,248 Q163,182 200,143 Q237,104 295,104 Q343,104 373.5,126.5 Q404,149 426,195 M250,550 L137,707 L236,707 L295,647 L354,707 L453,707 L340,550"/> 
            <glyph glyph-name="Ď" unicode="&#x10E;" horiz-adv-x="665" d=" M73,0 L73,700 L284,700 Q455,700 560,610 Q665,520 665,350 Q665,180 560,90 Q455,0 284,0 M293,122 Q403,122 467,180.5 Q531,239 531,350 Q531,461 467,519.5 Q403,578 293,578 L205,578 L205,122 M220,754 L107,911 L206,911 L265,851 L324,911 L423,911 L310,754"/> 
            <glyph glyph-name="ď" unicode="&#x10F;" horiz-adv-x="730" d=" M624,594 L624,700 L730,700 L730,592 L656,484 L630,499 L669,594 M561,700 L561,0 L435,0 L435,70 Q414,33 373.5,9.5 Q333,-14 279,-14 Q174,-14 104.5,57 Q35,128 35,248 Q35,366 108.5,438 Q182,510 279,510 Q389,510 435,435 L435,700 M243,104 Q363,104 403,144.5 Q443,185 443,248 Q443,311 403,351.5 Q363,392 303,392 Q243,392 203,351.5 Q163,311 163,248 Q163,185 243,104"/> 
            <glyph glyph-name="Đ" unicode="&#x110;" horiz-adv-x="703" d=" M33,295 L33,405 L111,405 L111,700 L322,700 Q493,700 598,610 Q703,520 703,350 Q703,180 598,90 Q493,0 322,0 L111,0 L111,295 M331,122 Q441,122 505,180.5 Q569,239 569,350 Q569,461 505,519.5 Q441,578 331,578 L243,578 L243,405 L398,405 L398,295 L243,295 L243,122"/> 
            <glyph glyph-name="đ" unicode="&#x111;" horiz-adv-x="623" d=" M561,700 L561,648 L623,648 L623,552 L561,552 L561,0 L435,0 L435,70 Q414,33 373.5,9.5 Q333,-14 279,-14 Q174,-14 104.5,57 Q35,128 35,248 Q35,366 108.5,438 Q182,510 279,510 Q389,510 435,435 L435,552 L275,552 L275,648 L435,648 L435,700 M243,104 Q363,104 403,144.5 Q443,185 443,248 Q443,311 403,351.5 Q363,392 303,392 Q243,392 203,351.5 Q163,311 163,248 Q163,185 243,104"/> 
            <glyph glyph-name="Ē" unicode="&#x112;" horiz-adv-x="559" d=" M73,0 L73,700 L556,700 L556,582 L205,582 L205,421 L528,421 L528,303 L205,303 L205,118 L559,118 L559,0 M193,792 L193,886 L441,886 L441,792"/> 
            <glyph glyph-name="ē" unicode="&#x113;" horiz-adv-x="538" d=" M538,218 L156,218 Q162,161 199,127.5 Q236,94 292,94 Q384,94 429,185 L523,131 Q453,-14 290,-14 Q184,-14 109.5,59.5 Q35,133 35,248 Q35,364 110.5,437 Q186,510 296,510 Q402,510 470,440.5 Q538,371 538,262 M292,414 Q243,414 206.5,384.5 Q170,355 156,310 L422,310 Q413,359 379,386.5 Q345,414 292,414 M165,588 L165,682 L413,682 L413,588"/> 
            <glyph glyph-name="Ĕ" unicode="&#x114;" horiz-adv-x="559" d=" M73,0 L73,700 L556,700 L556,582 L205,582 L205,421 L528,421 L528,303 L205,303 L205,118 L559,118 L559,0 M355,881 L431,881 Q431,832 399.5,800 Q368,768 317,768 Q266,768 234.5,800 Q203,832 203,881 L279,881 Q279,862 289,850 Q299,838 317,838 Q335,838 345,850 Q355,862 355,881"/> 
            <glyph glyph-name="ĕ" unicode="&#x115;" horiz-adv-x="538" d=" M538,218 L156,218 Q162,161 199,127.5 Q236,94 292,94 Q384,94 429,185 L523,131 Q453,-14 290,-14 Q184,-14 109.5,59.5 Q35,133 35,248 Q35,364 110.5,437 Q186,510 296,510 Q402,510 470,440.5 Q538,371 538,262 M292,414 Q243,414 206.5,384.5 Q170,355 156,310 L422,310 Q413,359 379,386.5 Q345,414 292,414 M327,677 L403,677 Q403,628 371.5,596 Q340,564 289,564 Q238,564 206.5,596 Q175,628 175,677 L251,677 Q251,658 261,646 Q271,634 289,634 Q307,634 317,646 Q327,658 327,677"/> 
            <glyph glyph-name="Ė" unicode="&#x116;" horiz-adv-x="559" d=" M73,0 L73,700 L556,700 L556,582 L205,582 L205,421 L528,421 L528,303 L205,303 L205,118 L559,118 L559,0 M248,772 L248,904 L386,904 L386,772"/> 
            <glyph glyph-name="ė" unicode="&#x117;" horiz-adv-x="538" d=" M538,218 L156,218 Q162,161 199,127.5 Q236,94 292,94 Q384,94 429,185 L523,131 Q453,-14 290,-14 Q184,-14 109.5,59.5 Q35,133 35,248 Q35,364 110.5,437 Q186,510 296,510 Q402,510 470,440.5 Q538,371 538,262 M292,414 Q243,414 206.5,384.5 Q170,355 156,310 L422,310 Q413,359 379,386.5 Q345,414 292,414 M220,568 L220,700 L358,700 L358,568"/> 
            <glyph glyph-name="Ę" unicode="&#x118;" horiz-adv-x="561" d=" M73,0 L73,700 L556,700 L556,582 L205,582 L205,421 L528,421 L528,303 L205,303 L205,118 L559,118 L559,0 Q487,-40 487,-78 Q487,-96 498.5,-106 Q510,-116 528,-116 Q537,-116 550,-114 L561,-191 Q535,-198 501,-198 Q456,-198 421.5,-173 Q387,-148 387,-104 Q387,-43 446,0"/> 
            <glyph glyph-name="ę" unicode="&#x119;" horiz-adv-x="538" d=" M212,-104 Q212,-53 256,-12 Q161,0 98,71 Q35,142 35,248 Q35,364 110.5,437 Q186,510 296,510 Q402,510 470,440.5 Q538,371 538,262 L538,218 L156,218 Q162,161 199,127.5 Q236,94 292,94 Q384,94 429,185 L523,131 Q474,32 384,0 Q351,-11 331.5,-31.5 Q312,-52 312,-75 Q312,-95 323.5,-105.5 Q335,-116 353,-116 Q362,-116 375,-114 L386,-191 Q360,-198 326,-198 Q281,-198 246.5,-173 Q212,-148 212,-104 M292,414 Q243,414 206.5,384.5 Q170,355 156,310 L422,310 Q413,359 379,386.5 Q345,414 292,414"/> 
            <glyph glyph-name="Ě" unicode="&#x11A;" horiz-adv-x="559" d=" M73,0 L73,700 L556,700 L556,582 L205,582 L205,421 L528,421 L528,303 L205,303 L205,118 L559,118 L559,0 M272,754 L159,911 L258,911 L317,851 L376,911 L475,911 L362,754"/> 
            <glyph glyph-name="ě" unicode="&#x11B;" horiz-adv-x="538" d=" M538,218 L156,218 Q162,161 199,127.5 Q236,94 292,94 Q384,94 429,185 L523,131 Q453,-14 290,-14 Q184,-14 109.5,59.5 Q35,133 35,248 Q35,364 110.5,437 Q186,510 296,510 Q402,510 470,440.5 Q538,371 538,262 M292,414 Q243,414 206.5,384.5 Q170,355 156,310 L422,310 Q413,359 379,386.5 Q345,414 292,414 M244,550 L131,707 L230,707 L289,647 L348,707 L447,707 L334,550"/> 
            <glyph glyph-name="Ĝ" unicode="&#x11C;" horiz-adv-x="721" d=" M634,0 L606,96 Q536,-14 393,-14 Q245,-14 145.5,89 Q46,192 46,350 Q46,508 151.5,611 Q257,714 409,714 Q512,714 593.5,667.5 Q675,621 715,543 L616,471 Q550,598 407,598 Q312,598 246,530 Q180,462 180,350 Q180,244 241.5,176 Q303,108 397,108 Q482,108 530,152.5 Q578,197 589,266 L363,266 L363,374 L721,374 L721,0 M242,754 L355,911 L445,911 L558,754 L459,754 L400,814 L341,754"/> 
            <glyph glyph-name="ĝ" unicode="&#x11D;" horiz-adv-x="541" d=" M69,9 L189,-28 Q183,-45 183,-62 Q183,-87 212,-102.5 Q241,-118 293,-118 Q415,-118 415,18 L415,82 Q370,8 274,8 Q174,8 104.5,79 Q35,150 35,259 Q35,368 106,439 Q177,510 275,510 Q369,510 415,442 L415,496 L541,496 L541,34 Q541,-89 474,-153.5 Q407,-218 293,-218 Q182,-218 118.5,-172.5 Q55,-127 55,-48 Q55,-16 69,9 M288,400 Q233,400 195,362.5 Q157,325 157,259 Q157,193 195,155.5 Q233,118 288,118 Q344,118 383,156 Q422,194 422,259 Q422,324 383,362 Q344,400 288,400 M150,550 L263,707 L353,707 L466,550 L367,550 L308,610 L249,550"/> 
            <glyph glyph-name="Ğ" unicode="&#x11E;" horiz-adv-x="721" d=" M634,0 L606,96 Q536,-14 393,-14 Q245,-14 145.5,89 Q46,192 46,350 Q46,508 151.5,611 Q257,714 409,714 Q512,714 593.5,667.5 Q675,621 715,543 L616,471 Q550,598 407,598 Q312,598 246,530 Q180,462 180,350 Q180,244 241.5,176 Q303,108 397,108 Q482,108 530,152.5 Q578,197 589,266 L363,266 L363,374 L721,374 L721,0 M443,881 L519,881 Q519,832 487.5,800 Q456,768 405,768 Q354,768 322.5,800 Q291,832 291,881 L367,881 Q367,862 377,850 Q387,838 405,838 Q423,838 433,850 Q443,862 443,881"/> 
            <glyph glyph-name="ğ" unicode="&#x11F;" horiz-adv-x="541" d=" M69,9 L189,-28 Q183,-45 183,-62 Q183,-87 212,-102.5 Q241,-118 293,-118 Q415,-118 415,18 L415,82 Q370,8 274,8 Q174,8 104.5,79 Q35,150 35,259 Q35,368 106,439 Q177,510 275,510 Q369,510 415,442 L415,496 L541,496 L541,34 Q541,-89 474,-153.5 Q407,-218 293,-218 Q182,-218 118.5,-172.5 Q55,-127 55,-48 Q55,-16 69,9 M288,400 Q233,400 195,362.5 Q157,325 157,259 Q157,193 195,155.5 Q233,118 288,118 Q344,118 383,156 Q422,194 422,259 Q422,324 383,362 Q344,400 288,400 M336,677 L412,677 Q412,628 380.5,596 Q349,564 298,564 Q247,564 215.5,596 Q184,628 184,677 L260,677 Q260,658 270,646 Q280,634 298,634 Q316,634 326,646 Q336,658 336,677"/> 
            <glyph glyph-name="Ġ" unicode="&#x120;" horiz-adv-x="721" d=" M634,0 L606,96 Q536,-14 393,-14 Q245,-14 145.5,89 Q46,192 46,350 Q46,508 151.5,611 Q257,714 409,714 Q512,714 593.5,667.5 Q675,621 715,543 L616,471 Q550,598 407,598 Q312,598 246,530 Q180,462 180,350 Q180,244 241.5,176 Q303,108 397,108 Q482,108 530,152.5 Q578,197 589,266 L363,266 L363,374 L721,374 L721,0 M336,772 L336,904 L474,904 L474,772"/> 
            <glyph glyph-name="ġ" unicode="&#x121;" horiz-adv-x="541" d=" M69,9 L189,-28 Q183,-45 183,-62 Q183,-87 212,-102.5 Q241,-118 293,-118 Q415,-118 415,18 L415,82 Q370,8 274,8 Q174,8 104.5,79 Q35,150 35,259 Q35,368 106,439 Q177,510 275,510 Q369,510 415,442 L415,496 L541,496 L541,34 Q541,-89 474,-153.5 Q407,-218 293,-218 Q182,-218 118.5,-172.5 Q55,-127 55,-48 Q55,-16 69,9 M288,400 Q233,400 195,362.5 Q157,325 157,259 Q157,193 195,155.5 Q233,118 288,118 Q344,118 383,156 Q422,194 422,259 Q422,324 383,362 Q344,400 288,400 M229,568 L229,700 L367,700 L367,568"/> 
            <glyph glyph-name="Ģ" unicode="&#x122;" horiz-adv-x="721" d=" M338,-182 L338,-60 L464,-60 L464,-182 L374,-314 L345,-303 L382,-182 M634,0 L606,96 Q536,-14 393,-14 Q245,-14 145.5,89 Q46,192 46,350 Q46,508 151.5,611 Q257,714 409,714 Q512,714 593.5,667.5 Q675,621 715,543 L616,471 Q550,598 407,598 Q312,598 246,530 Q180,462 180,350 Q180,244 241.5,176 Q303,108 397,108 Q482,108 530,152.5 Q578,197 589,266 L363,266 L363,374 L721,374 L721,0"/> 
            <glyph glyph-name="ģ" unicode="&#x123;" horiz-adv-x="541" d=" M343,686 L343,563 L217,563 L217,686 L328,822 L353,804 L292,686 M69,9 L189,-28 Q183,-45 183,-62 Q183,-87 212,-102.5 Q241,-118 293,-118 Q415,-118 415,18 L415,82 Q370,8 274,8 Q174,8 104.5,79 Q35,150 35,259 Q35,368 106,439 Q177,510 275,510 Q369,510 415,442 L415,496 L541,496 L541,34 Q541,-89 474,-153.5 Q407,-218 293,-218 Q182,-218 118.5,-172.5 Q55,-127 55,-48 Q55,-16 69,9 M288,400 Q233,400 195,362.5 Q157,325 157,259 Q157,193 195,155.5 Q233,118 288,118 Q344,118 383,156 Q422,194 422,259 Q422,324 383,362 Q344,400 288,400"/> 
            <glyph glyph-name="Ĥ" unicode="&#x124;" horiz-adv-x="643" d=" M73,0 L73,700 L205,700 L205,418 L511,418 L511,700 L643,700 L643,0 L511,0 L511,296 L205,296 L205,0 M200,754 L313,911 L403,911 L516,754 L417,754 L358,814 L299,754"/> 
            <glyph glyph-name="ĥ" unicode="&#x125;" horiz-adv-x="537" d=" M537,335 L537,0 L411,0 L411,286 Q411,336 385.5,364 Q360,392 311,392 Q258,392 223.5,353 Q189,314 189,252 L189,0 L63,0 L63,700 L189,700 L189,418 Q248,510 361,510 Q442,510 489.5,462.5 Q537,415 537,335 M43,764 L156,921 L246,921 L359,764 L260,764 L201,824 L142,764"/> 
            <glyph glyph-name="Ħ" unicode="&#x126;" horiz-adv-x="752" d=" M10,484 L10,578 L96,578 L96,700 L228,700 L228,578 L534,578 L534,700 L666,700 L666,578 L752,578 L752,484 L666,484 L666,0 L534,0 L534,296 L228,296 L228,0 L96,0 L96,484 M228,418 L534,418 L534,484 L228,484"/> 
            <glyph glyph-name="ħ" unicode="&#x127;" horiz-adv-x="545" d=" M9,552 L9,648 L71,648 L71,700 L197,700 L197,648 L357,648 L357,552 L197,552 L197,418 Q256,510 369,510 Q450,510 497.5,462.5 Q545,415 545,335 L545,0 L419,0 L419,286 Q419,336 393.5,364 Q368,392 319,392 Q266,392 231.5,353 Q197,314 197,252 L197,0 L71,0 L71,552"/> 
            <glyph glyph-name="Ĩ" unicode="&#x128;" horiz-adv-x="316" d=" M73,0 L73,700 L205,700 L205,0 M66,820 Q56,820 49.5,814 Q43,808 43,798 Q43,786 50,772 L-24,757 Q-38,778 -38,810 Q-38,853 -8,877 Q22,901 60,901 Q92,901 116.5,890.5 Q141,880 154,868 Q167,856 182.5,845.5 Q198,835 212,835 Q222,835 228.5,841 Q235,847 235,857 Q235,869 228,883 L302,898 Q316,877 316,845 Q316,802 286,778 Q256,754 218,754 Q186,754 161.5,764.5 Q137,775 124,787 Q111,799 96,809.5 Q81,820 66,820"/> 
            <glyph glyph-name="ĩ" unicode="&#x129;" horiz-adv-x="302" d=" M62,0 L62,496 L188,496 L188,0 M52,616 Q42,616 35.5,610 Q29,604 29,594 Q29,582 36,568 L-38,553 Q-52,574 -52,606 Q-52,649 -22,673 Q8,697 46,697 Q78,697 102.5,686.5 Q127,676 140,664 Q153,652 168.5,641.5 Q184,631 198,631 Q208,631 214.5,637 Q221,643 221,653 Q221,665 214,679 L288,694 Q302,673 302,641 Q302,598 272,574 Q242,550 204,550 Q173,550 148,560.5 Q123,571 110,583 Q97,595 81.5,605.5 Q66,616 52,616"/> 
            <glyph glyph-name="Ī" unicode="&#x12A;" horiz-adv-x="263" d=" M73,0 L73,700 L205,700 L205,0 M15,792 L15,886 L263,886 L263,792"/> 
            <glyph glyph-name="ī" unicode="&#x12B;" horiz-adv-x="249" d=" M62,0 L62,496 L188,496 L188,0 M1,588 L1,682 L249,682 L249,588"/> 
            <glyph glyph-name="Ĭ" unicode="&#x12C;" horiz-adv-x="253" d=" M73,0 L73,700 L205,700 L205,0 M177,881 L253,881 Q253,832 221.5,800 Q190,768 139,768 Q88,768 56.5,800 Q25,832 25,881 L101,881 Q101,862 111,850 Q121,838 139,838 Q157,838 167,850 Q177,862 177,881"/> 
            <glyph glyph-name="ĭ" unicode="&#x12D;" horiz-adv-x="239" d=" M62,0 L62,496 L188,496 L188,0 M163,677 L239,677 Q239,628 207.5,596 Q176,564 125,564 Q74,564 42.5,596 Q11,628 11,677 L87,677 Q87,658 97,646 Q107,634 125,634 Q143,634 153,646 Q163,658 163,677"/> 
            <glyph glyph-name="Į" unicode="&#x12E;" horiz-adv-x="207" d=" M73,0 L73,700 L205,700 L205,0 Q133,-40 133,-78 Q133,-96 144.5,-106 Q156,-116 174,-116 Q183,-116 196,-114 L207,-191 Q181,-198 147,-198 Q102,-198 67.5,-173 Q33,-148 33,-104 Q33,-43 92,0"/> 
            <glyph glyph-name="į" unicode="&#x12F;" horiz-adv-x="194" d=" M62,0 L62,496 L188,496 L188,0 Q116,-40 116,-78 Q116,-96 127.5,-106 Q139,-116 157,-116 Q166,-116 179,-114 L190,-191 Q164,-198 130,-198 Q85,-198 50.5,-173 Q16,-148 16,-104 Q16,-43 75,0 M56,568 L56,700 L194,700 L194,568"/> 
            <glyph glyph-name="İ" unicode="&#x130;" horiz-adv-x="208" d=" M73,0 L73,700 L205,700 L205,0 M70,772 L70,904 L208,904 L208,772"/> 
            <glyph glyph-name="ı" unicode="&#x131;" horiz-adv-x="189" d=" M63,0 L63,496 L189,496 L189,0"/> 
            <glyph glyph-name="Ĳ" unicode="&#x132;" horiz-adv-x="745" d=" M73,0 L73,700 L205,700 L205,0 M745,700 L745,214 Q745,112 684.5,49 Q624,-14 516,-14 Q408,-14 347.5,48.5 Q287,111 287,224 L419,210 Q420,108 516,108 Q563,108 588,137.5 Q613,167 613,216 L613,700"/> 
            <glyph glyph-name="ĳ" unicode="&#x133;" horiz-adv-x="434" d=" M62,0 L62,496 L188,496 L188,0 M56,568 L56,700 L194,700 L194,568 M191,-201 L207,-87 Q226,-95 246,-95 Q276,-95 289,-77.5 Q302,-60 302,-24 L302,496 L428,496 L428,-38 Q428,-122 387.5,-166.5 Q347,-211 266,-211 Q227,-211 191,-201 M296,568 L296,700 L434,700 L434,568"/> 
            <glyph glyph-name="Ĵ" unicode="&#x134;" horiz-adv-x="540" d=" M500,700 L500,214 Q500,112 439.5,49 Q379,-14 271,-14 Q163,-14 102.5,48.5 Q42,111 42,224 L174,210 Q176,108 271,108 Q318,108 343,137.5 Q368,167 368,216 L368,700 M224,754 L337,911 L427,911 L540,754 L441,754 L382,814 L323,754"/> 
            <glyph glyph-name="ĵ" unicode="&#x135;" horiz-adv-x="281" d=" M-49,-201 L-33,-87 Q-14,-95 6,-95 Q36,-95 49,-77.5 Q62,-60 62,-24 L62,496 L188,496 L188,-38 Q188,-122 147.5,-166.5 Q107,-211 26,-211 Q-13,-211 -49,-201 M-35,550 L78,707 L168,707 L281,550 L182,550 L123,610 L64,550"/> 
            <glyph glyph-name="Ķ" unicode="&#x136;" horiz-adv-x="639" d=" M275,-182 L275,-60 L401,-60 L401,-182 L311,-314 L282,-303 L319,-182 M623,700 L375,440 L639,0 L485,0 L280,342 L205,263 L205,0 L73,0 L73,700 L205,700 L205,430 L260,492 L456,700"/> 
            <glyph glyph-name="ķ" unicode="&#x137;" horiz-adv-x="520" d=" M215,-182 L215,-60 L341,-60 L341,-182 L251,-314 L222,-303 L259,-182 M189,700 L189,346 L340,496 L496,496 L315,319 L520,0 L375,0 L227,232 L189,195 L189,0 L63,0 L63,700"/> 
            <glyph glyph-name="ĸ" unicode="&#x138;" horiz-adv-x="520" d=" M189,496 L189,338 L340,496 L496,496 L310,306 L520,0 L375,0 L223,217 L189,182 L189,0 L63,0 L63,496"/> 
            <glyph glyph-name="Ĺ" unicode="&#x139;" horiz-adv-x="556" d=" M73,0 L73,700 L205,700 L205,122 L556,122 L556,0 M73,754 L141,912 L294,912 L170,754"/> 
            <glyph glyph-name="ĺ" unicode="&#x13A;" horiz-adv-x="284" d=" M63,0 L63,700 L189,700 L189,0 M63,754 L131,912 L284,912 L160,754"/> 
            <glyph glyph-name="Ļ" unicode="&#x13B;" horiz-adv-x="556" d=" M257,-182 L257,-60 L383,-60 L383,-182 L293,-314 L264,-303 L301,-182 M73,0 L73,700 L205,700 L205,122 L556,122 L556,0"/> 
            <glyph glyph-name="ļ" unicode="&#x13C;" horiz-adv-x="189" d=" M63,-182 L63,-60 L189,-60 L189,-182 L99,-314 L70,-303 L107,-182 M63,0 L63,700 L189,700 L189,0"/> 
            <glyph glyph-name="Ľ" unicode="&#x13D;" horiz-adv-x="556" d=" M417,582 L417,700 L536,700 L536,582 L423,447 L403,463 L463,582 M73,0 L73,700 L205,700 L205,122 L556,122 L556,0"/> 
            <glyph glyph-name="ľ" unicode="&#x13E;" horiz-adv-x="358" d=" M252,594 L252,700 L358,700 L358,592 L284,484 L258,499 L297,594 M63,0 L63,700 L189,700 L189,0"/> 
            <glyph glyph-name="Ŀ" unicode="&#x13F;" horiz-adv-x="556" d=" M73,0 L73,700 L205,700 L205,122 L556,122 L556,0 M361,283 L361,417 L495,417 L495,283"/> 
            <glyph glyph-name="ŀ" unicode="&#x140;" horiz-adv-x="386" d=" M63,0 L63,700 L189,700 L189,0 M252,283 L252,417 L386,417 L386,283"/> 
            <glyph glyph-name="Ł" unicode="&#x141;" horiz-adv-x="569" d=" M10,128 L10,250 L86,298 L86,700 L218,700 L218,382 L373,481 L373,359 L218,260 L218,122 L569,122 L569,0 L86,0 L86,176"/> 
            <glyph glyph-name="ł" unicode="&#x142;" horiz-adv-x="271" d=" M15,138 L15,248 L80,289 L80,700 L206,700 L206,369 L271,411 L271,301 L206,259 L206,0 L80,0 L80,179"/> 
            <glyph glyph-name="Ń" unicode="&#x143;" horiz-adv-x="657" d=" M73,0 L73,700 L207,700 L499,255 Q523,215 529,200 L529,700 L657,700 L657,0 L523,0 L231,448 Q207,488 201,503 L201,0 M285,754 L353,912 L506,912 L382,754"/> 
            <glyph glyph-name="ń" unicode="&#x144;" horiz-adv-x="531" d=" M531,338 L531,0 L405,0 L405,286 Q405,392 304,392 Q254,392 221.5,353 Q189,314 189,252 L189,0 L63,0 L63,496 L189,496 L189,416 Q250,510 357,510 Q436,510 483.5,463 Q531,416 531,338 M217,550 L285,708 L438,708 L314,550"/> 
            <glyph glyph-name="Ņ" unicode="&#x145;" horiz-adv-x="657" d=" M302,-182 L302,-60 L428,-60 L428,-182 L338,-314 L309,-303 L346,-182 M73,0 L73,700 L207,700 L499,255 Q523,215 529,200 L529,700 L657,700 L657,0 L523,0 L231,448 Q207,488 201,503 L201,0"/> 
            <glyph glyph-name="ņ" unicode="&#x146;" horiz-adv-x="531" d=" M234,-182 L234,-60 L360,-60 L360,-182 L270,-314 L241,-303 L278,-182 M531,338 L531,0 L405,0 L405,286 Q405,392 304,392 Q254,392 221.5,353 Q189,314 189,252 L189,0 L63,0 L63,496 L189,496 L189,416 Q250,510 357,510 Q436,510 483.5,463 Q531,416 531,338"/> 
            <glyph glyph-name="Ň" unicode="&#x147;" horiz-adv-x="657" d=" M73,0 L73,700 L207,700 L499,255 Q523,215 529,200 L529,700 L657,700 L657,0 L523,0 L231,448 Q207,488 201,503 L201,0 M320,754 L207,911 L306,911 L365,851 L424,911 L523,911 L410,754"/> 
            <glyph glyph-name="ň" unicode="&#x148;" horiz-adv-x="531" d=" M531,338 L531,0 L405,0 L405,286 Q405,392 304,392 Q254,392 221.5,353 Q189,314 189,252 L189,0 L63,0 L63,496 L189,496 L189,416 Q250,510 357,510 Q436,510 483.5,463 Q531,416 531,338 M262,550 L149,707 L248,707 L307,647 L366,707 L465,707 L352,550"/> 
            <glyph glyph-name="ŉ" unicode="&#x149;" horiz-adv-x="606" d=" M49,614 L49,730 L165,730 L165,614 L69,504 L45,521 L98,614 M606,338 L606,0 L480,0 L480,286 Q480,392 379,392 Q329,392 296.5,353 Q264,314 264,252 L264,0 L138,0 L138,496 L264,496 L264,416 Q325,510 432,510 Q511,510 558.5,463 Q606,416 606,338"/> 
            <glyph glyph-name="Ŋ" unicode="&#x14A;" horiz-adv-x="657" d=" M73,0 L73,700 L207,700 L499,255 Q523,215 529,200 L529,700 L657,700 L657,10 Q657,-99 607.5,-158.5 Q558,-218 455,-218 Q398,-218 350,-199 L397,-83 Q418,-96 446,-96 Q487,-96 505,-73 Q523,-50 523,0 L231,448 Q207,488 201,503 L201,0"/> 
            <glyph glyph-name="ŋ" unicode="&#x14B;" horiz-adv-x="531" d=" M294,-201 L310,-87 Q329,-95 349,-95 Q379,-95 392,-77.5 Q405,-60 405,-24 L405,286 Q405,392 304,392 Q254,392 221.5,353 Q189,314 189,252 L189,0 L63,0 L63,496 L189,496 L189,416 Q252,510 356,510 Q435,510 483,462.5 Q531,415 531,338 L531,-38 Q531,-122 490.5,-166.5 Q450,-211 369,-211 Q330,-211 294,-201"/> 
            <glyph glyph-name="Ō" unicode="&#x14C;" horiz-adv-x="766" d=" M766,507 Q766,193 663.5,89.5 Q561,-14 406,-14 Q251,-14 148.5,89.5 Q46,193 46,350 Q46,507 148.5,610.5 Q251,714 406,714 Q561,714 766,507 M308,108 Q504,108 568,173.5 Q632,239 632,350 Q632,461 568,526.5 Q504,592 406,592 Q308,592 244,526.5 Q180,461 180,350 Q180,239 308,108 M282,792 L282,886 L530,886 L530,792"/> 
            <glyph glyph-name="ō" unicode="&#x14D;" horiz-adv-x="577" d=" M577,371 Q577,125 496.5,55.5 Q416,-14 306,-14 Q196,-14 115.5,55.5 Q35,125 35,248 Q35,371 115.5,440.5 Q196,510 306,510 Q416,510 577,371 M248,104 Q364,104 406.5,143.5 Q449,183 449,248 Q449,313 406.5,352.5 Q364,392 306,392 Q248,392 205.5,352.5 Q163,313 163,248 Q163,183 248,104 M182,588 L182,682 L430,682 L430,588"/> 
            <glyph glyph-name="Ŏ" unicode="&#x14E;" horiz-adv-x="766" d=" M766,507 Q766,193 663.5,89.5 Q561,-14 406,-14 Q251,-14 148.5,89.5 Q46,193 46,350 Q46,507 148.5,610.5 Q251,714 406,714 Q561,714 766,507 M308,108 Q504,108 568,173.5 Q632,239 632,350 Q632,461 568,526.5 Q504,592 406,592 Q308,592 244,526.5 Q180,461 180,350 Q180,239 308,108 M444,881 L520,881 Q520,832 488.5,800 Q457,768 406,768 Q355,768 323.5,800 Q292,832 292,881 L368,881 Q368,862 378,850 Q388,838 406,838 Q424,838 434,850 Q444,862 444,881"/> 
            <glyph glyph-name="ŏ" unicode="&#x14F;" horiz-adv-x="577" d=" M577,371 Q577,125 496.5,55.5 Q416,-14 306,-14 Q196,-14 115.5,55.5 Q35,125 35,248 Q35,371 115.5,440.5 Q196,510 306,510 Q416,510 577,371 M248,104 Q364,104 406.5,143.5 Q449,183 449,248 Q449,313 406.5,352.5 Q364,392 306,392 Q248,392 205.5,352.5 Q163,313 163,248 Q163,183 248,104 M344,677 L420,677 Q420,628 388.5,596 Q357,564 306,564 Q255,564 223.5,596 Q192,628 192,677 L268,677 Q268,658 278,646 Q288,634 306,634 Q324,634 334,646 Q344,658 344,677"/> 
            <glyph glyph-name="Ő" unicode="&#x150;" horiz-adv-x="766" d=" M766,507 Q766,193 663.5,89.5 Q561,-14 406,-14 Q251,-14 148.5,89.5 Q46,193 46,350 Q46,507 148.5,610.5 Q251,714 406,714 Q561,714 766,507 M308,108 Q504,108 568,173.5 Q632,239 632,350 Q632,461 568,526.5 Q504,592 406,592 Q308,592 244,526.5 Q180,461 180,350 Q180,239 308,108 M236,754 L304,912 L457,912 L333,754 M425,754 L493,912 L646,912 L522,754"/> 
            <glyph glyph-name="ő" unicode="&#x151;" horiz-adv-x="577" d=" M577,371 Q577,125 496.5,55.5 Q416,-14 306,-14 Q196,-14 115.5,55.5 Q35,125 35,248 Q35,371 115.5,440.5 Q196,510 306,510 Q416,510 577,371 M248,104 Q364,104 406.5,143.5 Q449,183 449,248 Q449,313 406.5,352.5 Q364,392 306,392 Q248,392 205.5,352.5 Q163,313 163,248 Q163,183 248,104 M135,550 L203,708 L356,708 L232,550 M324,550 L392,708 L545,708 L421,550"/> 
            <glyph glyph-name="Œ" unicode="&#x152;" horiz-adv-x="1118" d=" M632,0 L632,87 Q543,-14 406,-14 Q251,-14 148.5,89.5 Q46,193 46,350 Q46,507 148.5,610.5 Q251,714 406,714 Q551,714 632,621 L632,700 L1115,700 L1115,582 L764,582 L764,421 L1087,421 L1087,303 L764,303 L764,118 L1118,118 L1118,0 M406,108 Q503,108 567.5,175 Q632,242 632,350 Q632,461 568,526.5 Q504,592 406,592 Q308,592 244,526.5 Q180,461 180,350 Q180,239 244,173.5 Q308,108 406,108"/> 
            <glyph glyph-name="œ" unicode="&#x153;" horiz-adv-x="959" d=" M959,218 L577,218 Q583,161 620,127.5 Q657,94 713,94 Q804,94 850,185 L944,131 Q874,-14 711,-14 Q592,-14 516,76 Q478,33 422,9.5 Q366,-14 306,-14 Q196,-14 115.5,55.5 Q35,125 35,248 Q35,371 115.5,440.5 Q196,510 306,510 Q366,510 421.5,486 Q477,462 516,418 Q595,510 717,510 Q823,510 891,440.5 Q959,371 959,262 M248,104 Q364,104 406.5,143.5 Q449,183 449,248 Q449,313 406.5,352.5 Q364,392 306,392 Q248,392 205.5,352.5 Q163,313 163,248 Q163,183 248,104 M713,414 Q664,414 627.5,384.5 Q591,355 577,310 L843,310 Q834,359 800,386.5 Q766,414 713,414"/> 
            <glyph glyph-name="Ŕ" unicode="&#x154;" horiz-adv-x="630" d=" M479,0 L317,284 L205,284 L205,0 L73,0 L73,700 L372,700 Q487,700 554,646.5 Q621,593 621,502 Q621,353 461,296 L630,0 M205,584 L205,400 L372,400 Q489,400 489,492 Q489,584 372,584 M233,754 L301,912 L454,912 L330,754"/> 
            <glyph glyph-name="ŕ" unicode="&#x155;" horiz-adv-x="370" d=" M370,504 L350,385 Q331,392 309,392 Q254,392 221.5,350.5 Q189,309 189,245 L189,0 L63,0 L63,496 L189,496 L189,417 Q235,510 327,510 Q350,510 370,504 M132,550 L200,708 L353,708 L229,550"/> 
            <glyph glyph-name="Ŗ" unicode="&#x156;" horiz-adv-x="630" d=" M273,-182 L273,-60 L399,-60 L399,-182 L309,-314 L280,-303 L317,-182 M479,0 L317,284 L205,284 L205,0 L73,0 L73,700 L372,700 Q487,700 554,646.5 Q621,593 621,502 Q621,353 461,296 L630,0 M205,584 L205,400 L372,400 Q489,400 489,492 Q489,584 372,584"/> 
            <glyph glyph-name="ŗ" unicode="&#x157;" horiz-adv-x="370" d=" M63,-182 L63,-60 L189,-60 L189,-182 L99,-314 L70,-303 L107,-182 M370,504 L350,385 Q331,392 309,392 Q254,392 221.5,350.5 Q189,309 189,245 L189,0 L63,0 L63,496 L189,496 L189,417 Q235,510 327,510 Q350,510 370,504"/> 
            <glyph glyph-name="Ř" unicode="&#x158;" horiz-adv-x="630" d=" M479,0 L317,284 L205,284 L205,0 L73,0 L73,700 L372,700 Q487,700 554,646.5 Q621,593 621,502 Q621,353 461,296 L630,0 M205,584 L205,400 L372,400 Q489,400 489,492 Q489,584 372,584 M278,754 L165,911 L264,911 L323,851 L382,911 L481,911 L368,754"/> 
            <glyph glyph-name="ř" unicode="&#x159;" horiz-adv-x="370" d=" M370,504 L350,385 Q331,392 309,392 Q254,392 221.5,350.5 Q189,309 189,245 L189,0 L63,0 L63,496 L189,496 L189,417 Q235,510 327,510 Q350,510 370,504 M157,550 L44,707 L143,707 L202,647 L261,707 L360,707 L247,550"/> 
            <glyph glyph-name="Ś" unicode="&#x15A;" horiz-adv-x="599" d=" M201,525 Q201,485 241,459.5 Q281,434 370,416 Q486,392 542.5,340 Q599,288 599,201 Q599,112 527.5,49 Q456,-14 338,-14 Q213,-14 139,47 Q65,108 44,210 L160,269 Q191,102 337,102 Q396,102 431.5,128 Q467,154 467,196 Q467,242 425.5,268 Q384,294 294,312 Q193,332 134,384.5 Q75,437 75,522 Q75,609 143,661.5 Q211,714 321,714 Q521,714 587,534 L483,474 Q441,598 318,598 Q268,598 234.5,579.5 Q201,561 201,525 M241,754 L309,912 L462,912 L338,754"/> 
            <glyph glyph-name="ś" unicode="&#x15B;" horiz-adv-x="463" d=" M180,374 Q180,328 297,304 Q384,286 423.5,249.5 Q463,213 463,151 Q463,79 410,32.5 Q357,-14 267,-14 Q181,-14 124.5,28 Q68,70 40,135 L141,199 Q158,150 190.5,121 Q223,92 269,92 Q300,92 323.5,106.5 Q347,121 347,147 Q347,171 322,185.5 Q297,200 241,211 Q68,245 68,366 Q68,433 122,471.5 Q176,510 253,510 Q332,510 379.5,480 Q427,450 458,385 L367,331 Q333,418 255,418 Q180,418 180,374 M170,550 L238,708 L391,708 L267,550"/> 
            <glyph glyph-name="Ŝ" unicode="&#x15C;" horiz-adv-x="599" d=" M201,525 Q201,485 241,459.5 Q281,434 370,416 Q486,392 542.5,340 Q599,288 599,201 Q599,112 527.5,49 Q456,-14 338,-14 Q213,-14 139,47 Q65,108 44,210 L160,269 Q191,102 337,102 Q396,102 431.5,128 Q467,154 467,196 Q467,242 425.5,268 Q384,294 294,312 Q193,332 134,384.5 Q75,437 75,522 Q75,609 143,661.5 Q211,714 321,714 Q521,714 587,534 L483,474 Q441,598 318,598 Q268,598 234.5,579.5 Q201,561 201,525 M168,754 L281,911 L371,911 L484,754 L385,754 L326,814 L267,754"/> 
            <glyph glyph-name="ŝ" unicode="&#x15D;" horiz-adv-x="463" d=" M180,374 Q180,328 297,304 Q384,286 423.5,249.5 Q463,213 463,151 Q463,79 410,32.5 Q357,-14 267,-14 Q181,-14 124.5,28 Q68,70 40,135 L141,199 Q158,150 190.5,121 Q223,92 269,92 Q300,92 323.5,106.5 Q347,121 347,147 Q347,171 322,185.5 Q297,200 241,211 Q68,245 68,366 Q68,433 122,471.5 Q176,510 253,510 Q332,510 379.5,480 Q427,450 458,385 L367,331 Q333,418 255,418 Q180,418 180,374 M92,550 L205,707 L295,707 L408,550 L309,550 L250,610 L191,550"/> 
            <glyph glyph-name="Ş" unicode="&#x15E;" horiz-adv-x="599" d=" M295,-114 L258,-81 L282,-10 Q182,3 122,61.5 Q62,120 44,210 L160,269 Q191,102 337,102 Q396,102 431.5,128 Q467,154 467,196 Q467,242 425.5,268 Q384,294 294,312 Q193,332 134,384.5 Q75,437 75,522 Q75,609 143,661.5 Q211,714 321,714 Q521,714 587,534 L483,474 Q441,598 318,598 Q268,598 234.5,579.5 Q201,561 201,525 Q201,485 241,459.5 Q281,434 370,416 Q486,392 542.5,340 Q599,288 599,201 Q599,113 529.5,50.5 Q460,-12 344,-14 L320,-55 Q336,-46 360,-46 Q394,-46 416,-68 Q438,-90 438,-124 Q438,-162 410.5,-184 Q383,-206 343,-206 Q265,-206 249,-145 L315,-128 Q319,-150 343,-150 Q368,-150 368,-125 Q368,-96 340,-96 Q316,-96 295,-114"/> 
            <glyph glyph-name="ş" unicode="&#x15F;" horiz-adv-x="463" d=" M226,-112 L189,-79 L213,-9 Q92,14 40,135 L141,199 Q158,150 190.5,121 Q223,92 269,92 Q300,92 323.5,106.5 Q347,121 347,147 Q347,171 322,185.5 Q297,200 241,211 Q68,245 68,366 Q68,433 122,471.5 Q176,510 253,510 Q332,510 379.5,480 Q427,450 458,385 L367,331 Q333,418 255,418 Q180,418 180,374 Q180,328 297,304 Q384,286 423.5,249.5 Q463,213 463,151 Q463,81 412,34.5 Q361,-12 274,-14 L251,-53 Q268,-44 291,-44 Q326,-44 347.5,-66 Q369,-88 369,-122 Q369,-160 341.5,-182 Q314,-204 274,-204 Q196,-204 180,-143 L246,-126 Q250,-148 274,-148 Q299,-148 299,-123 Q299,-94 271,-94 Q247,-94 226,-112"/> 
            <glyph glyph-name="Š" unicode="&#x160;" horiz-adv-x="599" d=" M201,525 Q201,485 241,459.5 Q281,434 370,416 Q486,392 542.5,340 Q599,288 599,201 Q599,112 527.5,49 Q456,-14 338,-14 Q213,-14 139,47 Q65,108 44,210 L160,269 Q191,102 337,102 Q396,102 431.5,128 Q467,154 467,196 Q467,242 425.5,268 Q384,294 294,312 Q193,332 134,384.5 Q75,437 75,522 Q75,609 143,661.5 Q211,714 321,714 Q521,714 587,534 L483,474 Q441,598 318,598 Q268,598 234.5,579.5 Q201,561 201,525 M281,754 L168,911 L267,911 L326,851 L385,911 L484,911 L371,754"/> 
            <glyph glyph-name="š" unicode="&#x161;" horiz-adv-x="463" d=" M180,374 Q180,328 297,304 Q384,286 423.5,249.5 Q463,213 463,151 Q463,79 410,32.5 Q357,-14 267,-14 Q181,-14 124.5,28 Q68,70 40,135 L141,199 Q158,150 190.5,121 Q223,92 269,92 Q300,92 323.5,106.5 Q347,121 347,147 Q347,171 322,185.5 Q297,200 241,211 Q68,245 68,366 Q68,433 122,471.5 Q176,510 253,510 Q332,510 379.5,480 Q427,450 458,385 L367,331 Q333,418 255,418 Q180,418 180,374 M205,550 L92,707 L191,707 L250,647 L309,707 L408,707 L295,550"/> 
            <glyph glyph-name="Ţ" unicode="&#x162;" horiz-adv-x="576" d=" M231,-182 L231,-60 L357,-60 L357,-182 L267,-314 L238,-303 L275,-182 M16,578 L16,700 L576,700 L576,578 L362,578 L362,0 L230,0 L230,578"/> 
            <glyph glyph-name="ţ" unicode="&#x163;" horiz-adv-x="344" d=" M165,-182 L165,-60 L291,-60 L291,-182 L201,-314 L172,-303 L209,-182 M24,394 L24,496 L101,496 L101,630 L227,630 L227,496 L335,496 L335,394 L227,394 L227,168 Q227,98 290,98 Q312,98 332,104 L344,0 Q306,-14 260,-14 Q101,-14 101,144 L101,394"/> 
            <glyph glyph-name="Ť" unicode="&#x164;" horiz-adv-x="576" d=" M16,578 L16,700 L576,700 L576,578 L362,578 L362,0 L230,0 L230,578 M251,754 L138,911 L237,911 L296,851 L355,911 L454,911 L341,754"/> 
            <glyph glyph-name="ť" unicode="&#x165;" horiz-adv-x="394" d=" M288,656 L288,762 L394,762 L394,654 L320,546 L294,561 L333,656 M24,394 L24,496 L101,496 L101,630 L227,630 L227,496 L335,496 L335,394 L227,394 L227,168 Q227,98 290,98 Q312,98 332,104 L344,0 Q306,-14 260,-14 Q101,-14 101,144 L101,394"/> 
            <glyph glyph-name="Ŧ" unicode="&#x166;" horiz-adv-x="576" d=" M16,578 L16,700 L576,700 L576,578 L362,578 L362,438 L500,438 L500,344 L362,344 L362,0 L230,0 L230,344 L92,344 L92,438 L230,438 L230,578"/> 
            <glyph glyph-name="ŧ" unicode="&#x167;" horiz-adv-x="344" d=" M24,394 L24,496 L101,496 L101,630 L227,630 L227,496 L335,496 L335,394 L227,394 L227,308 L322,308 L322,212 L227,212 L227,168 Q227,98 290,98 Q312,98 332,104 L344,0 Q306,-14 260,-14 Q101,-14 101,144 L101,212 L36,212 L36,308 L101,308 L101,394"/> 
            <glyph glyph-name="Ũ" unicode="&#x168;" horiz-adv-x="637" d=" M637,700 L637,265 Q637,134 557,60 Q477,-14 350,-14 Q223,-14 143,60 Q63,134 63,265 L63,700 L195,700 L195,278 Q195,197 236.5,152.5 Q278,108 350,108 Q422,108 463.5,152.5 Q505,197 505,278 L505,700 M277,820 Q267,820 260.5,814 Q254,808 254,798 Q254,786 261,772 L187,757 Q173,778 173,810 Q173,853 203,877 Q233,901 271,901 Q302,901 327,890.5 Q352,880 365,868 Q378,856 393,845.5 Q408,835 423,835 Q433,835 439.5,841 Q446,847 446,857 Q446,869 439,883 L513,898 Q527,877 527,845 Q527,802 497,778 Q467,754 429,754 Q397,754 372.5,764.5 Q348,775 335,787 Q322,799 307,809.5 Q292,820 277,820"/> 
            <glyph glyph-name="ũ" unicode="&#x169;" horiz-adv-x="531" d=" M63,188 L63,496 L189,496 L189,217 Q189,104 290,104 Q342,104 373.5,142 Q405,180 405,240 L405,496 L531,496 L531,0 L405,0 L405,78 Q355,-14 247,-14 Q166,-14 114.5,39 Q63,92 63,188 M224,616 Q214,616 207.5,610 Q201,604 201,594 Q201,582 208,568 L134,553 Q120,574 120,606 Q120,649 150,673 Q180,697 218,697 Q250,697 274.5,686.5 Q299,676 312,664 Q325,652 340.5,641.5 Q356,631 370,631 Q380,631 386.5,637 Q393,643 393,653 Q393,665 386,679 L460,694 Q474,673 474,641 Q474,598 444,574 Q414,550 376,550 Q344,550 319.5,560.5 Q295,571 282,583 Q269,595 253.5,605.5 Q238,616 224,616"/> 
            <glyph glyph-name="Ū" unicode="&#x16A;" horiz-adv-x="637" d=" M637,700 L637,265 Q637,134 557,60 Q477,-14 350,-14 Q223,-14 143,60 Q63,134 63,265 L63,700 L195,700 L195,278 Q195,197 236.5,152.5 Q278,108 350,108 Q422,108 463.5,152.5 Q505,197 505,278 L505,700 M226,792 L226,886 L474,886 L474,792"/> 
            <glyph glyph-name="ū" unicode="&#x16B;" horiz-adv-x="531" d=" M63,188 L63,496 L189,496 L189,217 Q189,104 290,104 Q342,104 373.5,142 Q405,180 405,240 L405,496 L531,496 L531,0 L405,0 L405,78 Q355,-14 247,-14 Q166,-14 114.5,39 Q63,92 63,188 M173,588 L173,682 L421,682 L421,588"/> 
            <glyph glyph-name="Ŭ" unicode="&#x16C;" horiz-adv-x="637" d=" M637,700 L637,265 Q637,134 557,60 Q477,-14 350,-14 Q223,-14 143,60 Q63,134 63,265 L63,700 L195,700 L195,278 Q195,197 236.5,152.5 Q278,108 350,108 Q422,108 463.5,152.5 Q505,197 505,278 L505,700 M388,881 L464,881 Q464,832 432.5,800 Q401,768 350,768 Q299,768 267.5,800 Q236,832 236,881 L312,881 Q312,862 322,850 Q332,838 350,838 Q368,838 378,850 Q388,862 388,881"/> 
            </font>
</defs>
</svg>
