<svg xmlns="http://www.w3.org/2000/svg" viewBox="0 0 264.32 101.2" fill="#fff"><circle class="cls-1" cx="229" cy="50.86" r="35.32"/><circle class="cls-1" cx="181.45" cy="50.56" r="28.78"/><path class="cls-2" d="M53.55,75.09a24.44,24.44,0,1,1,24.9-24,24.44,24.44,0,0,1-24.9,24"/><path class="cls-2" d="M72.2,75.06a50.59,50.59,0,1,1,68.75,19.81A50.59,50.59,0,0,1,72.2,75.06"/><circle class="cls-1" cx="11.92" cy="50.14" r="11.92"/><g fill="#263a64"><path class="cls-3"      d="M70.92,60.35c.18,1.9,1,3.49,3.2,3.86a13.44,13.44,0,0,0,5.08-.06c2.11-.49,2.62-2.43,2.76-4.34.12-1.6-.06-3.14-.09-4.74,0-.8.41-2.11,1.39-2.14a2.42,2.42,0,0,1,2.26,2,14,14,0,0,1,.57,2.16,30.17,30.17,0,0,0,.5,3,7.42,7.42,0,0,0,.81,2.11c1.34,2.28,4.71,2.26,7,2.26a14.57,14.57,0,0,0,3.34-.32,3.79,3.79,0,0,0,2.37-5.92,6.89,6.89,0,0,0-1.51-1.7c-2-1.63-6-3.17-6-6.2,0-1.8,2.24-3.51,3.44-4.64,1.62-1.55,3.43-3.48,3.43-5.88C99.44,37,96.16,37,94.07,37c-2.35,0-5,.41-6.12,2.8-.89,1.94-1.4,4.7-2.9,6.26a2.06,2.06,0,0,1-1.48.63,1.39,1.39,0,0,1-1.48-1A15.29,15.29,0,0,1,82,41.48c0-2.56-1-4.31-3.59-5a7.15,7.15,0,0,0-1.83-.25c-1.81,0-3.79.36-4.95,1.89a5.18,5.18,0,0,0-.92,2.7,110.34,110.34,0,0,0,.2,19.51"/><path class="cls-3"      d="M108.66,37.13c-.37,0-.81,0-1.32,0s-1.05.08-1.62.15a13.52,13.52,0,0,0-1.68.32,7.18,7.18,0,0,0-1.5.55,3.17,3.17,0,0,0-1.08.85,1.87,1.87,0,0,0-.42,1.2,3.45,3.45,0,0,0,.36,1.53,3.06,3.06,0,0,0,.89,1.09,2,2,0,0,0,1.15.41,5.69,5.69,0,0,0,1.41-.23c.53-.15,1.08-.32,1.65-.52s1.1-.36,1.6-.51a4.51,4.51,0,0,1,1.23-.23,2.79,2.79,0,0,1,1.24.21.64.64,0,0,1,.39.59.82.82,0,0,1-.49.74,4,4,0,0,1-1.29.36c-.54.08-1.14.14-1.81.19s-1.37.13-2.08.23a11.79,11.79,0,0,0-2.08.47,6.12,6.12,0,0,0-1.82.91A4.21,4.21,0,0,0,100.1,47a5.71,5.71,0,0,0-.49,2.44A6.79,6.79,0,0,0,100.1,52,5.47,5.47,0,0,0,101.42,54a5.72,5.72,0,0,0,2,1.2,7.19,7.19,0,0,0,2.47.42,8.56,8.56,0,0,0,1.83-.18A5.48,5.48,0,0,0,109,55a6.34,6.34,0,0,0,.94-.57l.77-.55.28-.18a.48.48,0,0,1,.26-.08.21.21,0,0,1,.19.12,1.44,1.44,0,0,1,.11.32,1.53,1.53,0,0,0,.56.93,2.4,2.4,0,0,0,1,.43,7,7,0,0,0,1.34.11,11.9,11.9,0,0,0,1.78-.11,3.4,3.4,0,0,0,1.13-.33,1.65,1.65,0,0,0,.64-.57,2.72,2.72,0,0,0,.34-.84,8,8,0,0,0,.19-1.09c.05-.43.09-.89.11-1.41s0-1,0-1.6,0-1,0-1.59,0-1.16-.07-1.76-.08-1.19-.13-1.75-.14-1.08-.22-1.55a6.31,6.31,0,0,0-.32-1.19,6.52,6.52,0,0,0-1.49-2.3,6.6,6.6,0,0,0-2.13-1.4,10.91,10.91,0,0,0-2.64-.7,20.66,20.66,0,0,0-3-.19m-.3,13.44a1.9,1.9,0,0,1-1.26-.41,1.36,1.36,0,0,1-.47-1.06,1.69,1.69,0,0,1,.45-1.24,2.51,2.51,0,0,1,1.17-.64l.82-.21.85-.21.73-.15a2.92,2.92,0,0,1,.46-.06.41.41,0,0,1,.33.14.48.48,0,0,1,.13.36,4.22,4.22,0,0,1-.4,1.89,2.71,2.71,0,0,1-1.12,1.18A3.4,3.4,0,0,1,108.36,50.58Z"/><path class="cls-3"      d="M121.09,44.75a10.73,10.73,0,0,0-.45,2.29c-.11,1-.2,2.17-.26,3.51s-.11,2.78-.12,4.33,0,3.13,0,4.77,0,3.24,0,4.85.06,3.13.11,4.57.13,2.72.23,3.84a21.82,21.82,0,0,0,.36,2.66,3.79,3.79,0,0,0,1.09,2,4.69,4.69,0,0,0,2.06,1,12.39,12.39,0,0,0,3,.3,8.11,8.11,0,0,0,2.95-.49A4.17,4.17,0,0,0,132,76.94a4,4,0,0,0,.67-2.33c0-.92,0-1.7,0-2.34s0-1.25,0-1.79,0-1.09,0-1.67a1.15,1.15,0,0,1,.23-.68.7.7,0,0,1,.51-.27,1.12,1.12,0,0,1,.48.1,1.38,1.38,0,0,1,.48.38,6.75,6.75,0,0,0,.88.83,8.5,8.5,0,0,0,3.17,1.6,9,9,0,0,0,2.29.29,10.84,10.84,0,0,0,4.67-1,11,11,0,0,0,3.79-2.95,13.84,13.84,0,0,0,2.54-4.68,19.9,19.9,0,0,0,.93-6.22,19.67,19.67,0,0,0-.85-5.86,14.19,14.19,0,0,0-2.41-4.64,10.74,10.74,0,0,0-8.66-4.17,8.55,8.55,0,0,0-6.82,2.86,1.19,1.19,0,0,1-.9.33.88.88,0,0,1-.65-.26,3.73,3.73,0,0,1-.52-.75,3.73,3.73,0,0,0-1-1.16,3.86,3.86,0,0,0-1.52-.66,11.08,11.08,0,0,0-2.38-.2,7.89,7.89,0,0,0-3.67.73,4.2,4.2,0,0,0-2.08,2.41Zm10.64,11.84a8.94,8.94,0,0,1,.5-3,4.88,4.88,0,0,1,1.51-2.17,4,4,0,0,1,2.52-.83,3.92,3.92,0,0,1,2.37.77,4.93,4.93,0,0,1,1.54,2.07,7.76,7.76,0,0,1,.56,3,8.78,8.78,0,0,1-.24,2,6.64,6.64,0,0,1-.78,1.88,4.29,4.29,0,0,1-1.4,1.4,4.28,4.28,0,0,1-4.54-.21,4.69,4.69,0,0,1-1.51-2A7.46,7.46,0,0,1,131.73,56.59Z"/><path class="cls-3"      d="M247.34,63.36a13.35,13.35,0,0,0,7.91-1.73A8.45,8.45,0,0,0,257.9,59,10.76,10.76,0,0,0,259.27,55a12.3,12.3,0,0,0-1.44-8.46,7.72,7.72,0,0,0-6.4-3.63A5.49,5.49,0,0,0,248,44.06a5.06,5.06,0,0,0-.71.68.79.79,0,0,1-.79.3c-.41-.16-.37-.85-.37-1.21,0-.71,0-1.42,0-2.13a7.4,7.4,0,0,0-.09-1.68,2.61,2.61,0,0,0-.82-1.52,3.85,3.85,0,0,0-2-.77,6.85,6.85,0,0,0-2.39.09,3.08,3.08,0,0,0-1.79,1,3.6,3.6,0,0,0-.69,1.7c-.15.84-.2,1.71-.27,2.56a86.69,86.69,0,0,0,0,11.11,21.21,21.21,0,0,0,1.16,6.16v0c.55,1.46,2.1,2.17,3.51,2.54a22.3,22.3,0,0,0,4.58.54M245.9,50.67A3,3,0,0,1,249,48.83a3.22,3.22,0,0,1,2.44,2.68,5,5,0,0,1-.6,3.77,3.07,3.07,0,0,1-1.52,1.19,2.63,2.63,0,0,1-2-.15,3.39,3.39,0,0,1-1.7-2.5,5.68,5.68,0,0,1,.26-3.15"/><path class="cls-3"      d="M149.55,36.41a14.39,14.39,0,0,0,.24,2.53,21.16,21.16,0,0,0,.7,2.85,23.76,23.76,0,0,0,1.13,2.92,21.11,21.11,0,0,0,1.52,2.76A15.63,15.63,0,0,0,155,49.81a4.09,4.09,0,0,0,.69.54,4,4,0,0,0,.77.36,1.44,1.44,0,0,1,.65.41.93.93,0,0,1,.21.63,1.45,1.45,0,0,1-.12.58,1.52,1.52,0,0,1-.33.5,5.42,5.42,0,0,1-.91.71c-.35.22-.68.43-1,.65a3.23,3.23,0,0,0-.81.77,1.75,1.75,0,0,0-.33,1,3,3,0,0,0,.36,1.4,4,4,0,0,0,.94,1.15,4.83,4.83,0,0,0,1.31.78,4,4,0,0,0,1.45.28,4.16,4.16,0,0,0,1.54-.29,4.59,4.59,0,0,0,1.13-.65,17.47,17.47,0,0,0,2.61-2.6,30.64,30.64,0,0,0,2.43-3.44,39.12,39.12,0,0,0,2.11-4,39.69,39.69,0,0,0,1.67-4.19,31.41,31.41,0,0,0,1.1-4.08,19.57,19.57,0,0,0,.4-3.67,3.9,3.9,0,0,0-.28-1.61,2.16,2.16,0,0,0-.81-1,3.7,3.7,0,0,0-1.33-.47,10.68,10.68,0,0,0-1.8-.12,5.2,5.2,0,0,0-1.71.26,3.13,3.13,0,0,0-1.12.65,2.49,2.49,0,0,0-.62.88,2.63,2.63,0,0,0-.19,1c0,.18,0,.48,0,.88s-.07.87-.12,1.42-.13,1.11-.22,1.7-.19,1.18-.31,1.75a14.21,14.21,0,0,1-.43,1.56,4.41,4.41,0,0,1-.54,1.11.88.88,0,0,1-.66.43.9.9,0,0,1-.72-.43,3.93,3.93,0,0,1-.52-1.14,14.49,14.49,0,0,1-.38-1.62c-.12-.6-.22-1.22-.33-1.86s-.22-1.26-.33-1.87a14.6,14.6,0,0,0-.42-1.65,6.17,6.17,0,0,0-.82-1.68,2.74,2.74,0,0,0-1-.88,4.08,4.08,0,0,0-1.35-.34c-.51,0-1.09-.06-1.75-.06a4.67,4.67,0,0,0-1.92.36,2.67,2.67,0,0,0-1.18,1,2.63,2.63,0,0,0-.4,1.45Z"/><path class="cls-3"      d="M168,54.94a13.35,13.35,0,0,0,1,5.13,11.67,11.67,0,0,0,2.74,4,12.59,12.59,0,0,0,4.23,2.61,15.41,15.41,0,0,0,5.43.93,23.37,23.37,0,0,0,5-.5A13.12,13.12,0,0,0,190,65.81a6.71,6.71,0,0,0,2.23-1.92,3.9,3.9,0,0,0,.76-2.27,4.92,4.92,0,0,0-.39-2,3.37,3.37,0,0,0-1.18-1.46,3.44,3.44,0,0,0-2-.57,5.11,5.11,0,0,0-1.68.25,5.87,5.87,0,0,0-1.25.58l-1.13.7a6.27,6.27,0,0,1-1.34.58,6.38,6.38,0,0,1-1.85.24,3.44,3.44,0,0,1-2.17-.71,4.23,4.23,0,0,1-1.31-1.91,8.12,8.12,0,0,1-.45-2.81,7.23,7.23,0,0,1,.23-1.84,5,5,0,0,1,.72-1.59A3.53,3.53,0,0,1,180.47,50a3.85,3.85,0,0,1,1.82-.43,8,8,0,0,1,2,.23,5.14,5.14,0,0,1,1.33.55c.36.22.69.44,1,.65a4.46,4.46,0,0,0,1,.56,4.21,4.21,0,0,0,1.43.23,3.59,3.59,0,0,0,2-.58,3.67,3.67,0,0,0,1.28-1.5,4.88,4.88,0,0,0,.45-2.09,3.57,3.57,0,0,0-.74-2.13,6.55,6.55,0,0,0-2.18-1.82,13.1,13.1,0,0,0-3.55-1.26A23.3,23.3,0,0,0,181.5,42a15.37,15.37,0,0,0-5.59,1,12.44,12.44,0,0,0-4.27,2.73,11.87,11.87,0,0,0-2.73,4.11,13.68,13.68,0,0,0-1,5.14"/><path class="cls-3"      d="M204.47,37.76a11.69,11.69,0,0,0-3.75.58,9.79,9.79,0,0,0-2.92,1.54,9.56,9.56,0,0,0-2.1,2.24,10.2,10.2,0,0,0-1.26,2.66,9.7,9.7,0,0,0-.42,2.8,10,10,0,0,0,.82,4.1,8.7,8.7,0,0,0,2.24,3,10,10,0,0,0,3.36,1.89,13,13,0,0,0,4.13.65,14.8,14.8,0,0,0,2.67-.25,14,14,0,0,0,2.44-.67,10.34,10.34,0,0,0,2-1A5.2,5.2,0,0,0,213,54.09a2.33,2.33,0,0,0,.5-1.36,3.46,3.46,0,0,0-.37-1.56,3.13,3.13,0,0,0-1-1.13,2.24,2.24,0,0,0-1.3-.43,2.71,2.71,0,0,0-1,.2,7.52,7.52,0,0,0-1,.47c-.31.19-.66.38-1,.56a6.31,6.31,0,0,1-1.26.47,6.44,6.44,0,0,1-1.63.2,3.71,3.71,0,0,1-1.34-.25,3.26,3.26,0,0,1-1-.62,2.84,2.84,0,0,1-.62-.81,1.9,1.9,0,0,1-.21-.82.49.49,0,0,1,.19-.4.69.69,0,0,1,.4-.13l1.59,0,1.76-.06,1.74-.06,1.53,0c.56,0,1.09,0,1.59.09s1,.08,1.46.09a1.9,1.9,0,0,0,1.24-.41,2.3,2.3,0,0,0,.69-1.08,5,5,0,0,0,.21-1.49,6,6,0,0,0-.41-2.1,8,8,0,0,0-1.22-2.08,8.7,8.7,0,0,0-2-1.8,9.91,9.91,0,0,0-2.74-1.27,11.92,11.92,0,0,0-3.46-.49m-1.93,7.54a.38.38,0,0,1-.3-.1.41.41,0,0,1-.09-.28,1.33,1.33,0,0,1,.18-.6,2.33,2.33,0,0,1,.53-.64,2.83,2.83,0,0,1,.85-.51,3.23,3.23,0,0,1,1.15-.21,3.74,3.74,0,0,1,1.47.27,2.24,2.24,0,0,1,.92.67,1.46,1.46,0,0,1,.32.89.48.48,0,0,1-.49.49Z"/><path class="cls-3"      d="M236.91,62.31a11.25,11.25,0,0,0-.2-1.95c-.13-.69-.3-1.36-.49-2s-.38-1.28-.57-1.82q-.41-1.19-1-2.54c-.38-.9-.8-1.82-1.29-2.75a31.11,31.11,0,0,0-1.61-2.74,23.16,23.16,0,0,0-1.93-2.54,7.59,7.59,0,0,0-1.69-1.47,5.19,5.19,0,0,0-1.81-.69,12,12,0,0,0-2.29-.18,7.42,7.42,0,0,0-2.34.36,6.49,6.49,0,0,0-1.84,1,6.69,6.69,0,0,0-1.34,1.37A20.88,20.88,0,0,0,217,48.7c-.47.86-.92,1.75-1.32,2.65s-.8,1.8-1.15,2.67c-.46,1.13-.86,2.12-1.18,3s-.59,1.61-.78,2.27a14.87,14.87,0,0,0-.43,1.75,9,9,0,0,0-.13,1.44,2.59,2.59,0,0,0,.39,1.41,2.7,2.7,0,0,0,1,.91,5,5,0,0,0,1.46.49,9.44,9.44,0,0,0,1.69.14,7.51,7.51,0,0,0,1.81-.2,4.14,4.14,0,0,0,1.52-.71,2.59,2.59,0,0,0,.92-1.34c.07-.25.17-.64.27-1.16s.22-1.13.35-1.83.28-1.42.44-2.18.32-1.5.5-2.23.36-1.38.56-2a7.5,7.5,0,0,1,.6-1.41c.21-.35.41-.53.63-.54s.41.21.62.57a8.29,8.29,0,0,1,.65,1.48c.22.61.44,1.3.65,2.05s.41,1.51.61,2.28.38,1.5.54,2.18.32,1.26.44,1.73a6.8,6.8,0,0,0,.66,1.69,2.83,2.83,0,0,0,.92,1,3.45,3.45,0,0,0,1.31.47,10.17,10.17,0,0,0,1.8.12,8.56,8.56,0,0,0,2.43-.29,3,3,0,0,0,1.57-1,2.87,2.87,0,0,0,.57-1.84"/></g></svg>
