<svg xmlns="http://www.w3.org/2000/svg" viewBox="0 0 106.59 70.12" fill="#fff"><path class="cls-2" d="M85.15,41.27H79.44V34.06h5.81a3.53,3.53,0,0,1,3.41,3.51A3.59,3.59,0,0,1,85.15,41.27Zm1,14.13H79.44V47.89h6.71a3.75,3.75,0,0,1,3.91,3.71A3.66,3.66,0,0,1,86.15,55.4Zm1.4,7.11C94.67,62.51,99,58.41,99,52a8.74,8.74,0,0,0-5.41-8.41c2.71-1.8,3.31-4.41,3.31-7.11,0-6.21-4.71-9.32-11.32-9.32H65.42v6.91h5.81V55.4H65.42v7.11ZM42.37,27.15H29V41.27H20.84V27.15H7.41v6.91h5.81V55.4H7.41v7.11H20.84V47.89H29V62.51H42.37V55.4H36.76V34.06h5.61Zm59.7,16.23a11.24,11.24,0,0,1,4.51,9c0,5.81-1.81,9.31-5,12.52s-8.52,5.21-14.83,5.21H58V61.84a11.82,11.82,0,0,0,0-22.17V13.32h7.42v6.61h7.31V7.31H35.06V19.93h7.31V13.32h7.41V39.66a11.83,11.83,0,0,0,0,22.18v8.28H0V47.89H5.91V41.27H0V19.53H27.45V0h53.1V19.53h3.71c5.51,0,10.82,1.3,14.22,3.81a14.37,14.37,0,0,1,6,12.22C104.48,37.87,104,41.27,102.08,43.38Z"/></svg>
