<svg xmlns="http://www.w3.org/2000/svg" viewBox="0 0 312.69 312.43" fill="#fff">          <path d="M48.62,190.67c8.29-9.76,14.92-17.84,17.3-21.39,5-3.94,19.51-17.16,19.51-17.16l40.79-58.57,5.1-4.78,8.31-9.46,4.14-6,13.86-11,8.15,10.74,6.45,2,4,16.09,5,4.81L186,109.24l10.67,16.11,1.67,9.32,26.77,12.21L243.65,178l.87,5.43,12.12,17.92L268.54,220h.15A129.74,129.74,0,1,0,36.25,205.59C40.46,200.54,45.85,193.93,48.62,190.67Z"/>       <path d="M92.74,163.6c4-6,5.78-8.31,5.42-8.72-.62-.7-5.27,4.14-9.17,7.86a52.17,52.17,0,0,0-5.47,5.54c-3.71,4.61-8.17,11.42-15.08,20.64-2.15,2.87-5.29,6-7.85,9.4-1.74,2.32-1.81,3.38,1.37,0s14-15.62,15.92-18c4.25-5.49,5.19-2.42,8-6.75C85.84,173.53,90.07,167.59,92.74,163.6Z"/>       <path d="M118.29,143.89c4.19-6.7,6.27-10.67,8.39-11.93s3.5-3.06,6.69-7.38,3.4-4.75,4.14-4.23-2.23,5-4.15,9.72-1.61,7.72-1.94,12.79-3.19,6.66-6.06,12.58-4.15,8.34-6,8.87-2.54,1.05-4,4.22a19.88,19.88,0,0,1-4.36,6.34c-1.85,2-2.07,2.27-2.55,3.74a6.7,6.7,0,0,1-3.13,3.54c-1.54.95-5.31,6.49-6.42,7.76s-1.59,1.21,0-2.33,4.89-9.4,5.85-11.36.43-3,2.88-9,3.46-7.5,4.47-9,.64-2.49.11-2.65-1.05-.74.64-3.65S115.77,147.93,118.29,143.89Z"/>       <path d="M162.33,151.77c-1.36-5-1.47-5.64-2.27-8s-1.12-3.67,1.17-6.2,1.34-8.18-.86-14.25c0,0-3.62-9.64-2.46-10.54s3.79,6.73,10,17.75,9.47,17.49,15.31,28.29,5.48,11.66,5.62,13.24c.25,2.75-2.73,3.72-2.19,5.55.78,2.64,3.66,12.91,4.56,14.72s1.84,2.17,4.11,6.57,2.26,6.2,1.41,7.1-1.22,1.68-.54,4.28a61.87,61.87,0,0,0,4.25,10.12c1,1.69,1,2.38-.8,1.37s-2.37-1.54-3.85-4.66-7.62-16.1-10-21-4.47-9.69-6.68-14.3-2.57-7.15-4.53-8.16-3.8-.65-5-2.71-1.16-2.84-2.05-3.46-1.47-2.58-2.84-7.46S163.3,155.31,162.33,151.77Z"/>       <path d="M189.93,142c2.54,5,5,10.59,8.1,17s6.95,13.45,9.79,19,7.27,11.55,10.12,13.15,3.81.12,7.08,3.2,11.81,13.26,14.66,16.13S246,219.8,248,221.7s-.42-3.59-3.36-8.16-7.26-12.92-10.53-18.22-4.64-6.78-5.16-8.59-.42-1.69-6.75-7.64-9.92-9-11.61-11.58,1.28-3.48-1.89-7.4-7.17-8.59-11.07-12.52a80.93,80.93,0,0,1-7.7-9.12c-2.42-3.08-3.16-4.88-4-4.25S188.1,138.34,189.93,142Z"/>       <path d="M77.67,304.42a9.55,9.55,0,0,1-16.16,5.23,8.11,8.11,0,0,1-2.21-4.38,57.58,57.58,0,0,1,0-11.47,8.11,8.11,0,0,1,2.21-4.38,9.3,9.3,0,0,1,6.84-2.78,8.91,8.91,0,0,1,9.33,8h-5q-.89-3.59-4.28-3.59a4,4,0,0,0-3.45,1.67q-1,1.36-1,6.8,0,3,.07,3.7a6.28,6.28,0,0,0,1.18,3.46A4,4,0,0,0,68.38,308q3.39,0,4.28-3.6Z"/>       <path d="M106.31,312.22h-4.95V301.61H92.78v10.61h-5V286.87h5v10.36h8.58V286.87h4.95Z"/>       <path d="M137.69,312.22h-5.16L131,307.73h-9l-1.53,4.49h-5.16l9.22-25.35h3.88Zm-8-8.65-3.1-9.22-3.2,9.22Z"/>       <path d="M166.12,312.22h-4.41l-10-15.56v15.56h-5V286.87h4.41l10,15.52V286.87h5Z"/>       <path d="M197.32,312.22h-4.41l-10-15.56v15.56h-4.95V286.87h4.41l10,15.52V286.87h4.95Z"/>       <path d="M225.82,312.22h-16.7V286.87h16.7v4.41H214.07v5.95h10v4.41h-10v6.16h11.75Z"/>       <path d="M253,312.22H236.55V286.87h4.95V307.8H253Z"/>       <path d="M55.59,218.09c19.53,1,31,10.59,31,20.9-.08,18.36-29.24,21.44-29.24,21.44C52.2,285.85,32,295.51,18,295.33-.76,295.12-.45,279.95.22,277.95c.76-2.26,1.94-4.29,4.32-4.28A4.31,4.31,0,0,1,8.83,278a4.08,4.08,0,0,1-2,3.53c-2.51,1.54-2,3.44-2,3.44,0,8.08,10.43,8.74,13.14,8.74,28,.08,24.89-46,49.57-61.56,1.14-.72,2,0,1.34.81-7.74,9.6-10.68,25.13-10.68,25.13,11.9,0,19.75-11.23,19.77-19.1,0-13.49-12.07-19.15-22.38-19.18-28.83-.08-41.33,20-41.36,31s6.86,15,11.89,15c6.94,0,9.15-4.66,8.29-6.93-1.35-3.59.59-6.54,2.73-6.54.85,0,3.71-.13,3.69,4.92,0,4.85-6.93,9.73-14.52,9.71s-18.53-4.15-18.5-16.16C7.88,226.32,37.88,217.17,55.59,218.09Z"/>       <path d="M279.7,250.83l5,0,1-2-5.12,0,4.92-10.91-6.78,0-5.06,10.91h-3.53l-1,2h3.5c-1.88,4.5-3.29,7.26-5.42,11.9-2.4,5.25-7.19,8.16-8.2,7.56-.73-.43-.6-1.39-.25-2.41,1.89-4.14,4.07-8.79,6-13.05.77-1.65,1.4-3.52.38-5.3-.85-1.51-2.74-1.63-4.25-1.38-3.27.5-6,2.64-8.56,4.64l1.64-3.92-6.81,0c-1.89,3.92-3.25,6.93-5,10.94-1.73,3.4-6.67,8.88-9.58,10.53-.49.24-1.38.37-1.63-.26a4.63,4.63,0,0,1,.75-3.4c2.19-4.88,5.21-11.54,7.86-17.83l-6.65,0c-2,4.65-4.08,8.54-6.2,13.18-1.88,3.76-5.55,8.19-7.82,8.54-.78.13-1.5,0-1.5-.66a5.26,5.26,0,0,1,.64-2.61l8.23-18.7c-1.8,0-4.94.09-6.55,0-.27.74-.77,1.86-1.17,2.89-1.49,2.48-5.16,5.76-7.91,3.73a8.58,8.58,0,0,0-.51-2.63,6,6,0,0,0-3.59-4.39c-5.3-1.79-10.85,1.19-14.36,5.1-3.29,3.38-5.7,7.39-6.19,11.79a25.91,25.91,0,0,1-5.29,5.64c-.39.24-1.27.62-1.76.24a1.7,1.7,0,0,1,0-1.59c2-4.19,5.55-12.34,7.33-16.46,1.4-3-.36-6.18-4.91-5.07-3.14.74-5.37,2.61-7.53,4.15.15-1.66-.72-3.89-2.61-4.29-3.39-.78-7.95,2.89-9.73,4.51-.1,0-.27-.14-.27-.14l1.85-3.87-6.58,0c-1.77,4-3.29,7.5-5,11-1.77,3.8-6.17,8.68-8.66,9.74a2.13,2.13,0,0,1-2.17.16c-.37-.25-.75-.62-.23-1.75,3-6.65,5.41-11.92,8.58-18.94-4.51-2.9-10.68-1.56-15.2.56a25.39,25.39,0,0,0-5.91,4.15,19.5,19.5,0,0,1-2.67,1.87c-1,.76-1.75.38-2-.27a5.92,5.92,0,0,1,.65-2.6c.6-1.39,1.75-2.53,1.88-4,.27-1.65-2.11-1.65-3.12-1.18-2.54,1.4-4.69,3.63-6.67,5.16-.14.09-.14,0,0-.26l1.73-3.75-6.38,0-4.54,10c-2.55,4.87-5.81,9.16-9.48,10.89a1.46,1.46,0,0,1-1.49,0c-.65-.38-.38-1.49-.14-2.14,2.92-6.63,5.19-11.67,8.34-18.69-4.49-2.39-10.93-1.67-15.08.7-6.53,3.64-11.36,8.51-14,15.3a10.44,10.44,0,0,0-.31,7.57A3.89,3.89,0,0,0,79.28,274c3.65-.73,6.28-3,9-5.75h.27a10.27,10.27,0,0,0,0,3.54,3.06,3.06,0,0,0,2.24,2.14c3.41.67,7.68-2.87,11.21-6,.14-.12.26,0,.14.15l-2.52,5.51,6.76,0,5.85-13.05a14.12,14.12,0,0,1,3.91-5.66c.25-.12.62-.12.51,0a4.2,4.2,0,0,0,.63,2.51,3.89,3.89,0,0,0,2.24,1.42,6.66,6.66,0,0,0,3.26-.39,33.84,33.84,0,0,0-3.14,5.91c-1.53,3.14-1.3,5.91-.4,7.67A4.34,4.34,0,0,0,124,274.4c3.64-.86,6.26-3.13,9.17-5.87.13-.16.27-.16.27,0a8.06,8.06,0,0,0-.15,3.49,3,3,0,0,0,2.39,2.13c3.4.67,8.06-3.23,11.71-6.24,0-.11.14,0,.14.12-.76,1.49-2,4.4-2.67,5.89l6.67,0,5.09-11.13a41.32,41.32,0,0,1,3-5.79,14,14,0,0,1,4.17-4.5c.73-.38,1.75-.91,2.39-.63a1.66,1.66,0,0,1,.21,1.75c-3,6.79-5.93,13.43-9,20.32l6.82,0c2-4.9,4.39-9.65,6.58-14.7a10.75,10.75,0,0,1,2-3.22A12.39,12.39,0,0,1,178,251.4c.78-.37,1.88.24,1.49,1-2.41,5.62-4.44,10.29-6.84,15.28-.72,1.66-1.4,3.68-.25,5.58a2.69,2.69,0,0,0,1.75,1.52c5,.73,8.7-3.38,12-6.66.11,2.12,1,4.55,2.51,5.57,3.11,2.13,6.65,1.75,9.8.27,6.41-3,10.58-9.42,12.11-16.45,0-.13,0-.13.14-.13a7.9,7.9,0,0,0,5-.37c-2.12,5-4,9.21-4.66,10.69-2.41,5.52,1,8.18,4.78,7.06,3.37-1.14,5.78-3.39,8.29-5.91.13-.08.23-.08.23,0a5.28,5.28,0,0,0,.28,4.79,3,3,0,0,0,3.5,1.41c3.5-.9,7.07-4,9.83-6.79,0-.12.11-.12.11,0-.86,2-2,4.55-2.78,6.43l6.67,0c1.5-3,3-6.17,4.45-9.32,2-4.64,4.42-9.14,9.09-12.64,1-.75,2.12-.75,2.48-.37.28.1.42,1,.28,1.24-2.3,5.4-4.42,10.06-6.82,15.23A7.56,7.56,0,0,0,251,273c.39,1.79,2.51,2.43,4.17,2.18,3.78-.76,6.65-3.51,9.67-5.79a10.81,10.81,0,0,0,0,4.57,6.66,6.66,0,0,0,1,2.22,5.71,5.71,0,0,0,4.41,2.41c5.52.16,11.3-5.12,14-10.38.11-.26-1.91-.52-2-.17-2.29,3.54-4.93,6.82-8.82,8.16-1.26.4-2.65.14-3-1-.51-2,.5-5.32,1.52-7.3C274.38,262.11,276.8,257,279.7,250.83ZM91.12,260.95c-2,3.89-5.54,8.4-8.05,8.4-1.17,0-2.17-.88-1.77-3,.62-4,4.55-9.55,7-12.44,2-2.37,5.17-5.28,8-5.27.24,0,.49,0,.36.26C94.18,254.33,93.13,256.69,91.12,260.95Zm45,.13c-2,3.89-5.53,8.4-8,8.4-1.27,0-2.17-.88-1.77-3,.64-4,4.55-9.55,6.92-12.43,2-2.38,5.2-5.28,8.08-5.27.26,0,.52,0,.38.26C139.16,254.45,138.13,256.82,136.11,261.08Zm64.88,2c-3,5.65-6.56,11.8-9.33,10.38s-.35-8.32,2.65-14,6.72-11.17,9.58-10C206.44,250.35,204,257.39,201,263.07Z"/>       <path d="M157.19,18.84l6.46-4.14,5.9,4.9-2-7.52,6.48-4.26-7.71-.49L164.54,0l-2.77,7.05L154.1,6.6l6,5Zm124.92,82.52,6.43,4.21-2.11,7.4,6.08-4.87,6.56,4.21-2.72-7.25,6-4.65-7.56.34-2.7-7.22-2.19,7.51Zm19.48,19.36-3.56,7-7.69-1.21,5.5,5.38-3.45,6.84,6.89-3.59,5.61,5.37-1.25-7.62,6.75-3.45-7.51-1.09Zm-13.94,95.84,1.78,7.6,3.09-7.08,7.53.78-5.68-5,3.09-7-6.8,3.87-5.82-5.2,1.71,7.49-6.64,3.87Zm14-26.61,7.57-.65-6.54-3.84,1.68-7.5-5.94,5.1-6.68-4,3.11,7.05-5.81,5,7.76-.76,3.2,7.09Zm3.91-33.06.23-7.7-4.85,6.16-7.31-2.65L298,159l-4.73,6.08,7.46-2.21,4.48,6.35.22-7.71,7.25-2.09ZM183.47,21.65l7.15-2.86,4.84,6L195,17,202.2,14l-7.49-2-.41-7.55-4.06,6.39L182.81,9l4.89,6.09ZM276.36,81.3,275.7,89,280.77,83,288,85.92l-4-6.61,5-5.67-7.36,1.75-4-6.57-.69,7.78-7.56,1.78ZM216.18,28l3.63,6.77,1-7.7,7.64-1.52-7-3.36,1-7.5-5.22,5.53-7-3.3,3.65,6.9-5.36,5.63ZM252.3,58.3l7.52,1.49.83,7.64,3.82-6.8,7.63,1.46-5.21-5.71,3.79-6.54L263.77,53l-5.19-5.67.8,7.79ZM239.53,41.82l2.28,7.35,2.46-7.37,7.77-.07-6.2-4.6L248.32,30l-6.18,4.41L236,29.81l2.25,7.48-6.36,4.49ZM18.54,97.3l7-3.43L31,99.46l-1.17-7.58,6.91-3.39L29,87.21l-1.26-7.68L24.2,86.37l-7.42-1.32,5.3,5.42ZM13.85,202.24,16,209.6l2.7-7.35,7.81.26-6.12-4.63L23,190.65l-6.42,4.41-6.25-4.64,2.19,7.4-6.28,4.24ZM105.46,28.55l4.43-6.29,7.33,2.35-4.65-6.26L117,12l-7.31,2.41-4.46-6.11.08,7.58L98,18.3l7.41,2.45ZM80.55,33l1.51,7.64,3.15-7,7.63.92-5.75-5.24,3.13-7.13-6.73,3.81L78,20.76l1.54,7.43L72.8,32ZM58.43,49.67l3,7.2,1.73-7.49,7.68-.57-6.65-4,1.71-7.6-5.86,5-6.44-4,2.89,7-5.84,5Zm72.42-28.49,5.56-5.34,6.74,3.72-3.37-7,5.56-5.43-7.65,1-3.18-6.87-1.4,7.46-7.62,1,6.8,3.81ZM39.9,70.2l4.25,6.49L44.44,69l7.43-2-7.28-2.71.21-7.76-4.8,6-7.06-2.72,4.19,6.33-4.79,6ZM9.71,124.58,16,119.89l6.39,4.43-2.61-7.22,6.16-4.65-7.8.22-2.7-7.29L13.2,112.8l-7.56.1,6.25,4.29ZM6.28,153.16l5.24-5.83,7.12,3.18-3.93-6.62,5.12-5.71-7.59,1.68-4-6.64-.73,7.67L.06,142.45l6.95,3Zm2.11,28.67,4.06-6.68L20,176.9l-5.13-5.75,4-6.6-7.14,3.11-5.24-5.75.73,7.69-6.95,3,7.4,1.64Z"/></svg>
