<svg xmlns="http://www.w3.org/2000/svg" viewBox="0 0 616.03 115.89" fill="#fff"><path d="M56.42,39.54h-8V55.8h8c4.21,0,7-3.22,7-8.12S60.63,39.54,56.42,39.54Z"/><path d="M107.5,38.39c-6.34,0-10.72,3.84-10.72,14.74V64c0,11.17,4.38,14.74,10.72,14.74S118.31,75.18,118.31,64V53.13C118.31,42.23,113.75,38.39,107.5,38.39Z"/><path d="M0,1.24V115.89H376.44V1.24ZM56.87,66.7h-8.4V88.76H35.34V28.38H56.87c12.23,0,19.83,9.11,19.83,19.3S69.1,66.7,56.87,66.7ZM131.43,65c0,16.7-10.71,24.92-23.93,24.92S83.65,81.7,83.65,65V52.23c0-16.61,10.72-25,23.85-25s23.93,8.4,23.93,25Zm34.2,13.75a45,45,0,0,0,14.82-2.41L183,87.15a56,56,0,0,1-17.41,2.77c-14.11,0-24.65-8.14-24.65-24.83v-13c0-16.7,10.54-24.83,24.65-24.83A56,56,0,0,1,183,30l-2.5,10.72a49.77,49.77,0,0,0-14.82-2.32c-7.15,0-11.61,3.84-11.61,14.74V63.92C154,74.91,158.48,78.75,165.63,78.75Zm50.81,0a45,45,0,0,0,14.82-2.41l2.5,10.81a56,56,0,0,1-17.41,2.77c-14.12,0-24.65-8.14-24.65-24.83v-13c0-16.7,10.53-24.83,24.65-24.83A56,56,0,0,1,233.76,30l-2.5,10.72a49.82,49.82,0,0,0-14.82-2.32c-7.15,0-11.61,3.84-11.61,14.74V63.92C204.83,74.91,209.29,78.75,216.44,78.75Zm73.31,10H276.62V63c0-2.68.08-6,.36-9.47l-22.24,35.2H244V28.38h13.13V54.55c0,2.59-.09,5.8-.27,9.2l22.24-35.37h10.63Zm51.35,0H328V66.7h-5l-9.64,22.06H298.68l11.25-23.94c-6.79-3-10.54-9.82-10.54-17.14,0-10.19,7.59-19.3,19.82-19.3H341.1Z"/><path d="M312.61,47.68c0,4.9,3,8.12,7.23,8.12H328V39.54h-8.12C315.64,39.54,312.61,42.85,312.61,47.68Z"/><path d="M387.35,1.24V115.89H502V1.24Zm72.49,99.58H440.26V53l19.58-9.78Zm0-62L420.59,58.38v-21l39.25-19.59Z"/><path d="M520.17,1.11h10.15V25H551V1.11h10.22V58.57H551V33.66H530.32V58.57H520.17Z"/><path d="M574.19,58.57V4.76C580.78,2.3,588.22,0,595.07,0c11.32,0,21,7.57,21,21.42V37.66c0,13.85-7.86,20.91-21,20.91Zm31.61-36.3c0-9.09-4.39-13.43-10.73-13.43a34.19,34.19,0,0,0-10.74,2V49.73h10.74c7.35,0,10.73-3.4,10.73-12.75Z"/></svg>
